<?xml version="1.0" encoding="UTF-8" standalone="no"?><svg xmlns="http://www.w3.org/2000/svg" xmlns:xlink="http://www.w3.org/1999/xlink" contentScriptType="application/ecmascript" contentStyleType="text/css" height="659px" preserveAspectRatio="none" style="width:3382px;height:659px;" version="1.1" viewBox="0 0 3382 659" width="3382px" zoomAndPan="magnify"><defs><filter height="300%" id="f1nqe73qm6g3nq" width="300%" x="-1" y="-1"><feGaussianBlur result="blurOut" stdDeviation="2.0"/><feColorMatrix in="blurOut" result="blurOut2" type="matrix" values="0 0 0 0 0 0 0 0 0 0 0 0 0 0 0 0 0 0 .4 0"/><feOffset dx="4.0" dy="4.0" in="blurOut2" result="blurOut3"/><feBlend in="SourceGraphic" in2="blurOut3" mode="normal"/></filter></defs><g><!--MD5=[e485b9236e0677b5983f08d71091e2ab]
class C_0001723716587279733623--><rect fill="#FEFECE" filter="url(#f1nqe73qm6g3nq)" height="48" id="C_0001723716587279733623" style="stroke: #A80036; stroke-width: 1.5;" width="163" x="1614.5" y="395.5"/><ellipse cx="1629.5" cy="411.5" fill="#ADD1B2" rx="11" ry="11" style="stroke: #A80036; stroke-width: 1.0;"/><path d="M1632.4688,417.1406 Q1631.8906,417.4375 1631.25,417.5781 Q1630.6094,417.7344 1629.9063,417.7344 Q1627.4063,417.7344 1626.0781,416.0938 Q1624.7656,414.4375 1624.7656,411.3125 Q1624.7656,408.1875 1626.0781,406.5313 Q1627.4063,404.875 1629.9063,404.875 Q1630.6094,404.875 1631.25,405.0313 Q1631.9063,405.1875 1632.4688,405.4844 L1632.4688,408.2031 Q1631.8438,407.625 1631.25,407.3594 Q1630.6563,407.0781 1630.0313,407.0781 Q1628.6875,407.0781 1628,408.1563 Q1627.3125,409.2188 1627.3125,411.3125 Q1627.3125,413.4063 1628,414.4844 Q1628.6875,415.5469 1630.0313,415.5469 Q1630.6563,415.5469 1631.25,415.2813 Q1631.8438,415 1632.4688,414.4219 L1632.4688,417.1406 Z "/><text fill="#000000" font-family="sans-serif" font-size="12" lengthAdjust="spacingAndGlyphs" textLength="51" x="1643.5" y="415.6543">type_list</text><rect fill="#FFFFFF" height="15.9688" style="stroke: #000000; stroke-width: 1.0; stroke-dasharray: 2.0,2.0;" width="78" x="1702.5" y="392.5"/><text fill="#000000" font-family="sans-serif" font-size="12" font-style="italic" lengthAdjust="spacingAndGlyphs" textLength="76" x="1703.5" y="404.6387">First,Other...</text><line style="stroke: #A80036; stroke-width: 1.5;" x1="1615.5" x2="1776.5" y1="427.5" y2="427.5"/><line style="stroke: #A80036; stroke-width: 1.5;" x1="1615.5" x2="1776.5" y1="435.5" y2="435.5"/><!--MD5=[6a01bbc4ee62ff4973ee939bbc6a0468]
class C_0000401973545844492876--><rect fill="#FEFECE" filter="url(#f1nqe73qm6g3nq)" height="48" id="C_0000401973545844492876" style="stroke: #A80036; stroke-width: 1.5;" width="133" x="1532.5" y="104"/><ellipse cx="1547.5" cy="120" fill="#ADD1B2" rx="11" ry="11" style="stroke: #A80036; stroke-width: 1.0;"/><path d="M1550.4688,125.6406 Q1549.8906,125.9375 1549.25,126.0781 Q1548.6094,126.2344 1547.9063,126.2344 Q1545.4063,126.2344 1544.0781,124.5938 Q1542.7656,122.9375 1542.7656,119.8125 Q1542.7656,116.6875 1544.0781,115.0313 Q1545.4063,113.375 1547.9063,113.375 Q1548.6094,113.375 1549.25,113.5313 Q1549.9063,113.6875 1550.4688,113.9844 L1550.4688,116.7031 Q1549.8438,116.125 1549.25,115.8594 Q1548.6563,115.5781 1548.0313,115.5781 Q1546.6875,115.5781 1546,116.6563 Q1545.3125,117.7188 1545.3125,119.8125 Q1545.3125,121.9063 1546,122.9844 Q1546.6875,124.0469 1548.0313,124.0469 Q1548.6563,124.0469 1549.25,123.7813 Q1549.8438,123.5 1550.4688,122.9219 L1550.4688,125.6406 Z "/><text fill="#000000" font-family="sans-serif" font-size="12" lengthAdjust="spacingAndGlyphs" textLength="51" x="1561.5" y="124.1543">type_list</text><rect fill="#FFFFFF" height="15.9688" style="stroke: #000000; stroke-width: 1.0; stroke-dasharray: 2.0,2.0;" width="48" x="1620.5" y="101"/><text fill="#000000" font-family="sans-serif" font-size="12" font-style="italic" lengthAdjust="spacingAndGlyphs" textLength="46" x="1621.5" y="113.1387">Other...</text><line style="stroke: #A80036; stroke-width: 1.5;" x1="1533.5" x2="1664.5" y1="136" y2="136"/><line style="stroke: #A80036; stroke-width: 1.5;" x1="1533.5" x2="1664.5" y1="144" y2="144"/><!--MD5=[f7b1ce25921e4ee6a8c04575492edfa0]
class C_0000496685335806935509--><rect fill="#FEFECE" filter="url(#f1nqe73qm6g3nq)" height="48" id="C_0000496685335806935509" style="stroke: #A80036; stroke-width: 1.5;" width="167" x="1700.5" y="104"/><ellipse cx="1715.5" cy="120" fill="#ADD1B2" rx="11" ry="11" style="stroke: #A80036; stroke-width: 1.0;"/><path d="M1718.4688,125.6406 Q1717.8906,125.9375 1717.25,126.0781 Q1716.6094,126.2344 1715.9063,126.2344 Q1713.4063,126.2344 1712.0781,124.5938 Q1710.7656,122.9375 1710.7656,119.8125 Q1710.7656,116.6875 1712.0781,115.0313 Q1713.4063,113.375 1715.9063,113.375 Q1716.6094,113.375 1717.25,113.5313 Q1717.9063,113.6875 1718.4688,113.9844 L1718.4688,116.7031 Q1717.8438,116.125 1717.25,115.8594 Q1716.6563,115.5781 1716.0313,115.5781 Q1714.6875,115.5781 1714,116.6563 Q1713.3125,117.7188 1713.3125,119.8125 Q1713.3125,121.9063 1714,122.9844 Q1714.6875,124.0469 1716.0313,124.0469 Q1716.6563,124.0469 1717.25,123.7813 Q1717.8438,123.5 1718.4688,122.9219 L1718.4688,125.6406 Z "/><text fill="#000000" font-family="sans-serif" font-size="12" lengthAdjust="spacingAndGlyphs" textLength="51" x="1729.5" y="124.1543">type_list</text><rect fill="#FFFFFF" height="15.9688" style="stroke: #000000; stroke-width: 1.0; stroke-dasharray: 2.0,2.0;" width="82" x="1788.5" y="101"/><text fill="#000000" font-family="sans-serif" font-size="12" font-style="italic" lengthAdjust="spacingAndGlyphs" textLength="80" x="1789.5" y="113.1387">Type,Other...</text><line style="stroke: #A80036; stroke-width: 1.5;" x1="1701.5" x2="1866.5" y1="136" y2="136"/><line style="stroke: #A80036; stroke-width: 1.5;" x1="1701.5" x2="1866.5" y1="144" y2="144"/><!--MD5=[6148bbf39386e6884f1c3a37d5bc37de]
class C_0000816653833137337534--><rect fill="#FEFECE" filter="url(#f1nqe73qm6g3nq)" height="48" id="C_0000816653833137337534" style="stroke: #A80036; stroke-width: 1.5;" width="83" x="265.5" y="104"/><ellipse cx="280.5" cy="120" fill="#ADD1B2" rx="11" ry="11" style="stroke: #A80036; stroke-width: 1.0;"/><path d="M283.4688,125.6406 Q282.8906,125.9375 282.25,126.0781 Q281.6094,126.2344 280.9063,126.2344 Q278.4063,126.2344 277.0781,124.5938 Q275.7656,122.9375 275.7656,119.8125 Q275.7656,116.6875 277.0781,115.0313 Q278.4063,113.375 280.9063,113.375 Q281.6094,113.375 282.25,113.5313 Q282.9063,113.6875 283.4688,113.9844 L283.4688,116.7031 Q282.8438,116.125 282.25,115.8594 Q281.6563,115.5781 281.0313,115.5781 Q279.6875,115.5781 279,116.6563 Q278.3125,117.7188 278.3125,119.8125 Q278.3125,121.9063 279,122.9844 Q279.6875,124.0469 281.0313,124.0469 Q281.6563,124.0469 282.25,123.7813 Q282.8438,123.5 283.4688,122.9219 L283.4688,125.6406 Z "/><text fill="#000000" font-family="sans-serif" font-size="12" lengthAdjust="spacingAndGlyphs" textLength="51" x="294.5" y="124.1543">type_list</text><line style="stroke: #A80036; stroke-width: 1.5;" x1="266.5" x2="347.5" y1="136" y2="136"/><line style="stroke: #A80036; stroke-width: 1.5;" x1="266.5" x2="347.5" y1="144" y2="144"/><!--MD5=[442f4775273a873dcd68395488ee7552]
class C_0000150299823092418682--><rect fill="#FEFECE" filter="url(#f1nqe73qm6g3nq)" height="48" id="C_0000150299823092418682" style="stroke: #A80036; stroke-width: 1.5;" width="129" x="1631.5" y="588"/><ellipse cx="1646.5" cy="604" fill="#ADD1B2" rx="11" ry="11" style="stroke: #A80036; stroke-width: 1.0;"/><path d="M1649.4688,609.6406 Q1648.8906,609.9375 1648.25,610.0781 Q1647.6094,610.2344 1646.9063,610.2344 Q1644.4063,610.2344 1643.0781,608.5938 Q1641.7656,606.9375 1641.7656,603.8125 Q1641.7656,600.6875 1643.0781,599.0313 Q1644.4063,597.375 1646.9063,597.375 Q1647.6094,597.375 1648.25,597.5313 Q1648.9063,597.6875 1649.4688,597.9844 L1649.4688,600.7031 Q1648.8438,600.125 1648.25,599.8594 Q1647.6563,599.5781 1647.0313,599.5781 Q1645.6875,599.5781 1645,600.6563 Q1644.3125,601.7188 1644.3125,603.8125 Q1644.3125,605.9063 1645,606.9844 Q1645.6875,608.0469 1647.0313,608.0469 Q1647.6563,608.0469 1648.25,607.7813 Q1648.8438,607.5 1649.4688,606.9219 L1649.4688,609.6406 Z "/><text fill="#000000" font-family="sans-serif" font-size="12" lengthAdjust="spacingAndGlyphs" textLength="51" x="1660.5" y="608.1543">type_list</text><rect fill="#FFFFFF" height="15.9688" style="stroke: #000000; stroke-width: 1.0; stroke-dasharray: 2.0,2.0;" width="44" x="1719.5" y="585"/><text fill="#000000" font-family="sans-serif" font-size="12" font-style="italic" lengthAdjust="spacingAndGlyphs" textLength="42" x="1720.5" y="597.1387">Type...</text><line style="stroke: #A80036; stroke-width: 1.5;" x1="1632.5" x2="1759.5" y1="620" y2="620"/><line style="stroke: #A80036; stroke-width: 1.5;" x1="1632.5" x2="1759.5" y1="628" y2="628"/><!--MD5=[dba122445a36f167654618ace17aa89b]
class C_0001276342508473126665--><rect fill="#FEFECE" filter="url(#f1nqe73qm6g3nq)" height="48" id="C_0001276342508473126665" style="stroke: #A80036; stroke-width: 1.5;" width="178" x="384" y="104"/><ellipse cx="399" cy="120" fill="#ADD1B2" rx="11" ry="11" style="stroke: #A80036; stroke-width: 1.0;"/><path d="M401.9688,125.6406 Q401.3906,125.9375 400.75,126.0781 Q400.1094,126.2344 399.4063,126.2344 Q396.9063,126.2344 395.5781,124.5938 Q394.2656,122.9375 394.2656,119.8125 Q394.2656,116.6875 395.5781,115.0313 Q396.9063,113.375 399.4063,113.375 Q400.1094,113.375 400.75,113.5313 Q401.4063,113.6875 401.9688,113.9844 L401.9688,116.7031 Q401.3438,116.125 400.75,115.8594 Q400.1563,115.5781 399.5313,115.5781 Q398.1875,115.5781 397.5,116.6563 Q396.8125,117.7188 396.8125,119.8125 Q396.8125,121.9063 397.5,122.9844 Q398.1875,124.0469 399.5313,124.0469 Q400.1563,124.0469 400.75,123.7813 Q401.3438,123.5 401.9688,122.9219 L401.9688,125.6406 Z "/><text fill="#000000" font-family="sans-serif" font-size="12" lengthAdjust="spacingAndGlyphs" textLength="57" x="413" y="124.1543">value_list</text><rect fill="#FFFFFF" height="15.9688" style="stroke: #000000; stroke-width: 1.0; stroke-dasharray: 2.0,2.0;" width="87" x="478" y="101"/><text fill="#000000" font-family="sans-serif" font-size="12" font-style="italic" lengthAdjust="spacingAndGlyphs" textLength="85" x="479" y="113.1387">Value,Other...</text><line style="stroke: #A80036; stroke-width: 1.5;" x1="385" x2="561" y1="136" y2="136"/><line style="stroke: #A80036; stroke-width: 1.5;" x1="385" x2="561" y1="144" y2="144"/><!--MD5=[80b4c8a766d5784b057aa28a7b75a901]
class C_0000669672540584988414--><rect fill="#FEFECE" filter="url(#f1nqe73qm6g3nq)" height="48" id="C_0000669672540584988414" style="stroke: #A80036; stroke-width: 1.5;" width="139" x="597.5" y="104"/><ellipse cx="612.5" cy="120" fill="#ADD1B2" rx="11" ry="11" style="stroke: #A80036; stroke-width: 1.0;"/><path d="M615.4688,125.6406 Q614.8906,125.9375 614.25,126.0781 Q613.6094,126.2344 612.9063,126.2344 Q610.4063,126.2344 609.0781,124.5938 Q607.7656,122.9375 607.7656,119.8125 Q607.7656,116.6875 609.0781,115.0313 Q610.4063,113.375 612.9063,113.375 Q613.6094,113.375 614.25,113.5313 Q614.9063,113.6875 615.4688,113.9844 L615.4688,116.7031 Q614.8438,116.125 614.25,115.8594 Q613.6563,115.5781 613.0313,115.5781 Q611.6875,115.5781 611,116.6563 Q610.3125,117.7188 610.3125,119.8125 Q610.3125,121.9063 611,122.9844 Q611.6875,124.0469 613.0313,124.0469 Q613.6563,124.0469 614.25,123.7813 Q614.8438,123.5 615.4688,122.9219 L615.4688,125.6406 Z "/><text fill="#000000" font-family="sans-serif" font-size="12" lengthAdjust="spacingAndGlyphs" textLength="57" x="626.5" y="124.1543">value_list</text><rect fill="#FFFFFF" height="15.9688" style="stroke: #000000; stroke-width: 1.0; stroke-dasharray: 2.0,2.0;" width="48" x="691.5" y="101"/><text fill="#000000" font-family="sans-serif" font-size="12" font-style="italic" lengthAdjust="spacingAndGlyphs" textLength="46" x="692.5" y="113.1387">Other...</text><line style="stroke: #A80036; stroke-width: 1.5;" x1="598.5" x2="735.5" y1="136" y2="136"/><line style="stroke: #A80036; stroke-width: 1.5;" x1="598.5" x2="735.5" y1="144" y2="144"/><!--MD5=[5d983811bb68f4bf490dbb95eda629bd]
class C_0000114548431562228752--><rect fill="#FEFECE" filter="url(#f1nqe73qm6g3nq)" height="48" id="C_0000114548431562228752" style="stroke: #A80036; stroke-width: 1.5;" width="128" x="243" y="395.5"/><ellipse cx="258" cy="411.5" fill="#ADD1B2" rx="11" ry="11" style="stroke: #A80036; stroke-width: 1.0;"/><path d="M260.9688,417.1406 Q260.3906,417.4375 259.75,417.5781 Q259.1094,417.7344 258.4063,417.7344 Q255.9063,417.7344 254.5781,416.0938 Q253.2656,414.4375 253.2656,411.3125 Q253.2656,408.1875 254.5781,406.5313 Q255.9063,404.875 258.4063,404.875 Q259.1094,404.875 259.75,405.0313 Q260.4063,405.1875 260.9688,405.4844 L260.9688,408.2031 Q260.3438,407.625 259.75,407.3594 Q259.1563,407.0781 258.5313,407.0781 Q257.1875,407.0781 256.5,408.1563 Q255.8125,409.2188 255.8125,411.3125 Q255.8125,413.4063 256.5,414.4844 Q257.1875,415.5469 258.5313,415.5469 Q259.1563,415.5469 259.75,415.2813 Q260.3438,415 260.9688,414.4219 L260.9688,417.1406 Z "/><text fill="#000000" font-family="sans-serif" font-size="12" lengthAdjust="spacingAndGlyphs" textLength="57" x="272" y="415.6543">value_list</text><rect fill="#FFFFFF" height="15.9688" style="stroke: #000000; stroke-width: 1.0; stroke-dasharray: 2.0,2.0;" width="37" x="337" y="392.5"/><text fill="#000000" font-family="sans-serif" font-size="12" font-style="italic" lengthAdjust="spacingAndGlyphs" textLength="35" x="338" y="404.6387">Value</text><line style="stroke: #A80036; stroke-width: 1.5;" x1="244" x2="370" y1="427.5" y2="427.5"/><line style="stroke: #A80036; stroke-width: 1.5;" x1="244" x2="370" y1="435.5" y2="435.5"/><!--MD5=[280d62ec96ef52489b13274d3b267624]
class C_0002187650141235109775--><rect fill="#FEFECE" filter="url(#f1nqe73qm6g3nq)" height="48" id="C_0002187650141235109775" style="stroke: #A80036; stroke-width: 1.5;" width="152" x="1991" y="104"/><ellipse cx="2006" cy="120" fill="#ADD1B2" rx="11" ry="11" style="stroke: #A80036; stroke-width: 1.0;"/><path d="M2008.9688,125.6406 Q2008.3906,125.9375 2007.75,126.0781 Q2007.1094,126.2344 2006.4063,126.2344 Q2003.9063,126.2344 2002.5781,124.5938 Q2001.2656,122.9375 2001.2656,119.8125 Q2001.2656,116.6875 2002.5781,115.0313 Q2003.9063,113.375 2006.4063,113.375 Q2007.1094,113.375 2007.75,113.5313 Q2008.4063,113.6875 2008.9688,113.9844 L2008.9688,116.7031 Q2008.3438,116.125 2007.75,115.8594 Q2007.1563,115.5781 2006.5313,115.5781 Q2005.1875,115.5781 2004.5,116.6563 Q2003.8125,117.7188 2003.8125,119.8125 Q2003.8125,121.9063 2004.5,122.9844 Q2005.1875,124.0469 2006.5313,124.0469 Q2007.1563,124.0469 2007.75,123.7813 Q2008.3438,123.5 2008.9688,122.9219 L2008.9688,125.6406 Z "/><text fill="#000000" font-family="sans-serif" font-size="12" lengthAdjust="spacingAndGlyphs" textLength="64" x="2020" y="124.1543">basic_poly</text><rect fill="#FFFFFF" height="15.9688" style="stroke: #000000; stroke-width: 1.0; stroke-dasharray: 2.0,2.0;" width="54" x="2092" y="101"/><text fill="#000000" font-family="sans-serif" font-size="12" font-style="italic" lengthAdjust="spacingAndGlyphs" textLength="52" x="2093" y="113.1387">Concept</text><line style="stroke: #A80036; stroke-width: 1.5;" x1="1992" x2="2142" y1="136" y2="136"/><line style="stroke: #A80036; stroke-width: 1.5;" x1="1992" x2="2142" y1="144" y2="144"/><!--MD5=[5506c830a7b836c2ad6868ad7418649f]
class C_0000460891939233668905--><a href="https://github.com/skypjack/entt/blob/fef921132cae7588213d0f9bcd2fb9c8ffd8b7fc/src/entt/poly/poly.hpp#L17" target="_top" title="poly_inspector" xlink:actuate="onRequest" xlink:href="https://github.com/skypjack/entt/blob/fef921132cae7588213d0f9bcd2fb9c8ffd8b7fc/src/entt/poly/poly.hpp#L17" xlink:show="new" xlink:title="poly_inspector" xlink:type="simple"><rect fill="#FEFECE" filter="url(#f1nqe73qm6g3nq)" height="86.4141" id="C_0000460891939233668905" style="stroke: #A80036; stroke-width: 1.5;" width="424" x="406" y="376.5"/><ellipse cx="568.75" cy="392.5" fill="#ADD1B2" rx="11" ry="11" style="stroke: #A80036; stroke-width: 1.0;"/><path d="M571.7188,398.1406 Q571.1406,398.4375 570.5,398.5781 Q569.8594,398.7344 569.1563,398.7344 Q566.6563,398.7344 565.3281,397.0938 Q564.0156,395.4375 564.0156,392.3125 Q564.0156,389.1875 565.3281,387.5313 Q566.6563,385.875 569.1563,385.875 Q569.8594,385.875 570.5,386.0313 Q571.1563,386.1875 571.7188,386.4844 L571.7188,389.2031 Q571.0938,388.625 570.5,388.3594 Q569.9063,388.0781 569.2813,388.0781 Q567.9375,388.0781 567.25,389.1563 Q566.5625,390.2188 566.5625,392.3125 Q566.5625,394.4063 567.25,395.4844 Q567.9375,396.5469 569.2813,396.5469 Q569.9063,396.5469 570.5,396.2813 Q571.0938,396 571.7188,395.4219 L571.7188,398.1406 Z "/><text fill="#000000" font-family="sans-serif" font-size="12" lengthAdjust="spacingAndGlyphs" textLength="90" x="589.25" y="396.6543">poly_inspector</text><line style="stroke: #A80036; stroke-width: 1.5;" x1="407" x2="829" y1="408.5" y2="408.5"/><line style="stroke: #A80036; stroke-width: 1.5;" x1="407" x2="829" y1="416.5" y2="416.5"/><ellipse cx="417" cy="427.5" fill="#84BE84" rx="3" ry="3" style="stroke: #038048; stroke-width: 1.0;"/><text fill="#000000" font-family="sans-serif" font-size="11" lengthAdjust="spacingAndGlyphs" textLength="303" x="426" y="430.7104">operator type-parameter-0-0 &amp;&amp;&lt;Type&gt;() : Type &amp;&amp;</text><ellipse cx="417" cy="440.3047" fill="#84BE84" rx="3" ry="3" style="stroke: #038048; stroke-width: 1.0;"/><text fill="#000000" font-family="sans-serif" font-size="11" lengthAdjust="spacingAndGlyphs" textLength="398" x="426" y="443.5151">invoke&lt;std::size_t Member,Args...&gt;(Args &amp;&amp;... args) : poly_inspector</text><ellipse cx="417" cy="453.1094" fill="#84BE84" rx="3" ry="3" style="stroke: #038048; stroke-width: 1.0;"/><text fill="#000000" font-family="sans-serif" font-size="11" lengthAdjust="spacingAndGlyphs" textLength="398" x="426" y="456.3198">invoke&lt;std::size_t Member,Args...&gt;(Args &amp;&amp;... args) : poly_inspector</text></a><!--MD5=[d9e58df8c50379e1c6616038b191c843]
class C_0000593699980024327418--><a href="https://github.com/skypjack/entt/blob/fef921132cae7588213d0f9bcd2fb9c8ffd8b7fc/src/entt/poly/poly.hpp#L47" target="_top" title="poly_vtable" xlink:actuate="onRequest" xlink:href="https://github.com/skypjack/entt/blob/fef921132cae7588213d0f9bcd2fb9c8ffd8b7fc/src/entt/poly/poly.hpp#L47" xlink:show="new" xlink:title="poly_vtable" xlink:type="simple"><rect fill="#FEFECE" filter="url(#f1nqe73qm6g3nq)" height="188.8516" id="C_0000593699980024327418" style="stroke: #A80036; stroke-width: 1.5;" width="714" x="865" y="325"/><ellipse cx="1059.75" cy="341" fill="#ADD1B2" rx="11" ry="11" style="stroke: #A80036; stroke-width: 1.0;"/><path d="M1062.7188,346.6406 Q1062.1406,346.9375 1061.5,347.0781 Q1060.8594,347.2344 1060.1563,347.2344 Q1057.6563,347.2344 1056.3281,345.5938 Q1055.0156,343.9375 1055.0156,340.8125 Q1055.0156,337.6875 1056.3281,336.0313 Q1057.6563,334.375 1060.1563,334.375 Q1060.8594,334.375 1061.5,334.5313 Q1062.1563,334.6875 1062.7188,334.9844 L1062.7188,337.7031 Q1062.0938,337.125 1061.5,336.8594 Q1060.9063,336.5781 1060.2813,336.5781 Q1058.9375,336.5781 1058.25,337.6563 Q1057.5625,338.7188 1057.5625,340.8125 Q1057.5625,342.9063 1058.25,343.9844 Q1058.9375,345.0469 1060.2813,345.0469 Q1060.9063,345.0469 1061.5,344.7813 Q1062.0938,344.5 1062.7188,343.9219 L1062.7188,346.6406 Z "/><text fill="#000000" font-family="sans-serif" font-size="12" lengthAdjust="spacingAndGlyphs" textLength="69" x="1080.25" y="345.1543">poly_vtable</text><rect fill="#FFFFFF" height="15.9688" style="stroke: #000000; stroke-width: 1.0; stroke-dasharray: 2.0,2.0;" width="245" x="1337" y="322"/><text fill="#000000" font-family="sans-serif" font-size="12" font-style="italic" lengthAdjust="spacingAndGlyphs" textLength="243" x="1338" y="334.1387">Concept,std::size_t Len,std::size_t Align</text><line style="stroke: #A80036; stroke-width: 1.5;" x1="866" x2="1578" y1="357" y2="357"/></a><a href="https://github.com/skypjack/entt/blob/fef921132cae7588213d0f9bcd2fb9c8ffd8b7fc/src/entt/poly/poly.hpp#L99" target="_top" title="is_mono_v" xlink:actuate="onRequest" xlink:href="https://github.com/skypjack/entt/blob/fef921132cae7588213d0f9bcd2fb9c8ffd8b7fc/src/entt/poly/poly.hpp#L99" xlink:show="new" xlink:title="is_mono_v" xlink:type="simple"><rect fill="#FEFECE" height="10" style="stroke: none; stroke-width: 1.0;" width="20" x="871" y="363"/><rect fill="none" height="6" style="stroke: #C82930; stroke-width: 1.0;" width="6" x="873" y="365"/></a><a href="https://github.com/skypjack/entt/blob/fef921132cae7588213d0f9bcd2fb9c8ffd8b7fc/src/entt/poly/poly.hpp#L99" target="_top" title="is_mono_v" xlink:actuate="onRequest" xlink:href="https://github.com/skypjack/entt/blob/fef921132cae7588213d0f9bcd2fb9c8ffd8b7fc/src/entt/poly/poly.hpp#L99" xlink:show="new" xlink:title="is_mono_v" xlink:type="simple"><text fill="#000000" font-family="sans-serif" font-size="11" lengthAdjust="spacingAndGlyphs" text-decoration="underline" textLength="131" x="885" y="371.2104">is_mono_v : const bool</text></a><line style="stroke: #A80036; stroke-width: 1.5;" x1="866" x2="1578" y1="377.8047" y2="377.8047"/><rect fill="#F24D5C" height="6" style="stroke: #C82930; stroke-width: 1.0;" width="6" x="873" y="385.8047"/><text fill="#000000" font-family="sans-serif" font-size="11" lengthAdjust="spacingAndGlyphs" text-decoration="underline" textLength="557" x="885" y="392.0151">vtable_entry&lt;Ret,Args...&gt;(Ret (*)(inspector &amp;,Args...) ) : Ret (*)(basic_any&lt;Len, Align&gt; &amp;, Args...)</text><rect fill="#F24D5C" height="6" style="stroke: #C82930; stroke-width: 1.0;" width="6" x="873" y="398.6094"/><text fill="#000000" font-family="sans-serif" font-size="11" lengthAdjust="spacingAndGlyphs" text-decoration="underline" textLength="627" x="885" y="404.8198">vtable_entry&lt;Ret,Args...&gt;(Ret (*)(const inspector &amp;,Args...) ) : Ret (*)(const basic_any&lt;Len, Align&gt; &amp;, Args...)</text><rect fill="#F24D5C" height="6" style="stroke: #C82930; stroke-width: 1.0;" width="6" x="873" y="411.4141"/><text fill="#000000" font-family="sans-serif" font-size="11" lengthAdjust="spacingAndGlyphs" text-decoration="underline" textLength="521" x="885" y="417.6245">vtable_entry&lt;Ret,Args...&gt;(Ret (*)(Args...) ) : Ret (*)(const basic_any&lt;Len, Align&gt; &amp;, Args...)</text><rect fill="#F24D5C" height="6" style="stroke: #C82930; stroke-width: 1.0;" width="6" x="873" y="424.2188"/><text fill="#000000" font-family="sans-serif" font-size="11" lengthAdjust="spacingAndGlyphs" text-decoration="underline" textLength="618" x="885" y="430.4292">vtable_entry&lt;Ret,Args...&gt;(Ret (poly_vtable::inspector::*)(Args...) ) : Ret (*)(basic_any&lt;Len, Align&gt; &amp;, Args...)</text><rect fill="#F24D5C" height="6" style="stroke: #C82930; stroke-width: 1.0;" width="6" x="873" y="437.0234"/><text fill="#000000" font-family="sans-serif" font-size="11" lengthAdjust="spacingAndGlyphs" text-decoration="underline" textLength="688" x="885" y="443.2339">vtable_entry&lt;Ret,Args...&gt;(Ret (poly_vtable::inspector::*)(Args...) const ) : Ret (*)(const basic_any&lt;Len, Align&gt; &amp;, Args...)</text><rect fill="#F24D5C" height="6" style="stroke: #C82930; stroke-width: 1.0;" width="6" x="873" y="449.8281"/><text fill="#000000" font-family="sans-serif" font-size="11" lengthAdjust="spacingAndGlyphs" text-decoration="underline" textLength="651" x="885" y="456.0386">make_vtable&lt;auto... Candidate&gt;(value_list&lt;Candidate...&gt; ) : decltype(std::make_tuple(vtable_entry(Candidate)...))</text><rect fill="#F24D5C" height="6" style="stroke: #C82930; stroke-width: 1.0;" width="6" x="873" y="462.6328"/><text fill="#000000" font-family="sans-serif" font-size="11" lengthAdjust="spacingAndGlyphs" text-decoration="underline" textLength="279" x="885" y="468.8433">make_vtable&lt;Func...&gt;(type_list&lt;Func...&gt; ) : auto</text><rect fill="#F24D5C" height="6" style="stroke: #C82930; stroke-width: 1.0;" width="6" x="873" y="475.4375"/><text fill="#000000" font-family="sans-serif" font-size="11" lengthAdjust="spacingAndGlyphs" text-decoration="underline" textLength="517" x="885" y="481.6479">fill_vtable_entry&lt;Type,auto Candidate,Ret,Any,Args...&gt;(Ret (*&amp;)(Any &amp;,Args...) entry) : void</text><rect fill="#F24D5C" height="6" style="stroke: #C82930; stroke-width: 1.0;" width="6" x="873" y="488.2422"/><text fill="#000000" font-family="sans-serif" font-size="11" lengthAdjust="spacingAndGlyphs" text-decoration="underline" textLength="399" x="885" y="494.4526">fill_vtable&lt;Type,auto... Index&gt;(std::index_sequence&lt;Index...&gt; ) : auto</text><ellipse cx="876" cy="504.0469" fill="#84BE84" rx="3" ry="3" style="stroke: #038048; stroke-width: 1.0;"/><text fill="#000000" font-family="sans-serif" font-size="11" lengthAdjust="spacingAndGlyphs" text-decoration="underline" textLength="137" x="885" y="507.2573">instance&lt;Type&gt;() : type</text><!--MD5=[52791d8612178f7596450389461840c1]
class C_0001758879837962625486--><a href="https://github.com/skypjack/entt/blob/fef921132cae7588213d0f9bcd2fb9c8ffd8b7fc/src/entt/poly/poly.hpp#L128" target="_top" title="poly_base" xlink:actuate="onRequest" xlink:href="https://github.com/skypjack/entt/blob/fef921132cae7588213d0f9bcd2fb9c8ffd8b7fc/src/entt/poly/poly.hpp#L128" xlink:show="new" xlink:title="poly_base" xlink:type="simple"><rect fill="#FEFECE" filter="url(#f1nqe73qm6g3nq)" height="73.6094" id="C_0001758879837962625486" style="stroke: #A80036; stroke-width: 1.5;" width="602" x="6" y="575"/><ellipse cx="257.25" cy="591" fill="#ADD1B2" rx="11" ry="11" style="stroke: #A80036; stroke-width: 1.0;"/><path d="M260.2188,596.6406 Q259.6406,596.9375 259,597.0781 Q258.3594,597.2344 257.6563,597.2344 Q255.1563,597.2344 253.8281,595.5938 Q252.5156,593.9375 252.5156,590.8125 Q252.5156,587.6875 253.8281,586.0313 Q255.1563,584.375 257.6563,584.375 Q258.3594,584.375 259,584.5313 Q259.6563,584.6875 260.2188,584.9844 L260.2188,587.7031 Q259.5938,587.125 259,586.8594 Q258.4063,586.5781 257.7813,586.5781 Q256.4375,586.5781 255.75,587.6563 Q255.0625,588.7188 255.0625,590.8125 Q255.0625,592.9063 255.75,593.9844 Q256.4375,595.0469 257.7813,595.0469 Q258.4063,595.0469 259,594.7813 Q259.5938,594.5 260.2188,593.9219 L260.2188,596.6406 Z "/><text fill="#000000" font-family="sans-serif" font-size="12" lengthAdjust="spacingAndGlyphs" textLength="62" x="277.75" y="595.1543">poly_base</text><rect fill="#FFFFFF" height="15.9688" style="stroke: #000000; stroke-width: 1.0; stroke-dasharray: 2.0,2.0;" width="27" x="584" y="572"/><text fill="#000000" font-family="sans-serif" font-size="12" font-style="italic" lengthAdjust="spacingAndGlyphs" textLength="25" x="585" y="584.1387">Poly</text><line style="stroke: #A80036; stroke-width: 1.5;" x1="7" x2="607" y1="607" y2="607"/><line style="stroke: #A80036; stroke-width: 1.5;" x1="7" x2="607" y1="615" y2="615"/><ellipse cx="17" cy="626" fill="#84BE84" rx="3" ry="3" style="stroke: #038048; stroke-width: 1.0;"/><text fill="#000000" font-family="sans-serif" font-size="11" lengthAdjust="spacingAndGlyphs" textLength="576" x="26" y="629.2104">invoke&lt;std::size_t Member,Args...&gt;(const poly_base&lt;Poly&gt; &amp; self, Args &amp;&amp;... args) : decltype(auto)</text><ellipse cx="17" cy="638.8047" fill="#84BE84" rx="3" ry="3" style="stroke: #038048; stroke-width: 1.0;"/><text fill="#000000" font-family="sans-serif" font-size="11" lengthAdjust="spacingAndGlyphs" textLength="541" x="26" y="642.0151">invoke&lt;std::size_t Member,Args...&gt;(poly_base&lt;Poly&gt; &amp; self, Args &amp;&amp;... args) : decltype(auto)</text></a><!--MD5=[a963967102508b51eb83d5fadbb759f9]
class C_0000137726632101471303--><rect fill="#FEFECE" filter="url(#f1nqe73qm6g3nq)" height="48" id="C_0000137726632101471303" style="stroke: #A80036; stroke-width: 1.5;" width="154" x="2696" y="395.5"/><ellipse cx="2711" cy="411.5" fill="#ADD1B2" rx="11" ry="11" style="stroke: #A80036; stroke-width: 1.0;"/><path d="M2713.9688,417.1406 Q2713.3906,417.4375 2712.75,417.5781 Q2712.1094,417.7344 2711.4063,417.7344 Q2708.9063,417.7344 2707.5781,416.0938 Q2706.2656,414.4375 2706.2656,411.3125 Q2706.2656,408.1875 2707.5781,406.5313 Q2708.9063,404.875 2711.4063,404.875 Q2712.1094,404.875 2712.75,405.0313 Q2713.4063,405.1875 2713.9688,405.4844 L2713.9688,408.2031 Q2713.3438,407.625 2712.75,407.3594 Q2712.1563,407.0781 2711.5313,407.0781 Q2710.1875,407.0781 2709.5,408.1563 Q2708.8125,409.2188 2708.8125,411.3125 Q2708.8125,413.4063 2709.5,414.4844 Q2710.1875,415.5469 2711.5313,415.5469 Q2712.1563,415.5469 2712.75,415.2813 Q2713.3438,415 2713.9688,414.4219 L2713.9688,417.1406 Z "/><text fill="#000000" font-family="sans-serif" font-size="12" lengthAdjust="spacingAndGlyphs" textLength="61" x="2725" y="415.6543">basic_any</text><rect fill="#FFFFFF" height="15.9688" style="stroke: #000000; stroke-width: 1.0; stroke-dasharray: 2.0,2.0;" width="59" x="2794" y="392.5"/><text fill="#000000" font-family="sans-serif" font-size="12" font-style="italic" lengthAdjust="spacingAndGlyphs" textLength="57" x="2795" y="404.6387">Len,Align</text><line style="stroke: #A80036; stroke-width: 1.5;" x1="2697" x2="2849" y1="427.5" y2="427.5"/><line style="stroke: #A80036; stroke-width: 1.5;" x1="2697" x2="2849" y1="435.5" y2="435.5"/><!--MD5=[af8abee1f2f6114bd38bdaa7126b1bfd]
class C_0002224173078316961772--><a href="https://github.com/skypjack/entt/blob/fef921132cae7588213d0f9bcd2fb9c8ffd8b7fc/src/entt/poly/poly.hpp#L192" target="_top" title="basic_poly" xlink:actuate="onRequest" xlink:href="https://github.com/skypjack/entt/blob/fef921132cae7588213d0f9bcd2fb9c8ffd8b7fc/src/entt/poly/poly.hpp#L192" xlink:show="new" xlink:title="basic_poly" xlink:type="simple"><rect fill="#FEFECE" filter="url(#f1nqe73qm6g3nq)" height="240.0703" id="C_0002224173078316961772" style="stroke: #A80036; stroke-width: 1.5;" width="1190" x="2178" y="8"/><ellipse cx="2487.75" cy="24" fill="#ADD1B2" rx="11" ry="11" style="stroke: #A80036; stroke-width: 1.0;"/><path d="M2490.7188,29.6406 Q2490.1406,29.9375 2489.5,30.0781 Q2488.8594,30.2344 2488.1563,30.2344 Q2485.6563,30.2344 2484.3281,28.5938 Q2483.0156,26.9375 2483.0156,23.8125 Q2483.0156,20.6875 2484.3281,19.0313 Q2485.6563,17.375 2488.1563,17.375 Q2488.8594,17.375 2489.5,17.5313 Q2490.1563,17.6875 2490.7188,17.9844 L2490.7188,20.7031 Q2490.0938,20.125 2489.5,19.8594 Q2488.9063,19.5781 2488.2813,19.5781 Q2486.9375,19.5781 2486.25,20.6563 Q2485.5625,21.7188 2485.5625,23.8125 Q2485.5625,25.9063 2486.25,26.9844 Q2486.9375,28.0469 2488.2813,28.0469 Q2488.9063,28.0469 2489.5,27.7813 Q2490.0938,27.5 2490.7188,26.9219 L2490.7188,29.6406 Z "/><text fill="#000000" font-family="sans-serif" font-size="12" lengthAdjust="spacingAndGlyphs" textLength="64" x="2508.25" y="28.1543">basic_poly</text><rect fill="#FFFFFF" height="15.9688" style="stroke: #000000; stroke-width: 1.0; stroke-dasharray: 2.0,2.0;" width="496" x="2875" y="5"/><text fill="#000000" font-family="sans-serif" font-size="12" font-style="italic" lengthAdjust="spacingAndGlyphs" textLength="494" x="2876" y="17.1387">Concept,std::size_t Len=sizeof(double[2]),std::size_t Align=__alignof(double[2])</text><line style="stroke: #A80036; stroke-width: 1.5;" x1="2179" x2="3367" y1="40" y2="40"/></a><a href="https://github.com/skypjack/entt/blob/fef921132cae7588213d0f9bcd2fb9c8ffd8b7fc/src/entt/poly/poly.hpp#L307" target="_top" title="storage" xlink:actuate="onRequest" xlink:href="https://github.com/skypjack/entt/blob/fef921132cae7588213d0f9bcd2fb9c8ffd8b7fc/src/entt/poly/poly.hpp#L307" xlink:show="new" xlink:title="storage" xlink:type="simple"><rect fill="#FEFECE" height="10" style="stroke: none; stroke-width: 1.0;" width="20" x="2184" y="46"/><rect fill="none" height="6" style="stroke: #C82930; stroke-width: 1.0;" width="6" x="2186" y="48"/></a><a href="https://github.com/skypjack/entt/blob/fef921132cae7588213d0f9bcd2fb9c8ffd8b7fc/src/entt/poly/poly.hpp#L307" target="_top" title="storage" xlink:actuate="onRequest" xlink:href="https://github.com/skypjack/entt/blob/fef921132cae7588213d0f9bcd2fb9c8ffd8b7fc/src/entt/poly/poly.hpp#L307" xlink:show="new" xlink:title="storage" xlink:type="simple"><text fill="#000000" font-family="sans-serif" font-size="11" lengthAdjust="spacingAndGlyphs" textLength="181" x="2198" y="54.2104">storage : basic_any&lt;Len,Align&gt;</text></a><a href="https://github.com/skypjack/entt/blob/fef921132cae7588213d0f9bcd2fb9c8ffd8b7fc/src/entt/poly/poly.hpp#L308" target="_top" title="vtable" xlink:actuate="onRequest" xlink:href="https://github.com/skypjack/entt/blob/fef921132cae7588213d0f9bcd2fb9c8ffd8b7fc/src/entt/poly/poly.hpp#L308" xlink:show="new" xlink:title="vtable" xlink:type="simple"><rect fill="#FEFECE" height="10" style="stroke: none; stroke-width: 1.0;" width="20" x="2184" y="58.8047"/><rect fill="none" height="6" style="stroke: #C82930; stroke-width: 1.0;" width="6" x="2186" y="60.8047"/></a><a href="https://github.com/skypjack/entt/blob/fef921132cae7588213d0f9bcd2fb9c8ffd8b7fc/src/entt/poly/poly.hpp#L308" target="_top" title="vtable" xlink:actuate="onRequest" xlink:href="https://github.com/skypjack/entt/blob/fef921132cae7588213d0f9bcd2fb9c8ffd8b7fc/src/entt/poly/poly.hpp#L308" xlink:show="new" xlink:title="vtable" xlink:type="simple"><text fill="#000000" font-family="sans-serif" font-size="11" lengthAdjust="spacingAndGlyphs" textLength="110" x="2198" y="67.0151">vtable : vtable_type</text></a><line style="stroke: #A80036; stroke-width: 1.5;" x1="2179" x2="3367" y1="73.6094" y2="73.6094"/><ellipse cx="2189" cy="84.6094" fill="#84BE84" rx="3" ry="3" style="stroke: #038048; stroke-width: 1.0;"/><text fill="#000000" font-family="sans-serif" font-size="11" lengthAdjust="spacingAndGlyphs" textLength="266" x="2198" y="87.8198">basic_poly&lt;type-parameter-0-0, Len, &gt;() : void</text><ellipse cx="2189" cy="97.4141" fill="#84BE84" rx="3" ry="3" style="stroke: #038048; stroke-width: 1.0;"/><text fill="#000000" font-family="sans-serif" font-size="11" lengthAdjust="spacingAndGlyphs" textLength="179" x="2198" y="100.6245">type() const : const type_info &amp;</text><ellipse cx="2189" cy="110.2188" fill="#84BE84" rx="3" ry="3" style="stroke: #038048; stroke-width: 1.0;"/><text fill="#000000" font-family="sans-serif" font-size="11" lengthAdjust="spacingAndGlyphs" textLength="148" x="2198" y="113.4292">data() const : const void *</text><ellipse cx="2189" cy="123.0234" fill="#84BE84" rx="3" ry="3" style="stroke: #038048; stroke-width: 1.0;"/><text fill="#000000" font-family="sans-serif" font-size="11" lengthAdjust="spacingAndGlyphs" textLength="78" x="2198" y="126.2339">data() : void *</text><ellipse cx="2189" cy="135.8281" fill="#84BE84" rx="3" ry="3" style="stroke: #038048; stroke-width: 1.0;"/><text fill="#000000" font-family="sans-serif" font-size="11" lengthAdjust="spacingAndGlyphs" textLength="73" x="2198" y="139.0386">reset() : void</text><ellipse cx="2189" cy="148.6328" fill="#84BE84" rx="3" ry="3" style="stroke: #038048; stroke-width: 1.0;"/><text fill="#000000" font-family="sans-serif" font-size="11" lengthAdjust="spacingAndGlyphs" textLength="156" x="2198" y="151.8433">operator bool() const : bool</text><ellipse cx="2189" cy="161.4375" fill="#84BE84" rx="3" ry="3" style="stroke: #038048; stroke-width: 1.0;"/><text fill="#000000" font-family="sans-serif" font-size="11" lengthAdjust="spacingAndGlyphs" textLength="166" x="2198" y="164.6479">operator-&gt;() : concept_type *</text><ellipse cx="2189" cy="174.2422" fill="#84BE84" rx="3" ry="3" style="stroke: #038048; stroke-width: 1.0;"/><text fill="#000000" font-family="sans-serif" font-size="11" lengthAdjust="spacingAndGlyphs" textLength="236" x="2198" y="177.4526">operator-&gt;() const : const concept_type *</text><ellipse cx="2189" cy="187.0469" fill="#84BE84" rx="3" ry="3" style="stroke: #038048; stroke-width: 1.0;"/><text fill="#000000" font-family="sans-serif" font-size="11" lengthAdjust="spacingAndGlyphs" textLength="271" x="2198" y="190.2573">as_ref() : basic_poly&lt;type-parameter-0-0,Len,&gt;</text><ellipse cx="2189" cy="199.8516" fill="#84BE84" rx="3" ry="3" style="stroke: #038048; stroke-width: 1.0;"/><text fill="#000000" font-family="sans-serif" font-size="11" lengthAdjust="spacingAndGlyphs" textLength="306" x="2198" y="203.062">as_ref() const : basic_poly&lt;type-parameter-0-0,Len,&gt;</text><ellipse cx="2189" cy="212.6563" fill="#84BE84" rx="3" ry="3" style="stroke: #038048; stroke-width: 1.0;"/><text fill="#000000" font-family="sans-serif" font-size="11" lengthAdjust="spacingAndGlyphs" textLength="614" x="2198" y="215.8667">basic_poly&lt;type-parameter-0-0, Len, &gt;&lt;Type,Args...&gt;(std::in_place_type_t&lt;Type&gt; , Args &amp;&amp;... args) : void</text><ellipse cx="2189" cy="225.4609" fill="#84BE84" rx="3" ry="3" style="stroke: #038048; stroke-width: 1.0;"/><text fill="#000000" font-family="sans-serif" font-size="11" lengthAdjust="spacingAndGlyphs" textLength="1164" x="2198" y="228.6714">basic_poly&lt;type-parameter-0-0, Len, &gt;&lt;Type,=std::enable_if_t&lt;!std::is_same_v&lt;std::remove_cv_t&lt;std::remove_reference_t&lt;Type&gt; &gt;, basic_poly&lt;type-parameter-0-0, Len, &gt; &gt; &gt;&gt;(Type &amp;&amp; value) : void</text><ellipse cx="2189" cy="238.2656" fill="#84BE84" rx="3" ry="3" style="stroke: #038048; stroke-width: 1.0;"/><text fill="#000000" font-family="sans-serif" font-size="11" lengthAdjust="spacingAndGlyphs" textLength="270" x="2198" y="241.4761">emplace&lt;Type,Args...&gt;(Args &amp;&amp;... args) : void</text><!--MD5=[8ad420013621a1b318567a8e18d9f27a]
class C_0000180344646266237416--><a href="https://github.com/skypjack/entt/blob/fef921132cae7588213d0f9bcd2fb9c8ffd8b7fc/src/entt/poly/fwd.hpp#L9" target="_top" title="basic_poly" xlink:actuate="onRequest" xlink:href="https://github.com/skypjack/entt/blob/fef921132cae7588213d0f9bcd2fb9c8ffd8b7fc/src/entt/poly/fwd.hpp#L9" xlink:show="new" xlink:title="basic_poly" xlink:type="simple"><rect fill="#FEFECE" filter="url(#f1nqe73qm6g3nq)" height="48" id="C_0000180344646266237416" style="stroke: #A80036; stroke-width: 1.5;" width="508" x="1813" y="395.5"/><ellipse cx="1828" cy="411.5" fill="#ADD1B2" rx="11" ry="11" style="stroke: #A80036; stroke-width: 1.0;"/><path d="M1830.9688,417.1406 Q1830.3906,417.4375 1829.75,417.5781 Q1829.1094,417.7344 1828.4063,417.7344 Q1825.9063,417.7344 1824.5781,416.0938 Q1823.2656,414.4375 1823.2656,411.3125 Q1823.2656,408.1875 1824.5781,406.5313 Q1825.9063,404.875 1828.4063,404.875 Q1829.1094,404.875 1829.75,405.0313 Q1830.4063,405.1875 1830.9688,405.4844 L1830.9688,408.2031 Q1830.3438,407.625 1829.75,407.3594 Q1829.1563,407.0781 1828.5313,407.0781 Q1827.1875,407.0781 1826.5,408.1563 Q1825.8125,409.2188 1825.8125,411.3125 Q1825.8125,413.4063 1826.5,414.4844 Q1827.1875,415.5469 1828.5313,415.5469 Q1829.1563,415.5469 1829.75,415.2813 Q1830.3438,415 1830.9688,414.4219 L1830.9688,417.1406 Z "/><text fill="#000000" font-family="sans-serif" font-size="12" lengthAdjust="spacingAndGlyphs" textLength="64" x="1842" y="415.6543">basic_poly</text><rect fill="#FFFFFF" height="15.9688" style="stroke: #000000; stroke-width: 1.0; stroke-dasharray: 2.0,2.0;" width="410" x="1914" y="392.5"/><text fill="#000000" font-family="sans-serif" font-size="12" font-style="italic" lengthAdjust="spacingAndGlyphs" textLength="408" x="1915" y="404.6387">,std::size_t Len=sizeof(double[2]),std::size_t=__alignof(double[2])</text><line style="stroke: #A80036; stroke-width: 1.5;" x1="1814" x2="2320" y1="427.5" y2="427.5"/><line style="stroke: #A80036; stroke-width: 1.5;" x1="1814" x2="2320" y1="435.5" y2="435.5"/></a><!--MD5=[78fe5c7541b8dd83f999fe4f494381ca]
link C_0001723716587279733623 to C_0000150299823092418682--><path d="M1687.28,443.86 C1682.76,474.65 1682.04,529.4 1685.12,567.83 " fill="none" id="C_0001723716587279733623-&gt;C_0000150299823092418682" style="stroke: #A80036; stroke-width: 1.0; stroke-dasharray: 7.0,7.0;"/><polygon fill="none" points="1692.09,567.11,1687.3,587.75,1678.17,568.63,1692.09,567.11" style="stroke: #A80036; stroke-width: 1.0;"/><!--MD5=[63f00cc67c7b46037cc981788abaa142]
link C_0000150299823092418682 to C_0001723716587279733623--><path d="M1705.21,587.75 C1710.01,557.01 1710.78,502.27 1707.53,463.81 " fill="none" id="C_0000150299823092418682-&gt;C_0001723716587279733623" style="stroke: #A80036; stroke-width: 1.0; stroke-dasharray: 7.0,7.0;"/><polygon fill="none" points="1700.57,464.53,1705.23,443.86,1714.47,462.93,1700.57,464.53" style="stroke: #A80036; stroke-width: 1.0;"/><!--MD5=[bb8bd3e9da5b648e4747716e148f8765]
link C_0000401973545844492876 to C_0001723716587279733623--><path d="M1606.77,152.2 C1623.06,200.8 1660.95,313.89 1681.73,375.92 " fill="none" id="C_0000401973545844492876-&gt;C_0001723716587279733623" style="stroke: #A80036; stroke-width: 1.0; stroke-dasharray: 7.0,7.0;"/><polygon fill="none" points="1688.47,374,1688.19,395.19,1675.2,378.45,1688.47,374" style="stroke: #A80036; stroke-width: 1.0;"/><!--MD5=[71d9c320161cb9d92c9c577a8993cbb1]
link C_0000496685335806935509 to C_0001723716587279733623--><path d="M1776.95,152.2 C1762.18,200.8 1727.8,313.89 1708.94,375.92 " fill="none" id="C_0000496685335806935509-&gt;C_0001723716587279733623" style="stroke: #A80036; stroke-width: 1.0; stroke-dasharray: 7.0,7.0;"/><polygon fill="none" points="1715.6,378.09,1703.09,395.19,1702.21,374.02,1715.6,378.09" style="stroke: #A80036; stroke-width: 1.0;"/><!--MD5=[bf05b879e1369318e76c7627a8a17d49]
link C_0002187650141235109775 to C_0000180344646266237416--><path d="M2067,152.2 C2067,200.59 2067,312.91 2067,375.11 " fill="none" id="C_0002187650141235109775-&gt;C_0000180344646266237416" style="stroke: #A80036; stroke-width: 1.0; stroke-dasharray: 7.0,7.0;"/><polygon fill="none" points="2074,375.19,2067,395.19,2060,375.19,2074,375.19" style="stroke: #A80036; stroke-width: 1.0;"/><!--MD5=[0a3013ce82c1fc4c3f7da1f23575dd4d]
reverse link C_0002224173078316961772 to C_0000137726632101471303--><path d="M2773,261.31 C2773,312.51 2773,365.81 2773,395.31 " fill="none" id="C_0002224173078316961772&lt;-C_0000137726632101471303" style="stroke: #A80036; stroke-width: 1.0;"/><polygon fill="#FFFFFF" points="2773,248,2769,254,2773,260,2777,254,2773,248" style="stroke: #A80036; stroke-width: 1.0;"/><rect fill="none" height="6" style="stroke: #C82930; stroke-width: 1.0;" width="6" x="2776" y="284.0664"/><text fill="#000000" font-family="sans-serif" font-size="13" lengthAdjust="spacingAndGlyphs" textLength="49" x="2786" y="291.0669">storage</text><!--MD5=[b4687603bc6bfa216d23329807eb5df0]
link C_0000816653833137337534 to C_0001276342508473126665--><!--MD5=[8d7f1aa2300c0210585bd7dc977efd12]
link C_0001276342508473126665 to C_0000669672540584988414--><!--MD5=[41f61d77e69c54892d45fae84b5aa53d]
link C_0000816653833137337534 to C_0000114548431562228752--><!--MD5=[21a74e11f7951da80eb14384cb593b4e]
link C_0000114548431562228752 to C_0000460891939233668905--><!--MD5=[f916fd13a84a9096d49fca2fc1e7513d]
link C_0000460891939233668905 to C_0000593699980024327418--><!--MD5=[c089884436ac5a5dac696672bf657416]
link C_0000114548431562228752 to C_0001758879837962625486--><!--MD5=[1661d9d9237daf62162f4d30774fdbb7]
@startuml
class "type_list<First,Other...>" as C_0001723716587279733623
class C_0001723716587279733623 {
}
class "type_list<Other...>" as C_0000401973545844492876
class C_0000401973545844492876 {
}
class "type_list<Type,Other...>" as C_0000496685335806935509
class C_0000496685335806935509 {
}
class "type_list" as C_0000816653833137337534
class C_0000816653833137337534 {
}
class "type_list<Type...>" as C_0000150299823092418682
class C_0000150299823092418682 {
}
class "value_list<Value,Other...>" as C_0001276342508473126665
class C_0001276342508473126665 {
}
class "value_list<Other...>" as C_0000669672540584988414
class C_0000669672540584988414 {
}
class "value_list<Value>" as C_0000114548431562228752
class C_0000114548431562228752 {
}
class "basic_poly<Concept>" as C_0002187650141235109775
class C_0002187650141235109775 {
}
class "poly_inspector" as C_0000460891939233668905
class C_0000460891939233668905 [[https://github.com/skypjack/entt/blob/fef921132cae7588213d0f9bcd2fb9c8ffd8b7fc/src/entt/poly/poly.hpp#L17{poly_inspector}]] {
+operator type-parameter-0-0 &&<Type>() : Type &&
+invoke<std::size_t Member,Args...>(Args &&... args) : poly_inspector
+invoke<std::size_t Member,Args...>(Args &&... args) : poly_inspector
}
class "poly_vtable<Concept,std::size_t Len,std::size_t Align>" as C_0000593699980024327418
class C_0000593699980024327418 [[https://github.com/skypjack/entt/blob/fef921132cae7588213d0f9bcd2fb9c8ffd8b7fc/src/entt/poly/poly.hpp#L47{poly_vtable}]] {
{static} -vtable_entry<Ret,Args...>(Ret (*)(inspector &,Args...) ) : Ret (*)(basic_any<Len, Align> &, Args...)
{static} -vtable_entry<Ret,Args...>(Ret (*)(const inspector &,Args...) ) : Ret (*)(const basic_any<Len, Align> &, Args...)
{static} -vtable_entry<Ret,Args...>(Ret (*)(Args...) ) : Ret (*)(const basic_any<Len, Align> &, Args...)
{static} -vtable_entry<Ret,Args...>(Ret (poly_vtable::inspector::*)(Args...) ) : Ret (*)(basic_any<Len, Align> &, Args...)
{static} -vtable_entry<Ret,Args...>(Ret (poly_vtable::inspector::*)(Args...) const ) : Ret (*)(const basic_any<Len, Align> &, Args...)
{static} -make_vtable<auto... Candidate>(value_list<Candidate...> ) : decltype(std::make_tuple(vtable_entry(Candidate)...))
{static} -make_vtable<Func...>(type_list<Func...> ) : auto
{static} -fill_vtable_entry<Type,auto Candidate,Ret,Any,Args...>(Ret (*&)(Any &,Args...) entry) : void
{static} -fill_vtable<Type,auto... Index>(std::index_sequence<Index...> ) : auto
{static} +instance<Type>() : type
{static} -is_mono_v : const bool [[[https://github.com/skypjack/entt/blob/fef921132cae7588213d0f9bcd2fb9c8ffd8b7fc/src/entt/poly/poly.hpp#L99{is_mono_v}]]]
}
class "poly_base<Poly>" as C_0001758879837962625486
class C_0001758879837962625486 [[https://github.com/skypjack/entt/blob/fef921132cae7588213d0f9bcd2fb9c8ffd8b7fc/src/entt/poly/poly.hpp#L128{poly_base}]] {
+invoke<std::size_t Member,Args...>(const poly_base<Poly> & self, Args &&... args) : decltype(auto)
+invoke<std::size_t Member,Args...>(poly_base<Poly> & self, Args &&... args) : decltype(auto)
}
class "basic_any<Len,Align>" as C_0000137726632101471303
class C_0000137726632101471303 {
}
class "basic_poly<Concept,std::size_t Len=sizeof(double[2]),std::size_t Align=__alignof(double[2])>" as C_0002224173078316961772
class C_0002224173078316961772 [[https://github.com/skypjack/entt/blob/fef921132cae7588213d0f9bcd2fb9c8ffd8b7fc/src/entt/poly/poly.hpp#L192{basic_poly}]] {
+basic_poly<type-parameter-0-0, Len, >() : void
+type() const : const type_info &
+data() const : const void *
+data() : void *
+reset() : void
+operator bool() const : bool
+operator->() : concept_type *
+operator->() const : const concept_type *
+as_ref() : basic_poly<type-parameter-0-0,Len,>
+as_ref() const : basic_poly<type-parameter-0-0,Len,>
+basic_poly<type-parameter-0-0, Len, ><Type,Args...>(std::in_place_type_t<Type> , Args &&... args) : void
+basic_poly<type-parameter-0-0, Len, ><Type,=std::enable_if_t<!std::is_same_v<std::remove_cv_t<std::remove_reference_t<Type> >, basic_poly<type-parameter-0-0, Len, > > >>(Type && value) : void
+emplace<Type,Args...>(Args &&... args) : void
-storage : basic_any<Len,Align> [[[https://github.com/skypjack/entt/blob/fef921132cae7588213d0f9bcd2fb9c8ffd8b7fc/src/entt/poly/poly.hpp#L307{storage}]]]
-vtable : vtable_type [[[https://github.com/skypjack/entt/blob/fef921132cae7588213d0f9bcd2fb9c8ffd8b7fc/src/entt/poly/poly.hpp#L308{vtable}]]]
}
class "basic_poly<,std::size_t Len=sizeof(double[2]),std::size_t=__alignof(double[2])>" as C_0000180344646266237416
class C_0000180344646266237416 [[https://github.com/skypjack/entt/blob/fef921132cae7588213d0f9bcd2fb9c8ffd8b7fc/src/entt/poly/fwd.hpp#L9{basic_poly}]] {
}
C_0001723716587279733623 ..|> C_0000150299823092418682
C_0000401973545844492876 ..|> C_0001723716587279733623
C_0000496685335806935509 ..|> C_0001723716587279733623
C_0000150299823092418682 ..|> C_0001723716587279733623
C_0002187650141235109775 ..|> C_0000180344646266237416
C_0002224173078316961772 o- - C_0000137726632101471303 : -storage

@enduml

PlantUML version 1.2020.02(Sun Mar 01 11:22:07 CET 2020)
(GPL source distribution)
Java Runtime: OpenJDK Runtime Environment
JVM: OpenJDK 64-Bit Server VM
Java Version: 11.0.18+10-post-Ubuntu-0ubuntu122.04
Operating System: Linux
Default Encoding: UTF-8
Language: en
Country: US
--></g></svg>