<svg xmlns="http://www.w3.org/2000/svg" xmlns:xlink="http://www.w3.org/1999/xlink" contentStyleType="text/css" data-diagram-type="SEQUENCE" height="912px" preserveAspectRatio="none" style="width:1501px;height:912px;background:#FFFFFF;" version="1.1" viewBox="0 0 1501 912" width="1501px" zoomAndPan="magnify"><title>'curl_easy_recv' sequence diagram</title><defs/><g><text fill="#000000" font-family="sans-serif" font-size="14" font-weight="bold" lengthAdjust="spacing" textLength="272.8154" x="613.3611" y="27.9951">'curl_easy_recv' sequence diagram</text><g><title>lib/easy.c</title><rect fill="#FFFFFF" height="754.6563" style="stroke:#181818;stroke-width:1;" width="10" x="305.3809" y="104.7266"/></g><g><title>lib/easy.c</title><rect fill="#FFFFFF" height="438.5938" style="stroke:#181818;stroke-width:1;" width="10" x="310.3809" y="216.125"/></g><g><title>lib/multiif.h</title><rect fill="#FFFFFF" height="14" style="stroke:#181818;stroke-width:1;" width="10" x="750.3047" y="157.9922"/></g><g><title>lib/multiif.h</title><rect fill="#FFFFFF" height="30" style="stroke:#181818;stroke-width:1;" width="10" x="750.3047" y="765.25"/></g><g><title>lib/curl_trc.h</title><rect fill="#FFFFFF" height="30" style="stroke:#181818;stroke-width:1;" width="10" x="857.3887" y="309.5234"/></g><g><title>lib/curl_trc.h</title><rect fill="#FFFFFF" height="30" style="stroke:#181818;stroke-width:1;" width="10" x="857.3887" y="597.7188"/></g><g><title>lib/connect.h</title><rect fill="#FFFFFF" height="168.7969" style="stroke:#181818;stroke-width:1;" width="10" x="970.0781" y="375.6563"/></g><g><title>lib/conncache.h</title><rect fill="#FFFFFF" height="14" style="stroke:#181818;stroke-width:1;" width="10" x="1322.1865" y="509.4531"/></g><g><title>lib/cfilters.h</title><rect fill="#FFFFFF" height="14" style="stroke:#181818;stroke-width:1;" width="10" x="1442.4058" y="831.3828"/></g><rect fill="transparent" height="60.2656" style="stroke:#000000;stroke-width:1.5;" width="551.7266" x="260.23" y="119.7266"/><rect fill="transparent" height="76.2656" style="stroke:#000000;stroke-width:1.5;" width="662.5908" x="260.23" y="271.2578"/><rect fill="transparent" height="60.2656" style="stroke:#000000;stroke-width:1.5;" width="486.4531" x="912.8208" y="471.1875"/><rect fill="transparent" height="76.2656" style="stroke:#000000;stroke-width:1.5;" width="662.5908" x="260.23" y="559.4531"/><rect fill="transparent" height="126.5313" style="stroke:#000000;stroke-width:1.5;" width="692.9565" x="119" y="676.7188"/><g><title>lib/easy.c</title><rect fill="transparent" height="803.7891" width="8" x="306.3809" y="73.5938"/><line style="stroke:#181818;stroke-width:0.5;stroke-dasharray:5.0,5.0;" x1="310.23" x2="310.23" y1="73.5938" y2="877.3828"/></g><g><title>lib/multiif.h</title><rect fill="transparent" height="803.7891" width="8" x="751.3047" y="73.5938"/><line style="stroke:#181818;stroke-width:0.5;stroke-dasharray:5.0,5.0;" x1="754.6528" x2="754.6528" y1="73.5938" y2="877.3828"/></g><g><title>lib/curl_trc.h</title><rect fill="transparent" height="803.7891" width="8" x="858.3887" y="73.5938"/><line style="stroke:#181818;stroke-width:0.5;stroke-dasharray:5.0,5.0;" x1="861.9565" x2="861.9565" y1="73.5938" y2="877.3828"/></g><g><title>lib/connect.h</title><rect fill="transparent" height="803.7891" width="8" x="971.0781" y="73.5938"/><line style="stroke:#181818;stroke-width:0.5;stroke-dasharray:5.0,5.0;" x1="974.8208" x2="974.8208" y1="73.5938" y2="877.3828"/></g><g><title>lib/conncache.h</title><rect fill="transparent" height="803.7891" width="8" x="1323.1865" y="73.5938"/><line style="stroke:#181818;stroke-width:0.5;stroke-dasharray:5.0,5.0;" x1="1327.0991" x2="1327.0991" y1="73.5938" y2="877.3828"/></g><g><title>lib/cfilters.h</title><rect fill="transparent" height="803.7891" width="8" x="1443.4058" y="73.5938"/><line style="stroke:#181818;stroke-width:0.5;stroke-dasharray:5.0,5.0;" x1="1447.2739" x2="1447.2739" y1="73.5938" y2="877.3828"/></g><rect fill="#E2E2F0" height="30.2969" rx="2.5" ry="2.5" style="stroke:#181818;stroke-width:0.5;" width="80.3018" x="270.23" y="42.2969"/><text fill="#000000" font-family="sans-serif" font-size="14" lengthAdjust="spacing" textLength="66.3018" x="277.23" y="62.292">lib/easy.c</text><rect fill="#E2E2F0" height="30.2969" rx="2.5" ry="2.5" style="stroke:#181818;stroke-width:0.5;" width="80.3018" x="270.23" y="876.3828"/><text fill="#000000" font-family="sans-serif" font-size="14" lengthAdjust="spacing" textLength="66.3018" x="277.23" y="896.3779">lib/easy.c</text><rect fill="#E2E2F0" height="30.2969" rx="2.5" ry="2.5" style="stroke:#181818;stroke-width:0.5;" width="93.3037" x="708.6528" y="42.2969"/><text fill="#000000" font-family="sans-serif" font-size="14" lengthAdjust="spacing" textLength="79.3037" x="715.6528" y="62.292">lib/multiif.h</text><rect fill="#E2E2F0" height="30.2969" rx="2.5" ry="2.5" style="stroke:#181818;stroke-width:0.5;" width="93.3037" x="708.6528" y="876.3828"/><text fill="#000000" font-family="sans-serif" font-size="14" lengthAdjust="spacing" textLength="79.3037" x="715.6528" y="896.3779">lib/multiif.h</text><rect fill="#E2E2F0" height="30.2969" rx="2.5" ry="2.5" style="stroke:#181818;stroke-width:0.5;" width="100.8643" x="811.9565" y="42.2969"/><text fill="#000000" font-family="sans-serif" font-size="14" lengthAdjust="spacing" textLength="86.8643" x="818.9565" y="62.292">lib/curl_trc.h</text><rect fill="#E2E2F0" height="30.2969" rx="2.5" ry="2.5" style="stroke:#181818;stroke-width:0.5;" width="100.8643" x="811.9565" y="876.3828"/><text fill="#000000" font-family="sans-serif" font-size="14" lengthAdjust="spacing" textLength="86.8643" x="818.9565" y="896.3779">lib/curl_trc.h</text><rect fill="#E2E2F0" height="30.2969" rx="2.5" ry="2.5" style="stroke:#181818;stroke-width:0.5;" width="104.5146" x="922.8208" y="42.2969"/><text fill="#000000" font-family="sans-serif" font-size="14" lengthAdjust="spacing" textLength="90.5146" x="929.8208" y="62.292">lib/connect.h</text><rect fill="#E2E2F0" height="30.2969" rx="2.5" ry="2.5" style="stroke:#181818;stroke-width:0.5;" width="104.5146" x="922.8208" y="876.3828"/><text fill="#000000" font-family="sans-serif" font-size="14" lengthAdjust="spacing" textLength="90.5146" x="929.8208" y="896.3779">lib/connect.h</text><rect fill="#E2E2F0" height="30.2969" rx="2.5" ry="2.5" style="stroke:#181818;stroke-width:0.5;" width="124.1748" x="1265.0991" y="42.2969"/><text fill="#000000" font-family="sans-serif" font-size="14" lengthAdjust="spacing" textLength="110.1748" x="1272.0991" y="62.292">lib/conncache.h</text><rect fill="#E2E2F0" height="30.2969" rx="2.5" ry="2.5" style="stroke:#181818;stroke-width:0.5;" width="124.1748" x="1265.0991" y="876.3828"/><text fill="#000000" font-family="sans-serif" font-size="14" lengthAdjust="spacing" textLength="110.1748" x="1272.0991" y="896.3779">lib/conncache.h</text><rect fill="#E2E2F0" height="30.2969" rx="2.5" ry="2.5" style="stroke:#181818;stroke-width:0.5;" width="96.2637" x="1399.2739" y="42.2969"/><text fill="#000000" font-family="sans-serif" font-size="14" lengthAdjust="spacing" textLength="82.2637" x="1406.2739" y="62.292">lib/cfilters.h</text><rect fill="#E2E2F0" height="30.2969" rx="2.5" ry="2.5" style="stroke:#181818;stroke-width:0.5;" width="96.2637" x="1399.2739" y="876.3828"/><text fill="#000000" font-family="sans-serif" font-size="14" lengthAdjust="spacing" textLength="82.2637" x="1406.2739" y="896.3779">lib/cfilters.h</text><g><title>lib/easy.c</title><rect fill="#FFFFFF" height="754.6563" style="stroke:#181818;stroke-width:1;" width="10" x="305.3809" y="104.7266"/></g><g><title>lib/easy.c</title><rect fill="#FFFFFF" height="438.5938" style="stroke:#181818;stroke-width:1;" width="10" x="310.3809" y="216.125"/></g><g><title>lib/multiif.h</title><rect fill="#FFFFFF" height="14" style="stroke:#181818;stroke-width:1;" width="10" x="750.3047" y="157.9922"/></g><g><title>lib/multiif.h</title><rect fill="#FFFFFF" height="30" style="stroke:#181818;stroke-width:1;" width="10" x="750.3047" y="765.25"/></g><g><title>lib/curl_trc.h</title><rect fill="#FFFFFF" height="30" style="stroke:#181818;stroke-width:1;" width="10" x="857.3887" y="309.5234"/></g><g><title>lib/curl_trc.h</title><rect fill="#FFFFFF" height="30" style="stroke:#181818;stroke-width:1;" width="10" x="857.3887" y="597.7188"/></g><g><title>lib/connect.h</title><rect fill="#FFFFFF" height="168.7969" style="stroke:#181818;stroke-width:1;" width="10" x="970.0781" y="375.6563"/></g><g><title>lib/conncache.h</title><rect fill="#FFFFFF" height="14" style="stroke:#181818;stroke-width:1;" width="10" x="1322.1865" y="509.4531"/></g><g><title>lib/cfilters.h</title><rect fill="#FFFFFF" height="14" style="stroke:#181818;stroke-width:1;" width="10" x="1442.4058" y="831.3828"/></g><polygon fill="#181818" points="293.3809,100.7266,303.3809,104.7266,293.3809,108.7266,297.3809,104.7266" style="stroke:#181818;stroke-width:1;"/><line style="stroke:#181818;stroke-width:1;" x1="0" x2="299.3809" y1="104.7266" y2="104.7266"/><text fill="#000000" font-family="sans-serif" font-size="13" lengthAdjust="spacing" textLength="286.3809" x="7" y="99.6606">curl_easy_recv(CURL *,void *,size_t,size_t *)</text><path d="M260.23,119.7266 L324.6729,119.7266 L324.6729,126.8594 L314.6729,136.8594 L260.23,136.8594 L260.23,119.7266 " fill="#EEEEEE" style="stroke:#000000;stroke-width:1.5;"/><rect fill="transparent" height="60.2656" style="stroke:#000000;stroke-width:1.5;" width="551.7266" x="260.23" y="119.7266"/><text fill="#000000" font-family="sans-serif" font-size="13" font-weight="bold" lengthAdjust="spacing" textLength="19.4429" x="275.23" y="132.7935">alt</text><text fill="#000000" font-family="sans-serif" font-size="11" font-weight="bold" lengthAdjust="spacing" textLength="162.2231" x="339.6729" y="131.937">[Curl_is_in_callback(data)]</text><a href="https://github.com/curl/curl/blob/34cf9d54a46598c44938aa7598820484d7af7133/lib/easy.c#L1248" target="_top" title="" xlink:actuate="onRequest" xlink:href="https://github.com/curl/curl/blob/34cf9d54a46598c44938aa7598820484d7af7133/lib/easy.c#L1248" xlink:show="new" xlink:title="" xlink:type="simple"><polygon fill="#181818" points="738.3047,153.9922,748.3047,157.9922,738.3047,161.9922,742.3047,157.9922" style="stroke:#181818;stroke-width:1;"/><line style="stroke:#181818;stroke-width:1;" x1="315.3809" x2="744.3047" y1="157.9922" y2="157.9922"/><text fill="#000000" font-family="sans-serif" font-size="13" font-weight="bold" lengthAdjust="spacing" textLength="5.9414" x="322.3809" y="152.9263">[</text><text fill="#000000" font-family="sans-serif" font-size="13" lengthAdjust="spacing" textLength="247.0508" x="328.3223" y="152.9263">Curl_is_in_callback(struct Curl_easy *)</text><text fill="#000000" font-family="sans-serif" font-size="13" font-weight="bold" lengthAdjust="spacing" textLength="5.9414" x="575.373" y="152.9263">]</text></a><polygon fill="#181818" points="326.3809,167.9922,316.3809,171.9922,326.3809,175.9922,322.3809,171.9922" style="stroke:#181818;stroke-width:1;"/><line style="stroke:#181818;stroke-width:1;stroke-dasharray:2.0,2.0;" x1="320.3809" x2="754.3047" y1="171.9922" y2="171.9922"/><a href="https://github.com/curl/curl/blob/34cf9d54a46598c44938aa7598820484d7af7133/lib/easy.c#L1251" target="_top" title="" xlink:actuate="onRequest" xlink:href="https://github.com/curl/curl/blob/34cf9d54a46598c44938aa7598820484d7af7133/lib/easy.c#L1251" xlink:show="new" xlink:title="" xlink:type="simple"><line style="stroke:#181818;stroke-width:1;" x1="315.3809" x2="362.3809" y1="203.125" y2="203.125"/><line style="stroke:#181818;stroke-width:1;" x1="362.3809" x2="362.3809" y1="203.125" y2="216.125"/><line style="stroke:#181818;stroke-width:1;" x1="321.3809" x2="362.3809" y1="216.125" y2="216.125"/><polygon fill="#181818" points="331.3809,212.125,321.3809,216.125,331.3809,220.125,327.3809,216.125" style="stroke:#181818;stroke-width:1;"/><text fill="#000000" font-family="sans-serif" font-size="13" lengthAdjust="spacing" textLength="378.5679" x="327.3809" y="198.0591">easy_connection(struct Curl_easy *,struct connectdata **)</text></a><path d="M64,234.125 L64,259.125 L555,259.125 L555,244.125 L545,234.125 L64,234.125 " fill="#FEFFDD" style="stroke:#181818;stroke-width:0.5;"/><path d="M545,234.125 L545,244.125 L555,244.125 L545,234.125 " fill="#FEFFDD" style="stroke:#181818;stroke-width:0.5;"/><text fill="#000000" font-family="sans-serif" font-size="13" lengthAdjust="spacing" textLength="470.3232" x="70" y="251.1919">only allow these to be called on handles with CURLOPT_CONNECT_ONLY</text><path d="M260.23,271.2578 L324.6729,271.2578 L324.6729,278.3906 L314.6729,288.3906 L260.23,288.3906 L260.23,271.2578 " fill="#EEEEEE" style="stroke:#000000;stroke-width:1.5;"/><rect fill="transparent" height="76.2656" style="stroke:#000000;stroke-width:1.5;" width="662.5908" x="260.23" y="271.2578"/><text fill="#000000" font-family="sans-serif" font-size="13" font-weight="bold" lengthAdjust="spacing" textLength="19.4429" x="275.23" y="284.3247">alt</text><text fill="#000000" font-family="sans-serif" font-size="11" font-weight="bold" lengthAdjust="spacing" textLength="161.0845" x="339.6729" y="283.4683">[!data-&gt;set.connect_only]</text><a href="https://github.com/curl/curl/blob/34cf9d54a46598c44938aa7598820484d7af7133/lib/curl_trc.h#L63" target="_top" title="" xlink:actuate="onRequest" xlink:href="https://github.com/curl/curl/blob/34cf9d54a46598c44938aa7598820484d7af7133/lib/curl_trc.h#L63" xlink:show="new" xlink:title="" xlink:type="simple"><polygon fill="#181818" points="845.3887,305.5234,855.3887,309.5234,845.3887,313.5234,849.3887,309.5234" style="stroke:#181818;stroke-width:1;"/><line style="stroke:#181818;stroke-width:1;" x1="320.3809" x2="851.3887" y1="309.5234" y2="309.5234"/><text fill="#000000" font-family="sans-serif" font-size="13" lengthAdjust="spacing" textLength="282.2612" x="327.3809" y="304.4575">Curl_failf(struct Curl_easy *,const char *,...)</text></a><a href="https://github.com/curl/curl/blob/34cf9d54a46598c44938aa7598820484d7af7133/lib/easy.c#L1226" target="_top" title="" xlink:actuate="onRequest" xlink:href="https://github.com/curl/curl/blob/34cf9d54a46598c44938aa7598820484d7af7133/lib/easy.c#L1226" xlink:show="new" xlink:title="" xlink:type="simple"><polygon fill="#181818" points="958.0781,371.6563,968.0781,375.6563,958.0781,379.6563,962.0781,375.6563" style="stroke:#181818;stroke-width:1;"/><line style="stroke:#181818;stroke-width:1;" x1="320.3809" x2="964.0781" y1="375.6563" y2="375.6563"/><text fill="#000000" font-family="sans-serif" font-size="13" lengthAdjust="spacing" textLength="400.334" x="327.3809" y="370.5903">Curl_getconnectinfo(struct Curl_easy *,struct connectdata **)</text></a><path d="M793,388.6563 L793,458.6563 L1156,458.6563 L1156,398.6563 L1146,388.6563 L793,388.6563 " fill="#FEFFDD" style="stroke:#181818;stroke-width:0.5;"/><path d="M1146,388.6563 L1146,398.6563 L1156,398.6563 L1146,388.6563 " fill="#FEFFDD" style="stroke:#181818;stroke-width:0.5;"/><text fill="#000000" font-family="sans-serif" font-size="13" lengthAdjust="spacing" textLength="334.293" x="799" y="405.7231">this works for an easy handle: - that has been used</text><text fill="#000000" font-family="sans-serif" font-size="13" lengthAdjust="spacing" textLength="311.3145" x="799" y="420.856">for curl_easy_perform() - that is associated with</text><text fill="#000000" font-family="sans-serif" font-size="13" lengthAdjust="spacing" textLength="342.5576" x="799" y="435.9888">a multi handle, and whose connection was detached</text><text fill="#000000" font-family="sans-serif" font-size="13" lengthAdjust="spacing" textLength="204.7246" x="799" y="451.1216">with CURLOPT_CONNECT_ONLY</text><path d="M912.8208,471.1875 L977.2637,471.1875 L977.2637,478.3203 L967.2637,488.3203 L912.8208,488.3203 L912.8208,471.1875 " fill="#EEEEEE" style="stroke:#000000;stroke-width:1.5;"/><rect fill="transparent" height="60.2656" style="stroke:#000000;stroke-width:1.5;" width="486.4531" x="912.8208" y="471.1875"/><text fill="#000000" font-family="sans-serif" font-size="13" font-weight="bold" lengthAdjust="spacing" textLength="19.4429" x="927.8208" y="484.2544">alt</text><text fill="#000000" font-family="sans-serif" font-size="11" font-weight="bold" lengthAdjust="spacing" textLength="211.1753" x="992.2637" y="483.3979">[data-&gt;state.lastconnect_id != -1]</text><a href="https://github.com/curl/curl/blob/34cf9d54a46598c44938aa7598820484d7af7133/lib/connect.c#L331" target="_top" title="" xlink:actuate="onRequest" xlink:href="https://github.com/curl/curl/blob/34cf9d54a46598c44938aa7598820484d7af7133/lib/connect.c#L331" xlink:show="new" xlink:title="" xlink:type="simple"><polygon fill="#181818" points="1310.1865,505.4531,1320.1865,509.4531,1310.1865,513.4531,1314.1865,509.4531" style="stroke:#181818;stroke-width:1;"/><line style="stroke:#181818;stroke-width:1;" x1="980.0781" x2="1316.1865" y1="509.4531" y2="509.4531"/><text fill="#000000" font-family="sans-serif" font-size="13" lengthAdjust="spacing" textLength="323.1084" x="987.0781" y="504.3872">Curl_cpool_get_conn(struct Curl_easy *,curl_off_t)</text></a><polygon fill="#181818" points="991.0781,519.4531,981.0781,523.4531,991.0781,527.4531,987.0781,523.4531" style="stroke:#181818;stroke-width:1;"/><line style="stroke:#181818;stroke-width:1;stroke-dasharray:2.0,2.0;" x1="985.0781" x2="1326.1865" y1="523.4531" y2="523.4531"/><polygon fill="#181818" points="331.3809,540.4531,321.3809,544.4531,331.3809,548.4531,327.3809,544.4531" style="stroke:#181818;stroke-width:1;"/><line style="stroke:#181818;stroke-width:1;stroke-dasharray:2.0,2.0;" x1="325.3809" x2="974.0781" y1="544.4531" y2="544.4531"/><path d="M260.23,559.4531 L324.6729,559.4531 L324.6729,566.5859 L314.6729,576.5859 L260.23,576.5859 L260.23,559.4531 " fill="#EEEEEE" style="stroke:#000000;stroke-width:1.5;"/><rect fill="transparent" height="76.2656" style="stroke:#000000;stroke-width:1.5;" width="662.5908" x="260.23" y="559.4531"/><text fill="#000000" font-family="sans-serif" font-size="13" font-weight="bold" lengthAdjust="spacing" textLength="19.4429" x="275.23" y="572.52">alt</text><text fill="#000000" font-family="sans-serif" font-size="11" font-weight="bold" lengthAdjust="spacing" textLength="173.7549" x="339.6729" y="571.6636">[sfd == CURL_SOCKET_BAD]</text><a href="https://github.com/curl/curl/blob/34cf9d54a46598c44938aa7598820484d7af7133/lib/curl_trc.h#L63" target="_top" title="" xlink:actuate="onRequest" xlink:href="https://github.com/curl/curl/blob/34cf9d54a46598c44938aa7598820484d7af7133/lib/curl_trc.h#L63" xlink:show="new" xlink:title="" xlink:type="simple"><polygon fill="#181818" points="845.3887,593.7188,855.3887,597.7188,845.3887,601.7188,849.3887,597.7188" style="stroke:#181818;stroke-width:1;"/><line style="stroke:#181818;stroke-width:1;" x1="320.3809" x2="851.3887" y1="597.7188" y2="597.7188"/><text fill="#000000" font-family="sans-serif" font-size="13" lengthAdjust="spacing" textLength="282.2612" x="327.3809" y="592.6528">Curl_failf(struct Curl_easy *,const char *,...)</text></a><line style="stroke:#181818;stroke-width:1;stroke-dasharray:2.0,2.0;" x1="320.3809" x2="362.3809" y1="653.7188" y2="653.7188"/><line style="stroke:#181818;stroke-width:1;stroke-dasharray:2.0,2.0;" x1="362.3809" x2="362.3809" y1="653.7188" y2="666.7188"/><line style="stroke:#181818;stroke-width:1;stroke-dasharray:2.0,2.0;" x1="315.3809" x2="362.3809" y1="666.7188" y2="666.7188"/><polygon fill="#181818" points="325.3809,662.7188,315.3809,666.7188,325.3809,670.7188,321.3809,666.7188" style="stroke:#181818;stroke-width:1;"/><path d="M119,676.7188 L183.4429,676.7188 L183.4429,683.8516 L173.4429,693.8516 L119,693.8516 L119,676.7188 " fill="#EEEEEE" style="stroke:#000000;stroke-width:1.5;"/><rect fill="transparent" height="126.5313" style="stroke:#000000;stroke-width:1.5;" width="692.9565" x="119" y="676.7188"/><text fill="#000000" font-family="sans-serif" font-size="13" font-weight="bold" lengthAdjust="spacing" textLength="19.4429" x="134" y="689.7856">alt</text><text fill="#000000" font-family="sans-serif" font-size="11" font-weight="bold" lengthAdjust="spacing" textLength="86.5713" x="198.4429" y="688.9292">[!data-&gt;conn]</text><path d="M129,698.8516 L129,738.8516 L491,738.8516 L491,708.8516 L481,698.8516 L129,698.8516 " fill="#FEFFDD" style="stroke:#181818;stroke-width:0.5;"/><path d="M481,698.8516 L481,708.8516 L491,708.8516 L481,698.8516 " fill="#FEFFDD" style="stroke:#181818;stroke-width:0.5;"/><text fill="#000000" font-family="sans-serif" font-size="13" lengthAdjust="spacing" textLength="341.4404" x="135" y="715.9185">on first invoke, the transfer has been detached from</text><text fill="#000000" font-family="sans-serif" font-size="13" lengthAdjust="spacing" textLength="281.8804" x="135" y="731.0513">the connection and needs to be reattached</text><a href="https://github.com/curl/curl/blob/34cf9d54a46598c44938aa7598820484d7af7133/lib/easy.c#L1258" target="_top" title="" xlink:actuate="onRequest" xlink:href="https://github.com/curl/curl/blob/34cf9d54a46598c44938aa7598820484d7af7133/lib/easy.c#L1258" xlink:show="new" xlink:title="" xlink:type="simple"><polygon fill="#181818" points="738.3047,761.25,748.3047,765.25,738.3047,769.25,742.3047,765.25" style="stroke:#181818;stroke-width:1;"/><line style="stroke:#181818;stroke-width:1;" x1="315.3809" x2="744.3047" y1="765.25" y2="765.25"/><text fill="#000000" font-family="sans-serif" font-size="13" lengthAdjust="spacing" textLength="415.9238" x="322.3809" y="760.1841">Curl_attach_connection(struct Curl_easy *,struct connectdata *)</text></a><a href="https://github.com/curl/curl/blob/34cf9d54a46598c44938aa7598820484d7af7133/lib/easy.c#L1261" target="_top" title="" xlink:actuate="onRequest" xlink:href="https://github.com/curl/curl/blob/34cf9d54a46598c44938aa7598820484d7af7133/lib/easy.c#L1261" xlink:show="new" xlink:title="" xlink:type="simple"><polygon fill="#181818" points="1430.4058,827.3828,1440.4058,831.3828,1430.4058,835.3828,1434.4058,831.3828" style="stroke:#181818;stroke-width:1;"/><line style="stroke:#181818;stroke-width:1;" x1="315.3809" x2="1436.4058" y1="831.3828" y2="831.3828"/><text fill="#000000" font-family="sans-serif" font-size="13" lengthAdjust="spacing" textLength="388.667" x="322.3809" y="826.3169">Curl_conn_recv(struct Curl_easy *,int,char *,size_t,ssize_t *)</text></a><polygon fill="#181818" points="326.3809,841.3828,316.3809,845.3828,326.3809,849.3828,322.3809,845.3828" style="stroke:#181818;stroke-width:1;"/><line style="stroke:#181818;stroke-width:1;stroke-dasharray:2.0,2.0;" x1="320.3809" x2="1446.4058" y1="845.3828" y2="845.3828"/><polygon fill="#181818" points="11,855.3828,1,859.3828,11,863.3828,7,859.3828" style="stroke:#181818;stroke-width:1;"/><line style="stroke:#181818;stroke-width:1;stroke-dasharray:2.0,2.0;" x1="5" x2="309.3809" y1="859.3828" y2="859.3828"/><!--SRC=[xLVRRkCs47tNLt1t7n8BjYo9kWRD0gsxw4FTf6Yp1GeZ46Y9Yed8P5Qa76oB_dk7idn9JAsTRGFqeG-sBXnoE6VEcQ4KKnL5PtbJLnabydDMqtnrXYJzr52UKrGmSbUJfVL0QiLoza2uGcyhDXzhOoT_YuX4aynrFHmbKPYulkVxVWA_q8kisUXzxo2wG4-Tday-_Z95zd0bM04NoVwWcUeko1vO95TiHHJjTqSgXIPwJIOpnhESLDMSvFVd1L5aS1Z1igaKOwMps0KH1cwGU26iYdqS-mauiNe3s0Hdc8HciuLI3_9YFBvZQj7CdLminphUzT-y4lCn3l8oBSA0156O9daGf3WX98Rxn8SLWo8cPUnXFDx1_Mxg-K7ovr-tjm2VRSzisnIlL7MJTr3eUO2URT_QzZC8UuCr1JJwGYgjWXvVcVBYE9IciLU4ClGwA5iIve9p2d48Ra1msBtgZ3Ib806di98B61KhMlUR25vzHf0zyOZKWagAb41pYdH2QO44Hml2YufAz0W88AsJwvzliidrrTM7oKrsVJNzNSEBjATM16_qzaRl9LLEjzzCkpYKGAj0LUTx6d3T94tyA8tJEC5HwW5yoT74cIRz-udRxVRTDC9TwjeSbOHLfIbh4Bw4f2r83G-EupnBc37OPsmsscWs7wAvndeVp31E0nVxlXkxYOjnw2NuE9Y6IQ-f0Z_QX_AEgeqGU2c-LWd6m9ygmMYY5WnOBkfxYKfH8y9RQNRylq0Zq0THy2X17vIZHjB2qeQxLl90QtYnF1ziZ6518gN86UojQ1La4TJM_cxP8RY1WOK0uUrg07e49mLL95-0ZnE5r-bEWIkd8dA3P0OTxSqb6dbcpkJQnpvh0XmdKUhYo0q3By0fZdohbnaRrXWclO84Eue3SJ3szdcJFmZHigUjeqOjwdjHbfbwJfRUU4qnZRuWamFjcbRUT28pcY_eSyOTQ1h8ia2NborVib-l9pz-kCc- -_Rx_wkegOhsW_AI4qVVSR3hX9gIfpLYLB8QOcLy9UwXCa0xHgecN9OmRLjsDcK1bRLOMjfchsxeOi8fBMJNnMjAL5T5jhNYltQc39Dz7gpt-nNdeS499ynJpug7bR9abQArt2-KSHpWCC1mACP-Z9CeYCFZAZDCUariewTb4l1QV-uOC6LS3JkLRJv_Uhv_UYCtHlUYecPQUVRDQFJFn6YT_K0vhRSz6EKLuNUZPbaD4KXIQkMuJkIurjbq-jjFstSVvmrNpTfw-z9B7S_nqBdNjAFUu6y0]--></g></svg>