<svg xmlns="http://www.w3.org/2000/svg" xmlns:xlink="http://www.w3.org/1999/xlink" contentStyleType="text/css" data-diagram-type="SEQUENCE" height="847px" preserveAspectRatio="none" style="width:680px;height:847px;background:#FFFFFF;" version="1.1" viewBox="0 0 680 847" width="680px" zoomAndPan="magnify"><title>'curl_easy_init' sequence diagram</title><defs/><g><text fill="#000000" font-family="sans-serif" font-size="14" font-weight="bold" lengthAdjust="spacing" textLength="265.248" x="206.47" y="27.9951">'curl_easy_init' sequence diagram</text><g><title>lib/easy.c</title><rect fill="#FFFFFF" height="689.8594" style="stroke:#181818;stroke-width:1;" width="10" x="158.4775" y="104.7266"/></g><g><title>lib/easy.c</title><rect fill="#FFFFFF" height="416.0625" style="stroke:#181818;stroke-width:1;" width="10" x="163.4775" y="165.9922"/></g><g><title>lib/curl_trc.h</title><rect fill="#FFFFFF" height="30" style="stroke:#181818;stroke-width:1;" width="10" x="336.4551" y="282.3906"/></g><g><title>lib/vtls/vtls.h</title><rect fill="#FFFFFF" height="30" style="stroke:#181818;stroke-width:1;" width="10" x="448.5566" y="372.6563"/></g><g><title>lib/asyn.h</title><rect fill="#FFFFFF" height="30" style="stroke:#181818;stroke-width:1;" width="10" x="551.0947" y="462.9219"/></g><g><title>lib/url.h</title><rect fill="#FFFFFF" height="30" style="stroke:#181818;stroke-width:1;" width="10" x="635.5757" y="705.4531"/></g><rect fill="transparent" height="522.4609" style="stroke:#000000;stroke-width:1.5;" width="613.9634" x="3" y="119.7266"/><rect fill="transparent" height="44.1328" style="stroke:#000000;stroke-width:1.5;" width="174.0327" x="113.3267" y="185.9922"/><rect fill="transparent" height="76.2656" style="stroke:#000000;stroke-width:1.5;" width="288.5605" x="113.3267" y="244.125"/><rect fill="transparent" height="76.2656" style="stroke:#000000;stroke-width:1.5;" width="401.8994" x="113.3267" y="334.3906"/><rect fill="transparent" height="76.2656" style="stroke:#000000;stroke-width:1.5;" width="493.6367" x="113.3267" y="424.6563"/><rect fill="transparent" height="31.1328" style="stroke:#000000;stroke-width:1.5;" width="210.6284" x="3" y="604.0547"/><rect fill="transparent" height="31.1328" style="stroke:#000000;stroke-width:1.5;" width="210.6284" x="3" y="750.4531"/><g><title>lib/easy.c</title><rect fill="transparent" height="738.9922" width="8" x="159.4775" y="73.5938"/><line style="stroke:#181818;stroke-width:0.5;stroke-dasharray:5.0,5.0;" x1="163.3267" x2="163.3267" y1="73.5938" y2="812.5859"/></g><g><title>lib/curl_trc.h</title><rect fill="transparent" height="738.9922" width="8" x="337.4551" y="73.5938"/><line style="stroke:#181818;stroke-width:0.5;stroke-dasharray:5.0,5.0;" x1="341.0229" x2="341.0229" y1="73.5938" y2="812.5859"/></g><g><title>lib/vtls/vtls.h</title><rect fill="transparent" height="738.9922" width="8" x="449.5566" y="73.5938"/><line style="stroke:#181818;stroke-width:0.5;stroke-dasharray:5.0,5.0;" x1="452.8872" x2="452.8872" y1="73.5938" y2="812.5859"/></g><g><title>lib/asyn.h</title><rect fill="transparent" height="738.9922" width="8" x="552.0947" y="73.5938"/><line style="stroke:#181818;stroke-width:0.5;stroke-dasharray:5.0,5.0;" x1="555.2261" x2="555.2261" y1="73.5938" y2="812.5859"/></g><g><title>lib/url.h</title><rect fill="transparent" height="738.9922" width="8" x="636.5757" y="73.5938"/><line style="stroke:#181818;stroke-width:0.5;stroke-dasharray:5.0,5.0;" x1="639.9634" x2="639.9634" y1="73.5938" y2="812.5859"/></g><rect fill="#E2E2F0" height="30.2969" rx="2.5" ry="2.5" style="stroke:#181818;stroke-width:0.5;" width="80.3018" x="123.3267" y="42.2969"/><text fill="#000000" font-family="sans-serif" font-size="14" lengthAdjust="spacing" textLength="66.3018" x="130.3267" y="62.292">lib/easy.c</text><rect fill="#E2E2F0" height="30.2969" rx="2.5" ry="2.5" style="stroke:#181818;stroke-width:0.5;" width="80.3018" x="123.3267" y="811.5859"/><text fill="#000000" font-family="sans-serif" font-size="14" lengthAdjust="spacing" textLength="66.3018" x="130.3267" y="831.5811">lib/easy.c</text><rect fill="#E2E2F0" height="30.2969" rx="2.5" ry="2.5" style="stroke:#181818;stroke-width:0.5;" width="100.8643" x="291.0229" y="42.2969"/><text fill="#000000" font-family="sans-serif" font-size="14" lengthAdjust="spacing" textLength="86.8643" x="298.0229" y="62.292">lib/curl_trc.h</text><rect fill="#E2E2F0" height="30.2969" rx="2.5" ry="2.5" style="stroke:#181818;stroke-width:0.5;" width="100.8643" x="291.0229" y="811.5859"/><text fill="#000000" font-family="sans-serif" font-size="14" lengthAdjust="spacing" textLength="86.8643" x="298.0229" y="831.5811">lib/curl_trc.h</text><rect fill="#E2E2F0" height="30.2969" rx="2.5" ry="2.5" style="stroke:#181818;stroke-width:0.5;" width="103.3389" x="401.8872" y="42.2969"/><text fill="#000000" font-family="sans-serif" font-size="14" lengthAdjust="spacing" textLength="89.3389" x="408.8872" y="62.292">lib/vtls/vtls.h</text><rect fill="#E2E2F0" height="30.2969" rx="2.5" ry="2.5" style="stroke:#181818;stroke-width:0.5;" width="103.3389" x="401.8872" y="811.5859"/><text fill="#000000" font-family="sans-serif" font-size="14" lengthAdjust="spacing" textLength="89.3389" x="408.8872" y="831.5811">lib/vtls/vtls.h</text><rect fill="#E2E2F0" height="30.2969" rx="2.5" ry="2.5" style="stroke:#181818;stroke-width:0.5;" width="81.7373" x="515.2261" y="42.2969"/><text fill="#000000" font-family="sans-serif" font-size="14" lengthAdjust="spacing" textLength="67.7373" x="522.2261" y="62.292">lib/asyn.h</text><rect fill="#E2E2F0" height="30.2969" rx="2.5" ry="2.5" style="stroke:#181818;stroke-width:0.5;" width="81.7373" x="515.2261" y="811.5859"/><text fill="#000000" font-family="sans-serif" font-size="14" lengthAdjust="spacing" textLength="67.7373" x="522.2261" y="831.5811">lib/asyn.h</text><rect fill="#E2E2F0" height="30.2969" rx="2.5" ry="2.5" style="stroke:#181818;stroke-width:0.5;" width="67.2246" x="606.9634" y="42.2969"/><text fill="#000000" font-family="sans-serif" font-size="14" lengthAdjust="spacing" textLength="53.2246" x="613.9634" y="62.292">lib/url.h</text><rect fill="#E2E2F0" height="30.2969" rx="2.5" ry="2.5" style="stroke:#181818;stroke-width:0.5;" width="67.2246" x="606.9634" y="811.5859"/><text fill="#000000" font-family="sans-serif" font-size="14" lengthAdjust="spacing" textLength="53.2246" x="613.9634" y="831.5811">lib/url.h</text><g><title>lib/easy.c</title><rect fill="#FFFFFF" height="689.8594" style="stroke:#181818;stroke-width:1;" width="10" x="158.4775" y="104.7266"/></g><g><title>lib/easy.c</title><rect fill="#FFFFFF" height="416.0625" style="stroke:#181818;stroke-width:1;" width="10" x="163.4775" y="165.9922"/></g><g><title>lib/curl_trc.h</title><rect fill="#FFFFFF" height="30" style="stroke:#181818;stroke-width:1;" width="10" x="336.4551" y="282.3906"/></g><g><title>lib/vtls/vtls.h</title><rect fill="#FFFFFF" height="30" style="stroke:#181818;stroke-width:1;" width="10" x="448.5566" y="372.6563"/></g><g><title>lib/asyn.h</title><rect fill="#FFFFFF" height="30" style="stroke:#181818;stroke-width:1;" width="10" x="551.0947" y="462.9219"/></g><g><title>lib/url.h</title><rect fill="#FFFFFF" height="30" style="stroke:#181818;stroke-width:1;" width="10" x="635.5757" y="705.4531"/></g><polygon fill="#181818" points="146.4775,100.7266,156.4775,104.7266,146.4775,108.7266,150.4775,104.7266" style="stroke:#181818;stroke-width:1;"/><line style="stroke:#181818;stroke-width:1;" x1="0" x2="152.4775" y1="104.7266" y2="104.7266"/><text fill="#000000" font-family="sans-serif" font-size="13" lengthAdjust="spacing" textLength="98.4775" x="7" y="99.6606">curl_easy_init()</text><path d="M3,119.7266 L67.4429,119.7266 L67.4429,126.8594 L57.4429,136.8594 L3,136.8594 L3,119.7266 " fill="#EEEEEE" style="stroke:#000000;stroke-width:1.5;"/><rect fill="transparent" height="522.4609" style="stroke:#000000;stroke-width:1.5;" width="613.9634" x="3" y="119.7266"/><text fill="#000000" font-family="sans-serif" font-size="13" font-weight="bold" lengthAdjust="spacing" textLength="19.4429" x="18" y="132.7935">alt</text><text fill="#000000" font-family="sans-serif" font-size="11" font-weight="bold" lengthAdjust="spacing" textLength="76.1729" x="82.4429" y="131.937">[!initialized]</text><a href="https://github.com/curl/curl/blob/34cf9d54a46598c44938aa7598820484d7af7133/lib/easy.c#L360" target="_top" title="" xlink:actuate="onRequest" xlink:href="https://github.com/curl/curl/blob/34cf9d54a46598c44938aa7598820484d7af7133/lib/easy.c#L360" xlink:show="new" xlink:title="" xlink:type="simple"><line style="stroke:#181818;stroke-width:1;" x1="168.4775" x2="215.4775" y1="152.9922" y2="152.9922"/><line style="stroke:#181818;stroke-width:1;" x1="215.4775" x2="215.4775" y1="152.9922" y2="165.9922"/><line style="stroke:#181818;stroke-width:1;" x1="174.4775" x2="215.4775" y1="165.9922" y2="165.9922"/><polygon fill="#181818" points="184.4775,161.9922,174.4775,165.9922,184.4775,169.9922,180.4775,165.9922" style="stroke:#181818;stroke-width:1;"/><text fill="#000000" font-family="sans-serif" font-size="13" lengthAdjust="spacing" textLength="143.9775" x="180.4775" y="147.9263">global_init(long,_Bool)</text></a><path d="M113.3267,185.9922 L177.7695,185.9922 L177.7695,193.125 L167.7695,203.125 L113.3267,203.125 L113.3267,185.9922 " fill="#EEEEEE" style="stroke:#000000;stroke-width:1.5;"/><rect fill="transparent" height="44.1328" style="stroke:#000000;stroke-width:1.5;" width="174.0327" x="113.3267" y="185.9922"/><text fill="#000000" font-family="sans-serif" font-size="13" font-weight="bold" lengthAdjust="spacing" textLength="19.4429" x="128.3267" y="199.0591">alt</text><text fill="#000000" font-family="sans-serif" font-size="11" font-weight="bold" lengthAdjust="spacing" textLength="89.5898" x="192.7695" y="198.2026">[initialized++]</text><line style="stroke:#181818;stroke-width:1;stroke-dasharray:2.0,2.0;" x1="173.4775" x2="215.4775" y1="209.125" y2="209.125"/><line style="stroke:#181818;stroke-width:1;stroke-dasharray:2.0,2.0;" x1="215.4775" x2="215.4775" y1="209.125" y2="222.125"/><line style="stroke:#181818;stroke-width:1;stroke-dasharray:2.0,2.0;" x1="174.4775" x2="215.4775" y1="222.125" y2="222.125"/><polygon fill="#181818" points="184.4775,218.125,174.4775,222.125,184.4775,226.125,180.4775,222.125" style="stroke:#181818;stroke-width:1;"/><path d="M113.3267,244.125 L177.7695,244.125 L177.7695,251.2578 L167.7695,261.2578 L113.3267,261.2578 L113.3267,244.125 " fill="#EEEEEE" style="stroke:#000000;stroke-width:1.5;"/><rect fill="transparent" height="76.2656" style="stroke:#000000;stroke-width:1.5;" width="288.5605" x="113.3267" y="244.125"/><text fill="#000000" font-family="sans-serif" font-size="13" font-weight="bold" lengthAdjust="spacing" textLength="19.4429" x="128.3267" y="257.1919">alt</text><text fill="#000000" font-family="sans-serif" font-size="11" font-weight="bold" lengthAdjust="spacing" textLength="94.0425" x="192.7695" y="256.3354">[Curl_trc_init()]</text><a href="https://github.com/curl/curl/blob/34cf9d54a46598c44938aa7598820484d7af7133/lib/easy.c#L163" target="_top" title="" xlink:actuate="onRequest" xlink:href="https://github.com/curl/curl/blob/34cf9d54a46598c44938aa7598820484d7af7133/lib/easy.c#L163" xlink:show="new" xlink:title="" xlink:type="simple"><polygon fill="#181818" points="324.4551,278.3906,334.4551,282.3906,324.4551,286.3906,328.4551,282.3906" style="stroke:#181818;stroke-width:1;"/><line style="stroke:#181818;stroke-width:1;" x1="173.4775" x2="330.4551" y1="282.3906" y2="282.3906"/><text fill="#000000" font-family="sans-serif" font-size="13" font-weight="bold" lengthAdjust="spacing" textLength="5.9414" x="180.4775" y="277.3247">[</text><text fill="#000000" font-family="sans-serif" font-size="13" lengthAdjust="spacing" textLength="87.5659" x="186.4189" y="277.3247">Curl_trc_init()</text><text fill="#000000" font-family="sans-serif" font-size="13" font-weight="bold" lengthAdjust="spacing" textLength="5.9414" x="273.9849" y="277.3247">]</text></a><path d="M113.3267,334.3906 L177.7695,334.3906 L177.7695,341.5234 L167.7695,351.5234 L113.3267,351.5234 L113.3267,334.3906 " fill="#EEEEEE" style="stroke:#000000;stroke-width:1.5;"/><rect fill="transparent" height="76.2656" style="stroke:#000000;stroke-width:1.5;" width="401.8994" x="113.3267" y="334.3906"/><text fill="#000000" font-family="sans-serif" font-size="13" font-weight="bold" lengthAdjust="spacing" textLength="19.4429" x="128.3267" y="347.4575">alt</text><text fill="#000000" font-family="sans-serif" font-size="11" font-weight="bold" lengthAdjust="spacing" textLength="98.7207" x="192.7695" y="346.6011">[!Curl_ssl_init()]</text><a href="https://github.com/curl/curl/blob/34cf9d54a46598c44938aa7598820484d7af7133/lib/easy.c#L168" target="_top" title="" xlink:actuate="onRequest" xlink:href="https://github.com/curl/curl/blob/34cf9d54a46598c44938aa7598820484d7af7133/lib/easy.c#L168" xlink:show="new" xlink:title="" xlink:type="simple"><polygon fill="#181818" points="436.5566,368.6563,446.5566,372.6563,436.5566,376.6563,440.5566,372.6563" style="stroke:#181818;stroke-width:1;"/><line style="stroke:#181818;stroke-width:1;" x1="173.4775" x2="442.5566" y1="372.6563" y2="372.6563"/><text fill="#000000" font-family="sans-serif" font-size="13" font-weight="bold" lengthAdjust="spacing" textLength="5.9414" x="180.4775" y="367.5903">[</text><text fill="#000000" font-family="sans-serif" font-size="13" lengthAdjust="spacing" textLength="87.1343" x="186.4189" y="367.5903">Curl_ssl_init()</text><text fill="#000000" font-family="sans-serif" font-size="13" font-weight="bold" lengthAdjust="spacing" textLength="5.9414" x="273.5532" y="367.5903">]</text></a><path d="M113.3267,424.6563 L177.7695,424.6563 L177.7695,431.7891 L167.7695,441.7891 L113.3267,441.7891 L113.3267,424.6563 " fill="#EEEEEE" style="stroke:#000000;stroke-width:1.5;"/><rect fill="transparent" height="76.2656" style="stroke:#000000;stroke-width:1.5;" width="493.6367" x="113.3267" y="424.6563"/><text fill="#000000" font-family="sans-serif" font-size="13" font-weight="bold" lengthAdjust="spacing" textLength="19.4429" x="128.3267" y="437.7231">alt</text><text fill="#000000" font-family="sans-serif" font-size="11" font-weight="bold" lengthAdjust="spacing" textLength="171.4238" x="192.7695" y="436.8667">[Curl_resolver_global_init()]</text><a href="https://github.com/curl/curl/blob/34cf9d54a46598c44938aa7598820484d7af7133/lib/easy.c#L188" target="_top" title="" xlink:actuate="onRequest" xlink:href="https://github.com/curl/curl/blob/34cf9d54a46598c44938aa7598820484d7af7133/lib/easy.c#L188" xlink:show="new" xlink:title="" xlink:type="simple"><polygon fill="#181818" points="539.0947,458.9219,549.0947,462.9219,539.0947,466.9219,543.0947,462.9219" style="stroke:#181818;stroke-width:1;"/><line style="stroke:#181818;stroke-width:1;" x1="173.4775" x2="545.0947" y1="462.9219" y2="462.9219"/><text fill="#000000" font-family="sans-serif" font-size="13" font-weight="bold" lengthAdjust="spacing" textLength="5.9414" x="180.4775" y="457.856">[</text><text fill="#000000" font-family="sans-serif" font-size="13" lengthAdjust="spacing" textLength="168.8413" x="186.4189" y="457.856">Curl_resolver_global_init()</text><text fill="#000000" font-family="sans-serif" font-size="13" font-weight="bold" lengthAdjust="spacing" textLength="5.9414" x="355.2603" y="457.856">]</text></a><line style="stroke:#181818;stroke-width:1;stroke-dasharray:2.0,2.0;" x1="173.4775" x2="215.4775" y1="513.9219" y2="513.9219"/><line style="stroke:#181818;stroke-width:1;stroke-dasharray:2.0,2.0;" x1="215.4775" x2="215.4775" y1="513.9219" y2="526.9219"/><line style="stroke:#181818;stroke-width:1;stroke-dasharray:2.0,2.0;" x1="174.4775" x2="215.4775" y1="526.9219" y2="526.9219"/><polygon fill="#181818" points="184.4775,522.9219,174.4775,526.9219,184.4775,530.9219,180.4775,526.9219" style="stroke:#181818;stroke-width:1;"/><path d="M94,539.9219 L94,564.9219 L232,564.9219 L232,549.9219 L222,539.9219 L94,539.9219 " fill="#FEFFDD" style="stroke:#181818;stroke-width:0.5;"/><path d="M222,539.9219 L222,549.9219 L232,549.9219 L222,539.9219 " fill="#FEFFDD" style="stroke:#181818;stroke-width:0.5;"/><text fill="#000000" font-family="sans-serif" font-size="13" lengthAdjust="spacing" textLength="117.3618" x="100" y="556.9888">undo the increase</text><line style="stroke:#181818;stroke-width:1;stroke-dasharray:2.0,2.0;" x1="173.4775" x2="215.4775" y1="581.0547" y2="581.0547"/><line style="stroke:#181818;stroke-width:1;stroke-dasharray:2.0,2.0;" x1="215.4775" x2="215.4775" y1="581.0547" y2="594.0547"/><line style="stroke:#181818;stroke-width:1;stroke-dasharray:2.0,2.0;" x1="168.4775" x2="215.4775" y1="594.0547" y2="594.0547"/><polygon fill="#181818" points="178.4775,590.0547,168.4775,594.0547,178.4775,598.0547,174.4775,594.0547" style="stroke:#181818;stroke-width:1;"/><path d="M3,604.0547 L67.4429,604.0547 L67.4429,611.1875 L57.4429,621.1875 L3,621.1875 L3,604.0547 " fill="#EEEEEE" style="stroke:#000000;stroke-width:1.5;"/><rect fill="transparent" height="31.1328" style="stroke:#000000;stroke-width:1.5;" width="210.6284" x="3" y="604.0547"/><text fill="#000000" font-family="sans-serif" font-size="13" font-weight="bold" lengthAdjust="spacing" textLength="19.4429" x="18" y="617.1216">alt</text><text fill="#000000" font-family="sans-serif" font-size="11" font-weight="bold" lengthAdjust="spacing" textLength="46.3472" x="82.4429" y="616.2651">[result]</text><polygon fill="#181818" points="11,623.1875,1,627.1875,11,631.1875,7,627.1875" style="stroke:#181818;stroke-width:1;"/><line style="stroke:#181818;stroke-width:1;stroke-dasharray:2.0,2.0;" x1="5" x2="157.4775" y1="627.1875" y2="627.1875"/><path d="M5,654.1875 L5,679.1875 L323,679.1875 L323,664.1875 L313,654.1875 L5,654.1875 " fill="#FEFFDD" style="stroke:#181818;stroke-width:0.5;"/><path d="M313,654.1875 L313,664.1875 L323,664.1875 L313,654.1875 " fill="#FEFFDD" style="stroke:#181818;stroke-width:0.5;"/><text fill="#000000" font-family="sans-serif" font-size="13" lengthAdjust="spacing" textLength="297.6099" x="11" y="671.2544">We use curl_open() with undefined URL so far</text><a href="https://github.com/curl/curl/blob/34cf9d54a46598c44938aa7598820484d7af7133/lib/easy.c#L371" target="_top" title="" xlink:actuate="onRequest" xlink:href="https://github.com/curl/curl/blob/34cf9d54a46598c44938aa7598820484d7af7133/lib/easy.c#L371" xlink:show="new" xlink:title="" xlink:type="simple"><polygon fill="#181818" points="623.5757,701.4531,633.5757,705.4531,623.5757,709.4531,627.5757,705.4531" style="stroke:#181818;stroke-width:1;"/><line style="stroke:#181818;stroke-width:1;" x1="168.4775" x2="629.5757" y1="705.4531" y2="705.4531"/><text fill="#000000" font-family="sans-serif" font-size="13" lengthAdjust="spacing" textLength="197.5264" x="175.4775" y="700.3872">Curl_open(struct Curl_easy **)</text></a><path d="M3,750.4531 L67.4429,750.4531 L67.4429,757.5859 L57.4429,767.5859 L3,767.5859 L3,750.4531 " fill="#EEEEEE" style="stroke:#000000;stroke-width:1.5;"/><rect fill="transparent" height="31.1328" style="stroke:#000000;stroke-width:1.5;" width="210.6284" x="3" y="750.4531"/><text fill="#000000" font-family="sans-serif" font-size="13" font-weight="bold" lengthAdjust="spacing" textLength="19.4429" x="18" y="763.52">alt</text><text fill="#000000" font-family="sans-serif" font-size="11" font-weight="bold" lengthAdjust="spacing" textLength="46.3472" x="82.4429" y="762.6636">[result]</text><polygon fill="#181818" points="11,769.5859,1,773.5859,11,777.5859,7,773.5859" style="stroke:#181818;stroke-width:1;"/><line style="stroke:#181818;stroke-width:1;stroke-dasharray:2.0,2.0;" x1="5" x2="157.4775" y1="773.5859" y2="773.5859"/><polygon fill="#181818" points="11,790.5859,1,794.5859,11,798.5859,7,794.5859" style="stroke:#181818;stroke-width:1;"/><line style="stroke:#181818;stroke-width:1;stroke-dasharray:2.0,2.0;" x1="5" x2="162.4775" y1="794.5859" y2="794.5859"/><!--SRC=[jPLBZzem58Nt-HMUwGB8327EqnvLioYBRkYcqhGBX91n35WoDeqTghRgVwy33CF30JeIGevGSdolp-SJnt0Z66ZHgXHZHlIlCPVSj81cFoecAGC59xEIBBmbAGsdV4ca0VU2JtgrEA3tW6ZG7uSXZ3EKfIYCO1H5o8uKPjwm-zpu43o1mwRjZaUeuIjYM7D58WougzMS2FwR5LvZ-NEjXyEvCKlzrElDk9bNau2gHQzUpUOo4MhIYnCwnKMQa2HBCQ99WcD4I6x_eoXCK5BaP9h3EEwzmVWmYBFmpz_Ho7gRsHf4R8m99MUFuqzAYMijxZbyU3ZZyOn9ZybYNQjVKpObVOLyifDqAmZckzqCGuHHbE4SvoZECBI6qKNKhactGmspU8lQzuU-V-JIzqU-VmZRwQbWbpMl8E_MFRGMZIHNHkZrPG-bNMUE8vH2R0t56AOPYY-drZ7fbYZH2SetcmwKJaz7A9sQWqoMJ2knOkLu_rrnKBMhbFlPJ562yoXBSmYH_OLnX2zdqp7fXa3HAL2tMrTENVwES-hIr73VTrH8PUigkxXcIIKB1SoSsQE9bjOdgzk1Uk8xUnx7fUaejDmgORpXnsxt_5bNZvFiMF87qGcHJIJA4KhiiAKmliRyTmOgpJRVAxLaijq1FsrYW8N2fboo0hny7G2jm9IKrt1vRbpD3JzDETncih-peKrPqUtRMEjiN3l7ONGGEmcZG_DVMtTUSKrIlDPd9bbfDSLcQwWWSjQj5k8HsAtLN4aG1ba0lTPWyEtBxjxBf9AcsgXtDo4EO0116rRhfx3p3m00]--></g></svg>