<svg xmlns="http://www.w3.org/2000/svg" xmlns:xlink="http://www.w3.org/1999/xlink" contentStyleType="text/css" data-diagram-type="SEQUENCE" height="1449px" preserveAspectRatio="none" style="width:1665px;height:1449px;background:#FFFFFF;" version="1.1" viewBox="0 0 1665 1449" width="1665px" zoomAndPan="magnify"><title>'curl_easy_send' sequence diagram</title><defs/><g><text fill="#000000" font-family="sans-serif" font-size="14" font-weight="bold" lengthAdjust="spacing" textLength="276.8076" x="693.1021" y="27.9951">'curl_easy_send' sequence diagram</text><g><title>lib/easy.c</title><rect fill="#FFFFFF" height="1291.5859" style="stroke:#181818;stroke-width:1;" width="10" x="354.8022" y="104.7266"/></g><g><title>lib/easy.c</title><rect fill="#FFFFFF" height="1129.1875" style="stroke:#181818;stroke-width:1;" width="10" x="359.8022" y="246.125"/></g><g><title>lib/easy.c</title><rect fill="#FFFFFF" height="625.8594" style="stroke:#181818;stroke-width:1;" width="10" x="364.8022" y="288.2578"/></g><g><title>lib/multiif.h</title><rect fill="#FFFFFF" height="30" style="stroke:#181818;stroke-width:1;" width="10" x="804.7261" y="157.9922"/></g><g><title>lib/multiif.h</title><rect fill="#FFFFFF" height="30" style="stroke:#181818;stroke-width:1;" width="10" x="804.7261" y="1082.7813"/></g><g><title>lib/curl_trc.h</title><rect fill="#FFFFFF" height="30" style="stroke:#181818;stroke-width:1;" width="10" x="911.8101" y="439.7891"/></g><g><title>lib/curl_trc.h</title><rect fill="#FFFFFF" height="30" style="stroke:#181818;stroke-width:1;" width="10" x="911.8101" y="830.1172"/></g><g><title>lib/connect.h</title><rect fill="#FFFFFF" height="243.9297" style="stroke:#181818;stroke-width:1;" width="10" x="1024.4995" y="532.9219"/></g><g><title>lib/conncache.h</title><rect fill="#FFFFFF" height="30" style="stroke:#181818;stroke-width:1;" width="10" x="1376.6079" y="666.7188"/></g><g><title>lib/sigpipe.h</title><rect fill="#FFFFFF" height="30" style="stroke:#181818;stroke-width:1;" width="10" x="1498.2217" y="1148.9141"/></g><g><title>lib/sigpipe.h</title><rect fill="#FFFFFF" height="30" style="stroke:#181818;stroke-width:1;" width="10" x="1498.2217" y="1267.1797"/></g><g><title>lib/cfilters.h</title><rect fill="#FFFFFF" height="30" style="stroke:#181818;stroke-width:1;" width="10" x="1605.8799" y="1208.0469"/></g><rect fill="transparent" height="90.2656" style="stroke:#000000;stroke-width:1.5;" width="863.3779" x="3" y="119.7266"/><rect fill="transparent" height="44.1328" style="stroke:#000000;stroke-width:1.5;" width="140.1509" x="309.6514" y="308.2578"/><rect fill="transparent" height="103.2656" style="stroke:#000000;stroke-width:1.5;" width="667.5908" x="309.6514" y="401.5234"/><rect fill="transparent" height="135.3984" style="stroke:#000000;stroke-width:1.5;" width="1154.0439" x="299.6514" y="628.4531"/><rect fill="transparent" height="31.1328" style="stroke:#000000;stroke-width:1.5;" width="782.1055" x="309.6514" y="711.7188"/><rect fill="transparent" height="103.2656" style="stroke:#000000;stroke-width:1.5;" width="667.5908" x="309.6514" y="791.8516"/><rect fill="transparent" height="44.1328" style="stroke:#000000;stroke-width:1.5;" width="130.79" x="309.6514" y="936.1172"/><rect fill="transparent" height="126.5313" style="stroke:#000000;stroke-width:1.5;" width="698.3779" x="168" y="994.25"/><rect fill="transparent" height="44.1328" style="stroke:#000000;stroke-width:1.5;" width="300.6724" x="309.6514" y="1312.1797"/><g><title>lib/easy.c</title><rect fill="transparent" height="1340.7188" width="8" x="355.8022" y="73.5938"/><line style="stroke:#181818;stroke-width:0.5;stroke-dasharray:5.0,5.0;" x1="359.6514" x2="359.6514" y1="73.5938" y2="1414.3125"/></g><g><title>lib/multiif.h</title><rect fill="transparent" height="1340.7188" width="8" x="805.7261" y="73.5938"/><line style="stroke:#181818;stroke-width:0.5;stroke-dasharray:5.0,5.0;" x1="809.0742" x2="809.0742" y1="73.5938" y2="1414.3125"/></g><g><title>lib/curl_trc.h</title><rect fill="transparent" height="1340.7188" width="8" x="912.8101" y="73.5938"/><line style="stroke:#181818;stroke-width:0.5;stroke-dasharray:5.0,5.0;" x1="916.3779" x2="916.3779" y1="73.5938" y2="1414.3125"/></g><g><title>lib/connect.h</title><rect fill="transparent" height="1340.7188" width="8" x="1025.4995" y="73.5938"/><line style="stroke:#181818;stroke-width:0.5;stroke-dasharray:5.0,5.0;" x1="1029.2422" x2="1029.2422" y1="73.5938" y2="1414.3125"/></g><g><title>lib/conncache.h</title><rect fill="transparent" height="1340.7188" width="8" x="1377.6079" y="73.5938"/><line style="stroke:#181818;stroke-width:0.5;stroke-dasharray:5.0,5.0;" x1="1381.5205" x2="1381.5205" y1="73.5938" y2="1414.3125"/></g><g><title>lib/sigpipe.h</title><rect fill="transparent" height="1340.7188" width="8" x="1499.2217" y="73.5938"/><line style="stroke:#181818;stroke-width:0.5;stroke-dasharray:5.0,5.0;" x1="1502.6953" x2="1502.6953" y1="73.5938" y2="1414.3125"/></g><g><title>lib/cfilters.h</title><rect fill="transparent" height="1340.7188" width="8" x="1606.8799" y="73.5938"/><line style="stroke:#181818;stroke-width:0.5;stroke-dasharray:5.0,5.0;" x1="1610.748" x2="1610.748" y1="73.5938" y2="1414.3125"/></g><rect fill="#E2E2F0" height="30.2969" rx="2.5" ry="2.5" style="stroke:#181818;stroke-width:0.5;" width="80.3018" x="319.6514" y="42.2969"/><text fill="#000000" font-family="sans-serif" font-size="14" lengthAdjust="spacing" textLength="66.3018" x="326.6514" y="62.292">lib/easy.c</text><rect fill="#E2E2F0" height="30.2969" rx="2.5" ry="2.5" style="stroke:#181818;stroke-width:0.5;" width="80.3018" x="319.6514" y="1413.3125"/><text fill="#000000" font-family="sans-serif" font-size="14" lengthAdjust="spacing" textLength="66.3018" x="326.6514" y="1433.3076">lib/easy.c</text><rect fill="#E2E2F0" height="30.2969" rx="2.5" ry="2.5" style="stroke:#181818;stroke-width:0.5;" width="93.3037" x="763.0742" y="42.2969"/><text fill="#000000" font-family="sans-serif" font-size="14" lengthAdjust="spacing" textLength="79.3037" x="770.0742" y="62.292">lib/multiif.h</text><rect fill="#E2E2F0" height="30.2969" rx="2.5" ry="2.5" style="stroke:#181818;stroke-width:0.5;" width="93.3037" x="763.0742" y="1413.3125"/><text fill="#000000" font-family="sans-serif" font-size="14" lengthAdjust="spacing" textLength="79.3037" x="770.0742" y="1433.3076">lib/multiif.h</text><rect fill="#E2E2F0" height="30.2969" rx="2.5" ry="2.5" style="stroke:#181818;stroke-width:0.5;" width="100.8643" x="866.3779" y="42.2969"/><text fill="#000000" font-family="sans-serif" font-size="14" lengthAdjust="spacing" textLength="86.8643" x="873.3779" y="62.292">lib/curl_trc.h</text><rect fill="#E2E2F0" height="30.2969" rx="2.5" ry="2.5" style="stroke:#181818;stroke-width:0.5;" width="100.8643" x="866.3779" y="1413.3125"/><text fill="#000000" font-family="sans-serif" font-size="14" lengthAdjust="spacing" textLength="86.8643" x="873.3779" y="1433.3076">lib/curl_trc.h</text><rect fill="#E2E2F0" height="30.2969" rx="2.5" ry="2.5" style="stroke:#181818;stroke-width:0.5;" width="104.5146" x="977.2422" y="42.2969"/><text fill="#000000" font-family="sans-serif" font-size="14" lengthAdjust="spacing" textLength="90.5146" x="984.2422" y="62.292">lib/connect.h</text><rect fill="#E2E2F0" height="30.2969" rx="2.5" ry="2.5" style="stroke:#181818;stroke-width:0.5;" width="104.5146" x="977.2422" y="1413.3125"/><text fill="#000000" font-family="sans-serif" font-size="14" lengthAdjust="spacing" textLength="90.5146" x="984.2422" y="1433.3076">lib/connect.h</text><rect fill="#E2E2F0" height="30.2969" rx="2.5" ry="2.5" style="stroke:#181818;stroke-width:0.5;" width="124.1748" x="1319.5205" y="42.2969"/><text fill="#000000" font-family="sans-serif" font-size="14" lengthAdjust="spacing" textLength="110.1748" x="1326.5205" y="62.292">lib/conncache.h</text><rect fill="#E2E2F0" height="30.2969" rx="2.5" ry="2.5" style="stroke:#181818;stroke-width:0.5;" width="124.1748" x="1319.5205" y="1413.3125"/><text fill="#000000" font-family="sans-serif" font-size="14" lengthAdjust="spacing" textLength="110.1748" x="1326.5205" y="1433.3076">lib/conncache.h</text><rect fill="#E2E2F0" height="30.2969" rx="2.5" ry="2.5" style="stroke:#181818;stroke-width:0.5;" width="99.0527" x="1453.6953" y="42.2969"/><text fill="#000000" font-family="sans-serif" font-size="14" lengthAdjust="spacing" textLength="85.0527" x="1460.6953" y="62.292">lib/sigpipe.h</text><rect fill="#E2E2F0" height="30.2969" rx="2.5" ry="2.5" style="stroke:#181818;stroke-width:0.5;" width="99.0527" x="1453.6953" y="1413.3125"/><text fill="#000000" font-family="sans-serif" font-size="14" lengthAdjust="spacing" textLength="85.0527" x="1460.6953" y="1433.3076">lib/sigpipe.h</text><rect fill="#E2E2F0" height="30.2969" rx="2.5" ry="2.5" style="stroke:#181818;stroke-width:0.5;" width="96.2637" x="1562.748" y="42.2969"/><text fill="#000000" font-family="sans-serif" font-size="14" lengthAdjust="spacing" textLength="82.2637" x="1569.748" y="62.292">lib/cfilters.h</text><rect fill="#E2E2F0" height="30.2969" rx="2.5" ry="2.5" style="stroke:#181818;stroke-width:0.5;" width="96.2637" x="1562.748" y="1413.3125"/><text fill="#000000" font-family="sans-serif" font-size="14" lengthAdjust="spacing" textLength="82.2637" x="1569.748" y="1433.3076">lib/cfilters.h</text><g><title>lib/easy.c</title><rect fill="#FFFFFF" height="1291.5859" style="stroke:#181818;stroke-width:1;" width="10" x="354.8022" y="104.7266"/></g><g><title>lib/easy.c</title><rect fill="#FFFFFF" height="1129.1875" style="stroke:#181818;stroke-width:1;" width="10" x="359.8022" y="246.125"/></g><g><title>lib/easy.c</title><rect fill="#FFFFFF" height="625.8594" style="stroke:#181818;stroke-width:1;" width="10" x="364.8022" y="288.2578"/></g><g><title>lib/multiif.h</title><rect fill="#FFFFFF" height="30" style="stroke:#181818;stroke-width:1;" width="10" x="804.7261" y="157.9922"/></g><g><title>lib/multiif.h</title><rect fill="#FFFFFF" height="30" style="stroke:#181818;stroke-width:1;" width="10" x="804.7261" y="1082.7813"/></g><g><title>lib/curl_trc.h</title><rect fill="#FFFFFF" height="30" style="stroke:#181818;stroke-width:1;" width="10" x="911.8101" y="439.7891"/></g><g><title>lib/curl_trc.h</title><rect fill="#FFFFFF" height="30" style="stroke:#181818;stroke-width:1;" width="10" x="911.8101" y="830.1172"/></g><g><title>lib/connect.h</title><rect fill="#FFFFFF" height="243.9297" style="stroke:#181818;stroke-width:1;" width="10" x="1024.4995" y="532.9219"/></g><g><title>lib/conncache.h</title><rect fill="#FFFFFF" height="30" style="stroke:#181818;stroke-width:1;" width="10" x="1376.6079" y="666.7188"/></g><g><title>lib/sigpipe.h</title><rect fill="#FFFFFF" height="30" style="stroke:#181818;stroke-width:1;" width="10" x="1498.2217" y="1148.9141"/></g><g><title>lib/sigpipe.h</title><rect fill="#FFFFFF" height="30" style="stroke:#181818;stroke-width:1;" width="10" x="1498.2217" y="1267.1797"/></g><g><title>lib/cfilters.h</title><rect fill="#FFFFFF" height="30" style="stroke:#181818;stroke-width:1;" width="10" x="1605.8799" y="1208.0469"/></g><polygon fill="#181818" points="342.8022,100.7266,352.8022,104.7266,342.8022,108.7266,346.8022,104.7266" style="stroke:#181818;stroke-width:1;"/><line style="stroke:#181818;stroke-width:1;" x1="0" x2="348.8022" y1="104.7266" y2="104.7266"/><text fill="#000000" font-family="sans-serif" font-size="13" lengthAdjust="spacing" textLength="328.8022" x="7" y="99.6606">curl_easy_send(CURL *,const void *,size_t,size_t *)</text><path d="M3,119.7266 L67.4429,119.7266 L67.4429,126.8594 L57.4429,136.8594 L3,136.8594 L3,119.7266 " fill="#EEEEEE" style="stroke:#000000;stroke-width:1.5;"/><rect fill="transparent" height="90.2656" style="stroke:#000000;stroke-width:1.5;" width="863.3779" x="3" y="119.7266"/><text fill="#000000" font-family="sans-serif" font-size="13" font-weight="bold" lengthAdjust="spacing" textLength="19.4429" x="18" y="132.7935">alt</text><text fill="#000000" font-family="sans-serif" font-size="11" font-weight="bold" lengthAdjust="spacing" textLength="162.2231" x="82.4429" y="131.937">[Curl_is_in_callback(data)]</text><a href="https://github.com/curl/curl/blob/34cf9d54a46598c44938aa7598820484d7af7133/lib/easy.c#L1329" target="_top" title="" xlink:actuate="onRequest" xlink:href="https://github.com/curl/curl/blob/34cf9d54a46598c44938aa7598820484d7af7133/lib/easy.c#L1329" xlink:show="new" xlink:title="" xlink:type="simple"><polygon fill="#181818" points="792.7261,153.9922,802.7261,157.9922,792.7261,161.9922,796.7261,157.9922" style="stroke:#181818;stroke-width:1;"/><line style="stroke:#181818;stroke-width:1;" x1="364.8022" x2="798.7261" y1="157.9922" y2="157.9922"/><text fill="#000000" font-family="sans-serif" font-size="13" font-weight="bold" lengthAdjust="spacing" textLength="5.9414" x="371.8022" y="152.9263">[</text><text fill="#000000" font-family="sans-serif" font-size="13" lengthAdjust="spacing" textLength="247.0508" x="377.7437" y="152.9263">Curl_is_in_callback(struct Curl_easy *)</text><text fill="#000000" font-family="sans-serif" font-size="13" font-weight="bold" lengthAdjust="spacing" textLength="5.9414" x="624.7944" y="152.9263">]</text></a><polygon fill="#181818" points="11,197.9922,1,201.9922,11,205.9922,7,201.9922" style="stroke:#181818;stroke-width:1;"/><line style="stroke:#181818;stroke-width:1;stroke-dasharray:2.0,2.0;" x1="5" x2="353.8022" y1="201.9922" y2="201.9922"/><a href="https://github.com/curl/curl/blob/34cf9d54a46598c44938aa7598820484d7af7133/lib/easy.c#L1332" target="_top" title="" xlink:actuate="onRequest" xlink:href="https://github.com/curl/curl/blob/34cf9d54a46598c44938aa7598820484d7af7133/lib/easy.c#L1332" xlink:show="new" xlink:title="" xlink:type="simple"><line style="stroke:#181818;stroke-width:1;" x1="364.8022" x2="411.8022" y1="233.125" y2="233.125"/><line style="stroke:#181818;stroke-width:1;" x1="411.8022" x2="411.8022" y1="233.125" y2="246.125"/><line style="stroke:#181818;stroke-width:1;" x1="370.8022" x2="411.8022" y1="246.125" y2="246.125"/><polygon fill="#181818" points="380.8022,242.125,370.8022,246.125,380.8022,250.125,376.8022,246.125" style="stroke:#181818;stroke-width:1;"/><text fill="#000000" font-family="sans-serif" font-size="13" lengthAdjust="spacing" textLength="393.25" x="376.8022" y="228.0591">Curl_senddata(struct Curl_easy *,const void *,size_t,size_t *)</text></a><a href="https://github.com/curl/curl/blob/34cf9d54a46598c44938aa7598820484d7af7133/lib/easy.c#L1302" target="_top" title="" xlink:actuate="onRequest" xlink:href="https://github.com/curl/curl/blob/34cf9d54a46598c44938aa7598820484d7af7133/lib/easy.c#L1302" xlink:show="new" xlink:title="" xlink:type="simple"><line style="stroke:#181818;stroke-width:1;" x1="369.8022" x2="416.8022" y1="275.2578" y2="275.2578"/><line style="stroke:#181818;stroke-width:1;" x1="416.8022" x2="416.8022" y1="275.2578" y2="288.2578"/><line style="stroke:#181818;stroke-width:1;" x1="375.8022" x2="416.8022" y1="288.2578" y2="288.2578"/><polygon fill="#181818" points="385.8022,284.2578,375.8022,288.2578,385.8022,292.2578,381.8022,288.2578" style="stroke:#181818;stroke-width:1;"/><text fill="#000000" font-family="sans-serif" font-size="13" lengthAdjust="spacing" textLength="378.5679" x="381.8022" y="270.1919">easy_connection(struct Curl_easy *,struct connectdata **)</text></a><path d="M309.6514,308.2578 L374.0942,308.2578 L374.0942,315.3906 L364.0942,325.3906 L309.6514,325.3906 L309.6514,308.2578 " fill="#EEEEEE" style="stroke:#000000;stroke-width:1.5;"/><rect fill="transparent" height="44.1328" style="stroke:#000000;stroke-width:1.5;" width="140.1509" x="309.6514" y="308.2578"/><text fill="#000000" font-family="sans-serif" font-size="13" font-weight="bold" lengthAdjust="spacing" textLength="19.4429" x="324.6514" y="321.3247">alt</text><text fill="#000000" font-family="sans-serif" font-size="11" font-weight="bold" lengthAdjust="spacing" textLength="43.0493" x="389.0942" y="320.4683">[!data]</text><line style="stroke:#181818;stroke-width:1;stroke-dasharray:2.0,2.0;" x1="374.8022" x2="416.8022" y1="331.3906" y2="331.3906"/><line style="stroke:#181818;stroke-width:1;stroke-dasharray:2.0,2.0;" x1="416.8022" x2="416.8022" y1="331.3906" y2="344.3906"/><line style="stroke:#181818;stroke-width:1;stroke-dasharray:2.0,2.0;" x1="375.8022" x2="416.8022" y1="344.3906" y2="344.3906"/><polygon fill="#181818" points="385.8022,340.3906,375.8022,344.3906,385.8022,348.3906,381.8022,344.3906" style="stroke:#181818;stroke-width:1;"/><path d="M114,364.3906 L114,389.3906 L605,389.3906 L605,374.3906 L595,364.3906 L114,364.3906 " fill="#FEFFDD" style="stroke:#181818;stroke-width:0.5;"/><path d="M595,364.3906 L595,374.3906 L605,374.3906 L595,364.3906 " fill="#FEFFDD" style="stroke:#181818;stroke-width:0.5;"/><text fill="#000000" font-family="sans-serif" font-size="13" lengthAdjust="spacing" textLength="470.3232" x="120" y="381.4575">only allow these to be called on handles with CURLOPT_CONNECT_ONLY</text><path d="M309.6514,401.5234 L374.0942,401.5234 L374.0942,408.6563 L364.0942,418.6563 L309.6514,418.6563 L309.6514,401.5234 " fill="#EEEEEE" style="stroke:#000000;stroke-width:1.5;"/><rect fill="transparent" height="103.2656" style="stroke:#000000;stroke-width:1.5;" width="667.5908" x="309.6514" y="401.5234"/><text fill="#000000" font-family="sans-serif" font-size="13" font-weight="bold" lengthAdjust="spacing" textLength="19.4429" x="324.6514" y="414.5903">alt</text><text fill="#000000" font-family="sans-serif" font-size="11" font-weight="bold" lengthAdjust="spacing" textLength="161.0845" x="389.0942" y="413.7339">[!data-&gt;set.connect_only]</text><a href="https://github.com/curl/curl/blob/34cf9d54a46598c44938aa7598820484d7af7133/lib/curl_trc.h#L63" target="_top" title="" xlink:actuate="onRequest" xlink:href="https://github.com/curl/curl/blob/34cf9d54a46598c44938aa7598820484d7af7133/lib/curl_trc.h#L63" xlink:show="new" xlink:title="" xlink:type="simple"><polygon fill="#181818" points="899.8101,435.7891,909.8101,439.7891,899.8101,443.7891,903.8101,439.7891" style="stroke:#181818;stroke-width:1;"/><line style="stroke:#181818;stroke-width:1;" x1="374.8022" x2="905.8101" y1="439.7891" y2="439.7891"/><text fill="#000000" font-family="sans-serif" font-size="13" lengthAdjust="spacing" textLength="282.2612" x="381.8022" y="434.7231">Curl_failf(struct Curl_easy *,const char *,...)</text></a><line style="stroke:#181818;stroke-width:1;stroke-dasharray:2.0,2.0;" x1="374.8022" x2="416.8022" y1="483.7891" y2="483.7891"/><line style="stroke:#181818;stroke-width:1;stroke-dasharray:2.0,2.0;" x1="416.8022" x2="416.8022" y1="483.7891" y2="496.7891"/><line style="stroke:#181818;stroke-width:1;stroke-dasharray:2.0,2.0;" x1="375.8022" x2="416.8022" y1="496.7891" y2="496.7891"/><polygon fill="#181818" points="385.8022,492.7891,375.8022,496.7891,385.8022,500.7891,381.8022,496.7891" style="stroke:#181818;stroke-width:1;"/><a href="https://github.com/curl/curl/blob/34cf9d54a46598c44938aa7598820484d7af7133/lib/easy.c#L1226" target="_top" title="" xlink:actuate="onRequest" xlink:href="https://github.com/curl/curl/blob/34cf9d54a46598c44938aa7598820484d7af7133/lib/easy.c#L1226" xlink:show="new" xlink:title="" xlink:type="simple"><polygon fill="#181818" points="1012.4995,528.9219,1022.4995,532.9219,1012.4995,536.9219,1016.4995,532.9219" style="stroke:#181818;stroke-width:1;"/><line style="stroke:#181818;stroke-width:1;" x1="374.8022" x2="1018.4995" y1="532.9219" y2="532.9219"/><text fill="#000000" font-family="sans-serif" font-size="13" lengthAdjust="spacing" textLength="400.334" x="381.8022" y="527.856">Curl_getconnectinfo(struct Curl_easy *,struct connectdata **)</text></a><path d="M847,545.9219 L847,615.9219 L1210,615.9219 L1210,555.9219 L1200,545.9219 L847,545.9219 " fill="#FEFFDD" style="stroke:#181818;stroke-width:0.5;"/><path d="M1200,545.9219 L1200,555.9219 L1210,555.9219 L1200,545.9219 " fill="#FEFFDD" style="stroke:#181818;stroke-width:0.5;"/><text fill="#000000" font-family="sans-serif" font-size="13" lengthAdjust="spacing" textLength="334.293" x="853" y="562.9888">this works for an easy handle: - that has been used</text><text fill="#000000" font-family="sans-serif" font-size="13" lengthAdjust="spacing" textLength="311.3145" x="853" y="578.1216">for curl_easy_perform() - that is associated with</text><text fill="#000000" font-family="sans-serif" font-size="13" lengthAdjust="spacing" textLength="342.5576" x="853" y="593.2544">a multi handle, and whose connection was detached</text><text fill="#000000" font-family="sans-serif" font-size="13" lengthAdjust="spacing" textLength="204.7246" x="853" y="608.3872">with CURLOPT_CONNECT_ONLY</text><path d="M299.6514,628.4531 L364.0942,628.4531 L364.0942,635.5859 L354.0942,645.5859 L299.6514,645.5859 L299.6514,628.4531 " fill="#EEEEEE" style="stroke:#000000;stroke-width:1.5;"/><rect fill="transparent" height="135.3984" style="stroke:#000000;stroke-width:1.5;" width="1154.0439" x="299.6514" y="628.4531"/><text fill="#000000" font-family="sans-serif" font-size="13" font-weight="bold" lengthAdjust="spacing" textLength="19.4429" x="314.6514" y="641.52">alt</text><text fill="#000000" font-family="sans-serif" font-size="11" font-weight="bold" lengthAdjust="spacing" textLength="211.1753" x="379.0942" y="640.6636">[data-&gt;state.lastconnect_id != -1]</text><a href="https://github.com/curl/curl/blob/34cf9d54a46598c44938aa7598820484d7af7133/lib/connect.c#L331" target="_top" title="" xlink:actuate="onRequest" xlink:href="https://github.com/curl/curl/blob/34cf9d54a46598c44938aa7598820484d7af7133/lib/connect.c#L331" xlink:show="new" xlink:title="" xlink:type="simple"><polygon fill="#181818" points="1364.6079,662.7188,1374.6079,666.7188,1364.6079,670.7188,1368.6079,666.7188" style="stroke:#181818;stroke-width:1;"/><line style="stroke:#181818;stroke-width:1;" x1="1034.4995" x2="1370.6079" y1="666.7188" y2="666.7188"/><text fill="#000000" font-family="sans-serif" font-size="13" lengthAdjust="spacing" textLength="323.1084" x="1041.4995" y="661.6528">Curl_cpool_get_conn(struct Curl_easy *,curl_off_t)</text></a><path d="M309.6514,711.7188 L374.0942,711.7188 L374.0942,718.8516 L364.0942,728.8516 L309.6514,728.8516 L309.6514,711.7188 " fill="#EEEEEE" style="stroke:#000000;stroke-width:1.5;"/><rect fill="transparent" height="31.1328" style="stroke:#000000;stroke-width:1.5;" width="782.1055" x="309.6514" y="711.7188"/><text fill="#000000" font-family="sans-serif" font-size="13" font-weight="bold" lengthAdjust="spacing" textLength="19.4429" x="324.6514" y="724.7856">alt</text><text fill="#000000" font-family="sans-serif" font-size="11" font-weight="bold" lengthAdjust="spacing" textLength="44.811" x="389.0942" y="723.9292">[!conn]</text><polygon fill="#181818" points="385.8022,730.8516,375.8022,734.8516,385.8022,738.8516,381.8022,734.8516" style="stroke:#181818;stroke-width:1;"/><line style="stroke:#181818;stroke-width:1;stroke-dasharray:2.0,2.0;" x1="379.8022" x2="1023.4995" y1="734.8516" y2="734.8516"/><polygon fill="#181818" points="385.8022,751.8516,375.8022,755.8516,385.8022,759.8516,381.8022,755.8516" style="stroke:#181818;stroke-width:1;"/><line style="stroke:#181818;stroke-width:1;stroke-dasharray:2.0,2.0;" x1="379.8022" x2="1023.4995" y1="755.8516" y2="755.8516"/><polygon fill="#181818" points="385.8022,772.8516,375.8022,776.8516,385.8022,780.8516,381.8022,776.8516" style="stroke:#181818;stroke-width:1;"/><line style="stroke:#181818;stroke-width:1;stroke-dasharray:2.0,2.0;" x1="379.8022" x2="1028.4995" y1="776.8516" y2="776.8516"/><path d="M309.6514,791.8516 L374.0942,791.8516 L374.0942,798.9844 L364.0942,808.9844 L309.6514,808.9844 L309.6514,791.8516 " fill="#EEEEEE" style="stroke:#000000;stroke-width:1.5;"/><rect fill="transparent" height="103.2656" style="stroke:#000000;stroke-width:1.5;" width="667.5908" x="309.6514" y="791.8516"/><text fill="#000000" font-family="sans-serif" font-size="13" font-weight="bold" lengthAdjust="spacing" textLength="19.4429" x="324.6514" y="804.9185">alt</text><text fill="#000000" font-family="sans-serif" font-size="11" font-weight="bold" lengthAdjust="spacing" textLength="173.7549" x="389.0942" y="804.062">[sfd == CURL_SOCKET_BAD]</text><a href="https://github.com/curl/curl/blob/34cf9d54a46598c44938aa7598820484d7af7133/lib/curl_trc.h#L63" target="_top" title="" xlink:actuate="onRequest" xlink:href="https://github.com/curl/curl/blob/34cf9d54a46598c44938aa7598820484d7af7133/lib/curl_trc.h#L63" xlink:show="new" xlink:title="" xlink:type="simple"><polygon fill="#181818" points="899.8101,826.1172,909.8101,830.1172,899.8101,834.1172,903.8101,830.1172" style="stroke:#181818;stroke-width:1;"/><line style="stroke:#181818;stroke-width:1;" x1="374.8022" x2="905.8101" y1="830.1172" y2="830.1172"/><text fill="#000000" font-family="sans-serif" font-size="13" lengthAdjust="spacing" textLength="282.2612" x="381.8022" y="825.0513">Curl_failf(struct Curl_easy *,const char *,...)</text></a><line style="stroke:#181818;stroke-width:1;stroke-dasharray:2.0,2.0;" x1="374.8022" x2="416.8022" y1="874.1172" y2="874.1172"/><line style="stroke:#181818;stroke-width:1;stroke-dasharray:2.0,2.0;" x1="416.8022" x2="416.8022" y1="874.1172" y2="887.1172"/><line style="stroke:#181818;stroke-width:1;stroke-dasharray:2.0,2.0;" x1="375.8022" x2="416.8022" y1="887.1172" y2="887.1172"/><polygon fill="#181818" points="385.8022,883.1172,375.8022,887.1172,385.8022,891.1172,381.8022,887.1172" style="stroke:#181818;stroke-width:1;"/><line style="stroke:#181818;stroke-width:1;stroke-dasharray:2.0,2.0;" x1="374.8022" x2="416.8022" y1="913.1172" y2="913.1172"/><line style="stroke:#181818;stroke-width:1;stroke-dasharray:2.0,2.0;" x1="416.8022" x2="416.8022" y1="913.1172" y2="926.1172"/><line style="stroke:#181818;stroke-width:1;stroke-dasharray:2.0,2.0;" x1="369.8022" x2="416.8022" y1="926.1172" y2="926.1172"/><polygon fill="#181818" points="379.8022,922.1172,369.8022,926.1172,379.8022,930.1172,375.8022,926.1172" style="stroke:#181818;stroke-width:1;"/><path d="M309.6514,936.1172 L374.0942,936.1172 L374.0942,943.25 L364.0942,953.25 L309.6514,953.25 L309.6514,936.1172 " fill="#EEEEEE" style="stroke:#000000;stroke-width:1.5;"/><rect fill="transparent" height="44.1328" style="stroke:#000000;stroke-width:1.5;" width="130.79" x="309.6514" y="936.1172"/><text fill="#000000" font-family="sans-serif" font-size="13" font-weight="bold" lengthAdjust="spacing" textLength="19.4429" x="324.6514" y="949.1841">alt</text><text fill="#000000" font-family="sans-serif" font-size="11" font-weight="bold" lengthAdjust="spacing" textLength="46.3472" x="389.0942" y="948.3276">[result]</text><line style="stroke:#181818;stroke-width:1;stroke-dasharray:2.0,2.0;" x1="369.8022" x2="411.8022" y1="959.25" y2="959.25"/><line style="stroke:#181818;stroke-width:1;stroke-dasharray:2.0,2.0;" x1="411.8022" x2="411.8022" y1="959.25" y2="972.25"/><line style="stroke:#181818;stroke-width:1;stroke-dasharray:2.0,2.0;" x1="370.8022" x2="411.8022" y1="972.25" y2="972.25"/><polygon fill="#181818" points="380.8022,968.25,370.8022,972.25,380.8022,976.25,376.8022,972.25" style="stroke:#181818;stroke-width:1;"/><path d="M168,994.25 L232.4429,994.25 L232.4429,1001.3828 L222.4429,1011.3828 L168,1011.3828 L168,994.25 " fill="#EEEEEE" style="stroke:#000000;stroke-width:1.5;"/><rect fill="transparent" height="126.5313" style="stroke:#000000;stroke-width:1.5;" width="698.3779" x="168" y="994.25"/><text fill="#000000" font-family="sans-serif" font-size="13" font-weight="bold" lengthAdjust="spacing" textLength="19.4429" x="183" y="1007.3169">alt</text><text fill="#000000" font-family="sans-serif" font-size="11" font-weight="bold" lengthAdjust="spacing" textLength="86.5713" x="247.4429" y="1006.4604">[!data-&gt;conn]</text><path d="M178,1016.3828 L178,1056.3828 L540,1056.3828 L540,1026.3828 L530,1016.3828 L178,1016.3828 " fill="#FEFFDD" style="stroke:#181818;stroke-width:0.5;"/><path d="M530,1016.3828 L530,1026.3828 L540,1026.3828 L530,1016.3828 " fill="#FEFFDD" style="stroke:#181818;stroke-width:0.5;"/><text fill="#000000" font-family="sans-serif" font-size="13" lengthAdjust="spacing" textLength="341.4404" x="184" y="1033.4497">on first invoke, the transfer has been detached from</text><text fill="#000000" font-family="sans-serif" font-size="13" lengthAdjust="spacing" textLength="281.8804" x="184" y="1048.5825">the connection and needs to be reattached</text><a href="https://github.com/curl/curl/blob/34cf9d54a46598c44938aa7598820484d7af7133/lib/easy.c#L1309" target="_top" title="" xlink:actuate="onRequest" xlink:href="https://github.com/curl/curl/blob/34cf9d54a46598c44938aa7598820484d7af7133/lib/easy.c#L1309" xlink:show="new" xlink:title="" xlink:type="simple"><polygon fill="#181818" points="792.7261,1078.7813,802.7261,1082.7813,792.7261,1086.7813,796.7261,1082.7813" style="stroke:#181818;stroke-width:1;"/><line style="stroke:#181818;stroke-width:1;" x1="369.8022" x2="798.7261" y1="1082.7813" y2="1082.7813"/><text fill="#000000" font-family="sans-serif" font-size="13" lengthAdjust="spacing" textLength="415.9238" x="376.8022" y="1077.7153">Curl_attach_connection(struct Curl_easy *,struct connectdata *)</text></a><a href="https://github.com/curl/curl/blob/34cf9d54a46598c44938aa7598820484d7af7133/lib/easy.c#L1311" target="_top" title="" xlink:actuate="onRequest" xlink:href="https://github.com/curl/curl/blob/34cf9d54a46598c44938aa7598820484d7af7133/lib/easy.c#L1311" xlink:show="new" xlink:title="" xlink:type="simple"><polygon fill="#181818" points="1486.2217,1144.9141,1496.2217,1148.9141,1486.2217,1152.9141,1490.2217,1148.9141" style="stroke:#181818;stroke-width:1;"/><line style="stroke:#181818;stroke-width:1;" x1="369.8022" x2="1492.2217" y1="1148.9141" y2="1148.9141"/><text fill="#000000" font-family="sans-serif" font-size="13" lengthAdjust="spacing" textLength="371.7061" x="376.8022" y="1143.8481">sigpipe_ignore(struct Curl_easy *,struct sigpipe_ignore *)</text></a><a href="https://github.com/curl/curl/blob/34cf9d54a46598c44938aa7598820484d7af7133/lib/easy.c#L1312" target="_top" title="" xlink:actuate="onRequest" xlink:href="https://github.com/curl/curl/blob/34cf9d54a46598c44938aa7598820484d7af7133/lib/easy.c#L1312" xlink:show="new" xlink:title="" xlink:type="simple"><polygon fill="#181818" points="1593.8799,1204.0469,1603.8799,1208.0469,1593.8799,1212.0469,1597.8799,1208.0469" style="stroke:#181818;stroke-width:1;"/><line style="stroke:#181818;stroke-width:1;" x1="369.8022" x2="1599.8799" y1="1208.0469" y2="1208.0469"/><text fill="#000000" font-family="sans-serif" font-size="13" lengthAdjust="spacing" textLength="462.1982" x="376.8022" y="1202.981">Curl_conn_send(struct Curl_easy *,int,const void *,size_t,_Bool,size_t *)</text></a><a href="https://github.com/curl/curl/blob/34cf9d54a46598c44938aa7598820484d7af7133/lib/easy.c#L1313" target="_top" title="" xlink:actuate="onRequest" xlink:href="https://github.com/curl/curl/blob/34cf9d54a46598c44938aa7598820484d7af7133/lib/easy.c#L1313" xlink:show="new" xlink:title="" xlink:type="simple"><polygon fill="#181818" points="1486.2217,1263.1797,1496.2217,1267.1797,1486.2217,1271.1797,1490.2217,1267.1797" style="stroke:#181818;stroke-width:1;"/><line style="stroke:#181818;stroke-width:1;" x1="369.8022" x2="1492.2217" y1="1267.1797" y2="1267.1797"/><text fill="#000000" font-family="sans-serif" font-size="13" lengthAdjust="spacing" textLength="257.0166" x="376.8022" y="1262.1138">sigpipe_restore(struct sigpipe_ignore *)</text></a><path d="M309.6514,1312.1797 L374.0942,1312.1797 L374.0942,1319.3125 L364.0942,1329.3125 L309.6514,1329.3125 L309.6514,1312.1797 " fill="#EEEEEE" style="stroke:#000000;stroke-width:1.5;"/><rect fill="transparent" height="44.1328" style="stroke:#000000;stroke-width:1.5;" width="300.6724" x="309.6514" y="1312.1797"/><text fill="#000000" font-family="sans-serif" font-size="13" font-weight="bold" lengthAdjust="spacing" textLength="19.4429" x="324.6514" y="1325.2466">alt</text><text fill="#000000" font-family="sans-serif" font-size="11" font-weight="bold" lengthAdjust="spacing" textLength="216.2295" x="389.0942" y="1324.3901">[result &amp;&amp; result != CURLE_AGAIN]</text><line style="stroke:#181818;stroke-width:1;stroke-dasharray:2.0,2.0;" x1="369.8022" x2="411.8022" y1="1335.3125" y2="1335.3125"/><line style="stroke:#181818;stroke-width:1;stroke-dasharray:2.0,2.0;" x1="411.8022" x2="411.8022" y1="1335.3125" y2="1348.3125"/><line style="stroke:#181818;stroke-width:1;stroke-dasharray:2.0,2.0;" x1="370.8022" x2="411.8022" y1="1348.3125" y2="1348.3125"/><polygon fill="#181818" points="380.8022,1344.3125,370.8022,1348.3125,380.8022,1352.3125,376.8022,1348.3125" style="stroke:#181818;stroke-width:1;"/><line style="stroke:#181818;stroke-width:1;stroke-dasharray:2.0,2.0;" x1="369.8022" x2="411.8022" y1="1374.3125" y2="1374.3125"/><line style="stroke:#181818;stroke-width:1;stroke-dasharray:2.0,2.0;" x1="411.8022" x2="411.8022" y1="1374.3125" y2="1387.3125"/><line style="stroke:#181818;stroke-width:1;stroke-dasharray:2.0,2.0;" x1="364.8022" x2="411.8022" y1="1387.3125" y2="1387.3125"/><polygon fill="#181818" points="374.8022,1383.3125,364.8022,1387.3125,374.8022,1391.3125,370.8022,1387.3125" style="stroke:#181818;stroke-width:1;"/><polygon fill="#181818" points="11,1392.3125,1,1396.3125,11,1400.3125,7,1396.3125" style="stroke:#181818;stroke-width:1;"/><line style="stroke:#181818;stroke-width:1;stroke-dasharray:2.0,2.0;" x1="5" x2="358.8022" y1="1396.3125" y2="1396.3125"/><!--SRC=[xLXjRzis4FxkNy6qG9COiIoAUWsM0gaR5CEyPDZI0KCG2BH4sKHbqXFf1Dsm_xwZBCUAGyTP6XVvi0-szNB7upttt4FIckkIeVriNfKfe-fhgfZ8zv5YVywPo1ZAEHrNTDgPqKhpZC-eqEXDoKTzO-naRn1LQ92wBYPX70Qnws7FysBu13ZiNFNURto9Zj7ze0U3pxyEKVSeaq9fT2Dv3ZUA_yLItVoWxc67PfhVKCqs1wMbHWCpCbSf5sb6ot94ioy7ETNqy64UqtcfEI-SoIgLm7Vz60SmAl58vCKGfBCnZMMA5YTqTJNHUgQE-_qnrvFvoCdaj6-oNdoDIZdg4pyhaZpmgHy6IPpvVa9YIYEuZZqOqSyZMaIOaFuAzBT3JBpaxt-khm74RlUgsxNbgtGrpneeZ1-Wr-rUTxjh4DgIpTbscwiVUhtDHO1wReVCzcw7a16lWQo6n53EKCA2qpTJyBLbxYuphviDiXCCSf32bdlpg34o2075djftUyR-aVGVoR-cZ90GGTwmQhEP5ELN11oNjqXFc698IpHYoD2UvKWADA4YBvb2ju0YCffoySjbEhWuFpyRNAONvyC_J2Ha8gsct7klc7QQd5CJug5Gr6gbgwob5AuR9x4N9b4InIHCC9GWtbfyczFB5tyrsxV3aBI9Nr1U5fjPdqre1JUEuwmLtPhicbByHq2sqU5X3HOLQfSWY1BV9PxdHcxi4XBWc6mlWSLfX_tdUM6x06Ecboqe2ldS7hGcVhz_h2Pwmg4tPFL5eK9MY8fQ59gkEKOzw2gguLP1Lp61vehb7MEuMgndh887quF3fJ4CI9MI6OUvvNNVTIYgrzLcs2C80oyc4jfrfJxe5eBaJDDi0Z6UsAvDjse8vPHKBP5CGQhtJb0FspcJcHXjrlWaYiF49Q4R-DWd2GczpaPcB5bZSTf1upOK1-8GWjkyoMPIrkof5TpQmUPQ5aMgrybYotUzTsqsjKAQS8-WiwsBlxVdUbwsBZ1vgI979oSrvzBVBWO_dLsc7qu__g_VBwVVp_DSttrkscnKJ876VCFqMij_JV4dxJvGmIk0cOiR-GM43VOWI5TKg0BSxbHpgMgegEIqOsnQicUqK32MgsRhKZ6g6n6yaxhNTjnmapO55_DznaRoy8KE7zRDWUBZ6P_TataSWOh5Vk97CKvYE05WlBs_BKwxX1OlHRwPVyh7GbRi4KZl6pv0rPhrUgFRR1ukdGKlDQjK6z8eyadW4-pvn8j87FfHi1rIYzDE8RrtqZCCNFp3O86K2sqzxgKVOB7TTEYpWh2EyBE0-jxS8slS0qtLBVBjYcah-KRltYslzXPhyLbw-kdqn_DNkUmy_gV7KqRex7zYWbLtEsMKbLICU_DfUOHWvL5cWN2TqC6T_U7mzv_lddqUpOMUBwpl7kB4mGv61tXUlyM7_m80]--></g></svg>