<svg xmlns="http://www.w3.org/2000/svg" xmlns:xlink="http://www.w3.org/1999/xlink" contentStyleType="text/css" data-diagram-type="SEQUENCE" height="573px" preserveAspectRatio="none" style="width:680px;height:573px;background:#FFFFFF;" version="1.1" viewBox="0 0 680 573" width="680px" zoomAndPan="magnify"><title>'curl_easy_init' sequence diagram</title><defs/><g><text fill="#000000" font-family="sans-serif" font-size="14" font-weight="bold" lengthAdjust="spacing" textLength="265.248" x="206.47" y="27.9951">'curl_easy_init' sequence diagram</text><g><title>lib/easy.c</title><rect fill="#FFFFFF" height="415.3281" style="stroke:#181818;stroke-width:1;" width="10" x="158.4775" y="104.7266"/></g><g><title>lib/easy.c</title><rect fill="#FFFFFF" height="247.7969" style="stroke:#181818;stroke-width:1;" width="10" x="163.4775" y="165.9922"/></g><g><title>lib/curl_trc.h</title><rect fill="#FFFFFF" height="14" style="stroke:#181818;stroke-width:1;" width="10" x="336.4551" y="224.2578"/></g><g><title>lib/vtls/vtls.h</title><rect fill="#FFFFFF" height="14" style="stroke:#181818;stroke-width:1;" width="10" x="448.5566" y="298.5234"/></g><g><title>lib/asyn.h</title><rect fill="#FFFFFF" height="14" style="stroke:#181818;stroke-width:1;" width="10" x="551.0947" y="372.7891"/></g><g><title>lib/url.h</title><rect fill="#FFFFFF" height="14" style="stroke:#181818;stroke-width:1;" width="10" x="635.5757" y="492.0547"/></g><rect fill="transparent" height="309.0625" style="stroke:#000000;stroke-width:1.5;" width="513.6367" x="103.3267" y="119.7266"/><rect fill="transparent" height="60.2656" style="stroke:#000000;stroke-width:1.5;" width="288.5605" x="113.3267" y="185.9922"/><rect fill="transparent" height="60.2656" style="stroke:#000000;stroke-width:1.5;" width="401.8994" x="113.3267" y="260.2578"/><rect fill="transparent" height="60.2656" style="stroke:#000000;stroke-width:1.5;" width="493.6367" x="113.3267" y="334.5234"/><g><title>lib/easy.c</title><rect fill="transparent" height="464.4609" width="8" x="159.4775" y="73.5938"/><line style="stroke:#181818;stroke-width:0.5;stroke-dasharray:5.0,5.0;" x1="163.3267" x2="163.3267" y1="73.5938" y2="538.0547"/></g><g><title>lib/curl_trc.h</title><rect fill="transparent" height="464.4609" width="8" x="337.4551" y="73.5938"/><line style="stroke:#181818;stroke-width:0.5;stroke-dasharray:5.0,5.0;" x1="341.0229" x2="341.0229" y1="73.5938" y2="538.0547"/></g><g><title>lib/vtls/vtls.h</title><rect fill="transparent" height="464.4609" width="8" x="449.5566" y="73.5938"/><line style="stroke:#181818;stroke-width:0.5;stroke-dasharray:5.0,5.0;" x1="452.8872" x2="452.8872" y1="73.5938" y2="538.0547"/></g><g><title>lib/asyn.h</title><rect fill="transparent" height="464.4609" width="8" x="552.0947" y="73.5938"/><line style="stroke:#181818;stroke-width:0.5;stroke-dasharray:5.0,5.0;" x1="555.2261" x2="555.2261" y1="73.5938" y2="538.0547"/></g><g><title>lib/url.h</title><rect fill="transparent" height="464.4609" width="8" x="636.5757" y="73.5938"/><line style="stroke:#181818;stroke-width:0.5;stroke-dasharray:5.0,5.0;" x1="639.9634" x2="639.9634" y1="73.5938" y2="538.0547"/></g><rect fill="#E2E2F0" height="30.2969" rx="2.5" ry="2.5" style="stroke:#181818;stroke-width:0.5;" width="80.3018" x="123.3267" y="42.2969"/><text fill="#000000" font-family="sans-serif" font-size="14" lengthAdjust="spacing" textLength="66.3018" x="130.3267" y="62.292">lib/easy.c</text><rect fill="#E2E2F0" height="30.2969" rx="2.5" ry="2.5" style="stroke:#181818;stroke-width:0.5;" width="80.3018" x="123.3267" y="537.0547"/><text fill="#000000" font-family="sans-serif" font-size="14" lengthAdjust="spacing" textLength="66.3018" x="130.3267" y="557.0498">lib/easy.c</text><rect fill="#E2E2F0" height="30.2969" rx="2.5" ry="2.5" style="stroke:#181818;stroke-width:0.5;" width="100.8643" x="291.0229" y="42.2969"/><text fill="#000000" font-family="sans-serif" font-size="14" lengthAdjust="spacing" textLength="86.8643" x="298.0229" y="62.292">lib/curl_trc.h</text><rect fill="#E2E2F0" height="30.2969" rx="2.5" ry="2.5" style="stroke:#181818;stroke-width:0.5;" width="100.8643" x="291.0229" y="537.0547"/><text fill="#000000" font-family="sans-serif" font-size="14" lengthAdjust="spacing" textLength="86.8643" x="298.0229" y="557.0498">lib/curl_trc.h</text><rect fill="#E2E2F0" height="30.2969" rx="2.5" ry="2.5" style="stroke:#181818;stroke-width:0.5;" width="103.3389" x="401.8872" y="42.2969"/><text fill="#000000" font-family="sans-serif" font-size="14" lengthAdjust="spacing" textLength="89.3389" x="408.8872" y="62.292">lib/vtls/vtls.h</text><rect fill="#E2E2F0" height="30.2969" rx="2.5" ry="2.5" style="stroke:#181818;stroke-width:0.5;" width="103.3389" x="401.8872" y="537.0547"/><text fill="#000000" font-family="sans-serif" font-size="14" lengthAdjust="spacing" textLength="89.3389" x="408.8872" y="557.0498">lib/vtls/vtls.h</text><rect fill="#E2E2F0" height="30.2969" rx="2.5" ry="2.5" style="stroke:#181818;stroke-width:0.5;" width="81.7373" x="515.2261" y="42.2969"/><text fill="#000000" font-family="sans-serif" font-size="14" lengthAdjust="spacing" textLength="67.7373" x="522.2261" y="62.292">lib/asyn.h</text><rect fill="#E2E2F0" height="30.2969" rx="2.5" ry="2.5" style="stroke:#181818;stroke-width:0.5;" width="81.7373" x="515.2261" y="537.0547"/><text fill="#000000" font-family="sans-serif" font-size="14" lengthAdjust="spacing" textLength="67.7373" x="522.2261" y="557.0498">lib/asyn.h</text><rect fill="#E2E2F0" height="30.2969" rx="2.5" ry="2.5" style="stroke:#181818;stroke-width:0.5;" width="67.2246" x="606.9634" y="42.2969"/><text fill="#000000" font-family="sans-serif" font-size="14" lengthAdjust="spacing" textLength="53.2246" x="613.9634" y="62.292">lib/url.h</text><rect fill="#E2E2F0" height="30.2969" rx="2.5" ry="2.5" style="stroke:#181818;stroke-width:0.5;" width="67.2246" x="606.9634" y="537.0547"/><text fill="#000000" font-family="sans-serif" font-size="14" lengthAdjust="spacing" textLength="53.2246" x="613.9634" y="557.0498">lib/url.h</text><g><title>lib/easy.c</title><rect fill="#FFFFFF" height="415.3281" style="stroke:#181818;stroke-width:1;" width="10" x="158.4775" y="104.7266"/></g><g><title>lib/easy.c</title><rect fill="#FFFFFF" height="247.7969" style="stroke:#181818;stroke-width:1;" width="10" x="163.4775" y="165.9922"/></g><g><title>lib/curl_trc.h</title><rect fill="#FFFFFF" height="14" style="stroke:#181818;stroke-width:1;" width="10" x="336.4551" y="224.2578"/></g><g><title>lib/vtls/vtls.h</title><rect fill="#FFFFFF" height="14" style="stroke:#181818;stroke-width:1;" width="10" x="448.5566" y="298.5234"/></g><g><title>lib/asyn.h</title><rect fill="#FFFFFF" height="14" style="stroke:#181818;stroke-width:1;" width="10" x="551.0947" y="372.7891"/></g><g><title>lib/url.h</title><rect fill="#FFFFFF" height="14" style="stroke:#181818;stroke-width:1;" width="10" x="635.5757" y="492.0547"/></g><polygon fill="#181818" points="146.4775,100.7266,156.4775,104.7266,146.4775,108.7266,150.4775,104.7266" style="stroke:#181818;stroke-width:1;"/><line style="stroke:#181818;stroke-width:1;" x1="0" x2="152.4775" y1="104.7266" y2="104.7266"/><text fill="#000000" font-family="sans-serif" font-size="13" lengthAdjust="spacing" textLength="98.4775" x="7" y="99.6606">curl_easy_init()</text><path d="M103.3267,119.7266 L167.7695,119.7266 L167.7695,126.8594 L157.7695,136.8594 L103.3267,136.8594 L103.3267,119.7266 " fill="#EEEEEE" style="stroke:#000000;stroke-width:1.5;"/><rect fill="transparent" height="309.0625" style="stroke:#000000;stroke-width:1.5;" width="513.6367" x="103.3267" y="119.7266"/><text fill="#000000" font-family="sans-serif" font-size="13" font-weight="bold" lengthAdjust="spacing" textLength="19.4429" x="118.3267" y="132.7935">alt</text><text fill="#000000" font-family="sans-serif" font-size="11" font-weight="bold" lengthAdjust="spacing" textLength="76.1729" x="182.7695" y="131.937">[!initialized]</text><a href="https://github.com/curl/curl/blob/34cf9d54a46598c44938aa7598820484d7af7133/lib/easy.c#L360" target="_top" title="" xlink:actuate="onRequest" xlink:href="https://github.com/curl/curl/blob/34cf9d54a46598c44938aa7598820484d7af7133/lib/easy.c#L360" xlink:show="new" xlink:title="" xlink:type="simple"><line style="stroke:#181818;stroke-width:1;" x1="168.4775" x2="215.4775" y1="152.9922" y2="152.9922"/><line style="stroke:#181818;stroke-width:1;" x1="215.4775" x2="215.4775" y1="152.9922" y2="165.9922"/><line style="stroke:#181818;stroke-width:1;" x1="174.4775" x2="215.4775" y1="165.9922" y2="165.9922"/><polygon fill="#181818" points="184.4775,161.9922,174.4775,165.9922,184.4775,169.9922,180.4775,165.9922" style="stroke:#181818;stroke-width:1;"/><text fill="#000000" font-family="sans-serif" font-size="13" lengthAdjust="spacing" textLength="143.9775" x="180.4775" y="147.9263">global_init(long,_Bool)</text></a><path d="M113.3267,185.9922 L177.7695,185.9922 L177.7695,193.125 L167.7695,203.125 L113.3267,203.125 L113.3267,185.9922 " fill="#EEEEEE" style="stroke:#000000;stroke-width:1.5;"/><rect fill="transparent" height="60.2656" style="stroke:#000000;stroke-width:1.5;" width="288.5605" x="113.3267" y="185.9922"/><text fill="#000000" font-family="sans-serif" font-size="13" font-weight="bold" lengthAdjust="spacing" textLength="19.4429" x="128.3267" y="199.0591">alt</text><text fill="#000000" font-family="sans-serif" font-size="11" font-weight="bold" lengthAdjust="spacing" textLength="94.0425" x="192.7695" y="198.2026">[Curl_trc_init()]</text><a href="https://github.com/curl/curl/blob/34cf9d54a46598c44938aa7598820484d7af7133/lib/easy.c#L163" target="_top" title="" xlink:actuate="onRequest" xlink:href="https://github.com/curl/curl/blob/34cf9d54a46598c44938aa7598820484d7af7133/lib/easy.c#L163" xlink:show="new" xlink:title="" xlink:type="simple"><polygon fill="#181818" points="324.4551,220.2578,334.4551,224.2578,324.4551,228.2578,328.4551,224.2578" style="stroke:#181818;stroke-width:1;"/><line style="stroke:#181818;stroke-width:1;" x1="173.4775" x2="330.4551" y1="224.2578" y2="224.2578"/><text fill="#000000" font-family="sans-serif" font-size="13" font-weight="bold" lengthAdjust="spacing" textLength="5.9414" x="180.4775" y="219.1919">[</text><text fill="#000000" font-family="sans-serif" font-size="13" lengthAdjust="spacing" textLength="87.5659" x="186.4189" y="219.1919">Curl_trc_init()</text><text fill="#000000" font-family="sans-serif" font-size="13" font-weight="bold" lengthAdjust="spacing" textLength="5.9414" x="273.9849" y="219.1919">]</text></a><polygon fill="#181818" points="184.4775,234.2578,174.4775,238.2578,184.4775,242.2578,180.4775,238.2578" style="stroke:#181818;stroke-width:1;"/><line style="stroke:#181818;stroke-width:1;stroke-dasharray:2.0,2.0;" x1="178.4775" x2="340.4551" y1="238.2578" y2="238.2578"/><path d="M113.3267,260.2578 L177.7695,260.2578 L177.7695,267.3906 L167.7695,277.3906 L113.3267,277.3906 L113.3267,260.2578 " fill="#EEEEEE" style="stroke:#000000;stroke-width:1.5;"/><rect fill="transparent" height="60.2656" style="stroke:#000000;stroke-width:1.5;" width="401.8994" x="113.3267" y="260.2578"/><text fill="#000000" font-family="sans-serif" font-size="13" font-weight="bold" lengthAdjust="spacing" textLength="19.4429" x="128.3267" y="273.3247">alt</text><text fill="#000000" font-family="sans-serif" font-size="11" font-weight="bold" lengthAdjust="spacing" textLength="98.7207" x="192.7695" y="272.4683">[!Curl_ssl_init()]</text><a href="https://github.com/curl/curl/blob/34cf9d54a46598c44938aa7598820484d7af7133/lib/easy.c#L168" target="_top" title="" xlink:actuate="onRequest" xlink:href="https://github.com/curl/curl/blob/34cf9d54a46598c44938aa7598820484d7af7133/lib/easy.c#L168" xlink:show="new" xlink:title="" xlink:type="simple"><polygon fill="#181818" points="436.5566,294.5234,446.5566,298.5234,436.5566,302.5234,440.5566,298.5234" style="stroke:#181818;stroke-width:1;"/><line style="stroke:#181818;stroke-width:1;" x1="173.4775" x2="442.5566" y1="298.5234" y2="298.5234"/><text fill="#000000" font-family="sans-serif" font-size="13" font-weight="bold" lengthAdjust="spacing" textLength="5.9414" x="180.4775" y="293.4575">[</text><text fill="#000000" font-family="sans-serif" font-size="13" lengthAdjust="spacing" textLength="87.1343" x="186.4189" y="293.4575">Curl_ssl_init()</text><text fill="#000000" font-family="sans-serif" font-size="13" font-weight="bold" lengthAdjust="spacing" textLength="5.9414" x="273.5532" y="293.4575">]</text></a><polygon fill="#181818" points="184.4775,308.5234,174.4775,312.5234,184.4775,316.5234,180.4775,312.5234" style="stroke:#181818;stroke-width:1;"/><line style="stroke:#181818;stroke-width:1;stroke-dasharray:2.0,2.0;" x1="178.4775" x2="452.5566" y1="312.5234" y2="312.5234"/><path d="M113.3267,334.5234 L177.7695,334.5234 L177.7695,341.6563 L167.7695,351.6563 L113.3267,351.6563 L113.3267,334.5234 " fill="#EEEEEE" style="stroke:#000000;stroke-width:1.5;"/><rect fill="transparent" height="60.2656" style="stroke:#000000;stroke-width:1.5;" width="493.6367" x="113.3267" y="334.5234"/><text fill="#000000" font-family="sans-serif" font-size="13" font-weight="bold" lengthAdjust="spacing" textLength="19.4429" x="128.3267" y="347.5903">alt</text><text fill="#000000" font-family="sans-serif" font-size="11" font-weight="bold" lengthAdjust="spacing" textLength="171.4238" x="192.7695" y="346.7339">[Curl_resolver_global_init()]</text><a href="https://github.com/curl/curl/blob/34cf9d54a46598c44938aa7598820484d7af7133/lib/easy.c#L188" target="_top" title="" xlink:actuate="onRequest" xlink:href="https://github.com/curl/curl/blob/34cf9d54a46598c44938aa7598820484d7af7133/lib/easy.c#L188" xlink:show="new" xlink:title="" xlink:type="simple"><polygon fill="#181818" points="539.0947,368.7891,549.0947,372.7891,539.0947,376.7891,543.0947,372.7891" style="stroke:#181818;stroke-width:1;"/><line style="stroke:#181818;stroke-width:1;" x1="173.4775" x2="545.0947" y1="372.7891" y2="372.7891"/><text fill="#000000" font-family="sans-serif" font-size="13" font-weight="bold" lengthAdjust="spacing" textLength="5.9414" x="180.4775" y="367.7231">[</text><text fill="#000000" font-family="sans-serif" font-size="13" lengthAdjust="spacing" textLength="168.8413" x="186.4189" y="367.7231">Curl_resolver_global_init()</text><text fill="#000000" font-family="sans-serif" font-size="13" font-weight="bold" lengthAdjust="spacing" textLength="5.9414" x="355.2603" y="367.7231">]</text></a><polygon fill="#181818" points="184.4775,382.7891,174.4775,386.7891,184.4775,390.7891,180.4775,386.7891" style="stroke:#181818;stroke-width:1;"/><line style="stroke:#181818;stroke-width:1;stroke-dasharray:2.0,2.0;" x1="178.4775" x2="555.0947" y1="386.7891" y2="386.7891"/><line style="stroke:#181818;stroke-width:1;stroke-dasharray:2.0,2.0;" x1="173.4775" x2="215.4775" y1="412.7891" y2="412.7891"/><line style="stroke:#181818;stroke-width:1;stroke-dasharray:2.0,2.0;" x1="215.4775" x2="215.4775" y1="412.7891" y2="425.7891"/><line style="stroke:#181818;stroke-width:1;stroke-dasharray:2.0,2.0;" x1="168.4775" x2="215.4775" y1="425.7891" y2="425.7891"/><polygon fill="#181818" points="178.4775,421.7891,168.4775,425.7891,178.4775,429.7891,174.4775,425.7891" style="stroke:#181818;stroke-width:1;"/><path d="M5,440.7891 L5,465.7891 L323,465.7891 L323,450.7891 L313,440.7891 L5,440.7891 " fill="#FEFFDD" style="stroke:#181818;stroke-width:0.5;"/><path d="M313,440.7891 L313,450.7891 L323,450.7891 L313,440.7891 " fill="#FEFFDD" style="stroke:#181818;stroke-width:0.5;"/><text fill="#000000" font-family="sans-serif" font-size="13" lengthAdjust="spacing" textLength="297.6099" x="11" y="457.856">We use curl_open() with undefined URL so far</text><a href="https://github.com/curl/curl/blob/34cf9d54a46598c44938aa7598820484d7af7133/lib/easy.c#L371" target="_top" title="" xlink:actuate="onRequest" xlink:href="https://github.com/curl/curl/blob/34cf9d54a46598c44938aa7598820484d7af7133/lib/easy.c#L371" xlink:show="new" xlink:title="" xlink:type="simple"><polygon fill="#181818" points="623.5757,488.0547,633.5757,492.0547,623.5757,496.0547,627.5757,492.0547" style="stroke:#181818;stroke-width:1;"/><line style="stroke:#181818;stroke-width:1;" x1="168.4775" x2="629.5757" y1="492.0547" y2="492.0547"/><text fill="#000000" font-family="sans-serif" font-size="13" lengthAdjust="spacing" textLength="197.5264" x="175.4775" y="486.9888">Curl_open(struct Curl_easy **)</text></a><polygon fill="#181818" points="179.4775,502.0547,169.4775,506.0547,179.4775,510.0547,175.4775,506.0547" style="stroke:#181818;stroke-width:1;"/><line style="stroke:#181818;stroke-width:1;stroke-dasharray:2.0,2.0;" x1="173.4775" x2="639.5757" y1="506.0547" y2="506.0547"/><polygon fill="#181818" points="11,516.0547,1,520.0547,11,524.0547,7,520.0547" style="stroke:#181818;stroke-width:1;"/><line style="stroke:#181818;stroke-width:1;stroke-dasharray:2.0,2.0;" x1="5" x2="162.4775" y1="520.0547" y2="520.0547"/><!--SRC=[jLNBZjem5DtdAzpf0eY69Cx3iKTL5sNH3TrKcdQ143AE0Kl6eR53rLRzzpg4OM1mXa4LYX95plNnFO-h664a1prMLtB6gVur4qgO7j3yHyqLuw0GT5dHjRUXbH5CRAWou4wAUTWK1-mEK0r6ioY22S8emr4CupZ6ziuWyYR3ZvqVmGCuFRG_y2WpOaiDxqQaqe1tJRMWKlpcXTS9_zhHaydAc8r-2CEbCAjw7h1o7JRTj8-vBETXah85ARAKfYWZcAKfIJ2bkNt7SPJYjCZf8eT94ZwByNwSeEZFt-dKSbjQ32fROh9Ko_lPfxAKRwKuQfGn5NiIvanzjYy8LWS7eWWJ72EIanmdY43R9BueZslJxUI1ADdBu_iJtt_1qlUdldygK2SdPz_3Lppt2duPcQkYJTYkCwrbf_vR8_NkSMI0PPUJ66UGM1aI0ZE4aylvT6owfG7up81dcWu3kZcv-hx602Voam6xnYgkIxdbrUnubXnUM6xgU0uod98yHbaE8RPNbCJayXmuDjtG1dnkWvkjQoQw-3avN3KJBkJ6acxrhZ7SLTEWdnbgvJZnCy8s9ZZ7EBMtXI74KwL5BQrStT3VEQWrRtyovOQh_W3yj3Q2MXLy8HGlmEFNCT0bMD2gwGCqc6y8odatD_oVv70VbD61XZPLpVOZqjJP30rU9iIXM6VproN4WJpvC1p-NmgytcUkU6LhYjOZ9gbQ3kkrl0VMOorA1Q801P7N6u-_VJciFSvhPUgs-h08IG032Fgmtds5Wty0]--></g></svg>