<svg xmlns="http://www.w3.org/2000/svg" xmlns:xlink="http://www.w3.org/1999/xlink" contentStyleType="text/css" data-diagram-type="SEQUENCE" height="1236px" preserveAspectRatio="none" style="width:1508px;height:1236px;background:#FFFFFF;" version="1.1" viewBox="0 0 1508 1236" width="1508px" zoomAndPan="magnify"><title>'curl_easy_recv' sequence diagram</title><defs/><g><text fill="#000000" font-family="sans-serif" font-size="14" font-weight="bold" lengthAdjust="spacing" textLength="272.8154" x="616.8611" y="27.9951">'curl_easy_recv' sequence diagram</text><g><title>lib/easy.c</title><rect fill="#FFFFFF" height="1078.1875" style="stroke:#181818;stroke-width:1;" width="10" x="312.3809" y="104.7266"/></g><g><title>lib/easy.c</title><rect fill="#FFFFFF" height="625.8594" style="stroke:#181818;stroke-width:1;" width="10" x="317.3809" y="246.125"/></g><g><title>lib/multiif.h</title><rect fill="#FFFFFF" height="30" style="stroke:#181818;stroke-width:1;" width="10" x="757.3047" y="157.9922"/></g><g><title>lib/multiif.h</title><rect fill="#FFFFFF" height="30" style="stroke:#181818;stroke-width:1;" width="10" x="757.3047" y="1027.6484"/></g><g><title>lib/curl_trc.h</title><rect fill="#FFFFFF" height="30" style="stroke:#181818;stroke-width:1;" width="10" x="864.3887" y="397.6563"/></g><g><title>lib/curl_trc.h</title><rect fill="#FFFFFF" height="30" style="stroke:#181818;stroke-width:1;" width="10" x="864.3887" y="787.9844"/></g><g><title>lib/connect.h</title><rect fill="#FFFFFF" height="243.9297" style="stroke:#181818;stroke-width:1;" width="10" x="977.0781" y="490.7891"/></g><g><title>lib/conncache.h</title><rect fill="#FFFFFF" height="30" style="stroke:#181818;stroke-width:1;" width="10" x="1329.1865" y="624.5859"/></g><g><title>lib/cfilters.h</title><rect fill="#FFFFFF" height="30" style="stroke:#181818;stroke-width:1;" width="10" x="1449.4058" y="1093.7813"/></g><rect fill="transparent" height="90.2656" style="stroke:#000000;stroke-width:1.5;" width="815.9565" x="3" y="119.7266"/><rect fill="transparent" height="44.1328" style="stroke:#000000;stroke-width:1.5;" width="130.1509" x="267.23" y="266.125"/><rect fill="transparent" height="103.2656" style="stroke:#000000;stroke-width:1.5;" width="662.5908" x="267.23" y="359.3906"/><rect fill="transparent" height="135.3984" style="stroke:#000000;stroke-width:1.5;" width="1149.0439" x="257.23" y="586.3203"/><rect fill="transparent" height="31.1328" style="stroke:#000000;stroke-width:1.5;" width="777.1055" x="267.23" y="669.5859"/><rect fill="transparent" height="103.2656" style="stroke:#000000;stroke-width:1.5;" width="662.5908" x="267.23" y="749.7188"/><rect fill="transparent" height="31.1328" style="stroke:#000000;stroke-width:1.5;" width="364.5317" x="3" y="893.9844"/><rect fill="transparent" height="126.5313" style="stroke:#000000;stroke-width:1.5;" width="692.9565" x="126" y="939.1172"/><rect fill="transparent" height="31.1328" style="stroke:#000000;stroke-width:1.5;" width="364.5317" x="3" y="1138.7813"/><g><title>lib/easy.c</title><rect fill="transparent" height="1127.3203" width="8" x="313.3809" y="73.5938"/><line style="stroke:#181818;stroke-width:0.5;stroke-dasharray:5.0,5.0;" x1="317.23" x2="317.23" y1="73.5938" y2="1200.9141"/></g><g><title>lib/multiif.h</title><rect fill="transparent" height="1127.3203" width="8" x="758.3047" y="73.5938"/><line style="stroke:#181818;stroke-width:0.5;stroke-dasharray:5.0,5.0;" x1="761.6528" x2="761.6528" y1="73.5938" y2="1200.9141"/></g><g><title>lib/curl_trc.h</title><rect fill="transparent" height="1127.3203" width="8" x="865.3887" y="73.5938"/><line style="stroke:#181818;stroke-width:0.5;stroke-dasharray:5.0,5.0;" x1="868.9565" x2="868.9565" y1="73.5938" y2="1200.9141"/></g><g><title>lib/connect.h</title><rect fill="transparent" height="1127.3203" width="8" x="978.0781" y="73.5938"/><line style="stroke:#181818;stroke-width:0.5;stroke-dasharray:5.0,5.0;" x1="981.8208" x2="981.8208" y1="73.5938" y2="1200.9141"/></g><g><title>lib/conncache.h</title><rect fill="transparent" height="1127.3203" width="8" x="1330.1865" y="73.5938"/><line style="stroke:#181818;stroke-width:0.5;stroke-dasharray:5.0,5.0;" x1="1334.0991" x2="1334.0991" y1="73.5938" y2="1200.9141"/></g><g><title>lib/cfilters.h</title><rect fill="transparent" height="1127.3203" width="8" x="1450.4058" y="73.5938"/><line style="stroke:#181818;stroke-width:0.5;stroke-dasharray:5.0,5.0;" x1="1454.2739" x2="1454.2739" y1="73.5938" y2="1200.9141"/></g><rect fill="#E2E2F0" height="30.2969" rx="2.5" ry="2.5" style="stroke:#181818;stroke-width:0.5;" width="80.3018" x="277.23" y="42.2969"/><text fill="#000000" font-family="sans-serif" font-size="14" lengthAdjust="spacing" textLength="66.3018" x="284.23" y="62.292">lib/easy.c</text><rect fill="#E2E2F0" height="30.2969" rx="2.5" ry="2.5" style="stroke:#181818;stroke-width:0.5;" width="80.3018" x="277.23" y="1199.9141"/><text fill="#000000" font-family="sans-serif" font-size="14" lengthAdjust="spacing" textLength="66.3018" x="284.23" y="1219.9092">lib/easy.c</text><rect fill="#E2E2F0" height="30.2969" rx="2.5" ry="2.5" style="stroke:#181818;stroke-width:0.5;" width="93.3037" x="715.6528" y="42.2969"/><text fill="#000000" font-family="sans-serif" font-size="14" lengthAdjust="spacing" textLength="79.3037" x="722.6528" y="62.292">lib/multiif.h</text><rect fill="#E2E2F0" height="30.2969" rx="2.5" ry="2.5" style="stroke:#181818;stroke-width:0.5;" width="93.3037" x="715.6528" y="1199.9141"/><text fill="#000000" font-family="sans-serif" font-size="14" lengthAdjust="spacing" textLength="79.3037" x="722.6528" y="1219.9092">lib/multiif.h</text><rect fill="#E2E2F0" height="30.2969" rx="2.5" ry="2.5" style="stroke:#181818;stroke-width:0.5;" width="100.8643" x="818.9565" y="42.2969"/><text fill="#000000" font-family="sans-serif" font-size="14" lengthAdjust="spacing" textLength="86.8643" x="825.9565" y="62.292">lib/curl_trc.h</text><rect fill="#E2E2F0" height="30.2969" rx="2.5" ry="2.5" style="stroke:#181818;stroke-width:0.5;" width="100.8643" x="818.9565" y="1199.9141"/><text fill="#000000" font-family="sans-serif" font-size="14" lengthAdjust="spacing" textLength="86.8643" x="825.9565" y="1219.9092">lib/curl_trc.h</text><rect fill="#E2E2F0" height="30.2969" rx="2.5" ry="2.5" style="stroke:#181818;stroke-width:0.5;" width="104.5146" x="929.8208" y="42.2969"/><text fill="#000000" font-family="sans-serif" font-size="14" lengthAdjust="spacing" textLength="90.5146" x="936.8208" y="62.292">lib/connect.h</text><rect fill="#E2E2F0" height="30.2969" rx="2.5" ry="2.5" style="stroke:#181818;stroke-width:0.5;" width="104.5146" x="929.8208" y="1199.9141"/><text fill="#000000" font-family="sans-serif" font-size="14" lengthAdjust="spacing" textLength="90.5146" x="936.8208" y="1219.9092">lib/connect.h</text><rect fill="#E2E2F0" height="30.2969" rx="2.5" ry="2.5" style="stroke:#181818;stroke-width:0.5;" width="124.1748" x="1272.0991" y="42.2969"/><text fill="#000000" font-family="sans-serif" font-size="14" lengthAdjust="spacing" textLength="110.1748" x="1279.0991" y="62.292">lib/conncache.h</text><rect fill="#E2E2F0" height="30.2969" rx="2.5" ry="2.5" style="stroke:#181818;stroke-width:0.5;" width="124.1748" x="1272.0991" y="1199.9141"/><text fill="#000000" font-family="sans-serif" font-size="14" lengthAdjust="spacing" textLength="110.1748" x="1279.0991" y="1219.9092">lib/conncache.h</text><rect fill="#E2E2F0" height="30.2969" rx="2.5" ry="2.5" style="stroke:#181818;stroke-width:0.5;" width="96.2637" x="1406.2739" y="42.2969"/><text fill="#000000" font-family="sans-serif" font-size="14" lengthAdjust="spacing" textLength="82.2637" x="1413.2739" y="62.292">lib/cfilters.h</text><rect fill="#E2E2F0" height="30.2969" rx="2.5" ry="2.5" style="stroke:#181818;stroke-width:0.5;" width="96.2637" x="1406.2739" y="1199.9141"/><text fill="#000000" font-family="sans-serif" font-size="14" lengthAdjust="spacing" textLength="82.2637" x="1413.2739" y="1219.9092">lib/cfilters.h</text><g><title>lib/easy.c</title><rect fill="#FFFFFF" height="1078.1875" style="stroke:#181818;stroke-width:1;" width="10" x="312.3809" y="104.7266"/></g><g><title>lib/easy.c</title><rect fill="#FFFFFF" height="625.8594" style="stroke:#181818;stroke-width:1;" width="10" x="317.3809" y="246.125"/></g><g><title>lib/multiif.h</title><rect fill="#FFFFFF" height="30" style="stroke:#181818;stroke-width:1;" width="10" x="757.3047" y="157.9922"/></g><g><title>lib/multiif.h</title><rect fill="#FFFFFF" height="30" style="stroke:#181818;stroke-width:1;" width="10" x="757.3047" y="1027.6484"/></g><g><title>lib/curl_trc.h</title><rect fill="#FFFFFF" height="30" style="stroke:#181818;stroke-width:1;" width="10" x="864.3887" y="397.6563"/></g><g><title>lib/curl_trc.h</title><rect fill="#FFFFFF" height="30" style="stroke:#181818;stroke-width:1;" width="10" x="864.3887" y="787.9844"/></g><g><title>lib/connect.h</title><rect fill="#FFFFFF" height="243.9297" style="stroke:#181818;stroke-width:1;" width="10" x="977.0781" y="490.7891"/></g><g><title>lib/conncache.h</title><rect fill="#FFFFFF" height="30" style="stroke:#181818;stroke-width:1;" width="10" x="1329.1865" y="624.5859"/></g><g><title>lib/cfilters.h</title><rect fill="#FFFFFF" height="30" style="stroke:#181818;stroke-width:1;" width="10" x="1449.4058" y="1093.7813"/></g><polygon fill="#181818" points="300.3809,100.7266,310.3809,104.7266,300.3809,108.7266,304.3809,104.7266" style="stroke:#181818;stroke-width:1;"/><line style="stroke:#181818;stroke-width:1;" x1="0" x2="306.3809" y1="104.7266" y2="104.7266"/><text fill="#000000" font-family="sans-serif" font-size="13" lengthAdjust="spacing" textLength="286.3809" x="7" y="99.6606">curl_easy_recv(CURL *,void *,size_t,size_t *)</text><path d="M3,119.7266 L67.4429,119.7266 L67.4429,126.8594 L57.4429,136.8594 L3,136.8594 L3,119.7266 " fill="#EEEEEE" style="stroke:#000000;stroke-width:1.5;"/><rect fill="transparent" height="90.2656" style="stroke:#000000;stroke-width:1.5;" width="815.9565" x="3" y="119.7266"/><text fill="#000000" font-family="sans-serif" font-size="13" font-weight="bold" lengthAdjust="spacing" textLength="19.4429" x="18" y="132.7935">alt</text><text fill="#000000" font-family="sans-serif" font-size="11" font-weight="bold" lengthAdjust="spacing" textLength="162.2231" x="82.4429" y="131.937">[Curl_is_in_callback(data)]</text><a href="https://github.com/curl/curl/blob/34cf9d54a46598c44938aa7598820484d7af7133/lib/easy.c#L1248" target="_top" title="" xlink:actuate="onRequest" xlink:href="https://github.com/curl/curl/blob/34cf9d54a46598c44938aa7598820484d7af7133/lib/easy.c#L1248" xlink:show="new" xlink:title="" xlink:type="simple"><polygon fill="#181818" points="745.3047,153.9922,755.3047,157.9922,745.3047,161.9922,749.3047,157.9922" style="stroke:#181818;stroke-width:1;"/><line style="stroke:#181818;stroke-width:1;" x1="322.3809" x2="751.3047" y1="157.9922" y2="157.9922"/><text fill="#000000" font-family="sans-serif" font-size="13" font-weight="bold" lengthAdjust="spacing" textLength="5.9414" x="329.3809" y="152.9263">[</text><text fill="#000000" font-family="sans-serif" font-size="13" lengthAdjust="spacing" textLength="247.0508" x="335.3223" y="152.9263">Curl_is_in_callback(struct Curl_easy *)</text><text fill="#000000" font-family="sans-serif" font-size="13" font-weight="bold" lengthAdjust="spacing" textLength="5.9414" x="582.373" y="152.9263">]</text></a><polygon fill="#181818" points="11,197.9922,1,201.9922,11,205.9922,7,201.9922" style="stroke:#181818;stroke-width:1;"/><line style="stroke:#181818;stroke-width:1;stroke-dasharray:2.0,2.0;" x1="5" x2="311.3809" y1="201.9922" y2="201.9922"/><a href="https://github.com/curl/curl/blob/34cf9d54a46598c44938aa7598820484d7af7133/lib/easy.c#L1251" target="_top" title="" xlink:actuate="onRequest" xlink:href="https://github.com/curl/curl/blob/34cf9d54a46598c44938aa7598820484d7af7133/lib/easy.c#L1251" xlink:show="new" xlink:title="" xlink:type="simple"><line style="stroke:#181818;stroke-width:1;" x1="322.3809" x2="369.3809" y1="233.125" y2="233.125"/><line style="stroke:#181818;stroke-width:1;" x1="369.3809" x2="369.3809" y1="233.125" y2="246.125"/><line style="stroke:#181818;stroke-width:1;" x1="328.3809" x2="369.3809" y1="246.125" y2="246.125"/><polygon fill="#181818" points="338.3809,242.125,328.3809,246.125,338.3809,250.125,334.3809,246.125" style="stroke:#181818;stroke-width:1;"/><text fill="#000000" font-family="sans-serif" font-size="13" lengthAdjust="spacing" textLength="378.5679" x="334.3809" y="228.0591">easy_connection(struct Curl_easy *,struct connectdata **)</text></a><path d="M267.23,266.125 L331.6729,266.125 L331.6729,273.2578 L321.6729,283.2578 L267.23,283.2578 L267.23,266.125 " fill="#EEEEEE" style="stroke:#000000;stroke-width:1.5;"/><rect fill="transparent" height="44.1328" style="stroke:#000000;stroke-width:1.5;" width="130.1509" x="267.23" y="266.125"/><text fill="#000000" font-family="sans-serif" font-size="13" font-weight="bold" lengthAdjust="spacing" textLength="19.4429" x="282.23" y="279.1919">alt</text><text fill="#000000" font-family="sans-serif" font-size="11" font-weight="bold" lengthAdjust="spacing" textLength="43.0493" x="346.6729" y="278.3354">[!data]</text><line style="stroke:#181818;stroke-width:1;stroke-dasharray:2.0,2.0;" x1="327.3809" x2="369.3809" y1="289.2578" y2="289.2578"/><line style="stroke:#181818;stroke-width:1;stroke-dasharray:2.0,2.0;" x1="369.3809" x2="369.3809" y1="289.2578" y2="302.2578"/><line style="stroke:#181818;stroke-width:1;stroke-dasharray:2.0,2.0;" x1="328.3809" x2="369.3809" y1="302.2578" y2="302.2578"/><polygon fill="#181818" points="338.3809,298.2578,328.3809,302.2578,338.3809,306.2578,334.3809,302.2578" style="stroke:#181818;stroke-width:1;"/><path d="M71,322.2578 L71,347.2578 L562,347.2578 L562,332.2578 L552,322.2578 L71,322.2578 " fill="#FEFFDD" style="stroke:#181818;stroke-width:0.5;"/><path d="M552,322.2578 L552,332.2578 L562,332.2578 L552,322.2578 " fill="#FEFFDD" style="stroke:#181818;stroke-width:0.5;"/><text fill="#000000" font-family="sans-serif" font-size="13" lengthAdjust="spacing" textLength="470.3232" x="77" y="339.3247">only allow these to be called on handles with CURLOPT_CONNECT_ONLY</text><path d="M267.23,359.3906 L331.6729,359.3906 L331.6729,366.5234 L321.6729,376.5234 L267.23,376.5234 L267.23,359.3906 " fill="#EEEEEE" style="stroke:#000000;stroke-width:1.5;"/><rect fill="transparent" height="103.2656" style="stroke:#000000;stroke-width:1.5;" width="662.5908" x="267.23" y="359.3906"/><text fill="#000000" font-family="sans-serif" font-size="13" font-weight="bold" lengthAdjust="spacing" textLength="19.4429" x="282.23" y="372.4575">alt</text><text fill="#000000" font-family="sans-serif" font-size="11" font-weight="bold" lengthAdjust="spacing" textLength="161.0845" x="346.6729" y="371.6011">[!data-&gt;set.connect_only]</text><a href="https://github.com/curl/curl/blob/34cf9d54a46598c44938aa7598820484d7af7133/lib/curl_trc.h#L63" target="_top" title="" xlink:actuate="onRequest" xlink:href="https://github.com/curl/curl/blob/34cf9d54a46598c44938aa7598820484d7af7133/lib/curl_trc.h#L63" xlink:show="new" xlink:title="" xlink:type="simple"><polygon fill="#181818" points="852.3887,393.6563,862.3887,397.6563,852.3887,401.6563,856.3887,397.6563" style="stroke:#181818;stroke-width:1;"/><line style="stroke:#181818;stroke-width:1;" x1="327.3809" x2="858.3887" y1="397.6563" y2="397.6563"/><text fill="#000000" font-family="sans-serif" font-size="13" lengthAdjust="spacing" textLength="282.2612" x="334.3809" y="392.5903">Curl_failf(struct Curl_easy *,const char *,...)</text></a><line style="stroke:#181818;stroke-width:1;stroke-dasharray:2.0,2.0;" x1="327.3809" x2="369.3809" y1="441.6563" y2="441.6563"/><line style="stroke:#181818;stroke-width:1;stroke-dasharray:2.0,2.0;" x1="369.3809" x2="369.3809" y1="441.6563" y2="454.6563"/><line style="stroke:#181818;stroke-width:1;stroke-dasharray:2.0,2.0;" x1="328.3809" x2="369.3809" y1="454.6563" y2="454.6563"/><polygon fill="#181818" points="338.3809,450.6563,328.3809,454.6563,338.3809,458.6563,334.3809,454.6563" style="stroke:#181818;stroke-width:1;"/><a href="https://github.com/curl/curl/blob/34cf9d54a46598c44938aa7598820484d7af7133/lib/easy.c#L1226" target="_top" title="" xlink:actuate="onRequest" xlink:href="https://github.com/curl/curl/blob/34cf9d54a46598c44938aa7598820484d7af7133/lib/easy.c#L1226" xlink:show="new" xlink:title="" xlink:type="simple"><polygon fill="#181818" points="965.0781,486.7891,975.0781,490.7891,965.0781,494.7891,969.0781,490.7891" style="stroke:#181818;stroke-width:1;"/><line style="stroke:#181818;stroke-width:1;" x1="327.3809" x2="971.0781" y1="490.7891" y2="490.7891"/><text fill="#000000" font-family="sans-serif" font-size="13" lengthAdjust="spacing" textLength="400.334" x="334.3809" y="485.7231">Curl_getconnectinfo(struct Curl_easy *,struct connectdata **)</text></a><path d="M800,503.7891 L800,573.7891 L1163,573.7891 L1163,513.7891 L1153,503.7891 L800,503.7891 " fill="#FEFFDD" style="stroke:#181818;stroke-width:0.5;"/><path d="M1153,503.7891 L1153,513.7891 L1163,513.7891 L1153,503.7891 " fill="#FEFFDD" style="stroke:#181818;stroke-width:0.5;"/><text fill="#000000" font-family="sans-serif" font-size="13" lengthAdjust="spacing" textLength="334.293" x="806" y="520.856">this works for an easy handle: - that has been used</text><text fill="#000000" font-family="sans-serif" font-size="13" lengthAdjust="spacing" textLength="311.3145" x="806" y="535.9888">for curl_easy_perform() - that is associated with</text><text fill="#000000" font-family="sans-serif" font-size="13" lengthAdjust="spacing" textLength="342.5576" x="806" y="551.1216">a multi handle, and whose connection was detached</text><text fill="#000000" font-family="sans-serif" font-size="13" lengthAdjust="spacing" textLength="204.7246" x="806" y="566.2544">with CURLOPT_CONNECT_ONLY</text><path d="M257.23,586.3203 L321.6729,586.3203 L321.6729,593.4531 L311.6729,603.4531 L257.23,603.4531 L257.23,586.3203 " fill="#EEEEEE" style="stroke:#000000;stroke-width:1.5;"/><rect fill="transparent" height="135.3984" style="stroke:#000000;stroke-width:1.5;" width="1149.0439" x="257.23" y="586.3203"/><text fill="#000000" font-family="sans-serif" font-size="13" font-weight="bold" lengthAdjust="spacing" textLength="19.4429" x="272.23" y="599.3872">alt</text><text fill="#000000" font-family="sans-serif" font-size="11" font-weight="bold" lengthAdjust="spacing" textLength="211.1753" x="336.6729" y="598.5308">[data-&gt;state.lastconnect_id != -1]</text><a href="https://github.com/curl/curl/blob/34cf9d54a46598c44938aa7598820484d7af7133/lib/connect.c#L331" target="_top" title="" xlink:actuate="onRequest" xlink:href="https://github.com/curl/curl/blob/34cf9d54a46598c44938aa7598820484d7af7133/lib/connect.c#L331" xlink:show="new" xlink:title="" xlink:type="simple"><polygon fill="#181818" points="1317.1865,620.5859,1327.1865,624.5859,1317.1865,628.5859,1321.1865,624.5859" style="stroke:#181818;stroke-width:1;"/><line style="stroke:#181818;stroke-width:1;" x1="987.0781" x2="1323.1865" y1="624.5859" y2="624.5859"/><text fill="#000000" font-family="sans-serif" font-size="13" lengthAdjust="spacing" textLength="323.1084" x="994.0781" y="619.52">Curl_cpool_get_conn(struct Curl_easy *,curl_off_t)</text></a><path d="M267.23,669.5859 L331.6729,669.5859 L331.6729,676.7188 L321.6729,686.7188 L267.23,686.7188 L267.23,669.5859 " fill="#EEEEEE" style="stroke:#000000;stroke-width:1.5;"/><rect fill="transparent" height="31.1328" style="stroke:#000000;stroke-width:1.5;" width="777.1055" x="267.23" y="669.5859"/><text fill="#000000" font-family="sans-serif" font-size="13" font-weight="bold" lengthAdjust="spacing" textLength="19.4429" x="282.23" y="682.6528">alt</text><text fill="#000000" font-family="sans-serif" font-size="11" font-weight="bold" lengthAdjust="spacing" textLength="44.811" x="346.6729" y="681.7964">[!conn]</text><polygon fill="#181818" points="338.3809,688.7188,328.3809,692.7188,338.3809,696.7188,334.3809,692.7188" style="stroke:#181818;stroke-width:1;"/><line style="stroke:#181818;stroke-width:1;stroke-dasharray:2.0,2.0;" x1="332.3809" x2="976.0781" y1="692.7188" y2="692.7188"/><polygon fill="#181818" points="338.3809,709.7188,328.3809,713.7188,338.3809,717.7188,334.3809,713.7188" style="stroke:#181818;stroke-width:1;"/><line style="stroke:#181818;stroke-width:1;stroke-dasharray:2.0,2.0;" x1="332.3809" x2="976.0781" y1="713.7188" y2="713.7188"/><polygon fill="#181818" points="338.3809,730.7188,328.3809,734.7188,338.3809,738.7188,334.3809,734.7188" style="stroke:#181818;stroke-width:1;"/><line style="stroke:#181818;stroke-width:1;stroke-dasharray:2.0,2.0;" x1="332.3809" x2="981.0781" y1="734.7188" y2="734.7188"/><path d="M267.23,749.7188 L331.6729,749.7188 L331.6729,756.8516 L321.6729,766.8516 L267.23,766.8516 L267.23,749.7188 " fill="#EEEEEE" style="stroke:#000000;stroke-width:1.5;"/><rect fill="transparent" height="103.2656" style="stroke:#000000;stroke-width:1.5;" width="662.5908" x="267.23" y="749.7188"/><text fill="#000000" font-family="sans-serif" font-size="13" font-weight="bold" lengthAdjust="spacing" textLength="19.4429" x="282.23" y="762.7856">alt</text><text fill="#000000" font-family="sans-serif" font-size="11" font-weight="bold" lengthAdjust="spacing" textLength="173.7549" x="346.6729" y="761.9292">[sfd == CURL_SOCKET_BAD]</text><a href="https://github.com/curl/curl/blob/34cf9d54a46598c44938aa7598820484d7af7133/lib/curl_trc.h#L63" target="_top" title="" xlink:actuate="onRequest" xlink:href="https://github.com/curl/curl/blob/34cf9d54a46598c44938aa7598820484d7af7133/lib/curl_trc.h#L63" xlink:show="new" xlink:title="" xlink:type="simple"><polygon fill="#181818" points="852.3887,783.9844,862.3887,787.9844,852.3887,791.9844,856.3887,787.9844" style="stroke:#181818;stroke-width:1;"/><line style="stroke:#181818;stroke-width:1;" x1="327.3809" x2="858.3887" y1="787.9844" y2="787.9844"/><text fill="#000000" font-family="sans-serif" font-size="13" lengthAdjust="spacing" textLength="282.2612" x="334.3809" y="782.9185">Curl_failf(struct Curl_easy *,const char *,...)</text></a><line style="stroke:#181818;stroke-width:1;stroke-dasharray:2.0,2.0;" x1="327.3809" x2="369.3809" y1="831.9844" y2="831.9844"/><line style="stroke:#181818;stroke-width:1;stroke-dasharray:2.0,2.0;" x1="369.3809" x2="369.3809" y1="831.9844" y2="844.9844"/><line style="stroke:#181818;stroke-width:1;stroke-dasharray:2.0,2.0;" x1="328.3809" x2="369.3809" y1="844.9844" y2="844.9844"/><polygon fill="#181818" points="338.3809,840.9844,328.3809,844.9844,338.3809,848.9844,334.3809,844.9844" style="stroke:#181818;stroke-width:1;"/><line style="stroke:#181818;stroke-width:1;stroke-dasharray:2.0,2.0;" x1="327.3809" x2="369.3809" y1="870.9844" y2="870.9844"/><line style="stroke:#181818;stroke-width:1;stroke-dasharray:2.0,2.0;" x1="369.3809" x2="369.3809" y1="870.9844" y2="883.9844"/><line style="stroke:#181818;stroke-width:1;stroke-dasharray:2.0,2.0;" x1="322.3809" x2="369.3809" y1="883.9844" y2="883.9844"/><polygon fill="#181818" points="332.3809,879.9844,322.3809,883.9844,332.3809,887.9844,328.3809,883.9844" style="stroke:#181818;stroke-width:1;"/><path d="M3,893.9844 L67.4429,893.9844 L67.4429,901.1172 L57.4429,911.1172 L3,911.1172 L3,893.9844 " fill="#EEEEEE" style="stroke:#000000;stroke-width:1.5;"/><rect fill="transparent" height="31.1328" style="stroke:#000000;stroke-width:1.5;" width="364.5317" x="3" y="893.9844"/><text fill="#000000" font-family="sans-serif" font-size="13" font-weight="bold" lengthAdjust="spacing" textLength="19.4429" x="18" y="907.0513">alt</text><text fill="#000000" font-family="sans-serif" font-size="11" font-weight="bold" lengthAdjust="spacing" textLength="46.3472" x="82.4429" y="906.1948">[result]</text><polygon fill="#181818" points="11,913.1172,1,917.1172,11,921.1172,7,917.1172" style="stroke:#181818;stroke-width:1;"/><line style="stroke:#181818;stroke-width:1;stroke-dasharray:2.0,2.0;" x1="5" x2="311.3809" y1="917.1172" y2="917.1172"/><path d="M126,939.1172 L190.4429,939.1172 L190.4429,946.25 L180.4429,956.25 L126,956.25 L126,939.1172 " fill="#EEEEEE" style="stroke:#000000;stroke-width:1.5;"/><rect fill="transparent" height="126.5313" style="stroke:#000000;stroke-width:1.5;" width="692.9565" x="126" y="939.1172"/><text fill="#000000" font-family="sans-serif" font-size="13" font-weight="bold" lengthAdjust="spacing" textLength="19.4429" x="141" y="952.1841">alt</text><text fill="#000000" font-family="sans-serif" font-size="11" font-weight="bold" lengthAdjust="spacing" textLength="86.5713" x="205.4429" y="951.3276">[!data-&gt;conn]</text><path d="M136,961.25 L136,1001.25 L498,1001.25 L498,971.25 L488,961.25 L136,961.25 " fill="#FEFFDD" style="stroke:#181818;stroke-width:0.5;"/><path d="M488,961.25 L488,971.25 L498,971.25 L488,961.25 " fill="#FEFFDD" style="stroke:#181818;stroke-width:0.5;"/><text fill="#000000" font-family="sans-serif" font-size="13" lengthAdjust="spacing" textLength="341.4404" x="142" y="978.3169">on first invoke, the transfer has been detached from</text><text fill="#000000" font-family="sans-serif" font-size="13" lengthAdjust="spacing" textLength="281.8804" x="142" y="993.4497">the connection and needs to be reattached</text><a href="https://github.com/curl/curl/blob/34cf9d54a46598c44938aa7598820484d7af7133/lib/easy.c#L1258" target="_top" title="" xlink:actuate="onRequest" xlink:href="https://github.com/curl/curl/blob/34cf9d54a46598c44938aa7598820484d7af7133/lib/easy.c#L1258" xlink:show="new" xlink:title="" xlink:type="simple"><polygon fill="#181818" points="745.3047,1023.6484,755.3047,1027.6484,745.3047,1031.6484,749.3047,1027.6484" style="stroke:#181818;stroke-width:1;"/><line style="stroke:#181818;stroke-width:1;" x1="322.3809" x2="751.3047" y1="1027.6484" y2="1027.6484"/><text fill="#000000" font-family="sans-serif" font-size="13" lengthAdjust="spacing" textLength="415.9238" x="329.3809" y="1022.5825">Curl_attach_connection(struct Curl_easy *,struct connectdata *)</text></a><a href="https://github.com/curl/curl/blob/34cf9d54a46598c44938aa7598820484d7af7133/lib/easy.c#L1261" target="_top" title="" xlink:actuate="onRequest" xlink:href="https://github.com/curl/curl/blob/34cf9d54a46598c44938aa7598820484d7af7133/lib/easy.c#L1261" xlink:show="new" xlink:title="" xlink:type="simple"><polygon fill="#181818" points="1437.4058,1089.7813,1447.4058,1093.7813,1437.4058,1097.7813,1441.4058,1093.7813" style="stroke:#181818;stroke-width:1;"/><line style="stroke:#181818;stroke-width:1;" x1="322.3809" x2="1443.4058" y1="1093.7813" y2="1093.7813"/><text fill="#000000" font-family="sans-serif" font-size="13" lengthAdjust="spacing" textLength="388.667" x="329.3809" y="1088.7153">Curl_conn_recv(struct Curl_easy *,int,char *,size_t,ssize_t *)</text></a><path d="M3,1138.7813 L67.4429,1138.7813 L67.4429,1145.9141 L57.4429,1155.9141 L3,1155.9141 L3,1138.7813 " fill="#EEEEEE" style="stroke:#000000;stroke-width:1.5;"/><rect fill="transparent" height="31.1328" style="stroke:#000000;stroke-width:1.5;" width="364.5317" x="3" y="1138.7813"/><text fill="#000000" font-family="sans-serif" font-size="13" font-weight="bold" lengthAdjust="spacing" textLength="19.4429" x="18" y="1151.8481">alt</text><text fill="#000000" font-family="sans-serif" font-size="11" font-weight="bold" lengthAdjust="spacing" textLength="46.3472" x="82.4429" y="1150.9917">[result]</text><polygon fill="#181818" points="11,1157.9141,1,1161.9141,11,1165.9141,7,1161.9141" style="stroke:#181818;stroke-width:1;"/><line style="stroke:#181818;stroke-width:1;stroke-dasharray:2.0,2.0;" x1="5" x2="311.3809" y1="1161.9141" y2="1161.9141"/><polygon fill="#181818" points="11,1178.9141,1,1182.9141,11,1186.9141,7,1182.9141" style="stroke:#181818;stroke-width:1;"/><line style="stroke:#181818;stroke-width:1;stroke-dasharray:2.0,2.0;" x1="5" x2="316.3809" y1="1182.9141" y2="1182.9141"/><!--SRC=[xLVRRkCs47tNLt1t7n8BjYo9kWRD0gsxw4FTf6Yp1GeZ46Y9Yed8f2jI3hP5_xr3MRx4eMDla1Hzw8Ejsmn7vyoSuKWnLL5qbZTrbL4YlsGrpPTdID8_6ifpYWf6xceojnQaLYnd2y8LUb-nwL0RE_bxH2GQPQxhuIY9miJrFT_t4_Y5NcHD1XyFFaGNw77Gyz7dNyR8xYy5A-0WsPyqKzq1sJsBv8ejYQA7mv5AeP5UaycCyImdLJKb-VrvGHJfFKKmRoh5MEdCjY32m0qIBuHLiOzZFu4Wra40Qt069pIPp9HQo8lXy8wfMJDrSZ4VQhohlsabfaCSv6LQX049eZ1DyY18SK983EU93oi6HKpAsCDukANxmzZpW-IllszlWJxRdjYs2QzKTPDtL6W_OC-sRsrxZq8Js88UjvbyCnWSJWBbnN7AJC_UaBBGwoXhYoqNd5D0ARY1gNvtgpFIfGD4drfzxxJzC_2VmTyInmL444jQ7pOJlFg28DFY0QaPbHGfWQOKwUJJ0WcEPeGN5PNe0LX4MbFNFzzae-khgq-Zc-pwQloxZeHqfEqh3pvAgfmESwP3F9LBgrPLvpjwSTqaJVmeZTCumL7gGGgIeyatERr-yhTl-s4SuIxzRPvBmghIb7c0Bo7nCrB3XUCuUqatWjtJorSISgmSdkPWbQ7T58Hn6hZOzztOJLoCGo_1nrDWS7fB_VdHRWBkg5fBa9VYfHeq0d-i7wE9cZ7GXgZl9If5ZGXlcqAdcWiq05KH1PSIL4KvQYGjB6sutQmMj8ORy_FUsXWM95AAdC6x5QtkB8BQtQLRjWzXuC5CW5ottGSzG922AfBF8CQ9SktKgY2KKn6vPZA3FVFT9Hfuvfh9TOpTgWbmd4IfYoCt3Bm0fpZohOELiQuQWzCR2BShSIWSZBtTkiaNGhJLqtPmeuBrkIZBJEqNYmdlldPDDcs7rE6UOUUOYlzjptrS9XLeNB8iqELbMtFPhzUZ7p_TPDzz-_t__Vlr-lVBFFTdi4F3Haqbz9WJnh6TRRujvPEc35Io6kXaV2dkeO71h85KJRWimMtJ7TVT2vMrc5lQPgUzwPx7AIraDwBKbAYksMrQsdzjk0wJtL9RlUyB1iRUAutQvY6WP9MYjTpjvt4Su330y7M0_HWdKH27nuLiS7fBRgF7tHpuMdtt6JXbNFKx8Q-_0mzy21gHxwlQPFDL2dhUuXJ1McS_K4xhpOI0yehmkq4ph_e8b2YrO5mdSZphR3p-xQVDlS_JXgjcPRsvwQMEvtZet6lQfrxl7m00]--></g></svg>