<svg xmlns="http://www.w3.org/2000/svg" xmlns:xlink="http://www.w3.org/1999/xlink" contentStyleType="text/css" data-diagram-type="SEQUENCE" height="1100px" preserveAspectRatio="none" style="width:1658px;height:1100px;background:#FFFFFF;" version="1.1" viewBox="0 0 1658 1100" width="1658px" zoomAndPan="magnify"><title>'curl_easy_send' sequence diagram</title><defs/><g><text fill="#000000" font-family="sans-serif" font-size="14" font-weight="bold" lengthAdjust="spacing" textLength="276.8076" x="689.6021" y="27.9951">'curl_easy_send' sequence diagram</text><g><title>lib/easy.c</title><rect fill="#FFFFFF" height="942.0547" style="stroke:#181818;stroke-width:1;" width="10" x="347.8022" y="104.7266"/></g><g><title>lib/easy.c</title><rect fill="#FFFFFF" height="809.6563" style="stroke:#181818;stroke-width:1;" width="10" x="352.8022" y="216.125"/></g><g><title>lib/easy.c</title><rect fill="#FFFFFF" height="438.5938" style="stroke:#181818;stroke-width:1;" width="10" x="357.8022" y="258.2578"/></g><g><title>lib/multiif.h</title><rect fill="#FFFFFF" height="14" style="stroke:#181818;stroke-width:1;" width="10" x="797.7261" y="157.9922"/></g><g><title>lib/multiif.h</title><rect fill="#FFFFFF" height="30" style="stroke:#181818;stroke-width:1;" width="10" x="797.7261" y="807.3828"/></g><g><title>lib/curl_trc.h</title><rect fill="#FFFFFF" height="30" style="stroke:#181818;stroke-width:1;" width="10" x="904.8101" y="351.6563"/></g><g><title>lib/curl_trc.h</title><rect fill="#FFFFFF" height="30" style="stroke:#181818;stroke-width:1;" width="10" x="904.8101" y="639.8516"/></g><g><title>lib/connect.h</title><rect fill="#FFFFFF" height="168.7969" style="stroke:#181818;stroke-width:1;" width="10" x="1017.4995" y="417.7891"/></g><g><title>lib/conncache.h</title><rect fill="#FFFFFF" height="14" style="stroke:#181818;stroke-width:1;" width="10" x="1369.6079" y="551.5859"/></g><g><title>lib/sigpipe.h</title><rect fill="#FFFFFF" height="30" style="stroke:#181818;stroke-width:1;" width="10" x="1491.2217" y="873.5156"/></g><g><title>lib/sigpipe.h</title><rect fill="#FFFFFF" height="30" style="stroke:#181818;stroke-width:1;" width="10" x="1491.2217" y="975.7813"/></g><g><title>lib/cfilters.h</title><rect fill="#FFFFFF" height="14" style="stroke:#181818;stroke-width:1;" width="10" x="1598.8799" y="932.6484"/></g><rect fill="transparent" height="60.2656" style="stroke:#000000;stroke-width:1.5;" width="556.7266" x="302.6514" y="119.7266"/><rect fill="transparent" height="76.2656" style="stroke:#000000;stroke-width:1.5;" width="667.5908" x="302.6514" y="313.3906"/><rect fill="transparent" height="60.2656" style="stroke:#000000;stroke-width:1.5;" width="486.4531" x="960.2422" y="513.3203"/><rect fill="transparent" height="76.2656" style="stroke:#000000;stroke-width:1.5;" width="667.5908" x="302.6514" y="601.5859"/><rect fill="transparent" height="126.5313" style="stroke:#000000;stroke-width:1.5;" width="698.3779" x="161" y="718.8516"/><g><title>lib/easy.c</title><rect fill="transparent" height="991.1875" width="8" x="348.8022" y="73.5938"/><line style="stroke:#181818;stroke-width:0.5;stroke-dasharray:5.0,5.0;" x1="352.6514" x2="352.6514" y1="73.5938" y2="1064.7813"/></g><g><title>lib/multiif.h</title><rect fill="transparent" height="991.1875" width="8" x="798.7261" y="73.5938"/><line style="stroke:#181818;stroke-width:0.5;stroke-dasharray:5.0,5.0;" x1="802.0742" x2="802.0742" y1="73.5938" y2="1064.7813"/></g><g><title>lib/curl_trc.h</title><rect fill="transparent" height="991.1875" width="8" x="905.8101" y="73.5938"/><line style="stroke:#181818;stroke-width:0.5;stroke-dasharray:5.0,5.0;" x1="909.3779" x2="909.3779" y1="73.5938" y2="1064.7813"/></g><g><title>lib/connect.h</title><rect fill="transparent" height="991.1875" width="8" x="1018.4995" y="73.5938"/><line style="stroke:#181818;stroke-width:0.5;stroke-dasharray:5.0,5.0;" x1="1022.2422" x2="1022.2422" y1="73.5938" y2="1064.7813"/></g><g><title>lib/conncache.h</title><rect fill="transparent" height="991.1875" width="8" x="1370.6079" y="73.5938"/><line style="stroke:#181818;stroke-width:0.5;stroke-dasharray:5.0,5.0;" x1="1374.5205" x2="1374.5205" y1="73.5938" y2="1064.7813"/></g><g><title>lib/sigpipe.h</title><rect fill="transparent" height="991.1875" width="8" x="1492.2217" y="73.5938"/><line style="stroke:#181818;stroke-width:0.5;stroke-dasharray:5.0,5.0;" x1="1495.6953" x2="1495.6953" y1="73.5938" y2="1064.7813"/></g><g><title>lib/cfilters.h</title><rect fill="transparent" height="991.1875" width="8" x="1599.8799" y="73.5938"/><line style="stroke:#181818;stroke-width:0.5;stroke-dasharray:5.0,5.0;" x1="1603.748" x2="1603.748" y1="73.5938" y2="1064.7813"/></g><rect fill="#E2E2F0" height="30.2969" rx="2.5" ry="2.5" style="stroke:#181818;stroke-width:0.5;" width="80.3018" x="312.6514" y="42.2969"/><text fill="#000000" font-family="sans-serif" font-size="14" lengthAdjust="spacing" textLength="66.3018" x="319.6514" y="62.292">lib/easy.c</text><rect fill="#E2E2F0" height="30.2969" rx="2.5" ry="2.5" style="stroke:#181818;stroke-width:0.5;" width="80.3018" x="312.6514" y="1063.7813"/><text fill="#000000" font-family="sans-serif" font-size="14" lengthAdjust="spacing" textLength="66.3018" x="319.6514" y="1083.7764">lib/easy.c</text><rect fill="#E2E2F0" height="30.2969" rx="2.5" ry="2.5" style="stroke:#181818;stroke-width:0.5;" width="93.3037" x="756.0742" y="42.2969"/><text fill="#000000" font-family="sans-serif" font-size="14" lengthAdjust="spacing" textLength="79.3037" x="763.0742" y="62.292">lib/multiif.h</text><rect fill="#E2E2F0" height="30.2969" rx="2.5" ry="2.5" style="stroke:#181818;stroke-width:0.5;" width="93.3037" x="756.0742" y="1063.7813"/><text fill="#000000" font-family="sans-serif" font-size="14" lengthAdjust="spacing" textLength="79.3037" x="763.0742" y="1083.7764">lib/multiif.h</text><rect fill="#E2E2F0" height="30.2969" rx="2.5" ry="2.5" style="stroke:#181818;stroke-width:0.5;" width="100.8643" x="859.3779" y="42.2969"/><text fill="#000000" font-family="sans-serif" font-size="14" lengthAdjust="spacing" textLength="86.8643" x="866.3779" y="62.292">lib/curl_trc.h</text><rect fill="#E2E2F0" height="30.2969" rx="2.5" ry="2.5" style="stroke:#181818;stroke-width:0.5;" width="100.8643" x="859.3779" y="1063.7813"/><text fill="#000000" font-family="sans-serif" font-size="14" lengthAdjust="spacing" textLength="86.8643" x="866.3779" y="1083.7764">lib/curl_trc.h</text><rect fill="#E2E2F0" height="30.2969" rx="2.5" ry="2.5" style="stroke:#181818;stroke-width:0.5;" width="104.5146" x="970.2422" y="42.2969"/><text fill="#000000" font-family="sans-serif" font-size="14" lengthAdjust="spacing" textLength="90.5146" x="977.2422" y="62.292">lib/connect.h</text><rect fill="#E2E2F0" height="30.2969" rx="2.5" ry="2.5" style="stroke:#181818;stroke-width:0.5;" width="104.5146" x="970.2422" y="1063.7813"/><text fill="#000000" font-family="sans-serif" font-size="14" lengthAdjust="spacing" textLength="90.5146" x="977.2422" y="1083.7764">lib/connect.h</text><rect fill="#E2E2F0" height="30.2969" rx="2.5" ry="2.5" style="stroke:#181818;stroke-width:0.5;" width="124.1748" x="1312.5205" y="42.2969"/><text fill="#000000" font-family="sans-serif" font-size="14" lengthAdjust="spacing" textLength="110.1748" x="1319.5205" y="62.292">lib/conncache.h</text><rect fill="#E2E2F0" height="30.2969" rx="2.5" ry="2.5" style="stroke:#181818;stroke-width:0.5;" width="124.1748" x="1312.5205" y="1063.7813"/><text fill="#000000" font-family="sans-serif" font-size="14" lengthAdjust="spacing" textLength="110.1748" x="1319.5205" y="1083.7764">lib/conncache.h</text><rect fill="#E2E2F0" height="30.2969" rx="2.5" ry="2.5" style="stroke:#181818;stroke-width:0.5;" width="99.0527" x="1446.6953" y="42.2969"/><text fill="#000000" font-family="sans-serif" font-size="14" lengthAdjust="spacing" textLength="85.0527" x="1453.6953" y="62.292">lib/sigpipe.h</text><rect fill="#E2E2F0" height="30.2969" rx="2.5" ry="2.5" style="stroke:#181818;stroke-width:0.5;" width="99.0527" x="1446.6953" y="1063.7813"/><text fill="#000000" font-family="sans-serif" font-size="14" lengthAdjust="spacing" textLength="85.0527" x="1453.6953" y="1083.7764">lib/sigpipe.h</text><rect fill="#E2E2F0" height="30.2969" rx="2.5" ry="2.5" style="stroke:#181818;stroke-width:0.5;" width="96.2637" x="1555.748" y="42.2969"/><text fill="#000000" font-family="sans-serif" font-size="14" lengthAdjust="spacing" textLength="82.2637" x="1562.748" y="62.292">lib/cfilters.h</text><rect fill="#E2E2F0" height="30.2969" rx="2.5" ry="2.5" style="stroke:#181818;stroke-width:0.5;" width="96.2637" x="1555.748" y="1063.7813"/><text fill="#000000" font-family="sans-serif" font-size="14" lengthAdjust="spacing" textLength="82.2637" x="1562.748" y="1083.7764">lib/cfilters.h</text><g><title>lib/easy.c</title><rect fill="#FFFFFF" height="942.0547" style="stroke:#181818;stroke-width:1;" width="10" x="347.8022" y="104.7266"/></g><g><title>lib/easy.c</title><rect fill="#FFFFFF" height="809.6563" style="stroke:#181818;stroke-width:1;" width="10" x="352.8022" y="216.125"/></g><g><title>lib/easy.c</title><rect fill="#FFFFFF" height="438.5938" style="stroke:#181818;stroke-width:1;" width="10" x="357.8022" y="258.2578"/></g><g><title>lib/multiif.h</title><rect fill="#FFFFFF" height="14" style="stroke:#181818;stroke-width:1;" width="10" x="797.7261" y="157.9922"/></g><g><title>lib/multiif.h</title><rect fill="#FFFFFF" height="30" style="stroke:#181818;stroke-width:1;" width="10" x="797.7261" y="807.3828"/></g><g><title>lib/curl_trc.h</title><rect fill="#FFFFFF" height="30" style="stroke:#181818;stroke-width:1;" width="10" x="904.8101" y="351.6563"/></g><g><title>lib/curl_trc.h</title><rect fill="#FFFFFF" height="30" style="stroke:#181818;stroke-width:1;" width="10" x="904.8101" y="639.8516"/></g><g><title>lib/connect.h</title><rect fill="#FFFFFF" height="168.7969" style="stroke:#181818;stroke-width:1;" width="10" x="1017.4995" y="417.7891"/></g><g><title>lib/conncache.h</title><rect fill="#FFFFFF" height="14" style="stroke:#181818;stroke-width:1;" width="10" x="1369.6079" y="551.5859"/></g><g><title>lib/sigpipe.h</title><rect fill="#FFFFFF" height="30" style="stroke:#181818;stroke-width:1;" width="10" x="1491.2217" y="873.5156"/></g><g><title>lib/sigpipe.h</title><rect fill="#FFFFFF" height="30" style="stroke:#181818;stroke-width:1;" width="10" x="1491.2217" y="975.7813"/></g><g><title>lib/cfilters.h</title><rect fill="#FFFFFF" height="14" style="stroke:#181818;stroke-width:1;" width="10" x="1598.8799" y="932.6484"/></g><polygon fill="#181818" points="335.8022,100.7266,345.8022,104.7266,335.8022,108.7266,339.8022,104.7266" style="stroke:#181818;stroke-width:1;"/><line style="stroke:#181818;stroke-width:1;" x1="0" x2="341.8022" y1="104.7266" y2="104.7266"/><text fill="#000000" font-family="sans-serif" font-size="13" lengthAdjust="spacing" textLength="328.8022" x="7" y="99.6606">curl_easy_send(CURL *,const void *,size_t,size_t *)</text><path d="M302.6514,119.7266 L367.0942,119.7266 L367.0942,126.8594 L357.0942,136.8594 L302.6514,136.8594 L302.6514,119.7266 " fill="#EEEEEE" style="stroke:#000000;stroke-width:1.5;"/><rect fill="transparent" height="60.2656" style="stroke:#000000;stroke-width:1.5;" width="556.7266" x="302.6514" y="119.7266"/><text fill="#000000" font-family="sans-serif" font-size="13" font-weight="bold" lengthAdjust="spacing" textLength="19.4429" x="317.6514" y="132.7935">alt</text><text fill="#000000" font-family="sans-serif" font-size="11" font-weight="bold" lengthAdjust="spacing" textLength="162.2231" x="382.0942" y="131.937">[Curl_is_in_callback(data)]</text><a href="https://github.com/curl/curl/blob/34cf9d54a46598c44938aa7598820484d7af7133/lib/easy.c#L1329" target="_top" title="" xlink:actuate="onRequest" xlink:href="https://github.com/curl/curl/blob/34cf9d54a46598c44938aa7598820484d7af7133/lib/easy.c#L1329" xlink:show="new" xlink:title="" xlink:type="simple"><polygon fill="#181818" points="785.7261,153.9922,795.7261,157.9922,785.7261,161.9922,789.7261,157.9922" style="stroke:#181818;stroke-width:1;"/><line style="stroke:#181818;stroke-width:1;" x1="357.8022" x2="791.7261" y1="157.9922" y2="157.9922"/><text fill="#000000" font-family="sans-serif" font-size="13" font-weight="bold" lengthAdjust="spacing" textLength="5.9414" x="364.8022" y="152.9263">[</text><text fill="#000000" font-family="sans-serif" font-size="13" lengthAdjust="spacing" textLength="247.0508" x="370.7437" y="152.9263">Curl_is_in_callback(struct Curl_easy *)</text><text fill="#000000" font-family="sans-serif" font-size="13" font-weight="bold" lengthAdjust="spacing" textLength="5.9414" x="617.7944" y="152.9263">]</text></a><polygon fill="#181818" points="368.8022,167.9922,358.8022,171.9922,368.8022,175.9922,364.8022,171.9922" style="stroke:#181818;stroke-width:1;"/><line style="stroke:#181818;stroke-width:1;stroke-dasharray:2.0,2.0;" x1="362.8022" x2="801.7261" y1="171.9922" y2="171.9922"/><a href="https://github.com/curl/curl/blob/34cf9d54a46598c44938aa7598820484d7af7133/lib/easy.c#L1332" target="_top" title="" xlink:actuate="onRequest" xlink:href="https://github.com/curl/curl/blob/34cf9d54a46598c44938aa7598820484d7af7133/lib/easy.c#L1332" xlink:show="new" xlink:title="" xlink:type="simple"><line style="stroke:#181818;stroke-width:1;" x1="357.8022" x2="404.8022" y1="203.125" y2="203.125"/><line style="stroke:#181818;stroke-width:1;" x1="404.8022" x2="404.8022" y1="203.125" y2="216.125"/><line style="stroke:#181818;stroke-width:1;" x1="363.8022" x2="404.8022" y1="216.125" y2="216.125"/><polygon fill="#181818" points="373.8022,212.125,363.8022,216.125,373.8022,220.125,369.8022,216.125" style="stroke:#181818;stroke-width:1;"/><text fill="#000000" font-family="sans-serif" font-size="13" lengthAdjust="spacing" textLength="393.25" x="369.8022" y="198.0591">Curl_senddata(struct Curl_easy *,const void *,size_t,size_t *)</text></a><a href="https://github.com/curl/curl/blob/34cf9d54a46598c44938aa7598820484d7af7133/lib/easy.c#L1302" target="_top" title="" xlink:actuate="onRequest" xlink:href="https://github.com/curl/curl/blob/34cf9d54a46598c44938aa7598820484d7af7133/lib/easy.c#L1302" xlink:show="new" xlink:title="" xlink:type="simple"><line style="stroke:#181818;stroke-width:1;" x1="362.8022" x2="409.8022" y1="245.2578" y2="245.2578"/><line style="stroke:#181818;stroke-width:1;" x1="409.8022" x2="409.8022" y1="245.2578" y2="258.2578"/><line style="stroke:#181818;stroke-width:1;" x1="368.8022" x2="409.8022" y1="258.2578" y2="258.2578"/><polygon fill="#181818" points="378.8022,254.2578,368.8022,258.2578,378.8022,262.2578,374.8022,258.2578" style="stroke:#181818;stroke-width:1;"/><text fill="#000000" font-family="sans-serif" font-size="13" lengthAdjust="spacing" textLength="378.5679" x="374.8022" y="240.1919">easy_connection(struct Curl_easy *,struct connectdata **)</text></a><path d="M107,276.2578 L107,301.2578 L598,301.2578 L598,286.2578 L588,276.2578 L107,276.2578 " fill="#FEFFDD" style="stroke:#181818;stroke-width:0.5;"/><path d="M588,276.2578 L588,286.2578 L598,286.2578 L588,276.2578 " fill="#FEFFDD" style="stroke:#181818;stroke-width:0.5;"/><text fill="#000000" font-family="sans-serif" font-size="13" lengthAdjust="spacing" textLength="470.3232" x="113" y="293.3247">only allow these to be called on handles with CURLOPT_CONNECT_ONLY</text><path d="M302.6514,313.3906 L367.0942,313.3906 L367.0942,320.5234 L357.0942,330.5234 L302.6514,330.5234 L302.6514,313.3906 " fill="#EEEEEE" style="stroke:#000000;stroke-width:1.5;"/><rect fill="transparent" height="76.2656" style="stroke:#000000;stroke-width:1.5;" width="667.5908" x="302.6514" y="313.3906"/><text fill="#000000" font-family="sans-serif" font-size="13" font-weight="bold" lengthAdjust="spacing" textLength="19.4429" x="317.6514" y="326.4575">alt</text><text fill="#000000" font-family="sans-serif" font-size="11" font-weight="bold" lengthAdjust="spacing" textLength="161.0845" x="382.0942" y="325.6011">[!data-&gt;set.connect_only]</text><a href="https://github.com/curl/curl/blob/34cf9d54a46598c44938aa7598820484d7af7133/lib/curl_trc.h#L63" target="_top" title="" xlink:actuate="onRequest" xlink:href="https://github.com/curl/curl/blob/34cf9d54a46598c44938aa7598820484d7af7133/lib/curl_trc.h#L63" xlink:show="new" xlink:title="" xlink:type="simple"><polygon fill="#181818" points="892.8101,347.6563,902.8101,351.6563,892.8101,355.6563,896.8101,351.6563" style="stroke:#181818;stroke-width:1;"/><line style="stroke:#181818;stroke-width:1;" x1="367.8022" x2="898.8101" y1="351.6563" y2="351.6563"/><text fill="#000000" font-family="sans-serif" font-size="13" lengthAdjust="spacing" textLength="282.2612" x="374.8022" y="346.5903">Curl_failf(struct Curl_easy *,const char *,...)</text></a><a href="https://github.com/curl/curl/blob/34cf9d54a46598c44938aa7598820484d7af7133/lib/easy.c#L1226" target="_top" title="" xlink:actuate="onRequest" xlink:href="https://github.com/curl/curl/blob/34cf9d54a46598c44938aa7598820484d7af7133/lib/easy.c#L1226" xlink:show="new" xlink:title="" xlink:type="simple"><polygon fill="#181818" points="1005.4995,413.7891,1015.4995,417.7891,1005.4995,421.7891,1009.4995,417.7891" style="stroke:#181818;stroke-width:1;"/><line style="stroke:#181818;stroke-width:1;" x1="367.8022" x2="1011.4995" y1="417.7891" y2="417.7891"/><text fill="#000000" font-family="sans-serif" font-size="13" lengthAdjust="spacing" textLength="400.334" x="374.8022" y="412.7231">Curl_getconnectinfo(struct Curl_easy *,struct connectdata **)</text></a><path d="M840,430.7891 L840,500.7891 L1203,500.7891 L1203,440.7891 L1193,430.7891 L840,430.7891 " fill="#FEFFDD" style="stroke:#181818;stroke-width:0.5;"/><path d="M1193,430.7891 L1193,440.7891 L1203,440.7891 L1193,430.7891 " fill="#FEFFDD" style="stroke:#181818;stroke-width:0.5;"/><text fill="#000000" font-family="sans-serif" font-size="13" lengthAdjust="spacing" textLength="334.293" x="846" y="447.856">this works for an easy handle: - that has been used</text><text fill="#000000" font-family="sans-serif" font-size="13" lengthAdjust="spacing" textLength="311.3145" x="846" y="462.9888">for curl_easy_perform() - that is associated with</text><text fill="#000000" font-family="sans-serif" font-size="13" lengthAdjust="spacing" textLength="342.5576" x="846" y="478.1216">a multi handle, and whose connection was detached</text><text fill="#000000" font-family="sans-serif" font-size="13" lengthAdjust="spacing" textLength="204.7246" x="846" y="493.2544">with CURLOPT_CONNECT_ONLY</text><path d="M960.2422,513.3203 L1024.6851,513.3203 L1024.6851,520.4531 L1014.6851,530.4531 L960.2422,530.4531 L960.2422,513.3203 " fill="#EEEEEE" style="stroke:#000000;stroke-width:1.5;"/><rect fill="transparent" height="60.2656" style="stroke:#000000;stroke-width:1.5;" width="486.4531" x="960.2422" y="513.3203"/><text fill="#000000" font-family="sans-serif" font-size="13" font-weight="bold" lengthAdjust="spacing" textLength="19.4429" x="975.2422" y="526.3872">alt</text><text fill="#000000" font-family="sans-serif" font-size="11" font-weight="bold" lengthAdjust="spacing" textLength="211.1753" x="1039.6851" y="525.5308">[data-&gt;state.lastconnect_id != -1]</text><a href="https://github.com/curl/curl/blob/34cf9d54a46598c44938aa7598820484d7af7133/lib/connect.c#L331" target="_top" title="" xlink:actuate="onRequest" xlink:href="https://github.com/curl/curl/blob/34cf9d54a46598c44938aa7598820484d7af7133/lib/connect.c#L331" xlink:show="new" xlink:title="" xlink:type="simple"><polygon fill="#181818" points="1357.6079,547.5859,1367.6079,551.5859,1357.6079,555.5859,1361.6079,551.5859" style="stroke:#181818;stroke-width:1;"/><line style="stroke:#181818;stroke-width:1;" x1="1027.4995" x2="1363.6079" y1="551.5859" y2="551.5859"/><text fill="#000000" font-family="sans-serif" font-size="13" lengthAdjust="spacing" textLength="323.1084" x="1034.4995" y="546.52">Curl_cpool_get_conn(struct Curl_easy *,curl_off_t)</text></a><polygon fill="#181818" points="1038.4995,561.5859,1028.4995,565.5859,1038.4995,569.5859,1034.4995,565.5859" style="stroke:#181818;stroke-width:1;"/><line style="stroke:#181818;stroke-width:1;stroke-dasharray:2.0,2.0;" x1="1032.4995" x2="1373.6079" y1="565.5859" y2="565.5859"/><polygon fill="#181818" points="378.8022,582.5859,368.8022,586.5859,378.8022,590.5859,374.8022,586.5859" style="stroke:#181818;stroke-width:1;"/><line style="stroke:#181818;stroke-width:1;stroke-dasharray:2.0,2.0;" x1="372.8022" x2="1021.4995" y1="586.5859" y2="586.5859"/><path d="M302.6514,601.5859 L367.0942,601.5859 L367.0942,608.7188 L357.0942,618.7188 L302.6514,618.7188 L302.6514,601.5859 " fill="#EEEEEE" style="stroke:#000000;stroke-width:1.5;"/><rect fill="transparent" height="76.2656" style="stroke:#000000;stroke-width:1.5;" width="667.5908" x="302.6514" y="601.5859"/><text fill="#000000" font-family="sans-serif" font-size="13" font-weight="bold" lengthAdjust="spacing" textLength="19.4429" x="317.6514" y="614.6528">alt</text><text fill="#000000" font-family="sans-serif" font-size="11" font-weight="bold" lengthAdjust="spacing" textLength="173.7549" x="382.0942" y="613.7964">[sfd == CURL_SOCKET_BAD]</text><a href="https://github.com/curl/curl/blob/34cf9d54a46598c44938aa7598820484d7af7133/lib/curl_trc.h#L63" target="_top" title="" xlink:actuate="onRequest" xlink:href="https://github.com/curl/curl/blob/34cf9d54a46598c44938aa7598820484d7af7133/lib/curl_trc.h#L63" xlink:show="new" xlink:title="" xlink:type="simple"><polygon fill="#181818" points="892.8101,635.8516,902.8101,639.8516,892.8101,643.8516,896.8101,639.8516" style="stroke:#181818;stroke-width:1;"/><line style="stroke:#181818;stroke-width:1;" x1="367.8022" x2="898.8101" y1="639.8516" y2="639.8516"/><text fill="#000000" font-family="sans-serif" font-size="13" lengthAdjust="spacing" textLength="282.2612" x="374.8022" y="634.7856">Curl_failf(struct Curl_easy *,const char *,...)</text></a><line style="stroke:#181818;stroke-width:1;stroke-dasharray:2.0,2.0;" x1="367.8022" x2="409.8022" y1="695.8516" y2="695.8516"/><line style="stroke:#181818;stroke-width:1;stroke-dasharray:2.0,2.0;" x1="409.8022" x2="409.8022" y1="695.8516" y2="708.8516"/><line style="stroke:#181818;stroke-width:1;stroke-dasharray:2.0,2.0;" x1="362.8022" x2="409.8022" y1="708.8516" y2="708.8516"/><polygon fill="#181818" points="372.8022,704.8516,362.8022,708.8516,372.8022,712.8516,368.8022,708.8516" style="stroke:#181818;stroke-width:1;"/><path d="M161,718.8516 L225.4429,718.8516 L225.4429,725.9844 L215.4429,735.9844 L161,735.9844 L161,718.8516 " fill="#EEEEEE" style="stroke:#000000;stroke-width:1.5;"/><rect fill="transparent" height="126.5313" style="stroke:#000000;stroke-width:1.5;" width="698.3779" x="161" y="718.8516"/><text fill="#000000" font-family="sans-serif" font-size="13" font-weight="bold" lengthAdjust="spacing" textLength="19.4429" x="176" y="731.9185">alt</text><text fill="#000000" font-family="sans-serif" font-size="11" font-weight="bold" lengthAdjust="spacing" textLength="86.5713" x="240.4429" y="731.062">[!data-&gt;conn]</text><path d="M171,740.9844 L171,780.9844 L533,780.9844 L533,750.9844 L523,740.9844 L171,740.9844 " fill="#FEFFDD" style="stroke:#181818;stroke-width:0.5;"/><path d="M523,740.9844 L523,750.9844 L533,750.9844 L523,740.9844 " fill="#FEFFDD" style="stroke:#181818;stroke-width:0.5;"/><text fill="#000000" font-family="sans-serif" font-size="13" lengthAdjust="spacing" textLength="341.4404" x="177" y="758.0513">on first invoke, the transfer has been detached from</text><text fill="#000000" font-family="sans-serif" font-size="13" lengthAdjust="spacing" textLength="281.8804" x="177" y="773.1841">the connection and needs to be reattached</text><a href="https://github.com/curl/curl/blob/34cf9d54a46598c44938aa7598820484d7af7133/lib/easy.c#L1309" target="_top" title="" xlink:actuate="onRequest" xlink:href="https://github.com/curl/curl/blob/34cf9d54a46598c44938aa7598820484d7af7133/lib/easy.c#L1309" xlink:show="new" xlink:title="" xlink:type="simple"><polygon fill="#181818" points="785.7261,803.3828,795.7261,807.3828,785.7261,811.3828,789.7261,807.3828" style="stroke:#181818;stroke-width:1;"/><line style="stroke:#181818;stroke-width:1;" x1="362.8022" x2="791.7261" y1="807.3828" y2="807.3828"/><text fill="#000000" font-family="sans-serif" font-size="13" lengthAdjust="spacing" textLength="415.9238" x="369.8022" y="802.3169">Curl_attach_connection(struct Curl_easy *,struct connectdata *)</text></a><a href="https://github.com/curl/curl/blob/34cf9d54a46598c44938aa7598820484d7af7133/lib/easy.c#L1311" target="_top" title="" xlink:actuate="onRequest" xlink:href="https://github.com/curl/curl/blob/34cf9d54a46598c44938aa7598820484d7af7133/lib/easy.c#L1311" xlink:show="new" xlink:title="" xlink:type="simple"><polygon fill="#181818" points="1479.2217,869.5156,1489.2217,873.5156,1479.2217,877.5156,1483.2217,873.5156" style="stroke:#181818;stroke-width:1;"/><line style="stroke:#181818;stroke-width:1;" x1="362.8022" x2="1485.2217" y1="873.5156" y2="873.5156"/><text fill="#000000" font-family="sans-serif" font-size="13" lengthAdjust="spacing" textLength="371.7061" x="369.8022" y="868.4497">sigpipe_ignore(struct Curl_easy *,struct sigpipe_ignore *)</text></a><a href="https://github.com/curl/curl/blob/34cf9d54a46598c44938aa7598820484d7af7133/lib/easy.c#L1312" target="_top" title="" xlink:actuate="onRequest" xlink:href="https://github.com/curl/curl/blob/34cf9d54a46598c44938aa7598820484d7af7133/lib/easy.c#L1312" xlink:show="new" xlink:title="" xlink:type="simple"><polygon fill="#181818" points="1586.8799,928.6484,1596.8799,932.6484,1586.8799,936.6484,1590.8799,932.6484" style="stroke:#181818;stroke-width:1;"/><line style="stroke:#181818;stroke-width:1;" x1="362.8022" x2="1592.8799" y1="932.6484" y2="932.6484"/><text fill="#000000" font-family="sans-serif" font-size="13" lengthAdjust="spacing" textLength="462.1982" x="369.8022" y="927.5825">Curl_conn_send(struct Curl_easy *,int,const void *,size_t,_Bool,size_t *)</text></a><polygon fill="#181818" points="373.8022,942.6484,363.8022,946.6484,373.8022,950.6484,369.8022,946.6484" style="stroke:#181818;stroke-width:1;"/><line style="stroke:#181818;stroke-width:1;stroke-dasharray:2.0,2.0;" x1="367.8022" x2="1602.8799" y1="946.6484" y2="946.6484"/><a href="https://github.com/curl/curl/blob/34cf9d54a46598c44938aa7598820484d7af7133/lib/easy.c#L1313" target="_top" title="" xlink:actuate="onRequest" xlink:href="https://github.com/curl/curl/blob/34cf9d54a46598c44938aa7598820484d7af7133/lib/easy.c#L1313" xlink:show="new" xlink:title="" xlink:type="simple"><polygon fill="#181818" points="1479.2217,971.7813,1489.2217,975.7813,1479.2217,979.7813,1483.2217,975.7813" style="stroke:#181818;stroke-width:1;"/><line style="stroke:#181818;stroke-width:1;" x1="362.8022" x2="1485.2217" y1="975.7813" y2="975.7813"/><text fill="#000000" font-family="sans-serif" font-size="13" lengthAdjust="spacing" textLength="257.0166" x="369.8022" y="970.7153">sigpipe_restore(struct sigpipe_ignore *)</text></a><line style="stroke:#181818;stroke-width:1;stroke-dasharray:2.0,2.0;" x1="362.8022" x2="404.8022" y1="1024.7813" y2="1024.7813"/><line style="stroke:#181818;stroke-width:1;stroke-dasharray:2.0,2.0;" x1="404.8022" x2="404.8022" y1="1024.7813" y2="1037.7813"/><line style="stroke:#181818;stroke-width:1;stroke-dasharray:2.0,2.0;" x1="357.8022" x2="404.8022" y1="1037.7813" y2="1037.7813"/><polygon fill="#181818" points="367.8022,1033.7813,357.8022,1037.7813,367.8022,1041.7813,363.8022,1037.7813" style="stroke:#181818;stroke-width:1;"/><polygon fill="#181818" points="11,1042.7813,1,1046.7813,11,1050.7813,7,1046.7813" style="stroke:#181818;stroke-width:1;"/><line style="stroke:#181818;stroke-width:1;stroke-dasharray:2.0,2.0;" x1="5" x2="351.8022" y1="1046.7813" y2="1046.7813"/><!--SRC=[xLTTRzis57tNhs3RXyH2B8kYFeEbmEeLUvYN35iwO302WPOecuXCkYALe1lstqVASln5nKuw3ttOWpyaNVBo79vpBoMfB0auo-ggJ0aMNr91M7u61FbS4vOHa5CyhV3SMk1AqemkC9FWRKad0ntiP6y15c2OkYv4OHm6iUj1p_DYzGbWQ8txxpiVWakmdVHy-EdN4R0lCiw410-Svkf2q3z9AjiVOFSid4dwW2NfJefB2OPwPYfIoj8Cb-K4P_VdEPQujuzZNfUIqiAPhQ44lkl7C52p8Wz5NgoIM9qmLX0DWy1uF9Do8Iu7WocLithYP7m-qAYNNvEIJmR8puea3tpiXq4IPxwVe1ZZIFsFFJMZdqUuY212WpNfxqOGUSbVVz_TAH9jUspR9hn2LdNMKg77AVPi-ywsToZi16i2r7zcGwsS79vPxVDXAatFJaWbybeg6wgq5BLK3FnzjJI_DUJk2dbZGeME4OM1CnFszbORf1bIqZi6DEFgANyWLNS8P-KNe7JB7u6S4K60v612W9OooG5dO8PPNX817XK3GDU9crzkq-7DzVN7uMrwSptwGmiBw4oD_T_evVNV2oATThsfJh5l_gO2oIhRSB_hnadiXKcKH34A4wZeYmzkd6dGlxznwzM-6uLeKxG5fcNHhTXiXYjruJZEpeOPmUxus1YZVRpFvfBhJJA3AF5Tv7bkvCOkGW6CqM4o3ODEw0BF2pUfd1AvCW8h-6kTO0I-xGHZY9nHfN9UtGjGy0fWrbYprVybw2j_OAakXV87OQ0M9BTquBgLBaYbRipFUwjWDI4MWcTKhIrl76HXq7IzTjeBbKOzc75bl7KD08ygIKuapcOgnv76QtqdLIgdn6B5PAeAvfihq8TcpMGwnwPgV1J5OUAYq0rywAC4XPxLgOoLQWo3Jc31Lk9AE0Z1JTra2yuRzJHrrEX5_PyNHIftnTA9ruIf_unDzhnhcddLWyrilg336rUWPI2A75nTDNf9VxiP_lJnDltm_G__Lr5J5UqcvILdhQw3SDi9jIIFQyIWe9N2Ija3lrULGRLZ82lCHA66FPMTLLa0HSNdbexPg1kwc312Sj5syOfWsLQHfrhnhPsctMHJ1ylrlk8yr3lYR7tiANclKWewNT35Lfs4aJ9qx2T-5CCaLWTP20-Rp33ebDJ2LPLirv_IAUCLUORIxS0zLeseTzrcYjdlFGKj9Qd49gLHvAF0Hz3paHUXEFIZu32bXa4dfNJhXKKhSFa2RQ2KCcbyQqa_g6xLzUxIIO8Hw8iwngle_QyLYtOKMn4XDoHxAdsUhXECl-ltlsu6w-n7maZrT8G4MOdPj5_FomkWEehGXTzrGiUrpaQZttz-klTfKZDPBwEVRiB4WGu4vx1kdiBUFm00]--></g></svg>