<svg xmlns="http://www.w3.org/2000/svg" xmlns:xlink="http://www.w3.org/1999/xlink" contentStyleType="text/css" data-diagram-type="CLASS" height="607px" preserveAspectRatio="none" style="width:1166px;height:607px;background:#FFFFFF;" version="1.1" viewBox="0 0 1166 607" width="1166px" zoomAndPan="magnify"><title>High-level namespace dependencies in clang-uml</title><defs/><g><text fill="#000000" font-family="sans-serif" font-size="14" font-weight="bold" lengthAdjust="spacing" textLength="390.4893" x="380.8654" y="22.9951">High-level namespace dependencies in clang-uml</text><!--cluster C_0017394171196056322719--><a href="namespaceclanguml.html" target="_top" title="clanguml" xlink:actuate="onRequest" xlink:href="namespaceclanguml.html" xlink:show="new" xlink:title="clanguml" xlink:type="simple"><path d="M51.72,43.2969 L124.6067,43.2969 A3.75,3.75 0 0 1 127.1067,45.7969 L134.1067,65.5938 L1156.72,65.5938 A2.5,2.5 0 0 1 1159.22,68.0938 L1159.22,597.7969 A2.5,2.5 0 0 1 1156.72,600.2969 L51.72,600.2969 A2.5,2.5 0 0 1 49.22,597.7969 L49.22,45.7969 A2.5,2.5 0 0 1 51.72,43.2969 " fill="transparent" style="stroke:#000000;stroke-width:1.5;"/><line style="stroke:#000000;stroke-width:1.5;" x1="49.22" x2="134.1067" y1="65.5938" y2="65.5938"/><text fill="#000000" font-family="sans-serif" font-size="14" font-weight="bold" lengthAdjust="spacing" textLength="71.8867" x="53.22" y="58.292">clanguml</text></a><!--cluster C_0002532840279361781187--><a href="namespaceclanguml_1_1common.html" target="_top" title="common" xlink:actuate="onRequest" xlink:href="namespaceclanguml_1_1common.html" xlink:show="new" xlink:title="common" xlink:type="simple"><path d="M509.72,335.2969 L577.3977,335.2969 A3.75,3.75 0 0 1 579.8977,337.7969 L586.8977,357.5938 L783.72,357.5938 A2.5,2.5 0 0 1 786.22,360.0938 L786.22,565.7969 A2.5,2.5 0 0 1 783.72,568.2969 L509.72,568.2969 A2.5,2.5 0 0 1 507.22,565.7969 L507.22,337.7969 A2.5,2.5 0 0 1 509.72,335.2969 " fill="transparent" style="stroke:#000000;stroke-width:1.5;"/><line style="stroke:#000000;stroke-width:1.5;" x1="507.22" x2="586.8977" y1="357.5938" y2="357.5938"/><text fill="#000000" font-family="sans-serif" font-size="14" font-weight="bold" lengthAdjust="spacing" textLength="66.6777" x="511.22" y="350.292">common</text></a><!--cluster C_0017921336289613804855--><a href="namespaceclanguml_1_1class__diagram.html" target="_top" title="class_diagram" xlink:actuate="onRequest" xlink:href="namespaceclanguml_1_1class__diagram.html" xlink:show="new" xlink:title="class_diagram" xlink:type="simple"><path d="M893.72,199.2969 L1006.1595,199.2969 A3.75,3.75 0 0 1 1008.6595,201.7969 L1015.6595,221.5938 L1132.72,221.5938 A2.5,2.5 0 0 1 1135.22,224.0938 L1135.22,444.7969 A2.5,2.5 0 0 1 1132.72,447.2969 L893.72,447.2969 A2.5,2.5 0 0 1 891.22,444.7969 L891.22,201.7969 A2.5,2.5 0 0 1 893.72,199.2969 " fill="transparent" style="stroke:#000000;stroke-width:1.5;"/><line style="stroke:#000000;stroke-width:1.5;" x1="891.22" x2="1015.6595" y1="221.5938" y2="221.5938"/><text fill="#000000" font-family="sans-serif" font-size="14" font-weight="bold" lengthAdjust="spacing" textLength="111.4395" x="895.22" y="214.292">class_diagram</text></a><!--cluster C_0018317418947569564933--><a href="namespaceclanguml_1_1include__diagram.html" target="_top" title="include_diagram" xlink:actuate="onRequest" xlink:href="namespaceclanguml_1_1include__diagram.html" xlink:show="new" xlink:title="include_diagram" xlink:type="simple"><path d="M625.72,86.2969 L756.2952,86.2969 A3.75,3.75 0 0 1 758.7952,88.7969 L765.7952,108.5938 L864.72,108.5938 A2.5,2.5 0 0 1 867.22,111.0938 L867.22,300.7969 A2.5,2.5 0 0 1 864.72,303.2969 L625.72,303.2969 A2.5,2.5 0 0 1 623.22,300.7969 L623.22,88.7969 A2.5,2.5 0 0 1 625.72,86.2969 " fill="transparent" style="stroke:#000000;stroke-width:1.5;"/><line style="stroke:#000000;stroke-width:1.5;" x1="623.22" x2="765.7952" y1="108.5938" y2="108.5938"/><text fill="#000000" font-family="sans-serif" font-size="14" font-weight="bold" lengthAdjust="spacing" textLength="129.5752" x="627.22" y="101.292">include_diagram</text></a><!--cluster C_0012174902727661033893--><a href="namespaceclanguml_1_1sequence__diagram.html" target="_top" title="sequence_diagram" xlink:actuate="onRequest" xlink:href="namespaceclanguml_1_1sequence__diagram.html" xlink:show="new" xlink:title="sequence_diagram" xlink:type="simple"><path d="M89.72,199.2969 L238.0208,199.2969 A3.75,3.75 0 0 1 240.5208,201.7969 L247.5208,221.5938 L328.72,221.5938 A2.5,2.5 0 0 1 331.22,224.0938 L331.22,444.7969 A2.5,2.5 0 0 1 328.72,447.2969 L89.72,447.2969 A2.5,2.5 0 0 1 87.22,444.7969 L87.22,201.7969 A2.5,2.5 0 0 1 89.72,199.2969 " fill="transparent" style="stroke:#000000;stroke-width:1.5;"/><line style="stroke:#000000;stroke-width:1.5;" x1="87.22" x2="247.5208" y1="221.5938" y2="221.5938"/><text fill="#000000" font-family="sans-serif" font-size="14" font-weight="bold" lengthAdjust="spacing" textLength="147.3008" x="91.22" y="214.292">sequence_diagram</text></a><!--cluster C_0009413724933622552589--><a href="namespaceclanguml_1_1package__diagram.html" target="_top" title="package_diagram" xlink:actuate="onRequest" xlink:href="namespaceclanguml_1_1package__diagram.html" xlink:show="new" xlink:title="package_diagram" xlink:type="simple"><path d="M357.72,86.2969 L496.9905,86.2969 A3.75,3.75 0 0 1 499.4905,88.7969 L506.4905,108.5938 L596.72,108.5938 A2.5,2.5 0 0 1 599.22,111.0938 L599.22,300.7969 A2.5,2.5 0 0 1 596.72,303.2969 L357.72,303.2969 A2.5,2.5 0 0 1 355.22,300.7969 L355.22,88.7969 A2.5,2.5 0 0 1 357.72,86.2969 " fill="transparent" style="stroke:#000000;stroke-width:1.5;"/><line style="stroke:#000000;stroke-width:1.5;" x1="355.22" x2="506.4905" y1="108.5938" y2="108.5938"/><text fill="#000000" font-family="sans-serif" font-size="14" font-weight="bold" lengthAdjust="spacing" textLength="138.2705" x="359.22" y="101.292">package_diagram</text></a><a href="namespaceclanguml_1_1common_1_1model.html" target="_top" title="model" xlink:actuate="onRequest" xlink:href="namespaceclanguml_1_1common_1_1model.html" xlink:show="new" xlink:title="model" xlink:type="simple"><path d="M677.22,491.2969 L726.7415,491.2969 A3.75,3.75 0 0 1 729.2415,493.7969 L736.2415,513.5938 L740.7415,513.5938 A2.5,2.5 0 0 1 743.2415,516.0938 L743.2415,541.3906 A2.5,2.5 0 0 1 740.7415,543.8906 L677.22,543.8906 A2.5,2.5 0 0 1 674.72,541.3906 L674.72,493.7969 A2.5,2.5 0 0 1 677.22,491.2969 " fill="#F1F1F1" style="stroke:#181818;stroke-width:0.5;"/><line style="stroke:#181818;stroke-width:0.5;" x1="674.72" x2="736.2415" y1="513.5938" y2="513.5938"/><text fill="#000000" font-family="sans-serif" font-size="14" font-weight="bold" lengthAdjust="spacing" textLength="48.5215" x="678.72" y="506.292">model</text></a><a href="namespaceclanguml_1_1common_1_1visitor.html" target="_top" title="visitor" xlink:actuate="onRequest" xlink:href="namespaceclanguml_1_1common_1_1visitor.html" xlink:show="new" xlink:title="visitor" xlink:type="simple"><path d="M552.72,378.2969 L603.9915,378.2969 A3.75,3.75 0 0 1 606.4915,380.7969 L613.4915,400.5938 L617.9915,400.5938 A2.5,2.5 0 0 1 620.4915,403.0938 L620.4915,428.3906 A2.5,2.5 0 0 1 617.9915,430.8906 L552.72,430.8906 A2.5,2.5 0 0 1 550.22,428.3906 L550.22,380.7969 A2.5,2.5 0 0 1 552.72,378.2969 " fill="#F1F1F1" style="stroke:#181818;stroke-width:0.5;"/><line style="stroke:#181818;stroke-width:0.5;" x1="550.22" x2="613.4915" y1="400.5938" y2="400.5938"/><text fill="#000000" font-family="sans-serif" font-size="14" font-weight="bold" lengthAdjust="spacing" textLength="50.2715" x="554.22" y="393.292">visitor</text></a><a href="namespaceclanguml_1_1common_1_1generators.html" target="_top" title="generators" xlink:actuate="onRequest" xlink:href="namespaceclanguml_1_1common_1_1generators.html" xlink:show="new" xlink:title="generators" xlink:type="simple"><path d="M658.22,378.2969 L746.0979,378.2969 A3.75,3.75 0 0 1 748.5979,380.7969 L755.5979,400.5938 L760.0979,400.5938 A2.5,2.5 0 0 1 762.5979,403.0938 L762.5979,428.3906 A2.5,2.5 0 0 1 760.0979,430.8906 L658.22,430.8906 A2.5,2.5 0 0 1 655.72,428.3906 L655.72,380.7969 A2.5,2.5 0 0 1 658.22,378.2969 " fill="#F1F1F1" style="stroke:#181818;stroke-width:0.5;"/><line style="stroke:#181818;stroke-width:0.5;" x1="655.72" x2="755.5979" y1="400.5938" y2="400.5938"/><text fill="#000000" font-family="sans-serif" font-size="14" font-weight="bold" lengthAdjust="spacing" textLength="86.8779" x="659.72" y="393.292">generators</text></a><a href="namespaceclanguml_1_1config.html" target="_top" title="config" xlink:actuate="onRequest" xlink:href="namespaceclanguml_1_1config.html" xlink:show="new" xlink:title="config" xlink:type="simple"><path d="M416.22,491.2969 L466.0149,491.2969 A3.75,3.75 0 0 1 468.5149,493.7969 L475.5149,513.5938 L480.0149,513.5938 A2.5,2.5 0 0 1 482.5149,516.0938 L482.5149,541.3906 A2.5,2.5 0 0 1 480.0149,543.8906 L416.22,543.8906 A2.5,2.5 0 0 1 413.72,541.3906 L413.72,493.7969 A2.5,2.5 0 0 1 416.22,491.2969 " fill="#F1F1F1" style="stroke:#181818;stroke-width:0.5;"/><line style="stroke:#181818;stroke-width:0.5;" x1="413.72" x2="475.5149" y1="513.5938" y2="513.5938"/><text fill="#000000" font-family="sans-serif" font-size="14" font-weight="bold" lengthAdjust="spacing" textLength="48.7949" x="417.72" y="506.292">config</text></a><a href="namespaceclanguml_1_1class__diagram_1_1model.html" target="_top" title="model" xlink:actuate="onRequest" xlink:href="namespaceclanguml_1_1class__diagram_1_1model.html" xlink:show="new" xlink:title="model" xlink:type="simple"><path d="M949.22,378.2969 L998.7415,378.2969 A3.75,3.75 0 0 1 1001.2415,380.7969 L1008.2415,400.5938 L1012.7415,400.5938 A2.5,2.5 0 0 1 1015.2415,403.0938 L1015.2415,428.3906 A2.5,2.5 0 0 1 1012.7415,430.8906 L949.22,430.8906 A2.5,2.5 0 0 1 946.72,428.3906 L946.72,380.7969 A2.5,2.5 0 0 1 949.22,378.2969 " fill="#F1F1F1" style="stroke:#181818;stroke-width:0.5;"/><line style="stroke:#181818;stroke-width:0.5;" x1="946.72" x2="1008.2415" y1="400.5938" y2="400.5938"/><text fill="#000000" font-family="sans-serif" font-size="14" font-weight="bold" lengthAdjust="spacing" textLength="48.5215" x="950.72" y="393.292">model</text></a><a href="namespaceclanguml_1_1class__diagram_1_1visitor.html" target="_top" title="visitor" xlink:actuate="onRequest" xlink:href="namespaceclanguml_1_1class__diagram_1_1visitor.html" xlink:show="new" xlink:title="visitor" xlink:type="simple"><path d="M909.72,234.2969 L960.9915,234.2969 A3.75,3.75 0 0 1 963.4915,236.7969 L970.4915,256.5938 L974.9915,256.5938 A2.5,2.5 0 0 1 977.4915,259.0938 L977.4915,284.3906 A2.5,2.5 0 0 1 974.9915,286.8906 L909.72,286.8906 A2.5,2.5 0 0 1 907.22,284.3906 L907.22,236.7969 A2.5,2.5 0 0 1 909.72,234.2969 " fill="#F1F1F1" style="stroke:#181818;stroke-width:0.5;"/><line style="stroke:#181818;stroke-width:0.5;" x1="907.22" x2="970.4915" y1="256.5938" y2="256.5938"/><text fill="#000000" font-family="sans-serif" font-size="14" font-weight="bold" lengthAdjust="spacing" textLength="50.2715" x="911.22" y="249.292">visitor</text></a><a href="namespaceclanguml_1_1class__diagram_1_1generators.html" target="_top" title="generators" xlink:actuate="onRequest" xlink:href="namespaceclanguml_1_1class__diagram_1_1generators.html" xlink:show="new" xlink:title="generators" xlink:type="simple"><path d="M1015.22,234.2969 L1103.0979,234.2969 A3.75,3.75 0 0 1 1105.5979,236.7969 L1112.5979,256.5938 L1117.0979,256.5938 A2.5,2.5 0 0 1 1119.5979,259.0938 L1119.5979,284.3906 A2.5,2.5 0 0 1 1117.0979,286.8906 L1015.22,286.8906 A2.5,2.5 0 0 1 1012.72,284.3906 L1012.72,236.7969 A2.5,2.5 0 0 1 1015.22,234.2969 " fill="#F1F1F1" style="stroke:#181818;stroke-width:0.5;"/><line style="stroke:#181818;stroke-width:0.5;" x1="1012.72" x2="1112.5979" y1="256.5938" y2="256.5938"/><text fill="#000000" font-family="sans-serif" font-size="14" font-weight="bold" lengthAdjust="spacing" textLength="86.8779" x="1016.72" y="249.292">generators</text></a><a href="namespaceclanguml_1_1include__diagram_1_1model.html" target="_top" title="model" xlink:actuate="onRequest" xlink:href="namespaceclanguml_1_1include__diagram_1_1model.html" xlink:show="new" xlink:title="model" xlink:type="simple"><path d="M784.22,234.2969 L833.7415,234.2969 A3.75,3.75 0 0 1 836.2415,236.7969 L843.2415,256.5938 L847.7415,256.5938 A2.5,2.5 0 0 1 850.2415,259.0938 L850.2415,284.3906 A2.5,2.5 0 0 1 847.7415,286.8906 L784.22,286.8906 A2.5,2.5 0 0 1 781.72,284.3906 L781.72,236.7969 A2.5,2.5 0 0 1 784.22,234.2969 " fill="#F1F1F1" style="stroke:#181818;stroke-width:0.5;"/><line style="stroke:#181818;stroke-width:0.5;" x1="781.72" x2="843.2415" y1="256.5938" y2="256.5938"/><text fill="#000000" font-family="sans-serif" font-size="14" font-weight="bold" lengthAdjust="spacing" textLength="48.5215" x="785.72" y="249.292">model</text></a><a href="namespaceclanguml_1_1include__diagram_1_1visitor.html" target="_top" title="visitor" xlink:actuate="onRequest" xlink:href="namespaceclanguml_1_1include__diagram_1_1visitor.html" xlink:show="new" xlink:title="visitor" xlink:type="simple"><path d="M783.72,121.2969 L834.9915,121.2969 A3.75,3.75 0 0 1 837.4915,123.7969 L844.4915,143.5938 L848.9915,143.5938 A2.5,2.5 0 0 1 851.4915,146.0938 L851.4915,171.3906 A2.5,2.5 0 0 1 848.9915,173.8906 L783.72,173.8906 A2.5,2.5 0 0 1 781.22,171.3906 L781.22,123.7969 A2.5,2.5 0 0 1 783.72,121.2969 " fill="#F1F1F1" style="stroke:#181818;stroke-width:0.5;"/><line style="stroke:#181818;stroke-width:0.5;" x1="781.22" x2="844.4915" y1="143.5938" y2="143.5938"/><text fill="#000000" font-family="sans-serif" font-size="14" font-weight="bold" lengthAdjust="spacing" textLength="50.2715" x="785.22" y="136.292">visitor</text></a><a href="namespaceclanguml_1_1include__diagram_1_1generators.html" target="_top" title="generators" xlink:actuate="onRequest" xlink:href="namespaceclanguml_1_1include__diagram_1_1generators.html" xlink:show="new" xlink:title="generators" xlink:type="simple"><path d="M641.22,121.2969 L729.0979,121.2969 A3.75,3.75 0 0 1 731.5979,123.7969 L738.5979,143.5938 L743.0979,143.5938 A2.5,2.5 0 0 1 745.5979,146.0938 L745.5979,171.3906 A2.5,2.5 0 0 1 743.0979,173.8906 L641.22,173.8906 A2.5,2.5 0 0 1 638.72,171.3906 L638.72,123.7969 A2.5,2.5 0 0 1 641.22,121.2969 " fill="#F1F1F1" style="stroke:#181818;stroke-width:0.5;"/><line style="stroke:#181818;stroke-width:0.5;" x1="638.72" x2="738.5979" y1="143.5938" y2="143.5938"/><text fill="#000000" font-family="sans-serif" font-size="14" font-weight="bold" lengthAdjust="spacing" textLength="86.8779" x="642.72" y="136.292">generators</text></a><a href="namespaceclanguml_1_1sequence__diagram_1_1model.html" target="_top" title="model" xlink:actuate="onRequest" xlink:href="namespaceclanguml_1_1sequence__diagram_1_1model.html" xlink:show="new" xlink:title="model" xlink:type="simple"><path d="M248.22,378.2969 L297.7415,378.2969 A3.75,3.75 0 0 1 300.2415,380.7969 L307.2415,400.5938 L311.7415,400.5938 A2.5,2.5 0 0 1 314.2415,403.0938 L314.2415,428.3906 A2.5,2.5 0 0 1 311.7415,430.8906 L248.22,430.8906 A2.5,2.5 0 0 1 245.72,428.3906 L245.72,380.7969 A2.5,2.5 0 0 1 248.22,378.2969 " fill="#F1F1F1" style="stroke:#181818;stroke-width:0.5;"/><line style="stroke:#181818;stroke-width:0.5;" x1="245.72" x2="307.2415" y1="400.5938" y2="400.5938"/><text fill="#000000" font-family="sans-serif" font-size="14" font-weight="bold" lengthAdjust="spacing" textLength="48.5215" x="249.72" y="393.292">model</text></a><a href="namespaceclanguml_1_1sequence__diagram_1_1visitor.html" target="_top" title="visitor" xlink:actuate="onRequest" xlink:href="namespaceclanguml_1_1sequence__diagram_1_1visitor.html" xlink:show="new" xlink:title="visitor" xlink:type="simple"><path d="M247.72,234.2969 L298.9915,234.2969 A3.75,3.75 0 0 1 301.4915,236.7969 L308.4915,256.5938 L312.9915,256.5938 A2.5,2.5 0 0 1 315.4915,259.0938 L315.4915,284.3906 A2.5,2.5 0 0 1 312.9915,286.8906 L247.72,286.8906 A2.5,2.5 0 0 1 245.22,284.3906 L245.22,236.7969 A2.5,2.5 0 0 1 247.72,234.2969 " fill="#F1F1F1" style="stroke:#181818;stroke-width:0.5;"/><line style="stroke:#181818;stroke-width:0.5;" x1="245.22" x2="308.4915" y1="256.5938" y2="256.5938"/><text fill="#000000" font-family="sans-serif" font-size="14" font-weight="bold" lengthAdjust="spacing" textLength="50.2715" x="249.22" y="249.292">visitor</text></a><a href="namespaceclanguml_1_1sequence__diagram_1_1generators.html" target="_top" title="generators" xlink:actuate="onRequest" xlink:href="namespaceclanguml_1_1sequence__diagram_1_1generators.html" xlink:show="new" xlink:title="generators" xlink:type="simple"><path d="M105.22,234.2969 L193.0979,234.2969 A3.75,3.75 0 0 1 195.5979,236.7969 L202.5979,256.5938 L207.0979,256.5938 A2.5,2.5 0 0 1 209.5979,259.0938 L209.5979,284.3906 A2.5,2.5 0 0 1 207.0979,286.8906 L105.22,286.8906 A2.5,2.5 0 0 1 102.72,284.3906 L102.72,236.7969 A2.5,2.5 0 0 1 105.22,234.2969 " fill="#F1F1F1" style="stroke:#181818;stroke-width:0.5;"/><line style="stroke:#181818;stroke-width:0.5;" x1="102.72" x2="202.5979" y1="256.5938" y2="256.5938"/><text fill="#000000" font-family="sans-serif" font-size="14" font-weight="bold" lengthAdjust="spacing" textLength="86.8779" x="106.72" y="249.292">generators</text></a><a href="namespaceclanguml_1_1package__diagram_1_1model.html" target="_top" title="model" xlink:actuate="onRequest" xlink:href="namespaceclanguml_1_1package__diagram_1_1model.html" xlink:show="new" xlink:title="model" xlink:type="simple"><path d="M429.22,234.2969 L478.7415,234.2969 A3.75,3.75 0 0 1 481.2415,236.7969 L488.2415,256.5938 L492.7415,256.5938 A2.5,2.5 0 0 1 495.2415,259.0938 L495.2415,284.3906 A2.5,2.5 0 0 1 492.7415,286.8906 L429.22,286.8906 A2.5,2.5 0 0 1 426.72,284.3906 L426.72,236.7969 A2.5,2.5 0 0 1 429.22,234.2969 " fill="#F1F1F1" style="stroke:#181818;stroke-width:0.5;"/><line style="stroke:#181818;stroke-width:0.5;" x1="426.72" x2="488.2415" y1="256.5938" y2="256.5938"/><text fill="#000000" font-family="sans-serif" font-size="14" font-weight="bold" lengthAdjust="spacing" textLength="48.5215" x="430.72" y="249.292">model</text></a><a href="namespaceclanguml_1_1package__diagram_1_1visitor.html" target="_top" title="visitor" xlink:actuate="onRequest" xlink:href="namespaceclanguml_1_1package__diagram_1_1visitor.html" xlink:show="new" xlink:title="visitor" xlink:type="simple"><path d="M515.72,121.2969 L566.9915,121.2969 A3.75,3.75 0 0 1 569.4915,123.7969 L576.4915,143.5938 L580.9915,143.5938 A2.5,2.5 0 0 1 583.4915,146.0938 L583.4915,171.3906 A2.5,2.5 0 0 1 580.9915,173.8906 L515.72,173.8906 A2.5,2.5 0 0 1 513.22,171.3906 L513.22,123.7969 A2.5,2.5 0 0 1 515.72,121.2969 " fill="#F1F1F1" style="stroke:#181818;stroke-width:0.5;"/><line style="stroke:#181818;stroke-width:0.5;" x1="513.22" x2="576.4915" y1="143.5938" y2="143.5938"/><text fill="#000000" font-family="sans-serif" font-size="14" font-weight="bold" lengthAdjust="spacing" textLength="50.2715" x="517.22" y="136.292">visitor</text></a><a href="namespaceclanguml_1_1package__diagram_1_1generators.html" target="_top" title="generators" xlink:actuate="onRequest" xlink:href="namespaceclanguml_1_1package__diagram_1_1generators.html" xlink:show="new" xlink:title="generators" xlink:type="simple"><path d="M373.22,121.2969 L461.0979,121.2969 A3.75,3.75 0 0 1 463.5979,123.7969 L470.5979,143.5938 L475.0979,143.5938 A2.5,2.5 0 0 1 477.5979,146.0938 L477.5979,171.3906 A2.5,2.5 0 0 1 475.0979,173.8906 L373.22,173.8906 A2.5,2.5 0 0 1 370.72,171.3906 L370.72,123.7969 A2.5,2.5 0 0 1 373.22,121.2969 " fill="#F1F1F1" style="stroke:#181818;stroke-width:0.5;"/><line style="stroke:#181818;stroke-width:0.5;" x1="370.72" x2="470.5979" y1="143.5938" y2="143.5938"/><text fill="#000000" font-family="sans-serif" font-size="14" font-weight="bold" lengthAdjust="spacing" textLength="86.8779" x="374.72" y="136.292">generators</text></a><!--link C_0002532840279361781187 to C_0000891115944470323979--><a href="" target="_top" title="" xlink:actuate="onRequest" xlink:href="" xlink:show="new" xlink:title="" xlink:type="simple"><path codeLine="46" d="M507.1462,409.3223 C507.0027,409.4874 506.8626,409.6575 506.726,409.8327 C506.4526,410.183 506.1928,410.5533 505.9453,410.9423 C503.9656,414.0547 502.7787,418.3688 501.8175,423.2881 C499.895,433.1269 498.875,445.3869 494.22,455.2969 C487.79,468.9969 481.1548,477.0564 471.2148,486.9864 " fill="transparent" id="C_0002532840279361781187-to-C_0000891115944470323979" style="stroke:#181818;stroke-width:1;stroke-dasharray:7.0,7.0;"/><polygon fill="#181818" points="466.97,491.2269,476.1642,487.696,470.5073,487.6931,470.5102,482.0363,466.97,491.2269" style="stroke:#181818;stroke-width:1;"/></a><!--link C_0000891115944470323979 to C_0002532840279361781187--><a href="" target="_top" title="" xlink:actuate="onRequest" xlink:href="" xlink:show="new" xlink:title="" xlink:type="simple"><path codeLine="53" d="M482.9,503.4469 C487.385,500.6919 491.9338,497.5588 496.3812,494.0953 C498.605,492.3636 500.8034,490.5493 502.9559,488.6584 C504.0322,487.7129 505.097,486.7483 506.1477,485.7653 C506.4103,485.5196 506.6721,485.2727 506.933,485.0247 C506.9982,484.9626 502.7235,489.0437 502.7886,488.9815 " fill="transparent" id="C_0000891115944470323979-to-C_0002532840279361781187" style="stroke:#181818;stroke-width:1;stroke-dasharray:7.0,7.0;"/><polygon fill="#181818" points="507.1285,484.8384,497.8566,488.1598,503.5119,488.291,503.3807,493.9463,507.1285,484.8384" style="stroke:#181818;stroke-width:1;"/></a><!--link C_0000669774451444102653 to C_0000891115944470323979--><a href="" target="_top" title="" xlink:actuate="onRequest" xlink:href="" xlink:show="new" xlink:title="" xlink:type="simple"><path codeLine="47" d="M674.3,517.7969 C610.49,517.7969 552.69,517.7969 488.89,517.7969 " fill="transparent" id="C_0000669774451444102653-to-C_0000891115944470323979" style="stroke:#181818;stroke-width:1;stroke-dasharray:7.0,7.0;"/><polygon fill="#181818" points="482.89,517.7969,491.89,521.7969,487.89,517.7969,491.89,513.7969,482.89,517.7969" style="stroke:#181818;stroke-width:1;"/></a><!--link C_0000891115944470323979 to C_0000669774451444102653--><a href="" target="_top" title="" xlink:actuate="onRequest" xlink:href="" xlink:show="new" xlink:title="" xlink:type="simple"><path codeLine="54" d="M482.89,517.7969 C546.69,517.7969 604.49,517.7969 668.3,517.7969 " fill="transparent" id="C_0000891115944470323979-to-C_0000669774451444102653" style="stroke:#181818;stroke-width:1;stroke-dasharray:7.0,7.0;"/><polygon fill="#181818" points="674.3,517.7969,665.3,513.7969,669.3,517.7969,665.3,521.7969,674.3,517.7969" style="stroke:#181818;stroke-width:1;"/></a><!--link C_0000669774451444102653 to C_0007176993879715460962--><a href="" target="_top" title="" xlink:actuate="onRequest" xlink:href="" xlink:show="new" xlink:title="" xlink:type="simple"><path codeLine="48" d="M744.01,512.9469 C791.19,505.7769 874.19,488.0569 937.22,455.2969 C949.44,448.9469 957.1892,444.096 966.3592,435.556 " fill="transparent" id="C_0000669774451444102653-to-C_0007176993879715460962" style="stroke:#181818;stroke-width:1;stroke-dasharray:7.0,7.0;"/><polygon fill="#181818" points="970.75,431.4669,961.4377,434.6734,967.091,434.8745,966.8899,440.5278,970.75,431.4669" style="stroke:#181818;stroke-width:1;"/></a><!--link C_0007176993879715460962 to C_0000669774451444102653--><a href="" target="_top" title="" xlink:actuate="onRequest" xlink:href="" xlink:show="new" xlink:title="" xlink:type="simple"><path codeLine="55" d="M946.43,424.9369 C932.88,435.1769 917.62,447.2969 902.22,455.2969 C849.97,482.4569 789.8631,497.9472 749.7231,506.9972 " fill="transparent" id="C_0007176993879715460962-to-C_0000669774451444102653" style="stroke:#181818;stroke-width:1;stroke-dasharray:7.0,7.0;"/><polygon fill="#181818" points="743.87,508.3169,753.5294,510.2395,748.7476,507.2172,751.7699,502.4354,743.87,508.3169" style="stroke:#181818;stroke-width:1;"/></a><!--link C_0000669774451444102653 to C_0017655759046645114118--><a href="" target="_top" title="" xlink:actuate="onRequest" xlink:href="" xlink:show="new" xlink:title="" xlink:type="simple"><path codeLine="49" d="M689.67,491.4669 C689.52,491.4069 689.37,491.3469 689.22,491.2969 C554.85,442.0169 503.14,505.7669 369.22,455.2969 C349.96,448.0369 335.9292,437.7588 319.6892,426.6288 " fill="transparent" id="C_0000669774451444102653-to-C_0017655759046645114118" style="stroke:#181818;stroke-width:1;stroke-dasharray:7.0,7.0;"/><polygon fill="#181818" points="314.74,423.2369,319.9026,431.6242,318.8644,426.0635,324.4251,425.0253,314.74,423.2369" style="stroke:#181818;stroke-width:1;"/></a><!--link C_0017655759046645114118 to C_0000669774451444102653--><a href="" target="_top" title="" xlink:actuate="onRequest" xlink:href="" xlink:show="new" xlink:title="" xlink:type="simple"><path codeLine="71" d="M293.95,431.3369 C304.86,440.4069 319.46,449.7369 334.22,455.2969 C468.14,505.7669 519.85,442.0169 654.22,491.2969 C661.08,493.8169 662.7906,494.7042 669.5306,498.7942 " fill="transparent" id="C_0017655759046645114118-to-C_0000669774451444102653" style="stroke:#181818;stroke-width:1;stroke-dasharray:7.0,7.0;"/><polygon fill="#181818" points="674.66,501.9069,669.0409,493.8182,670.3855,499.313,664.8907,500.6575,674.66,501.9069" style="stroke:#181818;stroke-width:1;"/></a><!--link C_0016474478155368192384 to C_0000669774451444102653--><a href="" target="_top" title="" xlink:actuate="onRequest" xlink:href="" xlink:show="new" xlink:title="" xlink:type="simple"><path codeLine="50" d="M612.28,431.4269 C620.54,439.1669 629.7,447.6369 638.22,455.2969 C651.44,467.1869 661.7218,476.1836 674.4018,487.0936 " fill="transparent" id="C_0016474478155368192384-to-C_0000669774451444102653" style="stroke:#181818;stroke-width:1;stroke-dasharray:7.0,7.0;"/><polygon fill="#181818" points="678.95,491.0069,674.7366,482.1048,675.1598,487.7458,669.5188,488.169,678.95,491.0069" style="stroke:#181818;stroke-width:1;"/></a><!--link C_0016474478155368192384 to C_0000891115944470323979--><a href="" target="_top" title="" xlink:actuate="onRequest" xlink:href="" xlink:show="new" xlink:title="" xlink:type="simple"><path codeLine="51" d="M567.72,431.4069 C561.47,439.5569 554.03,448.2769 546.22,455.2969 C527.1,472.4769 507.8309,484.9178 488.1109,495.9978 " fill="transparent" id="C_0016474478155368192384-to-C_0000891115944470323979" style="stroke:#181818;stroke-width:1;stroke-dasharray:7.0,7.0;"/><polygon fill="#181818" points="482.88,498.9369,492.6857,498.0155,487.2391,496.4877,488.7669,491.0411,482.88,498.9369" style="stroke:#181818;stroke-width:1;"/></a><!--link C_0009021568372907770570 to C_0000669774451444102653--><a href="" target="_top" title="" xlink:actuate="onRequest" xlink:href="" xlink:show="new" xlink:title="" xlink:type="simple"><path codeLine="52" d="M709.22,431.5369 C709.22,449.4769 709.22,467.2869 709.22,485.1869 " fill="transparent" id="C_0009021568372907770570-to-C_0000669774451444102653" style="stroke:#181818;stroke-width:1;stroke-dasharray:7.0,7.0;"/><polygon fill="#181818" points="709.22,491.1869,713.22,482.1869,709.22,486.1869,705.22,482.1869,709.22,491.1869" style="stroke:#181818;stroke-width:1;"/></a><!--link C_0007176993879715460962 to C_0002532840279361781187--><a href="" target="_top" title="" xlink:actuate="onRequest" xlink:href="" xlink:show="new" xlink:title="" xlink:type="simple"><path codeLine="56" d="M968.43,377.9769 C957.88,358.7369 941.1,333.7569 919.22,319.2969 C912.57,314.8969 909.65,316.1869 901.72,315.2969 C863.08,310.9369 590.37,310.9369 551.72,315.2969 C543.79,316.1869 539.85,313.6369 534.22,319.2969 C531.0038,322.5319 528.2805,326.1828 525.9788,330.1078 C525.4033,331.089 524.8543,332.0874 524.3304,333.1007 C524.0685,333.6073 523.8129,334.1177 523.5634,334.6315 C523.5011,334.7599 526.0263,329.475 525.9647,329.6039 " fill="transparent" id="C_0007176993879715460962-to-C_0002532840279361781187" style="stroke:#181818;stroke-width:1;stroke-dasharray:7.0,7.0;"/><polygon fill="#181818" points="523.3775,335.0175,530.8673,328.6219,525.5335,330.5062,523.6492,325.1724,523.3775,335.0175" style="stroke:#181818;stroke-width:1;"/></a><!--link C_0014897743554774430622 to C_0002532840279361781187--><a href="" target="_top" title="" xlink:actuate="onRequest" xlink:href="" xlink:show="new" xlink:title="" xlink:type="simple"><path codeLine="57" d="M911.76,287.5069 C898.87,296.8369 883.15,306.3069 867.22,311.2969 C849.56,316.8269 548.53,307.5669 534.22,319.2969 C530.5575,322.3006 527.5086,325.8445 524.9777,329.7502 C524.345,330.7266 523.7447,331.7256 523.1752,332.7445 C522.8905,333.2539 522.6135,333.7683 522.344,334.2873 C522.2093,334.5468 524.7616,329.4418 524.6306,329.7035 " fill="transparent" id="C_0014897743554774430622-to-C_0002532840279361781187" style="stroke:#181818;stroke-width:1;stroke-dasharray:7.0,7.0;"/><polygon fill="#181818" points="521.9455,335.0692,529.5503,328.8108,524.1831,330.5978,522.3961,325.2306,521.9455,335.0692" style="stroke:#181818;stroke-width:1;"/></a><!--link C_0014897743554774430622 to C_0007176993879715460962--><a href="" target="_top" title="" xlink:actuate="onRequest" xlink:href="" xlink:show="new" xlink:title="" xlink:type="simple"><path codeLine="58" d="M949.28,287.5169 C956.35,313.2469 965.571,346.8211 972.621,372.4911 " fill="transparent" id="C_0014897743554774430622-to-C_0007176993879715460962" style="stroke:#181818;stroke-width:1;stroke-dasharray:7.0,7.0;"/><polygon fill="#181818" points="974.21,378.2769,975.6837,368.5389,972.8858,373.4554,967.9693,370.6576,974.21,378.2769" style="stroke:#181818;stroke-width:1;"/></a><!--link C_0014897743554774430622 to C_0000669774451444102653--><a href="" target="_top" title="" xlink:actuate="onRequest" xlink:href="" xlink:show="new" xlink:title="" xlink:type="simple"><path codeLine="59" d="M922.97,287.3869 C915.86,297.1869 907.92,308.5869 901.22,319.2969 C864.73,377.6369 876.31,407.0769 827.22,455.2969 C803.57,478.5269 774.9436,492.8407 749.4436,502.8707 " fill="transparent" id="C_0014897743554774430622-to-C_0000669774451444102653" style="stroke:#181818;stroke-width:1;stroke-dasharray:7.0,7.0;"/><polygon fill="#181818" points="743.86,505.0669,753.6996,505.495,748.513,503.2367,750.7713,498.0501,743.86,505.0669" style="stroke:#181818;stroke-width:1;"/></a><!--link C_0014897743554774430622 to C_0016474478155368192384--><a href="" target="_top" title="" xlink:actuate="onRequest" xlink:href="" xlink:show="new" xlink:title="" xlink:type="simple"><path codeLine="60" d="M911.74,287.4169 C898.83,296.7369 883.12,306.2169 867.22,311.2969 C842.97,319.0469 660.28,306.5869 638.22,319.2969 C616.02,332.0969 604.0287,352.7783 595.9587,372.6383 " fill="transparent" id="C_0014897743554774430622-to-C_0016474478155368192384" style="stroke:#181818;stroke-width:1;stroke-dasharray:7.0,7.0;"/><polygon fill="#181818" points="593.7,378.1969,600.7938,371.3648,595.5823,373.5647,593.3823,368.3531,593.7,378.1969" style="stroke:#181818;stroke-width:1;"/></a><!--link C_0014897743554774430622 to C_0000891115944470323979--><a href="" target="_top" title="" xlink:actuate="onRequest" xlink:href="" xlink:show="new" xlink:title="" xlink:type="simple"><path codeLine="61" d="M911.77,287.5269 C898.87,296.8569 883.16,306.3269 867.22,311.2969 C847.7,317.3869 515.25,306.5969 499.22,319.2969 C472.36,340.5669 457.6967,436.561 451.7767,485.081 " fill="transparent" id="C_0014897743554774430622-to-C_0000891115944470323979" style="stroke:#181818;stroke-width:1;stroke-dasharray:7.0,7.0;"/><polygon fill="#181818" points="451.05,491.0369,456.1106,482.5876,451.6556,486.0737,448.1695,481.6187,451.05,491.0369" style="stroke:#181818;stroke-width:1;"/></a><!--link C_0009622476828277248866 to C_0000669774451444102653--><a href="" target="_top" title="" xlink:actuate="onRequest" xlink:href="" xlink:show="new" xlink:title="" xlink:type="simple"><path codeLine="62" d="M1036.29,287.5269 C1024.28,296.5069 1009.82,305.7269 995.22,311.2969 C967.62,321.8369 952.74,301.4069 929.22,319.2969 C877.2,358.8769 920.17,409.8169 873.22,455.2969 C837.51,489.8869 786.4221,504.2973 749.9021,510.9773 " fill="transparent" id="C_0009622476828277248866-to-C_0000669774451444102653" style="stroke:#181818;stroke-width:1;stroke-dasharray:7.0,7.0;"/><polygon fill="#181818" points="744,512.0569,753.5728,514.3722,748.9184,511.1572,752.1334,506.5028,744,512.0569" style="stroke:#181818;stroke-width:1;"/></a><!--link C_0009622476828277248866 to C_0007176993879715460962--><a href="" target="_top" title="" xlink:actuate="onRequest" xlink:href="" xlink:show="new" xlink:title="" xlink:type="simple"><path codeLine="63" d="M1050.83,287.5169 C1035.42,313.2469 1014.9408,347.4582 999.5808,373.1282 " fill="transparent" id="C_0009622476828277248866-to-C_0007176993879715460962" style="stroke:#181818;stroke-width:1;stroke-dasharray:7.0,7.0;"/><polygon fill="#181818" points="996.5,378.2769,1004.5536,372.6077,999.0673,373.9863,997.6887,368.5,996.5,378.2769" style="stroke:#181818;stroke-width:1;"/></a><!--link C_0009622476828277248866 to C_0009021568372907770570--><a href="" target="_top" title="" xlink:actuate="onRequest" xlink:href="" xlink:show="new" xlink:title="" xlink:type="simple"><path codeLine="64" d="M1037.11,287.3469 C1024.97,296.5369 1010.22,305.9469 995.22,311.2969 C951.56,326.8769 936.07,307.5669 891.22,319.2969 C841.51,332.2969 793.915,355.4712 758.055,375.2312 " fill="transparent" id="C_0009622476828277248866-to-C_0009021568372907770570" style="stroke:#181818;stroke-width:1;stroke-dasharray:7.0,7.0;"/><polygon fill="#181818" points="752.8,378.1269,762.613,377.2867,757.1792,375.7138,758.7521,370.28,752.8,378.1269" style="stroke:#181818;stroke-width:1;"/></a><!--link C_0004362631048833985714 to C_0002532840279361781187--><a href="" target="_top" title="" xlink:actuate="onRequest" xlink:href="" xlink:show="new" xlink:title="" xlink:type="simple"><path codeLine="65" d="M781.55,279.8169 C758.13,291.0469 726.13,304.5969 696.22,311.2969 C678.64,315.2369 548.01,307.6969 534.22,319.2969 C530.5963,322.3469 527.5766,325.9256 525.0671,329.8568 C524.4398,330.8396 523.8443,331.8445 523.2793,332.8686 C522.9968,333.3806 522.7219,333.8975 522.4544,334.4188 C522.3206,334.6795 524.8494,329.5635 524.7194,329.8264 " fill="transparent" id="C_0004362631048833985714-to-C_0002532840279361781187" style="stroke:#181818;stroke-width:1;stroke-dasharray:7.0,7.0;"/><polygon fill="#181818" points="522.0587,335.2042,529.6349,328.9113,524.2759,330.7227,522.4645,325.3637,522.0587,335.2042" style="stroke:#181818;stroke-width:1;"/></a><!--link C_0004362631048833985714 to C_0000669774451444102653--><a href="" target="_top" title="" xlink:actuate="onRequest" xlink:href="" xlink:show="new" xlink:title="" xlink:type="simple"><path codeLine="66" d="M822.27,287.3869 C830.04,326.5269 839.14,402.2969 808.22,455.2969 C794.15,479.4169 771.9985,493.0519 749.4785,502.6619 " fill="transparent" id="C_0004362631048833985714-to-C_0000669774451444102653" style="stroke:#181818;stroke-width:1;stroke-dasharray:7.0,7.0;"/><polygon fill="#181818" points="743.96,505.0169,753.8078,505.1635,748.5588,503.0544,750.6679,497.8054,743.96,505.0169" style="stroke:#181818;stroke-width:1;"/></a><!--link C_0002398062589073292507 to C_0004362631048833985714--><a href="" target="_top" title="" xlink:actuate="onRequest" xlink:href="" xlink:show="new" xlink:title="" xlink:type="simple"><path codeLine="67" d="M816.22,174.5369 C816.22,192.4769 816.22,210.2869 816.22,228.1869 " fill="transparent" id="C_0002398062589073292507-to-C_0004362631048833985714" style="stroke:#181818;stroke-width:1;stroke-dasharray:7.0,7.0;"/><polygon fill="#181818" points="816.22,234.1869,820.22,225.1869,816.22,229.1869,812.22,225.1869,816.22,234.1869" style="stroke:#181818;stroke-width:1;"/></a><!--link C_0002398062589073292507 to C_0000891115944470323979--><a href="" target="_top" title="" xlink:actuate="onRequest" xlink:href="" xlink:show="new" xlink:title="" xlink:type="simple"><path codeLine="68" d="M781.11,167.2469 C775.24,169.8769 769.14,172.3469 763.22,174.2969 C724.98,186.9069 707.45,168.5469 674.22,191.2969 C622.33,226.8369 653.4,279.3669 599.22,311.2969 C584.75,319.8269 459.78,307.1069 448.22,319.2969 C404.22,365.6969 422.4123,443.6216 436.5723,485.6016 " fill="transparent" id="C_0002398062589073292507-to-C_0000891115944470323979" style="stroke:#181818;stroke-width:1;stroke-dasharray:7.0,7.0;"/><polygon fill="#181818" points="438.49,491.2869,439.4037,481.4805,436.8919,486.5491,431.8233,484.0374,438.49,491.2869" style="stroke:#181818;stroke-width:1;"/></a><!--link C_0002398062589073292507 to C_0002532840279361781187--><a href="" target="_top" title="" xlink:actuate="onRequest" xlink:href="" xlink:show="new" xlink:title="" xlink:type="simple"><path codeLine="69" d="M781.03,167.0069 C775.17,169.6669 769.09,172.2069 763.22,174.2969 C732.65,185.1669 713.36,166.6769 692.22,191.2969 C674.79,211.5969 701.42,292.6569 682.22,311.2969 C658.59,334.2469 559.37,298.0369 534.22,319.2969 C530.6025,322.3544 527.5877,325.9388 525.0819,329.8741 C524.4555,330.8579 523.8609,331.8637 523.2966,332.8886 C523.0145,333.4011 522.7399,333.9183 522.4728,334.4401 C522.3392,334.7009 524.864,329.583 524.7341,329.8461 " fill="transparent" id="C_0002398062589073292507-to-C_0002532840279361781187" style="stroke:#181818;stroke-width:1;stroke-dasharray:7.0,7.0;"/><polygon fill="#181818" points="522.0776,335.2259,529.6489,328.9271,524.2914,330.7427,522.4758,325.3851,522.0776,335.2259" style="stroke:#181818;stroke-width:1;"/></a><!--link C_0002398062589073292507 to C_0016474478155368192384--><a href="" target="_top" title="" xlink:actuate="onRequest" xlink:href="" xlink:show="new" xlink:title="" xlink:type="simple"><path codeLine="70" d="M781.28,174.3269 C775.22,179.5669 769.26,185.3269 764.22,191.2969 C724.7,238.1569 746.95,276.8769 696.22,311.2969 C674.69,325.9069 660.08,305.1669 638.22,319.2969 C616.99,333.0169 605.1042,353.0623 596.7742,372.4923 " fill="transparent" id="C_0002398062589073292507-to-C_0016474478155368192384" style="stroke:#181818;stroke-width:1;stroke-dasharray:7.0,7.0;"/><polygon fill="#181818" points="594.41,378.0069,601.6327,371.3111,596.3802,373.4114,594.2799,368.1589,594.41,378.0069" style="stroke:#181818;stroke-width:1;"/></a><!--link C_0017655759046645114118 to C_0002532840279361781187--><a href="" target="_top" title="" xlink:actuate="onRequest" xlink:href="" xlink:show="new" xlink:title="" xlink:type="simple"><path codeLine="72" d="M315.1,404.7969 C348.39,404.7969 381.68,404.7969 414.9688,404.7969 C431.6131,404.7969 448.2572,404.7969 464.9008,404.7969 C473.2226,404.7969 481.5443,404.7969 489.8658,404.7969 C494.0266,404.7969 498.1873,404.7969 502.348,404.7969 C503.3882,404.7969 504.4284,404.7969 505.4685,404.7969 C505.9886,404.7969 500.5087,404.7969 501.0288,404.7969 " fill="transparent" id="C_0017655759046645114118-to-C_0002532840279361781187" style="stroke:#181818;stroke-width:1;stroke-dasharray:7.0,7.0;"/><polygon fill="#181818" points="507.0288,404.7969,498.0288,400.7969,502.0288,404.7969,498.0288,408.7969,507.0288,404.7969" style="stroke:#181818;stroke-width:1;"/></a><!--link C_0017655759046645114118 to C_0000891115944470323979--><a href="" target="_top" title="" xlink:actuate="onRequest" xlink:href="" xlink:show="new" xlink:title="" xlink:type="simple"><path codeLine="73" d="M315.04,430.5269 C326.49,438.5369 339.34,447.3869 351.22,455.2969 C371.64,468.8769 389.7446,480.4227 408.3346,492.0627 " fill="transparent" id="C_0017655759046645114118-to-C_0000891115944470323979" style="stroke:#181818;stroke-width:1;stroke-dasharray:7.0,7.0;"/><polygon fill="#181818" points="413.42,495.2469,407.9147,487.0804,409.1822,492.5934,403.6692,493.8609,413.42,495.2469" style="stroke:#181818;stroke-width:1;"/></a><!--link C_0002812166065521257903 to C_0002532840279361781187--><a href="" target="_top" title="" xlink:actuate="onRequest" xlink:href="" xlink:show="new" xlink:title="" xlink:type="simple"><path codeLine="74" d="M315.4,285.6869 C327.87,293.9669 342.06,303.2069 355.22,311.2969 C361.33,315.0469 363.01,315.7269 369.22,319.2969 C401.21,337.6919 437.0775,358.4494 465.2562,374.7881 C479.3456,382.9575 491.5128,390.0222 500.312,395.1345 C502.5118,396.4126 504.5011,397.5687 506.2574,398.5895 C506.4769,398.7171 501.5055,395.8273 501.7177,395.9506 " fill="transparent" id="C_0002812166065521257903-to-C_0002532840279361781187" style="stroke:#181818;stroke-width:1;stroke-dasharray:7.0,7.0;"/><polygon fill="#181818" points="506.905,398.9659,501.1342,390.9848,502.5822,396.4532,497.1138,397.9012,506.905,398.9659" style="stroke:#181818;stroke-width:1;"/></a><!--link C_0002812166065521257903 to C_0017655759046645114118--><a href="" target="_top" title="" xlink:actuate="onRequest" xlink:href="" xlink:show="new" xlink:title="" xlink:type="simple"><path codeLine="75" d="M280.22,287.5169 C280.22,313.2469 280.22,346.6069 280.22,372.2769 " fill="transparent" id="C_0002812166065521257903-to-C_0017655759046645114118" style="stroke:#181818;stroke-width:1;stroke-dasharray:7.0,7.0;"/><polygon fill="#181818" points="280.22,378.2769,284.22,369.2769,280.22,373.2769,276.22,369.2769,280.22,378.2769" style="stroke:#181818;stroke-width:1;"/></a><!--link C_0002812166065521257903 to C_0000669774451444102653--><a href="" target="_top" title="" xlink:actuate="onRequest" xlink:href="" xlink:show="new" xlink:title="" xlink:type="simple"><path codeLine="76" d="M303.68,287.4169 C312.67,297.3169 322.98,308.7769 332.22,319.2969 C384.65,378.9869 378.98,416.3569 448.22,455.2969 C535.73,504.5069 577.82,454.4769 671.22,491.2969 C672.26,491.7069 667.8115,489.7002 668.8415,490.1602 " fill="transparent" id="C_0002812166065521257903-to-C_0000669774451444102653" style="stroke:#181818;stroke-width:1;stroke-dasharray:7.0,7.0;"/><polygon fill="#181818" points="674.32,492.6069,667.7334,485.2845,669.7546,490.568,664.4712,492.5891,674.32,492.6069" style="stroke:#181818;stroke-width:1;"/></a><!--link C_0002812166065521257903 to C_0016474478155368192384--><a href="" target="_top" title="" xlink:actuate="onRequest" xlink:href="" xlink:show="new" xlink:title="" xlink:type="simple"><path codeLine="77" d="M310.72,287.3669 C323.63,296.6769 339.34,306.1669 355.22,311.2969 C375.43,317.8269 528.57,307.4769 546.22,319.2969 C565.96,332.5169 574.4473,352.5929 579.3173,372.2529 " fill="transparent" id="C_0002812166065521257903-to-C_0016474478155368192384" style="stroke:#181818;stroke-width:1;stroke-dasharray:7.0,7.0;"/><polygon fill="#181818" points="580.76,378.0769,582.4787,368.3791,579.5578,373.2236,574.7134,370.3027,580.76,378.0769" style="stroke:#181818;stroke-width:1;"/></a><!--link C_0002812166065521257903 to C_0000891115944470323979--><a href="" target="_top" title="" xlink:actuate="onRequest" xlink:href="" xlink:show="new" xlink:title="" xlink:type="simple"><path codeLine="78" d="M249.57,287.5469 C240.99,296.5969 232.77,307.4869 228.22,319.2969 C206.5,375.7069 191.68,407.1469 228.22,455.2969 C250.58,484.7569 351.1835,503.0665 407.3835,511.3065 " fill="transparent" id="C_0002812166065521257903-to-C_0000891115944470323979" style="stroke:#181818;stroke-width:1;stroke-dasharray:7.0,7.0;"/><polygon fill="#181818" points="413.32,512.1769,404.9955,506.9136,408.3729,511.4515,403.8349,514.8289,413.32,512.1769" style="stroke:#181818;stroke-width:1;"/></a><!--link C_0012558484942253952660 to C_0002532840279361781187--><a href="" target="_top" title="" xlink:actuate="onRequest" xlink:href="" xlink:show="new" xlink:title="" xlink:type="simple"><path codeLine="79" d="M471,287.5169 C478.66,307.6569 489.4925,336.1394 498.5188,359.8744 C500.7753,365.8081 502.919,371.4452 504.872,376.5809 C505.3602,377.8649 505.8365,379.1175 506.2997,380.3356 C506.5313,380.9446 506.7597,381.5451 506.9845,382.1364 C507.0408,382.2843 504.9642,376.8233 505.02,376.9701 " fill="transparent" id="C_0012558484942253952660-to-C_0002532840279361781187" style="stroke:#181818;stroke-width:1;stroke-dasharray:7.0,7.0;"/><polygon fill="#181818" points="507.1526,382.5783,507.6925,372.7442,505.3754,377.9048,500.2149,375.5877,507.1526,382.5783" style="stroke:#181818;stroke-width:1;"/></a><!--link C_0012558484942253952660 to C_0000669774451444102653--><a href="" target="_top" title="" xlink:actuate="onRequest" xlink:href="" xlink:show="new" xlink:title="" xlink:type="simple"><path codeLine="80" d="M458.13,287.4569 C454.69,328.8069 454.6,410.1169 499.22,455.2969 C554.1,510.8669 599.25,460.9769 671.22,491.2969 C672.25,491.7269 667.8519,489.6093 668.8819,490.0993 " fill="transparent" id="C_0012558484942253952660-to-C_0000669774451444102653" style="stroke:#181818;stroke-width:1;stroke-dasharray:7.0,7.0;"/><polygon fill="#181818" points="674.3,492.6769,667.8912,485.1984,669.7849,490.5289,664.4544,492.4226,674.3,492.6769" style="stroke:#181818;stroke-width:1;"/></a><!--link C_0001471162262834345471 to C_0012558484942253952660--><a href="" target="_top" title="" xlink:actuate="onRequest" xlink:href="" xlink:show="new" xlink:title="" xlink:type="simple"><path codeLine="81" d="M528.04,174.5369 C513.99,192.4769 499.0213,211.5646 484.9913,229.4646 " fill="transparent" id="C_0001471162262834345471-to-C_0012558484942253952660" style="stroke:#181818;stroke-width:1;stroke-dasharray:7.0,7.0;"/><polygon fill="#181818" points="481.29,234.1869,489.9902,229.571,484.3744,230.2516,483.6938,224.6359,481.29,234.1869" style="stroke:#181818;stroke-width:1;"/></a><!--link C_0001471162262834345471 to C_0000891115944470323979--><a href="" target="_top" title="" xlink:actuate="onRequest" xlink:href="" xlink:show="new" xlink:title="" xlink:type="simple"><path codeLine="82" d="M513.04,168.1369 C507.23,170.6169 501.17,172.8069 495.22,174.2969 C451.2,185.3069 118.63,158.5569 87.22,191.2969 C6,275.9769 11.54,365.6369 87.22,455.2969 C128.84,504.6069 325.4517,514.2459 407.5617,516.1759 " fill="transparent" id="C_0001471162262834345471-to-C_0000891115944470323979" style="stroke:#181818;stroke-width:1;stroke-dasharray:7.0,7.0;"/><polygon fill="#181818" points="413.56,516.3169,404.6565,512.1065,408.5614,516.1994,404.4685,520.1043,413.56,516.3169" style="stroke:#181818;stroke-width:1;"/></a><!--link C_0001471162262834345471 to C_0002532840279361781187--><a href="" target="_top" title="" xlink:actuate="onRequest" xlink:href="" xlink:show="new" xlink:title="" xlink:type="simple"><path codeLine="83" d="M544.88,174.6469 C540.75,206.5569 533.5,262.5669 527.2025,311.2231 C526.4153,317.3052 525.643,323.2723 524.8935,329.0631 C524.7062,330.5108 524.5202,331.9475 524.3358,333.3722 C524.2897,333.7283 525.0139,328.1334 524.968,328.488 " fill="transparent" id="C_0001471162262834345471-to-C_0002532840279361781187" style="stroke:#181818;stroke-width:1;stroke-dasharray:7.0,7.0;"/><polygon fill="#181818" points="524.1978,334.4384,529.3199,326.0263,524.8396,329.4798,521.3861,324.9994,524.1978,334.4384" style="stroke:#181818;stroke-width:1;"/></a><!--link C_0001471162262834345471 to C_0000669774451444102653--><a href="" target="_top" title="" xlink:actuate="onRequest" xlink:href="" xlink:show="new" xlink:title="" xlink:type="simple"><path codeLine="84" d="M562.69,174.6869 C565.61,180.1269 568.58,185.8669 571.22,191.2969 C596.63,243.5769 575.46,278.1669 623.22,311.2969 C637.57,321.2469 768.19,306.6369 780.22,319.2969 C801.04,341.2069 792.78,427.8069 780.22,455.2969 C772.56,472.0569 762.662,482.4499 748.602,492.7999 " fill="transparent" id="C_0001471162262834345471-to-C_0000669774451444102653" style="stroke:#181818;stroke-width:1;stroke-dasharray:7.0,7.0;"/><polygon fill="#181818" points="743.77,496.3569,753.3893,494.2427,747.7966,493.3927,748.6467,487.8001,743.77,496.3569" style="stroke:#181818;stroke-width:1;"/></a><!--link C_0001471162262834345471 to C_0016474478155368192384--><a href="" target="_top" title="" xlink:actuate="onRequest" xlink:href="" xlink:show="new" xlink:title="" xlink:type="simple"><path codeLine="85" d="M551.97,174.6469 C559.08,223.6569 573.5778,323.5591 580.6578,372.3191 " fill="transparent" id="C_0001471162262834345471-to-C_0016474478155368192384" style="stroke:#181818;stroke-width:1;stroke-dasharray:7.0,7.0;"/><polygon fill="#181818" points="581.52,378.2569,584.1852,368.7755,580.8015,373.3088,576.2683,369.9251,581.52,378.2569" style="stroke:#181818;stroke-width:1;"/></a><!--SRC=[hLYxSjim4Epr5UoSpCGQ70xF9asAf73AfF5uD8m4ovn8b2DAJk7Hl-Ue1obB800oxlZGxWBO1UweJR5PkEnRCN-wNRWNjyZAVEcgvtpgifbxTkNCbTF2LLbHPjD5Nivljyl5Y5x_pkSkkzy_eYSFMLvbNoQCWKOhG0DOnQH2pZNOxFw-8Jq1na-RvUBrTBTxUCXUprXNo-MgR3WPbyYDO5nRLA0DWD4-pWbCu00zik-lBxYNgvbhXykOKbPh8IG88O1n9J5CNL_jEGuQ-yk3nAuLUIcgOhDQjwkY16dGoAL4PS1oD28kSsGv21rlhgJchdJhdDvKxQGiuo2LGSqjqrepgLbShIKw2BRt9ytTkKFbOp4_MqPZ0K1QMaJDaAFLjbknXfuSgg-lvaG_hwh9hCZdwtnv5YtB0L5nOnMWOS98sIcoPpXHD65hMSEfqA2LjMYqrI25ObRnDALXwH2cpY1AAUee8bEyXzpmb92CqCfmmxNcmXYbqbLxfQKefuljp5qxQX2q06E5bifA9InsxhuJnrjFBvZ3hWhAZaAWu1X4QwG6aQeso5T6-y2GcTBGDaHkkMIwZ-1mPy42CZg24Gs5LwB5FhgzlAtSdosL28-vdBobaqXphHGm6ahtA1gIj-vUSWVjfIqhfPQM2QNeE0T1PI9PRw2_XYQf52DX3bngox2Nub23GKXkZ056HoxLGsIqVNe9ztBuU75bCAD2JoMcthHqaj0IKCwxHd7YUEll1NFONb8mmWWhI0kjvBJkgMh3t0L1RGpDZ0eE2XHqE4CVmS6xbtPkNG-arORNGLRTXw9FDyNRtQYphngFFuTA-YkHZ3exf_S1-wjl6hZZ56Z0tawi7RQt6qm5H-RiwyfIbRta3TZV7oU2Oye-Dzu771csjorw7t0aOM5mB2GXSCU7GAfoB66UZYxPgY0ujYM3OF_dI0lszMN9sGw2OtFsDMWDsDyk9e9ZLWN1iJc7mD64-Gx8v6m7mR4j6LQEBPYdrqfVi00uLZ72oj64XPGZLaMKmmlcxPUIhGg2OtFsDKxDdFrjN1eu6f8WE1QIiFB_p3dWy-Zcww4_SxFiRx5vQlza-vIzk7LLhCgCZTKOHZTtTp-_Dyz-_DgMc-tXryr3i6COG_O1jlktyF4V]--></g></svg>