<svg xmlns="http://www.w3.org/2000/svg" xmlns:xlink="http://www.w3.org/1999/xlink" contentStyleType="text/css" data-diagram-type="CLASS" height="1950px" preserveAspectRatio="none" style="width:1869px;height:1950px;background:#FFFFFF;" version="1.1" viewBox="0 0 1869 1950" width="1869px" zoomAndPan="magnify"><title>Translation unit AST visitors</title><defs/><g><text fill="#000000" font-family="sans-serif" font-size="14" font-weight="bold" lengthAdjust="spacing" textLength="224.6426" x="815.1787" y="22.9951">Translation unit AST visitors</text><!--cluster C_0017394171196056322719--><g id="cluster_C_0017394171196056322719"><path d="M8.5,43.2969 L81.3867,43.2969 A3.75,3.75 0 0 1 83.8867,45.7969 L90.8867,65.5938 L1859.5,65.5938 A2.5,2.5 0 0 1 1862,68.0938 L1862,1940.7969 A2.5,2.5 0 0 1 1859.5,1943.2969 L8.5,1943.2969 A2.5,2.5 0 0 1 6,1940.7969 L6,45.7969 A2.5,2.5 0 0 1 8.5,43.2969 " fill="transparent" style="stroke:#000000;stroke-width:1.5;"/><line style="stroke:#000000;stroke-width:1.5;" x1="6" x2="90.8867" y1="65.5938" y2="65.5938"/><text fill="#000000" font-family="sans-serif" font-size="14" font-weight="bold" lengthAdjust="spacing" textLength="71.8867" x="10" y="58.292">clanguml</text></g><!--cluster C_0002532840279361781187--><g id="cluster_C_0002532840279361781187"><path d="M32.5,1215.2969 L100.1777,1215.2969 A3.75,3.75 0 0 1 102.6777,1217.7969 L109.6777,1237.5938 L1328.5,1237.5938 A2.5,2.5 0 0 1 1331,1240.0938 L1331,1916.7969 A2.5,2.5 0 0 1 1328.5,1919.2969 L32.5,1919.2969 A2.5,2.5 0 0 1 30,1916.7969 L30,1217.7969 A2.5,2.5 0 0 1 32.5,1215.2969 " fill="transparent" style="stroke:#000000;stroke-width:1.5;"/><line style="stroke:#000000;stroke-width:1.5;" x1="30" x2="109.6777" y1="1237.5938" y2="1237.5938"/><text fill="#000000" font-family="sans-serif" font-size="14" font-weight="bold" lengthAdjust="spacing" textLength="66.6777" x="34" y="1230.292">common</text></g><!--cluster C_0000669774451444102653--><g id="cluster_C_0000669774451444102653"><path d="M362.5,1258.2969 L412.0215,1258.2969 A3.75,3.75 0 0 1 414.5215,1260.7969 L421.5215,1280.5938 L479.5,1280.5938 A2.5,2.5 0 0 1 482,1283.0938 L482,1354.7969 A2.5,2.5 0 0 1 479.5,1357.2969 L362.5,1357.2969 A2.5,2.5 0 0 1 360,1354.7969 L360,1260.7969 A2.5,2.5 0 0 1 362.5,1258.2969 " fill="transparent" style="stroke:#000000;stroke-width:1.5;"/><line style="stroke:#000000;stroke-width:1.5;" x1="360" x2="421.5215" y1="1280.5938" y2="1280.5938"/><text fill="#000000" font-family="sans-serif" font-size="14" font-weight="bold" lengthAdjust="spacing" textLength="48.5215" x="364" y="1273.292">model</text></g><!--cluster C_0016474478155368192384--><g id="cluster_C_0016474478155368192384"><path d="M56.5,1381.2969 L107.7715,1381.2969 A3.75,3.75 0 0 1 110.2715,1383.7969 L117.2715,1403.5938 L1304.5,1403.5938 A2.5,2.5 0 0 1 1307,1406.0938 L1307,1892.7969 A2.5,2.5 0 0 1 1304.5,1895.2969 L56.5,1895.2969 A2.5,2.5 0 0 1 54,1892.7969 L54,1383.7969 A2.5,2.5 0 0 1 56.5,1381.2969 " fill="transparent" style="stroke:#000000;stroke-width:1.5;"/><line style="stroke:#000000;stroke-width:1.5;" x1="54" x2="117.2715" y1="1403.5938" y2="1403.5938"/><text fill="#000000" font-family="sans-serif" font-size="14" font-weight="bold" lengthAdjust="spacing" textLength="50.2715" x="58" y="1396.292">visitor</text></g><!--cluster C_0017921336289613804855--><g id="cluster_C_0017921336289613804855"><path d="M1005.5,902.2969 L1117.9395,902.2969 A3.75,3.75 0 0 1 1120.4395,904.7969 L1127.4395,924.5938 L1272.5,924.5938 A2.5,2.5 0 0 1 1275,927.0938 L1275,1188.7969 A2.5,2.5 0 0 1 1272.5,1191.2969 L1005.5,1191.2969 A2.5,2.5 0 0 1 1003,1188.7969 L1003,904.7969 A2.5,2.5 0 0 1 1005.5,902.2969 " fill="transparent" style="stroke:#000000;stroke-width:1.5;"/><line style="stroke:#000000;stroke-width:1.5;" x1="1003" x2="1127.4395" y1="924.5938" y2="924.5938"/><text fill="#000000" font-family="sans-serif" font-size="14" font-weight="bold" lengthAdjust="spacing" textLength="111.4395" x="1007" y="917.292">class_diagram</text></g><!--cluster C_0007176993879715460962--><g id="cluster_C_0007176993879715460962"><path d="M1080.5,1068.2969 L1130.0215,1068.2969 A3.75,3.75 0 0 1 1132.5215,1070.7969 L1139.5215,1090.5938 L1197.5,1090.5938 A2.5,2.5 0 0 1 1200,1093.0938 L1200,1164.7969 A2.5,2.5 0 0 1 1197.5,1167.2969 L1080.5,1167.2969 A2.5,2.5 0 0 1 1078,1164.7969 L1078,1070.7969 A2.5,2.5 0 0 1 1080.5,1068.2969 " fill="transparent" style="stroke:#000000;stroke-width:1.5;"/><line style="stroke:#000000;stroke-width:1.5;" x1="1078" x2="1139.5215" y1="1090.5938" y2="1090.5938"/><text fill="#000000" font-family="sans-serif" font-size="14" font-weight="bold" lengthAdjust="spacing" textLength="48.5215" x="1082" y="1083.292">model</text></g><!--cluster C_0014897743554774430622--><g id="cluster_C_0014897743554774430622"><path d="M1029.5,945.2969 L1080.7715,945.2969 A3.75,3.75 0 0 1 1083.2715,947.7969 L1090.2715,967.5938 L1248.5,967.5938 A2.5,2.5 0 0 1 1251,970.0938 L1251,1041.7969 A2.5,2.5 0 0 1 1248.5,1044.2969 L1029.5,1044.2969 A2.5,2.5 0 0 1 1027,1041.7969 L1027,947.7969 A2.5,2.5 0 0 1 1029.5,945.2969 " fill="transparent" style="stroke:#000000;stroke-width:1.5;"/><line style="stroke:#000000;stroke-width:1.5;" x1="1027" x2="1090.2715" y1="967.5938" y2="967.5938"/><text fill="#000000" font-family="sans-serif" font-size="14" font-weight="bold" lengthAdjust="spacing" textLength="50.2715" x="1031" y="960.292">visitor</text></g><!--cluster C_0018317418947569564933--><g id="cluster_C_0018317418947569564933"><path d="M950.5,399.2969 L1081.0752,399.2969 A3.75,3.75 0 0 1 1083.5752,401.7969 L1090.5752,421.5938 L1835.5,421.5938 A2.5,2.5 0 0 1 1838,424.0938 L1838,562.7969 A2.5,2.5 0 0 1 1835.5,565.2969 L950.5,565.2969 A2.5,2.5 0 0 1 948,562.7969 L948,401.7969 A2.5,2.5 0 0 1 950.5,399.2969 " fill="transparent" style="stroke:#000000;stroke-width:1.5;"/><line style="stroke:#000000;stroke-width:1.5;" x1="948" x2="1090.5752" y1="421.5938" y2="421.5938"/><text fill="#000000" font-family="sans-serif" font-size="14" font-weight="bold" lengthAdjust="spacing" textLength="129.5752" x="952" y="414.292">include_diagram</text></g><!--cluster C_0004362631048833985714--><g id="cluster_C_0004362631048833985714"><path d="M1694.5,442.2969 L1744.0215,442.2969 A3.75,3.75 0 0 1 1746.5215,444.7969 L1753.5215,464.5938 L1811.5,464.5938 A2.5,2.5 0 0 1 1814,467.0938 L1814,538.7969 A2.5,2.5 0 0 1 1811.5,541.2969 L1694.5,541.2969 A2.5,2.5 0 0 1 1692,538.7969 L1692,444.7969 A2.5,2.5 0 0 1 1694.5,442.2969 " fill="transparent" style="stroke:#000000;stroke-width:1.5;"/><line style="stroke:#000000;stroke-width:1.5;" x1="1692" x2="1753.5215" y1="464.5938" y2="464.5938"/><text fill="#000000" font-family="sans-serif" font-size="14" font-weight="bold" lengthAdjust="spacing" textLength="48.5215" x="1696" y="457.292">model</text></g><!--cluster C_0002398062589073292507--><g id="cluster_C_0002398062589073292507"><path d="M974.5,442.2969 L1025.7715,442.2969 A3.75,3.75 0 0 1 1028.2715,444.7969 L1035.2715,464.5938 L1583.5,464.5938 A2.5,2.5 0 0 1 1586,467.0938 L1586,538.7969 A2.5,2.5 0 0 1 1583.5,541.2969 L974.5,541.2969 A2.5,2.5 0 0 1 972,538.7969 L972,444.7969 A2.5,2.5 0 0 1 974.5,442.2969 " fill="transparent" style="stroke:#000000;stroke-width:1.5;"/><line style="stroke:#000000;stroke-width:1.5;" x1="972" x2="1035.2715" y1="464.5938" y2="464.5938"/><text fill="#000000" font-family="sans-serif" font-size="14" font-weight="bold" lengthAdjust="spacing" textLength="50.2715" x="976" y="457.292">visitor</text></g><!--cluster C_0009413724933622552589--><g id="cluster_C_0009413724933622552589"><path d="M1005.5,589.2969 L1144.7705,589.2969 A3.75,3.75 0 0 1 1147.2705,591.7969 L1154.2705,611.5938 L1272.5,611.5938 A2.5,2.5 0 0 1 1275,614.0938 L1275,875.7969 A2.5,2.5 0 0 1 1272.5,878.2969 L1005.5,878.2969 A2.5,2.5 0 0 1 1003,875.7969 L1003,591.7969 A2.5,2.5 0 0 1 1005.5,589.2969 " fill="transparent" style="stroke:#000000;stroke-width:1.5;"/><line style="stroke:#000000;stroke-width:1.5;" x1="1003" x2="1154.2705" y1="611.5938" y2="611.5938"/><text fill="#000000" font-family="sans-serif" font-size="14" font-weight="bold" lengthAdjust="spacing" textLength="138.2705" x="1007" y="604.292">package_diagram</text></g><!--cluster C_0012558484942253952660--><g id="cluster_C_0012558484942253952660"><path d="M1080.5,755.2969 L1130.0215,755.2969 A3.75,3.75 0 0 1 1132.5215,757.7969 L1139.5215,777.5938 L1197.5,777.5938 A2.5,2.5 0 0 1 1200,780.0938 L1200,851.7969 A2.5,2.5 0 0 1 1197.5,854.2969 L1080.5,854.2969 A2.5,2.5 0 0 1 1078,851.7969 L1078,757.7969 A2.5,2.5 0 0 1 1080.5,755.2969 " fill="transparent" style="stroke:#000000;stroke-width:1.5;"/><line style="stroke:#000000;stroke-width:1.5;" x1="1078" x2="1139.5215" y1="777.5938" y2="777.5938"/><text fill="#000000" font-family="sans-serif" font-size="14" font-weight="bold" lengthAdjust="spacing" textLength="48.5215" x="1082" y="770.292">model</text></g><!--cluster C_0001471162262834345471--><g id="cluster_C_0001471162262834345471"><path d="M1029.5,632.2969 L1080.7715,632.2969 A3.75,3.75 0 0 1 1083.2715,634.7969 L1090.2715,654.5938 L1248.5,654.5938 A2.5,2.5 0 0 1 1251,657.0938 L1251,728.7969 A2.5,2.5 0 0 1 1248.5,731.2969 L1029.5,731.2969 A2.5,2.5 0 0 1 1027,728.7969 L1027,634.7969 A2.5,2.5 0 0 1 1029.5,632.2969 " fill="transparent" style="stroke:#000000;stroke-width:1.5;"/><line style="stroke:#000000;stroke-width:1.5;" x1="1027" x2="1090.2715" y1="654.5938" y2="654.5938"/><text fill="#000000" font-family="sans-serif" font-size="14" font-weight="bold" lengthAdjust="spacing" textLength="50.2715" x="1031" y="647.292">visitor</text></g><!--cluster C_0012174902727661033893--><g id="cluster_C_0012174902727661033893"><path d="M1005.5,86.2969 L1153.8008,86.2969 A3.75,3.75 0 0 1 1156.3008,88.7969 L1163.3008,108.5938 L1272.5,108.5938 A2.5,2.5 0 0 1 1275,111.0938 L1275,372.7969 A2.5,2.5 0 0 1 1272.5,375.2969 L1005.5,375.2969 A2.5,2.5 0 0 1 1003,372.7969 L1003,88.7969 A2.5,2.5 0 0 1 1005.5,86.2969 " fill="transparent" style="stroke:#000000;stroke-width:1.5;"/><line style="stroke:#000000;stroke-width:1.5;" x1="1003" x2="1163.3008" y1="108.5938" y2="108.5938"/><text fill="#000000" font-family="sans-serif" font-size="14" font-weight="bold" lengthAdjust="spacing" textLength="147.3008" x="1007" y="101.292">sequence_diagram</text></g><!--cluster C_0017655759046645114118--><g id="cluster_C_0017655759046645114118"><path d="M1080.5,252.2969 L1130.0215,252.2969 A3.75,3.75 0 0 1 1132.5215,254.7969 L1139.5215,274.5938 L1197.5,274.5938 A2.5,2.5 0 0 1 1200,277.0938 L1200,348.7969 A2.5,2.5 0 0 1 1197.5,351.2969 L1080.5,351.2969 A2.5,2.5 0 0 1 1078,348.7969 L1078,254.7969 A2.5,2.5 0 0 1 1080.5,252.2969 " fill="transparent" style="stroke:#000000;stroke-width:1.5;"/><line style="stroke:#000000;stroke-width:1.5;" x1="1078" x2="1139.5215" y1="274.5938" y2="274.5938"/><text fill="#000000" font-family="sans-serif" font-size="14" font-weight="bold" lengthAdjust="spacing" textLength="48.5215" x="1082" y="267.292">model</text></g><!--cluster C_0002812166065521257903--><g id="cluster_C_0002812166065521257903"><path d="M1029.5,129.2969 L1080.7715,129.2969 A3.75,3.75 0 0 1 1083.2715,131.7969 L1090.2715,151.5938 L1248.5,151.5938 A2.5,2.5 0 0 1 1251,154.0938 L1251,225.7969 A2.5,2.5 0 0 1 1248.5,228.2969 L1029.5,228.2969 A2.5,2.5 0 0 1 1027,225.7969 L1027,131.7969 A2.5,2.5 0 0 1 1029.5,129.2969 " fill="transparent" style="stroke:#000000;stroke-width:1.5;"/><line style="stroke:#000000;stroke-width:1.5;" x1="1027" x2="1090.2715" y1="151.5938" y2="151.5938"/><text fill="#000000" font-family="sans-serif" font-size="14" font-weight="bold" lengthAdjust="spacing" textLength="50.2715" x="1031" y="144.292">visitor</text></g><!--class C_0001576551882566686996--><a href="classclanguml_1_1common_1_1model_1_1diagram.html" target="_top" title="Base class for all diagram models" xlink:actuate="onRequest" xlink:href="classclanguml_1_1common_1_1model_1_1diagram.html" xlink:show="new" xlink:title="Base class for all diagram models" xlink:type="simple"><g id="elem_C_0001576551882566686996"><rect codeLine="7" fill="#F1F1F1" height="48" id="C_0001576551882566686996" rx="2.5" ry="2.5" style="stroke:#181818;stroke-width:0.5;" width="90.2148" x="376" y="1293.2969"/><ellipse cx="391" cy="1309.2969" fill="#ADD1B2" rx="11" ry="11" style="stroke:#181818;stroke-width:1;"/><path d="M393.9688,1314.9375 Q393.3906,1315.2344 392.75,1315.375 Q392.1094,1315.5313 391.4063,1315.5313 Q388.9063,1315.5313 387.5781,1313.8906 Q386.2656,1312.2344 386.2656,1309.1094 Q386.2656,1305.9844 387.5781,1304.3281 Q388.9063,1302.6719 391.4063,1302.6719 Q392.1094,1302.6719 392.75,1302.8281 Q393.4063,1302.9844 393.9688,1303.2813 L393.9688,1306 Q393.3438,1305.4219 392.75,1305.1563 Q392.1563,1304.875 391.5313,1304.875 Q390.1875,1304.875 389.5,1305.9531 Q388.8125,1307.0156 388.8125,1309.1094 Q388.8125,1311.2031 389.5,1312.2813 Q390.1875,1313.3438 391.5313,1313.3438 Q392.1563,1313.3438 392.75,1313.0781 Q393.3438,1312.7969 393.9688,1312.2188 L393.9688,1314.9375 Z " fill="#000000"/><text fill="#000000" font-family="sans-serif" font-size="14" lengthAdjust="spacing" textLength="58.2148" x="405" y="1314.1436">diagram</text><line style="stroke:#181818;stroke-width:0.5;" x1="377" x2="465.2148" y1="1325.2969" y2="1325.2969"/><line style="stroke:#181818;stroke-width:0.5;" x1="377" x2="465.2148" y1="1333.2969" y2="1333.2969"/></g></a><!--class C_0014290992758498762286--><a href="classclanguml_1_1common_1_1visitor_1_1translation__unit__visitor.html" target="_top" title="Diagram translation unit visitor base class" xlink:actuate="onRequest" xlink:href="classclanguml_1_1common_1_1visitor_1_1translation__unit__visitor.html" xlink:show="new" xlink:title="Diagram translation unit visitor base class" xlink:type="simple"><g id="elem_C_0014290992758498762286"><rect codeLine="13" fill="#F1F1F1" height="48" id="C_0014290992758498762286" rx="2.5" ry="2.5" style="stroke:#181818;stroke-width:0.5;" width="304.0693" x="987" y="1623.2969"/><ellipse cx="1002" cy="1639.2969" fill="#ADD1B2" rx="11" ry="11" style="stroke:#181818;stroke-width:1;"/><path d="M1004.9688,1644.9375 Q1004.3906,1645.2344 1003.75,1645.375 Q1003.1094,1645.5313 1002.4063,1645.5313 Q999.9063,1645.5313 998.5781,1643.8906 Q997.2656,1642.2344 997.2656,1639.1094 Q997.2656,1635.9844 998.5781,1634.3281 Q999.9063,1632.6719 1002.4063,1632.6719 Q1003.1094,1632.6719 1003.75,1632.8281 Q1004.4063,1632.9844 1004.9688,1633.2813 L1004.9688,1636 Q1004.3438,1635.4219 1003.75,1635.1563 Q1003.1563,1634.875 1002.5313,1634.875 Q1001.1875,1634.875 1000.5,1635.9531 Q999.8125,1637.0156 999.8125,1639.1094 Q999.8125,1641.2031 1000.5,1642.2813 Q1001.1875,1643.3438 1002.5313,1643.3438 Q1003.1563,1643.3438 1003.75,1643.0781 Q1004.3438,1642.7969 1004.9688,1642.2188 L1004.9688,1644.9375 Z " fill="#000000"/><text fill="#000000" font-family="sans-serif" font-size="14" lengthAdjust="spacing" textLength="159.5713" x="1016" y="1644.1436">translation_unit_visitor</text><rect fill="#FFFFFF" height="15.9688" style="stroke:#181818;stroke-width:1;stroke-dasharray:2.0,2.0;" width="110.498" x="1183.5713" y="1620.2969"/><text fill="#000000" font-family="sans-serif" font-size="12" font-style="italic" lengthAdjust="spacing" textLength="108.498" x="1184.5713" y="1632.4355">ConfigT,DiagramT</text><line style="stroke:#181818;stroke-width:0.5;" x1="988" x2="1290.0693" y1="1655.2969" y2="1655.2969"/><line style="stroke:#181818;stroke-width:0.5;" x1="988" x2="1290.0693" y1="1663.2969" y2="1663.2969"/></g></a><!--class C_0006928801289515998382--><a href="classclanguml_1_1common_1_1visitor_1_1template__builder.html" target="_top" title="template_builder" xlink:actuate="onRequest" xlink:href="classclanguml_1_1common_1_1visitor_1_1template__builder.html" xlink:show="new" xlink:title="template_builder" xlink:type="simple"><g id="elem_C_0006928801289515998382"><rect codeLine="17" fill="#F1F1F1" height="48" id="C_0006928801289515998382" rx="2.5" ry="2.5" style="stroke:#181818;stroke-width:0.5;" width="493.8525" x="174" y="1748.2969"/><ellipse cx="189" cy="1764.2969" fill="#ADD1B2" rx="11" ry="11" style="stroke:#181818;stroke-width:1;"/><path d="M191.9688,1769.9375 Q191.3906,1770.2344 190.75,1770.375 Q190.1094,1770.5313 189.4063,1770.5313 Q186.9063,1770.5313 185.5781,1768.8906 Q184.2656,1767.2344 184.2656,1764.1094 Q184.2656,1760.9844 185.5781,1759.3281 Q186.9063,1757.6719 189.4063,1757.6719 Q190.1094,1757.6719 190.75,1757.8281 Q191.4063,1757.9844 191.9688,1758.2813 L191.9688,1761 Q191.3438,1760.4219 190.75,1760.1563 Q190.1563,1759.875 189.5313,1759.875 Q188.1875,1759.875 187.5,1760.9531 Q186.8125,1762.0156 186.8125,1764.1094 Q186.8125,1766.2031 187.5,1767.2813 Q188.1875,1768.3438 189.5313,1768.3438 Q190.1563,1768.3438 190.75,1768.0781 Q191.3438,1767.7969 191.9688,1767.2188 L191.9688,1769.9375 Z " fill="#000000"/><text fill="#000000" font-family="sans-serif" font-size="14" lengthAdjust="spacing" textLength="118.9932" x="203" y="1769.1436">template_builder</text><rect fill="#FFFFFF" height="15.9688" style="stroke:#181818;stroke-width:1;stroke-dasharray:2.0,2.0;" width="340.8594" x="329.9932" y="1745.2969"/><text fill="#000000" font-family="sans-serif" font-size="12" font-style="italic" lengthAdjust="spacing" textLength="338.8594" x="330.9932" y="1757.4355">clanguml::class_diagram::visitor::translation_unit_visitor</text><line style="stroke:#181818;stroke-width:0.5;" x1="175" x2="666.8525" y1="1780.2969" y2="1780.2969"/><line style="stroke:#181818;stroke-width:0.5;" x1="175" x2="666.8525" y1="1788.2969" y2="1788.2969"/></g></a><!--class C_0005184632287329019882--><a href="classclanguml_1_1common_1_1visitor_1_1translation__unit__visitor.html" target="_top" title="translation_unit_visitor" xlink:actuate="onRequest" xlink:href="classclanguml_1_1common_1_1visitor_1_1translation__unit__visitor.html" xlink:show="new" xlink:title="translation_unit_visitor" xlink:type="simple"><g id="elem_C_0005184632287329019882"><rect codeLine="21" fill="#F1F1F1" height="48" id="C_0005184632287329019882" rx="2.5" ry="2.5" style="stroke:#181818;stroke-width:0.5;" width="645.4482" x="98.5" y="1831.2969"/><ellipse cx="113.5" cy="1847.2969" fill="#ADD1B2" rx="11" ry="11" style="stroke:#181818;stroke-width:1;"/><path d="M116.4688,1852.9375 Q115.8906,1853.2344 115.25,1853.375 Q114.6094,1853.5313 113.9063,1853.5313 Q111.4063,1853.5313 110.0781,1851.8906 Q108.7656,1850.2344 108.7656,1847.1094 Q108.7656,1843.9844 110.0781,1842.3281 Q111.4063,1840.6719 113.9063,1840.6719 Q114.6094,1840.6719 115.25,1840.8281 Q115.9063,1840.9844 116.4688,1841.2813 L116.4688,1844 Q115.8438,1843.4219 115.25,1843.1563 Q114.6563,1842.875 114.0313,1842.875 Q112.6875,1842.875 112,1843.9531 Q111.3125,1845.0156 111.3125,1847.1094 Q111.3125,1849.2031 112,1850.2813 Q112.6875,1851.3438 114.0313,1851.3438 Q114.6563,1851.3438 115.25,1851.0781 Q115.8438,1850.7969 116.4688,1850.2188 L116.4688,1852.9375 Z " fill="#000000"/><text fill="#000000" font-family="sans-serif" font-size="14" lengthAdjust="spacing" textLength="159.5713" x="127.5" y="1852.1436">translation_unit_visitor</text><rect fill="#FFFFFF" height="15.9688" style="stroke:#181818;stroke-width:1;stroke-dasharray:2.0,2.0;" width="451.877" x="295.0713" y="1828.2969"/><text fill="#000000" font-family="sans-serif" font-size="12" font-style="italic" lengthAdjust="spacing" textLength="449.877" x="296.0713" y="1840.4355">clanguml::config::class_diagram,clanguml::class_diagram::model::diagram</text><line style="stroke:#181818;stroke-width:0.5;" x1="99.5" x2="742.9482" y1="1863.2969" y2="1863.2969"/><line style="stroke:#181818;stroke-width:0.5;" x1="99.5" x2="742.9482" y1="1871.2969" y2="1871.2969"/></g></a><!--class C_0010797356058171728853--><a href="classclanguml_1_1common_1_1visitor_1_1translation__unit__visitor.html" target="_top" title="translation_unit_visitor" xlink:actuate="onRequest" xlink:href="classclanguml_1_1common_1_1visitor_1_1translation__unit__visitor.html" xlink:show="new" xlink:title="translation_unit_visitor" xlink:type="simple"><g id="elem_C_0010797356058171728853"><rect codeLine="25" fill="#F1F1F1" height="48" id="C_0010797356058171728853" rx="2.5" ry="2.5" style="stroke:#181818;stroke-width:0.5;" width="672.8232" x="84.5" y="1582.2969"/><ellipse cx="99.5" cy="1598.2969" fill="#ADD1B2" rx="11" ry="11" style="stroke:#181818;stroke-width:1;"/><path d="M102.4688,1603.9375 Q101.8906,1604.2344 101.25,1604.375 Q100.6094,1604.5313 99.9063,1604.5313 Q97.4063,1604.5313 96.0781,1602.8906 Q94.7656,1601.2344 94.7656,1598.1094 Q94.7656,1594.9844 96.0781,1593.3281 Q97.4063,1591.6719 99.9063,1591.6719 Q100.6094,1591.6719 101.25,1591.8281 Q101.9063,1591.9844 102.4688,1592.2813 L102.4688,1595 Q101.8438,1594.4219 101.25,1594.1563 Q100.6563,1593.875 100.0313,1593.875 Q98.6875,1593.875 98,1594.9531 Q97.3125,1596.0156 97.3125,1598.1094 Q97.3125,1600.2031 98,1601.2813 Q98.6875,1602.3438 100.0313,1602.3438 Q100.6563,1602.3438 101.25,1602.0781 Q101.8438,1601.7969 102.4688,1601.2188 L102.4688,1603.9375 Z " fill="#000000"/><text fill="#000000" font-family="sans-serif" font-size="14" lengthAdjust="spacing" textLength="159.5713" x="113.5" y="1603.1436">translation_unit_visitor</text><rect fill="#FFFFFF" height="15.9688" style="stroke:#181818;stroke-width:1;stroke-dasharray:2.0,2.0;" width="479.252" x="281.0713" y="1579.2969"/><text fill="#000000" font-family="sans-serif" font-size="12" font-style="italic" lengthAdjust="spacing" textLength="477.252" x="282.0713" y="1591.4355">clanguml::config::include_diagram,clanguml::include_diagram::model::diagram</text><line style="stroke:#181818;stroke-width:0.5;" x1="85.5" x2="756.3232" y1="1614.2969" y2="1614.2969"/><line style="stroke:#181818;stroke-width:0.5;" x1="85.5" x2="756.3232" y1="1622.2969" y2="1622.2969"/></g></a><!--class C_0000788514013195129993--><a href="classclanguml_1_1common_1_1visitor_1_1translation__unit__visitor.html" target="_top" title="translation_unit_visitor" xlink:actuate="onRequest" xlink:href="classclanguml_1_1common_1_1visitor_1_1translation__unit__visitor.html" xlink:show="new" xlink:title="translation_unit_visitor" xlink:type="simple"><g id="elem_C_0000788514013195129993"><rect codeLine="29" fill="#F1F1F1" height="48" id="C_0000788514013195129993" rx="2.5" ry="2.5" style="stroke:#181818;stroke-width:0.5;" width="687.6123" x="77" y="1665.2969"/><ellipse cx="92" cy="1681.2969" fill="#ADD1B2" rx="11" ry="11" style="stroke:#181818;stroke-width:1;"/><path d="M94.9688,1686.9375 Q94.3906,1687.2344 93.75,1687.375 Q93.1094,1687.5313 92.4063,1687.5313 Q89.9063,1687.5313 88.5781,1685.8906 Q87.2656,1684.2344 87.2656,1681.1094 Q87.2656,1677.9844 88.5781,1676.3281 Q89.9063,1674.6719 92.4063,1674.6719 Q93.1094,1674.6719 93.75,1674.8281 Q94.4063,1674.9844 94.9688,1675.2813 L94.9688,1678 Q94.3438,1677.4219 93.75,1677.1563 Q93.1563,1676.875 92.5313,1676.875 Q91.1875,1676.875 90.5,1677.9531 Q89.8125,1679.0156 89.8125,1681.1094 Q89.8125,1683.2031 90.5,1684.2813 Q91.1875,1685.3438 92.5313,1685.3438 Q93.1563,1685.3438 93.75,1685.0781 Q94.3438,1684.7969 94.9688,1684.2188 L94.9688,1686.9375 Z " fill="#000000"/><text fill="#000000" font-family="sans-serif" font-size="14" lengthAdjust="spacing" textLength="159.5713" x="106" y="1686.1436">translation_unit_visitor</text><rect fill="#FFFFFF" height="15.9688" style="stroke:#181818;stroke-width:1;stroke-dasharray:2.0,2.0;" width="494.041" x="273.5713" y="1662.2969"/><text fill="#000000" font-family="sans-serif" font-size="12" font-style="italic" lengthAdjust="spacing" textLength="492.041" x="274.5713" y="1674.4355">clanguml::config::package_diagram,clanguml::package_diagram::model::diagram</text><line style="stroke:#181818;stroke-width:0.5;" x1="78" x2="763.6123" y1="1697.2969" y2="1697.2969"/><line style="stroke:#181818;stroke-width:0.5;" x1="78" x2="763.6123" y1="1705.2969" y2="1705.2969"/></g></a><!--class C_0016589185193012457922--><a href="classclanguml_1_1common_1_1visitor_1_1template__builder.html" target="_top" title="template_builder" xlink:actuate="onRequest" xlink:href="classclanguml_1_1common_1_1visitor_1_1template__builder.html" xlink:show="new" xlink:title="template_builder" xlink:type="simple"><g id="elem_C_0016589185193012457922"><rect codeLine="33" fill="#F1F1F1" height="48" id="C_0016589185193012457922" rx="2.5" ry="2.5" style="stroke:#181818;stroke-width:0.5;" width="521.8896" x="160" y="1416.2969"/><ellipse cx="175" cy="1432.2969" fill="#ADD1B2" rx="11" ry="11" style="stroke:#181818;stroke-width:1;"/><path d="M177.9688,1437.9375 Q177.3906,1438.2344 176.75,1438.375 Q176.1094,1438.5313 175.4063,1438.5313 Q172.9063,1438.5313 171.5781,1436.8906 Q170.2656,1435.2344 170.2656,1432.1094 Q170.2656,1428.9844 171.5781,1427.3281 Q172.9063,1425.6719 175.4063,1425.6719 Q176.1094,1425.6719 176.75,1425.8281 Q177.4063,1425.9844 177.9688,1426.2813 L177.9688,1429 Q177.3438,1428.4219 176.75,1428.1563 Q176.1563,1427.875 175.5313,1427.875 Q174.1875,1427.875 173.5,1428.9531 Q172.8125,1430.0156 172.8125,1432.1094 Q172.8125,1434.2031 173.5,1435.2813 Q174.1875,1436.3438 175.5313,1436.3438 Q176.1563,1436.3438 176.75,1436.0781 Q177.3438,1435.7969 177.9688,1435.2188 L177.9688,1437.9375 Z " fill="#000000"/><text fill="#000000" font-family="sans-serif" font-size="14" lengthAdjust="spacing" textLength="118.9932" x="189" y="1437.1436">template_builder</text><rect fill="#FFFFFF" height="15.9688" style="stroke:#181818;stroke-width:1;stroke-dasharray:2.0,2.0;" width="368.8965" x="315.9932" y="1413.2969"/><text fill="#000000" font-family="sans-serif" font-size="12" font-style="italic" lengthAdjust="spacing" textLength="366.8965" x="316.9932" y="1425.4355">clanguml::sequence_diagram::visitor::translation_unit_visitor</text><line style="stroke:#181818;stroke-width:0.5;" x1="161" x2="680.8896" y1="1448.2969" y2="1448.2969"/><line style="stroke:#181818;stroke-width:0.5;" x1="161" x2="680.8896" y1="1456.2969" y2="1456.2969"/></g></a><!--class C_0000336264923250556599--><a href="classclanguml_1_1common_1_1visitor_1_1translation__unit__visitor.html" target="_top" title="translation_unit_visitor" xlink:actuate="onRequest" xlink:href="classclanguml_1_1common_1_1visitor_1_1translation__unit__visitor.html" xlink:show="new" xlink:title="translation_unit_visitor" xlink:type="simple"><g id="elem_C_0000336264923250556599"><rect codeLine="37" fill="#F1F1F1" height="48" id="C_0000336264923250556599" rx="2.5" ry="2.5" style="stroke:#181818;stroke-width:0.5;" width="701.5225" x="70" y="1499.2969"/><ellipse cx="85" cy="1515.2969" fill="#ADD1B2" rx="11" ry="11" style="stroke:#181818;stroke-width:1;"/><path d="M87.9688,1520.9375 Q87.3906,1521.2344 86.75,1521.375 Q86.1094,1521.5313 85.4063,1521.5313 Q82.9063,1521.5313 81.5781,1519.8906 Q80.2656,1518.2344 80.2656,1515.1094 Q80.2656,1511.9844 81.5781,1510.3281 Q82.9063,1508.6719 85.4063,1508.6719 Q86.1094,1508.6719 86.75,1508.8281 Q87.4063,1508.9844 87.9688,1509.2813 L87.9688,1512 Q87.3438,1511.4219 86.75,1511.1563 Q86.1563,1510.875 85.5313,1510.875 Q84.1875,1510.875 83.5,1511.9531 Q82.8125,1513.0156 82.8125,1515.1094 Q82.8125,1517.2031 83.5,1518.2813 Q84.1875,1519.3438 85.5313,1519.3438 Q86.1563,1519.3438 86.75,1519.0781 Q87.3438,1518.7969 87.9688,1518.2188 L87.9688,1520.9375 Z " fill="#000000"/><text fill="#000000" font-family="sans-serif" font-size="14" lengthAdjust="spacing" textLength="159.5713" x="99" y="1520.1436">translation_unit_visitor</text><rect fill="#FFFFFF" height="15.9688" style="stroke:#181818;stroke-width:1;stroke-dasharray:2.0,2.0;" width="507.9512" x="266.5713" y="1496.2969"/><text fill="#000000" font-family="sans-serif" font-size="12" font-style="italic" lengthAdjust="spacing" textLength="505.9512" x="267.5713" y="1508.4355">clanguml::config::sequence_diagram,clanguml::sequence_diagram::model::diagram</text><line style="stroke:#181818;stroke-width:0.5;" x1="71" x2="770.5225" y1="1531.2969" y2="1531.2969"/><line style="stroke:#181818;stroke-width:0.5;" x1="71" x2="770.5225" y1="1539.2969" y2="1539.2969"/></g></a><!--class C_0007315456613526221498--><a href="classclanguml_1_1class__diagram_1_1model_1_1diagram.html" target="_top" title="Class representing a class diagram." xlink:actuate="onRequest" xlink:href="classclanguml_1_1class__diagram_1_1model_1_1diagram.html" xlink:show="new" xlink:title="Class representing a class diagram." xlink:type="simple"><g id="elem_C_0007315456613526221498"><rect codeLine="45" fill="#F1F1F1" height="48" id="C_0007315456613526221498" rx="2.5" ry="2.5" style="stroke:#181818;stroke-width:0.5;" width="90.2148" x="1094" y="1103.2969"/><ellipse cx="1109" cy="1119.2969" fill="#ADD1B2" rx="11" ry="11" style="stroke:#181818;stroke-width:1;"/><path d="M1111.9688,1124.9375 Q1111.3906,1125.2344 1110.75,1125.375 Q1110.1094,1125.5313 1109.4063,1125.5313 Q1106.9063,1125.5313 1105.5781,1123.8906 Q1104.2656,1122.2344 1104.2656,1119.1094 Q1104.2656,1115.9844 1105.5781,1114.3281 Q1106.9063,1112.6719 1109.4063,1112.6719 Q1110.1094,1112.6719 1110.75,1112.8281 Q1111.4063,1112.9844 1111.9688,1113.2813 L1111.9688,1116 Q1111.3438,1115.4219 1110.75,1115.1563 Q1110.1563,1114.875 1109.5313,1114.875 Q1108.1875,1114.875 1107.5,1115.9531 Q1106.8125,1117.0156 1106.8125,1119.1094 Q1106.8125,1121.2031 1107.5,1122.2813 Q1108.1875,1123.3438 1109.5313,1123.3438 Q1110.1563,1123.3438 1110.75,1123.0781 Q1111.3438,1122.7969 1111.9688,1122.2188 L1111.9688,1124.9375 Z " fill="#000000"/><text fill="#000000" font-family="sans-serif" font-size="14" lengthAdjust="spacing" textLength="58.2148" x="1123" y="1124.1436">diagram</text><line style="stroke:#181818;stroke-width:0.5;" x1="1095" x2="1183.2148" y1="1135.2969" y2="1135.2969"/><line style="stroke:#181818;stroke-width:0.5;" x1="1095" x2="1183.2148" y1="1143.2969" y2="1143.2969"/></g></a><!--class C_0013934086101141939615--><a href="classclanguml_1_1class__diagram_1_1visitor_1_1translation__unit__visitor.html" target="_top" title="Class diagram translation unit visitor" xlink:actuate="onRequest" xlink:href="classclanguml_1_1class__diagram_1_1visitor_1_1translation__unit__visitor.html" xlink:show="new" xlink:title="Class diagram translation unit visitor" xlink:type="simple"><g id="elem_C_0013934086101141939615"><rect codeLine="51" fill="#F1F1F1" height="48" id="C_0013934086101141939615" rx="2.5" ry="2.5" style="stroke:#181818;stroke-width:0.5;" width="191.5713" x="1043" y="980.2969"/><ellipse cx="1058" cy="996.2969" fill="#ADD1B2" rx="11" ry="11" style="stroke:#181818;stroke-width:1;"/><path d="M1060.9688,1001.9375 Q1060.3906,1002.2344 1059.75,1002.375 Q1059.1094,1002.5313 1058.4063,1002.5313 Q1055.9063,1002.5313 1054.5781,1000.8906 Q1053.2656,999.2344 1053.2656,996.1094 Q1053.2656,992.9844 1054.5781,991.3281 Q1055.9063,989.6719 1058.4063,989.6719 Q1059.1094,989.6719 1059.75,989.8281 Q1060.4063,989.9844 1060.9688,990.2813 L1060.9688,993 Q1060.3438,992.4219 1059.75,992.1563 Q1059.1563,991.875 1058.5313,991.875 Q1057.1875,991.875 1056.5,992.9531 Q1055.8125,994.0156 1055.8125,996.1094 Q1055.8125,998.2031 1056.5,999.2813 Q1057.1875,1000.3438 1058.5313,1000.3438 Q1059.1563,1000.3438 1059.75,1000.0781 Q1060.3438,999.7969 1060.9688,999.2188 L1060.9688,1001.9375 Z " fill="#000000"/><text fill="#000000" font-family="sans-serif" font-size="14" lengthAdjust="spacing" textLength="159.5713" x="1072" y="1001.1436">translation_unit_visitor</text><line style="stroke:#181818;stroke-width:0.5;" x1="1044" x2="1233.5713" y1="1012.2969" y2="1012.2969"/><line style="stroke:#181818;stroke-width:0.5;" x1="1044" x2="1233.5713" y1="1020.2969" y2="1020.2969"/></g></a><!--class C_0002467043186855586999--><a href="classclanguml_1_1include__diagram_1_1model_1_1diagram.html" target="_top" title="Class representing an include diagram model." xlink:actuate="onRequest" xlink:href="classclanguml_1_1include__diagram_1_1model_1_1diagram.html" xlink:show="new" xlink:title="Class representing an include diagram model." xlink:type="simple"><g id="elem_C_0002467043186855586999"><rect codeLine="59" fill="#F1F1F1" height="48" id="C_0002467043186855586999" rx="2.5" ry="2.5" style="stroke:#181818;stroke-width:0.5;" width="90.2148" x="1708" y="477.2969"/><ellipse cx="1723" cy="493.2969" fill="#ADD1B2" rx="11" ry="11" style="stroke:#181818;stroke-width:1;"/><path d="M1725.9688,498.9375 Q1725.3906,499.2344 1724.75,499.375 Q1724.1094,499.5313 1723.4063,499.5313 Q1720.9063,499.5313 1719.5781,497.8906 Q1718.2656,496.2344 1718.2656,493.1094 Q1718.2656,489.9844 1719.5781,488.3281 Q1720.9063,486.6719 1723.4063,486.6719 Q1724.1094,486.6719 1724.75,486.8281 Q1725.4063,486.9844 1725.9688,487.2813 L1725.9688,490 Q1725.3438,489.4219 1724.75,489.1563 Q1724.1563,488.875 1723.5313,488.875 Q1722.1875,488.875 1721.5,489.9531 Q1720.8125,491.0156 1720.8125,493.1094 Q1720.8125,495.2031 1721.5,496.2813 Q1722.1875,497.3438 1723.5313,497.3438 Q1724.1563,497.3438 1724.75,497.0781 Q1725.3438,496.7969 1725.9688,496.2188 L1725.9688,498.9375 Z " fill="#000000"/><text fill="#000000" font-family="sans-serif" font-size="14" lengthAdjust="spacing" textLength="58.2148" x="1737" y="498.1436">diagram</text><line style="stroke:#181818;stroke-width:0.5;" x1="1709" x2="1797.2148" y1="509.2969" y2="509.2969"/><line style="stroke:#181818;stroke-width:0.5;" x1="1709" x2="1797.2148" y1="517.2969" y2="517.2969"/></g></a><!--class C_0015659136776023822053--><a href="classclanguml_1_1include__diagram_1_1visitor_1_1translation__unit__visitor.html" target="_top" title="Include diagram translation unit visitor wrapper" xlink:actuate="onRequest" xlink:href="classclanguml_1_1include__diagram_1_1visitor_1_1translation__unit__visitor.html" xlink:show="new" xlink:title="Include diagram translation unit visitor wrapper" xlink:type="simple"><g id="elem_C_0015659136776023822053"><rect codeLine="65" fill="#F1F1F1" height="48" id="C_0015659136776023822053" rx="2.5" ry="2.5" style="stroke:#181818;stroke-width:0.5;" width="191.5713" x="1378" y="477.2969"/><ellipse cx="1393" cy="493.2969" fill="#ADD1B2" rx="11" ry="11" style="stroke:#181818;stroke-width:1;"/><path d="M1395.9688,498.9375 Q1395.3906,499.2344 1394.75,499.375 Q1394.1094,499.5313 1393.4063,499.5313 Q1390.9063,499.5313 1389.5781,497.8906 Q1388.2656,496.2344 1388.2656,493.1094 Q1388.2656,489.9844 1389.5781,488.3281 Q1390.9063,486.6719 1393.4063,486.6719 Q1394.1094,486.6719 1394.75,486.8281 Q1395.4063,486.9844 1395.9688,487.2813 L1395.9688,490 Q1395.3438,489.4219 1394.75,489.1563 Q1394.1563,488.875 1393.5313,488.875 Q1392.1875,488.875 1391.5,489.9531 Q1390.8125,491.0156 1390.8125,493.1094 Q1390.8125,495.2031 1391.5,496.2813 Q1392.1875,497.3438 1393.5313,497.3438 Q1394.1563,497.3438 1394.75,497.0781 Q1395.3438,496.7969 1395.9688,496.2188 L1395.9688,498.9375 Z " fill="#000000"/><text fill="#000000" font-family="sans-serif" font-size="14" lengthAdjust="spacing" textLength="159.5713" x="1407" y="498.1436">translation_unit_visitor</text><line style="stroke:#181818;stroke-width:0.5;" x1="1379" x2="1568.5713" y1="509.2969" y2="509.2969"/><line style="stroke:#181818;stroke-width:0.5;" x1="1379" x2="1568.5713" y1="517.2969" y2="517.2969"/></g></a><!--class C_0000567484436108945460--><a href="classclanguml_1_1include__diagram_1_1visitor_1_1translation__unit__visitor_1_1include__visitor.html" target="_top" title="translation_unit_visitor::include_visitor" xlink:actuate="onRequest" xlink:href="classclanguml_1_1include__diagram_1_1visitor_1_1translation__unit__visitor_1_1include__visitor.html" xlink:show="new" xlink:title="translation_unit_visitor::include_visitor" xlink:type="simple"><g id="elem_C_0000567484436108945460"><rect codeLine="69" fill="#F1F1F1" height="48" id="C_0000567484436108945460" rx="2.5" ry="2.5" style="stroke:#181818;stroke-width:0.5;" width="301.8965" x="988" y="477.2969"/><ellipse cx="1003" cy="493.2969" fill="#ADD1B2" rx="11" ry="11" style="stroke:#181818;stroke-width:1;"/><path d="M1005.9688,498.9375 Q1005.3906,499.2344 1004.75,499.375 Q1004.1094,499.5313 1003.4063,499.5313 Q1000.9063,499.5313 999.5781,497.8906 Q998.2656,496.2344 998.2656,493.1094 Q998.2656,489.9844 999.5781,488.3281 Q1000.9063,486.6719 1003.4063,486.6719 Q1004.1094,486.6719 1004.75,486.8281 Q1005.4063,486.9844 1005.9688,487.2813 L1005.9688,490 Q1005.3438,489.4219 1004.75,489.1563 Q1004.1563,488.875 1003.5313,488.875 Q1002.1875,488.875 1001.5,489.9531 Q1000.8125,491.0156 1000.8125,493.1094 Q1000.8125,495.2031 1001.5,496.2813 Q1002.1875,497.3438 1003.5313,497.3438 Q1004.1563,497.3438 1004.75,497.0781 Q1005.3438,496.7969 1005.9688,496.2188 L1005.9688,498.9375 Z " fill="#000000"/><text fill="#000000" font-family="sans-serif" font-size="14" lengthAdjust="spacing" textLength="269.8965" x="1017" y="498.1436">translation_unit_visitor::include_visitor</text><line style="stroke:#181818;stroke-width:0.5;" x1="989" x2="1288.8965" y1="509.2969" y2="509.2969"/><line style="stroke:#181818;stroke-width:0.5;" x1="989" x2="1288.8965" y1="517.2969" y2="517.2969"/></g></a><!--class C_0001188296008369339829--><a href="classclanguml_1_1package__diagram_1_1model_1_1diagram.html" target="_top" title="Package diagram model." xlink:actuate="onRequest" xlink:href="classclanguml_1_1package__diagram_1_1model_1_1diagram.html" xlink:show="new" xlink:title="Package diagram model." xlink:type="simple"><g id="elem_C_0001188296008369339829"><rect codeLine="77" fill="#F1F1F1" height="48" id="C_0001188296008369339829" rx="2.5" ry="2.5" style="stroke:#181818;stroke-width:0.5;" width="90.2148" x="1094" y="790.2969"/><ellipse cx="1109" cy="806.2969" fill="#ADD1B2" rx="11" ry="11" style="stroke:#181818;stroke-width:1;"/><path d="M1111.9688,811.9375 Q1111.3906,812.2344 1110.75,812.375 Q1110.1094,812.5313 1109.4063,812.5313 Q1106.9063,812.5313 1105.5781,810.8906 Q1104.2656,809.2344 1104.2656,806.1094 Q1104.2656,802.9844 1105.5781,801.3281 Q1106.9063,799.6719 1109.4063,799.6719 Q1110.1094,799.6719 1110.75,799.8281 Q1111.4063,799.9844 1111.9688,800.2813 L1111.9688,803 Q1111.3438,802.4219 1110.75,802.1563 Q1110.1563,801.875 1109.5313,801.875 Q1108.1875,801.875 1107.5,802.9531 Q1106.8125,804.0156 1106.8125,806.1094 Q1106.8125,808.2031 1107.5,809.2813 Q1108.1875,810.3438 1109.5313,810.3438 Q1110.1563,810.3438 1110.75,810.0781 Q1111.3438,809.7969 1111.9688,809.2188 L1111.9688,811.9375 Z " fill="#000000"/><text fill="#000000" font-family="sans-serif" font-size="14" lengthAdjust="spacing" textLength="58.2148" x="1123" y="811.1436">diagram</text><line style="stroke:#181818;stroke-width:0.5;" x1="1095" x2="1183.2148" y1="822.2969" y2="822.2969"/><line style="stroke:#181818;stroke-width:0.5;" x1="1095" x2="1183.2148" y1="830.2969" y2="830.2969"/></g></a><!--class C_0010290736275922634760--><a href="classclanguml_1_1package__diagram_1_1visitor_1_1translation__unit__visitor.html" target="_top" title="Package diagram translation unit visitor" xlink:actuate="onRequest" xlink:href="classclanguml_1_1package__diagram_1_1visitor_1_1translation__unit__visitor.html" xlink:show="new" xlink:title="Package diagram translation unit visitor" xlink:type="simple"><g id="elem_C_0010290736275922634760"><rect codeLine="83" fill="#F1F1F1" height="48" id="C_0010290736275922634760" rx="2.5" ry="2.5" style="stroke:#181818;stroke-width:0.5;" width="191.5713" x="1043" y="667.2969"/><ellipse cx="1058" cy="683.2969" fill="#ADD1B2" rx="11" ry="11" style="stroke:#181818;stroke-width:1;"/><path d="M1060.9688,688.9375 Q1060.3906,689.2344 1059.75,689.375 Q1059.1094,689.5313 1058.4063,689.5313 Q1055.9063,689.5313 1054.5781,687.8906 Q1053.2656,686.2344 1053.2656,683.1094 Q1053.2656,679.9844 1054.5781,678.3281 Q1055.9063,676.6719 1058.4063,676.6719 Q1059.1094,676.6719 1059.75,676.8281 Q1060.4063,676.9844 1060.9688,677.2813 L1060.9688,680 Q1060.3438,679.4219 1059.75,679.1563 Q1059.1563,678.875 1058.5313,678.875 Q1057.1875,678.875 1056.5,679.9531 Q1055.8125,681.0156 1055.8125,683.1094 Q1055.8125,685.2031 1056.5,686.2813 Q1057.1875,687.3438 1058.5313,687.3438 Q1059.1563,687.3438 1059.75,687.0781 Q1060.3438,686.7969 1060.9688,686.2188 L1060.9688,688.9375 Z " fill="#000000"/><text fill="#000000" font-family="sans-serif" font-size="14" lengthAdjust="spacing" textLength="159.5713" x="1072" y="688.1436">translation_unit_visitor</text><line style="stroke:#181818;stroke-width:0.5;" x1="1044" x2="1233.5713" y1="699.2969" y2="699.2969"/><line style="stroke:#181818;stroke-width:0.5;" x1="1044" x2="1233.5713" y1="707.2969" y2="707.2969"/></g></a><!--class C_0007392356576284087808--><a href="classclanguml_1_1sequence__diagram_1_1model_1_1diagram.html" target="_top" title="Model of a sequence diagram" xlink:actuate="onRequest" xlink:href="classclanguml_1_1sequence__diagram_1_1model_1_1diagram.html" xlink:show="new" xlink:title="Model of a sequence diagram" xlink:type="simple"><g id="elem_C_0007392356576284087808"><rect codeLine="91" fill="#F1F1F1" height="48" id="C_0007392356576284087808" rx="2.5" ry="2.5" style="stroke:#181818;stroke-width:0.5;" width="90.2148" x="1094" y="287.2969"/><ellipse cx="1109" cy="303.2969" fill="#ADD1B2" rx="11" ry="11" style="stroke:#181818;stroke-width:1;"/><path d="M1111.9688,308.9375 Q1111.3906,309.2344 1110.75,309.375 Q1110.1094,309.5313 1109.4063,309.5313 Q1106.9063,309.5313 1105.5781,307.8906 Q1104.2656,306.2344 1104.2656,303.1094 Q1104.2656,299.9844 1105.5781,298.3281 Q1106.9063,296.6719 1109.4063,296.6719 Q1110.1094,296.6719 1110.75,296.8281 Q1111.4063,296.9844 1111.9688,297.2813 L1111.9688,300 Q1111.3438,299.4219 1110.75,299.1563 Q1110.1563,298.875 1109.5313,298.875 Q1108.1875,298.875 1107.5,299.9531 Q1106.8125,301.0156 1106.8125,303.1094 Q1106.8125,305.2031 1107.5,306.2813 Q1108.1875,307.3438 1109.5313,307.3438 Q1110.1563,307.3438 1110.75,307.0781 Q1111.3438,306.7969 1111.9688,306.2188 L1111.9688,308.9375 Z " fill="#000000"/><text fill="#000000" font-family="sans-serif" font-size="14" lengthAdjust="spacing" textLength="58.2148" x="1123" y="308.1436">diagram</text><line style="stroke:#181818;stroke-width:0.5;" x1="1095" x2="1183.2148" y1="319.2969" y2="319.2969"/><line style="stroke:#181818;stroke-width:0.5;" x1="1095" x2="1183.2148" y1="327.2969" y2="327.2969"/></g></a><!--class C_0009834819563374321482--><a href="classclanguml_1_1sequence__diagram_1_1visitor_1_1translation__unit__visitor.html" target="_top" title="Sequence diagram translation unit visitor" xlink:actuate="onRequest" xlink:href="classclanguml_1_1sequence__diagram_1_1visitor_1_1translation__unit__visitor.html" xlink:show="new" xlink:title="Sequence diagram translation unit visitor" xlink:type="simple"><g id="elem_C_0009834819563374321482"><rect codeLine="97" fill="#F1F1F1" height="48" id="C_0009834819563374321482" rx="2.5" ry="2.5" style="stroke:#181818;stroke-width:0.5;" width="191.5713" x="1043" y="164.2969"/><ellipse cx="1058" cy="180.2969" fill="#ADD1B2" rx="11" ry="11" style="stroke:#181818;stroke-width:1;"/><path d="M1060.9688,185.9375 Q1060.3906,186.2344 1059.75,186.375 Q1059.1094,186.5313 1058.4063,186.5313 Q1055.9063,186.5313 1054.5781,184.8906 Q1053.2656,183.2344 1053.2656,180.1094 Q1053.2656,176.9844 1054.5781,175.3281 Q1055.9063,173.6719 1058.4063,173.6719 Q1059.1094,173.6719 1059.75,173.8281 Q1060.4063,173.9844 1060.9688,174.2813 L1060.9688,177 Q1060.3438,176.4219 1059.75,176.1563 Q1059.1563,175.875 1058.5313,175.875 Q1057.1875,175.875 1056.5,176.9531 Q1055.8125,178.0156 1055.8125,180.1094 Q1055.8125,182.2031 1056.5,183.2813 Q1057.1875,184.3438 1058.5313,184.3438 Q1059.1563,184.3438 1059.75,184.0781 Q1060.3438,183.7969 1060.9688,183.2188 L1060.9688,185.9375 Z " fill="#000000"/><text fill="#000000" font-family="sans-serif" font-size="14" lengthAdjust="spacing" textLength="159.5713" x="1072" y="185.1436">translation_unit_visitor</text><line style="stroke:#181818;stroke-width:0.5;" x1="1044" x2="1233.5713" y1="196.2969" y2="196.2969"/><line style="stroke:#181818;stroke-width:0.5;" x1="1044" x2="1233.5713" y1="204.2969" y2="204.2969"/></g></a><!--link C_0005184632287329019882 to C_0014290992758498762286--><g id="link_C_0005184632287329019882_C_0014290992758498762286"><path codeLine="103" d="M697.76,1831.2169 C723.06,1826.5469 748.14,1820.9569 772,1814.2969 C895.61,1779.7769 1014.651,1717.6182 1080.851,1680.2882 " fill="transparent" id="C_0005184632287329019882-to-C_0014290992758498762286" style="stroke:#181818;stroke-width:1;stroke-dasharray:7.0,7.0;"/><polygon fill="transparent" points="1096.53,1671.4469,1077.9039,1675.0619,1083.7981,1685.5145,1096.53,1671.4469" style="stroke:#181818;stroke-width:1;"/></g><!--link C_0010797356058171728853 to C_0014290992758498762286--><g id="link_C_0010797356058171728853_C_0014290992758498762286"><path codeLine="104" d="M757.73,1625.5169 C838.06,1630.1169 901.9194,1633.778 968.9894,1637.618 " fill="transparent" id="C_0010797356058171728853-to-C_0014290992758498762286" style="stroke:#181818;stroke-width:1;stroke-dasharray:7.0,7.0;"/><polygon fill="transparent" points="986.96,1638.6469,969.3324,1631.6278,968.6465,1643.6082,986.96,1638.6469" style="stroke:#181818;stroke-width:1;"/></g><!--link C_0000788514013195129993 to C_0014290992758498762286--><g id="link_C_0000788514013195129993_C_0014290992758498762286"><path codeLine="105" d="M765.06,1669.1769 C842.97,1664.6069 903.8708,1661.03 968.8808,1657.22 " fill="transparent" id="C_0000788514013195129993-to-C_0014290992758498762286" style="stroke:#181818;stroke-width:1;stroke-dasharray:7.0,7.0;"/><polygon fill="transparent" points="986.85,1656.1669,968.5298,1651.2303,969.2319,1663.2097,986.85,1656.1669" style="stroke:#181818;stroke-width:1;"/></g><!--link C_0000336264923250556599 to C_0014290992758498762286--><g id="link_C_0000336264923250556599_C_0014290992758498762286"><path codeLine="106" d="M650.29,1547.3169 C690.93,1552.5469 732.79,1558.5669 772,1565.2969 C864.74,1581.2069 951.9028,1601.0208 1025.4828,1618.9708 " fill="transparent" id="C_0000336264923250556599-to-C_0014290992758498762286" style="stroke:#181818;stroke-width:1;stroke-dasharray:7.0,7.0;"/><polygon fill="transparent" points="1042.97,1623.2369,1026.9048,1613.1418,1024.0608,1624.7999,1042.97,1623.2369" style="stroke:#181818;stroke-width:1;"/></g><!--reverse link C_0001576551882566686996 to C_0007315456613526221498--><g id="link_C_0001576551882566686996_C_0007315456613526221498"><path codeLine="107" d="M483.6479,1300.9404 C611.8579,1266.9204 965.18,1173.1569 1093.59,1139.0769 " fill="transparent" id="C_0001576551882566686996-backto-C_0007315456613526221498" style="stroke:#181818;stroke-width:1;"/><polygon fill="transparent" points="466.25,1305.5569,485.1868,1306.7397,482.1091,1295.1411,466.25,1305.5569" style="stroke:#181818;stroke-width:1;"/></g><!--reverse link C_0013934086101141939615 to C_0006928801289515998382--><a href="" target="_top" title="template_builder_" xlink:actuate="onRequest" xlink:href="" xlink:show="new" xlink:title="template_builder_" xlink:type="simple"><path codeLine="108" d="M1031.3506,1024.8481 C993.0906,1036.7381 963.91,1053.2969 940,1087.2969 C930.14,1101.3169 937.15,1224.9569 932,1241.2969 C899.24,1345.2769 837.56,1346.2469 802,1449.2969 C781.44,1508.8669 816.32,1686.4969 772,1731.2969 C743.82,1759.7869 707.14,1776.3769 668.17,1785.2969 " fill="transparent" id="C_0013934086101141939615-backto-C_0006928801289515998382" style="stroke:#181818;stroke-width:1;"/><polygon fill="transparent" points="1042.81,1021.2869,1035.8932,1019.2477,1031.3506,1024.8481,1038.2674,1026.8873,1042.81,1021.2869" style="stroke:#181818;stroke-width:1;"/><rect fill="transparent" height="6" style="stroke:#C82930;stroke-width:1;" width="6" x="805" y="1230.3633"/><text fill="#000000" font-family="sans-serif" font-size="13" lengthAdjust="spacing" textLength="116.9937" x="815" y="1237.3638">template_builder_</text></a><!--reverse link C_0005184632287329019882 to C_0013934086101141939615--><g id="link_C_0005184632287329019882_C_0013934086101141939615"><path codeLine="109" d="M759.5717,1823.6116 C769.4417,1818.3916 763.01,1820.9169 772,1814.2969 C807.32,1788.2669 922.45,1496.1169 932,1453.2969 C936.43,1433.4469 928.55,1104.1069 940,1087.2969 C963.5,1052.7969 1004.33,1032.5969 1042.84,1020.7869 " fill="transparent" id="C_0005184632287329019882-backto-C_0013934086101141939615" style="stroke:#181818;stroke-width:1;"/><polygon fill="transparent" points="743.66,1832.0269,762.3768,1828.9155,756.7666,1818.3077,743.66,1832.0269" style="stroke:#181818;stroke-width:1;"/></g><!--reverse link C_0001576551882566686996 to C_0002467043186855586999--><g id="link_C_0001576551882566686996_C_0002467043186855586999"><path codeLine="110" d="M484.0783,1313.7993 C646.6583,1304.1393 1192.53,1265.1369 1339,1167.2969 C1589.31,1000.0869 1715.44,624.4369 1745.07,525.5369 " fill="transparent" id="C_0001576551882566686996-backto-C_0002467043186855586999" style="stroke:#181818;stroke-width:1;"/><polygon fill="transparent" points="466.11,1314.8669,484.4342,1319.7887,483.7224,1307.8098,466.11,1314.8669" style="stroke:#181818;stroke-width:1;"/></g><!--link C_0015659136776023822053 to C_0002467043186855586999--><a href="" target="_top" title="diagram_" xlink:actuate="onRequest" xlink:href="" xlink:show="new" xlink:title="diagram_" xlink:type="simple"><path codeLine="111" d="M1570.33,501.2969 C1616.96,501.2969 1664.86,501.2969 1701.76,501.2969 " fill="transparent" id="C_0015659136776023822053-to-C_0002467043186855586999" style="stroke:#181818;stroke-width:1;"/><polygon fill="#181818" points="1707.76,501.2969,1698.76,497.2969,1702.76,501.2969,1698.76,505.2969,1707.76,501.2969" style="stroke:#181818;stroke-width:1;"/><rect fill="transparent" height="6" style="stroke:#C82930;stroke-width:1;" width="6" x="1605" y="490.3633"/><text fill="#000000" font-family="sans-serif" font-size="13" lengthAdjust="spacing" textLength="60.5566" x="1615" y="497.3638">diagram_</text></a><!--link C_0000567484436108945460 to C_0015659136776023822053--><g id="link_C_0000567484436108945460_C_0015659136776023822053"><path codeLine="112" d="M1290.43,501.2969 C1320.07,501.2969 1334.4,501.2969 1361.61,501.2969 " fill="transparent" id="C_0000567484436108945460-to-C_0015659136776023822053" style="stroke:#181818;stroke-width:1;"/><ellipse cx="1369.61" cy="501.2969" fill="#FFFFFF" rx="8" ry="8" style="stroke:#181818;stroke-width:1;"/><line style="stroke:#181818;stroke-width:1;" x1="1361.61" x2="1377.61" y1="501.2969" y2="501.2969"/><line style="stroke:#181818;stroke-width:1;" x1="1369.61" x2="1369.61" y1="493.2969" y2="509.2969"/></g><!--reverse link C_0010797356058171728853 to C_0000567484436108945460--><g id="link_C_0010797356058171728853_C_0000567484436108945460"><path codeLine="113" d="M767.3366,1571.2504 C774.0166,1566.1404 766.06,1571.4669 772,1565.2969 C830.16,1504.9369 773.16,1267.9969 802,1189.2969 C836.08,1096.2969 900.6,1102.2269 932,1008.2969 C944.58,970.6669 921.94,686.6269 940,651.2969 C970.32,591.9669 1036.16,549.6169 1083.6,525.3569 " fill="transparent" id="C_0010797356058171728853-backto-C_0000567484436108945460" style="stroke:#181818;stroke-width:1;"/><polygon fill="transparent" points="753.04,1582.1869,770.9821,1576.0159,763.6911,1566.4849,753.04,1582.1869" style="stroke:#181818;stroke-width:1;"/></g><!--reverse link C_0001576551882566686996 to C_0001188296008369339829--><g id="link_C_0001576551882566686996_C_0001188296008369339829"><path codeLine="114" d="M442.5521,1277.1114 C482.8721,1199.9014 611.79,974.4369 802,867.2969 C895.77,814.4769 1026.32,809.9969 1093.76,811.8069 " fill="transparent" id="C_0001576551882566686996-backto-C_0001188296008369339829" style="stroke:#181818;stroke-width:1;"/><polygon fill="transparent" points="434.22,1293.0669,447.8706,1279.8888,437.2336,1274.3341,434.22,1293.0669" style="stroke:#181818;stroke-width:1;"/></g><!--reverse link C_0000788514013195129993 to C_0010290736275922634760--><g id="link_C_0000788514013195129993_C_0010290736275922634760"><path codeLine="115" d="M767.3824,1654.2759 C774.0324,1649.1559 766.09,1654.4969 772,1648.2969 C837.83,1579.3269 744.01,1295.9769 802,1220.2969 C839.18,1171.7669 896.04,1224.7469 932,1175.2969 C945.1,1157.2769 927.48,792.7269 940,774.2969 C963.46,739.7669 1004.3,719.5669 1042.81,707.7669 " fill="transparent" id="C_0000788514013195129993-backto-C_0010290736275922634760" style="stroke:#181818;stroke-width:1;"/><polygon fill="transparent" points="753.12,1665.2569,771.0428,1659.03,763.7221,1649.5217,753.12,1665.2569" style="stroke:#181818;stroke-width:1;"/></g><!--reverse link C_0001576551882566686996 to C_0007392356576284087808--><g id="link_C_0001576551882566686996_C_0007392356576284087808"><path codeLine="116" d="M439.775,1276.5237 C486.895,1169.5337 680.43,749.4069 940,461.2969 C987.2,408.9069 1054.87,362.2569 1097.61,335.3769 " fill="transparent" id="C_0001576551882566686996-backto-C_0007392356576284087808" style="stroke:#181818;stroke-width:1;"/><polygon fill="transparent" points="432.52,1292.9969,445.2661,1278.9421,434.284,1274.1054,432.52,1292.9969" style="stroke:#181818;stroke-width:1;"/></g><!--reverse link C_0009834819563374321482 to C_0016589185193012457922--><a href="" target="_top" title="template_builder_" xlink:actuate="onRequest" xlink:href="" xlink:show="new" xlink:title="template_builder_" xlink:type="simple"><path codeLine="117" d="M1031.5485,211.3393 C994.2585,223.5793 965.72,239.6069 940,271.2969 C734.96,523.9569 845.99,667.8969 802,990.2969 C796.47,1030.8369 798.66,1326.2669 772,1357.2969 C747.99,1385.2469 716.46,1404.7169 682.14,1418.1369 " fill="transparent" id="C_0009834819563374321482-backto-C_0016589185193012457922" style="stroke:#181818;stroke-width:1;"/><polygon fill="transparent" points="1042.95,207.5969,1036.0018,205.6676,1031.5485,211.3393,1038.4967,213.2686,1042.95,207.5969" style="stroke:#181818;stroke-width:1;"/><rect fill="transparent" height="6" style="stroke:#C82930;stroke-width:1;" width="6" x="805" y="276.3633"/><text fill="#000000" font-family="sans-serif" font-size="13" lengthAdjust="spacing" textLength="116.9937" x="815" y="283.3638">template_builder_</text></a><!--reverse link C_0000336264923250556599 to C_0009834819563374321482--><g id="link_C_0000336264923250556599_C_0009834819563374321482"><path codeLine="118" d="M767.3587,1488.2601 C774.0287,1483.1501 766.07,1488.4769 772,1482.2969 C832.52,1419.2869 759.69,1166.7369 802,1090.2969 C836.78,1027.4569 899.29,1058.2369 932,994.2969 C941.15,976.4169 928.78,287.9569 940,271.2969 C963.36,236.5869 1004.31,216.3569 1042.92,204.5869 " fill="transparent" id="C_0000336264923250556599-backto-C_0009834819563374321482" style="stroke:#181818;stroke-width:1;"/><polygon fill="transparent" points="753.07,1499.2069,771.0076,1493.023,763.7098,1483.4972,753.07,1499.2069" style="stroke:#181818;stroke-width:1;"/></g><!--SRC=[pLZRRjj647tNLopoaXQrX9szhs0OQ5sWA9001UBsnJ04Mg9beXAbabJouFZVCokHuaMxDEK6IU0NcJDBpJbxvgOYALOnkScYD5z5HR99oIvD2lBhXnloCScJOfFberNyK91YGx9a-LYGHPB5S-SvsaRpVwDbJ6xdgoXTxjQhEnBbv7f6AMXk1MW0gwXKd34DbZmr3cpMwqrwTATCScO4PTfo1Te06DrqNsyMSVroIfMoMWiXGGW1b2d9qHk3o7FoPf54oonQlpbwWzHAIZ26IQMKKTQgqZTa9hUtUuSArWncS8ZOVTe7upwKtpHvBDQhfz-YF2Q7rpviCXAjLgIqa_s1_Fdk3eESpKRF-7T4Ld9S4wS40aC6fEJAW6NSY1fRKL_Jp5tJh3n-URr97vBbpSNlXw-ykJh21y4ijPPfQOGrMZ5ccl1zvdxuvLUwZyrm3l5K0HquAQCXHLTTfHUvFvBMOAV26g-tU2QUtU-IrIBEBgjmfjEznwoaTpejtpQTXkYfsQ3ACcCeC6CbI6iDDwmf1ezvE1jLm5N41nAwE3n8GxVQGBo_tmxoYo0ZUyLDf-N_3VYeS-7IqMYEzmxMjE5xp5zD326K_ukF99slTelOmqZ74kO4gBQQIwnJ1WkMnlkNl9aW7lEFpKbPMpoST2mzEg4QSOAWm04pWLbhcvpupD-3at25oEF_Td4wZrzL9419Om41MewbG4XjMJDBVEOVgaXqmL_qyHAM0EUAAO4TY4agfS9os9B0gVbRIg3LH5lLhp63M0OkIcCLS4E5aR9dgC3anjxF3QOxIA6eLQndgD0SdN1W02uPDat0vjbansFsihCFl8eyF5nSxz-SnTiipkEqID8bYSfXe_8RE5u8uoOdBgLm0nId6DpBuqMT6TnoGOq22Y1G_qYiR6Q6npmCzXdYk6x23euM8Qbqsa9DZE6W1HWhj5HMeh0vxn6BSEBdW9eod5iZDOWUiJ2XD1u1er22qesOhLJoc7siLQ6_JYufAS-tnzA1kg4CKQ9OiF9HDnjWpkjpTEFg0t2bjS8t6SPekyTwp4CPE4CvVtO828wbdx9ekpsd2DVZHXSvpbHA2uEfXbc1wdALfLL6JyrV5NdhyA0YUu8bb4gTQQBM2cv-N3ENGLXTf7IY2QSIe8T11gn0NswnN283FSkSMzHmgQI6A-jIZxLIoMFsqLc5_d8g_LL6_Qga0O4RC7A0BOWBZfUhuPoaeSmbcyBT32SCnOLkISTd7ehrZAJf4d1kmUrE78sBnu9hSULd6liaZXF6zbHSS4iw8gL2ATpxiRs0wMtFE9XWLS65rc17qePsslE9sKVTCVQNTVBUFIMR1-pBrQcAig4LrY0ZA7x4oJ0fjANy3B5Gt5M5mMbSSOxz7IUEzcRdCGz6V8PQFdIm3vNByoYuVqucdw_2lsG4LxINZtctc277F9FlW6E-tvakFu_7uNaoE59jgbF-dojEjecPOtjAnYVFmwmV8_EEV0C0-MQUOAyVZw_wHg6dIembZkhVKR25ZiU_X0UFe6Rgw7rTUm1eNtSAIgscs5Ve1sdcjCW5axtIJ61xFLSplYIe8_CLez7RF-8qpl1L2_8fAHx9lkwCiV1Sa8znbhiAGITg0gEtxzxzy_xuxE_xNLhi3jx7Xs0dC07o4-psLlZv2m00]--></g></svg>