<svg xmlns="http://www.w3.org/2000/svg" xmlns:xlink="http://www.w3.org/1999/xlink" contentStyleType="text/css" data-diagram-type="CLASS" height="755px" preserveAspectRatio="none" style="width:2180px;height:755px;background:#FFFFFF;" version="1.1" viewBox="0 0 2180 755" width="2180px" zoomAndPan="magnify"><title>Class diagram TU visitor</title><defs/><g><text fill="#000000" font-family="sans-serif" font-size="14" font-weight="bold" lengthAdjust="spacing" textLength="192.2266" x="986.8867" y="22.9951">Class diagram TU visitor</text><!--cluster C_0017394171196056322719--><g id="cluster_C_0017394171196056322719"><path d="M8.5,43.2969 L81.3867,43.2969 A3.75,3.75 0 0 1 83.8867,45.7969 L90.8867,65.5938 L1305.5,65.5938 A2.5,2.5 0 0 1 1308,68.0938 L1308,634.7969 A2.5,2.5 0 0 1 1305.5,637.2969 L8.5,637.2969 A2.5,2.5 0 0 1 6,634.7969 L6,45.7969 A2.5,2.5 0 0 1 8.5,43.2969 " fill="transparent" style="stroke:#000000;stroke-width:1.5;"/><line style="stroke:#000000;stroke-width:1.5;" x1="6" x2="90.8867" y1="65.5938" y2="65.5938"/><text fill="#000000" font-family="sans-serif" font-size="14" font-weight="bold" lengthAdjust="spacing" textLength="71.8867" x="10" y="58.292">clanguml</text></g><!--cluster C_0002532840279361781187--><g id="cluster_C_0002532840279361781187"><path d="M32.5,86.2969 L100.1777,86.2969 A3.75,3.75 0 0 1 102.6777,88.7969 L109.6777,108.5938 L1281.5,108.5938 A2.5,2.5 0 0 1 1284,111.0938 L1284,249.7969 A2.5,2.5 0 0 1 1281.5,252.2969 L32.5,252.2969 A2.5,2.5 0 0 1 30,249.7969 L30,88.7969 A2.5,2.5 0 0 1 32.5,86.2969 " fill="transparent" style="stroke:#000000;stroke-width:1.5;"/><line style="stroke:#000000;stroke-width:1.5;" x1="30" x2="109.6777" y1="108.5938" y2="108.5938"/><text fill="#000000" font-family="sans-serif" font-size="14" font-weight="bold" lengthAdjust="spacing" textLength="66.6777" x="34" y="101.292">common</text></g><!--cluster C_0016474478155368192384--><g id="cluster_C_0016474478155368192384"><path d="M56.5,129.2969 L107.7715,129.2969 A3.75,3.75 0 0 1 110.2715,131.7969 L117.2715,151.5938 L1257.5,151.5938 A2.5,2.5 0 0 1 1260,154.0938 L1260,225.7969 A2.5,2.5 0 0 1 1257.5,228.2969 L56.5,228.2969 A2.5,2.5 0 0 1 54,225.7969 L54,131.7969 A2.5,2.5 0 0 1 56.5,129.2969 " fill="transparent" style="stroke:#000000;stroke-width:1.5;"/><line style="stroke:#000000;stroke-width:1.5;" x1="54" x2="117.2715" y1="151.5938" y2="151.5938"/><text fill="#000000" font-family="sans-serif" font-size="14" font-weight="bold" lengthAdjust="spacing" textLength="50.2715" x="58" y="144.292">visitor</text></g><!--cluster C_0017921336289613804855--><g id="cluster_C_0017921336289613804855"><path d="M526.5,301.2969 L638.9395,301.2969 A3.75,3.75 0 0 1 641.4395,303.7969 L648.4395,323.5938 L1281.5,323.5938 A2.5,2.5 0 0 1 1284,326.0938 L1284,610.7969 A2.5,2.5 0 0 1 1281.5,613.2969 L526.5,613.2969 A2.5,2.5 0 0 1 524,610.7969 L524,303.7969 A2.5,2.5 0 0 1 526.5,301.2969 " fill="transparent" style="stroke:#000000;stroke-width:1.5;"/><line style="stroke:#000000;stroke-width:1.5;" x1="524" x2="648.4395" y1="323.5938" y2="323.5938"/><text fill="#000000" font-family="sans-serif" font-size="14" font-weight="bold" lengthAdjust="spacing" textLength="111.4395" x="528" y="316.292">class_diagram</text></g><!--cluster C_0014897743554774430622--><g id="cluster_C_0014897743554774430622"><path d="M550.5,344.2969 L601.7715,344.2969 A3.75,3.75 0 0 1 604.2715,346.7969 L611.2715,366.5938 L1257.5,366.5938 A2.5,2.5 0 0 1 1260,369.0938 L1260,586.7969 A2.5,2.5 0 0 1 1257.5,589.2969 L550.5,589.2969 A2.5,2.5 0 0 1 548,586.7969 L548,346.7969 A2.5,2.5 0 0 1 550.5,344.2969 " fill="transparent" style="stroke:#000000;stroke-width:1.5;"/><line style="stroke:#000000;stroke-width:1.5;" x1="548" x2="611.2715" y1="366.5938" y2="366.5938"/><text fill="#000000" font-family="sans-serif" font-size="14" font-weight="bold" lengthAdjust="spacing" textLength="50.2715" x="552" y="359.292">visitor</text></g><!--cluster C_0004091562305438647185--><g id="cluster_C_0004091562305438647185"><path d="M1334.5,490.2969 L1378.0332,490.2969 A3.75,3.75 0 0 1 1380.5332,492.7969 L1387.5332,512.5938 L2170.5,512.5938 A2.5,2.5 0 0 1 2173,515.0938 L2173,745.7969 A2.5,2.5 0 0 1 2170.5,748.2969 L1334.5,748.2969 A2.5,2.5 0 0 1 1332,745.7969 L1332,492.7969 A2.5,2.5 0 0 1 1334.5,490.2969 " fill="transparent" style="stroke:#000000;stroke-width:1.5;"/><line style="stroke:#000000;stroke-width:1.5;" x1="1332" x2="1387.5332" y1="512.5938" y2="512.5938"/><text fill="#000000" font-family="sans-serif" font-size="14" font-weight="bold" lengthAdjust="spacing" textLength="42.5332" x="1336" y="505.292">clang</text></g><!--class C_0006928801289515998382--><a href="classclanguml_1_1common_1_1visitor_1_1template__builder.html" target="_top" title="template_builder" xlink:actuate="onRequest" xlink:href="classclanguml_1_1common_1_1visitor_1_1template__builder.html" xlink:show="new" xlink:title="template_builder" xlink:type="simple"><g id="elem_C_0006928801289515998382"><rect codeLine="6" fill="#F1F1F1" height="48" id="C_0006928801289515998382" rx="2.5" ry="2.5" style="stroke:#181818;stroke-width:0.5;" width="493.8525" x="750" y="164.2969"/><ellipse cx="765" cy="180.2969" fill="#ADD1B2" rx="11" ry="11" style="stroke:#181818;stroke-width:1;"/><path d="M767.9688,185.9375 Q767.3906,186.2344 766.75,186.375 Q766.1094,186.5313 765.4063,186.5313 Q762.9063,186.5313 761.5781,184.8906 Q760.2656,183.2344 760.2656,180.1094 Q760.2656,176.9844 761.5781,175.3281 Q762.9063,173.6719 765.4063,173.6719 Q766.1094,173.6719 766.75,173.8281 Q767.4063,173.9844 767.9688,174.2813 L767.9688,177 Q767.3438,176.4219 766.75,176.1563 Q766.1563,175.875 765.5313,175.875 Q764.1875,175.875 763.5,176.9531 Q762.8125,178.0156 762.8125,180.1094 Q762.8125,182.2031 763.5,183.2813 Q764.1875,184.3438 765.5313,184.3438 Q766.1563,184.3438 766.75,184.0781 Q767.3438,183.7969 767.9688,183.2188 L767.9688,185.9375 Z " fill="#000000"/><text fill="#000000" font-family="sans-serif" font-size="14" lengthAdjust="spacing" textLength="118.9932" x="779" y="185.1436">template_builder</text><rect fill="#FFFFFF" height="15.9688" style="stroke:#181818;stroke-width:1;stroke-dasharray:2.0,2.0;" width="340.8594" x="905.9932" y="161.2969"/><text fill="#000000" font-family="sans-serif" font-size="12" font-style="italic" lengthAdjust="spacing" textLength="338.8594" x="906.9932" y="173.4355">clanguml::class_diagram::visitor::translation_unit_visitor</text><line style="stroke:#181818;stroke-width:0.5;" x1="751" x2="1242.8525" y1="196.2969" y2="196.2969"/><line style="stroke:#181818;stroke-width:0.5;" x1="751" x2="1242.8525" y1="204.2969" y2="204.2969"/></g></a><!--class C_0005184632287329019882--><a href="classclanguml_1_1common_1_1visitor_1_1translation__unit__visitor.html" target="_top" title="translation_unit_visitor" xlink:actuate="onRequest" xlink:href="classclanguml_1_1common_1_1visitor_1_1translation__unit__visitor.html" xlink:show="new" xlink:title="translation_unit_visitor" xlink:type="simple"><g id="elem_C_0005184632287329019882"><rect codeLine="10" fill="#F1F1F1" height="48" id="C_0005184632287329019882" rx="2.5" ry="2.5" style="stroke:#181818;stroke-width:0.5;" width="645.4482" x="69.5" y="164.2969"/><ellipse cx="84.5" cy="180.2969" fill="#ADD1B2" rx="11" ry="11" style="stroke:#181818;stroke-width:1;"/><path d="M87.4688,185.9375 Q86.8906,186.2344 86.25,186.375 Q85.6094,186.5313 84.9063,186.5313 Q82.4063,186.5313 81.0781,184.8906 Q79.7656,183.2344 79.7656,180.1094 Q79.7656,176.9844 81.0781,175.3281 Q82.4063,173.6719 84.9063,173.6719 Q85.6094,173.6719 86.25,173.8281 Q86.9063,173.9844 87.4688,174.2813 L87.4688,177 Q86.8438,176.4219 86.25,176.1563 Q85.6563,175.875 85.0313,175.875 Q83.6875,175.875 83,176.9531 Q82.3125,178.0156 82.3125,180.1094 Q82.3125,182.2031 83,183.2813 Q83.6875,184.3438 85.0313,184.3438 Q85.6563,184.3438 86.25,184.0781 Q86.8438,183.7969 87.4688,183.2188 L87.4688,185.9375 Z " fill="#000000"/><text fill="#000000" font-family="sans-serif" font-size="14" lengthAdjust="spacing" textLength="159.5713" x="98.5" y="185.1436">translation_unit_visitor</text><rect fill="#FFFFFF" height="15.9688" style="stroke:#181818;stroke-width:1;stroke-dasharray:2.0,2.0;" width="451.877" x="266.0713" y="161.2969"/><text fill="#000000" font-family="sans-serif" font-size="12" font-style="italic" lengthAdjust="spacing" textLength="449.877" x="267.0713" y="173.4355">clanguml::config::class_diagram,clanguml::class_diagram::model::diagram</text><line style="stroke:#181818;stroke-width:0.5;" x1="70.5" x2="713.9482" y1="196.2969" y2="196.2969"/><line style="stroke:#181818;stroke-width:0.5;" x1="70.5" x2="713.9482" y1="204.2969" y2="204.2969"/></g></a><!--class C_0002640037786747292483--><a href="classclanguml_1_1class__diagram_1_1visitor_1_1forward__declarations__t.html" target="_top" title="forward_declarations_t" xlink:actuate="onRequest" xlink:href="classclanguml_1_1class__diagram_1_1visitor_1_1forward__declarations__t.html" xlink:show="new" xlink:title="forward_declarations_t" xlink:type="simple"><g id="elem_C_0002640037786747292483"><rect codeLine="18" fill="#F1F1F1" height="48" id="C_0002640037786747292483" rx="2.5" ry="2.5" style="stroke:#181818;stroke-width:0.5;" width="680.3047" x="564" y="525.2969"/><ellipse cx="579" cy="541.2969" fill="#ADD1B2" rx="11" ry="11" style="stroke:#181818;stroke-width:1;"/><path d="M581.9688,546.9375 Q581.3906,547.2344 580.75,547.375 Q580.1094,547.5313 579.4063,547.5313 Q576.9063,547.5313 575.5781,545.8906 Q574.2656,544.2344 574.2656,541.1094 Q574.2656,537.9844 575.5781,536.3281 Q576.9063,534.6719 579.4063,534.6719 Q580.1094,534.6719 580.75,534.8281 Q581.4063,534.9844 581.9688,535.2813 L581.9688,538 Q581.3438,537.4219 580.75,537.1563 Q580.1563,536.875 579.5313,536.875 Q578.1875,536.875 577.5,537.9531 Q576.8125,539.0156 576.8125,541.1094 Q576.8125,543.2031 577.5,544.2813 Q578.1875,545.3438 579.5313,545.3438 Q580.1563,545.3438 580.75,545.0781 Q581.3438,544.7969 581.9688,544.2188 L581.9688,546.9375 Z " fill="#000000"/><text fill="#000000" font-family="sans-serif" font-size="14" lengthAdjust="spacing" textLength="159.5234" x="593" y="546.1436">forward_declarations_t</text><rect fill="#FFFFFF" height="15.9688" style="stroke:#181818;stroke-width:1;stroke-dasharray:2.0,2.0;" width="486.7813" x="760.5234" y="522.2969"/><text fill="#000000" font-family="sans-serif" font-size="12" font-style="italic" lengthAdjust="spacing" textLength="484.7813" x="761.5234" y="534.4355">clanguml::class_diagram::model::class_,clanguml::class_diagram::model::enum_</text><line style="stroke:#181818;stroke-width:0.5;" x1="565" x2="1243.3047" y1="557.2969" y2="557.2969"/><line style="stroke:#181818;stroke-width:0.5;" x1="565" x2="1243.3047" y1="565.2969" y2="565.2969"/></g></a><!--class C_0013934086101141939615--><a href="classclanguml_1_1class__diagram_1_1visitor_1_1translation__unit__visitor.html" target="_top" title="Class diagram translation unit visitor" xlink:actuate="onRequest" xlink:href="classclanguml_1_1class__diagram_1_1visitor_1_1translation__unit__visitor.html" xlink:show="new" xlink:title="Class diagram translation unit visitor" xlink:type="simple"><g id="elem_C_0013934086101141939615"><rect codeLine="22" fill="#F1F1F1" height="48" id="C_0013934086101141939615" rx="2.5" ry="2.5" style="stroke:#181818;stroke-width:0.5;" width="191.5713" x="1027" y="379.2969"/><ellipse cx="1042" cy="395.2969" fill="#ADD1B2" rx="11" ry="11" style="stroke:#181818;stroke-width:1;"/><path d="M1044.9688,400.9375 Q1044.3906,401.2344 1043.75,401.375 Q1043.1094,401.5313 1042.4063,401.5313 Q1039.9063,401.5313 1038.5781,399.8906 Q1037.2656,398.2344 1037.2656,395.1094 Q1037.2656,391.9844 1038.5781,390.3281 Q1039.9063,388.6719 1042.4063,388.6719 Q1043.1094,388.6719 1043.75,388.8281 Q1044.4063,388.9844 1044.9688,389.2813 L1044.9688,392 Q1044.3438,391.4219 1043.75,391.1563 Q1043.1563,390.875 1042.5313,390.875 Q1041.1875,390.875 1040.5,391.9531 Q1039.8125,393.0156 1039.8125,395.1094 Q1039.8125,397.2031 1040.5,398.2813 Q1041.1875,399.3438 1042.5313,399.3438 Q1043.1563,399.3438 1043.75,399.0781 Q1044.3438,398.7969 1044.9688,398.2188 L1044.9688,400.9375 Z " fill="#000000"/><text fill="#000000" font-family="sans-serif" font-size="14" lengthAdjust="spacing" textLength="159.5713" x="1056" y="400.1436">translation_unit_visitor</text><line style="stroke:#181818;stroke-width:0.5;" x1="1028" x2="1217.5713" y1="411.2969" y2="411.2969"/><line style="stroke:#181818;stroke-width:0.5;" x1="1028" x2="1217.5713" y1="419.2969" y2="419.2969"/></g></a><!--class C_0015575070709788530059--><g id="elem_C_0015575070709788530059"><rect codeLine="30" fill="#F1F1F1" height="48" id="C_0015575070709788530059" rx="2.5" ry="2.5" style="stroke:#181818;stroke-width:0.5;" width="119.7461" x="1348" y="525.2969"/><ellipse cx="1363" cy="541.2969" fill="#ADD1B2" rx="11" ry="11" style="stroke:#181818;stroke-width:1;"/><path d="M1365.9688,546.9375 Q1365.3906,547.2344 1364.75,547.375 Q1364.1094,547.5313 1363.4063,547.5313 Q1360.9063,547.5313 1359.5781,545.8906 Q1358.2656,544.2344 1358.2656,541.1094 Q1358.2656,537.9844 1359.5781,536.3281 Q1360.9063,534.6719 1363.4063,534.6719 Q1364.1094,534.6719 1364.75,534.8281 Q1365.4063,534.9844 1365.9688,535.2813 L1365.9688,538 Q1365.3438,537.4219 1364.75,537.1563 Q1364.1563,536.875 1363.5313,536.875 Q1362.1875,536.875 1361.5,537.9531 Q1360.8125,539.0156 1360.8125,541.1094 Q1360.8125,543.2031 1361.5,544.2813 Q1362.1875,545.3438 1363.5313,545.3438 Q1364.1563,545.3438 1364.75,545.0781 Q1365.3438,544.7969 1365.9688,544.2188 L1365.9688,546.9375 Z " fill="#000000"/><text fill="#000000" font-family="sans-serif" font-size="14" lengthAdjust="spacing" textLength="87.7461" x="1377" y="546.1436">TypedefDecl</text><line style="stroke:#181818;stroke-width:0.5;" x1="1349" x2="1466.7461" y1="557.2969" y2="557.2969"/><line style="stroke:#181818;stroke-width:0.5;" x1="1349" x2="1466.7461" y1="565.2969" y2="565.2969"/></g><!--class C_0014260023443016199669--><g id="elem_C_0014260023443016199669"><rect codeLine="34" fill="#F1F1F1" height="48" id="C_0014260023443016199669" rx="2.5" ry="2.5" style="stroke:#181818;stroke-width:0.5;" width="103.21" x="1503.5" y="525.2969"/><ellipse cx="1518.5" cy="541.2969" fill="#ADD1B2" rx="11" ry="11" style="stroke:#181818;stroke-width:1;"/><path d="M1521.4688,546.9375 Q1520.8906,547.2344 1520.25,547.375 Q1519.6094,547.5313 1518.9063,547.5313 Q1516.4063,547.5313 1515.0781,545.8906 Q1513.7656,544.2344 1513.7656,541.1094 Q1513.7656,537.9844 1515.0781,536.3281 Q1516.4063,534.6719 1518.9063,534.6719 Q1519.6094,534.6719 1520.25,534.8281 Q1520.9063,534.9844 1521.4688,535.2813 L1521.4688,538 Q1520.8438,537.4219 1520.25,537.1563 Q1519.6563,536.875 1519.0313,536.875 Q1517.6875,536.875 1517,537.9531 Q1516.3125,539.0156 1516.3125,541.1094 Q1516.3125,543.2031 1517,544.2813 Q1517.6875,545.3438 1519.0313,545.3438 Q1519.6563,545.3438 1520.25,545.0781 Q1520.8438,544.7969 1521.4688,544.2188 L1521.4688,546.9375 Z " fill="#000000"/><text fill="#000000" font-family="sans-serif" font-size="14" lengthAdjust="spacing" textLength="71.21" x="1532.5" y="546.1436">EnumDecl</text><line style="stroke:#181818;stroke-width:0.5;" x1="1504.5" x2="1605.71" y1="557.2969" y2="557.2969"/><line style="stroke:#181818;stroke-width:0.5;" x1="1504.5" x2="1605.71" y1="565.2969" y2="565.2969"/></g><!--class C_0015863240072594960404--><g id="elem_C_0015863240072594960404"><rect codeLine="38" fill="#F1F1F1" height="48" id="C_0015863240072594960404" rx="2.5" ry="2.5" style="stroke:#181818;stroke-width:0.5;" width="223.2178" x="1787.5" y="684.2969"/><ellipse cx="1802.5" cy="700.2969" fill="#ADD1B2" rx="11" ry="11" style="stroke:#181818;stroke-width:1;"/><path d="M1805.4688,705.9375 Q1804.8906,706.2344 1804.25,706.375 Q1803.6094,706.5313 1802.9063,706.5313 Q1800.4063,706.5313 1799.0781,704.8906 Q1797.7656,703.2344 1797.7656,700.1094 Q1797.7656,696.9844 1799.0781,695.3281 Q1800.4063,693.6719 1802.9063,693.6719 Q1803.6094,693.6719 1804.25,693.8281 Q1804.9063,693.9844 1805.4688,694.2813 L1805.4688,697 Q1804.8438,696.4219 1804.25,696.1563 Q1803.6563,695.875 1803.0313,695.875 Q1801.6875,695.875 1801,696.9531 Q1800.3125,698.0156 1800.3125,700.1094 Q1800.3125,702.2031 1801,703.2813 Q1801.6875,704.3438 1803.0313,704.3438 Q1803.6563,704.3438 1804.25,704.0781 Q1804.8438,703.7969 1805.4688,703.2188 L1805.4688,705.9375 Z " fill="#000000"/><text fill="#000000" font-family="sans-serif" font-size="14" lengthAdjust="spacing" textLength="140.2256" x="1816.5" y="705.1436">RecursiveASTVisitor</text><rect fill="#FFFFFF" height="15.9688" style="stroke:#181818;stroke-width:1;stroke-dasharray:2.0,2.0;" width="48.9922" x="1964.7256" y="681.2969"/><text fill="#000000" font-family="sans-serif" font-size="12" font-style="italic" lengthAdjust="spacing" textLength="46.9922" x="1965.7256" y="693.4355">Derived</text><line style="stroke:#181818;stroke-width:0.5;" x1="1788.5" x2="2009.7178" y1="716.2969" y2="716.2969"/><line style="stroke:#181818;stroke-width:0.5;" x1="1788.5" x2="2009.7178" y1="724.2969" y2="724.2969"/></g><!--class C_0011265253827398874958--><a href="classclang_1_1RecursiveASTVisitor.html" target="_top" title="RecursiveASTVisitor" xlink:actuate="onRequest" xlink:href="classclang_1_1RecursiveASTVisitor.html" xlink:show="new" xlink:title="RecursiveASTVisitor" xlink:type="simple"><g id="elem_C_0011265253827398874958"><rect codeLine="42" fill="#F1F1F1" height="48" id="C_0011265253827398874958" rx="2.5" ry="2.5" style="stroke:#181818;stroke-width:0.5;" width="515.085" x="1641.5" y="525.2969"/><ellipse cx="1656.5" cy="541.2969" fill="#ADD1B2" rx="11" ry="11" style="stroke:#181818;stroke-width:1;"/><path d="M1659.4688,546.9375 Q1658.8906,547.2344 1658.25,547.375 Q1657.6094,547.5313 1656.9063,547.5313 Q1654.4063,547.5313 1653.0781,545.8906 Q1651.7656,544.2344 1651.7656,541.1094 Q1651.7656,537.9844 1653.0781,536.3281 Q1654.4063,534.6719 1656.9063,534.6719 Q1657.6094,534.6719 1658.25,534.8281 Q1658.9063,534.9844 1659.4688,535.2813 L1659.4688,538 Q1658.8438,537.4219 1658.25,537.1563 Q1657.6563,536.875 1657.0313,536.875 Q1655.6875,536.875 1655,537.9531 Q1654.3125,539.0156 1654.3125,541.1094 Q1654.3125,543.2031 1655,544.2813 Q1655.6875,545.3438 1657.0313,545.3438 Q1657.6563,545.3438 1658.25,545.0781 Q1658.8438,544.7969 1659.4688,544.2188 L1659.4688,546.9375 Z " fill="#000000"/><text fill="#000000" font-family="sans-serif" font-size="14" lengthAdjust="spacing" textLength="140.2256" x="1670.5" y="546.1436">RecursiveASTVisitor</text><rect fill="#FFFFFF" height="15.9688" style="stroke:#181818;stroke-width:1;stroke-dasharray:2.0,2.0;" width="340.8594" x="1818.7256" y="522.2969"/><text fill="#000000" font-family="sans-serif" font-size="12" font-style="italic" lengthAdjust="spacing" textLength="338.8594" x="1819.7256" y="534.4355">clanguml::class_diagram::visitor::translation_unit_visitor</text><line style="stroke:#181818;stroke-width:0.5;" x1="1642.5" x2="2155.585" y1="557.2969" y2="557.2969"/><line style="stroke:#181818;stroke-width:0.5;" x1="1642.5" x2="2155.585" y1="565.2969" y2="565.2969"/></g></a><!--reverse link C_0013934086101141939615 to C_0006928801289515998382--><a href="" target="_top" title="template_builder_" xlink:actuate="onRequest" xlink:href="" xlink:show="new" xlink:title="template_builder_" xlink:type="simple"><path codeLine="46" d="M1103.1811,368.7982 C1078.9611,327.8482 1034.96,253.4669 1010.72,212.4969 " fill="transparent" id="C_0013934086101141939615-backto-C_0006928801289515998382" style="stroke:#181818;stroke-width:1;"/><polygon fill="transparent" points="1109.29,379.1269,1109.6784,371.9262,1103.1811,368.7982,1102.7927,375.9989,1109.29,379.1269" style="stroke:#181818;stroke-width:1;"/><rect fill="transparent" height="6" style="stroke:#C82930;stroke-width:1;" width="6" x="1055" y="274.3633"/><text fill="#000000" font-family="sans-serif" font-size="13" lengthAdjust="spacing" textLength="116.9937" x="1065" y="281.3638">template_builder_</text></a><!--reverse link C_0013934086101141939615 to C_0002640037786747292483--><a href="" target="_top" title="forward_declarations_" xlink:actuate="onRequest" xlink:href="" xlink:show="new" xlink:title="forward_declarations_" xlink:type="simple"><path codeLine="47" d="M1022.0163,431.5164 C1001.7563,439.1264 992.36,444.7469 975,457.2969 C949.99,475.3769 929.38,504.6369 916.92,525.0769 " fill="transparent" id="C_0013934086101141939615-backto-C_0002640037786747292483" style="stroke:#181818;stroke-width:1;"/><polygon fill="transparent" points="1033.25,427.2969,1026.2266,425.6621,1022.0163,431.5164,1029.0397,433.1512,1033.25,427.2969" style="stroke:#181818;stroke-width:1;"/><rect fill="transparent" height="6" style="stroke:#C82930;stroke-width:1;" width="6" x="978" y="463.3633"/><text fill="#000000" font-family="sans-serif" font-size="13" lengthAdjust="spacing" textLength="143.0317" x="988" y="470.3638">forward_declarations_</text></a><!--link C_0013934086101141939615 to C_0014260023443016199669--><a href="" target="_top" title="typedef_enum_decls_" xlink:actuate="onRequest" xlink:href="" xlink:show="new" xlink:title="typedef_enum_decls_" xlink:type="simple"><path codeLine="48" d="M1219.09,407.2669 C1296.38,413.6269 1405.06,431.8069 1486,482.2969 C1504.57,493.8769 1518.2618,506.6567 1531.1118,520.5867 " fill="transparent" id="C_0013934086101141939615-to-C_0014260023443016199669" style="stroke:#181818;stroke-width:1;"/><polygon fill="#181818" points="1535.18,524.9969,1532.0178,515.6695,1531.7898,521.3217,1526.1375,521.0938,1535.18,524.9969" style="stroke:#181818;stroke-width:1;"/><rect fill="transparent" height="6" style="stroke:#C82930;stroke-width:1;" width="6" x="1471" y="463.3633"/><text fill="#000000" font-family="sans-serif" font-size="13" lengthAdjust="spacing" textLength="140.2896" x="1481" y="470.3638">typedef_enum_decls_</text></a><!--link C_0013934086101141939615 to C_0015575070709788530059--><a href="" target="_top" title="typedef_enum_decls_" xlink:actuate="onRequest" xlink:href="" xlink:show="new" xlink:title="typedef_enum_decls_" xlink:type="simple"><path codeLine="49" d="M1168.79,427.4369 C1221.97,454.3069 1303.835,495.6606 1356.965,522.5106 " fill="transparent" id="C_0013934086101141939615-to-C_0015575070709788530059" style="stroke:#181818;stroke-width:1;"/><polygon fill="#181818" points="1362.32,525.2169,1356.0916,517.5875,1357.8575,522.9617,1352.4833,524.7275,1362.32,525.2169" style="stroke:#181818;stroke-width:1;"/><rect fill="transparent" height="6" style="stroke:#C82930;stroke-width:1;" width="6" x="1259" y="463.3633"/><text fill="#000000" font-family="sans-serif" font-size="13" lengthAdjust="spacing" textLength="140.2896" x="1269" y="470.3638">typedef_enum_decls_</text></a><!--reverse link C_0011265253827398874958 to C_0013934086101141939615--><g id="link_C_0011265253827398874958_C_0013934086101141939615"><path codeLine="50" d="M1826.0854,518.6279 C1772.3754,497.5379 1705.38,473.7669 1630,457.2969 C1489.07,426.4969 1322.06,413.4269 1219.32,408.0069 " fill="transparent" id="C_0011265253827398874958-backto-C_0013934086101141939615" style="stroke:#181818;stroke-width:1;"/><polygon fill="transparent" points="1842.84,525.2069,1828.2784,513.0431,1823.8924,524.2128,1842.84,525.2069" style="stroke:#181818;stroke-width:1;"/></g><!--reverse link C_0005184632287329019882 to C_0013934086101141939615--><g id="link_C_0005184632287329019882_C_0013934086101141939615"><path codeLine="51" d="M488.5513,217.4323 C629.1913,258.4123 903.46,338.3269 1043.94,379.2569 " fill="transparent" id="C_0005184632287329019882-backto-C_0013934086101141939615" style="stroke:#181818;stroke-width:1;"/><polygon fill="transparent" points="471.27,212.3969,486.8728,223.1928,490.2298,211.6719,471.27,212.3969" style="stroke:#181818;stroke-width:1;"/></g><!--link C_0011265253827398874958 to C_0015863240072594960404--><g id="link_C_0011265253827398874958_C_0015863240072594960404"><path codeLine="52" d="M1899,573.4669 C1899,603.2269 1899,636.5969 1899,666.2869 " fill="transparent" id="C_0011265253827398874958-to-C_0015863240072594960404" style="stroke:#181818;stroke-width:1;stroke-dasharray:7.0,7.0;"/><polygon fill="transparent" points="1899,684.2869,1905,666.2869,1893,666.2869,1899,684.2869" style="stroke:#181818;stroke-width:1;"/></g><!--SRC=[hLLDJzj04BtdLwouq4easjdlZL2a2gfUwAK5BWYjJBm4gx6D71jK0V-zQyTnrc5Dqgho8SxCUDwycRUpPL8kBJfRHgiLYfDeKKGfkhn2JyagAVDYz1ZDVqKBYsxcooXRLEdo5aKhT6Om1aar0mcW1UQ24Y91enVlWpnDywmBnuHJeXWcKbC1KW4ewOUtWDlqWad6N1pdL2ZGX2hcukTDeKUbJH-NKMdDNPKiOrkSRigRJfi8qrAPJjkyqsbPHDdAVPFacQcof3IjPtRKbIWqKGe3KPe3rrfHHLh08JUwkMa2Dl063Ao9rsyjGltQ5RofUF9GfikNNHvljxUEf36ZjuxfGDa-upoxJnOxp4y6EvBciNNMzhz7duDYzI2Lf4HZqAfFF-0-dBx7OarZmwFjmm1Bhn_ruwjnIycJf2P0gN0J4a0LPehp3pN6b9QIKSwP-s4K2qAs6hlFY-UeY4ridQ5eQbkPydHVNzVMlUstMPKQh_b4C8ofb4f89eacJ56_-G5tiFaDrWPiPmWRGdr6fboF84ptS45sL81goh0IW04OQEfcmJqg8VTVKzcdf_u-yw9H7Op2wdhRsNRRtSMm1Yu8nPnHvHOJABxLoUNlHnlR-tFNjsqFE9SSI_TegHIdxlHelmS1zqwRlpfzz5Co8fmEQArJ4A2r4BsK0VTEoXzsNXMhvCb- -NbvtMwHSriuGpppAbVka3knIS8rSxkTOTQh_Btx09Z_iPu1YE3k5b74tJnAIQQvyYiBk7kwgdKJg6qjc82Zfuv1vURZyKUtmxiDR-gqKpH-Ppy08hm4mYUtXGdwXg76uzcmccesQwsRPdlLEJkWWES0cD0v-3UOqFHFNzlE1LVIuAMs_xCWscJoEXi-GgFZRpQpRW8sHiz9-O0QJOxTcJX1JzP9p-qcF14J61rVN5n_xsnNTrLMLklepWXw0XD0dw1glF3v3m00]--></g></svg>