<svg xmlns="http://www.w3.org/2000/svg" xmlns:xlink="http://www.w3.org/1999/xlink" contentStyleType="text/css" data-diagram-type="CLASS" height="477px" preserveAspectRatio="none" style="width:1451px;height:477px;background:#FFFFFF;" version="1.1" viewBox="0 0 1451 477" width="1451px" zoomAndPan="magnify"><title>Common diagram model</title><defs/><g><text fill="#000000" font-family="sans-serif" font-size="14" font-weight="bold" lengthAdjust="spacing" textLength="192.1514" x="622.8479" y="22.9951">Common diagram model</text><!--class C_0001117102382624673118--><a href="classclanguml_1_1common_1_1model_1_1decorated__element.html" target="_top" title="Base class for decorated diagram elements" xlink:actuate="onRequest" xlink:href="classclanguml_1_1common_1_1model_1_1decorated__element.html" xlink:show="new" xlink:title="Base class for decorated diagram elements" xlink:type="simple"><g id="elem_C_0001117102382624673118"><rect codeLine="3" fill="#F1F1F1" height="48" id="C_0001117102382624673118" rx="2.5" ry="2.5" style="stroke:#181818;stroke-width:0.5;" width="167.8164" x="486" y="47.2969"/><ellipse cx="501" cy="63.2969" fill="#ADD1B2" rx="11" ry="11" style="stroke:#181818;stroke-width:1;"/><path d="M503.9688,68.9375 Q503.3906,69.2344 502.75,69.375 Q502.1094,69.5313 501.4063,69.5313 Q498.9063,69.5313 497.5781,67.8906 Q496.2656,66.2344 496.2656,63.1094 Q496.2656,59.9844 497.5781,58.3281 Q498.9063,56.6719 501.4063,56.6719 Q502.1094,56.6719 502.75,56.8281 Q503.4063,56.9844 503.9688,57.2813 L503.9688,60 Q503.3438,59.4219 502.75,59.1563 Q502.1563,58.875 501.5313,58.875 Q500.1875,58.875 499.5,59.9531 Q498.8125,61.0156 498.8125,63.1094 Q498.8125,65.2031 499.5,66.2813 Q500.1875,67.3438 501.5313,67.3438 Q502.1563,67.3438 502.75,67.0781 Q503.3438,66.7969 503.9688,66.2188 L503.9688,68.9375 Z " fill="#000000"/><text fill="#000000" font-family="sans-serif" font-size="14" lengthAdjust="spacing" textLength="135.8164" x="515" y="68.1436">decorated_element</text><line style="stroke:#181818;stroke-width:0.5;" x1="487" x2="652.8164" y1="79.2969" y2="79.2969"/><line style="stroke:#181818;stroke-width:0.5;" x1="487" x2="652.8164" y1="87.2969" y2="87.2969"/></g></a><!--class C_0002077846075979426940--><a href="classclanguml_1_1common_1_1model_1_1stylable__element.html" target="_top" title="Diagram elements to which style can be applied." xlink:actuate="onRequest" xlink:href="classclanguml_1_1common_1_1model_1_1stylable__element.html" xlink:show="new" xlink:title="Diagram elements to which style can be applied." xlink:type="simple"><g id="elem_C_0002077846075979426940"><rect codeLine="7" fill="#F1F1F1" height="48" id="C_0002077846075979426940" rx="2.5" ry="2.5" style="stroke:#181818;stroke-width:0.5;" width="151.6563" x="356" y="172.2969"/><ellipse cx="371" cy="188.2969" fill="#ADD1B2" rx="11" ry="11" style="stroke:#181818;stroke-width:1;"/><path d="M373.9688,193.9375 Q373.3906,194.2344 372.75,194.375 Q372.1094,194.5313 371.4063,194.5313 Q368.9063,194.5313 367.5781,192.8906 Q366.2656,191.2344 366.2656,188.1094 Q366.2656,184.9844 367.5781,183.3281 Q368.9063,181.6719 371.4063,181.6719 Q372.1094,181.6719 372.75,181.8281 Q373.4063,181.9844 373.9688,182.2813 L373.9688,185 Q373.3438,184.4219 372.75,184.1563 Q372.1563,183.875 371.5313,183.875 Q370.1875,183.875 369.5,184.9531 Q368.8125,186.0156 368.8125,188.1094 Q368.8125,190.2031 369.5,191.2813 Q370.1875,192.3438 371.5313,192.3438 Q372.1563,192.3438 372.75,192.0781 Q373.3438,191.7969 373.9688,191.2188 L373.9688,193.9375 Z " fill="#000000"/><text fill="#000000" font-family="sans-serif" font-size="14" lengthAdjust="spacing" textLength="119.6563" x="385" y="193.1436">stylable_element</text><line style="stroke:#181818;stroke-width:0.5;" x1="357" x2="506.6563" y1="204.2969" y2="204.2969"/><line style="stroke:#181818;stroke-width:0.5;" x1="357" x2="506.6563" y1="212.2969" y2="212.2969"/></g></a><!--class C_0000844837292165721774--><a href="classclanguml_1_1common_1_1model_1_1path.html" target="_top" title="Diagram path" xlink:actuate="onRequest" xlink:href="classclanguml_1_1common_1_1model_1_1path.html" xlink:show="new" xlink:title="Diagram path" xlink:type="simple"><g id="elem_C_0000844837292165721774"><rect codeLine="11" fill="#F1F1F1" height="48" id="C_0000844837292165721774" rx="2.5" ry="2.5" style="stroke:#181818;stroke-width:0.5;" width="63.8281" x="717" y="422.2969"/><ellipse cx="732" cy="438.2969" fill="#ADD1B2" rx="11" ry="11" style="stroke:#181818;stroke-width:1;"/><path d="M734.9688,443.9375 Q734.3906,444.2344 733.75,444.375 Q733.1094,444.5313 732.4063,444.5313 Q729.9063,444.5313 728.5781,442.8906 Q727.2656,441.2344 727.2656,438.1094 Q727.2656,434.9844 728.5781,433.3281 Q729.9063,431.6719 732.4063,431.6719 Q733.1094,431.6719 733.75,431.8281 Q734.4063,431.9844 734.9688,432.2813 L734.9688,435 Q734.3438,434.4219 733.75,434.1563 Q733.1563,433.875 732.5313,433.875 Q731.1875,433.875 730.5,434.9531 Q729.8125,436.0156 729.8125,438.1094 Q729.8125,440.2031 730.5,441.2813 Q731.1875,442.3438 732.5313,442.3438 Q733.1563,442.3438 733.75,442.0781 Q734.3438,441.7969 734.9688,441.2188 L734.9688,443.9375 Z " fill="#000000"/><text fill="#000000" font-family="sans-serif" font-size="14" lengthAdjust="spacing" textLength="31.8281" x="746" y="443.1436">path</text><line style="stroke:#181818;stroke-width:0.5;" x1="718" x2="779.8281" y1="454.2969" y2="454.2969"/><line style="stroke:#181818;stroke-width:0.5;" x1="718" x2="779.8281" y1="462.2969" y2="462.2969"/></g></a><!--class C_0001331923285602672865--><a href="structclanguml_1_1common_1_1model_1_1ns__path__separator.html" target="_top" title="ns_path_separator" xlink:actuate="onRequest" xlink:href="structclanguml_1_1common_1_1model_1_1ns__path__separator.html" xlink:show="new" xlink:title="ns_path_separator" xlink:type="simple"><g id="elem_C_0001331923285602672865"><rect codeLine="15" fill="#F1F1F1" height="48" id="C_0001331923285602672865" rx="2.5" ry="2.5" style="stroke:#181818;stroke-width:0.5;" width="161.5137" x="7" y="47.2969"/><ellipse cx="22" cy="63.2969" fill="#ADD1B2" rx="11" ry="11" style="stroke:#181818;stroke-width:1;"/><path d="M24.9688,68.9375 Q24.3906,69.2344 23.75,69.375 Q23.1094,69.5313 22.4063,69.5313 Q19.9063,69.5313 18.5781,67.8906 Q17.2656,66.2344 17.2656,63.1094 Q17.2656,59.9844 18.5781,58.3281 Q19.9063,56.6719 22.4063,56.6719 Q23.1094,56.6719 23.75,56.8281 Q24.4063,56.9844 24.9688,57.2813 L24.9688,60 Q24.3438,59.4219 23.75,59.1563 Q23.1563,58.875 22.5313,58.875 Q21.1875,58.875 20.5,59.9531 Q19.8125,61.0156 19.8125,63.1094 Q19.8125,65.2031 20.5,66.2813 Q21.1875,67.3438 22.5313,67.3438 Q23.1563,67.3438 23.75,67.0781 Q24.3438,66.7969 24.9688,66.2188 L24.9688,68.9375 Z " fill="#000000"/><text fill="#000000" font-family="sans-serif" font-size="14" lengthAdjust="spacing" textLength="129.5137" x="36" y="68.1436">ns_path_separator</text><line style="stroke:#181818;stroke-width:0.5;" x1="8" x2="167.5137" y1="79.2969" y2="79.2969"/><line style="stroke:#181818;stroke-width:0.5;" x1="8" x2="167.5137" y1="87.2969" y2="87.2969"/></g></a><!--class C_0002046336758797367926--><a href="classclanguml_1_1common_1_1model_1_1relationship.html" target="_top" title="Class representing any relationship other than inheritance" xlink:actuate="onRequest" xlink:href="classclanguml_1_1common_1_1model_1_1relationship.html" xlink:show="new" xlink:title="Class representing any relationship other than inheritance" xlink:type="simple"><g id="elem_C_0002046336758797367926"><rect codeLine="19" fill="#F1F1F1" height="48" id="C_0002046336758797367926" rx="2.5" ry="2.5" style="stroke:#181818;stroke-width:0.5;" width="114.5986" x="494.5" y="297.2969"/><ellipse cx="509.5" cy="313.2969" fill="#ADD1B2" rx="11" ry="11" style="stroke:#181818;stroke-width:1;"/><path d="M512.4688,318.9375 Q511.8906,319.2344 511.25,319.375 Q510.6094,319.5313 509.9063,319.5313 Q507.4063,319.5313 506.0781,317.8906 Q504.7656,316.2344 504.7656,313.1094 Q504.7656,309.9844 506.0781,308.3281 Q507.4063,306.6719 509.9063,306.6719 Q510.6094,306.6719 511.25,306.8281 Q511.9063,306.9844 512.4688,307.2813 L512.4688,310 Q511.8438,309.4219 511.25,309.1563 Q510.6563,308.875 510.0313,308.875 Q508.6875,308.875 508,309.9531 Q507.3125,311.0156 507.3125,313.1094 Q507.3125,315.2031 508,316.2813 Q508.6875,317.3438 510.0313,317.3438 Q510.6563,317.3438 511.25,317.0781 Q511.8438,316.7969 512.4688,316.2188 L512.4688,318.9375 Z " fill="#000000"/><text fill="#000000" font-family="sans-serif" font-size="14" lengthAdjust="spacing" textLength="82.5986" x="523.5" y="318.1436">relationship</text><line style="stroke:#181818;stroke-width:0.5;" x1="495.5" x2="608.0986" y1="329.2969" y2="329.2969"/><line style="stroke:#181818;stroke-width:0.5;" x1="495.5" x2="608.0986" y1="337.2969" y2="337.2969"/></g></a><!--class C_0000895261582183440230--><a href="classclanguml_1_1common_1_1model_1_1source__location.html" target="_top" title="Base class of all diagram elements that have source location." xlink:actuate="onRequest" xlink:href="classclanguml_1_1common_1_1model_1_1source__location.html" xlink:show="new" xlink:title="Base class of all diagram elements that have source location." xlink:type="simple"><g id="elem_C_0000895261582183440230"><rect codeLine="23" fill="#F1F1F1" height="48" id="C_0000895261582183440230" rx="2.5" ry="2.5" style="stroke:#181818;stroke-width:0.5;" width="141.3477" x="698.5" y="47.2969"/><ellipse cx="713.5" cy="63.2969" fill="#ADD1B2" rx="11" ry="11" style="stroke:#181818;stroke-width:1;"/><path d="M716.4688,68.9375 Q715.8906,69.2344 715.25,69.375 Q714.6094,69.5313 713.9063,69.5313 Q711.4063,69.5313 710.0781,67.8906 Q708.7656,66.2344 708.7656,63.1094 Q708.7656,59.9844 710.0781,58.3281 Q711.4063,56.6719 713.9063,56.6719 Q714.6094,56.6719 715.25,56.8281 Q715.9063,56.9844 716.4688,57.2813 L716.4688,60 Q715.8438,59.4219 715.25,59.1563 Q714.6563,58.875 714.0313,58.875 Q712.6875,58.875 712,59.9531 Q711.3125,61.0156 711.3125,63.1094 Q711.3125,65.2031 712,66.2813 Q712.6875,67.3438 714.0313,67.3438 Q714.6563,67.3438 715.25,67.0781 Q715.8438,66.7969 716.4688,66.2188 L716.4688,68.9375 Z " fill="#000000"/><text fill="#000000" font-family="sans-serif" font-size="14" lengthAdjust="spacing" textLength="109.3477" x="727.5" y="68.1436">source_location</text><line style="stroke:#181818;stroke-width:0.5;" x1="699.5" x2="838.8477" y1="79.2969" y2="79.2969"/><line style="stroke:#181818;stroke-width:0.5;" x1="699.5" x2="838.8477" y1="87.2969" y2="87.2969"/></g></a><!--class C_0001073500714379115414--><a href="classclanguml_1_1common_1_1model_1_1diagram__element.html" target="_top" title="Base class for standalone diagram elements." xlink:actuate="onRequest" xlink:href="classclanguml_1_1common_1_1model_1_1diagram__element.html" xlink:show="new" xlink:title="Base class for standalone diagram elements." xlink:type="simple"><g id="elem_C_0001073500714379115414"><rect codeLine="27" fill="#F1F1F1" height="48" id="C_0001073500714379115414" rx="2.5" ry="2.5" style="stroke:#181818;stroke-width:0.5;" width="154.9443" x="691.5" y="172.2969"/><ellipse cx="706.5" cy="188.2969" fill="#ADD1B2" rx="11" ry="11" style="stroke:#181818;stroke-width:1;"/><path d="M709.4688,193.9375 Q708.8906,194.2344 708.25,194.375 Q707.6094,194.5313 706.9063,194.5313 Q704.4063,194.5313 703.0781,192.8906 Q701.7656,191.2344 701.7656,188.1094 Q701.7656,184.9844 703.0781,183.3281 Q704.4063,181.6719 706.9063,181.6719 Q707.6094,181.6719 708.25,181.8281 Q708.9063,181.9844 709.4688,182.2813 L709.4688,185 Q708.8438,184.4219 708.25,184.1563 Q707.6563,183.875 707.0313,183.875 Q705.6875,183.875 705,184.9531 Q704.3125,186.0156 704.3125,188.1094 Q704.3125,190.2031 705,191.2813 Q705.6875,192.3438 707.0313,192.3438 Q707.6563,192.3438 708.25,192.0781 Q708.8438,191.7969 709.4688,191.2188 L709.4688,193.9375 Z " fill="#000000"/><text fill="#000000" font-family="sans-serif" font-size="14" lengthAdjust="spacing" textLength="122.9443" x="720.5" y="193.1436">diagram_element</text><line style="stroke:#181818;stroke-width:0.5;" x1="692.5" x2="845.4443" y1="204.2969" y2="204.2969"/><line style="stroke:#181818;stroke-width:0.5;" x1="692.5" x2="845.4443" y1="212.2969" y2="212.2969"/></g></a><!--class C_0000845978329661395972--><a href="structclanguml_1_1common_1_1model_1_1context.html" target="_top" title="context" xlink:actuate="onRequest" xlink:href="structclanguml_1_1common_1_1model_1_1context.html" xlink:show="new" xlink:title="context" xlink:type="simple"><g id="elem_C_0000845978329661395972"><rect codeLine="31" fill="#F1F1F1" height="48" id="C_0000845978329661395972" rx="2.5" ry="2.5" style="stroke:#181818;stroke-width:0.5;" width="85.0127" x="927.5" y="297.2969"/><ellipse cx="942.5" cy="313.2969" fill="#ADD1B2" rx="11" ry="11" style="stroke:#181818;stroke-width:1;"/><path d="M945.4688,318.9375 Q944.8906,319.2344 944.25,319.375 Q943.6094,319.5313 942.9063,319.5313 Q940.4063,319.5313 939.0781,317.8906 Q937.7656,316.2344 937.7656,313.1094 Q937.7656,309.9844 939.0781,308.3281 Q940.4063,306.6719 942.9063,306.6719 Q943.6094,306.6719 944.25,306.8281 Q944.9063,306.9844 945.4688,307.2813 L945.4688,310 Q944.8438,309.4219 944.25,309.1563 Q943.6563,308.875 943.0313,308.875 Q941.6875,308.875 941,309.9531 Q940.3125,311.0156 940.3125,313.1094 Q940.3125,315.2031 941,316.2813 Q941.6875,317.3438 943.0313,317.3438 Q943.6563,317.3438 944.25,317.0781 Q944.8438,316.7969 945.4688,316.2188 L945.4688,318.9375 Z " fill="#000000"/><text fill="#000000" font-family="sans-serif" font-size="14" lengthAdjust="spacing" textLength="53.0127" x="956.5" y="318.1436">context</text><line style="stroke:#181818;stroke-width:0.5;" x1="928.5" x2="1011.5127" y1="329.2969" y2="329.2969"/><line style="stroke:#181818;stroke-width:0.5;" x1="928.5" x2="1011.5127" y1="337.2969" y2="337.2969"/></g></a><!--class C_0000178138562743079529--><a href="classclanguml_1_1common_1_1model_1_1template__parameter.html" target="_top" title="Represents template parameter, template arguments or concept         constraints" xlink:actuate="onRequest" xlink:href="classclanguml_1_1common_1_1model_1_1template__parameter.html" xlink:show="new" xlink:title="Represents template parameter, template arguments or concept         constraints" xlink:type="simple"><g id="elem_C_0000178138562743079529"><rect codeLine="35" fill="#F1F1F1" height="48" id="C_0000178138562743079529" rx="2.5" ry="2.5" style="stroke:#181818;stroke-width:0.5;" width="176.1084" x="882" y="172.2969"/><ellipse cx="897" cy="188.2969" fill="#ADD1B2" rx="11" ry="11" style="stroke:#181818;stroke-width:1;"/><path d="M899.9688,193.9375 Q899.3906,194.2344 898.75,194.375 Q898.1094,194.5313 897.4063,194.5313 Q894.9063,194.5313 893.5781,192.8906 Q892.2656,191.2344 892.2656,188.1094 Q892.2656,184.9844 893.5781,183.3281 Q894.9063,181.6719 897.4063,181.6719 Q898.1094,181.6719 898.75,181.8281 Q899.4063,181.9844 899.9688,182.2813 L899.9688,185 Q899.3438,184.4219 898.75,184.1563 Q898.1563,183.875 897.5313,183.875 Q896.1875,183.875 895.5,184.9531 Q894.8125,186.0156 894.8125,188.1094 Q894.8125,190.2031 895.5,191.2813 Q896.1875,192.3438 897.5313,192.3438 Q898.1563,192.3438 898.75,192.0781 Q899.3438,191.7969 899.9688,191.2188 L899.9688,193.9375 Z " fill="#000000"/><text fill="#000000" font-family="sans-serif" font-size="14" lengthAdjust="spacing" textLength="144.1084" x="911" y="193.1436">template_parameter</text><line style="stroke:#181818;stroke-width:0.5;" x1="883" x2="1057.1084" y1="204.2969" y2="204.2969"/><line style="stroke:#181818;stroke-width:0.5;" x1="883" x2="1057.1084" y1="212.2969" y2="212.2969"/></g></a><!--class C_0000891208748219309562--><a href="classclanguml_1_1common_1_1model_1_1nested__trait.html" target="_top" title="Base class for elements nested in the diagram." xlink:actuate="onRequest" xlink:href="classclanguml_1_1common_1_1model_1_1nested__trait.html" xlink:show="new" xlink:title="Base class for elements nested in the diagram." xlink:type="simple"><g id="elem_C_0000891208748219309562"><rect codeLine="39" fill="#F1F1F1" height="48" id="C_0000891208748219309562" rx="2.5" ry="2.5" style="stroke:#181818;stroke-width:0.5;" width="158.0176" x="204" y="47.2969"/><ellipse cx="219" cy="63.2969" fill="#ADD1B2" rx="11" ry="11" style="stroke:#181818;stroke-width:1;"/><path d="M221.9688,68.9375 Q221.3906,69.2344 220.75,69.375 Q220.1094,69.5313 219.4063,69.5313 Q216.9063,69.5313 215.5781,67.8906 Q214.2656,66.2344 214.2656,63.1094 Q214.2656,59.9844 215.5781,58.3281 Q216.9063,56.6719 219.4063,56.6719 Q220.1094,56.6719 220.75,56.8281 Q221.4063,56.9844 221.9688,57.2813 L221.9688,60 Q221.3438,59.4219 220.75,59.1563 Q220.1563,58.875 219.5313,58.875 Q218.1875,58.875 217.5,59.9531 Q216.8125,61.0156 216.8125,63.1094 Q216.8125,65.2031 217.5,66.2813 Q218.1875,67.3438 219.5313,67.3438 Q220.1563,67.3438 220.75,67.0781 Q221.3438,66.7969 221.9688,66.2188 L221.9688,68.9375 Z " fill="#000000"/><text fill="#000000" font-family="sans-serif" font-size="14" lengthAdjust="spacing" textLength="83.9727" x="233" y="68.1436">nested_trait</text><rect fill="#FFFFFF" height="15.9688" style="stroke:#181818;stroke-width:1;stroke-dasharray:2.0,2.0;" width="40.0449" x="324.9727" y="44.2969"/><text fill="#000000" font-family="sans-serif" font-size="12" font-style="italic" lengthAdjust="spacing" textLength="38.0449" x="325.9727" y="56.4355">T,Path</text><line style="stroke:#181818;stroke-width:0.5;" x1="205" x2="361.0176" y1="79.2969" y2="79.2969"/><line style="stroke:#181818;stroke-width:0.5;" x1="205" x2="361.0176" y1="87.2969" y2="87.2969"/></g></a><!--class C_0000640258162892495349--><a href="structclanguml_1_1common_1_1model_1_1fs__path__sep.html" target="_top" title="fs_path_sep" xlink:actuate="onRequest" xlink:href="structclanguml_1_1common_1_1model_1_1fs__path__sep.html" xlink:show="new" xlink:title="fs_path_sep" xlink:type="simple"><g id="elem_C_0000640258162892495349"><rect codeLine="43" fill="#F1F1F1" height="48" id="C_0000640258162892495349" rx="2.5" ry="2.5" style="stroke:#181818;stroke-width:0.5;" width="114.8447" x="30.5" y="172.2969"/><ellipse cx="45.5" cy="188.2969" fill="#ADD1B2" rx="11" ry="11" style="stroke:#181818;stroke-width:1;"/><path d="M48.4688,193.9375 Q47.8906,194.2344 47.25,194.375 Q46.6094,194.5313 45.9063,194.5313 Q43.4063,194.5313 42.0781,192.8906 Q40.7656,191.2344 40.7656,188.1094 Q40.7656,184.9844 42.0781,183.3281 Q43.4063,181.6719 45.9063,181.6719 Q46.6094,181.6719 47.25,181.8281 Q47.9063,181.9844 48.4688,182.2813 L48.4688,185 Q47.8438,184.4219 47.25,184.1563 Q46.6563,183.875 46.0313,183.875 Q44.6875,183.875 44,184.9531 Q43.3125,186.0156 43.3125,188.1094 Q43.3125,190.2031 44,191.2813 Q44.6875,192.3438 46.0313,192.3438 Q46.6563,192.3438 47.25,192.0781 Q47.8438,191.7969 48.4688,191.2188 L48.4688,193.9375 Z " fill="#000000"/><text fill="#000000" font-family="sans-serif" font-size="14" lengthAdjust="spacing" textLength="82.8447" x="59.5" y="193.1436">fs_path_sep</text><line style="stroke:#181818;stroke-width:0.5;" x1="31.5" x2="144.3447" y1="204.2969" y2="204.2969"/><line style="stroke:#181818;stroke-width:0.5;" x1="31.5" x2="144.3447" y1="212.2969" y2="212.2969"/></g></a><!--class C_0000785714713072053129--><a href="classclanguml_1_1common_1_1model_1_1source__file.html" target="_top" title="Diagram element representing some file or directory." xlink:actuate="onRequest" xlink:href="classclanguml_1_1common_1_1model_1_1source__file.html" xlink:show="new" xlink:title="Diagram element representing some file or directory." xlink:type="simple"><g id="elem_C_0000785714713072053129"><rect codeLine="47" fill="#F1F1F1" height="48" id="C_0000785714713072053129" rx="2.5" ry="2.5" style="stroke:#181818;stroke-width:0.5;" width="107.1201" x="770.5" y="297.2969"/><ellipse cx="785.5" cy="313.2969" fill="#ADD1B2" rx="11" ry="11" style="stroke:#181818;stroke-width:1;"/><path d="M788.4688,318.9375 Q787.8906,319.2344 787.25,319.375 Q786.6094,319.5313 785.9063,319.5313 Q783.4063,319.5313 782.0781,317.8906 Q780.7656,316.2344 780.7656,313.1094 Q780.7656,309.9844 782.0781,308.3281 Q783.4063,306.6719 785.9063,306.6719 Q786.6094,306.6719 787.25,306.8281 Q787.9063,306.9844 788.4688,307.2813 L788.4688,310 Q787.8438,309.4219 787.25,309.1563 Q786.6563,308.875 786.0313,308.875 Q784.6875,308.875 784,309.9531 Q783.3125,311.0156 783.3125,313.1094 Q783.3125,315.2031 784,316.2813 Q784.6875,317.3438 786.0313,317.3438 Q786.6563,317.3438 787.25,317.0781 Q787.8438,316.7969 788.4688,316.2188 L788.4688,318.9375 Z " fill="#000000"/><text fill="#000000" font-family="sans-serif" font-size="14" lengthAdjust="spacing" textLength="75.1201" x="799.5" y="318.1436">source_file</text><line style="stroke:#181818;stroke-width:0.5;" x1="771.5" x2="876.6201" y1="329.2969" y2="329.2969"/><line style="stroke:#181818;stroke-width:0.5;" x1="771.5" x2="876.6201" y1="337.2969" y2="337.2969"/></g></a><!--class C_0000197068985320835874--><a href="classclanguml_1_1common_1_1model_1_1diagram.html" target="_top" title="Base class for all diagram models" xlink:actuate="onRequest" xlink:href="classclanguml_1_1common_1_1model_1_1diagram.html" xlink:show="new" xlink:title="Base class for all diagram models" xlink:type="simple"><g id="elem_C_0000197068985320835874"><rect codeLine="51" fill="#F1F1F1" height="48" id="C_0000197068985320835874" rx="2.5" ry="2.5" style="stroke:#181818;stroke-width:0.5;" width="90.2148" x="1255" y="172.2969"/><ellipse cx="1270" cy="188.2969" fill="#ADD1B2" rx="11" ry="11" style="stroke:#181818;stroke-width:1;"/><path d="M1272.9688,193.9375 Q1272.3906,194.2344 1271.75,194.375 Q1271.1094,194.5313 1270.4063,194.5313 Q1267.9063,194.5313 1266.5781,192.8906 Q1265.2656,191.2344 1265.2656,188.1094 Q1265.2656,184.9844 1266.5781,183.3281 Q1267.9063,181.6719 1270.4063,181.6719 Q1271.1094,181.6719 1271.75,181.8281 Q1272.4063,181.9844 1272.9688,182.2813 L1272.9688,185 Q1272.3438,184.4219 1271.75,184.1563 Q1271.1563,183.875 1270.5313,183.875 Q1269.1875,183.875 1268.5,184.9531 Q1267.8125,186.0156 1267.8125,188.1094 Q1267.8125,190.2031 1268.5,191.2813 Q1269.1875,192.3438 1270.5313,192.3438 Q1271.1563,192.3438 1271.75,192.0781 Q1272.3438,191.7969 1272.9688,191.2188 L1272.9688,193.9375 Z " fill="#000000"/><text fill="#000000" font-family="sans-serif" font-size="14" lengthAdjust="spacing" textLength="58.2148" x="1284" y="193.1436">diagram</text><line style="stroke:#181818;stroke-width:0.5;" x1="1256" x2="1344.2148" y1="204.2969" y2="204.2969"/><line style="stroke:#181818;stroke-width:0.5;" x1="1256" x2="1344.2148" y1="212.2969" y2="212.2969"/></g></a><!--class C_0002069520381434407937--><a href="classclanguml_1_1common_1_1model_1_1element.html" target="_top" title="Base class for any element qualified by namespace." xlink:actuate="onRequest" xlink:href="classclanguml_1_1common_1_1model_1_1element.html" xlink:show="new" xlink:title="Base class for any element qualified by namespace." xlink:type="simple"><g id="elem_C_0002069520381434407937"><rect codeLine="55" fill="#F1F1F1" height="48" id="C_0002069520381434407937" rx="2.5" ry="2.5" style="stroke:#181818;stroke-width:0.5;" width="89.7295" x="645" y="297.2969"/><ellipse cx="660" cy="313.2969" fill="#ADD1B2" rx="11" ry="11" style="stroke:#181818;stroke-width:1;"/><path d="M662.9688,318.9375 Q662.3906,319.2344 661.75,319.375 Q661.1094,319.5313 660.4063,319.5313 Q657.9063,319.5313 656.5781,317.8906 Q655.2656,316.2344 655.2656,313.1094 Q655.2656,309.9844 656.5781,308.3281 Q657.9063,306.6719 660.4063,306.6719 Q661.1094,306.6719 661.75,306.8281 Q662.4063,306.9844 662.9688,307.2813 L662.9688,310 Q662.3438,309.4219 661.75,309.1563 Q661.1563,308.875 660.5313,308.875 Q659.1875,308.875 658.5,309.9531 Q657.8125,311.0156 657.8125,313.1094 Q657.8125,315.2031 658.5,316.2813 Q659.1875,317.3438 660.5313,317.3438 Q661.1563,317.3438 661.75,317.0781 Q662.3438,316.7969 662.9688,316.2188 L662.9688,318.9375 Z " fill="#000000"/><text fill="#000000" font-family="sans-serif" font-size="14" lengthAdjust="spacing" textLength="57.7295" x="674" y="318.1436">element</text><line style="stroke:#181818;stroke-width:0.5;" x1="646" x2="733.7295" y1="329.2969" y2="329.2969"/><line style="stroke:#181818;stroke-width:0.5;" x1="646" x2="733.7295" y1="337.2969" y2="337.2969"/></g></a><!--class C_0000464715462505216589--><a href="classclanguml_1_1common_1_1model_1_1template__trait.html" target="_top" title="Common interface for template diagram elements." xlink:actuate="onRequest" xlink:href="classclanguml_1_1common_1_1model_1_1template__trait.html" xlink:show="new" xlink:title="Common interface for template diagram elements." xlink:type="simple"><g id="elem_C_0000464715462505216589"><rect codeLine="59" fill="#F1F1F1" height="48" id="C_0000464715462505216589" rx="2.5" ry="2.5" style="stroke:#181818;stroke-width:0.5;" width="131.4014" x="904.5" y="47.2969"/><ellipse cx="919.5" cy="63.2969" fill="#ADD1B2" rx="11" ry="11" style="stroke:#181818;stroke-width:1;"/><path d="M922.4688,68.9375 Q921.8906,69.2344 921.25,69.375 Q920.6094,69.5313 919.9063,69.5313 Q917.4063,69.5313 916.0781,67.8906 Q914.7656,66.2344 914.7656,63.1094 Q914.7656,59.9844 916.0781,58.3281 Q917.4063,56.6719 919.9063,56.6719 Q920.6094,56.6719 921.25,56.8281 Q921.9063,56.9844 922.4688,57.2813 L922.4688,60 Q921.8438,59.4219 921.25,59.1563 Q920.6563,58.875 920.0313,58.875 Q918.6875,58.875 918,59.9531 Q917.3125,61.0156 917.3125,63.1094 Q917.3125,65.2031 918,66.2813 Q918.6875,67.3438 920.0313,67.3438 Q920.6563,67.3438 921.25,67.0781 Q921.8438,66.7969 922.4688,66.2188 L922.4688,68.9375 Z " fill="#000000"/><text fill="#000000" font-family="sans-serif" font-size="14" lengthAdjust="spacing" textLength="99.4014" x="933.5" y="68.1436">template_trait</text><line style="stroke:#181818;stroke-width:0.5;" x1="905.5" x2="1034.9014" y1="79.2969" y2="79.2969"/><line style="stroke:#181818;stroke-width:0.5;" x1="905.5" x2="1034.9014" y1="87.2969" y2="87.2969"/></g></a><!--class C_0001786360230161561276--><a href="classclanguml_1_1common_1_1model_1_1element__view.html" target="_top" title="element_view" xlink:actuate="onRequest" xlink:href="classclanguml_1_1common_1_1model_1_1element__view.html" xlink:show="new" xlink:title="element_view" xlink:type="simple"><g id="elem_C_0001786360230161561276"><rect codeLine="63" fill="#F1F1F1" height="48" id="C_0001786360230161561276" rx="2.5" ry="2.5" style="stroke:#181818;stroke-width:0.5;" width="140.2979" x="181" y="172.2969"/><ellipse cx="196" cy="188.2969" fill="#ADD1B2" rx="11" ry="11" style="stroke:#181818;stroke-width:1;"/><path d="M198.9688,193.9375 Q198.3906,194.2344 197.75,194.375 Q197.1094,194.5313 196.4063,194.5313 Q193.9063,194.5313 192.5781,192.8906 Q191.2656,191.2344 191.2656,188.1094 Q191.2656,184.9844 192.5781,183.3281 Q193.9063,181.6719 196.4063,181.6719 Q197.1094,181.6719 197.75,181.8281 Q198.4063,181.9844 198.9688,182.2813 L198.9688,185 Q198.3438,184.4219 197.75,184.1563 Q197.1563,183.875 196.5313,183.875 Q195.1875,183.875 194.5,184.9531 Q193.8125,186.0156 193.8125,188.1094 Q193.8125,190.2031 194.5,191.2813 Q195.1875,192.3438 196.5313,192.3438 Q197.1563,192.3438 197.75,192.0781 Q198.3438,191.7969 198.9688,191.2188 L198.9688,193.9375 Z " fill="#000000"/><text fill="#000000" font-family="sans-serif" font-size="14" lengthAdjust="spacing" textLength="96.9678" x="210" y="193.1436">element_view</text><rect fill="#FFFFFF" height="15.9688" style="stroke:#181818;stroke-width:1;stroke-dasharray:2.0,2.0;" width="9.3301" x="314.9678" y="169.2969"/><text fill="#000000" font-family="sans-serif" font-size="12" font-style="italic" lengthAdjust="spacing" textLength="7.3301" x="315.9678" y="181.4355">T</text><line style="stroke:#181818;stroke-width:0.5;" x1="182" x2="320.2979" y1="204.2969" y2="204.2969"/><line style="stroke:#181818;stroke-width:0.5;" x1="182" x2="320.2979" y1="212.2969" y2="212.2969"/></g></a><!--class C_0002143286684830686854--><a href="classclanguml_1_1common_1_1model_1_1package.html" target="_top" title="Diagram element representing namespace or directory package" xlink:actuate="onRequest" xlink:href="classclanguml_1_1common_1_1model_1_1package.html" xlink:show="new" xlink:title="Diagram element representing namespace or directory package" xlink:type="simple"><g id="elem_C_0002143286684830686854"><rect codeLine="67" fill="#F1F1F1" height="48" id="C_0002143286684830686854" rx="2.5" ry="2.5" style="stroke:#181818;stroke-width:0.5;" width="91.3496" x="416.5" y="422.2969"/><ellipse cx="431.5" cy="438.2969" fill="#ADD1B2" rx="11" ry="11" style="stroke:#181818;stroke-width:1;"/><path d="M434.4688,443.9375 Q433.8906,444.2344 433.25,444.375 Q432.6094,444.5313 431.9063,444.5313 Q429.4063,444.5313 428.0781,442.8906 Q426.7656,441.2344 426.7656,438.1094 Q426.7656,434.9844 428.0781,433.3281 Q429.4063,431.6719 431.9063,431.6719 Q432.6094,431.6719 433.25,431.8281 Q433.9063,431.9844 434.4688,432.2813 L434.4688,435 Q433.8438,434.4219 433.25,434.1563 Q432.6563,433.875 432.0313,433.875 Q430.6875,433.875 430,434.9531 Q429.3125,436.0156 429.3125,438.1094 Q429.3125,440.2031 430,441.2813 Q430.6875,442.3438 432.0313,442.3438 Q432.6563,442.3438 433.25,442.0781 Q433.8438,441.7969 434.4688,441.2188 L434.4688,443.9375 Z " fill="#000000"/><text fill="#000000" font-family="sans-serif" font-size="14" lengthAdjust="spacing" textLength="59.3496" x="445.5" y="443.1436">package</text><line style="stroke:#181818;stroke-width:0.5;" x1="417.5" x2="506.8496" y1="454.2969" y2="454.2969"/><line style="stroke:#181818;stroke-width:0.5;" x1="417.5" x2="506.8496" y1="462.2969" y2="462.2969"/></g></a><!--class C_0002054140694270036745--><a href="classclanguml_1_1common_1_1model_1_1diagram__filter.html" target="_top" title="Composite of all diagrams filters." xlink:actuate="onRequest" xlink:href="classclanguml_1_1common_1_1model_1_1diagram__filter.html" xlink:show="new" xlink:title="Composite of all diagrams filters." xlink:type="simple"><g id="elem_C_0002054140694270036745"><rect codeLine="71" fill="#F1F1F1" height="48" id="C_0002054140694270036745" rx="2.5" ry="2.5" style="stroke:#181818;stroke-width:0.5;" width="129.7813" x="1235" y="297.2969"/><ellipse cx="1250" cy="313.2969" fill="#ADD1B2" rx="11" ry="11" style="stroke:#181818;stroke-width:1;"/><path d="M1252.9688,318.9375 Q1252.3906,319.2344 1251.75,319.375 Q1251.1094,319.5313 1250.4063,319.5313 Q1247.9063,319.5313 1246.5781,317.8906 Q1245.2656,316.2344 1245.2656,313.1094 Q1245.2656,309.9844 1246.5781,308.3281 Q1247.9063,306.6719 1250.4063,306.6719 Q1251.1094,306.6719 1251.75,306.8281 Q1252.4063,306.9844 1252.9688,307.2813 L1252.9688,310 Q1252.3438,309.4219 1251.75,309.1563 Q1251.1563,308.875 1250.5313,308.875 Q1249.1875,308.875 1248.5,309.9531 Q1247.8125,311.0156 1247.8125,313.1094 Q1247.8125,315.2031 1248.5,316.2813 Q1249.1875,317.3438 1250.5313,317.3438 Q1251.1563,317.3438 1251.75,317.0781 Q1252.3438,316.7969 1252.9688,316.2188 L1252.9688,318.9375 Z " fill="#000000"/><text fill="#000000" font-family="sans-serif" font-size="14" lengthAdjust="spacing" textLength="97.7813" x="1264" y="318.1436">diagram_filter</text><line style="stroke:#181818;stroke-width:0.5;" x1="1236" x2="1363.7813" y1="329.2969" y2="329.2969"/><line style="stroke:#181818;stroke-width:0.5;" x1="1236" x2="1363.7813" y1="337.2969" y2="337.2969"/></g></a><g id="elem_GMN38"><path d="M1155.5,58.7969 L1155.5,83.9297 A0,0 0 0 0 1155.5,83.9297 L1296,83.9297 L1300,172.0669 L1304,83.9297 L1444.8472,83.9297 A0,0 0 0 0 1444.8472,83.9297 L1444.8472,68.7969 L1434.8472,58.7969 L1155.5,58.7969 A0,0 0 0 0 1155.5,58.7969 " fill="#FEFFDD" style="stroke:#181818;stroke-width:0.5;"/><path d="M1434.8472,58.7969 L1434.8472,68.7969 L1444.8472,68.7969 L1434.8472,58.7969 " fill="#FEFFDD" style="stroke:#181818;stroke-width:0.5;"/><text fill="#000000" font-family="sans-serif" font-size="13" lengthAdjust="spacing" textLength="268.3472" x="1161.5" y="75.8638">Common class for specific diagram types</text></g><!--reverse link C_0001117102382624673118 to C_0002046336758797367926--><g id="link_C_0001117102382624673118_C_0002046336758797367926"><path codeLine="74" d="M567.0068,113.5796 C563.5668,160.9696 557.1,250.0269 553.68,297.2069 " fill="transparent" id="C_0001117102382624673118-backto-C_0002046336758797367926" style="stroke:#181818;stroke-width:1;"/><polygon fill="transparent" points="568.31,95.6269,561.0226,113.1452,572.9911,114.014,568.31,95.6269" style="stroke:#181818;stroke-width:1;"/></g><!--reverse link C_0002077846075979426940 to C_0002046336758797367926--><g id="link_C_0002077846075979426940_C_0002046336758797367926"><path codeLine="75" d="M467.1417,233.3191 C488.6017,255.3091 508.11,275.3069 529.53,297.2669 " fill="transparent" id="C_0002077846075979426940-backto-C_0002046336758797367926" style="stroke:#181818;stroke-width:1;"/><polygon fill="transparent" points="454.57,220.4369,462.8477,237.5097,471.4358,229.1285,454.57,220.4369" style="stroke:#181818;stroke-width:1;"/></g><!--reverse link C_0001073500714379115414 to C_0002046336758797367926--><g id="link_C_0001073500714379115414_C_0002046336758797367926"><path codeLine="76" d="M679.8032,219.7124 C654.5632,227.8824 638.66,235.3869 616,250.2969 C597.15,262.6969 580.15,281.8669 568.41,297.0169 " fill="transparent" id="C_0001073500714379115414-backto-C_0002046336758797367926" style="stroke:#181818;stroke-width:1;"/><polygon fill="transparent" points="691.22,216.0169,684.2798,214.059,679.8032,219.7124,686.7434,221.6702,691.22,216.0169" style="stroke:#181818;stroke-width:1;"/><rect fill="transparent" height="6" style="stroke:#C82930;stroke-width:1;" width="6" x="619" y="256.3633"/><text fill="#000000" font-family="sans-serif" font-size="13" lengthAdjust="spacing" textLength="89.9717" x="629" y="263.3638">relationships_</text></g><!--reverse link C_0001117102382624673118 to C_0001073500714379115414--><g id="link_C_0001117102382624673118_C_0001073500714379115414"><path codeLine="77" d="M622.7416,104.9001 C658.3216,126.8901 696.21,150.3069 731.74,172.2669 " fill="transparent" id="C_0001117102382624673118-backto-C_0001073500714379115414" style="stroke:#181818;stroke-width:1;"/><polygon fill="transparent" points="607.43,95.4369,619.5872,110.004,625.8961,99.7963,607.43,95.4369" style="stroke:#181818;stroke-width:1;"/></g><!--reverse link C_0000895261582183440230 to C_0001073500714379115414--><g id="link_C_0000895261582183440230_C_0001073500714379115414"><path codeLine="78" d="M769,113.4369 C769,135.4269 769,150.3069 769,172.2669 " fill="transparent" id="C_0000895261582183440230-backto-C_0001073500714379115414" style="stroke:#181818;stroke-width:1;"/><polygon fill="transparent" points="769,95.4369,763,113.4369,775,113.4369,769,95.4369" style="stroke:#181818;stroke-width:1;"/></g><!--reverse link C_0000178138562743079529 to C_0000845978329661395972--><g id="link_C_0000178138562743079529_C_0000845978329661395972"><path codeLine="79" d="M970,232.4369 C970,254.4269 970,275.3069 970,297.2669 " fill="transparent" id="C_0000178138562743079529-backto-C_0000845978329661395972" style="stroke:#181818;stroke-width:1;"/><polygon fill="transparent" points="970,220.4369,966,226.4369,970,232.4369,974,226.4369,970,220.4369" style="stroke:#181818;stroke-width:1;"/><rect fill="transparent" height="6" style="stroke:#C82930;stroke-width:1;" width="6" x="973" y="256.3633"/><text fill="#000000" font-family="sans-serif" font-size="13" lengthAdjust="spacing" textLength="55.7261" x="983" y="263.3638">context_</text></g><!--reverse link C_0000178138562743079529 to C_0000178138562743079529--><g id="link_C_0000178138562743079529_C_0000178138562743079529"><path codeLine="80" d="M1070.1649,185.5394 C1090.2549,186.5494 1093,189.7269 1093,196.2969 C1093,202.8669 1078.27,206.6469 1058.18,207.6569 " fill="transparent" id="C_0000178138562743079529-backto-C_0000178138562743079529" style="stroke:#181818;stroke-width:1;"/><polygon fill="transparent" points="1058.18,184.9369,1063.9716,189.2331,1070.1649,185.5394,1064.3733,181.2432,1058.18,184.9369" style="stroke:#181818;stroke-width:1;"/><rect fill="transparent" height="6" style="stroke:#C82930;stroke-width:1;" width="6" x="1101" y="193.8633"/><text fill="#000000" font-family="sans-serif" font-size="13" lengthAdjust="spacing" textLength="120.6499" x="1111" y="200.8638">template_params_</text></g><!--reverse link C_0000785714713072053129 to C_0000844837292165721774--><g id="link_C_0000785714713072053129_C_0000844837292165721774"><path codeLine="81" d="M803.6422,355.6821 C790.2322,377.6721 776.43,400.3069 763.04,422.2669 " fill="transparent" id="C_0000785714713072053129-backto-C_0000844837292165721774" style="stroke:#181818;stroke-width:1;"/><polygon fill="transparent" points="809.89,345.4369,803.351,348.4769,803.6422,355.6821,810.1812,352.6421,809.89,345.4369" style="stroke:#181818;stroke-width:1;"/><rect fill="transparent" height="6" style="stroke:#C82930;stroke-width:1;" width="6" x="794" y="381.3633"/><text fill="#000000" font-family="sans-serif" font-size="13" lengthAdjust="spacing" textLength="36.0547" x="804" y="388.3638">path_</text></g><!--reverse link C_0001073500714379115414 to C_0000785714713072053129--><g id="link_C_0001073500714379115414_C_0000785714713072053129"><path codeLine="82" d="M794.874,235.4485 C800.724,244.5085 797.29,240.0569 802,250.2969 C808.91,265.3469 814.48,283.1569 818.28,297.0569 " fill="transparent" id="C_0001073500714379115414-backto-C_0000785714713072053129" style="stroke:#181818;stroke-width:1;"/><polygon fill="transparent" points="785.11,220.3269,789.8334,238.7032,799.9145,232.1939,785.11,220.3269" style="stroke:#181818;stroke-width:1;"/></g><!--reverse link C_0002077846075979426940 to C_0000785714713072053129--><g id="link_C_0002077846075979426940_C_0000785714713072053129"><path codeLine="83" d="M525.9609,204.6336 C585.4509,210.9036 651.39,222.3169 720,250.2969 C748.21,261.8069 776.67,281.6569 796.67,297.2869 " fill="transparent" id="C_0002077846075979426940-backto-C_0000785714713072053129" style="stroke:#181818;stroke-width:1;"/><polygon fill="transparent" points="508.06,202.7469,525.332,210.6005,526.5897,198.6666,508.06,202.7469" style="stroke:#181818;stroke-width:1;"/></g><!--reverse link C_0000197068985320835874 to C_0002054140694270036745--><g id="link_C_0000197068985320835874_C_0002054140694270036745"><path codeLine="84" d="M1263.906,229.1597 C1255.806,237.6097 1256.29,239.1769 1252,250.2969 C1245.43,267.3469 1256.48,284.3069 1269.63,297.2569 " fill="transparent" id="C_0000197068985320835874-backto-C_0002054140694270036745" style="stroke:#181818;stroke-width:1;"/><polygon fill="transparent" points="1272.21,220.4969,1265.1704,222.0603,1263.906,229.1597,1270.9456,227.5963,1272.21,220.4969" style="stroke:#181818;stroke-width:1;"/><rect fill="transparent" height="6" style="stroke:#C82930;stroke-width:1;" width="6" x="1255" y="256.3633"/><text fill="#000000" font-family="sans-serif" font-size="13" lengthAdjust="spacing" textLength="36.7402" x="1265" y="263.3638">filter_</text></g><!--link C_0002054140694270036745 to C_0000197068985320835874--><g id="link_C_0002054140694270036745_C_0000197068985320835874"><path codeLine="91" d="M1303.2,297.1269 C1304.32,287.8669 1305.45,277.0969 1306,267.2969 C1306.88,251.7069 1306.1328,240.1595 1304.4128,226.5595 " fill="transparent" id="C_0002054140694270036745-to-C_0000197068985320835874" style="stroke:#181818;stroke-width:1;"/><polygon fill="#181818" points="1303.66,220.6069,1300.8209,230.0376,1304.2874,225.5674,1308.7576,229.0339,1303.66,220.6069" style="stroke:#181818;stroke-width:1;"/><rect fill="transparent" height="6" style="stroke:#C82930;stroke-width:1;" width="6" x="1309" y="256.3633"/><text fill="#000000" font-family="sans-serif" font-size="13" lengthAdjust="spacing" textLength="60.5566" x="1319" y="263.3638">diagram_</text></g><!--reverse link C_0002069520381434407937 to C_0000844837292165721774--><g id="link_C_0002069520381434407937_C_0000844837292165721774"><path codeLine="85" d="M706.2907,356.2561 C716.8407,378.2461 727.42,400.3069 737.95,422.2669 " fill="transparent" id="C_0002069520381434407937-backto-C_0000844837292165721774" style="stroke:#181818;stroke-width:1;"/><polygon fill="transparent" points="701.1,345.4369,700.0889,352.5767,706.2907,356.2561,707.3018,349.1163,701.1,345.4369" style="stroke:#181818;stroke-width:1;"/><rect fill="transparent" height="6" style="stroke:#C82930;stroke-width:1;" width="6" x="727" y="381.3633"/><text fill="#000000" font-family="sans-serif" font-size="13" lengthAdjust="spacing" textLength="21.5122" x="737" y="388.3638">ns_</text></g><!--reverse link C_0002069520381434407937 to C_0000844837292165721774--><g id="link_C_0002069520381434407937_C_0000844837292165721774"><path codeLine="86" d="M633.6534,344.1115 C601.9034,356.7715 575.46,368.4169 571,375.2969 C566.89,381.6369 566.48,386.2369 571,392.2969 C588.49,415.7569 670.65,432.5869 716.99,440.4069 " fill="transparent" id="C_0002069520381434407937-backto-C_0000844837292165721774-1" style="stroke:#181818;stroke-width:1;"/><polygon fill="transparent" points="644.8,339.6669,637.7452,338.1736,633.6534,344.1115,640.7082,345.6047,644.8,339.6669" style="stroke:#181818;stroke-width:1;"/><rect fill="transparent" height="6" style="stroke:#C82930;stroke-width:1;" width="6" x="574" y="381.3633"/><text fill="#000000" font-family="sans-serif" font-size="13" lengthAdjust="spacing" textLength="123.1191" x="584" y="388.3638">using_namespace_</text></g><!--reverse link C_0001073500714379115414 to C_0002069520381434407937--><g id="link_C_0001073500714379115414_C_0002069520381434407937"><path codeLine="87" d="M746.4824,236.0827 C738.4224,249.8227 736.94,251.9569 727,267.2969 C720.59,277.1869 713.22,287.8769 706.75,297.0569 " fill="transparent" id="C_0001073500714379115414-backto-C_0002069520381434407937" style="stroke:#181818;stroke-width:1;"/><polygon fill="transparent" points="755.59,220.5569,741.3071,233.0469,751.6577,239.1186,755.59,220.5569" style="stroke:#181818;stroke-width:1;"/></g><!--reverse link C_0000464715462505216589 to C_0000178138562743079529--><g id="link_C_0000464715462505216589_C_0000178138562743079529"><path codeLine="88" d="M970,107.4369 C970,129.4269 970,150.3069 970,172.2669 " fill="transparent" id="C_0000464715462505216589-backto-C_0000178138562743079529" style="stroke:#181818;stroke-width:1;"/><polygon fill="transparent" points="970,95.4369,966,101.4369,970,107.4369,974,101.4369,970,95.4369" style="stroke:#181818;stroke-width:1;"/><rect fill="transparent" height="6" style="stroke:#C82930;stroke-width:1;" width="6" x="973" y="131.3633"/><text fill="#000000" font-family="sans-serif" font-size="13" lengthAdjust="spacing" textLength="71.957" x="983" y="138.3638">templates_</text></g><!--reverse link C_0002069520381434407937 to C_0002143286684830686854--><g id="link_C_0002069520381434407937_C_0002143286684830686854"><path codeLine="89" d="M628.1842,345.866 C596.9842,357.946 575.21,366.9169 560,375.2969 C535.28,388.9169 509.38,407.6369 490.42,422.2969 " fill="transparent" id="C_0002069520381434407937-backto-C_0002143286684830686854" style="stroke:#181818;stroke-width:1;"/><polygon fill="transparent" points="644.97,339.3669,626.0179,340.2707,630.3506,351.4612,644.97,339.3669" style="stroke:#181818;stroke-width:1;"/></g><!--reverse link C_0002077846075979426940 to C_0002143286684830686854--><g id="link_C_0002077846075979426940_C_0002143286684830686854"><path codeLine="90" d="M436.9807,238.4967 C442.7107,285.8867 453.5,375.0269 459.21,422.2069 " fill="transparent" id="C_0002077846075979426940-backto-C_0002143286684830686854" style="stroke:#181818;stroke-width:1;"/><polygon fill="transparent" points="434.82,220.6269,431.0241,239.2169,442.9373,237.7765,434.82,220.6269" style="stroke:#181818;stroke-width:1;"/></g><!--SRC=[fLXDZzis4BtxLn2vf4NM1hz4Ki4YXsw1NbAWAD9UWa2WPNejL9PKYTxD8ar-UqOVbYcJscZHFUngFHpE3FdUcv5jPdE3xihZiIpGBjFtjJwYOxap-IhDTTEWLpkJbhMsPfUOt1nDOLyXtQ2x16DC2944KwQee5n8HeWQlERCwEF7RW7yAkvFnpmX2KcxuErJ5xTzkCGy1zqSx37_yejk3EeZxCiQZSl6p8VLpTTFdz2NLPAilfxBQEnJhhUvyQkWM4h51PPHB6DEHSonMqN0lB2ACUIqY5-lSaMsH8-7B3sWrW7gqmNQ6gIhAi_CRkENKcbxkAIF5UUAIHfJ8Y99YPJSJJzWNfX-6sQQSVk9dqxH9AqXQKobuJRAsW48OoIcZAf8O2eaLIAQ0CGtGswDhK-f_K5o4BIFUWdRv-fbuoTScrpRh2oQGrQvCE22CI4Z9MC9VsCgfZ3mp0lFqGtNvtZNRLkRgZOD820hxf4kdf2x49NsO6fa3m26h837pEeYDG5SbwSwDKbUffslYuiuee94YXB5E0SUuYakFFDIMFSHnv0UDSizqddkSR8jngA3VZ2etmADE_Xb3Su1pS6IHHXBmfcC2OaucS0zO5wgEKF4PnMdWLlOwRmiZ5TUe8YqBApvR2TS1HLHZCP241R3CxtYwhLvAH-6K7tImpz-GjOSAy2OILfk78qr3bSnaOeme2ALd649w8WdkVdcXGSx1hr4xTFyyqm0WCQm1erBRYwVwHfsxvR13K1jgQaiEl_0_t10EWkAVc6QjecqTdlxuUOF48Pt4uOGYfNam86OuHXgksB8jNbXnKFOFcuGHoCd-gL0SM37YAa0bFONMNCA4C3RI151LKnv734-lJBVl1HEUrTU-mgS36PLQ9_bnabFgWY8A0dWXUA8aIj4-UONAb0RBjXJfzhQb4U3shKjVdPPRL9e2q_pekDo8fPOg5X53930GFkdlTKtlqniWjXmjRDp200xCCG8e2Hc2eGFr5p6J4wxbsTUcEbpQjWshVE9_tlIURQ7WGLjdr0176ugdPhDCnhKiSCvQou02n4NDC9HEwoeALfyyulrn-7ZCF62R9Xw3ubszOoAiq3R1rFoa9d7sm-Ege1E2YRQVagWlGf2vMIE29XVTXD95xAlmaqYD2Uc_-XxXv0KRX-6BA5W8WJS2XLDu1mmBnuLkqWBk3WYOy95D6mmFmS0VIVT2WG3MZkWcbE9CSnZF9hYtJE_T0pe8uvegSec0sHCPvi6zQic09bzzxdzRxsUdpLdNpOMk8Mcdl8PB_GMhTrfiqcMP1qQlMPdoILkWP5Yp3eq2q7MmsYJBDaXO8GTfZFGkV9GCt9pyTwXOAUk7SvVmEK4GermmNNFkeNwZdFTFlGXsHweoMgs7VoesgBv7ywd1iYVZEHVT6gXbZRR2fRU-dD5EA43Ghc4d_Dk_fsir-_cfmZ8-2n4gw84tR5brMhFdCFRyrSupgjAPL9eoEdOpEnJPPhLwlLlfZ3zjoQFcJsWJW_N88Wtw06K31G1uGtVuBLStoijjZoMgzVlt__z-sZ-QtigxAbt73yaOeCt0ltqvWrj-GyoWZayoJSotUw9fb5C8hectypdYdmxBu7H57Er8JZw-Ji0]--></g></svg>