<svg xmlns="http://www.w3.org/2000/svg" xmlns:xlink="http://www.w3.org/1999/xlink" contentStyleType="text/css" data-diagram-type="CLASS" height="207px" preserveAspectRatio="none" style="width:683px;height:207px;background:#FFFFFF;" version="1.1" viewBox="0 0 683 207" width="683px" zoomAndPan="magnify"><title>Comment visitor class hierarchy</title><defs/><g><text fill="#000000" font-family="sans-serif" font-size="14" font-weight="bold" lengthAdjust="spacing" textLength="254.2354" x="207.4097" y="22.9951">Comment visitor class hierarchy</text><!--class C_0000112824866232232463--><a href="classclanguml_1_1common_1_1visitor_1_1comment_1_1comment__visitor.html" target="_top" title="Base class for comment visitors" xlink:actuate="onRequest" xlink:href="classclanguml_1_1common_1_1visitor_1_1comment_1_1comment__visitor.html" xlink:show="new" xlink:title="Base class for comment visitors" xlink:type="simple"><g id="elem_C_0000112824866232232463"><rect codeLine="3" fill="#F1F1F1" height="48" id="C_0000112824866232232463" rx="2.5" ry="2.5" style="stroke:#181818;stroke-width:0.5;" width="347.6426" x="166.5" y="44.2969"/><ellipse cx="181.5" cy="60.2969" fill="#ADD1B2" rx="11" ry="11" style="stroke:#181818;stroke-width:1;"/><path d="M184.4688,65.9375 Q183.8906,66.2344 183.25,66.375 Q182.6094,66.5313 181.9063,66.5313 Q179.4063,66.5313 178.0781,64.8906 Q176.7656,63.2344 176.7656,60.1094 Q176.7656,56.9844 178.0781,55.3281 Q179.4063,53.6719 181.9063,53.6719 Q182.6094,53.6719 183.25,53.8281 Q183.9063,53.9844 184.4688,54.2813 L184.4688,57 Q183.8438,56.4219 183.25,56.1563 Q182.6563,55.875 182.0313,55.875 Q180.6875,55.875 180,56.9531 Q179.3125,58.0156 179.3125,60.1094 Q179.3125,62.2031 180,63.2813 Q180.6875,64.3438 182.0313,64.3438 Q182.6563,64.3438 183.25,64.0781 Q183.8438,63.7969 184.4688,63.2188 L184.4688,65.9375 Z " fill="#000000"/><text fill="#000000" font-family="sans-serif" font-size="14" lengthAdjust="spacing" textLength="315.6426" x="195.5" y="65.1436">common::visitor::comment::comment_visitor</text><line style="stroke:#181818;stroke-width:0.5;" x1="167.5" x2="513.1426" y1="76.2969" y2="76.2969"/><line style="stroke:#181818;stroke-width:0.5;" x1="167.5" x2="513.1426" y1="84.2969" y2="84.2969"/></g></a><!--class C_0000744033767562618314--><a href="classclanguml_1_1common_1_1visitor_1_1comment_1_1plain__visitor.html" target="_top" title="Plain comment visitor which extracts raw and formatted comment." xlink:actuate="onRequest" xlink:href="classclanguml_1_1common_1_1visitor_1_1comment_1_1plain__visitor.html" xlink:show="new" xlink:title="Plain comment visitor which extracts raw and formatted comment." xlink:type="simple"><g id="elem_C_0000744033767562618314"><rect codeLine="7" fill="#F1F1F1" height="48" id="C_0000744033767562618314" rx="2.5" ry="2.5" style="stroke:#181818;stroke-width:0.5;" width="315.2471" x="7" y="152.2969"/><ellipse cx="22" cy="168.2969" fill="#ADD1B2" rx="11" ry="11" style="stroke:#181818;stroke-width:1;"/><path d="M24.9688,173.9375 Q24.3906,174.2344 23.75,174.375 Q23.1094,174.5313 22.4063,174.5313 Q19.9063,174.5313 18.5781,172.8906 Q17.2656,171.2344 17.2656,168.1094 Q17.2656,164.9844 18.5781,163.3281 Q19.9063,161.6719 22.4063,161.6719 Q23.1094,161.6719 23.75,161.8281 Q24.4063,161.9844 24.9688,162.2813 L24.9688,165 Q24.3438,164.4219 23.75,164.1563 Q23.1563,163.875 22.5313,163.875 Q21.1875,163.875 20.5,164.9531 Q19.8125,166.0156 19.8125,168.1094 Q19.8125,170.2031 20.5,171.2813 Q21.1875,172.3438 22.5313,172.3438 Q23.1563,172.3438 23.75,172.0781 Q24.3438,171.7969 24.9688,171.2188 L24.9688,173.9375 Z " fill="#000000"/><text fill="#000000" font-family="sans-serif" font-size="14" lengthAdjust="spacing" textLength="283.2471" x="36" y="173.1436">common::visitor::comment::plain_visitor</text><line style="stroke:#181818;stroke-width:0.5;" x1="8" x2="321.2471" y1="184.2969" y2="184.2969"/><line style="stroke:#181818;stroke-width:0.5;" x1="8" x2="321.2471" y1="192.2969" y2="192.2969"/></g></a><!--class C_0000311729333045621056--><a href="classclanguml_1_1common_1_1visitor_1_1comment_1_1clang__visitor.html" target="_top" title="Uses Clang's comment parser to extract Doxygen-style comment blocks." xlink:actuate="onRequest" xlink:href="classclanguml_1_1common_1_1visitor_1_1comment_1_1clang__visitor.html" xlink:show="new" xlink:title="Uses Clang's comment parser to extract Doxygen-style comment blocks." xlink:type="simple"><g id="elem_C_0000311729333045621056"><rect codeLine="11" fill="#F1F1F1" height="48" id="C_0000311729333045621056" rx="2.5" ry="2.5" style="stroke:#181818;stroke-width:0.5;" width="319.0547" x="357" y="152.2969"/><ellipse cx="372" cy="168.2969" fill="#ADD1B2" rx="11" ry="11" style="stroke:#181818;stroke-width:1;"/><path d="M374.9688,173.9375 Q374.3906,174.2344 373.75,174.375 Q373.1094,174.5313 372.4063,174.5313 Q369.9063,174.5313 368.5781,172.8906 Q367.2656,171.2344 367.2656,168.1094 Q367.2656,164.9844 368.5781,163.3281 Q369.9063,161.6719 372.4063,161.6719 Q373.1094,161.6719 373.75,161.8281 Q374.4063,161.9844 374.9688,162.2813 L374.9688,165 Q374.3438,164.4219 373.75,164.1563 Q373.1563,163.875 372.5313,163.875 Q371.1875,163.875 370.5,164.9531 Q369.8125,166.0156 369.8125,168.1094 Q369.8125,170.2031 370.5,171.2813 Q371.1875,172.3438 372.5313,172.3438 Q373.1563,172.3438 373.75,172.0781 Q374.3438,171.7969 374.9688,171.2188 L374.9688,173.9375 Z " fill="#000000"/><text fill="#000000" font-family="sans-serif" font-size="14" lengthAdjust="spacing" textLength="287.0547" x="386" y="173.1436">common::visitor::comment::clang_visitor</text><line style="stroke:#181818;stroke-width:0.5;" x1="358" x2="675.0547" y1="184.2969" y2="184.2969"/><line style="stroke:#181818;stroke-width:0.5;" x1="358" x2="675.0547" y1="192.2969" y2="192.2969"/></g></a><!--reverse link C_0000112824866232232463 to C_0000744033767562618314--><g id="link_C_0000112824866232232463_C_0000744033767562618314"><path codeLine="14" d="M286.8909,101.584 C257.4709,119.304 232.4,134.4069 202.92,152.1569 " fill="transparent" id="C_0000112824866232232463-backto-C_0000744033767562618314" style="stroke:#181818;stroke-width:1;"/><polygon fill="transparent" points="302.31,92.2969,283.7952,96.4443,289.9866,106.7237,302.31,92.2969" style="stroke:#181818;stroke-width:1;"/></g><!--reverse link C_0000112824866232232463 to C_0000311729333045621056--><g id="link_C_0000112824866232232463_C_0000311729333045621056"><path codeLine="15" d="M394.1091,101.584 C423.5291,119.304 448.6,134.4069 478.08,152.1569 " fill="transparent" id="C_0000112824866232232463-backto-C_0000311729333045621056" style="stroke:#181818;stroke-width:1;"/><polygon fill="transparent" points="378.69,92.2969,391.0134,106.7237,397.2048,96.4443,378.69,92.2969" style="stroke:#181818;stroke-width:1;"/></g><!--SRC=[dPDDJuD048Rl_8g9bsegPB-wInjFQk954ozwCOPiSIr4M1fsQzlK-jjT2ZJ5jl6343BCEyExp-nYKvifk2hoN6aBxwb9RL52d4bZ84bLASiuMNhr-qdioWez6ZLber5Szss3g55EG1guYf2xC2OXOI7dX19tCqwRhnsJuUbfK-0UUZBBimX7k3QkeiQWJLQUEs7h7oGsprQNqgW6vRM2waAQzVCphBmeyjO_yqqpcUe3T88nHAdWOi09no75h4EtB_-7hZRlijrNkUz8C4_IE06riAMChO5Ipa7gbue-bzQgbxOX-0lxPga7s2d6WWmffOWvF8m6lCE-B_zhPpVcNVO7evn99VJCTWHJMHfLWYrQVBWk5ik9qhwnItV4sxfnLiHlPdS0Hm_YnOVl7z_dtxGT697Nkr7Q_LVLRinJcy26q7VZE8TtLPgqq8025Y1V-9DGyZ4R2gztU_jujvKVnZDjPtNZDebvW08Ef_q-GOGYWH5YBX9z4OzViII38HuG7t-gnHH_jYMO4yJ2m2tix0i0]--></g></svg>