<svg xmlns="http://www.w3.org/2000/svg" xmlns:xlink="http://www.w3.org/1999/xlink" contentStyleType="text/css" data-diagram-type="CLASS" height="946px" preserveAspectRatio="none" style="width:1487px;height:946px;background:#FFFFFF;" version="1.1" viewBox="0 0 1487 946" width="1487px" zoomAndPan="magnify"><title>Decorated diagram element class hierarchy</title><defs/><g><text fill="#000000" font-family="sans-serif" font-size="14" font-weight="bold" lengthAdjust="spacing" textLength="344.9688" x="564.0156" y="22.9951">Decorated diagram element class hierarchy</text><!--cluster C_0002532840279361781187--><g id="cluster_C_0002532840279361781187"><path d="M601.5,43.2969 L669.1777,43.2969 A3.75,3.75 0 0 1 671.6777,45.7969 L678.6777,65.5938 L982.5,65.5938 A2.5,2.5 0 0 1 985,68.0938 L985,530.7969 A2.5,2.5 0 0 1 982.5,533.2969 L601.5,533.2969 A2.5,2.5 0 0 1 599,530.7969 L599,45.7969 A2.5,2.5 0 0 1 601.5,43.2969 " fill="transparent" style="stroke:#000000;stroke-width:1.5;"/><line style="stroke:#000000;stroke-width:1.5;" x1="599" x2="678.6777" y1="65.5938" y2="65.5938"/><text fill="#000000" font-family="sans-serif" font-size="14" font-weight="bold" lengthAdjust="spacing" textLength="66.6777" x="603" y="58.292">common</text></g><!--cluster C_0000669774451444102653--><g id="cluster_C_0000669774451444102653"><path d="M625.5,86.2969 L675.0215,86.2969 A3.75,3.75 0 0 1 677.5215,88.7969 L684.5215,108.5938 L958.5,108.5938 A2.5,2.5 0 0 1 961,111.0938 L961,506.7969 A2.5,2.5 0 0 1 958.5,509.2969 L625.5,509.2969 A2.5,2.5 0 0 1 623,506.7969 L623,88.7969 A2.5,2.5 0 0 1 625.5,86.2969 " fill="transparent" style="stroke:#000000;stroke-width:1.5;"/><line style="stroke:#000000;stroke-width:1.5;" x1="623" x2="684.5215" y1="108.5938" y2="108.5938"/><text fill="#000000" font-family="sans-serif" font-size="14" font-weight="bold" lengthAdjust="spacing" textLength="48.5215" x="627" y="101.292">model</text></g><!--cluster C_0017921336289613804855--><g id="cluster_C_0017921336289613804855"><path d="M8.5,557.2969 L120.9395,557.2969 A3.75,3.75 0 0 1 123.4395,559.7969 L130.4395,579.5938 L936.5,579.5938 A2.5,2.5 0 0 1 939,582.0938 L939,936.7969 A2.5,2.5 0 0 1 936.5,939.2969 L8.5,939.2969 A2.5,2.5 0 0 1 6,936.7969 L6,559.7969 A2.5,2.5 0 0 1 8.5,557.2969 " fill="transparent" style="stroke:#000000;stroke-width:1.5;"/><line style="stroke:#000000;stroke-width:1.5;" x1="6" x2="130.4395" y1="579.5938" y2="579.5938"/><text fill="#000000" font-family="sans-serif" font-size="14" font-weight="bold" lengthAdjust="spacing" textLength="111.4395" x="10" y="572.292">class_diagram</text></g><!--cluster C_0007176993879715460962--><g id="cluster_C_0007176993879715460962"><path d="M32.5,600.2969 L82.0215,600.2969 A3.75,3.75 0 0 1 84.5215,602.7969 L91.5215,622.5938 L912.5,622.5938 A2.5,2.5 0 0 1 915,625.0938 L915,912.7969 A2.5,2.5 0 0 1 912.5,915.2969 L32.5,915.2969 A2.5,2.5 0 0 1 30,912.7969 L30,602.7969 A2.5,2.5 0 0 1 32.5,600.2969 " fill="transparent" style="stroke:#000000;stroke-width:1.5;"/><line style="stroke:#000000;stroke-width:1.5;" x1="30" x2="91.5215" y1="622.5938" y2="622.5938"/><text fill="#000000" font-family="sans-serif" font-size="14" font-weight="bold" lengthAdjust="spacing" textLength="48.5215" x="34" y="615.292">model</text></g><!--cluster C_0012174902727661033893--><g id="cluster_C_0012174902727661033893"><path d="M965.5,557.2969 L1113.8008,557.2969 A3.75,3.75 0 0 1 1116.3008,559.7969 L1123.3008,579.5938 L1477.5,579.5938 A2.5,2.5 0 0 1 1480,582.0938 L1480,936.7969 A2.5,2.5 0 0 1 1477.5,939.2969 L965.5,939.2969 A2.5,2.5 0 0 1 963,936.7969 L963,559.7969 A2.5,2.5 0 0 1 965.5,557.2969 " fill="transparent" style="stroke:#000000;stroke-width:1.5;"/><line style="stroke:#000000;stroke-width:1.5;" x1="963" x2="1123.3008" y1="579.5938" y2="579.5938"/><text fill="#000000" font-family="sans-serif" font-size="14" font-weight="bold" lengthAdjust="spacing" textLength="147.3008" x="967" y="572.292">sequence_diagram</text></g><!--cluster C_0017655759046645114118--><g id="cluster_C_0017655759046645114118"><path d="M989.5,600.2969 L1039.0215,600.2969 A3.75,3.75 0 0 1 1041.5215,602.7969 L1048.5215,622.5938 L1453.5,622.5938 A2.5,2.5 0 0 1 1456,625.0938 L1456,912.7969 A2.5,2.5 0 0 1 1453.5,915.2969 L989.5,915.2969 A2.5,2.5 0 0 1 987,912.7969 L987,602.7969 A2.5,2.5 0 0 1 989.5,600.2969 " fill="transparent" style="stroke:#000000;stroke-width:1.5;"/><line style="stroke:#000000;stroke-width:1.5;" x1="987" x2="1048.5215" y1="622.5938" y2="622.5938"/><text fill="#000000" font-family="sans-serif" font-size="14" font-weight="bold" lengthAdjust="spacing" textLength="48.5215" x="991" y="615.292">model</text></g><!--class C_0008936819060997384951--><a href="classclanguml_1_1common_1_1model_1_1decorated__element.html" target="_top" title="Base class for decorated diagram elements" xlink:actuate="onRequest" xlink:href="classclanguml_1_1common_1_1model_1_1decorated__element.html" xlink:show="new" xlink:title="Base class for decorated diagram elements" xlink:type="simple"><g id="elem_C_0008936819060997384951"><rect codeLine="5" fill="#F1F1F1" height="48" id="C_0008936819060997384951" rx="2.5" ry="2.5" style="stroke:#181818;stroke-width:0.5;" width="167.8164" x="639" y="121.2969"/><ellipse cx="654" cy="137.2969" fill="#ADD1B2" rx="11" ry="11" style="stroke:#181818;stroke-width:1;"/><path d="M656.9688,142.9375 Q656.3906,143.2344 655.75,143.375 Q655.1094,143.5313 654.4063,143.5313 Q651.9063,143.5313 650.5781,141.8906 Q649.2656,140.2344 649.2656,137.1094 Q649.2656,133.9844 650.5781,132.3281 Q651.9063,130.6719 654.4063,130.6719 Q655.1094,130.6719 655.75,130.8281 Q656.4063,130.9844 656.9688,131.2813 L656.9688,134 Q656.3438,133.4219 655.75,133.1563 Q655.1563,132.875 654.5313,132.875 Q653.1875,132.875 652.5,133.9531 Q651.8125,135.0156 651.8125,137.1094 Q651.8125,139.2031 652.5,140.2813 Q653.1875,141.3438 654.5313,141.3438 Q655.1563,141.3438 655.75,141.0781 Q656.3438,140.7969 656.9688,140.2188 L656.9688,142.9375 Z " fill="#000000"/><text fill="#000000" font-family="sans-serif" font-size="14" lengthAdjust="spacing" textLength="135.8164" x="668" y="142.1436">decorated_element</text><line style="stroke:#181818;stroke-width:0.5;" x1="640" x2="805.8164" y1="153.2969" y2="153.2969"/><line style="stroke:#181818;stroke-width:0.5;" x1="640" x2="805.8164" y1="161.2969" y2="161.2969"/></g></a><!--class C_0016370694070378943411--><a href="classclanguml_1_1common_1_1model_1_1relationship.html" target="_top" title="Class representing any relationship other than inheritance" xlink:actuate="onRequest" xlink:href="classclanguml_1_1common_1_1model_1_1relationship.html" xlink:show="new" xlink:title="Class representing any relationship other than inheritance" xlink:type="simple"><g id="elem_C_0016370694070378943411"><rect codeLine="9" fill="#F1F1F1" height="48" id="C_0016370694070378943411" rx="2.5" ry="2.5" style="stroke:#181818;stroke-width:0.5;" width="114.5986" x="639.5" y="229.2969"/><ellipse cx="654.5" cy="245.2969" fill="#ADD1B2" rx="11" ry="11" style="stroke:#181818;stroke-width:1;"/><path d="M657.4688,250.9375 Q656.8906,251.2344 656.25,251.375 Q655.6094,251.5313 654.9063,251.5313 Q652.4063,251.5313 651.0781,249.8906 Q649.7656,248.2344 649.7656,245.1094 Q649.7656,241.9844 651.0781,240.3281 Q652.4063,238.6719 654.9063,238.6719 Q655.6094,238.6719 656.25,238.8281 Q656.9063,238.9844 657.4688,239.2813 L657.4688,242 Q656.8438,241.4219 656.25,241.1563 Q655.6563,240.875 655.0313,240.875 Q653.6875,240.875 653,241.9531 Q652.3125,243.0156 652.3125,245.1094 Q652.3125,247.2031 653,248.2813 Q653.6875,249.3438 655.0313,249.3438 Q655.6563,249.3438 656.25,249.0781 Q656.8438,248.7969 657.4688,248.2188 L657.4688,250.9375 Z " fill="#000000"/><text fill="#000000" font-family="sans-serif" font-size="14" lengthAdjust="spacing" textLength="82.5986" x="668.5" y="250.1436">relationship</text><line style="stroke:#181818;stroke-width:0.5;" x1="640.5" x2="753.0986" y1="261.2969" y2="261.2969"/><line style="stroke:#181818;stroke-width:0.5;" x1="640.5" x2="753.0986" y1="269.2969" y2="269.2969"/></g></a><!--class C_0008588005715032923314--><a href="classclanguml_1_1common_1_1model_1_1diagram__element.html" target="_top" title="Base class for standalone diagram elements." xlink:actuate="onRequest" xlink:href="classclanguml_1_1common_1_1model_1_1diagram__element.html" xlink:show="new" xlink:title="Base class for standalone diagram elements." xlink:type="simple"><g id="elem_C_0008588005715032923314"><rect codeLine="13" fill="#F1F1F1" height="48" id="C_0008588005715032923314" rx="2.5" ry="2.5" style="stroke:#181818;stroke-width:0.5;" width="154.9443" x="789.5" y="229.2969"/><ellipse cx="804.5" cy="245.2969" fill="#ADD1B2" rx="11" ry="11" style="stroke:#181818;stroke-width:1;"/><path d="M807.4688,250.9375 Q806.8906,251.2344 806.25,251.375 Q805.6094,251.5313 804.9063,251.5313 Q802.4063,251.5313 801.0781,249.8906 Q799.7656,248.2344 799.7656,245.1094 Q799.7656,241.9844 801.0781,240.3281 Q802.4063,238.6719 804.9063,238.6719 Q805.6094,238.6719 806.25,238.8281 Q806.9063,238.9844 807.4688,239.2813 L807.4688,242 Q806.8438,241.4219 806.25,241.1563 Q805.6563,240.875 805.0313,240.875 Q803.6875,240.875 803,241.9531 Q802.3125,243.0156 802.3125,245.1094 Q802.3125,247.2031 803,248.2813 Q803.6875,249.3438 805.0313,249.3438 Q805.6563,249.3438 806.25,249.0781 Q806.8438,248.7969 807.4688,248.2188 L807.4688,250.9375 Z " fill="#000000"/><text fill="#000000" font-family="sans-serif" font-size="14" lengthAdjust="spacing" textLength="122.9443" x="818.5" y="250.1436">diagram_element</text><line style="stroke:#181818;stroke-width:0.5;" x1="790.5" x2="943.4443" y1="261.2969" y2="261.2969"/><line style="stroke:#181818;stroke-width:0.5;" x1="790.5" x2="943.4443" y1="269.2969" y2="269.2969"/></g></a><!--class C_0016556163051475263500--><a href="classclanguml_1_1common_1_1model_1_1element.html" target="_top" title="Base class for any element qualified by namespace." xlink:actuate="onRequest" xlink:href="classclanguml_1_1common_1_1model_1_1element.html" xlink:show="new" xlink:title="Base class for any element qualified by namespace." xlink:type="simple"><g id="elem_C_0016556163051475263500"><rect codeLine="17" fill="#F1F1F1" height="48" id="C_0016556163051475263500" rx="2.5" ry="2.5" style="stroke:#181818;stroke-width:0.5;" width="89.7295" x="690" y="337.2969"/><ellipse cx="705" cy="353.2969" fill="#ADD1B2" rx="11" ry="11" style="stroke:#181818;stroke-width:1;"/><path d="M707.9688,358.9375 Q707.3906,359.2344 706.75,359.375 Q706.1094,359.5313 705.4063,359.5313 Q702.9063,359.5313 701.5781,357.8906 Q700.2656,356.2344 700.2656,353.1094 Q700.2656,349.9844 701.5781,348.3281 Q702.9063,346.6719 705.4063,346.6719 Q706.1094,346.6719 706.75,346.8281 Q707.4063,346.9844 707.9688,347.2813 L707.9688,350 Q707.3438,349.4219 706.75,349.1563 Q706.1563,348.875 705.5313,348.875 Q704.1875,348.875 703.5,349.9531 Q702.8125,351.0156 702.8125,353.1094 Q702.8125,355.2031 703.5,356.2813 Q704.1875,357.3438 705.5313,357.3438 Q706.1563,357.3438 706.75,357.0781 Q707.3438,356.7969 707.9688,356.2188 L707.9688,358.9375 Z " fill="#000000"/><text fill="#000000" font-family="sans-serif" font-size="14" lengthAdjust="spacing" textLength="57.7295" x="719" y="358.1436">element</text><line style="stroke:#181818;stroke-width:0.5;" x1="691" x2="778.7295" y1="369.2969" y2="369.2969"/><line style="stroke:#181818;stroke-width:0.5;" x1="691" x2="778.7295" y1="377.2969" y2="377.2969"/></g></a><!--class C_0013384831159811298387--><a href="classclanguml_1_1common_1_1model_1_1template__element.html" target="_top" title="Base class for any element qualified by namespace." xlink:actuate="onRequest" xlink:href="classclanguml_1_1common_1_1model_1_1template__element.html" xlink:show="new" xlink:title="Base class for any element qualified by namespace." xlink:type="simple"><g id="elem_C_0013384831159811298387"><rect codeLine="21" fill="#F1F1F1" height="48" id="C_0013384831159811298387" rx="2.5" ry="2.5" style="stroke:#181818;stroke-width:0.5;" width="159.9277" x="658" y="445.2969"/><ellipse cx="673" cy="461.2969" fill="#ADD1B2" rx="11" ry="11" style="stroke:#181818;stroke-width:1;"/><path d="M675.9688,466.9375 Q675.3906,467.2344 674.75,467.375 Q674.1094,467.5313 673.4063,467.5313 Q670.9063,467.5313 669.5781,465.8906 Q668.2656,464.2344 668.2656,461.1094 Q668.2656,457.9844 669.5781,456.3281 Q670.9063,454.6719 673.4063,454.6719 Q674.1094,454.6719 674.75,454.8281 Q675.4063,454.9844 675.9688,455.2813 L675.9688,458 Q675.3438,457.4219 674.75,457.1563 Q674.1563,456.875 673.5313,456.875 Q672.1875,456.875 671.5,457.9531 Q670.8125,459.0156 670.8125,461.1094 Q670.8125,463.2031 671.5,464.2813 Q672.1875,465.3438 673.5313,465.3438 Q674.1563,465.3438 674.75,465.0781 Q675.3438,464.7969 675.9688,464.2188 L675.9688,466.9375 Z " fill="#000000"/><text fill="#000000" font-family="sans-serif" font-size="14" lengthAdjust="spacing" textLength="127.9277" x="687" y="466.1436">template_element</text><line style="stroke:#181818;stroke-width:0.5;" x1="659" x2="816.9277" y1="477.2969" y2="477.2969"/><line style="stroke:#181818;stroke-width:0.5;" x1="659" x2="816.9277" y1="485.2969" y2="485.2969"/></g></a><!--class C_0006285717704576425038--><a href="classclanguml_1_1common_1_1model_1_1source__file.html" target="_top" title="Diagram element representing some file or directory." xlink:actuate="onRequest" xlink:href="classclanguml_1_1common_1_1model_1_1source__file.html" xlink:show="new" xlink:title="Diagram element representing some file or directory." xlink:type="simple"><g id="elem_C_0006285717704576425038"><rect codeLine="25" fill="#F1F1F1" height="48" id="C_0006285717704576425038" rx="2.5" ry="2.5" style="stroke:#181818;stroke-width:0.5;" width="107.1201" x="815.5" y="337.2969"/><ellipse cx="830.5" cy="353.2969" fill="#ADD1B2" rx="11" ry="11" style="stroke:#181818;stroke-width:1;"/><path d="M833.4688,358.9375 Q832.8906,359.2344 832.25,359.375 Q831.6094,359.5313 830.9063,359.5313 Q828.4063,359.5313 827.0781,357.8906 Q825.7656,356.2344 825.7656,353.1094 Q825.7656,349.9844 827.0781,348.3281 Q828.4063,346.6719 830.9063,346.6719 Q831.6094,346.6719 832.25,346.8281 Q832.9063,346.9844 833.4688,347.2813 L833.4688,350 Q832.8438,349.4219 832.25,349.1563 Q831.6563,348.875 831.0313,348.875 Q829.6875,348.875 829,349.9531 Q828.3125,351.0156 828.3125,353.1094 Q828.3125,355.2031 829,356.2813 Q829.6875,357.3438 831.0313,357.3438 Q831.6563,357.3438 832.25,357.0781 Q832.8438,356.7969 833.4688,356.2188 L833.4688,358.9375 Z " fill="#000000"/><text fill="#000000" font-family="sans-serif" font-size="14" lengthAdjust="spacing" textLength="75.1201" x="844.5" y="358.1436">source_file</text><line style="stroke:#181818;stroke-width:0.5;" x1="816.5" x2="921.6201" y1="369.2969" y2="369.2969"/><line style="stroke:#181818;stroke-width:0.5;" x1="816.5" x2="921.6201" y1="377.2969" y2="377.2969"/></g></a><!--class C_0017146293478645494837--><a href="classclanguml_1_1common_1_1model_1_1package.html" target="_top" title="Diagram element representing namespace or directory package" xlink:actuate="onRequest" xlink:href="classclanguml_1_1common_1_1model_1_1package.html" xlink:show="new" xlink:title="Diagram element representing namespace or directory package" xlink:type="simple"><g id="elem_C_0017146293478645494837"><rect codeLine="29" fill="#F1F1F1" height="48" id="C_0017146293478645494837" rx="2.5" ry="2.5" style="stroke:#181818;stroke-width:0.5;" width="91.3496" x="853.5" y="445.2969"/><ellipse cx="868.5" cy="461.2969" fill="#ADD1B2" rx="11" ry="11" style="stroke:#181818;stroke-width:1;"/><path d="M871.4688,466.9375 Q870.8906,467.2344 870.25,467.375 Q869.6094,467.5313 868.9063,467.5313 Q866.4063,467.5313 865.0781,465.8906 Q863.7656,464.2344 863.7656,461.1094 Q863.7656,457.9844 865.0781,456.3281 Q866.4063,454.6719 868.9063,454.6719 Q869.6094,454.6719 870.25,454.8281 Q870.9063,454.9844 871.4688,455.2813 L871.4688,458 Q870.8438,457.4219 870.25,457.1563 Q869.6563,456.875 869.0313,456.875 Q867.6875,456.875 867,457.9531 Q866.3125,459.0156 866.3125,461.1094 Q866.3125,463.2031 867,464.2813 Q867.6875,465.3438 869.0313,465.3438 Q869.6563,465.3438 870.25,465.0781 Q870.8438,464.7969 871.4688,464.2188 L871.4688,466.9375 Z " fill="#000000"/><text fill="#000000" font-family="sans-serif" font-size="14" lengthAdjust="spacing" textLength="59.3496" x="882.5" y="466.1436">package</text><line style="stroke:#181818;stroke-width:0.5;" x1="854.5" x2="943.8496" y1="477.2969" y2="477.2969"/><line style="stroke:#181818;stroke-width:0.5;" x1="854.5" x2="943.8496" y1="485.2969" y2="485.2969"/></g></a><!--class C_0004846934894930864299--><a href="classclanguml_1_1class__diagram_1_1model_1_1class__element.html" target="_top" title="Base class for class elements (e.g. member or method)." xlink:actuate="onRequest" xlink:href="classclanguml_1_1class__diagram_1_1model_1_1class__element.html" xlink:show="new" xlink:title="Base class for class elements (e.g. member or method)." xlink:type="simple"><g id="elem_C_0004846934894930864299"><rect codeLine="37" fill="#F1F1F1" height="48" id="C_0004846934894930864299" rx="2.5" ry="2.5" style="stroke:#181818;stroke-width:0.5;" width="131.4834" x="46.5" y="635.2969"/><ellipse cx="61.5" cy="651.2969" fill="#ADD1B2" rx="11" ry="11" style="stroke:#181818;stroke-width:1;"/><path d="M64.4688,656.9375 Q63.8906,657.2344 63.25,657.375 Q62.6094,657.5313 61.9063,657.5313 Q59.4063,657.5313 58.0781,655.8906 Q56.7656,654.2344 56.7656,651.1094 Q56.7656,647.9844 58.0781,646.3281 Q59.4063,644.6719 61.9063,644.6719 Q62.6094,644.6719 63.25,644.8281 Q63.9063,644.9844 64.4688,645.2813 L64.4688,648 Q63.8438,647.4219 63.25,647.1563 Q62.6563,646.875 62.0313,646.875 Q60.6875,646.875 60,647.9531 Q59.3125,649.0156 59.3125,651.1094 Q59.3125,653.2031 60,654.2813 Q60.6875,655.3438 62.0313,655.3438 Q62.6563,655.3438 63.25,655.0781 Q63.8438,654.7969 64.4688,654.2188 L64.4688,656.9375 Z " fill="#000000"/><text fill="#000000" font-family="sans-serif" font-size="14" lengthAdjust="spacing" textLength="99.4834" x="75.5" y="656.1436">class_element</text><line style="stroke:#181818;stroke-width:0.5;" x1="47.5" x2="176.9834" y1="667.2969" y2="667.2969"/><line style="stroke:#181818;stroke-width:0.5;" x1="47.5" x2="176.9834" y1="675.2969" y2="675.2969"/></g></a><!--class C_0014241292626575163322--><a href="classclanguml_1_1class__diagram_1_1model_1_1class__member__base.html" target="_top" title="Generic class member model." xlink:actuate="onRequest" xlink:href="classclanguml_1_1class__diagram_1_1model_1_1class__member__base.html" xlink:show="new" xlink:title="Generic class member model." xlink:type="simple"><g id="elem_C_0014241292626575163322"><rect codeLine="41" fill="#F1F1F1" height="48" id="C_0014241292626575163322" rx="2.5" ry="2.5" style="stroke:#181818;stroke-width:0.5;" width="173.2715" x="46.5" y="743.2969"/><ellipse cx="61.5" cy="759.2969" fill="#ADD1B2" rx="11" ry="11" style="stroke:#181818;stroke-width:1;"/><path d="M64.4688,764.9375 Q63.8906,765.2344 63.25,765.375 Q62.6094,765.5313 61.9063,765.5313 Q59.4063,765.5313 58.0781,763.8906 Q56.7656,762.2344 56.7656,759.1094 Q56.7656,755.9844 58.0781,754.3281 Q59.4063,752.6719 61.9063,752.6719 Q62.6094,752.6719 63.25,752.8281 Q63.9063,752.9844 64.4688,753.2813 L64.4688,756 Q63.8438,755.4219 63.25,755.1563 Q62.6563,754.875 62.0313,754.875 Q60.6875,754.875 60,755.9531 Q59.3125,757.0156 59.3125,759.1094 Q59.3125,761.2031 60,762.2813 Q60.6875,763.3438 62.0313,763.3438 Q62.6563,763.3438 63.25,763.0781 Q63.8438,762.7969 64.4688,762.2188 L64.4688,764.9375 Z " fill="#000000"/><text fill="#000000" font-family="sans-serif" font-size="14" lengthAdjust="spacing" textLength="141.2715" x="75.5" y="764.1436">class_member_base</text><line style="stroke:#181818;stroke-width:0.5;" x1="47.5" x2="218.7715" y1="775.2969" y2="775.2969"/><line style="stroke:#181818;stroke-width:0.5;" x1="47.5" x2="218.7715" y1="783.2969" y2="783.2969"/></g></a><!--class C_0014370262096868218046--><a href="classclanguml_1_1class__diagram_1_1model_1_1class__member.html" target="_top" title="Class member model." xlink:actuate="onRequest" xlink:href="classclanguml_1_1class__diagram_1_1model_1_1class__member.html" xlink:show="new" xlink:title="Class member model." xlink:type="simple"><g id="elem_C_0014370262096868218046"><rect codeLine="45" fill="#F1F1F1" height="48" id="C_0014370262096868218046" rx="2.5" ry="2.5" style="stroke:#181818;stroke-width:0.5;" width="132.8984" x="46.5" y="851.2969"/><ellipse cx="61.5" cy="867.2969" fill="#ADD1B2" rx="11" ry="11" style="stroke:#181818;stroke-width:1;"/><path d="M64.4688,872.9375 Q63.8906,873.2344 63.25,873.375 Q62.6094,873.5313 61.9063,873.5313 Q59.4063,873.5313 58.0781,871.8906 Q56.7656,870.2344 56.7656,867.1094 Q56.7656,863.9844 58.0781,862.3281 Q59.4063,860.6719 61.9063,860.6719 Q62.6094,860.6719 63.25,860.8281 Q63.9063,860.9844 64.4688,861.2813 L64.4688,864 Q63.8438,863.4219 63.25,863.1563 Q62.6563,862.875 62.0313,862.875 Q60.6875,862.875 60,863.9531 Q59.3125,865.0156 59.3125,867.1094 Q59.3125,869.2031 60,870.2813 Q60.6875,871.3438 62.0313,871.3438 Q62.6563,871.3438 63.25,871.0781 Q63.8438,870.7969 64.4688,870.2188 L64.4688,872.9375 Z " fill="#000000"/><text fill="#000000" font-family="sans-serif" font-size="14" lengthAdjust="spacing" textLength="100.8984" x="75.5" y="872.1436">class_member</text><line style="stroke:#181818;stroke-width:0.5;" x1="47.5" x2="178.3984" y1="883.2969" y2="883.2969"/><line style="stroke:#181818;stroke-width:0.5;" x1="47.5" x2="178.3984" y1="891.2969" y2="891.2969"/></g></a><!--class C_0004845352266951408403--><a href="classclanguml_1_1class__diagram_1_1model_1_1method__parameter.html" target="_top" title="Model of a method parameter." xlink:actuate="onRequest" xlink:href="classclanguml_1_1class__diagram_1_1model_1_1method__parameter.html" xlink:show="new" xlink:title="Model of a method parameter." xlink:type="simple"><g id="elem_C_0004845352266951408403"><rect codeLine="49" fill="#F1F1F1" height="48" id="C_0004845352266951408403" rx="2.5" ry="2.5" style="stroke:#181818;stroke-width:0.5;" width="166.9756" x="212.5" y="635.2969"/><ellipse cx="227.5" cy="651.2969" fill="#ADD1B2" rx="11" ry="11" style="stroke:#181818;stroke-width:1;"/><path d="M230.4688,656.9375 Q229.8906,657.2344 229.25,657.375 Q228.6094,657.5313 227.9063,657.5313 Q225.4063,657.5313 224.0781,655.8906 Q222.7656,654.2344 222.7656,651.1094 Q222.7656,647.9844 224.0781,646.3281 Q225.4063,644.6719 227.9063,644.6719 Q228.6094,644.6719 229.25,644.8281 Q229.9063,644.9844 230.4688,645.2813 L230.4688,648 Q229.8438,647.4219 229.25,647.1563 Q228.6563,646.875 228.0313,646.875 Q226.6875,646.875 226,647.9531 Q225.3125,649.0156 225.3125,651.1094 Q225.3125,653.2031 226,654.2813 Q226.6875,655.3438 228.0313,655.3438 Q228.6563,655.3438 229.25,655.0781 Q229.8438,654.7969 230.4688,654.2188 L230.4688,656.9375 Z " fill="#000000"/><text fill="#000000" font-family="sans-serif" font-size="14" lengthAdjust="spacing" textLength="134.9756" x="241.5" y="656.1436">method_parameter</text><line style="stroke:#181818;stroke-width:0.5;" x1="213.5" x2="378.4756" y1="667.2969" y2="667.2969"/><line style="stroke:#181818;stroke-width:0.5;" x1="213.5" x2="378.4756" y1="675.2969" y2="675.2969"/></g></a><!--class C_0018032026899693266441--><a href="classclanguml_1_1class__diagram_1_1model_1_1class__method__base.html" target="_top" title="Class method model." xlink:actuate="onRequest" xlink:href="classclanguml_1_1class__diagram_1_1model_1_1class__method__base.html" xlink:show="new" xlink:title="Class method model." xlink:type="simple"><g id="elem_C_0018032026899693266441"><rect codeLine="53" fill="#F1F1F1" height="48" id="C_0018032026899693266441" rx="2.5" ry="2.5" style="stroke:#181818;stroke-width:0.5;" width="168.1924" x="357" y="743.2969"/><ellipse cx="372" cy="759.2969" fill="#ADD1B2" rx="11" ry="11" style="stroke:#181818;stroke-width:1;"/><path d="M374.9688,764.9375 Q374.3906,765.2344 373.75,765.375 Q373.1094,765.5313 372.4063,765.5313 Q369.9063,765.5313 368.5781,763.8906 Q367.2656,762.2344 367.2656,759.1094 Q367.2656,755.9844 368.5781,754.3281 Q369.9063,752.6719 372.4063,752.6719 Q373.1094,752.6719 373.75,752.8281 Q374.4063,752.9844 374.9688,753.2813 L374.9688,756 Q374.3438,755.4219 373.75,755.1563 Q373.1563,754.875 372.5313,754.875 Q371.1875,754.875 370.5,755.9531 Q369.8125,757.0156 369.8125,759.1094 Q369.8125,761.2031 370.5,762.2813 Q371.1875,763.3438 372.5313,763.3438 Q373.1563,763.3438 373.75,763.0781 Q374.3438,762.7969 374.9688,762.2188 L374.9688,764.9375 Z " fill="#000000"/><text fill="#000000" font-family="sans-serif" font-size="14" lengthAdjust="spacing" textLength="136.1924" x="386" y="764.1436">class_method_base</text><line style="stroke:#181818;stroke-width:0.5;" x1="358" x2="524.1924" y1="775.2969" y2="775.2969"/><line style="stroke:#181818;stroke-width:0.5;" x1="358" x2="524.1924" y1="783.2969" y2="783.2969"/></g></a><!--class C_0001633165731746789371--><a href="classclanguml_1_1class__diagram_1_1model_1_1class__method.html" target="_top" title="Class method model." xlink:actuate="onRequest" xlink:href="classclanguml_1_1class__diagram_1_1model_1_1class__method.html" xlink:show="new" xlink:title="Class method model." xlink:type="simple"><g id="elem_C_0001633165731746789371"><rect codeLine="57" fill="#F1F1F1" height="48" id="C_0001633165731746789371" rx="2.5" ry="2.5" style="stroke:#181818;stroke-width:0.5;" width="127.8193" x="377" y="851.2969"/><ellipse cx="392" cy="867.2969" fill="#ADD1B2" rx="11" ry="11" style="stroke:#181818;stroke-width:1;"/><path d="M394.9688,872.9375 Q394.3906,873.2344 393.75,873.375 Q393.1094,873.5313 392.4063,873.5313 Q389.9063,873.5313 388.5781,871.8906 Q387.2656,870.2344 387.2656,867.1094 Q387.2656,863.9844 388.5781,862.3281 Q389.9063,860.6719 392.4063,860.6719 Q393.1094,860.6719 393.75,860.8281 Q394.4063,860.9844 394.9688,861.2813 L394.9688,864 Q394.3438,863.4219 393.75,863.1563 Q393.1563,862.875 392.5313,862.875 Q391.1875,862.875 390.5,863.9531 Q389.8125,865.0156 389.8125,867.1094 Q389.8125,869.2031 390.5,870.2813 Q391.1875,871.3438 392.5313,871.3438 Q393.1563,871.3438 393.75,871.0781 Q394.3438,870.7969 394.9688,870.2188 L394.9688,872.9375 Z " fill="#000000"/><text fill="#000000" font-family="sans-serif" font-size="14" lengthAdjust="spacing" textLength="95.8193" x="406" y="872.1436">class_method</text><line style="stroke:#181818;stroke-width:0.5;" x1="378" x2="503.8193" y1="883.2969" y2="883.2969"/><line style="stroke:#181818;stroke-width:0.5;" x1="378" x2="503.8193" y1="891.2969" y2="891.2969"/></g></a><!--class C_0010336274859733225462--><a href="classclanguml_1_1class__diagram_1_1model_1_1class__.html" target="_top" title="Diagram element representing a class or class template." xlink:actuate="onRequest" xlink:href="classclanguml_1_1class__diagram_1_1model_1_1class__.html" xlink:show="new" xlink:title="Diagram element representing a class or class template." xlink:type="simple"><g id="elem_C_0010336274859733225462"><rect codeLine="61" fill="#F1F1F1" height="48" id="C_0010336274859733225462" rx="2.5" ry="2.5" style="stroke:#181818;stroke-width:0.5;" width="73.7539" x="825" y="635.2969"/><ellipse cx="840" cy="651.2969" fill="#ADD1B2" rx="11" ry="11" style="stroke:#181818;stroke-width:1;"/><path d="M842.9688,656.9375 Q842.3906,657.2344 841.75,657.375 Q841.1094,657.5313 840.4063,657.5313 Q837.9063,657.5313 836.5781,655.8906 Q835.2656,654.2344 835.2656,651.1094 Q835.2656,647.9844 836.5781,646.3281 Q837.9063,644.6719 840.4063,644.6719 Q841.1094,644.6719 841.75,644.8281 Q842.4063,644.9844 842.9688,645.2813 L842.9688,648 Q842.3438,647.4219 841.75,647.1563 Q841.1563,646.875 840.5313,646.875 Q839.1875,646.875 838.5,647.9531 Q837.8125,649.0156 837.8125,651.1094 Q837.8125,653.2031 838.5,654.2813 Q839.1875,655.3438 840.5313,655.3438 Q841.1563,655.3438 841.75,655.0781 Q842.3438,654.7969 842.9688,654.2188 L842.9688,656.9375 Z " fill="#000000"/><text fill="#000000" font-family="sans-serif" font-size="14" lengthAdjust="spacing" textLength="41.7539" x="854" y="656.1436">class_</text><line style="stroke:#181818;stroke-width:0.5;" x1="826" x2="897.7539" y1="667.2969" y2="667.2969"/><line style="stroke:#181818;stroke-width:0.5;" x1="826" x2="897.7539" y1="675.2969" y2="675.2969"/></g></a><!--class C_0010998792414017796003--><a href="classclanguml_1_1class__diagram_1_1model_1_1concept__.html" target="_top" title="Model of C++ concept." xlink:actuate="onRequest" xlink:href="classclanguml_1_1class__diagram_1_1model_1_1concept__.html" xlink:show="new" xlink:title="Model of C++ concept." xlink:type="simple"><g id="elem_C_0010998792414017796003"><rect codeLine="65" fill="#F1F1F1" height="48" id="C_0010998792414017796003" rx="2.5" ry="2.5" style="stroke:#181818;stroke-width:0.5;" width="94.8223" x="694.5" y="635.2969"/><ellipse cx="709.5" cy="651.2969" fill="#ADD1B2" rx="11" ry="11" style="stroke:#181818;stroke-width:1;"/><path d="M712.4688,656.9375 Q711.8906,657.2344 711.25,657.375 Q710.6094,657.5313 709.9063,657.5313 Q707.4063,657.5313 706.0781,655.8906 Q704.7656,654.2344 704.7656,651.1094 Q704.7656,647.9844 706.0781,646.3281 Q707.4063,644.6719 709.9063,644.6719 Q710.6094,644.6719 711.25,644.8281 Q711.9063,644.9844 712.4688,645.2813 L712.4688,648 Q711.8438,647.4219 711.25,647.1563 Q710.6563,646.875 710.0313,646.875 Q708.6875,646.875 708,647.9531 Q707.3125,649.0156 707.3125,651.1094 Q707.3125,653.2031 708,654.2813 Q708.6875,655.3438 710.0313,655.3438 Q710.6563,655.3438 711.25,655.0781 Q711.8438,654.7969 712.4688,654.2188 L712.4688,656.9375 Z " fill="#000000"/><text fill="#000000" font-family="sans-serif" font-size="14" lengthAdjust="spacing" textLength="62.8223" x="723.5" y="656.1436">concept_</text><line style="stroke:#181818;stroke-width:0.5;" x1="695.5" x2="788.3223" y1="667.2969" y2="667.2969"/><line style="stroke:#181818;stroke-width:0.5;" x1="695.5" x2="788.3223" y1="675.2969" y2="675.2969"/></g></a><!--class C_0005795143816749204050--><a href="classclanguml_1_1class__diagram_1_1model_1_1enum__.html" target="_top" title="Diagram element representing an enum." xlink:actuate="onRequest" xlink:href="classclanguml_1_1class__diagram_1_1model_1_1enum__.html" xlink:show="new" xlink:title="Diagram element representing an enum." xlink:type="simple"><g id="elem_C_0005795143816749204050"><rect codeLine="69" fill="#F1F1F1" height="48" id="C_0005795143816749204050" rx="2.5" ry="2.5" style="stroke:#181818;stroke-width:0.5;" width="78.9971" x="414.5" y="635.2969"/><ellipse cx="429.5" cy="651.2969" fill="#ADD1B2" rx="11" ry="11" style="stroke:#181818;stroke-width:1;"/><path d="M432.4688,656.9375 Q431.8906,657.2344 431.25,657.375 Q430.6094,657.5313 429.9063,657.5313 Q427.4063,657.5313 426.0781,655.8906 Q424.7656,654.2344 424.7656,651.1094 Q424.7656,647.9844 426.0781,646.3281 Q427.4063,644.6719 429.9063,644.6719 Q430.6094,644.6719 431.25,644.8281 Q431.9063,644.9844 432.4688,645.2813 L432.4688,648 Q431.8438,647.4219 431.25,647.1563 Q430.6563,646.875 430.0313,646.875 Q428.6875,646.875 428,647.9531 Q427.3125,649.0156 427.3125,651.1094 Q427.3125,653.2031 428,654.2813 Q428.6875,655.3438 430.0313,655.3438 Q430.6563,655.3438 431.25,655.0781 Q431.8438,654.7969 432.4688,654.2188 L432.4688,656.9375 Z " fill="#000000"/><text fill="#000000" font-family="sans-serif" font-size="14" lengthAdjust="spacing" textLength="46.9971" x="443.5" y="656.1436">enum_</text><line style="stroke:#181818;stroke-width:0.5;" x1="415.5" x2="492.4971" y1="667.2969" y2="667.2969"/><line style="stroke:#181818;stroke-width:0.5;" x1="415.5" x2="492.4971" y1="675.2969" y2="675.2969"/></g></a><!--class C_0007364672229966928495--><a href="classclanguml_1_1class__diagram_1_1model_1_1objc__member.html" target="_top" title="ObjC class member model." xlink:actuate="onRequest" xlink:href="classclanguml_1_1class__diagram_1_1model_1_1objc__member.html" xlink:show="new" xlink:title="ObjC class member model." xlink:type="simple"><g id="elem_C_0007364672229966928495"><rect codeLine="73" fill="#F1F1F1" height="48" id="C_0007364672229966928495" rx="2.5" ry="2.5" style="stroke:#181818;stroke-width:0.5;" width="127.1836" x="214.5" y="851.2969"/><ellipse cx="229.5" cy="867.2969" fill="#ADD1B2" rx="11" ry="11" style="stroke:#181818;stroke-width:1;"/><path d="M232.4688,872.9375 Q231.8906,873.2344 231.25,873.375 Q230.6094,873.5313 229.9063,873.5313 Q227.4063,873.5313 226.0781,871.8906 Q224.7656,870.2344 224.7656,867.1094 Q224.7656,863.9844 226.0781,862.3281 Q227.4063,860.6719 229.9063,860.6719 Q230.6094,860.6719 231.25,860.8281 Q231.9063,860.9844 232.4688,861.2813 L232.4688,864 Q231.8438,863.4219 231.25,863.1563 Q230.6563,862.875 230.0313,862.875 Q228.6875,862.875 228,863.9531 Q227.3125,865.0156 227.3125,867.1094 Q227.3125,869.2031 228,870.2813 Q228.6875,871.3438 230.0313,871.3438 Q230.6563,871.3438 231.25,871.0781 Q231.8438,870.7969 232.4688,870.2188 L232.4688,872.9375 Z " fill="#000000"/><text fill="#000000" font-family="sans-serif" font-size="14" lengthAdjust="spacing" textLength="95.1836" x="243.5" y="872.1436">objc_member</text><line style="stroke:#181818;stroke-width:0.5;" x1="215.5" x2="340.6836" y1="883.2969" y2="883.2969"/><line style="stroke:#181818;stroke-width:0.5;" x1="215.5" x2="340.6836" y1="891.2969" y2="891.2969"/></g></a><!--class C_0002175636676684225778--><a href="classclanguml_1_1class__diagram_1_1model_1_1objc__method.html" target="_top" title="ObjC class method model." xlink:actuate="onRequest" xlink:href="classclanguml_1_1class__diagram_1_1model_1_1objc__method.html" xlink:show="new" xlink:title="ObjC class method model." xlink:type="simple"><g id="elem_C_0002175636676684225778"><rect codeLine="77" fill="#F1F1F1" height="48" id="C_0002175636676684225778" rx="2.5" ry="2.5" style="stroke:#181818;stroke-width:0.5;" width="122.1045" x="540" y="851.2969"/><ellipse cx="555" cy="867.2969" fill="#ADD1B2" rx="11" ry="11" style="stroke:#181818;stroke-width:1;"/><path d="M557.9688,872.9375 Q557.3906,873.2344 556.75,873.375 Q556.1094,873.5313 555.4063,873.5313 Q552.9063,873.5313 551.5781,871.8906 Q550.2656,870.2344 550.2656,867.1094 Q550.2656,863.9844 551.5781,862.3281 Q552.9063,860.6719 555.4063,860.6719 Q556.1094,860.6719 556.75,860.8281 Q557.4063,860.9844 557.9688,861.2813 L557.9688,864 Q557.3438,863.4219 556.75,863.1563 Q556.1563,862.875 555.5313,862.875 Q554.1875,862.875 553.5,863.9531 Q552.8125,865.0156 552.8125,867.1094 Q552.8125,869.2031 553.5,870.2813 Q554.1875,871.3438 555.5313,871.3438 Q556.1563,871.3438 556.75,871.0781 Q557.3438,870.7969 557.9688,870.2188 L557.9688,872.9375 Z " fill="#000000"/><text fill="#000000" font-family="sans-serif" font-size="14" lengthAdjust="spacing" textLength="90.1045" x="569" y="872.1436">objc_method</text><line style="stroke:#181818;stroke-width:0.5;" x1="541" x2="661.1045" y1="883.2969" y2="883.2969"/><line style="stroke:#181818;stroke-width:0.5;" x1="541" x2="661.1045" y1="891.2969" y2="891.2969"/></g></a><!--class C_0010166346108406727066--><a href="classclanguml_1_1class__diagram_1_1model_1_1objc__interface.html" target="_top" title="Diagram element representing an ObjC interface." xlink:actuate="onRequest" xlink:href="classclanguml_1_1class__diagram_1_1model_1_1objc__interface.html" xlink:show="new" xlink:title="Diagram element representing an ObjC interface." xlink:type="simple"><g id="elem_C_0010166346108406727066"><rect codeLine="81" fill="#F1F1F1" height="48" id="C_0010166346108406727066" rx="2.5" ry="2.5" style="stroke:#181818;stroke-width:0.5;" width="130.4785" x="529" y="635.2969"/><ellipse cx="544" cy="651.2969" fill="#ADD1B2" rx="11" ry="11" style="stroke:#181818;stroke-width:1;"/><path d="M546.9688,656.9375 Q546.3906,657.2344 545.75,657.375 Q545.1094,657.5313 544.4063,657.5313 Q541.9063,657.5313 540.5781,655.8906 Q539.2656,654.2344 539.2656,651.1094 Q539.2656,647.9844 540.5781,646.3281 Q541.9063,644.6719 544.4063,644.6719 Q545.1094,644.6719 545.75,644.8281 Q546.4063,644.9844 546.9688,645.2813 L546.9688,648 Q546.3438,647.4219 545.75,647.1563 Q545.1563,646.875 544.5313,646.875 Q543.1875,646.875 542.5,647.9531 Q541.8125,649.0156 541.8125,651.1094 Q541.8125,653.2031 542.5,654.2813 Q543.1875,655.3438 544.5313,655.3438 Q545.1563,655.3438 545.75,655.0781 Q546.3438,654.7969 546.9688,654.2188 L546.9688,656.9375 Z " fill="#000000"/><text fill="#000000" font-family="sans-serif" font-size="14" lengthAdjust="spacing" textLength="98.4785" x="558" y="656.1436">objc_interface</text><line style="stroke:#181818;stroke-width:0.5;" x1="530" x2="658.4785" y1="667.2969" y2="667.2969"/><line style="stroke:#181818;stroke-width:0.5;" x1="530" x2="658.4785" y1="675.2969" y2="675.2969"/></g></a><!--class C_0011201726182739961811--><a href="structclanguml_1_1sequence__diagram_1_1model_1_1participant.html" target="_top" title="Base class for various types of sequence diagram participants" xlink:actuate="onRequest" xlink:href="structclanguml_1_1sequence__diagram_1_1model_1_1participant.html" xlink:show="new" xlink:title="Base class for various types of sequence diagram participants" xlink:type="simple"><g id="elem_C_0011201726182739961811"><rect codeLine="89" fill="#F1F1F1" height="48" id="C_0011201726182739961811" rx="2.5" ry="2.5" style="stroke:#181818;stroke-width:0.5;" width="108.0156" x="1003" y="635.2969"/><ellipse cx="1018" cy="651.2969" fill="#ADD1B2" rx="11" ry="11" style="stroke:#181818;stroke-width:1;"/><path d="M1020.9688,656.9375 Q1020.3906,657.2344 1019.75,657.375 Q1019.1094,657.5313 1018.4063,657.5313 Q1015.9063,657.5313 1014.5781,655.8906 Q1013.2656,654.2344 1013.2656,651.1094 Q1013.2656,647.9844 1014.5781,646.3281 Q1015.9063,644.6719 1018.4063,644.6719 Q1019.1094,644.6719 1019.75,644.8281 Q1020.4063,644.9844 1020.9688,645.2813 L1020.9688,648 Q1020.3438,647.4219 1019.75,647.1563 Q1019.1563,646.875 1018.5313,646.875 Q1017.1875,646.875 1016.5,647.9531 Q1015.8125,649.0156 1015.8125,651.1094 Q1015.8125,653.2031 1016.5,654.2813 Q1017.1875,655.3438 1018.5313,655.3438 Q1019.1563,655.3438 1019.75,655.0781 Q1020.3438,654.7969 1020.9688,654.2188 L1020.9688,656.9375 Z " fill="#000000"/><text fill="#000000" font-family="sans-serif" font-size="14" lengthAdjust="spacing" textLength="76.0156" x="1032" y="656.1436">participant</text><line style="stroke:#181818;stroke-width:0.5;" x1="1004" x2="1110.0156" y1="667.2969" y2="667.2969"/><line style="stroke:#181818;stroke-width:0.5;" x1="1004" x2="1110.0156" y1="675.2969" y2="675.2969"/></g></a><!--class C_0007084118972955772881--><a href="structclanguml_1_1sequence__diagram_1_1model_1_1class__.html" target="_top" title="Sequence diagram participant representing a class." xlink:actuate="onRequest" xlink:href="structclanguml_1_1sequence__diagram_1_1model_1_1class__.html" xlink:show="new" xlink:title="Sequence diagram participant representing a class." xlink:type="simple"><g id="elem_C_0007084118972955772881"><rect codeLine="93" fill="#F1F1F1" height="48" id="C_0007084118972955772881" rx="2.5" ry="2.5" style="stroke:#181818;stroke-width:0.5;" width="73.7539" x="1020" y="743.2969"/><ellipse cx="1035" cy="759.2969" fill="#ADD1B2" rx="11" ry="11" style="stroke:#181818;stroke-width:1;"/><path d="M1037.9688,764.9375 Q1037.3906,765.2344 1036.75,765.375 Q1036.1094,765.5313 1035.4063,765.5313 Q1032.9063,765.5313 1031.5781,763.8906 Q1030.2656,762.2344 1030.2656,759.1094 Q1030.2656,755.9844 1031.5781,754.3281 Q1032.9063,752.6719 1035.4063,752.6719 Q1036.1094,752.6719 1036.75,752.8281 Q1037.4063,752.9844 1037.9688,753.2813 L1037.9688,756 Q1037.3438,755.4219 1036.75,755.1563 Q1036.1563,754.875 1035.5313,754.875 Q1034.1875,754.875 1033.5,755.9531 Q1032.8125,757.0156 1032.8125,759.1094 Q1032.8125,761.2031 1033.5,762.2813 Q1034.1875,763.3438 1035.5313,763.3438 Q1036.1563,763.3438 1036.75,763.0781 Q1037.3438,762.7969 1037.9688,762.2188 L1037.9688,764.9375 Z " fill="#000000"/><text fill="#000000" font-family="sans-serif" font-size="14" lengthAdjust="spacing" textLength="41.7539" x="1049" y="764.1436">class_</text><line style="stroke:#181818;stroke-width:0.5;" x1="1021" x2="1092.7539" y1="775.2969" y2="775.2969"/><line style="stroke:#181818;stroke-width:0.5;" x1="1021" x2="1092.7539" y1="783.2969" y2="783.2969"/></g></a><!--class C_0001861107648253454629--><a href="structclanguml_1_1sequence__diagram_1_1model_1_1function.html" target="_top" title="Participant mode representing a free function." xlink:actuate="onRequest" xlink:href="structclanguml_1_1sequence__diagram_1_1model_1_1function.html" xlink:show="new" xlink:title="Participant mode representing a free function." xlink:type="simple"><g id="elem_C_0001861107648253454629"><rect codeLine="97" fill="#F1F1F1" height="48" id="C_0001861107648253454629" rx="2.5" ry="2.5" style="stroke:#181818;stroke-width:0.5;" width="89.1895" x="1134.5" y="743.2969"/><ellipse cx="1149.5" cy="759.2969" fill="#ADD1B2" rx="11" ry="11" style="stroke:#181818;stroke-width:1;"/><path d="M1152.4688,764.9375 Q1151.8906,765.2344 1151.25,765.375 Q1150.6094,765.5313 1149.9063,765.5313 Q1147.4063,765.5313 1146.0781,763.8906 Q1144.7656,762.2344 1144.7656,759.1094 Q1144.7656,755.9844 1146.0781,754.3281 Q1147.4063,752.6719 1149.9063,752.6719 Q1150.6094,752.6719 1151.25,752.8281 Q1151.9063,752.9844 1152.4688,753.2813 L1152.4688,756 Q1151.8438,755.4219 1151.25,755.1563 Q1150.6563,754.875 1150.0313,754.875 Q1148.6875,754.875 1148,755.9531 Q1147.3125,757.0156 1147.3125,759.1094 Q1147.3125,761.2031 1148,762.2813 Q1148.6875,763.3438 1150.0313,763.3438 Q1150.6563,763.3438 1151.25,763.0781 Q1151.8438,762.7969 1152.4688,762.2188 L1152.4688,764.9375 Z " fill="#000000"/><text fill="#000000" font-family="sans-serif" font-size="14" lengthAdjust="spacing" textLength="57.1895" x="1163.5" y="764.1436">function</text><line style="stroke:#181818;stroke-width:0.5;" x1="1135.5" x2="1222.6895" y1="775.2969" y2="775.2969"/><line style="stroke:#181818;stroke-width:0.5;" x1="1135.5" x2="1222.6895" y1="783.2969" y2="783.2969"/></g></a><!--class C_0006541327780382276039--><a href="structclanguml_1_1sequence__diagram_1_1model_1_1method.html" target="_top" title="Participant model representing a method" xlink:actuate="onRequest" xlink:href="structclanguml_1_1sequence__diagram_1_1model_1_1method.html" xlink:show="new" xlink:title="Participant model representing a method" xlink:type="simple"><g id="elem_C_0006541327780382276039"><rect codeLine="101" fill="#F1F1F1" height="48" id="C_0006541327780382276039" rx="2.5" ry="2.5" style="stroke:#181818;stroke-width:0.5;" width="86.0654" x="1003" y="851.2969"/><ellipse cx="1018" cy="867.2969" fill="#ADD1B2" rx="11" ry="11" style="stroke:#181818;stroke-width:1;"/><path d="M1020.9688,872.9375 Q1020.3906,873.2344 1019.75,873.375 Q1019.1094,873.5313 1018.4063,873.5313 Q1015.9063,873.5313 1014.5781,871.8906 Q1013.2656,870.2344 1013.2656,867.1094 Q1013.2656,863.9844 1014.5781,862.3281 Q1015.9063,860.6719 1018.4063,860.6719 Q1019.1094,860.6719 1019.75,860.8281 Q1020.4063,860.9844 1020.9688,861.2813 L1020.9688,864 Q1020.3438,863.4219 1019.75,863.1563 Q1019.1563,862.875 1018.5313,862.875 Q1017.1875,862.875 1016.5,863.9531 Q1015.8125,865.0156 1015.8125,867.1094 Q1015.8125,869.2031 1016.5,870.2813 Q1017.1875,871.3438 1018.5313,871.3438 Q1019.1563,871.3438 1019.75,871.0781 Q1020.3438,870.7969 1020.9688,870.2188 L1020.9688,872.9375 Z " fill="#000000"/><text fill="#000000" font-family="sans-serif" font-size="14" lengthAdjust="spacing" textLength="54.0654" x="1032" y="872.1436">method</text><line style="stroke:#181818;stroke-width:0.5;" x1="1004" x2="1088.0654" y1="883.2969" y2="883.2969"/><line style="stroke:#181818;stroke-width:0.5;" x1="1004" x2="1088.0654" y1="891.2969" y2="891.2969"/></g></a><!--class C_0013742559556936917396--><a href="structclanguml_1_1sequence__diagram_1_1model_1_1objc__method.html" target="_top" title="objc_method" xlink:actuate="onRequest" xlink:href="structclanguml_1_1sequence__diagram_1_1model_1_1objc__method.html" xlink:show="new" xlink:title="objc_method" xlink:type="simple"><g id="elem_C_0013742559556936917396"><rect codeLine="105" fill="#F1F1F1" height="48" id="C_0013742559556936917396" rx="2.5" ry="2.5" style="stroke:#181818;stroke-width:0.5;" width="122.1045" x="1124" y="851.2969"/><ellipse cx="1139" cy="867.2969" fill="#ADD1B2" rx="11" ry="11" style="stroke:#181818;stroke-width:1;"/><path d="M1141.9688,872.9375 Q1141.3906,873.2344 1140.75,873.375 Q1140.1094,873.5313 1139.4063,873.5313 Q1136.9063,873.5313 1135.5781,871.8906 Q1134.2656,870.2344 1134.2656,867.1094 Q1134.2656,863.9844 1135.5781,862.3281 Q1136.9063,860.6719 1139.4063,860.6719 Q1140.1094,860.6719 1140.75,860.8281 Q1141.4063,860.9844 1141.9688,861.2813 L1141.9688,864 Q1141.3438,863.4219 1140.75,863.1563 Q1140.1563,862.875 1139.5313,862.875 Q1138.1875,862.875 1137.5,863.9531 Q1136.8125,865.0156 1136.8125,867.1094 Q1136.8125,869.2031 1137.5,870.2813 Q1138.1875,871.3438 1139.5313,871.3438 Q1140.1563,871.3438 1140.75,871.0781 Q1141.3438,870.7969 1141.9688,870.2188 L1141.9688,872.9375 Z " fill="#000000"/><text fill="#000000" font-family="sans-serif" font-size="14" lengthAdjust="spacing" textLength="90.1045" x="1153" y="872.1436">objc_method</text><line style="stroke:#181818;stroke-width:0.5;" x1="1125" x2="1245.1045" y1="883.2969" y2="883.2969"/><line style="stroke:#181818;stroke-width:0.5;" x1="1125" x2="1245.1045" y1="891.2969" y2="891.2969"/></g></a><!--class C_0018241535739946484465--><a href="structclanguml_1_1sequence__diagram_1_1model_1_1function__template.html" target="_top" title="Participant model representing a function template." xlink:actuate="onRequest" xlink:href="structclanguml_1_1sequence__diagram_1_1model_1_1function__template.html" xlink:show="new" xlink:title="Participant model representing a function template." xlink:type="simple"><g id="elem_C_0018241535739946484465"><rect codeLine="109" fill="#F1F1F1" height="48" id="C_0018241535739946484465" rx="2.5" ry="2.5" style="stroke:#181818;stroke-width:0.5;" width="159.3877" x="1281.5" y="851.2969"/><ellipse cx="1296.5" cy="867.2969" fill="#ADD1B2" rx="11" ry="11" style="stroke:#181818;stroke-width:1;"/><path d="M1299.4688,872.9375 Q1298.8906,873.2344 1298.25,873.375 Q1297.6094,873.5313 1296.9063,873.5313 Q1294.4063,873.5313 1293.0781,871.8906 Q1291.7656,870.2344 1291.7656,867.1094 Q1291.7656,863.9844 1293.0781,862.3281 Q1294.4063,860.6719 1296.9063,860.6719 Q1297.6094,860.6719 1298.25,860.8281 Q1298.9063,860.9844 1299.4688,861.2813 L1299.4688,864 Q1298.8438,863.4219 1298.25,863.1563 Q1297.6563,862.875 1297.0313,862.875 Q1295.6875,862.875 1295,863.9531 Q1294.3125,865.0156 1294.3125,867.1094 Q1294.3125,869.2031 1295,870.2813 Q1295.6875,871.3438 1297.0313,871.3438 Q1297.6563,871.3438 1298.25,871.0781 Q1298.8438,870.7969 1299.4688,870.2188 L1299.4688,872.9375 Z " fill="#000000"/><text fill="#000000" font-family="sans-serif" font-size="14" lengthAdjust="spacing" textLength="127.3877" x="1310.5" y="872.1436">function_template</text><line style="stroke:#181818;stroke-width:0.5;" x1="1282.5" x2="1439.8877" y1="883.2969" y2="883.2969"/><line style="stroke:#181818;stroke-width:0.5;" x1="1282.5" x2="1439.8877" y1="891.2969" y2="891.2969"/></g></a><!--class C_0017829224549649886549--><a href="classclanguml_1_1sequence__diagram_1_1model_1_1message.html" target="_top" title="Model of a sequence diagram message." xlink:actuate="onRequest" xlink:href="classclanguml_1_1sequence__diagram_1_1model_1_1message.html" xlink:show="new" xlink:title="Model of a sequence diagram message." xlink:type="simple"><g id="elem_C_0017829224549649886549"><rect codeLine="113" fill="#F1F1F1" height="48" id="C_0017829224549649886549" rx="2.5" ry="2.5" style="stroke:#181818;stroke-width:0.5;" width="94.918" x="1146.5" y="635.2969"/><ellipse cx="1161.5" cy="651.2969" fill="#ADD1B2" rx="11" ry="11" style="stroke:#181818;stroke-width:1;"/><path d="M1164.4688,656.9375 Q1163.8906,657.2344 1163.25,657.375 Q1162.6094,657.5313 1161.9063,657.5313 Q1159.4063,657.5313 1158.0781,655.8906 Q1156.7656,654.2344 1156.7656,651.1094 Q1156.7656,647.9844 1158.0781,646.3281 Q1159.4063,644.6719 1161.9063,644.6719 Q1162.6094,644.6719 1163.25,644.8281 Q1163.9063,644.9844 1164.4688,645.2813 L1164.4688,648 Q1163.8438,647.4219 1163.25,647.1563 Q1162.6563,646.875 1162.0313,646.875 Q1160.6875,646.875 1160,647.9531 Q1159.3125,649.0156 1159.3125,651.1094 Q1159.3125,653.2031 1160,654.2813 Q1160.6875,655.3438 1162.0313,655.3438 Q1162.6563,655.3438 1163.25,655.0781 Q1163.8438,654.7969 1164.4688,654.2188 L1164.4688,656.9375 Z " fill="#000000"/><text fill="#000000" font-family="sans-serif" font-size="14" lengthAdjust="spacing" textLength="62.918" x="1175.5" y="656.1436">message</text><line style="stroke:#181818;stroke-width:0.5;" x1="1147.5" x2="1240.418" y1="667.2969" y2="667.2969"/><line style="stroke:#181818;stroke-width:0.5;" x1="1147.5" x2="1240.418" y1="675.2969" y2="675.2969"/></g></a><!--reverse link C_0008936819060997384951 to C_0016370694070378943411--><g id="link_C_0008936819060997384951_C_0016370694070378943411"><path codeLine="118" d="M713.0736,186.7791 C708.7436,204.4391 707.07,211.2369 702.72,228.9769 " fill="transparent" id="C_0008936819060997384951-backto-C_0016370694070378943411" style="stroke:#181818;stroke-width:1;"/><polygon fill="transparent" points="717.36,169.2969,707.2462,185.3503,718.901,188.2079,717.36,169.2969" style="stroke:#181818;stroke-width:1;"/></g><!--reverse link C_0008936819060997384951 to C_0008588005715032923314--><g id="link_C_0008936819060997384951_C_0008588005715032923314"><path codeLine="119" d="M768.7437,179.9707 C792.7237,197.6307 811.22,211.2369 835.32,228.9769 " fill="transparent" id="C_0008936819060997384951-backto-C_0008588005715032923314" style="stroke:#181818;stroke-width:1;"/><polygon fill="transparent" points="754.25,169.2969,765.1858,184.802,772.3017,175.1395,754.25,169.2969" style="stroke:#181818;stroke-width:1;"/></g><!--reverse link C_0008588005715032923314 to C_0016556163051475263500--><g id="link_C_0008588005715032923314_C_0016556163051475263500"><path codeLine="120" d="M824.3256,288.5678 C802.3356,306.2278 786.13,319.2369 764.04,336.9769 " fill="transparent" id="C_0008588005715032923314-backto-C_0016556163051475263500" style="stroke:#181818;stroke-width:1;"/><polygon fill="transparent" points="838.36,277.2969,820.5686,283.8897,828.0825,293.246,838.36,277.2969" style="stroke:#181818;stroke-width:1;"/></g><!--reverse link C_0016556163051475263500 to C_0013384831159811298387--><g id="link_C_0016556163051475263500_C_0013384831159811298387"><path codeLine="121" d="M736.1594,403.2897 C736.6594,420.9497 736.84,427.2369 737.34,444.9769 " fill="transparent" id="C_0016556163051475263500-backto-C_0013384831159811298387" style="stroke:#181818;stroke-width:1;"/><polygon fill="transparent" points="735.65,385.2969,730.1618,403.4595,742.157,403.1199,735.65,385.2969" style="stroke:#181818;stroke-width:1;"/></g><!--reverse link C_0008588005715032923314 to C_0006285717704576425038--><g id="link_C_0008588005715032923314_C_0006285717704576425038"><path codeLine="122" d="M867.7765,295.2935 C868.1165,312.9535 868.23,319.2369 868.56,336.9769 " fill="transparent" id="C_0008588005715032923314-backto-C_0006285717704576425038" style="stroke:#181818;stroke-width:1;"/><polygon fill="transparent" points="867.43,277.2969,861.7776,295.409,873.7754,295.178,867.43,277.2969" style="stroke:#181818;stroke-width:1;"/></g><!--reverse link C_0016556163051475263500 to C_0017146293478645494837--><g id="link_C_0016556163051475263500_C_0017146293478645494837"><path codeLine="123" d="M785.7063,395.0692 C813.1163,412.7892 835.73,427.4069 863.2,445.1569 " fill="transparent" id="C_0016556163051475263500-backto-C_0017146293478645494837" style="stroke:#181818;stroke-width:1;"/><polygon fill="transparent" points="770.59,385.2969,782.4488,400.108,788.9637,390.0305,770.59,385.2969" style="stroke:#181818;stroke-width:1;"/></g><!--reverse link C_0008936819060997384951 to C_0004846934894930864299--><g id="link_C_0008936819060997384951_C_0004846934894930864299"><path codeLine="124" d="M657.8044,177.3747 C626.7544,192.7747 602.44,206.3669 569,229.2969 C388.58,353.0069 345.22,390.2669 195,549.2969 C169.03,576.7869 143.3,612.1769 127.53,635.0469 " fill="transparent" id="C_0008936819060997384951-backto-C_0004846934894930864299" style="stroke:#181818;stroke-width:1;"/><polygon fill="transparent" points="673.93,169.3769,655.1385,171.9996,660.4704,182.7499,673.93,169.3769" style="stroke:#181818;stroke-width:1;"/></g><!--reverse link C_0004846934894930864299 to C_0014241292626575163322--><g id="link_C_0004846934894930864299_C_0014241292626575163322"><path codeLine="125" d="M120.0497,700.9554 C123.5397,718.6154 124.87,725.2369 128.38,742.9769 " fill="transparent" id="C_0004846934894930864299-backto-C_0014241292626575163322" style="stroke:#181818;stroke-width:1;"/><polygon fill="transparent" points="116.56,683.2969,114.1635,702.1186,125.9359,699.7921,116.56,683.2969" style="stroke:#181818;stroke-width:1;"/></g><!--reverse link C_0014241292626575163322 to C_0014370262096868218046--><g id="link_C_0014241292626575163322_C_0014370262096868218046"><path codeLine="126" d="M125.3247,808.9852 C121.9947,826.6452 120.75,833.2369 117.4,850.9769 " fill="transparent" id="C_0014241292626575163322-backto-C_0014370262096868218046" style="stroke:#181818;stroke-width:1;"/><polygon fill="transparent" points="128.66,791.2969,119.4286,807.8734,131.2208,810.0969,128.66,791.2969" style="stroke:#181818;stroke-width:1;"/></g><!--reverse link C_0008936819060997384951 to C_0004845352266951408403--><g id="link_C_0008936819060997384951_C_0004845352266951408403"><path codeLine="127" d="M676.5525,180.4929 C655.8425,196.2429 643.25,207.2269 622,229.2969 C486.09,370.4869 354.3,567.8969 310.91,634.9469 " fill="transparent" id="C_0008936819060997384951-backto-C_0004845352266951408403" style="stroke:#181818;stroke-width:1;"/><polygon fill="transparent" points="690.88,169.5969,672.9205,175.7171,680.1846,185.2688,690.88,169.5969" style="stroke:#181818;stroke-width:1;"/></g><!--reverse link C_0004846934894930864299 to C_0018032026899693266441--><g id="link_C_0004846934894930864299_C_0018032026899693266441"><path codeLine="128" d="M194.9229,687.0161 C250.3329,704.8661 312.33,724.8369 369.34,743.2069 " fill="transparent" id="C_0004846934894930864299-backto-C_0018032026899693266441" style="stroke:#181818;stroke-width:1;"/><polygon fill="transparent" points="177.79,681.4969,193.0832,692.7271,196.7627,681.3052,177.79,681.4969" style="stroke:#181818;stroke-width:1;"/></g><!--reverse link C_0018032026899693266441 to C_0001633165731746789371--><g id="link_C_0018032026899693266441_C_0001633165731746789371"><path codeLine="129" d="M441,809.2969 C441,826.9569 441,833.2369 441,850.9769 " fill="transparent" id="C_0018032026899693266441-backto-C_0001633165731746789371" style="stroke:#181818;stroke-width:1;"/><polygon fill="transparent" points="441,791.2969,435,809.2969,447,809.2969,441,791.2969" style="stroke:#181818;stroke-width:1;"/></g><!--reverse link C_0013384831159811298387 to C_0010336274859733225462--><g id="link_C_0013384831159811298387_C_0010336274859733225462"><path codeLine="130" d="M773.4733,506.6493 C787.7433,521.7493 793.47,529.2069 807,549.2969 C825.82,577.2569 842.48,612.5269 852.4,635.2469 " fill="transparent" id="C_0013384831159811298387-backto-C_0010336274859733225462" style="stroke:#181818;stroke-width:1;"/><polygon fill="transparent" points="761.11,493.5669,769.1125,510.7704,777.8341,502.5282,761.11,493.5669" style="stroke:#181818;stroke-width:1;"/></g><!--reverse link C_0013384831159811298387 to C_0010998792414017796003--><g id="link_C_0013384831159811298387_C_0010998792414017796003"><path codeLine="131" d="M738.8741,511.3428 C739.6441,547.4228 740.74,598.8569 741.51,635.0569 " fill="transparent" id="C_0013384831159811298387-backto-C_0010998792414017796003" style="stroke:#181818;stroke-width:1;"/><polygon fill="transparent" points="738.49,493.3469,732.8754,511.4708,744.8727,511.2148,738.49,493.3469" style="stroke:#181818;stroke-width:1;"/></g><!--reverse link C_0016556163051475263500 to C_0005795143816749204050--><g id="link_C_0016556163051475263500_C_0005795143816749204050"><path codeLine="132" d="M674.0403,393.1397 C646.0203,408.1797 625.99,421.1269 598,445.2969 C533.3,501.1669 484.82,592.6369 464.5,635.1869 " fill="transparent" id="C_0016556163051475263500-backto-C_0005795143816749204050" style="stroke:#181818;stroke-width:1;"/><polygon fill="transparent" points="689.9,384.6269,671.2026,387.8532,676.8779,398.4263,689.9,384.6269" style="stroke:#181818;stroke-width:1;"/></g><!--reverse link C_0014241292626575163322 to C_0007364672229966928495--><g id="link_C_0014241292626575163322_C_0007364672229966928495"><path codeLine="133" d="M178.9913,801.9196 C203.2313,819.6396 222.06,833.4069 246.35,851.1569 " fill="transparent" id="C_0014241292626575163322-backto-C_0007364672229966928495" style="stroke:#181818;stroke-width:1;"/><polygon fill="transparent" points="164.46,791.2969,175.4504,806.7633,182.5322,797.0758,164.46,791.2969" style="stroke:#181818;stroke-width:1;"/></g><!--reverse link C_0018032026899693266441 to C_0002175636676684225778--><g id="link_C_0018032026899693266441_C_0002175636676684225778"><path codeLine="134" d="M490.7245,801.24 C517.4645,818.96 539.28,833.4069 566.07,851.1569 " fill="transparent" id="C_0018032026899693266441-backto-C_0002175636676684225778" style="stroke:#181818;stroke-width:1;"/><polygon fill="transparent" points="475.72,791.2969,487.4101,806.2415,494.0388,796.2385,475.72,791.2969" style="stroke:#181818;stroke-width:1;"/></g><!--reverse link C_0016556163051475263500 to C_0010166346108406727066--><g id="link_C_0016556163051475263500_C_0010166346108406727066"><path codeLine="135" d="M684.5752,396.1193 C664.5152,410.8893 655.25,421.0969 641,445.2969 C604.58,507.1269 596.32,594.1369 594.49,635.1669 " fill="transparent" id="C_0016556163051475263500-backto-C_0010166346108406727066" style="stroke:#181818;stroke-width:1;"/><polygon fill="transparent" points="699.07,385.4469,681.0177,391.2877,688.1327,400.9509,699.07,385.4469" style="stroke:#181818;stroke-width:1;"/></g><!--reverse link C_0013384831159811298387 to C_0011201726182739961811--><g id="link_C_0013384831159811298387_C_0011201726182739961811"><path codeLine="136" d="M775.5421,505.2177 C794.1621,521.5777 807.92,530.6069 836,541.2969 C868.98,553.8569 882.2,536.2769 915,549.2969 C963.24,568.4369 1008.97,608.9969 1034.94,634.8769 " fill="transparent" id="C_0013384831159811298387-backto-C_0011201726182739961811" style="stroke:#181818;stroke-width:1;"/><polygon fill="transparent" points="762.02,493.3369,771.5818,509.725,779.5023,500.7103,762.02,493.3369" style="stroke:#181818;stroke-width:1;"/></g><!--reverse link C_0011201726182739961811 to C_0007084118972955772881--><g id="link_C_0011201726182739961811_C_0007084118972955772881"><path codeLine="137" d="M1057,701.2969 C1057,718.9569 1057,725.2369 1057,742.9769 " fill="transparent" id="C_0011201726182739961811-backto-C_0007084118972955772881" style="stroke:#181818;stroke-width:1;"/><polygon fill="transparent" points="1057,683.2969,1051,701.2969,1063,701.2969,1057,683.2969" style="stroke:#181818;stroke-width:1;"/></g><!--reverse link C_0011201726182739961811 to C_0001861107648253454629--><g id="link_C_0011201726182739961811_C_0001861107648253454629"><path codeLine="138" d="M1097.0589,695.1011 C1117.3889,712.7611 1131.74,725.2369 1152.16,742.9769 " fill="transparent" id="C_0011201726182739961811-backto-C_0001861107648253454629" style="stroke:#181818;stroke-width:1;"/><polygon fill="transparent" points="1083.47,683.2969,1093.1242,699.6308,1100.9937,690.5715,1083.47,683.2969" style="stroke:#181818;stroke-width:1;"/></g><!--reverse link C_0001861107648253454629 to C_0006541327780382276039--><g id="link_C_0001861107648253454629_C_0006541327780382276039"><path codeLine="139" d="M1136.0658,802.5181 C1113.9158,820.1781 1097.52,833.2369 1075.26,850.9769 " fill="transparent" id="C_0001861107648253454629-backto-C_0006541327780382276039" style="stroke:#181818;stroke-width:1;"/><polygon fill="transparent" points="1150.14,791.2969,1132.3254,797.8267,1139.8062,807.2095,1150.14,791.2969" style="stroke:#181818;stroke-width:1;"/></g><!--reverse link C_0001861107648253454629 to C_0013742559556936917396--><g id="link_C_0001861107648253454629_C_0013742559556936917396"><path codeLine="140" d="M1181.3176,809.2681 C1182.3176,826.9281 1182.68,833.2369 1183.68,850.9769 " fill="transparent" id="C_0001861107648253454629-backto-C_0013742559556936917396" style="stroke:#181818;stroke-width:1;"/><polygon fill="transparent" points="1180.3,791.2969,1175.3272,809.6073,1187.308,808.9289,1180.3,791.2969" style="stroke:#181818;stroke-width:1;"/></g><!--reverse link C_0001861107648253454629 to C_0018241535739946484465--><g id="link_C_0001861107648253454629_C_0018241535739946484465"><path codeLine="141" d="M1234.0436,800.357 C1264.4636,818.077 1290.79,833.4069 1321.27,851.1569 " fill="transparent" id="C_0001861107648253454629-backto-C_0018241535739946484465" style="stroke:#181818;stroke-width:1;"/><polygon fill="transparent" points="1218.49,791.2969,1231.0235,805.5415,1237.0636,795.1725,1218.49,791.2969" style="stroke:#181818;stroke-width:1;"/></g><!--reverse link C_0008588005715032923314 to C_0017829224549649886549--><g id="link_C_0008588005715032923314_C_0017829224549649886549"><path codeLine="142" d="M903.0547,290.2279 C950.9347,338.3579 1049.69,440.9669 1129,549.2969 C1149.56,577.3869 1169.5,612.3269 1181.76,634.9569 " fill="transparent" id="C_0008588005715032923314-backto-C_0017829224549649886549" style="stroke:#181818;stroke-width:1;"/><polygon fill="transparent" points="890.36,277.4669,898.8011,294.4595,907.3084,285.9963,890.36,277.4669" style="stroke:#181818;stroke-width:1;"/></g><!--SRC=[hLbBRzj64BxxLonoIOBKmhwu3w2dEa0l2LgWQ2-6GT3Koc8gaWf9fJ3I_FSEN-9I74gqN1Wm2C_kpZUF_MPcNINLpf6FBiwBg79hiawYfo9AYTkvr6KLYNTHMP9juegeYBVFD_ie_ZjwSkG-pjCqpnv8L9Axa5BA0y6Df5nRePWsZ1bDlW_BqtpjTiDggfJLMig0IIaPvIeGiBfLzcRTemax56-E-moSRfYbYbghXP4sODskEJ6vlsyMmA_iwP3kGXQo5dlzrS2gFmQTlTBLjafttt-9IjSvOPCNP3tdgFB7mmDO48OtFtep2hUBgYJFocsoFrh0bD1KMKar5TfOAIJpBS342otmrRNOxvfZ2xSlN0aGa-o9HDapyHUIlDgwWbJRA2D91fz95MMncnhJcOj49326qa2pW0fkkH1CZY8o5I-DIAVnR3nAWBkETddc9W5PJOqu1SzK42XmEOKqr05N8g1q58ofU27uSvZh6FJNw-iXsYMR1FBfyPbaKUfAk34EWLwvT0zXSvC0C05vRWHZWOLBnwqHHlis8EA5DXnLXl-xDML-A68NRfAT6p99SGDveZMLWLQIGy8OFvCGyK93EcsDkjQ6ZoSiDxeZPPuwKgybzOLF2XTNUV6CMD6Hsn0ApQJYLaXjb0oa1R-FGe685rhGQLe0_kZr4NZI7U3PKFyCP5vZ2BiRz33OOpda3pZUAYOCbIO8pd0w14TP2_bbuRPBe6351qvlDKpOGngfm2F0T5PGS0ktreyv8aOzrXpUunzvhXETo-3sgwSDyiwjdbOaTUaZ42E8KrTjy_Lx9FxjsUtAy14E7J91SWcNZIieR3e02X6S-vc0YA-pgrFUQ6-D-zLbmE9nPrLdHhFjWWKUUAX1W0q2Q9JX30AlHk2dujU0zslL1RXjAC9z10UwoeDS9qeW0iwXhG2ofj28Y9CyEXM_47AdUj3TmlvSoqc-8L6N9sHOCE_kvgXnmXWeZ-1LOoqaFE24hiZtEIA-rkUj7KF2z9vlq5zAb7hHuFKwSw58Qi6qLD2k23tgnX3nQq2_6ExWNLgpc0R-WguGxXgmq-Ww8kBhW2uWwAYxcKVYwSiiPaOElTY-yWsn5lWLs4C2Eskhw2ZFCV5B3UbKXYVvVVVX0-baM6EL7T819RHxzJKJXYajBQUI1dvRXObVYBBHjyZR6QdN8f3pno_nAVDHBHHaAkTGPu0gU3r0-C0HyGk1Drf7nFVRuvUxPMJT8HvVGSvqe8HIMYaZ8NMr7ZLDYFXAnCCD724-UmsRlKa6PBY1ZiJBOgQKa8hLH0p-X8bdL60GyLMWZvgN9KfZrx1dhbSgtTU3WuimRPV0sTB21Cp1spMd0EFDjqlGB0LG_2rKJ-W66OD1pmpj4bIHAecJVUHt-ep3BgwOuLf01Z8p7XqHCRYjh8f3NFb-Eng0kixJZ7PBtw8YoGz0MyzxLzRCq1zt7C2y4ygBr0o3hgbDjvfRy8Vcneng22A-mgWHFVzn1Z3ArKXcRmvPNC_GNYqqYZ4AaudXWP1r2HbrieZu2ZjwjQqXltkuwoMdu3U5Wq6ctpBNJda3M22Pu40HC5fnI68gHYOWuYjCy9dar83TgGNjucLKo8I6gJ20D84MILa6bs34AeZu2lXJElImpET9s5Tvh-E3CWrDQNrN9QI5b2eOTNnJyIiI9Zm2MEZvVkEvzWGcpN8y_neOQdWzsoffZO64iQFvToh6UFrI_ZHA9-ttX8RwXISyFljE-FE_jxVpJtINjw4lORDlO9usv0rgzlLfs8Oz-rpMXZwoBD26lMmiS0astiyEzeCsR7gUdPkzRSZSkWpaP7PS01ARs6PdjK4RDZFDFjGDsh09PiasP5wu76wqWRyS0BHzNk0Ih8TTa9DO5xd09LWNDTi_UROXVSg2RLXRCDiGUDSKASMNjw4bSC4sh1GjO2wCxc_UDWzGpRz8_acgBMcO_HQe_IVopHLbNLBeIgtOpTjFd_xwVFpRdu-7h3gqguz_P7R5LeoyOuT6ojx_1m00]--></g></svg>