<svg xmlns="http://www.w3.org/2000/svg" xmlns:xlink="http://www.w3.org/1999/xlink" contentStyleType="text/css" data-diagram-type="CLASS" height="501px" preserveAspectRatio="none" style="width:3142px;height:501px;background:#FFFFFF;" version="1.1" viewBox="0 0 3142 501" width="3142px" zoomAndPan="magnify"><title>Diagram element decorators model</title><defs/><g><text fill="#000000" font-family="sans-serif" font-size="14" font-weight="bold" lengthAdjust="spacing" textLength="279.8359" x="1424.5327" y="22.9951">Diagram element decorators model</text><!--class C_0000532301235174338361--><a href="structclanguml_1_1decorators_1_1decorator__toks.html" target="_top" title="decorator_toks" xlink:actuate="onRequest" xlink:href="structclanguml_1_1decorators_1_1decorator__toks.html" xlink:show="new" xlink:title="decorator_toks" xlink:type="simple"><g id="elem_C_0000532301235174338361"><rect codeLine="3" fill="#F1F1F1" height="113.1875" id="C_0000532301235174338361" rx="2.5" ry="2.5" style="stroke:#181818;stroke-width:0.5;" width="275.3887" x="7" y="241.2969"/><ellipse cx="88.2622" cy="257.2969" fill="#ADD1B2" rx="11" ry="11" style="stroke:#181818;stroke-width:1;"/><path d="M91.231,262.9375 Q90.6528,263.2344 90.0122,263.375 Q89.3716,263.5313 88.6685,263.5313 Q86.1685,263.5313 84.8403,261.8906 Q83.5278,260.2344 83.5278,257.1094 Q83.5278,253.9844 84.8403,252.3281 Q86.1685,250.6719 88.6685,250.6719 Q89.3716,250.6719 90.0122,250.8281 Q90.6685,250.9844 91.231,251.2813 L91.231,254 Q90.606,253.4219 90.0122,253.1563 Q89.4185,252.875 88.7935,252.875 Q87.4497,252.875 86.7622,253.9531 Q86.0747,255.0156 86.0747,257.1094 Q86.0747,259.2031 86.7622,260.2813 Q87.4497,261.3438 88.7935,261.3438 Q89.4185,261.3438 90.0122,261.0781 Q90.606,260.7969 91.231,260.2188 L91.231,262.9375 Z " fill="#000000"/><text fill="#000000" font-family="sans-serif" font-size="14" lengthAdjust="spacing" textLength="104.3643" x="108.7622" y="262.1436">decorator_toks</text><line style="stroke:#181818;stroke-width:0.5;" x1="8" x2="281.3887" y1="273.2969" y2="273.2969"/><line style="stroke:#181818;stroke-width:0.5;" x1="8" x2="281.3887" y1="281.2969" y2="281.2969"/></g><a href="" target="_top" title="diagrams" xlink:actuate="onRequest" xlink:href="" xlink:show="new" xlink:title="diagrams" xlink:type="simple"><rect fill="#F1F1F1" height="10" style="stroke:transparent;stroke-width:1;" width="20" x="13" y="289.9453"/><ellipse cx="18" cy="294.9453" fill="transparent" rx="3" ry="3" style="stroke:#038048;stroke-width:1;"/></a></a><a href="" target="_top" title="diagrams" xlink:actuate="onRequest" xlink:href="" xlink:show="new" xlink:title="diagrams" xlink:type="simple"><text fill="#000000" font-family="sans-serif" font-size="14" lengthAdjust="spacing" textLength="249.3887" x="27" y="298.292">diagrams : std::vector&lt;std::string&gt;</text></a><a href="" target="_top" title="label" xlink:actuate="onRequest" xlink:href="" xlink:show="new" xlink:title="label" xlink:type="simple"><rect fill="#F1F1F1" height="10" style="stroke:transparent;stroke-width:1;" width="20" x="13" y="306.2422"/><ellipse cx="18" cy="311.2422" fill="transparent" rx="3" ry="3" style="stroke:#038048;stroke-width:1;"/></a><a href="" target="_top" title="label" xlink:actuate="onRequest" xlink:href="" xlink:show="new" xlink:title="label" xlink:type="simple"><text fill="#000000" font-family="sans-serif" font-size="14" lengthAdjust="spacing" textLength="118.7676" x="27" y="314.5889">label : std::string</text></a><a href="" target="_top" title="param" xlink:actuate="onRequest" xlink:href="" xlink:show="new" xlink:title="param" xlink:type="simple"><rect fill="#F1F1F1" height="10" style="stroke:transparent;stroke-width:1;" width="20" x="13" y="322.5391"/><ellipse cx="18" cy="327.5391" fill="transparent" rx="3" ry="3" style="stroke:#038048;stroke-width:1;"/></a><a href="" target="_top" title="param" xlink:actuate="onRequest" xlink:href="" xlink:show="new" xlink:title="param" xlink:type="simple"><text fill="#000000" font-family="sans-serif" font-size="14" lengthAdjust="spacing" textLength="130.3477" x="27" y="330.8857">param : std::string</text></a><a href="" target="_top" title="text" xlink:actuate="onRequest" xlink:href="" xlink:show="new" xlink:title="text" xlink:type="simple"><rect fill="#F1F1F1" height="10" style="stroke:transparent;stroke-width:1;" width="20" x="13" y="338.8359"/><ellipse cx="18" cy="343.8359" fill="transparent" rx="3" ry="3" style="stroke:#038048;stroke-width:1;"/></a><a href="" target="_top" title="text" xlink:actuate="onRequest" xlink:href="" xlink:show="new" xlink:title="text" xlink:type="simple"><text fill="#000000" font-family="sans-serif" font-size="14" lengthAdjust="spacing" textLength="112.7861" x="27" y="347.1826">text : std::string</text></a><!--class C_0001039481254924641333--><a href="structclanguml_1_1decorators_1_1decorator.html" target="_top" title="Base class for clang-uml comment tags" xlink:actuate="onRequest" xlink:href="structclanguml_1_1decorators_1_1decorator.html" xlink:show="new" xlink:title="Base class for clang-uml comment tags" xlink:type="simple"><g id="elem_C_0001039481254924641333"><rect codeLine="11" fill="#F1F1F1" height="137.4844" id="C_0001039481254924641333" rx="2.5" ry="2.5" style="stroke:#181818;stroke-width:0.5;" width="513.3203" x="1744" y="44.2969"/><ellipse cx="1962.4561" cy="60.2969" fill="#ADD1B2" rx="11" ry="11" style="stroke:#181818;stroke-width:1;"/><path d="M1965.4248,65.9375 Q1964.8467,66.2344 1964.2061,66.375 Q1963.5654,66.5313 1962.8623,66.5313 Q1960.3623,66.5313 1959.0342,64.8906 Q1957.7217,63.2344 1957.7217,60.1094 Q1957.7217,56.9844 1959.0342,55.3281 Q1960.3623,53.6719 1962.8623,53.6719 Q1963.5654,53.6719 1964.2061,53.8281 Q1964.8623,53.9844 1965.4248,54.2813 L1965.4248,57 Q1964.7998,56.4219 1964.2061,56.1563 Q1963.6123,55.875 1962.9873,55.875 Q1961.6436,55.875 1960.9561,56.9531 Q1960.2686,58.0156 1960.2686,60.1094 Q1960.2686,62.2031 1960.9561,63.2813 Q1961.6436,64.3438 1962.9873,64.3438 Q1963.6123,64.3438 1964.2061,64.0781 Q1964.7998,63.7969 1965.4248,63.2188 L1965.4248,65.9375 Z " fill="#000000"/><text fill="#000000" font-family="sans-serif" font-size="14" lengthAdjust="spacing" textLength="67.9082" x="1982.9561" y="65.1436">decorator</text><line style="stroke:#181818;stroke-width:0.5;" x1="1745" x2="2256.3203" y1="76.2969" y2="76.2969"/></g><a href="" target="_top" title="~decorator" xlink:actuate="onRequest" xlink:href="" xlink:show="new" xlink:title="~decorator" xlink:type="simple"><rect fill="#F1F1F1" height="10" style="stroke:transparent;stroke-width:1;" width="20" x="1750" y="84.9453"/><ellipse cx="1755" cy="89.9453" fill="#84BE84" rx="3" ry="3" style="stroke:#038048;stroke-width:1;"/></a></a><a href="" target="_top" title="~decorator" xlink:actuate="onRequest" xlink:href="" xlink:show="new" xlink:title="~decorator" xlink:type="simple"><text fill="#000000" font-family="sans-serif" font-size="14" lengthAdjust="spacing" textLength="203.6973" x="1764" y="93.292">~decorator() = default : void</text></a><line style="stroke:#181818;stroke-width:1;stroke-dasharray:1.0,2.0;" x1="1745" x2="2256.3203" y1="100.5938" y2="100.5938"/><a href="" target="_top" title="Check if decorator applies to a specific diagram." xlink:actuate="onRequest" xlink:href="" xlink:show="new" xlink:title="Check if decorator applies to a specific diagram." xlink:type="simple"><rect fill="#F1F1F1" height="10" style="stroke:transparent;stroke-width:1;" width="20" x="1750" y="109.2422"/><ellipse cx="1755" cy="114.2422" fill="#84BE84" rx="3" ry="3" style="stroke:#038048;stroke-width:1;"/></a><a href="" target="_top" title="Check if decorator applies to a specific diagram." xlink:actuate="onRequest" xlink:href="" xlink:show="new" xlink:title="Check if decorator applies to a specific diagram." xlink:type="simple"><text fill="#000000" font-family="sans-serif" font-size="14" lengthAdjust="spacing" textLength="363.9385" x="1764" y="117.5889">applies_to_diagram(const std::string &amp; name) : bool</text></a><a href="" target="_top" title="Create decorator of specific type based on it's string         representation." xlink:actuate="onRequest" xlink:href="" xlink:show="new" xlink:title="Create decorator of specific type based on it's string         representation." xlink:type="simple"><rect fill="#F1F1F1" height="10" style="stroke:transparent;stroke-width:1;" width="20" x="1750" y="125.5391"/><ellipse cx="1755" cy="130.5391" fill="#84BE84" rx="3" ry="3" style="stroke:#038048;stroke-width:1;"/></a><a href="" target="_top" title="Create decorator of specific type based on it's string         representation." xlink:actuate="onRequest" xlink:href="" xlink:show="new" xlink:title="Create decorator of specific type based on it's string         representation." xlink:type="simple"><text fill="#000000" font-family="sans-serif" font-size="14" lengthAdjust="spacing" text-decoration="underline" textLength="424.9014" x="1764" y="133.8857">from_string(std::string_view c) : std::shared_ptr&lt;decorator&gt;</text></a><a href="" target="_top" title="tokenize" xlink:actuate="onRequest" xlink:href="" xlink:show="new" xlink:title="tokenize" xlink:type="simple"><rect fill="#F1F1F1" height="10" style="stroke:transparent;stroke-width:1;" width="20" x="1750" y="141.8359"/><polygon fill="#FFFF44" points="1755,141.8359,1759,145.8359,1755,149.8359,1751,145.8359" style="stroke:#B38D22;stroke-width:1;"/></a><a href="" target="_top" title="tokenize" xlink:actuate="onRequest" xlink:href="" xlink:show="new" xlink:title="tokenize" xlink:type="simple"><text fill="#000000" font-family="sans-serif" font-size="14" lengthAdjust="spacing" textLength="487.3203" x="1764" y="150.1826">tokenize(const std::string &amp; label, std::string_view c) : decorator_toks</text></a><line style="stroke:#181818;stroke-width:0.5;" x1="1745" x2="2256.3203" y1="157.4844" y2="157.4844"/><a href="" target="_top" title="diagrams" xlink:actuate="onRequest" xlink:href="" xlink:show="new" xlink:title="diagrams" xlink:type="simple"><rect fill="#F1F1F1" height="10" style="stroke:transparent;stroke-width:1;" width="20" x="1750" y="166.1328"/><ellipse cx="1755" cy="171.1328" fill="transparent" rx="3" ry="3" style="stroke:#038048;stroke-width:1;"/></a><a href="" target="_top" title="diagrams" xlink:actuate="onRequest" xlink:href="" xlink:show="new" xlink:title="diagrams" xlink:type="simple"><text fill="#000000" font-family="sans-serif" font-size="14" lengthAdjust="spacing" textLength="249.3887" x="1764" y="174.4795">diagrams : std::vector&lt;std::string&gt;</text></a><!--class C_0001347272482812804274--><a href="structclanguml_1_1decorators_1_1note.html" target="_top" title="Represents a note diagram element" xlink:actuate="onRequest" xlink:href="structclanguml_1_1decorators_1_1note.html" xlink:show="new" xlink:title="Represents a note diagram element" xlink:type="simple"><g id="elem_C_0001347272482812804274"><rect codeLine="21" fill="#F1F1F1" height="113.1875" id="C_0001347272482812804274" rx="2.5" ry="2.5" style="stroke:#181818;stroke-width:0.5;" width="450.9014" x="317" y="241.2969"/><ellipse cx="522.4302" cy="257.2969" fill="#ADD1B2" rx="11" ry="11" style="stroke:#181818;stroke-width:1;"/><path d="M525.3989,262.9375 Q524.8208,263.2344 524.1802,263.375 Q523.5396,263.5313 522.8364,263.5313 Q520.3364,263.5313 519.0083,261.8906 Q517.6958,260.2344 517.6958,257.1094 Q517.6958,253.9844 519.0083,252.3281 Q520.3364,250.6719 522.8364,250.6719 Q523.5396,250.6719 524.1802,250.8281 Q524.8364,250.9844 525.3989,251.2813 L525.3989,254 Q524.7739,253.4219 524.1802,253.1563 Q523.5864,252.875 522.9614,252.875 Q521.6177,252.875 520.9302,253.9531 Q520.2427,255.0156 520.2427,257.1094 Q520.2427,259.2031 520.9302,260.2813 Q521.6177,261.3438 522.9614,261.3438 Q523.5864,261.3438 524.1802,261.0781 Q524.7739,260.7969 525.3989,260.2188 L525.3989,262.9375 Z " fill="#000000"/><text fill="#000000" font-family="sans-serif" font-size="14" lengthAdjust="spacing" textLength="31.541" x="542.9302" y="262.1436">note</text><line style="stroke:#181818;stroke-width:0.5;" x1="318" x2="766.9014" y1="273.2969" y2="273.2969"/></g><a href="" target="_top" title="from_string" xlink:actuate="onRequest" xlink:href="" xlink:show="new" xlink:title="from_string" xlink:type="simple"><rect fill="#F1F1F1" height="10" style="stroke:transparent;stroke-width:1;" width="20" x="323" y="281.9453"/><ellipse cx="328" cy="286.9453" fill="#84BE84" rx="3" ry="3" style="stroke:#038048;stroke-width:1;"/></a></a><a href="" target="_top" title="from_string" xlink:actuate="onRequest" xlink:href="" xlink:show="new" xlink:title="from_string" xlink:type="simple"><text fill="#000000" font-family="sans-serif" font-size="14" lengthAdjust="spacing" text-decoration="underline" textLength="424.9014" x="337" y="290.292">from_string(std::string_view c) : std::shared_ptr&lt;decorator&gt;</text></a><line style="stroke:#181818;stroke-width:0.5;" x1="318" x2="766.9014" y1="297.5938" y2="297.5938"/><a href="" target="_top" title="label" xlink:actuate="onRequest" xlink:href="" xlink:show="new" xlink:title="label" xlink:type="simple"><rect fill="#F1F1F1" height="10" style="stroke:transparent;stroke-width:1;" width="20" x="323" y="306.2422"/><ellipse cx="328" cy="311.2422" fill="transparent" rx="3" ry="3" style="stroke:#038048;stroke-width:1;"/></a><a href="" target="_top" title="label" xlink:actuate="onRequest" xlink:href="" xlink:show="new" xlink:title="label" xlink:type="simple"><text fill="#000000" font-family="sans-serif" font-size="14" lengthAdjust="spacing" text-decoration="underline" textLength="161.1367" x="337" y="314.5889">label : const std::string</text></a><a href="" target="_top" title="position" xlink:actuate="onRequest" xlink:href="" xlink:show="new" xlink:title="position" xlink:type="simple"><rect fill="#F1F1F1" height="10" style="stroke:transparent;stroke-width:1;" width="20" x="323" y="322.5391"/><ellipse cx="328" cy="327.5391" fill="transparent" rx="3" ry="3" style="stroke:#038048;stroke-width:1;"/></a><a href="" target="_top" title="position" xlink:actuate="onRequest" xlink:href="" xlink:show="new" xlink:title="position" xlink:type="simple"><text fill="#000000" font-family="sans-serif" font-size="14" lengthAdjust="spacing" textLength="140.3623" x="337" y="330.8857">position : std::string</text></a><a href="" target="_top" title="text" xlink:actuate="onRequest" xlink:href="" xlink:show="new" xlink:title="text" xlink:type="simple"><rect fill="#F1F1F1" height="10" style="stroke:transparent;stroke-width:1;" width="20" x="323" y="338.8359"/><ellipse cx="328" cy="343.8359" fill="transparent" rx="3" ry="3" style="stroke:#038048;stroke-width:1;"/></a><a href="" target="_top" title="text" xlink:actuate="onRequest" xlink:href="" xlink:show="new" xlink:title="text" xlink:type="simple"><text fill="#000000" font-family="sans-serif" font-size="14" lengthAdjust="spacing" textLength="112.7861" x="337" y="347.1826">text : std::string</text></a><!--class C_0001462474947254948682--><a href="structclanguml_1_1decorators_1_1skip.html" target="_top" title="Whether a decorated element should be skipped from a diagram" xlink:actuate="onRequest" xlink:href="structclanguml_1_1decorators_1_1skip.html" xlink:show="new" xlink:title="Whether a decorated element should be skipped from a diagram" xlink:type="simple"><g id="elem_C_0001462474947254948682"><rect codeLine="29" fill="#F1F1F1" height="80.5938" id="C_0001462474947254948682" rx="2.5" ry="2.5" style="stroke:#181818;stroke-width:0.5;" width="450.9014" x="803" y="257.2969"/><ellipse cx="1010.1118" cy="273.2969" fill="#ADD1B2" rx="11" ry="11" style="stroke:#181818;stroke-width:1;"/><path d="M1013.0806,278.9375 Q1012.5024,279.2344 1011.8618,279.375 Q1011.2212,279.5313 1010.5181,279.5313 Q1008.0181,279.5313 1006.6899,277.8906 Q1005.3774,276.2344 1005.3774,273.1094 Q1005.3774,269.9844 1006.6899,268.3281 Q1008.0181,266.6719 1010.5181,266.6719 Q1011.2212,266.6719 1011.8618,266.8281 Q1012.5181,266.9844 1013.0806,267.2813 L1013.0806,270 Q1012.4556,269.4219 1011.8618,269.1563 Q1011.2681,268.875 1010.6431,268.875 Q1009.2993,268.875 1008.6118,269.9531 Q1007.9243,271.0156 1007.9243,273.1094 Q1007.9243,275.2031 1008.6118,276.2813 Q1009.2993,277.3438 1010.6431,277.3438 Q1011.2681,277.3438 1011.8618,277.0781 Q1012.4556,276.7969 1013.0806,276.2188 L1013.0806,278.9375 Z " fill="#000000"/><text fill="#000000" font-family="sans-serif" font-size="14" lengthAdjust="spacing" textLength="28.1777" x="1030.6118" y="278.1436">skip</text><line style="stroke:#181818;stroke-width:0.5;" x1="804" x2="1252.9014" y1="289.2969" y2="289.2969"/></g><a href="" target="_top" title="from_string" xlink:actuate="onRequest" xlink:href="" xlink:show="new" xlink:title="from_string" xlink:type="simple"><rect fill="#F1F1F1" height="10" style="stroke:transparent;stroke-width:1;" width="20" x="809" y="297.9453"/><ellipse cx="814" cy="302.9453" fill="#84BE84" rx="3" ry="3" style="stroke:#038048;stroke-width:1;"/></a></a><a href="" target="_top" title="from_string" xlink:actuate="onRequest" xlink:href="" xlink:show="new" xlink:title="from_string" xlink:type="simple"><text fill="#000000" font-family="sans-serif" font-size="14" lengthAdjust="spacing" text-decoration="underline" textLength="424.9014" x="823" y="306.292">from_string(std::string_view c) : std::shared_ptr&lt;decorator&gt;</text></a><line style="stroke:#181818;stroke-width:0.5;" x1="804" x2="1252.9014" y1="313.5938" y2="313.5938"/><a href="" target="_top" title="label" xlink:actuate="onRequest" xlink:href="" xlink:show="new" xlink:title="label" xlink:type="simple"><rect fill="#F1F1F1" height="10" style="stroke:transparent;stroke-width:1;" width="20" x="809" y="322.2422"/><ellipse cx="814" cy="327.2422" fill="transparent" rx="3" ry="3" style="stroke:#038048;stroke-width:1;"/></a><a href="" target="_top" title="label" xlink:actuate="onRequest" xlink:href="" xlink:show="new" xlink:title="label" xlink:type="simple"><text fill="#000000" font-family="sans-serif" font-size="14" lengthAdjust="spacing" text-decoration="underline" textLength="161.1367" x="823" y="330.5889">label : const std::string</text></a><!--class C_0000685427930366073750--><a href="structclanguml_1_1decorators_1_1skip__relationship.html" target="_top" title="Whether a decorated relationships should be skipped from a diagram" xlink:actuate="onRequest" xlink:href="structclanguml_1_1decorators_1_1skip__relationship.html" xlink:show="new" xlink:title="Whether a decorated relationships should be skipped from a diagram" xlink:type="simple"><g id="elem_C_0000685427930366073750"><rect codeLine="35" fill="#F1F1F1" height="80.5938" id="C_0000685427930366073750" rx="2.5" ry="2.5" style="stroke:#181818;stroke-width:0.5;" width="450.9014" x="1289" y="257.2969"/><ellipse cx="1451.3125" cy="273.2969" fill="#ADD1B2" rx="11" ry="11" style="stroke:#181818;stroke-width:1;"/><path d="M1454.2813,278.9375 Q1453.7031,279.2344 1453.0625,279.375 Q1452.4219,279.5313 1451.7188,279.5313 Q1449.2188,279.5313 1447.8906,277.8906 Q1446.5781,276.2344 1446.5781,273.1094 Q1446.5781,269.9844 1447.8906,268.3281 Q1449.2188,266.6719 1451.7188,266.6719 Q1452.4219,266.6719 1453.0625,266.8281 Q1453.7188,266.9844 1454.2813,267.2813 L1454.2813,270 Q1453.6563,269.4219 1453.0625,269.1563 Q1452.4688,268.875 1451.8438,268.875 Q1450.5,268.875 1449.8125,269.9531 Q1449.125,271.0156 1449.125,273.1094 Q1449.125,275.2031 1449.8125,276.2813 Q1450.5,277.3438 1451.8438,277.3438 Q1452.4688,277.3438 1453.0625,277.0781 Q1453.6563,276.7969 1454.2813,276.2188 L1454.2813,278.9375 Z " fill="#000000"/><text fill="#000000" font-family="sans-serif" font-size="14" lengthAdjust="spacing" textLength="117.7764" x="1471.8125" y="278.1436">skip_relationship</text><line style="stroke:#181818;stroke-width:0.5;" x1="1290" x2="1738.9014" y1="289.2969" y2="289.2969"/></g><a href="" target="_top" title="from_string" xlink:actuate="onRequest" xlink:href="" xlink:show="new" xlink:title="from_string" xlink:type="simple"><rect fill="#F1F1F1" height="10" style="stroke:transparent;stroke-width:1;" width="20" x="1295" y="297.9453"/><ellipse cx="1300" cy="302.9453" fill="#84BE84" rx="3" ry="3" style="stroke:#038048;stroke-width:1;"/></a></a><a href="" target="_top" title="from_string" xlink:actuate="onRequest" xlink:href="" xlink:show="new" xlink:title="from_string" xlink:type="simple"><text fill="#000000" font-family="sans-serif" font-size="14" lengthAdjust="spacing" text-decoration="underline" textLength="424.9014" x="1309" y="306.292">from_string(std::string_view c) : std::shared_ptr&lt;decorator&gt;</text></a><line style="stroke:#181818;stroke-width:0.5;" x1="1290" x2="1738.9014" y1="313.5938" y2="313.5938"/><a href="" target="_top" title="label" xlink:actuate="onRequest" xlink:href="" xlink:show="new" xlink:title="label" xlink:type="simple"><rect fill="#F1F1F1" height="10" style="stroke:transparent;stroke-width:1;" width="20" x="1295" y="322.2422"/><ellipse cx="1300" cy="327.2422" fill="transparent" rx="3" ry="3" style="stroke:#038048;stroke-width:1;"/></a><a href="" target="_top" title="label" xlink:actuate="onRequest" xlink:href="" xlink:show="new" xlink:title="label" xlink:type="simple"><text fill="#000000" font-family="sans-serif" font-size="14" lengthAdjust="spacing" text-decoration="underline" textLength="161.1367" x="1309" y="330.5889">label : const std::string</text></a><!--class C_0000116269747867995555--><a href="structclanguml_1_1decorators_1_1style.html" target="_top" title="Apply specific style to a decorated diagram element" xlink:actuate="onRequest" xlink:href="structclanguml_1_1decorators_1_1style.html" xlink:show="new" xlink:title="Apply specific style to a decorated diagram element" xlink:type="simple"><g id="elem_C_0000116269747867995555"><rect codeLine="41" fill="#F1F1F1" height="96.8906" id="C_0000116269747867995555" rx="2.5" ry="2.5" style="stroke:#181818;stroke-width:0.5;" width="450.9014" x="1775" y="249.2969"/><ellipse cx="1979.415" cy="265.2969" fill="#ADD1B2" rx="11" ry="11" style="stroke:#181818;stroke-width:1;"/><path d="M1982.3838,270.9375 Q1981.8057,271.2344 1981.165,271.375 Q1980.5244,271.5313 1979.8213,271.5313 Q1977.3213,271.5313 1975.9932,269.8906 Q1974.6807,268.2344 1974.6807,265.1094 Q1974.6807,261.9844 1975.9932,260.3281 Q1977.3213,258.6719 1979.8213,258.6719 Q1980.5244,258.6719 1981.165,258.8281 Q1981.8213,258.9844 1982.3838,259.2813 L1982.3838,262 Q1981.7588,261.4219 1981.165,261.1563 Q1980.5713,260.875 1979.9463,260.875 Q1978.6025,260.875 1977.915,261.9531 Q1977.2275,263.0156 1977.2275,265.1094 Q1977.2275,267.2031 1977.915,268.2813 Q1978.6025,269.3438 1979.9463,269.3438 Q1980.5713,269.3438 1981.165,269.0781 Q1981.7588,268.7969 1982.3838,268.2188 L1982.3838,270.9375 Z " fill="#000000"/><text fill="#000000" font-family="sans-serif" font-size="14" lengthAdjust="spacing" textLength="33.5713" x="1999.915" y="270.1436">style</text><line style="stroke:#181818;stroke-width:0.5;" x1="1776" x2="2224.9014" y1="281.2969" y2="281.2969"/></g><a href="" target="_top" title="from_string" xlink:actuate="onRequest" xlink:href="" xlink:show="new" xlink:title="from_string" xlink:type="simple"><rect fill="#F1F1F1" height="10" style="stroke:transparent;stroke-width:1;" width="20" x="1781" y="289.9453"/><ellipse cx="1786" cy="294.9453" fill="#84BE84" rx="3" ry="3" style="stroke:#038048;stroke-width:1;"/></a></a><a href="" target="_top" title="from_string" xlink:actuate="onRequest" xlink:href="" xlink:show="new" xlink:title="from_string" xlink:type="simple"><text fill="#000000" font-family="sans-serif" font-size="14" lengthAdjust="spacing" text-decoration="underline" textLength="424.9014" x="1795" y="298.292">from_string(std::string_view c) : std::shared_ptr&lt;decorator&gt;</text></a><line style="stroke:#181818;stroke-width:0.5;" x1="1776" x2="2224.9014" y1="305.5938" y2="305.5938"/><a href="" target="_top" title="label" xlink:actuate="onRequest" xlink:href="" xlink:show="new" xlink:title="label" xlink:type="simple"><rect fill="#F1F1F1" height="10" style="stroke:transparent;stroke-width:1;" width="20" x="1781" y="314.2422"/><ellipse cx="1786" cy="319.2422" fill="transparent" rx="3" ry="3" style="stroke:#038048;stroke-width:1;"/></a><a href="" target="_top" title="label" xlink:actuate="onRequest" xlink:href="" xlink:show="new" xlink:title="label" xlink:type="simple"><text fill="#000000" font-family="sans-serif" font-size="14" lengthAdjust="spacing" text-decoration="underline" textLength="161.1367" x="1795" y="322.5889">label : const std::string</text></a><a href="" target="_top" title="spec" xlink:actuate="onRequest" xlink:href="" xlink:show="new" xlink:title="spec" xlink:type="simple"><rect fill="#F1F1F1" height="10" style="stroke:transparent;stroke-width:1;" width="20" x="1781" y="330.5391"/><ellipse cx="1786" cy="335.5391" fill="transparent" rx="3" ry="3" style="stroke:#038048;stroke-width:1;"/></a><a href="" target="_top" title="spec" xlink:actuate="onRequest" xlink:href="" xlink:show="new" xlink:title="spec" xlink:type="simple"><text fill="#000000" font-family="sans-serif" font-size="14" lengthAdjust="spacing" textLength="117.4004" x="1795" y="338.8857">spec : std::string</text></a><!--class C_0001576276283144132872--><a href="structclanguml_1_1decorators_1_1relationship.html" target="_top" title="Base class for decorators overriding default relationship types" xlink:actuate="onRequest" xlink:href="structclanguml_1_1decorators_1_1relationship.html" xlink:show="new" xlink:title="Base class for decorators overriding default relationship types" xlink:type="simple"><g id="elem_C_0001576276283144132872"><rect codeLine="48" fill="#F1F1F1" height="64.2969" id="C_0001576276283144132872" rx="2.5" ry="2.5" style="stroke:#181818;stroke-width:0.5;" width="188.7158" x="2404" y="265.7969"/><ellipse cx="2452.8086" cy="281.7969" fill="#ADD1B2" rx="11" ry="11" style="stroke:#181818;stroke-width:1;"/><path d="M2455.7773,287.4375 Q2455.1992,287.7344 2454.5586,287.875 Q2453.918,288.0313 2453.2148,288.0313 Q2450.7148,288.0313 2449.3867,286.3906 Q2448.0742,284.7344 2448.0742,281.6094 Q2448.0742,278.4844 2449.3867,276.8281 Q2450.7148,275.1719 2453.2148,275.1719 Q2453.918,275.1719 2454.5586,275.3281 Q2455.2148,275.4844 2455.7773,275.7813 L2455.7773,278.5 Q2455.1523,277.9219 2454.5586,277.6563 Q2453.9648,277.375 2453.3398,277.375 Q2451.9961,277.375 2451.3086,278.4531 Q2450.6211,279.5156 2450.6211,281.6094 Q2450.6211,283.7031 2451.3086,284.7813 Q2451.9961,285.8438 2453.3398,285.8438 Q2453.9648,285.8438 2454.5586,285.5781 Q2455.1523,285.2969 2455.7773,284.7188 L2455.7773,287.4375 Z " fill="#000000"/><text fill="#000000" font-family="sans-serif" font-size="14" lengthAdjust="spacing" textLength="82.5986" x="2473.3086" y="286.6436">relationship</text><line style="stroke:#181818;stroke-width:0.5;" x1="2405" x2="2591.7158" y1="297.7969" y2="297.7969"/><line style="stroke:#181818;stroke-width:0.5;" x1="2405" x2="2591.7158" y1="305.7969" y2="305.7969"/></g><a href="" target="_top" title="multiplicity" xlink:actuate="onRequest" xlink:href="" xlink:show="new" xlink:title="multiplicity" xlink:type="simple"><rect fill="#F1F1F1" height="10" style="stroke:transparent;stroke-width:1;" width="20" x="2410" y="314.4453"/><ellipse cx="2415" cy="319.4453" fill="transparent" rx="3" ry="3" style="stroke:#038048;stroke-width:1;"/></a></a><a href="" target="_top" title="multiplicity" xlink:actuate="onRequest" xlink:href="" xlink:show="new" xlink:title="multiplicity" xlink:type="simple"><text fill="#000000" font-family="sans-serif" font-size="14" lengthAdjust="spacing" textLength="162.7158" x="2424" y="322.792">multiplicity : std::string</text></a><!--class C_0000175979950567138488--><a href="structclanguml_1_1decorators_1_1aggregation.html" target="_top" title="Make a member an aggregation relationship" xlink:actuate="onRequest" xlink:href="structclanguml_1_1decorators_1_1aggregation.html" xlink:show="new" xlink:title="Make a member an aggregation relationship" xlink:type="simple"><g id="elem_C_0000175979950567138488"><rect codeLine="53" fill="#F1F1F1" height="80.5938" id="C_0000175979950567138488" rx="2.5" ry="2.5" style="stroke:#181818;stroke-width:0.5;" width="450.9014" x="1713" y="414.2969"/><ellipse cx="1891.6982" cy="430.2969" fill="#ADD1B2" rx="11" ry="11" style="stroke:#181818;stroke-width:1;"/><path d="M1894.667,435.9375 Q1894.0889,436.2344 1893.4482,436.375 Q1892.8076,436.5313 1892.1045,436.5313 Q1889.6045,436.5313 1888.2764,434.8906 Q1886.9639,433.2344 1886.9639,430.1094 Q1886.9639,426.9844 1888.2764,425.3281 Q1889.6045,423.6719 1892.1045,423.6719 Q1892.8076,423.6719 1893.4482,423.8281 Q1894.1045,423.9844 1894.667,424.2813 L1894.667,427 Q1894.042,426.4219 1893.4482,426.1563 Q1892.8545,425.875 1892.2295,425.875 Q1890.8857,425.875 1890.1982,426.9531 Q1889.5107,428.0156 1889.5107,430.1094 Q1889.5107,432.2031 1890.1982,433.2813 Q1890.8857,434.3438 1892.2295,434.3438 Q1892.8545,434.3438 1893.4482,434.0781 Q1894.042,433.7969 1894.667,433.2188 L1894.667,435.9375 Z " fill="#000000"/><text fill="#000000" font-family="sans-serif" font-size="14" lengthAdjust="spacing" textLength="85.0049" x="1912.1982" y="435.1436">aggregation</text><line style="stroke:#181818;stroke-width:0.5;" x1="1714" x2="2162.9014" y1="446.2969" y2="446.2969"/></g><a href="" target="_top" title="from_string" xlink:actuate="onRequest" xlink:href="" xlink:show="new" xlink:title="from_string" xlink:type="simple"><rect fill="#F1F1F1" height="10" style="stroke:transparent;stroke-width:1;" width="20" x="1719" y="454.9453"/><ellipse cx="1724" cy="459.9453" fill="#84BE84" rx="3" ry="3" style="stroke:#038048;stroke-width:1;"/></a></a><a href="" target="_top" title="from_string" xlink:actuate="onRequest" xlink:href="" xlink:show="new" xlink:title="from_string" xlink:type="simple"><text fill="#000000" font-family="sans-serif" font-size="14" lengthAdjust="spacing" text-decoration="underline" textLength="424.9014" x="1733" y="463.292">from_string(std::string_view c) : std::shared_ptr&lt;decorator&gt;</text></a><line style="stroke:#181818;stroke-width:0.5;" x1="1714" x2="2162.9014" y1="470.5938" y2="470.5938"/><a href="" target="_top" title="label" xlink:actuate="onRequest" xlink:href="" xlink:show="new" xlink:title="label" xlink:type="simple"><rect fill="#F1F1F1" height="10" style="stroke:transparent;stroke-width:1;" width="20" x="1719" y="479.2422"/><ellipse cx="1724" cy="484.2422" fill="transparent" rx="3" ry="3" style="stroke:#038048;stroke-width:1;"/></a><a href="" target="_top" title="label" xlink:actuate="onRequest" xlink:href="" xlink:show="new" xlink:title="label" xlink:type="simple"><text fill="#000000" font-family="sans-serif" font-size="14" lengthAdjust="spacing" text-decoration="underline" textLength="161.1367" x="1733" y="487.5889">label : const std::string</text></a><!--class C_0001028911016492067053--><a href="structclanguml_1_1decorators_1_1composition.html" target="_top" title="Make a member a composition relationship" xlink:actuate="onRequest" xlink:href="structclanguml_1_1decorators_1_1composition.html" xlink:show="new" xlink:title="Make a member a composition relationship" xlink:type="simple"><g id="elem_C_0001028911016492067053"><rect codeLine="59" fill="#F1F1F1" height="80.5938" id="C_0001028911016492067053" rx="2.5" ry="2.5" style="stroke:#181818;stroke-width:0.5;" width="450.9014" x="2199" y="414.2969"/><ellipse cx="2377.5239" cy="430.2969" fill="#ADD1B2" rx="11" ry="11" style="stroke:#181818;stroke-width:1;"/><path d="M2380.4927,435.9375 Q2379.9146,436.2344 2379.2739,436.375 Q2378.6333,436.5313 2377.9302,436.5313 Q2375.4302,436.5313 2374.1021,434.8906 Q2372.7896,433.2344 2372.7896,430.1094 Q2372.7896,426.9844 2374.1021,425.3281 Q2375.4302,423.6719 2377.9302,423.6719 Q2378.6333,423.6719 2379.2739,423.8281 Q2379.9302,423.9844 2380.4927,424.2813 L2380.4927,427 Q2379.8677,426.4219 2379.2739,426.1563 Q2378.6802,425.875 2378.0552,425.875 Q2376.7114,425.875 2376.0239,426.9531 Q2375.3364,428.0156 2375.3364,430.1094 Q2375.3364,432.2031 2376.0239,433.2813 Q2376.7114,434.3438 2378.0552,434.3438 Q2378.6802,434.3438 2379.2739,434.0781 Q2379.8677,433.7969 2380.4927,433.2188 L2380.4927,435.9375 Z " fill="#000000"/><text fill="#000000" font-family="sans-serif" font-size="14" lengthAdjust="spacing" textLength="85.3535" x="2398.0239" y="435.1436">composition</text><line style="stroke:#181818;stroke-width:0.5;" x1="2200" x2="2648.9014" y1="446.2969" y2="446.2969"/></g><a href="" target="_top" title="from_string" xlink:actuate="onRequest" xlink:href="" xlink:show="new" xlink:title="from_string" xlink:type="simple"><rect fill="#F1F1F1" height="10" style="stroke:transparent;stroke-width:1;" width="20" x="2205" y="454.9453"/><ellipse cx="2210" cy="459.9453" fill="#84BE84" rx="3" ry="3" style="stroke:#038048;stroke-width:1;"/></a></a><a href="" target="_top" title="from_string" xlink:actuate="onRequest" xlink:href="" xlink:show="new" xlink:title="from_string" xlink:type="simple"><text fill="#000000" font-family="sans-serif" font-size="14" lengthAdjust="spacing" text-decoration="underline" textLength="424.9014" x="2219" y="463.292">from_string(std::string_view c) : std::shared_ptr&lt;decorator&gt;</text></a><line style="stroke:#181818;stroke-width:0.5;" x1="2200" x2="2648.9014" y1="470.5938" y2="470.5938"/><a href="" target="_top" title="label" xlink:actuate="onRequest" xlink:href="" xlink:show="new" xlink:title="label" xlink:type="simple"><rect fill="#F1F1F1" height="10" style="stroke:transparent;stroke-width:1;" width="20" x="2205" y="479.2422"/><ellipse cx="2210" cy="484.2422" fill="transparent" rx="3" ry="3" style="stroke:#038048;stroke-width:1;"/></a><a href="" target="_top" title="label" xlink:actuate="onRequest" xlink:href="" xlink:show="new" xlink:title="label" xlink:type="simple"><text fill="#000000" font-family="sans-serif" font-size="14" lengthAdjust="spacing" text-decoration="underline" textLength="161.1367" x="2219" y="487.5889">label : const std::string</text></a><!--class C_0001534243399456949265--><a href="structclanguml_1_1decorators_1_1association.html" target="_top" title="Make a member an association relationship" xlink:actuate="onRequest" xlink:href="structclanguml_1_1decorators_1_1association.html" xlink:show="new" xlink:title="Make a member an association relationship" xlink:type="simple"><g id="elem_C_0001534243399456949265"><rect codeLine="65" fill="#F1F1F1" height="80.5938" id="C_0001534243399456949265" rx="2.5" ry="2.5" style="stroke:#181818;stroke-width:0.5;" width="450.9014" x="2685" y="414.2969"/><ellipse cx="2866.8428" cy="430.2969" fill="#ADD1B2" rx="11" ry="11" style="stroke:#181818;stroke-width:1;"/><path d="M2869.8115,435.9375 Q2869.2334,436.2344 2868.5928,436.375 Q2867.9521,436.5313 2867.249,436.5313 Q2864.749,436.5313 2863.4209,434.8906 Q2862.1084,433.2344 2862.1084,430.1094 Q2862.1084,426.9844 2863.4209,425.3281 Q2864.749,423.6719 2867.249,423.6719 Q2867.9521,423.6719 2868.5928,423.8281 Q2869.249,423.9844 2869.8115,424.2813 L2869.8115,427 Q2869.1865,426.4219 2868.5928,426.1563 Q2867.999,425.875 2867.374,425.875 Q2866.0303,425.875 2865.3428,426.9531 Q2864.6553,428.0156 2864.6553,430.1094 Q2864.6553,432.2031 2865.3428,433.2813 Q2866.0303,434.3438 2867.374,434.3438 Q2867.999,434.3438 2868.5928,434.0781 Q2869.1865,433.7969 2869.8115,433.2188 L2869.8115,435.9375 Z " fill="#000000"/><text fill="#000000" font-family="sans-serif" font-size="14" lengthAdjust="spacing" textLength="78.7158" x="2887.3428" y="435.1436">association</text><line style="stroke:#181818;stroke-width:0.5;" x1="2686" x2="3134.9014" y1="446.2969" y2="446.2969"/></g><a href="" target="_top" title="from_string" xlink:actuate="onRequest" xlink:href="" xlink:show="new" xlink:title="from_string" xlink:type="simple"><rect fill="#F1F1F1" height="10" style="stroke:transparent;stroke-width:1;" width="20" x="2691" y="454.9453"/><ellipse cx="2696" cy="459.9453" fill="#84BE84" rx="3" ry="3" style="stroke:#038048;stroke-width:1;"/></a></a><a href="" target="_top" title="from_string" xlink:actuate="onRequest" xlink:href="" xlink:show="new" xlink:title="from_string" xlink:type="simple"><text fill="#000000" font-family="sans-serif" font-size="14" lengthAdjust="spacing" text-decoration="underline" textLength="424.9014" x="2705" y="463.292">from_string(std::string_view c) : std::shared_ptr&lt;decorator&gt;</text></a><line style="stroke:#181818;stroke-width:0.5;" x1="2686" x2="3134.9014" y1="470.5938" y2="470.5938"/><a href="" target="_top" title="label" xlink:actuate="onRequest" xlink:href="" xlink:show="new" xlink:title="label" xlink:type="simple"><rect fill="#F1F1F1" height="10" style="stroke:transparent;stroke-width:1;" width="20" x="2691" y="479.2422"/><ellipse cx="2696" cy="484.2422" fill="transparent" rx="3" ry="3" style="stroke:#038048;stroke-width:1;"/></a><a href="" target="_top" title="label" xlink:actuate="onRequest" xlink:href="" xlink:show="new" xlink:title="label" xlink:type="simple"><text fill="#000000" font-family="sans-serif" font-size="14" lengthAdjust="spacing" text-decoration="underline" textLength="161.1367" x="2705" y="487.5889">label : const std::string</text></a><!--link C_0001039481254924641333 to C_0000532301235174338361--><g id="link_C_0001039481254924641333_C_0000532301235174338361"><path codeLine="70" d="M1743.62,124.5869 C1338,143.0569 567.72,184.3169 299.5,241.2969 C293.77,242.5169 293.7708,242.4018 287.9408,243.9018 " fill="transparent" id="C_0001039481254924641333-to-C_0000532301235174338361" style="stroke:#181818;stroke-width:1;stroke-dasharray:7.0,7.0;"/><polygon fill="#181818" points="282.13,245.3969,291.8428,247.0281,286.9723,244.151,289.8494,239.2805,282.13,245.3969" style="stroke:#181818;stroke-width:1;"/></g><!--reverse link C_0001039481254924641333 to C_0001347272482812804274--><g id="link_C_0001039481254924641333_C_0001347272482812804274"><path codeLine="71" d="M1725.9452,133.1449 C1479.2152,152.5049 1114.25,186.7069 785.5,241.2969 C779.74,242.2569 773.91,243.2669 768.03,244.3169 " fill="transparent" id="C_0001039481254924641333-backto-C_0001347272482812804274" style="stroke:#181818;stroke-width:1;"/><polygon fill="transparent" points="1743.89,131.7369,1725.4758,127.1633,1726.4145,139.1266,1743.89,131.7369" style="stroke:#181818;stroke-width:1;"/></g><!--reverse link C_0001039481254924641333 to C_0001462474947254948682--><g id="link_C_0001039481254924641333_C_0001462474947254948682"><path codeLine="72" d="M1726.1587,158.3387 C1586.1987,181.8487 1427.84,209.7969 1271.5,241.2969 C1247.21,246.1869 1221.64,251.6669 1196.56,257.2269 " fill="transparent" id="C_0001039481254924641333-backto-C_0001462474947254948682" style="stroke:#181818;stroke-width:1;"/><polygon fill="transparent" points="1743.91,155.3569,1725.1648,152.4216,1727.1526,164.2558,1743.91,155.3569" style="stroke:#181818;stroke-width:1;"/></g><!--reverse link C_0001039481254924641333 to C_0000685427930366073750--><g id="link_C_0001039481254924641333_C_0000685427930366073750"><path codeLine="73" d="M1804.0652,187.7613 C1736.3352,213.2713 1678.38,235.0869 1619.64,257.2069 " fill="transparent" id="C_0001039481254924641333-backto-C_0000685427930366073750" style="stroke:#181818;stroke-width:1;"/><polygon fill="transparent" points="1820.91,181.4169,1801.9504,182.1464,1806.18,193.3763,1820.91,181.4169" style="stroke:#181818;stroke-width:1;"/></g><!--reverse link C_0001039481254924641333 to C_0000116269747867995555--><g id="link_C_0001039481254924641333_C_0000116269747867995555"><path codeLine="74" d="M2000.5,199.4169 C2000.5,221.9169 2000.5,228.4969 2000.5,249.1569 " fill="transparent" id="C_0001039481254924641333-backto-C_0000116269747867995555" style="stroke:#181818;stroke-width:1;"/><polygon fill="transparent" points="2000.5,181.4169,1994.5,199.4169,2006.5,199.4169,2000.5,181.4169" style="stroke:#181818;stroke-width:1;"/></g><!--reverse link C_0001039481254924641333 to C_0001576276283144132872--><g id="link_C_0001039481254924641333_C_0001576276283144132872"><path codeLine="75" d="M2229.1903,187.2359 C2283.1703,205.6059 2323.79,220.4269 2376.5,241.2969 C2395.21,248.7069 2415.21,257.4469 2433.49,265.7669 " fill="transparent" id="C_0001039481254924641333-backto-C_0001576276283144132872" style="stroke:#181818;stroke-width:1;"/><polygon fill="transparent" points="2212.15,181.4369,2227.2573,192.916,2231.1233,181.5558,2212.15,181.4369" style="stroke:#181818;stroke-width:1;"/></g><!--link C_0000175979950567138488 to C_0001039481254924641333--><g id="link_C_0000175979950567138488_C_0001039481254924641333"><path codeLine="76" d="M2164.31,416.7769 C2195.33,402.1669 2223.38,382.0169 2243.5,354.2969 C2273,313.6469 2269.48,284.2769 2243.5,241.2969 C2228.96,217.2469 2213.1436,200.9215 2189.8236,184.7815 " fill="transparent" id="C_0000175979950567138488-to-C_0001039481254924641333" style="stroke:#181818;stroke-width:1;stroke-dasharray:7.0,7.0;"/><polygon fill="#181818" points="2184.89,181.3669,2190.014,189.7778,2189.0013,184.2124,2194.5668,183.1997,2184.89,181.3669" style="stroke:#181818;stroke-width:1;"/></g><!--reverse link C_0001576276283144132872 to C_0000175979950567138488--><g id="link_C_0001576276283144132872_C_0000175979950567138488"><path codeLine="77" d="M2386.5533,331.3091 C2355.2733,340.3191 2337.57,345.3369 2305.5,354.2969 C2233.49,374.4069 2153.37,396.1969 2086.41,414.2469 " fill="transparent" id="C_0001576276283144132872-backto-C_0000175979950567138488" style="stroke:#181818;stroke-width:1;"/><polygon fill="transparent" points="2403.85,326.3269,2384.8925,325.5435,2388.214,337.0747,2403.85,326.3269" style="stroke:#181818;stroke-width:1;"/></g><!--link C_0001028911016492067053 to C_0001039481254924641333--><g id="link_C_0001028911016492067053_C_0001039481254924641333"><path codeLine="78" d="M2406.06,414.0969 C2382.63,367.3869 2338.21,290.0369 2280.5,241.2969 C2252.85,217.9469 2225.5865,200.7302 2192.5565,184.0602 " fill="transparent" id="C_0001028911016492067053-to-C_0001039481254924641333" style="stroke:#181818;stroke-width:1;stroke-dasharray:7.0,7.0;"/><polygon fill="#181818" points="2187.2,181.3569,2193.4325,188.9829,2191.6637,183.6097,2197.037,181.841,2187.2,181.3569" style="stroke:#181818;stroke-width:1;"/></g><!--reverse link C_0001576276283144132872 to C_0001028911016492067053--><g id="link_C_0001576276283144132872_C_0001028911016492067053"><path codeLine="79" d="M2475.7638,346.4101 C2464.1938,370.6401 2455.86,388.1069 2443.4,414.1969 " fill="transparent" id="C_0001576276283144132872-backto-C_0001028911016492067053" style="stroke:#181818;stroke-width:1;"/><polygon fill="transparent" points="2483.52,330.1669,2470.3494,343.8246,2481.1782,348.9955,2483.52,330.1669" style="stroke:#181818;stroke-width:1;"/></g><!--link C_0001534243399456949265 to C_0001039481254924641333--><g id="link_C_0001534243399456949265_C_0001039481254924641333"><path codeLine="80" d="M2866.82,413.9269 C2811.38,365.5469 2710.84,285.0469 2610.5,241.2969 C2499.55,192.9169 2374.9855,163.4801 2263.2455,144.5301 " fill="transparent" id="C_0001534243399456949265-to-C_0001039481254924641333" style="stroke:#181818;stroke-width:1;stroke-dasharray:7.0,7.0;"/><polygon fill="#181818" points="2257.33,143.5269,2265.5345,148.9754,2262.2596,144.3629,2266.8721,141.088,2257.33,143.5269" style="stroke:#181818;stroke-width:1;"/></g><!--reverse link C_0001576276283144132872 to C_0001534243399456949265--><g id="link_C_0001576276283144132872_C_0001534243399456949265"><path codeLine="81" d="M2598.2268,336.316 C2662.7268,360.586 2735.82,388.0769 2805.38,414.2469 " fill="transparent" id="C_0001576276283144132872-backto-C_0001534243399456949265" style="stroke:#181818;stroke-width:1;"/><polygon fill="transparent" points="2581.38,329.9769,2596.1138,341.9316,2600.3399,330.7004,2581.38,329.9769" style="stroke:#181818;stroke-width:1;"/></g><!--SRC=[rLVVRvmu47xVlyBgIKsYxI8RZ0rHMkakbVhIlfnqTmzHXBoiTnS5CCBUjBbSyhVV0CjY0aZqUWyDYgB4yylp-Plns2GcbUXZ8dQbo91CPIPpWpOoLgKmgjGeKnkPBk9KQ8tUdDOZe-xq6oGqkeumVBxdUfYudayuzRp0O-HeCYL6DpVQb8VOW5g-EsHfH2BIXUtz5zNHdBt9qiV-3fvkRz7Z8eeMoqsJWKQNI9lDvUMzZ47fgluR0YNvxWE4l7bizS3oTh5CnLgchKcZLclLwurA8IfWXYhrUgDYv3Speb4jrmfF0_Wwv0ZsGXeGrwUXInabdkVPo8s8lmUv1hFVX9QeSRfL9QhjLc28OfNLnst4xWZbylbaUtw1tWCHjkAGLjdTgsHJfzLfrCavpc8fYY9Df8OZYOxudiSgrwO7oLkKYqnUWAkrKcdjwdelupkKR3k-eQChP1GII1SoJhP9Z8vUdJhYepR29F4JMcvBbKMD-tChL7IVoAyelZYToLwKSXCLfhmw1MhOS5rAOQGLNcsxeEQXa6WDs6sGob5YpZGwfj9-fInAgG51s8_Acztz0hoKUVAt78MW9jOxDBxPFhSR3XsTrQx_CyzF1CoLaHRtFCfTxjB01OO5cBgSzhWt5C_WNXMYeTtlBJeQZh9QRe-nRJCDvVx7uxGSj81rtjjQ7nxBoufNEgdESwpeZwBlh7jzbnGMx9IvbDCGq8MofW4Bt1xiG_4CsAiG3Un_xQNPIwYaba_0txQlwxqwf1kqbgZIBq1IGLQfDYVpSvv83yUeb6bTRdflWufPu0D3GmzxZ67kSH_tRg2XU2QeKI_WDCIsbdxrG9k7r6eKc13cif1J7Z0UXZvyFN27uZdWLZ4QF7-5fl_GDTvQqjm07RwletTKEOoqX6gvZ_0uYudFcGi_WKSeNFPkmFkjOIYU0VIGloy60clQK_UoB9DDjU_swhVDwplHcheoK4ZWmeuJyp2IjYtkfozskrBkQhyspRWVLWJ2FkF42sWGz6as4C_8tehK9Fz5t4bWLYQpTLN2ER8qUid-v3KAmrjx7TdZf1k4X632O634ZCFatHyd1-8P45gHHY54bi9hGX1-gJXvGKBYUzI5HqeOKf-501Fp-oKu4CyXOHTfYeITngk0SF9ruZWVfj-4arPN_wnMqqFf7BEHeMg6sTZOCCTiv4ASiycHzZxPsav0ZZqH9wy3Uu_3RZhP17uqs5ZVcQoN7musKgABiqyobysey3Kn- -wL-mx1dQQhki8ETV2AhtQ1O6iQyiNPvyz_VZc9_rWVSdDe34-BX3dOOUXykNGnq9aJ39J4Bb_oUBqbmlL3uhihyYo_5UIvLG5oO1eu1FiN_m80]--></g></svg>