<svg xmlns="http://www.w3.org/2000/svg" xmlns:xlink="http://www.w3.org/1999/xlink" contentStyleType="text/css" data-diagram-type="CLASS" height="501px" preserveAspectRatio="none" style="width:3219px;height:501px;background:#FFFFFF;" version="1.1" viewBox="0 0 3219 501" width="3219px" zoomAndPan="magnify"><title>Diagram element decorators model</title><defs/><g><text fill="#000000" font-family="sans-serif" font-size="14" font-weight="bold" lengthAdjust="spacing" textLength="279.8359" x="1463.0327" y="22.9951">Diagram element decorators model</text><!--class C_0004258409881394706889--><a href="structclanguml_1_1decorators_1_1decorator__toks.html" target="_top" title="decorator_toks" xlink:actuate="onRequest" xlink:href="structclanguml_1_1decorators_1_1decorator__toks.html" xlink:show="new" xlink:title="decorator_toks" xlink:type="simple"><g id="elem_C_0004258409881394706889"><rect codeLine="3" fill="#F1F1F1" height="113.1875" id="C_0004258409881394706889" rx="2.5" ry="2.5" style="stroke:#181818;stroke-width:0.5;" width="275.3887" x="7" y="241.2969"/><ellipse cx="88.2622" cy="257.2969" fill="#ADD1B2" rx="11" ry="11" style="stroke:#181818;stroke-width:1;"/><path d="M91.231,262.9375 Q90.6528,263.2344 90.0122,263.375 Q89.3716,263.5313 88.6685,263.5313 Q86.1685,263.5313 84.8403,261.8906 Q83.5278,260.2344 83.5278,257.1094 Q83.5278,253.9844 84.8403,252.3281 Q86.1685,250.6719 88.6685,250.6719 Q89.3716,250.6719 90.0122,250.8281 Q90.6685,250.9844 91.231,251.2813 L91.231,254 Q90.606,253.4219 90.0122,253.1563 Q89.4185,252.875 88.7935,252.875 Q87.4497,252.875 86.7622,253.9531 Q86.0747,255.0156 86.0747,257.1094 Q86.0747,259.2031 86.7622,260.2813 Q87.4497,261.3438 88.7935,261.3438 Q89.4185,261.3438 90.0122,261.0781 Q90.606,260.7969 91.231,260.2188 L91.231,262.9375 Z " fill="#000000"/><text fill="#000000" font-family="sans-serif" font-size="14" lengthAdjust="spacing" textLength="104.3643" x="108.7622" y="262.1436">decorator_toks</text><line style="stroke:#181818;stroke-width:0.5;" x1="8" x2="281.3887" y1="273.2969" y2="273.2969"/><line style="stroke:#181818;stroke-width:0.5;" x1="8" x2="281.3887" y1="281.2969" y2="281.2969"/></g><a href="" target="_top" title="diagrams" xlink:actuate="onRequest" xlink:href="" xlink:show="new" xlink:title="diagrams" xlink:type="simple"><rect fill="#F1F1F1" height="10" style="stroke:transparent;stroke-width:1;" width="20" x="13" y="289.9453"/><ellipse cx="18" cy="294.9453" fill="transparent" rx="3" ry="3" style="stroke:#038048;stroke-width:1;"/></a></a><a href="" target="_top" title="diagrams" xlink:actuate="onRequest" xlink:href="" xlink:show="new" xlink:title="diagrams" xlink:type="simple"><text fill="#000000" font-family="sans-serif" font-size="14" lengthAdjust="spacing" textLength="249.3887" x="27" y="298.292">diagrams : std::vector&lt;std::string&gt;</text></a><a href="" target="_top" title="label" xlink:actuate="onRequest" xlink:href="" xlink:show="new" xlink:title="label" xlink:type="simple"><rect fill="#F1F1F1" height="10" style="stroke:transparent;stroke-width:1;" width="20" x="13" y="306.2422"/><ellipse cx="18" cy="311.2422" fill="transparent" rx="3" ry="3" style="stroke:#038048;stroke-width:1;"/></a><a href="" target="_top" title="label" xlink:actuate="onRequest" xlink:href="" xlink:show="new" xlink:title="label" xlink:type="simple"><text fill="#000000" font-family="sans-serif" font-size="14" lengthAdjust="spacing" textLength="118.7676" x="27" y="314.5889">label : std::string</text></a><a href="" target="_top" title="param" xlink:actuate="onRequest" xlink:href="" xlink:show="new" xlink:title="param" xlink:type="simple"><rect fill="#F1F1F1" height="10" style="stroke:transparent;stroke-width:1;" width="20" x="13" y="322.5391"/><ellipse cx="18" cy="327.5391" fill="transparent" rx="3" ry="3" style="stroke:#038048;stroke-width:1;"/></a><a href="" target="_top" title="param" xlink:actuate="onRequest" xlink:href="" xlink:show="new" xlink:title="param" xlink:type="simple"><text fill="#000000" font-family="sans-serif" font-size="14" lengthAdjust="spacing" textLength="130.3477" x="27" y="330.8857">param : std::string</text></a><a href="" target="_top" title="text" xlink:actuate="onRequest" xlink:href="" xlink:show="new" xlink:title="text" xlink:type="simple"><rect fill="#F1F1F1" height="10" style="stroke:transparent;stroke-width:1;" width="20" x="13" y="338.8359"/><ellipse cx="18" cy="343.8359" fill="transparent" rx="3" ry="3" style="stroke:#038048;stroke-width:1;"/></a><a href="" target="_top" title="text" xlink:actuate="onRequest" xlink:href="" xlink:show="new" xlink:title="text" xlink:type="simple"><text fill="#000000" font-family="sans-serif" font-size="14" lengthAdjust="spacing" textLength="112.7861" x="27" y="347.1826">text : std::string</text></a><!--class C_0008315850039397130669--><a href="structclanguml_1_1decorators_1_1decorator.html" target="_top" title="Base class for clang-uml comment tags" xlink:actuate="onRequest" xlink:href="structclanguml_1_1decorators_1_1decorator.html" xlink:show="new" xlink:title="Base class for clang-uml comment tags" xlink:type="simple"><g id="elem_C_0008315850039397130669"><rect codeLine="11" fill="#F1F1F1" height="137.4844" id="C_0008315850039397130669" rx="2.5" ry="2.5" style="stroke:#181818;stroke-width:0.5;" width="513.3203" x="1883" y="44.2969"/><ellipse cx="2101.4561" cy="60.2969" fill="#ADD1B2" rx="11" ry="11" style="stroke:#181818;stroke-width:1;"/><path d="M2104.4248,65.9375 Q2103.8467,66.2344 2103.2061,66.375 Q2102.5654,66.5313 2101.8623,66.5313 Q2099.3623,66.5313 2098.0342,64.8906 Q2096.7217,63.2344 2096.7217,60.1094 Q2096.7217,56.9844 2098.0342,55.3281 Q2099.3623,53.6719 2101.8623,53.6719 Q2102.5654,53.6719 2103.2061,53.8281 Q2103.8623,53.9844 2104.4248,54.2813 L2104.4248,57 Q2103.7998,56.4219 2103.2061,56.1563 Q2102.6123,55.875 2101.9873,55.875 Q2100.6436,55.875 2099.9561,56.9531 Q2099.2686,58.0156 2099.2686,60.1094 Q2099.2686,62.2031 2099.9561,63.2813 Q2100.6436,64.3438 2101.9873,64.3438 Q2102.6123,64.3438 2103.2061,64.0781 Q2103.7998,63.7969 2104.4248,63.2188 L2104.4248,65.9375 Z " fill="#000000"/><text fill="#000000" font-family="sans-serif" font-size="14" lengthAdjust="spacing" textLength="67.9082" x="2121.9561" y="65.1436">decorator</text><line style="stroke:#181818;stroke-width:0.5;" x1="1884" x2="2395.3203" y1="76.2969" y2="76.2969"/></g><a href="" target="_top" title="~decorator" xlink:actuate="onRequest" xlink:href="" xlink:show="new" xlink:title="~decorator" xlink:type="simple"><rect fill="#F1F1F1" height="10" style="stroke:transparent;stroke-width:1;" width="20" x="1889" y="84.9453"/><ellipse cx="1894" cy="89.9453" fill="#84BE84" rx="3" ry="3" style="stroke:#038048;stroke-width:1;"/></a></a><a href="" target="_top" title="~decorator" xlink:actuate="onRequest" xlink:href="" xlink:show="new" xlink:title="~decorator" xlink:type="simple"><text fill="#000000" font-family="sans-serif" font-size="14" lengthAdjust="spacing" textLength="203.6973" x="1903" y="93.292">~decorator() = default : void</text></a><line style="stroke:#181818;stroke-width:1;stroke-dasharray:1.0,2.0;" x1="1884" x2="2395.3203" y1="100.5938" y2="100.5938"/><a href="" target="_top" title="Check if decorator applies to a specific diagram." xlink:actuate="onRequest" xlink:href="" xlink:show="new" xlink:title="Check if decorator applies to a specific diagram." xlink:type="simple"><rect fill="#F1F1F1" height="10" style="stroke:transparent;stroke-width:1;" width="20" x="1889" y="109.2422"/><ellipse cx="1894" cy="114.2422" fill="#84BE84" rx="3" ry="3" style="stroke:#038048;stroke-width:1;"/></a><a href="" target="_top" title="Check if decorator applies to a specific diagram." xlink:actuate="onRequest" xlink:href="" xlink:show="new" xlink:title="Check if decorator applies to a specific diagram." xlink:type="simple"><text fill="#000000" font-family="sans-serif" font-size="14" lengthAdjust="spacing" textLength="363.9385" x="1903" y="117.5889">applies_to_diagram(const std::string &amp; name) : bool</text></a><a href="" target="_top" title="Create decorator of specific type based on it's string         representation." xlink:actuate="onRequest" xlink:href="" xlink:show="new" xlink:title="Create decorator of specific type based on it's string         representation." xlink:type="simple"><rect fill="#F1F1F1" height="10" style="stroke:transparent;stroke-width:1;" width="20" x="1889" y="125.5391"/><ellipse cx="1894" cy="130.5391" fill="#84BE84" rx="3" ry="3" style="stroke:#038048;stroke-width:1;"/></a><a href="" target="_top" title="Create decorator of specific type based on it's string         representation." xlink:actuate="onRequest" xlink:href="" xlink:show="new" xlink:title="Create decorator of specific type based on it's string         representation." xlink:type="simple"><text fill="#000000" font-family="sans-serif" font-size="14" lengthAdjust="spacing" text-decoration="underline" textLength="424.9014" x="1903" y="133.8857">from_string(std::string_view c) : std::shared_ptr&lt;decorator&gt;</text></a><a href="" target="_top" title="tokenize" xlink:actuate="onRequest" xlink:href="" xlink:show="new" xlink:title="tokenize" xlink:type="simple"><rect fill="#F1F1F1" height="10" style="stroke:transparent;stroke-width:1;" width="20" x="1889" y="141.8359"/><polygon fill="#FFFF44" points="1894,141.8359,1898,145.8359,1894,149.8359,1890,145.8359" style="stroke:#B38D22;stroke-width:1;"/></a><a href="" target="_top" title="tokenize" xlink:actuate="onRequest" xlink:href="" xlink:show="new" xlink:title="tokenize" xlink:type="simple"><text fill="#000000" font-family="sans-serif" font-size="14" lengthAdjust="spacing" textLength="487.3203" x="1903" y="150.1826">tokenize(const std::string &amp; label, std::string_view c) : decorator_toks</text></a><line style="stroke:#181818;stroke-width:0.5;" x1="1884" x2="2395.3203" y1="157.4844" y2="157.4844"/><a href="" target="_top" title="diagrams" xlink:actuate="onRequest" xlink:href="" xlink:show="new" xlink:title="diagrams" xlink:type="simple"><rect fill="#F1F1F1" height="10" style="stroke:transparent;stroke-width:1;" width="20" x="1889" y="166.1328"/><ellipse cx="1894" cy="171.1328" fill="transparent" rx="3" ry="3" style="stroke:#038048;stroke-width:1;"/></a><a href="" target="_top" title="diagrams" xlink:actuate="onRequest" xlink:href="" xlink:show="new" xlink:title="diagrams" xlink:type="simple"><text fill="#000000" font-family="sans-serif" font-size="14" lengthAdjust="spacing" textLength="249.3887" x="1903" y="174.4795">diagrams : std::vector&lt;std::string&gt;</text></a><!--class C_0010778179862502434199--><a href="structclanguml_1_1decorators_1_1note.html" target="_top" title="Represents a note diagram element" xlink:actuate="onRequest" xlink:href="structclanguml_1_1decorators_1_1note.html" xlink:show="new" xlink:title="Represents a note diagram element" xlink:type="simple"><g id="elem_C_0010778179862502434199"><rect codeLine="21" fill="#F1F1F1" height="113.1875" id="C_0010778179862502434199" rx="2.5" ry="2.5" style="stroke:#181818;stroke-width:0.5;" width="450.9014" x="317" y="241.2969"/><ellipse cx="522.4302" cy="257.2969" fill="#ADD1B2" rx="11" ry="11" style="stroke:#181818;stroke-width:1;"/><path d="M525.3989,262.9375 Q524.8208,263.2344 524.1802,263.375 Q523.5396,263.5313 522.8364,263.5313 Q520.3364,263.5313 519.0083,261.8906 Q517.6958,260.2344 517.6958,257.1094 Q517.6958,253.9844 519.0083,252.3281 Q520.3364,250.6719 522.8364,250.6719 Q523.5396,250.6719 524.1802,250.8281 Q524.8364,250.9844 525.3989,251.2813 L525.3989,254 Q524.7739,253.4219 524.1802,253.1563 Q523.5864,252.875 522.9614,252.875 Q521.6177,252.875 520.9302,253.9531 Q520.2427,255.0156 520.2427,257.1094 Q520.2427,259.2031 520.9302,260.2813 Q521.6177,261.3438 522.9614,261.3438 Q523.5864,261.3438 524.1802,261.0781 Q524.7739,260.7969 525.3989,260.2188 L525.3989,262.9375 Z " fill="#000000"/><text fill="#000000" font-family="sans-serif" font-size="14" lengthAdjust="spacing" textLength="31.541" x="542.9302" y="262.1436">note</text><line style="stroke:#181818;stroke-width:0.5;" x1="318" x2="766.9014" y1="273.2969" y2="273.2969"/></g><a href="" target="_top" title="from_string" xlink:actuate="onRequest" xlink:href="" xlink:show="new" xlink:title="from_string" xlink:type="simple"><rect fill="#F1F1F1" height="10" style="stroke:transparent;stroke-width:1;" width="20" x="323" y="281.9453"/><ellipse cx="328" cy="286.9453" fill="#84BE84" rx="3" ry="3" style="stroke:#038048;stroke-width:1;"/></a></a><a href="" target="_top" title="from_string" xlink:actuate="onRequest" xlink:href="" xlink:show="new" xlink:title="from_string" xlink:type="simple"><text fill="#000000" font-family="sans-serif" font-size="14" lengthAdjust="spacing" text-decoration="underline" textLength="424.9014" x="337" y="290.292">from_string(std::string_view c) : std::shared_ptr&lt;decorator&gt;</text></a><line style="stroke:#181818;stroke-width:0.5;" x1="318" x2="766.9014" y1="297.5938" y2="297.5938"/><a href="" target="_top" title="label" xlink:actuate="onRequest" xlink:href="" xlink:show="new" xlink:title="label" xlink:type="simple"><rect fill="#F1F1F1" height="10" style="stroke:transparent;stroke-width:1;" width="20" x="323" y="306.2422"/><ellipse cx="328" cy="311.2422" fill="transparent" rx="3" ry="3" style="stroke:#038048;stroke-width:1;"/></a><a href="" target="_top" title="label" xlink:actuate="onRequest" xlink:href="" xlink:show="new" xlink:title="label" xlink:type="simple"><text fill="#000000" font-family="sans-serif" font-size="14" lengthAdjust="spacing" text-decoration="underline" textLength="161.1367" x="337" y="314.5889">label : const std::string</text></a><a href="" target="_top" title="position" xlink:actuate="onRequest" xlink:href="" xlink:show="new" xlink:title="position" xlink:type="simple"><rect fill="#F1F1F1" height="10" style="stroke:transparent;stroke-width:1;" width="20" x="323" y="322.5391"/><ellipse cx="328" cy="327.5391" fill="transparent" rx="3" ry="3" style="stroke:#038048;stroke-width:1;"/></a><a href="" target="_top" title="position" xlink:actuate="onRequest" xlink:href="" xlink:show="new" xlink:title="position" xlink:type="simple"><text fill="#000000" font-family="sans-serif" font-size="14" lengthAdjust="spacing" textLength="140.3623" x="337" y="330.8857">position : std::string</text></a><a href="" target="_top" title="text" xlink:actuate="onRequest" xlink:href="" xlink:show="new" xlink:title="text" xlink:type="simple"><rect fill="#F1F1F1" height="10" style="stroke:transparent;stroke-width:1;" width="20" x="323" y="338.8359"/><ellipse cx="328" cy="343.8359" fill="transparent" rx="3" ry="3" style="stroke:#038048;stroke-width:1;"/></a><a href="" target="_top" title="text" xlink:actuate="onRequest" xlink:href="" xlink:show="new" xlink:title="text" xlink:type="simple"><text fill="#000000" font-family="sans-serif" font-size="14" lengthAdjust="spacing" textLength="112.7861" x="337" y="347.1826">text : std::string</text></a><!--class C_0011699799578039589457--><a href="structclanguml_1_1decorators_1_1skip.html" target="_top" title="Whether a decorated element should be skipped from a diagram" xlink:actuate="onRequest" xlink:href="structclanguml_1_1decorators_1_1skip.html" xlink:show="new" xlink:title="Whether a decorated element should be skipped from a diagram" xlink:type="simple"><g id="elem_C_0011699799578039589457"><rect codeLine="29" fill="#F1F1F1" height="80.5938" id="C_0011699799578039589457" rx="2.5" ry="2.5" style="stroke:#181818;stroke-width:0.5;" width="450.9014" x="803" y="257.2969"/><ellipse cx="1010.1118" cy="273.2969" fill="#ADD1B2" rx="11" ry="11" style="stroke:#181818;stroke-width:1;"/><path d="M1013.0806,278.9375 Q1012.5024,279.2344 1011.8618,279.375 Q1011.2212,279.5313 1010.5181,279.5313 Q1008.0181,279.5313 1006.6899,277.8906 Q1005.3774,276.2344 1005.3774,273.1094 Q1005.3774,269.9844 1006.6899,268.3281 Q1008.0181,266.6719 1010.5181,266.6719 Q1011.2212,266.6719 1011.8618,266.8281 Q1012.5181,266.9844 1013.0806,267.2813 L1013.0806,270 Q1012.4556,269.4219 1011.8618,269.1563 Q1011.2681,268.875 1010.6431,268.875 Q1009.2993,268.875 1008.6118,269.9531 Q1007.9243,271.0156 1007.9243,273.1094 Q1007.9243,275.2031 1008.6118,276.2813 Q1009.2993,277.3438 1010.6431,277.3438 Q1011.2681,277.3438 1011.8618,277.0781 Q1012.4556,276.7969 1013.0806,276.2188 L1013.0806,278.9375 Z " fill="#000000"/><text fill="#000000" font-family="sans-serif" font-size="14" lengthAdjust="spacing" textLength="28.1777" x="1030.6118" y="278.1436">skip</text><line style="stroke:#181818;stroke-width:0.5;" x1="804" x2="1252.9014" y1="289.2969" y2="289.2969"/></g><a href="" target="_top" title="from_string" xlink:actuate="onRequest" xlink:href="" xlink:show="new" xlink:title="from_string" xlink:type="simple"><rect fill="#F1F1F1" height="10" style="stroke:transparent;stroke-width:1;" width="20" x="809" y="297.9453"/><ellipse cx="814" cy="302.9453" fill="#84BE84" rx="3" ry="3" style="stroke:#038048;stroke-width:1;"/></a></a><a href="" target="_top" title="from_string" xlink:actuate="onRequest" xlink:href="" xlink:show="new" xlink:title="from_string" xlink:type="simple"><text fill="#000000" font-family="sans-serif" font-size="14" lengthAdjust="spacing" text-decoration="underline" textLength="424.9014" x="823" y="306.292">from_string(std::string_view c) : std::shared_ptr&lt;decorator&gt;</text></a><line style="stroke:#181818;stroke-width:0.5;" x1="804" x2="1252.9014" y1="313.5938" y2="313.5938"/><a href="" target="_top" title="label" xlink:actuate="onRequest" xlink:href="" xlink:show="new" xlink:title="label" xlink:type="simple"><rect fill="#F1F1F1" height="10" style="stroke:transparent;stroke-width:1;" width="20" x="809" y="322.2422"/><ellipse cx="814" cy="327.2422" fill="transparent" rx="3" ry="3" style="stroke:#038048;stroke-width:1;"/></a><a href="" target="_top" title="label" xlink:actuate="onRequest" xlink:href="" xlink:show="new" xlink:title="label" xlink:type="simple"><text fill="#000000" font-family="sans-serif" font-size="14" lengthAdjust="spacing" text-decoration="underline" textLength="161.1367" x="823" y="330.5889">label : const std::string</text></a><!--class C_0005483423442928590005--><a href="structclanguml_1_1decorators_1_1skip__relationship.html" target="_top" title="Whether a decorated relationships should be skipped from a diagram" xlink:actuate="onRequest" xlink:href="structclanguml_1_1decorators_1_1skip__relationship.html" xlink:show="new" xlink:title="Whether a decorated relationships should be skipped from a diagram" xlink:type="simple"><g id="elem_C_0005483423442928590005"><rect codeLine="35" fill="#F1F1F1" height="80.5938" id="C_0005483423442928590005" rx="2.5" ry="2.5" style="stroke:#181818;stroke-width:0.5;" width="450.9014" x="1289" y="257.2969"/><ellipse cx="1451.3125" cy="273.2969" fill="#ADD1B2" rx="11" ry="11" style="stroke:#181818;stroke-width:1;"/><path d="M1454.2813,278.9375 Q1453.7031,279.2344 1453.0625,279.375 Q1452.4219,279.5313 1451.7188,279.5313 Q1449.2188,279.5313 1447.8906,277.8906 Q1446.5781,276.2344 1446.5781,273.1094 Q1446.5781,269.9844 1447.8906,268.3281 Q1449.2188,266.6719 1451.7188,266.6719 Q1452.4219,266.6719 1453.0625,266.8281 Q1453.7188,266.9844 1454.2813,267.2813 L1454.2813,270 Q1453.6563,269.4219 1453.0625,269.1563 Q1452.4688,268.875 1451.8438,268.875 Q1450.5,268.875 1449.8125,269.9531 Q1449.125,271.0156 1449.125,273.1094 Q1449.125,275.2031 1449.8125,276.2813 Q1450.5,277.3438 1451.8438,277.3438 Q1452.4688,277.3438 1453.0625,277.0781 Q1453.6563,276.7969 1454.2813,276.2188 L1454.2813,278.9375 Z " fill="#000000"/><text fill="#000000" font-family="sans-serif" font-size="14" lengthAdjust="spacing" textLength="117.7764" x="1471.8125" y="278.1436">skip_relationship</text><line style="stroke:#181818;stroke-width:0.5;" x1="1290" x2="1738.9014" y1="289.2969" y2="289.2969"/></g><a href="" target="_top" title="from_string" xlink:actuate="onRequest" xlink:href="" xlink:show="new" xlink:title="from_string" xlink:type="simple"><rect fill="#F1F1F1" height="10" style="stroke:transparent;stroke-width:1;" width="20" x="1295" y="297.9453"/><ellipse cx="1300" cy="302.9453" fill="#84BE84" rx="3" ry="3" style="stroke:#038048;stroke-width:1;"/></a></a><a href="" target="_top" title="from_string" xlink:actuate="onRequest" xlink:href="" xlink:show="new" xlink:title="from_string" xlink:type="simple"><text fill="#000000" font-family="sans-serif" font-size="14" lengthAdjust="spacing" text-decoration="underline" textLength="424.9014" x="1309" y="306.292">from_string(std::string_view c) : std::shared_ptr&lt;decorator&gt;</text></a><line style="stroke:#181818;stroke-width:0.5;" x1="1290" x2="1738.9014" y1="313.5938" y2="313.5938"/><a href="" target="_top" title="label" xlink:actuate="onRequest" xlink:href="" xlink:show="new" xlink:title="label" xlink:type="simple"><rect fill="#F1F1F1" height="10" style="stroke:transparent;stroke-width:1;" width="20" x="1295" y="322.2422"/><ellipse cx="1300" cy="327.2422" fill="transparent" rx="3" ry="3" style="stroke:#038048;stroke-width:1;"/></a><a href="" target="_top" title="label" xlink:actuate="onRequest" xlink:href="" xlink:show="new" xlink:title="label" xlink:type="simple"><text fill="#000000" font-family="sans-serif" font-size="14" lengthAdjust="spacing" text-decoration="underline" textLength="161.1367" x="1309" y="330.5889">label : const std::string</text></a><!--class C_0000930157982943964440--><a href="structclanguml_1_1decorators_1_1style.html" target="_top" title="Apply specific style to a decorated diagram element" xlink:actuate="onRequest" xlink:href="structclanguml_1_1decorators_1_1style.html" xlink:show="new" xlink:title="Apply specific style to a decorated diagram element" xlink:type="simple"><g id="elem_C_0000930157982943964440"><rect codeLine="41" fill="#F1F1F1" height="96.8906" id="C_0000930157982943964440" rx="2.5" ry="2.5" style="stroke:#181818;stroke-width:0.5;" width="450.9014" x="1775" y="249.2969"/><ellipse cx="1979.415" cy="265.2969" fill="#ADD1B2" rx="11" ry="11" style="stroke:#181818;stroke-width:1;"/><path d="M1982.3838,270.9375 Q1981.8057,271.2344 1981.165,271.375 Q1980.5244,271.5313 1979.8213,271.5313 Q1977.3213,271.5313 1975.9932,269.8906 Q1974.6807,268.2344 1974.6807,265.1094 Q1974.6807,261.9844 1975.9932,260.3281 Q1977.3213,258.6719 1979.8213,258.6719 Q1980.5244,258.6719 1981.165,258.8281 Q1981.8213,258.9844 1982.3838,259.2813 L1982.3838,262 Q1981.7588,261.4219 1981.165,261.1563 Q1980.5713,260.875 1979.9463,260.875 Q1978.6025,260.875 1977.915,261.9531 Q1977.2275,263.0156 1977.2275,265.1094 Q1977.2275,267.2031 1977.915,268.2813 Q1978.6025,269.3438 1979.9463,269.3438 Q1980.5713,269.3438 1981.165,269.0781 Q1981.7588,268.7969 1982.3838,268.2188 L1982.3838,270.9375 Z " fill="#000000"/><text fill="#000000" font-family="sans-serif" font-size="14" lengthAdjust="spacing" textLength="33.5713" x="1999.915" y="270.1436">style</text><line style="stroke:#181818;stroke-width:0.5;" x1="1776" x2="2224.9014" y1="281.2969" y2="281.2969"/></g><a href="" target="_top" title="from_string" xlink:actuate="onRequest" xlink:href="" xlink:show="new" xlink:title="from_string" xlink:type="simple"><rect fill="#F1F1F1" height="10" style="stroke:transparent;stroke-width:1;" width="20" x="1781" y="289.9453"/><ellipse cx="1786" cy="294.9453" fill="#84BE84" rx="3" ry="3" style="stroke:#038048;stroke-width:1;"/></a></a><a href="" target="_top" title="from_string" xlink:actuate="onRequest" xlink:href="" xlink:show="new" xlink:title="from_string" xlink:type="simple"><text fill="#000000" font-family="sans-serif" font-size="14" lengthAdjust="spacing" text-decoration="underline" textLength="424.9014" x="1795" y="298.292">from_string(std::string_view c) : std::shared_ptr&lt;decorator&gt;</text></a><line style="stroke:#181818;stroke-width:0.5;" x1="1776" x2="2224.9014" y1="305.5938" y2="305.5938"/><a href="" target="_top" title="label" xlink:actuate="onRequest" xlink:href="" xlink:show="new" xlink:title="label" xlink:type="simple"><rect fill="#F1F1F1" height="10" style="stroke:transparent;stroke-width:1;" width="20" x="1781" y="314.2422"/><ellipse cx="1786" cy="319.2422" fill="transparent" rx="3" ry="3" style="stroke:#038048;stroke-width:1;"/></a><a href="" target="_top" title="label" xlink:actuate="onRequest" xlink:href="" xlink:show="new" xlink:title="label" xlink:type="simple"><text fill="#000000" font-family="sans-serif" font-size="14" lengthAdjust="spacing" text-decoration="underline" textLength="161.1367" x="1795" y="322.5889">label : const std::string</text></a><a href="" target="_top" title="spec" xlink:actuate="onRequest" xlink:href="" xlink:show="new" xlink:title="spec" xlink:type="simple"><rect fill="#F1F1F1" height="10" style="stroke:transparent;stroke-width:1;" width="20" x="1781" y="330.5391"/><ellipse cx="1786" cy="335.5391" fill="transparent" rx="3" ry="3" style="stroke:#038048;stroke-width:1;"/></a><a href="" target="_top" title="spec" xlink:actuate="onRequest" xlink:href="" xlink:show="new" xlink:title="spec" xlink:type="simple"><text fill="#000000" font-family="sans-serif" font-size="14" lengthAdjust="spacing" textLength="117.4004" x="1795" y="338.8857">spec : std::string</text></a><!--class C_0012610210265153062981--><a href="structclanguml_1_1decorators_1_1relationship.html" target="_top" title="Base class for decorators overriding default relationship types" xlink:actuate="onRequest" xlink:href="structclanguml_1_1decorators_1_1relationship.html" xlink:show="new" xlink:title="Base class for decorators overriding default relationship types" xlink:type="simple"><g id="elem_C_0012610210265153062981"><rect codeLine="48" fill="#F1F1F1" height="64.2969" id="C_0012610210265153062981" rx="2.5" ry="2.5" style="stroke:#181818;stroke-width:0.5;" width="188.7158" x="2333" y="265.7969"/><ellipse cx="2381.8086" cy="281.7969" fill="#ADD1B2" rx="11" ry="11" style="stroke:#181818;stroke-width:1;"/><path d="M2384.7773,287.4375 Q2384.1992,287.7344 2383.5586,287.875 Q2382.918,288.0313 2382.2148,288.0313 Q2379.7148,288.0313 2378.3867,286.3906 Q2377.0742,284.7344 2377.0742,281.6094 Q2377.0742,278.4844 2378.3867,276.8281 Q2379.7148,275.1719 2382.2148,275.1719 Q2382.918,275.1719 2383.5586,275.3281 Q2384.2148,275.4844 2384.7773,275.7813 L2384.7773,278.5 Q2384.1523,277.9219 2383.5586,277.6563 Q2382.9648,277.375 2382.3398,277.375 Q2380.9961,277.375 2380.3086,278.4531 Q2379.6211,279.5156 2379.6211,281.6094 Q2379.6211,283.7031 2380.3086,284.7813 Q2380.9961,285.8438 2382.3398,285.8438 Q2382.9648,285.8438 2383.5586,285.5781 Q2384.1523,285.2969 2384.7773,284.7188 L2384.7773,287.4375 Z " fill="#000000"/><text fill="#000000" font-family="sans-serif" font-size="14" lengthAdjust="spacing" textLength="82.5986" x="2402.3086" y="286.6436">relationship</text><line style="stroke:#181818;stroke-width:0.5;" x1="2334" x2="2520.7158" y1="297.7969" y2="297.7969"/><line style="stroke:#181818;stroke-width:0.5;" x1="2334" x2="2520.7158" y1="305.7969" y2="305.7969"/></g><a href="" target="_top" title="multiplicity" xlink:actuate="onRequest" xlink:href="" xlink:show="new" xlink:title="multiplicity" xlink:type="simple"><rect fill="#F1F1F1" height="10" style="stroke:transparent;stroke-width:1;" width="20" x="2339" y="314.4453"/><ellipse cx="2344" cy="319.4453" fill="transparent" rx="3" ry="3" style="stroke:#038048;stroke-width:1;"/></a></a><a href="" target="_top" title="multiplicity" xlink:actuate="onRequest" xlink:href="" xlink:show="new" xlink:title="multiplicity" xlink:type="simple"><text fill="#000000" font-family="sans-serif" font-size="14" lengthAdjust="spacing" textLength="162.7158" x="2353" y="322.792">multiplicity : std::string</text></a><!--class C_0001407839604537107907--><a href="structclanguml_1_1decorators_1_1aggregation.html" target="_top" title="Make a member an aggregation relationship" xlink:actuate="onRequest" xlink:href="structclanguml_1_1decorators_1_1aggregation.html" xlink:show="new" xlink:title="Make a member an aggregation relationship" xlink:type="simple"><g id="elem_C_0001407839604537107907"><rect codeLine="53" fill="#F1F1F1" height="80.5938" id="C_0001407839604537107907" rx="2.5" ry="2.5" style="stroke:#181818;stroke-width:0.5;" width="450.9014" x="1790" y="414.2969"/><ellipse cx="1968.6982" cy="430.2969" fill="#ADD1B2" rx="11" ry="11" style="stroke:#181818;stroke-width:1;"/><path d="M1971.667,435.9375 Q1971.0889,436.2344 1970.4482,436.375 Q1969.8076,436.5313 1969.1045,436.5313 Q1966.6045,436.5313 1965.2764,434.8906 Q1963.9639,433.2344 1963.9639,430.1094 Q1963.9639,426.9844 1965.2764,425.3281 Q1966.6045,423.6719 1969.1045,423.6719 Q1969.8076,423.6719 1970.4482,423.8281 Q1971.1045,423.9844 1971.667,424.2813 L1971.667,427 Q1971.042,426.4219 1970.4482,426.1563 Q1969.8545,425.875 1969.2295,425.875 Q1967.8857,425.875 1967.1982,426.9531 Q1966.5107,428.0156 1966.5107,430.1094 Q1966.5107,432.2031 1967.1982,433.2813 Q1967.8857,434.3438 1969.2295,434.3438 Q1969.8545,434.3438 1970.4482,434.0781 Q1971.042,433.7969 1971.667,433.2188 L1971.667,435.9375 Z " fill="#000000"/><text fill="#000000" font-family="sans-serif" font-size="14" lengthAdjust="spacing" textLength="85.0049" x="1989.1982" y="435.1436">aggregation</text><line style="stroke:#181818;stroke-width:0.5;" x1="1791" x2="2239.9014" y1="446.2969" y2="446.2969"/></g><a href="" target="_top" title="from_string" xlink:actuate="onRequest" xlink:href="" xlink:show="new" xlink:title="from_string" xlink:type="simple"><rect fill="#F1F1F1" height="10" style="stroke:transparent;stroke-width:1;" width="20" x="1796" y="454.9453"/><ellipse cx="1801" cy="459.9453" fill="#84BE84" rx="3" ry="3" style="stroke:#038048;stroke-width:1;"/></a></a><a href="" target="_top" title="from_string" xlink:actuate="onRequest" xlink:href="" xlink:show="new" xlink:title="from_string" xlink:type="simple"><text fill="#000000" font-family="sans-serif" font-size="14" lengthAdjust="spacing" text-decoration="underline" textLength="424.9014" x="1810" y="463.292">from_string(std::string_view c) : std::shared_ptr&lt;decorator&gt;</text></a><line style="stroke:#181818;stroke-width:0.5;" x1="1791" x2="2239.9014" y1="470.5938" y2="470.5938"/><a href="" target="_top" title="label" xlink:actuate="onRequest" xlink:href="" xlink:show="new" xlink:title="label" xlink:type="simple"><rect fill="#F1F1F1" height="10" style="stroke:transparent;stroke-width:1;" width="20" x="1796" y="479.2422"/><ellipse cx="1801" cy="484.2422" fill="transparent" rx="3" ry="3" style="stroke:#038048;stroke-width:1;"/></a><a href="" target="_top" title="label" xlink:actuate="onRequest" xlink:href="" xlink:show="new" xlink:title="label" xlink:type="simple"><text fill="#000000" font-family="sans-serif" font-size="14" lengthAdjust="spacing" text-decoration="underline" textLength="161.1367" x="1810" y="487.5889">label : const std::string</text></a><!--class C_0008231288131936536429--><a href="structclanguml_1_1decorators_1_1composition.html" target="_top" title="Make a member a composition relationship" xlink:actuate="onRequest" xlink:href="structclanguml_1_1decorators_1_1composition.html" xlink:show="new" xlink:title="Make a member a composition relationship" xlink:type="simple"><g id="elem_C_0008231288131936536429"><rect codeLine="59" fill="#F1F1F1" height="80.5938" id="C_0008231288131936536429" rx="2.5" ry="2.5" style="stroke:#181818;stroke-width:0.5;" width="450.9014" x="2276" y="414.2969"/><ellipse cx="2454.5239" cy="430.2969" fill="#ADD1B2" rx="11" ry="11" style="stroke:#181818;stroke-width:1;"/><path d="M2457.4927,435.9375 Q2456.9146,436.2344 2456.2739,436.375 Q2455.6333,436.5313 2454.9302,436.5313 Q2452.4302,436.5313 2451.1021,434.8906 Q2449.7896,433.2344 2449.7896,430.1094 Q2449.7896,426.9844 2451.1021,425.3281 Q2452.4302,423.6719 2454.9302,423.6719 Q2455.6333,423.6719 2456.2739,423.8281 Q2456.9302,423.9844 2457.4927,424.2813 L2457.4927,427 Q2456.8677,426.4219 2456.2739,426.1563 Q2455.6802,425.875 2455.0552,425.875 Q2453.7114,425.875 2453.0239,426.9531 Q2452.3364,428.0156 2452.3364,430.1094 Q2452.3364,432.2031 2453.0239,433.2813 Q2453.7114,434.3438 2455.0552,434.3438 Q2455.6802,434.3438 2456.2739,434.0781 Q2456.8677,433.7969 2457.4927,433.2188 L2457.4927,435.9375 Z " fill="#000000"/><text fill="#000000" font-family="sans-serif" font-size="14" lengthAdjust="spacing" textLength="85.3535" x="2475.0239" y="435.1436">composition</text><line style="stroke:#181818;stroke-width:0.5;" x1="2277" x2="2725.9014" y1="446.2969" y2="446.2969"/></g><a href="" target="_top" title="from_string" xlink:actuate="onRequest" xlink:href="" xlink:show="new" xlink:title="from_string" xlink:type="simple"><rect fill="#F1F1F1" height="10" style="stroke:transparent;stroke-width:1;" width="20" x="2282" y="454.9453"/><ellipse cx="2287" cy="459.9453" fill="#84BE84" rx="3" ry="3" style="stroke:#038048;stroke-width:1;"/></a></a><a href="" target="_top" title="from_string" xlink:actuate="onRequest" xlink:href="" xlink:show="new" xlink:title="from_string" xlink:type="simple"><text fill="#000000" font-family="sans-serif" font-size="14" lengthAdjust="spacing" text-decoration="underline" textLength="424.9014" x="2296" y="463.292">from_string(std::string_view c) : std::shared_ptr&lt;decorator&gt;</text></a><line style="stroke:#181818;stroke-width:0.5;" x1="2277" x2="2725.9014" y1="470.5938" y2="470.5938"/><a href="" target="_top" title="label" xlink:actuate="onRequest" xlink:href="" xlink:show="new" xlink:title="label" xlink:type="simple"><rect fill="#F1F1F1" height="10" style="stroke:transparent;stroke-width:1;" width="20" x="2282" y="479.2422"/><ellipse cx="2287" cy="484.2422" fill="transparent" rx="3" ry="3" style="stroke:#038048;stroke-width:1;"/></a><a href="" target="_top" title="label" xlink:actuate="onRequest" xlink:href="" xlink:show="new" xlink:title="label" xlink:type="simple"><text fill="#000000" font-family="sans-serif" font-size="14" lengthAdjust="spacing" text-decoration="underline" textLength="161.1367" x="2296" y="487.5889">label : const std::string</text></a><!--class C_0012273947195655594120--><a href="structclanguml_1_1decorators_1_1association.html" target="_top" title="Make a member an association relationship" xlink:actuate="onRequest" xlink:href="structclanguml_1_1decorators_1_1association.html" xlink:show="new" xlink:title="Make a member an association relationship" xlink:type="simple"><g id="elem_C_0012273947195655594120"><rect codeLine="65" fill="#F1F1F1" height="80.5938" id="C_0012273947195655594120" rx="2.5" ry="2.5" style="stroke:#181818;stroke-width:0.5;" width="450.9014" x="2762" y="414.2969"/><ellipse cx="2943.8428" cy="430.2969" fill="#ADD1B2" rx="11" ry="11" style="stroke:#181818;stroke-width:1;"/><path d="M2946.8115,435.9375 Q2946.2334,436.2344 2945.5928,436.375 Q2944.9521,436.5313 2944.249,436.5313 Q2941.749,436.5313 2940.4209,434.8906 Q2939.1084,433.2344 2939.1084,430.1094 Q2939.1084,426.9844 2940.4209,425.3281 Q2941.749,423.6719 2944.249,423.6719 Q2944.9521,423.6719 2945.5928,423.8281 Q2946.249,423.9844 2946.8115,424.2813 L2946.8115,427 Q2946.1865,426.4219 2945.5928,426.1563 Q2944.999,425.875 2944.374,425.875 Q2943.0303,425.875 2942.3428,426.9531 Q2941.6553,428.0156 2941.6553,430.1094 Q2941.6553,432.2031 2942.3428,433.2813 Q2943.0303,434.3438 2944.374,434.3438 Q2944.999,434.3438 2945.5928,434.0781 Q2946.1865,433.7969 2946.8115,433.2188 L2946.8115,435.9375 Z " fill="#000000"/><text fill="#000000" font-family="sans-serif" font-size="14" lengthAdjust="spacing" textLength="78.7158" x="2964.3428" y="435.1436">association</text><line style="stroke:#181818;stroke-width:0.5;" x1="2763" x2="3211.9014" y1="446.2969" y2="446.2969"/></g><a href="" target="_top" title="from_string" xlink:actuate="onRequest" xlink:href="" xlink:show="new" xlink:title="from_string" xlink:type="simple"><rect fill="#F1F1F1" height="10" style="stroke:transparent;stroke-width:1;" width="20" x="2768" y="454.9453"/><ellipse cx="2773" cy="459.9453" fill="#84BE84" rx="3" ry="3" style="stroke:#038048;stroke-width:1;"/></a></a><a href="" target="_top" title="from_string" xlink:actuate="onRequest" xlink:href="" xlink:show="new" xlink:title="from_string" xlink:type="simple"><text fill="#000000" font-family="sans-serif" font-size="14" lengthAdjust="spacing" text-decoration="underline" textLength="424.9014" x="2782" y="463.292">from_string(std::string_view c) : std::shared_ptr&lt;decorator&gt;</text></a><line style="stroke:#181818;stroke-width:0.5;" x1="2763" x2="3211.9014" y1="470.5938" y2="470.5938"/><a href="" target="_top" title="label" xlink:actuate="onRequest" xlink:href="" xlink:show="new" xlink:title="label" xlink:type="simple"><rect fill="#F1F1F1" height="10" style="stroke:transparent;stroke-width:1;" width="20" x="2768" y="479.2422"/><ellipse cx="2773" cy="484.2422" fill="transparent" rx="3" ry="3" style="stroke:#038048;stroke-width:1;"/></a><a href="" target="_top" title="label" xlink:actuate="onRequest" xlink:href="" xlink:show="new" xlink:title="label" xlink:type="simple"><text fill="#000000" font-family="sans-serif" font-size="14" lengthAdjust="spacing" text-decoration="underline" textLength="161.1367" x="2782" y="487.5889">label : const std::string</text></a><!--class C_0002849822360015908928--><a href="structclanguml_1_1decorators_1_1call.html" target="_top" title="Represents a call message in sequence diagram" xlink:actuate="onRequest" xlink:href="structclanguml_1_1decorators_1_1call.html" xlink:show="new" xlink:title="Represents a call message in sequence diagram" xlink:type="simple"><g id="elem_C_0002849822360015908928"><rect codeLine="71" fill="#F1F1F1" height="96.8906" id="C_0002849822360015908928" rx="2.5" ry="2.5" style="stroke:#181818;stroke-width:0.5;" width="450.9014" x="2700" y="249.2969"/><ellipse cx="2909.1729" cy="265.2969" fill="#ADD1B2" rx="11" ry="11" style="stroke:#181818;stroke-width:1;"/><path d="M2912.1416,270.9375 Q2911.5635,271.2344 2910.9229,271.375 Q2910.2822,271.5313 2909.5791,271.5313 Q2907.0791,271.5313 2905.751,269.8906 Q2904.4385,268.2344 2904.4385,265.1094 Q2904.4385,261.9844 2905.751,260.3281 Q2907.0791,258.6719 2909.5791,258.6719 Q2910.2822,258.6719 2910.9229,258.8281 Q2911.5791,258.9844 2912.1416,259.2813 L2912.1416,262 Q2911.5166,261.4219 2910.9229,261.1563 Q2910.3291,260.875 2909.7041,260.875 Q2908.3604,260.875 2907.6729,261.9531 Q2906.9854,263.0156 2906.9854,265.1094 Q2906.9854,267.2031 2907.6729,268.2813 Q2908.3604,269.3438 2909.7041,269.3438 Q2910.3291,269.3438 2910.9229,269.0781 Q2911.5166,268.7969 2912.1416,268.2188 L2912.1416,270.9375 Z " fill="#000000"/><text fill="#000000" font-family="sans-serif" font-size="14" lengthAdjust="spacing" textLength="24.0557" x="2929.6729" y="270.1436">call</text><line style="stroke:#181818;stroke-width:0.5;" x1="2701" x2="3149.9014" y1="281.2969" y2="281.2969"/></g><a href="" target="_top" title="from_string" xlink:actuate="onRequest" xlink:href="" xlink:show="new" xlink:title="from_string" xlink:type="simple"><rect fill="#F1F1F1" height="10" style="stroke:transparent;stroke-width:1;" width="20" x="2706" y="289.9453"/><ellipse cx="2711" cy="294.9453" fill="#84BE84" rx="3" ry="3" style="stroke:#038048;stroke-width:1;"/></a></a><a href="" target="_top" title="from_string" xlink:actuate="onRequest" xlink:href="" xlink:show="new" xlink:title="from_string" xlink:type="simple"><text fill="#000000" font-family="sans-serif" font-size="14" lengthAdjust="spacing" text-decoration="underline" textLength="424.9014" x="2720" y="298.292">from_string(std::string_view c) : std::shared_ptr&lt;decorator&gt;</text></a><line style="stroke:#181818;stroke-width:0.5;" x1="2701" x2="3149.9014" y1="305.5938" y2="305.5938"/><a href="" target="_top" title="callee" xlink:actuate="onRequest" xlink:href="" xlink:show="new" xlink:title="callee" xlink:type="simple"><rect fill="#F1F1F1" height="10" style="stroke:transparent;stroke-width:1;" width="20" x="2706" y="314.2422"/><ellipse cx="2711" cy="319.2422" fill="transparent" rx="3" ry="3" style="stroke:#038048;stroke-width:1;"/></a><a href="" target="_top" title="callee" xlink:actuate="onRequest" xlink:href="" xlink:show="new" xlink:title="callee" xlink:type="simple"><text fill="#000000" font-family="sans-serif" font-size="14" lengthAdjust="spacing" textLength="126.1914" x="2720" y="322.5889">callee : std::string</text></a><a href="" target="_top" title="label" xlink:actuate="onRequest" xlink:href="" xlink:show="new" xlink:title="label" xlink:type="simple"><rect fill="#F1F1F1" height="10" style="stroke:transparent;stroke-width:1;" width="20" x="2706" y="330.5391"/><ellipse cx="2711" cy="335.5391" fill="transparent" rx="3" ry="3" style="stroke:#038048;stroke-width:1;"/></a><a href="" target="_top" title="label" xlink:actuate="onRequest" xlink:href="" xlink:show="new" xlink:title="label" xlink:type="simple"><text fill="#000000" font-family="sans-serif" font-size="14" lengthAdjust="spacing" text-decoration="underline" textLength="161.1367" x="2720" y="338.8857">label : const std::string</text></a><!--link C_0008315850039397130669 to C_0004258409881394706889--><a href="" target="_top" title="" xlink:actuate="onRequest" xlink:href="" xlink:show="new" xlink:title="" xlink:type="simple"><path codeLine="77" d="M1882.65,122.8869 C1450.04,139.6669 594.4,179.5169 299.5,241.2969 C293.77,242.4969 293.7632,242.3812 287.9332,243.8712 " fill="transparent" id="C_0008315850039397130669-to-C_0004258409881394706889" style="stroke:#181818;stroke-width:1;stroke-dasharray:7.0,7.0;"/><polygon fill="#181818" points="282.12,245.3569,291.8302,247.0038,286.9643,244.1188,289.8493,239.2529,282.12,245.3569" style="stroke:#181818;stroke-width:1;"/></a><!--reverse link C_0008315850039397130669 to C_0010778179862502434199--><g id="link_C_0008315850039397130669_C_0010778179862502434199"><path codeLine="78" d="M1864.7964,129.1007 C1591.5264,146.5007 1165.05,180.3469 785.5,241.2969 C779.73,242.2269 773.9,243.2069 768.02,244.2369 " fill="transparent" id="C_0008315850039397130669-backto-C_0010778179862502434199" style="stroke:#181818;stroke-width:1;"/><polygon fill="transparent" points="1882.76,127.9569,1864.4151,123.1128,1865.1776,135.0886,1882.76,127.9569" style="stroke:#181818;stroke-width:1;"/></g><!--reverse link C_0008315850039397130669 to C_0011699799578039589457--><g id="link_C_0008315850039397130669_C_0011699799578039589457"><path codeLine="79" d="M1864.8883,148.4989 C1691.6383,171.6289 1476.04,202.9769 1271.5,241.2969 C1246.19,246.0369 1219.52,251.5769 1193.49,257.2769 " fill="transparent" id="C_0008315850039397130669-backto-C_0011699799578039589457" style="stroke:#181818;stroke-width:1;"/><polygon fill="transparent" points="1882.73,146.1169,1864.0943,142.5516,1865.6823,154.4461,1882.73,146.1169" style="stroke:#181818;stroke-width:1;"/></g><!--reverse link C_0008315850039397130669 to C_0005483423442928590005--><g id="link_C_0008315850039397130669_C_0005483423442928590005"><path codeLine="80" d="M1891.2755,186.4757 C1804.1655,211.9857 1725.25,235.0869 1649.71,257.2069 " fill="transparent" id="C_0008315850039397130669-backto-C_0005483423442928590005" style="stroke:#181818;stroke-width:1;"/><polygon fill="transparent" points="1908.55,181.4169,1889.5892,180.7175,1892.9618,192.2338,1908.55,181.4169" style="stroke:#181818;stroke-width:1;"/></g><!--reverse link C_0008315850039397130669 to C_0000930157982943964440--><g id="link_C_0008315850039397130669_C_0000930157982943964440"><path codeLine="81" d="M2077.2525,195.7509 C2060.1625,218.2509 2052.38,228.4969 2036.69,249.1569 " fill="transparent" id="C_0008315850039397130669-backto-C_0000930157982943964440" style="stroke:#181818;stroke-width:1;"/><polygon fill="transparent" points="2088.14,181.4169,2072.4745,192.1217,2082.0305,199.38,2088.14,181.4169" style="stroke:#181818;stroke-width:1;"/></g><!--reverse link C_0008315850039397130669 to C_0012610210265153062981--><g id="link_C_0008315850039397130669_C_0012610210265153062981"><path codeLine="82" d="M2261.1121,191.0709 C2306.6221,219.9909 2342.32,242.6669 2378.62,265.7369 " fill="transparent" id="C_0008315850039397130669-backto-C_0012610210265153062981" style="stroke:#181818;stroke-width:1;"/><polygon fill="transparent" points="2245.92,181.4169,2257.8941,196.1349,2264.3301,186.0069,2245.92,181.4169" style="stroke:#181818;stroke-width:1;"/></g><!--link C_0001407839604537107907 to C_0008315850039397130669--><a href="" target="_top" title="" xlink:actuate="onRequest" xlink:href="" xlink:show="new" xlink:title="" xlink:type="simple"><path codeLine="83" d="M2172.27,414.2469 C2200.45,399.9669 2226.29,380.5869 2243.5,354.2969 C2271.01,312.2769 2260.35,288.6069 2243.5,241.2969 C2235.88,219.9069 2226.678,204.206 2212.498,186.246 " fill="transparent" id="C_0001407839604537107907-to-C_0008315850039397130669" style="stroke:#181818;stroke-width:1;stroke-dasharray:7.0,7.0;"/><polygon fill="#181818" points="2208.78,181.5369,2211.2176,191.0793,2211.8784,185.4612,2217.4965,186.1219,2208.78,181.5369" style="stroke:#181818;stroke-width:1;"/></a><!--reverse link C_0012610210265153062981 to C_0001407839604537107907--><g id="link_C_0012610210265153062981_C_0001407839604537107907"><path codeLine="84" d="M2345.7674,337.3841 C2327.5774,345.6641 2324.09,346.8969 2305.5,354.2969 C2251.59,375.7469 2191.02,396.9669 2139.22,414.2669 " fill="transparent" id="C_0012610210265153062981-backto-C_0001407839604537107907" style="stroke:#181818;stroke-width:1;"/><polygon fill="transparent" points="2362.15,329.9269,2343.2817,331.9233,2348.2532,342.845,2362.15,329.9269" style="stroke:#181818;stroke-width:1;"/></g><!--link C_0008231288131936536429 to C_0008315850039397130669--><a href="" target="_top" title="" xlink:actuate="onRequest" xlink:href="" xlink:show="new" xlink:title="" xlink:type="simple"><path codeLine="85" d="M2524.84,414.1569 C2548.51,368.2069 2576.76,292.2869 2539.5,241.2969 C2519.61,214.0769 2467.6143,191.6196 2401.9743,171.8196 " fill="transparent" id="C_0008231288131936536429-to-C_0008315850039397130669" style="stroke:#181818;stroke-width:1;stroke-dasharray:7.0,7.0;"/><polygon fill="#181818" points="2396.23,170.0869,2403.6914,176.5156,2401.017,171.5308,2406.0017,168.8564,2396.23,170.0869" style="stroke:#181818;stroke-width:1;"/></a><!--reverse link C_0012610210265153062981 to C_0008231288131936536429--><g id="link_C_0012610210265153062981_C_0008231288131936536429"><path codeLine="86" d="M2450.2362,346.4101 C2461.8062,370.6401 2470.14,388.1069 2482.6,414.1969 " fill="transparent" id="C_0012610210265153062981-backto-C_0008231288131936536429" style="stroke:#181818;stroke-width:1;"/><polygon fill="transparent" points="2442.48,330.1669,2444.8218,348.9955,2455.6506,343.8246,2442.48,330.1669" style="stroke:#181818;stroke-width:1;"/></g><!--link C_0012273947195655594120 to C_0008315850039397130669--><a href="" target="_top" title="" xlink:actuate="onRequest" xlink:href="" xlink:show="new" xlink:title="" xlink:type="simple"><path codeLine="87" d="M2816.27,414.1869 C2770.76,399.4069 2723.04,379.8069 2682.5,354.2969 C2623.7,317.2969 2633.85,277.4069 2574.5,241.2969 C2520.38,208.3669 2463.0206,185.2922 2401.9406,166.7222 " fill="transparent" id="C_0012273947195655594120-to-C_0008315850039397130669" style="stroke:#181818;stroke-width:1;stroke-dasharray:7.0,7.0;"/><polygon fill="#181818" points="2396.2,164.9769,2403.6473,171.4218,2400.9838,166.4313,2405.9744,163.7678,2396.2,164.9769" style="stroke:#181818;stroke-width:1;"/></a><!--reverse link C_0012610210265153062981 to C_0012273947195655594120--><g id="link_C_0012610210265153062981_C_0012273947195655594120"><path codeLine="88" d="M2539.4467,331.3091 C2570.7267,340.3191 2588.43,345.3369 2620.5,354.2969 C2692.51,374.4069 2772.63,396.1969 2839.59,414.2469 " fill="transparent" id="C_0012610210265153062981-backto-C_0012273947195655594120" style="stroke:#181818;stroke-width:1;"/><polygon fill="transparent" points="2522.15,326.3269,2537.786,337.0747,2541.1075,325.5435,2522.15,326.3269" style="stroke:#181818;stroke-width:1;"/></g><!--reverse link C_0008315850039397130669 to C_0002849822360015908928--><g id="link_C_0008315850039397130669_C_0002849822360015908928"><path codeLine="89" d="M2413.5811,177.6084 C2519.0711,202.1684 2622,226.1369 2721.34,249.2669 " fill="transparent" id="C_0008315850039397130669-backto-C_0002849822360015908928" style="stroke:#181818;stroke-width:1;"/><polygon fill="transparent" points="2396.05,173.5269,2412.2206,183.4522,2414.9417,171.7647,2396.05,173.5269" style="stroke:#181818;stroke-width:1;"/></g><!--SRC=[rLXRRzis57xtho0wO4dWHY1rPv0Ls39WB-tBW7OFGI38yh5DH18zaKwNUjbl7obQ4XNJcpe4GnCOGSnpu_duyPp3I2PBG3-pVDta5O8IAgWbMaB1crpoHg2ABw6S5MKk17hJhsUItuitA1Ve9iCOXtwKXfYcAGbecE0uJUd1v9GOtTuAsUmAgTJgzQugCvAH8UpeMzP6ypQoAlVZ7JpTtQ7zBCjcywN9GA0h9EJowke12gLqtVwj0h5w_Kw5lDrtUihoRZOlymMKdObHQxNQTQEopJKmnohjkb6Hy8TqQEZbLk7f2Bu1kJGWKHfX7D209YJ0SJn2pY7-6kGCPZ_b0f1nkk8DQkqkbI4gUDKUjypN1oZdV_MsvnVe1qM4LRuhTNOFd2tRj0QDDZdFcytpxRPa8DIHP0TypmjU2pc2v7jKvnLSA5SBpilMrSq6Ydl4LWFVqC4LaXpbI6oXO2jMe8DNhusu5pANh7X2yrN3gyouFxT2PGyCFgFYeZ-JJTx0CjlAvheFPDXmqq0kmGhFLqDG-RW5j53OBH6l4PDd0XrIwNuQs3OW589gFxmsk_jEyH9gzWMS4BJ4UelScnrpst3euAnr_PzvtXEmvX9wxX6S92b9Q1hx4VR382JKvfvBF85xEeIXtQyTEa8TfLxkZh4hCuPoBtYSbeCEiC5xTzUFZ-NvZUU2wVDqNVg3w2lllRXdsm5s4bEQK1ebgRhMKKh3AB5XTuWdmAv36DX_su3SWBf97PyKVxkwBZPyLoxH0f3Mtog9XaohcfFvDazaX6FMGDbUDx6nGCLHc0QX7uIXJ_qqedh5hgCEyKHGir70qn3RMkBL0oqVow5GO4m3J29L2dmQ1ZGEmn3Ru3h4Ky3LCGoUFwgY_pWKtbPYEi20x-ke7Je7HqdGosE4dImcVaomhpvnH2BLx7sQ4hiqECGJW3xcxxE1m9hs-0Cq3LlgVNUjtpPlUw8rTLLAWQc6NJ3vw4ZR5e_JpzVh1jQjtu5c9CH9gWY4moX8LFkXs2wCBl64xAr89laF-JqePbLGBVGLhf6bCKhs6x-ZQdZhsf4rJle1yVMSJMWGHq6iwjred3mMJu3GYkI445aAhmb1zOiNR4n2ulk9VgGG6iLH5D6G-7Xq1O_5KqWuH3f5ma7ZLP4mByk1VNuQgYRW1x42IZNPLFLQctqEyHJsgH2EWL8lA_o4oDU0M8q4_Bw3ke3_iyFEzIO079NF29uzLwQZU_Bjvtdl_kb9lLVsfusl_xoyF3tvJp1pJQx_RkQSpIQOkQQE2PjqzT2J_QF7q_tGxl5qjjvXgwxETRBWlb1CLwa_MQ9U9gQpE4uuILTTc9tz0ZMOsUupavlXtn9laHf2X2w4s8izCZjx__xJXtxjus9NovtHxXS9zOX7q3dPjL9oyJS0]--></g></svg>