<svg xmlns="http://www.w3.org/2000/svg" xmlns:xlink="http://www.w3.org/1999/xlink" contentStyleType="text/css" data-diagram-type="CLASS" height="790px" preserveAspectRatio="none" style="width:1573px;height:790px;background:#FFFFFF;" version="1.1" viewBox="0 0 1573 790" width="1573px" zoomAndPan="magnify"><title>Decorated diagram element class hierarchy</title><defs/><g><text fill="#000000" font-family="sans-serif" font-size="14" font-weight="bold" lengthAdjust="spacing" textLength="344.9688" x="607.0156" y="22.9951">Decorated diagram element class hierarchy</text><!--cluster C_0000316605034920222648--><g id="cluster_C_0000316605034920222648"><path d="M8.5,43.2969 L76.1777,43.2969 A3.75,3.75 0 0 1 78.6777,45.7969 L85.6777,65.5938 L389.5,65.5938 A2.5,2.5 0 0 1 392,68.0938 L392,564.7969 A2.5,2.5 0 0 1 389.5,567.2969 L8.5,567.2969 A2.5,2.5 0 0 1 6,564.7969 L6,45.7969 A2.5,2.5 0 0 1 8.5,43.2969 " fill="transparent" style="stroke:#000000;stroke-width:1.5;"/><line style="stroke:#000000;stroke-width:1.5;" x1="6" x2="85.6777" y1="65.5938" y2="65.5938"/><text fill="#000000" font-family="sans-serif" font-size="14" font-weight="bold" lengthAdjust="spacing" textLength="66.6777" x="10" y="58.292">common</text></g><!--cluster C_0000083721806430512831--><g id="cluster_C_0000083721806430512831"><path d="M32.5,86.2969 L82.0215,86.2969 A3.75,3.75 0 0 1 84.5215,88.7969 L91.5215,108.5938 L365.5,108.5938 A2.5,2.5 0 0 1 368,111.0938 L368,540.7969 A2.5,2.5 0 0 1 365.5,543.2969 L32.5,543.2969 A2.5,2.5 0 0 1 30,540.7969 L30,88.7969 A2.5,2.5 0 0 1 32.5,86.2969 " fill="transparent" style="stroke:#000000;stroke-width:1.5;"/><line style="stroke:#000000;stroke-width:1.5;" x1="30" x2="91.5215" y1="108.5938" y2="108.5938"/><text fill="#000000" font-family="sans-serif" font-size="14" font-weight="bold" lengthAdjust="spacing" textLength="48.5215" x="34" y="101.292">model</text></g><!--cluster C_0002240167036201725606--><g id="cluster_C_0002240167036201725606"><path d="M802.5,401.2969 L914.9395,401.2969 A3.75,3.75 0 0 1 917.4395,403.7969 L924.4395,423.5938 L1563.5,423.5938 A2.5,2.5 0 0 1 1566,426.0938 L1566,672.7969 A2.5,2.5 0 0 1 1563.5,675.2969 L802.5,675.2969 A2.5,2.5 0 0 1 800,672.7969 L800,403.7969 A2.5,2.5 0 0 1 802.5,401.2969 " fill="transparent" style="stroke:#000000;stroke-width:1.5;"/><line style="stroke:#000000;stroke-width:1.5;" x1="800" x2="924.4395" y1="423.5938" y2="423.5938"/><text fill="#000000" font-family="sans-serif" font-size="14" font-weight="bold" lengthAdjust="spacing" textLength="111.4395" x="804" y="416.292">class_diagram</text></g><!--cluster C_0000897124234964432620--><g id="cluster_C_0000897124234964432620"><path d="M826.5,444.2969 L876.0215,444.2969 A3.75,3.75 0 0 1 878.5215,446.7969 L885.5215,466.5938 L1539.5,466.5938 A2.5,2.5 0 0 1 1542,469.0938 L1542,648.7969 A2.5,2.5 0 0 1 1539.5,651.2969 L826.5,651.2969 A2.5,2.5 0 0 1 824,648.7969 L824,446.7969 A2.5,2.5 0 0 1 826.5,444.2969 " fill="transparent" style="stroke:#000000;stroke-width:1.5;"/><line style="stroke:#000000;stroke-width:1.5;" x1="824" x2="885.5215" y1="466.5938" y2="466.5938"/><text fill="#000000" font-family="sans-serif" font-size="14" font-weight="bold" lengthAdjust="spacing" textLength="48.5215" x="828" y="459.292">model</text></g><!--cluster C_0001521862840957629236--><g id="cluster_C_0001521862840957629236"><path d="M418.5,401.2969 L566.8008,401.2969 A3.75,3.75 0 0 1 569.3008,403.7969 L576.3008,423.5938 L773.5,423.5938 A2.5,2.5 0 0 1 776,426.0938 L776,780.7969 A2.5,2.5 0 0 1 773.5,783.2969 L418.5,783.2969 A2.5,2.5 0 0 1 416,780.7969 L416,403.7969 A2.5,2.5 0 0 1 418.5,401.2969 " fill="transparent" style="stroke:#000000;stroke-width:1.5;"/><line style="stroke:#000000;stroke-width:1.5;" x1="416" x2="576.3008" y1="423.5938" y2="423.5938"/><text fill="#000000" font-family="sans-serif" font-size="14" font-weight="bold" lengthAdjust="spacing" textLength="147.3008" x="420" y="416.292">sequence_diagram</text></g><!--cluster C_0002206969880830639264--><g id="cluster_C_0002206969880830639264"><path d="M442.5,444.2969 L492.0215,444.2969 A3.75,3.75 0 0 1 494.5215,446.7969 L501.5215,466.5938 L749.5,466.5938 A2.5,2.5 0 0 1 752,469.0938 L752,756.7969 A2.5,2.5 0 0 1 749.5,759.2969 L442.5,759.2969 A2.5,2.5 0 0 1 440,756.7969 L440,446.7969 A2.5,2.5 0 0 1 442.5,444.2969 " fill="transparent" style="stroke:#000000;stroke-width:1.5;"/><line style="stroke:#000000;stroke-width:1.5;" x1="440" x2="501.5215" y1="466.5938" y2="466.5938"/><text fill="#000000" font-family="sans-serif" font-size="14" font-weight="bold" lengthAdjust="spacing" textLength="48.5215" x="444" y="459.292">model</text></g><!--class C_0001117102382624673118--><a href="classclanguml_1_1common_1_1model_1_1decorated__element.html" target="_top" title="Base class for decorated diagram elements" xlink:actuate="onRequest" xlink:href="classclanguml_1_1common_1_1model_1_1decorated__element.html" xlink:show="new" xlink:title="Base class for decorated diagram elements" xlink:type="simple"><g id="elem_C_0001117102382624673118"><rect codeLine="5" fill="#F1F1F1" height="48" id="C_0001117102382624673118" rx="2.5" ry="2.5" style="stroke:#181818;stroke-width:0.5;" width="167.8164" x="184" y="121.2969"/><ellipse cx="199" cy="137.2969" fill="#ADD1B2" rx="11" ry="11" style="stroke:#181818;stroke-width:1;"/><path d="M201.9688,142.9375 Q201.3906,143.2344 200.75,143.375 Q200.1094,143.5313 199.4063,143.5313 Q196.9063,143.5313 195.5781,141.8906 Q194.2656,140.2344 194.2656,137.1094 Q194.2656,133.9844 195.5781,132.3281 Q196.9063,130.6719 199.4063,130.6719 Q200.1094,130.6719 200.75,130.8281 Q201.4063,130.9844 201.9688,131.2813 L201.9688,134 Q201.3438,133.4219 200.75,133.1563 Q200.1563,132.875 199.5313,132.875 Q198.1875,132.875 197.5,133.9531 Q196.8125,135.0156 196.8125,137.1094 Q196.8125,139.2031 197.5,140.2813 Q198.1875,141.3438 199.5313,141.3438 Q200.1563,141.3438 200.75,141.0781 Q201.3438,140.7969 201.9688,140.2188 L201.9688,142.9375 Z " fill="#000000"/><text fill="#000000" font-family="sans-serif" font-size="14" lengthAdjust="spacing" textLength="135.8164" x="213" y="142.1436">decorated_element</text><line style="stroke:#181818;stroke-width:0.5;" x1="185" x2="350.8164" y1="153.2969" y2="153.2969"/><line style="stroke:#181818;stroke-width:0.5;" x1="185" x2="350.8164" y1="161.2969" y2="161.2969"/></g></a><!--class C_0002046336758797367926--><a href="classclanguml_1_1common_1_1model_1_1relationship.html" target="_top" title="Class representing any relationship other than inheritance" xlink:actuate="onRequest" xlink:href="classclanguml_1_1common_1_1model_1_1relationship.html" xlink:show="new" xlink:title="Class representing any relationship other than inheritance" xlink:type="simple"><g id="elem_C_0002046336758797367926"><rect codeLine="9" fill="#F1F1F1" height="48" id="C_0002046336758797367926" rx="2.5" ry="2.5" style="stroke:#181818;stroke-width:0.5;" width="114.5986" x="46.5" y="229.2969"/><ellipse cx="61.5" cy="245.2969" fill="#ADD1B2" rx="11" ry="11" style="stroke:#181818;stroke-width:1;"/><path d="M64.4688,250.9375 Q63.8906,251.2344 63.25,251.375 Q62.6094,251.5313 61.9063,251.5313 Q59.4063,251.5313 58.0781,249.8906 Q56.7656,248.2344 56.7656,245.1094 Q56.7656,241.9844 58.0781,240.3281 Q59.4063,238.6719 61.9063,238.6719 Q62.6094,238.6719 63.25,238.8281 Q63.9063,238.9844 64.4688,239.2813 L64.4688,242 Q63.8438,241.4219 63.25,241.1563 Q62.6563,240.875 62.0313,240.875 Q60.6875,240.875 60,241.9531 Q59.3125,243.0156 59.3125,245.1094 Q59.3125,247.2031 60,248.2813 Q60.6875,249.3438 62.0313,249.3438 Q62.6563,249.3438 63.25,249.0781 Q63.8438,248.7969 64.4688,248.2188 L64.4688,250.9375 Z " fill="#000000"/><text fill="#000000" font-family="sans-serif" font-size="14" lengthAdjust="spacing" textLength="82.5986" x="75.5" y="250.1436">relationship</text><line style="stroke:#181818;stroke-width:0.5;" x1="47.5" x2="160.0986" y1="261.2969" y2="261.2969"/><line style="stroke:#181818;stroke-width:0.5;" x1="47.5" x2="160.0986" y1="269.2969" y2="269.2969"/></g></a><!--class C_0001073500714379115414--><a href="classclanguml_1_1common_1_1model_1_1diagram__element.html" target="_top" title="Base class for standalone diagram elements." xlink:actuate="onRequest" xlink:href="classclanguml_1_1common_1_1model_1_1diagram__element.html" xlink:show="new" xlink:title="Base class for standalone diagram elements." xlink:type="simple"><g id="elem_C_0001073500714379115414"><rect codeLine="13" fill="#F1F1F1" height="48" id="C_0001073500714379115414" rx="2.5" ry="2.5" style="stroke:#181818;stroke-width:0.5;" width="154.9443" x="196.5" y="229.2969"/><ellipse cx="211.5" cy="245.2969" fill="#ADD1B2" rx="11" ry="11" style="stroke:#181818;stroke-width:1;"/><path d="M214.4688,250.9375 Q213.8906,251.2344 213.25,251.375 Q212.6094,251.5313 211.9063,251.5313 Q209.4063,251.5313 208.0781,249.8906 Q206.7656,248.2344 206.7656,245.1094 Q206.7656,241.9844 208.0781,240.3281 Q209.4063,238.6719 211.9063,238.6719 Q212.6094,238.6719 213.25,238.8281 Q213.9063,238.9844 214.4688,239.2813 L214.4688,242 Q213.8438,241.4219 213.25,241.1563 Q212.6563,240.875 212.0313,240.875 Q210.6875,240.875 210,241.9531 Q209.3125,243.0156 209.3125,245.1094 Q209.3125,247.2031 210,248.2813 Q210.6875,249.3438 212.0313,249.3438 Q212.6563,249.3438 213.25,249.0781 Q213.8438,248.7969 214.4688,248.2188 L214.4688,250.9375 Z " fill="#000000"/><text fill="#000000" font-family="sans-serif" font-size="14" lengthAdjust="spacing" textLength="122.9443" x="225.5" y="250.1436">diagram_element</text><line style="stroke:#181818;stroke-width:0.5;" x1="197.5" x2="350.4443" y1="261.2969" y2="261.2969"/><line style="stroke:#181818;stroke-width:0.5;" x1="197.5" x2="350.4443" y1="269.2969" y2="269.2969"/></g></a><!--class C_0002069520381434407937--><a href="classclanguml_1_1common_1_1model_1_1element.html" target="_top" title="Base class for any element qualified by namespace." xlink:actuate="onRequest" xlink:href="classclanguml_1_1common_1_1model_1_1element.html" xlink:show="new" xlink:title="Base class for any element qualified by namespace." xlink:type="simple"><g id="elem_C_0002069520381434407937"><rect codeLine="17" fill="#F1F1F1" height="48" id="C_0002069520381434407937" rx="2.5" ry="2.5" style="stroke:#181818;stroke-width:0.5;" width="89.7295" x="120" y="337.2969"/><ellipse cx="135" cy="353.2969" fill="#ADD1B2" rx="11" ry="11" style="stroke:#181818;stroke-width:1;"/><path d="M137.9688,358.9375 Q137.3906,359.2344 136.75,359.375 Q136.1094,359.5313 135.4063,359.5313 Q132.9063,359.5313 131.5781,357.8906 Q130.2656,356.2344 130.2656,353.1094 Q130.2656,349.9844 131.5781,348.3281 Q132.9063,346.6719 135.4063,346.6719 Q136.1094,346.6719 136.75,346.8281 Q137.4063,346.9844 137.9688,347.2813 L137.9688,350 Q137.3438,349.4219 136.75,349.1563 Q136.1563,348.875 135.5313,348.875 Q134.1875,348.875 133.5,349.9531 Q132.8125,351.0156 132.8125,353.1094 Q132.8125,355.2031 133.5,356.2813 Q134.1875,357.3438 135.5313,357.3438 Q136.1563,357.3438 136.75,357.0781 Q137.3438,356.7969 137.9688,356.2188 L137.9688,358.9375 Z " fill="#000000"/><text fill="#000000" font-family="sans-serif" font-size="14" lengthAdjust="spacing" textLength="57.7295" x="149" y="358.1436">element</text><line style="stroke:#181818;stroke-width:0.5;" x1="121" x2="208.7295" y1="369.2969" y2="369.2969"/><line style="stroke:#181818;stroke-width:0.5;" x1="121" x2="208.7295" y1="377.2969" y2="377.2969"/></g></a><!--class C_0000785714713072053129--><a href="classclanguml_1_1common_1_1model_1_1source__file.html" target="_top" title="Diagram element representing some file or directory." xlink:actuate="onRequest" xlink:href="classclanguml_1_1common_1_1model_1_1source__file.html" xlink:show="new" xlink:title="Diagram element representing some file or directory." xlink:type="simple"><g id="elem_C_0000785714713072053129"><rect codeLine="21" fill="#F1F1F1" height="48" id="C_0000785714713072053129" rx="2.5" ry="2.5" style="stroke:#181818;stroke-width:0.5;" width="107.1201" x="245.5" y="337.2969"/><ellipse cx="260.5" cy="353.2969" fill="#ADD1B2" rx="11" ry="11" style="stroke:#181818;stroke-width:1;"/><path d="M263.4688,358.9375 Q262.8906,359.2344 262.25,359.375 Q261.6094,359.5313 260.9063,359.5313 Q258.4063,359.5313 257.0781,357.8906 Q255.7656,356.2344 255.7656,353.1094 Q255.7656,349.9844 257.0781,348.3281 Q258.4063,346.6719 260.9063,346.6719 Q261.6094,346.6719 262.25,346.8281 Q262.9063,346.9844 263.4688,347.2813 L263.4688,350 Q262.8438,349.4219 262.25,349.1563 Q261.6563,348.875 261.0313,348.875 Q259.6875,348.875 259,349.9531 Q258.3125,351.0156 258.3125,353.1094 Q258.3125,355.2031 259,356.2813 Q259.6875,357.3438 261.0313,357.3438 Q261.6563,357.3438 262.25,357.0781 Q262.8438,356.7969 263.4688,356.2188 L263.4688,358.9375 Z " fill="#000000"/><text fill="#000000" font-family="sans-serif" font-size="14" lengthAdjust="spacing" textLength="75.1201" x="274.5" y="358.1436">source_file</text><line style="stroke:#181818;stroke-width:0.5;" x1="246.5" x2="351.6201" y1="369.2969" y2="369.2969"/><line style="stroke:#181818;stroke-width:0.5;" x1="246.5" x2="351.6201" y1="377.2969" y2="377.2969"/></g></a><!--class C_0002143286684830686854--><a href="classclanguml_1_1common_1_1model_1_1package.html" target="_top" title="Diagram element representing namespace or directory package" xlink:actuate="onRequest" xlink:href="classclanguml_1_1common_1_1model_1_1package.html" xlink:show="new" xlink:title="Diagram element representing namespace or directory package" xlink:type="simple"><g id="elem_C_0002143286684830686854"><rect codeLine="25" fill="#F1F1F1" height="48" id="C_0002143286684830686854" rx="2.5" ry="2.5" style="stroke:#181818;stroke-width:0.5;" width="91.3496" x="119.5" y="479.2969"/><ellipse cx="134.5" cy="495.2969" fill="#ADD1B2" rx="11" ry="11" style="stroke:#181818;stroke-width:1;"/><path d="M137.4688,500.9375 Q136.8906,501.2344 136.25,501.375 Q135.6094,501.5313 134.9063,501.5313 Q132.4063,501.5313 131.0781,499.8906 Q129.7656,498.2344 129.7656,495.1094 Q129.7656,491.9844 131.0781,490.3281 Q132.4063,488.6719 134.9063,488.6719 Q135.6094,488.6719 136.25,488.8281 Q136.9063,488.9844 137.4688,489.2813 L137.4688,492 Q136.8438,491.4219 136.25,491.1563 Q135.6563,490.875 135.0313,490.875 Q133.6875,490.875 133,491.9531 Q132.3125,493.0156 132.3125,495.1094 Q132.3125,497.2031 133,498.2813 Q133.6875,499.3438 135.0313,499.3438 Q135.6563,499.3438 136.25,499.0781 Q136.8438,498.7969 137.4688,498.2188 L137.4688,500.9375 Z " fill="#000000"/><text fill="#000000" font-family="sans-serif" font-size="14" lengthAdjust="spacing" textLength="59.3496" x="148.5" y="500.1436">package</text><line style="stroke:#181818;stroke-width:0.5;" x1="120.5" x2="209.8496" y1="511.2969" y2="511.2969"/><line style="stroke:#181818;stroke-width:0.5;" x1="120.5" x2="209.8496" y1="519.2969" y2="519.2969"/></g></a><!--class C_0000605866861866358037--><a href="classclanguml_1_1class__diagram_1_1model_1_1class__element.html" target="_top" title="Base class for class elements (e.g. member or method)." xlink:actuate="onRequest" xlink:href="classclanguml_1_1class__diagram_1_1model_1_1class__element.html" xlink:show="new" xlink:title="Base class for class elements (e.g. member or method)." xlink:type="simple"><g id="elem_C_0000605866861866358037"><rect codeLine="33" fill="#F1F1F1" height="48" id="C_0000605866861866358037" rx="2.5" ry="2.5" style="stroke:#181818;stroke-width:0.5;" width="131.4834" x="1193.5" y="479.2969"/><ellipse cx="1208.5" cy="495.2969" fill="#ADD1B2" rx="11" ry="11" style="stroke:#181818;stroke-width:1;"/><path d="M1211.4688,500.9375 Q1210.8906,501.2344 1210.25,501.375 Q1209.6094,501.5313 1208.9063,501.5313 Q1206.4063,501.5313 1205.0781,499.8906 Q1203.7656,498.2344 1203.7656,495.1094 Q1203.7656,491.9844 1205.0781,490.3281 Q1206.4063,488.6719 1208.9063,488.6719 Q1209.6094,488.6719 1210.25,488.8281 Q1210.9063,488.9844 1211.4688,489.2813 L1211.4688,492 Q1210.8438,491.4219 1210.25,491.1563 Q1209.6563,490.875 1209.0313,490.875 Q1207.6875,490.875 1207,491.9531 Q1206.3125,493.0156 1206.3125,495.1094 Q1206.3125,497.2031 1207,498.2813 Q1207.6875,499.3438 1209.0313,499.3438 Q1209.6563,499.3438 1210.25,499.0781 Q1210.8438,498.7969 1211.4688,498.2188 L1211.4688,500.9375 Z " fill="#000000"/><text fill="#000000" font-family="sans-serif" font-size="14" lengthAdjust="spacing" textLength="99.4834" x="1222.5" y="500.1436">class_element</text><line style="stroke:#181818;stroke-width:0.5;" x1="1194.5" x2="1323.9834" y1="511.2969" y2="511.2969"/><line style="stroke:#181818;stroke-width:0.5;" x1="1194.5" x2="1323.9834" y1="519.2969" y2="519.2969"/></g></a><!--class C_0001796282762108527255--><a href="classclanguml_1_1class__diagram_1_1model_1_1class__member.html" target="_top" title="Class member model." xlink:actuate="onRequest" xlink:href="classclanguml_1_1class__diagram_1_1model_1_1class__member.html" xlink:show="new" xlink:title="Class member model." xlink:type="simple"><g id="elem_C_0001796282762108527255"><rect codeLine="37" fill="#F1F1F1" height="48" id="C_0001796282762108527255" rx="2.5" ry="2.5" style="stroke:#181818;stroke-width:0.5;" width="132.8984" x="1109.5" y="587.2969"/><ellipse cx="1124.5" cy="603.2969" fill="#ADD1B2" rx="11" ry="11" style="stroke:#181818;stroke-width:1;"/><path d="M1127.4688,608.9375 Q1126.8906,609.2344 1126.25,609.375 Q1125.6094,609.5313 1124.9063,609.5313 Q1122.4063,609.5313 1121.0781,607.8906 Q1119.7656,606.2344 1119.7656,603.1094 Q1119.7656,599.9844 1121.0781,598.3281 Q1122.4063,596.6719 1124.9063,596.6719 Q1125.6094,596.6719 1126.25,596.8281 Q1126.9063,596.9844 1127.4688,597.2813 L1127.4688,600 Q1126.8438,599.4219 1126.25,599.1563 Q1125.6563,598.875 1125.0313,598.875 Q1123.6875,598.875 1123,599.9531 Q1122.3125,601.0156 1122.3125,603.1094 Q1122.3125,605.2031 1123,606.2813 Q1123.6875,607.3438 1125.0313,607.3438 Q1125.6563,607.3438 1126.25,607.0781 Q1126.8438,606.7969 1127.4688,606.2188 L1127.4688,608.9375 Z " fill="#000000"/><text fill="#000000" font-family="sans-serif" font-size="14" lengthAdjust="spacing" textLength="100.8984" x="1138.5" y="608.1436">class_member</text><line style="stroke:#181818;stroke-width:0.5;" x1="1110.5" x2="1241.3984" y1="619.2969" y2="619.2969"/><line style="stroke:#181818;stroke-width:0.5;" x1="1110.5" x2="1241.3984" y1="627.2969" y2="627.2969"/></g></a><!--class C_0000605669033368926050--><a href="classclanguml_1_1class__diagram_1_1model_1_1method__parameter.html" target="_top" title="Model of a method parameter." xlink:actuate="onRequest" xlink:href="classclanguml_1_1class__diagram_1_1model_1_1method__parameter.html" xlink:show="new" xlink:title="Model of a method parameter." xlink:type="simple"><g id="elem_C_0000605669033368926050"><rect codeLine="41" fill="#F1F1F1" height="48" id="C_0000605669033368926050" rx="2.5" ry="2.5" style="stroke:#181818;stroke-width:0.5;" width="166.9756" x="1359.5" y="479.2969"/><ellipse cx="1374.5" cy="495.2969" fill="#ADD1B2" rx="11" ry="11" style="stroke:#181818;stroke-width:1;"/><path d="M1377.4688,500.9375 Q1376.8906,501.2344 1376.25,501.375 Q1375.6094,501.5313 1374.9063,501.5313 Q1372.4063,501.5313 1371.0781,499.8906 Q1369.7656,498.2344 1369.7656,495.1094 Q1369.7656,491.9844 1371.0781,490.3281 Q1372.4063,488.6719 1374.9063,488.6719 Q1375.6094,488.6719 1376.25,488.8281 Q1376.9063,488.9844 1377.4688,489.2813 L1377.4688,492 Q1376.8438,491.4219 1376.25,491.1563 Q1375.6563,490.875 1375.0313,490.875 Q1373.6875,490.875 1373,491.9531 Q1372.3125,493.0156 1372.3125,495.1094 Q1372.3125,497.2031 1373,498.2813 Q1373.6875,499.3438 1375.0313,499.3438 Q1375.6563,499.3438 1376.25,499.0781 Q1376.8438,498.7969 1377.4688,498.2188 L1377.4688,500.9375 Z " fill="#000000"/><text fill="#000000" font-family="sans-serif" font-size="14" lengthAdjust="spacing" textLength="134.9756" x="1388.5" y="500.1436">method_parameter</text><line style="stroke:#181818;stroke-width:0.5;" x1="1360.5" x2="1525.4756" y1="511.2969" y2="511.2969"/><line style="stroke:#181818;stroke-width:0.5;" x1="1360.5" x2="1525.4756" y1="519.2969" y2="519.2969"/></g></a><!--class C_0000204145716468348671--><a href="classclanguml_1_1class__diagram_1_1model_1_1class__method.html" target="_top" title="Class method model." xlink:actuate="onRequest" xlink:href="classclanguml_1_1class__diagram_1_1model_1_1class__method.html" xlink:show="new" xlink:title="Class method model." xlink:type="simple"><g id="elem_C_0000204145716468348671"><rect codeLine="45" fill="#F1F1F1" height="48" id="C_0000204145716468348671" rx="2.5" ry="2.5" style="stroke:#181818;stroke-width:0.5;" width="127.8193" x="1278" y="587.2969"/><ellipse cx="1293" cy="603.2969" fill="#ADD1B2" rx="11" ry="11" style="stroke:#181818;stroke-width:1;"/><path d="M1295.9688,608.9375 Q1295.3906,609.2344 1294.75,609.375 Q1294.1094,609.5313 1293.4063,609.5313 Q1290.9063,609.5313 1289.5781,607.8906 Q1288.2656,606.2344 1288.2656,603.1094 Q1288.2656,599.9844 1289.5781,598.3281 Q1290.9063,596.6719 1293.4063,596.6719 Q1294.1094,596.6719 1294.75,596.8281 Q1295.4063,596.9844 1295.9688,597.2813 L1295.9688,600 Q1295.3438,599.4219 1294.75,599.1563 Q1294.1563,598.875 1293.5313,598.875 Q1292.1875,598.875 1291.5,599.9531 Q1290.8125,601.0156 1290.8125,603.1094 Q1290.8125,605.2031 1291.5,606.2813 Q1292.1875,607.3438 1293.5313,607.3438 Q1294.1563,607.3438 1294.75,607.0781 Q1295.3438,606.7969 1295.9688,606.2188 L1295.9688,608.9375 Z " fill="#000000"/><text fill="#000000" font-family="sans-serif" font-size="14" lengthAdjust="spacing" textLength="95.8193" x="1307" y="608.1436">class_method</text><line style="stroke:#181818;stroke-width:0.5;" x1="1279" x2="1404.8193" y1="619.2969" y2="619.2969"/><line style="stroke:#181818;stroke-width:0.5;" x1="1279" x2="1404.8193" y1="627.2969" y2="627.2969"/></g></a><!--class C_0001292034357466653182--><a href="classclanguml_1_1class__diagram_1_1model_1_1class__.html" target="_top" title="Diagram element representing a class or class template." xlink:actuate="onRequest" xlink:href="classclanguml_1_1class__diagram_1_1model_1_1class__.html" xlink:show="new" xlink:title="Diagram element representing a class or class template." xlink:type="simple"><g id="elem_C_0001292034357466653182"><rect codeLine="49" fill="#F1F1F1" height="48" id="C_0001292034357466653182" rx="2.5" ry="2.5" style="stroke:#181818;stroke-width:0.5;" width="73.7539" x="954" y="479.2969"/><ellipse cx="969" cy="495.2969" fill="#ADD1B2" rx="11" ry="11" style="stroke:#181818;stroke-width:1;"/><path d="M971.9688,500.9375 Q971.3906,501.2344 970.75,501.375 Q970.1094,501.5313 969.4063,501.5313 Q966.9063,501.5313 965.5781,499.8906 Q964.2656,498.2344 964.2656,495.1094 Q964.2656,491.9844 965.5781,490.3281 Q966.9063,488.6719 969.4063,488.6719 Q970.1094,488.6719 970.75,488.8281 Q971.4063,488.9844 971.9688,489.2813 L971.9688,492 Q971.3438,491.4219 970.75,491.1563 Q970.1563,490.875 969.5313,490.875 Q968.1875,490.875 967.5,491.9531 Q966.8125,493.0156 966.8125,495.1094 Q966.8125,497.2031 967.5,498.2813 Q968.1875,499.3438 969.5313,499.3438 Q970.1563,499.3438 970.75,499.0781 Q971.3438,498.7969 971.9688,498.2188 L971.9688,500.9375 Z " fill="#000000"/><text fill="#000000" font-family="sans-serif" font-size="14" lengthAdjust="spacing" textLength="41.7539" x="983" y="500.1436">class_</text><line style="stroke:#181818;stroke-width:0.5;" x1="955" x2="1026.7539" y1="511.2969" y2="511.2969"/><line style="stroke:#181818;stroke-width:0.5;" x1="955" x2="1026.7539" y1="519.2969" y2="519.2969"/></g></a><!--class C_0000724392977093650506--><a href="classclanguml_1_1class__diagram_1_1model_1_1enum__.html" target="_top" title="enum_" xlink:actuate="onRequest" xlink:href="classclanguml_1_1class__diagram_1_1model_1_1enum__.html" xlink:show="new" xlink:title="enum_" xlink:type="simple"><g id="elem_C_0000724392977093650506"><rect codeLine="53" fill="#F1F1F1" height="48" id="C_0000724392977093650506" rx="2.5" ry="2.5" style="stroke:#181818;stroke-width:0.5;" width="78.9971" x="839.5" y="479.2969"/><ellipse cx="854.5" cy="495.2969" fill="#ADD1B2" rx="11" ry="11" style="stroke:#181818;stroke-width:1;"/><path d="M857.4688,500.9375 Q856.8906,501.2344 856.25,501.375 Q855.6094,501.5313 854.9063,501.5313 Q852.4063,501.5313 851.0781,499.8906 Q849.7656,498.2344 849.7656,495.1094 Q849.7656,491.9844 851.0781,490.3281 Q852.4063,488.6719 854.9063,488.6719 Q855.6094,488.6719 856.25,488.8281 Q856.9063,488.9844 857.4688,489.2813 L857.4688,492 Q856.8438,491.4219 856.25,491.1563 Q855.6563,490.875 855.0313,490.875 Q853.6875,490.875 853,491.9531 Q852.3125,493.0156 852.3125,495.1094 Q852.3125,497.2031 853,498.2813 Q853.6875,499.3438 855.0313,499.3438 Q855.6563,499.3438 856.25,499.0781 Q856.8438,498.7969 857.4688,498.2188 L857.4688,500.9375 Z " fill="#000000"/><text fill="#000000" font-family="sans-serif" font-size="14" lengthAdjust="spacing" textLength="46.9971" x="868.5" y="500.1436">enum_</text><line style="stroke:#181818;stroke-width:0.5;" x1="840.5" x2="917.4971" y1="511.2969" y2="511.2969"/><line style="stroke:#181818;stroke-width:0.5;" x1="840.5" x2="917.4971" y1="519.2969" y2="519.2969"/></g></a><!--class C_0001374849051752224500--><a href="classclanguml_1_1class__diagram_1_1model_1_1concept__.html" target="_top" title="Model of C++ concept." xlink:actuate="onRequest" xlink:href="classclanguml_1_1class__diagram_1_1model_1_1concept__.html" xlink:show="new" xlink:title="Model of C++ concept." xlink:type="simple"><g id="elem_C_0001374849051752224500"><rect codeLine="57" fill="#F1F1F1" height="48" id="C_0001374849051752224500" rx="2.5" ry="2.5" style="stroke:#181818;stroke-width:0.5;" width="94.8223" x="1063.5" y="479.2969"/><ellipse cx="1078.5" cy="495.2969" fill="#ADD1B2" rx="11" ry="11" style="stroke:#181818;stroke-width:1;"/><path d="M1081.4688,500.9375 Q1080.8906,501.2344 1080.25,501.375 Q1079.6094,501.5313 1078.9063,501.5313 Q1076.4063,501.5313 1075.0781,499.8906 Q1073.7656,498.2344 1073.7656,495.1094 Q1073.7656,491.9844 1075.0781,490.3281 Q1076.4063,488.6719 1078.9063,488.6719 Q1079.6094,488.6719 1080.25,488.8281 Q1080.9063,488.9844 1081.4688,489.2813 L1081.4688,492 Q1080.8438,491.4219 1080.25,491.1563 Q1079.6563,490.875 1079.0313,490.875 Q1077.6875,490.875 1077,491.9531 Q1076.3125,493.0156 1076.3125,495.1094 Q1076.3125,497.2031 1077,498.2813 Q1077.6875,499.3438 1079.0313,499.3438 Q1079.6563,499.3438 1080.25,499.0781 Q1080.8438,498.7969 1081.4688,498.2188 L1081.4688,500.9375 Z " fill="#000000"/><text fill="#000000" font-family="sans-serif" font-size="14" lengthAdjust="spacing" textLength="62.8223" x="1092.5" y="500.1436">concept_</text><line style="stroke:#181818;stroke-width:0.5;" x1="1064.5" x2="1157.3223" y1="511.2969" y2="511.2969"/><line style="stroke:#181818;stroke-width:0.5;" x1="1064.5" x2="1157.3223" y1="519.2969" y2="519.2969"/></g></a><!--class C_0001400215772842495226--><a href="structclanguml_1_1sequence__diagram_1_1model_1_1participant.html" target="_top" title="Base class for various types of sequence diagram participants" xlink:actuate="onRequest" xlink:href="structclanguml_1_1sequence__diagram_1_1model_1_1participant.html" xlink:show="new" xlink:title="Base class for various types of sequence diagram participants" xlink:type="simple"><g id="elem_C_0001400215772842495226"><rect codeLine="65" fill="#F1F1F1" height="48" id="C_0001400215772842495226" rx="2.5" ry="2.5" style="stroke:#181818;stroke-width:0.5;" width="108.0156" x="456" y="479.2969"/><ellipse cx="471" cy="495.2969" fill="#ADD1B2" rx="11" ry="11" style="stroke:#181818;stroke-width:1;"/><path d="M473.9688,500.9375 Q473.3906,501.2344 472.75,501.375 Q472.1094,501.5313 471.4063,501.5313 Q468.9063,501.5313 467.5781,499.8906 Q466.2656,498.2344 466.2656,495.1094 Q466.2656,491.9844 467.5781,490.3281 Q468.9063,488.6719 471.4063,488.6719 Q472.1094,488.6719 472.75,488.8281 Q473.4063,488.9844 473.9688,489.2813 L473.9688,492 Q473.3438,491.4219 472.75,491.1563 Q472.1563,490.875 471.5313,490.875 Q470.1875,490.875 469.5,491.9531 Q468.8125,493.0156 468.8125,495.1094 Q468.8125,497.2031 469.5,498.2813 Q470.1875,499.3438 471.5313,499.3438 Q472.1563,499.3438 472.75,499.0781 Q473.3438,498.7969 473.9688,498.2188 L473.9688,500.9375 Z " fill="#000000"/><text fill="#000000" font-family="sans-serif" font-size="14" lengthAdjust="spacing" textLength="76.0156" x="485" y="500.1436">participant</text><line style="stroke:#181818;stroke-width:0.5;" x1="457" x2="563.0156" y1="511.2969" y2="511.2969"/><line style="stroke:#181818;stroke-width:0.5;" x1="457" x2="563.0156" y1="519.2969" y2="519.2969"/></g></a><!--class C_0000885514871619471610--><a href="structclanguml_1_1sequence__diagram_1_1model_1_1class__.html" target="_top" title="Sequence diagram participant representing a class." xlink:actuate="onRequest" xlink:href="structclanguml_1_1sequence__diagram_1_1model_1_1class__.html" xlink:show="new" xlink:title="Sequence diagram participant representing a class." xlink:type="simple"><g id="elem_C_0000885514871619471610"><rect codeLine="69" fill="#F1F1F1" height="48" id="C_0000885514871619471610" rx="2.5" ry="2.5" style="stroke:#181818;stroke-width:0.5;" width="73.7539" x="464" y="587.2969"/><ellipse cx="479" cy="603.2969" fill="#ADD1B2" rx="11" ry="11" style="stroke:#181818;stroke-width:1;"/><path d="M481.9688,608.9375 Q481.3906,609.2344 480.75,609.375 Q480.1094,609.5313 479.4063,609.5313 Q476.9063,609.5313 475.5781,607.8906 Q474.2656,606.2344 474.2656,603.1094 Q474.2656,599.9844 475.5781,598.3281 Q476.9063,596.6719 479.4063,596.6719 Q480.1094,596.6719 480.75,596.8281 Q481.4063,596.9844 481.9688,597.2813 L481.9688,600 Q481.3438,599.4219 480.75,599.1563 Q480.1563,598.875 479.5313,598.875 Q478.1875,598.875 477.5,599.9531 Q476.8125,601.0156 476.8125,603.1094 Q476.8125,605.2031 477.5,606.2813 Q478.1875,607.3438 479.5313,607.3438 Q480.1563,607.3438 480.75,607.0781 Q481.3438,606.7969 481.9688,606.2188 L481.9688,608.9375 Z " fill="#000000"/><text fill="#000000" font-family="sans-serif" font-size="14" lengthAdjust="spacing" textLength="41.7539" x="493" y="608.1436">class_</text><line style="stroke:#181818;stroke-width:0.5;" x1="465" x2="536.7539" y1="619.2969" y2="619.2969"/><line style="stroke:#181818;stroke-width:0.5;" x1="465" x2="536.7539" y1="627.2969" y2="627.2969"/></g></a><!--class C_0000232638456031681828--><a href="structclanguml_1_1sequence__diagram_1_1model_1_1function.html" target="_top" title="Participant mode representing a free function." xlink:actuate="onRequest" xlink:href="structclanguml_1_1sequence__diagram_1_1model_1_1function.html" xlink:show="new" xlink:title="Participant mode representing a free function." xlink:type="simple"><g id="elem_C_0000232638456031681828"><rect codeLine="73" fill="#F1F1F1" height="48" id="C_0000232638456031681828" rx="2.5" ry="2.5" style="stroke:#181818;stroke-width:0.5;" width="89.1895" x="573.5" y="587.2969"/><ellipse cx="588.5" cy="603.2969" fill="#ADD1B2" rx="11" ry="11" style="stroke:#181818;stroke-width:1;"/><path d="M591.4688,608.9375 Q590.8906,609.2344 590.25,609.375 Q589.6094,609.5313 588.9063,609.5313 Q586.4063,609.5313 585.0781,607.8906 Q583.7656,606.2344 583.7656,603.1094 Q583.7656,599.9844 585.0781,598.3281 Q586.4063,596.6719 588.9063,596.6719 Q589.6094,596.6719 590.25,596.8281 Q590.9063,596.9844 591.4688,597.2813 L591.4688,600 Q590.8438,599.4219 590.25,599.1563 Q589.6563,598.875 589.0313,598.875 Q587.6875,598.875 587,599.9531 Q586.3125,601.0156 586.3125,603.1094 Q586.3125,605.2031 587,606.2813 Q587.6875,607.3438 589.0313,607.3438 Q589.6563,607.3438 590.25,607.0781 Q590.8438,606.7969 591.4688,606.2188 L591.4688,608.9375 Z " fill="#000000"/><text fill="#000000" font-family="sans-serif" font-size="14" lengthAdjust="spacing" textLength="57.1895" x="602.5" y="608.1436">function</text><line style="stroke:#181818;stroke-width:0.5;" x1="574.5" x2="661.6895" y1="619.2969" y2="619.2969"/><line style="stroke:#181818;stroke-width:0.5;" x1="574.5" x2="661.6895" y1="627.2969" y2="627.2969"/></g></a><!--class C_0000817665972547784504--><a href="structclanguml_1_1sequence__diagram_1_1model_1_1method.html" target="_top" title="Participant model representing a method" xlink:actuate="onRequest" xlink:href="structclanguml_1_1sequence__diagram_1_1model_1_1method.html" xlink:show="new" xlink:title="Participant model representing a method" xlink:type="simple"><g id="elem_C_0000817665972547784504"><rect codeLine="77" fill="#F1F1F1" height="48" id="C_0000817665972547784504" rx="2.5" ry="2.5" style="stroke:#181818;stroke-width:0.5;" width="86.0654" x="456" y="695.2969"/><ellipse cx="471" cy="711.2969" fill="#ADD1B2" rx="11" ry="11" style="stroke:#181818;stroke-width:1;"/><path d="M473.9688,716.9375 Q473.3906,717.2344 472.75,717.375 Q472.1094,717.5313 471.4063,717.5313 Q468.9063,717.5313 467.5781,715.8906 Q466.2656,714.2344 466.2656,711.1094 Q466.2656,707.9844 467.5781,706.3281 Q468.9063,704.6719 471.4063,704.6719 Q472.1094,704.6719 472.75,704.8281 Q473.4063,704.9844 473.9688,705.2813 L473.9688,708 Q473.3438,707.4219 472.75,707.1563 Q472.1563,706.875 471.5313,706.875 Q470.1875,706.875 469.5,707.9531 Q468.8125,709.0156 468.8125,711.1094 Q468.8125,713.2031 469.5,714.2813 Q470.1875,715.3438 471.5313,715.3438 Q472.1563,715.3438 472.75,715.0781 Q473.3438,714.7969 473.9688,714.2188 L473.9688,716.9375 Z " fill="#000000"/><text fill="#000000" font-family="sans-serif" font-size="14" lengthAdjust="spacing" textLength="54.0654" x="485" y="716.1436">method</text><line style="stroke:#181818;stroke-width:0.5;" x1="457" x2="541.0654" y1="727.2969" y2="727.2969"/><line style="stroke:#181818;stroke-width:0.5;" x1="457" x2="541.0654" y1="735.2969" y2="735.2969"/></g></a><!--class C_0002280191967493310558--><a href="structclanguml_1_1sequence__diagram_1_1model_1_1function__template.html" target="_top" title="Participant model representing a function template." xlink:actuate="onRequest" xlink:href="structclanguml_1_1sequence__diagram_1_1model_1_1function__template.html" xlink:show="new" xlink:title="Participant model representing a function template." xlink:type="simple"><g id="elem_C_0002280191967493310558"><rect codeLine="81" fill="#F1F1F1" height="48" id="C_0002280191967493310558" rx="2.5" ry="2.5" style="stroke:#181818;stroke-width:0.5;" width="159.3877" x="577.5" y="695.2969"/><ellipse cx="592.5" cy="711.2969" fill="#ADD1B2" rx="11" ry="11" style="stroke:#181818;stroke-width:1;"/><path d="M595.4688,716.9375 Q594.8906,717.2344 594.25,717.375 Q593.6094,717.5313 592.9063,717.5313 Q590.4063,717.5313 589.0781,715.8906 Q587.7656,714.2344 587.7656,711.1094 Q587.7656,707.9844 589.0781,706.3281 Q590.4063,704.6719 592.9063,704.6719 Q593.6094,704.6719 594.25,704.8281 Q594.9063,704.9844 595.4688,705.2813 L595.4688,708 Q594.8438,707.4219 594.25,707.1563 Q593.6563,706.875 593.0313,706.875 Q591.6875,706.875 591,707.9531 Q590.3125,709.0156 590.3125,711.1094 Q590.3125,713.2031 591,714.2813 Q591.6875,715.3438 593.0313,715.3438 Q593.6563,715.3438 594.25,715.0781 Q594.8438,714.7969 595.4688,714.2188 L595.4688,716.9375 Z " fill="#000000"/><text fill="#000000" font-family="sans-serif" font-size="14" lengthAdjust="spacing" textLength="127.3877" x="606.5" y="716.1436">function_template</text><line style="stroke:#181818;stroke-width:0.5;" x1="578.5" x2="735.8877" y1="727.2969" y2="727.2969"/><line style="stroke:#181818;stroke-width:0.5;" x1="578.5" x2="735.8877" y1="735.2969" y2="735.2969"/></g></a><!--class C_0002228653068706235818--><a href="classclanguml_1_1sequence__diagram_1_1model_1_1message.html" target="_top" title="Model of a sequence diagram message." xlink:actuate="onRequest" xlink:href="classclanguml_1_1sequence__diagram_1_1model_1_1message.html" xlink:show="new" xlink:title="Model of a sequence diagram message." xlink:type="simple"><g id="elem_C_0002228653068706235818"><rect codeLine="85" fill="#F1F1F1" height="48" id="C_0002228653068706235818" rx="2.5" ry="2.5" style="stroke:#181818;stroke-width:0.5;" width="94.918" x="599.5" y="479.2969"/><ellipse cx="614.5" cy="495.2969" fill="#ADD1B2" rx="11" ry="11" style="stroke:#181818;stroke-width:1;"/><path d="M617.4688,500.9375 Q616.8906,501.2344 616.25,501.375 Q615.6094,501.5313 614.9063,501.5313 Q612.4063,501.5313 611.0781,499.8906 Q609.7656,498.2344 609.7656,495.1094 Q609.7656,491.9844 611.0781,490.3281 Q612.4063,488.6719 614.9063,488.6719 Q615.6094,488.6719 616.25,488.8281 Q616.9063,488.9844 617.4688,489.2813 L617.4688,492 Q616.8438,491.4219 616.25,491.1563 Q615.6563,490.875 615.0313,490.875 Q613.6875,490.875 613,491.9531 Q612.3125,493.0156 612.3125,495.1094 Q612.3125,497.2031 613,498.2813 Q613.6875,499.3438 615.0313,499.3438 Q615.6563,499.3438 616.25,499.0781 Q616.8438,498.7969 617.4688,498.2188 L617.4688,500.9375 Z " fill="#000000"/><text fill="#000000" font-family="sans-serif" font-size="14" lengthAdjust="spacing" textLength="62.918" x="628.5" y="500.1436">message</text><line style="stroke:#181818;stroke-width:0.5;" x1="600.5" x2="693.418" y1="511.2969" y2="511.2969"/><line style="stroke:#181818;stroke-width:0.5;" x1="600.5" x2="693.418" y1="519.2969" y2="519.2969"/></g></a><!--reverse link C_0001117102382624673118 to C_0002046336758797367926--><g id="link_C_0001117102382624673118_C_0002046336758797367926"><path codeLine="90" d="M217.2937,179.0692 C189.8837,196.7892 167.27,211.4069 139.8,229.1569 " fill="transparent" id="C_0001117102382624673118-backto-C_0002046336758797367926" style="stroke:#181818;stroke-width:1;"/><polygon fill="transparent" points="232.41,169.2969,214.0363,174.0305,220.5512,184.108,232.41,169.2969" style="stroke:#181818;stroke-width:1;"/></g><!--reverse link C_0001117102382624673118 to C_0001073500714379115414--><g id="link_C_0001117102382624673118_C_0001073500714379115414"><path codeLine="91" d="M270.3176,187.2681 C271.3176,204.9281 271.68,211.2369 272.68,228.9769 " fill="transparent" id="C_0001117102382624673118-backto-C_0001073500714379115414" style="stroke:#181818;stroke-width:1;"/><polygon fill="transparent" points="269.3,169.2969,264.3272,187.6073,276.308,186.9289,269.3,169.2969" style="stroke:#181818;stroke-width:1;"/></g><!--reverse link C_0001073500714379115414 to C_0002069520381434407937--><g id="link_C_0001073500714379115414_C_0002069520381434407937"><path codeLine="92" d="M237.4457,289.8459 C219.2857,307.5059 207.22,319.2369 188.98,336.9769 " fill="transparent" id="C_0001073500714379115414-backto-C_0002069520381434407937" style="stroke:#181818;stroke-width:1;"/><polygon fill="transparent" points="250.35,277.2969,233.2627,285.5445,241.6287,294.1474,250.35,277.2969" style="stroke:#181818;stroke-width:1;"/></g><!--reverse link C_0001073500714379115414 to C_0000785714713072053129--><g id="link_C_0001073500714379115414_C_0000785714713072053129"><path codeLine="93" d="M283.5565,294.8151 C287.7265,312.4751 289.32,319.2369 293.5,336.9769 " fill="transparent" id="C_0001073500714379115414-backto-C_0000785714713072053129" style="stroke:#181818;stroke-width:1;"/><polygon fill="transparent" points="279.42,277.2969,277.7171,296.194,289.3959,293.4363,279.42,277.2969" style="stroke:#181818;stroke-width:1;"/></g><!--reverse link C_0002069520381434407937 to C_0002143286684830686854--><g id="link_C_0002069520381434407937_C_0002143286684830686854"><path codeLine="94" d="M165,403.4169 C165,429.3569 165,453.1869 165,479.1469 " fill="transparent" id="C_0002069520381434407937-backto-C_0002143286684830686854" style="stroke:#181818;stroke-width:1;"/><polygon fill="transparent" points="165,385.4169,159,403.4169,171,403.4169,165,385.4169" style="stroke:#181818;stroke-width:1;"/></g><!--reverse link C_0001117102382624673118 to C_0000605866861866358037--><g id="link_C_0001117102382624673118_C_0000605866861866358037"><path codeLine="95" d="M370.0517,152.7347 C539.7017,166.4247 911.28,214.9769 1176,393.2969 C1208.55,415.2269 1233.62,454.1669 1247.33,479.0769 " fill="transparent" id="C_0001117102382624673118-backto-C_0000605866861866358037" style="stroke:#181818;stroke-width:1;"/><polygon fill="transparent" points="352.11,151.2869,369.5691,158.7152,370.5343,146.7541,352.11,151.2869" style="stroke:#181818;stroke-width:1;"/></g><!--reverse link C_0000605866861866358037 to C_0001796282762108527255--><g id="link_C_0000605866861866358037_C_0001796282762108527255"><path codeLine="96" d="M1229.8919,541.4684 C1216.0619,559.1284 1208.15,569.2369 1194.26,586.9769 " fill="transparent" id="C_0000605866861866358037-backto-C_0001796282762108527255" style="stroke:#181818;stroke-width:1;"/><polygon fill="transparent" points="1240.99,527.2969,1225.1681,537.769,1234.6158,545.1678,1240.99,527.2969" style="stroke:#181818;stroke-width:1;"/></g><!--reverse link C_0001117102382624673118 to C_0000605669033368926050--><g id="link_C_0001117102382624673118_C_0000605669033368926050"><path codeLine="97" d="M370.1772,146.4065 C562.1972,149.8165 1022.6,180.4069 1342,393.2969 C1377.21,416.7669 1408.75,454.8969 1426.88,479.2769 " fill="transparent" id="C_0001117102382624673118-backto-C_0000605669033368926050" style="stroke:#181818;stroke-width:1;"/><polygon fill="transparent" points="352.18,146.0869,370.0706,152.4055,370.2837,140.4074,352.18,146.0869" style="stroke:#181818;stroke-width:1;"/></g><!--reverse link C_0000605866861866358037 to C_0000204145716468348671--><g id="link_C_0000605866861866358037_C_0000204145716468348671"><path codeLine="98" d="M1288.1081,541.4684 C1301.9381,559.1284 1309.85,569.2369 1323.74,586.9769 " fill="transparent" id="C_0000605866861866358037-backto-C_0000204145716468348671" style="stroke:#181818;stroke-width:1;"/><polygon fill="transparent" points="1277.01,527.2969,1283.3842,545.1678,1292.8319,537.769,1277.01,527.2969" style="stroke:#181818;stroke-width:1;"/></g><!--reverse link C_0002069520381434407937 to C_0001292034357466653182--><g id="link_C_0002069520381434407937_C_0001292034357466653182"><path codeLine="99" d="M227.4634,386.1625 C233.3434,387.9725 222.16,384.2269 228,385.2969 C247.35,388.8269 919.31,382.8969 936,393.2969 C966.22,412.1369 980.46,453.1869 986.68,479.1869 " fill="transparent" id="C_0002069520381434407937-backto-C_0001292034357466653182" style="stroke:#181818;stroke-width:1;"/><polygon fill="transparent" points="210.26,380.8669,225.6982,391.8969,229.2286,380.428,210.26,380.8669" style="stroke:#181818;stroke-width:1;"/></g><!--reverse link C_0002069520381434407937 to C_0000724392977093650506--><g id="link_C_0002069520381434407937_C_0000724392977093650506"><path codeLine="100" d="M227.4659,386.1343 C233.3559,387.9443 222.16,384.2169 228,385.2969 C256.63,390.5869 724.78,382.9769 752,393.2969 C797.92,410.6969 838.56,452.6269 860.88,479.1169 " fill="transparent" id="C_0002069520381434407937-backto-C_0000724392977093650506" style="stroke:#181818;stroke-width:1;"/><polygon fill="transparent" points="210.26,380.8469,225.7035,391.8696,229.2284,380.399,210.26,380.8469" style="stroke:#181818;stroke-width:1;"/></g><!--reverse link C_0002069520381434407937 to C_0001374849051752224500--><g id="link_C_0002069520381434407937_C_0001374849051752224500"><path codeLine="101" d="M227.4634,386.1725 C233.3434,387.9825 222.16,384.2369 228,385.2969 C250.36,389.3669 1026.3,381.9769 1046,393.2969 C1078.1,411.7369 1096.06,452.9169 1104.62,479.0469 " fill="transparent" id="C_0002069520381434407937-backto-C_0001374849051752224500" style="stroke:#181818;stroke-width:1;"/><polygon fill="transparent" points="210.26,380.8769,225.6982,391.9069,229.2286,380.438,210.26,380.8769" style="stroke:#181818;stroke-width:1;"/></g><!--reverse link C_0002069520381434407937 to C_0001400215772842495226--><g id="link_C_0002069520381434407937_C_0001400215772842495226"><path codeLine="102" d="M227.4886,385.9925 C233.3686,387.8325 222.18,384.0969 228,385.2969 C258.52,391.5969 338.79,382.4369 368,393.2969 C416.94,411.4869 462.8,452.7469 488.55,478.9569 " fill="transparent" id="C_0002069520381434407937-backto-C_0001400215772842495226" style="stroke:#181818;stroke-width:1;"/><polygon fill="transparent" points="210.31,380.6169,225.6967,391.7187,229.2804,380.2663,210.31,380.6169" style="stroke:#181818;stroke-width:1;"/></g><!--reverse link C_0001400215772842495226 to C_0000885514871619471610--><g id="link_C_0001400215772842495226_C_0000885514871619471610"><path codeLine="103" d="M506.5266,545.2323 C505.0266,562.8923 504.49,569.2369 502.98,586.9769 " fill="transparent" id="C_0001400215772842495226-backto-C_0000885514871619471610" style="stroke:#181818;stroke-width:1;"/><polygon fill="transparent" points="508.05,527.2969,500.5481,544.7245,512.5051,545.7401,508.05,527.2969" style="stroke:#181818;stroke-width:1;"/></g><!--reverse link C_0001400215772842495226 to C_0000232638456031681828--><g id="link_C_0001400215772842495226_C_0000232638456031681828"><path codeLine="104" d="M546.1105,540.0118 C560.1805,553.9218 565.69,559.3269 582,575.2969 C585.86,579.0769 589.96,583.0769 593.96,586.9769 " fill="transparent" id="C_0001400215772842495226-backto-C_0000232638456031681828" style="stroke:#181818;stroke-width:1;"/><polygon fill="transparent" points="533.31,527.3569,541.8922,544.2786,550.3288,535.745,533.31,527.3569" style="stroke:#181818;stroke-width:1;"/></g><!--reverse link C_0000232638456031681828 to C_0000817665972547784504--><g id="link_C_0000232638456031681828_C_0000817665972547784504"><path codeLine="105" d="M589.6827,649.444 C578.0227,664.184 572.87,669.0369 556,683.2969 C551.03,687.4969 545.51,691.5269 539.92,695.2769 " fill="transparent" id="C_0000232638456031681828-backto-C_0000817665972547784504" style="stroke:#181818;stroke-width:1;"/><polygon fill="transparent" points="600.85,635.3269,584.977,645.7216,594.3884,653.1664,600.85,635.3269" style="stroke:#181818;stroke-width:1;"/></g><!--reverse link C_0000232638456031681828 to C_0002280191967493310558--><g id="link_C_0000232638456031681828_C_0002280191967493310558"><path codeLine="106" d="M632.6774,652.189 C639.1774,669.849 641.89,677.2369 648.42,694.9769 " fill="transparent" id="C_0000232638456031681828-backto-C_0002280191967493310558" style="stroke:#181818;stroke-width:1;"/><polygon fill="transparent" points="626.46,635.2969,627.0467,654.2615,638.3081,650.1166,626.46,635.2969" style="stroke:#181818;stroke-width:1;"/></g><!--reverse link C_0001073500714379115414 to C_0002228653068706235818--><g id="link_C_0001073500714379115414_C_0002228653068706235818"><path codeLine="107" d="M368.7741,280.2346 C435.9041,301.1646 515.24,333.7369 582,393.2969 C608.8,417.2069 627.82,454.8569 638.11,479.0569 " fill="transparent" id="C_0001073500714379115414-backto-C_0002228653068706235818" style="stroke:#181818;stroke-width:1;"/><polygon fill="transparent" points="351.59,274.8769,366.9882,285.9626,370.5601,274.5066,351.59,274.8769" style="stroke:#181818;stroke-width:1;"/></g><!--SRC=[fLZRRjj647ttLopoaWIkXBrVW3xL0VgI00MAziKmY3MraeZoef1KMYDDlht3cxGKbmgjse14U6OvvypidfbrdTIfGnzSN9IsTXkqIUokj1bogSjSNgCujLM5zeahRHdlN-uEDlxBxXnwZ8iiA_8dP2lq467uOKHAB33ZXc9AgUGQVJsxPyN6fPutranHeh7a30j2DIFWtGLxindGH3sADwTrX115C6MQIigbOeJeVjMS6Jq-jWxmaU-EMHgHY7JOcwSMLlDmZZa4NU_hBFtwYwrSduHjKQBDNAAgRqzFm22AxhuDD4gNsZefycgV7CuCAEQICQc4LaR1jw7IPn0mBsJWX-kmFxIlBTsXT1L0JF8TilaByXrHKUzTYUgzpL6ImsDIspnsKp8ztK15i682OqKuKuOGmGaVLMHgNbgHFkBLUbG0TsFJ8dUJWgod92RWAPP6KCmqmECSAyFKk1WJyqBmrp0tDHYEr-UZJPDj0llf-GNbDdCLd1WNW5uLnp9sqJP9tHa-Lbf0PXLXM54i6A76XnymBuJVHsl3THm-NEZ2Q5TLHUPGuukQ8vAKBgwByYN0efS3hm2GMQgbr5mpBBNKOhHx0kQ53Ff82y2ViZu2Z_eNU1oQtxFyDHYYVi-TTOrIZebKc4cAYQ92OdbD1RLHX78AcYavC8L5PnNi8aosB0QHRJ8Y2NmoeV5uomRCmOorBn_mZpBNcwxjuEvfE6ZedLllrYXpsJD82PWpL- -BpVj0_RjtTvwUX2WZgQPAKeAre90sCPAGgVasIbrSNnjxpArZ06v793fOUA6hVSXDcgKqc85MQz1eQ7oNLRWmln9o7_eSkuFzgR6ZOejidsLqTfXFT-FeOOSUGpWeW-HICwwb8YFiK_EjwMxYZjFTGfvBTxVEsnSKHWd6cL1SIWdwfUbeNqpDjm5T81Ast_EdpL-xx01jD2JLBZzcaI_Ib3D3ZLBOC2bWAyYnI4_ChsJHnkj9jC-1p1RGr0-rdrkckEO6PYybO5hZqAD7kPsQNvlRFcHqiN4VxkzHRrlFYMlbFXyTk4prbGWO6a4DE3O21C5GTarVQTF0fT4QD-q3iYpvML_XuDH9d1piQ9hXJTCHIa48og7vZwUpW1dIKjNbCQxzl9m815FZHGxAwnTR9iKHzjZBmLLDpeRNdMOSxmtLZyyHrbe8mZKSQM9uypaMgwdv1bAZi_Jx5S31WnKuHjjZ7ZTZgYzSq2APvj1LuRAXuRphiN1Dp3Vm6C9sH7xpS3Skb-2tfOF9PrWorq7yKX05McMWYN6b02lcur9Cp3TGy8Ntaa1woQ1pdaz_D2YTDxHHZOaXHYfk62DOY54T0kR_KOVe160XeM7XDOc6YQyQpw406be8p9WAImfp4xcWD367vF17PMc3JXhvv7GFZXVoE7l3_VdVrMh-ShbWMUWEDtjxywDDRqyBbeLkBRFNBIzQuAgmW5jeNfwTbBsK16RIXT4kvy85qK8ZsOAKX0Qa1Sj24ycIQ86HOScoG4kTRQOUo43JMh8iq2DckuCVRQhB2vQ5b739mGcepTtRNrtkklyj_PtKUzGAomgKvIVqnPLLesXupTTufLOxRUKpD-hkxSUFVtuwcVzuFkRriLju-YEHQxoMwDtzFGKkW0XZ3a_gNiNFMsAfC31JhSXtzy-1V1zS2Dn4kLu3eVV_0G00]--></g></svg>