<svg xmlns="http://www.w3.org/2000/svg" xmlns:xlink="http://www.w3.org/1999/xlink" contentStyleType="text/css" data-diagram-type="CLASS" height="365px" preserveAspectRatio="none" style="width:753px;height:365px;background:#FFFFFF;" version="1.1" viewBox="0 0 753 365" width="753px" zoomAndPan="magnify"><title>Configuration model class hierarchy</title><defs/><g><text fill="#000000" font-family="sans-serif" font-size="14" font-weight="bold" lengthAdjust="spacing" textLength="285.4277" x="226.7861" y="22.9951">Configuration model class hierarchy</text><!--cluster C_0000111389493058790497--><g id="cluster_C_0000111389493058790497"><path d="M8.5,43.2969 L58.2949,43.2969 A3.75,3.75 0 0 1 60.7949,45.7969 L67.7949,65.5938 L743.5,65.5938 A2.5,2.5 0 0 1 746,68.0938 L746,355.7969 A2.5,2.5 0 0 1 743.5,358.2969 L8.5,358.2969 A2.5,2.5 0 0 1 6,355.7969 L6,45.7969 A2.5,2.5 0 0 1 8.5,43.2969 " fill="transparent" style="stroke:#000000;stroke-width:1.5;"/><line style="stroke:#000000;stroke-width:1.5;" x1="6" x2="67.7949" y1="65.5938" y2="65.5938"/><text fill="#000000" font-family="sans-serif" font-size="14" font-weight="bold" lengthAdjust="spacing" textLength="48.7949" x="10" y="58.292">config</text></g><!--class C_0000120779063265662583--><a href="structclanguml_1_1config_1_1inheritable__diagram__options.html" target="_top" title="Represents subset of inheritable configuration options" xlink:actuate="onRequest" xlink:href="structclanguml_1_1config_1_1inheritable__diagram__options.html" xlink:show="new" xlink:title="Represents subset of inheritable configuration options" xlink:type="simple"><g id="elem_C_0000120779063265662583"><rect codeLine="4" fill="#F1F1F1" height="48" id="C_0000120779063265662583" rx="2.5" ry="2.5" style="stroke:#181818;stroke-width:0.5;" width="231.1309" x="254.5" y="78.2969"/><ellipse cx="269.5" cy="94.2969" fill="#ADD1B2" rx="11" ry="11" style="stroke:#181818;stroke-width:1;"/><path d="M272.4688,99.9375 Q271.8906,100.2344 271.25,100.375 Q270.6094,100.5313 269.9063,100.5313 Q267.4063,100.5313 266.0781,98.8906 Q264.7656,97.2344 264.7656,94.1094 Q264.7656,90.9844 266.0781,89.3281 Q267.4063,87.6719 269.9063,87.6719 Q270.6094,87.6719 271.25,87.8281 Q271.9063,87.9844 272.4688,88.2813 L272.4688,91 Q271.8438,90.4219 271.25,90.1563 Q270.6563,89.875 270.0313,89.875 Q268.6875,89.875 268,90.9531 Q267.3125,92.0156 267.3125,94.1094 Q267.3125,96.2031 268,97.2813 Q268.6875,98.3438 270.0313,98.3438 Q270.6563,98.3438 271.25,98.0781 Q271.8438,97.7969 272.4688,97.2188 L272.4688,99.9375 Z " fill="#000000"/><text fill="#000000" font-family="sans-serif" font-size="14" lengthAdjust="spacing" textLength="199.1309" x="283.5" y="99.1436">inheritable_diagram_options</text><line style="stroke:#181818;stroke-width:0.5;" x1="255.5" x2="484.6309" y1="110.2969" y2="110.2969"/><line style="stroke:#181818;stroke-width:0.5;" x1="255.5" x2="484.6309" y1="118.2969" y2="118.2969"/></g></a><!--class C_0000400244097365422548--><a href="structclanguml_1_1config_1_1diagram.html" target="_top" title="Common diagram configuration type" xlink:actuate="onRequest" xlink:href="structclanguml_1_1config_1_1diagram.html" xlink:show="new" xlink:title="Common diagram configuration type" xlink:type="simple"><g id="elem_C_0000400244097365422548"><rect codeLine="8" fill="#F1F1F1" height="48" id="C_0000400244097365422548" rx="2.5" ry="2.5" style="stroke:#181818;stroke-width:0.5;" width="90.2148" x="325" y="186.2969"/><ellipse cx="340" cy="202.2969" fill="#ADD1B2" rx="11" ry="11" style="stroke:#181818;stroke-width:1;"/><path d="M342.9688,207.9375 Q342.3906,208.2344 341.75,208.375 Q341.1094,208.5313 340.4063,208.5313 Q337.9063,208.5313 336.5781,206.8906 Q335.2656,205.2344 335.2656,202.1094 Q335.2656,198.9844 336.5781,197.3281 Q337.9063,195.6719 340.4063,195.6719 Q341.1094,195.6719 341.75,195.8281 Q342.4063,195.9844 342.9688,196.2813 L342.9688,199 Q342.3438,198.4219 341.75,198.1563 Q341.1563,197.875 340.5313,197.875 Q339.1875,197.875 338.5,198.9531 Q337.8125,200.0156 337.8125,202.1094 Q337.8125,204.2031 338.5,205.2813 Q339.1875,206.3438 340.5313,206.3438 Q341.1563,206.3438 341.75,206.0781 Q342.3438,205.7969 342.9688,205.2188 L342.9688,207.9375 Z " fill="#000000"/><text fill="#000000" font-family="sans-serif" font-size="14" lengthAdjust="spacing" textLength="58.2148" x="354" y="207.1436">diagram</text><line style="stroke:#181818;stroke-width:0.5;" x1="326" x2="414.2148" y1="218.2969" y2="218.2969"/><line style="stroke:#181818;stroke-width:0.5;" x1="326" x2="414.2148" y1="226.2969" y2="226.2969"/></g></a><!--class C_0000315821915147252995--><a href="structclanguml_1_1config_1_1class__diagram.html" target="_top" title="Class diagram configuration" xlink:actuate="onRequest" xlink:href="structclanguml_1_1config_1_1class__diagram.html" xlink:show="new" xlink:title="Class diagram configuration" xlink:type="simple"><g id="elem_C_0000315821915147252995"><rect codeLine="12" fill="#F1F1F1" height="48" id="C_0000315821915147252995" rx="2.5" ry="2.5" style="stroke:#181818;stroke-width:0.5;" width="131.9688" x="22" y="294.2969"/><ellipse cx="37" cy="310.2969" fill="#ADD1B2" rx="11" ry="11" style="stroke:#181818;stroke-width:1;"/><path d="M39.9688,315.9375 Q39.3906,316.2344 38.75,316.375 Q38.1094,316.5313 37.4063,316.5313 Q34.9063,316.5313 33.5781,314.8906 Q32.2656,313.2344 32.2656,310.1094 Q32.2656,306.9844 33.5781,305.3281 Q34.9063,303.6719 37.4063,303.6719 Q38.1094,303.6719 38.75,303.8281 Q39.4063,303.9844 39.9688,304.2813 L39.9688,307 Q39.3438,306.4219 38.75,306.1563 Q38.1563,305.875 37.5313,305.875 Q36.1875,305.875 35.5,306.9531 Q34.8125,308.0156 34.8125,310.1094 Q34.8125,312.2031 35.5,313.2813 Q36.1875,314.3438 37.5313,314.3438 Q38.1563,314.3438 38.75,314.0781 Q39.3438,313.7969 39.9688,313.2188 L39.9688,315.9375 Z " fill="#000000"/><text fill="#000000" font-family="sans-serif" font-size="14" lengthAdjust="spacing" textLength="99.9688" x="51" y="315.1436">class_diagram</text><line style="stroke:#181818;stroke-width:0.5;" x1="23" x2="152.9688" y1="326.2969" y2="326.2969"/><line style="stroke:#181818;stroke-width:0.5;" x1="23" x2="152.9688" y1="334.2969" y2="334.2969"/></g></a><!--class C_0002069553655160139136--><a href="structclanguml_1_1config_1_1sequence__diagram.html" target="_top" title="Sequence diagram configuration" xlink:actuate="onRequest" xlink:href="structclanguml_1_1config_1_1sequence__diagram.html" xlink:show="new" xlink:title="Sequence diagram configuration" xlink:type="simple"><g id="elem_C_0002069553655160139136"><rect codeLine="16" fill="#F1F1F1" height="48" id="C_0002069553655160139136" rx="2.5" ry="2.5" style="stroke:#181818;stroke-width:0.5;" width="164.6787" x="189.5" y="294.2969"/><ellipse cx="204.5" cy="310.2969" fill="#ADD1B2" rx="11" ry="11" style="stroke:#181818;stroke-width:1;"/><path d="M207.4688,315.9375 Q206.8906,316.2344 206.25,316.375 Q205.6094,316.5313 204.9063,316.5313 Q202.4063,316.5313 201.0781,314.8906 Q199.7656,313.2344 199.7656,310.1094 Q199.7656,306.9844 201.0781,305.3281 Q202.4063,303.6719 204.9063,303.6719 Q205.6094,303.6719 206.25,303.8281 Q206.9063,303.9844 207.4688,304.2813 L207.4688,307 Q206.8438,306.4219 206.25,306.1563 Q205.6563,305.875 205.0313,305.875 Q203.6875,305.875 203,306.9531 Q202.3125,308.0156 202.3125,310.1094 Q202.3125,312.2031 203,313.2813 Q203.6875,314.3438 205.0313,314.3438 Q205.6563,314.3438 206.25,314.0781 Q206.8438,313.7969 207.4688,313.2188 L207.4688,315.9375 Z " fill="#000000"/><text fill="#000000" font-family="sans-serif" font-size="14" lengthAdjust="spacing" textLength="132.6787" x="218.5" y="315.1436">sequence_diagram</text><line style="stroke:#181818;stroke-width:0.5;" x1="190.5" x2="353.1787" y1="326.2969" y2="326.2969"/><line style="stroke:#181818;stroke-width:0.5;" x1="190.5" x2="353.1787" y1="334.2969" y2="334.2969"/></g></a><!--class C_0002030177163277970590--><a href="structclanguml_1_1config_1_1package__diagram.html" target="_top" title="Package diagram configuration" xlink:actuate="onRequest" xlink:href="structclanguml_1_1config_1_1package__diagram.html" xlink:show="new" xlink:title="Package diagram configuration" xlink:type="simple"><g id="elem_C_0002030177163277970590"><rect codeLine="20" fill="#F1F1F1" height="48" id="C_0002030177163277970590" rx="2.5" ry="2.5" style="stroke:#181818;stroke-width:0.5;" width="156.5645" x="389.5" y="294.2969"/><ellipse cx="404.5" cy="310.2969" fill="#ADD1B2" rx="11" ry="11" style="stroke:#181818;stroke-width:1;"/><path d="M407.4688,315.9375 Q406.8906,316.2344 406.25,316.375 Q405.6094,316.5313 404.9063,316.5313 Q402.4063,316.5313 401.0781,314.8906 Q399.7656,313.2344 399.7656,310.1094 Q399.7656,306.9844 401.0781,305.3281 Q402.4063,303.6719 404.9063,303.6719 Q405.6094,303.6719 406.25,303.8281 Q406.9063,303.9844 407.4688,304.2813 L407.4688,307 Q406.8438,306.4219 406.25,306.1563 Q405.6563,305.875 405.0313,305.875 Q403.6875,305.875 403,306.9531 Q402.3125,308.0156 402.3125,310.1094 Q402.3125,312.2031 403,313.2813 Q403.6875,314.3438 405.0313,314.3438 Q405.6563,314.3438 406.25,314.0781 Q406.8438,313.7969 407.4688,313.2188 L407.4688,315.9375 Z " fill="#000000"/><text fill="#000000" font-family="sans-serif" font-size="14" lengthAdjust="spacing" textLength="124.5645" x="418.5" y="315.1436">package_diagram</text><line style="stroke:#181818;stroke-width:0.5;" x1="390.5" x2="545.0645" y1="326.2969" y2="326.2969"/><line style="stroke:#181818;stroke-width:0.5;" x1="390.5" x2="545.0645" y1="334.2969" y2="334.2969"/></g></a><!--class C_0000509333813868966475--><a href="structclanguml_1_1config_1_1include__diagram.html" target="_top" title="Include diagram configuration" xlink:actuate="onRequest" xlink:href="structclanguml_1_1config_1_1include__diagram.html" xlink:show="new" xlink:title="Include diagram configuration" xlink:type="simple"><g id="elem_C_0000509333813868966475"><rect codeLine="24" fill="#F1F1F1" height="48" id="C_0000509333813868966475" rx="2.5" ry="2.5" style="stroke:#181818;stroke-width:0.5;" width="147.9375" x="582" y="294.2969"/><ellipse cx="597" cy="310.2969" fill="#ADD1B2" rx="11" ry="11" style="stroke:#181818;stroke-width:1;"/><path d="M599.9688,315.9375 Q599.3906,316.2344 598.75,316.375 Q598.1094,316.5313 597.4063,316.5313 Q594.9063,316.5313 593.5781,314.8906 Q592.2656,313.2344 592.2656,310.1094 Q592.2656,306.9844 593.5781,305.3281 Q594.9063,303.6719 597.4063,303.6719 Q598.1094,303.6719 598.75,303.8281 Q599.4063,303.9844 599.9688,304.2813 L599.9688,307 Q599.3438,306.4219 598.75,306.1563 Q598.1563,305.875 597.5313,305.875 Q596.1875,305.875 595.5,306.9531 Q594.8125,308.0156 594.8125,310.1094 Q594.8125,312.2031 595.5,313.2813 Q596.1875,314.3438 597.5313,314.3438 Q598.1563,314.3438 598.75,314.0781 Q599.3438,313.7969 599.9688,313.2188 L599.9688,315.9375 Z " fill="#000000"/><text fill="#000000" font-family="sans-serif" font-size="14" lengthAdjust="spacing" textLength="115.9375" x="611" y="315.1436">include_diagram</text><line style="stroke:#181818;stroke-width:0.5;" x1="583" x2="728.9375" y1="326.2969" y2="326.2969"/><line style="stroke:#181818;stroke-width:0.5;" x1="583" x2="728.9375" y1="334.2969" y2="334.2969"/></g></a><!--reverse link C_0000120779063265662583 to C_0000400244097365422548--><g id="link_C_0000120779063265662583_C_0000400244097365422548"><path codeLine="28" d="M370,144.2969 C370,161.9569 370,168.2369 370,185.9769 " fill="transparent" id="C_0000120779063265662583-backto-C_0000400244097365422548" style="stroke:#181818;stroke-width:1;"/><polygon fill="transparent" points="370,126.2969,364,144.2969,376,144.2969,370,126.2969" style="stroke:#181818;stroke-width:1;"/></g><!--reverse link C_0000400244097365422548 to C_0000315821915147252995--><g id="link_C_0000400244097365422548_C_0000315821915147252995"><path codeLine="29" d="M307.8413,234.6611 C260.2813,252.5411 202.06,274.4269 149.24,294.2769 " fill="transparent" id="C_0000400244097365422548-backto-C_0000315821915147252995" style="stroke:#181818;stroke-width:1;"/><polygon fill="transparent" points="324.69,228.3269,305.7299,229.0448,309.9527,240.2773,324.69,228.3269" style="stroke:#181818;stroke-width:1;"/></g><!--reverse link C_0000400244097365422548 to C_0002069553655160139136--><g id="link_C_0000400244097365422548_C_0002069553655160139136"><path codeLine="30" d="M336.5195,247.5127 C320.1895,265.1727 309.96,276.2369 293.56,293.9769 " fill="transparent" id="C_0000400244097365422548-backto-C_0002069553655160139136" style="stroke:#181818;stroke-width:1;"/><polygon fill="transparent" points="348.74,234.2969,332.1142,243.4392,340.9247,251.5862,348.74,234.2969" style="stroke:#181818;stroke-width:1;"/></g><!--reverse link C_0000400244097365422548 to C_0002030177163277970590--><g id="link_C_0000400244097365422548_C_0002030177163277970590"><path codeLine="31" d="M403.4805,247.5127 C419.8105,265.1727 430.04,276.2369 446.44,293.9769 " fill="transparent" id="C_0000400244097365422548-backto-C_0002030177163277970590" style="stroke:#181818;stroke-width:1;"/><polygon fill="transparent" points="391.26,234.2969,399.0753,251.5862,407.8858,243.4392,391.26,234.2969" style="stroke:#181818;stroke-width:1;"/></g><!--reverse link C_0000400244097365422548 to C_0000509333813868966475--><g id="link_C_0000400244097365422548_C_0000509333813868966475"><path codeLine="32" d="M431.8783,234.2317 C480.0183,252.0717 539.82,274.2369 593.73,294.2169 " fill="transparent" id="C_0000400244097365422548-backto-C_0000509333813868966475" style="stroke:#181818;stroke-width:1;"/><polygon fill="transparent" points="415,227.9769,429.7933,239.8578,433.9632,228.6056,415,227.9769" style="stroke:#181818;stroke-width:1;"/></g><!--SRC=[ZPHDZvim48Rl_0fhBzig1VdRMEejXwhILgfQjPSeGeOu0PMlOjDsjSt-zZg1H52821UGnw_VPuOPsypc6gohSfyTsaRPh2f1KUrq3f9S6GFIJ3UgIT9dhrR93tNGO9ESDs-1Cc0TGVSWX4WegIIGXK92AWLuyJhvGrQckiciYdCTxJ9rQ5GHLVN9nZmCJi1GE2Kdc3FECGj9hxyL1fkDiKsRMBUjFBH57g48TM2dhw7hrVRY6wIso5- -wBhHHfVM0DF6HbjGxS501v9HJNhjSRjrkKMHTxmas9y-I8P2Y2c5KX3EACQCXgDafk65P7g73djT5ON3wTV-WxJFjPuIdb_Hb9CW5c8a4KDKO8QbP2FEQNY1i_E9nhZd0sTffw16_snrcUWfAuPSCkOAnX27Y4X4-91r9hp0UhKQutxjb-ybxcTY3fX090HoBUiwLq0cuHXu4bu0lZYDUJ_tCtadRbOcURkRmOKCIa98wEQOXv9pAiQzC0ql3c3dDCRzsAqkuXwzctF__g_ltvwpcnCsaCsq_HsokGwyIpRjWtiWP_w7z_X1b-uojde7VcSs1UVA-wxqxy0ltPZJ1G036a1V-8TGyTZTmzxZqzFtJzVmjxWjRTi9huk81p3WuCrgXI4cK237vhx4IYJn7YdCNAcmZrxrdngzNhOWZY4D0mJPsty0]--></g></svg>