<svg xmlns="http://www.w3.org/2000/svg" xmlns:xlink="http://www.w3.org/1999/xlink" contentStyleType="text/css" data-diagram-type="CLASS" height="790px" preserveAspectRatio="none" style="width:1613px;height:790px;background:#FFFFFF;" version="1.1" viewBox="0 0 1613 790" width="1613px" zoomAndPan="magnify"><title>Diagram element class hierarchy</title><defs/><g><text fill="#000000" font-family="sans-serif" font-size="14" font-weight="bold" lengthAdjust="spacing" textLength="260.1006" x="669.4497" y="22.9951">Diagram element class hierarchy</text><!--cluster C_0000316605034920222648--><g id="cluster_C_0000316605034920222648"><path d="M392.5,43.2969 L460.1777,43.2969 A3.75,3.75 0 0 1 462.6777,45.7969 L469.6777,65.5938 L812.5,65.5938 A2.5,2.5 0 0 1 815,68.0938 L815,564.7969 A2.5,2.5 0 0 1 812.5,567.2969 L392.5,567.2969 A2.5,2.5 0 0 1 390,564.7969 L390,45.7969 A2.5,2.5 0 0 1 392.5,43.2969 " fill="transparent" style="stroke:#000000;stroke-width:1.5;"/><line style="stroke:#000000;stroke-width:1.5;" x1="390" x2="469.6777" y1="65.5938" y2="65.5938"/><text fill="#000000" font-family="sans-serif" font-size="14" font-weight="bold" lengthAdjust="spacing" textLength="66.6777" x="394" y="58.292">common</text></g><!--cluster C_0000083721806430512831--><g id="cluster_C_0000083721806430512831"><path d="M416.5,86.2969 L466.0215,86.2969 A3.75,3.75 0 0 1 468.5215,88.7969 L475.5215,108.5938 L788.5,108.5938 A2.5,2.5 0 0 1 791,111.0938 L791,540.7969 A2.5,2.5 0 0 1 788.5,543.2969 L416.5,543.2969 A2.5,2.5 0 0 1 414,540.7969 L414,88.7969 A2.5,2.5 0 0 1 416.5,86.2969 " fill="transparent" style="stroke:#000000;stroke-width:1.5;"/><line style="stroke:#000000;stroke-width:1.5;" x1="414" x2="475.5215" y1="108.5938" y2="108.5938"/><text fill="#000000" font-family="sans-serif" font-size="14" font-weight="bold" lengthAdjust="spacing" textLength="48.5215" x="418" y="101.292">model</text></g><!--cluster C_0002240167036201725606--><g id="cluster_C_0002240167036201725606"><path d="M841.5,401.2969 L953.9395,401.2969 A3.75,3.75 0 0 1 956.4395,403.7969 L963.4395,423.5938 L1603.5,423.5938 A2.5,2.5 0 0 1 1606,426.0938 L1606,672.7969 A2.5,2.5 0 0 1 1603.5,675.2969 L841.5,675.2969 A2.5,2.5 0 0 1 839,672.7969 L839,403.7969 A2.5,2.5 0 0 1 841.5,401.2969 " fill="transparent" style="stroke:#000000;stroke-width:1.5;"/><line style="stroke:#000000;stroke-width:1.5;" x1="839" x2="963.4395" y1="423.5938" y2="423.5938"/><text fill="#000000" font-family="sans-serif" font-size="14" font-weight="bold" lengthAdjust="spacing" textLength="111.4395" x="843" y="416.292">class_diagram</text></g><!--cluster C_0000897124234964432620--><g id="cluster_C_0000897124234964432620"><path d="M865.5,444.2969 L915.0215,444.2969 A3.75,3.75 0 0 1 917.5215,446.7969 L924.5215,466.5938 L1579.5,466.5938 A2.5,2.5 0 0 1 1582,469.0938 L1582,648.7969 A2.5,2.5 0 0 1 1579.5,651.2969 L865.5,651.2969 A2.5,2.5 0 0 1 863,648.7969 L863,446.7969 A2.5,2.5 0 0 1 865.5,444.2969 " fill="transparent" style="stroke:#000000;stroke-width:1.5;"/><line style="stroke:#000000;stroke-width:1.5;" x1="863" x2="924.5215" y1="466.5938" y2="466.5938"/><text fill="#000000" font-family="sans-serif" font-size="14" font-weight="bold" lengthAdjust="spacing" textLength="48.5215" x="867" y="459.292">model</text></g><!--cluster C_0001521862840957629236--><g id="cluster_C_0001521862840957629236"><path d="M8.5,401.2969 L156.8008,401.2969 A3.75,3.75 0 0 1 159.3008,403.7969 L166.3008,423.5938 L363.5,423.5938 A2.5,2.5 0 0 1 366,426.0938 L366,780.7969 A2.5,2.5 0 0 1 363.5,783.2969 L8.5,783.2969 A2.5,2.5 0 0 1 6,780.7969 L6,403.7969 A2.5,2.5 0 0 1 8.5,401.2969 " fill="transparent" style="stroke:#000000;stroke-width:1.5;"/><line style="stroke:#000000;stroke-width:1.5;" x1="6" x2="166.3008" y1="423.5938" y2="423.5938"/><text fill="#000000" font-family="sans-serif" font-size="14" font-weight="bold" lengthAdjust="spacing" textLength="147.3008" x="10" y="416.292">sequence_diagram</text></g><!--cluster C_0002206969880830639264--><g id="cluster_C_0002206969880830639264"><path d="M32.5,444.2969 L82.0215,444.2969 A3.75,3.75 0 0 1 84.5215,446.7969 L91.5215,466.5938 L339.5,466.5938 A2.5,2.5 0 0 1 342,469.0938 L342,756.7969 A2.5,2.5 0 0 1 339.5,759.2969 L32.5,759.2969 A2.5,2.5 0 0 1 30,756.7969 L30,446.7969 A2.5,2.5 0 0 1 32.5,444.2969 " fill="transparent" style="stroke:#000000;stroke-width:1.5;"/><line style="stroke:#000000;stroke-width:1.5;" x1="30" x2="91.5215" y1="466.5938" y2="466.5938"/><text fill="#000000" font-family="sans-serif" font-size="14" font-weight="bold" lengthAdjust="spacing" textLength="48.5215" x="34" y="459.292">model</text></g><!--class C_0001117102382624673118--><a href="classclanguml_1_1common_1_1model_1_1decorated__element.html" target="_top" title="Base class for decorated diagram elements" xlink:actuate="onRequest" xlink:href="classclanguml_1_1common_1_1model_1_1decorated__element.html" xlink:show="new" xlink:title="Base class for decorated diagram elements" xlink:type="simple"><g id="elem_C_0001117102382624673118"><rect codeLine="5" fill="#F1F1F1" height="48" id="C_0001117102382624673118" rx="2.5" ry="2.5" style="stroke:#181818;stroke-width:0.5;" width="167.8164" x="430" y="121.2969"/><ellipse cx="445" cy="137.2969" fill="#ADD1B2" rx="11" ry="11" style="stroke:#181818;stroke-width:1;"/><path d="M447.9688,142.9375 Q447.3906,143.2344 446.75,143.375 Q446.1094,143.5313 445.4063,143.5313 Q442.9063,143.5313 441.5781,141.8906 Q440.2656,140.2344 440.2656,137.1094 Q440.2656,133.9844 441.5781,132.3281 Q442.9063,130.6719 445.4063,130.6719 Q446.1094,130.6719 446.75,130.8281 Q447.4063,130.9844 447.9688,131.2813 L447.9688,134 Q447.3438,133.4219 446.75,133.1563 Q446.1563,132.875 445.5313,132.875 Q444.1875,132.875 443.5,133.9531 Q442.8125,135.0156 442.8125,137.1094 Q442.8125,139.2031 443.5,140.2813 Q444.1875,141.3438 445.5313,141.3438 Q446.1563,141.3438 446.75,141.0781 Q447.3438,140.7969 447.9688,140.2188 L447.9688,142.9375 Z " fill="#000000"/><text fill="#000000" font-family="sans-serif" font-size="14" lengthAdjust="spacing" textLength="135.8164" x="459" y="142.1436">decorated_element</text><line style="stroke:#181818;stroke-width:0.5;" x1="431" x2="596.8164" y1="153.2969" y2="153.2969"/><line style="stroke:#181818;stroke-width:0.5;" x1="431" x2="596.8164" y1="161.2969" y2="161.2969"/></g></a><!--class C_0000895261582183440230--><a href="classclanguml_1_1common_1_1model_1_1source__location.html" target="_top" title="Base class of all diagram elements that have source location." xlink:actuate="onRequest" xlink:href="classclanguml_1_1common_1_1model_1_1source__location.html" xlink:show="new" xlink:title="Base class of all diagram elements that have source location." xlink:type="simple"><g id="elem_C_0000895261582183440230"><rect codeLine="9" fill="#F1F1F1" height="48" id="C_0000895261582183440230" rx="2.5" ry="2.5" style="stroke:#181818;stroke-width:0.5;" width="141.3477" x="633.5" y="121.2969"/><ellipse cx="648.5" cy="137.2969" fill="#ADD1B2" rx="11" ry="11" style="stroke:#181818;stroke-width:1;"/><path d="M651.4688,142.9375 Q650.8906,143.2344 650.25,143.375 Q649.6094,143.5313 648.9063,143.5313 Q646.4063,143.5313 645.0781,141.8906 Q643.7656,140.2344 643.7656,137.1094 Q643.7656,133.9844 645.0781,132.3281 Q646.4063,130.6719 648.9063,130.6719 Q649.6094,130.6719 650.25,130.8281 Q650.9063,130.9844 651.4688,131.2813 L651.4688,134 Q650.8438,133.4219 650.25,133.1563 Q649.6563,132.875 649.0313,132.875 Q647.6875,132.875 647,133.9531 Q646.3125,135.0156 646.3125,137.1094 Q646.3125,139.2031 647,140.2813 Q647.6875,141.3438 649.0313,141.3438 Q649.6563,141.3438 650.25,141.0781 Q650.8438,140.7969 651.4688,140.2188 L651.4688,142.9375 Z " fill="#000000"/><text fill="#000000" font-family="sans-serif" font-size="14" lengthAdjust="spacing" textLength="109.3477" x="662.5" y="142.1436">source_location</text><line style="stroke:#181818;stroke-width:0.5;" x1="634.5" x2="773.8477" y1="153.2969" y2="153.2969"/><line style="stroke:#181818;stroke-width:0.5;" x1="634.5" x2="773.8477" y1="161.2969" y2="161.2969"/></g></a><!--class C_0002046336758797367926--><a href="classclanguml_1_1common_1_1model_1_1relationship.html" target="_top" title="Class representing any relationship other than inheritance" xlink:actuate="onRequest" xlink:href="classclanguml_1_1common_1_1model_1_1relationship.html" xlink:show="new" xlink:title="Class representing any relationship other than inheritance" xlink:type="simple"><g id="elem_C_0002046336758797367926"><rect codeLine="13" fill="#F1F1F1" height="48" id="C_0002046336758797367926" rx="2.5" ry="2.5" style="stroke:#181818;stroke-width:0.5;" width="114.5986" x="443.5" y="229.2969"/><ellipse cx="458.5" cy="245.2969" fill="#ADD1B2" rx="11" ry="11" style="stroke:#181818;stroke-width:1;"/><path d="M461.4688,250.9375 Q460.8906,251.2344 460.25,251.375 Q459.6094,251.5313 458.9063,251.5313 Q456.4063,251.5313 455.0781,249.8906 Q453.7656,248.2344 453.7656,245.1094 Q453.7656,241.9844 455.0781,240.3281 Q456.4063,238.6719 458.9063,238.6719 Q459.6094,238.6719 460.25,238.8281 Q460.9063,238.9844 461.4688,239.2813 L461.4688,242 Q460.8438,241.4219 460.25,241.1563 Q459.6563,240.875 459.0313,240.875 Q457.6875,240.875 457,241.9531 Q456.3125,243.0156 456.3125,245.1094 Q456.3125,247.2031 457,248.2813 Q457.6875,249.3438 459.0313,249.3438 Q459.6563,249.3438 460.25,249.0781 Q460.8438,248.7969 461.4688,248.2188 L461.4688,250.9375 Z " fill="#000000"/><text fill="#000000" font-family="sans-serif" font-size="14" lengthAdjust="spacing" textLength="82.5986" x="472.5" y="250.1436">relationship</text><line style="stroke:#181818;stroke-width:0.5;" x1="444.5" x2="557.0986" y1="261.2969" y2="261.2969"/><line style="stroke:#181818;stroke-width:0.5;" x1="444.5" x2="557.0986" y1="269.2969" y2="269.2969"/></g></a><!--class C_0001073500714379115414--><a href="classclanguml_1_1common_1_1model_1_1diagram__element.html" target="_top" title="Base class for standalone diagram elements." xlink:actuate="onRequest" xlink:href="classclanguml_1_1common_1_1model_1_1diagram__element.html" xlink:show="new" xlink:title="Base class for standalone diagram elements." xlink:type="simple"><g id="elem_C_0001073500714379115414"><rect codeLine="17" fill="#F1F1F1" height="48" id="C_0001073500714379115414" rx="2.5" ry="2.5" style="stroke:#181818;stroke-width:0.5;" width="154.9443" x="593.5" y="229.2969"/><ellipse cx="608.5" cy="245.2969" fill="#ADD1B2" rx="11" ry="11" style="stroke:#181818;stroke-width:1;"/><path d="M611.4688,250.9375 Q610.8906,251.2344 610.25,251.375 Q609.6094,251.5313 608.9063,251.5313 Q606.4063,251.5313 605.0781,249.8906 Q603.7656,248.2344 603.7656,245.1094 Q603.7656,241.9844 605.0781,240.3281 Q606.4063,238.6719 608.9063,238.6719 Q609.6094,238.6719 610.25,238.8281 Q610.9063,238.9844 611.4688,239.2813 L611.4688,242 Q610.8438,241.4219 610.25,241.1563 Q609.6563,240.875 609.0313,240.875 Q607.6875,240.875 607,241.9531 Q606.3125,243.0156 606.3125,245.1094 Q606.3125,247.2031 607,248.2813 Q607.6875,249.3438 609.0313,249.3438 Q609.6563,249.3438 610.25,249.0781 Q610.8438,248.7969 611.4688,248.2188 L611.4688,250.9375 Z " fill="#000000"/><text fill="#000000" font-family="sans-serif" font-size="14" lengthAdjust="spacing" textLength="122.9443" x="622.5" y="250.1436">diagram_element</text><line style="stroke:#181818;stroke-width:0.5;" x1="594.5" x2="747.4443" y1="261.2969" y2="261.2969"/><line style="stroke:#181818;stroke-width:0.5;" x1="594.5" x2="747.4443" y1="269.2969" y2="269.2969"/></g></a><!--class C_0002069520381434407937--><a href="classclanguml_1_1common_1_1model_1_1element.html" target="_top" title="Base class for any element qualified by namespace." xlink:actuate="onRequest" xlink:href="classclanguml_1_1common_1_1model_1_1element.html" xlink:show="new" xlink:title="Base class for any element qualified by namespace." xlink:type="simple"><g id="elem_C_0002069520381434407937"><rect codeLine="21" fill="#F1F1F1" height="48" id="C_0002069520381434407937" rx="2.5" ry="2.5" style="stroke:#181818;stroke-width:0.5;" width="89.7295" x="543" y="337.2969"/><ellipse cx="558" cy="353.2969" fill="#ADD1B2" rx="11" ry="11" style="stroke:#181818;stroke-width:1;"/><path d="M560.9688,358.9375 Q560.3906,359.2344 559.75,359.375 Q559.1094,359.5313 558.4063,359.5313 Q555.9063,359.5313 554.5781,357.8906 Q553.2656,356.2344 553.2656,353.1094 Q553.2656,349.9844 554.5781,348.3281 Q555.9063,346.6719 558.4063,346.6719 Q559.1094,346.6719 559.75,346.8281 Q560.4063,346.9844 560.9688,347.2813 L560.9688,350 Q560.3438,349.4219 559.75,349.1563 Q559.1563,348.875 558.5313,348.875 Q557.1875,348.875 556.5,349.9531 Q555.8125,351.0156 555.8125,353.1094 Q555.8125,355.2031 556.5,356.2813 Q557.1875,357.3438 558.5313,357.3438 Q559.1563,357.3438 559.75,357.0781 Q560.3438,356.7969 560.9688,356.2188 L560.9688,358.9375 Z " fill="#000000"/><text fill="#000000" font-family="sans-serif" font-size="14" lengthAdjust="spacing" textLength="57.7295" x="572" y="358.1436">element</text><line style="stroke:#181818;stroke-width:0.5;" x1="544" x2="631.7295" y1="369.2969" y2="369.2969"/><line style="stroke:#181818;stroke-width:0.5;" x1="544" x2="631.7295" y1="377.2969" y2="377.2969"/></g></a><!--class C_0000785714713072053129--><a href="classclanguml_1_1common_1_1model_1_1source__file.html" target="_top" title="Diagram element representing some file or directory." xlink:actuate="onRequest" xlink:href="classclanguml_1_1common_1_1model_1_1source__file.html" xlink:show="new" xlink:title="Diagram element representing some file or directory." xlink:type="simple"><g id="elem_C_0000785714713072053129"><rect codeLine="25" fill="#F1F1F1" height="48" id="C_0000785714713072053129" rx="2.5" ry="2.5" style="stroke:#181818;stroke-width:0.5;" width="107.1201" x="668.5" y="337.2969"/><ellipse cx="683.5" cy="353.2969" fill="#ADD1B2" rx="11" ry="11" style="stroke:#181818;stroke-width:1;"/><path d="M686.4688,358.9375 Q685.8906,359.2344 685.25,359.375 Q684.6094,359.5313 683.9063,359.5313 Q681.4063,359.5313 680.0781,357.8906 Q678.7656,356.2344 678.7656,353.1094 Q678.7656,349.9844 680.0781,348.3281 Q681.4063,346.6719 683.9063,346.6719 Q684.6094,346.6719 685.25,346.8281 Q685.9063,346.9844 686.4688,347.2813 L686.4688,350 Q685.8438,349.4219 685.25,349.1563 Q684.6563,348.875 684.0313,348.875 Q682.6875,348.875 682,349.9531 Q681.3125,351.0156 681.3125,353.1094 Q681.3125,355.2031 682,356.2813 Q682.6875,357.3438 684.0313,357.3438 Q684.6563,357.3438 685.25,357.0781 Q685.8438,356.7969 686.4688,356.2188 L686.4688,358.9375 Z " fill="#000000"/><text fill="#000000" font-family="sans-serif" font-size="14" lengthAdjust="spacing" textLength="75.1201" x="697.5" y="358.1436">source_file</text><line style="stroke:#181818;stroke-width:0.5;" x1="669.5" x2="774.6201" y1="369.2969" y2="369.2969"/><line style="stroke:#181818;stroke-width:0.5;" x1="669.5" x2="774.6201" y1="377.2969" y2="377.2969"/></g></a><!--class C_0002143286684830686854--><a href="classclanguml_1_1common_1_1model_1_1package.html" target="_top" title="Diagram element representing namespace or directory package" xlink:actuate="onRequest" xlink:href="classclanguml_1_1common_1_1model_1_1package.html" xlink:show="new" xlink:title="Diagram element representing namespace or directory package" xlink:type="simple"><g id="elem_C_0002143286684830686854"><rect codeLine="29" fill="#F1F1F1" height="48" id="C_0002143286684830686854" rx="2.5" ry="2.5" style="stroke:#181818;stroke-width:0.5;" width="91.3496" x="542.5" y="479.2969"/><ellipse cx="557.5" cy="495.2969" fill="#ADD1B2" rx="11" ry="11" style="stroke:#181818;stroke-width:1;"/><path d="M560.4688,500.9375 Q559.8906,501.2344 559.25,501.375 Q558.6094,501.5313 557.9063,501.5313 Q555.4063,501.5313 554.0781,499.8906 Q552.7656,498.2344 552.7656,495.1094 Q552.7656,491.9844 554.0781,490.3281 Q555.4063,488.6719 557.9063,488.6719 Q558.6094,488.6719 559.25,488.8281 Q559.9063,488.9844 560.4688,489.2813 L560.4688,492 Q559.8438,491.4219 559.25,491.1563 Q558.6563,490.875 558.0313,490.875 Q556.6875,490.875 556,491.9531 Q555.3125,493.0156 555.3125,495.1094 Q555.3125,497.2031 556,498.2813 Q556.6875,499.3438 558.0313,499.3438 Q558.6563,499.3438 559.25,499.0781 Q559.8438,498.7969 560.4688,498.2188 L560.4688,500.9375 Z " fill="#000000"/><text fill="#000000" font-family="sans-serif" font-size="14" lengthAdjust="spacing" textLength="59.3496" x="571.5" y="500.1436">package</text><line style="stroke:#181818;stroke-width:0.5;" x1="543.5" x2="632.8496" y1="511.2969" y2="511.2969"/><line style="stroke:#181818;stroke-width:0.5;" x1="543.5" x2="632.8496" y1="519.2969" y2="519.2969"/></g></a><!--class C_0000605866861866358037--><a href="classclanguml_1_1class__diagram_1_1model_1_1class__element.html" target="_top" title="Base class for class elements (e.g. member or method)." xlink:actuate="onRequest" xlink:href="classclanguml_1_1class__diagram_1_1model_1_1class__element.html" xlink:show="new" xlink:title="Base class for class elements (e.g. member or method)." xlink:type="simple"><g id="elem_C_0000605866861866358037"><rect codeLine="37" fill="#F1F1F1" height="48" id="C_0000605866861866358037" rx="2.5" ry="2.5" style="stroke:#181818;stroke-width:0.5;" width="131.4834" x="1434.5" y="479.2969"/><ellipse cx="1449.5" cy="495.2969" fill="#ADD1B2" rx="11" ry="11" style="stroke:#181818;stroke-width:1;"/><path d="M1452.4688,500.9375 Q1451.8906,501.2344 1451.25,501.375 Q1450.6094,501.5313 1449.9063,501.5313 Q1447.4063,501.5313 1446.0781,499.8906 Q1444.7656,498.2344 1444.7656,495.1094 Q1444.7656,491.9844 1446.0781,490.3281 Q1447.4063,488.6719 1449.9063,488.6719 Q1450.6094,488.6719 1451.25,488.8281 Q1451.9063,488.9844 1452.4688,489.2813 L1452.4688,492 Q1451.8438,491.4219 1451.25,491.1563 Q1450.6563,490.875 1450.0313,490.875 Q1448.6875,490.875 1448,491.9531 Q1447.3125,493.0156 1447.3125,495.1094 Q1447.3125,497.2031 1448,498.2813 Q1448.6875,499.3438 1450.0313,499.3438 Q1450.6563,499.3438 1451.25,499.0781 Q1451.8438,498.7969 1452.4688,498.2188 L1452.4688,500.9375 Z " fill="#000000"/><text fill="#000000" font-family="sans-serif" font-size="14" lengthAdjust="spacing" textLength="99.4834" x="1463.5" y="500.1436">class_element</text><line style="stroke:#181818;stroke-width:0.5;" x1="1435.5" x2="1564.9834" y1="511.2969" y2="511.2969"/><line style="stroke:#181818;stroke-width:0.5;" x1="1435.5" x2="1564.9834" y1="519.2969" y2="519.2969"/></g></a><!--class C_0001796282762108527255--><a href="classclanguml_1_1class__diagram_1_1model_1_1class__member.html" target="_top" title="Class member model." xlink:actuate="onRequest" xlink:href="classclanguml_1_1class__diagram_1_1model_1_1class__member.html" xlink:show="new" xlink:title="Class member model." xlink:type="simple"><g id="elem_C_0001796282762108527255"><rect codeLine="41" fill="#F1F1F1" height="48" id="C_0001796282762108527255" rx="2.5" ry="2.5" style="stroke:#181818;stroke-width:0.5;" width="132.8984" x="1268.5" y="587.2969"/><ellipse cx="1283.5" cy="603.2969" fill="#ADD1B2" rx="11" ry="11" style="stroke:#181818;stroke-width:1;"/><path d="M1286.4688,608.9375 Q1285.8906,609.2344 1285.25,609.375 Q1284.6094,609.5313 1283.9063,609.5313 Q1281.4063,609.5313 1280.0781,607.8906 Q1278.7656,606.2344 1278.7656,603.1094 Q1278.7656,599.9844 1280.0781,598.3281 Q1281.4063,596.6719 1283.9063,596.6719 Q1284.6094,596.6719 1285.25,596.8281 Q1285.9063,596.9844 1286.4688,597.2813 L1286.4688,600 Q1285.8438,599.4219 1285.25,599.1563 Q1284.6563,598.875 1284.0313,598.875 Q1282.6875,598.875 1282,599.9531 Q1281.3125,601.0156 1281.3125,603.1094 Q1281.3125,605.2031 1282,606.2813 Q1282.6875,607.3438 1284.0313,607.3438 Q1284.6563,607.3438 1285.25,607.0781 Q1285.8438,606.7969 1286.4688,606.2188 L1286.4688,608.9375 Z " fill="#000000"/><text fill="#000000" font-family="sans-serif" font-size="14" lengthAdjust="spacing" textLength="100.8984" x="1297.5" y="608.1436">class_member</text><line style="stroke:#181818;stroke-width:0.5;" x1="1269.5" x2="1400.3984" y1="619.2969" y2="619.2969"/><line style="stroke:#181818;stroke-width:0.5;" x1="1269.5" x2="1400.3984" y1="627.2969" y2="627.2969"/></g></a><!--class C_0000605669033368926050--><a href="classclanguml_1_1class__diagram_1_1model_1_1method__parameter.html" target="_top" title="Model of a method parameter." xlink:actuate="onRequest" xlink:href="classclanguml_1_1class__diagram_1_1model_1_1method__parameter.html" xlink:show="new" xlink:title="Model of a method parameter." xlink:type="simple"><g id="elem_C_0000605669033368926050"><rect codeLine="45" fill="#F1F1F1" height="48" id="C_0000605669033368926050" rx="2.5" ry="2.5" style="stroke:#181818;stroke-width:0.5;" width="166.9756" x="1232.5" y="479.2969"/><ellipse cx="1247.5" cy="495.2969" fill="#ADD1B2" rx="11" ry="11" style="stroke:#181818;stroke-width:1;"/><path d="M1250.4688,500.9375 Q1249.8906,501.2344 1249.25,501.375 Q1248.6094,501.5313 1247.9063,501.5313 Q1245.4063,501.5313 1244.0781,499.8906 Q1242.7656,498.2344 1242.7656,495.1094 Q1242.7656,491.9844 1244.0781,490.3281 Q1245.4063,488.6719 1247.9063,488.6719 Q1248.6094,488.6719 1249.25,488.8281 Q1249.9063,488.9844 1250.4688,489.2813 L1250.4688,492 Q1249.8438,491.4219 1249.25,491.1563 Q1248.6563,490.875 1248.0313,490.875 Q1246.6875,490.875 1246,491.9531 Q1245.3125,493.0156 1245.3125,495.1094 Q1245.3125,497.2031 1246,498.2813 Q1246.6875,499.3438 1248.0313,499.3438 Q1248.6563,499.3438 1249.25,499.0781 Q1249.8438,498.7969 1250.4688,498.2188 L1250.4688,500.9375 Z " fill="#000000"/><text fill="#000000" font-family="sans-serif" font-size="14" lengthAdjust="spacing" textLength="134.9756" x="1261.5" y="500.1436">method_parameter</text><line style="stroke:#181818;stroke-width:0.5;" x1="1233.5" x2="1398.4756" y1="511.2969" y2="511.2969"/><line style="stroke:#181818;stroke-width:0.5;" x1="1233.5" x2="1398.4756" y1="519.2969" y2="519.2969"/></g></a><!--class C_0000204145716468348671--><a href="classclanguml_1_1class__diagram_1_1model_1_1class__method.html" target="_top" title="Class method model." xlink:actuate="onRequest" xlink:href="classclanguml_1_1class__diagram_1_1model_1_1class__method.html" xlink:show="new" xlink:title="Class method model." xlink:type="simple"><g id="elem_C_0000204145716468348671"><rect codeLine="49" fill="#F1F1F1" height="48" id="C_0000204145716468348671" rx="2.5" ry="2.5" style="stroke:#181818;stroke-width:0.5;" width="127.8193" x="1437" y="587.2969"/><ellipse cx="1452" cy="603.2969" fill="#ADD1B2" rx="11" ry="11" style="stroke:#181818;stroke-width:1;"/><path d="M1454.9688,608.9375 Q1454.3906,609.2344 1453.75,609.375 Q1453.1094,609.5313 1452.4063,609.5313 Q1449.9063,609.5313 1448.5781,607.8906 Q1447.2656,606.2344 1447.2656,603.1094 Q1447.2656,599.9844 1448.5781,598.3281 Q1449.9063,596.6719 1452.4063,596.6719 Q1453.1094,596.6719 1453.75,596.8281 Q1454.4063,596.9844 1454.9688,597.2813 L1454.9688,600 Q1454.3438,599.4219 1453.75,599.1563 Q1453.1563,598.875 1452.5313,598.875 Q1451.1875,598.875 1450.5,599.9531 Q1449.8125,601.0156 1449.8125,603.1094 Q1449.8125,605.2031 1450.5,606.2813 Q1451.1875,607.3438 1452.5313,607.3438 Q1453.1563,607.3438 1453.75,607.0781 Q1454.3438,606.7969 1454.9688,606.2188 L1454.9688,608.9375 Z " fill="#000000"/><text fill="#000000" font-family="sans-serif" font-size="14" lengthAdjust="spacing" textLength="95.8193" x="1466" y="608.1436">class_method</text><line style="stroke:#181818;stroke-width:0.5;" x1="1438" x2="1563.8193" y1="619.2969" y2="619.2969"/><line style="stroke:#181818;stroke-width:0.5;" x1="1438" x2="1563.8193" y1="627.2969" y2="627.2969"/></g></a><!--class C_0001292034357466653182--><a href="classclanguml_1_1class__diagram_1_1model_1_1class__.html" target="_top" title="Diagram element representing a class or class template." xlink:actuate="onRequest" xlink:href="classclanguml_1_1class__diagram_1_1model_1_1class__.html" xlink:show="new" xlink:title="Diagram element representing a class or class template." xlink:type="simple"><g id="elem_C_0001292034357466653182"><rect codeLine="53" fill="#F1F1F1" height="48" id="C_0001292034357466653182" rx="2.5" ry="2.5" style="stroke:#181818;stroke-width:0.5;" width="73.7539" x="879" y="479.2969"/><ellipse cx="894" cy="495.2969" fill="#ADD1B2" rx="11" ry="11" style="stroke:#181818;stroke-width:1;"/><path d="M896.9688,500.9375 Q896.3906,501.2344 895.75,501.375 Q895.1094,501.5313 894.4063,501.5313 Q891.9063,501.5313 890.5781,499.8906 Q889.2656,498.2344 889.2656,495.1094 Q889.2656,491.9844 890.5781,490.3281 Q891.9063,488.6719 894.4063,488.6719 Q895.1094,488.6719 895.75,488.8281 Q896.4063,488.9844 896.9688,489.2813 L896.9688,492 Q896.3438,491.4219 895.75,491.1563 Q895.1563,490.875 894.5313,490.875 Q893.1875,490.875 892.5,491.9531 Q891.8125,493.0156 891.8125,495.1094 Q891.8125,497.2031 892.5,498.2813 Q893.1875,499.3438 894.5313,499.3438 Q895.1563,499.3438 895.75,499.0781 Q896.3438,498.7969 896.9688,498.2188 L896.9688,500.9375 Z " fill="#000000"/><text fill="#000000" font-family="sans-serif" font-size="14" lengthAdjust="spacing" textLength="41.7539" x="908" y="500.1436">class_</text><line style="stroke:#181818;stroke-width:0.5;" x1="880" x2="951.7539" y1="511.2969" y2="511.2969"/><line style="stroke:#181818;stroke-width:0.5;" x1="880" x2="951.7539" y1="519.2969" y2="519.2969"/></g></a><!--class C_0000724392977093650506--><a href="classclanguml_1_1class__diagram_1_1model_1_1enum__.html" target="_top" title="enum_" xlink:actuate="onRequest" xlink:href="classclanguml_1_1class__diagram_1_1model_1_1enum__.html" xlink:show="new" xlink:title="enum_" xlink:type="simple"><g id="elem_C_0000724392977093650506"><rect codeLine="57" fill="#F1F1F1" height="48" id="C_0000724392977093650506" rx="2.5" ry="2.5" style="stroke:#181818;stroke-width:0.5;" width="78.9971" x="1118.5" y="479.2969"/><ellipse cx="1133.5" cy="495.2969" fill="#ADD1B2" rx="11" ry="11" style="stroke:#181818;stroke-width:1;"/><path d="M1136.4688,500.9375 Q1135.8906,501.2344 1135.25,501.375 Q1134.6094,501.5313 1133.9063,501.5313 Q1131.4063,501.5313 1130.0781,499.8906 Q1128.7656,498.2344 1128.7656,495.1094 Q1128.7656,491.9844 1130.0781,490.3281 Q1131.4063,488.6719 1133.9063,488.6719 Q1134.6094,488.6719 1135.25,488.8281 Q1135.9063,488.9844 1136.4688,489.2813 L1136.4688,492 Q1135.8438,491.4219 1135.25,491.1563 Q1134.6563,490.875 1134.0313,490.875 Q1132.6875,490.875 1132,491.9531 Q1131.3125,493.0156 1131.3125,495.1094 Q1131.3125,497.2031 1132,498.2813 Q1132.6875,499.3438 1134.0313,499.3438 Q1134.6563,499.3438 1135.25,499.0781 Q1135.8438,498.7969 1136.4688,498.2188 L1136.4688,500.9375 Z " fill="#000000"/><text fill="#000000" font-family="sans-serif" font-size="14" lengthAdjust="spacing" textLength="46.9971" x="1147.5" y="500.1436">enum_</text><line style="stroke:#181818;stroke-width:0.5;" x1="1119.5" x2="1196.4971" y1="511.2969" y2="511.2969"/><line style="stroke:#181818;stroke-width:0.5;" x1="1119.5" x2="1196.4971" y1="519.2969" y2="519.2969"/></g></a><!--class C_0001374849051752224500--><a href="classclanguml_1_1class__diagram_1_1model_1_1concept__.html" target="_top" title="Model of C++ concept." xlink:actuate="onRequest" xlink:href="classclanguml_1_1class__diagram_1_1model_1_1concept__.html" xlink:show="new" xlink:title="Model of C++ concept." xlink:type="simple"><g id="elem_C_0001374849051752224500"><rect codeLine="61" fill="#F1F1F1" height="48" id="C_0001374849051752224500" rx="2.5" ry="2.5" style="stroke:#181818;stroke-width:0.5;" width="94.8223" x="988.5" y="479.2969"/><ellipse cx="1003.5" cy="495.2969" fill="#ADD1B2" rx="11" ry="11" style="stroke:#181818;stroke-width:1;"/><path d="M1006.4688,500.9375 Q1005.8906,501.2344 1005.25,501.375 Q1004.6094,501.5313 1003.9063,501.5313 Q1001.4063,501.5313 1000.0781,499.8906 Q998.7656,498.2344 998.7656,495.1094 Q998.7656,491.9844 1000.0781,490.3281 Q1001.4063,488.6719 1003.9063,488.6719 Q1004.6094,488.6719 1005.25,488.8281 Q1005.9063,488.9844 1006.4688,489.2813 L1006.4688,492 Q1005.8438,491.4219 1005.25,491.1563 Q1004.6563,490.875 1004.0313,490.875 Q1002.6875,490.875 1002,491.9531 Q1001.3125,493.0156 1001.3125,495.1094 Q1001.3125,497.2031 1002,498.2813 Q1002.6875,499.3438 1004.0313,499.3438 Q1004.6563,499.3438 1005.25,499.0781 Q1005.8438,498.7969 1006.4688,498.2188 L1006.4688,500.9375 Z " fill="#000000"/><text fill="#000000" font-family="sans-serif" font-size="14" lengthAdjust="spacing" textLength="62.8223" x="1017.5" y="500.1436">concept_</text><line style="stroke:#181818;stroke-width:0.5;" x1="989.5" x2="1082.3223" y1="511.2969" y2="511.2969"/><line style="stroke:#181818;stroke-width:0.5;" x1="989.5" x2="1082.3223" y1="519.2969" y2="519.2969"/></g></a><!--class C_0001400215772842495226--><a href="structclanguml_1_1sequence__diagram_1_1model_1_1participant.html" target="_top" title="Base class for various types of sequence diagram participants" xlink:actuate="onRequest" xlink:href="structclanguml_1_1sequence__diagram_1_1model_1_1participant.html" xlink:show="new" xlink:title="Base class for various types of sequence diagram participants" xlink:type="simple"><g id="elem_C_0001400215772842495226"><rect codeLine="69" fill="#F1F1F1" height="48" id="C_0001400215772842495226" rx="2.5" ry="2.5" style="stroke:#181818;stroke-width:0.5;" width="108.0156" x="211" y="479.2969"/><ellipse cx="226" cy="495.2969" fill="#ADD1B2" rx="11" ry="11" style="stroke:#181818;stroke-width:1;"/><path d="M228.9688,500.9375 Q228.3906,501.2344 227.75,501.375 Q227.1094,501.5313 226.4063,501.5313 Q223.9063,501.5313 222.5781,499.8906 Q221.2656,498.2344 221.2656,495.1094 Q221.2656,491.9844 222.5781,490.3281 Q223.9063,488.6719 226.4063,488.6719 Q227.1094,488.6719 227.75,488.8281 Q228.4063,488.9844 228.9688,489.2813 L228.9688,492 Q228.3438,491.4219 227.75,491.1563 Q227.1563,490.875 226.5313,490.875 Q225.1875,490.875 224.5,491.9531 Q223.8125,493.0156 223.8125,495.1094 Q223.8125,497.2031 224.5,498.2813 Q225.1875,499.3438 226.5313,499.3438 Q227.1563,499.3438 227.75,499.0781 Q228.3438,498.7969 228.9688,498.2188 L228.9688,500.9375 Z " fill="#000000"/><text fill="#000000" font-family="sans-serif" font-size="14" lengthAdjust="spacing" textLength="76.0156" x="240" y="500.1436">participant</text><line style="stroke:#181818;stroke-width:0.5;" x1="212" x2="318.0156" y1="511.2969" y2="511.2969"/><line style="stroke:#181818;stroke-width:0.5;" x1="212" x2="318.0156" y1="519.2969" y2="519.2969"/></g></a><!--class C_0000885514871619471610--><a href="structclanguml_1_1sequence__diagram_1_1model_1_1class__.html" target="_top" title="Sequence diagram participant representing a class." xlink:actuate="onRequest" xlink:href="structclanguml_1_1sequence__diagram_1_1model_1_1class__.html" xlink:show="new" xlink:title="Sequence diagram participant representing a class." xlink:type="simple"><g id="elem_C_0000885514871619471610"><rect codeLine="73" fill="#F1F1F1" height="48" id="C_0000885514871619471610" rx="2.5" ry="2.5" style="stroke:#181818;stroke-width:0.5;" width="73.7539" x="99" y="587.2969"/><ellipse cx="114" cy="603.2969" fill="#ADD1B2" rx="11" ry="11" style="stroke:#181818;stroke-width:1;"/><path d="M116.9688,608.9375 Q116.3906,609.2344 115.75,609.375 Q115.1094,609.5313 114.4063,609.5313 Q111.9063,609.5313 110.5781,607.8906 Q109.2656,606.2344 109.2656,603.1094 Q109.2656,599.9844 110.5781,598.3281 Q111.9063,596.6719 114.4063,596.6719 Q115.1094,596.6719 115.75,596.8281 Q116.4063,596.9844 116.9688,597.2813 L116.9688,600 Q116.3438,599.4219 115.75,599.1563 Q115.1563,598.875 114.5313,598.875 Q113.1875,598.875 112.5,599.9531 Q111.8125,601.0156 111.8125,603.1094 Q111.8125,605.2031 112.5,606.2813 Q113.1875,607.3438 114.5313,607.3438 Q115.1563,607.3438 115.75,607.0781 Q116.3438,606.7969 116.9688,606.2188 L116.9688,608.9375 Z " fill="#000000"/><text fill="#000000" font-family="sans-serif" font-size="14" lengthAdjust="spacing" textLength="41.7539" x="128" y="608.1436">class_</text><line style="stroke:#181818;stroke-width:0.5;" x1="100" x2="171.7539" y1="619.2969" y2="619.2969"/><line style="stroke:#181818;stroke-width:0.5;" x1="100" x2="171.7539" y1="627.2969" y2="627.2969"/></g></a><!--class C_0000232638456031681828--><a href="structclanguml_1_1sequence__diagram_1_1model_1_1function.html" target="_top" title="Participant mode representing a free function." xlink:actuate="onRequest" xlink:href="structclanguml_1_1sequence__diagram_1_1model_1_1function.html" xlink:show="new" xlink:title="Participant mode representing a free function." xlink:type="simple"><g id="elem_C_0000232638456031681828"><rect codeLine="77" fill="#F1F1F1" height="48" id="C_0000232638456031681828" rx="2.5" ry="2.5" style="stroke:#181818;stroke-width:0.5;" width="89.1895" x="208.5" y="587.2969"/><ellipse cx="223.5" cy="603.2969" fill="#ADD1B2" rx="11" ry="11" style="stroke:#181818;stroke-width:1;"/><path d="M226.4688,608.9375 Q225.8906,609.2344 225.25,609.375 Q224.6094,609.5313 223.9063,609.5313 Q221.4063,609.5313 220.0781,607.8906 Q218.7656,606.2344 218.7656,603.1094 Q218.7656,599.9844 220.0781,598.3281 Q221.4063,596.6719 223.9063,596.6719 Q224.6094,596.6719 225.25,596.8281 Q225.9063,596.9844 226.4688,597.2813 L226.4688,600 Q225.8438,599.4219 225.25,599.1563 Q224.6563,598.875 224.0313,598.875 Q222.6875,598.875 222,599.9531 Q221.3125,601.0156 221.3125,603.1094 Q221.3125,605.2031 222,606.2813 Q222.6875,607.3438 224.0313,607.3438 Q224.6563,607.3438 225.25,607.0781 Q225.8438,606.7969 226.4688,606.2188 L226.4688,608.9375 Z " fill="#000000"/><text fill="#000000" font-family="sans-serif" font-size="14" lengthAdjust="spacing" textLength="57.1895" x="237.5" y="608.1436">function</text><line style="stroke:#181818;stroke-width:0.5;" x1="209.5" x2="296.6895" y1="619.2969" y2="619.2969"/><line style="stroke:#181818;stroke-width:0.5;" x1="209.5" x2="296.6895" y1="627.2969" y2="627.2969"/></g></a><!--class C_0000817665972547784504--><a href="structclanguml_1_1sequence__diagram_1_1model_1_1method.html" target="_top" title="Participant model representing a method" xlink:actuate="onRequest" xlink:href="structclanguml_1_1sequence__diagram_1_1model_1_1method.html" xlink:show="new" xlink:title="Participant model representing a method" xlink:type="simple"><g id="elem_C_0000817665972547784504"><rect codeLine="81" fill="#F1F1F1" height="48" id="C_0000817665972547784504" rx="2.5" ry="2.5" style="stroke:#181818;stroke-width:0.5;" width="86.0654" x="46" y="695.2969"/><ellipse cx="61" cy="711.2969" fill="#ADD1B2" rx="11" ry="11" style="stroke:#181818;stroke-width:1;"/><path d="M63.9688,716.9375 Q63.3906,717.2344 62.75,717.375 Q62.1094,717.5313 61.4063,717.5313 Q58.9063,717.5313 57.5781,715.8906 Q56.2656,714.2344 56.2656,711.1094 Q56.2656,707.9844 57.5781,706.3281 Q58.9063,704.6719 61.4063,704.6719 Q62.1094,704.6719 62.75,704.8281 Q63.4063,704.9844 63.9688,705.2813 L63.9688,708 Q63.3438,707.4219 62.75,707.1563 Q62.1563,706.875 61.5313,706.875 Q60.1875,706.875 59.5,707.9531 Q58.8125,709.0156 58.8125,711.1094 Q58.8125,713.2031 59.5,714.2813 Q60.1875,715.3438 61.5313,715.3438 Q62.1563,715.3438 62.75,715.0781 Q63.3438,714.7969 63.9688,714.2188 L63.9688,716.9375 Z " fill="#000000"/><text fill="#000000" font-family="sans-serif" font-size="14" lengthAdjust="spacing" textLength="54.0654" x="75" y="716.1436">method</text><line style="stroke:#181818;stroke-width:0.5;" x1="47" x2="131.0654" y1="727.2969" y2="727.2969"/><line style="stroke:#181818;stroke-width:0.5;" x1="47" x2="131.0654" y1="735.2969" y2="735.2969"/></g></a><!--class C_0002280191967493310558--><a href="structclanguml_1_1sequence__diagram_1_1model_1_1function__template.html" target="_top" title="Participant model representing a function template." xlink:actuate="onRequest" xlink:href="structclanguml_1_1sequence__diagram_1_1model_1_1function__template.html" xlink:show="new" xlink:title="Participant model representing a function template." xlink:type="simple"><g id="elem_C_0002280191967493310558"><rect codeLine="85" fill="#F1F1F1" height="48" id="C_0002280191967493310558" rx="2.5" ry="2.5" style="stroke:#181818;stroke-width:0.5;" width="159.3877" x="167.5" y="695.2969"/><ellipse cx="182.5" cy="711.2969" fill="#ADD1B2" rx="11" ry="11" style="stroke:#181818;stroke-width:1;"/><path d="M185.4688,716.9375 Q184.8906,717.2344 184.25,717.375 Q183.6094,717.5313 182.9063,717.5313 Q180.4063,717.5313 179.0781,715.8906 Q177.7656,714.2344 177.7656,711.1094 Q177.7656,707.9844 179.0781,706.3281 Q180.4063,704.6719 182.9063,704.6719 Q183.6094,704.6719 184.25,704.8281 Q184.9063,704.9844 185.4688,705.2813 L185.4688,708 Q184.8438,707.4219 184.25,707.1563 Q183.6563,706.875 183.0313,706.875 Q181.6875,706.875 181,707.9531 Q180.3125,709.0156 180.3125,711.1094 Q180.3125,713.2031 181,714.2813 Q181.6875,715.3438 183.0313,715.3438 Q183.6563,715.3438 184.25,715.0781 Q184.8438,714.7969 185.4688,714.2188 L185.4688,716.9375 Z " fill="#000000"/><text fill="#000000" font-family="sans-serif" font-size="14" lengthAdjust="spacing" textLength="127.3877" x="196.5" y="716.1436">function_template</text><line style="stroke:#181818;stroke-width:0.5;" x1="168.5" x2="325.8877" y1="727.2969" y2="727.2969"/><line style="stroke:#181818;stroke-width:0.5;" x1="168.5" x2="325.8877" y1="735.2969" y2="735.2969"/></g></a><!--class C_0002228653068706235818--><a href="classclanguml_1_1sequence__diagram_1_1model_1_1message.html" target="_top" title="Model of a sequence diagram message." xlink:actuate="onRequest" xlink:href="classclanguml_1_1sequence__diagram_1_1model_1_1message.html" xlink:show="new" xlink:title="Model of a sequence diagram message." xlink:type="simple"><g id="elem_C_0002228653068706235818"><rect codeLine="89" fill="#F1F1F1" height="48" id="C_0002228653068706235818" rx="2.5" ry="2.5" style="stroke:#181818;stroke-width:0.5;" width="94.918" x="80.5" y="479.2969"/><ellipse cx="95.5" cy="495.2969" fill="#ADD1B2" rx="11" ry="11" style="stroke:#181818;stroke-width:1;"/><path d="M98.4688,500.9375 Q97.8906,501.2344 97.25,501.375 Q96.6094,501.5313 95.9063,501.5313 Q93.4063,501.5313 92.0781,499.8906 Q90.7656,498.2344 90.7656,495.1094 Q90.7656,491.9844 92.0781,490.3281 Q93.4063,488.6719 95.9063,488.6719 Q96.6094,488.6719 97.25,488.8281 Q97.9063,488.9844 98.4688,489.2813 L98.4688,492 Q97.8438,491.4219 97.25,491.1563 Q96.6563,490.875 96.0313,490.875 Q94.6875,490.875 94,491.9531 Q93.3125,493.0156 93.3125,495.1094 Q93.3125,497.2031 94,498.2813 Q94.6875,499.3438 96.0313,499.3438 Q96.6563,499.3438 97.25,499.0781 Q97.8438,498.7969 98.4688,498.2188 L98.4688,500.9375 Z " fill="#000000"/><text fill="#000000" font-family="sans-serif" font-size="14" lengthAdjust="spacing" textLength="62.918" x="109.5" y="500.1436">message</text><line style="stroke:#181818;stroke-width:0.5;" x1="81.5" x2="174.418" y1="511.2969" y2="511.2969"/><line style="stroke:#181818;stroke-width:0.5;" x1="81.5" x2="174.418" y1="519.2969" y2="519.2969"/></g></a><!--reverse link C_0001117102382624673118 to C_0002046336758797367926--><g id="link_C_0001117102382624673118_C_0002046336758797367926"><path codeLine="94" d="M508.9847,187.1625 C506.8147,204.8225 506.04,211.2369 503.86,228.9769 " fill="transparent" id="C_0001117102382624673118-backto-C_0002046336758797367926" style="stroke:#181818;stroke-width:1;"/><polygon fill="transparent" points="511.18,169.2969,503.0295,186.4308,514.9399,187.8943,511.18,169.2969" style="stroke:#181818;stroke-width:1;"/></g><!--reverse link C_0001117102382624673118 to C_0001073500714379115414--><g id="link_C_0001117102382624673118_C_0001073500714379115414"><path codeLine="95" d="M562.9872,179.3705 C589.2272,197.0905 610.43,211.4069 636.73,229.1569 " fill="transparent" id="C_0001117102382624673118-backto-C_0001073500714379115414" style="stroke:#181818;stroke-width:1;"/><polygon fill="transparent" points="548.07,169.2969,559.6293,184.3429,566.345,174.3981,548.07,169.2969" style="stroke:#181818;stroke-width:1;"/></g><!--reverse link C_0000895261582183440230 to C_0001073500714379115414--><g id="link_C_0000895261582183440230_C_0001073500714379115414"><path codeLine="96" d="M691.4877,186.4827 C685.9877,204.1427 683.78,211.2369 678.26,228.9769 " fill="transparent" id="C_0000895261582183440230-backto-C_0001073500714379115414" style="stroke:#181818;stroke-width:1;"/><polygon fill="transparent" points="696.84,169.2969,685.7591,184.6986,697.2163,188.2668,696.84,169.2969" style="stroke:#181818;stroke-width:1;"/></g><!--reverse link C_0001073500714379115414 to C_0002069520381434407937--><g id="link_C_0001073500714379115414_C_0002069520381434407937"><path codeLine="97" d="M641.8919,291.4684 C628.0619,309.1284 620.15,319.2369 606.26,336.9769 " fill="transparent" id="C_0001073500714379115414-backto-C_0002069520381434407937" style="stroke:#181818;stroke-width:1;"/><polygon fill="transparent" points="652.99,277.2969,637.1681,287.769,646.6158,295.1678,652.99,277.2969" style="stroke:#181818;stroke-width:1;"/></g><!--reverse link C_0001073500714379115414 to C_0000785714713072053129--><g id="link_C_0001073500714379115414_C_0000785714713072053129"><path codeLine="98" d="M689.869,293.5196 C698.359,311.1796 702.25,319.2369 710.78,336.9769 " fill="transparent" id="C_0001073500714379115414-backto-C_0000785714713072053129" style="stroke:#181818;stroke-width:1;"/><polygon fill="transparent" points="682.07,277.2969,684.4615,296.1192,695.2766,290.9199,682.07,277.2969" style="stroke:#181818;stroke-width:1;"/></g><!--reverse link C_0002069520381434407937 to C_0002143286684830686854--><g id="link_C_0002069520381434407937_C_0002143286684830686854"><path codeLine="99" d="M588,403.4169 C588,429.3569 588,453.1869 588,479.1469 " fill="transparent" id="C_0002069520381434407937-backto-C_0002143286684830686854" style="stroke:#181818;stroke-width:1;"/><polygon fill="transparent" points="588,385.4169,582,403.4169,594,403.4169,588,385.4169" style="stroke:#181818;stroke-width:1;"/></g><!--reverse link C_0001117102382624673118 to C_0000605866861866358037--><g id="link_C_0001117102382624673118_C_0000605866861866358037"><path codeLine="100" d="M615.6045,169.2423 C621.6745,170.6023 610.15,168.0069 616,169.2969 C976.95,249.0769 1114.36,181.0269 1417,393.2969 C1448.94,415.6969 1474.02,454.1269 1487.92,478.8569 " fill="transparent" id="C_0001117102382624673118-backto-C_0000605866861866358037" style="stroke:#181818;stroke-width:1;"/><polygon fill="transparent" points="598.04,165.3069,614.2927,175.0971,616.9163,163.3874,598.04,165.3069" style="stroke:#181818;stroke-width:1;"/></g><!--reverse link C_0000895261582183440230 to C_0000605866861866358037--><g id="link_C_0000895261582183440230_C_0000605866861866358037"><path codeLine="101" d="M792.5862,149.181 C934.8762,154.751 1232.18,172.5769 1322,229.2969 C1418.64,290.3269 1473.59,425.0169 1492.48,479.1269 " fill="transparent" id="C_0000895261582183440230-backto-C_0000605866861866358037" style="stroke:#181818;stroke-width:1;"/><polygon fill="transparent" points="774.6,148.4769,792.3515,155.1764,792.8209,143.1855,774.6,148.4769" style="stroke:#181818;stroke-width:1;"/></g><!--reverse link C_0000605866861866358037 to C_0001796282762108527255--><g id="link_C_0000605866861866358037_C_0001796282762108527255"><path codeLine="102" d="M1463.7525,539.8753 C1447.8925,554.8753 1438.91,561.6969 1417,575.2969 C1410.16,579.5369 1402.72,583.5069 1395.2,587.1269 " fill="transparent" id="C_0000605866861866358037-backto-C_0001796282762108527255" style="stroke:#181818;stroke-width:1;"/><polygon fill="transparent" points="1476.83,527.5069,1459.6296,535.5161,1467.8753,544.2345,1476.83,527.5069" style="stroke:#181818;stroke-width:1;"/></g><!--reverse link C_0001117102382624673118 to C_0000605669033368926050--><g id="link_C_0001117102382624673118_C_0000605669033368926050"><path codeLine="103" d="M612.327,174.3828 C773.377,221.1128 1109.9,323.4069 1215,393.2969 C1250.23,416.7269 1281.77,454.8669 1299.89,479.2569 " fill="transparent" id="C_0001117102382624673118-backto-C_0000605669033368926050" style="stroke:#181818;stroke-width:1;"/><polygon fill="transparent" points="595.04,169.3669,610.655,180.1452,613.999,168.6205,595.04,169.3669" style="stroke:#181818;stroke-width:1;"/></g><!--reverse link C_0000605866861866358037 to C_0000204145716468348671--><g id="link_C_0000605866861866358037_C_0000204145716468348671"><path codeLine="104" d="M1500.3831,545.2961 C1500.5431,562.9561 1500.61,569.2369 1500.78,586.9769 " fill="transparent" id="C_0000605866861866358037-backto-C_0000204145716468348671" style="stroke:#181818;stroke-width:1;"/><polygon fill="transparent" points="1500.22,527.2969,1494.3833,545.3505,1506.3828,545.2418,1500.22,527.2969" style="stroke:#181818;stroke-width:1;"/></g><!--reverse link C_0002069520381434407937 to C_0001292034357466653182--><g id="link_C_0002069520381434407937_C_0001292034357466653182"><path codeLine="105" d="M650.4886,385.9925 C656.3686,387.8325 645.18,384.0969 651,385.2969 C681.52,391.5969 762.14,381.5369 791,393.2969 C835.79,411.5569 875.63,452.7969 897.72,478.9869 " fill="transparent" id="C_0002069520381434407937-backto-C_0001292034357466653182" style="stroke:#181818;stroke-width:1;"/><polygon fill="transparent" points="633.31,380.6169,648.6967,391.7187,652.2804,380.2663,633.31,380.6169" style="stroke:#181818;stroke-width:1;"/></g><!--reverse link C_0002069520381434407937 to C_0000724392977093650506--><g id="link_C_0002069520381434407937_C_0000724392977093650506"><path codeLine="106" d="M650.4659,386.1243 C656.3559,387.9343 645.16,384.2069 651,385.2969 C675.58,389.8669 1079.73,380.1569 1101,393.2969 C1131.52,412.1569 1146.53,453.2069 1153.24,479.1969 " fill="transparent" id="C_0002069520381434407937-backto-C_0000724392977093650506" style="stroke:#181818;stroke-width:1;"/><polygon fill="transparent" points="633.26,380.8369,648.7035,391.8596,652.2284,380.389,633.26,380.8369" style="stroke:#181818;stroke-width:1;"/></g><!--reverse link C_0002069520381434407937 to C_0001374849051752224500--><g id="link_C_0002069520381434407937_C_0001374849051752224500"><path codeLine="107" d="M650.4759,386.0843 C656.3659,387.8943 645.17,384.1869 651,385.2969 C668.47,388.6169 955.65,384.3169 971,393.2969 C1002.96,411.9769 1020.96,453.0869 1029.57,479.1369 " fill="transparent" id="C_0002069520381434407937-backto-C_0001374849051752224500" style="stroke:#181818;stroke-width:1;"/><polygon fill="transparent" points="633.27,380.7969,648.7135,391.8196,652.2384,380.349,633.27,380.7969" style="stroke:#181818;stroke-width:1;"/></g><!--reverse link C_0002069520381434407937 to C_0001400215772842495226--><g id="link_C_0002069520381434407937_C_0001400215772842495226"><path codeLine="108" d="M524.8625,366.3408 C488.7625,369.5908 455.48,375.5669 414,393.2969 C365.08,414.2069 316.95,453.8369 289.16,479.1069 " fill="transparent" id="C_0002069520381434407937-backto-C_0001400215772842495226" style="stroke:#181818;stroke-width:1;"/><polygon fill="transparent" points="542.79,364.7269,524.3245,360.365,525.4005,372.3167,542.79,364.7269" style="stroke:#181818;stroke-width:1;"/></g><!--reverse link C_0001400215772842495226 to C_0000885514871619471610--><g id="link_C_0001400215772842495226_C_0000885514871619471610"><path codeLine="109" d="M231.7997,540.5116 C218.0297,555.1116 211.52,560.7869 193,575.2969 C186.78,580.1669 179.85,584.9169 173.01,589.2769 " fill="transparent" id="C_0001400215772842495226-backto-C_0000885514871619471610" style="stroke:#181818;stroke-width:1;"/><polygon fill="transparent" points="244.15,527.4169,227.4348,536.3948,236.1646,544.6283,244.15,527.4169" style="stroke:#181818;stroke-width:1;"/></g><!--reverse link C_0001400215772842495226 to C_0000232638456031681828--><g id="link_C_0001400215772842495226_C_0000232638456031681828"><path codeLine="110" d="M260.3744,545.1825 C258.3744,562.8425 257.65,569.2369 255.64,586.9769 " fill="transparent" id="C_0001400215772842495226-backto-C_0000232638456031681828" style="stroke:#181818;stroke-width:1;"/><polygon fill="transparent" points="262.4,527.2969,254.4126,544.5074,266.3363,545.8577,262.4,527.2969" style="stroke:#181818;stroke-width:1;"/></g><!--reverse link C_0000232638456031681828 to C_0000817665972547784504--><g id="link_C_0000232638456031681828_C_0000817665972547784504"><path codeLine="111" d="M227.5067,650.1819 C216.3067,665.7919 210.16,671.0469 191,683.2969 C175,693.5269 168.01,689.2769 150,695.2969 C144.2,697.2369 138.14,699.3769 132.18,701.5569 " fill="transparent" id="C_0000232638456031681828-backto-C_0000817665972547784504" style="stroke:#181818;stroke-width:1;"/><polygon fill="transparent" points="238,635.5569,222.6317,646.6841,232.3817,653.6796,238,635.5569" style="stroke:#181818;stroke-width:1;"/></g><!--reverse link C_0000232638456031681828 to C_0002280191967493310558--><g id="link_C_0000232638456031681828_C_0002280191967493310558"><path codeLine="112" d="M250.6824,653.2681 C249.6824,670.9281 249.32,677.2369 248.32,694.9769 " fill="transparent" id="C_0000232638456031681828-backto-C_0002280191967493310558" style="stroke:#181818;stroke-width:1;"/><polygon fill="transparent" points="251.7,635.2969,244.692,652.9289,256.6728,653.6073,251.7,635.2969" style="stroke:#181818;stroke-width:1;"/></g><!--reverse link C_0001073500714379115414 to C_0002228653068706235818--><g id="link_C_0001073500714379115414_C_0002228653068706235818"><path codeLine="113" d="M575.9991,278.0088 C449.2691,310.0488 226.05,368.6869 194,393.2969 C165.05,415.5269 146,454.3869 136.12,479.1969 " fill="transparent" id="C_0001073500714379115414-backto-C_0002228653068706235818" style="stroke:#181818;stroke-width:1;"/><polygon fill="transparent" points="593.45,273.5969,574.5284,272.1919,577.4697,283.8258,593.45,273.5969" style="stroke:#181818;stroke-width:1;"/></g><!--SRC=[fLZRZjis47tVho3oaWGR6xnVW3vr2_Gb0GeKxSjY8N1bsXQgYoF9QHTfykqTtMpAeXojcm2xGcR8EMSuF3DCdTIfGxyaTbVQ3BdKPIwlKPpQgaBxn9MsZFSlTmSR_sLt3Zt6HPOL-HEo5Ng8CFnXH4eiCEE6Oagfv1fzFRjdnSQbdZVMJ56YiUGC2q8r8-3T1NkpSN5HsjfjeXx5czCwGeWYc39D9ULICK9qlshEZ1uVMmVuaU-EMHgHY7JOcwyMLlDnZZa4NU_hBFtwiwrSduHjKQAJ6zgC4rLzUte21b5qzssWKHN7CdPHMiIsJehyJ09h8wWaGaC26EU05_ia0kQ59Fg8fv0J2iKMsJITO4VrtjPeRxyur6s1JZjCQPKkRKtLFZcSEL7C9MDI2QsCWj-6IfzJmBoGan-ku_FGRbkwG-agG9_aEsJp5-GxegBUkxAXbQCaXy-ajddifcJwJ0GA3IicC5Q4CsK84PpmKQ5DpKiBhOzujSmgWBknQP6xoLa5JcG2dc899OIP1dXGGCemDJwCYNaX-6kOcpCOLEFpqQR9De5hylo2Sfkv2eJ0hMVlo3P9dNS_b1QGMKKOLXGBHgWPtO-f-PNtemdNSRYKkr5LLKNcKEEBcfkVb2wkY_8bmA9NEUy08BDKIwcvPbXggSMeUWBcXGpwI0l0dx8-0e_w3JmEpT-pgZSOehxcpd9DAST4AimanKHH8R6y9kxQA48vXLOWEJ25HMTnxo9CIXP3xsWo8WdyP4BZSSa6pC6CjPiF-4UPwqtNAhZxEedYExVUhL7cicUG4Z1dhjuNc_U1y-_sxZmz2L56KasLf0HhGI5jOYGXK_DjbBgulZRsc5l70DoEI7ImiA6hVSXDcgKqc85MQz1ewEUNft1XVYNaFlGvTWVxKsDlkrEVPNHsc4ztu-XXXnv3E2Y3v1BwffQAZB1FpRUckuaxJdSBUIxTtJglBYXCI8mpeRYK4lHBqr5TJCst0LqW4dQO2uRYhrrsW3OQacgN7xF85sdAcQ56AMoO550ASYpI4_ChMRJnUXBjTo2p1JJrG-tdbYckkO6HKWaOGZdqw55kf-RNvhOF6LqKxiFzFUfjwpbnhTpdemENgRuI0RCUg077He0W6CgkwIjj6hWqMkEcVK2M9J_hAroSEecJWnrDCxnfEa8f244vDF_nT1OmGrggkZp6jP-N4u5WQhp8GNdzOikaE4ADlHnSEueEsvrc76-7wiVt26ij1E4QhZGnlFbvCKPFp3UG6jsbtwy03bwim3NQ7lFuuZb0eKKopQ6hmXjAmttNO-6Qc6_WCOJjYFpcuMvSBi5lImUJpx1aheFuHq4KQ9M19iQL0goOZuzYOhw1WY-ybmJIImQTytpweq7flA6DQamCCL9nmnZ1GepE8M3-7-SGdG0i93Gil2RHCF5LupaKG4CBWHbJOKbXRY8Nb2Rca1p-w5ZQe9D6FhdTW-E5FCu-t7_wTxMQVrmkM1Pwmys-i1Si2ptwV93JHzU2PQ77pkmhpOiMU64iI4bep5wGalbbWRdSosHW0bu8yd8ANH0jD00ko6He75kmB3J_B8aM652MB0iqyDdMxO4CjCWbom8TQRON-T6cNM31if3kBhbl0MsxU_khortt7tH_9_KUjJAs0XtxWBwuichq4w_v6g_KQgUjVEP6tRtz-F7FJoVp7y_7l3vs2q__IEGQhoLwTtzFcvi1jOivVAbx5JzlYQN2m0It8j_TFmVoVN0XyExbUWs4tly7]--></g></svg>