<svg xmlns="http://www.w3.org/2000/svg" xmlns:xlink="http://www.w3.org/1999/xlink" contentStyleType="text/css" data-diagram-type="SEQUENCE" height="1716px" preserveAspectRatio="none" style="width:2969px;height:1716px;background:#FFFFFF;" version="1.1" viewBox="0 0 2969 1716" width="2969px" zoomAndPan="magnify"><title>PlantUML sequence diagram generator sequence diagram</title><defs/><g><text fill="#000000" font-family="sans-serif" font-size="14" font-weight="bold" lengthAdjust="spacing" textLength="458.9033" x="1256.4253" y="27.9951">PlantUML sequence diagram generator sequence diagram</text><g><title>src/common/generators/generators.cc</title><rect fill="#FFFFFF" height="1566.6797" style="stroke:#181818;stroke-width:1;" width="10" x="176.2852" y="104.7266"/></g><g><title>src/common/generators/generators.cc</title><rect fill="#FFFFFF" height="1454" style="stroke:#181818;stroke-width:1;" width="10" x="181.2852" y="180.7969"/></g><g><title>src/common/generators/generators.cc</title><rect fill="#FFFFFF" height="919.9219" style="stroke:#181818;stroke-width:1;" width="10" x="186.2852" y="376.5938"/></g><g><title>src/common/generators/generators.cc</title><rect fill="#FFFFFF" height="28" style="stroke:#181818;stroke-width:1;" width="10" x="186.2852" y="1378.0625"/></g><g><title>src/common/generators/generators.cc</title><rect fill="#FFFFFF" height="58.9375" style="stroke:#181818;stroke-width:1;" width="10" x="186.2852" y="1561.8594"/></g><g><title>src/common/generators/generators.h</title><rect fill="#FFFFFF" height="14" style="stroke:#181818;stroke-width:1;" width="10" x="931.3496" y="214.9297"/></g><g><title>src/common/generators/plantuml/generator.h</title><rect fill="#FFFFFF" height="885.7891" style="stroke:#181818;stroke-width:1;" width="10" x="1247.1689" y="410.7266"/></g><g><title>common::generators::plantuml::generator&lt;config::sequence_diagram,sequence_diagram::model::diagram&gt;</title><rect fill="#FFFFFF" height="835.6563" style="stroke:#181818;stroke-width:1;" width="10" x="1813.5493" y="439.8594"/></g><g><title>common::generators::plantuml::generator&lt;config::sequence_diagram,sequence_diagram::model::diagram&gt;</title><rect fill="#FFFFFF" height="87.2656" style="stroke:#181818;stroke-width:1;" width="10" x="1818.5493" y="622.3906"/></g><g><title>common::generators::plantuml::generator&lt;config::sequence_diagram,sequence_diagram::model::diagram&gt;</title><rect fill="#FFFFFF" height="130.3984" style="stroke:#181818;stroke-width:1;" width="10" x="1818.5493" y="804.0547"/></g><g><title>common::generators::plantuml::generator&lt;config::sequence_diagram,sequence_diagram::model::diagram&gt;</title><rect fill="#FFFFFF" height="28" style="stroke:#181818;stroke-width:1;" width="10" x="1818.5493" y="963.5859"/></g><g><title>common::generators::plantuml::generator&lt;config::sequence_diagram,sequence_diagram::model::diagram&gt;</title><rect fill="#FFFFFF" height="58.1328" style="stroke:#181818;stroke-width:1;" width="10" x="1818.5493" y="1085.9844"/></g><g><title>common::generators::plantuml::generator&lt;config::sequence_diagram,sequence_diagram::model::diagram&gt;</title><rect fill="#FFFFFF" height="87.2656" style="stroke:#181818;stroke-width:1;" width="10" x="1818.5493" y="1188.25"/></g><g><title>common::generators::generator&lt;config::sequence_diagram,sequence_diagram::model::diagram&gt;</title><rect fill="#FFFFFF" height="14" style="stroke:#181818;stroke-width:1;" width="10" x="2564.9443" y="468.9922"/></g><g><title>common::generators::generator&lt;config::sequence_diagram,sequence_diagram::model::diagram&gt;</title><rect fill="#FFFFFF" height="14" style="stroke:#181818;stroke-width:1;" width="10" x="2564.9443" y="512.125"/></g><g><title>common::generators::generator&lt;config::sequence_diagram,sequence_diagram::model::diagram&gt;</title><rect fill="#FFFFFF" height="30" style="stroke:#181818;stroke-width:1;" width="10" x="2564.9443" y="555.2578"/></g><g><title>common::generators::generator&lt;config::sequence_diagram,sequence_diagram::model::diagram&gt;</title><rect fill="#FFFFFF" height="53.1328" style="stroke:#181818;stroke-width:1;" width="10" x="2564.9443" y="656.5234"/></g><g><title>common::generators::generator&lt;config::sequence_diagram,sequence_diagram::model::diagram&gt;</title><rect fill="#FFFFFF" height="14" style="stroke:#181818;stroke-width:1;" width="10" x="2564.9443" y="862.3203"/></g><g><title>common::generators::generator&lt;config::sequence_diagram,sequence_diagram::model::diagram&gt;</title><rect fill="#FFFFFF" height="14" style="stroke:#181818;stroke-width:1;" width="10" x="2564.9443" y="905.4531"/></g><g><title>common::generators::generator&lt;config::sequence_diagram,sequence_diagram::model::diagram&gt;</title><rect fill="#FFFFFF" height="53.1328" style="stroke:#181818;stroke-width:1;" width="10" x="2564.9443" y="1222.3828"/></g><rect fill="transparent" height="1544.6797" style="stroke:#000000;stroke-width:1.5;" width="2952.7539" x="10" y="119.7266"/><rect fill="transparent" height="17.1328" style="stroke:#000000;stroke-width:1.5;" width="256.4414" x="50" y="243.9297"/><rect fill="transparent" height="17.1328" style="stroke:#000000;stroke-width:1.5;" width="240.0273" x="50" y="275.0625"/><rect fill="transparent" height="1321.6016" style="stroke:#000000;stroke-width:1.5;" width="2932.7539" x="20" y="306.1953"/><rect fill="transparent" height="1090.7344" style="stroke:#000000;stroke-width:1.5;" width="2912.7539" x="30" y="330.3281"/><rect fill="transparent" height="103.3984" style="stroke:#000000;stroke-width:1.5;" width="1512.79" x="1419.9639" y="824.0547"/><rect fill="transparent" height="105.2031" style="stroke:#000000;stroke-width:1.5;" width="379.6899" x="30" y="1515.5938"/><rect fill="transparent" height="31.9375" style="stroke:#000000;stroke-width:1.5;" width="349.6899" x="50" y="1581.8594"/><g><title>src/common/generators/generators.cc</title><rect fill="transparent" height="1607.8125" width="8" x="177.2852" y="73.5938"/><line style="stroke:#181818;stroke-width:0.5;stroke-dasharray:5.0,5.0;" x1="181" x2="181" y1="73.5938" y2="1681.4063"/></g><g><title>src/common/generators/generators.h</title><rect fill="transparent" height="1607.8125" width="8" x="932.3496" y="73.5938"/><line style="stroke:#181818;stroke-width:0.5;stroke-dasharray:5.0,5.0;" x1="936.3252" x2="936.3252" y1="73.5938" y2="1681.4063"/></g><g><title>src/common/generators/plantuml/generator.h</title><rect fill="transparent" height="1607.8125" width="8" x="1248.1689" y="73.5938"/><line style="stroke:#181818;stroke-width:0.5;stroke-dasharray:5.0,5.0;" x1="1251.374" x2="1251.374" y1="73.5938" y2="1681.4063"/></g><g><title>common::generators::plantuml::generator&lt;config::sequence_diagram,sequence_diagram::model::diagram&gt;</title><rect fill="transparent" height="1607.8125" width="8" x="1814.5493" y="73.5938"/><line style="stroke:#181818;stroke-width:0.5;stroke-dasharray:5.0,5.0;" x1="1817.9639" x2="1817.9639" y1="73.5938" y2="1681.4063"/></g><g><title>common::generators::generator&lt;config::sequence_diagram,sequence_diagram::model::diagram&gt;</title><rect fill="transparent" height="1607.8125" width="8" x="2565.9443" y="73.5938"/><line style="stroke:#181818;stroke-width:0.5;stroke-dasharray:5.0,5.0;" x1="2569.1348" x2="2569.1348" y1="73.5938" y2="1681.4063"/></g><rect fill="#E2E2F0" height="30.2969" rx="2.5" ry="2.5" style="stroke:#181818;stroke-width:0.5;" width="282.5703" x="40" y="42.2969"/><text fill="#000000" font-family="sans-serif" font-size="14" lengthAdjust="spacing" textLength="268.5703" x="47" y="62.292">src/common/generators/generators.cc</text><rect fill="#E2E2F0" height="30.2969" rx="2.5" ry="2.5" style="stroke:#181818;stroke-width:0.5;" width="282.5703" x="40" y="1680.4063"/><text fill="#000000" font-family="sans-serif" font-size="14" lengthAdjust="spacing" textLength="268.5703" x="47" y="1700.4014">src/common/generators/generators.cc</text><rect fill="#E2E2F0" height="30.2969" rx="2.5" ry="2.5" style="stroke:#181818;stroke-width:0.5;" width="276.0488" x="798.3252" y="42.2969"/><text fill="#000000" font-family="sans-serif" font-size="14" lengthAdjust="spacing" textLength="262.0488" x="805.3252" y="62.292">src/common/generators/generators.h</text><rect fill="#E2E2F0" height="30.2969" rx="2.5" ry="2.5" style="stroke:#181818;stroke-width:0.5;" width="276.0488" x="798.3252" y="1680.4063"/><text fill="#000000" font-family="sans-serif" font-size="14" lengthAdjust="spacing" textLength="262.0488" x="805.3252" y="1700.4014">src/common/generators/generators.h</text><rect fill="#E2E2F0" height="30.2969" rx="2.5" ry="2.5" style="stroke:#181818;stroke-width:0.5;" width="335.5898" x="1084.374" y="42.2969"/><text fill="#000000" font-family="sans-serif" font-size="14" lengthAdjust="spacing" textLength="321.5898" x="1091.374" y="62.292">src/common/generators/plantuml/generator.h</text><rect fill="#E2E2F0" height="30.2969" rx="2.5" ry="2.5" style="stroke:#181818;stroke-width:0.5;" width="335.5898" x="1084.374" y="1680.4063"/><text fill="#000000" font-family="sans-serif" font-size="14" lengthAdjust="spacing" textLength="321.5898" x="1091.374" y="1700.4014">src/common/generators/plantuml/generator.h</text><a href="" target="_top" title="generator" xlink:actuate="onRequest" xlink:href="" xlink:show="new" xlink:title="generator" xlink:type="simple"><rect fill="#E2E2F0" height="30.2969" rx="2.5" ry="2.5" style="stroke:#181818;stroke-width:0.5;" width="777.1709" x="1429.9639" y="42.2969"/><text fill="#000000" font-family="sans-serif" font-size="14" lengthAdjust="spacing" textLength="763.1709" x="1436.9639" y="62.292">common::generators::plantuml::generator&lt;config::sequence_diagram,sequence_diagram::model::diagram&gt;</text><rect fill="#E2E2F0" height="30.2969" rx="2.5" ry="2.5" style="stroke:#181818;stroke-width:0.5;" width="777.1709" x="1429.9639" y="1680.4063"/><text fill="#000000" font-family="sans-serif" font-size="14" lengthAdjust="spacing" textLength="763.1709" x="1436.9639" y="1700.4014">common::generators::plantuml::generator&lt;config::sequence_diagram,sequence_diagram::model::diagram&gt;</text></a><a href="" target="_top" title="generator" xlink:actuate="onRequest" xlink:href="" xlink:show="new" xlink:title="generator" xlink:type="simple"><rect fill="#E2E2F0" height="30.2969" rx="2.5" ry="2.5" style="stroke:#181818;stroke-width:0.5;" width="705.6191" x="2217.1348" y="42.2969"/><text fill="#000000" font-family="sans-serif" font-size="14" lengthAdjust="spacing" textLength="691.6191" x="2224.1348" y="62.292">common::generators::generator&lt;config::sequence_diagram,sequence_diagram::model::diagram&gt;</text><rect fill="#E2E2F0" height="30.2969" rx="2.5" ry="2.5" style="stroke:#181818;stroke-width:0.5;" width="705.6191" x="2217.1348" y="1680.4063"/><text fill="#000000" font-family="sans-serif" font-size="14" lengthAdjust="spacing" textLength="691.6191" x="2224.1348" y="1700.4014">common::generators::generator&lt;config::sequence_diagram,sequence_diagram::model::diagram&gt;</text></a><g><title>src/common/generators/generators.cc</title><rect fill="#FFFFFF" height="1566.6797" style="stroke:#181818;stroke-width:1;" width="10" x="176.2852" y="104.7266"/></g><g><title>src/common/generators/generators.cc</title><rect fill="#FFFFFF" height="1454" style="stroke:#181818;stroke-width:1;" width="10" x="181.2852" y="180.7969"/></g><g><title>src/common/generators/generators.cc</title><rect fill="#FFFFFF" height="919.9219" style="stroke:#181818;stroke-width:1;" width="10" x="186.2852" y="376.5938"/></g><g><title>src/common/generators/generators.cc</title><rect fill="#FFFFFF" height="28" style="stroke:#181818;stroke-width:1;" width="10" x="186.2852" y="1378.0625"/></g><g><title>src/common/generators/generators.cc</title><rect fill="#FFFFFF" height="58.9375" style="stroke:#181818;stroke-width:1;" width="10" x="186.2852" y="1561.8594"/></g><g><title>src/common/generators/generators.h</title><rect fill="#FFFFFF" height="14" style="stroke:#181818;stroke-width:1;" width="10" x="931.3496" y="214.9297"/></g><g><title>src/common/generators/plantuml/generator.h</title><rect fill="#FFFFFF" height="885.7891" style="stroke:#181818;stroke-width:1;" width="10" x="1247.1689" y="410.7266"/></g><g><title>common::generators::plantuml::generator&lt;config::sequence_diagram,sequence_diagram::model::diagram&gt;</title><rect fill="#FFFFFF" height="835.6563" style="stroke:#181818;stroke-width:1;" width="10" x="1813.5493" y="439.8594"/></g><g><title>common::generators::plantuml::generator&lt;config::sequence_diagram,sequence_diagram::model::diagram&gt;</title><rect fill="#FFFFFF" height="87.2656" style="stroke:#181818;stroke-width:1;" width="10" x="1818.5493" y="622.3906"/></g><g><title>common::generators::plantuml::generator&lt;config::sequence_diagram,sequence_diagram::model::diagram&gt;</title><rect fill="#FFFFFF" height="130.3984" style="stroke:#181818;stroke-width:1;" width="10" x="1818.5493" y="804.0547"/></g><g><title>common::generators::plantuml::generator&lt;config::sequence_diagram,sequence_diagram::model::diagram&gt;</title><rect fill="#FFFFFF" height="28" style="stroke:#181818;stroke-width:1;" width="10" x="1818.5493" y="963.5859"/></g><g><title>common::generators::plantuml::generator&lt;config::sequence_diagram,sequence_diagram::model::diagram&gt;</title><rect fill="#FFFFFF" height="58.1328" style="stroke:#181818;stroke-width:1;" width="10" x="1818.5493" y="1085.9844"/></g><g><title>common::generators::plantuml::generator&lt;config::sequence_diagram,sequence_diagram::model::diagram&gt;</title><rect fill="#FFFFFF" height="87.2656" style="stroke:#181818;stroke-width:1;" width="10" x="1818.5493" y="1188.25"/></g><g><title>common::generators::generator&lt;config::sequence_diagram,sequence_diagram::model::diagram&gt;</title><rect fill="#FFFFFF" height="14" style="stroke:#181818;stroke-width:1;" width="10" x="2564.9443" y="468.9922"/></g><g><title>common::generators::generator&lt;config::sequence_diagram,sequence_diagram::model::diagram&gt;</title><rect fill="#FFFFFF" height="14" style="stroke:#181818;stroke-width:1;" width="10" x="2564.9443" y="512.125"/></g><g><title>common::generators::generator&lt;config::sequence_diagram,sequence_diagram::model::diagram&gt;</title><rect fill="#FFFFFF" height="30" style="stroke:#181818;stroke-width:1;" width="10" x="2564.9443" y="555.2578"/></g><g><title>common::generators::generator&lt;config::sequence_diagram,sequence_diagram::model::diagram&gt;</title><rect fill="#FFFFFF" height="53.1328" style="stroke:#181818;stroke-width:1;" width="10" x="2564.9443" y="656.5234"/></g><g><title>common::generators::generator&lt;config::sequence_diagram,sequence_diagram::model::diagram&gt;</title><rect fill="#FFFFFF" height="14" style="stroke:#181818;stroke-width:1;" width="10" x="2564.9443" y="862.3203"/></g><g><title>common::generators::generator&lt;config::sequence_diagram,sequence_diagram::model::diagram&gt;</title><rect fill="#FFFFFF" height="14" style="stroke:#181818;stroke-width:1;" width="10" x="2564.9443" y="905.4531"/></g><g><title>common::generators::generator&lt;config::sequence_diagram,sequence_diagram::model::diagram&gt;</title><rect fill="#FFFFFF" height="53.1328" style="stroke:#181818;stroke-width:1;" width="10" x="2564.9443" y="1222.3828"/></g><polygon fill="#181818" points="164.2852,100.7266,174.2852,104.7266,164.2852,108.7266,168.2852,104.7266" style="stroke:#181818;stroke-width:1;"/><line style="stroke:#181818;stroke-width:1;" x1="0" x2="170.2852" y1="104.7266" y2="104.7266"/><text fill="#000000" font-family="sans-serif" font-size="13" lengthAdjust="spacing" textLength="129.5938" x="7" y="99.6606">generate_diagram()</text><path d="M10,119.7266 L74.4429,119.7266 L74.4429,126.8594 L64.4429,136.8594 L10,136.8594 L10,119.7266 " fill="#EEEEEE" style="stroke:#000000;stroke-width:1.5;"/><rect fill="transparent" height="1544.6797" style="stroke:#000000;stroke-width:1.5;" width="2952.7539" x="10" y="119.7266"/><text fill="#000000" font-family="sans-serif" font-size="13" font-weight="bold" lengthAdjust="spacing" textLength="19.4429" x="25" y="132.7935">alt</text><text fill="#000000" font-family="sans-serif" font-size="11" font-weight="bold" lengthAdjust="spacing" textLength="249.4819" x="89.4429" y="131.937">[diagram-&gt;type() == diagram_t::kClass]</text><line style="stroke:#000000;stroke-width:1;stroke-dasharray:2.0,2.0;" x1="10" x2="2962.7539" y1="137.8594" y2="137.8594"/><text fill="#000000" font-family="sans-serif" font-size="11" font-weight="bold" lengthAdjust="spacing" textLength="277.4814" x="15" y="148.0698">[diagram-&gt;type() == diagram_t::kSequence]</text><a href="" target="_top" title="" xlink:actuate="onRequest" xlink:href="" xlink:show="new" xlink:title="" xlink:type="simple"><line style="stroke:#181818;stroke-width:1;" x1="186.2852" x2="233.2852" y1="167.7969" y2="167.7969"/><line style="stroke:#181818;stroke-width:1;" x1="233.2852" x2="233.2852" y1="167.7969" y2="180.7969"/><line style="stroke:#181818;stroke-width:1;" x1="192.2852" x2="233.2852" y1="180.7969" y2="180.7969"/><polygon fill="#181818" points="202.2852,176.7969,192.2852,180.7969,202.2852,184.7969,198.2852,180.7969" style="stroke:#181818;stroke-width:1;"/><text fill="#000000" font-family="sans-serif" font-size="13" lengthAdjust="spacing" textLength="357.7603" x="198.2852" y="162.731">generate_diagram_impl&lt;config::sequence_diagram&gt;()</text></a><a href="" target="_top" title="" xlink:actuate="onRequest" xlink:href="" xlink:show="new" xlink:title="" xlink:type="simple"><polygon fill="#181818" points="919.3496,210.9297,929.3496,214.9297,919.3496,218.9297,923.3496,214.9297" style="stroke:#181818;stroke-width:1;"/><line style="stroke:#181818;stroke-width:1;" x1="191.2852" x2="925.3496" y1="214.9297" y2="214.9297"/><text fill="#000000" font-family="sans-serif" font-size="13" lengthAdjust="spacing" textLength="696.6616" x="198.2852" y="209.8638">generate&lt;sequence_diagram::model::diagram,config::sequence_diagram,sequence_diagram::visitor::tra...</text></a><polygon fill="#181818" points="202.2852,224.9297,192.2852,228.9297,202.2852,232.9297,198.2852,228.9297" style="stroke:#181818;stroke-width:1;"/><line style="stroke:#181818;stroke-width:1;stroke-dasharray:2.0,2.0;" x1="196.2852" x2="935.3496" y1="228.9297" y2="228.9297"/><path d="M50,243.9297 L114.4429,243.9297 L114.4429,251.0625 L104.4429,261.0625 L50,261.0625 L50,243.9297 " fill="#EEEEEE" style="stroke:#000000;stroke-width:1.5;"/><rect fill="transparent" height="17.1328" style="stroke:#000000;stroke-width:1.5;" width="256.4414" x="50" y="243.9297"/><text fill="#000000" font-family="sans-serif" font-size="13" font-weight="bold" lengthAdjust="spacing" textLength="19.4429" x="65" y="256.9966">alt</text><text fill="#000000" font-family="sans-serif" font-size="11" font-weight="bold" lengthAdjust="spacing" textLength="171.9985" x="129.4429" y="256.1401">[runtime_config.print_from]</text><path d="M50,275.0625 L114.4429,275.0625 L114.4429,282.1953 L104.4429,292.1953 L50,292.1953 L50,275.0625 " fill="#EEEEEE" style="stroke:#000000;stroke-width:1.5;"/><rect fill="transparent" height="17.1328" style="stroke:#000000;stroke-width:1.5;" width="240.0273" x="50" y="275.0625"/><text fill="#000000" font-family="sans-serif" font-size="13" font-weight="bold" lengthAdjust="spacing" textLength="19.4429" x="65" y="288.1294">alt</text><text fill="#000000" font-family="sans-serif" font-size="11" font-weight="bold" lengthAdjust="spacing" textLength="155.5845" x="129.4429" y="287.2729">[runtime_config.print_to]</text><path d="M20,306.1953 L96.624,306.1953 L96.624,313.3281 L86.624,323.3281 L20,323.3281 L20,306.1953 " fill="#EEEEEE" style="stroke:#000000;stroke-width:1.5;"/><rect fill="transparent" height="1321.6016" style="stroke:#000000;stroke-width:1.5;" width="2932.7539" x="20" y="306.1953"/><text fill="#000000" font-family="sans-serif" font-size="13" font-weight="bold" lengthAdjust="spacing" textLength="31.624" x="35" y="319.2622">loop</text><text fill="#000000" font-family="sans-serif" font-size="11" font-weight="bold" lengthAdjust="spacing" textLength="102.9316" x="111.624" y="318.4058">[runtime_config]</text><path d="M30,330.3281 L94.4429,330.3281 L94.4429,337.4609 L84.4429,347.4609 L30,347.4609 L30,330.3281 " fill="#EEEEEE" style="stroke:#000000;stroke-width:1.5;"/><rect fill="transparent" height="1090.7344" style="stroke:#000000;stroke-width:1.5;" width="2912.7539" x="30" y="330.3281"/><text fill="#000000" font-family="sans-serif" font-size="13" font-weight="bold" lengthAdjust="spacing" textLength="19.4429" x="45" y="343.395">alt</text><text fill="#000000" font-family="sans-serif" font-size="11" font-weight="bold" lengthAdjust="spacing" textLength="300.8779" x="109.4429" y="342.5386">[generator_type == generator_type_t::plantuml]</text><a href="" target="_top" title="" xlink:actuate="onRequest" xlink:href="" xlink:show="new" xlink:title="" xlink:type="simple"><line style="stroke:#181818;stroke-width:1;" x1="191.2852" x2="238.2852" y1="363.5938" y2="363.5938"/><line style="stroke:#181818;stroke-width:1;" x1="238.2852" x2="238.2852" y1="363.5938" y2="376.5938"/><line style="stroke:#181818;stroke-width:1;" x1="197.2852" x2="238.2852" y1="376.5938" y2="376.5938"/><polygon fill="#181818" points="207.2852,372.5938,197.2852,376.5938,207.2852,380.5938,203.2852,376.5938" style="stroke:#181818;stroke-width:1;"/><text fill="#000000" font-family="sans-serif" font-size="13" lengthAdjust="spacing" textLength="707.916" x="203.2852" y="358.5278">generate_diagram_select_generator&lt;config::sequence_diagram,common::generators::plantuml_generator...</text></a><a href="" target="_top" title="" xlink:actuate="onRequest" xlink:href="" xlink:show="new" xlink:title="" xlink:type="simple"><polygon fill="#181818" points="1235.1689,406.7266,1245.1689,410.7266,1235.1689,414.7266,1239.1689,410.7266" style="stroke:#181818;stroke-width:1;"/><line style="stroke:#181818;stroke-width:1;" x1="196.2852" x2="1241.1689" y1="410.7266" y2="410.7266"/><text fill="#000000" font-family="sans-serif" font-size="13" lengthAdjust="spacing" textLength="520.7554" x="203.2852" y="405.6606">operator&lt;&lt;&lt;config::sequence_diagram,sequence_diagram::model::diagram&gt;()</text></a><a href="" target="_top" title="" xlink:actuate="onRequest" xlink:href="" xlink:show="new" xlink:title="" xlink:type="simple"><polygon fill="#181818" points="1801.5493,435.8594,1811.5493,439.8594,1801.5493,443.8594,1805.5493,439.8594" style="stroke:#181818;stroke-width:1;"/><line style="stroke:#181818;stroke-width:1;" x1="1257.1689" x2="1807.5493" y1="439.8594" y2="439.8594"/><text fill="#000000" font-family="sans-serif" font-size="13" lengthAdjust="spacing" textLength="108.3799" x="1264.1689" y="434.7935">generate() const</text></a><a href="" target="_top" title="" xlink:actuate="onRequest" xlink:href="" xlink:show="new" xlink:title="" xlink:type="simple"><polygon fill="#181818" points="2552.9443,464.9922,2562.9443,468.9922,2552.9443,472.9922,2556.9443,468.9922" style="stroke:#181818;stroke-width:1;"/><line style="stroke:#181818;stroke-width:1;" x1="1823.5493" x2="2558.9443" y1="468.9922" y2="468.9922"/><text fill="#000000" font-family="sans-serif" font-size="13" lengthAdjust="spacing" textLength="89.2671" x="1830.5493" y="463.9263">config() const</text></a><polygon fill="#181818" points="1834.5493,478.9922,1824.5493,482.9922,1834.5493,486.9922,1830.5493,482.9922" style="stroke:#181818;stroke-width:1;"/><line style="stroke:#181818;stroke-width:1;stroke-dasharray:2.0,2.0;" x1="1828.5493" x2="2568.9443" y1="482.9922" y2="482.9922"/><a href="" target="_top" title="" xlink:actuate="onRequest" xlink:href="" xlink:show="new" xlink:title="" xlink:type="simple"><polygon fill="#181818" points="2552.9443,508.125,2562.9443,512.125,2552.9443,516.125,2556.9443,512.125" style="stroke:#181818;stroke-width:1;"/><line style="stroke:#181818;stroke-width:1;" x1="1823.5493" x2="2558.9443" y1="512.125" y2="512.125"/><text fill="#000000" font-family="sans-serif" font-size="13" lengthAdjust="spacing" textLength="89.9653" x="1830.5493" y="507.0591">model() const</text></a><polygon fill="#181818" points="1834.5493,522.125,1824.5493,526.125,1834.5493,530.125,1830.5493,526.125" style="stroke:#181818;stroke-width:1;"/><line style="stroke:#181818;stroke-width:1;stroke-dasharray:2.0,2.0;" x1="1828.5493" x2="2568.9443" y1="526.125" y2="526.125"/><a href="" target="_top" title="" xlink:actuate="onRequest" xlink:href="" xlink:show="new" xlink:title="" xlink:type="simple"><polygon fill="#181818" points="2552.9443,551.2578,2562.9443,555.2578,2552.9443,559.2578,2556.9443,555.2578" style="stroke:#181818;stroke-width:1;"/><line style="stroke:#181818;stroke-width:1;" x1="1823.5493" x2="2558.9443" y1="555.2578" y2="555.2578"/><text fill="#000000" font-family="sans-serif" font-size="13" lengthAdjust="spacing" textLength="151.0171" x="1830.5493" y="550.1919">update_context() const</text></a><a href="" target="_top" title="" xlink:actuate="onRequest" xlink:href="" xlink:show="new" xlink:title="" xlink:type="simple"><line style="stroke:#181818;stroke-width:1;" x1="1823.5493" x2="1870.5493" y1="609.3906" y2="609.3906"/><line style="stroke:#181818;stroke-width:1;" x1="1870.5493" x2="1870.5493" y1="609.3906" y2="622.3906"/><line style="stroke:#181818;stroke-width:1;" x1="1829.5493" x2="1870.5493" y1="622.3906" y2="622.3906"/><polygon fill="#181818" points="1839.5493,618.3906,1829.5493,622.3906,1839.5493,626.3906,1835.5493,622.3906" style="stroke:#181818;stroke-width:1;"/><text fill="#000000" font-family="sans-serif" font-size="13" lengthAdjust="spacing" textLength="140.2959" x="1835.5493" y="604.3247">generate_title() const</text></a><a href="" target="_top" title="" xlink:actuate="onRequest" xlink:href="" xlink:show="new" xlink:title="" xlink:type="simple"><polygon fill="#181818" points="2552.9443,652.5234,2562.9443,656.5234,2552.9443,660.5234,2556.9443,656.5234" style="stroke:#181818;stroke-width:1;"/><line style="stroke:#181818;stroke-width:1;" x1="1828.5493" x2="2558.9443" y1="656.5234" y2="656.5234"/><text fill="#000000" font-family="sans-serif" font-size="13" lengthAdjust="spacing" textLength="89.2671" x="1835.5493" y="651.4575">config() const</text></a><polygon fill="#FEFFDD" points="2564,669.5234,2574,669.5234,2584,680.5234,2574,692.5234,2564,692.5234,2554,680.5234,2564,669.5234" style="stroke:#181818;stroke-width:0.5;"/><text fill="#000000" font-family="sans-serif" font-size="13" lengthAdjust="spacing" textLength="6.5" x="2566" y="685.5903">*</text><path d="M1707,729.6563 L1707,769.6563 L1928,769.6563 L1928,739.6563 L1918,729.6563 L1707,729.6563 " fill="#FEFFDD" style="stroke:#181818;stroke-width:0.5;"/><path d="M1918,729.6563 L1918,739.6563 L1928,739.6563 L1918,729.6563 " fill="#FEFFDD" style="stroke:#181818;stroke-width:0.5;"/><text fill="#000000" font-family="sans-serif" font-size="13" lengthAdjust="spacing" textLength="193.2354" x="1713" y="746.7231">Generate PlantUML directives</text><text fill="#000000" font-family="sans-serif" font-size="13" lengthAdjust="spacing" textLength="200.6938" x="1713" y="761.856">before auto generated content</text><a href="" target="_top" title="" xlink:actuate="onRequest" xlink:href="" xlink:show="new" xlink:title="" xlink:type="simple"><line style="stroke:#181818;stroke-width:1;" x1="1823.5493" x2="1870.5493" y1="791.0547" y2="791.0547"/><line style="stroke:#181818;stroke-width:1;" x1="1870.5493" x2="1870.5493" y1="791.0547" y2="804.0547"/><line style="stroke:#181818;stroke-width:1;" x1="1829.5493" x2="1870.5493" y1="804.0547" y2="804.0547"/><polygon fill="#181818" points="1839.5493,800.0547,1829.5493,804.0547,1839.5493,808.0547,1835.5493,804.0547" style="stroke:#181818;stroke-width:1;"/><text fill="#000000" font-family="sans-serif" font-size="13" lengthAdjust="spacing" textLength="242.5884" x="1835.5493" y="785.9888">generate_plantuml_directives() const</text></a><path d="M1419.9639,824.0547 L1496.5879,824.0547 L1496.5879,831.1875 L1486.5879,841.1875 L1419.9639,841.1875 L1419.9639,824.0547 " fill="#EEEEEE" style="stroke:#000000;stroke-width:1.5;"/><rect fill="transparent" height="103.3984" style="stroke:#000000;stroke-width:1.5;" width="1512.79" x="1419.9639" y="824.0547"/><text fill="#000000" font-family="sans-serif" font-size="13" font-weight="bold" lengthAdjust="spacing" textLength="31.624" x="1434.9639" y="837.1216">loop</text><text fill="#000000" font-family="sans-serif" font-size="11" font-weight="bold" lengthAdjust="spacing" textLength="71.312" x="1511.5879" y="836.2651">[directives]</text><a href="" target="_top" title="" xlink:actuate="onRequest" xlink:href="" xlink:show="new" xlink:title="" xlink:type="simple"><polygon fill="#181818" points="2552.9443,858.3203,2562.9443,862.3203,2552.9443,866.3203,2556.9443,862.3203" style="stroke:#181818;stroke-width:1;"/><line style="stroke:#181818;stroke-width:1;" x1="1828.5493" x2="2558.9443" y1="862.3203" y2="862.3203"/><text fill="#000000" font-family="sans-serif" font-size="13" lengthAdjust="spacing" textLength="73.417" x="1835.5493" y="857.2544">env() const</text></a><polygon fill="#181818" points="1839.5493,872.3203,1829.5493,876.3203,1839.5493,880.3203,1835.5493,876.3203" style="stroke:#181818;stroke-width:1;"/><line style="stroke:#181818;stroke-width:1;stroke-dasharray:2.0,2.0;" x1="1833.5493" x2="2568.9443" y1="876.3203" y2="876.3203"/><a href="" target="_top" title="" xlink:actuate="onRequest" xlink:href="" xlink:show="new" xlink:title="" xlink:type="simple"><polygon fill="#181818" points="2552.9443,901.4531,2562.9443,905.4531,2552.9443,909.4531,2556.9443,905.4531" style="stroke:#181818;stroke-width:1;"/><line style="stroke:#181818;stroke-width:1;" x1="1828.5493" x2="2558.9443" y1="905.4531" y2="905.4531"/><text fill="#000000" font-family="sans-serif" font-size="13" lengthAdjust="spacing" textLength="98.7124" x="1835.5493" y="900.3872">context() const</text></a><polygon fill="#181818" points="1839.5493,915.4531,1829.5493,919.4531,1839.5493,923.4531,1835.5493,919.4531" style="stroke:#181818;stroke-width:1;"/><line style="stroke:#181818;stroke-width:1;stroke-dasharray:2.0,2.0;" x1="1833.5493" x2="2568.9443" y1="919.4531" y2="919.4531"/><a href="" target="_top" title="" xlink:actuate="onRequest" xlink:href="" xlink:show="new" xlink:title="" xlink:type="simple"><line style="stroke:#181818;stroke-width:1;" x1="1828.5493" x2="1870.5493" y1="955.5859" y2="955.5859"/><line style="stroke:#181818;stroke-width:1;" x1="1870.5493" x2="1870.5493" y1="955.5859" y2="968.5859"/><line style="stroke:#181818;stroke-width:1;" x1="1829.5493" x2="1870.5493" y1="968.5859" y2="968.5859"/><polygon fill="#181818" points="1839.5493,964.5859,1829.5493,968.5859,1839.5493,972.5859,1835.5493,968.5859" style="stroke:#181818;stroke-width:1;"/><text fill="#000000" font-family="sans-serif" font-size="13" lengthAdjust="spacing" textLength="168.9365" x="1835.5493" y="950.52">generate_diagram() const</text></a><path d="M1711,1011.5859 L1711,1051.5859 L1925,1051.5859 L1925,1021.5859 L1915,1011.5859 L1711,1011.5859 " fill="#FEFFDD" style="stroke:#181818;stroke-width:0.5;"/><path d="M1915,1011.5859 L1915,1021.5859 L1925,1021.5859 L1915,1011.5859 " fill="#FEFFDD" style="stroke:#181818;stroke-width:0.5;"/><text fill="#000000" font-family="sans-serif" font-size="13" lengthAdjust="spacing" textLength="193.2354" x="1717" y="1028.6528">Generate PlantUML directives</text><text fill="#000000" font-family="sans-serif" font-size="13" lengthAdjust="spacing" textLength="189.5537" x="1717" y="1043.7856">after auto generated content</text><a href="" target="_top" title="" xlink:actuate="onRequest" xlink:href="" xlink:show="new" xlink:title="" xlink:type="simple"><line style="stroke:#181818;stroke-width:1;" x1="1823.5493" x2="1870.5493" y1="1072.9844" y2="1072.9844"/><line style="stroke:#181818;stroke-width:1;" x1="1870.5493" x2="1870.5493" y1="1072.9844" y2="1085.9844"/><line style="stroke:#181818;stroke-width:1;" x1="1829.5493" x2="1870.5493" y1="1085.9844" y2="1085.9844"/><polygon fill="#181818" points="1839.5493,1081.9844,1829.5493,1085.9844,1839.5493,1089.9844,1835.5493,1085.9844" style="stroke:#181818;stroke-width:1;"/><text fill="#000000" font-family="sans-serif" font-size="13" lengthAdjust="spacing" textLength="242.5884" x="1835.5493" y="1067.9185">generate_plantuml_directives() const</text></a><polygon fill="#FEFFDD" points="1813,1103.9844,1823,1103.9844,1833,1114.9844,1823,1126.9844,1813,1126.9844,1803,1114.9844,1813,1103.9844" style="stroke:#181818;stroke-width:0.5;"/><text fill="#000000" font-family="sans-serif" font-size="13" lengthAdjust="spacing" textLength="6.5" x="1815" y="1120.0513">*</text><a href="" target="_top" title="" xlink:actuate="onRequest" xlink:href="" xlink:show="new" xlink:title="" xlink:type="simple"><line style="stroke:#181818;stroke-width:1;" x1="1823.5493" x2="1870.5493" y1="1175.25" y2="1175.25"/><line style="stroke:#181818;stroke-width:1;" x1="1870.5493" x2="1870.5493" y1="1175.25" y2="1188.25"/><line style="stroke:#181818;stroke-width:1;" x1="1829.5493" x2="1870.5493" y1="1188.25" y2="1188.25"/><polygon fill="#181818" points="1839.5493,1184.25,1829.5493,1188.25,1839.5493,1192.25,1835.5493,1188.25" style="stroke:#181818;stroke-width:1;"/><text fill="#000000" font-family="sans-serif" font-size="13" lengthAdjust="spacing" textLength="177.8867" x="1835.5493" y="1170.1841">generate_metadata() const</text></a><a href="" target="_top" title="" xlink:actuate="onRequest" xlink:href="" xlink:show="new" xlink:title="" xlink:type="simple"><polygon fill="#181818" points="2552.9443,1218.3828,2562.9443,1222.3828,2552.9443,1226.3828,2556.9443,1222.3828" style="stroke:#181818;stroke-width:1;"/><line style="stroke:#181818;stroke-width:1;" x1="1828.5493" x2="2558.9443" y1="1222.3828" y2="1222.3828"/><text fill="#000000" font-family="sans-serif" font-size="13" lengthAdjust="spacing" textLength="89.2671" x="1835.5493" y="1217.3169">config() const</text></a><polygon fill="#FEFFDD" points="2564,1235.3828,2574,1235.3828,2584,1246.3828,2574,1258.3828,2564,1258.3828,2554,1246.3828,2564,1235.3828" style="stroke:#181818;stroke-width:0.5;"/><text fill="#000000" font-family="sans-serif" font-size="13" lengthAdjust="spacing" textLength="6.5" x="2566" y="1251.4497">*</text><polygon fill="#181818" points="202.2852,1292.5156,192.2852,1296.5156,202.2852,1300.5156,198.2852,1296.5156" style="stroke:#181818;stroke-width:1;"/><line style="stroke:#181818;stroke-width:1;stroke-dasharray:2.0,2.0;" x1="196.2852" x2="1251.1689" y1="1296.5156" y2="1296.5156"/><line style="stroke:#000000;stroke-width:1;stroke-dasharray:2.0,2.0;" x1="30" x2="2942.7539" y1="1305.5156" y2="1305.5156"/><text fill="#000000" font-family="sans-serif" font-size="11" font-weight="bold" lengthAdjust="spacing" textLength="271.3638" x="35" y="1315.7261">[generator_type == generator_type_t::json]</text><line style="stroke:#000000;stroke-width:1;stroke-dasharray:2.0,2.0;" x1="30" x2="2942.7539" y1="1320.3203" y2="1320.3203"/><text fill="#000000" font-family="sans-serif" font-size="11" font-weight="bold" lengthAdjust="spacing" textLength="300.5342" x="35" y="1330.5308">[generator_type == generator_type_t::mermaid]</text><line style="stroke:#000000;stroke-width:1;stroke-dasharray:2.0,2.0;" x1="30" x2="2942.7539" y1="1335.125" y2="1335.125"/><text fill="#000000" font-family="sans-serif" font-size="11" font-weight="bold" lengthAdjust="spacing" textLength="297.3169" x="35" y="1345.3354">[generator_type == generator_type_t::graphml]</text><a href="" target="_top" title="" xlink:actuate="onRequest" xlink:href="" xlink:show="new" xlink:title="" xlink:type="simple"><line style="stroke:#181818;stroke-width:1;" x1="196.2852" x2="238.2852" y1="1370.0625" y2="1370.0625"/><line style="stroke:#181818;stroke-width:1;" x1="238.2852" x2="238.2852" y1="1370.0625" y2="1383.0625"/><line style="stroke:#181818;stroke-width:1;" x1="197.2852" x2="238.2852" y1="1383.0625" y2="1383.0625"/><polygon fill="#181818" points="207.2852,1379.0625,197.2852,1383.0625,207.2852,1387.0625,203.2852,1383.0625" style="stroke:#181818;stroke-width:1;"/><text fill="#000000" font-family="sans-serif" font-size="13" lengthAdjust="spacing" textLength="711.0645" x="203.2852" y="1364.9966">generate_diagram_select_generator&lt;config::sequence_diagram,common::generators::graphml_generator_...</text></a><path d="M73,1433.0625 L73,1503.0625 L289,1503.0625 L289,1443.0625 L279,1433.0625 L73,1433.0625 " fill="#FEFFDD" style="stroke:#181818;stroke-width:0.5;"/><path d="M279,1433.0625 L279,1443.0625 L289,1443.0625 L279,1433.0625 " fill="#FEFFDD" style="stroke:#181818;stroke-width:0.5;"/><text fill="#000000" font-family="sans-serif" font-size="13" lengthAdjust="spacing" textLength="193.2798" x="79" y="1450.1294">Convert plantuml or mermaid</text><text fill="#000000" font-family="sans-serif" font-size="13" lengthAdjust="spacing" textLength="186.2783" x="79" y="1465.2622">to an image using command</text><text fill="#000000" font-family="sans-serif" font-size="13" lengthAdjust="spacing" textLength="195.4189" x="79" y="1480.395">provided in the command line</text><text fill="#000000" font-family="sans-serif" font-size="13" lengthAdjust="spacing" textLength="70.5732" x="79" y="1495.5278">arguments</text><path d="M30,1515.5938 L94.4429,1515.5938 L94.4429,1522.7266 L84.4429,1532.7266 L30,1532.7266 L30,1515.5938 " fill="#EEEEEE" style="stroke:#000000;stroke-width:1.5;"/><rect fill="transparent" height="105.2031" style="stroke:#000000;stroke-width:1.5;" width="379.6899" x="30" y="1515.5938"/><text fill="#000000" font-family="sans-serif" font-size="13" font-weight="bold" lengthAdjust="spacing" textLength="19.4429" x="45" y="1528.6606">alt</text><text fill="#000000" font-family="sans-serif" font-size="11" font-weight="bold" lengthAdjust="spacing" textLength="211.8843" x="109.4429" y="1527.8042">[runtime_config.render_diagrams]</text><a href="" target="_top" title="" xlink:actuate="onRequest" xlink:href="" xlink:show="new" xlink:title="" xlink:type="simple"><line style="stroke:#181818;stroke-width:1;" x1="191.2852" x2="238.2852" y1="1548.8594" y2="1548.8594"/><line style="stroke:#181818;stroke-width:1;" x1="238.2852" x2="238.2852" y1="1548.8594" y2="1561.8594"/><line style="stroke:#181818;stroke-width:1;" x1="197.2852" x2="238.2852" y1="1561.8594" y2="1561.8594"/><polygon fill="#181818" points="207.2852,1557.8594,197.2852,1561.8594,207.2852,1565.8594,203.2852,1561.8594" style="stroke:#181818;stroke-width:1;"/><text fill="#000000" font-family="sans-serif" font-size="13" lengthAdjust="spacing" textLength="113.877" x="203.2852" y="1543.7935">render_diagram()</text></a><path d="M50,1581.8594 L142.3789,1581.8594 L142.3789,1588.9922 L132.3789,1598.9922 L50,1598.9922 L50,1581.8594 " fill="#EEEEEE" style="stroke:#000000;stroke-width:1.5;"/><rect fill="transparent" height="31.9375" style="stroke:#000000;stroke-width:1.5;" width="349.6899" x="50" y="1581.8594"/><text fill="#000000" font-family="sans-serif" font-size="13" font-weight="bold" lengthAdjust="spacing" textLength="47.3789" x="65" y="1594.9263">switch</text><line style="stroke:#000000;stroke-width:1;stroke-dasharray:2.0,2.0;" x1="50" x2="399.6899" y1="1599.9922" y2="1599.9922"/><text fill="#000000" font-family="sans-serif" font-size="11" font-weight="bold" lengthAdjust="spacing" textLength="344.6899" x="55" y="1610.2026">[clanguml::common::enum generator_type_t::plantuml]</text><line style="stroke:#000000;stroke-width:1;stroke-dasharray:2.0,2.0;" x1="10" x2="2962.7539" y1="1635.7969" y2="1635.7969"/><text fill="#000000" font-family="sans-serif" font-size="11" font-weight="bold" lengthAdjust="spacing" textLength="269.1992" x="15" y="1646.0073">[diagram-&gt;type() == diagram_t::kPackage]</text><line style="stroke:#000000;stroke-width:1;stroke-dasharray:2.0,2.0;" x1="10" x2="2962.7539" y1="1650.6016" y2="1650.6016"/><text fill="#000000" font-family="sans-serif" font-size="11" font-weight="bold" lengthAdjust="spacing" textLength="262.5015" x="15" y="1660.812">[diagram-&gt;type() == diagram_t::kInclude]</text><!--SRC=[xLXTRvim57tdLrXzQJib518W2KhpqeTgKYjLchgNg48kEE0LR6QRRDEq_puJ0kJ39AJ9ggtQMsBVUttFkSVNDWAB686761BnU7y7EFgQ8U8Z460OCfY04174eA1iQqfB8HFOnwbq1MUS-LS-JH9AhYeNll9Jz_qp03cuyGp360tiqS3iMOEXuzYECpA6fZRjJXedWLlcWRpbwXUN6lG5dikXvfWm5cMstOduaQABIt1zNGvvmdLVRcB8kOPYZlPPVbhYrngpt8LWEltvw-b90SJ3IHgFVKfcE7JTakHoTj8Avs6LYAf2cBRXz2pRwOrio-dBq8Ozt0jFvRGDRxo9n7KJ6g3OTPV_EqsGEzkUSyonJDrr1OEwhgypqWX2cMXtHv6q0EsFd6kAPKJW17a513rbc0XlncYYQOW4pIQ25WOnfUc6nSAfAfANIp0NuFf8hiCqtwfP4fzQXXp5o1TUjM2Z93k5k5otbbITLUs_LQVNAhSCNO-jADWm3SEo-aRFCVgZlZKSMRQndnc5KyqCJPS4ZCS7I7HTtDlRLfNd6lXThAwC7f5JJPhX6ERG7Deo9TkIekxtUZd-QX59XDP8L4bYGv1rUSasAXFcOeCDXUz-DaxBWTI7DUYPZZqm1nATxLX3DGSgd2jRJ1MauA38ie41XQVM6BAxW_FDfjKS-TL05Xo-0nnP6kGTJy8GwBiu0D19KckrNpoHtySEs3LlBD68K3bDvuWrHtV1XqO9TASH3W94dhgJezZUj55Hiv6gokHsINjz0GumGtbanBLdDACC0PW9MjKd00lr496Vuo1VuLI5hqxGEeC3PB2uKQpaVfmi49c_W-r- -3x_SqZoMryRpPv8JDKZgRM0tc93mPcGll_4VehsOwtxd69oiy-zbl8JaP4W0UNP1_yVBASuM5eNJdbzFk01gdmrA51inLbypsZpclp2AMbldI2MG1oqTv1DA8t-jhVgCgdQtMltLcr5lEppsqhUChkXHCuBK3OfG1aeoPNT4HA04nWYa75CGf23W39mokWS1x9dOW94XCfn46E2DCZ2B96DbDUTLF4TWib9n4fw-965MO_MwbDLo6YM0luD2pygTEHB3iB58xSi5Y9PiklBX_8qRQf6QziMdm0VeFyYozBAzYFnuon0hTVNpc-hCr6o4nMyT2NU3f1QuPWIOEYERchdTtUVxwknnsTPuQomhWRDaMxg9hWmiyMiUVaR]--></g></svg>