<svg xmlns="http://www.w3.org/2000/svg" xmlns:xlink="http://www.w3.org/1999/xlink" contentStyleType="text/css" data-diagram-type="CLASS" height="406px" preserveAspectRatio="none" style="width:765px;height:406px;background:#FFFFFF;" version="1.1" viewBox="0 0 765 406" width="765px" zoomAndPan="magnify"><title>Diagram type class hierarchy</title><defs/><g><text fill="#000000" font-family="sans-serif" font-size="14" font-weight="bold" lengthAdjust="spacing" textLength="230.9043" x="260.0479" y="22.9951">Diagram type class hierarchy</text><!--cluster C_0002532840279361781187--><g id="cluster_C_0002532840279361781187"><path d="M299.5,43.2969 L367.1777,43.2969 A3.75,3.75 0 0 1 369.6777,45.7969 L376.6777,65.5938 L464.5,65.5938 A2.5,2.5 0 0 1 467,68.0938 L467,206.7969 A2.5,2.5 0 0 1 464.5,209.2969 L299.5,209.2969 A2.5,2.5 0 0 1 297,206.7969 L297,45.7969 A2.5,2.5 0 0 1 299.5,43.2969 " fill="transparent" style="stroke:#000000;stroke-width:1.5;"/><line style="stroke:#000000;stroke-width:1.5;" x1="297" x2="376.6777" y1="65.5938" y2="65.5938"/><text fill="#000000" font-family="sans-serif" font-size="14" font-weight="bold" lengthAdjust="spacing" textLength="66.6777" x="301" y="58.292">common</text></g><!--cluster C_0000669774451444102653--><g id="cluster_C_0000669774451444102653"><path d="M323.5,86.2969 L373.0215,86.2969 A3.75,3.75 0 0 1 375.5215,88.7969 L382.5215,108.5938 L440.5,108.5938 A2.5,2.5 0 0 1 443,111.0938 L443,182.7969 A2.5,2.5 0 0 1 440.5,185.2969 L323.5,185.2969 A2.5,2.5 0 0 1 321,182.7969 L321,88.7969 A2.5,2.5 0 0 1 323.5,86.2969 " fill="transparent" style="stroke:#000000;stroke-width:1.5;"/><line style="stroke:#000000;stroke-width:1.5;" x1="321" x2="382.5215" y1="108.5938" y2="108.5938"/><text fill="#000000" font-family="sans-serif" font-size="14" font-weight="bold" lengthAdjust="spacing" textLength="48.5215" x="325" y="101.292">model</text></g><!--cluster C_0017921336289613804855--><g id="cluster_C_0017921336289613804855"><path d="M8.5,233.2969 L120.9395,233.2969 A3.75,3.75 0 0 1 123.4395,235.7969 L130.4395,255.5938 L173.5,255.5938 A2.5,2.5 0 0 1 176,258.0938 L176,396.7969 A2.5,2.5 0 0 1 173.5,399.2969 L8.5,399.2969 A2.5,2.5 0 0 1 6,396.7969 L6,235.7969 A2.5,2.5 0 0 1 8.5,233.2969 " fill="transparent" style="stroke:#000000;stroke-width:1.5;"/><line style="stroke:#000000;stroke-width:1.5;" x1="6" x2="130.4395" y1="255.5938" y2="255.5938"/><text fill="#000000" font-family="sans-serif" font-size="14" font-weight="bold" lengthAdjust="spacing" textLength="111.4395" x="10" y="248.292">class_diagram</text></g><!--cluster C_0007176993879715460962--><g id="cluster_C_0007176993879715460962"><path d="M32.5,276.2969 L82.0215,276.2969 A3.75,3.75 0 0 1 84.5215,278.7969 L91.5215,298.5938 L149.5,298.5938 A2.5,2.5 0 0 1 152,301.0938 L152,372.7969 A2.5,2.5 0 0 1 149.5,375.2969 L32.5,375.2969 A2.5,2.5 0 0 1 30,372.7969 L30,278.7969 A2.5,2.5 0 0 1 32.5,276.2969 " fill="transparent" style="stroke:#000000;stroke-width:1.5;"/><line style="stroke:#000000;stroke-width:1.5;" x1="30" x2="91.5215" y1="298.5938" y2="298.5938"/><text fill="#000000" font-family="sans-serif" font-size="14" font-weight="bold" lengthAdjust="spacing" textLength="48.5215" x="34" y="291.292">model</text></g><!--cluster C_0018317418947569564933--><g id="cluster_C_0018317418947569564933"><path d="M202.5,233.2969 L333.0752,233.2969 A3.75,3.75 0 0 1 335.5752,235.7969 L342.5752,255.5938 L367.5,255.5938 A2.5,2.5 0 0 1 370,258.0938 L370,396.7969 A2.5,2.5 0 0 1 367.5,399.2969 L202.5,399.2969 A2.5,2.5 0 0 1 200,396.7969 L200,235.7969 A2.5,2.5 0 0 1 202.5,233.2969 " fill="transparent" style="stroke:#000000;stroke-width:1.5;"/><line style="stroke:#000000;stroke-width:1.5;" x1="200" x2="342.5752" y1="255.5938" y2="255.5938"/><text fill="#000000" font-family="sans-serif" font-size="14" font-weight="bold" lengthAdjust="spacing" textLength="129.5752" x="204" y="248.292">include_diagram</text></g><!--cluster C_0004362631048833985714--><g id="cluster_C_0004362631048833985714"><path d="M226.5,276.2969 L276.0215,276.2969 A3.75,3.75 0 0 1 278.5215,278.7969 L285.5215,298.5938 L343.5,298.5938 A2.5,2.5 0 0 1 346,301.0938 L346,372.7969 A2.5,2.5 0 0 1 343.5,375.2969 L226.5,375.2969 A2.5,2.5 0 0 1 224,372.7969 L224,278.7969 A2.5,2.5 0 0 1 226.5,276.2969 " fill="transparent" style="stroke:#000000;stroke-width:1.5;"/><line style="stroke:#000000;stroke-width:1.5;" x1="224" x2="285.5215" y1="298.5938" y2="298.5938"/><text fill="#000000" font-family="sans-serif" font-size="14" font-weight="bold" lengthAdjust="spacing" textLength="48.5215" x="228" y="291.292">model</text></g><!--cluster C_0012174902727661033893--><g id="cluster_C_0012174902727661033893"><path d="M396.5,233.2969 L544.8008,233.2969 A3.75,3.75 0 0 1 547.3008,235.7969 L554.3008,255.5938 L561.5,255.5938 A2.5,2.5 0 0 1 564,258.0938 L564,396.7969 A2.5,2.5 0 0 1 561.5,399.2969 L396.5,399.2969 A2.5,2.5 0 0 1 394,396.7969 L394,235.7969 A2.5,2.5 0 0 1 396.5,233.2969 " fill="transparent" style="stroke:#000000;stroke-width:1.5;"/><line style="stroke:#000000;stroke-width:1.5;" x1="394" x2="554.3008" y1="255.5938" y2="255.5938"/><text fill="#000000" font-family="sans-serif" font-size="14" font-weight="bold" lengthAdjust="spacing" textLength="147.3008" x="398" y="248.292">sequence_diagram</text></g><!--cluster C_0017655759046645114118--><g id="cluster_C_0017655759046645114118"><path d="M420.5,276.2969 L470.0215,276.2969 A3.75,3.75 0 0 1 472.5215,278.7969 L479.5215,298.5938 L537.5,298.5938 A2.5,2.5 0 0 1 540,301.0938 L540,372.7969 A2.5,2.5 0 0 1 537.5,375.2969 L420.5,375.2969 A2.5,2.5 0 0 1 418,372.7969 L418,278.7969 A2.5,2.5 0 0 1 420.5,276.2969 " fill="transparent" style="stroke:#000000;stroke-width:1.5;"/><line style="stroke:#000000;stroke-width:1.5;" x1="418" x2="479.5215" y1="298.5938" y2="298.5938"/><text fill="#000000" font-family="sans-serif" font-size="14" font-weight="bold" lengthAdjust="spacing" textLength="48.5215" x="422" y="291.292">model</text></g><!--cluster C_0009413724933622552589--><g id="cluster_C_0009413724933622552589"><path d="M590.5,233.2969 L729.7705,233.2969 A3.75,3.75 0 0 1 732.2705,235.7969 L739.2705,255.5938 L755.5,255.5938 A2.5,2.5 0 0 1 758,258.0938 L758,396.7969 A2.5,2.5 0 0 1 755.5,399.2969 L590.5,399.2969 A2.5,2.5 0 0 1 588,396.7969 L588,235.7969 A2.5,2.5 0 0 1 590.5,233.2969 " fill="transparent" style="stroke:#000000;stroke-width:1.5;"/><line style="stroke:#000000;stroke-width:1.5;" x1="588" x2="739.2705" y1="255.5938" y2="255.5938"/><text fill="#000000" font-family="sans-serif" font-size="14" font-weight="bold" lengthAdjust="spacing" textLength="138.2705" x="592" y="248.292">package_diagram</text></g><!--cluster C_0012558484942253952660--><g id="cluster_C_0012558484942253952660"><path d="M614.5,276.2969 L664.0215,276.2969 A3.75,3.75 0 0 1 666.5215,278.7969 L673.5215,298.5938 L731.5,298.5938 A2.5,2.5 0 0 1 734,301.0938 L734,372.7969 A2.5,2.5 0 0 1 731.5,375.2969 L614.5,375.2969 A2.5,2.5 0 0 1 612,372.7969 L612,278.7969 A2.5,2.5 0 0 1 614.5,276.2969 " fill="transparent" style="stroke:#000000;stroke-width:1.5;"/><line style="stroke:#000000;stroke-width:1.5;" x1="612" x2="673.5215" y1="298.5938" y2="298.5938"/><text fill="#000000" font-family="sans-serif" font-size="14" font-weight="bold" lengthAdjust="spacing" textLength="48.5215" x="616" y="291.292">model</text></g><!--class C_0001576551882566686996--><a href="classclanguml_1_1common_1_1model_1_1diagram.html" target="_top" title="Base class for all diagram models" xlink:actuate="onRequest" xlink:href="classclanguml_1_1common_1_1model_1_1diagram.html" xlink:show="new" xlink:title="Base class for all diagram models" xlink:type="simple"><g id="elem_C_0001576551882566686996"><rect codeLine="5" fill="#F1F1F1" height="48" id="C_0001576551882566686996" rx="2.5" ry="2.5" style="stroke:#181818;stroke-width:0.5;" width="90.2148" x="337" y="121.2969"/><ellipse cx="352" cy="137.2969" fill="#ADD1B2" rx="11" ry="11" style="stroke:#181818;stroke-width:1;"/><path d="M354.9688,142.9375 Q354.3906,143.2344 353.75,143.375 Q353.1094,143.5313 352.4063,143.5313 Q349.9063,143.5313 348.5781,141.8906 Q347.2656,140.2344 347.2656,137.1094 Q347.2656,133.9844 348.5781,132.3281 Q349.9063,130.6719 352.4063,130.6719 Q353.1094,130.6719 353.75,130.8281 Q354.4063,130.9844 354.9688,131.2813 L354.9688,134 Q354.3438,133.4219 353.75,133.1563 Q353.1563,132.875 352.5313,132.875 Q351.1875,132.875 350.5,133.9531 Q349.8125,135.0156 349.8125,137.1094 Q349.8125,139.2031 350.5,140.2813 Q351.1875,141.3438 352.5313,141.3438 Q353.1563,141.3438 353.75,141.0781 Q354.3438,140.7969 354.9688,140.2188 L354.9688,142.9375 Z " fill="#000000"/><text fill="#000000" font-family="sans-serif" font-size="14" lengthAdjust="spacing" textLength="58.2148" x="366" y="142.1436">diagram</text><line style="stroke:#181818;stroke-width:0.5;" x1="338" x2="426.2148" y1="153.2969" y2="153.2969"/><line style="stroke:#181818;stroke-width:0.5;" x1="338" x2="426.2148" y1="161.2969" y2="161.2969"/></g></a><!--class C_0007315456613526221498--><a href="classclanguml_1_1class__diagram_1_1model_1_1diagram.html" target="_top" title="Class representing a class diagram." xlink:actuate="onRequest" xlink:href="classclanguml_1_1class__diagram_1_1model_1_1diagram.html" xlink:show="new" xlink:title="Class representing a class diagram." xlink:type="simple"><g id="elem_C_0007315456613526221498"><rect codeLine="13" fill="#F1F1F1" height="48" id="C_0007315456613526221498" rx="2.5" ry="2.5" style="stroke:#181818;stroke-width:0.5;" width="90.2148" x="46" y="311.2969"/><ellipse cx="61" cy="327.2969" fill="#ADD1B2" rx="11" ry="11" style="stroke:#181818;stroke-width:1;"/><path d="M63.9688,332.9375 Q63.3906,333.2344 62.75,333.375 Q62.1094,333.5313 61.4063,333.5313 Q58.9063,333.5313 57.5781,331.8906 Q56.2656,330.2344 56.2656,327.1094 Q56.2656,323.9844 57.5781,322.3281 Q58.9063,320.6719 61.4063,320.6719 Q62.1094,320.6719 62.75,320.8281 Q63.4063,320.9844 63.9688,321.2813 L63.9688,324 Q63.3438,323.4219 62.75,323.1563 Q62.1563,322.875 61.5313,322.875 Q60.1875,322.875 59.5,323.9531 Q58.8125,325.0156 58.8125,327.1094 Q58.8125,329.2031 59.5,330.2813 Q60.1875,331.3438 61.5313,331.3438 Q62.1563,331.3438 62.75,331.0781 Q63.3438,330.7969 63.9688,330.2188 L63.9688,332.9375 Z " fill="#000000"/><text fill="#000000" font-family="sans-serif" font-size="14" lengthAdjust="spacing" textLength="58.2148" x="75" y="332.1436">diagram</text><line style="stroke:#181818;stroke-width:0.5;" x1="47" x2="135.2148" y1="343.2969" y2="343.2969"/><line style="stroke:#181818;stroke-width:0.5;" x1="47" x2="135.2148" y1="351.2969" y2="351.2969"/></g></a><!--class C_0002467043186855586999--><a href="classclanguml_1_1include__diagram_1_1model_1_1diagram.html" target="_top" title="Class representing an include diagram model." xlink:actuate="onRequest" xlink:href="classclanguml_1_1include__diagram_1_1model_1_1diagram.html" xlink:show="new" xlink:title="Class representing an include diagram model." xlink:type="simple"><g id="elem_C_0002467043186855586999"><rect codeLine="21" fill="#F1F1F1" height="48" id="C_0002467043186855586999" rx="2.5" ry="2.5" style="stroke:#181818;stroke-width:0.5;" width="90.2148" x="240" y="311.2969"/><ellipse cx="255" cy="327.2969" fill="#ADD1B2" rx="11" ry="11" style="stroke:#181818;stroke-width:1;"/><path d="M257.9688,332.9375 Q257.3906,333.2344 256.75,333.375 Q256.1094,333.5313 255.4063,333.5313 Q252.9063,333.5313 251.5781,331.8906 Q250.2656,330.2344 250.2656,327.1094 Q250.2656,323.9844 251.5781,322.3281 Q252.9063,320.6719 255.4063,320.6719 Q256.1094,320.6719 256.75,320.8281 Q257.4063,320.9844 257.9688,321.2813 L257.9688,324 Q257.3438,323.4219 256.75,323.1563 Q256.1563,322.875 255.5313,322.875 Q254.1875,322.875 253.5,323.9531 Q252.8125,325.0156 252.8125,327.1094 Q252.8125,329.2031 253.5,330.2813 Q254.1875,331.3438 255.5313,331.3438 Q256.1563,331.3438 256.75,331.0781 Q257.3438,330.7969 257.9688,330.2188 L257.9688,332.9375 Z " fill="#000000"/><text fill="#000000" font-family="sans-serif" font-size="14" lengthAdjust="spacing" textLength="58.2148" x="269" y="332.1436">diagram</text><line style="stroke:#181818;stroke-width:0.5;" x1="241" x2="329.2148" y1="343.2969" y2="343.2969"/><line style="stroke:#181818;stroke-width:0.5;" x1="241" x2="329.2148" y1="351.2969" y2="351.2969"/></g></a><!--class C_0007392356576284087808--><a href="classclanguml_1_1sequence__diagram_1_1model_1_1diagram.html" target="_top" title="Model of a sequence diagram" xlink:actuate="onRequest" xlink:href="classclanguml_1_1sequence__diagram_1_1model_1_1diagram.html" xlink:show="new" xlink:title="Model of a sequence diagram" xlink:type="simple"><g id="elem_C_0007392356576284087808"><rect codeLine="29" fill="#F1F1F1" height="48" id="C_0007392356576284087808" rx="2.5" ry="2.5" style="stroke:#181818;stroke-width:0.5;" width="90.2148" x="434" y="311.2969"/><ellipse cx="449" cy="327.2969" fill="#ADD1B2" rx="11" ry="11" style="stroke:#181818;stroke-width:1;"/><path d="M451.9688,332.9375 Q451.3906,333.2344 450.75,333.375 Q450.1094,333.5313 449.4063,333.5313 Q446.9063,333.5313 445.5781,331.8906 Q444.2656,330.2344 444.2656,327.1094 Q444.2656,323.9844 445.5781,322.3281 Q446.9063,320.6719 449.4063,320.6719 Q450.1094,320.6719 450.75,320.8281 Q451.4063,320.9844 451.9688,321.2813 L451.9688,324 Q451.3438,323.4219 450.75,323.1563 Q450.1563,322.875 449.5313,322.875 Q448.1875,322.875 447.5,323.9531 Q446.8125,325.0156 446.8125,327.1094 Q446.8125,329.2031 447.5,330.2813 Q448.1875,331.3438 449.5313,331.3438 Q450.1563,331.3438 450.75,331.0781 Q451.3438,330.7969 451.9688,330.2188 L451.9688,332.9375 Z " fill="#000000"/><text fill="#000000" font-family="sans-serif" font-size="14" lengthAdjust="spacing" textLength="58.2148" x="463" y="332.1436">diagram</text><line style="stroke:#181818;stroke-width:0.5;" x1="435" x2="523.2148" y1="343.2969" y2="343.2969"/><line style="stroke:#181818;stroke-width:0.5;" x1="435" x2="523.2148" y1="351.2969" y2="351.2969"/></g></a><!--class C_0001188296008369339829--><a href="classclanguml_1_1package__diagram_1_1model_1_1diagram.html" target="_top" title="Package diagram model." xlink:actuate="onRequest" xlink:href="classclanguml_1_1package__diagram_1_1model_1_1diagram.html" xlink:show="new" xlink:title="Package diagram model." xlink:type="simple"><g id="elem_C_0001188296008369339829"><rect codeLine="37" fill="#F1F1F1" height="48" id="C_0001188296008369339829" rx="2.5" ry="2.5" style="stroke:#181818;stroke-width:0.5;" width="90.2148" x="628" y="311.2969"/><ellipse cx="643" cy="327.2969" fill="#ADD1B2" rx="11" ry="11" style="stroke:#181818;stroke-width:1;"/><path d="M645.9688,332.9375 Q645.3906,333.2344 644.75,333.375 Q644.1094,333.5313 643.4063,333.5313 Q640.9063,333.5313 639.5781,331.8906 Q638.2656,330.2344 638.2656,327.1094 Q638.2656,323.9844 639.5781,322.3281 Q640.9063,320.6719 643.4063,320.6719 Q644.1094,320.6719 644.75,320.8281 Q645.4063,320.9844 645.9688,321.2813 L645.9688,324 Q645.3438,323.4219 644.75,323.1563 Q644.1563,322.875 643.5313,322.875 Q642.1875,322.875 641.5,323.9531 Q640.8125,325.0156 640.8125,327.1094 Q640.8125,329.2031 641.5,330.2813 Q642.1875,331.3438 643.5313,331.3438 Q644.1563,331.3438 644.75,331.0781 Q645.3438,330.7969 645.9688,330.2188 L645.9688,332.9375 Z " fill="#000000"/><text fill="#000000" font-family="sans-serif" font-size="14" lengthAdjust="spacing" textLength="58.2148" x="657" y="332.1436">diagram</text><line style="stroke:#181818;stroke-width:0.5;" x1="629" x2="717.2148" y1="343.2969" y2="343.2969"/><line style="stroke:#181818;stroke-width:0.5;" x1="629" x2="717.2148" y1="351.2969" y2="351.2969"/></g></a><!--reverse link C_0001576551882566686996 to C_0007315456613526221498--><g id="link_C_0001576551882566686996_C_0007315456613526221498"><path codeLine="42" d="M320.5542,172.963 C288.1242,187.603 260.29,201.7769 224,225.2969 C183.67,251.4369 141.46,287.8169 115.69,311.2069 " fill="transparent" id="C_0001576551882566686996-backto-C_0007315456613526221498" style="stroke:#181818;stroke-width:1;"/><polygon fill="transparent" points="336.96,165.5569,318.0855,167.4944,323.0229,178.4316,336.96,165.5569" style="stroke:#181818;stroke-width:1;"/></g><!--reverse link C_0001576551882566686996 to C_0002467043186855586999--><g id="link_C_0001576551882566686996_C_0002467043186855586999"><path codeLine="43" d="M361.8551,185.3424 C343.2351,221.4224 315.67,274.8569 296.99,311.0569 " fill="transparent" id="C_0001576551882566686996-backto-C_0002467043186855586999" style="stroke:#181818;stroke-width:1;"/><polygon fill="transparent" points="370.11,169.3469,356.5233,182.5908,367.1869,188.094,370.11,169.3469" style="stroke:#181818;stroke-width:1;"/></g><!--reverse link C_0001576551882566686996 to C_0007392356576284087808--><g id="link_C_0001576551882566686996_C_0007392356576284087808"><path codeLine="44" d="M402.1449,185.3424 C420.7649,221.4224 448.33,274.8569 467.01,311.0569 " fill="transparent" id="C_0001576551882566686996-backto-C_0007392356576284087808" style="stroke:#181818;stroke-width:1;"/><polygon fill="transparent" points="393.89,169.3469,396.8131,188.094,407.4767,182.5908,393.89,169.3469" style="stroke:#181818;stroke-width:1;"/></g><!--reverse link C_0001576551882566686996 to C_0001188296008369339829--><g id="link_C_0001576551882566686996_C_0001188296008369339829"><path codeLine="45" d="M443.4458,172.963 C475.8758,187.603 503.71,201.7769 540,225.2969 C580.33,251.4369 622.54,287.8169 648.31,311.2069 " fill="transparent" id="C_0001576551882566686996-backto-C_0001188296008369339829" style="stroke:#181818;stroke-width:1;"/><polygon fill="transparent" points="427.04,165.5569,440.9771,178.4316,445.9145,167.4944,427.04,165.5569" style="stroke:#181818;stroke-width:1;"/></g><!--SRC=[dPLRQzj048NV_IkMlAI5skpiPNO7-jGK-f90NzeNOuGYRsnHNLnTMaAQ_zwLBCb9BIcc6CoYEUCz-_dCgeghnB7FSRWhmfHLZmV7eYGiIxQFNH4MqVvnSGYZ7-7EiNMKfscURLXOifk0Sowq55PnOKWY60jW3NiwoTDywvAJcYEICKffK4e15wYbLnytkzeU3LmDQj06jGPhXKP4YqJOQQVARBrk1VuhszLf4a00HyVDgZNJBBgTLligJPu-XML_teUyO66IiAxEseRoURFn9eDWyTn-JYYQdg3J3cS4GmAaH649GLgkhDOpH0mORrnQGmQqGauePeWOwKN-j22rG250aNr9PAGyIgGrtZkV9dFJ_dBX3eKhNLR5sOw57QbUDyKcpgAathfpEbQ2KM196OsaKP6KCtIKvuWIF4Gh9LbjGCtG4GgDRm6Bdhbk0a4lwOoKn-Zqrl-FJyQw_jSXcWHLkf-row8HKiA38ZzOmlW_b4jfQOOKDADWD765wASBb1_4sHoHa1hz03N3Qutb_-Jeh3n6Ql3-DggxvYdB7to0-guUq1IPRd46XfC2QKIJ79znhOMsD0F6AwooYfJNIl9pWNpkocck4qBEhKHg8YTUHMYaF0Qcj_usbw-TwzcmJDvs7_yibzCNmmLjOnDpqMxdyRcWRGpkulgBo_nRfd9RzZkkzgpbkFGWFx1VhYZZF6DyXIjOND_UVhyRddsxhxEgFgg7Xq0hM05x1tLRXVT_0G00]--></g></svg>