<svg xmlns="http://www.w3.org/2000/svg" xmlns:xlink="http://www.w3.org/1999/xlink" contentStyleType="text/css" data-diagram-type="CLASS" height="1535px" preserveAspectRatio="none" style="width:1408px;height:1535px;background:#FFFFFF;" version="1.1" viewBox="0 0 1408 1535" width="1408px" zoomAndPan="magnify"><title>Diagram filter visitor class hierarchy</title><defs/><g><text fill="#000000" font-family="sans-serif" font-size="14" font-weight="bold" lengthAdjust="spacing" textLength="289.4951" x="552.2524" y="22.9951">Diagram filter visitor class hierarchy</text><!--cluster C_0002532840279361781187--><g id="cluster_C_0002532840279361781187"><path d="M8.5,43.2969 L76.1777,43.2969 A3.75,3.75 0 0 1 78.6777,45.7969 L85.6777,65.5938 L1398.5,65.5938 A2.5,2.5 0 0 1 1401,68.0938 L1401,1525.7969 A2.5,2.5 0 0 1 1398.5,1528.2969 L8.5,1528.2969 A2.5,2.5 0 0 1 6,1525.7969 L6,45.7969 A2.5,2.5 0 0 1 8.5,43.2969 " fill="transparent" style="stroke:#000000;stroke-width:1.5;"/><line style="stroke:#000000;stroke-width:1.5;" x1="6" x2="85.6777" y1="65.5938" y2="65.5938"/><text fill="#000000" font-family="sans-serif" font-size="14" font-weight="bold" lengthAdjust="spacing" textLength="66.6777" x="10" y="58.292">common</text></g><!--cluster C_0000669774451444102653--><g id="cluster_C_0000669774451444102653"><path d="M32.5,86.2969 L82.0215,86.2969 A3.75,3.75 0 0 1 84.5215,88.7969 L91.5215,108.5938 L1374.5,108.5938 A2.5,2.5 0 0 1 1377,111.0938 L1377,1501.7969 A2.5,2.5 0 0 1 1374.5,1504.2969 L32.5,1504.2969 A2.5,2.5 0 0 1 30,1501.7969 L30,88.7969 A2.5,2.5 0 0 1 32.5,86.2969 " fill="transparent" style="stroke:#000000;stroke-width:1.5;"/><line style="stroke:#000000;stroke-width:1.5;" x1="30" x2="91.5215" y1="108.5938" y2="108.5938"/><text fill="#000000" font-family="sans-serif" font-size="14" font-weight="bold" lengthAdjust="spacing" textLength="48.5215" x="34" y="101.292">model</text></g><!--class C_0003755664421485538512--><a href="classclanguml_1_1common_1_1model_1_1filter__visitor.html" target="_top" title="Base class for any diagram filter." xlink:actuate="onRequest" xlink:href="classclanguml_1_1common_1_1model_1_1filter__visitor.html" xlink:show="new" xlink:title="Base class for any diagram filter." xlink:type="simple"><g id="elem_C_0003755664421485538512"><rect codeLine="6" fill="#F1F1F1" height="48" id="C_0003755664421485538512" rx="2.5" ry="2.5" style="stroke:#181818;stroke-width:0.5;" width="114.7354" x="46" y="781.2969"/><ellipse cx="61" cy="797.2969" fill="#ADD1B2" rx="11" ry="11" style="stroke:#181818;stroke-width:1;"/><path d="M63.9688,802.9375 Q63.3906,803.2344 62.75,803.375 Q62.1094,803.5313 61.4063,803.5313 Q58.9063,803.5313 57.5781,801.8906 Q56.2656,800.2344 56.2656,797.1094 Q56.2656,793.9844 57.5781,792.3281 Q58.9063,790.6719 61.4063,790.6719 Q62.1094,790.6719 62.75,790.8281 Q63.4063,790.9844 63.9688,791.2813 L63.9688,794 Q63.3438,793.4219 62.75,793.1563 Q62.1563,792.875 61.5313,792.875 Q60.1875,792.875 59.5,793.9531 Q58.8125,795.0156 58.8125,797.1094 Q58.8125,799.2031 59.5,800.2813 Q60.1875,801.3438 61.5313,801.3438 Q62.1563,801.3438 62.75,801.0781 Q63.3438,800.7969 63.9688,800.2188 L63.9688,802.9375 Z " fill="#000000"/><text fill="#000000" font-family="sans-serif" font-size="14" lengthAdjust="spacing" textLength="82.7354" x="75" y="802.1436">filter_visitor</text><line style="stroke:#181818;stroke-width:0.5;" x1="47" x2="159.7354" y1="813.2969" y2="813.2969"/><line style="stroke:#181818;stroke-width:0.5;" x1="47" x2="159.7354" y1="821.2969" y2="821.2969"/></g></a><!--class C_0004846633653196508605--><a href="structclanguml_1_1common_1_1model_1_1anyof__filter.html" target="_top" title="anyof_filter" xlink:actuate="onRequest" xlink:href="structclanguml_1_1common_1_1model_1_1anyof__filter.html" xlink:show="new" xlink:title="anyof_filter" xlink:type="simple"><g id="elem_C_0004846633653196508605"><rect codeLine="10" fill="#F1F1F1" height="48" id="C_0004846633653196508605" rx="2.5" ry="2.5" style="stroke:#181818;stroke-width:0.5;" width="110.7979" x="581" y="822.2969"/><ellipse cx="596" cy="838.2969" fill="#ADD1B2" rx="11" ry="11" style="stroke:#181818;stroke-width:1;"/><path d="M598.9688,843.9375 Q598.3906,844.2344 597.75,844.375 Q597.1094,844.5313 596.4063,844.5313 Q593.9063,844.5313 592.5781,842.8906 Q591.2656,841.2344 591.2656,838.1094 Q591.2656,834.9844 592.5781,833.3281 Q593.9063,831.6719 596.4063,831.6719 Q597.1094,831.6719 597.75,831.8281 Q598.4063,831.9844 598.9688,832.2813 L598.9688,835 Q598.3438,834.4219 597.75,834.1563 Q597.1563,833.875 596.5313,833.875 Q595.1875,833.875 594.5,834.9531 Q593.8125,836.0156 593.8125,838.1094 Q593.8125,840.2031 594.5,841.2813 Q595.1875,842.3438 596.5313,842.3438 Q597.1563,842.3438 597.75,842.0781 Q598.3438,841.7969 598.9688,841.2188 L598.9688,843.9375 Z " fill="#000000"/><text fill="#000000" font-family="sans-serif" font-size="14" lengthAdjust="spacing" textLength="78.7979" x="610" y="843.1436">anyof_filter</text><line style="stroke:#181818;stroke-width:0.5;" x1="582" x2="690.7979" y1="854.2969" y2="854.2969"/><line style="stroke:#181818;stroke-width:0.5;" x1="582" x2="690.7979" y1="862.2969" y2="862.2969"/></g></a><!--class C_0008681673430919411882--><a href="structclanguml_1_1common_1_1model_1_1allof__filter.html" target="_top" title="allof_filter" xlink:actuate="onRequest" xlink:href="structclanguml_1_1common_1_1model_1_1allof__filter.html" xlink:show="new" xlink:title="allof_filter" xlink:type="simple"><g id="elem_C_0008681673430919411882"><rect codeLine="14" fill="#F1F1F1" height="48" id="C_0008681673430919411882" rx="2.5" ry="2.5" style="stroke:#181818;stroke-width:0.5;" width="101.4189" x="586" y="739.2969"/><ellipse cx="601" cy="755.2969" fill="#ADD1B2" rx="11" ry="11" style="stroke:#181818;stroke-width:1;"/><path d="M603.9688,760.9375 Q603.3906,761.2344 602.75,761.375 Q602.1094,761.5313 601.4063,761.5313 Q598.9063,761.5313 597.5781,759.8906 Q596.2656,758.2344 596.2656,755.1094 Q596.2656,751.9844 597.5781,750.3281 Q598.9063,748.6719 601.4063,748.6719 Q602.1094,748.6719 602.75,748.8281 Q603.4063,748.9844 603.9688,749.2813 L603.9688,752 Q603.3438,751.4219 602.75,751.1563 Q602.1563,750.875 601.5313,750.875 Q600.1875,750.875 599.5,751.9531 Q598.8125,753.0156 598.8125,755.1094 Q598.8125,757.2031 599.5,758.2813 Q600.1875,759.3438 601.5313,759.3438 Q602.1563,759.3438 602.75,759.0781 Q603.3438,758.7969 603.9688,758.2188 L603.9688,760.9375 Z " fill="#000000"/><text fill="#000000" font-family="sans-serif" font-size="14" lengthAdjust="spacing" textLength="69.4189" x="615" y="760.1436">allof_filter</text><line style="stroke:#181818;stroke-width:0.5;" x1="587" x2="686.4189" y1="771.2969" y2="771.2969"/><line style="stroke:#181818;stroke-width:0.5;" x1="587" x2="686.4189" y1="779.2969" y2="779.2969"/></g></a><!--class C_0014529922051766561513--><a href="structclanguml_1_1common_1_1model_1_1namespace__filter.html" target="_top" title="namespace_filter" xlink:actuate="onRequest" xlink:href="structclanguml_1_1common_1_1model_1_1namespace__filter.html" xlink:show="new" xlink:title="namespace_filter" xlink:type="simple"><g id="elem_C_0014529922051766561513"><rect codeLine="18" fill="#F1F1F1" height="48" id="C_0014529922051766561513" rx="2.5" ry="2.5" style="stroke:#181818;stroke-width:0.5;" width="152.3398" x="560.5" y="1440.2969"/><ellipse cx="575.5" cy="1456.2969" fill="#ADD1B2" rx="11" ry="11" style="stroke:#181818;stroke-width:1;"/><path d="M578.4688,1461.9375 Q577.8906,1462.2344 577.25,1462.375 Q576.6094,1462.5313 575.9063,1462.5313 Q573.4063,1462.5313 572.0781,1460.8906 Q570.7656,1459.2344 570.7656,1456.1094 Q570.7656,1452.9844 572.0781,1451.3281 Q573.4063,1449.6719 575.9063,1449.6719 Q576.6094,1449.6719 577.25,1449.8281 Q577.9063,1449.9844 578.4688,1450.2813 L578.4688,1453 Q577.8438,1452.4219 577.25,1452.1563 Q576.6563,1451.875 576.0313,1451.875 Q574.6875,1451.875 574,1452.9531 Q573.3125,1454.0156 573.3125,1456.1094 Q573.3125,1458.2031 574,1459.2813 Q574.6875,1460.3438 576.0313,1460.3438 Q576.6563,1460.3438 577.25,1460.0781 Q577.8438,1459.7969 578.4688,1459.2188 L578.4688,1461.9375 Z " fill="#000000"/><text fill="#000000" font-family="sans-serif" font-size="14" lengthAdjust="spacing" textLength="120.3398" x="589.5" y="1461.1436">namespace_filter</text><line style="stroke:#181818;stroke-width:0.5;" x1="561.5" x2="711.8398" y1="1472.2969" y2="1472.2969"/><line style="stroke:#181818;stroke-width:0.5;" x1="561.5" x2="711.8398" y1="1480.2969" y2="1480.2969"/></g></a><!--class C_0018235506892675596161--><a href="structclanguml_1_1common_1_1model_1_1modules__filter.html" target="_top" title="modules_filter" xlink:actuate="onRequest" xlink:href="structclanguml_1_1common_1_1model_1_1modules__filter.html" xlink:show="new" xlink:title="modules_filter" xlink:type="simple"><g id="elem_C_0018235506892675596161"><rect codeLine="22" fill="#F1F1F1" height="48" id="C_0018235506892675596161" rx="2.5" ry="2.5" style="stroke:#181818;stroke-width:0.5;" width="131.3262" x="571" y="1357.2969"/><ellipse cx="586" cy="1373.2969" fill="#ADD1B2" rx="11" ry="11" style="stroke:#181818;stroke-width:1;"/><path d="M588.9688,1378.9375 Q588.3906,1379.2344 587.75,1379.375 Q587.1094,1379.5313 586.4063,1379.5313 Q583.9063,1379.5313 582.5781,1377.8906 Q581.2656,1376.2344 581.2656,1373.1094 Q581.2656,1369.9844 582.5781,1368.3281 Q583.9063,1366.6719 586.4063,1366.6719 Q587.1094,1366.6719 587.75,1366.8281 Q588.4063,1366.9844 588.9688,1367.2813 L588.9688,1370 Q588.3438,1369.4219 587.75,1369.1563 Q587.1563,1368.875 586.5313,1368.875 Q585.1875,1368.875 584.5,1369.9531 Q583.8125,1371.0156 583.8125,1373.1094 Q583.8125,1375.2031 584.5,1376.2813 Q585.1875,1377.3438 586.5313,1377.3438 Q587.1563,1377.3438 587.75,1377.0781 Q588.3438,1376.7969 588.9688,1376.2188 L588.9688,1378.9375 Z " fill="#000000"/><text fill="#000000" font-family="sans-serif" font-size="14" lengthAdjust="spacing" textLength="99.3262" x="600" y="1378.1436">modules_filter</text><line style="stroke:#181818;stroke-width:0.5;" x1="572" x2="701.3262" y1="1389.2969" y2="1389.2969"/><line style="stroke:#181818;stroke-width:0.5;" x1="572" x2="701.3262" y1="1397.2969" y2="1397.2969"/></g></a><!--class C_0005522729892949283391--><a href="structclanguml_1_1common_1_1model_1_1element__filter.html" target="_top" title="element_filter" xlink:actuate="onRequest" xlink:href="structclanguml_1_1common_1_1model_1_1element__filter.html" xlink:show="new" xlink:title="element_filter" xlink:type="simple"><g id="elem_C_0005522729892949283391"><rect codeLine="26" fill="#F1F1F1" height="48" id="C_0005522729892949283391" rx="2.5" ry="2.5" style="stroke:#181818;stroke-width:0.5;" width="129.2959" x="572" y="1274.2969"/><ellipse cx="587" cy="1290.2969" fill="#ADD1B2" rx="11" ry="11" style="stroke:#181818;stroke-width:1;"/><path d="M589.9688,1295.9375 Q589.3906,1296.2344 588.75,1296.375 Q588.1094,1296.5313 587.4063,1296.5313 Q584.9063,1296.5313 583.5781,1294.8906 Q582.2656,1293.2344 582.2656,1290.1094 Q582.2656,1286.9844 583.5781,1285.3281 Q584.9063,1283.6719 587.4063,1283.6719 Q588.1094,1283.6719 588.75,1283.8281 Q589.4063,1283.9844 589.9688,1284.2813 L589.9688,1287 Q589.3438,1286.4219 588.75,1286.1563 Q588.1563,1285.875 587.5313,1285.875 Q586.1875,1285.875 585.5,1286.9531 Q584.8125,1288.0156 584.8125,1290.1094 Q584.8125,1292.2031 585.5,1293.2813 Q586.1875,1294.3438 587.5313,1294.3438 Q588.1563,1294.3438 588.75,1294.0781 Q589.3438,1293.7969 589.9688,1293.2188 L589.9688,1295.9375 Z " fill="#000000"/><text fill="#000000" font-family="sans-serif" font-size="14" lengthAdjust="spacing" textLength="97.2959" x="601" y="1295.1436">element_filter</text><line style="stroke:#181818;stroke-width:0.5;" x1="573" x2="700.2959" y1="1306.2969" y2="1306.2969"/><line style="stroke:#181818;stroke-width:0.5;" x1="573" x2="700.2959" y1="1314.2969" y2="1314.2969"/></g></a><!--class C_0016413347653743218402--><a href="structclanguml_1_1common_1_1model_1_1element__type__filter.html" target="_top" title="element_type_filter" xlink:actuate="onRequest" xlink:href="structclanguml_1_1common_1_1model_1_1element__type__filter.html" xlink:show="new" xlink:title="element_type_filter" xlink:type="simple"><g id="elem_C_0016413347653743218402"><rect codeLine="30" fill="#F1F1F1" height="48" id="C_0016413347653743218402" rx="2.5" ry="2.5" style="stroke:#181818;stroke-width:0.5;" width="167.5703" x="552.5" y="1191.2969"/><ellipse cx="567.5" cy="1207.2969" fill="#ADD1B2" rx="11" ry="11" style="stroke:#181818;stroke-width:1;"/><path d="M570.4688,1212.9375 Q569.8906,1213.2344 569.25,1213.375 Q568.6094,1213.5313 567.9063,1213.5313 Q565.4063,1213.5313 564.0781,1211.8906 Q562.7656,1210.2344 562.7656,1207.1094 Q562.7656,1203.9844 564.0781,1202.3281 Q565.4063,1200.6719 567.9063,1200.6719 Q568.6094,1200.6719 569.25,1200.8281 Q569.9063,1200.9844 570.4688,1201.2813 L570.4688,1204 Q569.8438,1203.4219 569.25,1203.1563 Q568.6563,1202.875 568.0313,1202.875 Q566.6875,1202.875 566,1203.9531 Q565.3125,1205.0156 565.3125,1207.1094 Q565.3125,1209.2031 566,1210.2813 Q566.6875,1211.3438 568.0313,1211.3438 Q568.6563,1211.3438 569.25,1211.0781 Q569.8438,1210.7969 570.4688,1210.2188 L570.4688,1212.9375 Z " fill="#000000"/><text fill="#000000" font-family="sans-serif" font-size="14" lengthAdjust="spacing" textLength="135.5703" x="581.5" y="1212.1436">element_type_filter</text><line style="stroke:#181818;stroke-width:0.5;" x1="553.5" x2="719.0703" y1="1223.2969" y2="1223.2969"/><line style="stroke:#181818;stroke-width:0.5;" x1="553.5" x2="719.0703" y1="1231.2969" y2="1231.2969"/></g></a><!--class C_0015178953694360295900--><a href="structclanguml_1_1common_1_1model_1_1method__type__filter.html" target="_top" title="method_type_filter" xlink:actuate="onRequest" xlink:href="structclanguml_1_1common_1_1model_1_1method__type__filter.html" xlink:show="new" xlink:title="method_type_filter" xlink:type="simple"><g id="elem_C_0015178953694360295900"><rect codeLine="34" fill="#F1F1F1" height="48" id="C_0015178953694360295900" rx="2.5" ry="2.5" style="stroke:#181818;stroke-width:0.5;" width="163.9063" x="1197" y="709.2969"/><ellipse cx="1212" cy="725.2969" fill="#ADD1B2" rx="11" ry="11" style="stroke:#181818;stroke-width:1;"/><path d="M1214.9688,730.9375 Q1214.3906,731.2344 1213.75,731.375 Q1213.1094,731.5313 1212.4063,731.5313 Q1209.9063,731.5313 1208.5781,729.8906 Q1207.2656,728.2344 1207.2656,725.1094 Q1207.2656,721.9844 1208.5781,720.3281 Q1209.9063,718.6719 1212.4063,718.6719 Q1213.1094,718.6719 1213.75,718.8281 Q1214.4063,718.9844 1214.9688,719.2813 L1214.9688,722 Q1214.3438,721.4219 1213.75,721.1563 Q1213.1563,720.875 1212.5313,720.875 Q1211.1875,720.875 1210.5,721.9531 Q1209.8125,723.0156 1209.8125,725.1094 Q1209.8125,727.2031 1210.5,728.2813 Q1211.1875,729.3438 1212.5313,729.3438 Q1213.1563,729.3438 1213.75,729.0781 Q1214.3438,728.7969 1214.9688,728.2188 L1214.9688,730.9375 Z " fill="#000000"/><text fill="#000000" font-family="sans-serif" font-size="14" lengthAdjust="spacing" textLength="131.9063" x="1226" y="730.1436">method_type_filter</text><line style="stroke:#181818;stroke-width:0.5;" x1="1198" x2="1359.9063" y1="741.2969" y2="741.2969"/><line style="stroke:#181818;stroke-width:0.5;" x1="1198" x2="1359.9063" y1="749.2969" y2="749.2969"/></g></a><!--class C_0009586729560943033114--><a href="structclanguml_1_1common_1_1model_1_1callee__filter.html" target="_top" title="callee_filter" xlink:actuate="onRequest" xlink:href="structclanguml_1_1common_1_1model_1_1callee__filter.html" xlink:show="new" xlink:title="callee_filter" xlink:type="simple"><g id="elem_C_0009586729560943033114"><rect codeLine="38" fill="#F1F1F1" height="48" id="C_0009586729560943033114" rx="2.5" ry="2.5" style="stroke:#181818;stroke-width:0.5;" width="112.8486" x="580" y="1071.2969"/><ellipse cx="595" cy="1087.2969" fill="#ADD1B2" rx="11" ry="11" style="stroke:#181818;stroke-width:1;"/><path d="M597.9688,1092.9375 Q597.3906,1093.2344 596.75,1093.375 Q596.1094,1093.5313 595.4063,1093.5313 Q592.9063,1093.5313 591.5781,1091.8906 Q590.2656,1090.2344 590.2656,1087.1094 Q590.2656,1083.9844 591.5781,1082.3281 Q592.9063,1080.6719 595.4063,1080.6719 Q596.1094,1080.6719 596.75,1080.8281 Q597.4063,1080.9844 597.9688,1081.2813 L597.9688,1084 Q597.3438,1083.4219 596.75,1083.1563 Q596.1563,1082.875 595.5313,1082.875 Q594.1875,1082.875 593.5,1083.9531 Q592.8125,1085.0156 592.8125,1087.1094 Q592.8125,1089.2031 593.5,1090.2813 Q594.1875,1091.3438 595.5313,1091.3438 Q596.1563,1091.3438 596.75,1091.0781 Q597.3438,1090.7969 597.9688,1090.2188 L597.9688,1092.9375 Z " fill="#000000"/><text fill="#000000" font-family="sans-serif" font-size="14" lengthAdjust="spacing" textLength="80.8486" x="609" y="1092.1436">callee_filter</text><line style="stroke:#181818;stroke-width:0.5;" x1="581" x2="691.8486" y1="1103.2969" y2="1103.2969"/><line style="stroke:#181818;stroke-width:0.5;" x1="581" x2="691.8486" y1="1111.2969" y2="1111.2969"/></g></a><!--class C_0011119356209474014086--><a href="structclanguml_1_1common_1_1model_1_1subclass__filter.html" target="_top" title="subclass_filter" xlink:actuate="onRequest" xlink:href="structclanguml_1_1common_1_1model_1_1subclass__filter.html" xlink:show="new" xlink:title="subclass_filter" xlink:type="simple"><g id="elem_C_0011119356209474014086"><rect codeLine="42" fill="#F1F1F1" height="48" id="C_0011119356209474014086" rx="2.5" ry="2.5" style="stroke:#181818;stroke-width:0.5;" width="131.374" x="571" y="988.2969"/><ellipse cx="586" cy="1004.2969" fill="#ADD1B2" rx="11" ry="11" style="stroke:#181818;stroke-width:1;"/><path d="M588.9688,1009.9375 Q588.3906,1010.2344 587.75,1010.375 Q587.1094,1010.5313 586.4063,1010.5313 Q583.9063,1010.5313 582.5781,1008.8906 Q581.2656,1007.2344 581.2656,1004.1094 Q581.2656,1000.9844 582.5781,999.3281 Q583.9063,997.6719 586.4063,997.6719 Q587.1094,997.6719 587.75,997.8281 Q588.4063,997.9844 588.9688,998.2813 L588.9688,1001 Q588.3438,1000.4219 587.75,1000.1563 Q587.1563,999.875 586.5313,999.875 Q585.1875,999.875 584.5,1000.9531 Q583.8125,1002.0156 583.8125,1004.1094 Q583.8125,1006.2031 584.5,1007.2813 Q585.1875,1008.3438 586.5313,1008.3438 Q587.1563,1008.3438 587.75,1008.0781 Q588.3438,1007.7969 588.9688,1007.2188 L588.9688,1009.9375 Z " fill="#000000"/><text fill="#000000" font-family="sans-serif" font-size="14" lengthAdjust="spacing" textLength="99.374" x="600" y="1009.1436">subclass_filter</text><line style="stroke:#181818;stroke-width:0.5;" x1="572" x2="701.374" y1="1020.2969" y2="1020.2969"/><line style="stroke:#181818;stroke-width:0.5;" x1="572" x2="701.374" y1="1028.2969" y2="1028.2969"/></g></a><!--class C_0014190027896959020338--><a href="structclanguml_1_1common_1_1model_1_1parents__filter.html" target="_top" title="parents_filter" xlink:actuate="onRequest" xlink:href="structclanguml_1_1common_1_1model_1_1parents__filter.html" xlink:show="new" xlink:title="parents_filter" xlink:type="simple"><g id="elem_C_0014190027896959020338"><rect codeLine="46" fill="#F1F1F1" height="48" id="C_0014190027896959020338" rx="2.5" ry="2.5" style="stroke:#181818;stroke-width:0.5;" width="125.0576" x="574" y="905.2969"/><ellipse cx="589" cy="921.2969" fill="#ADD1B2" rx="11" ry="11" style="stroke:#181818;stroke-width:1;"/><path d="M591.9688,926.9375 Q591.3906,927.2344 590.75,927.375 Q590.1094,927.5313 589.4063,927.5313 Q586.9063,927.5313 585.5781,925.8906 Q584.2656,924.2344 584.2656,921.1094 Q584.2656,917.9844 585.5781,916.3281 Q586.9063,914.6719 589.4063,914.6719 Q590.1094,914.6719 590.75,914.8281 Q591.4063,914.9844 591.9688,915.2813 L591.9688,918 Q591.3438,917.4219 590.75,917.1563 Q590.1563,916.875 589.5313,916.875 Q588.1875,916.875 587.5,917.9531 Q586.8125,919.0156 586.8125,921.1094 Q586.8125,923.2031 587.5,924.2813 Q588.1875,925.3438 589.5313,925.3438 Q590.1563,925.3438 590.75,925.0781 Q591.3438,924.7969 591.9688,924.2188 L591.9688,926.9375 Z " fill="#000000"/><text fill="#000000" font-family="sans-serif" font-size="14" lengthAdjust="spacing" textLength="93.0576" x="603" y="926.1436">parents_filter</text><line style="stroke:#181818;stroke-width:0.5;" x1="575" x2="698.0576" y1="937.2969" y2="937.2969"/><line style="stroke:#181818;stroke-width:0.5;" x1="575" x2="698.0576" y1="945.2969" y2="945.2969"/></g></a><!--class C_0011978821643502128904--><a href="structclanguml_1_1common_1_1model_1_1edge__traversal__filter.html" target="_top" title="Common template for filters involving traversing relationship graph." xlink:actuate="onRequest" xlink:href="structclanguml_1_1common_1_1model_1_1edge__traversal__filter.html" xlink:show="new" xlink:title="Common template for filters involving traversing relationship graph." xlink:type="simple"><g id="elem_C_0011978821643502128904"><rect codeLine="50" fill="#F1F1F1" height="48" id="C_0011978821643502128904" rx="2.5" ry="2.5" style="stroke:#181818;stroke-width:0.5;" width="717.4521" x="278" y="656.2969"/><ellipse cx="293" cy="672.2969" fill="#ADD1B2" rx="11" ry="11" style="stroke:#181818;stroke-width:1;"/><path d="M295.9688,677.9375 Q295.3906,678.2344 294.75,678.375 Q294.1094,678.5313 293.4063,678.5313 Q290.9063,678.5313 289.5781,676.8906 Q288.2656,675.2344 288.2656,672.1094 Q288.2656,668.9844 289.5781,667.3281 Q290.9063,665.6719 293.4063,665.6719 Q294.1094,665.6719 294.75,665.8281 Q295.4063,665.9844 295.9688,666.2813 L295.9688,669 Q295.3438,668.4219 294.75,668.1563 Q294.1563,667.875 293.5313,667.875 Q292.1875,667.875 291.5,668.9531 Q290.8125,670.0156 290.8125,672.1094 Q290.8125,674.2031 291.5,675.2813 Q292.1875,676.3438 293.5313,676.3438 Q294.1563,676.3438 294.75,676.0781 Q295.3438,675.7969 295.9688,675.2188 L295.9688,677.9375 Z " fill="#000000"/><text fill="#000000" font-family="sans-serif" font-size="14" lengthAdjust="spacing" textLength="143.8076" x="307" y="677.1436">edge_traversal_filter</text><rect fill="#FFFFFF" height="15.9688" style="stroke:#181818;stroke-width:1;stroke-dasharray:2.0,2.0;" width="539.6445" x="458.8076" y="653.2969"/><text fill="#000000" font-family="sans-serif" font-size="12" font-style="italic" lengthAdjust="spacing" textLength="537.6445" x="459.8076" y="665.4355">DiagramT,ElementT,ConfigEntryT=std::string,MatchOverrideT=common::model::element</text><line style="stroke:#181818;stroke-width:0.5;" x1="279" x2="994.4521" y1="688.2969" y2="688.2969"/><line style="stroke:#181818;stroke-width:0.5;" x1="279" x2="994.4521" y1="696.2969" y2="696.2969"/></g></a><!--class C_0009565704064810099821--><a href="structclanguml_1_1common_1_1model_1_1relationship__filter.html" target="_top" title="relationship_filter" xlink:actuate="onRequest" xlink:href="structclanguml_1_1common_1_1model_1_1relationship__filter.html" xlink:show="new" xlink:title="relationship_filter" xlink:type="simple"><g id="elem_C_0009565704064810099821"><rect codeLine="54" fill="#F1F1F1" height="48" id="C_0009565704064810099821" rx="2.5" ry="2.5" style="stroke:#181818;stroke-width:0.5;" width="154.165" x="559.5" y="573.2969"/><ellipse cx="574.5" cy="589.2969" fill="#ADD1B2" rx="11" ry="11" style="stroke:#181818;stroke-width:1;"/><path d="M577.4688,594.9375 Q576.8906,595.2344 576.25,595.375 Q575.6094,595.5313 574.9063,595.5313 Q572.4063,595.5313 571.0781,593.8906 Q569.7656,592.2344 569.7656,589.1094 Q569.7656,585.9844 571.0781,584.3281 Q572.4063,582.6719 574.9063,582.6719 Q575.6094,582.6719 576.25,582.8281 Q576.9063,582.9844 577.4688,583.2813 L577.4688,586 Q576.8438,585.4219 576.25,585.1563 Q575.6563,584.875 575.0313,584.875 Q573.6875,584.875 573,585.9531 Q572.3125,587.0156 572.3125,589.1094 Q572.3125,591.2031 573,592.2813 Q573.6875,593.3438 575.0313,593.3438 Q575.6563,593.3438 576.25,593.0781 Q576.8438,592.7969 577.4688,592.2188 L577.4688,594.9375 Z " fill="#000000"/><text fill="#000000" font-family="sans-serif" font-size="14" lengthAdjust="spacing" textLength="122.165" x="588.5" y="594.1436">relationship_filter</text><line style="stroke:#181818;stroke-width:0.5;" x1="560.5" x2="712.665" y1="605.2969" y2="605.2969"/><line style="stroke:#181818;stroke-width:0.5;" x1="560.5" x2="712.665" y1="613.2969" y2="613.2969"/></g></a><!--class C_0008785474747591996724--><a href="structclanguml_1_1common_1_1model_1_1access__filter.html" target="_top" title="access_filter" xlink:actuate="onRequest" xlink:href="structclanguml_1_1common_1_1model_1_1access__filter.html" xlink:show="new" xlink:title="access_filter" xlink:type="simple"><g id="elem_C_0008785474747591996724"><rect codeLine="58" fill="#F1F1F1" height="48" id="C_0008785474747591996724" rx="2.5" ry="2.5" style="stroke:#181818;stroke-width:0.5;" width="118.7412" x="1219.5" y="204.2969"/><ellipse cx="1234.5" cy="220.2969" fill="#ADD1B2" rx="11" ry="11" style="stroke:#181818;stroke-width:1;"/><path d="M1237.4688,225.9375 Q1236.8906,226.2344 1236.25,226.375 Q1235.6094,226.5313 1234.9063,226.5313 Q1232.4063,226.5313 1231.0781,224.8906 Q1229.7656,223.2344 1229.7656,220.1094 Q1229.7656,216.9844 1231.0781,215.3281 Q1232.4063,213.6719 1234.9063,213.6719 Q1235.6094,213.6719 1236.25,213.8281 Q1236.9063,213.9844 1237.4688,214.2813 L1237.4688,217 Q1236.8438,216.4219 1236.25,216.1563 Q1235.6563,215.875 1235.0313,215.875 Q1233.6875,215.875 1233,216.9531 Q1232.3125,218.0156 1232.3125,220.1094 Q1232.3125,222.2031 1233,223.2813 Q1233.6875,224.3438 1235.0313,224.3438 Q1235.6563,224.3438 1236.25,224.0781 Q1236.8438,223.7969 1237.4688,223.2188 L1237.4688,225.9375 Z " fill="#000000"/><text fill="#000000" font-family="sans-serif" font-size="14" lengthAdjust="spacing" textLength="86.7412" x="1248.5" y="225.1436">access_filter</text><line style="stroke:#181818;stroke-width:0.5;" x1="1220.5" x2="1337.2412" y1="236.2969" y2="236.2969"/><line style="stroke:#181818;stroke-width:0.5;" x1="1220.5" x2="1337.2412" y1="244.2969" y2="244.2969"/></g></a><!--class C_0015952402022523334996--><a href="structclanguml_1_1common_1_1model_1_1module__access__filter.html" target="_top" title="module_access_filter" xlink:actuate="onRequest" xlink:href="structclanguml_1_1common_1_1model_1_1module__access__filter.html" xlink:show="new" xlink:title="module_access_filter" xlink:type="simple"><g id="elem_C_0015952402022523334996"><rect codeLine="62" fill="#F1F1F1" height="48" id="C_0015952402022523334996" rx="2.5" ry="2.5" style="stroke:#181818;stroke-width:0.5;" width="178.207" x="547.5" y="453.2969"/><ellipse cx="562.5" cy="469.2969" fill="#ADD1B2" rx="11" ry="11" style="stroke:#181818;stroke-width:1;"/><path d="M565.4688,474.9375 Q564.8906,475.2344 564.25,475.375 Q563.6094,475.5313 562.9063,475.5313 Q560.4063,475.5313 559.0781,473.8906 Q557.7656,472.2344 557.7656,469.1094 Q557.7656,465.9844 559.0781,464.3281 Q560.4063,462.6719 562.9063,462.6719 Q563.6094,462.6719 564.25,462.8281 Q564.9063,462.9844 565.4688,463.2813 L565.4688,466 Q564.8438,465.4219 564.25,465.1563 Q563.6563,464.875 563.0313,464.875 Q561.6875,464.875 561,465.9531 Q560.3125,467.0156 560.3125,469.1094 Q560.3125,471.2031 561,472.2813 Q561.6875,473.3438 563.0313,473.3438 Q563.6563,473.3438 564.25,473.0781 Q564.8438,472.7969 565.4688,472.2188 L565.4688,474.9375 Z " fill="#000000"/><text fill="#000000" font-family="sans-serif" font-size="14" lengthAdjust="spacing" textLength="146.207" x="576.5" y="474.1436">module_access_filter</text><line style="stroke:#181818;stroke-width:0.5;" x1="548.5" x2="724.707" y1="485.2969" y2="485.2969"/><line style="stroke:#181818;stroke-width:0.5;" x1="548.5" x2="724.707" y1="493.2969" y2="493.2969"/></g></a><!--class C_0016629349577908476453--><a href="structclanguml_1_1common_1_1model_1_1context__filter.html" target="_top" title="context_filter" xlink:actuate="onRequest" xlink:href="structclanguml_1_1common_1_1model_1_1context__filter.html" xlink:show="new" xlink:title="context_filter" xlink:type="simple"><g id="elem_C_0016629349577908476453"><rect codeLine="66" fill="#F1F1F1" height="48" id="C_0016629349577908476453" rx="2.5" ry="2.5" style="stroke:#181818;stroke-width:0.5;" width="124.5791" x="574" y="370.2969"/><ellipse cx="589" cy="386.2969" fill="#ADD1B2" rx="11" ry="11" style="stroke:#181818;stroke-width:1;"/><path d="M591.9688,391.9375 Q591.3906,392.2344 590.75,392.375 Q590.1094,392.5313 589.4063,392.5313 Q586.9063,392.5313 585.5781,390.8906 Q584.2656,389.2344 584.2656,386.1094 Q584.2656,382.9844 585.5781,381.3281 Q586.9063,379.6719 589.4063,379.6719 Q590.1094,379.6719 590.75,379.8281 Q591.4063,379.9844 591.9688,380.2813 L591.9688,383 Q591.3438,382.4219 590.75,382.1563 Q590.1563,381.875 589.5313,381.875 Q588.1875,381.875 587.5,382.9531 Q586.8125,384.0156 586.8125,386.1094 Q586.8125,388.2031 587.5,389.2813 Q588.1875,390.3438 589.5313,390.3438 Q590.1563,390.3438 590.75,390.0781 Q591.3438,389.7969 591.9688,389.2188 L591.9688,391.9375 Z " fill="#000000"/><text fill="#000000" font-family="sans-serif" font-size="14" lengthAdjust="spacing" textLength="92.5791" x="603" y="391.1436">context_filter</text><line style="stroke:#181818;stroke-width:0.5;" x1="575" x2="697.5791" y1="402.2969" y2="402.2969"/><line style="stroke:#181818;stroke-width:0.5;" x1="575" x2="697.5791" y1="410.2969" y2="410.2969"/></g></a><!--class C_0006652291670129478083--><a href="structclanguml_1_1common_1_1model_1_1paths__filter.html" target="_top" title="paths_filter" xlink:actuate="onRequest" xlink:href="structclanguml_1_1common_1_1model_1_1paths__filter.html" xlink:show="new" xlink:title="paths_filter" xlink:type="simple"><g id="elem_C_0006652291670129478083"><rect codeLine="70" fill="#F1F1F1" height="48" id="C_0006652291670129478083" rx="2.5" ry="2.5" style="stroke:#181818;stroke-width:0.5;" width="110.6885" x="581" y="287.2969"/><ellipse cx="596" cy="303.2969" fill="#ADD1B2" rx="11" ry="11" style="stroke:#181818;stroke-width:1;"/><path d="M598.9688,308.9375 Q598.3906,309.2344 597.75,309.375 Q597.1094,309.5313 596.4063,309.5313 Q593.9063,309.5313 592.5781,307.8906 Q591.2656,306.2344 591.2656,303.1094 Q591.2656,299.9844 592.5781,298.3281 Q593.9063,296.6719 596.4063,296.6719 Q597.1094,296.6719 597.75,296.8281 Q598.4063,296.9844 598.9688,297.2813 L598.9688,300 Q598.3438,299.4219 597.75,299.1563 Q597.1563,298.875 596.5313,298.875 Q595.1875,298.875 594.5,299.9531 Q593.8125,301.0156 593.8125,303.1094 Q593.8125,305.2031 594.5,306.2813 Q595.1875,307.3438 596.5313,307.3438 Q597.1563,307.3438 597.75,307.0781 Q598.3438,306.7969 598.9688,306.2188 L598.9688,308.9375 Z " fill="#000000"/><text fill="#000000" font-family="sans-serif" font-size="14" lengthAdjust="spacing" textLength="78.6885" x="610" y="308.1436">paths_filter</text><line style="stroke:#181818;stroke-width:0.5;" x1="582" x2="690.6885" y1="319.2969" y2="319.2969"/><line style="stroke:#181818;stroke-width:0.5;" x1="582" x2="690.6885" y1="327.2969" y2="327.2969"/></g></a><!--class C_0012630714920699568214--><a href="structclanguml_1_1common_1_1model_1_1class__method__filter.html" target="_top" title="class_method_filter" xlink:actuate="onRequest" xlink:href="structclanguml_1_1common_1_1model_1_1class__method__filter.html" xlink:show="new" xlink:title="class_method_filter" xlink:type="simple"><g id="elem_C_0012630714920699568214"><rect codeLine="74" fill="#F1F1F1" height="48" id="C_0012630714920699568214" rx="2.5" ry="2.5" style="stroke:#181818;stroke-width:0.5;" width="167.3857" x="553" y="204.2969"/><ellipse cx="568" cy="220.2969" fill="#ADD1B2" rx="11" ry="11" style="stroke:#181818;stroke-width:1;"/><path d="M570.9688,225.9375 Q570.3906,226.2344 569.75,226.375 Q569.1094,226.5313 568.4063,226.5313 Q565.9063,226.5313 564.5781,224.8906 Q563.2656,223.2344 563.2656,220.1094 Q563.2656,216.9844 564.5781,215.3281 Q565.9063,213.6719 568.4063,213.6719 Q569.1094,213.6719 569.75,213.8281 Q570.4063,213.9844 570.9688,214.2813 L570.9688,217 Q570.3438,216.4219 569.75,216.1563 Q569.1563,215.875 568.5313,215.875 Q567.1875,215.875 566.5,216.9531 Q565.8125,218.0156 565.8125,220.1094 Q565.8125,222.2031 566.5,223.2813 Q567.1875,224.3438 568.5313,224.3438 Q569.1563,224.3438 569.75,224.0781 Q570.3438,223.7969 570.9688,223.2188 L570.9688,225.9375 Z " fill="#000000"/><text fill="#000000" font-family="sans-serif" font-size="14" lengthAdjust="spacing" textLength="135.3857" x="582" y="225.1436">class_method_filter</text><line style="stroke:#181818;stroke-width:0.5;" x1="554" x2="719.3857" y1="236.2969" y2="236.2969"/><line style="stroke:#181818;stroke-width:0.5;" x1="554" x2="719.3857" y1="244.2969" y2="244.2969"/></g></a><!--class C_0005413465939996691743--><a href="structclanguml_1_1common_1_1model_1_1class__member__filter.html" target="_top" title="class_member_filter" xlink:actuate="onRequest" xlink:href="structclanguml_1_1common_1_1model_1_1class__member__filter.html" xlink:show="new" xlink:title="class_member_filter" xlink:type="simple"><g id="elem_C_0005413465939996691743"><rect codeLine="78" fill="#F1F1F1" height="48" id="C_0005413465939996691743" rx="2.5" ry="2.5" style="stroke:#181818;stroke-width:0.5;" width="172.4648" x="550.5" y="121.2969"/><ellipse cx="565.5" cy="137.2969" fill="#ADD1B2" rx="11" ry="11" style="stroke:#181818;stroke-width:1;"/><path d="M568.4688,142.9375 Q567.8906,143.2344 567.25,143.375 Q566.6094,143.5313 565.9063,143.5313 Q563.4063,143.5313 562.0781,141.8906 Q560.7656,140.2344 560.7656,137.1094 Q560.7656,133.9844 562.0781,132.3281 Q563.4063,130.6719 565.9063,130.6719 Q566.6094,130.6719 567.25,130.8281 Q567.9063,130.9844 568.4688,131.2813 L568.4688,134 Q567.8438,133.4219 567.25,133.1563 Q566.6563,132.875 566.0313,132.875 Q564.6875,132.875 564,133.9531 Q563.3125,135.0156 563.3125,137.1094 Q563.3125,139.2031 564,140.2813 Q564.6875,141.3438 566.0313,141.3438 Q566.6563,141.3438 567.25,141.0781 Q567.8438,140.7969 568.4688,140.2188 L568.4688,142.9375 Z " fill="#000000"/><text fill="#000000" font-family="sans-serif" font-size="14" lengthAdjust="spacing" textLength="140.4648" x="579.5" y="142.1436">class_member_filter</text><line style="stroke:#181818;stroke-width:0.5;" x1="551.5" x2="721.9648" y1="153.2969" y2="153.2969"/><line style="stroke:#181818;stroke-width:0.5;" x1="551.5" x2="721.9648" y1="161.2969" y2="161.2969"/></g></a><!--reverse link C_0004846633653196508605 to C_0003755664421485538512--><a href="" target="_top" title="filters_" xlink:actuate="onRequest" xlink:href="" xlink:show="new" xlink:title="filters_" xlink:type="simple"><path codeLine="83" d="M568.9567,844.337 C484.9767,841.537 331.04,834.8469 191,819.2969 C181.32,818.2269 171.08,816.8069 161.15,815.2969 " fill="transparent" id="C_0004846633653196508605-backto-C_0003755664421485538512" style="stroke:#181818;stroke-width:1;"/><polygon fill="transparent" points="580.95,844.7369,575.0866,840.5392,568.9567,844.337,574.82,848.5347,580.95,844.7369" style="stroke:#181818;stroke-width:1;"/><rect fill="transparent" height="6" style="stroke:#C82930;stroke-width:1;" width="6" x="194" y="808.3633"/><text fill="#000000" font-family="sans-serif" font-size="13" lengthAdjust="spacing" textLength="43.5132" x="204" y="815.3638">filters_</text></a><!--reverse link C_0003755664421485538512 to C_0004846633653196508605--><g id="link_C_0003755664421485538512_C_0004846633653196508605"><path codeLine="84" d="M178.516,830.3016 C188.346,833.0916 181.23,830.6469 191,832.2969 C329.94,855.7169 496.69,852.8669 580.98,849.2869 " fill="transparent" id="C_0003755664421485538512-backto-C_0004846633653196508605" style="stroke:#181818;stroke-width:1;"/><polygon fill="transparent" points="161.2,825.3869,176.8778,836.0736,180.1543,824.5296,161.2,825.3869" style="stroke:#181818;stroke-width:1;"/></g><!--reverse link C_0008681673430919411882 to C_0003755664421485538512--><a href="" target="_top" title="filters_" xlink:actuate="onRequest" xlink:href="" xlink:show="new" xlink:title="filters_" xlink:type="simple"><path codeLine="85" d="M573.7075,765.2721 C491.3575,768.1921 333.73,775.2869 191,791.2969 C181.32,792.3869 171.08,793.7969 161.16,795.3169 " fill="transparent" id="C_0008681673430919411882-backto-C_0003755664421485538512" style="stroke:#181818;stroke-width:1;"/><polygon fill="transparent" points="585.7,764.8469,579.562,761.062,573.7075,765.2721,579.8455,769.057,585.7,764.8469" style="stroke:#181818;stroke-width:1;"/><rect fill="transparent" height="6" style="stroke:#C82930;stroke-width:1;" width="6" x="194" y="776.3633"/><text fill="#000000" font-family="sans-serif" font-size="13" lengthAdjust="spacing" textLength="43.5132" x="204" y="783.3638">filters_</text></a><!--reverse link C_0003755664421485538512 to C_0008681673430919411882--><g id="link_C_0003755664421485538512_C_0008681673430919411882"><path codeLine="86" d="M179.2018,799.24 C189.1218,798.44 181.39,799.0669 191,798.2969 C334.33,786.8569 503.68,773.5869 585.83,767.1769 " fill="transparent" id="C_0003755664421485538512-backto-C_0008681673430919411882" style="stroke:#181818;stroke-width:1;"/><polygon fill="transparent" points="161.26,800.6869,179.6841,805.2205,178.7194,793.2594,161.26,800.6869" style="stroke:#181818;stroke-width:1;"/></g><!--reverse link C_0003755664421485538512 to C_0014529922051766561513--><g id="link_C_0003755664421485538512_C_0014529922051766561513"><path codeLine="87" d="M108.0374,847.5011 C115.8674,938.8411 144.77,1243.4869 191,1334.2969 C215.95,1383.3069 228.57,1398.1769 278,1422.2969 C367.86,1466.1469 485.04,1471.5969 560.29,1469.5069 " fill="transparent" id="C_0003755664421485538512-backto-C_0014529922051766561513" style="stroke:#181818;stroke-width:1;"/><polygon fill="transparent" points="106.5,829.5669,102.0593,848.0136,114.0155,846.9886,106.5,829.5669" style="stroke:#181818;stroke-width:1;"/></g><!--reverse link C_0003755664421485538512 to C_0018235506892675596161--><g id="link_C_0003755664421485538512_C_0018235506892675596161"><path codeLine="88" d="M108.8114,847.4693 C117.5514,931.0793 147.22,1188.3269 191,1264.2969 C265.11,1392.8969 466.18,1396.3869 570.6,1388.6869 " fill="transparent" id="C_0003755664421485538512-backto-C_0018235506892675596161" style="stroke:#181818;stroke-width:1;"/><polygon fill="transparent" points="106.94,829.5669,102.8439,848.0931,114.7789,846.8455,106.94,829.5669" style="stroke:#181818;stroke-width:1;"/></g><!--reverse link C_0003755664421485538512 to C_0005522729892949283391--><g id="link_C_0003755664421485538512_C_0005522729892949283391"><path codeLine="89" d="M109.1544,847.3215 C117.9144,924.3315 146.11,1144.8269 191,1206.2969 C276.99,1324.0269 470.83,1319.6469 571.74,1308.1569 " fill="transparent" id="C_0003755664421485538512-backto-C_0005522729892949283391" style="stroke:#181818;stroke-width:1;"/><polygon fill="transparent" points="107.12,829.4369,103.1929,847.9997,115.116,846.6434,107.12,829.4369" style="stroke:#181818;stroke-width:1;"/></g><!--reverse link C_0003755664421485538512 to C_0016413347653743218402--><g id="link_C_0003755664421485538512_C_0016413347653743218402"><path codeLine="90" d="M108.5919,847.3854 C115.9919,920.5254 140.1,1119.2669 191,1164.2969 C289.9,1251.7969 453.46,1245.5769 552.2,1231.5169 " fill="transparent" id="C_0003755664421485538512-backto-C_0016413347653743218402" style="stroke:#181818;stroke-width:1;"/><polygon fill="transparent" points="106.78,829.4769,102.6224,847.9894,114.5614,846.7815,106.78,829.4769" style="stroke:#181818;stroke-width:1;"/></g><!--reverse link C_0003755664421485538512 to C_0015178953694360295900--><g id="link_C_0003755664421485538512_C_0015178953694360295900"><path codeLine="91" d="M109.9883,847.4141 C119.5783,914.2041 154.33,1081.4769 278,1136.2969 C350.83,1168.5869 924.31,1173.0369 995,1136.2969 C1155.82,1052.7169 1244.36,831.1969 1270.05,757.5169 " fill="transparent" id="C_0003755664421485538512-backto-C_0015178953694360295900" style="stroke:#181818;stroke-width:1;"/><polygon fill="transparent" points="107.43,829.5969,104.0492,848.2669,115.9274,846.5614,107.43,829.5969" style="stroke:#181818;stroke-width:1;"/></g><!--reverse link C_0003755664421485538512 to C_0009586729560943033114--><g id="link_C_0003755664421485538512_C_0009586729560943033114"><path codeLine="92" d="M118.7322,846.5837 C137.7822,899.2537 184.8,1005.8969 278,1053.2969 C375.34,1102.8069 506.37,1104.2969 579.74,1100.2469 " fill="transparent" id="C_0003755664421485538512-backto-C_0009586729560943033114" style="stroke:#181818;stroke-width:1;"/><polygon fill="transparent" points="112.61,829.6569,113.0899,848.6245,124.3745,844.543,112.61,829.6569" style="stroke:#181818;stroke-width:1;"/></g><!--reverse link C_0003755664421485538512 to C_0011119356209474014086--><g id="link_C_0003755664421485538512_C_0011119356209474014086"><path codeLine="93" d="M132.2866,843.8318 C160.1866,881.2118 208.76,937.8169 278,970.2969 C372.77,1014.7469 496.57,1019.0169 570.84,1016.6469 " fill="transparent" id="C_0003755664421485538512-backto-C_0011119356209474014086" style="stroke:#181818;stroke-width:1;"/><polygon fill="transparent" points="121.52,829.4069,127.4783,847.4207,137.095,840.243,121.52,829.4069" style="stroke:#181818;stroke-width:1;"/></g><!--reverse link C_0003755664421485538512 to C_0014190027896959020338--><g id="link_C_0003755664421485538512_C_0014190027896959020338"><path codeLine="94" d="M170.0173,837.3185 C182.1473,843.1985 178.93,841.5869 191,847.2969 C229.48,865.4769 237.03,875.7869 278,887.2969 C379.22,915.7469 501.81,924.9369 573.96,927.9069 " fill="transparent" id="C_0003755664421485538512-backto-C_0014190027896959020338" style="stroke:#181818;stroke-width:1;"/><polygon fill="transparent" points="153.82,829.4669,167.4001,842.7176,172.6345,831.9194,153.82,829.4669" style="stroke:#181818;stroke-width:1;"/></g><!--reverse link C_0003755664421485538512 to C_0011978821643502128904--><g id="link_C_0003755664421485538512_C_0011978821643502128904"><path codeLine="95" d="M159.5468,772.3362 C193.7268,752.7462 229.56,735.0869 278,721.2969 C301.43,714.6269 326.02,709.0369 350.88,704.3569 " fill="transparent" id="C_0003755664421485538512-backto-C_0011978821643502128904" style="stroke:#181818;stroke-width:1;"/><polygon fill="transparent" points="143.93,781.2869,162.5304,777.5418,156.5633,767.1306,143.93,781.2869" style="stroke:#181818;stroke-width:1;"/></g><!--reverse link C_0003755664421485538512 to C_0009565704064810099821--><g id="link_C_0003755664421485538512_C_0009565704064810099821"><path codeLine="96" d="M131.8489,766.6674 C159.5389,728.8774 208.22,671.1669 278,638.2969 C368,595.8969 484.37,590.3869 559.47,592.2669 " fill="transparent" id="C_0003755664421485538512-backto-C_0009565704064810099821" style="stroke:#181818;stroke-width:1;"/><polygon fill="transparent" points="121.21,781.1869,136.6887,770.2137,127.0091,763.1211,121.21,781.1869" style="stroke:#181818;stroke-width:1;"/></g><!--reverse link C_0003755664421485538512 to C_0008785474747591996724--><g id="link_C_0003755664421485538512_C_0008785474747591996724"><path codeLine="97" d="M118.7731,764.004 C137.8831,711.274 185,604.3369 278,555.2969 C419.13,480.8769 838.28,548.1769 995,518.2969 C1074.25,503.1869 1106.61,513.7869 1167,460.2969 C1231.84,402.8669 1262.15,299.2469 1273.03,252.4269 " fill="transparent" id="C_0003755664421485538512-backto-C_0008785474747591996724" style="stroke:#181818;stroke-width:1;"/><polygon fill="transparent" points="112.64,780.9269,124.4141,766.0483,113.1321,761.9596,112.64,780.9269" style="stroke:#181818;stroke-width:1;"/></g><!--reverse link C_0003755664421485538512 to C_0015952402022523334996--><g id="link_C_0003755664421485538512_C_0015952402022523334996"><path codeLine="98" d="M104.0355,762.967 C104.2655,708.127 113.17,592.6869 191,528.2969 C290.8,445.7269 449.18,449.0869 547.48,461.4669 " fill="transparent" id="C_0003755664421485538512-backto-C_0015952402022523334996" style="stroke:#181818;stroke-width:1;"/><polygon fill="transparent" points="103.96,780.9669,110.0354,762.9922,98.0355,762.9419,103.96,780.9669" style="stroke:#181818;stroke-width:1;"/></g><!--reverse link C_0003755664421485538512 to C_0016629349577908476453--><g id="link_C_0003755664421485538512_C_0016629349577908476453"><path codeLine="99" d="M108.0672,763.329 C113.2472,709.279 130.03,593.7369 191,503.2969 C218.43,462.6069 232.59,453.8969 278,435.2969 C375.84,395.2169 500.57,390.2069 573.87,391.4269 " fill="transparent" id="C_0003755664421485538512-backto-C_0016629349577908476453" style="stroke:#181818;stroke-width:1;"/><polygon fill="transparent" points="106.35,781.2469,114.0398,763.9014,102.0946,762.7566,106.35,781.2469" style="stroke:#181818;stroke-width:1;"/></g><!--reverse link C_0003755664421485538512 to C_0006652291670129478083--><g id="link_C_0003755664421485538512_C_0006652291670129478083"><path codeLine="100" d="M104.5571,763.0982 C105.5271,682.6682 120.93,442.3769 278,352.2969 C373.51,297.5169 506.96,298.7269 580.84,304.8069 " fill="transparent" id="C_0003755664421485538512-backto-C_0006652291670129478083" style="stroke:#181818;stroke-width:1;"/><polygon fill="transparent" points="104.34,781.0969,110.5566,763.1705,98.5575,763.0258,104.34,781.0969" style="stroke:#181818;stroke-width:1;"/></g><!--reverse link C_0012630714920699568214 to C_0008785474747591996724--><a href="" target="_top" title="access_filter_" xlink:actuate="onRequest" xlink:href="" xlink:show="new" xlink:title="access_filter_" xlink:type="simple"><path codeLine="101" d="M732.25,228.2969 C863.63,228.2969 1104.76,228.2969 1219.23,228.2969 " fill="transparent" id="C_0012630714920699568214-backto-C_0008785474747591996724" style="stroke:#181818;stroke-width:1;"/><polygon fill="transparent" points="720.25,228.2969,726.25,232.2969,732.25,228.2969,726.25,224.2969,720.25,228.2969" style="stroke:#181818;stroke-width:1;"/><rect fill="transparent" height="6" style="stroke:#C82930;stroke-width:1;" width="6" x="1048.5" y="217.3633"/><text fill="#000000" font-family="sans-serif" font-size="13" lengthAdjust="spacing" textLength="87.0454" x="1058.5" y="224.3638">access_filter_</text></a><!--reverse link C_0012630714920699568214 to C_0015178953694360295900--><a href="" target="_top" title="method_type_filter_" xlink:actuate="onRequest" xlink:href="" xlink:show="new" xlink:title="method_type_filter_" xlink:type="simple"><path codeLine="102" d="M732.1732,217.4061 C809.3232,212.2461 912.62,216.6469 995,269.2969 C1165.54,378.2869 1248.98,630.3869 1271.55,709.2569 " fill="transparent" id="C_0012630714920699568214-backto-C_0015178953694360295900" style="stroke:#181818;stroke-width:1;"/><polygon fill="transparent" points="720.2,218.2069,726.4536,221.7976,732.1732,217.4061,725.9197,213.8154,720.2,218.2069" style="stroke:#181818;stroke-width:1;"/><rect fill="transparent" height="6" style="stroke:#C82930;stroke-width:1;" width="6" x="1028" y="284.3633"/><text fill="#000000" font-family="sans-serif" font-size="13" lengthAdjust="spacing" textLength="128.9844" x="1038" y="291.3638">method_type_filter_</text></a><!--reverse link C_0003755664421485538512 to C_0012630714920699568214--><g id="link_C_0003755664421485538512_C_0012630714920699568214"><path codeLine="103" d="M107.6129,763.104 C112.8229,697.864 130.78,532.0869 191,393.2969 C217.8,331.5369 220.14,303.7169 278,269.2969 C361.76,219.4769 476.19,215.1469 552.81,219.3669 " fill="transparent" id="C_0003755664421485538512-backto-C_0012630714920699568214" style="stroke:#181818;stroke-width:1;"/><polygon fill="transparent" points="106.18,781.0469,113.5939,763.5816,101.6319,762.6264,106.18,781.0469" style="stroke:#181818;stroke-width:1;"/></g><!--reverse link C_0005413465939996691743 to C_0008785474747591996724--><a href="" target="_top" title="access_filter_" xlink:actuate="onRequest" xlink:href="" xlink:show="new" xlink:title="access_filter_" xlink:type="simple"><path codeLine="104" d="M734.6907,152.6377 C839.6607,161.1577 1011.25,177.3069 1167,203.2969 C1184.15,206.1569 1202.62,210.0069 1219.48,213.8269 " fill="transparent" id="C_0005413465939996691743-backto-C_0008785474747591996724" style="stroke:#181818;stroke-width:1;"/><polygon fill="transparent" points="722.73,151.6669,728.3867,156.1392,734.6907,152.6377,729.0339,148.1654,722.73,151.6669" style="stroke:#181818;stroke-width:1;"/><rect fill="transparent" height="6" style="stroke:#C82930;stroke-width:1;" width="6" x="1048.5" y="173.3633"/><text fill="#000000" font-family="sans-serif" font-size="13" lengthAdjust="spacing" textLength="87.0454" x="1058.5" y="180.3638">access_filter_</text></a><!--reverse link C_0003755664421485538512 to C_0005413465939996691743--><g id="link_C_0003755664421485538512_C_0005413465939996691743"><path codeLine="105" d="M107.2152,763.03 C112.1352,692.08 130.06,497.9069 191,334.2969 C217.63,262.7969 214.04,227.9069 278,186.2969 C359.17,133.4869 473.1,129.5969 550.37,134.7469 " fill="transparent" id="C_0003755664421485538512-backto-C_0005413465939996691743" style="stroke:#181818;stroke-width:1;"/><polygon fill="transparent" points="105.97,780.9869,113.2008,763.4451,101.2296,762.6149,105.97,780.9869" style="stroke:#181818;stroke-width:1;"/></g><!--SRC=[jPVDRzis5C3l_Yk8Nhe1YS5laKQxmx9YbnQxPBi4WQ3OZ2rKbWo9pXPa_T_tBCcn63ut3B36G23xaNe_lc_wqbUE_5OMwxROalkoygub3sLN-gObowheEh8fNLkqoytZh7BtdlY6jELwuycgRDtIbqqzsnNBhyNQaPjbizqszIqfEdALKqgv4jn8oZChDCiCOoOZJwVbssRbgjDgghNDCYaLar8oohKIi7g0U3UWvIFQk-TD8bDAQoavaqOfOHJZuvPpOd9pqo-0V_LwlwrobhC1_F3KCnqUHeL7ZVEDtrPFlnQT6yro3mOgwaSmmzHsys-tjm2TvxDlHt9OrDpdW_Z4BOtKMWWu8xDQKQEfcd8ZOk3kVBjV-bV01tsZmW5xYe00LXK2QBHXEXDIKCki1DUPmB28E1cmrnS2JX1YmBhOkWwYnhs4P59nQpcdYcLQAyqK4nD8J9mAUT8PWBv4YM7X3VlATH6guK8fgetb6cBIQgRP51KHfw8UDGQW8KQCwIgtTRMFtAuKvnctm66bvKO8EyN4nAcOHuq1PeXn7jC_xcBlQyc4a1aaIIO5PuTACpKf8dupQwyN9PuG8K7W_APPuTGGZCOgeQqKcdAhBALJQaIS70Y3LWGwvecPbv24BiAbLXaD7bUQ0X4LWZ4v3GX4d8exAWn00uYOiTlVzK-HKU7F2gKvK6GI4X_gqzIeY3YLybbbmFa292RT5Ir4IGmg6JYKWulrmRKSB6Q2YXMBKq6F6WFE40F9hzNQvRuj7bpR5TMuxCCu3rnVV1g2_VhYggdlo_MdshUFrnyxlreiWAcirnTV2h_S_07RstBbhZyEN8j5JxLOZCdooyHHDeDM0Raf5EMC6qjbuAXOd9opXwDCpXBOuQfVJxpRxgh2kxvx3_AEbFL3Kpt0OSYu-V3OEbW7mqstANS4ZB7R8ArzkWX97AqoAgcMXi4t2ySA4oSIfvuqK1iS4m52-lrowU8KeYOp2h83FWfQkeMi3X8T4ISt_45XsF6d4EUwQ8wZCcKLXsfEELTSG8q7dA24nkAtzT8ynv0n9gICDhLt__YuMMbk0KLbcQK6kf9KmQY2Y9FhwAWnBAG11bQV_2QE0PYIEBSms5463Jupr4mXCN5wTJheUr6RJWY87VloEZQkbyRaMj2CmGH2jOL4Wjm9gWWYJZRcKEkFhJGmQKnq7djx1vU7QBY2YKHgPOM5aDIMmLmI35Un-CtOlLuKUq8qmJvypjuucilBxrsZdiOAcX_Ujo2Nnw-piti-_7jy8tR_ENkn-84Ss3NdzMtenIDX6tO9I834Xl84RTXydB0D6r0J8B51CK4RDhcbE02PerAq8UD7qjdYNfuIN4XBJN40qjvIt8rqc0H8hEQVhQBDTuvsoCIWEHxpCVpnzPUVkGCXjvYZ1aIIOZ6iZPojnF_NqL_BTQH7pDx_xchNmk2w8d-NVaFwRd09xU22z0ChZBPqhkTizlxpvx- -FF_svzs-zljXzVEFpCxPd96VsBwNif__0m00]--></g></svg>