<svg xmlns="http://www.w3.org/2000/svg" xmlns:xlink="http://www.w3.org/1999/xlink" contentStyleType="text/css" data-diagram-type="CLASS" height="1286px" preserveAspectRatio="none" style="width:1408px;height:1286px;background:#FFFFFF;" version="1.1" viewBox="0 0 1408 1286" width="1408px" zoomAndPan="magnify"><title>Diagram filter visitor class hierarchy</title><defs/><g><text fill="#000000" font-family="sans-serif" font-size="14" font-weight="bold" lengthAdjust="spacing" textLength="289.4951" x="552.2524" y="22.9951">Diagram filter visitor class hierarchy</text><!--cluster C_0000316605034920222648--><g id="cluster_C_0000316605034920222648"><path d="M8.5,43.2969 L76.1777,43.2969 A3.75,3.75 0 0 1 78.6777,45.7969 L85.6777,65.5938 L1398.5,65.5938 A2.5,2.5 0 0 1 1401,68.0938 L1401,1276.7969 A2.5,2.5 0 0 1 1398.5,1279.2969 L8.5,1279.2969 A2.5,2.5 0 0 1 6,1276.7969 L6,45.7969 A2.5,2.5 0 0 1 8.5,43.2969 " fill="transparent" style="stroke:#000000;stroke-width:1.5;"/><line style="stroke:#000000;stroke-width:1.5;" x1="6" x2="85.6777" y1="65.5938" y2="65.5938"/><text fill="#000000" font-family="sans-serif" font-size="14" font-weight="bold" lengthAdjust="spacing" textLength="66.6777" x="10" y="58.292">common</text></g><!--cluster C_0000083721806430512831--><g id="cluster_C_0000083721806430512831"><path d="M32.5,86.2969 L82.0215,86.2969 A3.75,3.75 0 0 1 84.5215,88.7969 L91.5215,108.5938 L1374.5,108.5938 A2.5,2.5 0 0 1 1377,111.0938 L1377,1252.7969 A2.5,2.5 0 0 1 1374.5,1255.2969 L32.5,1255.2969 A2.5,2.5 0 0 1 30,1252.7969 L30,88.7969 A2.5,2.5 0 0 1 32.5,86.2969 " fill="transparent" style="stroke:#000000;stroke-width:1.5;"/><line style="stroke:#000000;stroke-width:1.5;" x1="30" x2="91.5215" y1="108.5938" y2="108.5938"/><text fill="#000000" font-family="sans-serif" font-size="14" font-weight="bold" lengthAdjust="spacing" textLength="48.5215" x="34" y="101.292">model</text></g><!--class C_0000469458052685692314--><a href="classclanguml_1_1common_1_1model_1_1filter__visitor.html" target="_top" title="Base class for any diagram filter." xlink:actuate="onRequest" xlink:href="classclanguml_1_1common_1_1model_1_1filter__visitor.html" xlink:show="new" xlink:title="Base class for any diagram filter." xlink:type="simple"><g id="elem_C_0000469458052685692314"><rect codeLine="6" fill="#F1F1F1" height="48" id="C_0000469458052685692314" rx="2.5" ry="2.5" style="stroke:#181818;stroke-width:0.5;" width="114.7354" x="46" y="662.2969"/><ellipse cx="61" cy="678.2969" fill="#ADD1B2" rx="11" ry="11" style="stroke:#181818;stroke-width:1;"/><path d="M63.9688,683.9375 Q63.3906,684.2344 62.75,684.375 Q62.1094,684.5313 61.4063,684.5313 Q58.9063,684.5313 57.5781,682.8906 Q56.2656,681.2344 56.2656,678.1094 Q56.2656,674.9844 57.5781,673.3281 Q58.9063,671.6719 61.4063,671.6719 Q62.1094,671.6719 62.75,671.8281 Q63.4063,671.9844 63.9688,672.2813 L63.9688,675 Q63.3438,674.4219 62.75,674.1563 Q62.1563,673.875 61.5313,673.875 Q60.1875,673.875 59.5,674.9531 Q58.8125,676.0156 58.8125,678.1094 Q58.8125,680.2031 59.5,681.2813 Q60.1875,682.3438 61.5313,682.3438 Q62.1563,682.3438 62.75,682.0781 Q63.3438,681.7969 63.9688,681.2188 L63.9688,683.9375 Z " fill="#000000"/><text fill="#000000" font-family="sans-serif" font-size="14" lengthAdjust="spacing" textLength="82.7354" x="75" y="683.1436">filter_visitor</text><line style="stroke:#181818;stroke-width:0.5;" x1="47" x2="159.7354" y1="694.2969" y2="694.2969"/><line style="stroke:#181818;stroke-width:0.5;" x1="47" x2="159.7354" y1="702.2969" y2="702.2969"/></g></a><!--class C_0000605829206649563575--><a href="structclanguml_1_1common_1_1model_1_1anyof__filter.html" target="_top" title="anyof_filter" xlink:actuate="onRequest" xlink:href="structclanguml_1_1common_1_1model_1_1anyof__filter.html" xlink:show="new" xlink:title="anyof_filter" xlink:type="simple"><g id="elem_C_0000605829206649563575"><rect codeLine="10" fill="#F1F1F1" height="48" id="C_0000605829206649563575" rx="2.5" ry="2.5" style="stroke:#181818;stroke-width:0.5;" width="110.7979" x="581" y="656.2969"/><ellipse cx="596" cy="672.2969" fill="#ADD1B2" rx="11" ry="11" style="stroke:#181818;stroke-width:1;"/><path d="M598.9688,677.9375 Q598.3906,678.2344 597.75,678.375 Q597.1094,678.5313 596.4063,678.5313 Q593.9063,678.5313 592.5781,676.8906 Q591.2656,675.2344 591.2656,672.1094 Q591.2656,668.9844 592.5781,667.3281 Q593.9063,665.6719 596.4063,665.6719 Q597.1094,665.6719 597.75,665.8281 Q598.4063,665.9844 598.9688,666.2813 L598.9688,669 Q598.3438,668.4219 597.75,668.1563 Q597.1563,667.875 596.5313,667.875 Q595.1875,667.875 594.5,668.9531 Q593.8125,670.0156 593.8125,672.1094 Q593.8125,674.2031 594.5,675.2813 Q595.1875,676.3438 596.5313,676.3438 Q597.1563,676.3438 597.75,676.0781 Q598.3438,675.7969 598.9688,675.2188 L598.9688,677.9375 Z " fill="#000000"/><text fill="#000000" font-family="sans-serif" font-size="14" lengthAdjust="spacing" textLength="78.7979" x="610" y="677.1436">anyof_filter</text><line style="stroke:#181818;stroke-width:0.5;" x1="582" x2="690.7979" y1="688.2969" y2="688.2969"/><line style="stroke:#181818;stroke-width:0.5;" x1="582" x2="690.7979" y1="696.2969" y2="696.2969"/></g></a><!--class C_0001816240256470820189--><a href="structclanguml_1_1common_1_1model_1_1namespace__filter.html" target="_top" title="namespace_filter" xlink:actuate="onRequest" xlink:href="structclanguml_1_1common_1_1model_1_1namespace__filter.html" xlink:show="new" xlink:title="namespace_filter" xlink:type="simple"><g id="elem_C_0001816240256470820189"><rect codeLine="14" fill="#F1F1F1" height="48" id="C_0001816240256470820189" rx="2.5" ry="2.5" style="stroke:#181818;stroke-width:0.5;" width="152.3398" x="560.5" y="1191.2969"/><ellipse cx="575.5" cy="1207.2969" fill="#ADD1B2" rx="11" ry="11" style="stroke:#181818;stroke-width:1;"/><path d="M578.4688,1212.9375 Q577.8906,1213.2344 577.25,1213.375 Q576.6094,1213.5313 575.9063,1213.5313 Q573.4063,1213.5313 572.0781,1211.8906 Q570.7656,1210.2344 570.7656,1207.1094 Q570.7656,1203.9844 572.0781,1202.3281 Q573.4063,1200.6719 575.9063,1200.6719 Q576.6094,1200.6719 577.25,1200.8281 Q577.9063,1200.9844 578.4688,1201.2813 L578.4688,1204 Q577.8438,1203.4219 577.25,1203.1563 Q576.6563,1202.875 576.0313,1202.875 Q574.6875,1202.875 574,1203.9531 Q573.3125,1205.0156 573.3125,1207.1094 Q573.3125,1209.2031 574,1210.2813 Q574.6875,1211.3438 576.0313,1211.3438 Q576.6563,1211.3438 577.25,1211.0781 Q577.8438,1210.7969 578.4688,1210.2188 L578.4688,1212.9375 Z " fill="#000000"/><text fill="#000000" font-family="sans-serif" font-size="14" lengthAdjust="spacing" textLength="120.3398" x="589.5" y="1212.1436">namespace_filter</text><line style="stroke:#181818;stroke-width:0.5;" x1="561.5" x2="711.8398" y1="1223.2969" y2="1223.2969"/><line style="stroke:#181818;stroke-width:0.5;" x1="561.5" x2="711.8398" y1="1231.2969" y2="1231.2969"/></g></a><!--class C_0000690341236618660423--><a href="structclanguml_1_1common_1_1model_1_1element__filter.html" target="_top" title="element_filter" xlink:actuate="onRequest" xlink:href="structclanguml_1_1common_1_1model_1_1element__filter.html" xlink:show="new" xlink:title="element_filter" xlink:type="simple"><g id="elem_C_0000690341236618660423"><rect codeLine="18" fill="#F1F1F1" height="48" id="C_0000690341236618660423" rx="2.5" ry="2.5" style="stroke:#181818;stroke-width:0.5;" width="129.2959" x="572" y="1108.2969"/><ellipse cx="587" cy="1124.2969" fill="#ADD1B2" rx="11" ry="11" style="stroke:#181818;stroke-width:1;"/><path d="M589.9688,1129.9375 Q589.3906,1130.2344 588.75,1130.375 Q588.1094,1130.5313 587.4063,1130.5313 Q584.9063,1130.5313 583.5781,1128.8906 Q582.2656,1127.2344 582.2656,1124.1094 Q582.2656,1120.9844 583.5781,1119.3281 Q584.9063,1117.6719 587.4063,1117.6719 Q588.1094,1117.6719 588.75,1117.8281 Q589.4063,1117.9844 589.9688,1118.2813 L589.9688,1121 Q589.3438,1120.4219 588.75,1120.1563 Q588.1563,1119.875 587.5313,1119.875 Q586.1875,1119.875 585.5,1120.9531 Q584.8125,1122.0156 584.8125,1124.1094 Q584.8125,1126.2031 585.5,1127.2813 Q586.1875,1128.3438 587.5313,1128.3438 Q588.1563,1128.3438 588.75,1128.0781 Q589.3438,1127.7969 589.9688,1127.2188 L589.9688,1129.9375 Z " fill="#000000"/><text fill="#000000" font-family="sans-serif" font-size="14" lengthAdjust="spacing" textLength="97.2959" x="601" y="1129.1436">element_filter</text><line style="stroke:#181818;stroke-width:0.5;" x1="573" x2="700.2959" y1="1140.2969" y2="1140.2969"/><line style="stroke:#181818;stroke-width:0.5;" x1="573" x2="700.2959" y1="1148.2969" y2="1148.2969"/></g></a><!--class C_0002051668456717902300--><a href="structclanguml_1_1common_1_1model_1_1element__type__filter.html" target="_top" title="element_type_filter" xlink:actuate="onRequest" xlink:href="structclanguml_1_1common_1_1model_1_1element__type__filter.html" xlink:show="new" xlink:title="element_type_filter" xlink:type="simple"><g id="elem_C_0002051668456717902300"><rect codeLine="22" fill="#F1F1F1" height="48" id="C_0002051668456717902300" rx="2.5" ry="2.5" style="stroke:#181818;stroke-width:0.5;" width="167.5703" x="552.5" y="1025.2969"/><ellipse cx="567.5" cy="1041.2969" fill="#ADD1B2" rx="11" ry="11" style="stroke:#181818;stroke-width:1;"/><path d="M570.4688,1046.9375 Q569.8906,1047.2344 569.25,1047.375 Q568.6094,1047.5313 567.9063,1047.5313 Q565.4063,1047.5313 564.0781,1045.8906 Q562.7656,1044.2344 562.7656,1041.1094 Q562.7656,1037.9844 564.0781,1036.3281 Q565.4063,1034.6719 567.9063,1034.6719 Q568.6094,1034.6719 569.25,1034.8281 Q569.9063,1034.9844 570.4688,1035.2813 L570.4688,1038 Q569.8438,1037.4219 569.25,1037.1563 Q568.6563,1036.875 568.0313,1036.875 Q566.6875,1036.875 566,1037.9531 Q565.3125,1039.0156 565.3125,1041.1094 Q565.3125,1043.2031 566,1044.2813 Q566.6875,1045.3438 568.0313,1045.3438 Q568.6563,1045.3438 569.25,1045.0781 Q569.8438,1044.7969 570.4688,1044.2188 L570.4688,1046.9375 Z " fill="#000000"/><text fill="#000000" font-family="sans-serif" font-size="14" lengthAdjust="spacing" textLength="135.5703" x="581.5" y="1046.1436">element_type_filter</text><line style="stroke:#181818;stroke-width:0.5;" x1="553.5" x2="719.0703" y1="1057.2969" y2="1057.2969"/><line style="stroke:#181818;stroke-width:0.5;" x1="553.5" x2="719.0703" y1="1065.2969" y2="1065.2969"/></g></a><!--class C_0001897369211795036987--><a href="structclanguml_1_1common_1_1model_1_1method__type__filter.html" target="_top" title="method_type_filter" xlink:actuate="onRequest" xlink:href="structclanguml_1_1common_1_1model_1_1method__type__filter.html" xlink:show="new" xlink:title="method_type_filter" xlink:type="simple"><g id="elem_C_0001897369211795036987"><rect codeLine="26" fill="#F1F1F1" height="48" id="C_0001897369211795036987" rx="2.5" ry="2.5" style="stroke:#181818;stroke-width:0.5;" width="163.9063" x="1197" y="626.2969"/><ellipse cx="1212" cy="642.2969" fill="#ADD1B2" rx="11" ry="11" style="stroke:#181818;stroke-width:1;"/><path d="M1214.9688,647.9375 Q1214.3906,648.2344 1213.75,648.375 Q1213.1094,648.5313 1212.4063,648.5313 Q1209.9063,648.5313 1208.5781,646.8906 Q1207.2656,645.2344 1207.2656,642.1094 Q1207.2656,638.9844 1208.5781,637.3281 Q1209.9063,635.6719 1212.4063,635.6719 Q1213.1094,635.6719 1213.75,635.8281 Q1214.4063,635.9844 1214.9688,636.2813 L1214.9688,639 Q1214.3438,638.4219 1213.75,638.1563 Q1213.1563,637.875 1212.5313,637.875 Q1211.1875,637.875 1210.5,638.9531 Q1209.8125,640.0156 1209.8125,642.1094 Q1209.8125,644.2031 1210.5,645.2813 Q1211.1875,646.3438 1212.5313,646.3438 Q1213.1563,646.3438 1213.75,646.0781 Q1214.3438,645.7969 1214.9688,645.2188 L1214.9688,647.9375 Z " fill="#000000"/><text fill="#000000" font-family="sans-serif" font-size="14" lengthAdjust="spacing" textLength="131.9063" x="1226" y="647.1436">method_type_filter</text><line style="stroke:#181818;stroke-width:0.5;" x1="1198" x2="1359.9063" y1="658.2969" y2="658.2969"/><line style="stroke:#181818;stroke-width:0.5;" x1="1198" x2="1359.9063" y1="666.2969" y2="666.2969"/></g></a><!--class C_0001198341195117879139--><a href="structclanguml_1_1common_1_1model_1_1callee__filter.html" target="_top" title="callee_filter" xlink:actuate="onRequest" xlink:href="structclanguml_1_1common_1_1model_1_1callee__filter.html" xlink:show="new" xlink:title="callee_filter" xlink:type="simple"><g id="elem_C_0001198341195117879139"><rect codeLine="30" fill="#F1F1F1" height="48" id="C_0001198341195117879139" rx="2.5" ry="2.5" style="stroke:#181818;stroke-width:0.5;" width="112.8486" x="580" y="905.2969"/><ellipse cx="595" cy="921.2969" fill="#ADD1B2" rx="11" ry="11" style="stroke:#181818;stroke-width:1;"/><path d="M597.9688,926.9375 Q597.3906,927.2344 596.75,927.375 Q596.1094,927.5313 595.4063,927.5313 Q592.9063,927.5313 591.5781,925.8906 Q590.2656,924.2344 590.2656,921.1094 Q590.2656,917.9844 591.5781,916.3281 Q592.9063,914.6719 595.4063,914.6719 Q596.1094,914.6719 596.75,914.8281 Q597.4063,914.9844 597.9688,915.2813 L597.9688,918 Q597.3438,917.4219 596.75,917.1563 Q596.1563,916.875 595.5313,916.875 Q594.1875,916.875 593.5,917.9531 Q592.8125,919.0156 592.8125,921.1094 Q592.8125,923.2031 593.5,924.2813 Q594.1875,925.3438 595.5313,925.3438 Q596.1563,925.3438 596.75,925.0781 Q597.3438,924.7969 597.9688,924.2188 L597.9688,926.9375 Z " fill="#000000"/><text fill="#000000" font-family="sans-serif" font-size="14" lengthAdjust="spacing" textLength="80.8486" x="609" y="926.1436">callee_filter</text><line style="stroke:#181818;stroke-width:0.5;" x1="581" x2="691.8486" y1="937.2969" y2="937.2969"/><line style="stroke:#181818;stroke-width:0.5;" x1="581" x2="691.8486" y1="945.2969" y2="945.2969"/></g></a><!--class C_0001389919526184251760--><a href="structclanguml_1_1common_1_1model_1_1subclass__filter.html" target="_top" title="subclass_filter" xlink:actuate="onRequest" xlink:href="structclanguml_1_1common_1_1model_1_1subclass__filter.html" xlink:show="new" xlink:title="subclass_filter" xlink:type="simple"><g id="elem_C_0001389919526184251760"><rect codeLine="34" fill="#F1F1F1" height="48" id="C_0001389919526184251760" rx="2.5" ry="2.5" style="stroke:#181818;stroke-width:0.5;" width="131.374" x="571" y="822.2969"/><ellipse cx="586" cy="838.2969" fill="#ADD1B2" rx="11" ry="11" style="stroke:#181818;stroke-width:1;"/><path d="M588.9688,843.9375 Q588.3906,844.2344 587.75,844.375 Q587.1094,844.5313 586.4063,844.5313 Q583.9063,844.5313 582.5781,842.8906 Q581.2656,841.2344 581.2656,838.1094 Q581.2656,834.9844 582.5781,833.3281 Q583.9063,831.6719 586.4063,831.6719 Q587.1094,831.6719 587.75,831.8281 Q588.4063,831.9844 588.9688,832.2813 L588.9688,835 Q588.3438,834.4219 587.75,834.1563 Q587.1563,833.875 586.5313,833.875 Q585.1875,833.875 584.5,834.9531 Q583.8125,836.0156 583.8125,838.1094 Q583.8125,840.2031 584.5,841.2813 Q585.1875,842.3438 586.5313,842.3438 Q587.1563,842.3438 587.75,842.0781 Q588.3438,841.7969 588.9688,841.2188 L588.9688,843.9375 Z " fill="#000000"/><text fill="#000000" font-family="sans-serif" font-size="14" lengthAdjust="spacing" textLength="99.374" x="600" y="843.1436">subclass_filter</text><line style="stroke:#181818;stroke-width:0.5;" x1="572" x2="701.374" y1="854.2969" y2="854.2969"/><line style="stroke:#181818;stroke-width:0.5;" x1="572" x2="701.374" y1="862.2969" y2="862.2969"/></g></a><!--class C_0001773753487119877542--><a href="structclanguml_1_1common_1_1model_1_1parents__filter.html" target="_top" title="parents_filter" xlink:actuate="onRequest" xlink:href="structclanguml_1_1common_1_1model_1_1parents__filter.html" xlink:show="new" xlink:title="parents_filter" xlink:type="simple"><g id="elem_C_0001773753487119877542"><rect codeLine="38" fill="#F1F1F1" height="48" id="C_0001773753487119877542" rx="2.5" ry="2.5" style="stroke:#181818;stroke-width:0.5;" width="125.0576" x="574" y="739.2969"/><ellipse cx="589" cy="755.2969" fill="#ADD1B2" rx="11" ry="11" style="stroke:#181818;stroke-width:1;"/><path d="M591.9688,760.9375 Q591.3906,761.2344 590.75,761.375 Q590.1094,761.5313 589.4063,761.5313 Q586.9063,761.5313 585.5781,759.8906 Q584.2656,758.2344 584.2656,755.1094 Q584.2656,751.9844 585.5781,750.3281 Q586.9063,748.6719 589.4063,748.6719 Q590.1094,748.6719 590.75,748.8281 Q591.4063,748.9844 591.9688,749.2813 L591.9688,752 Q591.3438,751.4219 590.75,751.1563 Q590.1563,750.875 589.5313,750.875 Q588.1875,750.875 587.5,751.9531 Q586.8125,753.0156 586.8125,755.1094 Q586.8125,757.2031 587.5,758.2813 Q588.1875,759.3438 589.5313,759.3438 Q590.1563,759.3438 590.75,759.0781 Q591.3438,758.7969 591.9688,758.2188 L591.9688,760.9375 Z " fill="#000000"/><text fill="#000000" font-family="sans-serif" font-size="14" lengthAdjust="spacing" textLength="93.0576" x="603" y="760.1436">parents_filter</text><line style="stroke:#181818;stroke-width:0.5;" x1="575" x2="698.0576" y1="771.2969" y2="771.2969"/><line style="stroke:#181818;stroke-width:0.5;" x1="575" x2="698.0576" y1="779.2969" y2="779.2969"/></g></a><!--class C_0001497352705437766113--><a href="structclanguml_1_1common_1_1model_1_1edge__traversal__filter.html" target="_top" title="Common template for filters involving traversing relationship graph." xlink:actuate="onRequest" xlink:href="structclanguml_1_1common_1_1model_1_1edge__traversal__filter.html" xlink:show="new" xlink:title="Common template for filters involving traversing relationship graph." xlink:type="simple"><g id="elem_C_0001497352705437766113"><rect codeLine="42" fill="#F1F1F1" height="48" id="C_0001497352705437766113" rx="2.5" ry="2.5" style="stroke:#181818;stroke-width:0.5;" width="717.4521" x="278" y="573.2969"/><ellipse cx="293" cy="589.2969" fill="#ADD1B2" rx="11" ry="11" style="stroke:#181818;stroke-width:1;"/><path d="M295.9688,594.9375 Q295.3906,595.2344 294.75,595.375 Q294.1094,595.5313 293.4063,595.5313 Q290.9063,595.5313 289.5781,593.8906 Q288.2656,592.2344 288.2656,589.1094 Q288.2656,585.9844 289.5781,584.3281 Q290.9063,582.6719 293.4063,582.6719 Q294.1094,582.6719 294.75,582.8281 Q295.4063,582.9844 295.9688,583.2813 L295.9688,586 Q295.3438,585.4219 294.75,585.1563 Q294.1563,584.875 293.5313,584.875 Q292.1875,584.875 291.5,585.9531 Q290.8125,587.0156 290.8125,589.1094 Q290.8125,591.2031 291.5,592.2813 Q292.1875,593.3438 293.5313,593.3438 Q294.1563,593.3438 294.75,593.0781 Q295.3438,592.7969 295.9688,592.2188 L295.9688,594.9375 Z " fill="#000000"/><text fill="#000000" font-family="sans-serif" font-size="14" lengthAdjust="spacing" textLength="143.8076" x="307" y="594.1436">edge_traversal_filter</text><rect fill="#FFFFFF" height="15.9688" style="stroke:#181818;stroke-width:1;stroke-dasharray:2.0,2.0;" width="539.6445" x="458.8076" y="570.2969"/><text fill="#000000" font-family="sans-serif" font-size="12" font-style="italic" lengthAdjust="spacing" textLength="537.6445" x="459.8076" y="582.4355">DiagramT,ElementT,ConfigEntryT=std::string,MatchOverrideT=common::model::element</text><line style="stroke:#181818;stroke-width:0.5;" x1="279" x2="994.4521" y1="605.2969" y2="605.2969"/><line style="stroke:#181818;stroke-width:0.5;" x1="279" x2="994.4521" y1="613.2969" y2="613.2969"/></g></a><!--class C_0001195713008101262477--><a href="structclanguml_1_1common_1_1model_1_1relationship__filter.html" target="_top" title="relationship_filter" xlink:actuate="onRequest" xlink:href="structclanguml_1_1common_1_1model_1_1relationship__filter.html" xlink:show="new" xlink:title="relationship_filter" xlink:type="simple"><g id="elem_C_0001195713008101262477"><rect codeLine="46" fill="#F1F1F1" height="48" id="C_0001195713008101262477" rx="2.5" ry="2.5" style="stroke:#181818;stroke-width:0.5;" width="154.165" x="559.5" y="490.2969"/><ellipse cx="574.5" cy="506.2969" fill="#ADD1B2" rx="11" ry="11" style="stroke:#181818;stroke-width:1;"/><path d="M577.4688,511.9375 Q576.8906,512.2344 576.25,512.375 Q575.6094,512.5313 574.9063,512.5313 Q572.4063,512.5313 571.0781,510.8906 Q569.7656,509.2344 569.7656,506.1094 Q569.7656,502.9844 571.0781,501.3281 Q572.4063,499.6719 574.9063,499.6719 Q575.6094,499.6719 576.25,499.8281 Q576.9063,499.9844 577.4688,500.2813 L577.4688,503 Q576.8438,502.4219 576.25,502.1563 Q575.6563,501.875 575.0313,501.875 Q573.6875,501.875 573,502.9531 Q572.3125,504.0156 572.3125,506.1094 Q572.3125,508.2031 573,509.2813 Q573.6875,510.3438 575.0313,510.3438 Q575.6563,510.3438 576.25,510.0781 Q576.8438,509.7969 577.4688,509.2188 L577.4688,511.9375 Z " fill="#000000"/><text fill="#000000" font-family="sans-serif" font-size="14" lengthAdjust="spacing" textLength="122.165" x="588.5" y="511.1436">relationship_filter</text><line style="stroke:#181818;stroke-width:0.5;" x1="560.5" x2="712.665" y1="522.2969" y2="522.2969"/><line style="stroke:#181818;stroke-width:0.5;" x1="560.5" x2="712.665" y1="530.2969" y2="530.2969"/></g></a><!--class C_0001098184343448999590--><a href="structclanguml_1_1common_1_1model_1_1access__filter.html" target="_top" title="access_filter" xlink:actuate="onRequest" xlink:href="structclanguml_1_1common_1_1model_1_1access__filter.html" xlink:show="new" xlink:title="access_filter" xlink:type="simple"><g id="elem_C_0001098184343448999590"><rect codeLine="50" fill="#F1F1F1" height="48" id="C_0001098184343448999590" rx="2.5" ry="2.5" style="stroke:#181818;stroke-width:0.5;" width="118.7412" x="1219.5" y="204.2969"/><ellipse cx="1234.5" cy="220.2969" fill="#ADD1B2" rx="11" ry="11" style="stroke:#181818;stroke-width:1;"/><path d="M1237.4688,225.9375 Q1236.8906,226.2344 1236.25,226.375 Q1235.6094,226.5313 1234.9063,226.5313 Q1232.4063,226.5313 1231.0781,224.8906 Q1229.7656,223.2344 1229.7656,220.1094 Q1229.7656,216.9844 1231.0781,215.3281 Q1232.4063,213.6719 1234.9063,213.6719 Q1235.6094,213.6719 1236.25,213.8281 Q1236.9063,213.9844 1237.4688,214.2813 L1237.4688,217 Q1236.8438,216.4219 1236.25,216.1563 Q1235.6563,215.875 1235.0313,215.875 Q1233.6875,215.875 1233,216.9531 Q1232.3125,218.0156 1232.3125,220.1094 Q1232.3125,222.2031 1233,223.2813 Q1233.6875,224.3438 1235.0313,224.3438 Q1235.6563,224.3438 1236.25,224.0781 Q1236.8438,223.7969 1237.4688,223.2188 L1237.4688,225.9375 Z " fill="#000000"/><text fill="#000000" font-family="sans-serif" font-size="14" lengthAdjust="spacing" textLength="86.7412" x="1248.5" y="225.1436">access_filter</text><line style="stroke:#181818;stroke-width:0.5;" x1="1220.5" x2="1337.2412" y1="236.2969" y2="236.2969"/><line style="stroke:#181818;stroke-width:0.5;" x1="1220.5" x2="1337.2412" y1="244.2969" y2="244.2969"/></g></a><!--class C_0002078668697238559556--><a href="structclanguml_1_1common_1_1model_1_1context__filter.html" target="_top" title="context_filter" xlink:actuate="onRequest" xlink:href="structclanguml_1_1common_1_1model_1_1context__filter.html" xlink:show="new" xlink:title="context_filter" xlink:type="simple"><g id="elem_C_0002078668697238559556"><rect codeLine="54" fill="#F1F1F1" height="48" id="C_0002078668697238559556" rx="2.5" ry="2.5" style="stroke:#181818;stroke-width:0.5;" width="124.5791" x="574" y="370.2969"/><ellipse cx="589" cy="386.2969" fill="#ADD1B2" rx="11" ry="11" style="stroke:#181818;stroke-width:1;"/><path d="M591.9688,391.9375 Q591.3906,392.2344 590.75,392.375 Q590.1094,392.5313 589.4063,392.5313 Q586.9063,392.5313 585.5781,390.8906 Q584.2656,389.2344 584.2656,386.1094 Q584.2656,382.9844 585.5781,381.3281 Q586.9063,379.6719 589.4063,379.6719 Q590.1094,379.6719 590.75,379.8281 Q591.4063,379.9844 591.9688,380.2813 L591.9688,383 Q591.3438,382.4219 590.75,382.1563 Q590.1563,381.875 589.5313,381.875 Q588.1875,381.875 587.5,382.9531 Q586.8125,384.0156 586.8125,386.1094 Q586.8125,388.2031 587.5,389.2813 Q588.1875,390.3438 589.5313,390.3438 Q590.1563,390.3438 590.75,390.0781 Q591.3438,389.7969 591.9688,389.2188 L591.9688,391.9375 Z " fill="#000000"/><text fill="#000000" font-family="sans-serif" font-size="14" lengthAdjust="spacing" textLength="92.5791" x="603" y="391.1436">context_filter</text><line style="stroke:#181818;stroke-width:0.5;" x1="575" x2="697.5791" y1="402.2969" y2="402.2969"/><line style="stroke:#181818;stroke-width:0.5;" x1="575" x2="697.5791" y1="410.2969" y2="410.2969"/></g></a><!--class C_0000831536458766184760--><a href="structclanguml_1_1common_1_1model_1_1paths__filter.html" target="_top" title="paths_filter" xlink:actuate="onRequest" xlink:href="structclanguml_1_1common_1_1model_1_1paths__filter.html" xlink:show="new" xlink:title="paths_filter" xlink:type="simple"><g id="elem_C_0000831536458766184760"><rect codeLine="58" fill="#F1F1F1" height="48" id="C_0000831536458766184760" rx="2.5" ry="2.5" style="stroke:#181818;stroke-width:0.5;" width="110.6885" x="581" y="287.2969"/><ellipse cx="596" cy="303.2969" fill="#ADD1B2" rx="11" ry="11" style="stroke:#181818;stroke-width:1;"/><path d="M598.9688,308.9375 Q598.3906,309.2344 597.75,309.375 Q597.1094,309.5313 596.4063,309.5313 Q593.9063,309.5313 592.5781,307.8906 Q591.2656,306.2344 591.2656,303.1094 Q591.2656,299.9844 592.5781,298.3281 Q593.9063,296.6719 596.4063,296.6719 Q597.1094,296.6719 597.75,296.8281 Q598.4063,296.9844 598.9688,297.2813 L598.9688,300 Q598.3438,299.4219 597.75,299.1563 Q597.1563,298.875 596.5313,298.875 Q595.1875,298.875 594.5,299.9531 Q593.8125,301.0156 593.8125,303.1094 Q593.8125,305.2031 594.5,306.2813 Q595.1875,307.3438 596.5313,307.3438 Q597.1563,307.3438 597.75,307.0781 Q598.3438,306.7969 598.9688,306.2188 L598.9688,308.9375 Z " fill="#000000"/><text fill="#000000" font-family="sans-serif" font-size="14" lengthAdjust="spacing" textLength="78.6885" x="610" y="308.1436">paths_filter</text><line style="stroke:#181818;stroke-width:0.5;" x1="582" x2="690.6885" y1="319.2969" y2="319.2969"/><line style="stroke:#181818;stroke-width:0.5;" x1="582" x2="690.6885" y1="327.2969" y2="327.2969"/></g></a><!--class C_0001578839365087446026--><a href="structclanguml_1_1common_1_1model_1_1class__method__filter.html" target="_top" title="class_method_filter" xlink:actuate="onRequest" xlink:href="structclanguml_1_1common_1_1model_1_1class__method__filter.html" xlink:show="new" xlink:title="class_method_filter" xlink:type="simple"><g id="elem_C_0001578839365087446026"><rect codeLine="62" fill="#F1F1F1" height="48" id="C_0001578839365087446026" rx="2.5" ry="2.5" style="stroke:#181818;stroke-width:0.5;" width="167.3857" x="553" y="204.2969"/><ellipse cx="568" cy="220.2969" fill="#ADD1B2" rx="11" ry="11" style="stroke:#181818;stroke-width:1;"/><path d="M570.9688,225.9375 Q570.3906,226.2344 569.75,226.375 Q569.1094,226.5313 568.4063,226.5313 Q565.9063,226.5313 564.5781,224.8906 Q563.2656,223.2344 563.2656,220.1094 Q563.2656,216.9844 564.5781,215.3281 Q565.9063,213.6719 568.4063,213.6719 Q569.1094,213.6719 569.75,213.8281 Q570.4063,213.9844 570.9688,214.2813 L570.9688,217 Q570.3438,216.4219 569.75,216.1563 Q569.1563,215.875 568.5313,215.875 Q567.1875,215.875 566.5,216.9531 Q565.8125,218.0156 565.8125,220.1094 Q565.8125,222.2031 566.5,223.2813 Q567.1875,224.3438 568.5313,224.3438 Q569.1563,224.3438 569.75,224.0781 Q570.3438,223.7969 570.9688,223.2188 L570.9688,225.9375 Z " fill="#000000"/><text fill="#000000" font-family="sans-serif" font-size="14" lengthAdjust="spacing" textLength="135.3857" x="582" y="225.1436">class_method_filter</text><line style="stroke:#181818;stroke-width:0.5;" x1="554" x2="719.3857" y1="236.2969" y2="236.2969"/><line style="stroke:#181818;stroke-width:0.5;" x1="554" x2="719.3857" y1="244.2969" y2="244.2969"/></g></a><!--class C_0000676683242499586467--><a href="structclanguml_1_1common_1_1model_1_1class__member__filter.html" target="_top" title="class_member_filter" xlink:actuate="onRequest" xlink:href="structclanguml_1_1common_1_1model_1_1class__member__filter.html" xlink:show="new" xlink:title="class_member_filter" xlink:type="simple"><g id="elem_C_0000676683242499586467"><rect codeLine="66" fill="#F1F1F1" height="48" id="C_0000676683242499586467" rx="2.5" ry="2.5" style="stroke:#181818;stroke-width:0.5;" width="172.4648" x="550.5" y="121.2969"/><ellipse cx="565.5" cy="137.2969" fill="#ADD1B2" rx="11" ry="11" style="stroke:#181818;stroke-width:1;"/><path d="M568.4688,142.9375 Q567.8906,143.2344 567.25,143.375 Q566.6094,143.5313 565.9063,143.5313 Q563.4063,143.5313 562.0781,141.8906 Q560.7656,140.2344 560.7656,137.1094 Q560.7656,133.9844 562.0781,132.3281 Q563.4063,130.6719 565.9063,130.6719 Q566.6094,130.6719 567.25,130.8281 Q567.9063,130.9844 568.4688,131.2813 L568.4688,134 Q567.8438,133.4219 567.25,133.1563 Q566.6563,132.875 566.0313,132.875 Q564.6875,132.875 564,133.9531 Q563.3125,135.0156 563.3125,137.1094 Q563.3125,139.2031 564,140.2813 Q564.6875,141.3438 566.0313,141.3438 Q566.6563,141.3438 567.25,141.0781 Q567.8438,140.7969 568.4688,140.2188 L568.4688,142.9375 Z " fill="#000000"/><text fill="#000000" font-family="sans-serif" font-size="14" lengthAdjust="spacing" textLength="140.4648" x="579.5" y="142.1436">class_member_filter</text><line style="stroke:#181818;stroke-width:0.5;" x1="551.5" x2="721.9648" y1="153.2969" y2="153.2969"/><line style="stroke:#181818;stroke-width:0.5;" x1="551.5" x2="721.9648" y1="161.2969" y2="161.2969"/></g></a><!--reverse link C_0000605829206649563575 to C_0000469458052685692314--><g id="link_C_0000605829206649563575_C_0000469458052685692314"><path codeLine="71" d="M568.6108,681.053 C467.2508,682.203 263.69,684.4969 161.07,685.6569 " fill="transparent" id="C_0000605829206649563575-backto-C_0000469458052685692314" style="stroke:#181818;stroke-width:1;"/><polygon fill="transparent" points="580.61,680.9169,574.565,676.9852,568.6108,681.053,574.6558,684.9847,580.61,680.9169" style="stroke:#181818;stroke-width:1;"/><rect fill="transparent" height="6" style="stroke:#C82930;stroke-width:1;" width="6" x="194" y="674.3633"/><text fill="#000000" font-family="sans-serif" font-size="13" lengthAdjust="spacing" textLength="43.5132" x="204" y="681.3638">filters_</text></g><!--reverse link C_0000469458052685692314 to C_0000605829206649563575--><g id="link_C_0000469458052685692314_C_0000605829206649563575"><path codeLine="72" d="M179.1814,692.8692 C189.0914,693.5992 181.37,692.9069 191,693.2969 C331.4,698.9669 496.83,690.0069 580.74,684.3469 " fill="transparent" id="C_0000469458052685692314-backto-C_0000605829206649563575" style="stroke:#181818;stroke-width:1;"/><polygon fill="transparent" points="161.23,691.5469,178.7406,698.853,179.6221,686.8854,161.23,691.5469" style="stroke:#181818;stroke-width:1;"/></g><!--reverse link C_0000469458052685692314 to C_0001816240256470820189--><g id="link_C_0000469458052685692314_C_0001816240256470820189"><path codeLine="73" d="M104.6945,728.3352 C105.5945,794.5952 114.88,965.5169 191,1096.2969 C263.34,1220.5769 453.7,1228.9169 560.36,1222.9169 " fill="transparent" id="C_0000469458052685692314-backto-C_0001816240256470820189" style="stroke:#181818;stroke-width:1;"/><polygon fill="transparent" points="104.45,710.3369,98.695,728.4167,110.6939,728.2537,104.45,710.3369" style="stroke:#181818;stroke-width:1;"/></g><!--reverse link C_0000469458052685692314 to C_0000690341236618660423--><g id="link_C_0000469458052685692314_C_0000690341236618660423"><path codeLine="74" d="M104.38,728.3963 C104.89,789.6063 113.71,935.5769 191,1039.2969 C278.04,1156.0869 470.95,1152.7469 571.6,1141.8369 " fill="transparent" id="C_0000469458052685692314-backto-C_0000690341236618660423" style="stroke:#181818;stroke-width:1;"/><polygon fill="transparent" points="104.23,710.3969,98.3802,728.4462,110.3798,728.3463,104.23,710.3969" style="stroke:#181818;stroke-width:1;"/></g><!--reverse link C_0000469458052685692314 to C_0002051668456717902300--><g id="link_C_0000469458052685692314_C_0002051668456717902300"><path codeLine="75" d="M110.2351,728.4317 C119.5951,795.0317 146.46,960.2169 191,998.2969 C291.23,1083.9769 453.97,1078.4569 552.26,1065.0069 " fill="transparent" id="C_0000469458052685692314-backto-C_0002051668456717902300" style="stroke:#181818;stroke-width:1;"/><polygon fill="transparent" points="107.73,710.6069,104.2935,729.2667,116.1767,727.5967,107.73,710.6069" style="stroke:#181818;stroke-width:1;"/></g><!--reverse link C_0000469458052685692314 to C_0001897369211795036987--><g id="link_C_0000469458052685692314_C_0001897369211795036987"><path codeLine="76" d="M113.7146,727.9656 C127.8046,787.6656 169.61,923.2669 278,970.2969 C351.08,1002.0069 922.37,1003.0269 995,970.2969 C1134.63,907.3769 1233.14,737.7569 1266.01,674.5069 " fill="transparent" id="C_0000469458052685692314-backto-C_0001897369211795036987" style="stroke:#181818;stroke-width:1;"/><polygon fill="transparent" points="109.58,710.4469,107.8751,729.3438,119.5542,726.5874,109.58,710.4469" style="stroke:#181818;stroke-width:1;"/></g><!--reverse link C_0000469458052685692314 to C_0001198341195117879139--><g id="link_C_0000469458052685692314_C_0001198341195117879139"><path codeLine="77" d="M125.2427,726.2705 C149.1827,770.6705 198.46,848.4769 278,887.2969 C376.14,935.1969 506.88,937.2669 579.98,933.7669 " fill="transparent" id="C_0000469458052685692314-backto-C_0001198341195117879139" style="stroke:#181818;stroke-width:1;"/><polygon fill="transparent" points="116.7,710.4269,119.9615,729.1181,130.524,723.423,116.7,710.4269" style="stroke:#181818;stroke-width:1;"/></g><!--reverse link C_0000469458052685692314 to C_0001389919526184251760--><g id="link_C_0000469458052685692314_C_0001389919526184251760"><path codeLine="78" d="M144.6335,722.2313 C176.8035,750.0113 220.32,782.7769 278,804.2969 C375.49,840.6669 497.39,847.4969 570.71,847.8269 " fill="transparent" id="C_0000469458052685692314-backto-C_0001389919526184251760" style="stroke:#181818;stroke-width:1;"/><polygon fill="transparent" points="131.01,710.4669,140.712,726.7724,148.5549,717.6901,131.01,710.4669" style="stroke:#181818;stroke-width:1;"/></g><!--reverse link C_0000469458052685692314 to C_0001773753487119877542--><g id="link_C_0000469458052685692314_C_0001773753487119877542"><path codeLine="79" d="M178.9311,702.7552 C212.7011,709.9852 238.85,715.0569 278,721.2969 C381.37,737.7669 502.52,750.6669 573.93,757.6169 " fill="transparent" id="C_0000469458052685692314-backto-C_0001773753487119877542" style="stroke:#181818;stroke-width:1;"/><polygon fill="transparent" points="161.33,698.9869,177.675,708.6222,180.1872,696.8882,161.33,698.9869" style="stroke:#181818;stroke-width:1;"/></g><!--reverse link C_0000469458052685692314 to C_0001497352705437766113--><g id="link_C_0000469458052685692314_C_0001497352705437766113"><path codeLine="80" d="M178.418,663.7621 C188.338,660.8221 181.33,662.9769 191,660.2969 C229.44,649.6669 238.77,645.4769 278,638.2969 C313.49,631.8069 351.16,626.1569 388.22,621.2969 " fill="transparent" id="C_0000469458052685692314-backto-C_0001497352705437766113" style="stroke:#181818;stroke-width:1;"/><polygon fill="transparent" points="161.16,668.8769,180.1229,669.5148,176.7131,658.0094,161.16,668.8769" style="stroke:#181818;stroke-width:1;"/></g><!--reverse link C_0000469458052685692314 to C_0001195713008101262477--><g id="link_C_0000469458052685692314_C_0001195713008101262477"><path codeLine="81" d="M140.5402,649.4417 C171.5902,618.7917 217.02,579.6869 278,555.2969 C369.94,518.5269 485.07,511.5669 559.44,511.6069 " fill="transparent" id="C_0000469458052685692314-backto-C_0001195713008101262477" style="stroke:#181818;stroke-width:1;"/><polygon fill="transparent" points="127.73,662.0869,144.7552,653.7118,136.3251,645.1717,127.73,662.0869" style="stroke:#181818;stroke-width:1;"/></g><!--reverse link C_0000469458052685692314 to C_0001098184343448999590--><g id="link_C_0000469458052685692314_C_0001098184343448999590"><path codeLine="82" d="M123.2835,645.736 C145.8935,598.886 194.81,513.3969 278,472.2969 C366.6,428.5269 1083.54,500.1969 1167,447.2969 C1237.03,402.9169 1264.72,299.5569 1273.98,252.4569 " fill="transparent" id="C_0000469458052685692314-backto-C_0001098184343448999590" style="stroke:#181818;stroke-width:1;"/><polygon fill="transparent" points="115.46,661.9469,128.6871,648.3438,117.8798,643.1281,115.46,661.9469" style="stroke:#181818;stroke-width:1;"/></g><!--reverse link C_0000469458052685692314 to C_0002078668697238559556--><g id="link_C_0000469458052685692314_C_0002078668697238559556"><path codeLine="83" d="M106.3227,644.1189 C109.2827,594.5389 122.54,499.5569 191,445.2969 C301.94,357.3669 480.2,368.7869 573.71,382.6669 " fill="transparent" id="C_0000469458052685692314-backto-C_0002078668697238559556" style="stroke:#181818;stroke-width:1;"/><polygon fill="transparent" points="105.25,662.0869,112.3121,644.4764,100.3334,643.7613,105.25,662.0869" style="stroke:#181818;stroke-width:1;"/></g><!--reverse link C_0000469458052685692314 to C_0000831536458766184760--><g id="link_C_0000469458052685692314_C_0000831536458766184760"><path codeLine="84" d="M110.245,644.4723 C117.545,595.3323 136.82,499.1569 191,421.2969 C219.19,380.7869 232.4,371.1669 278,352.2969 C378.88,310.5569 508.62,306.6969 580.81,308.4469 " fill="transparent" id="C_0000469458052685692314-backto-C_0000831536458766184760" style="stroke:#181818;stroke-width:1;"/><polygon fill="transparent" points="107.6,662.2769,116.1798,645.3539,104.3101,643.5906,107.6,662.2769" style="stroke:#181818;stroke-width:1;"/></g><!--reverse link C_0001578839365087446026 to C_0001098184343448999590--><g id="link_C_0001578839365087446026_C_0001098184343448999590"><path codeLine="85" d="M732.25,228.2969 C863.63,228.2969 1104.76,228.2969 1219.23,228.2969 " fill="transparent" id="C_0001578839365087446026-backto-C_0001098184343448999590" style="stroke:#181818;stroke-width:1;"/><polygon fill="transparent" points="720.25,228.2969,726.25,232.2969,732.25,228.2969,726.25,224.2969,720.25,228.2969" style="stroke:#181818;stroke-width:1;"/><rect fill="transparent" height="6" style="stroke:#C82930;stroke-width:1;" width="6" x="1048.5" y="217.3633"/><text fill="#000000" font-family="sans-serif" font-size="13" lengthAdjust="spacing" textLength="87.0454" x="1058.5" y="224.3638">access_filter_</text></g><!--reverse link C_0001578839365087446026 to C_0001897369211795036987--><g id="link_C_0001578839365087446026_C_0001897369211795036987"><path codeLine="86" d="M732.235,219.2776 C808.635,215.4576 910.71,220.6869 995,269.2969 C1144.9,355.7369 1239.3,556.7369 1268.39,626.1869 " fill="transparent" id="C_0001578839365087446026-backto-C_0001897369211795036987" style="stroke:#181818;stroke-width:1;"/><polygon fill="transparent" points="720.25,219.8769,726.4423,223.5723,732.235,219.2776,726.0428,215.5822,720.25,219.8769" style="stroke:#181818;stroke-width:1;"/><rect fill="transparent" height="6" style="stroke:#C82930;stroke-width:1;" width="6" x="1028" y="279.3633"/><text fill="#000000" font-family="sans-serif" font-size="13" lengthAdjust="spacing" textLength="128.9844" x="1038" y="286.3638">method_type_filter_</text></g><!--reverse link C_0000469458052685692314 to C_0001578839365087446026--><g id="link_C_0000469458052685692314_C_0001578839365087446026"><path codeLine="87" d="M106.1847,644.2806 C110.0847,568.4606 132.95,352.4869 278,269.2969 C362.4,220.8869 476.43,216.2069 552.8,219.9669 " fill="transparent" id="C_0000469458052685692314-backto-C_0001578839365087446026" style="stroke:#181818;stroke-width:1;"/><polygon fill="transparent" points="105.26,662.2569,112.1767,644.5889,100.1926,643.9724,105.26,662.2569" style="stroke:#181818;stroke-width:1;"/></g><!--reverse link C_0000676683242499586467 to C_0001098184343448999590--><g id="link_C_0000676683242499586467_C_0001098184343448999590"><path codeLine="88" d="M734.6907,152.6377 C839.6607,161.1577 1011.25,177.3069 1167,203.2969 C1184.15,206.1569 1202.62,210.0069 1219.48,213.8269 " fill="transparent" id="C_0000676683242499586467-backto-C_0001098184343448999590" style="stroke:#181818;stroke-width:1;"/><polygon fill="transparent" points="722.73,151.6669,728.3867,156.1392,734.6907,152.6377,729.0339,148.1654,722.73,151.6669" style="stroke:#181818;stroke-width:1;"/><rect fill="transparent" height="6" style="stroke:#C82930;stroke-width:1;" width="6" x="1048.5" y="173.3633"/><text fill="#000000" font-family="sans-serif" font-size="13" lengthAdjust="spacing" textLength="87.0454" x="1058.5" y="180.3638">access_filter_</text></g><!--reverse link C_0000469458052685692314 to C_0000676683242499586467--><g id="link_C_0000469458052685692314_C_0000676683242499586467"><path codeLine="89" d="M109.163,644.0178 C116.243,583.2478 137.07,438.9669 191,315.2969 C218.64,251.9069 218.89,222.1969 278,186.2969 C360.5,136.1869 473.63,131.6269 550.37,135.8969 " fill="transparent" id="C_0000469458052685692314-backto-C_0000676683242499586467" style="stroke:#181818;stroke-width:1;"/><polygon fill="transparent" points="107.08,661.8969,115.1227,644.7121,103.2033,643.3235,107.08,661.8969" style="stroke:#181818;stroke-width:1;"/></g><!--SRC=[dPPDRziu48Rl_XL4B-qYiS5lKaQxXyqMUsdHItOlGI38Ccq9gmz3Oh8Dkkrltx4a9w99Rzd6GA1aE9w7evbtnfQsCkZtCjjtMOrsPMLDXnxBlhHjX_8gwtjKbARBkhnuMbHcPv5jKLVk2uksPMToMxRDuf3bVsTxW-xojgxRvXvbFRf9CVmm8YKMcF64Oagfv1fzUJbUjrjJpKvZpHGb6alEi21KCmAdHuXN8reweRrwSU8ouK9ZGQKMCg6CyCdbaXdTtGq7u5UpVwYhbAHa13y-3Kp7XodWAUAgi7NrvRUiDrDQTf2Wh7c2DCnpj_fwVm_GQRhuUYA7G-qk7SqpRiYBff0MANaY91DAEDo-6RXxsptazZlWOxmfu8WzH_01cwmsFRmKuq4IJIJbc0h95TOK_axca05pBEHBJ0Vq7CM7DPMfJMC3-KoWp0XbKX8DHSSfS_FfcMDHJn4TK1VZCgPzElXffL3TKcekf28gmPHXF6SDc7-OTOWR99uH-TYriKMx3LF3srKCMeW05BIqJBHoYy4pnr9FKGFGFe_Fd6TLPGAu9D7mnaaYW4YhX32tTdrpBEuKq05r87p6_c4pFFcKJ2S9G50eIqu5KT8fXO0vbl8vfCDv1kAJ7h8EgYG0gXHJWd6jZfbJId3gWFhcMD1JH8VJnGZqrtPlKjjbZwRhisewzdQQOxVNxyTYlxs-QPjTkN_VsExfzbrlj-irC9ND_lfZPlFY4xXtvTRSlXkvrkk1QhsUckNNsVqvbBUW2WlEb08L8Ow-1CpHFNkyokmkJXvkXlF8clfGPTOCKsUqzwXi7jlg4Iw39kVZOsVW70pblYWF299nA08ZQNuer3X24H0TJJ2X8F1AdJNEkJdsfavOvve1eC0WpNCJQY6SQEWE1XyEtPA8n6qXtnmzISU0xYYTGmJ4g6si-Mm3agzWx6YPACgq48aGqfLypnojHbD4LuuSZ52NsyBF9EnVH309-zAnWZK_4wE0ERx7Z_7EElm58P37GQGc-VVUk51QiuH9WRNYN6Bg93DWZaxcg9YdWUIar2UwZ5rlO7NqLnJ8csQKKmvbg2MNobrHFFCFOmznWzWpeXdsyNDntsoNoyjBz1ej9nrA5nSFlVtt-Ii2wsw4MsW1ZOhcBuCHRg6zB0hINunYt08BIenRO6E8SGlCxnYtmDYBkvitGsBS0b8UzTvySOsfae3SNHIGzdyOZytWp8Kqvdi2-p9yZx_nHlLNI18lgihFtELx3UTBs-Br7wOn7MmjM_HFQGiqYDWILEmQ3TiAx3LunLTugPPxdSaDbDhYzOSFVtryDl-vUMZim-Zu_4yYLtWbqPkhAtfiKKM03PxKbSetEv9HaH11b-IR-NmWtqv7G4Omrok2nI__0G00]--></g></svg>