<svg xmlns="http://www.w3.org/2000/svg" xmlns:xlink="http://www.w3.org/1999/xlink" contentStyleType="text/css" data-diagram-type="DESCRIPTION" height="1112px" preserveAspectRatio="none" style="width:2076px;height:1112px;background:#FFFFFF;" version="1.1" viewBox="0 0 2076 1112" width="2076px" zoomAndPan="magnify"><title>Include graph</title><defs/><g><text fill="#000000" font-family="sans-serif" font-size="14" font-weight="bold" lengthAdjust="spacing" textLength="108.9922" x="976.6339" y="22.9951">Include graph</text><!--cluster C_0001387619747296316447--><g id="cluster_C_0001387619747296316447"><path d="M61.7,43.2969 L86.2361,43.2969 A3.75,3.75 0 0 1 88.7361,45.7969 L95.7361,65.5938 L2035.7,65.5938 A2.5,2.5 0 0 1 2038.2,68.0938 L2038.2,1102.7969 A2.5,2.5 0 0 1 2035.7,1105.2969 L61.7,1105.2969 A2.5,2.5 0 0 1 59.2,1102.7969 L59.2,45.7969 A2.5,2.5 0 0 1 61.7,43.2969 " fill="transparent" style="stroke:#000000;stroke-width:1.5;"/><line style="stroke:#000000;stroke-width:1.5;" x1="59.2" x2="95.7361" y1="65.5938" y2="65.5938"/><text fill="#000000" font-family="sans-serif" font-size="14" font-weight="bold" lengthAdjust="spacing" textLength="23.5361" x="63.2" y="58.292">src</text></g><!--cluster C_0000801280654497083899--><g id="cluster_C_0000801280654497083899"><path d="M1167.7,129.2969 L1217.4949,129.2969 A3.75,3.75 0 0 1 1219.9949,131.7969 L1226.9949,151.5938 L1845.7,151.5938 A2.5,2.5 0 0 1 1848.2,154.0938 L1848.2,405.7969 A2.5,2.5 0 0 1 1845.7,408.2969 L1167.7,408.2969 A2.5,2.5 0 0 1 1165.2,405.7969 L1165.2,131.7969 A2.5,2.5 0 0 1 1167.7,129.2969 " fill="transparent" style="stroke:#000000;stroke-width:1.5;"/><line style="stroke:#000000;stroke-width:1.5;" x1="1165.2" x2="1226.9949" y1="151.5938" y2="151.5938"/><text fill="#000000" font-family="sans-serif" font-size="14" font-weight="bold" lengthAdjust="spacing" textLength="48.7949" x="1169.2" y="144.292">config</text></g><!--cluster C_0000096980164506861403--><g id="cluster_C_0000096980164506861403"><path d="M111.7,86.2969 L224.1395,86.2969 A3.75,3.75 0 0 1 226.6395,88.7969 L233.6395,108.5938 L678.7,108.5938 A2.5,2.5 0 0 1 681.2,111.0938 L681.2,679.7969 A2.5,2.5 0 0 1 678.7,682.2969 L111.7,682.2969 A2.5,2.5 0 0 1 109.2,679.7969 L109.2,88.7969 A2.5,2.5 0 0 1 111.7,86.2969 " fill="transparent" style="stroke:#000000;stroke-width:1.5;"/><line style="stroke:#000000;stroke-width:1.5;" x1="109.2" x2="233.6395" y1="108.5938" y2="108.5938"/><text fill="#000000" font-family="sans-serif" font-size="14" font-weight="bold" lengthAdjust="spacing" textLength="111.4395" x="113.2" y="101.292">class_diagram</text></g><!--cluster C_0001888420740816648525--><g id="cluster_C_0001888420740816648525"><path d="M135.7,129.2969 L185.2215,129.2969 A3.75,3.75 0 0 1 187.7215,131.7969 L194.7215,151.5938 L654.7,151.5938 A2.5,2.5 0 0 1 657.2,154.0938 L657.2,655.7969 A2.5,2.5 0 0 1 654.7,658.2969 L135.7,658.2969 A2.5,2.5 0 0 1 133.2,655.7969 L133.2,131.7969 A2.5,2.5 0 0 1 135.7,129.2969 " fill="transparent" style="stroke:#000000;stroke-width:1.5;"/><line style="stroke:#000000;stroke-width:1.5;" x1="133.2" x2="194.7215" y1="151.5938" y2="151.5938"/><text fill="#000000" font-family="sans-serif" font-size="14" font-weight="bold" lengthAdjust="spacing" textLength="48.5215" x="137.2" y="144.292">model</text></g><!--cluster C_0000013117996256688204--><g id="cluster_C_0000013117996256688204"><path d="M707.7,432.2969 L775.3777,432.2969 A3.75,3.75 0 0 1 777.8777,434.7969 L784.8777,454.5938 L1763.7,454.5938 A2.5,2.5 0 0 1 1766.2,457.0938 L1766.2,1078.7969 A2.5,2.5 0 0 1 1763.7,1081.2969 L707.7,1081.2969 A2.5,2.5 0 0 1 705.2,1078.7969 L705.2,434.7969 A2.5,2.5 0 0 1 707.7,432.2969 " fill="transparent" style="stroke:#000000;stroke-width:1.5;"/><line style="stroke:#000000;stroke-width:1.5;" x1="705.2" x2="784.8777" y1="454.5938" y2="454.5938"/><text fill="#000000" font-family="sans-serif" font-size="14" font-weight="bold" lengthAdjust="spacing" textLength="66.6777" x="709.2" y="447.292">common</text></g><!--cluster C_0001886670810857822224--><g id="cluster_C_0001886670810857822224"><path d="M921.7,475.2969 L971.2215,475.2969 A3.75,3.75 0 0 1 973.7215,477.7969 L980.7215,497.5938 L1739.7,497.5938 A2.5,2.5 0 0 1 1742.2,500.0938 L1742.2,1054.7969 A2.5,2.5 0 0 1 1739.7,1057.2969 L921.7,1057.2969 A2.5,2.5 0 0 1 919.2,1054.7969 L919.2,477.7969 A2.5,2.5 0 0 1 921.7,475.2969 " fill="transparent" style="stroke:#000000;stroke-width:1.5;"/><line style="stroke:#000000;stroke-width:1.5;" x1="919.2" x2="980.7215" y1="497.5938" y2="497.5938"/><text fill="#000000" font-family="sans-serif" font-size="14" font-weight="bold" lengthAdjust="spacing" textLength="48.5215" x="923.2" y="490.292">model</text></g><!--cluster C_0001519454609565426198--><g id="cluster_C_0001519454609565426198"><path d="M541.7,970.2969 L628.033,970.2969 A3.75,3.75 0 0 1 630.533,972.7969 L637.533,992.5938 L678.7,992.5938 A2.5,2.5 0 0 1 681.2,995.0938 L681.2,1054.7969 A2.5,2.5 0 0 1 678.7,1057.2969 L541.7,1057.2969 A2.5,2.5 0 0 1 539.2,1054.7969 L539.2,972.7969 A2.5,2.5 0 0 1 541.7,970.2969 " fill="transparent" style="stroke:#000000;stroke-width:1.5;"/><line style="stroke:#000000;stroke-width:1.5;" x1="539.2" x2="637.533" y1="992.5938" y2="992.5938"/><text fill="#000000" font-family="sans-serif" font-size="14" font-weight="bold" lengthAdjust="spacing" textLength="85.333" x="543.2" y="985.292">decorators</text></g><!--cluster C_0001768141551611735972--><g id="cluster_C_0001768141551611735972"><path d="M1792.7,859.2969 L1819.9568,859.2969 A3.75,3.75 0 0 1 1822.4568,861.7969 L1829.4568,881.5938 L1875.7,881.5938 A2.5,2.5 0 0 1 1878.2,884.0938 L1878.2,943.7969 A2.5,2.5 0 0 1 1875.7,946.2969 L1792.7,946.2969 A2.5,2.5 0 0 1 1790.2,943.7969 L1790.2,861.7969 A2.5,2.5 0 0 1 1792.7,859.2969 " fill="transparent" style="stroke:#000000;stroke-width:1.5;"/><line style="stroke:#000000;stroke-width:1.5;" x1="1790.2" x2="1829.4568" y1="881.5938" y2="881.5938"/><text fill="#000000" font-family="sans-serif" font-size="14" font-weight="bold" lengthAdjust="spacing" textLength="26.2568" x="1794.2" y="874.292">util</text></g><!--cluster C_0001001666726973712004--><g id="cluster_C_0001001666726973712004"><path d="M1874.7,225.2969 L1893.5965,225.2969 A3.75,3.75 0 0 1 1896.0965,227.7969 L1903.0965,247.5938 L2011.7,247.5938 A2.5,2.5 0 0 1 2014.2,250.0938 L2014.2,309.7969 A2.5,2.5 0 0 1 2011.7,312.2969 L1874.7,312.2969 A2.5,2.5 0 0 1 1872.2,309.7969 L1872.2,227.7969 A2.5,2.5 0 0 1 1874.7,225.2969 " fill="transparent" style="stroke:#000000;stroke-width:1.5;"/><line style="stroke:#000000;stroke-width:1.5;" x1="1872.2" x2="1903.0965" y1="247.5938" y2="247.5938"/><text fill="#000000" font-family="sans-serif" font-size="14" font-weight="bold" lengthAdjust="spacing" textLength="17.8965" x="1876.2" y="240.292">cli</text></g><!--entity C_0001330962329378590766--><a href="" target="_top" title="yaml_emitters.cc" xlink:actuate="onRequest" xlink:href="" xlink:show="new" xlink:title="yaml_emitters.cc" xlink:type="simple"><path d="M1181.2,166.7969 L1181.2,198.0938 A2.5,2.5 0 0 0 1183.7,200.5938 L1318.7186,200.5938 A2.5,2.5 0 0 0 1321.2186,198.0938 L1321.2186,174.2969 L1311.2186,164.2969 L1183.7,164.2969 A2.5,2.5 0 0 0 1181.2,166.7969 " fill="#F1F1F1" style="stroke:#181818;stroke-width:0.5;"/><path d="M1311.2186,164.2969 L1311.2186,171.7969 A2.5,2.5 0 0 0 1313.7186,174.2969 L1321.2186,174.2969 " fill="#F1F1F1" style="stroke:#181818;stroke-width:0.5;"/><text fill="#000000" font-family="sans-serif" font-size="14" lengthAdjust="spacing" textLength="120.0186" x="1191.2" y="187.292">yaml_emitters.cc</text></a><!--entity C_0001517501747809573739--><a href="" target="_top" title="config.h" xlink:actuate="onRequest" xlink:href="" xlink:show="new" xlink:title="config.h" xlink:type="simple"><path d="M1384.2,262.7969 L1384.2,294.0938 A2.5,2.5 0 0 0 1386.7,296.5938 L1457.8641,296.5938 A2.5,2.5 0 0 0 1460.3641,294.0938 L1460.3641,270.2969 L1450.3641,260.2969 L1386.7,260.2969 A2.5,2.5 0 0 0 1384.2,262.7969 " fill="#F1F1F1" style="stroke:#181818;stroke-width:0.5;"/><path d="M1450.3641,260.2969 L1450.3641,267.7969 A2.5,2.5 0 0 0 1452.8641,270.2969 L1460.3641,270.2969 " fill="#F1F1F1" style="stroke:#181818;stroke-width:0.5;"/><text fill="#000000" font-family="sans-serif" font-size="14" lengthAdjust="spacing" textLength="56.1641" x="1394.2" y="283.292">config.h</text></a><!--entity C_0000318140781021252562--><a href="" target="_top" title="option.h" xlink:actuate="onRequest" xlink:href="" xlink:show="new" xlink:title="option.h" xlink:type="simple"><path d="M1754.2,358.7969 L1754.2,390.0938 A2.5,2.5 0 0 0 1756.7,392.5938 L1829.2928,392.5938 A2.5,2.5 0 0 0 1831.7928,390.0938 L1831.7928,366.2969 L1821.7928,356.2969 L1756.7,356.2969 A2.5,2.5 0 0 0 1754.2,358.7969 " fill="#F1F1F1" style="stroke:#181818;stroke-width:0.5;"/><path d="M1821.7928,356.2969 L1821.7928,363.7969 A2.5,2.5 0 0 0 1824.2928,366.2969 L1831.7928,366.2969 " fill="#F1F1F1" style="stroke:#181818;stroke-width:0.5;"/><text fill="#000000" font-family="sans-serif" font-size="14" lengthAdjust="spacing" textLength="57.5928" x="1764.2" y="379.292">option.h</text></a><!--entity C_0000106372156110337374--><a href="" target="_top" title="yaml_decoders.cc" xlink:actuate="onRequest" xlink:href="" xlink:show="new" xlink:title="yaml_decoders.cc" xlink:type="simple"><path d="M1686.2,166.7969 L1686.2,198.0938 A2.5,2.5 0 0 0 1688.7,200.5938 L1829.2488,200.5938 A2.5,2.5 0 0 0 1831.7488,198.0938 L1831.7488,174.2969 L1821.7488,164.2969 L1688.7,164.2969 A2.5,2.5 0 0 0 1686.2,166.7969 " fill="#F1F1F1" style="stroke:#181818;stroke-width:0.5;"/><path d="M1821.7488,164.2969 L1821.7488,171.7969 A2.5,2.5 0 0 0 1824.2488,174.2969 L1831.7488,174.2969 " fill="#F1F1F1" style="stroke:#181818;stroke-width:0.5;"/><text fill="#000000" font-family="sans-serif" font-size="14" lengthAdjust="spacing" textLength="125.5488" x="1696.2" y="187.292">yaml_decoders.cc</text></a><!--entity C_0001184346145051269879--><a href="" target="_top" title="diagram_templates.h" xlink:actuate="onRequest" xlink:href="" xlink:show="new" xlink:title="diagram_templates.h" xlink:type="simple"><path d="M1495.7,262.7969 L1495.7,294.0938 A2.5,2.5 0 0 0 1498.2,296.5938 L1662.2303,296.5938 A2.5,2.5 0 0 0 1664.7303,294.0938 L1664.7303,270.2969 L1654.7303,260.2969 L1498.2,260.2969 A2.5,2.5 0 0 0 1495.7,262.7969 " fill="#F1F1F1" style="stroke:#181818;stroke-width:0.5;"/><path d="M1654.7303,260.2969 L1654.7303,267.7969 A2.5,2.5 0 0 0 1657.2303,270.2969 L1664.7303,270.2969 " fill="#F1F1F1" style="stroke:#181818;stroke-width:0.5;"/><text fill="#000000" font-family="sans-serif" font-size="14" lengthAdjust="spacing" textLength="149.0303" x="1505.7" y="283.292">diagram_templates.h</text></a><!--entity C_0001695007513528524663--><a href="" target="_top" title="schema.h" xlink:actuate="onRequest" xlink:href="" xlink:show="new" xlink:title="schema.h" xlink:type="simple"><path d="M1715.2,262.7969 L1715.2,294.0938 A2.5,2.5 0 0 0 1717.7,296.5938 L1800.7176,296.5938 A2.5,2.5 0 0 0 1803.2176,294.0938 L1803.2176,270.2969 L1793.2176,260.2969 L1717.7,260.2969 A2.5,2.5 0 0 0 1715.2,262.7969 " fill="#F1F1F1" style="stroke:#181818;stroke-width:0.5;"/><path d="M1793.2176,260.2969 L1793.2176,267.7969 A2.5,2.5 0 0 0 1795.7176,270.2969 L1803.2176,270.2969 " fill="#F1F1F1" style="stroke:#181818;stroke-width:0.5;"/><text fill="#000000" font-family="sans-serif" font-size="14" lengthAdjust="spacing" textLength="68.0176" x="1725.2" y="283.292">schema.h</text></a><!--entity C_0001078679885272294116--><a href="" target="_top" title="diagram_templates.cc" xlink:actuate="onRequest" xlink:href="" xlink:show="new" xlink:title="diagram_templates.cc" xlink:type="simple"><path d="M1475.2,166.7969 L1475.2,198.0938 A2.5,2.5 0 0 0 1477.7,200.5938 L1648.2518,200.5938 A2.5,2.5 0 0 0 1650.7518,198.0938 L1650.7518,174.2969 L1640.7518,164.2969 L1477.7,164.2969 A2.5,2.5 0 0 0 1475.2,166.7969 " fill="#F1F1F1" style="stroke:#181818;stroke-width:0.5;"/><path d="M1640.7518,164.2969 L1640.7518,171.7969 A2.5,2.5 0 0 0 1643.2518,174.2969 L1650.7518,174.2969 " fill="#F1F1F1" style="stroke:#181818;stroke-width:0.5;"/><text fill="#000000" font-family="sans-serif" font-size="14" lengthAdjust="spacing" textLength="155.5518" x="1485.2" y="187.292">diagram_templates.cc</text></a><!--entity C_0001884930640857833435--><a href="" target="_top" title="config.cc" xlink:actuate="onRequest" xlink:href="" xlink:show="new" xlink:title="config.cc" xlink:type="simple"><path d="M1356.7,166.7969 L1356.7,198.0938 A2.5,2.5 0 0 0 1359.2,200.5938 L1436.8855,200.5938 A2.5,2.5 0 0 0 1439.3855,198.0938 L1439.3855,174.2969 L1429.3855,164.2969 L1359.2,164.2969 A2.5,2.5 0 0 0 1356.7,166.7969 " fill="#F1F1F1" style="stroke:#181818;stroke-width:0.5;"/><path d="M1429.3855,164.2969 L1429.3855,171.7969 A2.5,2.5 0 0 0 1431.8855,174.2969 L1439.3855,174.2969 " fill="#F1F1F1" style="stroke:#181818;stroke-width:0.5;"/><text fill="#000000" font-family="sans-serif" font-size="14" lengthAdjust="spacing" textLength="62.6855" x="1366.7" y="187.292">config.cc</text></a><!--entity C_0000235288518944558554--><a href="" target="_top" title="diagram.h" xlink:actuate="onRequest" xlink:href="" xlink:show="new" xlink:title="diagram.h" xlink:type="simple"><path d="M549.2,166.7969 L549.2,198.0938 A2.5,2.5 0 0 0 551.7,200.5938 L638.2381,200.5938 A2.5,2.5 0 0 0 640.7381,198.0938 L640.7381,174.2969 L630.7381,164.2969 L551.7,164.2969 A2.5,2.5 0 0 0 549.2,166.7969 " fill="#F1F1F1" style="stroke:#181818;stroke-width:0.5;"/><path d="M630.7381,164.2969 L630.7381,171.7969 A2.5,2.5 0 0 0 633.2381,174.2969 L640.7381,174.2969 " fill="#F1F1F1" style="stroke:#181818;stroke-width:0.5;"/><text fill="#000000" font-family="sans-serif" font-size="14" lengthAdjust="spacing" textLength="71.5381" x="559.2" y="187.292">diagram.h</text></a><!--entity C_0000612476246126510831--><a href="" target="_top" title="class.h" xlink:actuate="onRequest" xlink:href="" xlink:show="new" xlink:title="class.h" xlink:type="simple"><path d="M449.2,358.7969 L449.2,390.0938 A2.5,2.5 0 0 0 451.7,392.5938 L514.7771,392.5938 A2.5,2.5 0 0 0 517.2771,390.0938 L517.2771,366.2969 L507.2771,356.2969 L451.7,356.2969 A2.5,2.5 0 0 0 449.2,358.7969 " fill="#F1F1F1" style="stroke:#181818;stroke-width:0.5;"/><path d="M507.2771,356.2969 L507.2771,363.7969 A2.5,2.5 0 0 0 509.7771,366.2969 L517.2771,366.2969 " fill="#F1F1F1" style="stroke:#181818;stroke-width:0.5;"/><text fill="#000000" font-family="sans-serif" font-size="14" lengthAdjust="spacing" textLength="48.0771" x="459.2" y="379.292">class.h</text></a><!--entity C_0002036238528186413641--><a href="" target="_top" title="class_member.h" xlink:actuate="onRequest" xlink:href="" xlink:show="new" xlink:title="class_member.h" xlink:type="simple"><path d="M149.2,512.7969 L149.2,544.0938 A2.5,2.5 0 0 0 151.7,546.5938 L280.9217,546.5938 A2.5,2.5 0 0 0 283.4217,544.0938 L283.4217,520.2969 L273.4217,510.2969 L151.7,510.2969 A2.5,2.5 0 0 0 149.2,512.7969 " fill="#F1F1F1" style="stroke:#181818;stroke-width:0.5;"/><path d="M273.4217,510.2969 L273.4217,517.7969 A2.5,2.5 0 0 0 275.9217,520.2969 L283.4217,520.2969 " fill="#F1F1F1" style="stroke:#181818;stroke-width:0.5;"/><text fill="#000000" font-family="sans-serif" font-size="14" lengthAdjust="spacing" textLength="114.2217" x="159.2" y="533.292">class_member.h</text></a><!--entity C_0000586299741862872695--><a href="" target="_top" title="class_element.h" xlink:actuate="onRequest" xlink:href="" xlink:show="new" xlink:title="class_element.h" xlink:type="simple"><path d="M238.7,608.7969 L238.7,640.0938 A2.5,2.5 0 0 0 241.2,642.5938 L369.0066,642.5938 A2.5,2.5 0 0 0 371.5066,640.0938 L371.5066,616.2969 L361.5066,606.2969 L241.2,606.2969 A2.5,2.5 0 0 0 238.7,608.7969 " fill="#F1F1F1" style="stroke:#181818;stroke-width:0.5;"/><path d="M361.5066,606.2969 L361.5066,613.7969 A2.5,2.5 0 0 0 364.0066,616.2969 L371.5066,616.2969 " fill="#F1F1F1" style="stroke:#181818;stroke-width:0.5;"/><text fill="#000000" font-family="sans-serif" font-size="14" lengthAdjust="spacing" textLength="112.8066" x="248.7" y="629.292">class_element.h</text></a><!--entity C_0000140301785284925217--><a href="" target="_top" title="class_method.h" xlink:actuate="onRequest" xlink:href="" xlink:show="new" xlink:title="class_method.h" xlink:type="simple"><path d="M474.7,512.7969 L474.7,544.0938 A2.5,2.5 0 0 0 477.2,546.5938 L601.3426,546.5938 A2.5,2.5 0 0 0 603.8426,544.0938 L603.8426,520.2969 L593.8426,510.2969 L477.2,510.2969 A2.5,2.5 0 0 0 474.7,512.7969 " fill="#F1F1F1" style="stroke:#181818;stroke-width:0.5;"/><path d="M593.8426,510.2969 L593.8426,517.7969 A2.5,2.5 0 0 0 596.3426,520.2969 L603.8426,520.2969 " fill="#F1F1F1" style="stroke:#181818;stroke-width:0.5;"/><text fill="#000000" font-family="sans-serif" font-size="14" lengthAdjust="spacing" textLength="109.1426" x="484.7" y="533.292">class_method.h</text></a><!--entity C_0001300096626171124337--><a href="" target="_top" title="method_parameter.h" xlink:actuate="onRequest" xlink:href="" xlink:show="new" xlink:title="method_parameter.h" xlink:type="simple"><path d="M407.2,608.7969 L407.2,640.0938 A2.5,2.5 0 0 0 409.7,642.5938 L572.9988,642.5938 A2.5,2.5 0 0 0 575.4988,640.0938 L575.4988,616.2969 L565.4988,606.2969 L409.7,606.2969 A2.5,2.5 0 0 0 407.2,608.7969 " fill="#F1F1F1" style="stroke:#181818;stroke-width:0.5;"/><path d="M565.4988,606.2969 L565.4988,613.7969 A2.5,2.5 0 0 0 567.9988,616.2969 L575.4988,616.2969 " fill="#F1F1F1" style="stroke:#181818;stroke-width:0.5;"/><text fill="#000000" font-family="sans-serif" font-size="14" lengthAdjust="spacing" textLength="148.2988" x="417.2" y="629.292">method_parameter.h</text></a><!--entity C_0000545073394723083184--><a href="" target="_top" title="class_parent.h" xlink:actuate="onRequest" xlink:href="" xlink:show="new" xlink:title="class_parent.h" xlink:type="simple"><path d="M318.7,512.7969 L318.7,544.0938 A2.5,2.5 0 0 0 321.2,546.5938 L437.4744,546.5938 A2.5,2.5 0 0 0 439.9744,544.0938 L439.9744,520.2969 L429.9744,510.2969 L321.2,510.2969 A2.5,2.5 0 0 0 318.7,512.7969 " fill="#F1F1F1" style="stroke:#181818;stroke-width:0.5;"/><path d="M429.9744,510.2969 L429.9744,517.7969 A2.5,2.5 0 0 0 432.4744,520.2969 L439.9744,520.2969 " fill="#F1F1F1" style="stroke:#181818;stroke-width:0.5;"/><text fill="#000000" font-family="sans-serif" font-size="14" lengthAdjust="spacing" textLength="101.2744" x="328.7" y="533.292">class_parent.h</text></a><!--entity C_0001616841349791035991--><a href="" target="_top" title="concept.h" xlink:actuate="onRequest" xlink:href="" xlink:show="new" xlink:title="concept.h" xlink:type="simple"><path d="M552.7,358.7969 L552.7,390.0938 A2.5,2.5 0 0 0 555.2,392.5938 L639.3455,392.5938 A2.5,2.5 0 0 0 641.8455,390.0938 L641.8455,366.2969 L631.8455,356.2969 L555.2,356.2969 A2.5,2.5 0 0 0 552.7,358.7969 " fill="#F1F1F1" style="stroke:#181818;stroke-width:0.5;"/><path d="M631.8455,356.2969 L631.8455,363.7969 A2.5,2.5 0 0 0 634.3455,366.2969 L641.8455,366.2969 " fill="#F1F1F1" style="stroke:#181818;stroke-width:0.5;"/><text fill="#000000" font-family="sans-serif" font-size="14" lengthAdjust="spacing" textLength="69.1455" x="562.7" y="379.292">concept.h</text></a><!--entity C_0001088426035973322289--><a href="" target="_top" title="enum.h" xlink:actuate="onRequest" xlink:href="" xlink:show="new" xlink:title="enum.h" xlink:type="simple"><path d="M503.7,262.7969 L503.7,294.0938 A2.5,2.5 0 0 0 506.2,296.5938 L574.5203,296.5938 A2.5,2.5 0 0 0 577.0203,294.0938 L577.0203,270.2969 L567.0203,260.2969 L506.2,260.2969 A2.5,2.5 0 0 0 503.7,262.7969 " fill="#F1F1F1" style="stroke:#181818;stroke-width:0.5;"/><path d="M567.0203,260.2969 L567.0203,267.7969 A2.5,2.5 0 0 0 569.5203,270.2969 L577.0203,270.2969 " fill="#F1F1F1" style="stroke:#181818;stroke-width:0.5;"/><text fill="#000000" font-family="sans-serif" font-size="14" lengthAdjust="spacing" textLength="53.3203" x="513.7" y="283.292">enum.h</text></a><!--entity C_0001487034747547699479--><a href="" target="_top" title="types.h" xlink:actuate="onRequest" xlink:href="" xlink:show="new" xlink:title="types.h" xlink:type="simple"><path d="M791.2,704.7969 L791.2,736.0938 A2.5,2.5 0 0 0 793.7,738.5938 L860.5916,738.5938 A2.5,2.5 0 0 0 863.0916,736.0938 L863.0916,712.2969 L853.0916,702.2969 L793.7,702.2969 A2.5,2.5 0 0 0 791.2,704.7969 " fill="#F1F1F1" style="stroke:#181818;stroke-width:0.5;"/><path d="M853.0916,702.2969 L853.0916,709.7969 A2.5,2.5 0 0 0 855.5916,712.2969 L863.0916,712.2969 " fill="#F1F1F1" style="stroke:#181818;stroke-width:0.5;"/><text fill="#000000" font-family="sans-serif" font-size="14" lengthAdjust="spacing" textLength="51.8916" x="801.2" y="725.292">types.h</text></a><!--entity C_0000787048741638979387--><a href="" target="_top" title="clang_utils.h" xlink:actuate="onRequest" xlink:href="" xlink:show="new" xlink:title="clang_utils.h" xlink:type="simple"><path d="M795.2,608.7969 L795.2,640.0938 A2.5,2.5 0 0 0 797.7,642.5938 L900.3846,642.5938 A2.5,2.5 0 0 0 902.8846,640.0938 L902.8846,616.2969 L892.8846,606.2969 L797.7,606.2969 A2.5,2.5 0 0 0 795.2,608.7969 " fill="#F1F1F1" style="stroke:#181818;stroke-width:0.5;"/><path d="M892.8846,606.2969 L892.8846,613.7969 A2.5,2.5 0 0 0 895.3846,616.2969 L902.8846,616.2969 " fill="#F1F1F1" style="stroke:#181818;stroke-width:0.5;"/><text fill="#000000" font-family="sans-serif" font-size="14" lengthAdjust="spacing" textLength="87.6846" x="805.2" y="629.292">clang_utils.h</text></a><!--entity C_0000091103538070137837--><a href="" target="_top" title="decorated_element.h" xlink:actuate="onRequest" xlink:href="" xlink:show="new" xlink:title="decorated_element.h" xlink:type="simple"><path d="M934.7,896.7969 L934.7,928.0938 A2.5,2.5 0 0 0 937.2,930.5938 L1101.3396,930.5938 A2.5,2.5 0 0 0 1103.8396,928.0938 L1103.8396,904.2969 L1093.8396,894.2969 L937.2,894.2969 A2.5,2.5 0 0 0 934.7,896.7969 " fill="#F1F1F1" style="stroke:#181818;stroke-width:0.5;"/><path d="M1093.8396,894.2969 L1093.8396,901.7969 A2.5,2.5 0 0 0 1096.3396,904.2969 L1103.8396,904.2969 " fill="#F1F1F1" style="stroke:#181818;stroke-width:0.5;"/><text fill="#000000" font-family="sans-serif" font-size="14" lengthAdjust="spacing" textLength="149.1396" x="944.7" y="917.292">decorated_element.h</text></a><!--entity C_0001173554342931432442--><a href="" target="_top" title="enums.h" xlink:actuate="onRequest" xlink:href="" xlink:show="new" xlink:title="enums.h" xlink:type="simple"><path d="M1277.7,1007.7969 L1277.7,1039.0938 A2.5,2.5 0 0 0 1280.2,1041.5938 L1355.8143,1041.5938 A2.5,2.5 0 0 0 1358.3143,1039.0938 L1358.3143,1015.2969 L1348.3143,1005.2969 L1280.2,1005.2969 A2.5,2.5 0 0 0 1277.7,1007.7969 " fill="#F1F1F1" style="stroke:#181818;stroke-width:0.5;"/><path d="M1348.3143,1005.2969 L1348.3143,1012.7969 A2.5,2.5 0 0 0 1350.8143,1015.2969 L1358.3143,1015.2969 " fill="#F1F1F1" style="stroke:#181818;stroke-width:0.5;"/><text fill="#000000" font-family="sans-serif" font-size="14" lengthAdjust="spacing" textLength="60.6143" x="1287.7" y="1028.292">enums.h</text></a><!--entity C_0000996348329834985739--><a href="" target="_top" title="source_location.h" xlink:actuate="onRequest" xlink:href="" xlink:show="new" xlink:title="source_location.h" xlink:type="simple"><path d="M1123.7,800.7969 L1123.7,832.0938 A2.5,2.5 0 0 0 1126.2,834.5938 L1263.8709,834.5938 A2.5,2.5 0 0 0 1266.3709,832.0938 L1266.3709,808.2969 L1256.3709,798.2969 L1126.2,798.2969 A2.5,2.5 0 0 0 1123.7,800.7969 " fill="#F1F1F1" style="stroke:#181818;stroke-width:0.5;"/><path d="M1256.3709,798.2969 L1256.3709,805.7969 A2.5,2.5 0 0 0 1258.8709,808.2969 L1266.3709,808.2969 " fill="#F1F1F1" style="stroke:#181818;stroke-width:0.5;"/><text fill="#000000" font-family="sans-serif" font-size="14" lengthAdjust="spacing" textLength="122.6709" x="1133.7" y="821.292">source_location.h</text></a><!--entity C_0001938476450842061831--><a href="" target="_top" title="template_parameter.h" xlink:actuate="onRequest" xlink:href="" xlink:show="new" xlink:title="template_parameter.h" xlink:type="simple"><path d="M938.7,608.7969 L938.7,640.0938 A2.5,2.5 0 0 0 941.2,642.5938 L1113.6316,642.5938 A2.5,2.5 0 0 0 1116.1316,640.0938 L1116.1316,616.2969 L1106.1316,606.2969 L941.2,606.2969 A2.5,2.5 0 0 0 938.7,608.7969 " fill="#F1F1F1" style="stroke:#181818;stroke-width:0.5;"/><path d="M1106.1316,606.2969 L1106.1316,613.7969 A2.5,2.5 0 0 0 1108.6316,616.2969 L1116.1316,616.2969 " fill="#F1F1F1" style="stroke:#181818;stroke-width:0.5;"/><text fill="#000000" font-family="sans-serif" font-size="14" lengthAdjust="spacing" textLength="157.4316" x="948.7" y="629.292">template_parameter.h</text></a><!--entity C_0000031981611129979020--><a href="" target="_top" title="namespace.h" xlink:actuate="onRequest" xlink:href="" xlink:show="new" xlink:title="namespace.h" xlink:type="simple"><path d="M972.2,704.7969 L972.2,736.0938 A2.5,2.5 0 0 0 974.7,738.5938 L1083.7967,738.5938 A2.5,2.5 0 0 0 1086.2967,736.0938 L1086.2967,712.2969 L1076.2967,702.2969 L974.7,702.2969 A2.5,2.5 0 0 0 972.2,704.7969 " fill="#F1F1F1" style="stroke:#181818;stroke-width:0.5;"/><path d="M1076.2967,702.2969 L1076.2967,709.7969 A2.5,2.5 0 0 0 1078.7967,712.2969 L1086.2967,712.2969 " fill="#F1F1F1" style="stroke:#181818;stroke-width:0.5;"/><text fill="#000000" font-family="sans-serif" font-size="14" lengthAdjust="spacing" textLength="94.0967" x="982.2" y="725.292">namespace.h</text></a><!--entity C_0000421078814092892305--><a href="" target="_top" title="path.h" xlink:actuate="onRequest" xlink:href="" xlink:show="new" xlink:title="path.h" xlink:type="simple"><path d="M1412.7,800.7969 L1412.7,832.0938 A2.5,2.5 0 0 0 1415.2,834.5938 L1475.3514,834.5938 A2.5,2.5 0 0 0 1477.8514,832.0938 L1477.8514,808.2969 L1467.8514,798.2969 L1415.2,798.2969 A2.5,2.5 0 0 0 1412.7,800.7969 " fill="#F1F1F1" style="stroke:#181818;stroke-width:0.5;"/><path d="M1467.8514,798.2969 L1467.8514,805.7969 A2.5,2.5 0 0 0 1470.3514,808.2969 L1477.8514,808.2969 " fill="#F1F1F1" style="stroke:#181818;stroke-width:0.5;"/><text fill="#000000" font-family="sans-serif" font-size="14" lengthAdjust="spacing" textLength="45.1514" x="1422.7" y="821.292">path.h</text></a><!--entity C_0000879593267266762645--><a href="" target="_top" title="template_trait.h" xlink:actuate="onRequest" xlink:href="" xlink:show="new" xlink:title="template_trait.h" xlink:type="simple"><path d="M1100.7,512.7969 L1100.7,544.0938 A2.5,2.5 0 0 0 1103.2,546.5938 L1230.9246,546.5938 A2.5,2.5 0 0 0 1233.4246,544.0938 L1233.4246,520.2969 L1223.4246,510.2969 L1103.2,510.2969 A2.5,2.5 0 0 0 1100.7,512.7969 " fill="#F1F1F1" style="stroke:#181818;stroke-width:0.5;"/><path d="M1223.4246,510.2969 L1223.4246,517.7969 A2.5,2.5 0 0 0 1225.9246,520.2969 L1233.4246,520.2969 " fill="#F1F1F1" style="stroke:#181818;stroke-width:0.5;"/><text fill="#000000" font-family="sans-serif" font-size="14" lengthAdjust="spacing" textLength="112.7246" x="1110.7" y="533.292">template_trait.h</text></a><!--entity C_0001950482363707889771--><a href="" target="_top" title="element.h" xlink:actuate="onRequest" xlink:href="" xlink:show="new" xlink:title="element.h" xlink:type="simple"><path d="M1187.7,608.7969 L1187.7,640.0938 A2.5,2.5 0 0 0 1190.2,642.5938 L1276.2527,642.5938 A2.5,2.5 0 0 0 1278.7527,640.0938 L1278.7527,616.2969 L1268.7527,606.2969 L1190.2,606.2969 A2.5,2.5 0 0 0 1187.7,608.7969 " fill="#F1F1F1" style="stroke:#181818;stroke-width:0.5;"/><path d="M1268.7527,606.2969 L1268.7527,613.7969 A2.5,2.5 0 0 0 1271.2527,616.2969 L1278.7527,616.2969 " fill="#F1F1F1" style="stroke:#181818;stroke-width:0.5;"/><text fill="#000000" font-family="sans-serif" font-size="14" lengthAdjust="spacing" textLength="71.0527" x="1197.7" y="629.292">element.h</text></a><!--entity C_0000160790283619195758--><a href="" target="_top" title="diagram_element.h" xlink:actuate="onRequest" xlink:href="" xlink:show="new" xlink:title="diagram_element.h" xlink:type="simple"><path d="M1195.2,704.7969 L1195.2,736.0938 A2.5,2.5 0 0 0 1197.7,738.5938 L1348.9676,738.5938 A2.5,2.5 0 0 0 1351.4676,736.0938 L1351.4676,712.2969 L1341.4676,702.2969 L1197.7,702.2969 A2.5,2.5 0 0 0 1195.2,704.7969 " fill="#F1F1F1" style="stroke:#181818;stroke-width:0.5;"/><path d="M1341.4676,702.2969 L1341.4676,709.7969 A2.5,2.5 0 0 0 1343.9676,712.2969 L1351.4676,712.2969 " fill="#F1F1F1" style="stroke:#181818;stroke-width:0.5;"/><text fill="#000000" font-family="sans-serif" font-size="14" lengthAdjust="spacing" textLength="136.2676" x="1205.2" y="725.292">diagram_element.h</text></a><!--entity C_0000001380661770452430--><a href="" target="_top" title="relationship.h" xlink:actuate="onRequest" xlink:href="" xlink:show="new" xlink:title="relationship.h" xlink:type="simple"><path d="M972.2,800.7969 L972.2,832.0938 A2.5,2.5 0 0 0 974.7,834.5938 L1085.6219,834.5938 A2.5,2.5 0 0 0 1088.1219,832.0938 L1088.1219,808.2969 L1078.1219,798.2969 L974.7,798.2969 A2.5,2.5 0 0 0 972.2,800.7969 " fill="#F1F1F1" style="stroke:#181818;stroke-width:0.5;"/><path d="M1078.1219,798.2969 L1078.1219,805.7969 A2.5,2.5 0 0 0 1080.6219,808.2969 L1088.1219,808.2969 " fill="#F1F1F1" style="stroke:#181818;stroke-width:0.5;"/><text fill="#000000" font-family="sans-serif" font-size="14" lengthAdjust="spacing" textLength="95.9219" x="982.2" y="821.292">relationship.h</text></a><!--entity C_0001084419599357613350--><a href="" target="_top" title="stylable_element.h" xlink:actuate="onRequest" xlink:href="" xlink:show="new" xlink:title="stylable_element.h" xlink:type="simple"><path d="M1175.7,896.7969 L1175.7,928.0938 A2.5,2.5 0 0 0 1178.2,930.5938 L1326.1795,930.5938 A2.5,2.5 0 0 0 1328.6795,928.0938 L1328.6795,904.2969 L1318.6795,894.2969 L1178.2,894.2969 A2.5,2.5 0 0 0 1175.7,896.7969 " fill="#F1F1F1" style="stroke:#181818;stroke-width:0.5;"/><path d="M1318.6795,894.2969 L1318.6795,901.7969 A2.5,2.5 0 0 0 1321.1795,904.2969 L1328.6795,904.2969 " fill="#F1F1F1" style="stroke:#181818;stroke-width:0.5;"/><text fill="#000000" font-family="sans-serif" font-size="14" lengthAdjust="spacing" textLength="132.9795" x="1185.7" y="917.292">stylable_element.h</text></a><!--entity C_0001326133486042398391--><a href="" target="_top" title="diagram.h" xlink:actuate="onRequest" xlink:href="" xlink:show="new" xlink:title="diagram.h" xlink:type="simple"><path d="M1269.2,512.7969 L1269.2,544.0938 A2.5,2.5 0 0 0 1271.7,546.5938 L1358.2381,546.5938 A2.5,2.5 0 0 0 1360.7381,544.0938 L1360.7381,520.2969 L1350.7381,510.2969 L1271.7,510.2969 A2.5,2.5 0 0 0 1269.2,512.7969 " fill="#F1F1F1" style="stroke:#181818;stroke-width:0.5;"/><path d="M1350.7381,510.2969 L1350.7381,517.7969 A2.5,2.5 0 0 0 1353.2381,520.2969 L1360.7381,520.2969 " fill="#F1F1F1" style="stroke:#181818;stroke-width:0.5;"/><text fill="#000000" font-family="sans-serif" font-size="14" lengthAdjust="spacing" textLength="71.5381" x="1279.2" y="533.292">diagram.h</text></a><!--entity C_0000363690717923519015--><a href="" target="_top" title="source_file.h" xlink:actuate="onRequest" xlink:href="" xlink:show="new" xlink:title="source_file.h" xlink:type="simple"><path d="M1351.2,608.7969 L1351.2,640.0938 A2.5,2.5 0 0 0 1353.7,642.5938 L1457.1434,642.5938 A2.5,2.5 0 0 0 1459.6434,640.0938 L1459.6434,616.2969 L1449.6434,606.2969 L1353.7,606.2969 A2.5,2.5 0 0 0 1351.2,608.7969 " fill="#F1F1F1" style="stroke:#181818;stroke-width:0.5;"/><path d="M1449.6434,606.2969 L1449.6434,613.7969 A2.5,2.5 0 0 0 1452.1434,616.2969 L1459.6434,616.2969 " fill="#F1F1F1" style="stroke:#181818;stroke-width:0.5;"/><text fill="#000000" font-family="sans-serif" font-size="14" lengthAdjust="spacing" textLength="88.4434" x="1361.2" y="629.292">source_file.h</text></a><!--entity C_0000982121795660982507--><a href="" target="_top" title="nested_trait.h" xlink:actuate="onRequest" xlink:href="" xlink:show="new" xlink:title="nested_trait.h" xlink:type="simple"><path d="M1608.7,704.7969 L1608.7,736.0938 A2.5,2.5 0 0 0 1611.2,738.5938 L1723.4959,738.5938 A2.5,2.5 0 0 0 1725.9959,736.0938 L1725.9959,712.2969 L1715.9959,702.2969 L1611.2,702.2969 A2.5,2.5 0 0 0 1608.7,704.7969 " fill="#F1F1F1" style="stroke:#181818;stroke-width:0.5;"/><path d="M1715.9959,702.2969 L1715.9959,709.7969 A2.5,2.5 0 0 0 1718.4959,712.2969 L1725.9959,712.2969 " fill="#F1F1F1" style="stroke:#181818;stroke-width:0.5;"/><text fill="#000000" font-family="sans-serif" font-size="14" lengthAdjust="spacing" textLength="97.2959" x="1618.7" y="725.292">nested_trait.h</text></a><!--entity C_0001404135812960657267--><a href="" target="_top" title="element_view.h" xlink:actuate="onRequest" xlink:href="" xlink:show="new" xlink:title="element_view.h" xlink:type="simple"><path d="M935.2,512.7969 L935.2,544.0938 A2.5,2.5 0 0 0 937.7,546.5938 L1062.991,546.5938 A2.5,2.5 0 0 0 1065.491,544.0938 L1065.491,520.2969 L1055.491,510.2969 L937.7,510.2969 A2.5,2.5 0 0 0 935.2,512.7969 " fill="#F1F1F1" style="stroke:#181818;stroke-width:0.5;"/><path d="M1055.491,510.2969 L1055.491,517.7969 A2.5,2.5 0 0 0 1057.991,520.2969 L1065.491,520.2969 " fill="#F1F1F1" style="stroke:#181818;stroke-width:0.5;"/><text fill="#000000" font-family="sans-serif" font-size="14" lengthAdjust="spacing" textLength="110.291" x="945.2" y="533.292">element_view.h</text></a><!--entity C_0000095433710591389917--><a href="" target="_top" title="package.h" xlink:actuate="onRequest" xlink:href="" xlink:show="new" xlink:title="package.h" xlink:type="simple"><path d="M1488.7,512.7969 L1488.7,544.0938 A2.5,2.5 0 0 0 1491.2,546.5938 L1578.8729,546.5938 A2.5,2.5 0 0 0 1581.3729,544.0938 L1581.3729,520.2969 L1571.3729,510.2969 L1491.2,510.2969 A2.5,2.5 0 0 0 1488.7,512.7969 " fill="#F1F1F1" style="stroke:#181818;stroke-width:0.5;"/><path d="M1571.3729,510.2969 L1571.3729,517.7969 A2.5,2.5 0 0 0 1573.8729,520.2969 L1581.3729,520.2969 " fill="#F1F1F1" style="stroke:#181818;stroke-width:0.5;"/><text fill="#000000" font-family="sans-serif" font-size="14" lengthAdjust="spacing" textLength="72.6729" x="1498.7" y="533.292">package.h</text></a><!--entity C_0000080293097801809824--><a href="" target="_top" title="decorators.h" xlink:actuate="onRequest" xlink:href="" xlink:show="new" xlink:title="decorators.h" xlink:type="simple"><path d="M555.7,1007.7969 L555.7,1039.0938 A2.5,2.5 0 0 0 558.2,1041.5938 L661.7254,1041.5938 A2.5,2.5 0 0 0 664.2254,1039.0938 L664.2254,1015.2969 L654.2254,1005.2969 L558.2,1005.2969 A2.5,2.5 0 0 0 555.7,1007.7969 " fill="#F1F1F1" style="stroke:#181818;stroke-width:0.5;"/><path d="M654.2254,1005.2969 L654.2254,1012.7969 A2.5,2.5 0 0 0 656.7254,1015.2969 L664.2254,1015.2969 " fill="#F1F1F1" style="stroke:#181818;stroke-width:0.5;"/><text fill="#000000" font-family="sans-serif" font-size="14" lengthAdjust="spacing" textLength="88.5254" x="565.7" y="1028.292">decorators.h</text></a><!--entity C_0001977262033638856214--><a href="" target="_top" title="util.h" xlink:actuate="onRequest" xlink:href="" xlink:show="new" xlink:title="util.h" xlink:type="simple"><path d="M1806.7,896.7969 L1806.7,928.0938 A2.5,2.5 0 0 0 1809.2,930.5938 L1859.6648,930.5938 A2.5,2.5 0 0 0 1862.1648,928.0938 L1862.1648,904.2969 L1852.1648,894.2969 L1809.2,894.2969 A2.5,2.5 0 0 0 1806.7,896.7969 " fill="#F1F1F1" style="stroke:#181818;stroke-width:0.5;"/><path d="M1852.1648,894.2969 L1852.1648,901.7969 A2.5,2.5 0 0 0 1854.6648,904.2969 L1862.1648,904.2969 " fill="#F1F1F1" style="stroke:#181818;stroke-width:0.5;"/><text fill="#000000" font-family="sans-serif" font-size="14" lengthAdjust="spacing" textLength="35.4648" x="1816.7" y="917.292">util.h</text></a><!--entity C_0001587575351531605570--><a href="" target="_top" title="cli_handler.h" xlink:actuate="onRequest" xlink:href="" xlink:show="new" xlink:title="cli_handler.h" xlink:type="simple"><path d="M1888.7,262.7969 L1888.7,294.0938 A2.5,2.5 0 0 0 1891.2,296.5938 L1995.4705,296.5938 A2.5,2.5 0 0 0 1997.9705,294.0938 L1997.9705,270.2969 L1987.9705,260.2969 L1891.2,260.2969 A2.5,2.5 0 0 0 1888.7,262.7969 " fill="#F1F1F1" style="stroke:#181818;stroke-width:0.5;"/><path d="M1987.9705,260.2969 L1987.9705,267.7969 A2.5,2.5 0 0 0 1990.4705,270.2969 L1997.9705,270.2969 " fill="#F1F1F1" style="stroke:#181818;stroke-width:0.5;"/><text fill="#000000" font-family="sans-serif" font-size="14" lengthAdjust="spacing" textLength="89.2705" x="1898.7" y="283.292">cli_handler.h</text></a><!--link C_0001330962329378590766 to C_0001517501747809573739--><g id="link_C_0001330962329378590766_C_0001517501747809573739"><path d="M1282.16,200.3169 C1313.06,217.3069 1355.0027,240.3554 1385.9127,257.3554 " fill="transparent" id="C_0001330962329378590766-to-C_0001517501747809573739" style="stroke:#181818;stroke-width:1;"/><polygon fill="#181818" points="1391.17,260.2469,1385.2116,252.4048,1386.7889,257.8373,1381.3564,259.4146,1391.17,260.2469" style="stroke:#181818;stroke-width:1;"/></g><!--link C_0001517501747809573739 to C_0000235288518944558554--><g id="link_C_0001517501747809573739_C_0000235288518944558554"><path d="M1383.93,262.9369 C1335.28,248.8469 1250.15,227.9769 1175.2,217.2969 C978.75,189.3069 746.4698,184.3789 647.2498,183.5189 " fill="transparent" id="C_0001517501747809573739-to-C_0000235288518944558554" style="stroke:#181818;stroke-width:1;"/><polygon fill="#181818" points="641.25,183.4669,650.215,187.5447,646.2498,183.5102,650.2843,179.545,641.25,183.4669" style="stroke:#181818;stroke-width:1;"/></g><!--link C_0000235288518944558554 to C_0001517501747809573739--><g id="link_C_0000235288518944558554_C_0001517501747809573739"><path d="M641.29,183.6869 C735.82,185.0569 956.33,191.0969 1140.2,217.2969 C1227.76,229.7769 1323.3781,254.7466 1378.0881,267.9766 " fill="transparent" id="C_0000235288518944558554-to-C_0001517501747809573739" style="stroke:#181818;stroke-width:1;"/><polygon fill="#181818" points="1383.92,269.3869,1376.1123,263.3835,1379.0601,268.2116,1374.232,271.1594,1383.92,269.3869" style="stroke:#181818;stroke-width:1;"/></g><!--link C_0001517501747809573739 to C_0001173554342931432442--><g id="link_C_0001517501747809573739_C_0001173554342931432442"><path d="M1442.56,296.3269 C1452.8,304.3269 1465.68,313.5669 1478.2,320.2969 C1586.32,378.4469 1617.63,388.4769 1737.2,416.2969 C1754.17,420.2469 1801.98,412.9469 1815.2,424.2969 C1996.45,579.9669 2069.26,780.5969 1905.2,954.2969 C1867.69,994.0169 1492.2237,1014.4419 1365.1337,1020.2719 " fill="transparent" id="C_0001517501747809573739-to-C_0001173554342931432442" style="stroke:#181818;stroke-width:1;"/><polygon fill="#181818" points="1359.14,1020.5469,1368.3138,1024.1302,1364.1347,1020.3178,1367.9472,1016.1387,1359.14,1020.5469" style="stroke:#181818;stroke-width:1;"/></g><!--link C_0001517501747809573739 to C_0001487034747547699479--><g id="link_C_0001517501747809573739_C_0001487034747547699479"><path d="M1442.93,296.3169 C1453.16,304.2169 1465.91,313.3769 1478.2,320.2969 C1575.07,374.8569 1601.88,387.2469 1709.2,416.2969 C1721.97,419.7569 1759.49,414.3369 1768.2,424.2969 C1845.97,513.3269 1851.2,606.1169 1768.2,690.2969 C1751.64,707.0969 942.67,699.9769 919.2,702.2969 C900.61,704.1369 886.0401,706.5535 869.1401,709.9835 " fill="transparent" id="C_0001517501747809573739-to-C_0001487034747547699479" style="stroke:#181818;stroke-width:1;"/><polygon fill="#181818" points="863.26,711.1769,872.8758,713.3068,868.1601,710.1824,871.2846,705.4667,863.26,711.1769" style="stroke:#181818;stroke-width:1;"/></g><!--link C_0001517501747809573739 to C_0000318140781021252562--><g id="link_C_0001517501747809573739_C_0000318140781021252562"><path d="M1440.73,296.4569 C1451.01,305.0069 1464.48,314.6969 1478.2,320.2969 C1581.71,362.5769 1617.56,334.3169 1727.2,356.2969 C1735.9,358.0369 1739.3527,358.7576 1748.1027,360.9676 " fill="transparent" id="C_0001517501747809573739-to-C_0000318140781021252562" style="stroke:#181818;stroke-width:1;"/><polygon fill="#181818" points="1753.92,362.4369,1746.1735,356.3547,1749.0722,361.2125,1744.2145,364.1112,1753.92,362.4369" style="stroke:#181818;stroke-width:1;"/></g><!--link C_0001517501747809573739 to C_0001977262033638856214--><g id="link_C_0001517501747809573739_C_0001977262033638856214"><path d="M1440.37,296.5169 C1450.66,305.1869 1464.24,314.9769 1478.2,320.2969 C1633.41,379.4669 1696.11,294.2569 1850.2,356.2969 C1939.77,392.3569 1984.2,430.7469 1984.2,527.2969 C1984.2,527.2969 1984.2,527.2969 1984.2,625.2969 C1984.2,739.1169 1893.9671,847.8642 1854.9071,889.8442 " fill="transparent" id="C_0001517501747809573739-to-C_0001977262033638856214" style="stroke:#181818;stroke-width:1;"/><polygon fill="#181818" points="1850.82,894.2369,1859.8791,890.3726,1854.2259,890.5763,1854.0222,884.9231,1850.82,894.2369" style="stroke:#181818;stroke-width:1;"/></g><!--link C_0000106372156110337374 to C_0001587575351531605570--><g id="link_C_0000106372156110337374_C_0001587575351531605570"><path d="M1809.38,200.4769 C1822.25,205.4169 1835.92,211.1469 1848.2,217.2969 C1873.32,229.8669 1895.2891,243.8974 1914.0291,256.7274 " fill="transparent" id="C_0000106372156110337374-to-C_0001587575351531605570" style="stroke:#181818;stroke-width:1;"/><polygon fill="#181818" points="1918.98,260.1169,1913.8134,251.732,1914.8543,257.2923,1909.294,258.3332,1918.98,260.1169" style="stroke:#181818;stroke-width:1;"/></g><!--link C_0000106372156110337374 to C_0001517501747809573739--><g id="link_C_0000106372156110337374_C_0001517501747809573739"><path d="M1686.11,197.7269 C1680.4,198.6569 1674.71,199.5369 1669.2,200.2969 C1626.99,206.1469 1516.49,198.5969 1478.2,217.2969 C1458.86,226.7369 1446.2989,241.0002 1436.4089,255.1402 " fill="transparent" id="C_0000106372156110337374-to-C_0001517501747809573739" style="stroke:#181818;stroke-width:1;"/><polygon fill="#181818" points="1432.97,260.0569,1441.4062,254.9744,1435.8358,255.9596,1434.8506,250.3892,1432.97,260.0569" style="stroke:#181818;stroke-width:1;"/></g><!--link C_0000106372156110337374 to C_0001184346145051269879--><g id="link_C_0000106372156110337374_C_0001184346145051269879"><path d="M1726.78,200.3169 C1694.44,217.3069 1650.352,240.4571 1617.982,257.4571 " fill="transparent" id="C_0000106372156110337374-to-C_0001184346145051269879" style="stroke:#181818;stroke-width:1;"/><polygon fill="#181818" points="1612.67,260.2469,1622.4978,259.6036,1617.0967,257.9221,1618.7782,252.5209,1612.67,260.2469" style="stroke:#181818;stroke-width:1;"/></g><!--link C_0000106372156110337374 to C_0001695007513528524663--><g id="link_C_0000106372156110337374_C_0001695007513528524663"><path d="M1759.2,200.5369 C1759.2,217.4969 1759.2,237.2469 1759.2,254.1669 " fill="transparent" id="C_0000106372156110337374-to-C_0001695007513528524663" style="stroke:#181818;stroke-width:1;"/><polygon fill="#181818" points="1759.2,260.1669,1763.2,251.1669,1759.2,255.1669,1755.2,251.1669,1759.2,260.1669" style="stroke:#181818;stroke-width:1;"/></g><!--link C_0001078679885272294116 to C_0001184346145051269879--><g id="link_C_0001078679885272294116_C_0001184346145051269879"><path d="M1566.32,200.5369 C1569.38,217.4969 1572.9722,237.3427 1576.0322,254.2627 " fill="transparent" id="C_0001078679885272294116-to-C_0001184346145051269879" style="stroke:#181818;stroke-width:1;"/><polygon fill="#181818" points="1577.1,260.1669,1579.4345,250.5987,1576.2102,255.2467,1571.5622,252.0224,1577.1,260.1669" style="stroke:#181818;stroke-width:1;"/></g><!--link C_0001884930640857833435 to C_0001517501747809573739--><g id="link_C_0001884930640857833435_C_0001517501747809573739"><path d="M1402.6,200.5369 C1406.93,217.4969 1412.0157,237.4334 1416.3357,254.3534 " fill="transparent" id="C_0001884930640857833435-to-C_0001517501747809573739" style="stroke:#181818;stroke-width:1;"/><polygon fill="#181818" points="1417.82,260.1669,1419.4692,250.4571,1416.5831,255.3223,1411.7179,252.4361,1417.82,260.1669" style="stroke:#181818;stroke-width:1;"/></g><!--link C_0001884930640857833435 to C_0001184346145051269879--><g id="link_C_0001884930640857833435_C_0001184346145051269879"><path d="M1439.77,199.7569 C1452.28,205.0369 1465.93,211.1169 1478.2,217.2969 C1504.43,230.5169 1528.0931,244.5211 1548.3631,257.1111 " fill="transparent" id="C_0001884930640857833435-to-C_0001184346145051269879" style="stroke:#181818;stroke-width:1;"/><polygon fill="#181818" points="1553.46,260.2769,1547.9252,252.1303,1549.2126,257.6388,1543.7042,258.9262,1553.46,260.2769" style="stroke:#181818;stroke-width:1;"/></g><!--link C_0000235288518944558554 to C_0000612476246126510831--><g id="link_C_0000235288518944558554_C_0000612476246126510831"><path d="M549.08,185.5469 C526.36,189.2569 500.77,197.8769 486.2,217.2969 C455.14,258.6769 467.107,319.3791 476.017,350.4691 " fill="transparent" id="C_0000235288518944558554-to-C_0000612476246126510831" style="stroke:#181818;stroke-width:1;"/><polygon fill="#181818" points="477.67,356.2369,479.0357,346.4832,476.2925,351.4304,471.3453,348.6871,477.67,356.2369" style="stroke:#181818;stroke-width:1;"/></g><!--link C_0000235288518944558554 to C_0001326133486042398391--><g id="link_C_0000235288518944558554_C_0001326133486042398391"><path d="M632.44,200.4369 C642.08,205.4269 652.26,211.1869 661.2,217.2969 C771.39,292.6669 761.88,367.6469 886.2,416.2969 C923.97,431.0769 1215.96,404.1969 1251.2,424.2969 C1283.93,442.9669 1300.2897,480.1924 1308.2997,504.3224 " fill="transparent" id="C_0000235288518944558554-to-C_0001326133486042398391" style="stroke:#181818;stroke-width:1;"/><polygon fill="#181818" points="1310.19,510.0169,1311.1509,500.215,1308.6148,505.2715,1303.5583,502.7354,1310.19,510.0169" style="stroke:#181818;stroke-width:1;"/></g><!--link C_0000235288518944558554 to C_0001404135812960657267--><g id="link_C_0000235288518944558554_C_0001404135812960657267"><path d="M605.01,200.3369 C631.76,244.9569 710.82,365.2569 813.2,416.2969 C843.2,431.2569 857.66,410.4769 888.2,424.2969 C931.28,443.7869 965.1664,481.6564 983.8864,505.5164 " fill="transparent" id="C_0000235288518944558554-to-C_0001404135812960657267" style="stroke:#181818;stroke-width:1;"/><polygon fill="#181818" points="987.59,510.2369,985.1816,500.687,984.5037,506.3031,978.8876,505.6252,987.59,510.2369" style="stroke:#181818;stroke-width:1;"/></g><!--link C_0000235288518944558554 to C_0000982121795660982507--><g id="link_C_0000235288518944558554_C_0000982121795660982507"><path d="M641.47,185.5969 C715.74,189.7569 858,199.7469 905.2,217.2969 C1007.35,255.2769 1024.02,285.8769 1107.2,356.2969 C1135.5,380.2669 1131.15,401.5869 1165.2,416.2969 C1180.52,422.9169 1753.34,413.6469 1766.2,424.2969 C1858.12,500.4369 1878.28,597.5169 1803.2,690.2969 C1793.29,702.5469 1764.089,709.0562 1732.009,713.2662 " fill="transparent" id="C_0000235288518944558554-to-C_0000982121795660982507" style="stroke:#181818;stroke-width:1;"/><polygon fill="#181818" points="1726.06,714.0469,1735.504,716.8418,1731.0175,713.3963,1734.463,708.9098,1726.06,714.0469" style="stroke:#181818;stroke-width:1;"/></g><!--link C_0000235288518944558554 to C_0000095433710591389917--><g id="link_C_0000235288518944558554_C_0000095433710591389917"><path d="M641.27,192.8269 C665.29,198.5369 694.87,206.7569 720.2,217.2969 C883.62,285.3169 894.8,368.3469 1065.2,416.2969 C1132.39,435.2069 1312.61,403.3669 1379.2,424.2969 C1434.93,441.8169 1484.9319,481.6235 1512.3719,506.0935 " fill="transparent" id="C_0000235288518944558554-to-C_0000095433710591389917" style="stroke:#181818;stroke-width:1;"/><polygon fill="#181818" points="1516.85,510.0869,1512.7952,501.1114,1513.1183,506.7591,1507.4707,507.0822,1516.85,510.0869" style="stroke:#181818;stroke-width:1;"/></g><!--link C_0000235288518944558554 to C_0001487034747547699479--><g id="link_C_0000235288518944558554_C_0001487034747547699479"><path d="M641.22,185.8569 C685.54,189.4169 753.96,197.7869 810.2,217.2969 C981.09,276.5769 990.51,369.3769 1165.2,416.2969 C1180.68,420.4569 1730.94,412.8869 1742.2,424.2969 C1762.95,445.3369 1762.94,669.2469 1742.2,690.2969 C1726.15,706.5769 941.95,700.0469 919.2,702.2969 C900.61,704.1369 886.0408,706.5668 869.1408,709.9868 " fill="transparent" id="C_0000235288518944558554-to-C_0001487034747547699479" style="stroke:#181818;stroke-width:1;"/><polygon fill="#181818" points="863.26,711.1769,872.8746,713.3123,868.1607,710.1851,871.2878,705.4712,863.26,711.1769" style="stroke:#181818;stroke-width:1;"/></g><!--link C_0000235288518944558554 to C_0001616841349791035991--><g id="link_C_0000235288518944558554_C_0001616841349791035991"><path d="M595.38,200.4969 C595.76,236.6669 596.5767,314.2572 596.9567,350.2772 " fill="transparent" id="C_0000235288518944558554-to-C_0001616841349791035991" style="stroke:#181818;stroke-width:1;"/><polygon fill="#181818" points="597.02,356.2769,600.9248,347.2352,596.9673,351.2772,592.9253,347.3196,597.02,356.2769" style="stroke:#181818;stroke-width:1;"/></g><!--link C_0000235288518944558554 to C_0001088426035973322289--><g id="link_C_0000235288518944558554_C_0001088426035973322289"><path d="M585.11,200.5369 C575.19,217.4969 563.1501,238.0682 553.2501,254.9882 " fill="transparent" id="C_0000235288518944558554-to-C_0001088426035973322289" style="stroke:#181818;stroke-width:1;"/><polygon fill="#181818" points="550.22,260.1669,558.2176,254.4189,552.7451,255.8513,551.3127,250.3788,550.22,260.1669" style="stroke:#181818;stroke-width:1;"/></g><!--link C_0000612476246126510831 to C_0002036238528186413641--><g id="link_C_0000612476246126510831_C_0002036238528186413641"><path d="M449.16,378.2169 C410.6,382.8769 347.15,394.7169 301.2,424.2969 C266.69,446.5069 242.3286,482.085 228.6886,505.105 " fill="transparent" id="C_0000612476246126510831-to-C_0002036238528186413641" style="stroke:#181818;stroke-width:1;"/><polygon fill="#181818" points="225.63,510.2669,233.6591,504.5631,228.1788,505.9653,226.7766,500.485,225.63,510.2669" style="stroke:#181818;stroke-width:1;"/></g><!--link C_0000612476246126510831 to C_0000140301785284925217--><g id="link_C_0000612476246126510831_C_0000140301785284925217"><path d="M489.51,392.4369 C500.27,421.6269 519.9455,475.0469 530.7455,504.3569 " fill="transparent" id="C_0000612476246126510831-to-C_0000140301785284925217" style="stroke:#181818;stroke-width:1;"/><polygon fill="#181818" points="532.82,509.9869,533.4616,500.1589,531.0913,505.2952,525.9549,502.9249,532.82,509.9869" style="stroke:#181818;stroke-width:1;"/></g><!--link C_0000612476246126510831 to C_0000545073394723083184--><g id="link_C_0000612476246126510831_C_0000545073394723083184"><path d="M471.47,392.4369 C451.5,421.6269 414.4888,475.7255 394.4288,505.0355 " fill="transparent" id="C_0000612476246126510831-to-C_0000545073394723083184" style="stroke:#181818;stroke-width:1;"/><polygon fill="#181818" points="391.04,509.9869,399.4241,504.819,393.864,505.8607,392.8222,500.3006,391.04,509.9869" style="stroke:#181818;stroke-width:1;"/></g><!--link C_0000612476246126510831 to C_0001950482363707889771--><g id="link_C_0000612476246126510831_C_0001950482363707889771"><path d="M499.29,392.4169 C508.79,401.2969 521.6,411.3069 535.2,416.2969 C558.16,424.7269 733.96,412.1569 755.2,424.2969 C811.08,456.2269 779.94,510.1669 833.2,546.2969 C847.88,556.2569 1079.5969,596.9295 1181.4869,614.4595 " fill="transparent" id="C_0000612476246126510831-to-C_0001950482363707889771" style="stroke:#181818;stroke-width:1;"/><polygon fill="#181818" points="1187.4,615.4769,1179.2085,610.0088,1182.4724,614.6291,1177.8521,617.8929,1187.4,615.4769" style="stroke:#181818;stroke-width:1;"/></g><!--link C_0000612476246126510831 to C_0001173554342931432442--><g id="link_C_0000612476246126510831_C_0001173554342931432442"><path d="M499.23,392.5669 C508.72,401.4969 521.53,411.4969 535.2,416.2969 C563.09,426.0869 1572.26,412.1369 1599.2,424.2969 C1750.38,492.5269 1773.88,554.0069 1848.2,702.2969 C1898.73,803.1369 1952.99,869.8669 1878.2,954.2969 C1843.78,993.1469 1488.3126,1013.9893 1365.0826,1020.1093 " fill="transparent" id="C_0000612476246126510831-to-C_0001173554342931432442" style="stroke:#181818;stroke-width:1;"/><polygon fill="#181818" points="1359.09,1020.4069,1368.2773,1023.9555,1364.0838,1020.1589,1367.8805,1015.9654,1359.09,1020.4069" style="stroke:#181818;stroke-width:1;"/></g><!--link C_0000612476246126510831 to C_0001084419599357613350--><g id="link_C_0000612476246126510831_C_0001084419599357613350"><path d="M449,376.9569 C356.93,381.7769 109.18,397.1769 85.2,424.2969 C6,513.8469 46.8,600.0369 125.2,690.2969 C160.17,730.5669 184.37,722.1269 235.2,738.2969 C435.47,801.9969 489.61,808.6569 698.2,834.2969 C791.57,845.7769 1029.7,829.4069 1121.2,851.2969 C1158.3,860.1769 1192.4404,876.8434 1218.2304,891.2334 " fill="transparent" id="C_0000612476246126510831-to-C_0001084419599357613350" style="stroke:#181818;stroke-width:1;"/><polygon fill="#181818" points="1223.47,894.1569,1217.5597,886.2786,1219.1037,891.7206,1213.6616,893.2647,1223.47,894.1569" style="stroke:#181818;stroke-width:1;"/></g><!--link C_0000612476246126510831 to C_0001938476450842061831--><g id="link_C_0000612476246126510831_C_0001938476450842061831"><path d="M499.32,392.3269 C508.83,401.1769 521.64,411.1869 535.2,416.2969 C566.64,428.1469 655.56,410.4969 686.2,424.2969 C755.54,455.5369 741.94,505.6069 806.2,546.2969 C850.82,574.5569 901.3349,592.3753 945.9349,604.6453 " fill="transparent" id="C_0000612476246126510831-to-C_0001938476450842061831" style="stroke:#181818;stroke-width:1;"/><polygon fill="#181818" points="951.72,606.2369,944.1034,599.9929,946.8991,604.9106,941.9814,607.7063,951.72,606.2369" style="stroke:#181818;stroke-width:1;"/></g><!--link C_0000612476246126510831 to C_0000879593267266762645--><g id="link_C_0000612476246126510831_C_0000879593267266762645"><path d="M499.25,392.5269 C508.74,401.4469 521.55,411.4469 535.2,416.2969 C563.89,426.4869 1055.79,411.0369 1083.2,424.2969 C1120.59,442.3869 1144.2115,480.6081 1156.5515,504.8881 " fill="transparent" id="C_0000612476246126510831-to-C_0000879593267266762645" style="stroke:#181818;stroke-width:1;"/><polygon fill="#181818" points="1159.27,510.2369,1158.7582,500.4013,1157.0046,505.7795,1151.6264,504.026,1159.27,510.2369" style="stroke:#181818;stroke-width:1;"/></g><!--link C_0000612476246126510831 to C_0001487034747547699479--><g id="link_C_0000612476246126510831_C_0001487034747547699479"><path d="M499.86,392.5369 C509.35,401.2169 521.96,411.0069 535.2,416.2969 C553.02,423.4169 606.67,411.7569 621.2,424.2969 C713.34,503.8069 598.57,605.8369 686.2,690.2969 C700.91,704.4769 748.3727,711.7509 785.0727,715.6009 " fill="transparent" id="C_0000612476246126510831-to-C_0001487034747547699479" style="stroke:#181818;stroke-width:1;"/><polygon fill="#181818" points="791.04,716.2269,782.5064,711.3097,786.0673,715.7052,781.6718,719.2661,791.04,716.2269" style="stroke:#181818;stroke-width:1;"/></g><!--link C_0002036238528186413641 to C_0000586299741862872695--><g id="link_C_0002036238528186413641_C_0000586299741862872695"><path d="M232.52,546.5369 C248.58,563.4969 268.8235,584.8912 284.8535,601.8112 " fill="transparent" id="C_0002036238528186413641-to-C_0000586299741862872695" style="stroke:#181818;stroke-width:1;"/><polygon fill="#181818" points="288.98,606.1669,285.694,596.8824,285.5412,602.5372,279.8864,602.3844,288.98,606.1669" style="stroke:#181818;stroke-width:1;"/></g><!--link C_0000586299741862872695 to C_0000091103538070137837--><g id="link_C_0000586299741862872695_C_0000091103538070137837"><path d="M324.3,642.5769 C340.81,656.8269 365.8,676.8269 390.2,690.2969 C578.91,794.5069 820.1493,862.601 940.7693,892.771 " fill="transparent" id="C_0000586299741862872695-to-C_0000091103538070137837" style="stroke:#181818;stroke-width:1;"/><polygon fill="#181818" points="946.59,894.2269,938.8296,888.1626,941.7394,893.0136,936.8884,895.9235,946.59,894.2269" style="stroke:#181818;stroke-width:1;"/></g><!--link C_0000586299741862872695 to C_0000996348329834985739--><g id="link_C_0000586299741862872695_C_0000996348329834985739"><path d="M322.08,642.4069 C338.13,657.5769 363.7,679.0269 390.2,690.2969 C520.52,745.7069 565.17,717.1569 705.2,738.2969 C883.38,765.2069 928.55,768.0569 1106.2,798.2969 C1111.78,799.2469 1111.646,799.198 1117.446,800.248 " fill="transparent" id="C_0000586299741862872695-to-C_0000996348329834985739" style="stroke:#181818;stroke-width:1;"/><polygon fill="#181818" points="1123.35,801.3169,1115.2065,795.7776,1118.43,800.4262,1113.7814,803.6496,1123.35,801.3169" style="stroke:#181818;stroke-width:1;"/></g><!--link C_0000140301785284925217 to C_0000586299741862872695--><g id="link_C_0000140301785284925217_C_0000586299741862872695"><path d="M496.82,546.3169 C454.55,563.3069 395.5274,587.0099 353.2174,604.0099 " fill="transparent" id="C_0000140301785284925217-to-C_0000586299741862872695" style="stroke:#181818;stroke-width:1;"/><polygon fill="#181818" points="347.65,606.2469,357.4924,606.603,352.2895,604.3827,354.5098,599.1798,347.65,606.2469" style="stroke:#181818;stroke-width:1;"/></g><!--link C_0000140301785284925217 to C_0001938476450842061831--><g id="link_C_0000140301785284925217_C_0001938476450842061831"><path d="M603.75,541.7269 C689.75,558.2969 836.3783,586.542 932.9883,605.152 " fill="transparent" id="C_0000140301785284925217-to-C_0001938476450842061831" style="stroke:#181818;stroke-width:1;"/><polygon fill="#181818" points="938.88,606.2869,930.7991,600.6567,933.9703,605.3411,929.2859,608.5123,938.88,606.2869" style="stroke:#181818;stroke-width:1;"/></g><!--link C_0000140301785284925217 to C_0000879593267266762645--><g id="link_C_0000140301785284925217_C_0000879593267266762645"><path d="M581.77,510.1769 C670.8,474.3769 883.5,399.7369 1065.7,420.2969 C1073.63,421.1869 1076.43,420.0769 1083.2,424.2969 C1117.65,445.8069 1141.2891,481.2883 1154.6791,504.8883 " fill="transparent" id="C_0000140301785284925217-to-C_0000879593267266762645" style="stroke:#181818;stroke-width:1;"/><polygon fill="#181818" points="1157.64,510.1069,1156.6777,500.3051,1155.1726,505.7581,1149.7197,504.253,1157.64,510.1069" style="stroke:#181818;stroke-width:1;"/></g><!--link C_0000140301785284925217 to C_0001300096626171124337--><g id="link_C_0000140301785284925217_C_0001300096626171124337"><path d="M530.39,546.5369 C521.73,563.4969 511.3187,583.9032 502.6787,600.8232 " fill="transparent" id="C_0000140301785284925217-to-C_0001300096626171124337" style="stroke:#181818;stroke-width:1;"/><polygon fill="#181818" points="499.95,606.1669,507.6054,599.9705,502.2239,601.7138,500.4806,596.3323,499.95,606.1669" style="stroke:#181818;stroke-width:1;"/></g><!--link C_0001300096626171124337 to C_0000091103538070137837--><g id="link_C_0001300096626171124337_C_0000091103538070137837"><path d="M514.19,642.4869 C532.87,656.1369 560.15,675.3469 585.2,690.2969 C727.15,774.9969 899.9483,856.711 976.2683,891.791 " fill="transparent" id="C_0001300096626171124337-to-C_0000091103538070137837" style="stroke:#181818;stroke-width:1;"/><polygon fill="#181818" points="981.72,894.2969,975.213,886.9037,977.1769,892.2087,971.8719,894.1726,981.72,894.2969" style="stroke:#181818;stroke-width:1;"/></g><!--link C_0001300096626171124337 to C_0000031981611129979020--><g id="link_C_0001300096626171124337_C_0000031981611129979020"><path d="M535.5,642.3069 C578.24,657.8569 645.12,679.9669 705.2,690.2969 C820.52,710.1169 852.66,683.8069 968.2,702.2969 C969.5,702.5069 964.9133,701.6185 966.2433,701.8685 " fill="transparent" id="C_0001300096626171124337-to-C_0000031981611129979020" style="stroke:#181818;stroke-width:1;"/><polygon fill="#181818" points="972.14,702.9769,964.0338,697.3831,967.2261,702.0532,962.556,705.2454,972.14,702.9769" style="stroke:#181818;stroke-width:1;"/></g><!--link C_0000545073394723083184 to C_0000787048741638979387--><g id="link_C_0000545073394723083184_C_0000787048741638979387"><path d="M440.06,542.6869 C445.85,543.9269 451.63,545.1469 457.2,546.2969 C577.58,571.2369 713.2862,597.4331 789.0162,611.8731 " fill="transparent" id="C_0000545073394723083184-to-C_0000787048741638979387" style="stroke:#181818;stroke-width:1;"/><polygon fill="#181818" points="794.91,612.9969,786.8185,607.3819,789.9985,612.0604,785.3201,615.2404,794.91,612.9969" style="stroke:#181818;stroke-width:1;"/></g><!--link C_0000545073394723083184 to C_0001173554342931432442--><g id="link_C_0000545073394723083184_C_0001173554342931432442"><path d="M318.53,542.0769 C283.58,552.8869 242.47,572.2669 221.2,606.2969 C201.41,637.9569 202.14,658.1969 221.2,690.2969 C346.28,900.9969 471.47,880.7369 705.2,954.2969 C913.05,1019.7169 1171.8003,1024.154 1271.6503,1023.204 " fill="transparent" id="C_0000545073394723083184-to-C_0001173554342931432442" style="stroke:#181818;stroke-width:1;"/><polygon fill="#181818" points="1277.65,1023.1469,1268.6124,1019.2327,1272.6502,1023.1944,1268.6885,1027.2323,1277.65,1023.1469" style="stroke:#181818;stroke-width:1;"/></g><!--link C_0000545073394723083184 to C_0001487034747547699479--><g id="link_C_0000545073394723083184_C_0001487034747547699479"><path d="M439.89,545.8969 C494.49,561.7569 569.64,586.1469 593.2,606.2969 C625.54,633.9669 604.34,665.8669 639.2,690.2969 C642.29,692.4669 731.0912,705.5022 784.8712,713.2422 " fill="transparent" id="C_0000545073394723083184-to-C_0001487034747547699479" style="stroke:#181818;stroke-width:1;"/><polygon fill="#181818" points="790.81,714.0969,782.4716,708.8556,785.861,713.3846,781.332,716.774,790.81,714.0969" style="stroke:#181818;stroke-width:1;"/></g><!--link C_0001616841349791035991 to C_0001300096626171124337--><g id="link_C_0001616841349791035991_C_0001300096626171124337"><path d="M608.15,392.7169 C613.2,401.7669 618.63,413.2269 621.2,424.2969 C633.44,477.1169 648.05,499.1869 621.2,546.2969 C604.77,575.1269 578.3493,591.9138 550.2493,603.8938 " fill="transparent" id="C_0001616841349791035991-to-C_0001300096626171124337" style="stroke:#181818;stroke-width:1;"/><polygon fill="#181818" points="544.73,606.2469,554.5777,606.3968,549.3294,604.286,551.4403,599.0377,544.73,606.2469" style="stroke:#181818;stroke-width:1;"/></g><!--link C_0001616841349791035991 to C_0001950482363707889771--><g id="link_C_0001616841349791035991_C_0001950482363707889771"><path d="M641.74,390.5569 C669.68,399.5069 706.65,410.2269 740.2,416.2969 C762.35,420.3069 821.93,412.6569 841.2,424.2969 C896.08,457.4469 866.15,508.8469 918.2,546.2969 C940.07,562.0369 1099.6119,596.1134 1181.5719,612.8934 " fill="transparent" id="C_0001616841349791035991-to-C_0001950482363707889771" style="stroke:#181818;stroke-width:1;"/><polygon fill="#181818" points="1187.45,614.0969,1179.4352,608.373,1182.5516,613.094,1177.8306,616.2104,1187.45,614.0969" style="stroke:#181818;stroke-width:1;"/></g><!--link C_0001616841349791035991 to C_0001084419599357613350--><g id="link_C_0001616841349791035991_C_0001084419599357613350"><path d="M577.75,392.3269 C566.23,401.2969 550.84,411.4169 535.2,416.2969 C513.77,422.9769 146.91,408.2669 131.2,424.2969 C43.82,513.4169 120.03,617.2169 221.2,690.2969 C289.87,739.9069 604.25,785.0269 955.2,834.2969 C1028.64,844.6069 1049.64,831.8169 1121.2,851.2969 C1157.52,861.1869 1191.1305,877.3361 1217.0205,891.3161 " fill="transparent" id="C_0001616841349791035991-to-C_0001084419599357613350" style="stroke:#181818;stroke-width:1;"/><polygon fill="#181818" points="1222.3,894.1669,1216.2813,886.371,1217.9004,891.7912,1212.4802,893.4103,1222.3,894.1669" style="stroke:#181818;stroke-width:1;"/></g><!--link C_0001616841349791035991 to C_0001938476450842061831--><g id="link_C_0001616841349791035991_C_0001938476450842061831"><path d="M641.74,388.9569 C669.85,397.3569 706.99,408.0469 740.2,416.2969 C756.95,420.4569 763.26,415.6569 778.2,424.2969 C841.13,460.7169 830.31,501.0169 887.2,546.2969 C918.45,571.1669 953.4121,589.87 982.7721,603.7 " fill="transparent" id="C_0001616841349791035991-to-C_0001938476450842061831" style="stroke:#181818;stroke-width:1;"/><polygon fill="#181818" points="988.2,606.2569,981.7626,598.803,983.6767,604.1262,978.3535,606.0403,988.2,606.2569" style="stroke:#181818;stroke-width:1;"/></g><!--link C_0001616841349791035991 to C_0000879593267266762645--><g id="link_C_0001616841349791035991_C_0000879593267266762645"><path d="M641.98,385.9369 C685.45,395.7669 753.43,409.7769 813.2,416.2969 C843.03,419.5469 1056.28,411.0269 1083.2,424.2969 C1120.24,442.5669 1143.8053,480.3115 1156.2853,504.5715 " fill="transparent" id="C_0001616841349791035991-to-C_0000879593267266762645" style="stroke:#181818;stroke-width:1;"/><polygon fill="#181818" points="1159.03,509.9069,1158.4699,500.074,1156.7428,505.4607,1151.356,503.7335,1159.03,509.9069" style="stroke:#181818;stroke-width:1;"/></g><!--link C_0001616841349791035991 to C_0001487034747547699479--><g id="link_C_0001616841349791035991_C_0001487034747547699479"><path d="M642.08,390.2269 C658.45,397.8969 675.54,408.9369 686.2,424.2969 C754.31,522.4669 646.44,600.4369 725.2,690.2969 C741.46,708.8469 762.6785,715.2481 784.8985,717.7781 " fill="transparent" id="C_0001616841349791035991-to-C_0001487034747547699479" style="stroke:#181818;stroke-width:1;"/><polygon fill="#181818" points="790.86,718.4569,782.3703,713.4644,785.8921,717.8912,781.4653,721.413,790.86,718.4569" style="stroke:#181818;stroke-width:1;"/></g><!--link C_0001088426035973322289 to C_0000612476246126510831--><g id="link_C_0001088426035973322289_C_0000612476246126510831"><path d="M529.74,296.5369 C519.46,313.4969 506.961,334.1164 496.701,351.0364 " fill="transparent" id="C_0001088426035973322289-to-C_0000612476246126510831" style="stroke:#181818;stroke-width:1;"/><polygon fill="#181818" points="493.59,356.1669,501.6768,350.5452,496.1825,351.8915,494.8362,346.3972,493.59,356.1669" style="stroke:#181818;stroke-width:1;"/></g><!--link C_0000091103538070137837 to C_0001173554342931432442--><g id="link_C_0000091103538070137837_C_0001173554342931432442"><path d="M1065.08,930.3269 C1085.07,937.7169 1108.78,946.4669 1130.2,954.2969 C1180.89,972.8269 1233.7149,991.904 1271.8149,1005.624 " fill="transparent" id="C_0000091103538070137837-to-C_0001173554342931432442" style="stroke:#181818;stroke-width:1;"/><polygon fill="#181818" points="1277.46,1007.6569,1270.3475,1000.8442,1272.7557,1005.9628,1267.6371,1008.371,1277.46,1007.6569" style="stroke:#181818;stroke-width:1;"/></g><!--link C_0000091103538070137837 to C_0000080293097801809824--><g id="link_C_0000091103538070137837_C_0000080293097801809824"><path d="M955.29,930.3269 C875.42,951.6169 745.8876,986.1316 670.6276,1006.1916 " fill="transparent" id="C_0000091103538070137837-to-C_0000080293097801809824" style="stroke:#181818;stroke-width:1;"/><polygon fill="#181818" points="664.83,1007.7369,674.5566,1009.284,669.6613,1006.4491,672.4962,1001.5539,664.83,1007.7369" style="stroke:#181818;stroke-width:1;"/></g><!--link C_0001938476450842061831 to C_0001173554342931432442--><g id="link_C_0001938476450842061831_C_0001173554342931432442"><path d="M1003.47,642.5369 C986.45,656.4869 964.87,677.7869 955.2,702.2969 C933.66,756.8669 915.88,790.7469 955.2,834.2969 C980.05,861.8169 1091.99,828.4469 1121.2,851.2969 C1159.51,881.2769 1124.8,918.9369 1158.2,954.2969 C1190.11,988.0869 1235.7017,1004.4019 1271.6117,1013.1819 " fill="transparent" id="C_0001938476450842061831-to-C_0001173554342931432442" style="stroke:#181818;stroke-width:1;"/><polygon fill="#181818" points="1277.44,1014.6069,1269.6475,1008.5838,1272.5831,1013.4194,1267.7475,1016.3549,1277.44,1014.6069" style="stroke:#181818;stroke-width:1;"/></g><!--link C_0001938476450842061831 to C_0000031981611129979020--><g id="link_C_0001938476450842061831_C_0000031981611129979020"><path d="M1027.56,642.5369 C1027.93,659.4969 1028.3424,679.2482 1028.7024,696.1682 " fill="transparent" id="C_0001938476450842061831-to-C_0000031981611129979020" style="stroke:#181818;stroke-width:1;"/><polygon fill="#181818" points="1028.83,702.1669,1032.6376,693.0838,1028.7236,697.168,1024.6395,693.254,1028.83,702.1669" style="stroke:#181818;stroke-width:1;"/></g><!--link C_0000031981611129979020 to C_0000421078814092892305--><g id="link_C_0000031981611129979020_C_0000421078814092892305"><path d="M1086.6,734.2669 C1175.09,754.2669 1336.0976,790.6443 1406.5876,806.5743 " fill="transparent" id="C_0000031981611129979020-to-C_0000421078814092892305" style="stroke:#181818;stroke-width:1;"/><polygon fill="#181818" points="1412.44,807.8969,1404.5431,802.0114,1407.563,806.7947,1402.7797,809.8146,1412.44,807.8969" style="stroke:#181818;stroke-width:1;"/></g><!--link C_0000421078814092892305 to C_0001977262033638856214--><g id="link_C_0000421078814092892305_C_0001977262033638856214"><path d="M1477.84,820.1769 C1549.82,826.6569 1717.75,842.4869 1742.2,851.2969 C1769.29,861.0569 1791.7306,876.4465 1809.4306,890.4965 " fill="transparent" id="C_0000421078814092892305-to-C_0001977262033638856214" style="stroke:#181818;stroke-width:1;"/><polygon fill="#181818" points="1814.13,894.2269,1809.5678,885.4984,1810.2138,891.1183,1804.594,891.7643,1814.13,894.2269" style="stroke:#181818;stroke-width:1;"/></g><!--link C_0000879593267266762645 to C_0001950482363707889771--><g id="link_C_0000879593267266762645_C_0001950482363707889771"><path d="M1179.3,546.5369 C1191.21,563.4969 1205.8422,584.3364 1217.7222,601.2564 " fill="transparent" id="C_0000879593267266762645-to-C_0001950482363707889771" style="stroke:#181818;stroke-width:1;"/><polygon fill="#181818" points="1221.17,606.1669,1219.272,596.5026,1218.2968,602.0748,1212.7247,601.0997,1221.17,606.1669" style="stroke:#181818;stroke-width:1;"/></g><!--link C_0000879593267266762645 to C_0001938476450842061831--><g id="link_C_0000879593267266762645_C_0001938476450842061831"><path d="M1141.84,546.3169 C1116.63,563.2469 1083.1308,585.7414 1057.8208,602.7414 " fill="transparent" id="C_0000879593267266762645-to-C_0001938476450842061831" style="stroke:#181818;stroke-width:1;"/><polygon fill="#181818" points="1052.84,606.0869,1062.5414,604.3892,1056.9906,603.299,1058.0809,597.7482,1052.84,606.0869" style="stroke:#181818;stroke-width:1;"/></g><!--link C_0001950482363707889771 to C_0000160790283619195758--><g id="link_C_0001950482363707889771_C_0000160790283619195758"><path d="M1240.53,642.5369 C1247.75,659.4969 1256.3607,679.7259 1263.5607,696.6459 " fill="transparent" id="C_0001950482363707889771-to-C_0000160790283619195758" style="stroke:#181818;stroke-width:1;"/><polygon fill="#181818" points="1265.91,702.1669,1266.0666,692.3193,1263.9522,697.5661,1258.7054,695.4517,1265.91,702.1669" style="stroke:#181818;stroke-width:1;"/></g><!--link C_0001950482363707889771 to C_0000031981611129979020--><g id="link_C_0001950482363707889771_C_0000031981611129979020"><path d="M1218.75,642.3669 C1205.16,657.2969 1183.47,678.3969 1160.2,690.2969 C1156.67,692.0969 1125.7881,698.9159 1092.1081,706.0959 " fill="transparent" id="C_0001950482363707889771-to-C_0000031981611129979020" style="stroke:#181818;stroke-width:1;"/><polygon fill="#181818" points="1086.24,707.3469,1095.8762,709.3825,1091.1301,706.3044,1094.2082,701.5583,1086.24,707.3469" style="stroke:#181818;stroke-width:1;"/></g><!--link C_0001950482363707889771 to C_0000001380661770452430--><g id="link_C_0001950482363707889771_C_0000001380661770452430"><path d="M1214.82,642.4969 C1176.18,678.6669 1091.2509,758.1571 1052.7609,794.1771 " fill="transparent" id="C_0001950482363707889771-to-C_0000001380661770452430" style="stroke:#181818;stroke-width:1;"/><polygon fill="#181818" points="1048.38,798.2769,1057.6845,795.0478,1052.0307,794.8604,1052.2182,789.2067,1048.38,798.2769" style="stroke:#181818;stroke-width:1;"/></g><!--link C_0001950482363707889771 to C_0000996348329834985739--><g id="link_C_0001950482363707889771_C_0000996348329834985739"><path d="M1216.05,642.4869 C1202.84,657.0269 1185.62,679.1469 1178.2,702.2969 C1167.66,735.1669 1177.1709,769.9473 1185.7109,792.4473 " fill="transparent" id="C_0001950482363707889771-to-C_0000996348329834985739" style="stroke:#181818;stroke-width:1;"/><polygon fill="#181818" points="1187.84,798.0569,1188.386,788.2232,1186.0657,793.3823,1180.9066,791.062,1187.84,798.0569" style="stroke:#181818;stroke-width:1;"/></g><!--link C_0001950482363707889771 to C_0001977262033638856214--><g id="link_C_0001950482363707889771_C_0001977262033638856214"><path d="M1252.43,642.3069 C1271.62,658.0869 1302.72,680.5669 1334.2,690.2969 C1357.4,697.4669 1751.9,687.5469 1771.2,702.2969 C1832.31,749.0269 1836.2733,847.0688 1835.2233,888.1388 " fill="transparent" id="C_0001950482363707889771-to-C_0001977262033638856214" style="stroke:#181818;stroke-width:1;"/><polygon fill="#181818" points="1835.07,894.1369,1839.2987,885.242,1835.1978,889.1385,1831.3013,885.0376,1835.07,894.1369" style="stroke:#181818;stroke-width:1;"/></g><!--link C_0000160790283619195758 to C_0000091103538070137837--><g id="link_C_0000160790283619195758_C_0000091103538070137837"><path d="M1281.89,738.6069 C1292.79,763.0669 1307.42,807.7369 1284.2,834.2969 C1265.6,855.5669 1185.42,843.7369 1158.2,851.2969 C1120.33,861.8069 1084.6612,877.8329 1057.0612,891.5729 " fill="transparent" id="C_0000160790283619195758-to-C_0000091103538070137837" style="stroke:#181818;stroke-width:1;"/><polygon fill="#181818" points="1051.69,894.2469,1061.5295,893.8168,1056.166,892.0186,1057.9642,886.6552,1051.69,894.2469" style="stroke:#181818;stroke-width:1;"/></g><!--link C_0000160790283619195758 to C_0000001380661770452430--><g id="link_C_0000160790283619195758_C_0000001380661770452430"><path d="M1229.19,738.3169 C1185.29,755.3069 1123.8156,779.0815 1079.8856,796.0815 " fill="transparent" id="C_0000160790283619195758-to-C_0000001380661770452430" style="stroke:#181818;stroke-width:1;"/><polygon fill="#181818" points="1074.29,798.2469,1084.127,798.7292,1078.953,796.4424,1081.2398,791.2684,1074.29,798.2469" style="stroke:#181818;stroke-width:1;"/></g><!--link C_0000160790283619195758 to C_0000996348329834985739--><g id="link_C_0000160790283619195758_C_0000996348329834985739"><path d="M1258.89,738.5369 C1244.82,755.4969 1227.2931,776.6308 1213.2431,793.5508 " fill="transparent" id="C_0000160790283619195758-to-C_0000996348329834985739" style="stroke:#181818;stroke-width:1;"/><polygon fill="#181818" points="1209.41,798.1669,1218.2369,793.7982,1212.6042,794.3202,1212.0822,788.6875,1209.41,798.1669" style="stroke:#181818;stroke-width:1;"/></g><!--link C_0000160790283619195758 to C_0001977262033638856214--><g id="link_C_0000160790283619195758_C_0001977262033638856214"><path d="M1351.26,735.2769 C1446.46,754.0269 1610.9,792.0069 1742.2,851.2969 C1767.74,862.8369 1789.4659,877.3392 1807.4359,890.6292 " fill="transparent" id="C_0000160790283619195758-to-C_0001977262033638856214" style="stroke:#181818;stroke-width:1;"/><polygon fill="#181818" points="1812.26,894.1969,1807.4024,885.6293,1808.24,891.2238,1802.6455,892.0614,1812.26,894.1969" style="stroke:#181818;stroke-width:1;"/></g><!--link C_0000001380661770452430 to C_0000091103538070137837--><g id="link_C_0000001380661770452430_C_0000091103538070137837"><path d="M1028.18,834.5369 C1026.2,851.4969 1023.8774,871.2875 1021.8974,888.2075 " fill="transparent" id="C_0000001380661770452430-to-C_0000091103538070137837" style="stroke:#181818;stroke-width:1;"/><polygon fill="#181818" points="1021.2,894.1669,1026.2189,885.6928,1021.7811,889.2008,1018.2732,884.763,1021.2,894.1669" style="stroke:#181818;stroke-width:1;"/></g><!--link C_0000001380661770452430 to C_0001084419599357613350--><g id="link_C_0000001380661770452430_C_0001084419599357613350"><path d="M1088.49,831.0769 C1107.84,836.4369 1129.26,843.2469 1148.2,851.2969 C1176.21,863.1969 1201.0361,877.813 1221.5561,890.943 " fill="transparent" id="C_0000001380661770452430-to-C_0001084419599357613350" style="stroke:#181818;stroke-width:1;"/><polygon fill="#181818" points="1226.61,894.1769,1221.185,885.9568,1222.3984,891.482,1216.8732,892.6954,1226.61,894.1769" style="stroke:#181818;stroke-width:1;"/></g><!--link C_0000001380661770452430 to C_0001487034747547699479--><g id="link_C_0000001380661770452430_C_0001487034747547699479"><path d="M993.19,798.1569 C956.33,781.0969 905.5447,757.5777 868.9347,740.6277 " fill="transparent" id="C_0000001380661770452430-to-C_0001487034747547699479" style="stroke:#181818;stroke-width:1;"/><polygon fill="#181818" points="863.49,738.1069,869.9766,745.518,868.0273,740.2076,873.3377,738.2583,863.49,738.1069" style="stroke:#181818;stroke-width:1;"/></g><!--link C_0001326133486042398391 to C_0000160790283619195758--><g id="link_C_0001326133486042398391_C_0000160790283619195758"><path d="M1316.17,546.5169 C1317.24,576.8269 1316.62,641.1769 1296.2,690.2969 C1294.47,694.4469 1295.5323,693.6688 1292.8023,697.3688 " fill="transparent" id="C_0001326133486042398391-to-C_0000160790283619195758" style="stroke:#181818;stroke-width:1;"/><polygon fill="#181818" points="1289.24,702.1969,1297.8022,697.3297,1292.2086,698.1735,1291.3648,692.5799,1289.24,702.1969" style="stroke:#181818;stroke-width:1;"/></g><!--link C_0001326133486042398391 to C_0001173554342931432442--><g id="link_C_0001326133486042398391_C_0001173554342931432442"><path d="M1361.38,538.1869 C1399.07,548.0269 1450.34,567.8869 1477.2,606.2969 C1535.45,689.5969 1532.68,739.8069 1495.2,834.2969 C1464.45,911.8069 1389.8405,972.4508 1348.6605,1001.7208 " fill="transparent" id="C_0001326133486042398391-to-C_0001173554342931432442" style="stroke:#181818;stroke-width:1;"/><polygon fill="#181818" points="1343.77,1005.1969,1353.4231,1003.2431,1347.8454,1002.3001,1348.7884,996.7224,1343.77,1005.1969" style="stroke:#181818;stroke-width:1;"/></g><!--link C_0001326133486042398391 to C_0000031981611129979020--><g id="link_C_0001326133486042398391_C_0000031981611129979020"><path d="M1268.92,544.6569 C1237.6,557.0669 1197.17,577.2769 1170.2,606.2969 C1142.43,636.1769 1164.03,663.5869 1133.2,690.2969 C1129.18,693.7769 1114.0886,698.3733 1092.0686,704.0733 " fill="transparent" id="C_0001326133486042398391-to-C_0000031981611129979020" style="stroke:#181818;stroke-width:1;"/><polygon fill="#181818" points="1086.26,705.5769,1095.9752,707.1939,1091.1005,704.3239,1093.9704,699.4491,1086.26,705.5769" style="stroke:#181818;stroke-width:1;"/></g><!--link C_0001326133486042398391 to C_0000363690717923519015--><g id="link_C_0001326133486042398391_C_0000363690717923519015"><path d="M1331.71,546.5369 C1347.94,563.4969 1368.4406,584.913 1384.6406,601.833 " fill="transparent" id="C_0001326133486042398391-to-C_0000363690717923519015" style="stroke:#181818;stroke-width:1;"/><polygon fill="#181818" points="1388.79,606.1669,1385.4551,596.8998,1385.3321,602.5553,1379.6766,602.4324,1388.79,606.1669" style="stroke:#181818;stroke-width:1;"/></g><!--link C_0000363690717923519015 to C_0000787048741638979387--><g id="link_C_0000363690717923519015_C_0000787048741638979387"><path d="M1376.76,606.1369 C1357.75,595.1069 1331.72,582.0669 1306.7,576.2969 C1146.46,539.3369 1095.99,535.4769 936.7,576.2969 C914.04,582.1069 895.9643,591.8419 879.1943,602.8619 " fill="transparent" id="C_0000363690717923519015-to-C_0000787048741638979387" style="stroke:#181818;stroke-width:1;"/><polygon fill="#181818" points="874.18,606.1569,883.8981,604.5572,878.3586,603.411,879.5047,597.8715,874.18,606.1569" style="stroke:#181818;stroke-width:1;"/></g><!--link C_0000363690717923519015 to C_0000160790283619195758--><g id="link_C_0000363690717923519015_C_0000160790283619195758"><path d="M1385.57,642.5169 C1369.58,656.1869 1346.12,675.4069 1324.2,690.2969 C1318.13,694.4169 1316.6296,695.5056 1310.1496,699.2656 " fill="transparent" id="C_0000363690717923519015-to-C_0000160790283619195758" style="stroke:#181818;stroke-width:1;"/><polygon fill="#181818" points="1304.96,702.2769,1314.752,701.2197,1309.2847,699.7675,1310.7369,694.3002,1304.96,702.2769" style="stroke:#181818;stroke-width:1;"/></g><!--link C_0000363690717923519015 to C_0000982121795660982507--><g id="link_C_0000363690717923519015_C_0000982121795660982507"><path d="M1452.64,642.3169 C1499.98,659.3069 1566.6528,683.2198 1614.0128,700.2198 " fill="transparent" id="C_0000363690717923519015-to-C_0000982121795660982507" style="stroke:#181818;stroke-width:1;"/><polygon fill="#181818" points="1619.66,702.2469,1612.5406,695.4415,1614.954,700.5576,1609.8378,702.9711,1619.66,702.2469" style="stroke:#181818;stroke-width:1;"/></g><!--link C_0000363690717923519015 to C_0000421078814092892305--><g id="link_C_0000363690717923519015_C_0000421078814092892305"><path d="M1412.77,642.3669 C1419.25,657.7269 1428.29,681.0969 1433.2,702.2969 C1440.93,735.7369 1443.4394,769.9325 1444.4094,792.2425 " fill="transparent" id="C_0000363690717923519015-to-C_0000421078814092892305" style="stroke:#181818;stroke-width:1;"/><polygon fill="#181818" points="1444.67,798.2369,1448.2753,789.0716,1444.4528,793.2416,1440.2828,789.4191,1444.67,798.2369" style="stroke:#181818;stroke-width:1;"/></g><!--link C_0000363690717923519015 to C_0000996348329834985739--><g id="link_C_0000363690717923519015_C_0000996348329834985739"><path d="M1404.07,642.3669 C1401.6,666.5469 1393.81,710.8669 1369.2,738.2969 C1342.5,768.0469 1307.8676,784.9961 1272.7576,796.5861 " fill="transparent" id="C_0000363690717923519015-to-C_0000996348329834985739" style="stroke:#181818;stroke-width:1;"/><polygon fill="#181818" points="1267.06,798.4669,1276.8603,799.4441,1271.808,796.8995,1274.3525,791.8473,1267.06,798.4669" style="stroke:#181818;stroke-width:1;"/></g><!--link C_0000363690717923519015 to C_0001084419599357613350--><g id="link_C_0000363690717923519015_C_0001084419599357613350"><path d="M1405.3,642.5069 C1404.85,665.3269 1401.97,706.4269 1388.2,738.2969 C1360.02,803.5269 1305.3229,861.1464 1275.1529,890.0464 " fill="transparent" id="C_0000363690717923519015-to-C_0001084419599357613350" style="stroke:#181818;stroke-width:1;"/><polygon fill="#181818" points="1270.82,894.1969,1280.0863,890.8597,1274.4307,890.7382,1274.5523,885.0826,1270.82,894.1969" style="stroke:#181818;stroke-width:1;"/></g><!--link C_0000363690717923519015 to C_0001487034747547699479--><g id="link_C_0000363690717923519015_C_0001487034747547699479"><path d="M1383.8,642.5769 C1362.87,658.3369 1329.4,680.5769 1296.2,690.2969 C1215.75,713.8469 1002.54,693.3269 919.2,702.2969 C900.63,704.2969 886.052,706.7428 869.162,710.1428 " fill="transparent" id="C_0000363690717923519015-to-C_0001487034747547699479" style="stroke:#181818;stroke-width:1;"/><polygon fill="#181818" points="863.28,711.3269,872.8924,713.4721,868.1817,710.3402,871.3136,705.6294,863.28,711.3269" style="stroke:#181818;stroke-width:1;"/></g><!--link C_0000363690717923519015 to C_0001977262033638856214--><g id="link_C_0000363690717923519015_C_0001977262033638856214"><path d="M1459.46,638.1669 C1520.79,652.3769 1623.74,675.2369 1713.2,690.2969 C1734.18,693.8269 1793.17,687.2369 1808.2,702.2969 C1860.25,754.4469 1847.6786,848.1099 1839.4486,888.1299 " fill="transparent" id="C_0000363690717923519015-to-C_0001977262033638856214" style="stroke:#181818;stroke-width:1;"/><polygon fill="#181818" points="1838.24,894.0069,1843.9709,885.9971,1839.2472,889.1094,1836.1349,884.3856,1838.24,894.0069" style="stroke:#181818;stroke-width:1;"/></g><!--link C_0000982121795660982507 to C_0001977262033638856214--><g id="link_C_0000982121795660982507_C_0001977262033638856214"><path d="M1678.93,738.4269 C1694.79,761.1569 1724.41,802.1669 1753.2,834.2969 C1772.75,856.1169 1792.9398,874.9959 1809.8798,890.0859 " fill="transparent" id="C_0000982121795660982507-to-C_0001977262033638856214" style="stroke:#181818;stroke-width:1;"/><polygon fill="#181818" points="1814.36,894.0769,1810.3003,885.1036,1810.6265,890.7511,1804.979,891.0773,1814.36,894.0769" style="stroke:#181818;stroke-width:1;"/></g><!--link C_0001404135812960657267 to C_0001487034747547699479--><g id="link_C_0001404135812960657267_C_0001487034747547699479"><path d="M938.36,546.3669 C866.21,566.5669 755.98,598.4669 750.2,606.2969 C728.02,636.3269 728.95,659.5969 750.2,690.2969 C759.46,703.6869 769.9362,709.4238 785.1462,713.3038 " fill="transparent" id="C_0001404135812960657267-to-C_0001487034747547699479" style="stroke:#181818;stroke-width:1;"/><polygon fill="#181818" points="790.96,714.7869,783.228,708.6864,786.1152,713.551,781.2506,716.4381,790.96,714.7869" style="stroke:#181818;stroke-width:1;"/></g><!--link C_0000095433710591389917 to C_0001950482363707889771--><g id="link_C_0000095433710591389917_C_0001950482363707889771"><path d="M1488.67,543.7769 C1431.59,561.5469 1341.169,589.694 1284.519,607.324 " fill="transparent" id="C_0000095433710591389917-to-C_0001950482363707889771" style="stroke:#181818;stroke-width:1;"/><polygon fill="#181818" points="1278.79,609.1069,1288.5721,610.2518,1283.5642,607.6211,1286.1949,602.6132,1278.79,609.1069" style="stroke:#181818;stroke-width:1;"/></g><!--link C_0000095433710591389917 to C_0000982121795660982507--><g id="link_C_0000095433710591389917_C_0000982121795660982507"><path d="M1547.14,546.4969 C1572.28,582.6669 1626.9271,661.329 1651.9471,697.349 " fill="transparent" id="C_0000095433710591389917-to-C_0000982121795660982507" style="stroke:#181818;stroke-width:1;"/><polygon fill="#181818" points="1655.37,702.2769,1653.5208,692.6032,1652.5176,698.1704,1646.9504,697.1671,1655.37,702.2769" style="stroke:#181818;stroke-width:1;"/></g><!--link C_0000095433710591389917 to C_0000421078814092892305--><g id="link_C_0000095433710591389917_C_0000421078814092892305"><path d="M1529.84,546.3269 C1513.87,597.0769 1468.521,741.1636 1452.441,792.2636 " fill="transparent" id="C_0000095433710591389917-to-C_0000421078814092892305" style="stroke:#181818;stroke-width:1;"/><polygon fill="#181818" points="1450.64,797.9869,1457.157,790.6026,1452.1408,793.2174,1449.5259,788.2012,1450.64,797.9869" style="stroke:#181818;stroke-width:1;"/></g><!--link C_0000095433710591389917 to C_0001084419599357613350--><g id="link_C_0000095433710591389917_C_0001084419599357613350"><path d="M1538.7,546.6069 C1547.9,597.4469 1567.38,748.1069 1495.2,834.2969 C1454.64,882.7269 1389.7047,900.3508 1334.9347,907.1208 " fill="transparent" id="C_0000095433710591389917-to-C_0001084419599357613350" style="stroke:#181818;stroke-width:1;"/><polygon fill="#181818" points="1328.98,907.8569,1338.4027,910.7226,1333.9422,907.2435,1337.4213,902.783,1328.98,907.8569" style="stroke:#181818;stroke-width:1;"/></g><!--link C_0000095433710591389917 to C_0001487034747547699479--><g id="link_C_0000095433710591389917_C_0001487034747547699479"><path d="M1488.45,534.5069 C1457.47,537.9269 1415.91,542.4669 1379.2,546.2969 C1312.45,553.2669 823.23,556.5469 778.2,606.2969 C753.14,633.9769 759.71,657.8669 778.2,690.2969 C781.33,695.7969 781.0999,696.8385 786.2799,700.5885 " fill="transparent" id="C_0000095433710591389917-to-C_0001487034747547699479" style="stroke:#181818;stroke-width:1;"/><polygon fill="#181818" points="791.14,704.1069,786.1954,695.5892,787.0899,701.1749,781.5042,702.0693,791.14,704.1069" style="stroke:#181818;stroke-width:1;"/></g><!--link C_0000095433710591389917 to C_0001977262033638856214--><g id="link_C_0000095433710591389917_C_0001977262033638856214"><path d="M1557.23,546.4669 C1599.57,578.7469 1696.22,648.9369 1787.2,690.2969 C1804.48,698.1569 1814.91,688.7369 1828.2,702.2969 C1879.39,754.5369 1855.5971,848.3314 1842.3471,888.3214 " fill="transparent" id="C_0000095433710591389917-to-C_0001977262033638856214" style="stroke:#181818;stroke-width:1;"/><polygon fill="#181818" points="1840.46,894.0169,1847.0877,886.7317,1842.0326,889.2706,1839.4937,884.2155,1840.46,894.0169" style="stroke:#181818;stroke-width:1;"/></g><!--link C_0001487034747547699479 to C_0000031981611129979020--><g id="link_C_0001487034747547699479_C_0000031981611129979020"><path d="M863.49,720.2969 C899.63,720.2969 929.77,720.2969 965.91,720.2969 " fill="transparent" id="C_0001487034747547699479-to-C_0000031981611129979020" style="stroke:#181818;stroke-width:1;"/><polygon fill="#181818" points="971.91,720.2969,962.91,716.2969,966.91,720.2969,962.91,724.2969,971.91,720.2969" style="stroke:#181818;stroke-width:1;"/></g><!--link C_0000787048741638979387 to C_0001173554342931432442--><g id="link_C_0000787048741638979387_C_0001173554342931432442"><path d="M857.87,642.5869 C865.18,657.9069 875.37,681.0769 881.2,702.2969 C911.14,811.3969 838.25,873.2569 917.2,954.2969 C966.72,1005.1269 1179.6837,1017.8472 1271.4837,1021.0572 " fill="transparent" id="C_0000787048741638979387-to-C_0001173554342931432442" style="stroke:#181818;stroke-width:1;"/><polygon fill="#181818" points="1277.48,1021.2669,1268.6253,1016.9548,1272.4831,1021.0921,1268.3457,1024.9499,1277.48,1021.2669" style="stroke:#181818;stroke-width:1;"/></g><!--link C_0000787048741638979387 to C_0000031981611129979020--><g id="link_C_0000787048741638979387_C_0000031981611129979020"><path d="M863.23,642.5469 C876.22,657.3969 896.86,678.2569 919.2,690.2969 C938.94,700.9369 946.51,696.6169 968.2,702.2969 C969.47,702.6269 964.9633,701.4181 966.2733,701.7681 " fill="transparent" id="C_0000787048741638979387-to-C_0000031981611129979020" style="stroke:#181818;stroke-width:1;"/><polygon fill="#181818" points="972.07,703.3169,964.4075,697.1293,967.2394,702.0263,962.3425,704.8582,972.07,703.3169" style="stroke:#181818;stroke-width:1;"/></g><!--link C_0000787048741638979387 to C_0001938476450842061831--><g id="link_C_0000787048741638979387_C_0001938476450842061831"><path d="M903.43,624.2969 C915.04,624.2969 920.64,624.2969 932.24,624.2969 " fill="transparent" id="C_0000787048741638979387-to-C_0001938476450842061831" style="stroke:#181818;stroke-width:1;"/><polygon fill="#181818" points="938.24,624.2969,929.24,620.2969,933.24,624.2969,929.24,628.2969,938.24,624.2969" style="stroke:#181818;stroke-width:1;"/></g><!--link C_0000787048741638979387 to C_0001487034747547699479--><g id="link_C_0000787048741638979387_C_0001487034747547699479"><path d="M845.16,642.5369 C841.19,659.4969 836.5373,679.4047 832.5773,696.3247 " fill="transparent" id="C_0000787048741638979387-to-C_0001487034747547699479" style="stroke:#181818;stroke-width:1;"/><polygon fill="#181818" points="831.21,702.1669,837.1557,694.3152,832.3494,697.2984,829.3662,692.4921,831.21,702.1669" style="stroke:#181818;stroke-width:1;"/></g><!--link C_0000787048741638979387 to C_0001977262033638856214--><g id="link_C_0000787048741638979387_C_0001977262033638856214"><path d="M861.66,642.5969 C874.18,658.3569 895.03,680.6069 919.2,690.2969 C961.64,707.3169 1704.08,677.0369 1742.2,702.2969 C1759.5,713.7669 1808.0055,840.8143 1825.8155,888.6243 " fill="transparent" id="C_0000787048741638979387-to-C_0001977262033638856214" style="stroke:#181818;stroke-width:1;"/><polygon fill="#181818" points="1827.91,894.2469,1828.5166,884.4167,1826.1646,889.5614,1821.0199,887.2094,1827.91,894.2469" style="stroke:#181818;stroke-width:1;"/></g><!--link C_0001587575351531605570 to C_0001173554342931432442--><g id="link_C_0001587575351531605570_C_0001173554342931432442"><path d="M1952.61,296.4469 C1973.35,335.9369 2021.2,436.7969 2021.2,527.2969 C2021.2,527.2969 2021.2,527.2969 2021.2,817.2969 C2021.2,886.4969 2004.64,915.6969 1947.2,954.2969 C1850.56,1019.2269 1488.6199,1023.2726 1364.9899,1022.7426 " fill="transparent" id="C_0001587575351531605570-to-C_0001173554342931432442" style="stroke:#181818;stroke-width:1;"/><polygon fill="#181818" points="1358.99,1022.7169,1367.9728,1026.7554,1363.99,1022.7383,1368.0071,1018.7555,1358.99,1022.7169" style="stroke:#181818;stroke-width:1;"/></g><!--link C_0001587575351531605570 to C_0001517501747809573739--><g id="link_C_0001587575351531605570_C_0001517501747809573739"><path d="M1923.1,260.1069 C1901.93,242.4369 1866.72,217.0869 1830.7,208.7969 C1794.42,200.4569 1531.97,200.4569 1495.7,208.7969 C1467.8,215.2169 1448.9931,236.668 1436.5731,255.018 " fill="transparent" id="C_0001587575351531605570-to-C_0001517501747809573739" style="stroke:#181818;stroke-width:1;"/><polygon fill="#181818" points="1433.21,259.9869,1441.5672,254.7757,1436.0126,255.8462,1434.9421,250.2915,1433.21,259.9869" style="stroke:#181818;stroke-width:1;"/></g><!--SRC=[dLd9ZXj73BthAmHVdC0PeVRbaaiEGG3dc5oCGEYHsYCXhGLIouvXsD-ULzsIkagrJC670MOaFh98Fh9Od7xRT-tyZ_sgkwpR-SkfEMvc7m_TkZtDtvnFgpVpvZp_RKa8eTneHQqMcbd5gH92px_UHLU7_SVjooHD3A7C42M5i9eORgnrqblOUlEbsNNBThVj-_PqNgm26vnOnJYpN1jfYLPg_k73rqV0jt_-kQeQpIusdWf9jIGKnpJ4Iiqrjqx5JN227exzzh3teOHJGmNHXX96cMHICGUz2KxGuJphTdLOFpf0A55SCoeLfOJ3k1Pt1pp0f6gzRH3ptR9lTyUkwTjpu0irWWj5XIIICcMD7dn9O2Q5vzMctJM15cKb8LfIBfcHJ2Z5dPQROEaiGMuG6AMjWGhDc1MKglHX4la9z1WZB2TA42EruLnmwILe17-RUDKrv_FoQiIBCsXYGJ65q2Y3217kaN67E7U1HICOqR18bH9mGDwvUDKSq82vG1b9ZHL2IYEby1pr0pOSBe0goeHMY37I9IbuJmVVHha7u7BNxfxRauzdX8FzEA2XHWdAyNF7tyKVrRHTksltVN0EQHIpg5MeOKQ3EdBISvUFpzDl3kj0ZmiiYicTI5YK1DN-UKRnIStuoVBO84vj7xf6-P0qnHJL5552SJXLCUJnLFWgyWvPrvnRj2BkOcp4TAgRUC31LNlimvAWoY2-w4qMTIgjfLSEZf8JkDrV0d8Wf-2ISXYSW35cXf8SnKRgUkGzx7Q7lSzQoYdL5YrEAcKC8wB8MgNGEkbG9x34nCHQj98JYcsTJ3wnhlb8ReY6GTJO4Ea49dJpeVLe3k9pWLPC1MT2i9kVORivN4whTjaTLatKJk4d5mRDt23GS6Bin15YKdRh8Ha6MMvGNCYzgsP5hyML0aqgz_ZeV6nMRHWXJYrw0GKHKIKMTUSqURAJWcFJRmAiOAuJkel28laWu51QerZ2bVxKRCFqe8jBovb2MIhq2ZWKk745UBc9KqpHqOLX77UDEulLUWX58h6tzfpY2LN4-MuuhdLerDBu3JsXxDHsGyxEc-qnZAUR3eX2QMiYSCNm8PwXkCUP_alNF7Tjwb1Wkn0uZBLSOjpWN0wgOaZaOjXicCCAev0k3lwDzPreuLSskZ_2KK1nXVa3nOhRW5gC5HvtHscFPEtPrLMSQcimI407gjtzZgury2mGZnAz_BHjFmVU289U9Gt8gZ1HWJVQo_PLt6Viwj_cvO7mLhgEIucqrCrYOn-_Irxlt96vNuuFKuWmcd21YKgY_2owxb37LxcWNUzVbfT-suLteWOSAWHLiAnHnBSxP98Ex_nhfpgSpi5OPuKK2AF4J8diMlFO3I4V-cm8cXUn60IfSU4NNXiSX4EpxYoUGQrGurHAroQqQ_ViRj19XkMeaHHStc0D1WV5w61g57kSPxO-sL63oZK2N2QQCaAc5W_1vQRPhxk79YYDHgM2an8pE95Iap6QdlJj6igEr4zFlsQ7vLbsYhwZ4WDI1IfnezIWOlBLd32Uv6jinMcSPQTwBuPHHgfGcSYNKV63e0OLFm1csP7-TLkf0Rw2KKLKrg_4B3vbEPwsAr29kw465VVWcXF65q0DAkxMLIVCL4eP5K_2DQWiUukeU7QUPPzDTrJYJLI1IhnSQb3now82bPZ6Qb2vVbX6nVDHrGcZqRac6l6aMcChnyFKuzQBVFHYdMMVidwbF3vrQb3nmsIMVUvMdB24oaU-Q2iR-QAj-8azoxwzNu_XAwZe2JNBFiudL3mBLg3obL94PIU7nEE_8eP5LAu3b56vMdx5LePHHLIMKMLRsHWcrY0Lzt9YCr6HvH8gCUNFijk2YbcqXCfpFh5Fc53nmc2MtIHKpAA9zK75JLH6vHYLM3DuDsoqFgX1vMBu2YfQCDIWSds-Y2gy0k9zISLDL4Pb_2gZylTN0PNtAx6zgV2hXCfFAKLKjjiarZaLF2oXyXsWQ2lBtY8gNYRDibkcYhkoYCf5eupAlbEAg6ndAzlAiRU4oZEgYCg-YOgeRAKazdclerBhkueJ9bPs5Ns-XCfdkOZAPhbumdm7AA5-C1hPoCURouhRFB6mh9XIIgWVj9LzEnHHsHYMRULYc5WurkpqIgZ4zc3szlTstmx_dvf_tlQR-R0VVhhikb_cdzhJUNlOpyb2BCYJVdenZNh6l3fx-_xztt_Ul_xh-RBlBoFm_Y5L2x9Gyv_UlMC4r0M1m6V2z3kzUlv86mOwIVP4lxV_7UdtcmX588HPW6m__my0]--></g></svg>