<svg xmlns="http://www.w3.org/2000/svg" xmlns:xlink="http://www.w3.org/1999/xlink" contentStyleType="text/css" data-diagram-type="DESCRIPTION" height="627px" preserveAspectRatio="none" style="width:1294px;height:627px;background:#FFFFFF;" version="1.1" viewBox="0 0 1294 627" width="1294px" zoomAndPan="magnify"><title>Include graph</title><defs/><g><text fill="#000000" font-family="sans-serif" font-size="14" font-weight="bold" lengthAdjust="spacing" textLength="108.9922" x="585.5039" y="22.9951">Include graph</text><!--cluster C_0011100957978370531577--><g id="cluster_C_0011100957978370531577"><path d="M8.5,43.2969 L33.0361,43.2969 A3.75,3.75 0 0 1 35.5361,45.7969 L42.5361,65.5938 L1284.5,65.5938 A2.5,2.5 0 0 1 1287,68.0938 L1287,617.7969 A2.5,2.5 0 0 1 1284.5,620.2969 L8.5,620.2969 A2.5,2.5 0 0 1 6,617.7969 L6,45.7969 A2.5,2.5 0 0 1 8.5,43.2969 " fill="transparent" style="stroke:#000000;stroke-width:1.5;"/><line style="stroke:#000000;stroke-width:1.5;" x1="6" x2="42.5361" y1="65.5938" y2="65.5938"/><text fill="#000000" font-family="sans-serif" font-size="14" font-weight="bold" lengthAdjust="spacing" textLength="23.5361" x="10" y="58.292">src</text></g><!--cluster C_0006410245235976671199--><g id="cluster_C_0006410245235976671199"><path d="M32.5,86.2969 L82.2949,86.2969 A3.75,3.75 0 0 1 84.7949,88.7969 L91.7949,108.5938 L710.5,108.5938 A2.5,2.5 0 0 1 713,111.0938 L713,362.7969 A2.5,2.5 0 0 1 710.5,365.2969 L32.5,365.2969 A2.5,2.5 0 0 1 30,362.7969 L30,88.7969 A2.5,2.5 0 0 1 32.5,86.2969 " fill="transparent" style="stroke:#000000;stroke-width:1.5;"/><line style="stroke:#000000;stroke-width:1.5;" x1="30" x2="91.7949" y1="108.5938" y2="108.5938"/><text fill="#000000" font-family="sans-serif" font-size="14" font-weight="bold" lengthAdjust="spacing" textLength="48.7949" x="34" y="101.292">config</text></g><!--cluster C_0000104943970053505636--><g id="cluster_C_0000104943970053505636"><path d="M739.5,278.2969 L807.1777,278.2969 A3.75,3.75 0 0 1 809.6777,280.7969 L816.6777,300.5938 L1045.5,300.5938 A2.5,2.5 0 0 1 1048,303.0938 L1048,593.7969 A2.5,2.5 0 0 1 1045.5,596.2969 L739.5,596.2969 A2.5,2.5 0 0 1 737,593.7969 L737,280.7969 A2.5,2.5 0 0 1 739.5,278.2969 " fill="transparent" style="stroke:#000000;stroke-width:1.5;"/><line style="stroke:#000000;stroke-width:1.5;" x1="737" x2="816.6777" y1="300.5938" y2="300.5938"/><text fill="#000000" font-family="sans-serif" font-size="14" font-weight="bold" lengthAdjust="spacing" textLength="66.6777" x="741" y="293.292">common</text></g><!--cluster C_0015093366486862577796--><g id="cluster_C_0015093366486862577796"><path d="M763.5,389.2969 L813.0215,389.2969 A3.75,3.75 0 0 1 815.5215,391.7969 L822.5215,411.5938 L1021.5,411.5938 A2.5,2.5 0 0 1 1024,414.0938 L1024,569.7969 A2.5,2.5 0 0 1 1021.5,572.2969 L763.5,572.2969 A2.5,2.5 0 0 1 761,569.7969 L761,391.7969 A2.5,2.5 0 0 1 763.5,389.2969 " fill="transparent" style="stroke:#000000;stroke-width:1.5;"/><line style="stroke:#000000;stroke-width:1.5;" x1="761" x2="822.5215" y1="411.5938" y2="411.5938"/><text fill="#000000" font-family="sans-serif" font-size="14" font-weight="bold" lengthAdjust="spacing" textLength="48.5215" x="765" y="404.292">model</text></g><!--cluster C_0014145132412893887777--><g id="cluster_C_0014145132412893887777"><path d="M1074.5,278.2969 L1101.7568,278.2969 A3.75,3.75 0 0 1 1104.2568,280.7969 L1111.2568,300.5938 L1260.5,300.5938 A2.5,2.5 0 0 1 1263,303.0938 L1263,569.7969 A2.5,2.5 0 0 1 1260.5,572.2969 L1074.5,572.2969 A2.5,2.5 0 0 1 1072,569.7969 L1072,280.7969 A2.5,2.5 0 0 1 1074.5,278.2969 " fill="transparent" style="stroke:#000000;stroke-width:1.5;"/><line style="stroke:#000000;stroke-width:1.5;" x1="1072" x2="1111.2568" y1="300.5938" y2="300.5938"/><text fill="#000000" font-family="sans-serif" font-size="14" font-weight="bold" lengthAdjust="spacing" textLength="26.2568" x="1076" y="293.292">util</text></g><!--entity C_0015079445126862667482--><a href="" target="_top" title="config.cc" xlink:actuate="onRequest" xlink:href="" xlink:show="new" xlink:title="config.cc" xlink:type="simple"><path d="M257.5,123.7969 L257.5,155.0938 A2.5,2.5 0 0 0 260,157.5938 L337.6855,157.5938 A2.5,2.5 0 0 0 340.1855,155.0938 L340.1855,131.2969 L330.1855,121.2969 L260,121.2969 A2.5,2.5 0 0 0 257.5,123.7969 " fill="#F1F1F1" style="stroke:#181818;stroke-width:0.5;"/><path d="M330.1855,121.2969 L330.1855,128.7969 A2.5,2.5 0 0 0 332.6855,131.2969 L340.1855,131.2969 " fill="#F1F1F1" style="stroke:#181818;stroke-width:0.5;"/><text fill="#000000" font-family="sans-serif" font-size="14" lengthAdjust="spacing" textLength="62.6855" x="267.5" y="144.292">config.cc</text></a><!--entity C_0012140013982476589918--><a href="" target="_top" title="config.h" xlink:actuate="onRequest" xlink:href="" xlink:show="new" xlink:title="config.h" xlink:type="simple"><path d="M498,219.7969 L498,251.0938 A2.5,2.5 0 0 0 500.5,253.5938 L571.6641,253.5938 A2.5,2.5 0 0 0 574.1641,251.0938 L574.1641,227.2969 L564.1641,217.2969 L500.5,217.2969 A2.5,2.5 0 0 0 498,219.7969 " fill="#F1F1F1" style="stroke:#181818;stroke-width:0.5;"/><path d="M564.1641,217.2969 L564.1641,224.7969 A2.5,2.5 0 0 0 566.6641,227.2969 L574.1641,227.2969 " fill="#F1F1F1" style="stroke:#181818;stroke-width:0.5;"/><text fill="#000000" font-family="sans-serif" font-size="14" lengthAdjust="spacing" textLength="56.1641" x="508" y="240.292">config.h</text></a><!--entity C_0002545126248170020497--><a href="" target="_top" title="option.h" xlink:actuate="onRequest" xlink:href="" xlink:show="new" xlink:title="option.h" xlink:type="simple"><path d="M439,315.7969 L439,347.0938 A2.5,2.5 0 0 0 441.5,349.5938 L514.0928,349.5938 A2.5,2.5 0 0 0 516.5928,347.0938 L516.5928,323.2969 L506.5928,313.2969 L441.5,313.2969 A2.5,2.5 0 0 0 439,315.7969 " fill="#F1F1F1" style="stroke:#181818;stroke-width:0.5;"/><path d="M506.5928,313.2969 L506.5928,320.7969 A2.5,2.5 0 0 0 509.0928,323.2969 L516.5928,323.2969 " fill="#F1F1F1" style="stroke:#181818;stroke-width:0.5;"/><text fill="#000000" font-family="sans-serif" font-size="14" lengthAdjust="spacing" textLength="57.5928" x="449" y="336.292">option.h</text></a><!--entity C_0009474769160410159032--><a href="" target="_top" title="diagram_templates.h" xlink:actuate="onRequest" xlink:href="" xlink:show="new" xlink:title="diagram_templates.h" xlink:type="simple"><path d="M175.5,219.7969 L175.5,251.0938 A2.5,2.5 0 0 0 178,253.5938 L342.0303,253.5938 A2.5,2.5 0 0 0 344.5303,251.0938 L344.5303,227.2969 L334.5303,217.2969 L178,217.2969 A2.5,2.5 0 0 0 175.5,219.7969 " fill="#F1F1F1" style="stroke:#181818;stroke-width:0.5;"/><path d="M334.5303,217.2969 L334.5303,224.7969 A2.5,2.5 0 0 0 337.0303,227.2969 L344.5303,227.2969 " fill="#F1F1F1" style="stroke:#181818;stroke-width:0.5;"/><text fill="#000000" font-family="sans-serif" font-size="14" lengthAdjust="spacing" textLength="149.0303" x="185.5" y="240.292">diagram_templates.h</text></a><!--entity C_0000850977248882698993--><a href="" target="_top" title="yaml_decoders.cc" xlink:actuate="onRequest" xlink:href="" xlink:show="new" xlink:title="yaml_decoders.cc" xlink:type="simple"><path d="M551,123.7969 L551,155.0938 A2.5,2.5 0 0 0 553.5,157.5938 L694.0488,157.5938 A2.5,2.5 0 0 0 696.5488,155.0938 L696.5488,131.2969 L686.5488,121.2969 L553.5,121.2969 A2.5,2.5 0 0 0 551,123.7969 " fill="#F1F1F1" style="stroke:#181818;stroke-width:0.5;"/><path d="M686.5488,121.2969 L686.5488,128.7969 A2.5,2.5 0 0 0 689.0488,131.2969 L696.5488,131.2969 " fill="#F1F1F1" style="stroke:#181818;stroke-width:0.5;"/><text fill="#000000" font-family="sans-serif" font-size="14" lengthAdjust="spacing" textLength="125.5488" x="561" y="144.292">yaml_decoders.cc</text></a><!--entity C_0013560060108228197304--><a href="" target="_top" title="schema.h" xlink:actuate="onRequest" xlink:href="" xlink:show="new" xlink:title="schema.h" xlink:type="simple"><path d="M609,219.7969 L609,251.0938 A2.5,2.5 0 0 0 611.5,253.5938 L694.5176,253.5938 A2.5,2.5 0 0 0 697.0176,251.0938 L697.0176,227.2969 L687.0176,217.2969 L611.5,217.2969 A2.5,2.5 0 0 0 609,219.7969 " fill="#F1F1F1" style="stroke:#181818;stroke-width:0.5;"/><path d="M687.0176,217.2969 L687.0176,224.7969 A2.5,2.5 0 0 0 689.5176,227.2969 L697.0176,227.2969 " fill="#F1F1F1" style="stroke:#181818;stroke-width:0.5;"/><text fill="#000000" font-family="sans-serif" font-size="14" lengthAdjust="spacing" textLength="68.0176" x="619" y="240.292">schema.h</text></a><!--entity C_0008629439082178352935--><a href="" target="_top" title="diagram_templates.cc" xlink:actuate="onRequest" xlink:href="" xlink:show="new" xlink:title="diagram_templates.cc" xlink:type="simple"><path d="M46,123.7969 L46,155.0938 A2.5,2.5 0 0 0 48.5,157.5938 L219.0518,157.5938 A2.5,2.5 0 0 0 221.5518,155.0938 L221.5518,131.2969 L211.5518,121.2969 L48.5,121.2969 A2.5,2.5 0 0 0 46,123.7969 " fill="#F1F1F1" style="stroke:#181818;stroke-width:0.5;"/><path d="M211.5518,121.2969 L211.5518,128.7969 A2.5,2.5 0 0 0 214.0518,131.2969 L221.5518,131.2969 " fill="#F1F1F1" style="stroke:#181818;stroke-width:0.5;"/><text fill="#000000" font-family="sans-serif" font-size="14" lengthAdjust="spacing" textLength="155.5518" x="56" y="144.292">diagram_templates.cc</text></a><!--entity C_0001520455994560399278--><a href="" target="_top" title="option.cc" xlink:actuate="onRequest" xlink:href="" xlink:show="new" xlink:title="option.cc" xlink:type="simple"><path d="M379,219.7969 L379,251.0938 A2.5,2.5 0 0 0 381.5,253.5938 L460.6143,253.5938 A2.5,2.5 0 0 0 463.1143,251.0938 L463.1143,227.2969 L453.1143,217.2969 L381.5,217.2969 A2.5,2.5 0 0 0 379,219.7969 " fill="#F1F1F1" style="stroke:#181818;stroke-width:0.5;"/><path d="M453.1143,217.2969 L453.1143,224.7969 A2.5,2.5 0 0 0 455.6143,227.2969 L463.1143,227.2969 " fill="#F1F1F1" style="stroke:#181818;stroke-width:0.5;"/><text fill="#000000" font-family="sans-serif" font-size="14" lengthAdjust="spacing" textLength="64.1143" x="389" y="240.292">option.cc</text></a><!--entity C_0010647698635028726129--><a href="" target="_top" title="yaml_emitters.cc" xlink:actuate="onRequest" xlink:href="" xlink:show="new" xlink:title="yaml_emitters.cc" xlink:type="simple"><path d="M376,123.7969 L376,155.0938 A2.5,2.5 0 0 0 378.5,157.5938 L513.5186,157.5938 A2.5,2.5 0 0 0 516.0186,155.0938 L516.0186,131.2969 L506.0186,121.2969 L378.5,121.2969 A2.5,2.5 0 0 0 376,123.7969 " fill="#F1F1F1" style="stroke:#181818;stroke-width:0.5;"/><path d="M506.0186,121.2969 L506.0186,128.7969 A2.5,2.5 0 0 0 508.5186,131.2969 L516.0186,131.2969 " fill="#F1F1F1" style="stroke:#181818;stroke-width:0.5;"/><text fill="#000000" font-family="sans-serif" font-size="14" lengthAdjust="spacing" textLength="120.0186" x="386" y="144.292">yaml_emitters.cc</text></a><!--entity C_0011896277980381595836--><a href="" target="_top" title="types.h" xlink:actuate="onRequest" xlink:href="" xlink:show="new" xlink:title="types.h" xlink:type="simple"><path d="M775,315.7969 L775,347.0938 A2.5,2.5 0 0 0 777.5,349.5938 L844.3916,349.5938 A2.5,2.5 0 0 0 846.8916,347.0938 L846.8916,323.2969 L836.8916,313.2969 L777.5,313.2969 A2.5,2.5 0 0 0 775,315.7969 " fill="#F1F1F1" style="stroke:#181818;stroke-width:0.5;"/><path d="M836.8916,313.2969 L836.8916,320.7969 A2.5,2.5 0 0 0 839.3916,323.2969 L846.8916,323.2969 " fill="#F1F1F1" style="stroke:#181818;stroke-width:0.5;"/><text fill="#000000" font-family="sans-serif" font-size="14" lengthAdjust="spacing" textLength="51.8916" x="785" y="336.292">types.h</text></a><!--entity C_0009388434743451459542--><a href="" target="_top" title="enums.h" xlink:actuate="onRequest" xlink:href="" xlink:show="new" xlink:title="enums.h" xlink:type="simple"><path d="M926.5,426.7969 L926.5,458.0938 A2.5,2.5 0 0 0 929,460.5938 L1004.6143,460.5938 A2.5,2.5 0 0 0 1007.1143,458.0938 L1007.1143,434.2969 L997.1143,424.2969 L929,424.2969 A2.5,2.5 0 0 0 926.5,426.7969 " fill="#F1F1F1" style="stroke:#181818;stroke-width:0.5;"/><path d="M997.1143,424.2969 L997.1143,431.7969 A2.5,2.5 0 0 0 999.6143,434.2969 L1007.1143,434.2969 " fill="#F1F1F1" style="stroke:#181818;stroke-width:0.5;"/><text fill="#000000" font-family="sans-serif" font-size="14" lengthAdjust="spacing" textLength="60.6143" x="936.5" y="447.292">enums.h</text></a><!--entity C_0000255852889039832162--><a href="" target="_top" title="namespace.h" xlink:actuate="onRequest" xlink:href="" xlink:show="new" xlink:title="namespace.h" xlink:type="simple"><path d="M777,426.7969 L777,458.0938 A2.5,2.5 0 0 0 779.5,460.5938 L888.5967,460.5938 A2.5,2.5 0 0 0 891.0967,458.0938 L891.0967,434.2969 L881.0967,424.2969 L779.5,424.2969 A2.5,2.5 0 0 0 777,426.7969 " fill="#F1F1F1" style="stroke:#181818;stroke-width:0.5;"/><path d="M881.0967,424.2969 L881.0967,431.7969 A2.5,2.5 0 0 0 883.5967,434.2969 L891.0967,434.2969 " fill="#F1F1F1" style="stroke:#181818;stroke-width:0.5;"/><text fill="#000000" font-family="sans-serif" font-size="14" lengthAdjust="spacing" textLength="94.0967" x="787" y="447.292">namespace.h</text></a><!--entity C_0003368630512743138441--><a href="" target="_top" title="path.h" xlink:actuate="onRequest" xlink:href="" xlink:show="new" xlink:title="path.h" xlink:type="simple"><path d="M871.5,522.7969 L871.5,554.0938 A2.5,2.5 0 0 0 874,556.5938 L934.1514,556.5938 A2.5,2.5 0 0 0 936.6514,554.0938 L936.6514,530.2969 L926.6514,520.2969 L874,520.2969 A2.5,2.5 0 0 0 871.5,522.7969 " fill="#F1F1F1" style="stroke:#181818;stroke-width:0.5;"/><path d="M926.6514,520.2969 L926.6514,527.7969 A2.5,2.5 0 0 0 929.1514,530.2969 L936.6514,530.2969 " fill="#F1F1F1" style="stroke:#181818;stroke-width:0.5;"/><text fill="#000000" font-family="sans-serif" font-size="14" lengthAdjust="spacing" textLength="45.1514" x="881.5" y="543.292">path.h</text></a><!--entity C_0001506908138452400189--><a href="" target="_top" title="fmt_formatters.h" xlink:actuate="onRequest" xlink:href="" xlink:show="new" xlink:title="fmt_formatters.h" xlink:type="simple"><path d="M1098,522.7969 L1098,554.0938 A2.5,2.5 0 0 0 1100.5,556.5938 L1233.9873,556.5938 A2.5,2.5 0 0 0 1236.4873,554.0938 L1236.4873,530.2969 L1226.4873,520.2969 L1100.5,520.2969 A2.5,2.5 0 0 0 1098,522.7969 " fill="#F1F1F1" style="stroke:#181818;stroke-width:0.5;"/><path d="M1226.4873,520.2969 L1226.4873,527.7969 A2.5,2.5 0 0 0 1228.9873,530.2969 L1236.4873,530.2969 " fill="#F1F1F1" style="stroke:#181818;stroke-width:0.5;"/><text fill="#000000" font-family="sans-serif" font-size="14" lengthAdjust="spacing" textLength="118.4873" x="1108" y="543.292">fmt_formatters.h</text></a><!--entity C_0015818096269110849716--><a href="" target="_top" title="util.h" xlink:actuate="onRequest" xlink:href="" xlink:show="new" xlink:title="util.h" xlink:type="simple"><path d="M1191.5,315.7969 L1191.5,347.0938 A2.5,2.5 0 0 0 1194,349.5938 L1244.4648,349.5938 A2.5,2.5 0 0 0 1246.9648,347.0938 L1246.9648,323.2969 L1236.9648,313.2969 L1194,313.2969 A2.5,2.5 0 0 0 1191.5,315.7969 " fill="#F1F1F1" style="stroke:#181818;stroke-width:0.5;"/><path d="M1236.9648,313.2969 L1236.9648,320.7969 A2.5,2.5 0 0 0 1239.4648,323.2969 L1246.9648,323.2969 " fill="#F1F1F1" style="stroke:#181818;stroke-width:0.5;"/><text fill="#000000" font-family="sans-serif" font-size="14" lengthAdjust="spacing" textLength="35.4648" x="1201.5" y="336.292">util.h</text></a><!--entity C_0000181420260258778140--><a href="" target="_top" title="logging.h" xlink:actuate="onRequest" xlink:href="" xlink:show="new" xlink:title="logging.h" xlink:type="simple"><path d="M1142.5,426.7969 L1142.5,458.0938 A2.5,2.5 0 0 0 1145,460.5938 L1225.2012,460.5938 A2.5,2.5 0 0 0 1227.7012,458.0938 L1227.7012,434.2969 L1217.7012,424.2969 L1145,424.2969 A2.5,2.5 0 0 0 1142.5,426.7969 " fill="#F1F1F1" style="stroke:#181818;stroke-width:0.5;"/><path d="M1217.7012,424.2969 L1217.7012,431.7969 A2.5,2.5 0 0 0 1220.2012,434.2969 L1227.7012,434.2969 " fill="#F1F1F1" style="stroke:#181818;stroke-width:0.5;"/><text fill="#000000" font-family="sans-serif" font-size="14" lengthAdjust="spacing" textLength="65.2012" x="1152.5" y="447.292">logging.h</text></a><!--entity C_0008683420888540374207--><a href="" target="_top" title="error.h" xlink:actuate="onRequest" xlink:href="" xlink:show="new" xlink:title="error.h" xlink:type="simple"><path d="M1088,315.7969 L1088,347.0938 A2.5,2.5 0 0 0 1090.5,349.5938 L1153.2695,349.5938 A2.5,2.5 0 0 0 1155.7695,347.0938 L1155.7695,323.2969 L1145.7695,313.2969 L1090.5,313.2969 A2.5,2.5 0 0 0 1088,315.7969 " fill="#F1F1F1" style="stroke:#181818;stroke-width:0.5;"/><path d="M1145.7695,313.2969 L1145.7695,320.7969 A2.5,2.5 0 0 0 1148.2695,323.2969 L1155.7695,323.2969 " fill="#F1F1F1" style="stroke:#181818;stroke-width:0.5;"/><text fill="#000000" font-family="sans-serif" font-size="14" lengthAdjust="spacing" textLength="47.7695" x="1098" y="336.292">error.h</text></a><!--link C_0015079445126862667482 to C_0012140013982476589918--><g id="link_C_0015079445126862667482_C_0012140013982476589918"><path d="M340.55,156.7769 C384.89,174.3669 448.9826,199.7851 492.0526,216.8651 " fill="transparent" id="C_0015079445126862667482-to-C_0012140013982476589918" style="stroke:#181818;stroke-width:1;"/><polygon fill="#181818" points="497.63,219.0769,490.7384,212.0409,492.9821,217.2337,487.7893,219.4775,497.63,219.0769" style="stroke:#181818;stroke-width:1;"/></g><!--link C_0015079445126862667482 to C_0009474769160410159032--><g id="link_C_0015079445126862667482_C_0009474769160410159032"><path d="M291.85,157.5369 C284.81,174.4969 276.4293,194.7049 269.4093,211.6249 " fill="transparent" id="C_0015079445126862667482-to-C_0009474769160410159032" style="stroke:#181818;stroke-width:1;"/><polygon fill="#181818" points="267.11,217.1669,274.2536,210.3868,269.0261,212.5486,266.8643,207.3211,267.11,217.1669" style="stroke:#181818;stroke-width:1;"/></g><!--link C_0012140013982476589918 to C_0009388434743451459542--><g id="link_C_0012140013982476589918_C_0009388434743451459542"><path d="M574.26,249.2469 C580.15,250.8569 586.2,252.2769 592,253.2969 C627.95,259.5869 891.56,247.4269 920,270.2969 C967.27,308.2969 969.8635,383.0818 968.4335,418.2918 " fill="transparent" id="C_0012140013982476589918-to-C_0009388434743451459542" style="stroke:#181818;stroke-width:1;"/><polygon fill="#181818" points="968.19,424.2869,972.5519,415.4566,968.3929,419.291,964.5585,415.132,968.19,424.2869" style="stroke:#181818;stroke-width:1;"/></g><!--link C_0012140013982476589918 to C_0011896277980381595836--><g id="link_C_0012140013982476589918_C_0011896277980381595836"><path d="M574.05,248.7069 C580.02,250.4069 586.15,252.0069 592,253.2969 C645.03,264.9969 661.88,251.9569 713,270.2969 C741.17,280.4069 765.1236,295.7295 784.1536,309.6195 " fill="transparent" id="C_0012140013982476589918-to-C_0011896277980381595836" style="stroke:#181818;stroke-width:1;"/><polygon fill="#181818" points="789,313.1569,784.0887,304.6199,784.9614,310.2091,779.3722,311.0817,789,313.1569" style="stroke:#181818;stroke-width:1;"/></g><!--link C_0012140013982476589918 to C_0002545126248170020497--><g id="link_C_0012140013982476589918_C_0002545126248170020497"><path d="M525.36,253.5369 C514.9,270.4969 502.1606,291.1407 491.7206,308.0607 " fill="transparent" id="C_0012140013982476589918-to-C_0002545126248170020497" style="stroke:#181818;stroke-width:1;"/><polygon fill="#181818" points="488.57,313.1669,496.7001,307.608,491.1955,308.9117,489.8918,303.4071,488.57,313.1669" style="stroke:#181818;stroke-width:1;"/></g><!--link C_0012140013982476589918 to C_0015818096269110849716--><g id="link_C_0012140013982476589918_C_0015818096269110849716"><path d="M574.24,249.3669 C580.13,250.9569 586.18,252.3469 592,253.2969 C655.85,263.7269 1116.56,240.5269 1174,270.2969 C1191.57,279.4069 1201.409,293.5044 1208.719,307.8044 " fill="transparent" id="C_0012140013982476589918-to-C_0015818096269110849716" style="stroke:#181818;stroke-width:1;"/><polygon fill="#181818" points="1211.45,313.1469,1210.9151,303.3126,1209.1742,308.6948,1203.7919,306.9539,1211.45,313.1469" style="stroke:#181818;stroke-width:1;"/></g><!--link C_0000850977248882698993 to C_0012140013982476589918--><g id="link_C_0000850977248882698993_C_0012140013982476589918"><path d="M607.86,157.5369 C591.98,174.4969 571.9805,195.8667 556.1405,212.7867 " fill="transparent" id="C_0000850977248882698993-to-C_0012140013982476589918" style="stroke:#181818;stroke-width:1;"/><polygon fill="#181818" points="552.04,217.1669,561.1109,213.3304,555.4571,213.5168,555.2707,207.863,552.04,217.1669" style="stroke:#181818;stroke-width:1;"/></g><!--link C_0000850977248882698993 to C_0009474769160410159032--><g id="link_C_0000850977248882698993_C_0009474769160410159032"><path d="M558.08,157.3169 C492.32,174.3069 397.6593,198.7462 331.8493,215.7462 " fill="transparent" id="C_0000850977248882698993-to-C_0009474769160410159032" style="stroke:#181818;stroke-width:1;"/><polygon fill="#181818" points="326.04,217.2469,335.7544,218.8688,330.8811,215.9963,333.7535,211.123,326.04,217.2469" style="stroke:#181818;stroke-width:1;"/></g><!--link C_0000850977248882698993 to C_0013560060108228197304--><g id="link_C_0000850977248882698993_C_0013560060108228197304"><path d="M629.32,157.5369 C634.55,174.4969 640.7212,194.5135 645.9412,211.4335 " fill="transparent" id="C_0000850977248882698993-to-C_0013560060108228197304" style="stroke:#181818;stroke-width:1;"/><polygon fill="#181818" points="647.71,217.1669,648.879,207.3876,646.236,212.3891,641.2346,209.746,647.71,217.1669" style="stroke:#181818;stroke-width:1;"/></g><!--link C_0000850977248882698993 to C_0008683420888540374207--><g id="link_C_0000850977248882698993_C_0008683420888540374207"><path d="M668.63,157.3269 C766.87,194.8069 994.4443,281.6277 1082.2043,315.1177 " fill="transparent" id="C_0000850977248882698993-to-C_0008683420888540374207" style="stroke:#181818;stroke-width:1;"/><polygon fill="#181818" points="1087.81,317.2569,1080.8276,310.311,1083.1386,315.4742,1077.9753,317.7852,1087.81,317.2569" style="stroke:#181818;stroke-width:1;"/></g><!--link C_0008629439082178352935 to C_0009474769160410159032--><g id="link_C_0008629439082178352935_C_0009474769160410159032"><path d="M156.82,157.3169 C179.51,174.2469 209.3306,196.4994 232.1206,213.4994 " fill="transparent" id="C_0008629439082178352935-to-C_0009474769160410159032" style="stroke:#181818;stroke-width:1;"/><polygon fill="#181818" points="236.93,217.0869,232.1076,208.4994,232.9222,214.0973,227.3243,214.9119,236.93,217.0869" style="stroke:#181818;stroke-width:1;"/></g><!--link C_0001520455994560399278 to C_0002545126248170020497--><g id="link_C_0001520455994560399278_C_0002545126248170020497"><path d="M431.45,253.5369 C441.74,270.4969 454.239,291.1164 464.499,308.0364 " fill="transparent" id="C_0001520455994560399278-to-C_0002545126248170020497" style="stroke:#181818;stroke-width:1;"/><polygon fill="#181818" points="467.61,313.1669,466.3638,303.3972,465.0175,308.8915,459.5232,307.5452,467.61,313.1669" style="stroke:#181818;stroke-width:1;"/></g><!--link C_0010647698635028726129 to C_0012140013982476589918--><g id="link_C_0010647698635028726129_C_0012140013982476589918"><path d="M462.51,157.5369 C478.75,174.4969 499.2392,195.9143 515.4492,212.8343 " fill="transparent" id="C_0010647698635028726129-to-C_0012140013982476589918" style="stroke:#181818;stroke-width:1;"/><polygon fill="#181818" points="519.6,217.1669,516.2622,207.9008,516.141,213.5564,510.4855,213.4352,519.6,217.1669" style="stroke:#181818;stroke-width:1;"/></g><!--link C_0009388434743451459542 to C_0001506908138452400189--><g id="link_C_0009388434743451459542_C_0001506908138452400189"><path d="M1003.22,460.3169 C1039.35,477.3069 1089.1304,500.6935 1125.2804,517.6935 " fill="transparent" id="C_0009388434743451459542-to-C_0001506908138452400189" style="stroke:#181818;stroke-width:1;"/><polygon fill="#181818" points="1130.71,520.2469,1124.2678,512.7971,1126.1853,518.1191,1120.8634,520.0366,1130.71,520.2469" style="stroke:#181818;stroke-width:1;"/></g><!--link C_0000255852889039832162 to C_0003368630512743138441--><g id="link_C_0000255852889039832162_C_0003368630512743138441"><path d="M846.84,460.5369 C859.47,477.4969 875.0564,498.4346 887.6564,515.3546 " fill="transparent" id="C_0000255852889039832162-to-C_0003368630512743138441" style="stroke:#181818;stroke-width:1;"/><polygon fill="#181818" points="891.24,520.1669,889.0728,510.5594,888.2537,516.1567,882.6564,515.3376,891.24,520.1669" style="stroke:#181818;stroke-width:1;"/></g><!--link C_0003368630512743138441 to C_0015818096269110849716--><g id="link_C_0003368630512743138441_C_0015818096269110849716"><path d="M932.9,520.0469 C957.76,504.9469 994.35,482.0669 1025,460.2969 C1071.17,427.4969 1073.17,404.1469 1125,381.2969 C1145.19,372.3969 1154.13,382.9069 1174,373.2969 C1185.61,367.6869 1192.2284,362.4482 1200.3184,353.9682 " fill="transparent" id="C_0003368630512743138441-to-C_0015818096269110849716" style="stroke:#181818;stroke-width:1;"/><polygon fill="#181818" points="1204.46,349.6269,1195.3533,353.3777,1201.0086,353.2446,1201.1417,358.8999,1204.46,349.6269" style="stroke:#181818;stroke-width:1;"/></g><!--link C_0011896277980381595836 to C_0000255852889039832162--><g id="link_C_0011896277980381595836_C_0000255852889039832162"><path d="M814.59,349.3269 C818.89,369.6869 824.8005,397.6963 829.1205,418.1563 " fill="transparent" id="C_0011896277980381595836-to-C_0000255852889039832162" style="stroke:#181818;stroke-width:1;"/><polygon fill="#181818" points="830.36,424.0269,832.4144,414.3947,829.3271,419.1347,824.587,416.0474,830.36,424.0269" style="stroke:#181818;stroke-width:1;"/></g><!--link C_0015818096269110849716 to C_0000181420260258778140--><g id="link_C_0015818096269110849716_C_0000181420260258778140"><path d="M1213.69,349.3269 C1207.34,369.6869 1198.5561,397.8389 1192.1761,418.2989 " fill="transparent" id="C_0015818096269110849716-to-C_0000181420260258778140" style="stroke:#181818;stroke-width:1;"/><polygon fill="#181818" points="1190.39,424.0269,1196.8879,416.6257,1191.8785,419.2536,1189.2506,414.2442,1190.39,424.0269" style="stroke:#181818;stroke-width:1;"/></g><!--link C_0000181420260258778140 to C_0001506908138452400189--><g id="link_C_0000181420260258778140_C_0001506908138452400189"><path d="M1181.7,460.5369 C1178.45,477.4969 1174.6484,497.3539 1171.4084,514.2739 " fill="transparent" id="C_0000181420260258778140-to-C_0001506908138452400189" style="stroke:#181818;stroke-width:1;"/><polygon fill="#181818" points="1170.28,520.1669,1175.9013,512.0798,1171.2204,515.2561,1168.044,510.5752,1170.28,520.1669" style="stroke:#181818;stroke-width:1;"/></g><!--link C_0008683420888540374207 to C_0009388434743451459542--><g id="link_C_0008683420888540374207_C_0009388434743451459542"><path d="M1097.36,349.5069 C1083.94,358.8869 1067.05,370.7169 1052,381.2969 C1031.46,395.7369 1013.0701,408.7243 996.0601,420.7443 " fill="transparent" id="C_0008683420888540374207-to-C_0009388434743451459542" style="stroke:#181818;stroke-width:1;"/><polygon fill="#181818" points="991.16,424.2069,1000.8185,422.2797,995.2434,421.3214,996.2017,415.7463,991.16,424.2069" style="stroke:#181818;stroke-width:1;"/></g><!--SRC=[ZLMxRjj04Epv5OGR9q0itDvpjqcJ8WZWb4bZ6093KI81FWIAIc0O_lSiAPaysKVHZI1HC_kOcnjsHLTcyOywBO-RBDwroJwFjasvoThuvj2cDt5oYB-jXG008SWuSgYSC0gCS_7p24sRUbliHhIm6eJKHYf3pbe7GDIZ2-vrngvIhxWHZhGs82rQoNYDCdvuU1wHBu-Fb-HyuahG_Aa8fNRM816WnyqdQhFlYgRsg4AQeQVK28v_2Kskfxu29-gcI5YQQjrbrRvCkkpWLo7jk3E15Rmq619g63x0cGe-9LMvtcHfm-eTV2c4G2F8EPu9KLhYVLHVxIrXAdL8ywnAV4MKiNm20WHAYK1E2TsNU0LUMykVX8-2j2Ak0dpeHf8ouRtyQSxQ-NN0iBB646cUIn59XvxAFdbOCgkAhdkZ2h2XM6AqoWY9JbgGDAhY4VfIBvufgwgfFMc1JvWtuhCsNCXOPJqBLonjwLkIbB9MOsz9DhiZEpeugu_LfGKKebRi0yM6qeQC7YnmnaqBracL7VP9clbajg518n7PEOHAWXt87dOgi4-wtEVoY2oAO1TpRr2eDVJS4-oina3idlONhWL0ifAtGg6GJMkGnM3c6NSfvB4hF6KqRmXAQf3OxytIk56PRTMjjqrR9QSJoNqN2CjUwcSqih-nE9pWMyAqQj_K7zWWeE2P-QQni_cgmZ3m2JRHocQtA-hTXS20eAMGbfNcSVc7w9aZSY9dRTkqFfLFNp6LxwBHGZd-EYJ46NTIwIMQpR2xkw-p8RNC2YLBD9jv4-kz6PTP8Jzye5SWGJ_GAt2KqMpuBMfubJMhuVLUWGZzGA-0MwBPA5sUC1ISoyg7ed9Pmr22ZRq2TpUQZQwH5SYcQ3Qq5hqH3AonLs2GQ3Or9jRxO8Xc4sDPZL1ONBsLqUtthCvQVebkudz5byTfcTIxksDLVed_SXpo-p4MAxk2wFR-_lVFyTclFyUwEvxGuqEW5QmW_WJ7uL_u_1y0]--></g></svg>