<svg xmlns="http://www.w3.org/2000/svg" xmlns:xlink="http://www.w3.org/1999/xlink" contentStyleType="text/css" data-diagram-type="SEQUENCE" height="1235px" preserveAspectRatio="none" style="width:2163px;height:1235px;background:#FFFFFF;" version="1.1" viewBox="0 0 2163 1235" width="2163px" zoomAndPan="magnify"><title>Configuration file loading sequence diagram</title><defs/><g><text fill="#000000" font-family="sans-serif" font-size="14" font-weight="bold" lengthAdjust="spacing" textLength="351.8184" x="906.6387" y="27.9951">Configuration file loading sequence diagram</text><g><title>src/config/yaml_decoders.cc</title><rect fill="#FFFFFF" height="1077.6641" style="stroke:#181818;stroke-width:1;" width="10" x="141.2852" y="104.7266"/></g><g><title>src/config/yaml_decoders.cc</title><rect fill="#FFFFFF" height="25" style="stroke:#181818;stroke-width:1;" width="10" x="146.2852" y="352.6563"/></g><g><title>src/config/yaml_decoders.cc</title><rect fill="#FFFFFF" height="28" style="stroke:#181818;stroke-width:1;" width="10" x="146.2852" y="428.7891"/></g><g><title>src/config/yaml_decoders.cc</title><rect fill="#FFFFFF" height="28" style="stroke:#181818;stroke-width:1;" width="10" x="146.2852" y="500.9219"/></g><g><title>src/config/yaml_decoders.cc</title><rect fill="#FFFFFF" height="25" style="stroke:#181818;stroke-width:1;" width="10" x="146.2852" y="621.3203"/></g><g><title>../../../../../../usr/include/yaml-cpp/node/parse.h</title><rect fill="#FFFFFF" height="14" style="stroke:#181818;stroke-width:1;" width="10" x="427.3306" y="157.9922"/></g><g><title>../../../../../../usr/include/yaml-cpp/node/parse.h</title><rect fill="#FFFFFF" height="14" style="stroke:#181818;stroke-width:1;" width="10" x="427.3306" y="225.2578"/></g><g><title>../../../../../../usr/include/yaml-cpp/node/parse.h</title><rect fill="#FFFFFF" height="14" style="stroke:#181818;stroke-width:1;" width="10" x="427.3306" y="270.3906"/></g><g><title>../../../../../../usr/include/yaml-cpp/node/parse.h</title><rect fill="#FFFFFF" height="14" style="stroke:#181818;stroke-width:1;" width="10" x="427.3306" y="682.4531"/></g><g><title>../../../../../../usr/include/yaml-cpp/node/parse.h</title><rect fill="#FFFFFF" height="14" style="stroke:#181818;stroke-width:1;" width="10" x="427.3306" y="941.25"/></g><g><title>config::config</title><rect fill="#FFFFFF" height="392.1953" style="stroke:#181818;stroke-width:1;" width="10" x="661.6484" y="739.5859"/></g><g><title>src/config/diagram_templates.h</title><rect fill="#FFFFFF" height="143.3984" style="stroke:#181818;stroke-width:1;" width="10" x="931.6753" y="768.7188"/></g><g><title>../../../../../../usr/include/yaml-cpp/node/emit.h</title><rect fill="#FFFFFF" height="14" style="stroke:#181818;stroke-width:1;" width="10" x="1225.7119" y="797.8516"/></g><g><title>../../../../../../usr/include/yaml-cpp/node/impl.h</title><rect fill="#FFFFFF" height="14" style="stroke:#181818;stroke-width:1;" width="10" x="1567.0703" y="840.9844"/></g><g><title>../../../../../../usr/include/yaml-cpp/node/impl.h</title><rect fill="#FFFFFF" height="14" style="stroke:#181818;stroke-width:1;" width="10" x="1567.0703" y="884.1172"/></g><g><title>config::option&lt;std::map&lt;std::basic_string&lt;char&gt;&gt;&gt;</title><rect fill="#FFFFFF" height="14" style="stroke:#181818;stroke-width:1;" width="10" x="1936.7568" y="1008.5156"/></g><g><title>config::option&lt;std::map&lt;std::basic_string&lt;char&gt;&gt;&gt;</title><rect fill="#FFFFFF" height="30" style="stroke:#181818;stroke-width:1;" width="10" x="1936.7568" y="1051.6484"/></g><g><title>config::option&lt;std::map&lt;std::basic_string&lt;char&gt;&gt;&gt;</title><rect fill="#FFFFFF" height="14" style="stroke:#181818;stroke-width:1;" width="10" x="1936.7568" y="1117.7813"/></g><rect fill="transparent" height="1049.6641" style="stroke:#000000;stroke-width:1.5;" width="2146.0957" x="10" y="119.7266"/><rect fill="transparent" height="105.3984" style="stroke:#000000;stroke-width:1.5;" width="582.0908" x="30" y="186.9922"/><rect fill="transparent" height="86.2656" style="stroke:#000000;stroke-width:1.5;" width="232.5703" x="30" y="306.3906"/><rect fill="transparent" height="160.5313" style="stroke:#000000;stroke-width:1.5;" width="602.0908" x="20" y="550.9219"/><rect fill="transparent" height="129.3984" style="stroke:#000000;stroke-width:1.5;" width="582.0908" x="30" y="575.0547"/><rect fill="transparent" height="119.3984" style="stroke:#000000;stroke-width:1.5;" width="1544.0049" x="602.0908" y="970.25"/><g><title>src/config/yaml_decoders.cc</title><rect fill="transparent" height="1126.7969" width="8" x="142.2852" y="73.5938"/><line style="stroke:#181818;stroke-width:0.5;stroke-dasharray:5.0,5.0;" x1="146" x2="146" y1="73.5938" y2="1200.3906"/></g><g><title>../../../../../../usr/include/yaml-cpp/node/parse.h</title><rect fill="transparent" height="1126.7969" width="8" x="428.3306" y="73.5938"/><line style="stroke:#181818;stroke-width:0.5;stroke-dasharray:5.0,5.0;" x1="431.5703" x2="431.5703" y1="73.5938" y2="1200.3906"/></g><g><title>config::config</title><rect fill="transparent" height="1126.7969" width="8" x="662.6484" y="73.5938"/><line style="stroke:#181818;stroke-width:0.5;stroke-dasharray:5.0,5.0;" x1="666.0908" x2="666.0908" y1="73.5938" y2="1200.3906"/></g><g><title>src/config/diagram_templates.h</title><rect fill="transparent" height="1126.7969" width="8" x="932.6753" y="73.5938"/><line style="stroke:#181818;stroke-width:0.5;stroke-dasharray:5.0,5.0;" x1="936.6494" x2="936.6494" y1="73.5938" y2="1200.3906"/></g><g><title>../../../../../../usr/include/yaml-cpp/node/emit.h</title><rect fill="transparent" height="1126.7969" width="8" x="1226.7119" y="73.5938"/><line style="stroke:#181818;stroke-width:0.5;stroke-dasharray:5.0,5.0;" x1="1230.7012" x2="1230.7012" y1="73.5938" y2="1200.3906"/></g><g><title>../../../../../../usr/include/yaml-cpp/node/impl.h</title><rect fill="transparent" height="1126.7969" width="8" x="1568.0703" y="73.5938"/><line style="stroke:#181818;stroke-width:0.5;stroke-dasharray:5.0,5.0;" x1="1571.7227" x2="1571.7227" y1="73.5938" y2="1200.3906"/></g><g><title>config::option&lt;std::map&lt;std::basic_string&lt;char&gt;&gt;&gt;</title><rect fill="transparent" height="1126.7969" width="8" x="1937.7568" y="73.5938"/><line style="stroke:#181818;stroke-width:0.5;stroke-dasharray:5.0,5.0;" x1="1941.418" x2="1941.418" y1="73.5938" y2="1200.3906"/></g><rect fill="#E2E2F0" height="30.2969" rx="2.5" ry="2.5" style="stroke:#181818;stroke-width:0.5;" width="212.5703" x="40" y="42.2969"/><text fill="#000000" font-family="sans-serif" font-size="14" lengthAdjust="spacing" textLength="198.5703" x="47" y="62.292">src/config/yaml_decoders.cc</text><rect fill="#E2E2F0" height="30.2969" rx="2.5" ry="2.5" style="stroke:#181818;stroke-width:0.5;" width="212.5703" x="40" y="1199.3906"/><text fill="#000000" font-family="sans-serif" font-size="14" lengthAdjust="spacing" textLength="198.5703" x="47" y="1219.3857">src/config/yaml_decoders.cc</text><rect fill="#E2E2F0" height="30.2969" rx="2.5" ry="2.5" style="stroke:#181818;stroke-width:0.5;" width="339.5205" x="262.5703" y="42.2969"/><text fill="#000000" font-family="sans-serif" font-size="14" lengthAdjust="spacing" textLength="325.5205" x="269.5703" y="62.292">../../../../../../usr/include/yaml-cpp/node/parse.h</text><rect fill="#E2E2F0" height="30.2969" rx="2.5" ry="2.5" style="stroke:#181818;stroke-width:0.5;" width="339.5205" x="262.5703" y="1199.3906"/><text fill="#000000" font-family="sans-serif" font-size="14" lengthAdjust="spacing" textLength="325.5205" x="269.5703" y="1219.3857">../../../../../../usr/include/yaml-cpp/node/parse.h</text><a href="" target="_top" title="Represents entire configuration file" xlink:actuate="onRequest" xlink:href="" xlink:show="new" xlink:title="Represents entire configuration file" xlink:type="simple"><rect fill="#E2E2F0" height="30.2969" rx="2.5" ry="2.5" style="stroke:#181818;stroke-width:0.5;" width="109.1152" x="612.0908" y="42.2969"/><text fill="#000000" font-family="sans-serif" font-size="14" lengthAdjust="spacing" textLength="95.1152" x="619.0908" y="62.292">config::config</text><rect fill="#E2E2F0" height="30.2969" rx="2.5" ry="2.5" style="stroke:#181818;stroke-width:0.5;" width="109.1152" x="612.0908" y="1199.3906"/><text fill="#000000" font-family="sans-serif" font-size="14" lengthAdjust="spacing" textLength="95.1152" x="619.0908" y="1219.3857">config::config</text></a><rect fill="#E2E2F0" height="30.2969" rx="2.5" ry="2.5" style="stroke:#181818;stroke-width:0.5;" width="236.0518" x="818.6494" y="42.2969"/><text fill="#000000" font-family="sans-serif" font-size="14" lengthAdjust="spacing" textLength="222.0518" x="825.6494" y="62.292">src/config/diagram_templates.h</text><rect fill="#E2E2F0" height="30.2969" rx="2.5" ry="2.5" style="stroke:#181818;stroke-width:0.5;" width="236.0518" x="818.6494" y="1199.3906"/><text fill="#000000" font-family="sans-serif" font-size="14" lengthAdjust="spacing" textLength="222.0518" x="825.6494" y="1219.3857">src/config/diagram_templates.h</text><rect fill="#E2E2F0" height="30.2969" rx="2.5" ry="2.5" style="stroke:#181818;stroke-width:0.5;" width="332.0215" x="1064.7012" y="42.2969"/><text fill="#000000" font-family="sans-serif" font-size="14" lengthAdjust="spacing" textLength="318.0215" x="1071.7012" y="62.292">../../../../../../usr/include/yaml-cpp/node/emit.h</text><rect fill="#E2E2F0" height="30.2969" rx="2.5" ry="2.5" style="stroke:#181818;stroke-width:0.5;" width="332.0215" x="1064.7012" y="1199.3906"/><text fill="#000000" font-family="sans-serif" font-size="14" lengthAdjust="spacing" textLength="318.0215" x="1071.7012" y="1219.3857">../../../../../../usr/include/yaml-cpp/node/emit.h</text><rect fill="#E2E2F0" height="30.2969" rx="2.5" ry="2.5" style="stroke:#181818;stroke-width:0.5;" width="330.6953" x="1406.7227" y="42.2969"/><text fill="#000000" font-family="sans-serif" font-size="14" lengthAdjust="spacing" textLength="316.6953" x="1413.7227" y="62.292">../../../../../../usr/include/yaml-cpp/node/impl.h</text><rect fill="#E2E2F0" height="30.2969" rx="2.5" ry="2.5" style="stroke:#181818;stroke-width:0.5;" width="330.6953" x="1406.7227" y="1199.3906"/><text fill="#000000" font-family="sans-serif" font-size="14" lengthAdjust="spacing" textLength="316.6953" x="1413.7227" y="1219.3857">../../../../../../usr/include/yaml-cpp/node/impl.h</text><a href="" target="_top" title="option" xlink:actuate="onRequest" xlink:href="" xlink:show="new" xlink:title="option" xlink:type="simple"><rect fill="#E2E2F0" height="30.2969" rx="2.5" ry="2.5" style="stroke:#181818;stroke-width:0.5;" width="388.6777" x="1747.418" y="42.2969"/><text fill="#000000" font-family="sans-serif" font-size="14" lengthAdjust="spacing" textLength="374.6777" x="1754.418" y="62.292">config::option&lt;std::map&lt;std::basic_string&lt;char&gt;&gt;&gt;</text><rect fill="#E2E2F0" height="30.2969" rx="2.5" ry="2.5" style="stroke:#181818;stroke-width:0.5;" width="388.6777" x="1747.418" y="1199.3906"/><text fill="#000000" font-family="sans-serif" font-size="14" lengthAdjust="spacing" textLength="374.6777" x="1754.418" y="1219.3857">config::option&lt;std::map&lt;std::basic_string&lt;char&gt;&gt;&gt;</text></a><g><title>src/config/yaml_decoders.cc</title><rect fill="#FFFFFF" height="1077.6641" style="stroke:#181818;stroke-width:1;" width="10" x="141.2852" y="104.7266"/></g><g><title>src/config/yaml_decoders.cc</title><rect fill="#FFFFFF" height="25" style="stroke:#181818;stroke-width:1;" width="10" x="146.2852" y="352.6563"/></g><g><title>src/config/yaml_decoders.cc</title><rect fill="#FFFFFF" height="28" style="stroke:#181818;stroke-width:1;" width="10" x="146.2852" y="428.7891"/></g><g><title>src/config/yaml_decoders.cc</title><rect fill="#FFFFFF" height="28" style="stroke:#181818;stroke-width:1;" width="10" x="146.2852" y="500.9219"/></g><g><title>src/config/yaml_decoders.cc</title><rect fill="#FFFFFF" height="25" style="stroke:#181818;stroke-width:1;" width="10" x="146.2852" y="621.3203"/></g><g><title>../../../../../../usr/include/yaml-cpp/node/parse.h</title><rect fill="#FFFFFF" height="14" style="stroke:#181818;stroke-width:1;" width="10" x="427.3306" y="157.9922"/></g><g><title>../../../../../../usr/include/yaml-cpp/node/parse.h</title><rect fill="#FFFFFF" height="14" style="stroke:#181818;stroke-width:1;" width="10" x="427.3306" y="225.2578"/></g><g><title>../../../../../../usr/include/yaml-cpp/node/parse.h</title><rect fill="#FFFFFF" height="14" style="stroke:#181818;stroke-width:1;" width="10" x="427.3306" y="270.3906"/></g><g><title>../../../../../../usr/include/yaml-cpp/node/parse.h</title><rect fill="#FFFFFF" height="14" style="stroke:#181818;stroke-width:1;" width="10" x="427.3306" y="682.4531"/></g><g><title>../../../../../../usr/include/yaml-cpp/node/parse.h</title><rect fill="#FFFFFF" height="14" style="stroke:#181818;stroke-width:1;" width="10" x="427.3306" y="941.25"/></g><g><title>config::config</title><rect fill="#FFFFFF" height="392.1953" style="stroke:#181818;stroke-width:1;" width="10" x="661.6484" y="739.5859"/></g><g><title>src/config/diagram_templates.h</title><rect fill="#FFFFFF" height="143.3984" style="stroke:#181818;stroke-width:1;" width="10" x="931.6753" y="768.7188"/></g><g><title>../../../../../../usr/include/yaml-cpp/node/emit.h</title><rect fill="#FFFFFF" height="14" style="stroke:#181818;stroke-width:1;" width="10" x="1225.7119" y="797.8516"/></g><g><title>../../../../../../usr/include/yaml-cpp/node/impl.h</title><rect fill="#FFFFFF" height="14" style="stroke:#181818;stroke-width:1;" width="10" x="1567.0703" y="840.9844"/></g><g><title>../../../../../../usr/include/yaml-cpp/node/impl.h</title><rect fill="#FFFFFF" height="14" style="stroke:#181818;stroke-width:1;" width="10" x="1567.0703" y="884.1172"/></g><g><title>config::option&lt;std::map&lt;std::basic_string&lt;char&gt;&gt;&gt;</title><rect fill="#FFFFFF" height="14" style="stroke:#181818;stroke-width:1;" width="10" x="1936.7568" y="1008.5156"/></g><g><title>config::option&lt;std::map&lt;std::basic_string&lt;char&gt;&gt;&gt;</title><rect fill="#FFFFFF" height="30" style="stroke:#181818;stroke-width:1;" width="10" x="1936.7568" y="1051.6484"/></g><g><title>config::option&lt;std::map&lt;std::basic_string&lt;char&gt;&gt;&gt;</title><rect fill="#FFFFFF" height="14" style="stroke:#181818;stroke-width:1;" width="10" x="1936.7568" y="1117.7813"/></g><polygon fill="#181818" points="129.2852,100.7266,139.2852,104.7266,129.2852,108.7266,133.2852,104.7266" style="stroke:#181818;stroke-width:1;"/><line style="stroke:#181818;stroke-width:1;" x1="0" x2="135.2852" y1="104.7266" y2="104.7266"/><text fill="#000000" font-family="sans-serif" font-size="13" lengthAdjust="spacing" textLength="37.9272" x="7" y="99.6606">load()</text><path d="M10,119.7266 L76.0996,119.7266 L76.0996,126.8594 L66.0996,136.8594 L10,136.8594 L10,119.7266 " fill="#EEEEEE" style="stroke:#000000;stroke-width:1.5;"/><rect fill="transparent" height="1049.6641" style="stroke:#000000;stroke-width:1.5;" width="2146.0957" x="10" y="119.7266"/><text fill="#000000" font-family="sans-serif" font-size="13" font-weight="bold" lengthAdjust="spacing" textLength="21.0996" x="25" y="132.7935">try</text><a href="" target="_top" title="" xlink:actuate="onRequest" xlink:href="" xlink:show="new" xlink:title="" xlink:type="simple"><polygon fill="#181818" points="415.3306,153.9922,425.3306,157.9922,415.3306,161.9922,419.3306,157.9922" style="stroke:#181818;stroke-width:1;"/><line style="stroke:#181818;stroke-width:1;" x1="151.2852" x2="421.3306" y1="157.9922" y2="157.9922"/><text fill="#000000" font-family="sans-serif" font-size="13" lengthAdjust="spacing" textLength="41.5581" x="158.2852" y="152.9263">Load()</text></a><polygon fill="#181818" points="162.2852,167.9922,152.2852,171.9922,162.2852,175.9922,158.2852,171.9922" style="stroke:#181818;stroke-width:1;"/><line style="stroke:#181818;stroke-width:1;stroke-dasharray:2.0,2.0;" x1="156.2852" x2="431.3306" y1="171.9922" y2="171.9922"/><path d="M30,186.9922 L94.4429,186.9922 L94.4429,194.125 L84.4429,204.125 L30,204.125 L30,186.9922 " fill="#EEEEEE" style="stroke:#000000;stroke-width:1.5;"/><rect fill="transparent" height="105.3984" style="stroke:#000000;stroke-width:1.5;" width="582.0908" x="30" y="186.9922"/><text fill="#000000" font-family="sans-serif" font-size="13" font-weight="bold" lengthAdjust="spacing" textLength="19.4429" x="45" y="200.0591">alt</text><a href="" target="_top" title="" xlink:actuate="onRequest" xlink:href="" xlink:show="new" xlink:title="" xlink:type="simple"><polygon fill="#181818" points="415.3306,221.2578,425.3306,225.2578,415.3306,229.2578,419.3306,225.2578" style="stroke:#181818;stroke-width:1;"/><line style="stroke:#181818;stroke-width:1;" x1="151.2852" x2="421.3306" y1="225.2578" y2="225.2578"/><text fill="#000000" font-family="sans-serif" font-size="13" lengthAdjust="spacing" textLength="41.5581" x="158.2852" y="220.1919">Load()</text></a><polygon fill="#181818" points="162.2852,235.2578,152.2852,239.2578,162.2852,243.2578,158.2852,239.2578" style="stroke:#181818;stroke-width:1;"/><line style="stroke:#181818;stroke-width:1;stroke-dasharray:2.0,2.0;" x1="156.2852" x2="431.3306" y1="239.2578" y2="239.2578"/><line style="stroke:#000000;stroke-width:1;stroke-dasharray:2.0,2.0;" x1="30" x2="612.0908" y1="248.2578" y2="248.2578"/><a href="" target="_top" title="" xlink:actuate="onRequest" xlink:href="" xlink:show="new" xlink:title="" xlink:type="simple"><polygon fill="#181818" points="415.3306,266.3906,425.3306,270.3906,415.3306,274.3906,419.3306,270.3906" style="stroke:#181818;stroke-width:1;"/><line style="stroke:#181818;stroke-width:1;" x1="151.2852" x2="421.3306" y1="270.3906" y2="270.3906"/><text fill="#000000" font-family="sans-serif" font-size="13" lengthAdjust="spacing" textLength="64.2573" x="158.2852" y="265.3247">LoadFile()</text></a><polygon fill="#181818" points="162.2852,280.3906,152.2852,284.3906,162.2852,288.3906,158.2852,284.3906" style="stroke:#181818;stroke-width:1;"/><line style="stroke:#181818;stroke-width:1;stroke-dasharray:2.0,2.0;" x1="156.2852" x2="431.3306" y1="284.3906" y2="284.3906"/><path d="M30,306.3906 L94.4429,306.3906 L94.4429,313.5234 L84.4429,323.5234 L30,323.5234 L30,306.3906 " fill="#EEEEEE" style="stroke:#000000;stroke-width:1.5;"/><rect fill="transparent" height="86.2656" style="stroke:#000000;stroke-width:1.5;" width="232.5703" x="30" y="306.3906"/><text fill="#000000" font-family="sans-serif" font-size="13" font-weight="bold" lengthAdjust="spacing" textLength="19.4429" x="45" y="319.4575">alt</text><a href="" target="_top" title="" xlink:actuate="onRequest" xlink:href="" xlink:show="new" xlink:title="" xlink:type="simple"><line style="stroke:#181818;stroke-width:1;" x1="151.2852" x2="198.2852" y1="339.6563" y2="339.6563"/><line style="stroke:#181818;stroke-width:1;" x1="198.2852" x2="198.2852" y1="339.6563" y2="352.6563"/><line style="stroke:#181818;stroke-width:1;" x1="157.2852" x2="198.2852" y1="352.6563" y2="352.6563"/><polygon fill="#181818" points="167.2852,348.6563,157.2852,352.6563,167.2852,356.6563,163.2852,352.6563" style="stroke:#181818;stroke-width:1;"/><text fill="#000000" font-family="sans-serif" font-size="13" font-weight="bold" lengthAdjust="spacing" textLength="5.9414" x="163.2852" y="334.5903">[</text><text fill="#000000" font-family="sans-serif" font-size="13" lengthAdjust="spacing" textLength="62.8418" x="169.2266" y="334.5903">has_key()</text><text fill="#000000" font-family="sans-serif" font-size="13" font-weight="bold" lengthAdjust="spacing" textLength="5.9414" x="232.0684" y="334.5903">]</text></a><line style="stroke:#181818;stroke-width:1;stroke-dasharray:2.0,2.0;" x1="156.2852" x2="198.2852" y1="376.6563" y2="376.6563"/><line style="stroke:#181818;stroke-width:1;stroke-dasharray:2.0,2.0;" x1="198.2852" x2="198.2852" y1="376.6563" y2="389.6563"/><line style="stroke:#181818;stroke-width:1;stroke-dasharray:2.0,2.0;" x1="151.2852" x2="198.2852" y1="389.6563" y2="389.6563"/><polygon fill="#181818" points="161.2852,385.6563,151.2852,389.6563,161.2852,393.6563,157.2852,389.6563" style="stroke:#181818;stroke-width:1;"/><a href="" target="_top" title="" xlink:actuate="onRequest" xlink:href="" xlink:show="new" xlink:title="" xlink:type="simple"><line style="stroke:#181818;stroke-width:1;" x1="156.2852" x2="198.2852" y1="420.7891" y2="420.7891"/><line style="stroke:#181818;stroke-width:1;" x1="198.2852" x2="198.2852" y1="420.7891" y2="433.7891"/><line style="stroke:#181818;stroke-width:1;" x1="157.2852" x2="198.2852" y1="433.7891" y2="433.7891"/><polygon fill="#181818" points="167.2852,429.7891,157.2852,433.7891,167.2852,437.7891,163.2852,433.7891" style="stroke:#181818;stroke-width:1;"/><text fill="#000000" font-family="sans-serif" font-size="13" lengthAdjust="spacing" textLength="141.1782" x="163.2852" y="415.7231">resolve_option_path()</text></a><a href="" target="_top" title="" xlink:actuate="onRequest" xlink:href="" xlink:show="new" xlink:title="" xlink:type="simple"><line style="stroke:#181818;stroke-width:1;" x1="156.2852" x2="198.2852" y1="492.9219" y2="492.9219"/><line style="stroke:#181818;stroke-width:1;" x1="198.2852" x2="198.2852" y1="492.9219" y2="505.9219"/><line style="stroke:#181818;stroke-width:1;" x1="157.2852" x2="198.2852" y1="505.9219" y2="505.9219"/><polygon fill="#181818" points="167.2852,501.9219,157.2852,505.9219,167.2852,509.9219,163.2852,505.9219" style="stroke:#181818;stroke-width:1;"/><text fill="#000000" font-family="sans-serif" font-size="13" lengthAdjust="spacing" textLength="141.1782" x="163.2852" y="487.856">resolve_option_path()</text></a><path d="M20,550.9219 L96.624,550.9219 L96.624,558.0547 L86.624,568.0547 L20,568.0547 L20,550.9219 " fill="#EEEEEE" style="stroke:#000000;stroke-width:1.5;"/><rect fill="transparent" height="160.5313" style="stroke:#000000;stroke-width:1.5;" width="602.0908" x="20" y="550.9219"/><text fill="#000000" font-family="sans-serif" font-size="13" font-weight="bold" lengthAdjust="spacing" textLength="31.624" x="35" y="563.9888">loop</text><path d="M30,575.0547 L94.4429,575.0547 L94.4429,582.1875 L84.4429,592.1875 L30,592.1875 L30,575.0547 " fill="#EEEEEE" style="stroke:#000000;stroke-width:1.5;"/><rect fill="transparent" height="129.3984" style="stroke:#000000;stroke-width:1.5;" width="582.0908" x="30" y="575.0547"/><text fill="#000000" font-family="sans-serif" font-size="13" font-weight="bold" lengthAdjust="spacing" textLength="19.4429" x="45" y="588.1216">alt</text><a href="" target="_top" title="" xlink:actuate="onRequest" xlink:href="" xlink:show="new" xlink:title="" xlink:type="simple"><line style="stroke:#181818;stroke-width:1;" x1="151.2852" x2="198.2852" y1="608.3203" y2="608.3203"/><line style="stroke:#181818;stroke-width:1;" x1="198.2852" x2="198.2852" y1="608.3203" y2="621.3203"/><line style="stroke:#181818;stroke-width:1;" x1="157.2852" x2="198.2852" y1="621.3203" y2="621.3203"/><polygon fill="#181818" points="167.2852,617.3203,157.2852,621.3203,167.2852,625.3203,163.2852,621.3203" style="stroke:#181818;stroke-width:1;"/><text fill="#000000" font-family="sans-serif" font-size="13" font-weight="bold" lengthAdjust="spacing" textLength="5.9414" x="163.2852" y="603.2544">[</text><text fill="#000000" font-family="sans-serif" font-size="13" lengthAdjust="spacing" textLength="62.8418" x="169.2266" y="603.2544">has_key()</text><text fill="#000000" font-family="sans-serif" font-size="13" font-weight="bold" lengthAdjust="spacing" textLength="5.9414" x="232.0684" y="603.2544">]</text></a><line style="stroke:#181818;stroke-width:1;stroke-dasharray:2.0,2.0;" x1="156.2852" x2="198.2852" y1="645.3203" y2="645.3203"/><line style="stroke:#181818;stroke-width:1;stroke-dasharray:2.0,2.0;" x1="198.2852" x2="198.2852" y1="645.3203" y2="658.3203"/><line style="stroke:#181818;stroke-width:1;stroke-dasharray:2.0,2.0;" x1="151.2852" x2="198.2852" y1="658.3203" y2="658.3203"/><polygon fill="#181818" points="161.2852,654.3203,151.2852,658.3203,161.2852,662.3203,157.2852,658.3203" style="stroke:#181818;stroke-width:1;"/><a href="" target="_top" title="" xlink:actuate="onRequest" xlink:href="" xlink:show="new" xlink:title="" xlink:type="simple"><polygon fill="#181818" points="415.3306,678.4531,425.3306,682.4531,415.3306,686.4531,419.3306,682.4531" style="stroke:#181818;stroke-width:1;"/><line style="stroke:#181818;stroke-width:1;" x1="151.2852" x2="421.3306" y1="682.4531" y2="682.4531"/><text fill="#000000" font-family="sans-serif" font-size="13" lengthAdjust="spacing" textLength="64.2573" x="158.2852" y="677.3872">LoadFile()</text></a><polygon fill="#181818" points="162.2852,692.4531,152.2852,696.4531,162.2852,700.4531,158.2852,696.4531" style="stroke:#181818;stroke-width:1;"/><line style="stroke:#181818;stroke-width:1;stroke-dasharray:2.0,2.0;" x1="156.2852" x2="431.3306" y1="696.4531" y2="696.4531"/><a href="" target="_top" title="" xlink:actuate="onRequest" xlink:href="" xlink:show="new" xlink:title="" xlink:type="simple"><polygon fill="#181818" points="649.6484,735.5859,659.6484,739.5859,649.6484,743.5859,653.6484,739.5859" style="stroke:#181818;stroke-width:1;"/><line style="stroke:#181818;stroke-width:1;" x1="151.2852" x2="655.6484" y1="739.5859" y2="739.5859"/><text fill="#000000" font-family="sans-serif" font-size="13" lengthAdjust="spacing" textLength="196.8408" x="158.2852" y="734.52">initialize_diagram_templates()</text></a><a href="" target="_top" title="" xlink:actuate="onRequest" xlink:href="" xlink:show="new" xlink:title="" xlink:type="simple"><polygon fill="#181818" points="919.6753,764.7188,929.6753,768.7188,919.6753,772.7188,923.6753,768.7188" style="stroke:#181818;stroke-width:1;"/><line style="stroke:#181818;stroke-width:1;" x1="671.6484" x2="925.6753" y1="768.7188" y2="768.7188"/><text fill="#000000" font-family="sans-serif" font-size="13" lengthAdjust="spacing" textLength="241.0269" x="678.6484" y="763.6528">get_predefined_diagram_templates()</text></a><a href="" target="_top" title="" xlink:actuate="onRequest" xlink:href="" xlink:show="new" xlink:title="" xlink:type="simple"><polygon fill="#181818" points="1213.7119,793.8516,1223.7119,797.8516,1213.7119,801.8516,1217.7119,797.8516" style="stroke:#181818;stroke-width:1;"/><line style="stroke:#181818;stroke-width:1;" x1="941.6753" x2="1219.7119" y1="797.8516" y2="797.8516"/><text fill="#000000" font-family="sans-serif" font-size="13" lengthAdjust="spacing" textLength="87.8389" x="948.6753" y="792.7856">operator&lt;&lt;()</text></a><polygon fill="#181818" points="952.6753,807.8516,942.6753,811.8516,952.6753,815.8516,948.6753,811.8516" style="stroke:#181818;stroke-width:1;"/><line style="stroke:#181818;stroke-width:1;stroke-dasharray:2.0,2.0;" x1="946.6753" x2="1229.7119" y1="811.8516" y2="811.8516"/><a href="" target="_top" title="" xlink:actuate="onRequest" xlink:href="" xlink:show="new" xlink:title="" xlink:type="simple"><polygon fill="#181818" points="1555.0703,836.9844,1565.0703,840.9844,1555.0703,844.9844,1559.0703,840.9844" style="stroke:#181818;stroke-width:1;"/><line style="stroke:#181818;stroke-width:1;" x1="941.6753" x2="1561.0703" y1="840.9844" y2="840.9844"/><text fill="#000000" font-family="sans-serif" font-size="13" lengthAdjust="spacing" textLength="87.8389" x="948.6753" y="835.9185">operator==()</text></a><polygon fill="#181818" points="952.6753,850.9844,942.6753,854.9844,952.6753,858.9844,948.6753,854.9844" style="stroke:#181818;stroke-width:1;"/><line style="stroke:#181818;stroke-width:1;stroke-dasharray:2.0,2.0;" x1="946.6753" x2="1571.0703" y1="854.9844" y2="854.9844"/><a href="" target="_top" title="" xlink:actuate="onRequest" xlink:href="" xlink:show="new" xlink:title="" xlink:type="simple"><polygon fill="#181818" points="1555.0703,880.1172,1565.0703,884.1172,1555.0703,888.1172,1559.0703,884.1172" style="stroke:#181818;stroke-width:1;"/><line style="stroke:#181818;stroke-width:1;" x1="941.6753" x2="1561.0703" y1="884.1172" y2="884.1172"/><text fill="#000000" font-family="sans-serif" font-size="13" lengthAdjust="spacing" textLength="87.8389" x="948.6753" y="879.0513">operator==()</text></a><polygon fill="#181818" points="952.6753,894.1172,942.6753,898.1172,952.6753,902.1172,948.6753,898.1172" style="stroke:#181818;stroke-width:1;"/><line style="stroke:#181818;stroke-width:1;stroke-dasharray:2.0,2.0;" x1="946.6753" x2="1571.0703" y1="898.1172" y2="898.1172"/><polygon fill="#181818" points="682.6484,908.1172,672.6484,912.1172,682.6484,916.1172,678.6484,912.1172" style="stroke:#181818;stroke-width:1;"/><line style="stroke:#181818;stroke-width:1;stroke-dasharray:2.0,2.0;" x1="676.6484" x2="935.6753" y1="912.1172" y2="912.1172"/><a href="" target="_top" title="" xlink:actuate="onRequest" xlink:href="" xlink:show="new" xlink:title="" xlink:type="simple"><polygon fill="#181818" points="448.3306,937.25,438.3306,941.25,448.3306,945.25,444.3306,941.25" style="stroke:#181818;stroke-width:1;"/><line style="stroke:#181818;stroke-width:1;" x1="442.3306" x2="660.6484" y1="941.25" y2="941.25"/><text fill="#000000" font-family="sans-serif" font-size="13" lengthAdjust="spacing" textLength="41.5581" x="454.3306" y="936.1841">Load()</text></a><polygon fill="#181818" points="649.6484,951.25,659.6484,955.25,649.6484,959.25,653.6484,955.25" style="stroke:#181818;stroke-width:1;"/><line style="stroke:#181818;stroke-width:1;stroke-dasharray:2.0,2.0;" x1="432.3306" x2="655.6484" y1="955.25" y2="955.25"/><path d="M602.0908,970.25 L666.5337,970.25 L666.5337,977.3828 L656.5337,987.3828 L602.0908,987.3828 L602.0908,970.25 " fill="#EEEEEE" style="stroke:#000000;stroke-width:1.5;"/><rect fill="transparent" height="119.3984" style="stroke:#000000;stroke-width:1.5;" width="1544.0049" x="602.0908" y="970.25"/><text fill="#000000" font-family="sans-serif" font-size="13" font-weight="bold" lengthAdjust="spacing" textLength="19.4429" x="617.0908" y="983.3169">alt</text><a href="" target="_top" title="" xlink:actuate="onRequest" xlink:href="" xlink:show="new" xlink:title="" xlink:type="simple"><polygon fill="#181818" points="1924.7568,1004.5156,1934.7568,1008.5156,1924.7568,1012.5156,1928.7568,1008.5156" style="stroke:#181818;stroke-width:1;"/><line style="stroke:#181818;stroke-width:1;" x1="671.6484" x2="1930.7568" y1="1008.5156" y2="1008.5156"/><text fill="#000000" font-family="sans-serif" font-size="13" font-weight="bold" lengthAdjust="spacing" textLength="5.9414" x="678.6484" y="1003.4497">[</text><text fill="#000000" font-family="sans-serif" font-size="13" lengthAdjust="spacing" textLength="137.2998" x="684.5898" y="1003.4497">operator bool() const</text><text fill="#000000" font-family="sans-serif" font-size="13" font-weight="bold" lengthAdjust="spacing" textLength="5.9414" x="821.8896" y="1003.4497">]</text></a><polygon fill="#181818" points="682.6484,1018.5156,672.6484,1022.5156,682.6484,1026.5156,678.6484,1022.5156" style="stroke:#181818;stroke-width:1;"/><line style="stroke:#181818;stroke-width:1;stroke-dasharray:2.0,2.0;" x1="676.6484" x2="1940.7568" y1="1022.5156" y2="1022.5156"/><a href="" target="_top" title="" xlink:actuate="onRequest" xlink:href="" xlink:show="new" xlink:title="" xlink:type="simple"><polygon fill="#181818" points="1924.7568,1047.6484,1934.7568,1051.6484,1924.7568,1055.6484,1928.7568,1051.6484" style="stroke:#181818;stroke-width:1;"/><line style="stroke:#181818;stroke-width:1;" x1="671.6484" x2="1930.7568" y1="1051.6484" y2="1051.6484"/><text fill="#000000" font-family="sans-serif" font-size="13" lengthAdjust="spacing" textLength="30.0117" x="678.6484" y="1046.5825">set()</text></a><a href="" target="_top" title="" xlink:actuate="onRequest" xlink:href="" xlink:show="new" xlink:title="" xlink:type="simple"><polygon fill="#181818" points="1924.7568,1113.7813,1934.7568,1117.7813,1924.7568,1121.7813,1928.7568,1117.7813" style="stroke:#181818;stroke-width:1;"/><line style="stroke:#181818;stroke-width:1;" x1="671.6484" x2="1930.7568" y1="1117.7813" y2="1117.7813"/><text fill="#000000" font-family="sans-serif" font-size="13" lengthAdjust="spacing" textLength="76.1973" x="678.6484" y="1112.7153">operator()()</text></a><polygon fill="#181818" points="677.6484,1127.7813,667.6484,1131.7813,677.6484,1135.7813,673.6484,1131.7813" style="stroke:#181818;stroke-width:1;"/><line style="stroke:#181818;stroke-width:1;stroke-dasharray:2.0,2.0;" x1="671.6484" x2="1940.7568" y1="1131.7813" y2="1131.7813"/><line style="stroke:#000000;stroke-width:1;stroke-dasharray:2.0,2.0;" x1="10" x2="2156.0957" y1="1140.7813" y2="1140.7813"/><text fill="#000000" font-family="sans-serif" font-size="11" font-weight="bold" lengthAdjust="spacing" textLength="112.9058" x="15" y="1150.9917">[YAML::BadFile &amp;]</text><line style="stroke:#000000;stroke-width:1;stroke-dasharray:2.0,2.0;" x1="10" x2="2156.0957" y1="1155.5859" y2="1155.5859"/><text fill="#000000" font-family="sans-serif" font-size="11" font-weight="bold" lengthAdjust="spacing" textLength="127.5903" x="15" y="1165.7964">[YAML::Exception &amp;]</text><polygon fill="#181818" points="11,1178.3906,1,1182.3906,11,1186.3906,7,1182.3906" style="stroke:#181818;stroke-width:1;"/><line style="stroke:#181818;stroke-width:1;stroke-dasharray:2.0,2.0;" x1="5" x2="145.2852" y1="1182.3906" y2="1182.3906"/><!--SRC=[vLTRRzCm57xFhx3smDgCf77khhfAW82NxWK995HDaUkuhKMQXDWT6uZzTfo6teZJPHtNKVKc9-Sxv_jyVCw9O2AXu4MMJjbiMM31iXHCcLnACXopT0Ou_RYaAQ4WPdXMu8MMuq8mmdAS2d322z8ZA-FU3LuaKKn95jE2cuIS0Cp1YyWgNz3n0iyENOWSvBaeiBMnCMoy2FehxvskXebWLrZGPfnPaIrp88gR_RXCi_V3UycB7aj9iepfAbI3v7albS7sf26dvdmRBqGmXCYr_S253aI-WrojCTOr3uKH68-_VBsyb7H6AZgDRbHGnW6zj9ZUZOmJyU-Je0cdFu75AvdWVvf96hVR4jMr3HbT7-lw7FFe0xtfT7NzKjTRd9bcd_TXfRgdPFKmHWNbMN95eomlIr6KOp5lLGVQHFVtHfPaMVu8q-7HdDJoizTVgfxNxrU_EwqkH4xWEiX27dHSQ7a8bOJUq5oc3qq51_AB5HIGMiULf5jilng_4eobJ32SiCyq-jwi8q4NUIBfyNggrf4QMtiDRRTRMiX60OAsxK8lS6mfsthZ5R5kUDIDjZncL4HIhvXEMKhZDbmK8Hmz3j054tlJWEs5bXFQC0X2px9S7tfQ8uTDOjUDjloodCfzpuh1e9xQJSvKWCO1DUkfhK0-MYCcTs9F8z-p73-qBTlr_105K2RJtHhLZUeQdP_NDMfofWAydqR_8uq3fQLUv8yvwxzjg6n1e6aoLXRtgjCFk8Zx_GNEgpyJp1c9k2Zamz60p74n70vt3aA0PBr6lkTw8GpS4DfEoRL2sbRuGsgf4NOQ_3gdm2JBaawtR2LSg9gz0afhz74_6PkGZsR6gQYdWS9BcqYsK-YnqQmbxdHR1VNhHAqTG0LE-L04tZ-x6FNxpwk92JpPNNnvJUWg_yfbASruO1WFc-kqqzSqBHMYCVZ4n1oG1ASpOxb8de8h-VHV-h9CrxICm9Y5s9z8A-rqD7ftiRdyTh9CnR8ot2n2txHC7tJEpcJjSgm0oZub_mLd0PbC8ROz13tRWBVqEeUtwrkWRrjkQ4ejkjy0]--></g></svg>