<svg xmlns="http://www.w3.org/2000/svg" xmlns:xlink="http://www.w3.org/1999/xlink" contentStyleType="text/css" data-diagram-type="SEQUENCE" height="2029px" preserveAspectRatio="none" style="width:2295px;height:2029px;background:#FFFFFF;" version="1.1" viewBox="0 0 2295 2029" width="2295px" zoomAndPan="magnify"><title>Configuration file loading sequence diagram</title><defs/><g><text fill="#000000" font-family="sans-serif" font-size="14" font-weight="bold" lengthAdjust="spacing" textLength="351.8184" x="972.6123" y="27.9951">Configuration file loading sequence diagram</text><g><title>src/config/config.h</title><rect fill="#FFFFFF" height="1879.3203" style="stroke:#181818;stroke-width:1;" width="10" x="116.5928" y="104.7266"/></g><g><title>src/config/yaml_decoders.cc</title><rect fill="#FFFFFF" height="57.1328" style="stroke:#181818;stroke-width:1;" width="10" x="304.4707" y="262.6563"/></g><g><title>src/config/yaml_decoders.cc</title><rect fill="#FFFFFF" height="39.1328" style="stroke:#181818;stroke-width:1;" width="10" x="304.4707" y="1082.6484"/></g><g><title>src/config/yaml_decoders.cc</title><rect fill="#FFFFFF" height="53.1328" style="stroke:#181818;stroke-width:1;" width="10" x="304.4707" y="1142.9141"/></g><g><title>src/config/yaml_decoders.cc</title><rect fill="#FFFFFF" height="53.1328" style="stroke:#181818;stroke-width:1;" width="10" x="304.4707" y="1256.3125"/></g><g><title>src/config/yaml_decoders.cc</title><rect fill="#FFFFFF" height="53.1328" style="stroke:#181818;stroke-width:1;" width="10" x="304.4707" y="1393.8438"/></g><g><title>::YAML::has_key(const YAML::Node &amp;,const std::string &amp;)::(lambda src/config/yaml_decoders.cc:110:46)</title><rect fill="#FFFFFF" height="14" style="stroke:#181818;stroke-width:1;" width="10" x="792.5317" y="291.7891"/></g><g><title>src/util/logging.h</title><rect fill="#FFFFFF" height="690.5938" style="stroke:#181818;stroke-width:1;" width="10" x="1240.0693" y="355.9219"/></g><g><title>src/util/logging.h</title><rect fill="#FFFFFF" height="28" style="stroke:#181818;stroke-width:1;" width="10" x="1245.0693" y="393.0547"/></g><g><title>src/util/logging.h</title><rect fill="#FFFFFF" height="421.9297" style="stroke:#181818;stroke-width:1;" width="10" x="1245.0693" y="465.1875"/></g><g><title>src/util/logging.h</title><rect fill="#FFFFFF" height="196.2656" style="stroke:#181818;stroke-width:1;" width="10" x="1250.0693" y="533.4531"/></g><g><title>src/util/logging.h</title><rect fill="#FFFFFF" height="28" style="stroke:#181818;stroke-width:1;" width="10" x="1255.0693" y="575.5859"/></g><g><title>src/util/logging.h</title><rect fill="#FFFFFF" height="28" style="stroke:#181818;stroke-width:1;" width="10" x="1255.0693" y="674.7188"/></g><g><title>src/util/logging.h</title><rect fill="#FFFFFF" height="58.1328" style="stroke:#181818;stroke-width:1;" width="10" x="1250.0693" y="806.9844"/></g><g><title>src/util/logging.h</title><rect fill="#FFFFFF" height="28" style="stroke:#181818;stroke-width:1;" width="10" x="1245.0693" y="916.25"/></g><g><title>src/util/logging.h</title><rect fill="#FFFFFF" height="58.1328" style="stroke:#181818;stroke-width:1;" width="10" x="1245.0693" y="988.3828"/></g><g><title>error::config_schema_error</title><rect fill="#FFFFFF" height="30" style="stroke:#181818;stroke-width:1;" width="10" x="1530.54" y="1552.375"/></g><g><title>config::config</title><rect fill="#FFFFFF" height="188.5313" style="stroke:#181818;stroke-width:1;" width="10" x="1697.0283" y="1649.6406"/></g><g><title>config::config</title><rect fill="#FFFFFF" height="59.1328" style="stroke:#181818;stroke-width:1;" width="10" x="1697.0283" y="1866.3047"/></g><g><title>config::inheritable_diagram_options</title><rect fill="#FFFFFF" height="30" style="stroke:#181818;stroke-width:1;" width="10" x="1894.2886" y="1702.9063"/></g><g><title>config::inheritable_diagram_options</title><rect fill="#FFFFFF" height="28" style="stroke:#181818;stroke-width:1;" width="10" x="1894.2886" y="1786.1719"/></g><g><title>src/config/diagram_templates.h</title><rect fill="#FFFFFF" height="30" style="stroke:#181818;stroke-width:1;" width="10" x="2155.0171" y="1895.4375"/></g><rect fill="transparent" height="1857.3203" style="stroke:#000000;stroke-width:1.5;" width="2278.043" x="10" y="119.7266"/><rect fill="transparent" height="103.3984" style="stroke:#000000;stroke-width:1.5;" width="1139.3076" x="40" y="224.3906"/><rect fill="transparent" height="259.5313" style="stroke:#000000;stroke-width:1.5;" width="302.1025" x="1169.3076" y="485.1875"/><rect fill="transparent" height="121.3984" style="stroke:#000000;stroke-width:1.5;" width="302.1025" x="1169.3076" y="758.7188"/><rect fill="transparent" height="17.1328" style="stroke:#000000;stroke-width:1.5;" width="252.0049" x="60" y="1097.6484"/><rect fill="transparent" height="257.9297" style="stroke:#000000;stroke-width:1.5;" width="425.7559" x="20" y="1218.0469"/><rect fill="transparent" height="137.5313" style="stroke:#000000;stroke-width:1.5;" width="405.7559" x="30" y="1331.4453"/><rect fill="transparent" height="106.3984" style="stroke:#000000;stroke-width:1.5;" width="385.7559" x="40" y="1355.5781"/><rect fill="transparent" height="107.3984" style="stroke:#000000;stroke-width:1.5;" width="1627.4707" x="30" y="1489.9766"/><rect fill="transparent" height="76.2656" style="stroke:#000000;stroke-width:1.5;" width="1607.4707" x="40" y="1514.1094"/><rect fill="transparent" height="226.7969" style="stroke:#000000;stroke-width:1.5;" width="2021.9912" x="40" y="1611.375"/><rect fill="transparent" height="166.5313" style="stroke:#000000;stroke-width:1.5;" width="424.5205" x="1627.4707" y="1664.6406"/><rect fill="transparent" height="76.2656" style="stroke:#000000;stroke-width:1.5;" width="404.5205" x="1637.4707" y="1747.9063"/><g><title>src/config/config.h</title><rect fill="transparent" height="1920.4531" width="8" x="117.5928" y="73.5938"/><line style="stroke:#181818;stroke-width:0.5;stroke-dasharray:5.0,5.0;" x1="121" x2="121" y1="73.5938" y2="1994.0469"/></g><g><title>src/config/yaml_decoders.cc</title><rect fill="transparent" height="1920.4531" width="8" x="305.4707" y="73.5938"/><line style="stroke:#181818;stroke-width:0.5;stroke-dasharray:5.0,5.0;" x1="309.1855" x2="309.1855" y1="73.5938" y2="1994.0469"/></g><g><title>::YAML::has_key(const YAML::Node &amp;,const std::string &amp;)::(lambda src/config/yaml_decoders.cc:110:46)</title><rect fill="transparent" height="1920.4531" width="8" x="793.5317" y="73.5938"/><line style="stroke:#181818;stroke-width:0.5;stroke-dasharray:5.0,5.0;" x1="796.7559" x2="796.7559" y1="73.5938" y2="1994.0469"/></g><g><title>src/util/logging.h</title><rect fill="transparent" height="1920.4531" width="8" x="1241.0693" y="73.5938"/><line style="stroke:#181818;stroke-width:0.5;stroke-dasharray:5.0,5.0;" x1="1244.3076" x2="1244.3076" y1="73.5938" y2="1994.0469"/></g><g><title>error::config_schema_error</title><rect fill="transparent" height="1920.4531" width="8" x="1531.54" y="73.5938"/><line style="stroke:#181818;stroke-width:0.5;stroke-dasharray:5.0,5.0;" x1="1534.6094" x2="1534.6094" y1="73.5938" y2="1994.0469"/></g><g><title>config::config</title><rect fill="transparent" height="1920.4531" width="8" x="1698.0283" y="73.5938"/><line style="stroke:#181818;stroke-width:0.5;stroke-dasharray:5.0,5.0;" x1="1701.4707" x2="1701.4707" y1="73.5938" y2="1994.0469"/></g><g><title>config::inheritable_diagram_options</title><rect fill="transparent" height="1920.4531" width="8" x="1895.2886" y="73.5938"/><line style="stroke:#181818;stroke-width:0.5;stroke-dasharray:5.0,5.0;" x1="1898.5859" x2="1898.5859" y1="73.5938" y2="1994.0469"/></g><g><title>src/config/diagram_templates.h</title><rect fill="transparent" height="1920.4531" width="8" x="2156.0171" y="73.5938"/><line style="stroke:#181818;stroke-width:0.5;stroke-dasharray:5.0,5.0;" x1="2159.9912" x2="2159.9912" y1="73.5938" y2="1994.0469"/></g><rect fill="#E2E2F0" height="30.2969" rx="2.5" ry="2.5" style="stroke:#181818;stroke-width:0.5;" width="143.1855" x="50" y="42.2969"/><text fill="#000000" font-family="sans-serif" font-size="14" lengthAdjust="spacing" textLength="129.1855" x="57" y="62.292">src/config/config.h</text><rect fill="#E2E2F0" height="30.2969" rx="2.5" ry="2.5" style="stroke:#181818;stroke-width:0.5;" width="143.1855" x="50" y="1993.0469"/><text fill="#000000" font-family="sans-serif" font-size="14" lengthAdjust="spacing" textLength="129.1855" x="57" y="2013.042">src/config/config.h</text><rect fill="#E2E2F0" height="30.2969" rx="2.5" ry="2.5" style="stroke:#181818;stroke-width:0.5;" width="212.5703" x="203.1855" y="42.2969"/><text fill="#000000" font-family="sans-serif" font-size="14" lengthAdjust="spacing" textLength="198.5703" x="210.1855" y="62.292">src/config/yaml_decoders.cc</text><rect fill="#E2E2F0" height="30.2969" rx="2.5" ry="2.5" style="stroke:#181818;stroke-width:0.5;" width="212.5703" x="203.1855" y="1993.0469"/><text fill="#000000" font-family="sans-serif" font-size="14" lengthAdjust="spacing" textLength="198.5703" x="210.1855" y="2013.042">src/config/yaml_decoders.cc</text><a href="" target="_top" title="has_key(const YAML::Node &amp;,const std::string &amp;)::(lambda src/config/yaml_decoders.cc:110:46)" xlink:actuate="onRequest" xlink:href="" xlink:show="new" xlink:title="has_key(const YAML::Node &amp;,const std::string &amp;)::(lambda src/config/yaml_decoders.cc:110:46)" xlink:type="simple"><rect fill="#E2E2F0" height="30.2969" rx="2.5" ry="2.5" style="stroke:#181818;stroke-width:0.5;" width="743.5518" x="425.7559" y="42.2969"/><text fill="#000000" font-family="sans-serif" font-size="14" lengthAdjust="spacing" textLength="729.5518" x="432.7559" y="62.292">::YAML::has_key(const YAML::Node &amp;,const std::string &amp;)::(lambda src/config/yaml_decoders.cc:110:46)</text><rect fill="#E2E2F0" height="30.2969" rx="2.5" ry="2.5" style="stroke:#181818;stroke-width:0.5;" width="743.5518" x="425.7559" y="1993.0469"/><text fill="#000000" font-family="sans-serif" font-size="14" lengthAdjust="spacing" textLength="729.5518" x="432.7559" y="2013.042">::YAML::has_key(const YAML::Node &amp;,const std::string &amp;)::(lambda src/config/yaml_decoders.cc:110:46)</text></a><rect fill="#E2E2F0" height="30.2969" rx="2.5" ry="2.5" style="stroke:#181818;stroke-width:0.5;" width="131.5234" x="1179.3076" y="42.2969"/><text fill="#000000" font-family="sans-serif" font-size="14" lengthAdjust="spacing" textLength="117.5234" x="1186.3076" y="62.292">src/util/logging.h</text><rect fill="#E2E2F0" height="30.2969" rx="2.5" ry="2.5" style="stroke:#181818;stroke-width:0.5;" width="131.5234" x="1179.3076" y="1993.0469"/><text fill="#000000" font-family="sans-serif" font-size="14" lengthAdjust="spacing" textLength="117.5234" x="1186.3076" y="2013.042">src/util/logging.h</text><a href="" target="_top" title="config_schema_error" xlink:actuate="onRequest" xlink:href="" xlink:show="new" xlink:title="config_schema_error" xlink:type="simple"><rect fill="#E2E2F0" height="30.2969" rx="2.5" ry="2.5" style="stroke:#181818;stroke-width:0.5;" width="203.8613" x="1433.6094" y="42.2969"/><text fill="#000000" font-family="sans-serif" font-size="14" lengthAdjust="spacing" textLength="189.8613" x="1440.6094" y="62.292">error::config_schema_error</text><rect fill="#E2E2F0" height="30.2969" rx="2.5" ry="2.5" style="stroke:#181818;stroke-width:0.5;" width="203.8613" x="1433.6094" y="1993.0469"/><text fill="#000000" font-family="sans-serif" font-size="14" lengthAdjust="spacing" textLength="189.8613" x="1440.6094" y="2013.042">error::config_schema_error</text></a><a href="" target="_top" title="Represents entire configuration file" xlink:actuate="onRequest" xlink:href="" xlink:show="new" xlink:title="Represents entire configuration file" xlink:type="simple"><rect fill="#E2E2F0" height="30.2969" rx="2.5" ry="2.5" style="stroke:#181818;stroke-width:0.5;" width="109.1152" x="1647.4707" y="42.2969"/><text fill="#000000" font-family="sans-serif" font-size="14" lengthAdjust="spacing" textLength="95.1152" x="1654.4707" y="62.292">config::config</text><rect fill="#E2E2F0" height="30.2969" rx="2.5" ry="2.5" style="stroke:#181818;stroke-width:0.5;" width="109.1152" x="1647.4707" y="1993.0469"/><text fill="#000000" font-family="sans-serif" font-size="14" lengthAdjust="spacing" textLength="95.1152" x="1654.4707" y="2013.042">config::config</text></a><a href="" target="_top" title="Represents subset of inheritable configuration options" xlink:actuate="onRequest" xlink:href="" xlink:show="new" xlink:title="Represents subset of inheritable configuration options" xlink:type="simple"><rect fill="#E2E2F0" height="30.2969" rx="2.5" ry="2.5" style="stroke:#181818;stroke-width:0.5;" width="265.4053" x="1766.5859" y="42.2969"/><text fill="#000000" font-family="sans-serif" font-size="14" lengthAdjust="spacing" textLength="251.4053" x="1773.5859" y="62.292">config::inheritable_diagram_options</text><rect fill="#E2E2F0" height="30.2969" rx="2.5" ry="2.5" style="stroke:#181818;stroke-width:0.5;" width="265.4053" x="1766.5859" y="1993.0469"/><text fill="#000000" font-family="sans-serif" font-size="14" lengthAdjust="spacing" textLength="251.4053" x="1773.5859" y="2013.042">config::inheritable_diagram_options</text></a><rect fill="#E2E2F0" height="30.2969" rx="2.5" ry="2.5" style="stroke:#181818;stroke-width:0.5;" width="236.0518" x="2041.9912" y="42.2969"/><text fill="#000000" font-family="sans-serif" font-size="14" lengthAdjust="spacing" textLength="222.0518" x="2048.9912" y="62.292">src/config/diagram_templates.h</text><rect fill="#E2E2F0" height="30.2969" rx="2.5" ry="2.5" style="stroke:#181818;stroke-width:0.5;" width="236.0518" x="2041.9912" y="1993.0469"/><text fill="#000000" font-family="sans-serif" font-size="14" lengthAdjust="spacing" textLength="222.0518" x="2048.9912" y="2013.042">src/config/diagram_templates.h</text><g><title>src/config/config.h</title><rect fill="#FFFFFF" height="1879.3203" style="stroke:#181818;stroke-width:1;" width="10" x="116.5928" y="104.7266"/></g><g><title>src/config/yaml_decoders.cc</title><rect fill="#FFFFFF" height="57.1328" style="stroke:#181818;stroke-width:1;" width="10" x="304.4707" y="262.6563"/></g><g><title>src/config/yaml_decoders.cc</title><rect fill="#FFFFFF" height="39.1328" style="stroke:#181818;stroke-width:1;" width="10" x="304.4707" y="1082.6484"/></g><g><title>src/config/yaml_decoders.cc</title><rect fill="#FFFFFF" height="53.1328" style="stroke:#181818;stroke-width:1;" width="10" x="304.4707" y="1142.9141"/></g><g><title>src/config/yaml_decoders.cc</title><rect fill="#FFFFFF" height="53.1328" style="stroke:#181818;stroke-width:1;" width="10" x="304.4707" y="1256.3125"/></g><g><title>src/config/yaml_decoders.cc</title><rect fill="#FFFFFF" height="53.1328" style="stroke:#181818;stroke-width:1;" width="10" x="304.4707" y="1393.8438"/></g><g><title>::YAML::has_key(const YAML::Node &amp;,const std::string &amp;)::(lambda src/config/yaml_decoders.cc:110:46)</title><rect fill="#FFFFFF" height="14" style="stroke:#181818;stroke-width:1;" width="10" x="792.5317" y="291.7891"/></g><g><title>src/util/logging.h</title><rect fill="#FFFFFF" height="690.5938" style="stroke:#181818;stroke-width:1;" width="10" x="1240.0693" y="355.9219"/></g><g><title>src/util/logging.h</title><rect fill="#FFFFFF" height="28" style="stroke:#181818;stroke-width:1;" width="10" x="1245.0693" y="393.0547"/></g><g><title>src/util/logging.h</title><rect fill="#FFFFFF" height="421.9297" style="stroke:#181818;stroke-width:1;" width="10" x="1245.0693" y="465.1875"/></g><g><title>src/util/logging.h</title><rect fill="#FFFFFF" height="196.2656" style="stroke:#181818;stroke-width:1;" width="10" x="1250.0693" y="533.4531"/></g><g><title>src/util/logging.h</title><rect fill="#FFFFFF" height="28" style="stroke:#181818;stroke-width:1;" width="10" x="1255.0693" y="575.5859"/></g><g><title>src/util/logging.h</title><rect fill="#FFFFFF" height="28" style="stroke:#181818;stroke-width:1;" width="10" x="1255.0693" y="674.7188"/></g><g><title>src/util/logging.h</title><rect fill="#FFFFFF" height="58.1328" style="stroke:#181818;stroke-width:1;" width="10" x="1250.0693" y="806.9844"/></g><g><title>src/util/logging.h</title><rect fill="#FFFFFF" height="28" style="stroke:#181818;stroke-width:1;" width="10" x="1245.0693" y="916.25"/></g><g><title>src/util/logging.h</title><rect fill="#FFFFFF" height="58.1328" style="stroke:#181818;stroke-width:1;" width="10" x="1245.0693" y="988.3828"/></g><g><title>error::config_schema_error</title><rect fill="#FFFFFF" height="30" style="stroke:#181818;stroke-width:1;" width="10" x="1530.54" y="1552.375"/></g><g><title>config::config</title><rect fill="#FFFFFF" height="188.5313" style="stroke:#181818;stroke-width:1;" width="10" x="1697.0283" y="1649.6406"/></g><g><title>config::config</title><rect fill="#FFFFFF" height="59.1328" style="stroke:#181818;stroke-width:1;" width="10" x="1697.0283" y="1866.3047"/></g><g><title>config::inheritable_diagram_options</title><rect fill="#FFFFFF" height="30" style="stroke:#181818;stroke-width:1;" width="10" x="1894.2886" y="1702.9063"/></g><g><title>config::inheritable_diagram_options</title><rect fill="#FFFFFF" height="28" style="stroke:#181818;stroke-width:1;" width="10" x="1894.2886" y="1786.1719"/></g><g><title>src/config/diagram_templates.h</title><rect fill="#FFFFFF" height="30" style="stroke:#181818;stroke-width:1;" width="10" x="2155.0171" y="1895.4375"/></g><polygon fill="#181818" points="104.5928,100.7266,114.5928,104.7266,104.5928,108.7266,108.5928,104.7266" style="stroke:#181818;stroke-width:1;"/><line style="stroke:#181818;stroke-width:1;" x1="0" x2="110.5928" y1="104.7266" y2="104.7266"/><text fill="#000000" font-family="sans-serif" font-size="13" lengthAdjust="spacing" textLength="37.9272" x="7" y="99.6606">load()</text><path d="M10,119.7266 L76.0996,119.7266 L76.0996,126.8594 L66.0996,136.8594 L10,136.8594 L10,119.7266 " fill="#EEEEEE" style="stroke:#000000;stroke-width:1.5;"/><rect fill="transparent" height="1857.3203" style="stroke:#000000;stroke-width:1.5;" width="2278.043" x="10" y="119.7266"/><text fill="#000000" font-family="sans-serif" font-size="13" font-weight="bold" lengthAdjust="spacing" textLength="21.0996" x="25" y="132.7935">try</text><path d="M27,141.8594 L27,211.8594 L215,211.8594 L215,151.8594 L205,141.8594 L27,141.8594 " fill="#FEFFDD" style="stroke:#181818;stroke-width:0.5;"/><path d="M205,141.8594 L205,151.8594 L215,151.8594 L205,141.8594 " fill="#FEFFDD" style="stroke:#181818;stroke-width:0.5;"/><text fill="#000000" font-family="sans-serif" font-size="13" lengthAdjust="spacing" textLength="157.4917" x="33" y="158.9263">Store the parent path of</text><text fill="#000000" font-family="sans-serif" font-size="13" lengthAdjust="spacing" textLength="167.3115" x="33" y="174.0591">the config_file to properly</text><text fill="#000000" font-family="sans-serif" font-size="13" lengthAdjust="spacing" textLength="157.2695" x="33" y="189.1919">resolve relative paths in</text><text fill="#000000" font-family="sans-serif" font-size="13" lengthAdjust="spacing" textLength="63.7114" x="33" y="204.3247">config file</text><path d="M40,224.3906 L104.4429,224.3906 L104.4429,231.5234 L94.4429,241.5234 L40,241.5234 L40,224.3906 " fill="#EEEEEE" style="stroke:#000000;stroke-width:1.5;"/><rect fill="transparent" height="103.3984" style="stroke:#000000;stroke-width:1.5;" width="1139.3076" x="40" y="224.3906"/><text fill="#000000" font-family="sans-serif" font-size="13" font-weight="bold" lengthAdjust="spacing" textLength="19.4429" x="55" y="237.4575">alt</text><text fill="#000000" font-family="sans-serif" font-size="11" font-weight="bold" lengthAdjust="spacing" textLength="196.9365" x="119.4429" y="236.6011">[has_key(doc, "__parent_path")]</text><a href="" target="_top" title="" xlink:actuate="onRequest" xlink:href="" xlink:show="new" xlink:title="" xlink:type="simple"><polygon fill="#181818" points="292.4707,258.6563,302.4707,262.6563,292.4707,266.6563,296.4707,262.6563" style="stroke:#181818;stroke-width:1;"/><line style="stroke:#181818;stroke-width:1;" x1="126.5928" x2="298.4707" y1="262.6563" y2="262.6563"/><text fill="#000000" font-family="sans-serif" font-size="13" font-weight="bold" lengthAdjust="spacing" textLength="5.9414" x="133.5928" y="257.5903">[</text><text fill="#000000" font-family="sans-serif" font-size="13" lengthAdjust="spacing" textLength="62.8418" x="139.5342" y="257.5903">has_key()</text><text fill="#000000" font-family="sans-serif" font-size="13" font-weight="bold" lengthAdjust="spacing" textLength="5.9414" x="202.376" y="257.5903">]</text></a><a href="" target="_top" title="" xlink:actuate="onRequest" xlink:href="" xlink:show="new" xlink:title="" xlink:type="simple"><polygon fill="#181818" points="780.5317,287.7891,790.5317,291.7891,780.5317,295.7891,784.5317,291.7891" style="stroke:#181818;stroke-width:1;"/><line style="stroke:#181818;stroke-width:1;" x1="314.4707" x2="786.5317" y1="291.7891" y2="291.7891"/><text fill="#000000" font-family="sans-serif" font-size="13" lengthAdjust="spacing" textLength="115.54" x="321.4707" y="286.7231">operator()() const</text></a><polygon fill="#181818" points="325.4707,301.7891,315.4707,305.7891,325.4707,309.7891,321.4707,305.7891" style="stroke:#181818;stroke-width:1;"/><line style="stroke:#181818;stroke-width:1;stroke-dasharray:2.0,2.0;" x1="319.4707" x2="796.5317" y1="305.7891" y2="305.7891"/><polygon fill="#181818" points="137.5928,315.7891,127.5928,319.7891,137.5928,323.7891,133.5928,319.7891" style="stroke:#181818;stroke-width:1;"/><line style="stroke:#181818;stroke-width:1;stroke-dasharray:2.0,2.0;" x1="131.5928" x2="308.4707" y1="319.7891" y2="319.7891"/><a href="" target="_top" title="" xlink:actuate="onRequest" xlink:href="" xlink:show="new" xlink:title="" xlink:type="simple"><polygon fill="#181818" points="1228.0693,351.9219,1238.0693,355.9219,1228.0693,359.9219,1232.0693,355.9219" style="stroke:#181818;stroke-width:1;"/><line style="stroke:#181818;stroke-width:1;" x1="126.5928" x2="1234.0693" y1="355.9219" y2="355.9219"/><text fill="#000000" font-family="sans-serif" font-size="13" lengthAdjust="spacing" textLength="256.4707" x="133.5928" y="350.856">log_impl&lt;const char *,int,std::string&gt;()</text></a><a href="" target="_top" title="" xlink:actuate="onRequest" xlink:href="" xlink:show="new" xlink:title="" xlink:type="simple"><line style="stroke:#181818;stroke-width:1;" x1="1255.0693" x2="1297.0693" y1="385.0547" y2="385.0547"/><line style="stroke:#181818;stroke-width:1;" x1="1297.0693" x2="1297.0693" y1="385.0547" y2="398.0547"/><line style="stroke:#181818;stroke-width:1;" x1="1256.0693" x2="1297.0693" y1="398.0547" y2="398.0547"/><polygon fill="#181818" points="1266.0693,394.0547,1256.0693,398.0547,1266.0693,402.0547,1262.0693,398.0547" style="stroke:#181818;stroke-width:1;"/><text fill="#000000" font-family="sans-serif" font-size="13" lengthAdjust="spacing" textLength="87.0962" x="1262.0693" y="379.9888">logger_type()</text></a><a href="" target="_top" title="" xlink:actuate="onRequest" xlink:href="" xlink:show="new" xlink:title="" xlink:type="simple"><line style="stroke:#181818;stroke-width:1;" x1="1250.0693" x2="1297.0693" y1="452.1875" y2="452.1875"/><line style="stroke:#181818;stroke-width:1;" x1="1297.0693" x2="1297.0693" y1="452.1875" y2="465.1875"/><line style="stroke:#181818;stroke-width:1;" x1="1256.0693" x2="1297.0693" y1="465.1875" y2="465.1875"/><polygon fill="#181818" points="1266.0693,461.1875,1256.0693,465.1875,1266.0693,469.1875,1262.0693,465.1875" style="stroke:#181818;stroke-width:1;"/><text fill="#000000" font-family="sans-serif" font-size="13" lengthAdjust="spacing" textLength="256.4707" x="1262.0693" y="447.1216">log_impl&lt;const char *,int,std::string&gt;()</text></a><path d="M1169.3076,485.1875 L1233.7505,485.1875 L1233.7505,492.3203 L1223.7505,502.3203 L1169.3076,502.3203 L1169.3076,485.1875 " fill="#EEEEEE" style="stroke:#000000;stroke-width:1.5;"/><rect fill="transparent" height="259.5313" style="stroke:#000000;stroke-width:1.5;" width="302.1025" x="1169.3076" y="485.1875"/><text fill="#000000" font-family="sans-serif" font-size="13" font-weight="bold" lengthAdjust="spacing" textLength="19.4429" x="1184.3076" y="498.2544">alt</text><text fill="#000000" font-family="sans-serif" font-size="11" font-weight="bold" lengthAdjust="spacing" textLength="181.7632" x="1248.7505" y="497.3979">[type == logger_type_t::text]</text><line style="stroke:#000000;stroke-width:1;stroke-dasharray:2.0,2.0;" x1="1169.3076" x2="1471.4102" y1="503.3203" y2="503.3203"/><a href="" target="_top" title="" xlink:actuate="onRequest" xlink:href="" xlink:show="new" xlink:title="" xlink:type="simple"><line style="stroke:#181818;stroke-width:1;" x1="1255.0693" x2="1302.0693" y1="520.4531" y2="520.4531"/><line style="stroke:#181818;stroke-width:1;" x1="1302.0693" x2="1302.0693" y1="520.4531" y2="533.4531"/><line style="stroke:#181818;stroke-width:1;" x1="1261.0693" x2="1302.0693" y1="533.4531" y2="533.4531"/><polygon fill="#181818" points="1271.0693,529.4531,1261.0693,533.4531,1271.0693,537.4531,1267.0693,533.4531" style="stroke:#181818;stroke-width:1;"/><text fill="#000000" font-family="sans-serif" font-size="13" lengthAdjust="spacing" textLength="177.3408" x="1267.0693" y="515.3872">escape_json&lt;std::string&gt;()</text></a><a href="" target="_top" title="" xlink:actuate="onRequest" xlink:href="" xlink:show="new" xlink:title="" xlink:type="simple"><line style="stroke:#181818;stroke-width:1;" x1="1265.0693" x2="1307.0693" y1="567.5859" y2="567.5859"/><line style="stroke:#181818;stroke-width:1;" x1="1307.0693" x2="1307.0693" y1="567.5859" y2="580.5859"/><line style="stroke:#181818;stroke-width:1;" x1="1266.0693" x2="1307.0693" y1="580.5859" y2="580.5859"/><polygon fill="#181818" points="1276.0693,576.5859,1266.0693,580.5859,1276.0693,584.5859,1272.0693,580.5859" style="stroke:#181818;stroke-width:1;"/><text fill="#000000" font-family="sans-serif" font-size="13" lengthAdjust="spacing" textLength="133.1738" x="1272.0693" y="562.52">escape_json_string()</text></a><line style="stroke:#181818;stroke-width:1;stroke-dasharray:2.0,2.0;" x1="1260.0693" x2="1302.0693" y1="624.5859" y2="624.5859"/><line style="stroke:#181818;stroke-width:1;stroke-dasharray:2.0,2.0;" x1="1302.0693" x2="1302.0693" y1="624.5859" y2="637.5859"/><line style="stroke:#181818;stroke-width:1;stroke-dasharray:2.0,2.0;" x1="1261.0693" x2="1302.0693" y1="637.5859" y2="637.5859"/><polygon fill="#181818" points="1271.0693,633.5859,1261.0693,637.5859,1271.0693,641.5859,1267.0693,637.5859" style="stroke:#181818;stroke-width:1;"/><a href="" target="_top" title="" xlink:actuate="onRequest" xlink:href="" xlink:show="new" xlink:title="" xlink:type="simple"><line style="stroke:#181818;stroke-width:1;" x1="1265.0693" x2="1307.0693" y1="666.7188" y2="666.7188"/><line style="stroke:#181818;stroke-width:1;" x1="1307.0693" x2="1307.0693" y1="666.7188" y2="679.7188"/><line style="stroke:#181818;stroke-width:1;" x1="1266.0693" x2="1307.0693" y1="679.7188" y2="679.7188"/><polygon fill="#181818" points="1276.0693,675.7188,1266.0693,679.7188,1276.0693,683.7188,1272.0693,679.7188" style="stroke:#181818;stroke-width:1;"/><text fill="#000000" font-family="sans-serif" font-size="13" lengthAdjust="spacing" textLength="133.1738" x="1272.0693" y="661.6528">escape_json_string()</text></a><line style="stroke:#181818;stroke-width:1;stroke-dasharray:2.0,2.0;" x1="1260.0693" x2="1302.0693" y1="728.7188" y2="728.7188"/><line style="stroke:#181818;stroke-width:1;stroke-dasharray:2.0,2.0;" x1="1302.0693" x2="1302.0693" y1="728.7188" y2="741.7188"/><line style="stroke:#181818;stroke-width:1;stroke-dasharray:2.0,2.0;" x1="1255.0693" x2="1302.0693" y1="741.7188" y2="741.7188"/><polygon fill="#181818" points="1265.0693,737.7188,1255.0693,741.7188,1265.0693,745.7188,1261.0693,741.7188" style="stroke:#181818;stroke-width:1;"/><path d="M1169.3076,758.7188 L1233.7505,758.7188 L1233.7505,765.8516 L1223.7505,775.8516 L1169.3076,775.8516 L1169.3076,758.7188 " fill="#EEEEEE" style="stroke:#000000;stroke-width:1.5;"/><rect fill="transparent" height="121.3984" style="stroke:#000000;stroke-width:1.5;" width="302.1025" x="1169.3076" y="758.7188"/><text fill="#000000" font-family="sans-serif" font-size="13" font-weight="bold" lengthAdjust="spacing" textLength="19.4429" x="1184.3076" y="771.7856">alt</text><text fill="#000000" font-family="sans-serif" font-size="11" font-weight="bold" lengthAdjust="spacing" textLength="181.7632" x="1248.7505" y="770.9292">[type == logger_type_t::text]</text><line style="stroke:#000000;stroke-width:1;stroke-dasharray:2.0,2.0;" x1="1169.3076" x2="1471.4102" y1="776.8516" y2="776.8516"/><a href="" target="_top" title="" xlink:actuate="onRequest" xlink:href="" xlink:show="new" xlink:title="" xlink:type="simple"><line style="stroke:#181818;stroke-width:1;" x1="1255.0693" x2="1302.0693" y1="793.9844" y2="793.9844"/><line style="stroke:#181818;stroke-width:1;" x1="1302.0693" x2="1302.0693" y1="793.9844" y2="806.9844"/><line style="stroke:#181818;stroke-width:1;" x1="1261.0693" x2="1302.0693" y1="806.9844" y2="806.9844"/><polygon fill="#181818" points="1271.0693,802.9844,1261.0693,806.9844,1271.0693,810.9844,1267.0693,806.9844" style="stroke:#181818;stroke-width:1;"/><text fill="#000000" font-family="sans-serif" font-size="13" lengthAdjust="spacing" textLength="177.3408" x="1267.0693" y="788.9185">escape_json&lt;std::string&gt;()</text></a><polygon fill="#FEFFDD" points="1239,824.9844,1249,824.9844,1259,835.9844,1249,847.9844,1239,847.9844,1229,835.9844,1239,824.9844" style="stroke:#181818;stroke-width:0.5;"/><text fill="#000000" font-family="sans-serif" font-size="13" lengthAdjust="spacing" textLength="6.5" x="1241" y="841.0513">*</text><a href="" target="_top" title="" xlink:actuate="onRequest" xlink:href="" xlink:show="new" xlink:title="" xlink:type="simple"><line style="stroke:#181818;stroke-width:1;" x1="1255.0693" x2="1297.0693" y1="908.25" y2="908.25"/><line style="stroke:#181818;stroke-width:1;" x1="1297.0693" x2="1297.0693" y1="908.25" y2="921.25"/><line style="stroke:#181818;stroke-width:1;" x1="1256.0693" x2="1297.0693" y1="921.25" y2="921.25"/><polygon fill="#181818" points="1266.0693,917.25,1256.0693,921.25,1266.0693,925.25,1262.0693,921.25" style="stroke:#181818;stroke-width:1;"/><text fill="#000000" font-family="sans-serif" font-size="13" lengthAdjust="spacing" textLength="87.0962" x="1262.0693" y="903.1841">logger_type()</text></a><a href="" target="_top" title="" xlink:actuate="onRequest" xlink:href="" xlink:show="new" xlink:title="" xlink:type="simple"><line style="stroke:#181818;stroke-width:1;" x1="1250.0693" x2="1297.0693" y1="975.3828" y2="975.3828"/><line style="stroke:#181818;stroke-width:1;" x1="1297.0693" x2="1297.0693" y1="975.3828" y2="988.3828"/><line style="stroke:#181818;stroke-width:1;" x1="1256.0693" x2="1297.0693" y1="988.3828" y2="988.3828"/><polygon fill="#181818" points="1266.0693,984.3828,1256.0693,988.3828,1266.0693,992.3828,1262.0693,988.3828" style="stroke:#181818;stroke-width:1;"/><text fill="#000000" font-family="sans-serif" font-size="13" lengthAdjust="spacing" textLength="256.4707" x="1262.0693" y="970.3169">log_impl&lt;const char *,int,std::string&gt;()</text></a><polygon fill="#FEFFDD" points="1239,1006.3828,1249,1006.3828,1259,1017.3828,1249,1029.3828,1239,1029.3828,1229,1017.3828,1239,1006.3828" style="stroke:#181818;stroke-width:0.5;"/><text fill="#000000" font-family="sans-serif" font-size="13" lengthAdjust="spacing" textLength="6.5" x="1241" y="1022.4497">*</text><a href="" target="_top" title="" xlink:actuate="onRequest" xlink:href="" xlink:show="new" xlink:title="" xlink:type="simple"><polygon fill="#181818" points="292.4707,1078.6484,302.4707,1082.6484,292.4707,1086.6484,296.4707,1082.6484" style="stroke:#181818;stroke-width:1;"/><line style="stroke:#181818;stroke-width:1;" x1="126.5928" x2="298.4707" y1="1082.6484" y2="1082.6484"/><text fill="#000000" font-family="sans-serif" font-size="13" lengthAdjust="spacing" textLength="141.1782" x="133.5928" y="1077.5825">resolve_option_path()</text></a><path d="M60,1097.6484 L124.4429,1097.6484 L124.4429,1104.7813 L114.4429,1114.7813 L60,1114.7813 L60,1097.6484 " fill="#EEEEEE" style="stroke:#000000;stroke-width:1.5;"/><rect fill="transparent" height="17.1328" style="stroke:#000000;stroke-width:1.5;" width="252.0049" x="60" y="1097.6484"/><text fill="#000000" font-family="sans-serif" font-size="13" font-weight="bold" lengthAdjust="spacing" textLength="19.4429" x="75" y="1110.7153">alt</text><text fill="#000000" font-family="sans-serif" font-size="11" font-weight="bold" lengthAdjust="spacing" textLength="167.562" x="139.4429" y="1109.8589">[option_path.is_absolute()]</text><a href="" target="_top" title="" xlink:actuate="onRequest" xlink:href="" xlink:show="new" xlink:title="" xlink:type="simple"><polygon fill="#181818" points="292.4707,1138.9141,302.4707,1142.9141,292.4707,1146.9141,296.4707,1142.9141" style="stroke:#181818;stroke-width:1;"/><line style="stroke:#181818;stroke-width:1;" x1="126.5928" x2="298.4707" y1="1142.9141" y2="1142.9141"/><text fill="#000000" font-family="sans-serif" font-size="13" lengthAdjust="spacing" textLength="141.1782" x="133.5928" y="1137.8481">resolve_option_path()</text></a><polygon fill="#FEFFDD" points="304,1155.9141,314,1155.9141,324,1166.9141,314,1178.9141,304,1178.9141,294,1166.9141,304,1155.9141" style="stroke:#181818;stroke-width:0.5;"/><text fill="#000000" font-family="sans-serif" font-size="13" lengthAdjust="spacing" textLength="6.5" x="306" y="1171.981">*</text><path d="M20,1218.0469 L84.4429,1218.0469 L84.4429,1225.1797 L74.4429,1235.1797 L20,1235.1797 L20,1218.0469 " fill="#EEEEEE" style="stroke:#000000;stroke-width:1.5;"/><rect fill="transparent" height="257.9297" style="stroke:#000000;stroke-width:1.5;" width="425.7559" x="20" y="1218.0469"/><text fill="#000000" font-family="sans-serif" font-size="13" font-weight="bold" lengthAdjust="spacing" textLength="19.4429" x="35" y="1231.1138">alt</text><text fill="#000000" font-family="sans-serif" font-size="11" font-weight="bold" lengthAdjust="spacing" textLength="168.5771" x="99.4429" y="1230.2573">[has_key(doc, "diagrams")]</text><a href="" target="_top" title="" xlink:actuate="onRequest" xlink:href="" xlink:show="new" xlink:title="" xlink:type="simple"><polygon fill="#181818" points="292.4707,1252.3125,302.4707,1256.3125,292.4707,1260.3125,296.4707,1256.3125" style="stroke:#181818;stroke-width:1;"/><line style="stroke:#181818;stroke-width:1;" x1="126.5928" x2="298.4707" y1="1256.3125" y2="1256.3125"/><text fill="#000000" font-family="sans-serif" font-size="13" font-weight="bold" lengthAdjust="spacing" textLength="5.9414" x="133.5928" y="1251.2466">[</text><text fill="#000000" font-family="sans-serif" font-size="13" lengthAdjust="spacing" textLength="62.8418" x="139.5342" y="1251.2466">has_key()</text><text fill="#000000" font-family="sans-serif" font-size="13" font-weight="bold" lengthAdjust="spacing" textLength="5.9414" x="202.376" y="1251.2466">]</text></a><polygon fill="#FEFFDD" points="304,1269.3125,314,1269.3125,324,1280.3125,314,1292.3125,304,1292.3125,294,1280.3125,304,1269.3125" style="stroke:#181818;stroke-width:0.5;"/><text fill="#000000" font-family="sans-serif" font-size="13" lengthAdjust="spacing" textLength="6.5" x="306" y="1285.3794">*</text><path d="M30,1331.4453 L106.624,1331.4453 L106.624,1338.5781 L96.624,1348.5781 L30,1348.5781 L30,1331.4453 " fill="#EEEEEE" style="stroke:#000000;stroke-width:1.5;"/><rect fill="transparent" height="137.5313" style="stroke:#000000;stroke-width:1.5;" width="405.7559" x="30" y="1331.4453"/><text fill="#000000" font-family="sans-serif" font-size="13" font-weight="bold" lengthAdjust="spacing" textLength="31.624" x="45" y="1344.5122">loop</text><text fill="#000000" font-family="sans-serif" font-size="11" font-weight="bold" lengthAdjust="spacing" textLength="67.853" x="121.624" y="1343.6558">[diagrams]</text><path d="M40,1355.5781 L104.4429,1355.5781 L104.4429,1362.7109 L94.4429,1372.7109 L40,1372.7109 L40,1355.5781 " fill="#EEEEEE" style="stroke:#000000;stroke-width:1.5;"/><rect fill="transparent" height="106.3984" style="stroke:#000000;stroke-width:1.5;" width="385.7559" x="40" y="1355.5781"/><text fill="#000000" font-family="sans-serif" font-size="13" font-weight="bold" lengthAdjust="spacing" textLength="19.4429" x="55" y="1368.645">alt</text><text fill="#000000" font-family="sans-serif" font-size="11" font-weight="bold" lengthAdjust="spacing" textLength="194.7451" x="119.4429" y="1367.7886">[has_key(d.second, "include!")]</text><a href="" target="_top" title="" xlink:actuate="onRequest" xlink:href="" xlink:show="new" xlink:title="" xlink:type="simple"><polygon fill="#181818" points="292.4707,1389.8438,302.4707,1393.8438,292.4707,1397.8438,296.4707,1393.8438" style="stroke:#181818;stroke-width:1;"/><line style="stroke:#181818;stroke-width:1;" x1="126.5928" x2="298.4707" y1="1393.8438" y2="1393.8438"/><text fill="#000000" font-family="sans-serif" font-size="13" font-weight="bold" lengthAdjust="spacing" textLength="5.9414" x="133.5928" y="1388.7778">[</text><text fill="#000000" font-family="sans-serif" font-size="13" lengthAdjust="spacing" textLength="62.8418" x="139.5342" y="1388.7778">has_key()</text><text fill="#000000" font-family="sans-serif" font-size="13" font-weight="bold" lengthAdjust="spacing" textLength="5.9414" x="202.376" y="1388.7778">]</text></a><polygon fill="#FEFFDD" points="304,1406.8438,314,1406.8438,324,1417.8438,314,1429.8438,304,1429.8438,294,1417.8438,304,1406.8438" style="stroke:#181818;stroke-width:0.5;"/><text fill="#000000" font-family="sans-serif" font-size="13" lengthAdjust="spacing" textLength="6.5" x="306" y="1422.9106">*</text><path d="M30,1489.9766 L94.4429,1489.9766 L94.4429,1497.1094 L84.4429,1507.1094 L30,1507.1094 L30,1489.9766 " fill="#EEEEEE" style="stroke:#000000;stroke-width:1.5;"/><rect fill="transparent" height="107.3984" style="stroke:#000000;stroke-width:1.5;" width="1627.4707" x="30" y="1489.9766"/><text fill="#000000" font-family="sans-serif" font-size="13" font-weight="bold" lengthAdjust="spacing" textLength="19.4429" x="45" y="1503.0435">alt</text><text fill="#000000" font-family="sans-serif" font-size="11" font-weight="bold" lengthAdjust="spacing" textLength="60.2046" x="109.4429" y="1502.187">[validate]</text><path d="M40,1514.1094 L104.4429,1514.1094 L104.4429,1521.2422 L94.4429,1531.2422 L40,1531.2422 L40,1514.1094 " fill="#EEEEEE" style="stroke:#000000;stroke-width:1.5;"/><rect fill="transparent" height="76.2656" style="stroke:#000000;stroke-width:1.5;" width="1607.4707" x="40" y="1514.1094"/><text fill="#000000" font-family="sans-serif" font-size="13" font-weight="bold" lengthAdjust="spacing" textLength="19.4429" x="55" y="1527.1763">alt</text><text fill="#000000" font-family="sans-serif" font-size="11" font-weight="bold" lengthAdjust="spacing" textLength="159.1133" x="119.4429" y="1526.3198">[!schema_errors.empty()]</text><a href="" target="_top" title="" xlink:actuate="onRequest" xlink:href="" xlink:show="new" xlink:title="" xlink:type="simple"><polygon fill="#181818" points="1518.54,1548.375,1528.54,1552.375,1518.54,1556.375,1522.54,1552.375" style="stroke:#181818;stroke-width:1;"/><line style="stroke:#181818;stroke-width:1;" x1="126.5928" x2="1524.54" y1="1552.375" y2="1552.375"/><text fill="#000000" font-family="sans-serif" font-size="13" lengthAdjust="spacing" textLength="145.6978" x="133.5928" y="1547.3091">config_schema_error()</text></a><path d="M40,1611.375 L104.4429,1611.375 L104.4429,1618.5078 L94.4429,1628.5078 L40,1628.5078 L40,1611.375 " fill="#EEEEEE" style="stroke:#000000;stroke-width:1.5;"/><rect fill="transparent" height="226.7969" style="stroke:#000000;stroke-width:1.5;" width="2021.9912" x="40" y="1611.375"/><text fill="#000000" font-family="sans-serif" font-size="13" font-weight="bold" lengthAdjust="spacing" textLength="19.4429" x="55" y="1624.4419">alt</text><text fill="#000000" font-family="sans-serif" font-size="11" font-weight="bold" lengthAdjust="spacing" textLength="51.4014" x="119.4429" y="1623.5854">[inherit]</text><a href="" target="_top" title="" xlink:actuate="onRequest" xlink:href="" xlink:show="new" xlink:title="" xlink:type="simple"><polygon fill="#181818" points="1685.0283,1645.6406,1695.0283,1649.6406,1685.0283,1653.6406,1689.0283,1649.6406" style="stroke:#181818;stroke-width:1;"/><line style="stroke:#181818;stroke-width:1;" x1="126.5928" x2="1691.0283" y1="1649.6406" y2="1649.6406"/><text fill="#000000" font-family="sans-serif" font-size="13" lengthAdjust="spacing" textLength="52.2856" x="133.5928" y="1644.5747">inherit()</text></a><path d="M1627.4707,1664.6406 L1704.0947,1664.6406 L1704.0947,1671.7734 L1694.0947,1681.7734 L1627.4707,1681.7734 L1627.4707,1664.6406 " fill="#EEEEEE" style="stroke:#000000;stroke-width:1.5;"/><rect fill="transparent" height="166.5313" style="stroke:#000000;stroke-width:1.5;" width="424.5205" x="1627.4707" y="1664.6406"/><text fill="#000000" font-family="sans-serif" font-size="13" font-weight="bold" lengthAdjust="spacing" textLength="31.624" x="1642.4707" y="1677.7075">loop</text><text fill="#000000" font-family="sans-serif" font-size="11" font-weight="bold" lengthAdjust="spacing" textLength="67.853" x="1719.0947" y="1676.8511">[diagrams]</text><a href="" target="_top" title="" xlink:actuate="onRequest" xlink:href="" xlink:show="new" xlink:title="" xlink:type="simple"><polygon fill="#181818" points="1882.2886,1698.9063,1892.2886,1702.9063,1882.2886,1706.9063,1886.2886,1702.9063" style="stroke:#181818;stroke-width:1;"/><line style="stroke:#181818;stroke-width:1;" x1="1707.0283" x2="1888.2886" y1="1702.9063" y2="1702.9063"/><text fill="#000000" font-family="sans-serif" font-size="13" lengthAdjust="spacing" textLength="52.2856" x="1714.0283" y="1697.8403">inherit()</text></a><path d="M1637.4707,1747.9063 L1701.9136,1747.9063 L1701.9136,1755.0391 L1691.9136,1765.0391 L1637.4707,1765.0391 L1637.4707,1747.9063 " fill="#EEEEEE" style="stroke:#000000;stroke-width:1.5;"/><rect fill="transparent" height="76.2656" style="stroke:#000000;stroke-width:1.5;" width="404.5205" x="1637.4707" y="1747.9063"/><text fill="#000000" font-family="sans-serif" font-size="13" font-weight="bold" lengthAdjust="spacing" textLength="19.4429" x="1652.4707" y="1760.9731">alt</text><text fill="#000000" font-family="sans-serif" font-size="11" font-weight="bold" lengthAdjust="spacing" textLength="166.8423" x="1716.9136" y="1760.1167">[static_cast &lt;bool&gt; (expr)]</text><a href="" target="_top" title="" xlink:actuate="onRequest" xlink:href="" xlink:show="new" xlink:title="" xlink:type="simple"><polygon fill="#181818" points="1882.2886,1782.1719,1892.2886,1786.1719,1882.2886,1790.1719,1886.2886,1786.1719" style="stroke:#181818;stroke-width:1;"/><line style="stroke:#181818;stroke-width:1;" x1="1707.0283" x2="1888.2886" y1="1786.1719" y2="1786.1719"/><text fill="#000000" font-family="sans-serif" font-size="13" font-weight="bold" lengthAdjust="spacing" textLength="5.9414" x="1714.0283" y="1781.106">[</text><text fill="#000000" font-family="sans-serif" font-size="13" lengthAdjust="spacing" textLength="106.8628" x="1719.9697" y="1781.106">get_relative_to()</text><text fill="#000000" font-family="sans-serif" font-size="13" font-weight="bold" lengthAdjust="spacing" textLength="5.9414" x="1826.8325" y="1781.106">]</text></a><polygon fill="#181818" points="1718.0283,1796.1719,1708.0283,1800.1719,1718.0283,1804.1719,1714.0283,1800.1719" style="stroke:#181818;stroke-width:1;"/><line style="stroke:#181818;stroke-width:1;stroke-dasharray:2.0,2.0;" x1="1712.0283" x2="1893.2886" y1="1800.1719" y2="1800.1719"/><polygon fill="#181818" points="1718.0283,1810.1719,1708.0283,1814.1719,1718.0283,1818.1719,1714.0283,1814.1719" style="stroke:#181818;stroke-width:1;"/><line style="stroke:#181818;stroke-width:1;stroke-dasharray:2.0,2.0;" x1="1712.0283" x2="1898.2886" y1="1814.1719" y2="1814.1719"/><line style="stroke:#000000;stroke-width:1;stroke-dasharray:2.0,2.0;" x1="1637.4707" x2="2041.9912" y1="1823.1719" y2="1823.1719"/><a href="" target="_top" title="" xlink:actuate="onRequest" xlink:href="" xlink:show="new" xlink:title="" xlink:type="simple"><polygon fill="#181818" points="1685.0283,1862.3047,1695.0283,1866.3047,1685.0283,1870.3047,1689.0283,1866.3047" style="stroke:#181818;stroke-width:1;"/><line style="stroke:#181818;stroke-width:1;" x1="126.5928" x2="1691.0283" y1="1866.3047" y2="1866.3047"/><text fill="#000000" font-family="sans-serif" font-size="13" lengthAdjust="spacing" textLength="196.8408" x="133.5928" y="1861.2388">initialize_diagram_templates()</text></a><a href="" target="_top" title="" xlink:actuate="onRequest" xlink:href="" xlink:show="new" xlink:title="" xlink:type="simple"><polygon fill="#181818" points="2143.0171,1891.4375,2153.0171,1895.4375,2143.0171,1899.4375,2147.0171,1895.4375" style="stroke:#181818;stroke-width:1;"/><line style="stroke:#181818;stroke-width:1;" x1="1707.0283" x2="2149.0171" y1="1895.4375" y2="1895.4375"/><text fill="#000000" font-family="sans-serif" font-size="13" lengthAdjust="spacing" textLength="241.0269" x="1714.0283" y="1890.3716">get_predefined_diagram_templates()</text></a><polygon fill="#181818" points="11,1935.4375,1,1939.4375,11,1943.4375,7,1939.4375" style="stroke:#181818;stroke-width:1;"/><line style="stroke:#181818;stroke-width:1;stroke-dasharray:2.0,2.0;" x1="5" x2="115.5928" y1="1939.4375" y2="1939.4375"/><line style="stroke:#000000;stroke-width:1;stroke-dasharray:2.0,2.0;" x1="10" x2="2288.043" y1="1948.4375" y2="1948.4375"/><text fill="#000000" font-family="sans-serif" font-size="11" font-weight="bold" lengthAdjust="spacing" textLength="112.9058" x="15" y="1958.6479">[YAML::BadFile &amp;]</text><line style="stroke:#000000;stroke-width:1;stroke-dasharray:2.0,2.0;" x1="10" x2="2288.043" y1="1963.2422" y2="1963.2422"/><text fill="#000000" font-family="sans-serif" font-size="11" font-weight="bold" lengthAdjust="spacing" textLength="127.5903" x="15" y="1973.4526">[YAML::Exception &amp;]</text><!--SRC=[vLXBR-Cs4BxhLt1poDf6x1NriYHa0xIBjfTi3orQe302WPOcDbjPL4KgJLhqlvVK8vOjoXMItJJO7k805EURcM-6mnaAAb907rXsIpTbGGHb6RgbSYbb9A7P1d7ulOGi1fHGiYd8piX98MXCSv89TCQB-5rS2JV_5jipH3Zw49cc6VYEPPckQNaumAQFbvvbhEPNWnzHM6cTJ0qI2tf710pZR0fMvaWK3qR6v3vs1yNmvXy5Am29BI1fF4YxSoAsYDqQQgcsEwgS5Wpb1SkXI1-C0ZXBxm0La4fQxg0IueXcHYrHqMH0bY1bWK5IWRQ4Hx_1moHXyGKwYw9QMwG4pwQ3n3sGNHeb4BC42hw8uqS2CRO3qx5jsyAsitG25tkcCKXUGwnE2ArMV_rzSoFvdSrMirbhvdGskvdD3idMwZomF0n_-UhZTHYsAD8BBb2zzhtq0PrVr4jS9678HQ6ow7mQXfEKxDO9GITS3p4sGyURxdF8jXpi-Rxj-m5UcfvlOrjvypcLIwQCGIRRz1smgsPPPH2HEJUPJgQeikSeepNInY3i_4HaZGJ68UkTEN4OZv6rscNszzEw53HzbxBDHdBVAGVOjWDNudlkSXduhkjZq_dtRDO8xNcMIYAwozFBEkRnbXHeTa4pST49_zLnFHaqHAjih24RA2BnaCCeRSVSVXQBFXKrgh8fpz3xzrr78n660kw50Ic7PreBF2OIyLVEiiiN3br7TLHhVO48dh3iItDd3B8g8wyzoxQ7VOPMaxnV1qsShxOqII2xcLyzcwiNAHzVRa5xBQ4SIzhJsxscXurOhXhxgX7jCQIxrzLXxCWiA8_8MaALGgM3DWS_VQ_wLEEFmwjJyXXUpSVZy8vekmP9F9m8cX6Aos7WlsZZNminAMDvEqxoGveMNFRZMIAvebcSbWcy-PzpfOvQ-wUOkYCfJKWpRxxXyHPs98AYO7A4WLqkf8k77NdrBGoRARShi1-obe5ZMvOhYNLyrt6Nvh8QPZGoxMnqAXn3S7KuDA2zWLy3q1jqT7kwHD5i2mKLXsJKobisEWHW9v1yMqiFcqlBTsJzLHR_0BaiGdA4vqZ-qA9zBEW-b8nZH8zVCz9OscUXBtHqTBI-DN1adKBKx6nAADyxR0QUPzcMQthOSctJz3plo65UhZd8M-0MTG2F_6zW7odGkTbICA3nD0KQeLuYwFQe1E126Xb7CP7TmkMQiVGAJU0-BwRFjBMg9niGKVim50cchIjQomRnvoTovObIOvYgskhstFJEc0PKxNjklbD1PHdxSv-VGfOkIIRmKOTWw26jXzPzZ9ILrG-ayxQ3FSc3v_dcY4Je2-tzK3aWZqi2jpI3P8GlEXDwCHgnHyV9wd8-7txBKL5kNic-9ictwgdplBlupNqCrLbMovf4q64QRx-3JBrpGOB-e6ABufHactcvIo-Gl3QvGZCNtW8RRw-lV_xukFRJkin4MUz-NCJ10Yymck2o-egd_m00]--></g></svg>