<svg xmlns="http://www.w3.org/2000/svg" xmlns:xlink="http://www.w3.org/1999/xlink" contentStyleType="text/css" data-diagram-type="CLASS" height="753px" preserveAspectRatio="none" style="width:2953px;height:753px;background:#FFFFFF;" version="1.1" viewBox="0 0 2953 753" width="2953px" zoomAndPan="magnify"><title>clang-uml namespaces</title><defs/><g><text fill="#000000" font-family="sans-serif" font-size="14" font-weight="bold" lengthAdjust="spacing" textLength="179.9971" x="1379.5165" y="22.9951">clang-uml namespaces</text><!--cluster C_0000316605034920222648--><a href="https://github.com/bkryza/clang-uml/blob/3d8a0ce428ce6b5e1e0585247ac90a82960dee8e/src/common/model/enums.h#L22" target="_top" title="common" xlink:actuate="onRequest" xlink:href="https://github.com/bkryza/clang-uml/blob/3d8a0ce428ce6b5e1e0585247ac90a82960dee8e/src/common/model/enums.h#L22" xlink:show="new" xlink:title="common" xlink:type="simple"><path d="M8.5,248.4369 L76.1777,248.4369 A3.75,3.75 0 0 1 78.6777,250.9369 L85.6777,270.7338 L847.5,270.7338 A2.5,2.5 0 0 1 850,273.2338 L850,653.6569 A2.5,2.5 0 0 1 847.5,656.1569 L8.5,656.1569 A2.5,2.5 0 0 1 6,653.6569 L6,250.9369 A2.5,2.5 0 0 1 8.5,248.4369 " fill="transparent" style="stroke:#000000;stroke-width:1.5;"/><line style="stroke:#000000;stroke-width:1.5;" x1="6" x2="85.6777" y1="270.7338" y2="270.7338"/><text fill="#000000" font-family="sans-serif" font-size="14" font-weight="bold" lengthAdjust="spacing" textLength="66.6777" x="10" y="263.432">common</text></a><!--cluster C_0000083721806430512831--><a href="https://github.com/bkryza/clang-uml/blob/3d8a0ce428ce6b5e1e0585247ac90a82960dee8e/src/common/model/enums.h#L22" target="_top" title="model" xlink:actuate="onRequest" xlink:href="https://github.com/bkryza/clang-uml/blob/3d8a0ce428ce6b5e1e0585247ac90a82960dee8e/src/common/model/enums.h#L22" xlink:show="new" xlink:title="model" xlink:type="simple"><path d="M228.5,425.2969 L278.0215,425.2969 A3.75,3.75 0 0 1 280.5215,427.7969 L287.5215,447.5938 L413.5,447.5938 A2.5,2.5 0 0 1 416,450.0938 L416,613.6569 A2.5,2.5 0 0 1 413.5,616.1569 L228.5,616.1569 A2.5,2.5 0 0 1 226,613.6569 L226,427.7969 A2.5,2.5 0 0 1 228.5,425.2969 " fill="transparent" style="stroke:#000000;stroke-width:1.5;"/><line style="stroke:#000000;stroke-width:1.5;" x1="226" x2="287.5215" y1="447.5938" y2="447.5938"/><text fill="#000000" font-family="sans-serif" font-size="14" font-weight="bold" lengthAdjust="spacing" textLength="48.5215" x="230" y="440.292">model</text></a><!--cluster C_0002059309769421024048--><a href="https://github.com/bkryza/clang-uml/blob/3d8a0ce428ce6b5e1e0585247ac90a82960dee8e/src/common/visitor/ast_id_mapper.h#L25" target="_top" title="visitor" xlink:actuate="onRequest" xlink:href="https://github.com/bkryza/clang-uml/blob/3d8a0ce428ce6b5e1e0585247ac90a82960dee8e/src/common/visitor/ast_id_mapper.h#L25" xlink:show="new" xlink:title="visitor" xlink:type="simple"><path d="M48.5,307.4369 L99.7715,307.4369 A3.75,3.75 0 0 1 102.2715,309.9369 L109.2715,329.7338 L183.5,329.7338 A2.5,2.5 0 0 1 186,332.2338 L186,542.7969 A2.5,2.5 0 0 1 183.5,545.2969 L48.5,545.2969 A2.5,2.5 0 0 1 46,542.7969 L46,309.9369 A2.5,2.5 0 0 1 48.5,307.4369 " fill="transparent" style="stroke:#000000;stroke-width:1.5;"/><line style="stroke:#000000;stroke-width:1.5;" x1="46" x2="109.2715" y1="329.7338" y2="329.7338"/><text fill="#000000" font-family="sans-serif" font-size="14" font-weight="bold" lengthAdjust="spacing" textLength="50.2715" x="50" y="322.432">visitor</text></a><!--cluster C_0001127696046613471321--><a href="https://github.com/bkryza/clang-uml/blob/3d8a0ce428ce6b5e1e0585247ac90a82960dee8e/src/common/generators/plantuml/generator.h#L35" target="_top" title="generators" xlink:actuate="onRequest" xlink:href="https://github.com/bkryza/clang-uml/blob/3d8a0ce428ce6b5e1e0585247ac90a82960dee8e/src/common/generators/plantuml/generator.h#L35" xlink:show="new" xlink:title="generators" xlink:type="simple"><path d="M458.5,425.2969 L546.3779,425.2969 A3.75,3.75 0 0 1 548.8779,427.7969 L555.8779,447.5938 L799.5,447.5938 A2.5,2.5 0 0 1 802,450.0938 L802,542.7969 A2.5,2.5 0 0 1 799.5,545.2969 L458.5,545.2969 A2.5,2.5 0 0 1 456,542.7969 L456,427.7969 A2.5,2.5 0 0 1 458.5,425.2969 " fill="transparent" style="stroke:#000000;stroke-width:1.5;"/><line style="stroke:#000000;stroke-width:1.5;" x1="456" x2="555.8779" y1="447.5938" y2="447.5938"/><text fill="#000000" font-family="sans-serif" font-size="14" font-weight="bold" lengthAdjust="spacing" textLength="86.8779" x="460" y="440.292">generators</text></a><!--cluster C_0001521862840957629236--><a href="https://github.com/bkryza/clang-uml/blob/3d8a0ce428ce6b5e1e0585247ac90a82960dee8e/src/sequence_diagram/model/participant.h#L27" target="_top" title="sequence_diagram" xlink:actuate="onRequest" xlink:href="https://github.com/bkryza/clang-uml/blob/3d8a0ce428ce6b5e1e0585247ac90a82960dee8e/src/sequence_diagram/model/participant.h#L27" xlink:show="new" xlink:title="sequence_diagram" xlink:type="simple"><path d="M884.5,43.2969 L1032.8008,43.2969 A3.75,3.75 0 0 1 1035.3008,45.7969 L1042.3008,65.5938 L1219.5,65.5938 A2.5,2.5 0 0 1 1222,68.0938 L1222,374.7969 A2.5,2.5 0 0 1 1219.5,377.2969 L884.5,377.2969 A2.5,2.5 0 0 1 882,374.7969 L882,45.7969 A2.5,2.5 0 0 1 884.5,43.2969 " fill="transparent" style="stroke:#000000;stroke-width:1.5;"/><line style="stroke:#000000;stroke-width:1.5;" x1="882" x2="1042.3008" y1="65.5938" y2="65.5938"/><text fill="#000000" font-family="sans-serif" font-size="14" font-weight="bold" lengthAdjust="spacing" textLength="147.3008" x="886" y="58.292">sequence_diagram</text></a><!--cluster C_0001816110126439728844--><a href="https://github.com/bkryza/clang-uml/blob/3d8a0ce428ce6b5e1e0585247ac90a82960dee8e/src/sequence_diagram/generators/plantuml/sequence_diagram_generator.h#L35" target="_top" title="generators" xlink:actuate="onRequest" xlink:href="https://github.com/bkryza/clang-uml/blob/3d8a0ce428ce6b5e1e0585247ac90a82960dee8e/src/sequence_diagram/generators/plantuml/sequence_diagram_generator.h#L35" xlink:show="new" xlink:title="generators" xlink:type="simple"><path d="M989.5,86.2969 L1077.3779,86.2969 A3.75,3.75 0 0 1 1079.8779,88.7969 L1086.8779,108.5938 L1195.5,108.5938 A2.5,2.5 0 0 1 1198,111.0938 L1198,187.7969 A2.5,2.5 0 0 1 1195.5,190.2969 L989.5,190.2969 A2.5,2.5 0 0 1 987,187.7969 L987,88.7969 A2.5,2.5 0 0 1 989.5,86.2969 " fill="transparent" style="stroke:#000000;stroke-width:1.5;"/><line style="stroke:#000000;stroke-width:1.5;" x1="987" x2="1086.8779" y1="108.5938" y2="108.5938"/><text fill="#000000" font-family="sans-serif" font-size="14" font-weight="bold" lengthAdjust="spacing" textLength="86.8779" x="991" y="101.292">generators</text></a><!--cluster C_0002240167036201725606--><a href="https://github.com/bkryza/clang-uml/blob/3d8a0ce428ce6b5e1e0585247ac90a82960dee8e/src/class_diagram/model/class_element.h#L27" target="_top" title="class_diagram" xlink:actuate="onRequest" xlink:href="https://github.com/bkryza/clang-uml/blob/3d8a0ce428ce6b5e1e0585247ac90a82960dee8e/src/class_diagram/model/class_element.h#L27" xlink:show="new" xlink:title="class_diagram" xlink:type="simple"><path d="M1454.5,214.2969 L1566.9395,214.2969 A3.75,3.75 0 0 1 1569.4395,216.7969 L1576.4395,236.5938 L1881.5,236.5938 A2.5,2.5 0 0 1 1884,239.0938 L1884,534.7969 A2.5,2.5 0 0 1 1881.5,537.2969 L1454.5,537.2969 A2.5,2.5 0 0 1 1452,534.7969 L1452,216.7969 A2.5,2.5 0 0 1 1454.5,214.2969 " fill="transparent" style="stroke:#000000;stroke-width:1.5;"/><line style="stroke:#000000;stroke-width:1.5;" x1="1452" x2="1576.4395" y1="236.5938" y2="236.5938"/><text fill="#000000" font-family="sans-serif" font-size="14" font-weight="bold" lengthAdjust="spacing" textLength="111.4395" x="1456" y="229.292">class_diagram</text></a><!--cluster C_0001862217944346803827--><a href="https://github.com/bkryza/clang-uml/blob/3d8a0ce428ce6b5e1e0585247ac90a82960dee8e/src/class_diagram/visitor/template_builder.h#L26" target="_top" title="visitor" xlink:actuate="onRequest" xlink:href="https://github.com/bkryza/clang-uml/blob/3d8a0ce428ce6b5e1e0585247ac90a82960dee8e/src/class_diagram/visitor/template_builder.h#L26" xlink:show="new" xlink:title="visitor" xlink:type="simple"><path d="M1486.5,265.2969 L1537.7715,265.2969 A3.75,3.75 0 0 1 1540.2715,267.7969 L1547.2715,287.5938 L1614.5,287.5938 A2.5,2.5 0 0 1 1617,290.0938 L1617,382.7969 A2.5,2.5 0 0 1 1614.5,385.2969 L1486.5,385.2969 A2.5,2.5 0 0 1 1484,382.7969 L1484,267.7969 A2.5,2.5 0 0 1 1486.5,265.2969 " fill="transparent" style="stroke:#000000;stroke-width:1.5;"/><line style="stroke:#000000;stroke-width:1.5;" x1="1484" x2="1547.2715" y1="287.5938" y2="287.5938"/><text fill="#000000" font-family="sans-serif" font-size="14" font-weight="bold" lengthAdjust="spacing" textLength="50.2715" x="1488" y="280.292">visitor</text></a><!--cluster C_0001202809603534656108--><a href="https://github.com/bkryza/clang-uml/blob/3d8a0ce428ce6b5e1e0585247ac90a82960dee8e/src/class_diagram/generators/json/class_diagram_generator.h#L41" target="_top" title="generators" xlink:actuate="onRequest" xlink:href="https://github.com/bkryza/clang-uml/blob/3d8a0ce428ce6b5e1e0585247ac90a82960dee8e/src/class_diagram/generators/json/class_diagram_generator.h#L41" xlink:show="new" xlink:title="generators" xlink:type="simple"><path d="M1651.5,273.2969 L1739.3779,273.2969 A3.75,3.75 0 0 1 1741.8779,275.7969 L1748.8779,295.5938 L1857.5,295.5938 A2.5,2.5 0 0 1 1860,298.0938 L1860,374.7969 A2.5,2.5 0 0 1 1857.5,377.2969 L1651.5,377.2969 A2.5,2.5 0 0 1 1649,374.7969 L1649,275.7969 A2.5,2.5 0 0 1 1651.5,273.2969 " fill="transparent" style="stroke:#000000;stroke-width:1.5;"/><line style="stroke:#000000;stroke-width:1.5;" x1="1649" x2="1748.8779" y1="295.5938" y2="295.5938"/><text fill="#000000" font-family="sans-serif" font-size="14" font-weight="bold" lengthAdjust="spacing" textLength="86.8779" x="1653" y="288.292">generators</text></a><!--cluster C_0002289677368446195616--><a href="https://github.com/bkryza/clang-uml/blob/3d8a0ce428ce6b5e1e0585247ac90a82960dee8e/src/include_diagram/model/diagram.h#L29" target="_top" title="include_diagram" xlink:actuate="onRequest" xlink:href="https://github.com/bkryza/clang-uml/blob/3d8a0ce428ce6b5e1e0585247ac90a82960dee8e/src/include_diagram/model/diagram.h#L29" xlink:show="new" xlink:title="include_diagram" xlink:type="simple"><path d="M2058.5,230.2969 L2189.0752,230.2969 A3.75,3.75 0 0 1 2191.5752,232.7969 L2198.5752,252.5938 L2393.5,252.5938 A2.5,2.5 0 0 1 2396,255.0938 L2396,534.7969 A2.5,2.5 0 0 1 2393.5,537.2969 L2058.5,537.2969 A2.5,2.5 0 0 1 2056,534.7969 L2056,232.7969 A2.5,2.5 0 0 1 2058.5,230.2969 " fill="transparent" style="stroke:#000000;stroke-width:1.5;"/><line style="stroke:#000000;stroke-width:1.5;" x1="2056" x2="2198.5752" y1="252.5938" y2="252.5938"/><text fill="#000000" font-family="sans-serif" font-size="14" font-weight="bold" lengthAdjust="spacing" textLength="129.5752" x="2060" y="245.292">include_diagram</text></a><!--cluster C_0001148912745423261924--><a href="https://github.com/bkryza/clang-uml/blob/3d8a0ce428ce6b5e1e0585247ac90a82960dee8e/src/include_diagram/generators/plantuml/include_diagram_generator.h#L36" target="_top" title="generators" xlink:actuate="onRequest" xlink:href="https://github.com/bkryza/clang-uml/blob/3d8a0ce428ce6b5e1e0585247ac90a82960dee8e/src/include_diagram/generators/plantuml/include_diagram_generator.h#L36" xlink:show="new" xlink:title="generators" xlink:type="simple"><path d="M2163.5,273.2969 L2251.3779,273.2969 A3.75,3.75 0 0 1 2253.8779,275.7969 L2260.8779,295.5938 L2369.5,295.5938 A2.5,2.5 0 0 1 2372,298.0938 L2372,374.7969 A2.5,2.5 0 0 1 2369.5,377.2969 L2163.5,377.2969 A2.5,2.5 0 0 1 2161,374.7969 L2161,275.7969 A2.5,2.5 0 0 1 2163.5,273.2969 " fill="transparent" style="stroke:#000000;stroke-width:1.5;"/><line style="stroke:#000000;stroke-width:1.5;" x1="2161" x2="2260.8779" y1="295.5938" y2="295.5938"/><text fill="#000000" font-family="sans-serif" font-size="14" font-weight="bold" lengthAdjust="spacing" textLength="86.8779" x="2165" y="288.292">generators</text></a><!--cluster C_0001176715616702819073--><a href="https://github.com/bkryza/clang-uml/blob/3d8a0ce428ce6b5e1e0585247ac90a82960dee8e/src/package_diagram/model/diagram.h#L27" target="_top" title="package_diagram" xlink:actuate="onRequest" xlink:href="https://github.com/bkryza/clang-uml/blob/3d8a0ce428ce6b5e1e0585247ac90a82960dee8e/src/package_diagram/model/diagram.h#L27" xlink:show="new" xlink:title="package_diagram" xlink:type="simple"><path d="M2518.5,230.2969 L2657.7705,230.2969 A3.75,3.75 0 0 1 2660.2705,232.7969 L2667.2705,252.5938 L2853.5,252.5938 A2.5,2.5 0 0 1 2856,255.0938 L2856,534.7969 A2.5,2.5 0 0 1 2853.5,537.2969 L2518.5,537.2969 A2.5,2.5 0 0 1 2516,534.7969 L2516,232.7969 A2.5,2.5 0 0 1 2518.5,230.2969 " fill="transparent" style="stroke:#000000;stroke-width:1.5;"/><line style="stroke:#000000;stroke-width:1.5;" x1="2516" x2="2667.2705" y1="252.5938" y2="252.5938"/><text fill="#000000" font-family="sans-serif" font-size="14" font-weight="bold" lengthAdjust="spacing" textLength="138.2705" x="2520" y="245.292">package_diagram</text></a><!--cluster C_0000377372199728063954--><a href="https://github.com/bkryza/clang-uml/blob/3d8a0ce428ce6b5e1e0585247ac90a82960dee8e/src/package_diagram/generators/plantuml/package_diagram_generator.h#L36" target="_top" title="generators" xlink:actuate="onRequest" xlink:href="https://github.com/bkryza/clang-uml/blob/3d8a0ce428ce6b5e1e0585247ac90a82960dee8e/src/package_diagram/generators/plantuml/package_diagram_generator.h#L36" xlink:show="new" xlink:title="generators" xlink:type="simple"><path d="M2623.5,273.2969 L2711.3779,273.2969 A3.75,3.75 0 0 1 2713.8779,275.7969 L2720.8779,295.5938 L2829.5,295.5938 A2.5,2.5 0 0 1 2832,298.0938 L2832,374.7969 A2.5,2.5 0 0 1 2829.5,377.2969 L2623.5,377.2969 A2.5,2.5 0 0 1 2621,374.7969 L2621,275.7969 A2.5,2.5 0 0 1 2623.5,273.2969 " fill="transparent" style="stroke:#000000;stroke-width:1.5;"/><line style="stroke:#000000;stroke-width:1.5;" x1="2621" x2="2720.8779" y1="295.5938" y2="295.5938"/><text fill="#000000" font-family="sans-serif" font-size="14" font-weight="bold" lengthAdjust="spacing" textLength="86.8779" x="2625" y="288.292">generators</text></a><a href="https://github.com/bkryza/clang-uml/blob/3d8a0ce428ce6b5e1e0585247ac90a82960dee8e/src/common/model/tvl.h#L23" target="_top" title="tvl" xlink:actuate="onRequest" xlink:href="https://github.com/bkryza/clang-uml/blob/3d8a0ce428ce6b5e1e0585247ac90a82960dee8e/src/common/model/tvl.h#L23" xlink:show="new" xlink:title="tvl" xlink:type="simple"><path d="M353,468.2969 L374.6172,468.2969 A3.75,3.75 0 0 1 377.1172,470.7969 L384.1172,490.5938 L388.6172,490.5938 A2.5,2.5 0 0 1 391.1172,493.0938 L391.1172,518.3906 A2.5,2.5 0 0 1 388.6172,520.8906 L353,520.8906 A2.5,2.5 0 0 1 350.5,518.3906 L350.5,470.7969 A2.5,2.5 0 0 1 353,468.2969 " fill="#F1F1F1" style="stroke:#181818;stroke-width:0.5;"/><line style="stroke:#181818;stroke-width:0.5;" x1="350.5" x2="384.1172" y1="490.5938" y2="490.5938"/><text fill="#000000" font-family="sans-serif" font-size="14" font-weight="bold" lengthAdjust="spacing" textLength="20.6172" x="354.5" y="483.292">tvl</text></a><a href="https://github.com/bkryza/clang-uml/blob/3d8a0ce428ce6b5e1e0585247ac90a82960dee8e/src/common/model/diagram_filter.h#L39" target="_top" title="detail" xlink:actuate="onRequest" xlink:href="https://github.com/bkryza/clang-uml/blob/3d8a0ce428ce6b5e1e0585247ac90a82960dee8e/src/common/model/diagram_filter.h#L39" xlink:show="new" xlink:title="detail" xlink:type="simple"><path d="M253,468.2969 L299.2539,468.2969 A3.75,3.75 0 0 1 301.7539,470.7969 L308.7539,490.5938 L313.2539,490.5938 A2.5,2.5 0 0 1 315.7539,493.0938 L315.7539,518.3906 A2.5,2.5 0 0 1 313.2539,520.8906 L253,520.8906 A2.5,2.5 0 0 1 250.5,518.3906 L250.5,470.7969 A2.5,2.5 0 0 1 253,468.2969 " fill="#F1F1F1" style="stroke:#181818;stroke-width:0.5;"/><line style="stroke:#181818;stroke-width:0.5;" x1="250.5" x2="308.7539" y1="490.5938" y2="490.5938"/><text fill="#000000" font-family="sans-serif" font-size="14" font-weight="bold" lengthAdjust="spacing" textLength="45.2539" x="254.5" y="483.292">detail</text></a><a href="https://github.com/bkryza/clang-uml/blob/3d8a0ce428ce6b5e1e0585247ac90a82960dee8e/src/common/visitor/comment/comment_visitor.h#L25" target="_top" title="comment" xlink:actuate="onRequest" xlink:href="https://github.com/bkryza/clang-uml/blob/3d8a0ce428ce6b5e1e0585247ac90a82960dee8e/src/common/visitor/comment/comment_visitor.h#L25" xlink:show="new" xlink:title="comment" xlink:type="simple"><path d="M72,468.2969 L146.2471,468.2969 A3.75,3.75 0 0 1 148.7471,470.7969 L155.7471,490.5938 L160.2471,490.5938 A2.5,2.5 0 0 1 162.7471,493.0938 L162.7471,518.3906 A2.5,2.5 0 0 1 160.2471,520.8906 L72,520.8906 A2.5,2.5 0 0 1 69.5,518.3906 L69.5,470.7969 A2.5,2.5 0 0 1 72,468.2969 " fill="#F1F1F1" style="stroke:#181818;stroke-width:0.5;"/><line style="stroke:#181818;stroke-width:0.5;" x1="69.5" x2="155.7471" y1="490.5938" y2="490.5938"/><text fill="#000000" font-family="sans-serif" font-size="14" font-weight="bold" lengthAdjust="spacing" textLength="73.2471" x="73.5" y="483.292">comment</text></a><a href="https://github.com/bkryza/clang-uml/blob/3d8a0ce428ce6b5e1e0585247ac90a82960dee8e/src/common/generators/plantuml/generator.h#L35" target="_top" title="plantuml" xlink:actuate="onRequest" xlink:href="https://github.com/bkryza/clang-uml/blob/3d8a0ce428ce6b5e1e0585247ac90a82960dee8e/src/common/generators/plantuml/generator.h#L35" xlink:show="new" xlink:title="plantuml" xlink:type="simple"><path d="M482.5,468.2969 L553.7803,468.2969 A3.75,3.75 0 0 1 556.2803,470.7969 L563.2803,490.5938 L567.7803,490.5938 A2.5,2.5 0 0 1 570.2803,493.0938 L570.2803,518.3906 A2.5,2.5 0 0 1 567.7803,520.8906 L482.5,520.8906 A2.5,2.5 0 0 1 480,518.3906 L480,470.7969 A2.5,2.5 0 0 1 482.5,468.2969 " fill="#F1F1F1" style="stroke:#181818;stroke-width:0.5;"/><line style="stroke:#181818;stroke-width:0.5;" x1="480" x2="563.2803" y1="490.5938" y2="490.5938"/><text fill="#000000" font-family="sans-serif" font-size="14" font-weight="bold" lengthAdjust="spacing" textLength="70.2803" x="484" y="483.292">plantuml</text></a><a href="https://github.com/bkryza/clang-uml/blob/3d8a0ce428ce6b5e1e0585247ac90a82960dee8e/src/common/generators/json/generator.h#L46" target="_top" title="json" xlink:actuate="onRequest" xlink:href="https://github.com/bkryza/clang-uml/blob/3d8a0ce428ce6b5e1e0585247ac90a82960dee8e/src/common/generators/json/generator.h#L46" xlink:show="new" xlink:title="json" xlink:type="simple"><path d="M608,468.2969 L641.7168,468.2969 A3.75,3.75 0 0 1 644.2168,470.7969 L651.2168,490.5938 L655.7168,490.5938 A2.5,2.5 0 0 1 658.2168,493.0938 L658.2168,518.3906 A2.5,2.5 0 0 1 655.7168,520.8906 L608,520.8906 A2.5,2.5 0 0 1 605.5,518.3906 L605.5,470.7969 A2.5,2.5 0 0 1 608,468.2969 " fill="#F1F1F1" style="stroke:#181818;stroke-width:0.5;"/><line style="stroke:#181818;stroke-width:0.5;" x1="605.5" x2="651.2168" y1="490.5938" y2="490.5938"/><text fill="#000000" font-family="sans-serif" font-size="14" font-weight="bold" lengthAdjust="spacing" textLength="32.7168" x="609.5" y="483.292">json</text></a><a href="https://github.com/bkryza/clang-uml/blob/3d8a0ce428ce6b5e1e0585247ac90a82960dee8e/src/common/generators/generators.cc#L58" target="_top" title="detail" xlink:actuate="onRequest" xlink:href="https://github.com/bkryza/clang-uml/blob/3d8a0ce428ce6b5e1e0585247ac90a82960dee8e/src/common/generators/generators.cc#L58" xlink:show="new" xlink:title="detail" xlink:type="simple"><path d="M696,468.2969 L742.2539,468.2969 A3.75,3.75 0 0 1 744.7539,470.7969 L751.7539,490.5938 L756.2539,490.5938 A2.5,2.5 0 0 1 758.7539,493.0938 L758.7539,518.3906 A2.5,2.5 0 0 1 756.2539,520.8906 L696,520.8906 A2.5,2.5 0 0 1 693.5,518.3906 L693.5,470.7969 A2.5,2.5 0 0 1 696,468.2969 " fill="#F1F1F1" style="stroke:#181818;stroke-width:0.5;"/><line style="stroke:#181818;stroke-width:0.5;" x1="693.5" x2="751.7539" y1="490.5938" y2="490.5938"/><text fill="#000000" font-family="sans-serif" font-size="14" font-weight="bold" lengthAdjust="spacing" textLength="45.2539" x="697.5" y="483.292">detail</text></a><a href="https://github.com/bkryza/clang-uml/blob/3d8a0ce428ce6b5e1e0585247ac90a82960dee8e/src/decorators/decorators.h#L28" target="_top" title="decorators" xlink:actuate="onRequest" xlink:href="https://github.com/bkryza/clang-uml/blob/3d8a0ce428ce6b5e1e0585247ac90a82960dee8e/src/decorators/decorators.h#L28" xlink:show="new" xlink:title="decorators" xlink:type="simple"><path d="M358,694.2969 L444.333,694.2969 A3.75,3.75 0 0 1 446.833,696.7969 L453.833,716.5938 L458.333,716.5938 A2.5,2.5 0 0 1 460.833,719.0938 L460.833,744.3906 A2.5,2.5 0 0 1 458.333,746.8906 L358,746.8906 A2.5,2.5 0 0 1 355.5,744.3906 L355.5,696.7969 A2.5,2.5 0 0 1 358,694.2969 " fill="#F1F1F1" style="stroke:#181818;stroke-width:0.5;"/><line style="stroke:#181818;stroke-width:0.5;" x1="355.5" x2="453.833" y1="716.5938" y2="716.5938"/><text fill="#000000" font-family="sans-serif" font-size="14" font-weight="bold" lengthAdjust="spacing" textLength="85.333" x="359.5" y="709.292">decorators</text></a><a href="https://github.com/bkryza/clang-uml/blob/3d8a0ce428ce6b5e1e0585247ac90a82960dee8e/src/util/util.h#L55" target="_top" title="util" xlink:actuate="onRequest" xlink:href="https://github.com/bkryza/clang-uml/blob/3d8a0ce428ce6b5e1e0585247ac90a82960dee8e/src/util/util.h#L55" xlink:show="new" xlink:title="util" xlink:type="simple"><path d="M1240.5,121.2969 L1267.7568,121.2969 A3.75,3.75 0 0 1 1270.2568,123.7969 L1277.2568,143.5938 L1281.7568,143.5938 A2.5,2.5 0 0 1 1284.2568,146.0938 L1284.2568,171.3906 A2.5,2.5 0 0 1 1281.7568,173.8906 L1240.5,173.8906 A2.5,2.5 0 0 1 1238,171.3906 L1238,123.7969 A2.5,2.5 0 0 1 1240.5,121.2969 " fill="#F1F1F1" style="stroke:#181818;stroke-width:0.5;"/><line style="stroke:#181818;stroke-width:0.5;" x1="1238" x2="1277.2568" y1="143.5938" y2="143.5938"/><text fill="#000000" font-family="sans-serif" font-size="14" font-weight="bold" lengthAdjust="spacing" textLength="26.2568" x="1242" y="136.292">util</text></a><a href="https://github.com/bkryza/clang-uml/blob/3d8a0ce428ce6b5e1e0585247ac90a82960dee8e/src/sequence_diagram/model/participant.h#L27" target="_top" title="model" xlink:actuate="onRequest" xlink:href="https://github.com/bkryza/clang-uml/blob/3d8a0ce428ce6b5e1e0585247ac90a82960dee8e/src/sequence_diagram/model/participant.h#L27" xlink:show="new" xlink:title="model" xlink:type="simple"><path d="M901,308.2969 L950.5215,308.2969 A3.75,3.75 0 0 1 953.0215,310.7969 L960.0215,330.5938 L964.5215,330.5938 A2.5,2.5 0 0 1 967.0215,333.0938 L967.0215,358.3906 A2.5,2.5 0 0 1 964.5215,360.8906 L901,360.8906 A2.5,2.5 0 0 1 898.5,358.3906 L898.5,310.7969 A2.5,2.5 0 0 1 901,308.2969 " fill="#F1F1F1" style="stroke:#181818;stroke-width:0.5;"/><line style="stroke:#181818;stroke-width:0.5;" x1="898.5" x2="960.0215" y1="330.5938" y2="330.5938"/><text fill="#000000" font-family="sans-serif" font-size="14" font-weight="bold" lengthAdjust="spacing" textLength="48.5215" x="902.5" y="323.292">model</text></a><a href="https://github.com/bkryza/clang-uml/blob/3d8a0ce428ce6b5e1e0585247ac90a82960dee8e/src/sequence_diagram/visitor/call_expression_context.h#L29" target="_top" title="visitor" xlink:actuate="onRequest" xlink:href="https://github.com/bkryza/clang-uml/blob/3d8a0ce428ce6b5e1e0585247ac90a82960dee8e/src/sequence_diagram/visitor/call_expression_context.h#L29" xlink:show="new" xlink:title="visitor" xlink:type="simple"><path d="M900.5,121.2969 L951.7715,121.2969 A3.75,3.75 0 0 1 954.2715,123.7969 L961.2715,143.5938 L965.7715,143.5938 A2.5,2.5 0 0 1 968.2715,146.0938 L968.2715,171.3906 A2.5,2.5 0 0 1 965.7715,173.8906 L900.5,173.8906 A2.5,2.5 0 0 1 898,171.3906 L898,123.7969 A2.5,2.5 0 0 1 900.5,121.2969 " fill="#F1F1F1" style="stroke:#181818;stroke-width:0.5;"/><line style="stroke:#181818;stroke-width:0.5;" x1="898" x2="961.2715" y1="143.5938" y2="143.5938"/><text fill="#000000" font-family="sans-serif" font-size="14" font-weight="bold" lengthAdjust="spacing" textLength="50.2715" x="902" y="136.292">visitor</text></a><a href="https://github.com/bkryza/clang-uml/blob/3d8a0ce428ce6b5e1e0585247ac90a82960dee8e/src/sequence_diagram/generators/plantuml/sequence_diagram_generator.h#L36" target="_top" title="plantuml" xlink:actuate="onRequest" xlink:href="https://github.com/bkryza/clang-uml/blob/3d8a0ce428ce6b5e1e0585247ac90a82960dee8e/src/sequence_diagram/generators/plantuml/sequence_diagram_generator.h#L36" xlink:show="new" xlink:title="plantuml" xlink:type="simple"><path d="M1005.5,121.2969 L1076.7803,121.2969 A3.75,3.75 0 0 1 1079.2803,123.7969 L1086.2803,143.5938 L1090.7803,143.5938 A2.5,2.5 0 0 1 1093.2803,146.0938 L1093.2803,171.3906 A2.5,2.5 0 0 1 1090.7803,173.8906 L1005.5,173.8906 A2.5,2.5 0 0 1 1003,171.3906 L1003,123.7969 A2.5,2.5 0 0 1 1005.5,121.2969 " fill="#F1F1F1" style="stroke:#181818;stroke-width:0.5;"/><line style="stroke:#181818;stroke-width:0.5;" x1="1003" x2="1086.2803" y1="143.5938" y2="143.5938"/><text fill="#000000" font-family="sans-serif" font-size="14" font-weight="bold" lengthAdjust="spacing" textLength="70.2803" x="1007" y="136.292">plantuml</text></a><a href="https://github.com/bkryza/clang-uml/blob/3d8a0ce428ce6b5e1e0585247ac90a82960dee8e/src/sequence_diagram/generators/json/sequence_diagram_generator.h#L33" target="_top" title="json" xlink:actuate="onRequest" xlink:href="https://github.com/bkryza/clang-uml/blob/3d8a0ce428ce6b5e1e0585247ac90a82960dee8e/src/sequence_diagram/generators/json/sequence_diagram_generator.h#L33" xlink:show="new" xlink:title="json" xlink:type="simple"><path d="M1131,121.2969 L1164.7168,121.2969 A3.75,3.75 0 0 1 1167.2168,123.7969 L1174.2168,143.5938 L1178.7168,143.5938 A2.5,2.5 0 0 1 1181.2168,146.0938 L1181.2168,171.3906 A2.5,2.5 0 0 1 1178.7168,173.8906 L1131,173.8906 A2.5,2.5 0 0 1 1128.5,171.3906 L1128.5,123.7969 A2.5,2.5 0 0 1 1131,121.2969 " fill="#F1F1F1" style="stroke:#181818;stroke-width:0.5;"/><line style="stroke:#181818;stroke-width:0.5;" x1="1128.5" x2="1174.2168" y1="143.5938" y2="143.5938"/><text fill="#000000" font-family="sans-serif" font-size="14" font-weight="bold" lengthAdjust="spacing" textLength="32.7168" x="1132.5" y="136.292">json</text></a><a href="https://github.com/bkryza/clang-uml/blob/3d8a0ce428ce6b5e1e0585247ac90a82960dee8e/src/class_diagram/model/class_element.h#L27" target="_top" title="model" xlink:actuate="onRequest" xlink:href="https://github.com/bkryza/clang-uml/blob/3d8a0ce428ce6b5e1e0585247ac90a82960dee8e/src/class_diagram/model/class_element.h#L27" xlink:show="new" xlink:title="model" xlink:type="simple"><path d="M1473,468.2969 L1522.5215,468.2969 A3.75,3.75 0 0 1 1525.0215,470.7969 L1532.0215,490.5938 L1536.5215,490.5938 A2.5,2.5 0 0 1 1539.0215,493.0938 L1539.0215,518.3906 A2.5,2.5 0 0 1 1536.5215,520.8906 L1473,520.8906 A2.5,2.5 0 0 1 1470.5,518.3906 L1470.5,470.7969 A2.5,2.5 0 0 1 1473,468.2969 " fill="#F1F1F1" style="stroke:#181818;stroke-width:0.5;"/><line style="stroke:#181818;stroke-width:0.5;" x1="1470.5" x2="1532.0215" y1="490.5938" y2="490.5938"/><text fill="#000000" font-family="sans-serif" font-size="14" font-weight="bold" lengthAdjust="spacing" textLength="48.5215" x="1474.5" y="483.292">model</text></a><a href="https://github.com/bkryza/clang-uml/blob/3d8a0ce428ce6b5e1e0585247ac90a82960dee8e/src/class_diagram/visitor/template_builder.cc#L633" target="_top" title="detail" xlink:actuate="onRequest" xlink:href="https://github.com/bkryza/clang-uml/blob/3d8a0ce428ce6b5e1e0585247ac90a82960dee8e/src/class_diagram/visitor/template_builder.cc#L633" xlink:show="new" xlink:title="detail" xlink:type="simple"><path d="M1530,308.2969 L1576.2539,308.2969 A3.75,3.75 0 0 1 1578.7539,310.7969 L1585.7539,330.5938 L1590.2539,330.5938 A2.5,2.5 0 0 1 1592.7539,333.0938 L1592.7539,358.3906 A2.5,2.5 0 0 1 1590.2539,360.8906 L1530,360.8906 A2.5,2.5 0 0 1 1527.5,358.3906 L1527.5,310.7969 A2.5,2.5 0 0 1 1530,308.2969 " fill="#F1F1F1" style="stroke:#181818;stroke-width:0.5;"/><line style="stroke:#181818;stroke-width:0.5;" x1="1527.5" x2="1585.7539" y1="330.5938" y2="330.5938"/><text fill="#000000" font-family="sans-serif" font-size="14" font-weight="bold" lengthAdjust="spacing" textLength="45.2539" x="1531.5" y="323.292">detail</text></a><a href="https://github.com/bkryza/clang-uml/blob/3d8a0ce428ce6b5e1e0585247ac90a82960dee8e/src/class_diagram/generators/json/class_diagram_generator.h#L42" target="_top" title="json" xlink:actuate="onRequest" xlink:href="https://github.com/bkryza/clang-uml/blob/3d8a0ce428ce6b5e1e0585247ac90a82960dee8e/src/class_diagram/generators/json/class_diagram_generator.h#L42" xlink:show="new" xlink:title="json" xlink:type="simple"><path d="M1793,308.2969 L1826.7168,308.2969 A3.75,3.75 0 0 1 1829.2168,310.7969 L1836.2168,330.5938 L1840.7168,330.5938 A2.5,2.5 0 0 1 1843.2168,333.0938 L1843.2168,358.3906 A2.5,2.5 0 0 1 1840.7168,360.8906 L1793,360.8906 A2.5,2.5 0 0 1 1790.5,358.3906 L1790.5,310.7969 A2.5,2.5 0 0 1 1793,308.2969 " fill="#F1F1F1" style="stroke:#181818;stroke-width:0.5;"/><line style="stroke:#181818;stroke-width:0.5;" x1="1790.5" x2="1836.2168" y1="330.5938" y2="330.5938"/><text fill="#000000" font-family="sans-serif" font-size="14" font-weight="bold" lengthAdjust="spacing" textLength="32.7168" x="1794.5" y="323.292">json</text></a><a href="https://github.com/bkryza/clang-uml/blob/3d8a0ce428ce6b5e1e0585247ac90a82960dee8e/src/class_diagram/generators/plantuml/class_diagram_generator.h#L41" target="_top" title="plantuml" xlink:actuate="onRequest" xlink:href="https://github.com/bkryza/clang-uml/blob/3d8a0ce428ce6b5e1e0585247ac90a82960dee8e/src/class_diagram/generators/plantuml/class_diagram_generator.h#L41" xlink:show="new" xlink:title="plantuml" xlink:type="simple"><path d="M1667.5,308.2969 L1738.7803,308.2969 A3.75,3.75 0 0 1 1741.2803,310.7969 L1748.2803,330.5938 L1752.7803,330.5938 A2.5,2.5 0 0 1 1755.2803,333.0938 L1755.2803,358.3906 A2.5,2.5 0 0 1 1752.7803,360.8906 L1667.5,360.8906 A2.5,2.5 0 0 1 1665,358.3906 L1665,310.7969 A2.5,2.5 0 0 1 1667.5,308.2969 " fill="#F1F1F1" style="stroke:#181818;stroke-width:0.5;"/><line style="stroke:#181818;stroke-width:0.5;" x1="1665" x2="1748.2803" y1="330.5938" y2="330.5938"/><text fill="#000000" font-family="sans-serif" font-size="14" font-weight="bold" lengthAdjust="spacing" textLength="70.2803" x="1669" y="323.292">plantuml</text></a><a href="https://github.com/bkryza/clang-uml/blob/3d8a0ce428ce6b5e1e0585247ac90a82960dee8e/src/config/option.h#L24" target="_top" title="config" xlink:actuate="onRequest" xlink:href="https://github.com/bkryza/clang-uml/blob/3d8a0ce428ce6b5e1e0585247ac90a82960dee8e/src/config/option.h#L24" xlink:show="new" xlink:title="config" xlink:type="simple"><path d="M1385,581.2969 L1434.7949,581.2969 A3.75,3.75 0 0 1 1437.2949,583.7969 L1444.2949,603.5938 L1448.7949,603.5938 A2.5,2.5 0 0 1 1451.2949,606.0938 L1451.2949,631.3906 A2.5,2.5 0 0 1 1448.7949,633.8906 L1385,633.8906 A2.5,2.5 0 0 1 1382.5,631.3906 L1382.5,583.7969 A2.5,2.5 0 0 1 1385,581.2969 " fill="#F1F1F1" style="stroke:#181818;stroke-width:0.5;"/><line style="stroke:#181818;stroke-width:0.5;" x1="1382.5" x2="1444.2949" y1="603.5938" y2="603.5938"/><text fill="#000000" font-family="sans-serif" font-size="14" font-weight="bold" lengthAdjust="spacing" textLength="48.7949" x="1386.5" y="596.292">config</text></a><a href="https://github.com/bkryza/clang-uml/blob/3d8a0ce428ce6b5e1e0585247ac90a82960dee8e/src/include_diagram/model/diagram.h#L29" target="_top" title="model" xlink:actuate="onRequest" xlink:href="https://github.com/bkryza/clang-uml/blob/3d8a0ce428ce6b5e1e0585247ac90a82960dee8e/src/include_diagram/model/diagram.h#L29" xlink:show="new" xlink:title="model" xlink:type="simple"><path d="M2075,468.2969 L2124.5215,468.2969 A3.75,3.75 0 0 1 2127.0215,470.7969 L2134.0215,490.5938 L2138.5215,490.5938 A2.5,2.5 0 0 1 2141.0215,493.0938 L2141.0215,518.3906 A2.5,2.5 0 0 1 2138.5215,520.8906 L2075,520.8906 A2.5,2.5 0 0 1 2072.5,518.3906 L2072.5,470.7969 A2.5,2.5 0 0 1 2075,468.2969 " fill="#F1F1F1" style="stroke:#181818;stroke-width:0.5;"/><line style="stroke:#181818;stroke-width:0.5;" x1="2072.5" x2="2134.0215" y1="490.5938" y2="490.5938"/><text fill="#000000" font-family="sans-serif" font-size="14" font-weight="bold" lengthAdjust="spacing" textLength="48.5215" x="2076.5" y="483.292">model</text></a><a href="https://github.com/bkryza/clang-uml/blob/3d8a0ce428ce6b5e1e0585247ac90a82960dee8e/src/include_diagram/visitor/translation_unit_visitor.h#L36" target="_top" title="visitor" xlink:actuate="onRequest" xlink:href="https://github.com/bkryza/clang-uml/blob/3d8a0ce428ce6b5e1e0585247ac90a82960dee8e/src/include_diagram/visitor/translation_unit_visitor.h#L36" xlink:show="new" xlink:title="visitor" xlink:type="simple"><path d="M2074.5,308.2969 L2125.7715,308.2969 A3.75,3.75 0 0 1 2128.2715,310.7969 L2135.2715,330.5938 L2139.7715,330.5938 A2.5,2.5 0 0 1 2142.2715,333.0938 L2142.2715,358.3906 A2.5,2.5 0 0 1 2139.7715,360.8906 L2074.5,360.8906 A2.5,2.5 0 0 1 2072,358.3906 L2072,310.7969 A2.5,2.5 0 0 1 2074.5,308.2969 " fill="#F1F1F1" style="stroke:#181818;stroke-width:0.5;"/><line style="stroke:#181818;stroke-width:0.5;" x1="2072" x2="2135.2715" y1="330.5938" y2="330.5938"/><text fill="#000000" font-family="sans-serif" font-size="14" font-weight="bold" lengthAdjust="spacing" textLength="50.2715" x="2076" y="323.292">visitor</text></a><a href="https://github.com/bkryza/clang-uml/blob/3d8a0ce428ce6b5e1e0585247ac90a82960dee8e/src/include_diagram/generators/plantuml/include_diagram_generator.h#L37" target="_top" title="plantuml" xlink:actuate="onRequest" xlink:href="https://github.com/bkryza/clang-uml/blob/3d8a0ce428ce6b5e1e0585247ac90a82960dee8e/src/include_diagram/generators/plantuml/include_diagram_generator.h#L37" xlink:show="new" xlink:title="plantuml" xlink:type="simple"><path d="M2179.5,308.2969 L2250.7803,308.2969 A3.75,3.75 0 0 1 2253.2803,310.7969 L2260.2803,330.5938 L2264.7803,330.5938 A2.5,2.5 0 0 1 2267.2803,333.0938 L2267.2803,358.3906 A2.5,2.5 0 0 1 2264.7803,360.8906 L2179.5,360.8906 A2.5,2.5 0 0 1 2177,358.3906 L2177,310.7969 A2.5,2.5 0 0 1 2179.5,308.2969 " fill="#F1F1F1" style="stroke:#181818;stroke-width:0.5;"/><line style="stroke:#181818;stroke-width:0.5;" x1="2177" x2="2260.2803" y1="330.5938" y2="330.5938"/><text fill="#000000" font-family="sans-serif" font-size="14" font-weight="bold" lengthAdjust="spacing" textLength="70.2803" x="2181" y="323.292">plantuml</text></a><a href="https://github.com/bkryza/clang-uml/blob/3d8a0ce428ce6b5e1e0585247ac90a82960dee8e/src/include_diagram/generators/json/include_diagram_generator.h#L37" target="_top" title="json" xlink:actuate="onRequest" xlink:href="https://github.com/bkryza/clang-uml/blob/3d8a0ce428ce6b5e1e0585247ac90a82960dee8e/src/include_diagram/generators/json/include_diagram_generator.h#L37" xlink:show="new" xlink:title="json" xlink:type="simple"><path d="M2305,308.2969 L2338.7168,308.2969 A3.75,3.75 0 0 1 2341.2168,310.7969 L2348.2168,330.5938 L2352.7168,330.5938 A2.5,2.5 0 0 1 2355.2168,333.0938 L2355.2168,358.3906 A2.5,2.5 0 0 1 2352.7168,360.8906 L2305,360.8906 A2.5,2.5 0 0 1 2302.5,358.3906 L2302.5,310.7969 A2.5,2.5 0 0 1 2305,308.2969 " fill="#F1F1F1" style="stroke:#181818;stroke-width:0.5;"/><line style="stroke:#181818;stroke-width:0.5;" x1="2302.5" x2="2348.2168" y1="330.5938" y2="330.5938"/><text fill="#000000" font-family="sans-serif" font-size="14" font-weight="bold" lengthAdjust="spacing" textLength="32.7168" x="2306.5" y="323.292">json</text></a><a href="https://github.com/bkryza/clang-uml/blob/3d8a0ce428ce6b5e1e0585247ac90a82960dee8e/src/package_diagram/model/diagram.h#L27" target="_top" title="model" xlink:actuate="onRequest" xlink:href="https://github.com/bkryza/clang-uml/blob/3d8a0ce428ce6b5e1e0585247ac90a82960dee8e/src/package_diagram/model/diagram.h#L27" xlink:show="new" xlink:title="model" xlink:type="simple"><path d="M2535,468.2969 L2584.5215,468.2969 A3.75,3.75 0 0 1 2587.0215,470.7969 L2594.0215,490.5938 L2598.5215,490.5938 A2.5,2.5 0 0 1 2601.0215,493.0938 L2601.0215,518.3906 A2.5,2.5 0 0 1 2598.5215,520.8906 L2535,520.8906 A2.5,2.5 0 0 1 2532.5,518.3906 L2532.5,470.7969 A2.5,2.5 0 0 1 2535,468.2969 " fill="#F1F1F1" style="stroke:#181818;stroke-width:0.5;"/><line style="stroke:#181818;stroke-width:0.5;" x1="2532.5" x2="2594.0215" y1="490.5938" y2="490.5938"/><text fill="#000000" font-family="sans-serif" font-size="14" font-weight="bold" lengthAdjust="spacing" textLength="48.5215" x="2536.5" y="483.292">model</text></a><a href="https://github.com/bkryza/clang-uml/blob/3d8a0ce428ce6b5e1e0585247ac90a82960dee8e/src/package_diagram/visitor/translation_unit_visitor.h#L34" target="_top" title="visitor" xlink:actuate="onRequest" xlink:href="https://github.com/bkryza/clang-uml/blob/3d8a0ce428ce6b5e1e0585247ac90a82960dee8e/src/package_diagram/visitor/translation_unit_visitor.h#L34" xlink:show="new" xlink:title="visitor" xlink:type="simple"><path d="M2534.5,308.2969 L2585.7715,308.2969 A3.75,3.75 0 0 1 2588.2715,310.7969 L2595.2715,330.5938 L2599.7715,330.5938 A2.5,2.5 0 0 1 2602.2715,333.0938 L2602.2715,358.3906 A2.5,2.5 0 0 1 2599.7715,360.8906 L2534.5,360.8906 A2.5,2.5 0 0 1 2532,358.3906 L2532,310.7969 A2.5,2.5 0 0 1 2534.5,308.2969 " fill="#F1F1F1" style="stroke:#181818;stroke-width:0.5;"/><line style="stroke:#181818;stroke-width:0.5;" x1="2532" x2="2595.2715" y1="330.5938" y2="330.5938"/><text fill="#000000" font-family="sans-serif" font-size="14" font-weight="bold" lengthAdjust="spacing" textLength="50.2715" x="2536" y="323.292">visitor</text></a><a href="https://github.com/bkryza/clang-uml/blob/3d8a0ce428ce6b5e1e0585247ac90a82960dee8e/src/package_diagram/generators/plantuml/package_diagram_generator.h#L37" target="_top" title="plantuml" xlink:actuate="onRequest" xlink:href="https://github.com/bkryza/clang-uml/blob/3d8a0ce428ce6b5e1e0585247ac90a82960dee8e/src/package_diagram/generators/plantuml/package_diagram_generator.h#L37" xlink:show="new" xlink:title="plantuml" xlink:type="simple"><path d="M2639.5,308.2969 L2710.7803,308.2969 A3.75,3.75 0 0 1 2713.2803,310.7969 L2720.2803,330.5938 L2724.7803,330.5938 A2.5,2.5 0 0 1 2727.2803,333.0938 L2727.2803,358.3906 A2.5,2.5 0 0 1 2724.7803,360.8906 L2639.5,360.8906 A2.5,2.5 0 0 1 2637,358.3906 L2637,310.7969 A2.5,2.5 0 0 1 2639.5,308.2969 " fill="#F1F1F1" style="stroke:#181818;stroke-width:0.5;"/><line style="stroke:#181818;stroke-width:0.5;" x1="2637" x2="2720.2803" y1="330.5938" y2="330.5938"/><text fill="#000000" font-family="sans-serif" font-size="14" font-weight="bold" lengthAdjust="spacing" textLength="70.2803" x="2641" y="323.292">plantuml</text></a><a href="https://github.com/bkryza/clang-uml/blob/3d8a0ce428ce6b5e1e0585247ac90a82960dee8e/src/package_diagram/generators/json/package_diagram_generator.h#L37" target="_top" title="json" xlink:actuate="onRequest" xlink:href="https://github.com/bkryza/clang-uml/blob/3d8a0ce428ce6b5e1e0585247ac90a82960dee8e/src/package_diagram/generators/json/package_diagram_generator.h#L37" xlink:show="new" xlink:title="json" xlink:type="simple"><path d="M2765,308.2969 L2798.7168,308.2969 A3.75,3.75 0 0 1 2801.2168,310.7969 L2808.2168,330.5938 L2812.7168,330.5938 A2.5,2.5 0 0 1 2815.2168,333.0938 L2815.2168,358.3906 A2.5,2.5 0 0 1 2812.7168,360.8906 L2765,360.8906 A2.5,2.5 0 0 1 2762.5,358.3906 L2762.5,310.7969 A2.5,2.5 0 0 1 2765,308.2969 " fill="#F1F1F1" style="stroke:#181818;stroke-width:0.5;"/><line style="stroke:#181818;stroke-width:0.5;" x1="2762.5" x2="2808.2168" y1="330.5938" y2="330.5938"/><text fill="#000000" font-family="sans-serif" font-size="14" font-weight="bold" lengthAdjust="spacing" textLength="32.7168" x="2766.5" y="323.292">json</text></a><a href="https://github.com/bkryza/clang-uml/blob/3d8a0ce428ce6b5e1e0585247ac90a82960dee8e/src/util/error.h#L22" target="_top" title="error" xlink:actuate="onRequest" xlink:href="https://github.com/bkryza/clang-uml/blob/3d8a0ce428ce6b5e1e0585247ac90a82960dee8e/src/util/error.h#L22" xlink:show="new" xlink:title="error" xlink:type="simple"><path d="M1321.5,121.2969 L1362.3262,121.2969 A3.75,3.75 0 0 1 1364.8262,123.7969 L1371.8262,143.5938 L1376.3262,143.5938 A2.5,2.5 0 0 1 1378.8262,146.0938 L1378.8262,171.3906 A2.5,2.5 0 0 1 1376.3262,173.8906 L1321.5,173.8906 A2.5,2.5 0 0 1 1319,171.3906 L1319,123.7969 A2.5,2.5 0 0 1 1321.5,121.2969 " fill="#F1F1F1" style="stroke:#181818;stroke-width:0.5;"/><line style="stroke:#181818;stroke-width:0.5;" x1="1319" x2="1371.8262" y1="143.5938" y2="143.5938"/><text fill="#000000" font-family="sans-serif" font-size="14" font-weight="bold" lengthAdjust="spacing" textLength="39.8262" x="1323" y="136.292">error</text></a><a href="https://github.com/bkryza/clang-uml/blob/3d8a0ce428ce6b5e1e0585247ac90a82960dee8e/debug/src/version/version.h#L20" target="_top" title="version" xlink:actuate="onRequest" xlink:href="https://github.com/bkryza/clang-uml/blob/3d8a0ce428ce6b5e1e0585247ac90a82960dee8e/debug/src/version/version.h#L20" xlink:show="new" xlink:title="version" xlink:type="simple"><path d="M1416.5,121.2969 L1475.7422,121.2969 A3.75,3.75 0 0 1 1478.2422,123.7969 L1485.2422,143.5938 L1489.7422,143.5938 A2.5,2.5 0 0 1 1492.2422,146.0938 L1492.2422,171.3906 A2.5,2.5 0 0 1 1489.7422,173.8906 L1416.5,173.8906 A2.5,2.5 0 0 1 1414,171.3906 L1414,123.7969 A2.5,2.5 0 0 1 1416.5,121.2969 " fill="#F1F1F1" style="stroke:#181818;stroke-width:0.5;"/><line style="stroke:#181818;stroke-width:0.5;" x1="1414" x2="1485.2422" y1="143.5938" y2="143.5938"/><text fill="#000000" font-family="sans-serif" font-size="14" font-weight="bold" lengthAdjust="spacing" textLength="58.2422" x="1418" y="136.292">version</text></a><a href="https://github.com/bkryza/clang-uml/blob/3d8a0ce428ce6b5e1e0585247ac90a82960dee8e/src/cli/cli_handler.h#L27" target="_top" title="cli" xlink:actuate="onRequest" xlink:href="https://github.com/bkryza/clang-uml/blob/3d8a0ce428ce6b5e1e0585247ac90a82960dee8e/src/cli/cli_handler.h#L27" xlink:show="new" xlink:title="cli" xlink:type="simple"><path d="M1044.5,468.2969 L1063.3965,468.2969 A3.75,3.75 0 0 1 1065.8965,470.7969 L1072.8965,490.5938 L1077.3965,490.5938 A2.5,2.5 0 0 1 1079.8965,493.0938 L1079.8965,518.3906 A2.5,2.5 0 0 1 1077.3965,520.8906 L1044.5,520.8906 A2.5,2.5 0 0 1 1042,518.3906 L1042,470.7969 A2.5,2.5 0 0 1 1044.5,468.2969 " fill="#F1F1F1" style="stroke:#181818;stroke-width:0.5;"/><line style="stroke:#181818;stroke-width:0.5;" x1="1042" x2="1072.8965" y1="490.5938" y2="490.5938"/><text fill="#000000" font-family="sans-serif" font-size="14" font-weight="bold" lengthAdjust="spacing" textLength="17.8965" x="1046" y="483.292">cli</text></a><!--link C_0000316605034920222648 to C_0000083721806430512831--><g id="link_C_0000316605034920222648_C_0000083721806430512831"><path codeLine="84" d="M841.58,607.7969 C769.385,607.7969 697.1925,607.7969 625,607.7969 C588.9038,607.7969 552.8075,607.7969 516.7109,607.7969 C498.6627,607.7969 480.6143,607.7969 462.5658,607.7969 C453.5416,607.7969 444.5173,607.7969 435.493,607.7969 C430.9809,607.7969 426.4687,607.7969 421.9565,607.7969 C420.8285,607.7969 419.7004,607.7969 418.5724,607.7969 C418.0084,607.7969 423.4444,607.7969 422.8803,607.7969 " fill="transparent" id="C_0000316605034920222648-to-C_0000083721806430512831" style="stroke:#181818;stroke-width:1;stroke-dasharray:7.0,7.0;"/><polygon fill="#181818" points="416.8803,607.7969,425.8803,611.7969,421.8803,607.7969,425.8803,603.7969,416.8803,607.7969" style="stroke:#181818;stroke-width:1;"/></g><!--link C_0000083721806430512831 to C_0000316605034920222648--><g id="link_C_0000083721806430512831_C_0000316605034920222648"><path codeLine="87" d="M416.8803,607.7969 C417.4444,607.7969 418.0084,607.7969 418.5724,607.7969 C419.7004,607.7969 420.8285,607.7969 421.9565,607.7969 C426.4687,607.7969 430.9809,607.7969 435.493,607.7969 C444.5173,607.7969 453.5416,607.7969 462.5658,607.7969 C480.6143,607.7969 498.6627,607.7969 516.7109,607.7969 C552.8075,607.7969 588.9038,607.7969 625,607.7969 C697.1925,607.7969 763.385,607.7969 835.58,607.7969 " fill="transparent" id="C_0000083721806430512831-to-C_0000316605034920222648" style="stroke:#181818;stroke-width:1;stroke-dasharray:7.0,7.0;"/><polygon fill="#181818" points="841.58,607.7969,832.58,603.7969,836.58,607.7969,832.58,611.7969,841.58,607.7969" style="stroke:#181818;stroke-width:1;"/></g><!--link C_0000316605034920222648 to C_0000111389493058790497--><g id="link_C_0000316605034920222648_C_0000111389493058790497"><path codeLine="85" d="M850.9923,607.7969 C853.8031,607.7969 856.6139,607.7969 859.4247,607.7969 C865.0462,607.7969 870.6677,607.7969 876.2893,607.7969 C887.5323,607.7969 898.7753,607.7969 910.0183,607.7969 C932.5043,607.7969 954.9902,607.7969 977.4759,607.7969 C1022.4475,607.7969 1067.4187,607.7969 1112.39,607.7969 C1202.3325,607.7969 1286.275,607.7969 1376.22,607.7969 " fill="transparent" id="C_0000316605034920222648-to-C_0000111389493058790497" style="stroke:#181818;stroke-width:1;stroke-dasharray:7.0,7.0;"/><polygon fill="#181818" points="1382.22,607.7969,1373.22,603.7969,1377.22,607.7969,1373.22,611.7969,1382.22,607.7969" style="stroke:#181818;stroke-width:1;"/></g><!--link C_0000083721806430512831 to C_0001358647710369908591--><g id="link_C_0000083721806430512831_C_0001358647710369908591"><path codeLine="86" d="M408,616.1967 C408,616.3517 408,616.5087 408,616.6678 C408,617.3042 408,617.9737 408,618.6742 C408,624.2784 408,631.8688 408,640.3881 C408,657.4269 408,672.1819 408,688.1969 " fill="transparent" id="C_0000083721806430512831-to-C_0001358647710369908591" style="stroke:#181818;stroke-width:1;stroke-dasharray:7.0,7.0;"/><polygon fill="#181818" points="408,694.1969,412,685.1969,408,689.1969,404,685.1969,408,694.1969" style="stroke:#181818;stroke-width:1;"/></g><!--link C_0000083721806430512831 to C_0000111389493058790497--><g id="link_C_0000083721806430512831_C_0000111389493058790497"><path codeLine="88" d="M416.0461,576.5884 C416.065,576.5722 416.0838,576.556 416.1027,576.5399 C416.2535,576.411 416.4048,576.2865 416.5567,576.1662 C416.8606,575.9255 417.167,575.7014 417.4773,575.4917 C418.0981,575.0723 418.735,574.7103 419.4,574.3881 C422.06,573.0994 425.17,572.4469 429.5,571.2969 C473.64,559.5769 794.86,569.8569 840.5,571.2969 C1046.24,577.8069 1286.6708,596.8372 1376.2908,604.3272 " fill="transparent" id="C_0000083721806430512831-to-C_0000111389493058790497" style="stroke:#181818;stroke-width:1;stroke-dasharray:7.0,7.0;"/><polygon fill="#181818" points="1382.27,604.8269,1373.6344,600.0912,1377.2874,604.4105,1372.9681,608.0634,1382.27,604.8269" style="stroke:#181818;stroke-width:1;"/></g><!--link C_0000111389493058790497 to C_0000083721806430512831--><g id="link_C_0000111389493058790497_C_0000083721806430512831"><path codeLine="129" d="M1382.27,604.8269 C1292.65,597.3369 1046.24,577.8069 840.5,571.2969 C794.86,569.8569 473.64,559.5769 429.5,571.2969 C425.17,572.4469 422.06,573.0994 419.4,574.3881 C418.735,574.7103 418.0981,575.0723 417.4773,575.4917 C417.167,575.7014 416.8606,575.9255 416.5567,576.1662 C416.4048,576.2865 416.2535,576.411 416.1027,576.5399 C416.0838,576.556 420.6085,572.6535 420.5896,572.6697 " fill="transparent" id="C_0000111389493058790497-to-C_0000083721806430512831" style="stroke:#181818;stroke-width:1;stroke-dasharray:7.0,7.0;"/><polygon fill="#181818" points="416.0461,576.5884,425.4739,573.7394,419.8324,573.3228,420.2489,567.6813,416.0461,576.5884" style="stroke:#181818;stroke-width:1;"/></g><!--link C_0001274949469918086018 to C_0000316605034920222648--><g id="link_C_0001274949469918086018_C_0000316605034920222648"><path codeLine="89" d="M295.78,521.5869 C304.27,535.8269 316.84,552.3869 333,561.2969 C382.33,588.5069 828.8547,606.2794 835.9247,606.5594 " fill="transparent" id="C_0001274949469918086018-to-C_0000316605034920222648" style="stroke:#181818;stroke-width:1;stroke-dasharray:7.0,7.0;"/><polygon fill="#181818" points="841.92,606.7969,833.0853,602.4439,836.9239,606.599,832.7688,610.4376,841.92,606.7969" style="stroke:#181818;stroke-width:1;"/></g><!--link C_0001274949469918086018 to C_0000083721806430512831--><g id="link_C_0001274949469918086018_C_0000083721806430512831"><path codeLine="90" d="M299.31,521.5769 C308.25,534.4569 320.12,549.7269 333,561.2969 C361.09,586.5469 399.6178,603.2305 402.3478,604.3905 " fill="transparent" id="C_0001274949469918086018-to-C_0000083721806430512831" style="stroke:#181818;stroke-width:1;stroke-dasharray:7.0,7.0;"/><polygon fill="#181818" points="407.87,606.7369,401.151,599.5358,403.2682,604.7815,398.0225,606.8987,407.87,606.7369" style="stroke:#181818;stroke-width:1;"/></g><!--link C_0001274949469918086018 to C_0000897124234964432620--><g id="link_C_0001274949469918086018_C_0000897124234964432620"><path codeLine="91" d="M292.04,468.0269 C299.9,448.8169 313.18,423.8469 333,409.2969 C339.43,404.5769 342.57,406.1869 350.5,405.2969 C380.17,401.9469 1395.83,401.9469 1425.5,405.2969 C1433.43,406.1869 1436.34,404.8969 1443,409.2969 C1464.87,423.7569 1478.7752,443.4759 1489.3252,462.7159 " fill="transparent" id="C_0001274949469918086018-to-C_0000897124234964432620" style="stroke:#181818;stroke-width:1;stroke-dasharray:7.0,7.0;"/><polygon fill="#181818" points="1492.21,467.9769,1491.3901,458.1622,1489.806,463.5927,1484.3755,462.0086,1492.21,467.9769" style="stroke:#181818;stroke-width:1;"/></g><!--link C_0001274949469918086018 to C_0001569810617781744082--><g id="link_C_0001274949469918086018_C_0001569810617781744082"><path codeLine="92" d="M292.04,468.0269 C299.9,448.8169 313.18,423.8469 333,409.2969 C339.43,404.5769 342.57,406.1869 350.5,405.2969 C379.99,401.9669 2458.01,401.9669 2487.5,405.2969 C2495.43,406.1869 2498.34,404.8969 2505,409.2969 C2526.87,423.7569 2540.7752,443.4759 2551.3252,462.7159 " fill="transparent" id="C_0001274949469918086018-to-C_0001569810617781744082" style="stroke:#181818;stroke-width:1;stroke-dasharray:7.0,7.0;"/><polygon fill="#181818" points="2554.21,467.9769,2553.3901,458.1622,2551.806,463.5927,2546.3755,462.0086,2554.21,467.9769" style="stroke:#181818;stroke-width:1;"/></g><!--link C_0001274949469918086018 to C_0000545328881104248214--><g id="link_C_0001274949469918086018_C_0000545328881104248214"><path codeLine="93" d="M292.04,468.0269 C299.9,448.8169 313.18,423.8469 333,409.2969 C339.43,404.5769 342.57,406.1869 350.5,405.2969 C396.79,400.0769 1981.21,400.0769 2027.5,405.2969 C2035.43,406.1869 2038.34,404.8969 2045,409.2969 C2066.87,423.7569 2080.7752,443.4759 2091.3252,462.7159 " fill="transparent" id="C_0001274949469918086018-to-C_0000545328881104248214" style="stroke:#181818;stroke-width:1;stroke-dasharray:7.0,7.0;"/><polygon fill="#181818" points="2094.21,467.9769,2093.3901,458.1622,2091.806,463.5927,2086.3755,462.0086,2094.21,467.9769" style="stroke:#181818;stroke-width:1;"/></g><!--link C_0002059309769421024048 to C_0000508260900986041225--><g id="link_C_0002059309769421024048_C_0000508260900986041225"><path codeLine="94" d="M177.96,335.9069 C176.57,339.4569 145.4712,418.6813 128.2812,462.5013 " fill="transparent" id="C_0002059309769421024048-to-C_0000508260900986041225" style="stroke:#181818;stroke-width:1;stroke-dasharray:7.0,7.0;"/><polygon fill="#181818" points="126.09,468.0869,133.1005,461.1693,127.916,463.4322,125.653,458.2477,126.09,468.0869" style="stroke:#181818;stroke-width:1;"/></g><!--link C_0002059309769421024048 to C_0000111389493058790497--><g id="link_C_0002059309769421024048_C_0000111389493058790497"><path codeLine="95" d="M186.2372,336.7397 C187.2175,336.8511 188.2819,336.972 189.4289,337.102 C191.7229,337.3619 194.3469,337.6585 197.2871,337.9897 C209.0476,339.3142 225.8658,341.1912 246.8503,343.4873 C288.8194,348.0797 347.4538,354.3488 415.6225,361.2281 C551.96,374.9869 726.435,391.1869 882,401.2969 C905.97,402.8569 1076,399.6569 1098,409.2969 C1185.22,447.5069 1166.68,513.4369 1249,561.2969 C1291.19,585.8269 1341.0754,596.6332 1376.5354,601.9132 " fill="transparent" id="C_0002059309769421024048-to-C_0000111389493058790497" style="stroke:#181818;stroke-width:1;stroke-dasharray:7.0,7.0;"/><polygon fill="#181818" points="1382.47,602.7969,1374.1572,597.515,1377.5245,602.0605,1372.979,605.4278,1382.47,602.7969" style="stroke:#181818;stroke-width:1;"/></g><!--link C_0002059309769421024048 to C_0000083721806430512831--><g id="link_C_0002059309769421024048_C_0000083721806430512831"><path codeLine="96" d="M45.8932,424.0887 C45.6638,424.5271 45.4359,424.9646 45.2096,425.4012 C44.3042,427.1478 43.4237,428.8808 42.5689,430.6011 C39.1501,437.4823 36.1445,444.1589 33.6178,450.6784 C28.5644,463.7175 25.4262,476.1281 24.7275,488.2894 C23.33,512.6119 31.69,535.9369 54,561.2969 C60.4975,568.6819 85.5525,575.2025 119.5589,580.8333 C136.5621,583.6487 155.8032,586.2416 176.0813,588.6089 C186.2204,589.7925 196.6187,590.9198 207.1262,591.9902 C212.38,592.5254 217.6611,593.0464 222.9507,593.5532 C223.6119,593.6165 218.3001,593.1116 218.9616,593.1745 " fill="transparent" id="C_0002059309769421024048-to-C_0000083721806430512831" style="stroke:#181818;stroke-width:1;stroke-dasharray:7.0,7.0;"/><polygon fill="#181818" points="224.9346,593.7425,216.3537,588.9085,219.9571,593.2692,215.5964,596.8725,224.9346,593.7425" style="stroke:#181818;stroke-width:1;"/></g><!--link C_0000508260900986041225 to C_0000083721806430512831--><g id="link_C_0000508260900986041225_C_0000083721806430512831"><path codeLine="97" d="M155.99,521.2969 C167.13,527.9769 179.8625,535.2644 193.195,542.2381 C199.8612,545.725 206.6775,549.1334 213.5197,552.3483 C216.9408,553.9557 220.3684,555.5147 223.7869,557.011 C224.2142,557.198 224.6414,557.384 225.0684,557.5691 C225.2819,557.6616 219.9856,555.3784 220.1991,555.4704 " fill="transparent" id="C_0000508260900986041225-to-C_0000083721806430512831" style="stroke:#181818;stroke-width:1;stroke-dasharray:7.0,7.0;"/><polygon fill="#181818" points="225.7088,557.8459,219.0278,550.6095,221.1174,555.8663,215.8606,557.9558,225.7088,557.8459" style="stroke:#181818;stroke-width:1;"/></g><!--link C_0001127696046613471321 to C_0000111389493058790497--><g id="link_C_0001127696046613471321_C_0000111389493058790497"><path codeLine="98" d="M802.047,498.5893 C802.1801,498.635 802.3148,498.6812 802.4509,498.7279 C802.9956,498.9148 803.5647,499.1098 804.1578,499.3126 C805.3439,499.7182 806.6259,500.1551 807.9994,500.6214 C810.7463,501.5538 813.8593,502.6036 817.3039,503.7545 C831.0822,508.3584 850.1656,514.5825 872.3488,521.4031 C916.715,535.0444 973.48,551.0719 1025,561.2969 C1155.54,587.2069 1307.6838,599.5908 1376.3838,604.2508 " fill="transparent" id="C_0001127696046613471321-to-C_0000111389493058790497" style="stroke:#181818;stroke-width:1;stroke-dasharray:7.0,7.0;"/><polygon fill="#181818" points="1382.37,604.6569,1373.6613,600.057,1377.3815,604.3185,1373.1199,608.0386,1382.37,604.6569" style="stroke:#181818;stroke-width:1;"/></g><!--link C_0001127696046613471321 to C_0000316605034920222648--><g id="link_C_0001127696046613471321_C_0000316605034920222648"><path codeLine="99" d="M802.1395,514.6183 C802.2097,514.7807 802.2803,514.9437 802.3511,515.1076 C802.4929,515.4353 802.6359,515.7659 802.7802,516.0995 C803.0687,516.7666 803.3623,517.4452 803.6605,518.1347 C804.2569,519.5135 804.872,520.9355 805.503,522.3945 C806.765,525.3124 808.091,528.3781 809.4596,531.5424 C812.1966,537.8709 815.1041,544.5934 818.0113,551.3156 C829.64,578.2044 838.8831,599.5799 839.5881,601.2099 " fill="transparent" id="C_0001127696046613471321-to-C_0000316605034920222648" style="stroke:#181818;stroke-width:1;stroke-dasharray:7.0,7.0;"/><polygon fill="#181818" points="841.97,606.7169,842.0685,596.8685,839.9851,602.1277,834.7259,600.0443,841.97,606.7169" style="stroke:#181818;stroke-width:1;"/></g><!--link C_0000111902384185473339 to C_0000083721806430512831--><g id="link_C_0000111902384185473339_C_0000083721806430512831"><path codeLine="100" d="M479.78,518.7969 C467.77,526.1019 454.82,535.0519 442.875,545.5131 C436.9025,550.7438 431.1813,556.3522 425.9544,562.3217 C423.3409,565.3065 420.8511,568.3815 418.5152,571.5447 C417.9313,572.3356 417.3569,573.1319 416.7927,573.9337 C416.6516,574.1341 416.5112,574.3349 416.3714,574.536 C416.3015,574.6366 419.6415,569.8003 419.5719,569.901 " fill="transparent" id="C_0000111902384185473339-to-C_0000083721806430512831" style="stroke:#181818;stroke-width:1;stroke-dasharray:7.0,7.0;"/><polygon fill="#181818" points="416.1622,574.838,424.5681,569.7057,419.0037,570.7239,417.9855,565.1594,416.1622,574.838" style="stroke:#181818;stroke-width:1;"/></g><!--link C_0000111902384185473339 to C_0000111389493058790497--><g id="link_C_0000111902384185473339_C_0000111389493058790497"><path codeLine="101" d="M542.21,521.5669 C553.4,535.9969 569.35,552.7469 588,561.2969 C606.35,569.7069 1221.9861,597.9961 1376.5061,604.9761 " fill="transparent" id="C_0000111902384185473339-to-C_0000111389493058790497" style="stroke:#181818;stroke-width:1;stroke-dasharray:7.0,7.0;"/><polygon fill="#181818" points="1382.5,605.2469,1373.6897,600.8448,1377.5051,605.0212,1373.3287,608.8367,1382.5,605.2469" style="stroke:#181818;stroke-width:1;"/></g><!--link C_0000123223292427653878 to C_0000111389493058790497--><g id="link_C_0000123223292427653878_C_0000111389493058790497"><path codeLine="102" d="M733.76,521.5269 C739.47,535.7469 748.75,552.3069 763,561.2969 C789.38,577.9469 1244.2859,599.1813 1376.0759,605.0213 " fill="transparent" id="C_0000123223292427653878-to-C_0000111389493058790497" style="stroke:#181818;stroke-width:1;stroke-dasharray:7.0,7.0;"/><polygon fill="#181818" points="1382.07,605.2869,1373.2559,600.8924,1377.0749,605.0655,1372.9017,608.8845,1382.07,605.2869" style="stroke:#181818;stroke-width:1;"/></g><!--link C_0000123223292427653878 to C_0000316605034920222648--><g id="link_C_0000123223292427653878_C_0000316605034920222648"><path codeLine="103" d="M736.58,521.5469 C742.85,534.5769 751.78,549.9869 763,561.2969 C790.64,589.1669 833.1875,603.8109 836.1675,604.8209 " fill="transparent" id="C_0000123223292427653878-to-C_0000316605034920222648" style="stroke:#181818;stroke-width:1;stroke-dasharray:7.0,7.0;"/><polygon fill="#181818" points="841.85,606.7469,834.6102,600.0696,837.1146,605.1419,832.0423,607.6463,841.85,606.7469" style="stroke:#181818;stroke-width:1;"/></g><!--link C_0002206969880830639264 to C_0000083721806430512831--><g id="link_C_0002206969880830639264_C_0000083721806430512831"><path codeLine="104" d="M906.57,361.6069 C893.97,374.9669 879.41,392.0569 869,409.2969 C831.54,471.3269 868.75,518.8769 810,561.2969 C792.05,574.2569 700.7775,571.8519 609.8788,569.9094 C564.4294,568.9381 519.0734,568.0825 483.023,569.3209 C464.9977,569.9402 449.2989,571.0829 437.0779,572.9964 C430.9674,573.9532 425.7263,575.1027 421.4987,576.4758 C420.4418,576.8191 419.4482,577.1763 418.5203,577.548 C418.0563,577.7339 417.6087,577.9234 417.1778,578.1165 C416.9623,578.2131 422.1701,575.7351 421.9631,575.8335 " fill="transparent" id="C_0002206969880830639264-to-C_0000083721806430512831" style="stroke:#181818;stroke-width:1;stroke-dasharray:7.0,7.0;"/><polygon fill="#181818" points="416.5439,578.409,426.3896,578.1585,421.0599,576.2628,422.9556,570.933,416.5439,578.409" style="stroke:#181818;stroke-width:1;"/></g><!--link C_0002206969880830639264 to C_0000316605034920222648--><g id="link_C_0002206969880830639264_C_0000316605034920222648"><path codeLine="105" d="M929.08,361.4369 C921.91,404.3069 904.43,492.5869 873,561.2969 C868.07,572.0769 860.6425,583.0894 854.2937,591.5794 C853.5002,592.6406 852.7234,593.6625 851.9705,594.6395 C851.5941,595.128 851.2236,595.6053 850.8599,596.0708 C850.6781,596.3035 850.498,596.5333 850.3197,596.76 C850.2305,596.8733 853.8585,592.2757 853.7702,592.3875 " fill="transparent" id="C_0002206969880830639264-to-C_0000316605034920222648" style="stroke:#181818;stroke-width:1;stroke-dasharray:7.0,7.0;"/><polygon fill="#181818" points="850.0536,597.0977,858.7687,592.5101,853.1508,593.1725,852.4884,587.5546,850.0536,597.0977" style="stroke:#181818;stroke-width:1;"/></g><!--link C_0000351520758190157237 to C_0000316605034920222648--><g id="link_C_0000351520758190157237_C_0000316605034920222648"><path codeLine="106" d="M954.83,174.5069 C963.86,183.4769 975.02,192.6969 987,198.2969 C1011.37,209.6869 1026.93,188.3869 1047,206.2969 C1165.93,312.4269 1200.38,439.1169 1098,561.2969 C1079.735,583.0969 1017.435,594.4594 958.8712,600.3781 C929.5894,603.3375 901.2416,604.9359 879.7992,605.7977 C869.078,606.2285 860.0832,606.4752 853.5612,606.6157 C852.746,606.6333 851.9694,606.6492 851.2328,606.6636 C850.8646,606.6708 856.5053,606.5662 856.1573,606.5726 " fill="transparent" id="C_0000351520758190157237-to-C_0000316605034920222648" style="stroke:#181818;stroke-width:1;stroke-dasharray:7.0,7.0;"/><polygon fill="#181818" points="850.1583,606.6841,859.2311,610.5162,855.1575,606.5912,859.0825,602.5176,850.1583,606.6841" style="stroke:#181818;stroke-width:1;"/></g><!--link C_0000351520758190157237 to C_0002206969880830639264--><g id="link_C_0000351520758190157237_C_0002206969880830639264"><path codeLine="107" d="M933,174.5169 C933,209.8669 933,267.0669 933,302.2969 " fill="transparent" id="C_0000351520758190157237-to-C_0002206969880830639264" style="stroke:#181818;stroke-width:1;stroke-dasharray:7.0,7.0;"/><polygon fill="#181818" points="933,308.2969,937,299.2969,933,303.2969,929,299.2969,933,308.2969" style="stroke:#181818;stroke-width:1;"/></g><!--link C_0000351520758190157237 to C_0000111389493058790497--><g id="link_C_0000351520758190157237_C_0000111389493058790497"><path codeLine="108" d="M954.1,174.4669 C963.19,183.6669 974.58,193.0569 987,198.2969 C1015.91,210.4969 1100.88,190.5069 1128,206.2969 C1290.25,300.7769 1229.37,423.5869 1357,561.2969 C1364.46,569.3469 1368.7163,573.3821 1377.4763,580.0521 " fill="transparent" id="C_0000351520758190157237-to-C_0000111389493058790497" style="stroke:#181818;stroke-width:1;stroke-dasharray:7.0,7.0;"/><polygon fill="#181818" points="1382.25,583.6869,1377.5126,575.0522,1378.2719,580.6579,1372.6662,581.4172,1382.25,583.6869" style="stroke:#181818;stroke-width:1;"/></g><!--link C_0000351520758190157237 to C_0000083721806430512831--><g id="link_C_0000351520758190157237_C_0000083721806430512831"><path codeLine="109" d="M963.65,174.5469 C972.23,183.5969 980.45,194.4869 985,206.2969 C1016.15,287.1769 1012.41,319.0769 985,401.2969 C956.89,485.6269 943.61,519.7969 865,561.2969 C842.72,573.0569 738.86,569.6594 635.875,567.5206 C584.3825,566.4512 533.1088,565.6966 492.3606,567.3086 C471.9866,568.1146 454.2439,569.5123 440.421,571.7582 C433.5096,572.8811 427.5781,574.2161 422.7875,575.7952 C420.3923,576.5847 423.633,574.7206 421.8283,575.6362 " fill="transparent" id="C_0000351520758190157237-to-C_0000083721806430512831" style="stroke:#181818;stroke-width:1;stroke-dasharray:7.0,7.0;"/><polygon fill="#181818" points="416.4776,578.3509,426.3135,577.8459,420.9366,576.0886,422.6939,570.7117,416.4776,578.3509" style="stroke:#181818;stroke-width:1;"/></g><!--link C_0000351520758190157237 to C_0002059309769421024048--><g id="link_C_0000351520758190157237_C_0002059309769421024048"><path codeLine="110" d="M897.85,157.4069 C823.995,175.5069 646.2575,219.0594 485.8837,258.3556 C405.6969,278.0037 329.8509,296.5878 273.5017,310.3942 C245.3271,317.2974 222.0267,323.0062 205.4949,327.0564 C197.229,329.0815 196.483,329.2644 191.8382,330.4021 " fill="transparent" id="C_0000351520758190157237-to-C_0002059309769421024048" style="stroke:#181818;stroke-width:1;stroke-dasharray:7.0,7.0;"/><polygon fill="#181818" points="186.0105,331.8297,195.7038,333.5735,190.867,330.6401,193.8004,325.8032,186.0105,331.8297" style="stroke:#181818;stroke-width:1;"/></g><!--link C_0000512747459624305096 to C_0000111389493058790497--><g id="link_C_0000512747459624305096_C_0000111389493058790497"><path codeLine="111" d="M1072.99,174.3369 C1083.74,183.6469 1097.04,193.1369 1111,198.2969 C1130.82,205.6269 1284.38,193.2469 1301,206.2969 C1316.36,218.3469 1386.7282,488.7353 1408.9482,575.2953 " fill="transparent" id="C_0000512747459624305096-to-C_0000111389493058790497" style="stroke:#181818;stroke-width:1;stroke-dasharray:7.0,7.0;"/><polygon fill="#181818" points="1410.44,581.1069,1412.0766,571.395,1409.1968,576.2639,1404.3279,573.3841,1410.44,581.1069" style="stroke:#181818;stroke-width:1;"/></g><!--link C_0000512747459624305096 to C_0002206969880830639264--><g id="link_C_0000512747459624305096_C_0002206969880830639264"><path codeLine="112" d="M1032.01,174.5169 C1010.04,209.8669 973.9176,267.9712 952.0176,303.2012 " fill="transparent" id="C_0000512747459624305096-to-C_0002206969880830639264" style="stroke:#181818;stroke-width:1;stroke-dasharray:7.0,7.0;"/><polygon fill="#181818" points="948.85,308.2969,956.9986,302.7651,951.4897,304.0505,950.2043,298.5416,948.85,308.2969" style="stroke:#181818;stroke-width:1;"/></g><!--link C_0002175731064921249807 to C_0000111389493058790497--><g id="link_C_0002175731064921249807_C_0000111389493058790497"><path codeLine="113" d="M1181.73,174.5269 C1192.96,183.7369 1206.73,193.1169 1221,198.2969 C1236.79,204.0269 1359.77,194.7769 1372,206.2969 C1478.28,306.4869 1442.5615,503.7553 1425.2415,575.3153 " fill="transparent" id="C_0002175731064921249807-to-C_0000111389493058790497" style="stroke:#181818;stroke-width:1;stroke-dasharray:7.0,7.0;"/><polygon fill="#181818" points="1423.83,581.1469,1429.8349,573.3404,1425.0062,576.2872,1422.0594,571.4585,1423.83,581.1469" style="stroke:#181818;stroke-width:1;"/></g><!--link C_0002175731064921249807 to C_0002206969880830639264--><g id="link_C_0002175731064921249807_C_0002206969880830639264"><path codeLine="114" d="M1133.96,174.3469 C1126.97,182.3269 1118.93,190.9469 1111,198.2969 C1064.43,241.4569 1009.673,281.3413 972.613,307.0013 " fill="transparent" id="C_0002175731064921249807-to-C_0002206969880830639264" style="stroke:#181818;stroke-width:1;stroke-dasharray:7.0,7.0;"/><polygon fill="#181818" points="967.68,310.4169,977.3565,308.5822,971.7908,307.5706,972.8024,302.0049,967.68,310.4169" style="stroke:#181818;stroke-width:1;"/></g><!--link C_0000897124234964432620 to C_0000083721806430512831--><g id="link_C_0000897124234964432620_C_0000083721806430512831"><path codeLine="115" d="M1470.35,502.9369 C1400.36,517.0269 1236.94,548.1469 1098,561.2969 C1079.02,563.0919 914.6725,561.7919 751.4938,563.1931 C669.9044,563.8938 588.6072,565.2697 525.9192,568.0455 C494.5752,569.4334 467.8836,571.1712 448.1338,573.3496 C438.2589,574.4388 430.1195,575.6381 424.0018,576.9589 C420.943,577.6193 424.0366,576.2824 422.0243,577.0049 " fill="transparent" id="C_0000897124234964432620-to-C_0000083721806430512831" style="stroke:#181818;stroke-width:1;stroke-dasharray:7.0,7.0;"/><polygon fill="#181818" points="416.3773,579.0325,426.1996,579.7557,421.0832,577.3428,423.4961,572.2264,416.3773,579.0325" style="stroke:#181818;stroke-width:1;"/></g><!--link C_0000897124234964432620 to C_0000316605034920222648--><g id="link_C_0000897124234964432620_C_0000316605034920222648"><path codeLine="116" d="M1470.22,502.9169 C1407.96,515.5269 1273.28,542.2869 1159,561.2969 C1089.895,572.7919 1012.0225,583.9944 950.7538,592.4069 C920.1194,596.6131 893.6359,600.1219 874.4748,602.6209 C864.8943,603.8705 857.1443,604.8676 851.6214,605.5732 C851.2762,605.6173 850.9397,605.6603 850.612,605.7021 C850.4482,605.723 856.2383,604.9846 856.0789,605.0049 " fill="transparent" id="C_0000897124234964432620-to-C_0000316605034920222648" style="stroke:#181818;stroke-width:1;stroke-dasharray:7.0,7.0;"/><polygon fill="#181818" points="850.1271,605.764,859.5608,608.5933,855.0869,605.1314,858.5487,600.6575,850.1271,605.764" style="stroke:#181818;stroke-width:1;"/></g><!--link C_0001862217944346803827 to C_0000897124234964432620--><g id="link_C_0001862217944346803827_C_0000897124234964432620"><path codeLine="117" d="M1496.0995,385.6279 C1496.1341,386.0492 1496.1689,386.4718 1496.2038,386.8956 C1498.435,414.0194 1500.5887,440.197 1502.3887,462.107 " fill="transparent" id="C_0001862217944346803827-to-C_0000897124234964432620" style="stroke:#181818;stroke-width:1;stroke-dasharray:7.0,7.0;"/><polygon fill="#181818" points="1502.88,468.0869,1506.1297,458.7896,1502.4706,463.1037,1498.1565,459.4446,1502.88,468.0869" style="stroke:#181818;stroke-width:1;"/></g><!--link C_0001862217944346803827 to C_0000111389493058790497--><g id="link_C_0001862217944346803827_C_0000111389493058790497"><path codeLine="118" d="M1498.9083,385.4466 C1498.9565,385.5507 1499.0049,385.6545 1499.0537,385.7582 C1499.1513,385.9655 1499.2501,386.1722 1499.3501,386.3782 C1499.7503,387.2021 1500.1703,388.0147 1500.6112,388.8138 C1501.493,390.4121 1502.4581,391.9567 1503.514,393.4308 C1505.6259,396.3791 1508.1013,399.0456 1511,401.2969 C1532.95,418.3369 1741.66,389.3369 1761,409.2969 C1808,457.8269 1805.53,510.4969 1761,561.2969 C1740.77,584.3769 1540.8282,599.1606 1457.5982,604.3906 " fill="transparent" id="C_0001862217944346803827-to-C_0000111389493058790497" style="stroke:#181818;stroke-width:1;stroke-dasharray:7.0,7.0;"/><polygon fill="#181818" points="1451.61,604.7669,1460.8431,608.1946,1456.6002,604.4533,1460.3414,600.2103,1451.61,604.7669" style="stroke:#181818;stroke-width:1;"/></g><!--link C_0001862217944346803827 to C_0002059309769421024048--><g id="link_C_0001862217944346803827_C_0002059309769421024048"><path codeLine="119" d="M1483.6278,328.4418 C1483.4819,328.3336 1483.3342,328.2242 1483.1847,328.1136 C1482.8858,327.8923 1482.5796,327.6662 1482.2664,327.4353 C1477.2549,323.7405 1470.4251,318.8205 1462.0533,313.0616 C1445.3097,301.5438 1422.3981,286.6706 1395.5288,271.5344 C1341.79,241.2619 1272.22,209.9369 1204.5,202.2969 C1170.82,198.4969 933.25,199.2269 899.5,202.2969 C740.96,216.7319 565.225,248.6619 426.8863,277.5594 C357.7169,292.0081 297.8966,305.6987 254.2492,316.0653 C232.4255,321.2486 214.6451,325.6009 201.7609,328.8014 C195.3188,330.4016 195.9172,330.2412 192.0299,331.2255 " fill="transparent" id="C_0001862217944346803827-to-C_0002059309769421024048" style="stroke:#181818;stroke-width:1;stroke-dasharray:7.0,7.0;"/><polygon fill="#181818" points="186.2134,332.6982,195.9199,334.3668,191.0605,331.4709,193.9563,326.6115,186.2134,332.6982" style="stroke:#181818;stroke-width:1;"/></g><!--link C_0001862217944346803827 to C_0000083721806430512831--><g id="link_C_0001862217944346803827_C_0000083721806430512831"><path codeLine="120" d="M1499.5833,385.6004 C1499.6317,385.7049 1499.6804,385.8094 1499.7294,385.9136 C1500.1211,386.7478 1500.5316,387.572 1500.9617,388.3844 C1501.8218,390.0093 1502.7601,391.5866 1503.7835,393.1006 C1505.8303,396.1286 1508.2175,398.9031 1511,401.2969 C1531.39,418.8469 1553.28,389.0569 1571,409.2969 C1615.5,460.1269 1618.36,513.1169 1571,561.2969 C1548.43,584.2619 1270.8225,578.6919 992.7862,572.6656 C853.7681,569.6525 714.6428,566.5253 607.2364,566.7939 C553.5332,566.9282 507.7597,567.9114 473.8942,570.1824 C456.9615,571.3178 443.0057,572.7752 432.5243,574.6093 C427.2835,575.5264 422.9114,576.5377 419.4699,577.65 C418.6096,577.928 423.3947,576.0257 422.6517,576.3165 " fill="transparent" id="C_0001862217944346803827-to-C_0000083721806430512831" style="stroke:#181818;stroke-width:1;stroke-dasharray:7.0,7.0;"/><polygon fill="#181818" points="417.0644,578.5033,426.9032,578.948,421.7205,576.6809,423.9875,571.4982,417.0644,578.5033" style="stroke:#181818;stroke-width:1;"/></g><!--link C_0001862217944346803827 to C_0000316605034920222648--><g id="link_C_0001862217944346803827_C_0000316605034920222648"><path codeLine="121" d="M1499.2106,385.5593 C1499.3074,385.7677 1499.4054,385.9754 1499.5046,386.1825 C1499.9013,387.0107 1500.3175,387.8282 1500.754,388.633 C1501.627,390.2424 1502.5812,391.8008 1503.6239,393.2917 C1505.7094,396.2736 1508.1488,398.9856 1511,401.2969 C1529.69,416.4469 1602.62,391.6669 1619,409.2969 C1664.97,458.7969 1665.35,512.1469 1619,561.2969 C1615.32,565.1969 1424.065,576.4244 1232.25,586.7494 C1136.3425,591.9119 1040.295,596.8488 967.4844,600.5313 C931.0791,602.3725 900.483,603.9002 878.6182,604.9856 C867.6858,605.5284 858.9363,605.9605 852.7348,606.2661 C851.9596,606.3043 857.217,606.0455 856.5222,606.0797 " fill="transparent" id="C_0001862217944346803827-to-C_0000316605034920222648" style="stroke:#181818;stroke-width:1;stroke-dasharray:7.0,7.0;"/><polygon fill="#181818" points="850.5294,606.3747,859.7152,609.9274,855.5234,606.1289,859.3219,601.937,850.5294,606.3747" style="stroke:#181818;stroke-width:1;"/></g><!--link C_0000606738738474715449 to C_0000111389493058790497--><g id="link_C_0000606738738474715449_C_0000111389493058790497"><path codeLine="122" d="M1831.6,361.5469 C1855.67,407.8169 1896.29,505.3969 1846,561.2969 C1819.77,590.4569 1555.1564,602.1601 1457.7164,605.5201 " fill="transparent" id="C_0000606738738474715449-to-C_0000111389493058790497" style="stroke:#181818;stroke-width:1;stroke-dasharray:7.0,7.0;"/><polygon fill="#181818" points="1451.72,605.7269,1460.8525,609.4143,1456.717,605.5546,1460.5768,601.4191,1451.72,605.7269" style="stroke:#181818;stroke-width:1;"/></g><!--link C_0000606738738474715449 to C_0000897124234964432620--><g id="link_C_0000606738738474715449_C_0000897124234964432620"><path codeLine="123" d="M1804.89,361.4969 C1797.38,374.9969 1786.57,390.8569 1773,401.2969 C1701.22,456.5269 1600.1013,479.1784 1545.5613,488.0984 " fill="transparent" id="C_0000606738738474715449-to-C_0000897124234964432620" style="stroke:#181818;stroke-width:1;stroke-dasharray:7.0,7.0;"/><polygon fill="#181818" points="1539.64,489.0669,1549.1676,491.5618,1544.5744,488.2598,1547.8764,483.6667,1539.64,489.0669" style="stroke:#181818;stroke-width:1;"/></g><!--link C_0000606738738474715449 to C_0000083721806430512831--><g id="link_C_0000606738738474715449_C_0000083721806430512831"><path codeLine="124" d="M1810.46,361.6669 C1796.47,410.9069 1758.46,517.1569 1682,561.2969 C1651.445,578.9369 1347.26,572.3644 1044.0563,567.1681 C892.4544,564.57 741.0978,562.3159 624.313,563.6045 C565.9205,564.2488 516.1711,565.7788 479.3553,568.5942 C460.9474,570.002 445.773,571.7311 434.3683,573.8315 C428.666,574.8817 423.9061,576.0248 420.1557,577.2669 C419.2181,577.5775 418.3436,577.8942 417.5332,578.2172 C417.128,578.3787 422.2278,576.1185 421.8548,576.2832 " fill="transparent" id="C_0000606738738474715449-to-C_0000083721806430512831" style="stroke:#181818;stroke-width:1;stroke-dasharray:7.0,7.0;"/><polygon fill="#181818" points="416.3659,578.7065,426.2147,578.7308,420.94,576.6871,422.9837,571.4123,416.3659,578.7065" style="stroke:#181818;stroke-width:1;"/></g><!--link C_0002128240368383142789 to C_0001127696046613471321--><g id="link_C_0002128240368383142789_C_0001127696046613471321"><path codeLine="125" d="M1680.45,361.3769 C1661.43,376.1269 1635.4,393.2869 1609,401.2969 C1546.9,420.1369 1088.82,397.5369 1025,409.2969 C972.085,419.0469 915.3,439.6694 871.2725,458.0994 C849.2588,467.3144 830.4344,475.9813 816.8778,482.4669 C813.4887,484.0883 810.4288,485.5734 807.7306,486.8966 C806.3815,487.5582 805.1228,488.1794 803.9586,488.7569 C803.3766,489.0456 808.1872,486.6453 807.6529,486.9119 " fill="transparent" id="C_0002128240368383142789-to-C_0001127696046613471321" style="stroke:#181818;stroke-width:1;stroke-dasharray:7.0,7.0;"/><polygon fill="#181818" points="802.2837,489.59,812.1229,489.1522,806.758,487.3582,808.552,481.9934,802.2837,489.59" style="stroke:#181818;stroke-width:1;"/></g><!--link C_0002128240368383142789 to C_0000083721806430512831--><g id="link_C_0002128240368383142789_C_0000083721806430512831"><path codeLine="126" d="M1707.84,361.3369 C1702.2,410.0169 1682.3,515.3169 1614,561.2969 C1586.3,579.9469 1298.3975,573.9894 1011.1212,568.8481 C867.4831,566.2775 724.0016,563.9109 613.2802,564.9264 C557.9195,565.4341 510.7488,566.7874 475.8436,569.3834 C458.391,570.6814 444.0048,572.2901 433.1944,574.2591 C427.7892,575.2436 423.2779,576.3182 419.7243,577.4891 C418.8359,577.7818 418.0073,578.0806 417.2396,578.3854 C416.8558,578.5379 421.9788,576.2748 421.6255,576.4303 " fill="transparent" id="C_0002128240368383142789-to-C_0000083721806430512831" style="stroke:#181818;stroke-width:1;stroke-dasharray:7.0,7.0;"/><polygon fill="#181818" points="416.1338,578.8473,425.9826,578.8829,420.7102,576.8331,422.76,571.5607,416.1338,578.8473" style="stroke:#181818;stroke-width:1;"/></g><!--link C_0002128240368383142789 to C_0000111389493058790497--><g id="link_C_0002128240368383142789_C_0000111389493058790497"><path codeLine="127" d="M1728.96,361.5569 C1740.3,375.2469 1755.83,391.2669 1773,401.2969 C1785.29,408.4769 1795.29,398.0469 1804,409.2969 C1845.37,462.6969 1848.89,510.8169 1804,561.2969 C1780.74,587.4569 1548.0534,600.7754 1457.5434,605.0254 " fill="transparent" id="C_0002128240368383142789-to-C_0000111389493058790497" style="stroke:#181818;stroke-width:1;stroke-dasharray:7.0,7.0;"/><polygon fill="#181818" points="1451.55,605.3069,1460.7277,608.8803,1456.5445,605.0724,1460.3525,600.8891,1451.55,605.3069" style="stroke:#181818;stroke-width:1;"/></g><!--link C_0002128240368383142789 to C_0000897124234964432620--><g id="link_C_0002128240368383142789_C_0000897124234964432620"><path codeLine="128" d="M1676.61,361.5369 C1638.49,390.9169 1581.2425,435.0343 1543.1325,464.4043 " fill="transparent" id="C_0002128240368383142789-to-C_0000897124234964432620" style="stroke:#181818;stroke-width:1;stroke-dasharray:7.0,7.0;"/><polygon fill="#181818" points="1538.38,468.0669,1547.9504,465.7414,1542.3404,465.0148,1543.067,459.4048,1538.38,468.0669" style="stroke:#181818;stroke-width:1;"/></g><!--link C_0000545328881104248214 to C_0000316605034920222648--><g id="link_C_0000545328881104248214_C_0000316605034920222648"><path codeLine="130" d="M2072.25,506.3369 C2020.47,521.5269 1919.74,549.0869 1832,561.2969 C1626.24,589.9369 1572.53,571.7969 1365,581.2969 C1249.67,586.5769 1120.055,592.8944 1018.7113,597.9206 C968.0394,600.4337 924.4353,602.6241 893.2186,604.2005 C877.6102,604.9887 865.0987,605.6234 856.349,606.0683 C854.1615,606.1795 858.2014,605.9737 856.4946,606.0606 " fill="transparent" id="C_0000545328881104248214-to-C_0000316605034920222648" style="stroke:#181818;stroke-width:1;stroke-dasharray:7.0,7.0;"/><polygon fill="#181818" points="850.5024,606.3657,859.6942,609.9029,855.4959,606.1115,859.2873,601.9132,850.5024,606.3657" style="stroke:#181818;stroke-width:1;"/></g><!--link C_0000545328881104248214 to C_0000083721806430512831--><g id="link_C_0000545328881104248214_C_0000083721806430512831"><path codeLine="131" d="M2072.29,506.6669 C2020.56,522.2769 1919.91,550.3469 1832,561.2969 C1812.425,563.7369 1464.875,562.2744 1118.4938,563.4331 C945.3031,564.0125 772.4047,565.2472 640.9414,567.9527 C575.2098,569.3054 519.8369,571.0258 479.9657,573.2159 C460.0301,574.3109 443.9699,575.5233 432.428,576.8659 C426.6571,577.5372 422.0157,578.2411 418.5842,578.979 C417.7264,579.1635 422.7401,577.7989 422.0348,577.9877 " fill="transparent" id="C_0000545328881104248214-to-C_0000083721806430512831" style="stroke:#181818;stroke-width:1;stroke-dasharray:7.0,7.0;"/><polygon fill="#181818" points="416.2388,579.5389,425.9669,581.0761,421.0688,578.2462,423.8986,573.3481,416.2388,579.5389" style="stroke:#181818;stroke-width:1;"/></g><!--link C_0000299757823634161563 to C_0000545328881104248214--><g id="link_C_0000299757823634161563_C_0000545328881104248214"><path codeLine="132" d="M2107,361.5369 C2107,390.9169 2107,432.6969 2107,462.0669 " fill="transparent" id="C_0000299757823634161563-to-C_0000545328881104248214" style="stroke:#181818;stroke-width:1;stroke-dasharray:7.0,7.0;"/><polygon fill="#181818" points="2107,468.0669,2111,459.0669,2107,463.0669,2103,459.0669,2107,468.0669" style="stroke:#181818;stroke-width:1;"/></g><!--link C_0000299757823634161563 to C_0000111389493058790497--><g id="link_C_0000299757823634161563_C_0000111389493058790497"><path codeLine="133" d="M2131.17,361.5169 C2141.93,374.7269 2153.41,391.7169 2159,409.2969 C2179.47,473.6769 2205.28,512.0869 2159,561.2969 C2134.49,587.3569 1601.6982,602.2583 1457.9682,605.8183 " fill="transparent" id="C_0000299757823634161563-to-C_0000111389493058790497" style="stroke:#181818;stroke-width:1;stroke-dasharray:7.0,7.0;"/><polygon fill="#181818" points="1451.97,605.9669,1461.0663,609.7428,1456.9685,605.8431,1460.8682,601.7453,1451.97,605.9669" style="stroke:#181818;stroke-width:1;"/></g><!--link C_0000299757823634161563 to C_0002059309769421024048--><g id="link_C_0000299757823634161563_C_0002059309769421024048"><path codeLine="134" d="M2073.6,308.2469 C2025.73,272.5969 1933.34,212.5469 1842.5,202.2969 C1790.44,196.4269 951.67,197.5469 899.5,202.2969 C740.96,216.7319 565.225,248.6619 426.8863,277.5594 C357.7169,292.0081 297.8966,305.6987 254.2492,316.0653 C232.4255,321.2486 214.6451,325.6009 201.7609,328.8014 C195.3188,330.4016 195.9172,330.2412 192.0299,331.2255 " fill="transparent" id="C_0000299757823634161563-to-C_0002059309769421024048" style="stroke:#181818;stroke-width:1;stroke-dasharray:7.0,7.0;"/><polygon fill="#181818" points="186.2134,332.6982,195.9199,334.3668,191.0605,331.4709,193.9563,326.6115,186.2134,332.6982" style="stroke:#181818;stroke-width:1;"/></g><!--link C_0000274252102389770815 to C_0000111389493058790497--><g id="link_C_0000274252102389770815_C_0000111389493058790497"><path codeLine="135" d="M2239.29,361.4069 C2250.5,375.7669 2266.46,392.5269 2285,401.2969 C2305.35,410.9269 2370.72,392.7569 2386,409.2969 C2431.84,458.9169 2432.64,512.4169 2386,561.2969 C2353.1,595.7769 1626.6797,604.7987 1457.5997,606.4387 " fill="transparent" id="C_0000274252102389770815-to-C_0000111389493058790497" style="stroke:#181818;stroke-width:1;stroke-dasharray:7.0,7.0;"/><polygon fill="#181818" points="1451.6,606.4969,1460.6384,610.4094,1456.5998,606.4484,1460.5608,602.4098,1451.6,606.4969" style="stroke:#181818;stroke-width:1;"/></g><!--link C_0000274252102389770815 to C_0000545328881104248214--><g id="link_C_0000274252102389770815_C_0000545328881104248214"><path codeLine="136" d="M2203.27,361.5369 C2181.88,390.9169 2150.6423,433.8468 2129.2523,463.2168 " fill="transparent" id="C_0000274252102389770815-to-C_0000545328881104248214" style="stroke:#181818;stroke-width:1;stroke-dasharray:7.0,7.0;"/><polygon fill="#181818" points="2125.72,468.0669,2134.2518,463.1466,2128.6636,464.0252,2127.785,458.4369,2125.72,468.0669" style="stroke:#181818;stroke-width:1;"/></g><!--link C_0000274252102389770815 to C_0000083721806430512831--><g id="link_C_0000274252102389770815_C_0000083721806430512831"><path codeLine="137" d="M2225.48,361.5369 C2230.36,409.6169 2232.77,512.5569 2173,561.2969 C2154.045,576.7569 1723.0425,573.7544 1292.155,570.8881 C1076.7112,569.455 861.2962,568.0559 697.4303,569.0158 C615.4973,569.4957 546.4516,570.5654 496.7332,572.5153 C471.874,573.4903 451.8467,574.6854 437.4561,576.1369 C430.2609,576.8626 424.4748,577.6525 420.1986,578.5109 C419.1295,578.7256 418.1548,578.9445 417.2761,579.1678 C416.8367,579.2794 422.1824,577.7159 421.7912,577.8297 " fill="transparent" id="C_0000274252102389770815-to-C_0000083721806430512831" style="stroke:#181818;stroke-width:1;stroke-dasharray:7.0,7.0;"/><polygon fill="#181818" points="416.0301,579.5059,425.7892,580.8323,420.831,578.1091,423.5542,573.1509,416.0301,579.5059" style="stroke:#181818;stroke-width:1;"/></g><!--link C_0000480100890906360347 to C_0000111389493058790497--><g id="link_C_0000480100890906360347_C_0000111389493058790497"><path codeLine="138" d="M2355.91,346.9569 C2380.01,358.5769 2413.82,379.3069 2429,409.2969 C2459.5,469.5769 2475.68,512.4669 2429,561.2969 C2394.51,597.3669 1631.4798,605.2013 1457.6898,606.5213 " fill="transparent" id="C_0000480100890906360347-to-C_0000111389493058790497" style="stroke:#181818;stroke-width:1;stroke-dasharray:7.0,7.0;"/><polygon fill="#181818" points="1451.69,606.5669,1460.7201,610.4984,1456.6899,606.5289,1460.6594,602.4986,1451.69,606.5669" style="stroke:#181818;stroke-width:1;"/></g><!--link C_0000480100890906360347 to C_0000545328881104248214--><g id="link_C_0000480100890906360347_C_0000545328881104248214"><path codeLine="139" d="M2315.89,361.3769 C2308.21,374.5069 2297.56,390.0669 2285,401.2969 C2241.89,439.8169 2185.4594,465.1474 2147.1594,479.6874 " fill="transparent" id="C_0000480100890906360347-to-C_0000545328881104248214" style="stroke:#181818;stroke-width:1;stroke-dasharray:7.0,7.0;"/><polygon fill="#181818" points="2141.55,481.8169,2151.3837,482.3622,2146.2245,480.0423,2148.5444,474.883,2141.55,481.8169" style="stroke:#181818;stroke-width:1;"/></g><!--link C_0000480100890906360347 to C_0000083721806430512831--><g id="link_C_0000480100890906360347_C_0000083721806430512831"><path codeLine="140" d="M2326.06,361.4369 C2318.93,410.2869 2295.81,515.8869 2226,561.2969 C2204.88,575.0369 1760.9075,571.7944 1317.4513,569.2381 C1095.7231,567.96 874.1241,566.8534 705.5752,568.127 C621.3007,568.7638 550.2888,569.9957 499.1546,572.0986 C473.5874,573.1501 452.9897,574.4193 438.1883,575.9409 C430.7876,576.7017 424.836,577.5255 420.4369,578.4167 C419.3371,578.6395 418.3343,578.8665 417.4302,579.0978 C416.9781,579.2135 422.3092,577.6451 421.9067,577.7629 " fill="transparent" id="C_0000480100890906360347-to-C_0000083721806430512831" style="stroke:#181818;stroke-width:1;stroke-dasharray:7.0,7.0;"/><polygon fill="#181818" points="416.1482,579.448,425.9093,580.7593,420.9469,578.0437,423.6625,573.0813,416.1482,579.448" style="stroke:#181818;stroke-width:1;"/></g><!--link C_0001569810617781744082 to C_0000316605034920222648--><g id="link_C_0001569810617781744082_C_0000316605034920222648"><path codeLine="141" d="M2532.39,510.3369 C2492.42,526.3169 2424.27,551.0669 2363,561.2969 C2253.6,579.5569 1475.85,577.4869 1365,581.2969 C1249.615,585.2669 1119.9975,591.5744 1018.6663,596.9231 C968.0006,599.5975 924.4066,602.0322 893.1989,603.8152 C877.5951,604.7066 865.0879,605.4352 856.3416,605.9493 C854.155,606.0778 858.193,605.8387 856.487,605.9396 " fill="transparent" id="C_0001569810617781744082-to-C_0000316605034920222648" style="stroke:#181818;stroke-width:1;stroke-dasharray:7.0,7.0;"/><polygon fill="#181818" points="850.4974,606.2939,859.7179,609.7555,855.4887,605.9986,859.2455,601.7694,850.4974,606.2939" style="stroke:#181818;stroke-width:1;"/></g><!--link C_0001569810617781744082 to C_0000083721806430512831--><g id="link_C_0001569810617781744082_C_0000083721806430512831"><path codeLine="142" d="M2532.41,510.4469 C2492.45,526.5269 2424.32,551.3669 2363,561.2969 C2349.625,563.4619 1867,564.0319 1385.1563,566.2756 C1144.2344,567.3975 903.5078,568.9378 721.7305,571.3052 C630.8418,572.4888 554.6904,573.8793 500.6206,575.5275 C473.5857,576.3517 452.0712,577.2402 436.9951,578.1997 C429.457,578.6794 423.5285,579.1768 419.3245,579.6927 C418.2734,579.8217 423.2571,579.0183 422.4234,579.1497 " fill="transparent" id="C_0001569810617781744082-to-C_0000083721806430512831" style="stroke:#181818;stroke-width:1;stroke-dasharray:7.0,7.0;"/><polygon fill="#181818" points="416.4965,580.0832,426.0092,582.6342,421.4356,579.3052,424.7645,574.7316,416.4965,580.0832" style="stroke:#181818;stroke-width:1;"/></g><!--link C_0000183895282854293183 to C_0001569810617781744082--><g id="link_C_0000183895282854293183_C_0001569810617781744082"><path codeLine="143" d="M2567,361.5369 C2567,390.9169 2567,432.6969 2567,462.0669 " fill="transparent" id="C_0000183895282854293183-to-C_0001569810617781744082" style="stroke:#181818;stroke-width:1;stroke-dasharray:7.0,7.0;"/><polygon fill="#181818" points="2567,468.0669,2571,459.0669,2567,463.0669,2563,459.0669,2567,468.0669" style="stroke:#181818;stroke-width:1;"/></g><!--link C_0000183895282854293183 to C_0000111389493058790497--><g id="link_C_0000183895282854293183_C_0000111389493058790497"><path codeLine="144" d="M2581.41,361.3469 C2590.8,375.5069 2604.38,392.0669 2621,401.2969 C2632.76,407.8269 2672.14,399.1769 2681,409.2969 C2725.5,460.1269 2727.9,512.6769 2681,561.2969 C2637.15,606.7569 1656.74,607.268 1457.78,606.898 " fill="transparent" id="C_0000183895282854293183-to-C_0000111389493058790497" style="stroke:#181818;stroke-width:1;stroke-dasharray:7.0,7.0;"/><polygon fill="#181818" points="1451.78,606.8869,1460.7725,610.9036,1456.78,606.8962,1460.7874,602.9036,1451.78,606.8869" style="stroke:#181818;stroke-width:1;"/></g><!--link C_0000183895282854293183 to C_0000083721806430512831--><g id="link_C_0000183895282854293183_C_0000083721806430512831"><path codeLine="145" d="M2591.17,361.5169 C2601.93,374.7269 2613.41,391.7169 2619,409.2969 C2639.47,473.6769 2666.55,513.3169 2619,561.2969 C2597.425,583.0719 2057.2775,578.0569 1516.7225,572.6056 C1246.445,569.88 976.0656,567.0453 770.355,567.3958 C667.4997,567.571 580.8116,568.5425 518.387,570.7221 C487.1746,571.8119 462.0282,573.2037 443.9597,574.949 C434.9255,575.8217 427.6607,576.7827 422.2919,577.8385 C420.9497,578.1025 419.726,578.3724 418.6228,578.6483 C418.0712,578.7862 423.3168,577.2702 422.8257,577.4112 " fill="transparent" id="C_0000183895282854293183-to-C_0000083721806430512831" style="stroke:#181818;stroke-width:1;stroke-dasharray:7.0,7.0;"/><polygon fill="#181818" points="417.0586,579.0667,426.8129,580.4282,421.8645,577.6871,424.6056,572.7387,417.0586,579.0667" style="stroke:#181818;stroke-width:1;"/></g><!--link C_0000183895282854293183 to C_0002059309769421024048--><g id="link_C_0000183895282854293183_C_0002059309769421024048"><path codeLine="146" d="M2541.57,308.1069 C2504.5,271.9869 2431.62,210.9969 2354.5,202.2969 C2314.34,197.7669 939.75,198.6269 899.5,202.2969 C740.96,216.7319 565.225,248.6619 426.8863,277.5594 C357.7169,292.0081 297.8966,305.6987 254.2492,316.0653 C232.4255,321.2486 214.6451,325.6009 201.7609,328.8014 C195.3188,330.4016 195.9172,330.2412 192.0299,331.2255 " fill="transparent" id="C_0000183895282854293183-to-C_0002059309769421024048" style="stroke:#181818;stroke-width:1;stroke-dasharray:7.0,7.0;"/><polygon fill="#181818" points="186.2134,332.6982,195.9199,334.3668,191.0605,331.4709,193.9563,326.6115,186.2134,332.6982" style="stroke:#181818;stroke-width:1;"/></g><!--link C_0001356326401335373458 to C_0001127696046613471321--><g id="link_C_0001356326401335373458_C_0001127696046613471321"><path codeLine="147" d="M2670.24,361.4069 C2662.06,375.9669 2649.61,392.9269 2633,401.2969 C2613.06,411.3469 1046.98,405.3469 1025,409.2969 C972.045,418.8169 915.2575,439.4344 871.2388,457.9194 C849.2294,467.1619 830.4122,475.8713 816.8623,482.3938 C813.4749,484.0244 810.4166,485.5183 807.72,486.8497 C806.3717,487.5155 805.1138,488.1405 803.9504,488.7218 C803.3686,489.0124 808.1719,486.5984 807.6379,486.8667 " fill="transparent" id="C_0001356326401335373458-to-C_0001127696046613471321" style="stroke:#181818;stroke-width:1;stroke-dasharray:7.0,7.0;"/><polygon fill="#181818" points="802.2766,489.5603,812.1144,489.0941,806.7444,487.3156,808.5229,481.9456,802.2766,489.5603" style="stroke:#181818;stroke-width:1;"/></g><!--link C_0001356326401335373458 to C_0000083721806430512831--><g id="link_C_0001356326401335373458_C_0000083721806430512831"><path codeLine="148" d="M2695.59,361.3369 C2718.41,408.1569 2757.03,507.7969 2704,561.2969 C2681.59,583.9069 2120.64,578.5069 1559.2675,572.6544 C1278.5813,569.7281 997.7894,566.6888 784.1566,566.9809 C677.3402,567.127 587.3135,568.106 522.4847,570.3485 C490.0703,571.4697 463.9554,572.9068 445.1909,574.7136 C435.8087,575.617 428.2641,576.6128 422.6885,577.7078 C421.2946,577.9815 420.0237,578.2615 418.878,578.5477 C418.3052,578.6908 423.531,577.1814 423.021,577.3277 " fill="transparent" id="C_0001356326401335373458-to-C_0000083721806430512831" style="stroke:#181818;stroke-width:1;stroke-dasharray:7.0,7.0;"/><polygon fill="#181818" points="417.2535,578.9818,427.0075,580.3456,422.0597,577.6034,424.802,572.6556,417.2535,578.9818" style="stroke:#181818;stroke-width:1;"/></g><!--link C_0001356326401335373458 to C_0000111389493058790497--><g id="link_C_0001356326401335373458_C_0000111389493058790497"><path codeLine="149" d="M2699.27,361.4469 C2710.47,375.8369 2726.43,392.5869 2745,401.2969 C2767.39,411.7969 2839.15,391.1969 2856,409.2969 C2902.02,458.7569 2903.01,512.7769 2856,561.2969 C2830.77,587.3369 1674.1795,603.4893 1457.5595,606.2893 " fill="transparent" id="C_0001356326401335373458-to-C_0000111389493058790497" style="stroke:#181818;stroke-width:1;stroke-dasharray:7.0,7.0;"/><polygon fill="#181818" points="1451.56,606.3669,1460.6109,610.2502,1456.5596,606.3023,1460.5075,602.2509,1451.56,606.3669" style="stroke:#181818;stroke-width:1;"/></g><!--link C_0001356326401335373458 to C_0001569810617781744082--><g id="link_C_0001356326401335373458_C_0001569810617781744082"><path codeLine="150" d="M2663.27,361.5369 C2641.88,390.9169 2610.6423,433.8468 2589.2523,463.2168 " fill="transparent" id="C_0001356326401335373458-to-C_0001569810617781744082" style="stroke:#181818;stroke-width:1;stroke-dasharray:7.0,7.0;"/><polygon fill="#181818" points="2585.72,468.0669,2594.2518,463.1466,2588.6636,464.0252,2587.785,458.4369,2585.72,468.0669" style="stroke:#181818;stroke-width:1;"/></g><!--link C_0000285232181091440649 to C_0000111389493058790497--><g id="link_C_0000285232181091440649_C_0000111389493058790497"><path codeLine="151" d="M2815.51,344.9769 C2842.07,355.7669 2881.46,376.4869 2899,409.2969 C2930.85,468.8769 2946.03,512.7969 2899,561.2969 C2872.96,588.1469 1677.8196,603.685 1457.5096,606.325 " fill="transparent" id="C_0000285232181091440649-to-C_0000111389493058790497" style="stroke:#181818;stroke-width:1;stroke-dasharray:7.0,7.0;"/><polygon fill="#181818" points="1451.51,606.3969,1460.5573,610.2887,1456.5096,606.337,1460.4614,602.2893,1451.51,606.3969" style="stroke:#181818;stroke-width:1;"/></g><!--link C_0000285232181091440649 to C_0001569810617781744082--><g id="link_C_0000285232181091440649_C_0001569810617781744082"><path codeLine="152" d="M2775.89,361.3769 C2768.21,374.5069 2757.56,390.0669 2745,401.2969 C2701.89,439.8169 2645.4594,465.1474 2607.1594,479.6874 " fill="transparent" id="C_0000285232181091440649-to-C_0001569810617781744082" style="stroke:#181818;stroke-width:1;stroke-dasharray:7.0,7.0;"/><polygon fill="#181818" points="2601.55,481.8169,2611.3837,482.3622,2606.2245,480.0423,2608.5444,474.883,2601.55,481.8169" style="stroke:#181818;stroke-width:1;"/></g><!--link C_0000285232181091440649 to C_0000083721806430512831--><g id="link_C_0000285232181091440649_C_0000083721806430512831"><path codeLine="153" d="M2792.87,361.5069 C2798.46,409.5269 2802.37,512.3969 2743,561.2969 C2718.01,581.8819 2147.5175,576.3069 1577.1438,570.8731 C1291.9569,568.1563 1006.7997,565.4747 789.8748,566.1161 C681.4124,566.4368 590.0081,567.5882 524.1872,569.9814 C491.2767,571.178 464.7621,572.685 445.709,574.5537 C436.1825,575.4881 428.5213,576.513 422.8587,577.6347 C421.4431,577.9151 420.1524,578.2016 418.9886,578.4943 C418.4068,578.6406 423.6217,577.1259 423.1036,577.2754 " fill="transparent" id="C_0000285232181091440649-to-C_0000083721806430512831" style="stroke:#181818;stroke-width:1;stroke-dasharray:7.0,7.0;"/><polygon fill="#181818" points="417.3385,578.9378,427.0945,580.2875,422.1428,577.5524,424.8778,572.6007,417.3385,578.9378" style="stroke:#181818;stroke-width:1;"/></g><!--link C_0001260703306241669209 to C_0000316605034920222648--><g id="link_C_0001260703306241669209_C_0000316605034920222648"><path codeLine="154" d="M1048.58,521.5769 C1040.74,535.2769 1029.37,551.2969 1015,561.2969 C982.88,583.6469 940.47,595.0194 905.68,600.8056 C888.285,603.6988 872.795,605.1953 861.4488,605.9692 C858.6122,606.1627 856.0346,606.311 853.751,606.4247 C852.6092,606.4815 851.5409,606.5297 850.5504,606.5705 C850.4266,606.5756 856.2992,606.3397 856.1778,606.3446 " fill="transparent" id="C_0001260703306241669209-to-C_0000316605034920222648" style="stroke:#181818;stroke-width:1;stroke-dasharray:7.0,7.0;"/><polygon fill="#181818" points="850.1827,606.5855,859.336,610.2209,855.1786,606.3847,859.0148,602.2273,850.1827,606.5855" style="stroke:#181818;stroke-width:1;"/></g><!--link C_0001260703306241669209 to C_0000111389493058790497--><g id="link_C_0001260703306241669209_C_0000111389493058790497"><path codeLine="155" d="M1080.35,509.2169 C1102.81,524.1769 1141.47,547.9969 1178,561.2969 C1248.05,586.8069 1329.1528,598.1401 1376.4728,603.1101 " fill="transparent" id="C_0001260703306241669209-to-C_0000111389493058790497" style="stroke:#181818;stroke-width:1;stroke-dasharray:7.0,7.0;"/><polygon fill="#181818" points="1382.44,603.7369,1373.9071,598.8187,1377.4674,603.2146,1373.0714,606.7749,1382.44,603.7369" style="stroke:#181818;stroke-width:1;"/></g><!--link C_0001260703306241669209 to C_0000083721806430512831--><g id="link_C_0001260703306241669209_C_0000083721806430512831"><path codeLine="156" d="M1050.09,521.5369 C1042.5,535.9469 1030.89,552.7069 1015,561.2969 C985.52,577.2419 847.3225,571.1394 710.2188,566.6019 C641.6669,564.3331 573.3884,562.4556 519.1098,563.9209 C491.9705,564.6536 468.3312,566.222 449.9076,568.995 C440.6958,570.3815 432.788,572.0691 426.3986,574.1041 C423.2039,575.1216 420.3887,576.2258 417.98,577.4227 C417.3779,577.7219 422.0266,575.0784 421.4757,575.3893 " fill="transparent" id="C_0001260703306241669209-to-C_0000083721806430512831" style="stroke:#181818;stroke-width:1;stroke-dasharray:7.0,7.0;"/><polygon fill="#181818" points="416.2501,578.3378,426.0541,577.3987,420.6047,575.8807,422.1227,570.4313,416.2501,578.3378" style="stroke:#181818;stroke-width:1;"/></g><!--SRC=[pLhBSjis5DtxApIJHJQD15oyk-YcYsxSPRl9P3GKXSXi94eLgJIj9l_U2ufwa0GWE1x9TXAR9dc40-3USnz8NTHBEygNMRdui5ijHsMsijKcostrWD-_P0ix-fYlLwjr-McKLQDVfmI_69MI2CAu0G80aklHnuzFTRsfVfvC5aNzj9kD4JIPVTd- -rysENtwPBPSpoPihZEIMmuwjt8cBBL4Q05SPRaXcGOZoTnQRIVLDfySnfwirdExdDXojwh6J-yU0VQ71zy_VHhjpqoRrow84iqKK4qaPqHGq8pUdsXpfyUp_dh9qZ19c6AK4o6v02B4VLWYYuOZs-FLWU7tCyUvhRFYWYO5nGt-aSRWYcf9w9rsVLvaYssscdukbhNTEiRCx0_iZgGlQ7yjgg9URy-ySJqD8qP9mu4IuEJsrjfoc6HLFItcqrMssHo8WzYtpte6uO2sh2-CGX0DaXYq3bngJW74lLYtN8u_f-tzbdzxrxFo2rlQROPlLXT6WrOZSJ0k9MLSKGOtzy0pZSa6Fwrs7tQwrrYFs9_VwUt34N6n4PHIGu1fJhNWYZ5cti8CZWy6RljNrP5g_EA44MwqKPnBIjaTsJikNUPSxjtDgsA3QiC0_nhWQ422QQNloFjyESxpTuz23-IcGprV3yoU2IsvKfGmb4kYXRcTsP_7lxXidDNHFjuOhFYkxgmtquIYKA9C4ge0QT_EJjp8pJT7KeYzknpGg-pVErlcTjgg_yNQ2epe4ZGdHYY95iBapQZsMRGHQPDjwo8lDkY2pKAhVV_5U5u2G50KZSOmoeXa1ZEerv_2HPuI2wU42Tm1eeH6MQH20LFtutuAKTboERNVDbjRLSMwdERhihRV3ZCntH1xBK1fYgA8SeCfeb6WDR_ZLlY4ll_Iz2MnIxYaJN5X9BWCc1ZvfYSdKyCQK2KmOSQytW0536v4lSh4cW1tPLAi4_4weGDfLTLGuG2JL2eLYZ0uCHQIt6xREXHQRJZSiqlh4hrM7JhlNQcwCDN0JG4i3oNd370Mhqu_KTnSO47RCaYRIur14TITg1-LhROhz87QJcUxOZblgmOPg1e6MHE6Hi4K5PZeWT9OF8ZNfk_o9ua-4ApNlA8C13IA5SOQt0SXAT5tcaVVjpjFkuxDQLYAUqauEh3251Ph25HZt1rktk1qm9-P3wCAAgv6XM9ICyqeTuPs_-cSGafyX_hnf2k_w_9piUYMUamRRZ1KQcMmQBgXzpTZJzQR6lENnidv_d1li0D5cIztS-kB4zf8fN0ZN6Ldq4zk5oTw9BgjcJRlwhrp9Ke8BXZcMngpBmvS0-MlIZur_GMiaOJIM7KmZgcZk66XrATz4jbjLbQeiYxptPL5fqF3vFFINygrSKcYm7WDQ4HmlrtmUNFldK5- -9pa5sS5mhNyqAUL8fgADpmrbTpHuQvInnoB62mTCKHozHhJQiB9jIa54z_smbFSKoKnGagN_eAhCDNjtAj7mgCAk2dTT-AIXhoDngA4AgMfufneU5NogP96CP0RWK5TemeOXh_UZNQIfF5dIHfX618LKEFAUTTT4Vnkq_7vVU-TbqWQPHXkG69ro30pLemB_OQdbYvfQ7WOVIZwZg7eDlA6-N5aMesaNPjIKDBiTjlD4rpJ5yrGIQ84vf9SthQXsepV7ZasrqF7jrlNBBiy7031f1Jey0GZf80RcTFSpdQBXcbBuVYpeKlsxMy3mlcokAm9SI49OqG2vbtI0BbbrL6uVzEdh9mlsnhSjK2A8yNWCVXu_4lmw3a5DQn07e8dsIUKvxGX0UKXae8ACVGT3ryVAuuAhM4SDMm_9Q0yiJjbh64Hyn0yTBv03SvsKr2XbO-ZWdReEM1EM7dFUMw2RKHHGJlqdBmcp2kA2lgNvxpnfQZGl7odFzVd5KS5rz1pMlD2b8T8obZ1DOoYmYeQOpXqY8VWUKW2mnWgk1g-8ue4NuwXmYllwRWdh64K5LHiJuiyGNkZgA1kn531NOwF5LIsA2heAPxMRe95HL6XDOoZWhhXwTQUezvGc1DGFpPMnEPZgE1gU9grAL5ls7LCsEKeAZYMfrLuFNE8eu8M5KE5zT3J8aiPAuOApok62gwXfzkLm32A2ZACeeAwuMdw9AXe51NEROQTckiPR1GLoMrYg1zY65PiJr_ZkaP5KU7zYgA2aIZACBZodiP6Ydz5K3yuLhYI6bRLALLR31Mk46Ce3yE7zxyTkYzsFle72_ppVrF_QTJs34PapCRg0vCV5fJPJAhyuVtZuv-_dvx_CTkLzUw0FDsaOap6ydy0]--></g></svg>