<svg xmlns="http://www.w3.org/2000/svg" xmlns:xlink="http://www.w3.org/1999/xlink" contentStyleType="text/css" data-diagram-type="SEQUENCE" height="668px" preserveAspectRatio="none" style="width:1095px;height:668px;background:#FFFFFF;" version="1.1" viewBox="0 0 1095 668" width="1095px" zoomAndPan="magnify"><title>main() function sequence diagram</title><defs/><g><text fill="#000000" font-family="sans-serif" font-size="14" font-weight="bold" lengthAdjust="spacing" textLength="271.9199" x="412.5435" y="27.9951">main() function sequence diagram</text><g><title>src/main.cc</title><rect fill="#FFFFFF" height="510.9375" style="stroke:#181818;stroke-width:1;" width="10" x="62.144" y="104.7266"/></g><g><title>cli::cli_handler</title><rect fill="#FFFFFF" height="30" style="stroke:#181818;stroke-width:1;" width="10" x="265.9521" y="133.8594"/></g><g><title>cli::cli_handler</title><rect fill="#FFFFFF" height="14" style="stroke:#181818;stroke-width:1;" width="10" x="265.9521" y="192.9922"/></g><g><title>cli::cli_handler</title><rect fill="#FFFFFF" height="14" style="stroke:#181818;stroke-width:1;" width="10" x="265.9521" y="405.6563"/></g><g><title>common::compilation_database</title><rect fill="#FFFFFF" height="14" style="stroke:#181818;stroke-width:1;" width="10" x="452.521" y="260.2578"/></g><g><title>common::compilation_database</title><rect fill="#FFFFFF" height="14" style="stroke:#181818;stroke-width:1;" width="10" x="452.521" y="303.3906"/></g><g><title>src/common/generators/generators.h</title><rect fill="#FFFFFF" height="30" style="stroke:#181818;stroke-width:1;" width="10" x="719.6855" y="346.5234"/></g><g><title>src/common/generators/generators.h</title><rect fill="#FFFFFF" height="30" style="stroke:#181818;stroke-width:1;" width="10" x="719.6855" y="448.7891"/></g><g><title>config::option&lt;std::string&gt;</title><rect fill="#FFFFFF" height="14" style="stroke:#181818;stroke-width:1;" width="10" x="970.3584" y="522.7266"/></g><g><title>config::option&lt;std::string&gt;</title><rect fill="#FFFFFF" height="14" style="stroke:#181818;stroke-width:1;" width="10" x="970.3584" y="580.6641"/></g><rect fill="transparent" height="380.6719" style="stroke:#000000;stroke-width:1.5;" width="1078.0068" x="10" y="221.9922"/><g><title>src/main.cc</title><rect fill="transparent" height="560.0703" width="8" x="63.144" y="73.5938"/><line style="stroke:#181818;stroke-width:0.5;stroke-dasharray:5.0,5.0;" x1="67" x2="67" y1="73.5938" y2="633.6641"/></g><g><title>cli::cli_handler</title><rect fill="transparent" height="560.0703" width="8" x="266.9521" y="73.5938"/><line style="stroke:#181818;stroke-width:0.5;stroke-dasharray:5.0,5.0;" x1="270.5234" x2="270.5234" y1="73.5938" y2="633.6641"/></g><g><title>common::compilation_database</title><rect fill="transparent" height="560.0703" width="8" x="453.521" y="73.5938"/><line style="stroke:#181818;stroke-width:0.5;stroke-dasharray:5.0,5.0;" x1="457.3809" x2="457.3809" y1="73.5938" y2="633.6641"/></g><g><title>src/common/generators/generators.h</title><rect fill="transparent" height="560.0703" width="8" x="720.6855" y="73.5938"/><line style="stroke:#181818;stroke-width:0.5;stroke-dasharray:5.0,5.0;" x1="724.6611" x2="724.6611" y1="73.5938" y2="633.6641"/></g><g><title>config::option&lt;std::string&gt;</title><rect fill="transparent" height="560.0703" width="8" x="971.3584" y="73.5938"/><line style="stroke:#181818;stroke-width:0.5;stroke-dasharray:5.0,5.0;" x1="974.71" x2="974.71" y1="73.5938" y2="633.6641"/></g><rect fill="#E2E2F0" height="30.2969" rx="2.5" ry="2.5" style="stroke:#181818;stroke-width:0.5;" width="94.2881" x="20" y="42.2969"/><text fill="#000000" font-family="sans-serif" font-size="14" lengthAdjust="spacing" textLength="80.2881" x="27" y="62.292">src/main.cc</text><rect fill="#E2E2F0" height="30.2969" rx="2.5" ry="2.5" style="stroke:#181818;stroke-width:0.5;" width="94.2881" x="20" y="632.6641"/><text fill="#000000" font-family="sans-serif" font-size="14" lengthAdjust="spacing" textLength="80.2881" x="27" y="652.6592">src/main.cc</text><a href="" target="_top" title="Command line options handler" xlink:actuate="onRequest" xlink:href="" xlink:show="new" xlink:title="Command line options handler" xlink:type="simple"><rect fill="#E2E2F0" height="30.2969" rx="2.5" ry="2.5" style="stroke:#181818;stroke-width:0.5;" width="114.8574" x="213.5234" y="42.2969"/><text fill="#000000" font-family="sans-serif" font-size="14" lengthAdjust="spacing" textLength="100.8574" x="220.5234" y="62.292">cli::cli_handler</text><rect fill="#E2E2F0" height="30.2969" rx="2.5" ry="2.5" style="stroke:#181818;stroke-width:0.5;" width="114.8574" x="213.5234" y="632.6641"/><text fill="#000000" font-family="sans-serif" font-size="14" lengthAdjust="spacing" textLength="100.8574" x="220.5234" y="652.6592">cli::cli_handler</text></a><a href="" target="_top" title="Custom compilation database class" xlink:actuate="onRequest" xlink:href="" xlink:show="new" xlink:title="Custom compilation database class" xlink:type="simple"><rect fill="#E2E2F0" height="30.2969" rx="2.5" ry="2.5" style="stroke:#181818;stroke-width:0.5;" width="238.2803" x="338.3809" y="42.2969"/><text fill="#000000" font-family="sans-serif" font-size="14" lengthAdjust="spacing" textLength="224.2803" x="345.3809" y="62.292">common::compilation_database</text><rect fill="#E2E2F0" height="30.2969" rx="2.5" ry="2.5" style="stroke:#181818;stroke-width:0.5;" width="238.2803" x="338.3809" y="632.6641"/><text fill="#000000" font-family="sans-serif" font-size="14" lengthAdjust="spacing" textLength="224.2803" x="345.3809" y="652.6592">common::compilation_database</text></a><rect fill="#E2E2F0" height="30.2969" rx="2.5" ry="2.5" style="stroke:#181818;stroke-width:0.5;" width="276.0488" x="586.6611" y="42.2969"/><text fill="#000000" font-family="sans-serif" font-size="14" lengthAdjust="spacing" textLength="262.0488" x="593.6611" y="62.292">src/common/generators/generators.h</text><rect fill="#E2E2F0" height="30.2969" rx="2.5" ry="2.5" style="stroke:#181818;stroke-width:0.5;" width="276.0488" x="586.6611" y="632.6641"/><text fill="#000000" font-family="sans-serif" font-size="14" lengthAdjust="spacing" textLength="262.0488" x="593.6611" y="652.6592">src/common/generators/generators.h</text><a href="" target="_top" title="option" xlink:actuate="onRequest" xlink:href="" xlink:show="new" xlink:title="option" xlink:type="simple"><rect fill="#E2E2F0" height="30.2969" rx="2.5" ry="2.5" style="stroke:#181818;stroke-width:0.5;" width="205.2969" x="872.71" y="42.2969"/><text fill="#000000" font-family="sans-serif" font-size="14" lengthAdjust="spacing" textLength="191.2969" x="879.71" y="62.292">config::option&lt;std::string&gt;</text><rect fill="#E2E2F0" height="30.2969" rx="2.5" ry="2.5" style="stroke:#181818;stroke-width:0.5;" width="205.2969" x="872.71" y="632.6641"/><text fill="#000000" font-family="sans-serif" font-size="14" lengthAdjust="spacing" textLength="191.2969" x="879.71" y="652.6592">config::option&lt;std::string&gt;</text></a><g><title>src/main.cc</title><rect fill="#FFFFFF" height="510.9375" style="stroke:#181818;stroke-width:1;" width="10" x="62.144" y="104.7266"/></g><g><title>cli::cli_handler</title><rect fill="#FFFFFF" height="30" style="stroke:#181818;stroke-width:1;" width="10" x="265.9521" y="133.8594"/></g><g><title>cli::cli_handler</title><rect fill="#FFFFFF" height="14" style="stroke:#181818;stroke-width:1;" width="10" x="265.9521" y="192.9922"/></g><g><title>cli::cli_handler</title><rect fill="#FFFFFF" height="14" style="stroke:#181818;stroke-width:1;" width="10" x="265.9521" y="405.6563"/></g><g><title>common::compilation_database</title><rect fill="#FFFFFF" height="14" style="stroke:#181818;stroke-width:1;" width="10" x="452.521" y="260.2578"/></g><g><title>common::compilation_database</title><rect fill="#FFFFFF" height="14" style="stroke:#181818;stroke-width:1;" width="10" x="452.521" y="303.3906"/></g><g><title>src/common/generators/generators.h</title><rect fill="#FFFFFF" height="30" style="stroke:#181818;stroke-width:1;" width="10" x="719.6855" y="346.5234"/></g><g><title>src/common/generators/generators.h</title><rect fill="#FFFFFF" height="30" style="stroke:#181818;stroke-width:1;" width="10" x="719.6855" y="448.7891"/></g><g><title>config::option&lt;std::string&gt;</title><rect fill="#FFFFFF" height="14" style="stroke:#181818;stroke-width:1;" width="10" x="970.3584" y="522.7266"/></g><g><title>config::option&lt;std::string&gt;</title><rect fill="#FFFFFF" height="14" style="stroke:#181818;stroke-width:1;" width="10" x="970.3584" y="580.6641"/></g><polygon fill="#181818" points="50.144,100.7266,60.144,104.7266,50.144,108.7266,54.144,104.7266" style="stroke:#181818;stroke-width:1;"/><line style="stroke:#181818;stroke-width:1;" x1="0" x2="56.144" y1="104.7266" y2="104.7266"/><text fill="#000000" font-family="sans-serif" font-size="13" lengthAdjust="spacing" textLength="42.6245" x="7" y="99.6606">main()</text><a href="" target="_top" title="" xlink:actuate="onRequest" xlink:href="" xlink:show="new" xlink:title="" xlink:type="simple"><polygon fill="#181818" points="253.9521,129.8594,263.9521,133.8594,253.9521,137.8594,257.9521,133.8594" style="stroke:#181818;stroke-width:1;"/><line style="stroke:#181818;stroke-width:1;" x1="72.144" x2="259.9521" y1="133.8594" y2="133.8594"/><text fill="#000000" font-family="sans-serif" font-size="13" lengthAdjust="spacing" textLength="80.666" x="79.144" y="128.7935">cli_handler()</text></a><a href="" target="_top" title="" xlink:actuate="onRequest" xlink:href="" xlink:show="new" xlink:title="" xlink:type="simple"><polygon fill="#181818" points="253.9521,188.9922,263.9521,192.9922,253.9521,196.9922,257.9521,192.9922" style="stroke:#181818;stroke-width:1;"/><line style="stroke:#181818;stroke-width:1;" x1="72.144" x2="259.9521" y1="192.9922" y2="192.9922"/><text fill="#000000" font-family="sans-serif" font-size="13" lengthAdjust="spacing" textLength="108.8306" x="79.144" y="187.9263">handle_options()</text></a><polygon fill="#181818" points="83.144,202.9922,73.144,206.9922,83.144,210.9922,79.144,206.9922" style="stroke:#181818;stroke-width:1;"/><line style="stroke:#181818;stroke-width:1;stroke-dasharray:2.0,2.0;" x1="77.144" x2="269.9521" y1="206.9922" y2="206.9922"/><path d="M10,221.9922 L76.0996,221.9922 L76.0996,229.125 L66.0996,239.125 L10,239.125 L10,221.9922 " fill="#EEEEEE" style="stroke:#000000;stroke-width:1.5;"/><rect fill="transparent" height="380.6719" style="stroke:#000000;stroke-width:1.5;" width="1078.0068" x="10" y="221.9922"/><text fill="#000000" font-family="sans-serif" font-size="13" font-weight="bold" lengthAdjust="spacing" textLength="21.0996" x="25" y="235.0591">try</text><a href="" target="_top" title="" xlink:actuate="onRequest" xlink:href="" xlink:show="new" xlink:title="" xlink:type="simple"><polygon fill="#181818" points="440.521,256.2578,450.521,260.2578,440.521,264.2578,444.521,260.2578" style="stroke:#181818;stroke-width:1;"/><line style="stroke:#181818;stroke-width:1;" x1="72.144" x2="446.521" y1="260.2578" y2="260.2578"/><text fill="#000000" font-family="sans-serif" font-size="13" lengthAdjust="spacing" text-decoration="underline" textLength="189.4712" x="79.144" y="255.1919">auto_detect_from_directory()</text></a><polygon fill="#181818" points="83.144,270.2578,73.144,274.2578,83.144,278.2578,79.144,274.2578" style="stroke:#181818;stroke-width:1;"/><line style="stroke:#181818;stroke-width:1;stroke-dasharray:2.0,2.0;" x1="77.144" x2="456.521" y1="274.2578" y2="274.2578"/><a href="" target="_top" title="" xlink:actuate="onRequest" xlink:href="" xlink:show="new" xlink:title="" xlink:type="simple"><polygon fill="#181818" points="440.521,299.3906,450.521,303.3906,440.521,307.3906,444.521,303.3906" style="stroke:#181818;stroke-width:1;"/><line style="stroke:#181818;stroke-width:1;" x1="72.144" x2="446.521" y1="303.3906" y2="303.3906"/><text fill="#000000" font-family="sans-serif" font-size="13" lengthAdjust="spacing" textLength="116.4224" x="79.144" y="298.3247">getAllFiles() const</text></a><polygon fill="#181818" points="83.144,313.3906,73.144,317.3906,83.144,321.3906,79.144,317.3906" style="stroke:#181818;stroke-width:1;"/><line style="stroke:#181818;stroke-width:1;stroke-dasharray:2.0,2.0;" x1="77.144" x2="456.521" y1="317.3906" y2="317.3906"/><a href="" target="_top" title="" xlink:actuate="onRequest" xlink:href="" xlink:show="new" xlink:title="" xlink:type="simple"><polygon fill="#181818" points="707.6855,342.5234,717.6855,346.5234,707.6855,350.5234,711.6855,346.5234" style="stroke:#181818;stroke-width:1;"/><line style="stroke:#181818;stroke-width:1;" x1="72.144" x2="713.6855" y1="346.5234" y2="346.5234"/><text fill="#000000" font-family="sans-serif" font-size="13" lengthAdjust="spacing" textLength="241.3887" x="79.144" y="341.4575">find_translation_units_for_diagrams()</text></a><a href="" target="_top" title="" xlink:actuate="onRequest" xlink:href="" xlink:show="new" xlink:title="" xlink:type="simple"><polygon fill="#181818" points="253.9521,401.6563,263.9521,405.6563,253.9521,409.6563,257.9521,405.6563" style="stroke:#181818;stroke-width:1;"/><line style="stroke:#181818;stroke-width:1;" x1="72.144" x2="259.9521" y1="405.6563" y2="405.6563"/><text fill="#000000" font-family="sans-serif" font-size="13" lengthAdjust="spacing" textLength="174.8081" x="79.144" y="400.5903">get_runtime_config() const</text></a><polygon fill="#181818" points="83.144,415.6563,73.144,419.6563,83.144,423.6563,79.144,419.6563" style="stroke:#181818;stroke-width:1;"/><line style="stroke:#181818;stroke-width:1;stroke-dasharray:2.0,2.0;" x1="77.144" x2="269.9521" y1="419.6563" y2="419.6563"/><a href="" target="_top" title="" xlink:actuate="onRequest" xlink:href="" xlink:show="new" xlink:title="" xlink:type="simple"><polygon fill="#181818" points="707.6855,444.7891,717.6855,448.7891,707.6855,452.7891,711.6855,448.7891" style="stroke:#181818;stroke-width:1;"/><line style="stroke:#181818;stroke-width:1;" x1="72.144" x2="713.6855" y1="448.7891" y2="448.7891"/><text fill="#000000" font-family="sans-serif" font-size="13" lengthAdjust="spacing" textLength="136.3667" x="79.144" y="443.7231">generate_diagrams()</text></a><line style="stroke:#000000;stroke-width:1;stroke-dasharray:2.0,2.0;" x1="10" x2="1088.0068" y1="487.7891" y2="487.7891"/><text fill="#000000" font-family="sans-serif" font-size="11" font-weight="bold" lengthAdjust="spacing" textLength="235.936" x="15" y="497.9995">[error::compilation_database_error &amp;]</text><a href="" target="_top" title="" xlink:actuate="onRequest" xlink:href="" xlink:show="new" xlink:title="" xlink:type="simple"><polygon fill="#181818" points="958.3584,518.7266,968.3584,522.7266,958.3584,526.7266,962.3584,522.7266" style="stroke:#181818;stroke-width:1;"/><line style="stroke:#181818;stroke-width:1;" x1="72.144" x2="964.3584" y1="522.7266" y2="522.7266"/><text fill="#000000" font-family="sans-serif" font-size="13" lengthAdjust="spacing" textLength="76.1973" x="79.144" y="517.6606">operator()()</text></a><polygon fill="#181818" points="83.144,532.7266,73.144,536.7266,83.144,540.7266,79.144,536.7266" style="stroke:#181818;stroke-width:1;"/><line style="stroke:#181818;stroke-width:1;stroke-dasharray:2.0,2.0;" x1="77.144" x2="974.3584" y1="536.7266" y2="536.7266"/><line style="stroke:#000000;stroke-width:1;stroke-dasharray:2.0,2.0;" x1="10" x2="1088.0068" y1="545.7266" y2="545.7266"/><text fill="#000000" font-family="sans-serif" font-size="11" font-weight="bold" lengthAdjust="spacing" textLength="203.2744" x="15" y="555.937">[error::query_driver_no_paths &amp;]</text><a href="" target="_top" title="" xlink:actuate="onRequest" xlink:href="" xlink:show="new" xlink:title="" xlink:type="simple"><polygon fill="#181818" points="958.3584,576.6641,968.3584,580.6641,958.3584,584.6641,962.3584,580.6641" style="stroke:#181818;stroke-width:1;"/><line style="stroke:#181818;stroke-width:1;" x1="72.144" x2="964.3584" y1="580.6641" y2="580.6641"/><text fill="#000000" font-family="sans-serif" font-size="13" lengthAdjust="spacing" textLength="76.1973" x="79.144" y="575.5981">operator()()</text></a><polygon fill="#181818" points="83.144,590.6641,73.144,594.6641,83.144,598.6641,79.144,594.6641" style="stroke:#181818;stroke-width:1;"/><line style="stroke:#181818;stroke-width:1;stroke-dasharray:2.0,2.0;" x1="77.144" x2="974.3584" y1="594.6641" y2="594.6641"/><polygon fill="#181818" points="11,611.6641,1,615.6641,11,619.6641,7,615.6641" style="stroke:#181818;stroke-width:1;"/><line style="stroke:#181818;stroke-width:1;stroke-dasharray:2.0,2.0;" x1="5" x2="66.144" y1="615.6641" y2="615.6641"/><!--SRC=[tLPDQzmm4BtxLuWScbssTYH_hmc14cWlwJ6zB45eRQrNO4kk9ASDfVdj7TTEiitQwIOfBVIoYBNcpPltPiQsmbOSrKp8sHnjMfbReIGo_7FBPSvH8LYfMUqqJ5kHYuP9YuwCpa-w22_FZn0pw9nYZCaonK4IHzYF4fAI18UfitBF9X-YRCZgCCXvpIoVnlabUrw9B8CVkcMogBX-eE3xIp-CKpyDu9H4GUHZj5fzErTr3LTH9IH7gkaAD6W8_dvrvKmol6C_WGknKCGEaxrQHWATWl_-pkiOzMpeKEb1f2P1tISSFAYKKgksGLRVF38HF54IV5Hr8ohMCQK5ispD37ym54VBXE0mZ9880oO9qzxGrbXLevrOT1SBTZ1Z3d9r0hpNa5BMMaKBRdbkwKQhcXP2mrdfczcSqaUQZc0vaqcUfUaayejBAxbzLrNlHSMXDq14QUm_hMPljVIzSL9ooJK3mStEqTlkZZka2eF4ZvSnJY6b7nyoENj13z9iX2oerKoQeILRAQoX6wNfi0Z7nccVnVvWl8Zf4pCE9bBTIYjgJi72ZIWdlFoxq_uw-GUR-PyNcrUm6hZMIe-l7Fhp6NhpU4brmcPPlqbFZIsop5WjP7csiwFYq8-30FgQf0a1DPAqgwYFEMmHZIFqcgYcx_pPV4-CaJXd4l1vOpg2l2iXV1pe6rfeSSqrbOesp6uDgFU_b2eBPtNgkeUZZDrnZZyC_LoWBy9kkrUJBDsshjuYqCrqhotiXHvs4xTCMRmEbubpV77nwUFzuyirZ7ZR1zx_IM8FUp6QBHRGw066VOf3E2MB95zl2FEZ9ObybzpohmsvlRj2OXyuUGH7yny0]--></g></svg>