<svg xmlns="http://www.w3.org/2000/svg" xmlns:xlink="http://www.w3.org/1999/xlink" contentStyleType="text/css" data-diagram-type="CLASS" height="324px" preserveAspectRatio="none" style="width:505px;height:324px;background:#FFFFFF;" version="1.1" viewBox="0 0 505 324" width="505px" zoomAndPan="magnify"><title>Nested trait model class hierarchy</title><defs/><g><text fill="#000000" font-family="sans-serif" font-size="14" font-weight="bold" lengthAdjust="spacing" textLength="272.4258" x="109.2871" y="22.9951">Nested trait model class hierarchy</text><!--cluster C_0002532840279361781187--><g id="cluster_C_0002532840279361781187"><path d="M8.5,43.2969 L76.1777,43.2969 A3.75,3.75 0 0 1 78.6777,45.7969 L85.6777,65.5938 L495.5,65.5938 A2.5,2.5 0 0 1 498,68.0938 L498,314.7969 A2.5,2.5 0 0 1 495.5,317.2969 L8.5,317.2969 A2.5,2.5 0 0 1 6,314.7969 L6,45.7969 A2.5,2.5 0 0 1 8.5,43.2969 " fill="transparent" style="stroke:#000000;stroke-width:1.5;"/><line style="stroke:#000000;stroke-width:1.5;" x1="6" x2="85.6777" y1="65.5938" y2="65.5938"/><text fill="#000000" font-family="sans-serif" font-size="14" font-weight="bold" lengthAdjust="spacing" textLength="66.6777" x="10" y="58.292">common</text></g><!--cluster C_0000669774451444102653--><g id="cluster_C_0000669774451444102653"><path d="M32.5,86.2969 L82.0215,86.2969 A3.75,3.75 0 0 1 84.5215,88.7969 L91.5215,108.5938 L471.5,108.5938 A2.5,2.5 0 0 1 474,111.0938 L474,290.7969 A2.5,2.5 0 0 1 471.5,293.2969 L32.5,293.2969 A2.5,2.5 0 0 1 30,290.7969 L30,88.7969 A2.5,2.5 0 0 1 32.5,86.2969 " fill="transparent" style="stroke:#000000;stroke-width:1.5;"/><line style="stroke:#000000;stroke-width:1.5;" x1="30" x2="91.5215" y1="108.5938" y2="108.5938"/><text fill="#000000" font-family="sans-serif" font-size="14" font-weight="bold" lengthAdjust="spacing" textLength="48.5215" x="34" y="101.292">model</text></g><!--class C_0007129669985754476498--><a href="classclanguml_1_1common_1_1model_1_1nested__trait.html" target="_top" title="Base class for elements nested in the diagram." xlink:actuate="onRequest" xlink:href="classclanguml_1_1common_1_1model_1_1nested__trait.html" xlink:show="new" xlink:title="Base class for elements nested in the diagram." xlink:type="simple"><g id="elem_C_0007129669985754476498"><rect codeLine="5" fill="#F1F1F1" height="48" id="C_0007129669985754476498" rx="2.5" ry="2.5" style="stroke:#181818;stroke-width:0.5;" width="158.0176" x="109" y="229.2969"/><ellipse cx="124" cy="245.2969" fill="#ADD1B2" rx="11" ry="11" style="stroke:#181818;stroke-width:1;"/><path d="M126.9688,250.9375 Q126.3906,251.2344 125.75,251.375 Q125.1094,251.5313 124.4063,251.5313 Q121.9063,251.5313 120.5781,249.8906 Q119.2656,248.2344 119.2656,245.1094 Q119.2656,241.9844 120.5781,240.3281 Q121.9063,238.6719 124.4063,238.6719 Q125.1094,238.6719 125.75,238.8281 Q126.4063,238.9844 126.9688,239.2813 L126.9688,242 Q126.3438,241.4219 125.75,241.1563 Q125.1563,240.875 124.5313,240.875 Q123.1875,240.875 122.5,241.9531 Q121.8125,243.0156 121.8125,245.1094 Q121.8125,247.2031 122.5,248.2813 Q123.1875,249.3438 124.5313,249.3438 Q125.1563,249.3438 125.75,249.0781 Q126.3438,248.7969 126.9688,248.2188 L126.9688,250.9375 Z " fill="#000000"/><text fill="#000000" font-family="sans-serif" font-size="14" lengthAdjust="spacing" textLength="83.9727" x="138" y="250.1436">nested_trait</text><rect fill="#FFFFFF" height="15.9688" style="stroke:#181818;stroke-width:1;stroke-dasharray:2.0,2.0;" width="40.0449" x="229.9727" y="226.2969"/><text fill="#000000" font-family="sans-serif" font-size="12" font-style="italic" lengthAdjust="spacing" textLength="38.0449" x="230.9727" y="238.4355">T,Path</text><line style="stroke:#181818;stroke-width:0.5;" x1="110" x2="266.0176" y1="261.2969" y2="261.2969"/><line style="stroke:#181818;stroke-width:0.5;" x1="110" x2="266.0176" y1="269.2969" y2="269.2969"/></g></a><!--class C_0015066935078142509054--><a href="classclanguml_1_1common_1_1model_1_1nested__trait.html" target="_top" title="nested_trait" xlink:actuate="onRequest" xlink:href="classclanguml_1_1common_1_1model_1_1nested__trait.html" xlink:show="new" xlink:title="nested_trait" xlink:type="simple"><g id="elem_C_0015066935078142509054"><rect codeLine="9" fill="#F1F1F1" height="48" id="C_0015066935078142509054" rx="2.5" ry="2.5" style="stroke:#181818;stroke-width:0.5;" width="412.1563" x="46" y="121.2969"/><ellipse cx="61" cy="137.2969" fill="#ADD1B2" rx="11" ry="11" style="stroke:#181818;stroke-width:1;"/><path d="M63.9688,142.9375 Q63.3906,143.2344 62.75,143.375 Q62.1094,143.5313 61.4063,143.5313 Q58.9063,143.5313 57.5781,141.8906 Q56.2656,140.2344 56.2656,137.1094 Q56.2656,133.9844 57.5781,132.3281 Q58.9063,130.6719 61.4063,130.6719 Q62.1094,130.6719 62.75,130.8281 Q63.4063,130.9844 63.9688,131.2813 L63.9688,134 Q63.3438,133.4219 62.75,133.1563 Q62.1563,132.875 61.5313,132.875 Q60.1875,132.875 59.5,133.9531 Q58.8125,135.0156 58.8125,137.1094 Q58.8125,139.2031 59.5,140.2813 Q60.1875,141.3438 61.5313,141.3438 Q62.1563,141.3438 62.75,141.0781 Q63.3438,140.7969 63.9688,140.2188 L63.9688,142.9375 Z " fill="#000000"/><text fill="#000000" font-family="sans-serif" font-size="14" lengthAdjust="spacing" textLength="83.9727" x="75" y="142.1436">nested_trait</text><rect fill="#FFFFFF" height="15.9688" style="stroke:#181818;stroke-width:1;stroke-dasharray:2.0,2.0;" width="294.1836" x="166.9727" y="118.2969"/><text fill="#000000" font-family="sans-serif" font-size="12" font-style="italic" lengthAdjust="spacing" textLength="292.1836" x="167.9727" y="130.4355">common::model::element,common::model::path</text><line style="stroke:#181818;stroke-width:0.5;" x1="47" x2="457.1563" y1="153.2969" y2="153.2969"/><line style="stroke:#181818;stroke-width:0.5;" x1="47" x2="457.1563" y1="161.2969" y2="161.2969"/></g></a><!--class C_0017146293478645494837--><a href="classclanguml_1_1common_1_1model_1_1package.html" target="_top" title="Diagram element representing namespace or directory package" xlink:actuate="onRequest" xlink:href="classclanguml_1_1common_1_1model_1_1package.html" xlink:show="new" xlink:title="Diagram element representing namespace or directory package" xlink:type="simple"><g id="elem_C_0017146293478645494837"><rect codeLine="13" fill="#F1F1F1" height="48" id="C_0017146293478645494837" rx="2.5" ry="2.5" style="stroke:#181818;stroke-width:0.5;" width="91.3496" x="302.5" y="229.2969"/><ellipse cx="317.5" cy="245.2969" fill="#ADD1B2" rx="11" ry="11" style="stroke:#181818;stroke-width:1;"/><path d="M320.4688,250.9375 Q319.8906,251.2344 319.25,251.375 Q318.6094,251.5313 317.9063,251.5313 Q315.4063,251.5313 314.0781,249.8906 Q312.7656,248.2344 312.7656,245.1094 Q312.7656,241.9844 314.0781,240.3281 Q315.4063,238.6719 317.9063,238.6719 Q318.6094,238.6719 319.25,238.8281 Q319.9063,238.9844 320.4688,239.2813 L320.4688,242 Q319.8438,241.4219 319.25,241.1563 Q318.6563,240.875 318.0313,240.875 Q316.6875,240.875 316,241.9531 Q315.3125,243.0156 315.3125,245.1094 Q315.3125,247.2031 316,248.2813 Q316.6875,249.3438 318.0313,249.3438 Q318.6563,249.3438 319.25,249.0781 Q319.8438,248.7969 320.4688,248.2188 L320.4688,250.9375 Z " fill="#000000"/><text fill="#000000" font-family="sans-serif" font-size="14" lengthAdjust="spacing" textLength="59.3496" x="331.5" y="250.1436">package</text><line style="stroke:#181818;stroke-width:0.5;" x1="303.5" x2="392.8496" y1="261.2969" y2="261.2969"/><line style="stroke:#181818;stroke-width:0.5;" x1="303.5" x2="392.8496" y1="269.2969" y2="269.2969"/></g></a><!--link C_0015066935078142509054 to C_0007129669985754476498--><g id="link_C_0015066935078142509054_C_0007129669985754476498"><path codeLine="18" d="M238.11,169.2969 C227.45,186.9569 222.093,195.8274 211.383,213.5674 " fill="transparent" id="C_0015066935078142509054-to-C_0007129669985754476498" style="stroke:#181818;stroke-width:1;stroke-dasharray:7.0,7.0;"/><polygon fill="transparent" points="202.08,228.9769,216.5196,216.6684,206.2465,210.4663,202.08,228.9769" style="stroke:#181818;stroke-width:1;"/></g><!--reverse link C_0015066935078142509054 to C_0017146293478645494837--><g id="link_C_0015066935078142509054_C_0017146293478645494837"><path codeLine="19" d="M284.9114,182.64 C300.9014,200.3 310.81,211.2369 326.88,228.9769 " fill="transparent" id="C_0015066935078142509054-backto-C_0017146293478645494837" style="stroke:#181818;stroke-width:1;"/><polygon fill="transparent" points="272.83,169.2969,280.4637,186.6672,289.3591,178.6129,272.83,169.2969" style="stroke:#181818;stroke-width:1;"/></g><!--SRC=[dLDDQ-Cm4BtdLmozf0k9aMp9iaBfOLlefLjwsFOIWj4wix5OMmwIiajf-zzN_cYIRMCeYq4CCszctdkIlVOLmXqwZslmLcaFTRF62efAEGUbHgjiKJvDjghufJO8owAfwyQiG3cuoWaXCK_YZ95Oo2Ib8gCq4_1yW7VJ3cYIfb88nZXbZ54Ifpm9w7xPcUbev1sDY- -pU-NBoxDzgw2n3Dqouu8p9b8ciw5nh0pBPGS8XzdiwYgdEUtfjr77h0s6jVtUgFHrzVnLEHmi-DbOm0fhDDv13mLjm9S8QwqsLjNHwseLHEJvvFMaadxbOj4jN2o6ORDtwUq_QYbldKeu2Owoc1D9E3jIUwhy_sgFsNxKCbpbWPgWB8rbmaIMCiuaon9nJEr4-PFKXaqzgUlUt3VlmUBMeWkHDXimgaONu0ZXTjRQOk4R-mJ3W2CDxJTgM1IzN8w_hT6sYvVvVDo9oVG6JVXhsdVoH_iIEj7pe7e6lz4wtHWWKHhHoVJszl7RFlVmOsVyhaVlarH6DA9mJdTTbNxv2m00]--></g></svg>