<svg xmlns="http://www.w3.org/2000/svg" xmlns:xlink="http://www.w3.org/1999/xlink" contentStyleType="text/css" data-diagram-type="CLASS" height="423px" preserveAspectRatio="none" style="width:732px;height:423px;background:#FFFFFF;" version="1.1" viewBox="0 0 732 423" width="732px" zoomAndPan="magnify"><title>Package diagram class hierarchy</title><defs/><g><text fill="#000000" font-family="sans-serif" font-size="14" font-weight="bold" lengthAdjust="spacing" textLength="260.251" x="228.9209" y="22.9951">Package diagram class hierarchy</text><!--class C_0001117102382624673118--><a href="classclanguml_1_1common_1_1model_1_1decorated__element.html" target="_top" title="Base class for decorated diagram elements" xlink:actuate="onRequest" xlink:href="classclanguml_1_1common_1_1model_1_1decorated__element.html" xlink:show="new" xlink:title="Base class for decorated diagram elements" xlink:type="simple"><g id="elem_C_0001117102382624673118"><rect codeLine="3" fill="#F1F1F1" height="48" id="C_0001117102382624673118" rx="2.5" ry="2.5" style="stroke:#181818;stroke-width:0.5;" width="291.2529" x="7" y="44.2969"/><ellipse cx="22" cy="60.2969" fill="#ADD1B2" rx="11" ry="11" style="stroke:#181818;stroke-width:1;"/><path d="M24.9688,65.9375 Q24.3906,66.2344 23.75,66.375 Q23.1094,66.5313 22.4063,66.5313 Q19.9063,66.5313 18.5781,64.8906 Q17.2656,63.2344 17.2656,60.1094 Q17.2656,56.9844 18.5781,55.3281 Q19.9063,53.6719 22.4063,53.6719 Q23.1094,53.6719 23.75,53.8281 Q24.4063,53.9844 24.9688,54.2813 L24.9688,57 Q24.3438,56.4219 23.75,56.1563 Q23.1563,55.875 22.5313,55.875 Q21.1875,55.875 20.5,56.9531 Q19.8125,58.0156 19.8125,60.1094 Q19.8125,62.2031 20.5,63.2813 Q21.1875,64.3438 22.5313,64.3438 Q23.1563,64.3438 23.75,64.0781 Q24.3438,63.7969 24.9688,63.2188 L24.9688,65.9375 Z " fill="#000000"/><text fill="#000000" font-family="sans-serif" font-size="14" lengthAdjust="spacing" textLength="259.2529" x="36" y="65.1436">common::model::decorated_element</text><line style="stroke:#181818;stroke-width:0.5;" x1="8" x2="297.2529" y1="76.2969" y2="76.2969"/><line style="stroke:#181818;stroke-width:0.5;" x1="8" x2="297.2529" y1="84.2969" y2="84.2969"/></g></a><!--class C_0002077846075979426940--><a href="classclanguml_1_1common_1_1model_1_1stylable__element.html" target="_top" title="Diagram elements to which style can be applied." xlink:actuate="onRequest" xlink:href="classclanguml_1_1common_1_1model_1_1stylable__element.html" xlink:show="new" xlink:title="Diagram elements to which style can be applied." xlink:type="simple"><g id="elem_C_0002077846075979426940"><rect codeLine="7" fill="#F1F1F1" height="48" id="C_0002077846075979426940" rx="2.5" ry="2.5" style="stroke:#181818;stroke-width:0.5;" width="275.0928" x="450" y="260.2969"/><ellipse cx="465" cy="276.2969" fill="#ADD1B2" rx="11" ry="11" style="stroke:#181818;stroke-width:1;"/><path d="M467.9688,281.9375 Q467.3906,282.2344 466.75,282.375 Q466.1094,282.5313 465.4063,282.5313 Q462.9063,282.5313 461.5781,280.8906 Q460.2656,279.2344 460.2656,276.1094 Q460.2656,272.9844 461.5781,271.3281 Q462.9063,269.6719 465.4063,269.6719 Q466.1094,269.6719 466.75,269.8281 Q467.4063,269.9844 467.9688,270.2813 L467.9688,273 Q467.3438,272.4219 466.75,272.1563 Q466.1563,271.875 465.5313,271.875 Q464.1875,271.875 463.5,272.9531 Q462.8125,274.0156 462.8125,276.1094 Q462.8125,278.2031 463.5,279.2813 Q464.1875,280.3438 465.5313,280.3438 Q466.1563,280.3438 466.75,280.0781 Q467.3438,279.7969 467.9688,279.2188 L467.9688,281.9375 Z " fill="#000000"/><text fill="#000000" font-family="sans-serif" font-size="14" lengthAdjust="spacing" textLength="243.0928" x="479" y="281.1436">common::model::stylable_element</text><line style="stroke:#181818;stroke-width:0.5;" x1="451" x2="724.0928" y1="292.2969" y2="292.2969"/><line style="stroke:#181818;stroke-width:0.5;" x1="451" x2="724.0928" y1="300.2969" y2="300.2969"/></g></a><!--class C_0000895261582183440230--><a href="classclanguml_1_1common_1_1model_1_1source__location.html" target="_top" title="Base class of all diagram elements that have source location." xlink:actuate="onRequest" xlink:href="classclanguml_1_1common_1_1model_1_1source__location.html" xlink:show="new" xlink:title="Base class of all diagram elements that have source location." xlink:type="simple"><g id="elem_C_0000895261582183440230"><rect codeLine="11" fill="#F1F1F1" height="48" id="C_0000895261582183440230" rx="2.5" ry="2.5" style="stroke:#181818;stroke-width:0.5;" width="264.7842" x="333" y="44.2969"/><ellipse cx="348" cy="60.2969" fill="#ADD1B2" rx="11" ry="11" style="stroke:#181818;stroke-width:1;"/><path d="M350.9688,65.9375 Q350.3906,66.2344 349.75,66.375 Q349.1094,66.5313 348.4063,66.5313 Q345.9063,66.5313 344.5781,64.8906 Q343.2656,63.2344 343.2656,60.1094 Q343.2656,56.9844 344.5781,55.3281 Q345.9063,53.6719 348.4063,53.6719 Q349.1094,53.6719 349.75,53.8281 Q350.4063,53.9844 350.9688,54.2813 L350.9688,57 Q350.3438,56.4219 349.75,56.1563 Q349.1563,55.875 348.5313,55.875 Q347.1875,55.875 346.5,56.9531 Q345.8125,58.0156 345.8125,60.1094 Q345.8125,62.2031 346.5,63.2813 Q347.1875,64.3438 348.5313,64.3438 Q349.1563,64.3438 349.75,64.0781 Q350.3438,63.7969 350.9688,63.2188 L350.9688,65.9375 Z " fill="#000000"/><text fill="#000000" font-family="sans-serif" font-size="14" lengthAdjust="spacing" textLength="232.7842" x="362" y="65.1436">common::model::source_location</text><line style="stroke:#181818;stroke-width:0.5;" x1="334" x2="596.7842" y1="76.2969" y2="76.2969"/><line style="stroke:#181818;stroke-width:0.5;" x1="334" x2="596.7842" y1="84.2969" y2="84.2969"/></g></a><!--class C_0001073500714379115414--><a href="classclanguml_1_1common_1_1model_1_1diagram__element.html" target="_top" title="Base class for standalone diagram elements." xlink:actuate="onRequest" xlink:href="classclanguml_1_1common_1_1model_1_1diagram__element.html" xlink:show="new" xlink:title="Base class for standalone diagram elements." xlink:type="simple"><g id="elem_C_0001073500714379115414"><rect codeLine="15" fill="#F1F1F1" height="48" id="C_0001073500714379115414" rx="2.5" ry="2.5" style="stroke:#181818;stroke-width:0.5;" width="278.3809" x="169.5" y="152.2969"/><ellipse cx="184.5" cy="168.2969" fill="#ADD1B2" rx="11" ry="11" style="stroke:#181818;stroke-width:1;"/><path d="M187.4688,173.9375 Q186.8906,174.2344 186.25,174.375 Q185.6094,174.5313 184.9063,174.5313 Q182.4063,174.5313 181.0781,172.8906 Q179.7656,171.2344 179.7656,168.1094 Q179.7656,164.9844 181.0781,163.3281 Q182.4063,161.6719 184.9063,161.6719 Q185.6094,161.6719 186.25,161.8281 Q186.9063,161.9844 187.4688,162.2813 L187.4688,165 Q186.8438,164.4219 186.25,164.1563 Q185.6563,163.875 185.0313,163.875 Q183.6875,163.875 183,164.9531 Q182.3125,166.0156 182.3125,168.1094 Q182.3125,170.2031 183,171.2813 Q183.6875,172.3438 185.0313,172.3438 Q185.6563,172.3438 186.25,172.0781 Q186.8438,171.7969 187.4688,171.2188 L187.4688,173.9375 Z " fill="#000000"/><text fill="#000000" font-family="sans-serif" font-size="14" lengthAdjust="spacing" textLength="246.3809" x="198.5" y="173.1436">common::model::diagram_element</text><line style="stroke:#181818;stroke-width:0.5;" x1="170.5" x2="446.8809" y1="184.2969" y2="184.2969"/><line style="stroke:#181818;stroke-width:0.5;" x1="170.5" x2="446.8809" y1="192.2969" y2="192.2969"/></g></a><!--class C_0002069520381434407937--><a href="classclanguml_1_1common_1_1model_1_1element.html" target="_top" title="Base class for any element qualified by namespace." xlink:actuate="onRequest" xlink:href="classclanguml_1_1common_1_1model_1_1element.html" xlink:show="new" xlink:title="Base class for any element qualified by namespace." xlink:type="simple"><g id="elem_C_0002069520381434407937"><rect codeLine="19" fill="#F1F1F1" height="48" id="C_0002069520381434407937" rx="2.5" ry="2.5" style="stroke:#181818;stroke-width:0.5;" width="213.166" x="202" y="260.2969"/><ellipse cx="217" cy="276.2969" fill="#ADD1B2" rx="11" ry="11" style="stroke:#181818;stroke-width:1;"/><path d="M219.9688,281.9375 Q219.3906,282.2344 218.75,282.375 Q218.1094,282.5313 217.4063,282.5313 Q214.9063,282.5313 213.5781,280.8906 Q212.2656,279.2344 212.2656,276.1094 Q212.2656,272.9844 213.5781,271.3281 Q214.9063,269.6719 217.4063,269.6719 Q218.1094,269.6719 218.75,269.8281 Q219.4063,269.9844 219.9688,270.2813 L219.9688,273 Q219.3438,272.4219 218.75,272.1563 Q218.1563,271.875 217.5313,271.875 Q216.1875,271.875 215.5,272.9531 Q214.8125,274.0156 214.8125,276.1094 Q214.8125,278.2031 215.5,279.2813 Q216.1875,280.3438 217.5313,280.3438 Q218.1563,280.3438 218.75,280.0781 Q219.3438,279.7969 219.9688,279.2188 L219.9688,281.9375 Z " fill="#000000"/><text fill="#000000" font-family="sans-serif" font-size="14" lengthAdjust="spacing" textLength="181.166" x="231" y="281.1436">common::model::element</text><line style="stroke:#181818;stroke-width:0.5;" x1="203" x2="414.166" y1="292.2969" y2="292.2969"/><line style="stroke:#181818;stroke-width:0.5;" x1="203" x2="414.166" y1="300.2969" y2="300.2969"/></g></a><!--class C_0002143286684830686854--><a href="classclanguml_1_1common_1_1model_1_1package.html" target="_top" title="Diagram element representing namespace or directory package" xlink:actuate="onRequest" xlink:href="classclanguml_1_1common_1_1model_1_1package.html" xlink:show="new" xlink:title="Diagram element representing namespace or directory package" xlink:type="simple"><g id="elem_C_0002143286684830686854"><rect codeLine="23" fill="#F1F1F1" height="48" id="C_0002143286684830686854" rx="2.5" ry="2.5" style="stroke:#181818;stroke-width:0.5;" width="214.7861" x="340" y="368.2969"/><ellipse cx="355" cy="384.2969" fill="#ADD1B2" rx="11" ry="11" style="stroke:#181818;stroke-width:1;"/><path d="M357.9688,389.9375 Q357.3906,390.2344 356.75,390.375 Q356.1094,390.5313 355.4063,390.5313 Q352.9063,390.5313 351.5781,388.8906 Q350.2656,387.2344 350.2656,384.1094 Q350.2656,380.9844 351.5781,379.3281 Q352.9063,377.6719 355.4063,377.6719 Q356.1094,377.6719 356.75,377.8281 Q357.4063,377.9844 357.9688,378.2813 L357.9688,381 Q357.3438,380.4219 356.75,380.1563 Q356.1563,379.875 355.5313,379.875 Q354.1875,379.875 353.5,380.9531 Q352.8125,382.0156 352.8125,384.1094 Q352.8125,386.2031 353.5,387.2813 Q354.1875,388.3438 355.5313,388.3438 Q356.1563,388.3438 356.75,388.0781 Q357.3438,387.7969 357.9688,387.2188 L357.9688,389.9375 Z " fill="#000000"/><text fill="#000000" font-family="sans-serif" font-size="14" lengthAdjust="spacing" textLength="182.7861" x="369" y="389.1436">common::model::package</text><line style="stroke:#181818;stroke-width:0.5;" x1="341" x2="553.7861" y1="400.2969" y2="400.2969"/><line style="stroke:#181818;stroke-width:0.5;" x1="341" x2="553.7861" y1="408.2969" y2="408.2969"/></g></a><!--reverse link C_0001117102382624673118 to C_0001073500714379115414--><g id="link_C_0001117102382624673118_C_0001073500714379115414"><path codeLine="26" d="M201.2385,102.4128 C227.3185,120.1328 248.32,134.4069 274.45,152.1569 " fill="transparent" id="C_0001117102382624673118-backto-C_0001073500714379115414" style="stroke:#181818;stroke-width:1;"/><polygon fill="transparent" points="186.35,92.2969,197.8665,107.3757,204.6105,97.45,186.35,92.2969" style="stroke:#181818;stroke-width:1;"/></g><!--reverse link C_0000895261582183440230 to C_0001073500714379115414--><g id="link_C_0000895261582183440230_C_0001073500714379115414"><path codeLine="27" d="M416.5128,102.3705 C390.2728,120.0905 369.07,134.4069 342.77,152.1569 " fill="transparent" id="C_0000895261582183440230-backto-C_0001073500714379115414" style="stroke:#181818;stroke-width:1;"/><polygon fill="transparent" points="431.43,92.2969,413.155,97.3981,419.8707,107.3429,431.43,92.2969" style="stroke:#181818;stroke-width:1;"/></g><!--reverse link C_0001073500714379115414 to C_0002069520381434407937--><g id="link_C_0001073500714379115414_C_0002069520381434407937"><path codeLine="28" d="M308.5,218.2969 C308.5,235.9569 308.5,242.2369 308.5,259.9769 " fill="transparent" id="C_0001073500714379115414-backto-C_0002069520381434407937" style="stroke:#181818;stroke-width:1;"/><polygon fill="transparent" points="308.5,200.2969,302.5,218.2969,314.5,218.2969,308.5,200.2969" style="stroke:#181818;stroke-width:1;"/></g><!--reverse link C_0002069520381434407937 to C_0002143286684830686854--><g id="link_C_0002069520381434407937_C_0002143286684830686854"><path codeLine="29" d="M352.9735,319.2112 C376.1335,336.8712 393.66,350.2369 416.92,367.9769 " fill="transparent" id="C_0002069520381434407937-backto-C_0002143286684830686854" style="stroke:#181818;stroke-width:1;"/><polygon fill="transparent" points="338.66,308.2969,349.3354,323.9824,356.6116,314.4401,338.66,308.2969" style="stroke:#181818;stroke-width:1;"/></g><!--reverse link C_0002077846075979426940 to C_0002143286684830686854--><g id="link_C_0002077846075979426940_C_0002143286684830686854"><path codeLine="30" d="M542.7704,319.1637 C519.4504,336.8237 501.73,350.2369 478.3,367.9769 " fill="transparent" id="C_0002077846075979426940-backto-C_0002143286684830686854" style="stroke:#181818;stroke-width:1;"/><polygon fill="transparent" points="557.12,308.2969,539.1481,314.3805,546.3926,323.9469,557.12,308.2969" style="stroke:#181818;stroke-width:1;"/></g><!--SRC=[ZPHDZvim48Rl-HMZlMohRP1jZ6sYdjfAlMobNjhBQeKCcGHK0oaukusskx-zJY0aAP3a4aqOpyVZUJqsimRXkqv-wIN2FDFBIkUG65tNa6POwIf9DvFc_qrIvdbPp6PvEKSpcyqnAIjjSHwXmHmBUmEwXiyH8OHIAYbXlcA2SI5zIbMRPCmD3m-x0-wdMAvp4z68DlMsrgxYrZZKt1VrKfkRbq-wnhRjHLb1Twn3Qa_Nhu-Fy3A9eidh25LjDqR71ljGZ4Yfk20o26N8cGWvEOOQS5y9rPKyPVhoN-jWItXEioI5RO33rGN427grCXdElSjavRfAC39becrM5WSmeiA02HeeHfNFkHlC2TY0-rgmfc9NiZUhSW7QcDwGmARQGggV49eKq6MuIDdc6j0aaNv0YAJSbo6b0QVyH9DzzxMQR2kULMHjTJ7NfYomHtkPQK2Amis4-CfrwoOYGr-UIh7dlfBb788kDlkUuVTQcspXP0Vn1WgTOxtI2LucMJMRveZ4jSYK48ehdmWbL70obG7tbIHjfS6d11MkAgoTbHNBG_kmtHnPXOajgmsq2OwGHdVNnx_JwRZ8HX_H5M53gZo43SbWL017OGDtFhh2peTDRhzYWSsgVSvi2hkfJDrOFi0JLhLxia0yxf6fd2wL5Z4FvUJs_lxdjyxz8ruNTjq4TX-fy8WduDtT7TjUbRjnmfqbxsGIBwXcGKW3DgLl-6T5t_P7g624Au-IuFq_]--></g></svg>