<svg xmlns="http://www.w3.org/2000/svg" xmlns:xlink="http://www.w3.org/1999/xlink" contentStyleType="text/css" data-diagram-type="CLASS" height="426px" preserveAspectRatio="none" style="width:1535px;height:426px;background:#FFFFFF;" version="1.1" viewBox="0 0 1535 426" width="1535px" zoomAndPan="magnify"><title>Package diagram class hierarchy</title><defs/><g><text fill="#000000" font-family="sans-serif" font-size="14" font-weight="bold" lengthAdjust="spacing" textLength="260.251" x="630.4409" y="22.9951">Package diagram class hierarchy</text><!--class C_0008936819060997384951--><a href="classclanguml_1_1common_1_1model_1_1decorated__element.html" target="_top" title="Base class for decorated diagram elements" xlink:actuate="onRequest" xlink:href="classclanguml_1_1common_1_1model_1_1decorated__element.html" xlink:show="new" xlink:title="Base class for decorated diagram elements" xlink:type="simple"><g id="elem_C_0008936819060997384951"><rect codeLine="3" fill="#F1F1F1" height="48" id="C_0008936819060997384951" rx="2.5" ry="2.5" style="stroke:#181818;stroke-width:0.5;" width="291.2529" x="7" y="47.2969"/><ellipse cx="22" cy="63.2969" fill="#ADD1B2" rx="11" ry="11" style="stroke:#181818;stroke-width:1;"/><path d="M24.9688,68.9375 Q24.3906,69.2344 23.75,69.375 Q23.1094,69.5313 22.4063,69.5313 Q19.9063,69.5313 18.5781,67.8906 Q17.2656,66.2344 17.2656,63.1094 Q17.2656,59.9844 18.5781,58.3281 Q19.9063,56.6719 22.4063,56.6719 Q23.1094,56.6719 23.75,56.8281 Q24.4063,56.9844 24.9688,57.2813 L24.9688,60 Q24.3438,59.4219 23.75,59.1563 Q23.1563,58.875 22.5313,58.875 Q21.1875,58.875 20.5,59.9531 Q19.8125,61.0156 19.8125,63.1094 Q19.8125,65.2031 20.5,66.2813 Q21.1875,67.3438 22.5313,67.3438 Q23.1563,67.3438 23.75,67.0781 Q24.3438,66.7969 24.9688,66.2188 L24.9688,68.9375 Z " fill="#000000"/><text fill="#000000" font-family="sans-serif" font-size="14" lengthAdjust="spacing" textLength="259.2529" x="36" y="68.1436">common::model::decorated_element</text><line style="stroke:#181818;stroke-width:0.5;" x1="8" x2="297.2529" y1="79.2969" y2="79.2969"/><line style="stroke:#181818;stroke-width:0.5;" x1="8" x2="297.2529" y1="87.2969" y2="87.2969"/></g></a><!--class C_0007162092657467521843--><a href="classclanguml_1_1common_1_1model_1_1source__location.html" target="_top" title="Base class of all diagram elements that have source location." xlink:actuate="onRequest" xlink:href="classclanguml_1_1common_1_1model_1_1source__location.html" xlink:show="new" xlink:title="Base class of all diagram elements that have source location." xlink:type="simple"><g id="elem_C_0007162092657467521843"><rect codeLine="7" fill="#F1F1F1" height="48" id="C_0007162092657467521843" rx="2.5" ry="2.5" style="stroke:#181818;stroke-width:0.5;" width="264.7842" x="333" y="47.2969"/><ellipse cx="348" cy="63.2969" fill="#ADD1B2" rx="11" ry="11" style="stroke:#181818;stroke-width:1;"/><path d="M350.9688,68.9375 Q350.3906,69.2344 349.75,69.375 Q349.1094,69.5313 348.4063,69.5313 Q345.9063,69.5313 344.5781,67.8906 Q343.2656,66.2344 343.2656,63.1094 Q343.2656,59.9844 344.5781,58.3281 Q345.9063,56.6719 348.4063,56.6719 Q349.1094,56.6719 349.75,56.8281 Q350.4063,56.9844 350.9688,57.2813 L350.9688,60 Q350.3438,59.4219 349.75,59.1563 Q349.1563,58.875 348.5313,58.875 Q347.1875,58.875 346.5,59.9531 Q345.8125,61.0156 345.8125,63.1094 Q345.8125,65.2031 346.5,66.2813 Q347.1875,67.3438 348.5313,67.3438 Q349.1563,67.3438 349.75,67.0781 Q350.3438,66.7969 350.9688,66.2188 L350.9688,68.9375 Z " fill="#000000"/><text fill="#000000" font-family="sans-serif" font-size="14" lengthAdjust="spacing" textLength="232.7842" x="362" y="68.1436">common::model::source_location</text><line style="stroke:#181818;stroke-width:0.5;" x1="334" x2="596.7842" y1="79.2969" y2="79.2969"/><line style="stroke:#181818;stroke-width:0.5;" x1="334" x2="596.7842" y1="87.2969" y2="87.2969"/></g></a><!--class C_0016622768607835415521--><a href="classclanguml_1_1common_1_1model_1_1stylable__element.html" target="_top" title="Diagram elements to which style can be applied." xlink:actuate="onRequest" xlink:href="classclanguml_1_1common_1_1model_1_1stylable__element.html" xlink:show="new" xlink:title="Diagram elements to which style can be applied." xlink:type="simple"><g id="elem_C_0016622768607835415521"><rect codeLine="11" fill="#F1F1F1" height="48" id="C_0016622768607835415521" rx="2.5" ry="2.5" style="stroke:#181818;stroke-width:0.5;" width="275.0928" x="800" y="263.2969"/><ellipse cx="815" cy="279.2969" fill="#ADD1B2" rx="11" ry="11" style="stroke:#181818;stroke-width:1;"/><path d="M817.9688,284.9375 Q817.3906,285.2344 816.75,285.375 Q816.1094,285.5313 815.4063,285.5313 Q812.9063,285.5313 811.5781,283.8906 Q810.2656,282.2344 810.2656,279.1094 Q810.2656,275.9844 811.5781,274.3281 Q812.9063,272.6719 815.4063,272.6719 Q816.1094,272.6719 816.75,272.8281 Q817.4063,272.9844 817.9688,273.2813 L817.9688,276 Q817.3438,275.4219 816.75,275.1563 Q816.1563,274.875 815.5313,274.875 Q814.1875,274.875 813.5,275.9531 Q812.8125,277.0156 812.8125,279.1094 Q812.8125,281.2031 813.5,282.2813 Q814.1875,283.3438 815.5313,283.3438 Q816.1563,283.3438 816.75,283.0781 Q817.3438,282.7969 817.9688,282.2188 L817.9688,284.9375 Z " fill="#000000"/><text fill="#000000" font-family="sans-serif" font-size="14" lengthAdjust="spacing" textLength="243.0928" x="829" y="284.1436">common::model::stylable_element</text><line style="stroke:#181818;stroke-width:0.5;" x1="801" x2="1074.0928" y1="295.2969" y2="295.2969"/><line style="stroke:#181818;stroke-width:0.5;" x1="801" x2="1074.0928" y1="303.2969" y2="303.2969"/></g></a><!--class C_0008588005715032923314--><a href="classclanguml_1_1common_1_1model_1_1diagram__element.html" target="_top" title="Base class for standalone diagram elements." xlink:actuate="onRequest" xlink:href="classclanguml_1_1common_1_1model_1_1diagram__element.html" xlink:show="new" xlink:title="Base class for standalone diagram elements." xlink:type="simple"><g id="elem_C_0008588005715032923314"><rect codeLine="15" fill="#F1F1F1" height="48" id="C_0008588005715032923314" rx="2.5" ry="2.5" style="stroke:#181818;stroke-width:0.5;" width="278.3809" x="519.5" y="155.2969"/><ellipse cx="534.5" cy="171.2969" fill="#ADD1B2" rx="11" ry="11" style="stroke:#181818;stroke-width:1;"/><path d="M537.4688,176.9375 Q536.8906,177.2344 536.25,177.375 Q535.6094,177.5313 534.9063,177.5313 Q532.4063,177.5313 531.0781,175.8906 Q529.7656,174.2344 529.7656,171.1094 Q529.7656,167.9844 531.0781,166.3281 Q532.4063,164.6719 534.9063,164.6719 Q535.6094,164.6719 536.25,164.8281 Q536.9063,164.9844 537.4688,165.2813 L537.4688,168 Q536.8438,167.4219 536.25,167.1563 Q535.6563,166.875 535.0313,166.875 Q533.6875,166.875 533,167.9531 Q532.3125,169.0156 532.3125,171.1094 Q532.3125,173.2031 533,174.2813 Q533.6875,175.3438 535.0313,175.3438 Q535.6563,175.3438 536.25,175.0781 Q536.8438,174.7969 537.4688,174.2188 L537.4688,176.9375 Z " fill="#000000"/><text fill="#000000" font-family="sans-serif" font-size="14" lengthAdjust="spacing" textLength="246.3809" x="548.5" y="176.1436">common::model::diagram_element</text><line style="stroke:#181818;stroke-width:0.5;" x1="520.5" x2="796.8809" y1="187.2969" y2="187.2969"/><line style="stroke:#181818;stroke-width:0.5;" x1="520.5" x2="796.8809" y1="195.2969" y2="195.2969"/></g></a><!--class C_0016556163051475263500--><a href="classclanguml_1_1common_1_1model_1_1element.html" target="_top" title="Base class for any element qualified by namespace." xlink:actuate="onRequest" xlink:href="classclanguml_1_1common_1_1model_1_1element.html" xlink:show="new" xlink:title="Base class for any element qualified by namespace." xlink:type="simple"><g id="elem_C_0016556163051475263500"><rect codeLine="19" fill="#F1F1F1" height="48" id="C_0016556163051475263500" rx="2.5" ry="2.5" style="stroke:#181818;stroke-width:0.5;" width="213.166" x="552" y="263.2969"/><ellipse cx="567" cy="279.2969" fill="#ADD1B2" rx="11" ry="11" style="stroke:#181818;stroke-width:1;"/><path d="M569.9688,284.9375 Q569.3906,285.2344 568.75,285.375 Q568.1094,285.5313 567.4063,285.5313 Q564.9063,285.5313 563.5781,283.8906 Q562.2656,282.2344 562.2656,279.1094 Q562.2656,275.9844 563.5781,274.3281 Q564.9063,272.6719 567.4063,272.6719 Q568.1094,272.6719 568.75,272.8281 Q569.4063,272.9844 569.9688,273.2813 L569.9688,276 Q569.3438,275.4219 568.75,275.1563 Q568.1563,274.875 567.5313,274.875 Q566.1875,274.875 565.5,275.9531 Q564.8125,277.0156 564.8125,279.1094 Q564.8125,281.2031 565.5,282.2813 Q566.1875,283.3438 567.5313,283.3438 Q568.1563,283.3438 568.75,283.0781 Q569.3438,282.7969 569.9688,282.2188 L569.9688,284.9375 Z " fill="#000000"/><text fill="#000000" font-family="sans-serif" font-size="14" lengthAdjust="spacing" textLength="181.166" x="581" y="284.1436">common::model::element</text><line style="stroke:#181818;stroke-width:0.5;" x1="553" x2="764.166" y1="295.2969" y2="295.2969"/><line style="stroke:#181818;stroke-width:0.5;" x1="553" x2="764.166" y1="303.2969" y2="303.2969"/></g></a><!--class C_0015066935078142509054--><a href="classclanguml_1_1common_1_1model_1_1nested__trait.html" target="_top" title="nested_trait" xlink:actuate="onRequest" xlink:href="classclanguml_1_1common_1_1model_1_1nested__trait.html" xlink:show="new" xlink:title="nested_trait" xlink:type="simple"><g id="elem_C_0015066935078142509054"><rect codeLine="23" fill="#F1F1F1" height="48" id="C_0015066935078142509054" rx="2.5" ry="2.5" style="stroke:#181818;stroke-width:0.5;" width="535.5928" x="846.5" y="155.2969"/><ellipse cx="861.5" cy="171.2969" fill="#ADD1B2" rx="11" ry="11" style="stroke:#181818;stroke-width:1;"/><path d="M864.4688,176.9375 Q863.8906,177.2344 863.25,177.375 Q862.6094,177.5313 861.9063,177.5313 Q859.4063,177.5313 858.0781,175.8906 Q856.7656,174.2344 856.7656,171.1094 Q856.7656,167.9844 858.0781,166.3281 Q859.4063,164.6719 861.9063,164.6719 Q862.6094,164.6719 863.25,164.8281 Q863.9063,164.9844 864.4688,165.2813 L864.4688,168 Q863.8438,167.4219 863.25,167.1563 Q862.6563,166.875 862.0313,166.875 Q860.6875,166.875 860,167.9531 Q859.3125,169.0156 859.3125,171.1094 Q859.3125,173.2031 860,174.2813 Q860.6875,175.3438 862.0313,175.3438 Q862.6563,175.3438 863.25,175.0781 Q863.8438,174.7969 864.4688,174.2188 L864.4688,176.9375 Z " fill="#000000"/><text fill="#000000" font-family="sans-serif" font-size="14" lengthAdjust="spacing" textLength="207.4092" x="875.5" y="176.1436">common::model::nested_trait</text><rect fill="#FFFFFF" height="15.9688" style="stroke:#181818;stroke-width:1;stroke-dasharray:2.0,2.0;" width="294.1836" x="1090.9092" y="152.2969"/><text fill="#000000" font-family="sans-serif" font-size="12" font-style="italic" lengthAdjust="spacing" textLength="292.1836" x="1091.9092" y="164.4355">common::model::element,common::model::path</text><line style="stroke:#181818;stroke-width:0.5;" x1="847.5" x2="1381.0928" y1="187.2969" y2="187.2969"/><line style="stroke:#181818;stroke-width:0.5;" x1="847.5" x2="1381.0928" y1="195.2969" y2="195.2969"/></g></a><!--class C_0017146293478645494837--><a href="classclanguml_1_1common_1_1model_1_1package.html" target="_top" title="Diagram element representing namespace or directory package" xlink:actuate="onRequest" xlink:href="classclanguml_1_1common_1_1model_1_1package.html" xlink:show="new" xlink:title="Diagram element representing namespace or directory package" xlink:type="simple"><g id="elem_C_0017146293478645494837"><rect codeLine="27" fill="#F1F1F1" height="48" id="C_0017146293478645494837" rx="2.5" ry="2.5" style="stroke:#181818;stroke-width:0.5;" width="214.7861" x="830" y="371.2969"/><ellipse cx="845" cy="387.2969" fill="#ADD1B2" rx="11" ry="11" style="stroke:#181818;stroke-width:1;"/><path d="M847.9688,392.9375 Q847.3906,393.2344 846.75,393.375 Q846.1094,393.5313 845.4063,393.5313 Q842.9063,393.5313 841.5781,391.8906 Q840.2656,390.2344 840.2656,387.1094 Q840.2656,383.9844 841.5781,382.3281 Q842.9063,380.6719 845.4063,380.6719 Q846.1094,380.6719 846.75,380.8281 Q847.4063,380.9844 847.9688,381.2813 L847.9688,384 Q847.3438,383.4219 846.75,383.1563 Q846.1563,382.875 845.5313,382.875 Q844.1875,382.875 843.5,383.9531 Q842.8125,385.0156 842.8125,387.1094 Q842.8125,389.2031 843.5,390.2813 Q844.1875,391.3438 845.5313,391.3438 Q846.1563,391.3438 846.75,391.0781 Q847.3438,390.7969 847.9688,390.2188 L847.9688,392.9375 Z " fill="#000000"/><text fill="#000000" font-family="sans-serif" font-size="14" lengthAdjust="spacing" textLength="182.7861" x="859" y="392.1436">common::model::package</text><line style="stroke:#181818;stroke-width:0.5;" x1="831" x2="1043.7861" y1="403.2969" y2="403.2969"/><line style="stroke:#181818;stroke-width:0.5;" x1="831" x2="1043.7861" y1="411.2969" y2="411.2969"/></g></a><!--class C_0015453306866783002016--><a href="classclanguml_1_1util_1_1memoized.html" target="_top" title="memoized" xlink:actuate="onRequest" xlink:href="classclanguml_1_1util_1_1memoized.html" xlink:show="new" xlink:title="memoized" xlink:type="simple"><g id="elem_C_0015453306866783002016"><rect codeLine="31" fill="#F1F1F1" height="48" id="C_0015453306866783002016" rx="2.5" ry="2.5" style="stroke:#181818;stroke-width:0.5;" width="435.8516" x="633.5" y="47.2969"/><ellipse cx="648.5" cy="63.2969" fill="#ADD1B2" rx="11" ry="11" style="stroke:#181818;stroke-width:1;"/><path d="M651.4688,68.9375 Q650.8906,69.2344 650.25,69.375 Q649.6094,69.5313 648.9063,69.5313 Q646.4063,69.5313 645.0781,67.8906 Q643.7656,66.2344 643.7656,63.1094 Q643.7656,59.9844 645.0781,58.3281 Q646.4063,56.6719 648.9063,56.6719 Q649.6094,56.6719 650.25,56.8281 Q650.9063,56.9844 651.4688,57.2813 L651.4688,60 Q650.8438,59.4219 650.25,59.1563 Q649.6563,58.875 649.0313,58.875 Q647.6875,58.875 647,59.9531 Q646.3125,61.0156 646.3125,63.1094 Q646.3125,65.2031 647,66.2813 Q647.6875,67.3438 649.0313,67.3438 Q649.6563,67.3438 650.25,67.0781 Q650.8438,66.7969 651.4688,66.2188 L651.4688,68.9375 Z " fill="#000000"/><text fill="#000000" font-family="sans-serif" font-size="14" lengthAdjust="spacing" textLength="104.7676" x="662.5" y="68.1436">util::memoized</text><rect fill="#FFFFFF" height="15.9688" style="stroke:#181818;stroke-width:1;stroke-dasharray:2.0,2.0;" width="297.084" x="775.2676" y="44.2969"/><text fill="#000000" font-family="sans-serif" font-size="12" font-style="italic" lengthAdjust="spacing" textLength="295.084" x="776.2676" y="56.4355">common::model::full_name_tag_t,std::string,bool</text><line style="stroke:#181818;stroke-width:0.5;" x1="634.5" x2="1068.3516" y1="79.2969" y2="79.2969"/><line style="stroke:#181818;stroke-width:0.5;" x1="634.5" x2="1068.3516" y1="87.2969" y2="87.2969"/></g></a><!--class C_0011142327304907631799--><a href="classclanguml_1_1util_1_1memoized.html" target="_top" title="memoized" xlink:actuate="onRequest" xlink:href="classclanguml_1_1util_1_1memoized.html" xlink:show="new" xlink:title="memoized" xlink:type="simple"><g id="elem_C_0011142327304907631799"><rect codeLine="35" fill="#F1F1F1" height="48" id="C_0011142327304907631799" rx="2.5" ry="2.5" style="stroke:#181818;stroke-width:0.5;" width="419.6328" x="1104.5" y="47.2969"/><ellipse cx="1119.5" cy="63.2969" fill="#ADD1B2" rx="11" ry="11" style="stroke:#181818;stroke-width:1;"/><path d="M1122.4688,68.9375 Q1121.8906,69.2344 1121.25,69.375 Q1120.6094,69.5313 1119.9063,69.5313 Q1117.4063,69.5313 1116.0781,67.8906 Q1114.7656,66.2344 1114.7656,63.1094 Q1114.7656,59.9844 1116.0781,58.3281 Q1117.4063,56.6719 1119.9063,56.6719 Q1120.6094,56.6719 1121.25,56.8281 Q1121.9063,56.9844 1122.4688,57.2813 L1122.4688,60 Q1121.8438,59.4219 1121.25,59.1563 Q1120.6563,58.875 1120.0313,58.875 Q1118.6875,58.875 1118,59.9531 Q1117.3125,61.0156 1117.3125,63.1094 Q1117.3125,65.2031 1118,66.2813 Q1118.6875,67.3438 1120.0313,67.3438 Q1120.6563,67.3438 1121.25,67.0781 Q1121.8438,66.7969 1122.4688,66.2188 L1122.4688,68.9375 Z " fill="#000000"/><text fill="#000000" font-family="sans-serif" font-size="14" lengthAdjust="spacing" textLength="104.7676" x="1133.5" y="68.1436">util::memoized</text><rect fill="#FFFFFF" height="15.9688" style="stroke:#181818;stroke-width:1;stroke-dasharray:2.0,2.0;" width="280.8652" x="1246.2676" y="44.2969"/><text fill="#000000" font-family="sans-serif" font-size="12" font-style="italic" lengthAdjust="spacing" textLength="278.8652" x="1247.2676" y="56.4355">common::model::name_and_ns_tag,std::string</text><line style="stroke:#181818;stroke-width:0.5;" x1="1105.5" x2="1523.1328" y1="79.2969" y2="79.2969"/><line style="stroke:#181818;stroke-width:0.5;" x1="1105.5" x2="1523.1328" y1="87.2969" y2="87.2969"/></g></a><!--reverse link C_0008936819060997384951 to C_0008588005715032923314--><g id="link_C_0008936819060997384951_C_0008588005715032923314"><path codeLine="38" d="M279.9076,98.9876 C364.6376,116.7376 463.7,137.4869 548.48,155.2469 " fill="transparent" id="C_0008936819060997384951-backto-C_0008588005715032923314" style="stroke:#181818;stroke-width:1;"/><polygon fill="transparent" points="262.29,95.2969,278.6773,104.8601,281.1378,93.115,262.29,95.2969" style="stroke:#181818;stroke-width:1;"/></g><!--reverse link C_0007162092657467521843 to C_0008588005715032923314--><g id="link_C_0007162092657467521843_C_0008588005715032923314"><path codeLine="39" d="M523.1566,103.9628 C555.4166,121.6828 584.05,137.4069 616.37,155.1569 " fill="transparent" id="C_0007162092657467521843-backto-C_0008588005715032923314" style="stroke:#181818;stroke-width:1;"/><polygon fill="transparent" points="507.38,95.2969,520.268,109.2217,526.0453,98.7039,507.38,95.2969" style="stroke:#181818;stroke-width:1;"/></g><!--reverse link C_0015453306866783002016 to C_0008588005715032923314--><g id="link_C_0015453306866783002016_C_0008588005715032923314"><path codeLine="40" d="M793.8434,103.9628 C761.5834,121.6828 732.95,137.4069 700.63,155.1569 " fill="transparent" id="C_0015453306866783002016-backto-C_0008588005715032923314" style="stroke:#181818;stroke-width:1;"/><polygon fill="transparent" points="809.62,95.2969,790.9547,98.7039,796.732,109.2217,809.62,95.2969" style="stroke:#181818;stroke-width:1;"/></g><!--reverse link C_0011142327304907631799 to C_0008588005715032923314--><g id="link_C_0011142327304907631799_C_0008588005715032923314"><path codeLine="41" d="M1154.3904,98.1677 C1043.4104,116.0977 907.93,137.9969 797.75,155.7969 " fill="transparent" id="C_0011142327304907631799-backto-C_0008588005715032923314" style="stroke:#181818;stroke-width:1;"/><polygon fill="transparent" points="1172.16,95.2969,1153.4335,92.2445,1155.3474,104.0909,1172.16,95.2969" style="stroke:#181818;stroke-width:1;"/></g><!--reverse link C_0008588005715032923314 to C_0016556163051475263500--><g id="link_C_0008588005715032923314_C_0016556163051475263500"><path codeLine="42" d="M658.5,221.2969 C658.5,238.9569 658.5,245.2369 658.5,262.9769 " fill="transparent" id="C_0008588005715032923314-backto-C_0016556163051475263500" style="stroke:#181818;stroke-width:1;"/><polygon fill="transparent" points="658.5,203.2969,652.5,221.2969,664.5,221.2969,658.5,203.2969" style="stroke:#181818;stroke-width:1;"/></g><!--link C_0015066935078142509054 to C_0016556163051475263500--><g id="link_C_0015066935078142509054_C_0016556163051475263500"><path codeLine="43" d="M1015.55,203.2969 C939.2,221.0469 839.8942,244.1283 763.4942,261.8883 " fill="transparent" id="C_0015066935078142509054-to-C_0016556163051475263500" style="stroke:#181818;stroke-width:1;stroke-dasharray:7.0,7.0;"/><polygon fill="#181818" points="757.65,263.2469,767.322,265.1052,762.5201,262.1148,765.5106,257.3129,757.65,263.2469" style="stroke:#181818;stroke-width:1;"/></g><!--reverse link C_0016556163051475263500 to C_0017146293478645494837--><g id="link_C_0016556163051475263500_C_0017146293478645494837"><path codeLine="44" d="M735.8665,317.6898 C782.5065,335.4098 829.87,353.4069 876.6,371.1569 " fill="transparent" id="C_0016556163051475263500-backto-C_0017146293478645494837" style="stroke:#181818;stroke-width:1;"/><polygon fill="transparent" points="719.04,311.2969,733.7355,323.2986,737.9975,312.081,719.04,311.2969" style="stroke:#181818;stroke-width:1;"/></g><!--reverse link C_0016622768607835415521 to C_0017146293478645494837--><g id="link_C_0016622768607835415521_C_0017146293478645494837"><path codeLine="45" d="M937.5,329.2969 C937.5,346.9569 937.5,353.2369 937.5,370.9769 " fill="transparent" id="C_0016622768607835415521-backto-C_0017146293478645494837" style="stroke:#181818;stroke-width:1;"/><polygon fill="transparent" points="937.5,311.2969,931.5,329.2969,943.5,329.2969,937.5,311.2969" style="stroke:#181818;stroke-width:1;"/></g><!--reverse link C_0015066935078142509054 to C_0017146293478645494837--><g id="link_C_0015066935078142509054_C_0017146293478645494837"><path codeLine="46" d="M1117.175,221.4219 C1118.325,249.5619 1115.5,279.2669 1092.5,311.2969 C1072.65,338.9469 1040.68,358.2469 1010.93,371.2369 " fill="transparent" id="C_0015066935078142509054-backto-C_0017146293478645494837" style="stroke:#181818;stroke-width:1;"/><polygon fill="transparent" points="1116.44,203.4369,1111.18,221.6669,1123.17,221.1769,1116.44,203.4369" style="stroke:#181818;stroke-width:1;"/></g><!--SRC=[fPRFRvim5CVl-IkiNhf9QMJZ7-2ewc6Rj4idxR9TgWevu0GqWpCmhR9k__jC88GKKvXsYOoVdz_tu_Vy79CQ9S5N4VqGEmdYLEmAaO58YR84IIeBKKJ9OT5yNqKwotI-NcSwbcgzZcMa2s5a74ebCvcRAo1Ay36440OSim1no23dFWu8fwZTPCmC7XwE2-nFlgio5Q8GDV7gqJ5YFJZ7F0LT9IPJBnz4ALlPMrs0Rbc7rAuk_pm-WfT562x-Z52LkYeY6IeT2PFg_Cpa8-P1xZ7g4-PJ3mK4zvaSvfbCRSGkv818Ru5GQe02J28CICIJ1CqMeDjXcj8SbDWeEKWTOippV1Omw0UO4aGjIW_JPPwBUGfvcRbF0oeDdfCqIa3jO8z0v60ZWTZlLIhZQRBsb1mrIOC0GkeZ2h77FOmHkQZ9eNbkJROHtwp8qeWy5ahdSf37QQPXaYXbY6584R6rnZ25y299G_DCbhSGH7uuQGO_Aw7IhKq8s1n0BZ9PxaKafqboMTQNrnGYDRTkokMhwRqmoTqPdKB6k2No0qGy2Zca_JIwp3FHMscDjkO0-cedqVPD4pqhzH5X7iV43nYXX9C0-tsb3lDCfMqav_q1XTmNihIZDD-TCmFgffWMCZAwE81sWo5IPL9BaibCfxza_3f1sqgfiDuoD68NccLfuhgJ53RISgErwcU9K8oXxHFCzWa8FLkJ5raQcbtijPmZUIke8Jvz_Qlyet9x2yEyh07wydlAaQqRxFaO4WvzXf7FUL-vm_nVoaVVmzlVDpVZZMlqoPbsSnx-33SN-GoHhhxQkJaRsUWzNgtk9hnSZUySp7KXHn-r6MukZM-xBQu_orms_qoUKvE0OytSsA9PWYTPbFRj1d35LcXnVN___KitzsrJvQPgLdUJYA_G2e5tg3fQqVk_]--></g></svg>