<svg xmlns="http://www.w3.org/2000/svg" xmlns:xlink="http://www.w3.org/1999/xlink" contentStyleType="text/css" data-diagram-type="CLASS" height="318px" preserveAspectRatio="none" style="width:1764px;height:318px;background:#FFFFFF;" version="1.1" viewBox="0 0 1764 318" width="1764px" zoomAndPan="magnify"><title>Source file model class hierarchy</title><defs/><g><text fill="#000000" font-family="sans-serif" font-size="14" font-weight="bold" lengthAdjust="spacing" textLength="261.6865" x="744.4854" y="22.9951">Source file model class hierarchy</text><!--class C_0007162092657467521843--><a href="classclanguml_1_1common_1_1model_1_1source__location.html" target="_top" title="Base class of all diagram elements that have source location." xlink:actuate="onRequest" xlink:href="classclanguml_1_1common_1_1model_1_1source__location.html" xlink:show="new" xlink:title="Base class of all diagram elements that have source location." xlink:type="simple"><g id="elem_C_0007162092657467521843"><rect codeLine="3" fill="#F1F1F1" height="48" id="C_0007162092657467521843" rx="2.5" ry="2.5" style="stroke:#181818;stroke-width:0.5;" width="264.7842" x="7" y="47.2969"/><ellipse cx="22" cy="63.2969" fill="#ADD1B2" rx="11" ry="11" style="stroke:#181818;stroke-width:1;"/><path d="M24.9688,68.9375 Q24.3906,69.2344 23.75,69.375 Q23.1094,69.5313 22.4063,69.5313 Q19.9063,69.5313 18.5781,67.8906 Q17.2656,66.2344 17.2656,63.1094 Q17.2656,59.9844 18.5781,58.3281 Q19.9063,56.6719 22.4063,56.6719 Q23.1094,56.6719 23.75,56.8281 Q24.4063,56.9844 24.9688,57.2813 L24.9688,60 Q24.3438,59.4219 23.75,59.1563 Q23.1563,58.875 22.5313,58.875 Q21.1875,58.875 20.5,59.9531 Q19.8125,61.0156 19.8125,63.1094 Q19.8125,65.2031 20.5,66.2813 Q21.1875,67.3438 22.5313,67.3438 Q23.1563,67.3438 23.75,67.0781 Q24.3438,66.7969 24.9688,66.2188 L24.9688,68.9375 Z " fill="#000000"/><text fill="#000000" font-family="sans-serif" font-size="14" lengthAdjust="spacing" textLength="232.7842" x="36" y="68.1436">common::model::source_location</text><line style="stroke:#181818;stroke-width:0.5;" x1="8" x2="270.7842" y1="79.2969" y2="79.2969"/><line style="stroke:#181818;stroke-width:0.5;" x1="8" x2="270.7842" y1="87.2969" y2="87.2969"/></g></a><!--class C_0008936819060997384951--><a href="classclanguml_1_1common_1_1model_1_1decorated__element.html" target="_top" title="Base class for decorated diagram elements" xlink:actuate="onRequest" xlink:href="classclanguml_1_1common_1_1model_1_1decorated__element.html" xlink:show="new" xlink:title="Base class for decorated diagram elements" xlink:type="simple"><g id="elem_C_0008936819060997384951"><rect codeLine="7" fill="#F1F1F1" height="48" id="C_0008936819060997384951" rx="2.5" ry="2.5" style="stroke:#181818;stroke-width:0.5;" width="291.2529" x="307" y="47.2969"/><ellipse cx="322" cy="63.2969" fill="#ADD1B2" rx="11" ry="11" style="stroke:#181818;stroke-width:1;"/><path d="M324.9688,68.9375 Q324.3906,69.2344 323.75,69.375 Q323.1094,69.5313 322.4063,69.5313 Q319.9063,69.5313 318.5781,67.8906 Q317.2656,66.2344 317.2656,63.1094 Q317.2656,59.9844 318.5781,58.3281 Q319.9063,56.6719 322.4063,56.6719 Q323.1094,56.6719 323.75,56.8281 Q324.4063,56.9844 324.9688,57.2813 L324.9688,60 Q324.3438,59.4219 323.75,59.1563 Q323.1563,58.875 322.5313,58.875 Q321.1875,58.875 320.5,59.9531 Q319.8125,61.0156 319.8125,63.1094 Q319.8125,65.2031 320.5,66.2813 Q321.1875,67.3438 322.5313,67.3438 Q323.1563,67.3438 323.75,67.0781 Q324.3438,66.7969 324.9688,66.2188 L324.9688,68.9375 Z " fill="#000000"/><text fill="#000000" font-family="sans-serif" font-size="14" lengthAdjust="spacing" textLength="259.2529" x="336" y="68.1436">common::model::decorated_element</text><line style="stroke:#181818;stroke-width:0.5;" x1="308" x2="597.2529" y1="79.2969" y2="79.2969"/><line style="stroke:#181818;stroke-width:0.5;" x1="308" x2="597.2529" y1="87.2969" y2="87.2969"/></g></a><!--class C_0016622768607835415521--><a href="classclanguml_1_1common_1_1model_1_1stylable__element.html" target="_top" title="Diagram elements to which style can be applied." xlink:actuate="onRequest" xlink:href="classclanguml_1_1common_1_1model_1_1stylable__element.html" xlink:show="new" xlink:title="Diagram elements to which style can be applied." xlink:type="simple"><g id="elem_C_0016622768607835415521"><rect codeLine="11" fill="#F1F1F1" height="48" id="C_0016622768607835415521" rx="2.5" ry="2.5" style="stroke:#181818;stroke-width:0.5;" width="275.0928" x="826" y="155.2969"/><ellipse cx="841" cy="171.2969" fill="#ADD1B2" rx="11" ry="11" style="stroke:#181818;stroke-width:1;"/><path d="M843.9688,176.9375 Q843.3906,177.2344 842.75,177.375 Q842.1094,177.5313 841.4063,177.5313 Q838.9063,177.5313 837.5781,175.8906 Q836.2656,174.2344 836.2656,171.1094 Q836.2656,167.9844 837.5781,166.3281 Q838.9063,164.6719 841.4063,164.6719 Q842.1094,164.6719 842.75,164.8281 Q843.4063,164.9844 843.9688,165.2813 L843.9688,168 Q843.3438,167.4219 842.75,167.1563 Q842.1563,166.875 841.5313,166.875 Q840.1875,166.875 839.5,167.9531 Q838.8125,169.0156 838.8125,171.1094 Q838.8125,173.2031 839.5,174.2813 Q840.1875,175.3438 841.5313,175.3438 Q842.1563,175.3438 842.75,175.0781 Q843.3438,174.7969 843.9688,174.2188 L843.9688,176.9375 Z " fill="#000000"/><text fill="#000000" font-family="sans-serif" font-size="14" lengthAdjust="spacing" textLength="243.0928" x="855" y="176.1436">common::model::stylable_element</text><line style="stroke:#181818;stroke-width:0.5;" x1="827" x2="1100.0928" y1="187.2969" y2="187.2969"/><line style="stroke:#181818;stroke-width:0.5;" x1="827" x2="1100.0928" y1="195.2969" y2="195.2969"/></g></a><!--class C_0008588005715032923314--><a href="classclanguml_1_1common_1_1model_1_1diagram__element.html" target="_top" title="Base class for standalone diagram elements." xlink:actuate="onRequest" xlink:href="classclanguml_1_1common_1_1model_1_1diagram__element.html" xlink:show="new" xlink:title="Base class for standalone diagram elements." xlink:type="simple"><g id="elem_C_0008588005715032923314"><rect codeLine="15" fill="#F1F1F1" height="48" id="C_0008588005715032923314" rx="2.5" ry="2.5" style="stroke:#181818;stroke-width:0.5;" width="278.3809" x="512.5" y="155.2969"/><ellipse cx="527.5" cy="171.2969" fill="#ADD1B2" rx="11" ry="11" style="stroke:#181818;stroke-width:1;"/><path d="M530.4688,176.9375 Q529.8906,177.2344 529.25,177.375 Q528.6094,177.5313 527.9063,177.5313 Q525.4063,177.5313 524.0781,175.8906 Q522.7656,174.2344 522.7656,171.1094 Q522.7656,167.9844 524.0781,166.3281 Q525.4063,164.6719 527.9063,164.6719 Q528.6094,164.6719 529.25,164.8281 Q529.9063,164.9844 530.4688,165.2813 L530.4688,168 Q529.8438,167.4219 529.25,167.1563 Q528.6563,166.875 528.0313,166.875 Q526.6875,166.875 526,167.9531 Q525.3125,169.0156 525.3125,171.1094 Q525.3125,173.2031 526,174.2813 Q526.6875,175.3438 528.0313,175.3438 Q528.6563,175.3438 529.25,175.0781 Q529.8438,174.7969 530.4688,174.2188 L530.4688,176.9375 Z " fill="#000000"/><text fill="#000000" font-family="sans-serif" font-size="14" lengthAdjust="spacing" textLength="246.3809" x="541.5" y="176.1436">common::model::diagram_element</text><line style="stroke:#181818;stroke-width:0.5;" x1="513.5" x2="789.8809" y1="187.2969" y2="187.2969"/><line style="stroke:#181818;stroke-width:0.5;" x1="513.5" x2="789.8809" y1="195.2969" y2="195.2969"/></g></a><!--class C_0012891720332235399601--><a href="classclanguml_1_1common_1_1model_1_1nested__trait.html" target="_top" title="nested_trait" xlink:actuate="onRequest" xlink:href="classclanguml_1_1common_1_1model_1_1nested__trait.html" xlink:show="new" xlink:title="nested_trait" xlink:type="simple"><g id="elem_C_0012891720332235399601"><rect codeLine="19" fill="#F1F1F1" height="48" id="C_0012891720332235399601" rx="2.5" ry="2.5" style="stroke:#181818;stroke-width:0.5;" width="618.1572" x="1135.5" y="155.2969"/><ellipse cx="1150.5" cy="171.2969" fill="#ADD1B2" rx="11" ry="11" style="stroke:#181818;stroke-width:1;"/><path d="M1153.4688,176.9375 Q1152.8906,177.2344 1152.25,177.375 Q1151.6094,177.5313 1150.9063,177.5313 Q1148.4063,177.5313 1147.0781,175.8906 Q1145.7656,174.2344 1145.7656,171.1094 Q1145.7656,167.9844 1147.0781,166.3281 Q1148.4063,164.6719 1150.9063,164.6719 Q1151.6094,164.6719 1152.25,164.8281 Q1152.9063,164.9844 1153.4688,165.2813 L1153.4688,168 Q1152.8438,167.4219 1152.25,167.1563 Q1151.6563,166.875 1151.0313,166.875 Q1149.6875,166.875 1149,167.9531 Q1148.3125,169.0156 1148.3125,171.1094 Q1148.3125,173.2031 1149,174.2813 Q1149.6875,175.3438 1151.0313,175.3438 Q1151.6563,175.3438 1152.25,175.0781 Q1152.8438,174.7969 1153.4688,174.2188 L1153.4688,176.9375 Z " fill="#000000"/><text fill="#000000" font-family="sans-serif" font-size="14" lengthAdjust="spacing" textLength="207.4092" x="1164.5" y="176.1436">common::model::nested_trait</text><rect fill="#FFFFFF" height="15.9688" style="stroke:#181818;stroke-width:1;stroke-dasharray:2.0,2.0;" width="376.748" x="1379.9092" y="152.2969"/><text fill="#000000" font-family="sans-serif" font-size="12" font-style="italic" lengthAdjust="spacing" textLength="374.748" x="1380.9092" y="164.4355">common::model::source_file,common::model::filesystem_path</text><line style="stroke:#181818;stroke-width:0.5;" x1="1136.5" x2="1752.6572" y1="187.2969" y2="187.2969"/><line style="stroke:#181818;stroke-width:0.5;" x1="1136.5" x2="1752.6572" y1="195.2969" y2="195.2969"/></g></a><!--class C_0006285717704576425038--><a href="classclanguml_1_1common_1_1model_1_1source__file.html" target="_top" title="Diagram element representing some file or directory." xlink:actuate="onRequest" xlink:href="classclanguml_1_1common_1_1model_1_1source__file.html" xlink:show="new" xlink:title="Diagram element representing some file or directory." xlink:type="simple"><g id="elem_C_0006285717704576425038"><rect codeLine="23" fill="#F1F1F1" height="48" id="C_0006285717704576425038" rx="2.5" ry="2.5" style="stroke:#181818;stroke-width:0.5;" width="230.5566" x="1088" y="263.2969"/><ellipse cx="1103" cy="279.2969" fill="#ADD1B2" rx="11" ry="11" style="stroke:#181818;stroke-width:1;"/><path d="M1105.9688,284.9375 Q1105.3906,285.2344 1104.75,285.375 Q1104.1094,285.5313 1103.4063,285.5313 Q1100.9063,285.5313 1099.5781,283.8906 Q1098.2656,282.2344 1098.2656,279.1094 Q1098.2656,275.9844 1099.5781,274.3281 Q1100.9063,272.6719 1103.4063,272.6719 Q1104.1094,272.6719 1104.75,272.8281 Q1105.4063,272.9844 1105.9688,273.2813 L1105.9688,276 Q1105.3438,275.4219 1104.75,275.1563 Q1104.1563,274.875 1103.5313,274.875 Q1102.1875,274.875 1101.5,275.9531 Q1100.8125,277.0156 1100.8125,279.1094 Q1100.8125,281.2031 1101.5,282.2813 Q1102.1875,283.3438 1103.5313,283.3438 Q1104.1563,283.3438 1104.75,283.0781 Q1105.3438,282.7969 1105.9688,282.2188 L1105.9688,284.9375 Z " fill="#000000"/><text fill="#000000" font-family="sans-serif" font-size="14" lengthAdjust="spacing" textLength="198.5566" x="1117" y="284.1436">common::model::source_file</text><line style="stroke:#181818;stroke-width:0.5;" x1="1089" x2="1317.5566" y1="295.2969" y2="295.2969"/><line style="stroke:#181818;stroke-width:0.5;" x1="1089" x2="1317.5566" y1="303.2969" y2="303.2969"/></g></a><!--class C_0015453306866783002016--><a href="classclanguml_1_1util_1_1memoized.html" target="_top" title="memoized" xlink:actuate="onRequest" xlink:href="classclanguml_1_1util_1_1memoized.html" xlink:show="new" xlink:title="memoized" xlink:type="simple"><g id="elem_C_0015453306866783002016"><rect codeLine="27" fill="#F1F1F1" height="48" id="C_0015453306866783002016" rx="2.5" ry="2.5" style="stroke:#181818;stroke-width:0.5;" width="435.8516" x="633.5" y="47.2969"/><ellipse cx="648.5" cy="63.2969" fill="#ADD1B2" rx="11" ry="11" style="stroke:#181818;stroke-width:1;"/><path d="M651.4688,68.9375 Q650.8906,69.2344 650.25,69.375 Q649.6094,69.5313 648.9063,69.5313 Q646.4063,69.5313 645.0781,67.8906 Q643.7656,66.2344 643.7656,63.1094 Q643.7656,59.9844 645.0781,58.3281 Q646.4063,56.6719 648.9063,56.6719 Q649.6094,56.6719 650.25,56.8281 Q650.9063,56.9844 651.4688,57.2813 L651.4688,60 Q650.8438,59.4219 650.25,59.1563 Q649.6563,58.875 649.0313,58.875 Q647.6875,58.875 647,59.9531 Q646.3125,61.0156 646.3125,63.1094 Q646.3125,65.2031 647,66.2813 Q647.6875,67.3438 649.0313,67.3438 Q649.6563,67.3438 650.25,67.0781 Q650.8438,66.7969 651.4688,66.2188 L651.4688,68.9375 Z " fill="#000000"/><text fill="#000000" font-family="sans-serif" font-size="14" lengthAdjust="spacing" textLength="104.7676" x="662.5" y="68.1436">util::memoized</text><rect fill="#FFFFFF" height="15.9688" style="stroke:#181818;stroke-width:1;stroke-dasharray:2.0,2.0;" width="297.084" x="775.2676" y="44.2969"/><text fill="#000000" font-family="sans-serif" font-size="12" font-style="italic" lengthAdjust="spacing" textLength="295.084" x="776.2676" y="56.4355">common::model::full_name_tag_t,std::string,bool</text><line style="stroke:#181818;stroke-width:0.5;" x1="634.5" x2="1068.3516" y1="79.2969" y2="79.2969"/><line style="stroke:#181818;stroke-width:0.5;" x1="634.5" x2="1068.3516" y1="87.2969" y2="87.2969"/></g></a><!--class C_0011142327304907631799--><a href="classclanguml_1_1util_1_1memoized.html" target="_top" title="memoized" xlink:actuate="onRequest" xlink:href="classclanguml_1_1util_1_1memoized.html" xlink:show="new" xlink:title="memoized" xlink:type="simple"><g id="elem_C_0011142327304907631799"><rect codeLine="31" fill="#F1F1F1" height="48" id="C_0011142327304907631799" rx="2.5" ry="2.5" style="stroke:#181818;stroke-width:0.5;" width="419.6328" x="1104.5" y="47.2969"/><ellipse cx="1119.5" cy="63.2969" fill="#ADD1B2" rx="11" ry="11" style="stroke:#181818;stroke-width:1;"/><path d="M1122.4688,68.9375 Q1121.8906,69.2344 1121.25,69.375 Q1120.6094,69.5313 1119.9063,69.5313 Q1117.4063,69.5313 1116.0781,67.8906 Q1114.7656,66.2344 1114.7656,63.1094 Q1114.7656,59.9844 1116.0781,58.3281 Q1117.4063,56.6719 1119.9063,56.6719 Q1120.6094,56.6719 1121.25,56.8281 Q1121.9063,56.9844 1122.4688,57.2813 L1122.4688,60 Q1121.8438,59.4219 1121.25,59.1563 Q1120.6563,58.875 1120.0313,58.875 Q1118.6875,58.875 1118,59.9531 Q1117.3125,61.0156 1117.3125,63.1094 Q1117.3125,65.2031 1118,66.2813 Q1118.6875,67.3438 1120.0313,67.3438 Q1120.6563,67.3438 1121.25,67.0781 Q1121.8438,66.7969 1122.4688,66.2188 L1122.4688,68.9375 Z " fill="#000000"/><text fill="#000000" font-family="sans-serif" font-size="14" lengthAdjust="spacing" textLength="104.7676" x="1133.5" y="68.1436">util::memoized</text><rect fill="#FFFFFF" height="15.9688" style="stroke:#181818;stroke-width:1;stroke-dasharray:2.0,2.0;" width="280.8652" x="1246.2676" y="44.2969"/><text fill="#000000" font-family="sans-serif" font-size="12" font-style="italic" lengthAdjust="spacing" textLength="278.8652" x="1247.2676" y="56.4355">common::model::name_and_ns_tag,std::string</text><line style="stroke:#181818;stroke-width:0.5;" x1="1105.5" x2="1523.1328" y1="79.2969" y2="79.2969"/><line style="stroke:#181818;stroke-width:0.5;" x1="1105.5" x2="1523.1328" y1="87.2969" y2="87.2969"/></g></a><!--reverse link C_0008936819060997384951 to C_0008588005715032923314--><g id="link_C_0008936819060997384951_C_0008588005715032923314"><path codeLine="34" d="M511.5661,103.7605 C544.8261,121.4805 574.73,137.4069 608.06,155.1569 " fill="transparent" id="C_0008936819060997384951-backto-C_0008588005715032923314" style="stroke:#181818;stroke-width:1;"/><polygon fill="transparent" points="495.68,95.2969,508.7448,109.0559,514.3873,98.4652,495.68,95.2969" style="stroke:#181818;stroke-width:1;"/></g><!--reverse link C_0007162092657467521843 to C_0008588005715032923314--><g id="link_C_0007162092657467521843_C_0008588005715032923314"><path codeLine="35" d="M268.2262,98.9463 C353.9562,116.6963 454.39,137.4869 540.18,155.2469 " fill="transparent" id="C_0007162092657467521843-backto-C_0008588005715032923314" style="stroke:#181818;stroke-width:1;"/><polygon fill="transparent" points="250.6,95.2969,267.0097,104.8217,269.4426,93.0709,250.6,95.2969" style="stroke:#181818;stroke-width:1;"/></g><!--reverse link C_0015453306866783002016 to C_0008588005715032923314--><g id="link_C_0015453306866783002016_C_0008588005715032923314"><path codeLine="36" d="M792.1961,103.7269 C758.7661,121.4469 728.65,137.4069 695.16,155.1569 " fill="transparent" id="C_0015453306866783002016-backto-C_0008588005715032923314" style="stroke:#181818;stroke-width:1;"/><polygon fill="transparent" points="808.1,95.2969,789.3861,98.4256,795.0061,109.0282,808.1,95.2969" style="stroke:#181818;stroke-width:1;"/></g><!--reverse link C_0011142327304907631799 to C_0008588005715032923314--><g id="link_C_0011142327304907631799_C_0008588005715032923314"><path codeLine="37" d="M1152.8657,98.1381 C1040.1357,116.1581 902.01,138.2469 790.54,156.0669 " fill="transparent" id="C_0011142327304907631799-backto-C_0008588005715032923314" style="stroke:#181818;stroke-width:1;"/><polygon fill="transparent" points="1170.64,95.2969,1151.9186,92.2133,1153.8127,104.0629,1170.64,95.2969" style="stroke:#181818;stroke-width:1;"/></g><!--link C_0012891720332235399601 to C_0006285717704576425038--><g id="link_C_0012891720332235399601_C_0006285717704576425038"><path codeLine="38" d="M1381.48,203.2969 C1338.5,221.0169 1288.4782,242.8505 1250.7882,260.6005 " fill="transparent" id="C_0012891720332235399601-to-C_0006285717704576425038" style="stroke:#181818;stroke-width:1;stroke-dasharray:7.0,7.0;"/><polygon fill="#181818" points="1245.36,263.1569,1255.2065,262.9411,1249.8835,261.0266,1251.798,255.7035,1245.36,263.1569" style="stroke:#181818;stroke-width:1;"/></g><!--reverse link C_0012891720332235399601 to C_0006285717704576425038--><g id="link_C_0012891720332235399601_C_0006285717704576425038"><path codeLine="41" d="M1387.291,210.9989 C1349.861,228.7189 1310.69,245.4069 1267.49,263.1569 " fill="transparent" id="C_0012891720332235399601-backto-C_0006285717704576425038" style="stroke:#181818;stroke-width:1;"/><polygon fill="transparent" points="1403.56,203.2969,1384.7237,205.5759,1389.8584,216.4219,1403.56,203.2969" style="stroke:#181818;stroke-width:1;"/></g><!--reverse link C_0008588005715032923314 to C_0006285717704576425038--><g id="link_C_0008588005715032923314_C_0006285717704576425038"><path codeLine="39" d="M788.9571,206.691 C882.8071,224.711 994.93,246.2469 1087.74,264.0669 " fill="transparent" id="C_0008588005715032923314-backto-C_0006285717704576425038" style="stroke:#181818;stroke-width:1;"/><polygon fill="transparent" points="771.28,203.2969,787.8257,212.5834,790.0885,200.7987,771.28,203.2969" style="stroke:#181818;stroke-width:1;"/></g><!--reverse link C_0016622768607835415521 to C_0006285717704576425038--><g id="link_C_0016622768607835415521_C_0006285717704576425038"><path codeLine="40" d="M1032.0448,210.5708 C1072.1548,228.2908 1110.92,245.4069 1151.11,263.1569 " fill="transparent" id="C_0016622768607835415521-backto-C_0006285717704576425038" style="stroke:#181818;stroke-width:1;"/><polygon fill="transparent" points="1015.58,203.2969,1029.6202,216.0591,1034.4695,205.0825,1015.58,203.2969" style="stroke:#181818;stroke-width:1;"/></g><!--SRC=[fLLTRziW57tFhq1zwIQb5XyscAZgmpPfBztJjBrKbKLi4bl29ZAuLTRrlmz_D74RtBZQYuMvNCuv7Ex55bP9y5CtTIh1fd3ZKcTIWLG9Oq1Uo5hKQRvVzFyNgIvBNQrMtQBLodHvYTAfi8MkBe0mu6i28MI8OiWnZLX8MOHH799XYwamkBlh5hXFjMrAbQ04zMZjgCDh1mFY0JB8RQcUlWWZ1yfw0uHI82l4jXOba4gMih86s5nOa8i72Vejm667v_jxyBH8aiNpXCfCfheMLcR9iDjHPym9ZH6757BEI1po28rrUi8pTHunNq1Fb6vq3GxBJWIVLMNiNecraYUY4AKOCnfJo68IXIXo1er4-S9ppNk1VAtfsubN6ZpcHPg3Di795HLOIo1sErN8R8PV_NuUjw8uXZ1YA884Sqm82b-vTHgUwzQ0-AvNneeg4qfNyiIiyvegQThBO6jHs6j_5RRLktmJQkVCtgMMoKxO_EPeCeuvOXWIWZ692ESKlZBP4vvv5WFJdcf_46Fov-_bKStHEOfZvmjZC8mO3R4pA1uxvmb_i9-qSDxR26gvgwLnewBQkjvH3csoBRwYbgdLzTvZNsCBfwMKfIx-oEojOvj6gQGIfKois2PsQMpM5cJj89PhhTN8foYC286ktAWhDmYngx-nJvwmJtbBfzCz4Egbllnzb7x7t5tcf3AjW37z4NE4Gamm8p3aa5626ETZvfxmVp6VRBZNVw-kfkj_yZqwd-Oz_1bfFkKpqdmb6GGtqmKosTIEO5DftYO_8yt7yVsqnULtMSd-3NiiR0uwyw-S-qlm86lZNcW00ngWnUNjxUyVXxbVwwQoJR_wC8buW084Fg6cYwBF_m00]--></g></svg>