<svg xmlns="http://www.w3.org/2000/svg" xmlns:xlink="http://www.w3.org/1999/xlink" contentStyleType="text/css" data-diagram-type="CLASS" height="946px" preserveAspectRatio="none" style="width:1285px;height:946px;background:#FFFFFF;" version="1.1" viewBox="0 0 1285 946" width="1285px" zoomAndPan="magnify"><title>Source location model class hierarchy</title><defs/><g><text fill="#000000" font-family="sans-serif" font-size="14" font-weight="bold" lengthAdjust="spacing" textLength="299.7422" x="485.6289" y="22.9951">Source location model class hierarchy</text><!--cluster C_0002532840279361781187--><g id="cluster_C_0002532840279361781187"><path d="M506.5,43.2969 L574.1777,43.2969 A3.75,3.75 0 0 1 576.6777,45.7969 L583.6777,65.5938 L887.5,65.5938 A2.5,2.5 0 0 1 890,68.0938 L890,530.7969 A2.5,2.5 0 0 1 887.5,533.2969 L506.5,533.2969 A2.5,2.5 0 0 1 504,530.7969 L504,45.7969 A2.5,2.5 0 0 1 506.5,43.2969 " fill="transparent" style="stroke:#000000;stroke-width:1.5;"/><line style="stroke:#000000;stroke-width:1.5;" x1="504" x2="583.6777" y1="65.5938" y2="65.5938"/><text fill="#000000" font-family="sans-serif" font-size="14" font-weight="bold" lengthAdjust="spacing" textLength="66.6777" x="508" y="58.292">common</text></g><!--cluster C_0000669774451444102653--><g id="cluster_C_0000669774451444102653"><path d="M530.5,86.2969 L580.0215,86.2969 A3.75,3.75 0 0 1 582.5215,88.7969 L589.5215,108.5938 L863.5,108.5938 A2.5,2.5 0 0 1 866,111.0938 L866,506.7969 A2.5,2.5 0 0 1 863.5,509.2969 L530.5,509.2969 A2.5,2.5 0 0 1 528,506.7969 L528,88.7969 A2.5,2.5 0 0 1 530.5,86.2969 " fill="transparent" style="stroke:#000000;stroke-width:1.5;"/><line style="stroke:#000000;stroke-width:1.5;" x1="528" x2="589.5215" y1="108.5938" y2="108.5938"/><text fill="#000000" font-family="sans-serif" font-size="14" font-weight="bold" lengthAdjust="spacing" textLength="48.5215" x="532" y="101.292">model</text></g><!--cluster C_0017921336289613804855--><g id="cluster_C_0017921336289613804855"><path d="M549.5,557.2969 L661.9395,557.2969 A3.75,3.75 0 0 1 664.4395,559.7969 L671.4395,579.5938 L1275.5,579.5938 A2.5,2.5 0 0 1 1278,582.0938 L1278,936.7969 A2.5,2.5 0 0 1 1275.5,939.2969 L549.5,939.2969 A2.5,2.5 0 0 1 547,936.7969 L547,559.7969 A2.5,2.5 0 0 1 549.5,557.2969 " fill="transparent" style="stroke:#000000;stroke-width:1.5;"/><line style="stroke:#000000;stroke-width:1.5;" x1="547" x2="671.4395" y1="579.5938" y2="579.5938"/><text fill="#000000" font-family="sans-serif" font-size="14" font-weight="bold" lengthAdjust="spacing" textLength="111.4395" x="551" y="572.292">class_diagram</text></g><!--cluster C_0007176993879715460962--><g id="cluster_C_0007176993879715460962"><path d="M573.5,600.2969 L623.0215,600.2969 A3.75,3.75 0 0 1 625.5215,602.7969 L632.5215,622.5938 L1251.5,622.5938 A2.5,2.5 0 0 1 1254,625.0938 L1254,912.7969 A2.5,2.5 0 0 1 1251.5,915.2969 L573.5,915.2969 A2.5,2.5 0 0 1 571,912.7969 L571,602.7969 A2.5,2.5 0 0 1 573.5,600.2969 " fill="transparent" style="stroke:#000000;stroke-width:1.5;"/><line style="stroke:#000000;stroke-width:1.5;" x1="571" x2="632.5215" y1="622.5938" y2="622.5938"/><text fill="#000000" font-family="sans-serif" font-size="14" font-weight="bold" lengthAdjust="spacing" textLength="48.5215" x="575" y="615.292">model</text></g><!--cluster C_0012174902727661033893--><g id="cluster_C_0012174902727661033893"><path d="M8.5,557.2969 L156.8008,557.2969 A3.75,3.75 0 0 1 159.3008,559.7969 L166.3008,579.5938 L520.5,579.5938 A2.5,2.5 0 0 1 523,582.0938 L523,936.7969 A2.5,2.5 0 0 1 520.5,939.2969 L8.5,939.2969 A2.5,2.5 0 0 1 6,936.7969 L6,559.7969 A2.5,2.5 0 0 1 8.5,557.2969 " fill="transparent" style="stroke:#000000;stroke-width:1.5;"/><line style="stroke:#000000;stroke-width:1.5;" x1="6" x2="166.3008" y1="579.5938" y2="579.5938"/><text fill="#000000" font-family="sans-serif" font-size="14" font-weight="bold" lengthAdjust="spacing" textLength="147.3008" x="10" y="572.292">sequence_diagram</text></g><!--cluster C_0017655759046645114118--><g id="cluster_C_0017655759046645114118"><path d="M32.5,600.2969 L82.0215,600.2969 A3.75,3.75 0 0 1 84.5215,602.7969 L91.5215,622.5938 L496.5,622.5938 A2.5,2.5 0 0 1 499,625.0938 L499,912.7969 A2.5,2.5 0 0 1 496.5,915.2969 L32.5,915.2969 A2.5,2.5 0 0 1 30,912.7969 L30,602.7969 A2.5,2.5 0 0 1 32.5,600.2969 " fill="transparent" style="stroke:#000000;stroke-width:1.5;"/><line style="stroke:#000000;stroke-width:1.5;" x1="30" x2="91.5215" y1="622.5938" y2="622.5938"/><text fill="#000000" font-family="sans-serif" font-size="14" font-weight="bold" lengthAdjust="spacing" textLength="48.5215" x="34" y="615.292">model</text></g><!--class C_0007162092657467521843--><a href="classclanguml_1_1common_1_1model_1_1source__location.html" target="_top" title="Base class of all diagram elements that have source location." xlink:actuate="onRequest" xlink:href="classclanguml_1_1common_1_1model_1_1source__location.html" xlink:show="new" xlink:title="Base class of all diagram elements that have source location." xlink:type="simple"><g id="elem_C_0007162092657467521843"><rect codeLine="5" fill="#F1F1F1" height="48" id="C_0007162092657467521843" rx="2.5" ry="2.5" style="stroke:#181818;stroke-width:0.5;" width="141.3477" x="701.5" y="121.2969"/><ellipse cx="716.5" cy="137.2969" fill="#ADD1B2" rx="11" ry="11" style="stroke:#181818;stroke-width:1;"/><path d="M719.4688,142.9375 Q718.8906,143.2344 718.25,143.375 Q717.6094,143.5313 716.9063,143.5313 Q714.4063,143.5313 713.0781,141.8906 Q711.7656,140.2344 711.7656,137.1094 Q711.7656,133.9844 713.0781,132.3281 Q714.4063,130.6719 716.9063,130.6719 Q717.6094,130.6719 718.25,130.8281 Q718.9063,130.9844 719.4688,131.2813 L719.4688,134 Q718.8438,133.4219 718.25,133.1563 Q717.6563,132.875 717.0313,132.875 Q715.6875,132.875 715,133.9531 Q714.3125,135.0156 714.3125,137.1094 Q714.3125,139.2031 715,140.2813 Q715.6875,141.3438 717.0313,141.3438 Q717.6563,141.3438 718.25,141.0781 Q718.8438,140.7969 719.4688,140.2188 L719.4688,142.9375 Z " fill="#000000"/><text fill="#000000" font-family="sans-serif" font-size="14" lengthAdjust="spacing" textLength="109.3477" x="730.5" y="142.1436">source_location</text><line style="stroke:#181818;stroke-width:0.5;" x1="702.5" x2="841.8477" y1="153.2969" y2="153.2969"/><line style="stroke:#181818;stroke-width:0.5;" x1="702.5" x2="841.8477" y1="161.2969" y2="161.2969"/></g></a><!--class C_0016370694070378943411--><a href="classclanguml_1_1common_1_1model_1_1relationship.html" target="_top" title="Class representing any relationship other than inheritance" xlink:actuate="onRequest" xlink:href="classclanguml_1_1common_1_1model_1_1relationship.html" xlink:show="new" xlink:title="Class representing any relationship other than inheritance" xlink:type="simple"><g id="elem_C_0016370694070378943411"><rect codeLine="9" fill="#F1F1F1" height="48" id="C_0016370694070378943411" rx="2.5" ry="2.5" style="stroke:#181818;stroke-width:0.5;" width="114.5986" x="544.5" y="229.2969"/><ellipse cx="559.5" cy="245.2969" fill="#ADD1B2" rx="11" ry="11" style="stroke:#181818;stroke-width:1;"/><path d="M562.4688,250.9375 Q561.8906,251.2344 561.25,251.375 Q560.6094,251.5313 559.9063,251.5313 Q557.4063,251.5313 556.0781,249.8906 Q554.7656,248.2344 554.7656,245.1094 Q554.7656,241.9844 556.0781,240.3281 Q557.4063,238.6719 559.9063,238.6719 Q560.6094,238.6719 561.25,238.8281 Q561.9063,238.9844 562.4688,239.2813 L562.4688,242 Q561.8438,241.4219 561.25,241.1563 Q560.6563,240.875 560.0313,240.875 Q558.6875,240.875 558,241.9531 Q557.3125,243.0156 557.3125,245.1094 Q557.3125,247.2031 558,248.2813 Q558.6875,249.3438 560.0313,249.3438 Q560.6563,249.3438 561.25,249.0781 Q561.8438,248.7969 562.4688,248.2188 L562.4688,250.9375 Z " fill="#000000"/><text fill="#000000" font-family="sans-serif" font-size="14" lengthAdjust="spacing" textLength="82.5986" x="573.5" y="250.1436">relationship</text><line style="stroke:#181818;stroke-width:0.5;" x1="545.5" x2="658.0986" y1="261.2969" y2="261.2969"/><line style="stroke:#181818;stroke-width:0.5;" x1="545.5" x2="658.0986" y1="269.2969" y2="269.2969"/></g></a><!--class C_0008588005715032923314--><a href="classclanguml_1_1common_1_1model_1_1diagram__element.html" target="_top" title="Base class for standalone diagram elements." xlink:actuate="onRequest" xlink:href="classclanguml_1_1common_1_1model_1_1diagram__element.html" xlink:show="new" xlink:title="Base class for standalone diagram elements." xlink:type="simple"><g id="elem_C_0008588005715032923314"><rect codeLine="13" fill="#F1F1F1" height="48" id="C_0008588005715032923314" rx="2.5" ry="2.5" style="stroke:#181818;stroke-width:0.5;" width="154.9443" x="694.5" y="229.2969"/><ellipse cx="709.5" cy="245.2969" fill="#ADD1B2" rx="11" ry="11" style="stroke:#181818;stroke-width:1;"/><path d="M712.4688,250.9375 Q711.8906,251.2344 711.25,251.375 Q710.6094,251.5313 709.9063,251.5313 Q707.4063,251.5313 706.0781,249.8906 Q704.7656,248.2344 704.7656,245.1094 Q704.7656,241.9844 706.0781,240.3281 Q707.4063,238.6719 709.9063,238.6719 Q710.6094,238.6719 711.25,238.8281 Q711.9063,238.9844 712.4688,239.2813 L712.4688,242 Q711.8438,241.4219 711.25,241.1563 Q710.6563,240.875 710.0313,240.875 Q708.6875,240.875 708,241.9531 Q707.3125,243.0156 707.3125,245.1094 Q707.3125,247.2031 708,248.2813 Q708.6875,249.3438 710.0313,249.3438 Q710.6563,249.3438 711.25,249.0781 Q711.8438,248.7969 712.4688,248.2188 L712.4688,250.9375 Z " fill="#000000"/><text fill="#000000" font-family="sans-serif" font-size="14" lengthAdjust="spacing" textLength="122.9443" x="723.5" y="250.1436">diagram_element</text><line style="stroke:#181818;stroke-width:0.5;" x1="695.5" x2="848.4443" y1="261.2969" y2="261.2969"/><line style="stroke:#181818;stroke-width:0.5;" x1="695.5" x2="848.4443" y1="269.2969" y2="269.2969"/></g></a><!--class C_0016556163051475263500--><a href="classclanguml_1_1common_1_1model_1_1element.html" target="_top" title="Base class for any element qualified by namespace." xlink:actuate="onRequest" xlink:href="classclanguml_1_1common_1_1model_1_1element.html" xlink:show="new" xlink:title="Base class for any element qualified by namespace." xlink:type="simple"><g id="elem_C_0016556163051475263500"><rect codeLine="17" fill="#F1F1F1" height="48" id="C_0016556163051475263500" rx="2.5" ry="2.5" style="stroke:#181818;stroke-width:0.5;" width="89.7295" x="618" y="337.2969"/><ellipse cx="633" cy="353.2969" fill="#ADD1B2" rx="11" ry="11" style="stroke:#181818;stroke-width:1;"/><path d="M635.9688,358.9375 Q635.3906,359.2344 634.75,359.375 Q634.1094,359.5313 633.4063,359.5313 Q630.9063,359.5313 629.5781,357.8906 Q628.2656,356.2344 628.2656,353.1094 Q628.2656,349.9844 629.5781,348.3281 Q630.9063,346.6719 633.4063,346.6719 Q634.1094,346.6719 634.75,346.8281 Q635.4063,346.9844 635.9688,347.2813 L635.9688,350 Q635.3438,349.4219 634.75,349.1563 Q634.1563,348.875 633.5313,348.875 Q632.1875,348.875 631.5,349.9531 Q630.8125,351.0156 630.8125,353.1094 Q630.8125,355.2031 631.5,356.2813 Q632.1875,357.3438 633.5313,357.3438 Q634.1563,357.3438 634.75,357.0781 Q635.3438,356.7969 635.9688,356.2188 L635.9688,358.9375 Z " fill="#000000"/><text fill="#000000" font-family="sans-serif" font-size="14" lengthAdjust="spacing" textLength="57.7295" x="647" y="358.1436">element</text><line style="stroke:#181818;stroke-width:0.5;" x1="619" x2="706.7295" y1="369.2969" y2="369.2969"/><line style="stroke:#181818;stroke-width:0.5;" x1="619" x2="706.7295" y1="377.2969" y2="377.2969"/></g></a><!--class C_0013384831159811298387--><a href="classclanguml_1_1common_1_1model_1_1template__element.html" target="_top" title="Base class for any element qualified by namespace." xlink:actuate="onRequest" xlink:href="classclanguml_1_1common_1_1model_1_1template__element.html" xlink:show="new" xlink:title="Base class for any element qualified by namespace." xlink:type="simple"><g id="elem_C_0013384831159811298387"><rect codeLine="21" fill="#F1F1F1" height="48" id="C_0013384831159811298387" rx="2.5" ry="2.5" style="stroke:#181818;stroke-width:0.5;" width="159.9277" x="544" y="445.2969"/><ellipse cx="559" cy="461.2969" fill="#ADD1B2" rx="11" ry="11" style="stroke:#181818;stroke-width:1;"/><path d="M561.9688,466.9375 Q561.3906,467.2344 560.75,467.375 Q560.1094,467.5313 559.4063,467.5313 Q556.9063,467.5313 555.5781,465.8906 Q554.2656,464.2344 554.2656,461.1094 Q554.2656,457.9844 555.5781,456.3281 Q556.9063,454.6719 559.4063,454.6719 Q560.1094,454.6719 560.75,454.8281 Q561.4063,454.9844 561.9688,455.2813 L561.9688,458 Q561.3438,457.4219 560.75,457.1563 Q560.1563,456.875 559.5313,456.875 Q558.1875,456.875 557.5,457.9531 Q556.8125,459.0156 556.8125,461.1094 Q556.8125,463.2031 557.5,464.2813 Q558.1875,465.3438 559.5313,465.3438 Q560.1563,465.3438 560.75,465.0781 Q561.3438,464.7969 561.9688,464.2188 L561.9688,466.9375 Z " fill="#000000"/><text fill="#000000" font-family="sans-serif" font-size="14" lengthAdjust="spacing" textLength="127.9277" x="573" y="466.1436">template_element</text><line style="stroke:#181818;stroke-width:0.5;" x1="545" x2="702.9277" y1="477.2969" y2="477.2969"/><line style="stroke:#181818;stroke-width:0.5;" x1="545" x2="702.9277" y1="485.2969" y2="485.2969"/></g></a><!--class C_0006285717704576425038--><a href="classclanguml_1_1common_1_1model_1_1source__file.html" target="_top" title="Diagram element representing some file or directory." xlink:actuate="onRequest" xlink:href="classclanguml_1_1common_1_1model_1_1source__file.html" xlink:show="new" xlink:title="Diagram element representing some file or directory." xlink:type="simple"><g id="elem_C_0006285717704576425038"><rect codeLine="25" fill="#F1F1F1" height="48" id="C_0006285717704576425038" rx="2.5" ry="2.5" style="stroke:#181818;stroke-width:0.5;" width="107.1201" x="743.5" y="337.2969"/><ellipse cx="758.5" cy="353.2969" fill="#ADD1B2" rx="11" ry="11" style="stroke:#181818;stroke-width:1;"/><path d="M761.4688,358.9375 Q760.8906,359.2344 760.25,359.375 Q759.6094,359.5313 758.9063,359.5313 Q756.4063,359.5313 755.0781,357.8906 Q753.7656,356.2344 753.7656,353.1094 Q753.7656,349.9844 755.0781,348.3281 Q756.4063,346.6719 758.9063,346.6719 Q759.6094,346.6719 760.25,346.8281 Q760.9063,346.9844 761.4688,347.2813 L761.4688,350 Q760.8438,349.4219 760.25,349.1563 Q759.6563,348.875 759.0313,348.875 Q757.6875,348.875 757,349.9531 Q756.3125,351.0156 756.3125,353.1094 Q756.3125,355.2031 757,356.2813 Q757.6875,357.3438 759.0313,357.3438 Q759.6563,357.3438 760.25,357.0781 Q760.8438,356.7969 761.4688,356.2188 L761.4688,358.9375 Z " fill="#000000"/><text fill="#000000" font-family="sans-serif" font-size="14" lengthAdjust="spacing" textLength="75.1201" x="772.5" y="358.1436">source_file</text><line style="stroke:#181818;stroke-width:0.5;" x1="744.5" x2="849.6201" y1="369.2969" y2="369.2969"/><line style="stroke:#181818;stroke-width:0.5;" x1="744.5" x2="849.6201" y1="377.2969" y2="377.2969"/></g></a><!--class C_0017146293478645494837--><a href="classclanguml_1_1common_1_1model_1_1package.html" target="_top" title="Diagram element representing namespace or directory package" xlink:actuate="onRequest" xlink:href="classclanguml_1_1common_1_1model_1_1package.html" xlink:show="new" xlink:title="Diagram element representing namespace or directory package" xlink:type="simple"><g id="elem_C_0017146293478645494837"><rect codeLine="29" fill="#F1F1F1" height="48" id="C_0017146293478645494837" rx="2.5" ry="2.5" style="stroke:#181818;stroke-width:0.5;" width="91.3496" x="739.5" y="445.2969"/><ellipse cx="754.5" cy="461.2969" fill="#ADD1B2" rx="11" ry="11" style="stroke:#181818;stroke-width:1;"/><path d="M757.4688,466.9375 Q756.8906,467.2344 756.25,467.375 Q755.6094,467.5313 754.9063,467.5313 Q752.4063,467.5313 751.0781,465.8906 Q749.7656,464.2344 749.7656,461.1094 Q749.7656,457.9844 751.0781,456.3281 Q752.4063,454.6719 754.9063,454.6719 Q755.6094,454.6719 756.25,454.8281 Q756.9063,454.9844 757.4688,455.2813 L757.4688,458 Q756.8438,457.4219 756.25,457.1563 Q755.6563,456.875 755.0313,456.875 Q753.6875,456.875 753,457.9531 Q752.3125,459.0156 752.3125,461.1094 Q752.3125,463.2031 753,464.2813 Q753.6875,465.3438 755.0313,465.3438 Q755.6563,465.3438 756.25,465.0781 Q756.8438,464.7969 757.4688,464.2188 L757.4688,466.9375 Z " fill="#000000"/><text fill="#000000" font-family="sans-serif" font-size="14" lengthAdjust="spacing" textLength="59.3496" x="768.5" y="466.1436">package</text><line style="stroke:#181818;stroke-width:0.5;" x1="740.5" x2="829.8496" y1="477.2969" y2="477.2969"/><line style="stroke:#181818;stroke-width:0.5;" x1="740.5" x2="829.8496" y1="485.2969" y2="485.2969"/></g></a><!--class C_0004846934894930864299--><a href="classclanguml_1_1class__diagram_1_1model_1_1class__element.html" target="_top" title="Base class for class elements (e.g. member or method)." xlink:actuate="onRequest" xlink:href="classclanguml_1_1class__diagram_1_1model_1_1class__element.html" xlink:show="new" xlink:title="Base class for class elements (e.g. member or method)." xlink:type="simple"><g id="elem_C_0004846934894930864299"><rect codeLine="37" fill="#F1F1F1" height="48" id="C_0004846934894930864299" rx="2.5" ry="2.5" style="stroke:#181818;stroke-width:0.5;" width="131.4834" x="1106.5" y="635.2969"/><ellipse cx="1121.5" cy="651.2969" fill="#ADD1B2" rx="11" ry="11" style="stroke:#181818;stroke-width:1;"/><path d="M1124.4688,656.9375 Q1123.8906,657.2344 1123.25,657.375 Q1122.6094,657.5313 1121.9063,657.5313 Q1119.4063,657.5313 1118.0781,655.8906 Q1116.7656,654.2344 1116.7656,651.1094 Q1116.7656,647.9844 1118.0781,646.3281 Q1119.4063,644.6719 1121.9063,644.6719 Q1122.6094,644.6719 1123.25,644.8281 Q1123.9063,644.9844 1124.4688,645.2813 L1124.4688,648 Q1123.8438,647.4219 1123.25,647.1563 Q1122.6563,646.875 1122.0313,646.875 Q1120.6875,646.875 1120,647.9531 Q1119.3125,649.0156 1119.3125,651.1094 Q1119.3125,653.2031 1120,654.2813 Q1120.6875,655.3438 1122.0313,655.3438 Q1122.6563,655.3438 1123.25,655.0781 Q1123.8438,654.7969 1124.4688,654.2188 L1124.4688,656.9375 Z " fill="#000000"/><text fill="#000000" font-family="sans-serif" font-size="14" lengthAdjust="spacing" textLength="99.4834" x="1135.5" y="656.1436">class_element</text><line style="stroke:#181818;stroke-width:0.5;" x1="1107.5" x2="1236.9834" y1="667.2969" y2="667.2969"/><line style="stroke:#181818;stroke-width:0.5;" x1="1107.5" x2="1236.9834" y1="675.2969" y2="675.2969"/></g></a><!--class C_0014241292626575163322--><a href="classclanguml_1_1class__diagram_1_1model_1_1class__member__base.html" target="_top" title="Generic class member model." xlink:actuate="onRequest" xlink:href="classclanguml_1_1class__diagram_1_1model_1_1class__member__base.html" xlink:show="new" xlink:title="Generic class member model." xlink:type="simple"><g id="elem_C_0014241292626575163322"><rect codeLine="41" fill="#F1F1F1" height="48" id="C_0014241292626575163322" rx="2.5" ry="2.5" style="stroke:#181818;stroke-width:0.5;" width="173.2715" x="767.5" y="743.2969"/><ellipse cx="782.5" cy="759.2969" fill="#ADD1B2" rx="11" ry="11" style="stroke:#181818;stroke-width:1;"/><path d="M785.4688,764.9375 Q784.8906,765.2344 784.25,765.375 Q783.6094,765.5313 782.9063,765.5313 Q780.4063,765.5313 779.0781,763.8906 Q777.7656,762.2344 777.7656,759.1094 Q777.7656,755.9844 779.0781,754.3281 Q780.4063,752.6719 782.9063,752.6719 Q783.6094,752.6719 784.25,752.8281 Q784.9063,752.9844 785.4688,753.2813 L785.4688,756 Q784.8438,755.4219 784.25,755.1563 Q783.6563,754.875 783.0313,754.875 Q781.6875,754.875 781,755.9531 Q780.3125,757.0156 780.3125,759.1094 Q780.3125,761.2031 781,762.2813 Q781.6875,763.3438 783.0313,763.3438 Q783.6563,763.3438 784.25,763.0781 Q784.8438,762.7969 785.4688,762.2188 L785.4688,764.9375 Z " fill="#000000"/><text fill="#000000" font-family="sans-serif" font-size="14" lengthAdjust="spacing" textLength="141.2715" x="796.5" y="764.1436">class_member_base</text><line style="stroke:#181818;stroke-width:0.5;" x1="768.5" x2="939.7715" y1="775.2969" y2="775.2969"/><line style="stroke:#181818;stroke-width:0.5;" x1="768.5" x2="939.7715" y1="783.2969" y2="783.2969"/></g></a><!--class C_0014370262096868218046--><a href="classclanguml_1_1class__diagram_1_1model_1_1class__member.html" target="_top" title="Class member model." xlink:actuate="onRequest" xlink:href="classclanguml_1_1class__diagram_1_1model_1_1class__member.html" xlink:show="new" xlink:title="Class member model." xlink:type="simple"><g id="elem_C_0014370262096868218046"><rect codeLine="45" fill="#F1F1F1" height="48" id="C_0014370262096868218046" rx="2.5" ry="2.5" style="stroke:#181818;stroke-width:0.5;" width="132.8984" x="622.5" y="851.2969"/><ellipse cx="637.5" cy="867.2969" fill="#ADD1B2" rx="11" ry="11" style="stroke:#181818;stroke-width:1;"/><path d="M640.4688,872.9375 Q639.8906,873.2344 639.25,873.375 Q638.6094,873.5313 637.9063,873.5313 Q635.4063,873.5313 634.0781,871.8906 Q632.7656,870.2344 632.7656,867.1094 Q632.7656,863.9844 634.0781,862.3281 Q635.4063,860.6719 637.9063,860.6719 Q638.6094,860.6719 639.25,860.8281 Q639.9063,860.9844 640.4688,861.2813 L640.4688,864 Q639.8438,863.4219 639.25,863.1563 Q638.6563,862.875 638.0313,862.875 Q636.6875,862.875 636,863.9531 Q635.3125,865.0156 635.3125,867.1094 Q635.3125,869.2031 636,870.2813 Q636.6875,871.3438 638.0313,871.3438 Q638.6563,871.3438 639.25,871.0781 Q639.8438,870.7969 640.4688,870.2188 L640.4688,872.9375 Z " fill="#000000"/><text fill="#000000" font-family="sans-serif" font-size="14" lengthAdjust="spacing" textLength="100.8984" x="651.5" y="872.1436">class_member</text><line style="stroke:#181818;stroke-width:0.5;" x1="623.5" x2="754.3984" y1="883.2969" y2="883.2969"/><line style="stroke:#181818;stroke-width:0.5;" x1="623.5" x2="754.3984" y1="891.2969" y2="891.2969"/></g></a><!--class C_0018032026899693266441--><a href="classclanguml_1_1class__diagram_1_1model_1_1class__method__base.html" target="_top" title="Class method model." xlink:actuate="onRequest" xlink:href="classclanguml_1_1class__diagram_1_1model_1_1class__method__base.html" xlink:show="new" xlink:title="Class method model." xlink:type="simple"><g id="elem_C_0018032026899693266441"><rect codeLine="49" fill="#F1F1F1" height="48" id="C_0018032026899693266441" rx="2.5" ry="2.5" style="stroke:#181818;stroke-width:0.5;" width="168.1924" x="1070" y="743.2969"/><ellipse cx="1085" cy="759.2969" fill="#ADD1B2" rx="11" ry="11" style="stroke:#181818;stroke-width:1;"/><path d="M1087.9688,764.9375 Q1087.3906,765.2344 1086.75,765.375 Q1086.1094,765.5313 1085.4063,765.5313 Q1082.9063,765.5313 1081.5781,763.8906 Q1080.2656,762.2344 1080.2656,759.1094 Q1080.2656,755.9844 1081.5781,754.3281 Q1082.9063,752.6719 1085.4063,752.6719 Q1086.1094,752.6719 1086.75,752.8281 Q1087.4063,752.9844 1087.9688,753.2813 L1087.9688,756 Q1087.3438,755.4219 1086.75,755.1563 Q1086.1563,754.875 1085.5313,754.875 Q1084.1875,754.875 1083.5,755.9531 Q1082.8125,757.0156 1082.8125,759.1094 Q1082.8125,761.2031 1083.5,762.2813 Q1084.1875,763.3438 1085.5313,763.3438 Q1086.1563,763.3438 1086.75,763.0781 Q1087.3438,762.7969 1087.9688,762.2188 L1087.9688,764.9375 Z " fill="#000000"/><text fill="#000000" font-family="sans-serif" font-size="14" lengthAdjust="spacing" textLength="136.1924" x="1099" y="764.1436">class_method_base</text><line style="stroke:#181818;stroke-width:0.5;" x1="1071" x2="1237.1924" y1="775.2969" y2="775.2969"/><line style="stroke:#181818;stroke-width:0.5;" x1="1071" x2="1237.1924" y1="783.2969" y2="783.2969"/></g></a><!--class C_0001633165731746789371--><a href="classclanguml_1_1class__diagram_1_1model_1_1class__method.html" target="_top" title="Class method model." xlink:actuate="onRequest" xlink:href="classclanguml_1_1class__diagram_1_1model_1_1class__method.html" xlink:show="new" xlink:title="Class method model." xlink:type="simple"><g id="elem_C_0001633165731746789371"><rect codeLine="53" fill="#F1F1F1" height="48" id="C_0001633165731746789371" rx="2.5" ry="2.5" style="stroke:#181818;stroke-width:0.5;" width="127.8193" x="953" y="851.2969"/><ellipse cx="968" cy="867.2969" fill="#ADD1B2" rx="11" ry="11" style="stroke:#181818;stroke-width:1;"/><path d="M970.9688,872.9375 Q970.3906,873.2344 969.75,873.375 Q969.1094,873.5313 968.4063,873.5313 Q965.9063,873.5313 964.5781,871.8906 Q963.2656,870.2344 963.2656,867.1094 Q963.2656,863.9844 964.5781,862.3281 Q965.9063,860.6719 968.4063,860.6719 Q969.1094,860.6719 969.75,860.8281 Q970.4063,860.9844 970.9688,861.2813 L970.9688,864 Q970.3438,863.4219 969.75,863.1563 Q969.1563,862.875 968.5313,862.875 Q967.1875,862.875 966.5,863.9531 Q965.8125,865.0156 965.8125,867.1094 Q965.8125,869.2031 966.5,870.2813 Q967.1875,871.3438 968.5313,871.3438 Q969.1563,871.3438 969.75,871.0781 Q970.3438,870.7969 970.9688,870.2188 L970.9688,872.9375 Z " fill="#000000"/><text fill="#000000" font-family="sans-serif" font-size="14" lengthAdjust="spacing" textLength="95.8193" x="982" y="872.1436">class_method</text><line style="stroke:#181818;stroke-width:0.5;" x1="954" x2="1079.8193" y1="883.2969" y2="883.2969"/><line style="stroke:#181818;stroke-width:0.5;" x1="954" x2="1079.8193" y1="891.2969" y2="891.2969"/></g></a><!--class C_0010336274859733225462--><a href="classclanguml_1_1class__diagram_1_1model_1_1class__.html" target="_top" title="Diagram element representing a class or class template." xlink:actuate="onRequest" xlink:href="classclanguml_1_1class__diagram_1_1model_1_1class__.html" xlink:show="new" xlink:title="Diagram element representing a class or class template." xlink:type="simple"><g id="elem_C_0010336274859733225462"><rect codeLine="57" fill="#F1F1F1" height="48" id="C_0010336274859733225462" rx="2.5" ry="2.5" style="stroke:#181818;stroke-width:0.5;" width="73.7539" x="587" y="635.2969"/><ellipse cx="602" cy="651.2969" fill="#ADD1B2" rx="11" ry="11" style="stroke:#181818;stroke-width:1;"/><path d="M604.9688,656.9375 Q604.3906,657.2344 603.75,657.375 Q603.1094,657.5313 602.4063,657.5313 Q599.9063,657.5313 598.5781,655.8906 Q597.2656,654.2344 597.2656,651.1094 Q597.2656,647.9844 598.5781,646.3281 Q599.9063,644.6719 602.4063,644.6719 Q603.1094,644.6719 603.75,644.8281 Q604.4063,644.9844 604.9688,645.2813 L604.9688,648 Q604.3438,647.4219 603.75,647.1563 Q603.1563,646.875 602.5313,646.875 Q601.1875,646.875 600.5,647.9531 Q599.8125,649.0156 599.8125,651.1094 Q599.8125,653.2031 600.5,654.2813 Q601.1875,655.3438 602.5313,655.3438 Q603.1563,655.3438 603.75,655.0781 Q604.3438,654.7969 604.9688,654.2188 L604.9688,656.9375 Z " fill="#000000"/><text fill="#000000" font-family="sans-serif" font-size="14" lengthAdjust="spacing" textLength="41.7539" x="616" y="656.1436">class_</text><line style="stroke:#181818;stroke-width:0.5;" x1="588" x2="659.7539" y1="667.2969" y2="667.2969"/><line style="stroke:#181818;stroke-width:0.5;" x1="588" x2="659.7539" y1="675.2969" y2="675.2969"/></g></a><!--class C_0010998792414017796003--><a href="classclanguml_1_1class__diagram_1_1model_1_1concept__.html" target="_top" title="Model of C++ concept." xlink:actuate="onRequest" xlink:href="classclanguml_1_1class__diagram_1_1model_1_1concept__.html" xlink:show="new" xlink:title="Model of C++ concept." xlink:type="simple"><g id="elem_C_0010998792414017796003"><rect codeLine="61" fill="#F1F1F1" height="48" id="C_0010998792414017796003" rx="2.5" ry="2.5" style="stroke:#181818;stroke-width:0.5;" width="94.8223" x="696.5" y="635.2969"/><ellipse cx="711.5" cy="651.2969" fill="#ADD1B2" rx="11" ry="11" style="stroke:#181818;stroke-width:1;"/><path d="M714.4688,656.9375 Q713.8906,657.2344 713.25,657.375 Q712.6094,657.5313 711.9063,657.5313 Q709.4063,657.5313 708.0781,655.8906 Q706.7656,654.2344 706.7656,651.1094 Q706.7656,647.9844 708.0781,646.3281 Q709.4063,644.6719 711.9063,644.6719 Q712.6094,644.6719 713.25,644.8281 Q713.9063,644.9844 714.4688,645.2813 L714.4688,648 Q713.8438,647.4219 713.25,647.1563 Q712.6563,646.875 712.0313,646.875 Q710.6875,646.875 710,647.9531 Q709.3125,649.0156 709.3125,651.1094 Q709.3125,653.2031 710,654.2813 Q710.6875,655.3438 712.0313,655.3438 Q712.6563,655.3438 713.25,655.0781 Q713.8438,654.7969 714.4688,654.2188 L714.4688,656.9375 Z " fill="#000000"/><text fill="#000000" font-family="sans-serif" font-size="14" lengthAdjust="spacing" textLength="62.8223" x="725.5" y="656.1436">concept_</text><line style="stroke:#181818;stroke-width:0.5;" x1="697.5" x2="790.3223" y1="667.2969" y2="667.2969"/><line style="stroke:#181818;stroke-width:0.5;" x1="697.5" x2="790.3223" y1="675.2969" y2="675.2969"/></g></a><!--class C_0005795143816749204050--><a href="classclanguml_1_1class__diagram_1_1model_1_1enum__.html" target="_top" title="Diagram element representing an enum." xlink:actuate="onRequest" xlink:href="classclanguml_1_1class__diagram_1_1model_1_1enum__.html" xlink:show="new" xlink:title="Diagram element representing an enum." xlink:type="simple"><g id="elem_C_0005795143816749204050"><rect codeLine="65" fill="#F1F1F1" height="48" id="C_0005795143816749204050" rx="2.5" ry="2.5" style="stroke:#181818;stroke-width:0.5;" width="78.9971" x="826.5" y="635.2969"/><ellipse cx="841.5" cy="651.2969" fill="#ADD1B2" rx="11" ry="11" style="stroke:#181818;stroke-width:1;"/><path d="M844.4688,656.9375 Q843.8906,657.2344 843.25,657.375 Q842.6094,657.5313 841.9063,657.5313 Q839.4063,657.5313 838.0781,655.8906 Q836.7656,654.2344 836.7656,651.1094 Q836.7656,647.9844 838.0781,646.3281 Q839.4063,644.6719 841.9063,644.6719 Q842.6094,644.6719 843.25,644.8281 Q843.9063,644.9844 844.4688,645.2813 L844.4688,648 Q843.8438,647.4219 843.25,647.1563 Q842.6563,646.875 842.0313,646.875 Q840.6875,646.875 840,647.9531 Q839.3125,649.0156 839.3125,651.1094 Q839.3125,653.2031 840,654.2813 Q840.6875,655.3438 842.0313,655.3438 Q842.6563,655.3438 843.25,655.0781 Q843.8438,654.7969 844.4688,654.2188 L844.4688,656.9375 Z " fill="#000000"/><text fill="#000000" font-family="sans-serif" font-size="14" lengthAdjust="spacing" textLength="46.9971" x="855.5" y="656.1436">enum_</text><line style="stroke:#181818;stroke-width:0.5;" x1="827.5" x2="904.4971" y1="667.2969" y2="667.2969"/><line style="stroke:#181818;stroke-width:0.5;" x1="827.5" x2="904.4971" y1="675.2969" y2="675.2969"/></g></a><!--class C_0007364672229966928495--><a href="classclanguml_1_1class__diagram_1_1model_1_1objc__member.html" target="_top" title="ObjC class member model." xlink:actuate="onRequest" xlink:href="classclanguml_1_1class__diagram_1_1model_1_1objc__member.html" xlink:show="new" xlink:title="ObjC class member model." xlink:type="simple"><g id="elem_C_0007364672229966928495"><rect codeLine="69" fill="#F1F1F1" height="48" id="C_0007364672229966928495" rx="2.5" ry="2.5" style="stroke:#181818;stroke-width:0.5;" width="127.1836" x="790.5" y="851.2969"/><ellipse cx="805.5" cy="867.2969" fill="#ADD1B2" rx="11" ry="11" style="stroke:#181818;stroke-width:1;"/><path d="M808.4688,872.9375 Q807.8906,873.2344 807.25,873.375 Q806.6094,873.5313 805.9063,873.5313 Q803.4063,873.5313 802.0781,871.8906 Q800.7656,870.2344 800.7656,867.1094 Q800.7656,863.9844 802.0781,862.3281 Q803.4063,860.6719 805.9063,860.6719 Q806.6094,860.6719 807.25,860.8281 Q807.9063,860.9844 808.4688,861.2813 L808.4688,864 Q807.8438,863.4219 807.25,863.1563 Q806.6563,862.875 806.0313,862.875 Q804.6875,862.875 804,863.9531 Q803.3125,865.0156 803.3125,867.1094 Q803.3125,869.2031 804,870.2813 Q804.6875,871.3438 806.0313,871.3438 Q806.6563,871.3438 807.25,871.0781 Q807.8438,870.7969 808.4688,870.2188 L808.4688,872.9375 Z " fill="#000000"/><text fill="#000000" font-family="sans-serif" font-size="14" lengthAdjust="spacing" textLength="95.1836" x="819.5" y="872.1436">objc_member</text><line style="stroke:#181818;stroke-width:0.5;" x1="791.5" x2="916.6836" y1="883.2969" y2="883.2969"/><line style="stroke:#181818;stroke-width:0.5;" x1="791.5" x2="916.6836" y1="891.2969" y2="891.2969"/></g></a><!--class C_0002175636676684225778--><a href="classclanguml_1_1class__diagram_1_1model_1_1objc__method.html" target="_top" title="ObjC class method model." xlink:actuate="onRequest" xlink:href="classclanguml_1_1class__diagram_1_1model_1_1objc__method.html" xlink:show="new" xlink:title="ObjC class method model." xlink:type="simple"><g id="elem_C_0002175636676684225778"><rect codeLine="73" fill="#F1F1F1" height="48" id="C_0002175636676684225778" rx="2.5" ry="2.5" style="stroke:#181818;stroke-width:0.5;" width="122.1045" x="1116" y="851.2969"/><ellipse cx="1131" cy="867.2969" fill="#ADD1B2" rx="11" ry="11" style="stroke:#181818;stroke-width:1;"/><path d="M1133.9688,872.9375 Q1133.3906,873.2344 1132.75,873.375 Q1132.1094,873.5313 1131.4063,873.5313 Q1128.9063,873.5313 1127.5781,871.8906 Q1126.2656,870.2344 1126.2656,867.1094 Q1126.2656,863.9844 1127.5781,862.3281 Q1128.9063,860.6719 1131.4063,860.6719 Q1132.1094,860.6719 1132.75,860.8281 Q1133.4063,860.9844 1133.9688,861.2813 L1133.9688,864 Q1133.3438,863.4219 1132.75,863.1563 Q1132.1563,862.875 1131.5313,862.875 Q1130.1875,862.875 1129.5,863.9531 Q1128.8125,865.0156 1128.8125,867.1094 Q1128.8125,869.2031 1129.5,870.2813 Q1130.1875,871.3438 1131.5313,871.3438 Q1132.1563,871.3438 1132.75,871.0781 Q1133.3438,870.7969 1133.9688,870.2188 L1133.9688,872.9375 Z " fill="#000000"/><text fill="#000000" font-family="sans-serif" font-size="14" lengthAdjust="spacing" textLength="90.1045" x="1145" y="872.1436">objc_method</text><line style="stroke:#181818;stroke-width:0.5;" x1="1117" x2="1237.1045" y1="883.2969" y2="883.2969"/><line style="stroke:#181818;stroke-width:0.5;" x1="1117" x2="1237.1045" y1="891.2969" y2="891.2969"/></g></a><!--class C_0010166346108406727066--><a href="classclanguml_1_1class__diagram_1_1model_1_1objc__interface.html" target="_top" title="Diagram element representing an ObjC interface." xlink:actuate="onRequest" xlink:href="classclanguml_1_1class__diagram_1_1model_1_1objc__interface.html" xlink:show="new" xlink:title="Diagram element representing an ObjC interface." xlink:type="simple"><g id="elem_C_0010166346108406727066"><rect codeLine="77" fill="#F1F1F1" height="48" id="C_0010166346108406727066" rx="2.5" ry="2.5" style="stroke:#181818;stroke-width:0.5;" width="130.4785" x="941" y="635.2969"/><ellipse cx="956" cy="651.2969" fill="#ADD1B2" rx="11" ry="11" style="stroke:#181818;stroke-width:1;"/><path d="M958.9688,656.9375 Q958.3906,657.2344 957.75,657.375 Q957.1094,657.5313 956.4063,657.5313 Q953.9063,657.5313 952.5781,655.8906 Q951.2656,654.2344 951.2656,651.1094 Q951.2656,647.9844 952.5781,646.3281 Q953.9063,644.6719 956.4063,644.6719 Q957.1094,644.6719 957.75,644.8281 Q958.4063,644.9844 958.9688,645.2813 L958.9688,648 Q958.3438,647.4219 957.75,647.1563 Q957.1563,646.875 956.5313,646.875 Q955.1875,646.875 954.5,647.9531 Q953.8125,649.0156 953.8125,651.1094 Q953.8125,653.2031 954.5,654.2813 Q955.1875,655.3438 956.5313,655.3438 Q957.1563,655.3438 957.75,655.0781 Q958.3438,654.7969 958.9688,654.2188 L958.9688,656.9375 Z " fill="#000000"/><text fill="#000000" font-family="sans-serif" font-size="14" lengthAdjust="spacing" textLength="98.4785" x="970" y="656.1436">objc_interface</text><line style="stroke:#181818;stroke-width:0.5;" x1="942" x2="1070.4785" y1="667.2969" y2="667.2969"/><line style="stroke:#181818;stroke-width:0.5;" x1="942" x2="1070.4785" y1="675.2969" y2="675.2969"/></g></a><!--class C_0011201726182739961811--><a href="structclanguml_1_1sequence__diagram_1_1model_1_1participant.html" target="_top" title="Base class for various types of sequence diagram participants" xlink:actuate="onRequest" xlink:href="structclanguml_1_1sequence__diagram_1_1model_1_1participant.html" xlink:show="new" xlink:title="Base class for various types of sequence diagram participants" xlink:type="simple"><g id="elem_C_0011201726182739961811"><rect codeLine="85" fill="#F1F1F1" height="48" id="C_0011201726182739961811" rx="2.5" ry="2.5" style="stroke:#181818;stroke-width:0.5;" width="108.0156" x="363" y="635.2969"/><ellipse cx="378" cy="651.2969" fill="#ADD1B2" rx="11" ry="11" style="stroke:#181818;stroke-width:1;"/><path d="M380.9688,656.9375 Q380.3906,657.2344 379.75,657.375 Q379.1094,657.5313 378.4063,657.5313 Q375.9063,657.5313 374.5781,655.8906 Q373.2656,654.2344 373.2656,651.1094 Q373.2656,647.9844 374.5781,646.3281 Q375.9063,644.6719 378.4063,644.6719 Q379.1094,644.6719 379.75,644.8281 Q380.4063,644.9844 380.9688,645.2813 L380.9688,648 Q380.3438,647.4219 379.75,647.1563 Q379.1563,646.875 378.5313,646.875 Q377.1875,646.875 376.5,647.9531 Q375.8125,649.0156 375.8125,651.1094 Q375.8125,653.2031 376.5,654.2813 Q377.1875,655.3438 378.5313,655.3438 Q379.1563,655.3438 379.75,655.0781 Q380.3438,654.7969 380.9688,654.2188 L380.9688,656.9375 Z " fill="#000000"/><text fill="#000000" font-family="sans-serif" font-size="14" lengthAdjust="spacing" textLength="76.0156" x="392" y="656.1436">participant</text><line style="stroke:#181818;stroke-width:0.5;" x1="364" x2="470.0156" y1="667.2969" y2="667.2969"/><line style="stroke:#181818;stroke-width:0.5;" x1="364" x2="470.0156" y1="675.2969" y2="675.2969"/></g></a><!--class C_0007084118972955772881--><a href="structclanguml_1_1sequence__diagram_1_1model_1_1class__.html" target="_top" title="Sequence diagram participant representing a class." xlink:actuate="onRequest" xlink:href="structclanguml_1_1sequence__diagram_1_1model_1_1class__.html" xlink:show="new" xlink:title="Sequence diagram participant representing a class." xlink:type="simple"><g id="elem_C_0007084118972955772881"><rect codeLine="89" fill="#F1F1F1" height="48" id="C_0007084118972955772881" rx="2.5" ry="2.5" style="stroke:#181818;stroke-width:0.5;" width="73.7539" x="250" y="743.2969"/><ellipse cx="265" cy="759.2969" fill="#ADD1B2" rx="11" ry="11" style="stroke:#181818;stroke-width:1;"/><path d="M267.9688,764.9375 Q267.3906,765.2344 266.75,765.375 Q266.1094,765.5313 265.4063,765.5313 Q262.9063,765.5313 261.5781,763.8906 Q260.2656,762.2344 260.2656,759.1094 Q260.2656,755.9844 261.5781,754.3281 Q262.9063,752.6719 265.4063,752.6719 Q266.1094,752.6719 266.75,752.8281 Q267.4063,752.9844 267.9688,753.2813 L267.9688,756 Q267.3438,755.4219 266.75,755.1563 Q266.1563,754.875 265.5313,754.875 Q264.1875,754.875 263.5,755.9531 Q262.8125,757.0156 262.8125,759.1094 Q262.8125,761.2031 263.5,762.2813 Q264.1875,763.3438 265.5313,763.3438 Q266.1563,763.3438 266.75,763.0781 Q267.3438,762.7969 267.9688,762.2188 L267.9688,764.9375 Z " fill="#000000"/><text fill="#000000" font-family="sans-serif" font-size="14" lengthAdjust="spacing" textLength="41.7539" x="279" y="764.1436">class_</text><line style="stroke:#181818;stroke-width:0.5;" x1="251" x2="322.7539" y1="775.2969" y2="775.2969"/><line style="stroke:#181818;stroke-width:0.5;" x1="251" x2="322.7539" y1="783.2969" y2="783.2969"/></g></a><!--class C_0001861107648253454629--><a href="structclanguml_1_1sequence__diagram_1_1model_1_1function.html" target="_top" title="Participant mode representing a free function." xlink:actuate="onRequest" xlink:href="structclanguml_1_1sequence__diagram_1_1model_1_1function.html" xlink:show="new" xlink:title="Participant mode representing a free function." xlink:type="simple"><g id="elem_C_0001861107648253454629"><rect codeLine="93" fill="#F1F1F1" height="48" id="C_0001861107648253454629" rx="2.5" ry="2.5" style="stroke:#181818;stroke-width:0.5;" width="89.1895" x="359.5" y="743.2969"/><ellipse cx="374.5" cy="759.2969" fill="#ADD1B2" rx="11" ry="11" style="stroke:#181818;stroke-width:1;"/><path d="M377.4688,764.9375 Q376.8906,765.2344 376.25,765.375 Q375.6094,765.5313 374.9063,765.5313 Q372.4063,765.5313 371.0781,763.8906 Q369.7656,762.2344 369.7656,759.1094 Q369.7656,755.9844 371.0781,754.3281 Q372.4063,752.6719 374.9063,752.6719 Q375.6094,752.6719 376.25,752.8281 Q376.9063,752.9844 377.4688,753.2813 L377.4688,756 Q376.8438,755.4219 376.25,755.1563 Q375.6563,754.875 375.0313,754.875 Q373.6875,754.875 373,755.9531 Q372.3125,757.0156 372.3125,759.1094 Q372.3125,761.2031 373,762.2813 Q373.6875,763.3438 375.0313,763.3438 Q375.6563,763.3438 376.25,763.0781 Q376.8438,762.7969 377.4688,762.2188 L377.4688,764.9375 Z " fill="#000000"/><text fill="#000000" font-family="sans-serif" font-size="14" lengthAdjust="spacing" textLength="57.1895" x="388.5" y="764.1436">function</text><line style="stroke:#181818;stroke-width:0.5;" x1="360.5" x2="447.6895" y1="775.2969" y2="775.2969"/><line style="stroke:#181818;stroke-width:0.5;" x1="360.5" x2="447.6895" y1="783.2969" y2="783.2969"/></g></a><!--class C_0006541327780382276039--><a href="structclanguml_1_1sequence__diagram_1_1model_1_1method.html" target="_top" title="Participant model representing a method" xlink:actuate="onRequest" xlink:href="structclanguml_1_1sequence__diagram_1_1model_1_1method.html" xlink:show="new" xlink:title="Participant model representing a method" xlink:type="simple"><g id="elem_C_0006541327780382276039"><rect codeLine="97" fill="#F1F1F1" height="48" id="C_0006541327780382276039" rx="2.5" ry="2.5" style="stroke:#181818;stroke-width:0.5;" width="86.0654" x="46" y="851.2969"/><ellipse cx="61" cy="867.2969" fill="#ADD1B2" rx="11" ry="11" style="stroke:#181818;stroke-width:1;"/><path d="M63.9688,872.9375 Q63.3906,873.2344 62.75,873.375 Q62.1094,873.5313 61.4063,873.5313 Q58.9063,873.5313 57.5781,871.8906 Q56.2656,870.2344 56.2656,867.1094 Q56.2656,863.9844 57.5781,862.3281 Q58.9063,860.6719 61.4063,860.6719 Q62.1094,860.6719 62.75,860.8281 Q63.4063,860.9844 63.9688,861.2813 L63.9688,864 Q63.3438,863.4219 62.75,863.1563 Q62.1563,862.875 61.5313,862.875 Q60.1875,862.875 59.5,863.9531 Q58.8125,865.0156 58.8125,867.1094 Q58.8125,869.2031 59.5,870.2813 Q60.1875,871.3438 61.5313,871.3438 Q62.1563,871.3438 62.75,871.0781 Q63.3438,870.7969 63.9688,870.2188 L63.9688,872.9375 Z " fill="#000000"/><text fill="#000000" font-family="sans-serif" font-size="14" lengthAdjust="spacing" textLength="54.0654" x="75" y="872.1436">method</text><line style="stroke:#181818;stroke-width:0.5;" x1="47" x2="131.0654" y1="883.2969" y2="883.2969"/><line style="stroke:#181818;stroke-width:0.5;" x1="47" x2="131.0654" y1="891.2969" y2="891.2969"/></g></a><!--class C_0013742559556936917396--><a href="structclanguml_1_1sequence__diagram_1_1model_1_1objc__method.html" target="_top" title="objc_method" xlink:actuate="onRequest" xlink:href="structclanguml_1_1sequence__diagram_1_1model_1_1objc__method.html" xlink:show="new" xlink:title="objc_method" xlink:type="simple"><g id="elem_C_0013742559556936917396"><rect codeLine="101" fill="#F1F1F1" height="48" id="C_0013742559556936917396" rx="2.5" ry="2.5" style="stroke:#181818;stroke-width:0.5;" width="122.1045" x="167" y="851.2969"/><ellipse cx="182" cy="867.2969" fill="#ADD1B2" rx="11" ry="11" style="stroke:#181818;stroke-width:1;"/><path d="M184.9688,872.9375 Q184.3906,873.2344 183.75,873.375 Q183.1094,873.5313 182.4063,873.5313 Q179.9063,873.5313 178.5781,871.8906 Q177.2656,870.2344 177.2656,867.1094 Q177.2656,863.9844 178.5781,862.3281 Q179.9063,860.6719 182.4063,860.6719 Q183.1094,860.6719 183.75,860.8281 Q184.4063,860.9844 184.9688,861.2813 L184.9688,864 Q184.3438,863.4219 183.75,863.1563 Q183.1563,862.875 182.5313,862.875 Q181.1875,862.875 180.5,863.9531 Q179.8125,865.0156 179.8125,867.1094 Q179.8125,869.2031 180.5,870.2813 Q181.1875,871.3438 182.5313,871.3438 Q183.1563,871.3438 183.75,871.0781 Q184.3438,870.7969 184.9688,870.2188 L184.9688,872.9375 Z " fill="#000000"/><text fill="#000000" font-family="sans-serif" font-size="14" lengthAdjust="spacing" textLength="90.1045" x="196" y="872.1436">objc_method</text><line style="stroke:#181818;stroke-width:0.5;" x1="168" x2="288.1045" y1="883.2969" y2="883.2969"/><line style="stroke:#181818;stroke-width:0.5;" x1="168" x2="288.1045" y1="891.2969" y2="891.2969"/></g></a><!--class C_0018241535739946484465--><a href="structclanguml_1_1sequence__diagram_1_1model_1_1function__template.html" target="_top" title="Participant model representing a function template." xlink:actuate="onRequest" xlink:href="structclanguml_1_1sequence__diagram_1_1model_1_1function__template.html" xlink:show="new" xlink:title="Participant model representing a function template." xlink:type="simple"><g id="elem_C_0018241535739946484465"><rect codeLine="105" fill="#F1F1F1" height="48" id="C_0018241535739946484465" rx="2.5" ry="2.5" style="stroke:#181818;stroke-width:0.5;" width="159.3877" x="324.5" y="851.2969"/><ellipse cx="339.5" cy="867.2969" fill="#ADD1B2" rx="11" ry="11" style="stroke:#181818;stroke-width:1;"/><path d="M342.4688,872.9375 Q341.8906,873.2344 341.25,873.375 Q340.6094,873.5313 339.9063,873.5313 Q337.4063,873.5313 336.0781,871.8906 Q334.7656,870.2344 334.7656,867.1094 Q334.7656,863.9844 336.0781,862.3281 Q337.4063,860.6719 339.9063,860.6719 Q340.6094,860.6719 341.25,860.8281 Q341.9063,860.9844 342.4688,861.2813 L342.4688,864 Q341.8438,863.4219 341.25,863.1563 Q340.6563,862.875 340.0313,862.875 Q338.6875,862.875 338,863.9531 Q337.3125,865.0156 337.3125,867.1094 Q337.3125,869.2031 338,870.2813 Q338.6875,871.3438 340.0313,871.3438 Q340.6563,871.3438 341.25,871.0781 Q341.8438,870.7969 342.4688,870.2188 L342.4688,872.9375 Z " fill="#000000"/><text fill="#000000" font-family="sans-serif" font-size="14" lengthAdjust="spacing" textLength="127.3877" x="353.5" y="872.1436">function_template</text><line style="stroke:#181818;stroke-width:0.5;" x1="325.5" x2="482.8877" y1="883.2969" y2="883.2969"/><line style="stroke:#181818;stroke-width:0.5;" x1="325.5" x2="482.8877" y1="891.2969" y2="891.2969"/></g></a><!--class C_0017829224549649886549--><a href="classclanguml_1_1sequence__diagram_1_1model_1_1message.html" target="_top" title="Model of a sequence diagram message." xlink:actuate="onRequest" xlink:href="classclanguml_1_1sequence__diagram_1_1model_1_1message.html" xlink:show="new" xlink:title="Model of a sequence diagram message." xlink:type="simple"><g id="elem_C_0017829224549649886549"><rect codeLine="109" fill="#F1F1F1" height="48" id="C_0017829224549649886549" rx="2.5" ry="2.5" style="stroke:#181818;stroke-width:0.5;" width="94.918" x="232.5" y="635.2969"/><ellipse cx="247.5" cy="651.2969" fill="#ADD1B2" rx="11" ry="11" style="stroke:#181818;stroke-width:1;"/><path d="M250.4688,656.9375 Q249.8906,657.2344 249.25,657.375 Q248.6094,657.5313 247.9063,657.5313 Q245.4063,657.5313 244.0781,655.8906 Q242.7656,654.2344 242.7656,651.1094 Q242.7656,647.9844 244.0781,646.3281 Q245.4063,644.6719 247.9063,644.6719 Q248.6094,644.6719 249.25,644.8281 Q249.9063,644.9844 250.4688,645.2813 L250.4688,648 Q249.8438,647.4219 249.25,647.1563 Q248.6563,646.875 248.0313,646.875 Q246.6875,646.875 246,647.9531 Q245.3125,649.0156 245.3125,651.1094 Q245.3125,653.2031 246,654.2813 Q246.6875,655.3438 248.0313,655.3438 Q248.6563,655.3438 249.25,655.0781 Q249.8438,654.7969 250.4688,654.2188 L250.4688,656.9375 Z " fill="#000000"/><text fill="#000000" font-family="sans-serif" font-size="14" lengthAdjust="spacing" textLength="62.918" x="261.5" y="656.1436">message</text><line style="stroke:#181818;stroke-width:0.5;" x1="233.5" x2="326.418" y1="667.2969" y2="667.2969"/><line style="stroke:#181818;stroke-width:0.5;" x1="233.5" x2="326.418" y1="675.2969" y2="675.2969"/></g></a><!--reverse link C_0007162092657467521843 to C_0016370694070378943411--><g id="link_C_0007162092657467521843_C_0016370694070378943411"><path codeLine="114" d="M719.8373,178.8228 C691.4273,196.5428 667.58,211.4069 639.11,229.1569 " fill="transparent" id="C_0007162092657467521843-backto-C_0016370694070378943411" style="stroke:#181818;stroke-width:1;"/><polygon fill="transparent" points="735.11,169.2969,716.662,173.7319,723.0126,183.9137,735.11,169.2969" style="stroke:#181818;stroke-width:1;"/></g><!--reverse link C_0007162092657467521843 to C_0008588005715032923314--><g id="link_C_0007162092657467521843_C_0008588005715032923314"><path codeLine="115" d="M772,187.2969 C772,204.9569 772,211.2369 772,228.9769 " fill="transparent" id="C_0007162092657467521843-backto-C_0008588005715032923314" style="stroke:#181818;stroke-width:1;"/><polygon fill="transparent" points="772,169.2969,766,187.2969,778,187.2969,772,169.2969" style="stroke:#181818;stroke-width:1;"/></g><!--reverse link C_0008588005715032923314 to C_0016556163051475263500--><g id="link_C_0008588005715032923314_C_0016556163051475263500"><path codeLine="116" d="M735.4457,289.8459 C717.2857,307.5059 705.22,319.2369 686.98,336.9769 " fill="transparent" id="C_0008588005715032923314-backto-C_0016556163051475263500" style="stroke:#181818;stroke-width:1;"/><polygon fill="transparent" points="748.35,277.2969,731.2627,285.5445,739.6287,294.1474,748.35,277.2969" style="stroke:#181818;stroke-width:1;"/></g><!--reverse link C_0016556163051475263500 to C_0013384831159811298387--><g id="link_C_0016556163051475263500_C_0013384831159811298387"><path codeLine="117" d="M648.3226,402.189 C641.8226,419.849 639.11,427.2369 632.58,444.9769 " fill="transparent" id="C_0016556163051475263500-backto-C_0013384831159811298387" style="stroke:#181818;stroke-width:1;"/><polygon fill="transparent" points="654.54,385.2969,642.6919,400.1166,653.9533,404.2615,654.54,385.2969" style="stroke:#181818;stroke-width:1;"/></g><!--reverse link C_0008588005715032923314 to C_0006285717704576425038--><g id="link_C_0008588005715032923314_C_0006285717704576425038"><path codeLine="118" d="M781.5565,294.8151 C785.7265,312.4751 787.32,319.2369 791.5,336.9769 " fill="transparent" id="C_0008588005715032923314-backto-C_0006285717704576425038" style="stroke:#181818;stroke-width:1;"/><polygon fill="transparent" points="777.42,277.2969,775.7171,296.194,787.3959,293.4363,777.42,277.2969" style="stroke:#181818;stroke-width:1;"/></g><!--reverse link C_0016556163051475263500 to C_0017146293478645494837--><g id="link_C_0016556163051475263500_C_0017146293478645494837"><path codeLine="119" d="M703.0589,397.1011 C723.3889,414.7611 737.74,427.2369 758.16,444.9769 " fill="transparent" id="C_0016556163051475263500-backto-C_0017146293478645494837" style="stroke:#181818;stroke-width:1;"/><polygon fill="transparent" points="689.47,385.2969,699.1242,401.6308,706.9937,392.5715,689.47,385.2969" style="stroke:#181818;stroke-width:1;"/></g><!--reverse link C_0007162092657467521843 to C_0004846934894930864299--><g id="link_C_0007162092657467521843_C_0004846934894930864299"><path codeLine="120" d="M815.8811,180.6593 C835.4611,196.4793 847.02,207.2069 867,229.2969 C995.44,371.2669 1117.92,568.1769 1158.18,635.0269 " fill="transparent" id="C_0007162092657467521843-backto-C_0004846934894930864299" style="stroke:#181818;stroke-width:1;"/><polygon fill="transparent" points="801.88,169.3469,812.1103,185.3263,819.6519,175.9923,801.88,169.3469" style="stroke:#181818;stroke-width:1;"/></g><!--reverse link C_0004846934894930864299 to C_0014241292626575163322--><g id="link_C_0004846934894930864299_C_0014241292626575163322"><path codeLine="121" d="M1089.4237,687.819 C1035.9637,705.639 977.72,725.0569 923.27,743.2069 " fill="transparent" id="C_0004846934894930864299-backto-C_0014241292626575163322" style="stroke:#181818;stroke-width:1;"/><polygon fill="transparent" points="1106.5,682.1269,1087.5263,682.1269,1091.3211,693.5111,1106.5,682.1269" style="stroke:#181818;stroke-width:1;"/></g><!--reverse link C_0014241292626575163322 to C_0014370262096868218046--><g id="link_C_0014241292626575163322_C_0014370262096868218046"><path codeLine="122" d="M803.0563,801.0266 C775.4763,818.7466 752.65,833.4069 725.02,851.1569 " fill="transparent" id="C_0014241292626575163322-backto-C_0014370262096868218046" style="stroke:#181818;stroke-width:1;"/><polygon fill="transparent" points="818.2,791.2969,799.813,795.9787,806.2995,806.0745,818.2,791.2969" style="stroke:#181818;stroke-width:1;"/></g><!--reverse link C_0004846934894930864299 to C_0018032026899693266441--><g id="link_C_0004846934894930864299_C_0018032026899693266441"><path codeLine="123" d="M1165.0852,701.0443 C1162.0952,718.7043 1160.97,725.2369 1157.96,742.9769 " fill="transparent" id="C_0004846934894930864299-backto-C_0018032026899693266441" style="stroke:#181818;stroke-width:1;"/><polygon fill="transparent" points="1168.09,683.2969,1159.1694,700.0427,1171.001,702.0459,1168.09,683.2969" style="stroke:#181818;stroke-width:1;"/></g><!--reverse link C_0018032026899693266441 to C_0001633165731746789371--><g id="link_C_0018032026899693266441_C_0001633165731746789371"><path codeLine="124" d="M1110.0348,802.3132 C1087.2148,819.9732 1070.07,833.2369 1047.14,850.9769 " fill="transparent" id="C_0018032026899693266441-backto-C_0001633165731746789371" style="stroke:#181818;stroke-width:1;"/><polygon fill="transparent" points="1124.27,791.2969,1106.3627,797.5682,1113.7069,807.0583,1124.27,791.2969" style="stroke:#181818;stroke-width:1;"/></g><!--reverse link C_0013384831159811298387 to C_0010336274859733225462--><g id="link_C_0013384831159811298387_C_0010336274859733225462"><path codeLine="125" d="M624,511.3469 C624,547.4269 624,598.8569 624,635.0569 " fill="transparent" id="C_0013384831159811298387-backto-C_0010336274859733225462" style="stroke:#181818;stroke-width:1;"/><polygon fill="transparent" points="624,493.3469,618,511.3469,630,511.3469,624,493.3469" style="stroke:#181818;stroke-width:1;"/></g><!--reverse link C_0013384831159811298387 to C_0010998792414017796003--><g id="link_C_0013384831159811298387_C_0010998792414017796003"><path codeLine="126" d="M651.2587,508.1566 C662.3887,523.7466 666.68,530.1969 679,549.2969 C697.75,578.3669 717.95,612.7769 730.77,635.0469 " fill="transparent" id="C_0013384831159811298387-backto-C_0010998792414017796003" style="stroke:#181818;stroke-width:1;"/><polygon fill="transparent" points="640.8,493.5069,646.3755,511.6429,656.142,504.6704,640.8,493.5069" style="stroke:#181818;stroke-width:1;"/></g><!--reverse link C_0016556163051475263500 to C_0005795143816749204050--><g id="link_C_0016556163051475263500_C_0005795143816749204050"><path codeLine="127" d="M724.96,386.4029 C776.88,406.9229 839.32,433.0569 848,445.2969 C888.99,503.1269 878.84,593.2269 871.04,635.2569 " fill="transparent" id="C_0016556163051475263500-backto-C_0005795143816749204050" style="stroke:#181818;stroke-width:1;"/><polygon fill="transparent" points="708.22,379.7869,722.7547,391.9829,727.1654,380.8229,708.22,379.7869" style="stroke:#181818;stroke-width:1;"/></g><!--reverse link C_0014241292626575163322 to C_0007364672229966928495--><g id="link_C_0014241292626575163322_C_0007364672229966928495"><path codeLine="128" d="M854,809.2969 C854,826.9569 854,833.2369 854,850.9769 " fill="transparent" id="C_0014241292626575163322-backto-C_0007364672229966928495" style="stroke:#181818;stroke-width:1;"/><polygon fill="transparent" points="854,791.2969,848,809.2969,860,809.2969,854,791.2969" style="stroke:#181818;stroke-width:1;"/></g><!--reverse link C_0018032026899693266441 to C_0002175636676684225778--><g id="link_C_0018032026899693266441_C_0002175636676684225778"><path codeLine="129" d="M1162.805,808.8879 C1166.635,826.5479 1168.09,833.2369 1171.94,850.9769 " fill="transparent" id="C_0018032026899693266441-backto-C_0002175636676684225778" style="stroke:#181818;stroke-width:1;"/><polygon fill="transparent" points="1158.99,791.2969,1156.9414,810.1596,1168.6687,807.6163,1158.99,791.2969" style="stroke:#181818;stroke-width:1;"/></g><!--reverse link C_0016556163051475263500 to C_0010166346108406727066--><g id="link_C_0016556163051475263500_C_0010166346108406727066"><path codeLine="130" d="M724.9392,384.9949 C790.3492,408.9849 887.1,444.5269 888,445.2969 C949.76,498.2869 985.36,592.0269 999.22,635.2669 " fill="transparent" id="C_0016556163051475263500-backto-C_0010166346108406727066" style="stroke:#181818;stroke-width:1;"/><polygon fill="transparent" points="708.04,378.7969,722.8732,390.628,727.0053,379.3618,708.04,378.7969" style="stroke:#181818;stroke-width:1;"/></g><!--reverse link C_0013384831159811298387 to C_0011201726182739961811--><g id="link_C_0013384831159811298387_C_0011201726182739961811"><path codeLine="131" d="M585.2947,505.448 C545.5647,541.528 482.45,598.8569 442.59,635.0569 " fill="transparent" id="C_0013384831159811298387-backto-C_0011201726182739961811" style="stroke:#181818;stroke-width:1;"/><polygon fill="transparent" points="598.62,493.3469,581.261,501.0062,589.3284,509.8897,598.62,493.3469" style="stroke:#181818;stroke-width:1;"/></g><!--reverse link C_0011201726182739961811 to C_0007084118972955772881--><g id="link_C_0011201726182739961811_C_0007084118972955772881"><path codeLine="132" d="M374.8418,694.6744 C353.1918,712.3344 337.36,725.2369 315.6,742.9769 " fill="transparent" id="C_0011201726182739961811-backto-C_0007084118972955772881" style="stroke:#181818;stroke-width:1;"/><polygon fill="transparent" points="388.79,683.2969,371.0493,690.0251,378.6344,699.3238,388.79,683.2969" style="stroke:#181818;stroke-width:1;"/></g><!--reverse link C_0011201726182739961811 to C_0001861107648253454629--><g id="link_C_0011201726182739961811_C_0001861107648253454629"><path codeLine="133" d="M411.9847,701.1625 C409.8147,718.8225 409.04,725.2369 406.86,742.9769 " fill="transparent" id="C_0011201726182739961811-backto-C_0001861107648253454629" style="stroke:#181818;stroke-width:1;"/><polygon fill="transparent" points="414.18,683.2969,406.0295,700.4308,417.9399,701.8943,414.18,683.2969" style="stroke:#181818;stroke-width:1;"/></g><!--reverse link C_0001861107648253454629 to C_0006541327780382276039--><g id="link_C_0001861107648253454629_C_0006541327780382276039"><path codeLine="134" d="M342.4803,791.2989 C336.6403,793.4189 347.65,789.3669 342,791.2969 C257.39,820.1869 234.53,822.1769 150,851.2969 C144.22,853.2869 138.17,855.4569 132.21,857.6569 " fill="transparent" id="C_0001861107648253454629-backto-C_0006541327780382276039" style="stroke:#181818;stroke-width:1;"/><polygon fill="transparent" points="359.4,785.1569,340.433,785.6591,344.5277,796.9388,359.4,785.1569" style="stroke:#181818;stroke-width:1;"/></g><!--reverse link C_0001861107648253454629 to C_0013742559556936917396--><g id="link_C_0001861107648253454629_C_0013742559556936917396"><path codeLine="135" d="M350.3909,800.584 C320.9709,818.304 295.9,833.4069 266.42,851.1569 " fill="transparent" id="C_0001861107648253454629-backto-C_0013742559556936917396" style="stroke:#181818;stroke-width:1;"/><polygon fill="transparent" points="365.81,791.2969,347.2952,795.4443,353.4866,805.7237,365.81,791.2969" style="stroke:#181818;stroke-width:1;"/></g><!--reverse link C_0001861107648253454629 to C_0018241535739946484465--><g id="link_C_0001861107648253454629_C_0018241535739946484465"><path codeLine="136" d="M404,809.2969 C404,826.9569 404,833.2369 404,850.9769 " fill="transparent" id="C_0001861107648253454629-backto-C_0018241535739946484465" style="stroke:#181818;stroke-width:1;"/><polygon fill="transparent" points="404,791.2969,398,809.2969,410,809.2969,404,791.2969" style="stroke:#181818;stroke-width:1;"/></g><!--reverse link C_0008588005715032923314 to C_0017829224549649886549--><g id="link_C_0008588005715032923314_C_0017829224549649886549"><path codeLine="137" d="M699.4101,284.6692 C665.1201,299.7892 637.47,313.7769 601,337.2969 C477.13,417.1669 442.16,437.6069 346,549.2969 C322.91,576.1169 302.9,611.9969 291.14,635.1269 " fill="transparent" id="C_0008588005715032923314-backto-C_0017829224549649886549" style="stroke:#181818;stroke-width:1;"/><polygon fill="transparent" points="715.88,277.4069,696.9893,279.1792,701.8308,290.1592,715.88,277.4069" style="stroke:#181818;stroke-width:1;"/></g><!--SRC=[hLZRZjis47tVho3oaWHf3Dx42z2dRe6-96Y1e7rPB0ojJA-Lwk98Sef5cd_lI9OiqXgjjKuH831sICqvm-6P6JPfapdogJnKYIDPcSHDMXOaBpSk8qaMrpNPfQwAgsJtTBEFax_ZHqVkaZBFo-AUn3MvNLDAUIIuaPHhAnJJXZ6ZoRTnUVUrSJLLocejPSIab8no5GbOVNJsgkwGh0SahqwxD5ESMbYifT8HPqQAVi-ScTpTTGlWl-Bna6ThjcP7vEsl3bJxe_TuShdQDNdsxPUuTdq0oYs9iuniqlYnYdFYCfUxegb9iuiRiek_EbA7uLjzlxy7HklrpVU1LkMopbJlqls94rD2KsKbrLHeOwMGZ7cSCFD2Jhwx8v_RxhELsrUk1lHfyKZYuedu2qdPx5pLqYf8Mi3Fj8cBn4t9z95Ozv4OpyX4nb0QQHPHmIqNWad_Z13pGZw3ny7bv8osPKLgWBk9ix9maxD2JkGSF5DHf23a5D8I4aY9YDBWCARcXU2VmzoUGMydNmvnbcvJjo4FJwI8SrV33N88zCRbUpWsDpa09eIHHZ0MMRY4t1fXjCy1CI_aS7Av_j_PzFTlcsPkp2J53UI9rbH6MaaE2MFyJ4BCBxpjhRiZXr_3N0dlI5tcZhHh2T3Rf9LBch9wGbZqOZSUXMPISIkaDaf6qaBSWwD0p0iPz9uMW3z5FG1F-Wzu7Df_exYt6DRz3ReV-LWE-GE1jue9GwM9ecSq7Wv7MGlvPU6sIqMjugF67prCr4CQgI0Ye7HMK0WBjzO_SyICHgpx-80_Y5nlUYw3ZxzE4l_6hHvN97Vv0mWZc7FNxChDM-JyZzy-hbm_m4V7J91SmcNZgYrE4KY8uDpF1CHy7Q_UUUVzIEutLu2A9pshdaQtxG833ppK8DwMLcMKWR9AfGh0Jyq_0jwlLGlXjWTo5d03vGLG6MiXORXIq6Nuc17pjPWxvrx01-JjtnSX7xE_FNaeCbgmjeCnLcWVD6R-4T0lXZj6bxOgeE7-MztcAjpk89qHytL05mXSF7HemyKToXH6euHUPj_uHAm5VOBR9q7Tj5MKYe38rFnI8htBdih7hgc6RlBstJlIsx36f3Za8qfebooq7C8mfQNbLDB8RqimymjHTluMHRiWxLe4SldmEJbN3gg5Wapb77GQ6dwO3smKDEnJymk1Tru3uVZzuVFjCh7h4OTNa3CTAQ6KLif8I5sjWwO3CL-9UBo10U9dhs6tDoqQLssXedjPp9GIKZ4A0nZ44oQ6GA0HyrMWJvwN9Kh7QzmprslKxil1mKMOjXiGR6bXekGGxLPJGF7csmreDY8edXQg3tHJZC6WPCPsOnzNJPga-zZlb1c7NLmnmxM036Gc7BqGCuIjRgf3qlXnEn50G-TvHhkDht6LbWUGhQUzw-RCuNEd0SRxGdrHcc5GD2rrgxc5U6XkJ5134FCLf09v_lGCO5IhaSpU7eeadFMPKOnHwEmDZuHiIqZG2IBcAtWCRez4_l1mjqlEmMyh1uF0i6LAubnBL2IPu20HC9fmI68g0Wg8-GeAlfAS4yZE6HmNBvD29ZHCLH6a2RH8oZAu186g8EOhu4_bqCCodoVheSfx7H-KwKX4xLsLa1PIgYZe-ARc7qYOzGd0miWF6vzhJs1IgyFvqS1GmDlPK4bh32IC3UR7gHdJzKlvqpazQq_YgGmD2yzqVFRbxUT_tx-VV-Awl0rzIPfzG_Ay8MyuiwytupRisUIoD_IHOe4tx6LWGKYmyNXsC1wzOTFdxDpfRKFclWNUiD5hTkWQkM73p-oBrUWD6qMMR4CQ_yldXdRYboE9zi4BGe8remkI2si75uG4QuTc6o6F6z9mBDY6rVVPokxTDwIcNjw6rh85sx2Qia22CDs-UTszn83oRyW_QRCZdKI_1ut-YNnrLTtM1hfIAtRp-iE7lpwU_lRdmw5e3iVLfpyoks8hHjwmGsTbR_y3]--></g></svg>