<svg xmlns="http://www.w3.org/2000/svg" xmlns:xlink="http://www.w3.org/1999/xlink" contentStyleType="text/css" data-diagram-type="CLASS" height="790px" preserveAspectRatio="none" style="width:1299px;height:790px;background:#FFFFFF;" version="1.1" viewBox="0 0 1299 790" width="1299px" zoomAndPan="magnify"><title>Source location model class hierarchy</title><defs/><g><text fill="#000000" font-family="sans-serif" font-size="14" font-weight="bold" lengthAdjust="spacing" textLength="299.7422" x="492.6289" y="22.9951">Source location model class hierarchy</text><!--cluster C_0000316605034920222648--><g id="cluster_C_0000316605034920222648"><path d="M392.5,43.2969 L460.1777,43.2969 A3.75,3.75 0 0 1 462.6777,45.7969 L469.6777,65.5938 L699.5,65.5938 A2.5,2.5 0 0 1 702,68.0938 L702,564.7969 A2.5,2.5 0 0 1 699.5,567.2969 L392.5,567.2969 A2.5,2.5 0 0 1 390,564.7969 L390,45.7969 A2.5,2.5 0 0 1 392.5,43.2969 " fill="transparent" style="stroke:#000000;stroke-width:1.5;"/><line style="stroke:#000000;stroke-width:1.5;" x1="390" x2="469.6777" y1="65.5938" y2="65.5938"/><text fill="#000000" font-family="sans-serif" font-size="14" font-weight="bold" lengthAdjust="spacing" textLength="66.6777" x="394" y="58.292">common</text></g><!--cluster C_0000083721806430512831--><g id="cluster_C_0000083721806430512831"><path d="M416.5,86.2969 L466.0215,86.2969 A3.75,3.75 0 0 1 468.5215,88.7969 L475.5215,108.5938 L675.5,108.5938 A2.5,2.5 0 0 1 678,111.0938 L678,540.7969 A2.5,2.5 0 0 1 675.5,543.2969 L416.5,543.2969 A2.5,2.5 0 0 1 414,540.7969 L414,88.7969 A2.5,2.5 0 0 1 416.5,86.2969 " fill="transparent" style="stroke:#000000;stroke-width:1.5;"/><line style="stroke:#000000;stroke-width:1.5;" x1="414" x2="475.5215" y1="108.5938" y2="108.5938"/><text fill="#000000" font-family="sans-serif" font-size="14" font-weight="bold" lengthAdjust="spacing" textLength="48.5215" x="418" y="101.292">model</text></g><!--cluster C_0002240167036201725606--><g id="cluster_C_0002240167036201725606"><path d="M728.5,401.2969 L840.9395,401.2969 A3.75,3.75 0 0 1 843.4395,403.7969 L850.4395,423.5938 L1289.5,423.5938 A2.5,2.5 0 0 1 1292,426.0938 L1292,672.7969 A2.5,2.5 0 0 1 1289.5,675.2969 L728.5,675.2969 A2.5,2.5 0 0 1 726,672.7969 L726,403.7969 A2.5,2.5 0 0 1 728.5,401.2969 " fill="transparent" style="stroke:#000000;stroke-width:1.5;"/><line style="stroke:#000000;stroke-width:1.5;" x1="726" x2="850.4395" y1="423.5938" y2="423.5938"/><text fill="#000000" font-family="sans-serif" font-size="14" font-weight="bold" lengthAdjust="spacing" textLength="111.4395" x="730" y="416.292">class_diagram</text></g><!--cluster C_0000897124234964432620--><g id="cluster_C_0000897124234964432620"><path d="M752.5,444.2969 L802.0215,444.2969 A3.75,3.75 0 0 1 804.5215,446.7969 L811.5215,466.5938 L1265.5,466.5938 A2.5,2.5 0 0 1 1268,469.0938 L1268,648.7969 A2.5,2.5 0 0 1 1265.5,651.2969 L752.5,651.2969 A2.5,2.5 0 0 1 750,648.7969 L750,446.7969 A2.5,2.5 0 0 1 752.5,444.2969 " fill="transparent" style="stroke:#000000;stroke-width:1.5;"/><line style="stroke:#000000;stroke-width:1.5;" x1="750" x2="811.5215" y1="466.5938" y2="466.5938"/><text fill="#000000" font-family="sans-serif" font-size="14" font-weight="bold" lengthAdjust="spacing" textLength="48.5215" x="754" y="459.292">model</text></g><!--cluster C_0001521862840957629236--><g id="cluster_C_0001521862840957629236"><path d="M8.5,401.2969 L156.8008,401.2969 A3.75,3.75 0 0 1 159.3008,403.7969 L166.3008,423.5938 L363.5,423.5938 A2.5,2.5 0 0 1 366,426.0938 L366,780.7969 A2.5,2.5 0 0 1 363.5,783.2969 L8.5,783.2969 A2.5,2.5 0 0 1 6,780.7969 L6,403.7969 A2.5,2.5 0 0 1 8.5,401.2969 " fill="transparent" style="stroke:#000000;stroke-width:1.5;"/><line style="stroke:#000000;stroke-width:1.5;" x1="6" x2="166.3008" y1="423.5938" y2="423.5938"/><text fill="#000000" font-family="sans-serif" font-size="14" font-weight="bold" lengthAdjust="spacing" textLength="147.3008" x="10" y="416.292">sequence_diagram</text></g><!--cluster C_0002206969880830639264--><g id="cluster_C_0002206969880830639264"><path d="M32.5,444.2969 L82.0215,444.2969 A3.75,3.75 0 0 1 84.5215,446.7969 L91.5215,466.5938 L339.5,466.5938 A2.5,2.5 0 0 1 342,469.0938 L342,756.7969 A2.5,2.5 0 0 1 339.5,759.2969 L32.5,759.2969 A2.5,2.5 0 0 1 30,756.7969 L30,446.7969 A2.5,2.5 0 0 1 32.5,444.2969 " fill="transparent" style="stroke:#000000;stroke-width:1.5;"/><line style="stroke:#000000;stroke-width:1.5;" x1="30" x2="91.5215" y1="466.5938" y2="466.5938"/><text fill="#000000" font-family="sans-serif" font-size="14" font-weight="bold" lengthAdjust="spacing" textLength="48.5215" x="34" y="459.292">model</text></g><!--class C_0000895261582183440230--><a href="classclanguml_1_1common_1_1model_1_1source__location.html" target="_top" title="Base class of all diagram elements that have source location." xlink:actuate="onRequest" xlink:href="classclanguml_1_1common_1_1model_1_1source__location.html" xlink:show="new" xlink:title="Base class of all diagram elements that have source location." xlink:type="simple"><g id="elem_C_0000895261582183440230"><rect codeLine="5" fill="#F1F1F1" height="48" id="C_0000895261582183440230" rx="2.5" ry="2.5" style="stroke:#181818;stroke-width:0.5;" width="141.3477" x="497.5" y="121.2969"/><ellipse cx="512.5" cy="137.2969" fill="#ADD1B2" rx="11" ry="11" style="stroke:#181818;stroke-width:1;"/><path d="M515.4688,142.9375 Q514.8906,143.2344 514.25,143.375 Q513.6094,143.5313 512.9063,143.5313 Q510.4063,143.5313 509.0781,141.8906 Q507.7656,140.2344 507.7656,137.1094 Q507.7656,133.9844 509.0781,132.3281 Q510.4063,130.6719 512.9063,130.6719 Q513.6094,130.6719 514.25,130.8281 Q514.9063,130.9844 515.4688,131.2813 L515.4688,134 Q514.8438,133.4219 514.25,133.1563 Q513.6563,132.875 513.0313,132.875 Q511.6875,132.875 511,133.9531 Q510.3125,135.0156 510.3125,137.1094 Q510.3125,139.2031 511,140.2813 Q511.6875,141.3438 513.0313,141.3438 Q513.6563,141.3438 514.25,141.0781 Q514.8438,140.7969 515.4688,140.2188 L515.4688,142.9375 Z " fill="#000000"/><text fill="#000000" font-family="sans-serif" font-size="14" lengthAdjust="spacing" textLength="109.3477" x="526.5" y="142.1436">source_location</text><line style="stroke:#181818;stroke-width:0.5;" x1="498.5" x2="637.8477" y1="153.2969" y2="153.2969"/><line style="stroke:#181818;stroke-width:0.5;" x1="498.5" x2="637.8477" y1="161.2969" y2="161.2969"/></g></a><!--class C_0001073500714379115414--><a href="classclanguml_1_1common_1_1model_1_1diagram__element.html" target="_top" title="Base class for standalone diagram elements." xlink:actuate="onRequest" xlink:href="classclanguml_1_1common_1_1model_1_1diagram__element.html" xlink:show="new" xlink:title="Base class for standalone diagram elements." xlink:type="simple"><g id="elem_C_0001073500714379115414"><rect codeLine="9" fill="#F1F1F1" height="48" id="C_0001073500714379115414" rx="2.5" ry="2.5" style="stroke:#181818;stroke-width:0.5;" width="154.9443" x="468.5" y="229.2969"/><ellipse cx="483.5" cy="245.2969" fill="#ADD1B2" rx="11" ry="11" style="stroke:#181818;stroke-width:1;"/><path d="M486.4688,250.9375 Q485.8906,251.2344 485.25,251.375 Q484.6094,251.5313 483.9063,251.5313 Q481.4063,251.5313 480.0781,249.8906 Q478.7656,248.2344 478.7656,245.1094 Q478.7656,241.9844 480.0781,240.3281 Q481.4063,238.6719 483.9063,238.6719 Q484.6094,238.6719 485.25,238.8281 Q485.9063,238.9844 486.4688,239.2813 L486.4688,242 Q485.8438,241.4219 485.25,241.1563 Q484.6563,240.875 484.0313,240.875 Q482.6875,240.875 482,241.9531 Q481.3125,243.0156 481.3125,245.1094 Q481.3125,247.2031 482,248.2813 Q482.6875,249.3438 484.0313,249.3438 Q484.6563,249.3438 485.25,249.0781 Q485.8438,248.7969 486.4688,248.2188 L486.4688,250.9375 Z " fill="#000000"/><text fill="#000000" font-family="sans-serif" font-size="14" lengthAdjust="spacing" textLength="122.9443" x="497.5" y="250.1436">diagram_element</text><line style="stroke:#181818;stroke-width:0.5;" x1="469.5" x2="622.4443" y1="261.2969" y2="261.2969"/><line style="stroke:#181818;stroke-width:0.5;" x1="469.5" x2="622.4443" y1="269.2969" y2="269.2969"/></g></a><!--class C_0002069520381434407937--><a href="classclanguml_1_1common_1_1model_1_1element.html" target="_top" title="Base class for any element qualified by namespace." xlink:actuate="onRequest" xlink:href="classclanguml_1_1common_1_1model_1_1element.html" xlink:show="new" xlink:title="Base class for any element qualified by namespace." xlink:type="simple"><g id="elem_C_0002069520381434407937"><rect codeLine="13" fill="#F1F1F1" height="48" id="C_0002069520381434407937" rx="2.5" ry="2.5" style="stroke:#181818;stroke-width:0.5;" width="89.7295" x="430" y="337.2969"/><ellipse cx="445" cy="353.2969" fill="#ADD1B2" rx="11" ry="11" style="stroke:#181818;stroke-width:1;"/><path d="M447.9688,358.9375 Q447.3906,359.2344 446.75,359.375 Q446.1094,359.5313 445.4063,359.5313 Q442.9063,359.5313 441.5781,357.8906 Q440.2656,356.2344 440.2656,353.1094 Q440.2656,349.9844 441.5781,348.3281 Q442.9063,346.6719 445.4063,346.6719 Q446.1094,346.6719 446.75,346.8281 Q447.4063,346.9844 447.9688,347.2813 L447.9688,350 Q447.3438,349.4219 446.75,349.1563 Q446.1563,348.875 445.5313,348.875 Q444.1875,348.875 443.5,349.9531 Q442.8125,351.0156 442.8125,353.1094 Q442.8125,355.2031 443.5,356.2813 Q444.1875,357.3438 445.5313,357.3438 Q446.1563,357.3438 446.75,357.0781 Q447.3438,356.7969 447.9688,356.2188 L447.9688,358.9375 Z " fill="#000000"/><text fill="#000000" font-family="sans-serif" font-size="14" lengthAdjust="spacing" textLength="57.7295" x="459" y="358.1436">element</text><line style="stroke:#181818;stroke-width:0.5;" x1="431" x2="518.7295" y1="369.2969" y2="369.2969"/><line style="stroke:#181818;stroke-width:0.5;" x1="431" x2="518.7295" y1="377.2969" y2="377.2969"/></g></a><!--class C_0000785714713072053129--><a href="classclanguml_1_1common_1_1model_1_1source__file.html" target="_top" title="Diagram element representing some file or directory." xlink:actuate="onRequest" xlink:href="classclanguml_1_1common_1_1model_1_1source__file.html" xlink:show="new" xlink:title="Diagram element representing some file or directory." xlink:type="simple"><g id="elem_C_0000785714713072053129"><rect codeLine="17" fill="#F1F1F1" height="48" id="C_0000785714713072053129" rx="2.5" ry="2.5" style="stroke:#181818;stroke-width:0.5;" width="107.1201" x="555.5" y="337.2969"/><ellipse cx="570.5" cy="353.2969" fill="#ADD1B2" rx="11" ry="11" style="stroke:#181818;stroke-width:1;"/><path d="M573.4688,358.9375 Q572.8906,359.2344 572.25,359.375 Q571.6094,359.5313 570.9063,359.5313 Q568.4063,359.5313 567.0781,357.8906 Q565.7656,356.2344 565.7656,353.1094 Q565.7656,349.9844 567.0781,348.3281 Q568.4063,346.6719 570.9063,346.6719 Q571.6094,346.6719 572.25,346.8281 Q572.9063,346.9844 573.4688,347.2813 L573.4688,350 Q572.8438,349.4219 572.25,349.1563 Q571.6563,348.875 571.0313,348.875 Q569.6875,348.875 569,349.9531 Q568.3125,351.0156 568.3125,353.1094 Q568.3125,355.2031 569,356.2813 Q569.6875,357.3438 571.0313,357.3438 Q571.6563,357.3438 572.25,357.0781 Q572.8438,356.7969 573.4688,356.2188 L573.4688,358.9375 Z " fill="#000000"/><text fill="#000000" font-family="sans-serif" font-size="14" lengthAdjust="spacing" textLength="75.1201" x="584.5" y="358.1436">source_file</text><line style="stroke:#181818;stroke-width:0.5;" x1="556.5" x2="661.6201" y1="369.2969" y2="369.2969"/><line style="stroke:#181818;stroke-width:0.5;" x1="556.5" x2="661.6201" y1="377.2969" y2="377.2969"/></g></a><!--class C_0002143286684830686854--><a href="classclanguml_1_1common_1_1model_1_1package.html" target="_top" title="Diagram element representing namespace or directory package" xlink:actuate="onRequest" xlink:href="classclanguml_1_1common_1_1model_1_1package.html" xlink:show="new" xlink:title="Diagram element representing namespace or directory package" xlink:type="simple"><g id="elem_C_0002143286684830686854"><rect codeLine="21" fill="#F1F1F1" height="48" id="C_0002143286684830686854" rx="2.5" ry="2.5" style="stroke:#181818;stroke-width:0.5;" width="91.3496" x="430.5" y="479.2969"/><ellipse cx="445.5" cy="495.2969" fill="#ADD1B2" rx="11" ry="11" style="stroke:#181818;stroke-width:1;"/><path d="M448.4688,500.9375 Q447.8906,501.2344 447.25,501.375 Q446.6094,501.5313 445.9063,501.5313 Q443.4063,501.5313 442.0781,499.8906 Q440.7656,498.2344 440.7656,495.1094 Q440.7656,491.9844 442.0781,490.3281 Q443.4063,488.6719 445.9063,488.6719 Q446.6094,488.6719 447.25,488.8281 Q447.9063,488.9844 448.4688,489.2813 L448.4688,492 Q447.8438,491.4219 447.25,491.1563 Q446.6563,490.875 446.0313,490.875 Q444.6875,490.875 444,491.9531 Q443.3125,493.0156 443.3125,495.1094 Q443.3125,497.2031 444,498.2813 Q444.6875,499.3438 446.0313,499.3438 Q446.6563,499.3438 447.25,499.0781 Q447.8438,498.7969 448.4688,498.2188 L448.4688,500.9375 Z " fill="#000000"/><text fill="#000000" font-family="sans-serif" font-size="14" lengthAdjust="spacing" textLength="59.3496" x="459.5" y="500.1436">package</text><line style="stroke:#181818;stroke-width:0.5;" x1="431.5" x2="520.8496" y1="511.2969" y2="511.2969"/><line style="stroke:#181818;stroke-width:0.5;" x1="431.5" x2="520.8496" y1="519.2969" y2="519.2969"/></g></a><!--class C_0000605866861866358037--><a href="classclanguml_1_1class__diagram_1_1model_1_1class__element.html" target="_top" title="Base class for class elements (e.g. member or method)." xlink:actuate="onRequest" xlink:href="classclanguml_1_1class__diagram_1_1model_1_1class__element.html" xlink:show="new" xlink:title="Base class for class elements (e.g. member or method)." xlink:type="simple"><g id="elem_C_0000605866861866358037"><rect codeLine="29" fill="#F1F1F1" height="48" id="C_0000605866861866358037" rx="2.5" ry="2.5" style="stroke:#181818;stroke-width:0.5;" width="131.4834" x="1120.5" y="479.2969"/><ellipse cx="1135.5" cy="495.2969" fill="#ADD1B2" rx="11" ry="11" style="stroke:#181818;stroke-width:1;"/><path d="M1138.4688,500.9375 Q1137.8906,501.2344 1137.25,501.375 Q1136.6094,501.5313 1135.9063,501.5313 Q1133.4063,501.5313 1132.0781,499.8906 Q1130.7656,498.2344 1130.7656,495.1094 Q1130.7656,491.9844 1132.0781,490.3281 Q1133.4063,488.6719 1135.9063,488.6719 Q1136.6094,488.6719 1137.25,488.8281 Q1137.9063,488.9844 1138.4688,489.2813 L1138.4688,492 Q1137.8438,491.4219 1137.25,491.1563 Q1136.6563,490.875 1136.0313,490.875 Q1134.6875,490.875 1134,491.9531 Q1133.3125,493.0156 1133.3125,495.1094 Q1133.3125,497.2031 1134,498.2813 Q1134.6875,499.3438 1136.0313,499.3438 Q1136.6563,499.3438 1137.25,499.0781 Q1137.8438,498.7969 1138.4688,498.2188 L1138.4688,500.9375 Z " fill="#000000"/><text fill="#000000" font-family="sans-serif" font-size="14" lengthAdjust="spacing" textLength="99.4834" x="1149.5" y="500.1436">class_element</text><line style="stroke:#181818;stroke-width:0.5;" x1="1121.5" x2="1250.9834" y1="511.2969" y2="511.2969"/><line style="stroke:#181818;stroke-width:0.5;" x1="1121.5" x2="1250.9834" y1="519.2969" y2="519.2969"/></g></a><!--class C_0001796282762108527255--><a href="classclanguml_1_1class__diagram_1_1model_1_1class__member.html" target="_top" title="Class member model." xlink:actuate="onRequest" xlink:href="classclanguml_1_1class__diagram_1_1model_1_1class__member.html" xlink:show="new" xlink:title="Class member model." xlink:type="simple"><g id="elem_C_0001796282762108527255"><rect codeLine="33" fill="#F1F1F1" height="48" id="C_0001796282762108527255" rx="2.5" ry="2.5" style="stroke:#181818;stroke-width:0.5;" width="132.8984" x="954.5" y="587.2969"/><ellipse cx="969.5" cy="603.2969" fill="#ADD1B2" rx="11" ry="11" style="stroke:#181818;stroke-width:1;"/><path d="M972.4688,608.9375 Q971.8906,609.2344 971.25,609.375 Q970.6094,609.5313 969.9063,609.5313 Q967.4063,609.5313 966.0781,607.8906 Q964.7656,606.2344 964.7656,603.1094 Q964.7656,599.9844 966.0781,598.3281 Q967.4063,596.6719 969.9063,596.6719 Q970.6094,596.6719 971.25,596.8281 Q971.9063,596.9844 972.4688,597.2813 L972.4688,600 Q971.8438,599.4219 971.25,599.1563 Q970.6563,598.875 970.0313,598.875 Q968.6875,598.875 968,599.9531 Q967.3125,601.0156 967.3125,603.1094 Q967.3125,605.2031 968,606.2813 Q968.6875,607.3438 970.0313,607.3438 Q970.6563,607.3438 971.25,607.0781 Q971.8438,606.7969 972.4688,606.2188 L972.4688,608.9375 Z " fill="#000000"/><text fill="#000000" font-family="sans-serif" font-size="14" lengthAdjust="spacing" textLength="100.8984" x="983.5" y="608.1436">class_member</text><line style="stroke:#181818;stroke-width:0.5;" x1="955.5" x2="1086.3984" y1="619.2969" y2="619.2969"/><line style="stroke:#181818;stroke-width:0.5;" x1="955.5" x2="1086.3984" y1="627.2969" y2="627.2969"/></g></a><!--class C_0000204145716468348671--><a href="classclanguml_1_1class__diagram_1_1model_1_1class__method.html" target="_top" title="Class method model." xlink:actuate="onRequest" xlink:href="classclanguml_1_1class__diagram_1_1model_1_1class__method.html" xlink:show="new" xlink:title="Class method model." xlink:type="simple"><g id="elem_C_0000204145716468348671"><rect codeLine="37" fill="#F1F1F1" height="48" id="C_0000204145716468348671" rx="2.5" ry="2.5" style="stroke:#181818;stroke-width:0.5;" width="127.8193" x="1123" y="587.2969"/><ellipse cx="1138" cy="603.2969" fill="#ADD1B2" rx="11" ry="11" style="stroke:#181818;stroke-width:1;"/><path d="M1140.9688,608.9375 Q1140.3906,609.2344 1139.75,609.375 Q1139.1094,609.5313 1138.4063,609.5313 Q1135.9063,609.5313 1134.5781,607.8906 Q1133.2656,606.2344 1133.2656,603.1094 Q1133.2656,599.9844 1134.5781,598.3281 Q1135.9063,596.6719 1138.4063,596.6719 Q1139.1094,596.6719 1139.75,596.8281 Q1140.4063,596.9844 1140.9688,597.2813 L1140.9688,600 Q1140.3438,599.4219 1139.75,599.1563 Q1139.1563,598.875 1138.5313,598.875 Q1137.1875,598.875 1136.5,599.9531 Q1135.8125,601.0156 1135.8125,603.1094 Q1135.8125,605.2031 1136.5,606.2813 Q1137.1875,607.3438 1138.5313,607.3438 Q1139.1563,607.3438 1139.75,607.0781 Q1140.3438,606.7969 1140.9688,606.2188 L1140.9688,608.9375 Z " fill="#000000"/><text fill="#000000" font-family="sans-serif" font-size="14" lengthAdjust="spacing" textLength="95.8193" x="1152" y="608.1436">class_method</text><line style="stroke:#181818;stroke-width:0.5;" x1="1124" x2="1249.8193" y1="619.2969" y2="619.2969"/><line style="stroke:#181818;stroke-width:0.5;" x1="1124" x2="1249.8193" y1="627.2969" y2="627.2969"/></g></a><!--class C_0001292034357466653182--><a href="classclanguml_1_1class__diagram_1_1model_1_1class__.html" target="_top" title="Diagram element representing a class or class template." xlink:actuate="onRequest" xlink:href="classclanguml_1_1class__diagram_1_1model_1_1class__.html" xlink:show="new" xlink:title="Diagram element representing a class or class template." xlink:type="simple"><g id="elem_C_0001292034357466653182"><rect codeLine="41" fill="#F1F1F1" height="48" id="C_0001292034357466653182" rx="2.5" ry="2.5" style="stroke:#181818;stroke-width:0.5;" width="73.7539" x="1011" y="479.2969"/><ellipse cx="1026" cy="495.2969" fill="#ADD1B2" rx="11" ry="11" style="stroke:#181818;stroke-width:1;"/><path d="M1028.9688,500.9375 Q1028.3906,501.2344 1027.75,501.375 Q1027.1094,501.5313 1026.4063,501.5313 Q1023.9063,501.5313 1022.5781,499.8906 Q1021.2656,498.2344 1021.2656,495.1094 Q1021.2656,491.9844 1022.5781,490.3281 Q1023.9063,488.6719 1026.4063,488.6719 Q1027.1094,488.6719 1027.75,488.8281 Q1028.4063,488.9844 1028.9688,489.2813 L1028.9688,492 Q1028.3438,491.4219 1027.75,491.1563 Q1027.1563,490.875 1026.5313,490.875 Q1025.1875,490.875 1024.5,491.9531 Q1023.8125,493.0156 1023.8125,495.1094 Q1023.8125,497.2031 1024.5,498.2813 Q1025.1875,499.3438 1026.5313,499.3438 Q1027.1563,499.3438 1027.75,499.0781 Q1028.3438,498.7969 1028.9688,498.2188 L1028.9688,500.9375 Z " fill="#000000"/><text fill="#000000" font-family="sans-serif" font-size="14" lengthAdjust="spacing" textLength="41.7539" x="1040" y="500.1436">class_</text><line style="stroke:#181818;stroke-width:0.5;" x1="1012" x2="1083.7539" y1="511.2969" y2="511.2969"/><line style="stroke:#181818;stroke-width:0.5;" x1="1012" x2="1083.7539" y1="519.2969" y2="519.2969"/></g></a><!--class C_0000724392977093650506--><a href="classclanguml_1_1class__diagram_1_1model_1_1enum__.html" target="_top" title="enum_" xlink:actuate="onRequest" xlink:href="classclanguml_1_1class__diagram_1_1model_1_1enum__.html" xlink:show="new" xlink:title="enum_" xlink:type="simple"><g id="elem_C_0000724392977093650506"><rect codeLine="45" fill="#F1F1F1" height="48" id="C_0000724392977093650506" rx="2.5" ry="2.5" style="stroke:#181818;stroke-width:0.5;" width="78.9971" x="896.5" y="479.2969"/><ellipse cx="911.5" cy="495.2969" fill="#ADD1B2" rx="11" ry="11" style="stroke:#181818;stroke-width:1;"/><path d="M914.4688,500.9375 Q913.8906,501.2344 913.25,501.375 Q912.6094,501.5313 911.9063,501.5313 Q909.4063,501.5313 908.0781,499.8906 Q906.7656,498.2344 906.7656,495.1094 Q906.7656,491.9844 908.0781,490.3281 Q909.4063,488.6719 911.9063,488.6719 Q912.6094,488.6719 913.25,488.8281 Q913.9063,488.9844 914.4688,489.2813 L914.4688,492 Q913.8438,491.4219 913.25,491.1563 Q912.6563,490.875 912.0313,490.875 Q910.6875,490.875 910,491.9531 Q909.3125,493.0156 909.3125,495.1094 Q909.3125,497.2031 910,498.2813 Q910.6875,499.3438 912.0313,499.3438 Q912.6563,499.3438 913.25,499.0781 Q913.8438,498.7969 914.4688,498.2188 L914.4688,500.9375 Z " fill="#000000"/><text fill="#000000" font-family="sans-serif" font-size="14" lengthAdjust="spacing" textLength="46.9971" x="925.5" y="500.1436">enum_</text><line style="stroke:#181818;stroke-width:0.5;" x1="897.5" x2="974.4971" y1="511.2969" y2="511.2969"/><line style="stroke:#181818;stroke-width:0.5;" x1="897.5" x2="974.4971" y1="519.2969" y2="519.2969"/></g></a><!--class C_0001374849051752224500--><a href="classclanguml_1_1class__diagram_1_1model_1_1concept__.html" target="_top" title="Model of C++ concept." xlink:actuate="onRequest" xlink:href="classclanguml_1_1class__diagram_1_1model_1_1concept__.html" xlink:show="new" xlink:title="Model of C++ concept." xlink:type="simple"><g id="elem_C_0001374849051752224500"><rect codeLine="49" fill="#F1F1F1" height="48" id="C_0001374849051752224500" rx="2.5" ry="2.5" style="stroke:#181818;stroke-width:0.5;" width="94.8223" x="766.5" y="479.2969"/><ellipse cx="781.5" cy="495.2969" fill="#ADD1B2" rx="11" ry="11" style="stroke:#181818;stroke-width:1;"/><path d="M784.4688,500.9375 Q783.8906,501.2344 783.25,501.375 Q782.6094,501.5313 781.9063,501.5313 Q779.4063,501.5313 778.0781,499.8906 Q776.7656,498.2344 776.7656,495.1094 Q776.7656,491.9844 778.0781,490.3281 Q779.4063,488.6719 781.9063,488.6719 Q782.6094,488.6719 783.25,488.8281 Q783.9063,488.9844 784.4688,489.2813 L784.4688,492 Q783.8438,491.4219 783.25,491.1563 Q782.6563,490.875 782.0313,490.875 Q780.6875,490.875 780,491.9531 Q779.3125,493.0156 779.3125,495.1094 Q779.3125,497.2031 780,498.2813 Q780.6875,499.3438 782.0313,499.3438 Q782.6563,499.3438 783.25,499.0781 Q783.8438,498.7969 784.4688,498.2188 L784.4688,500.9375 Z " fill="#000000"/><text fill="#000000" font-family="sans-serif" font-size="14" lengthAdjust="spacing" textLength="62.8223" x="795.5" y="500.1436">concept_</text><line style="stroke:#181818;stroke-width:0.5;" x1="767.5" x2="860.3223" y1="511.2969" y2="511.2969"/><line style="stroke:#181818;stroke-width:0.5;" x1="767.5" x2="860.3223" y1="519.2969" y2="519.2969"/></g></a><!--class C_0001400215772842495226--><a href="structclanguml_1_1sequence__diagram_1_1model_1_1participant.html" target="_top" title="Base class for various types of sequence diagram participants" xlink:actuate="onRequest" xlink:href="structclanguml_1_1sequence__diagram_1_1model_1_1participant.html" xlink:show="new" xlink:title="Base class for various types of sequence diagram participants" xlink:type="simple"><g id="elem_C_0001400215772842495226"><rect codeLine="57" fill="#F1F1F1" height="48" id="C_0001400215772842495226" rx="2.5" ry="2.5" style="stroke:#181818;stroke-width:0.5;" width="108.0156" x="211" y="479.2969"/><ellipse cx="226" cy="495.2969" fill="#ADD1B2" rx="11" ry="11" style="stroke:#181818;stroke-width:1;"/><path d="M228.9688,500.9375 Q228.3906,501.2344 227.75,501.375 Q227.1094,501.5313 226.4063,501.5313 Q223.9063,501.5313 222.5781,499.8906 Q221.2656,498.2344 221.2656,495.1094 Q221.2656,491.9844 222.5781,490.3281 Q223.9063,488.6719 226.4063,488.6719 Q227.1094,488.6719 227.75,488.8281 Q228.4063,488.9844 228.9688,489.2813 L228.9688,492 Q228.3438,491.4219 227.75,491.1563 Q227.1563,490.875 226.5313,490.875 Q225.1875,490.875 224.5,491.9531 Q223.8125,493.0156 223.8125,495.1094 Q223.8125,497.2031 224.5,498.2813 Q225.1875,499.3438 226.5313,499.3438 Q227.1563,499.3438 227.75,499.0781 Q228.3438,498.7969 228.9688,498.2188 L228.9688,500.9375 Z " fill="#000000"/><text fill="#000000" font-family="sans-serif" font-size="14" lengthAdjust="spacing" textLength="76.0156" x="240" y="500.1436">participant</text><line style="stroke:#181818;stroke-width:0.5;" x1="212" x2="318.0156" y1="511.2969" y2="511.2969"/><line style="stroke:#181818;stroke-width:0.5;" x1="212" x2="318.0156" y1="519.2969" y2="519.2969"/></g></a><!--class C_0000885514871619471610--><a href="structclanguml_1_1sequence__diagram_1_1model_1_1class__.html" target="_top" title="Sequence diagram participant representing a class." xlink:actuate="onRequest" xlink:href="structclanguml_1_1sequence__diagram_1_1model_1_1class__.html" xlink:show="new" xlink:title="Sequence diagram participant representing a class." xlink:type="simple"><g id="elem_C_0000885514871619471610"><rect codeLine="61" fill="#F1F1F1" height="48" id="C_0000885514871619471610" rx="2.5" ry="2.5" style="stroke:#181818;stroke-width:0.5;" width="73.7539" x="99" y="587.2969"/><ellipse cx="114" cy="603.2969" fill="#ADD1B2" rx="11" ry="11" style="stroke:#181818;stroke-width:1;"/><path d="M116.9688,608.9375 Q116.3906,609.2344 115.75,609.375 Q115.1094,609.5313 114.4063,609.5313 Q111.9063,609.5313 110.5781,607.8906 Q109.2656,606.2344 109.2656,603.1094 Q109.2656,599.9844 110.5781,598.3281 Q111.9063,596.6719 114.4063,596.6719 Q115.1094,596.6719 115.75,596.8281 Q116.4063,596.9844 116.9688,597.2813 L116.9688,600 Q116.3438,599.4219 115.75,599.1563 Q115.1563,598.875 114.5313,598.875 Q113.1875,598.875 112.5,599.9531 Q111.8125,601.0156 111.8125,603.1094 Q111.8125,605.2031 112.5,606.2813 Q113.1875,607.3438 114.5313,607.3438 Q115.1563,607.3438 115.75,607.0781 Q116.3438,606.7969 116.9688,606.2188 L116.9688,608.9375 Z " fill="#000000"/><text fill="#000000" font-family="sans-serif" font-size="14" lengthAdjust="spacing" textLength="41.7539" x="128" y="608.1436">class_</text><line style="stroke:#181818;stroke-width:0.5;" x1="100" x2="171.7539" y1="619.2969" y2="619.2969"/><line style="stroke:#181818;stroke-width:0.5;" x1="100" x2="171.7539" y1="627.2969" y2="627.2969"/></g></a><!--class C_0000232638456031681828--><a href="structclanguml_1_1sequence__diagram_1_1model_1_1function.html" target="_top" title="Participant mode representing a free function." xlink:actuate="onRequest" xlink:href="structclanguml_1_1sequence__diagram_1_1model_1_1function.html" xlink:show="new" xlink:title="Participant mode representing a free function." xlink:type="simple"><g id="elem_C_0000232638456031681828"><rect codeLine="65" fill="#F1F1F1" height="48" id="C_0000232638456031681828" rx="2.5" ry="2.5" style="stroke:#181818;stroke-width:0.5;" width="89.1895" x="208.5" y="587.2969"/><ellipse cx="223.5" cy="603.2969" fill="#ADD1B2" rx="11" ry="11" style="stroke:#181818;stroke-width:1;"/><path d="M226.4688,608.9375 Q225.8906,609.2344 225.25,609.375 Q224.6094,609.5313 223.9063,609.5313 Q221.4063,609.5313 220.0781,607.8906 Q218.7656,606.2344 218.7656,603.1094 Q218.7656,599.9844 220.0781,598.3281 Q221.4063,596.6719 223.9063,596.6719 Q224.6094,596.6719 225.25,596.8281 Q225.9063,596.9844 226.4688,597.2813 L226.4688,600 Q225.8438,599.4219 225.25,599.1563 Q224.6563,598.875 224.0313,598.875 Q222.6875,598.875 222,599.9531 Q221.3125,601.0156 221.3125,603.1094 Q221.3125,605.2031 222,606.2813 Q222.6875,607.3438 224.0313,607.3438 Q224.6563,607.3438 225.25,607.0781 Q225.8438,606.7969 226.4688,606.2188 L226.4688,608.9375 Z " fill="#000000"/><text fill="#000000" font-family="sans-serif" font-size="14" lengthAdjust="spacing" textLength="57.1895" x="237.5" y="608.1436">function</text><line style="stroke:#181818;stroke-width:0.5;" x1="209.5" x2="296.6895" y1="619.2969" y2="619.2969"/><line style="stroke:#181818;stroke-width:0.5;" x1="209.5" x2="296.6895" y1="627.2969" y2="627.2969"/></g></a><!--class C_0000817665972547784504--><a href="structclanguml_1_1sequence__diagram_1_1model_1_1method.html" target="_top" title="Participant model representing a method" xlink:actuate="onRequest" xlink:href="structclanguml_1_1sequence__diagram_1_1model_1_1method.html" xlink:show="new" xlink:title="Participant model representing a method" xlink:type="simple"><g id="elem_C_0000817665972547784504"><rect codeLine="69" fill="#F1F1F1" height="48" id="C_0000817665972547784504" rx="2.5" ry="2.5" style="stroke:#181818;stroke-width:0.5;" width="86.0654" x="46" y="695.2969"/><ellipse cx="61" cy="711.2969" fill="#ADD1B2" rx="11" ry="11" style="stroke:#181818;stroke-width:1;"/><path d="M63.9688,716.9375 Q63.3906,717.2344 62.75,717.375 Q62.1094,717.5313 61.4063,717.5313 Q58.9063,717.5313 57.5781,715.8906 Q56.2656,714.2344 56.2656,711.1094 Q56.2656,707.9844 57.5781,706.3281 Q58.9063,704.6719 61.4063,704.6719 Q62.1094,704.6719 62.75,704.8281 Q63.4063,704.9844 63.9688,705.2813 L63.9688,708 Q63.3438,707.4219 62.75,707.1563 Q62.1563,706.875 61.5313,706.875 Q60.1875,706.875 59.5,707.9531 Q58.8125,709.0156 58.8125,711.1094 Q58.8125,713.2031 59.5,714.2813 Q60.1875,715.3438 61.5313,715.3438 Q62.1563,715.3438 62.75,715.0781 Q63.3438,714.7969 63.9688,714.2188 L63.9688,716.9375 Z " fill="#000000"/><text fill="#000000" font-family="sans-serif" font-size="14" lengthAdjust="spacing" textLength="54.0654" x="75" y="716.1436">method</text><line style="stroke:#181818;stroke-width:0.5;" x1="47" x2="131.0654" y1="727.2969" y2="727.2969"/><line style="stroke:#181818;stroke-width:0.5;" x1="47" x2="131.0654" y1="735.2969" y2="735.2969"/></g></a><!--class C_0002280191967493310558--><a href="structclanguml_1_1sequence__diagram_1_1model_1_1function__template.html" target="_top" title="Participant model representing a function template." xlink:actuate="onRequest" xlink:href="structclanguml_1_1sequence__diagram_1_1model_1_1function__template.html" xlink:show="new" xlink:title="Participant model representing a function template." xlink:type="simple"><g id="elem_C_0002280191967493310558"><rect codeLine="73" fill="#F1F1F1" height="48" id="C_0002280191967493310558" rx="2.5" ry="2.5" style="stroke:#181818;stroke-width:0.5;" width="159.3877" x="167.5" y="695.2969"/><ellipse cx="182.5" cy="711.2969" fill="#ADD1B2" rx="11" ry="11" style="stroke:#181818;stroke-width:1;"/><path d="M185.4688,716.9375 Q184.8906,717.2344 184.25,717.375 Q183.6094,717.5313 182.9063,717.5313 Q180.4063,717.5313 179.0781,715.8906 Q177.7656,714.2344 177.7656,711.1094 Q177.7656,707.9844 179.0781,706.3281 Q180.4063,704.6719 182.9063,704.6719 Q183.6094,704.6719 184.25,704.8281 Q184.9063,704.9844 185.4688,705.2813 L185.4688,708 Q184.8438,707.4219 184.25,707.1563 Q183.6563,706.875 183.0313,706.875 Q181.6875,706.875 181,707.9531 Q180.3125,709.0156 180.3125,711.1094 Q180.3125,713.2031 181,714.2813 Q181.6875,715.3438 183.0313,715.3438 Q183.6563,715.3438 184.25,715.0781 Q184.8438,714.7969 185.4688,714.2188 L185.4688,716.9375 Z " fill="#000000"/><text fill="#000000" font-family="sans-serif" font-size="14" lengthAdjust="spacing" textLength="127.3877" x="196.5" y="716.1436">function_template</text><line style="stroke:#181818;stroke-width:0.5;" x1="168.5" x2="325.8877" y1="727.2969" y2="727.2969"/><line style="stroke:#181818;stroke-width:0.5;" x1="168.5" x2="325.8877" y1="735.2969" y2="735.2969"/></g></a><!--class C_0002228653068706235818--><a href="classclanguml_1_1sequence__diagram_1_1model_1_1message.html" target="_top" title="Model of a sequence diagram message." xlink:actuate="onRequest" xlink:href="classclanguml_1_1sequence__diagram_1_1model_1_1message.html" xlink:show="new" xlink:title="Model of a sequence diagram message." xlink:type="simple"><g id="elem_C_0002228653068706235818"><rect codeLine="77" fill="#F1F1F1" height="48" id="C_0002228653068706235818" rx="2.5" ry="2.5" style="stroke:#181818;stroke-width:0.5;" width="94.918" x="80.5" y="479.2969"/><ellipse cx="95.5" cy="495.2969" fill="#ADD1B2" rx="11" ry="11" style="stroke:#181818;stroke-width:1;"/><path d="M98.4688,500.9375 Q97.8906,501.2344 97.25,501.375 Q96.6094,501.5313 95.9063,501.5313 Q93.4063,501.5313 92.0781,499.8906 Q90.7656,498.2344 90.7656,495.1094 Q90.7656,491.9844 92.0781,490.3281 Q93.4063,488.6719 95.9063,488.6719 Q96.6094,488.6719 97.25,488.8281 Q97.9063,488.9844 98.4688,489.2813 L98.4688,492 Q97.8438,491.4219 97.25,491.1563 Q96.6563,490.875 96.0313,490.875 Q94.6875,490.875 94,491.9531 Q93.3125,493.0156 93.3125,495.1094 Q93.3125,497.2031 94,498.2813 Q94.6875,499.3438 96.0313,499.3438 Q96.6563,499.3438 97.25,499.0781 Q97.8438,498.7969 98.4688,498.2188 L98.4688,500.9375 Z " fill="#000000"/><text fill="#000000" font-family="sans-serif" font-size="14" lengthAdjust="spacing" textLength="62.918" x="109.5" y="500.1436">message</text><line style="stroke:#181818;stroke-width:0.5;" x1="81.5" x2="174.418" y1="511.2969" y2="511.2969"/><line style="stroke:#181818;stroke-width:0.5;" x1="81.5" x2="174.418" y1="519.2969" y2="519.2969"/></g></a><!--reverse link C_0000895261582183440230 to C_0001073500714379115414--><g id="link_C_0000895261582183440230_C_0001073500714379115414"><path codeLine="82" d="M559.5676,186.9203 C555.8976,204.5803 554.52,211.2369 550.84,228.9769 " fill="transparent" id="C_0000895261582183440230-backto-C_0001073500714379115414" style="stroke:#181818;stroke-width:1;"/><polygon fill="transparent" points="563.23,169.2969,553.6931,185.6995,565.4421,188.1411,563.23,169.2969" style="stroke:#181818;stroke-width:1;"/></g><!--reverse link C_0001073500714379115414 to C_0002069520381434407937--><g id="link_C_0001073500714379115414_C_0002069520381434407937"><path codeLine="83" d="M520.578,292.2555 C508.758,309.9155 502.5,319.2369 490.62,336.9769 " fill="transparent" id="C_0001073500714379115414-backto-C_0002069520381434407937" style="stroke:#181818;stroke-width:1;"/><polygon fill="transparent" points="530.59,277.2969,515.5918,288.9182,525.5643,295.5928,530.59,277.2969" style="stroke:#181818;stroke-width:1;"/></g><!--reverse link C_0001073500714379115414 to C_0000785714713072053129--><g id="link_C_0001073500714379115414_C_0000785714713072053129"><path codeLine="84" d="M568.8625,292.7726 C579.3525,310.4326 584.6,319.2369 595.14,336.9769 " fill="transparent" id="C_0001073500714379115414-backto-C_0000785714713072053129" style="stroke:#181818;stroke-width:1;"/><polygon fill="transparent" points="559.67,277.2969,563.704,295.8368,574.0211,289.7084,559.67,277.2969" style="stroke:#181818;stroke-width:1;"/></g><!--reverse link C_0002069520381434407937 to C_0002143286684830686854--><g id="link_C_0002069520381434407937_C_0002143286684830686854"><path codeLine="85" d="M475.2949,403.4164 C475.4749,429.3564 475.65,453.1869 475.83,479.1469 " fill="transparent" id="C_0002069520381434407937-backto-C_0002143286684830686854" style="stroke:#181818;stroke-width:1;"/><polygon fill="transparent" points="475.17,385.4169,469.295,403.4581,481.2948,403.3748,475.17,385.4169" style="stroke:#181818;stroke-width:1;"/></g><!--reverse link C_0000895261582183440230 to C_0000605866861866358037--><g id="link_C_0000895261582183440230_C_0000605866861866358037"><path codeLine="86" d="M655.7036,172.0064 C764.1036,205.8164 957.19,276.2869 1103,393.2969 C1133.24,417.5669 1158.62,455.1169 1173.07,479.1969 " fill="transparent" id="C_0000895261582183440230-backto-C_0000605866861866358037" style="stroke:#181818;stroke-width:1;"/><polygon fill="transparent" points="638.52,166.6469,653.917,177.7343,657.4901,166.2786,638.52,166.6469" style="stroke:#181818;stroke-width:1;"/></g><!--reverse link C_0000605866861866358037 to C_0001796282762108527255--><g id="link_C_0000605866861866358037_C_0001796282762108527255"><path codeLine="87" d="M1149.7525,539.8753 C1133.8925,554.8753 1124.91,561.6969 1103,575.2969 C1096.16,579.5369 1088.72,583.5069 1081.2,587.1269 " fill="transparent" id="C_0000605866861866358037-backto-C_0001796282762108527255" style="stroke:#181818;stroke-width:1;"/><polygon fill="transparent" points="1162.83,527.5069,1145.6296,535.5161,1153.8753,544.2345,1162.83,527.5069" style="stroke:#181818;stroke-width:1;"/></g><!--reverse link C_0000605866861866358037 to C_0000204145716468348671--><g id="link_C_0000605866861866358037_C_0000204145716468348671"><path codeLine="88" d="M1186.3831,545.2961 C1186.5431,562.9561 1186.61,569.2369 1186.78,586.9769 " fill="transparent" id="C_0000605866861866358037-backto-C_0000204145716468348671" style="stroke:#181818;stroke-width:1;"/><polygon fill="transparent" points="1186.22,527.2969,1180.3833,545.3505,1192.3828,545.2418,1186.22,527.2969" style="stroke:#181818;stroke-width:1;"/></g><!--reverse link C_0002069520381434407937 to C_0001292034357466653182--><g id="link_C_0002069520381434407937_C_0001292034357466653182"><path codeLine="89" d="M537.4659,386.1243 C543.3559,387.9343 532.16,384.2069 538,385.2969 C562.86,389.9169 971.59,379.8569 993,393.2969 C1023.16,412.2269 1037.42,453.2569 1043.66,479.2269 " fill="transparent" id="C_0002069520381434407937-backto-C_0001292034357466653182" style="stroke:#181818;stroke-width:1;"/><polygon fill="transparent" points="520.26,380.8369,535.7035,391.8596,539.2284,380.389,520.26,380.8369" style="stroke:#181818;stroke-width:1;"/></g><!--reverse link C_0002069520381434407937 to C_0000724392977093650506--><g id="link_C_0002069520381434407937_C_0000724392977093650506"><path codeLine="90" d="M537.4651,386.1192 C543.3451,387.9392 532.17,384.1969 538,385.2969 C556.62,388.8169 862.91,383.2969 879,393.2969 C909.47,412.2369 924.49,453.2569 931.23,479.2269 " fill="transparent" id="C_0002069520381434407937-backto-C_0000724392977093650506" style="stroke:#181818;stroke-width:1;"/><polygon fill="transparent" points="520.27,380.7969,535.691,391.8509,539.2392,380.3875,520.27,380.7969" style="stroke:#181818;stroke-width:1;"/></g><!--reverse link C_0002069520381434407937 to C_0001374849051752224500--><g id="link_C_0002069520381434407937_C_0001374849051752224500"><path codeLine="91" d="M537.4886,385.9925 C543.3686,387.8325 532.18,384.0969 538,385.2969 C568.52,391.5969 648.91,382.1369 678,393.2969 C725.46,411.5069 769.2,452.7569 793.66,478.9669 " fill="transparent" id="C_0002069520381434407937-backto-C_0001374849051752224500" style="stroke:#181818;stroke-width:1;"/><polygon fill="transparent" points="520.31,380.6169,535.6967,391.7187,539.2804,380.2663,520.31,380.6169" style="stroke:#181818;stroke-width:1;"/></g><!--reverse link C_0002069520381434407937 to C_0001400215772842495226--><g id="link_C_0002069520381434407937_C_0001400215772842495226"><path codeLine="92" d="M414.0712,392.7372 C408.6412,395.6772 419.06,390.1869 414,393.2969 C370.31,420.1369 323.03,456.0069 293.71,479.1369 " fill="transparent" id="C_0002069520381434407937-backto-C_0001400215772842495226" style="stroke:#181818;stroke-width:1;"/><polygon fill="transparent" points="429.9,384.1669,411.2145,387.4609,416.928,398.0134,429.9,384.1669" style="stroke:#181818;stroke-width:1;"/></g><!--reverse link C_0001400215772842495226 to C_0000885514871619471610--><g id="link_C_0001400215772842495226_C_0000885514871619471610"><path codeLine="93" d="M231.7997,540.5116 C218.0297,555.1116 211.52,560.7869 193,575.2969 C186.78,580.1669 179.85,584.9169 173.01,589.2769 " fill="transparent" id="C_0001400215772842495226-backto-C_0000885514871619471610" style="stroke:#181818;stroke-width:1;"/><polygon fill="transparent" points="244.15,527.4169,227.4348,536.3948,236.1646,544.6283,244.15,527.4169" style="stroke:#181818;stroke-width:1;"/></g><!--reverse link C_0001400215772842495226 to C_0000232638456031681828--><g id="link_C_0001400215772842495226_C_0000232638456031681828"><path codeLine="94" d="M260.3744,545.1825 C258.3744,562.8425 257.65,569.2369 255.64,586.9769 " fill="transparent" id="C_0001400215772842495226-backto-C_0000232638456031681828" style="stroke:#181818;stroke-width:1;"/><polygon fill="transparent" points="262.4,527.2969,254.4126,544.5074,266.3363,545.8577,262.4,527.2969" style="stroke:#181818;stroke-width:1;"/></g><!--reverse link C_0000232638456031681828 to C_0000817665972547784504--><g id="link_C_0000232638456031681828_C_0000817665972547784504"><path codeLine="95" d="M227.5067,650.1819 C216.3067,665.7919 210.16,671.0469 191,683.2969 C175,693.5269 168.01,689.2769 150,695.2969 C144.2,697.2369 138.14,699.3769 132.18,701.5569 " fill="transparent" id="C_0000232638456031681828-backto-C_0000817665972547784504" style="stroke:#181818;stroke-width:1;"/><polygon fill="transparent" points="238,635.5569,222.6317,646.6841,232.3817,653.6796,238,635.5569" style="stroke:#181818;stroke-width:1;"/></g><!--reverse link C_0000232638456031681828 to C_0002280191967493310558--><g id="link_C_0000232638456031681828_C_0002280191967493310558"><path codeLine="96" d="M250.6824,653.2681 C249.6824,670.9281 249.32,677.2369 248.32,694.9769 " fill="transparent" id="C_0000232638456031681828-backto-C_0002280191967493310558" style="stroke:#181818;stroke-width:1;"/><polygon fill="transparent" points="251.7,635.2969,244.692,652.9289,256.6728,653.6073,251.7,635.2969" style="stroke:#181818;stroke-width:1;"/></g><!--reverse link C_0001073500714379115414 to C_0002228653068706235818--><g id="link_C_0001073500714379115414_C_0002228653068706235818"><path codeLine="97" d="M450.6503,273.9711 C373.8703,292.4611 274.2,325.5769 194,393.2969 C166.28,416.7069 146.99,454.8569 136.7,479.2469 " fill="transparent" id="C_0001073500714379115414-backto-C_0002228653068706235818" style="stroke:#181818;stroke-width:1;"/><polygon fill="transparent" points="468.15,269.7569,449.2455,268.1379,452.055,279.8044,468.15,269.7569" style="stroke:#181818;stroke-width:1;"/></g><!--SRC=[fLVRRjj647ttLopoaWIkXBrVW3xL1VgI00M2ziKmY1MraeZoef2KMoDDlht3cxGKLpAjsW11Q7PspfdTEJEiapfrw4jnA6E7qYAsTLBaA2lMBaLnQgiAxH9NsZBUlTpjRVoNtJhq61TPLkHFo5Re8SBmnuYKM6363SMKKiar-dPQtkxchSQQAKeqbfnXGQXc15PtmTvLBP9eGFBkvAMDe9883PwCSqmPxdqkcT7ZOxi07ldsaAKHYKY7l7bhGJKlVSHZoEMkpj9llzZAzGaeDiYcALedTblQ3BdKPIwlArJlR8rszjcXQfo-vVUd9s0KHNVV1rgzSzGxdsWHh9Z0M17Eb254SC9zMW7pJ5f3n27aXDQcA55Lstnjqo9t4te14XFm54l8EcOQu47EbM7A1nympmH_3RFDNmQGwEl1fiacSMkqUa6vpLm5byu5eFU7l4bIvrqffGLaLX665SM24Mf6LsfgVkELQi9r77uTPnULRb-w2jwIV0lN9tEeMOk0tZefNLmNvKk0HLzHtW50PgcMKdFDiDHIYz7j2PXdCkWZpG1_pFe8FEety3Wq_oS5QJ14_PqxIGEb71EfC9CK4qM5nFAQa6YZ2EKKP4ToO0fE9o7f8aokB0QTQZ8Y2JoPq7XyPGFcOCRQpGVyeyprfcitk7ixwiW7jzmkKUQobIkR96QktXNhZu7px_RkLdeIeeoacYf92TQ2Gjh4I4AcvjieTN4xHW_j_ZtcTk4Lk0qTxmGe1XM3of9SWbHhgSZe1ARcM-4sSSTmcrzUWUlbbK8tOvm9nQMKKF-QZl8wDTy6T4QHsQ4L3PUdTja-jNL8wbn-o29Vv2XdXXgbi65IG9UMOv6RcD_8eetNasZV0vajyjZjQp-tJ77D3RH_9M1WuD3ZHhcTcj-Qspva3-npEz109t-ulqUzRNb9d2htzU1WoLIVY83n0gg9OoEWe0nbr_I9DWrG6grn8x-GPSbF-hItPPt4oTwEfW7UYBPG2a9G3isJZWuhO8QqL7LvY6i_BqS2mTHuaOFoz6pBf3Z07NlPktRw6ROxpWZU3jNhTOIr5e9m3ILD36-UPvFRn7m3gL4jVRa2E5XOWJBQ7FBuR0Abq6AOvj2LODxLKEzwB5mJymqyXh0TaTyztCsIS_2Rqi7aCBXCIKoqLnC5McMW2N2b02lcuwEOc6-Wu0llEO7qd46t-7Bweq7flA67QamCCL9nmnZ1GepE8M3-7-SG7G7C93GuNfDec9YgyHm7eA65m8ociAGmTv0pIXDpI0vVEvOsw9aUscbr3mlFvF7YPzRF_ouMbpzcBdx6dDn2dn4pt4BZ-yNl3YzQO6QUmIqqE5uS6RsK18Qp6MwX8Ma6jz38CiCjD2FCYHPeudFS0atkOdlpG0RQo1otW6fVr6i_sbGfPxY5j6bE1GJg_-xzRovt9IZ86lsTr3lKble2QlqdzEpAgj4OlEHBl52BhRPonOswU__fqv-VZ-O_LeUyFdIEnn-9NEAbH1_kxsbpnHN1cCERkbVnQaCi5GQcd0NvuVxPan_34WBVLbmlWT37_m00]--></g></svg>