<svg xmlns="http://www.w3.org/2000/svg" xmlns:xlink="http://www.w3.org/1999/xlink" contentStyleType="text/css" data-diagram-type="CLASS" height="315px" preserveAspectRatio="none" style="width:765px;height:315px;background:#FFFFFF;" version="1.1" viewBox="0 0 765 315" width="765px" zoomAndPan="magnify"><title>Source file model class hierarchy</title><defs/><g><text fill="#000000" font-family="sans-serif" font-size="14" font-weight="bold" lengthAdjust="spacing" textLength="261.6865" x="244.7031" y="22.9951">Source file model class hierarchy</text><!--class C_0001117102382624673118--><a href="classclanguml_1_1common_1_1model_1_1decorated__element.html" target="_top" title="Base class for decorated diagram elements" xlink:actuate="onRequest" xlink:href="classclanguml_1_1common_1_1model_1_1decorated__element.html" xlink:show="new" xlink:title="Base class for decorated diagram elements" xlink:type="simple"><g id="elem_C_0001117102382624673118"><rect codeLine="3" fill="#F1F1F1" height="48" id="C_0001117102382624673118" rx="2.5" ry="2.5" style="stroke:#181818;stroke-width:0.5;" width="291.2529" x="7" y="44.2969"/><ellipse cx="22" cy="60.2969" fill="#ADD1B2" rx="11" ry="11" style="stroke:#181818;stroke-width:1;"/><path d="M24.9688,65.9375 Q24.3906,66.2344 23.75,66.375 Q23.1094,66.5313 22.4063,66.5313 Q19.9063,66.5313 18.5781,64.8906 Q17.2656,63.2344 17.2656,60.1094 Q17.2656,56.9844 18.5781,55.3281 Q19.9063,53.6719 22.4063,53.6719 Q23.1094,53.6719 23.75,53.8281 Q24.4063,53.9844 24.9688,54.2813 L24.9688,57 Q24.3438,56.4219 23.75,56.1563 Q23.1563,55.875 22.5313,55.875 Q21.1875,55.875 20.5,56.9531 Q19.8125,58.0156 19.8125,60.1094 Q19.8125,62.2031 20.5,63.2813 Q21.1875,64.3438 22.5313,64.3438 Q23.1563,64.3438 23.75,64.0781 Q24.3438,63.7969 24.9688,63.2188 L24.9688,65.9375 Z " fill="#000000"/><text fill="#000000" font-family="sans-serif" font-size="14" lengthAdjust="spacing" textLength="259.2529" x="36" y="65.1436">common::model::decorated_element</text><line style="stroke:#181818;stroke-width:0.5;" x1="8" x2="297.2529" y1="76.2969" y2="76.2969"/><line style="stroke:#181818;stroke-width:0.5;" x1="8" x2="297.2529" y1="84.2969" y2="84.2969"/></g></a><!--class C_0002077846075979426940--><a href="classclanguml_1_1common_1_1model_1_1stylable__element.html" target="_top" title="Diagram elements to which style can be applied." xlink:actuate="onRequest" xlink:href="classclanguml_1_1common_1_1model_1_1stylable__element.html" xlink:show="new" xlink:title="Diagram elements to which style can be applied." xlink:type="simple"><g id="elem_C_0002077846075979426940"><rect codeLine="7" fill="#F1F1F1" height="48" id="C_0002077846075979426940" rx="2.5" ry="2.5" style="stroke:#181818;stroke-width:0.5;" width="275.0928" x="483" y="152.2969"/><ellipse cx="498" cy="168.2969" fill="#ADD1B2" rx="11" ry="11" style="stroke:#181818;stroke-width:1;"/><path d="M500.9688,173.9375 Q500.3906,174.2344 499.75,174.375 Q499.1094,174.5313 498.4063,174.5313 Q495.9063,174.5313 494.5781,172.8906 Q493.2656,171.2344 493.2656,168.1094 Q493.2656,164.9844 494.5781,163.3281 Q495.9063,161.6719 498.4063,161.6719 Q499.1094,161.6719 499.75,161.8281 Q500.4063,161.9844 500.9688,162.2813 L500.9688,165 Q500.3438,164.4219 499.75,164.1563 Q499.1563,163.875 498.5313,163.875 Q497.1875,163.875 496.5,164.9531 Q495.8125,166.0156 495.8125,168.1094 Q495.8125,170.2031 496.5,171.2813 Q497.1875,172.3438 498.5313,172.3438 Q499.1563,172.3438 499.75,172.0781 Q500.3438,171.7969 500.9688,171.2188 L500.9688,173.9375 Z " fill="#000000"/><text fill="#000000" font-family="sans-serif" font-size="14" lengthAdjust="spacing" textLength="243.0928" x="512" y="173.1436">common::model::stylable_element</text><line style="stroke:#181818;stroke-width:0.5;" x1="484" x2="757.0928" y1="184.2969" y2="184.2969"/><line style="stroke:#181818;stroke-width:0.5;" x1="484" x2="757.0928" y1="192.2969" y2="192.2969"/></g></a><!--class C_0000895261582183440230--><a href="classclanguml_1_1common_1_1model_1_1source__location.html" target="_top" title="Base class of all diagram elements that have source location." xlink:actuate="onRequest" xlink:href="classclanguml_1_1common_1_1model_1_1source__location.html" xlink:show="new" xlink:title="Base class of all diagram elements that have source location." xlink:type="simple"><g id="elem_C_0000895261582183440230"><rect codeLine="11" fill="#F1F1F1" height="48" id="C_0000895261582183440230" rx="2.5" ry="2.5" style="stroke:#181818;stroke-width:0.5;" width="264.7842" x="333" y="44.2969"/><ellipse cx="348" cy="60.2969" fill="#ADD1B2" rx="11" ry="11" style="stroke:#181818;stroke-width:1;"/><path d="M350.9688,65.9375 Q350.3906,66.2344 349.75,66.375 Q349.1094,66.5313 348.4063,66.5313 Q345.9063,66.5313 344.5781,64.8906 Q343.2656,63.2344 343.2656,60.1094 Q343.2656,56.9844 344.5781,55.3281 Q345.9063,53.6719 348.4063,53.6719 Q349.1094,53.6719 349.75,53.8281 Q350.4063,53.9844 350.9688,54.2813 L350.9688,57 Q350.3438,56.4219 349.75,56.1563 Q349.1563,55.875 348.5313,55.875 Q347.1875,55.875 346.5,56.9531 Q345.8125,58.0156 345.8125,60.1094 Q345.8125,62.2031 346.5,63.2813 Q347.1875,64.3438 348.5313,64.3438 Q349.1563,64.3438 349.75,64.0781 Q350.3438,63.7969 350.9688,63.2188 L350.9688,65.9375 Z " fill="#000000"/><text fill="#000000" font-family="sans-serif" font-size="14" lengthAdjust="spacing" textLength="232.7842" x="362" y="65.1436">common::model::source_location</text><line style="stroke:#181818;stroke-width:0.5;" x1="334" x2="596.7842" y1="76.2969" y2="76.2969"/><line style="stroke:#181818;stroke-width:0.5;" x1="334" x2="596.7842" y1="84.2969" y2="84.2969"/></g></a><!--class C_0001073500714379115414--><a href="classclanguml_1_1common_1_1model_1_1diagram__element.html" target="_top" title="Base class for standalone diagram elements." xlink:actuate="onRequest" xlink:href="classclanguml_1_1common_1_1model_1_1diagram__element.html" xlink:show="new" xlink:title="Base class for standalone diagram elements." xlink:type="simple"><g id="elem_C_0001073500714379115414"><rect codeLine="15" fill="#F1F1F1" height="48" id="C_0001073500714379115414" rx="2.5" ry="2.5" style="stroke:#181818;stroke-width:0.5;" width="278.3809" x="169.5" y="152.2969"/><ellipse cx="184.5" cy="168.2969" fill="#ADD1B2" rx="11" ry="11" style="stroke:#181818;stroke-width:1;"/><path d="M187.4688,173.9375 Q186.8906,174.2344 186.25,174.375 Q185.6094,174.5313 184.9063,174.5313 Q182.4063,174.5313 181.0781,172.8906 Q179.7656,171.2344 179.7656,168.1094 Q179.7656,164.9844 181.0781,163.3281 Q182.4063,161.6719 184.9063,161.6719 Q185.6094,161.6719 186.25,161.8281 Q186.9063,161.9844 187.4688,162.2813 L187.4688,165 Q186.8438,164.4219 186.25,164.1563 Q185.6563,163.875 185.0313,163.875 Q183.6875,163.875 183,164.9531 Q182.3125,166.0156 182.3125,168.1094 Q182.3125,170.2031 183,171.2813 Q183.6875,172.3438 185.0313,172.3438 Q185.6563,172.3438 186.25,172.0781 Q186.8438,171.7969 187.4688,171.2188 L187.4688,173.9375 Z " fill="#000000"/><text fill="#000000" font-family="sans-serif" font-size="14" lengthAdjust="spacing" textLength="246.3809" x="198.5" y="173.1436">common::model::diagram_element</text><line style="stroke:#181818;stroke-width:0.5;" x1="170.5" x2="446.8809" y1="184.2969" y2="184.2969"/><line style="stroke:#181818;stroke-width:0.5;" x1="170.5" x2="446.8809" y1="192.2969" y2="192.2969"/></g></a><!--class C_0000785714713072053129--><a href="classclanguml_1_1common_1_1model_1_1source__file.html" target="_top" title="Diagram element representing some file or directory." xlink:actuate="onRequest" xlink:href="classclanguml_1_1common_1_1model_1_1source__file.html" xlink:show="new" xlink:title="Diagram element representing some file or directory." xlink:type="simple"><g id="elem_C_0000785714713072053129"><rect codeLine="19" fill="#F1F1F1" height="48" id="C_0000785714713072053129" rx="2.5" ry="2.5" style="stroke:#181818;stroke-width:0.5;" width="230.5566" x="349" y="260.2969"/><ellipse cx="364" cy="276.2969" fill="#ADD1B2" rx="11" ry="11" style="stroke:#181818;stroke-width:1;"/><path d="M366.9688,281.9375 Q366.3906,282.2344 365.75,282.375 Q365.1094,282.5313 364.4063,282.5313 Q361.9063,282.5313 360.5781,280.8906 Q359.2656,279.2344 359.2656,276.1094 Q359.2656,272.9844 360.5781,271.3281 Q361.9063,269.6719 364.4063,269.6719 Q365.1094,269.6719 365.75,269.8281 Q366.4063,269.9844 366.9688,270.2813 L366.9688,273 Q366.3438,272.4219 365.75,272.1563 Q365.1563,271.875 364.5313,271.875 Q363.1875,271.875 362.5,272.9531 Q361.8125,274.0156 361.8125,276.1094 Q361.8125,278.2031 362.5,279.2813 Q363.1875,280.3438 364.5313,280.3438 Q365.1563,280.3438 365.75,280.0781 Q366.3438,279.7969 366.9688,279.2188 L366.9688,281.9375 Z " fill="#000000"/><text fill="#000000" font-family="sans-serif" font-size="14" lengthAdjust="spacing" textLength="198.5566" x="378" y="281.1436">common::model::source_file</text><line style="stroke:#181818;stroke-width:0.5;" x1="350" x2="578.5566" y1="292.2969" y2="292.2969"/><line style="stroke:#181818;stroke-width:0.5;" x1="350" x2="578.5566" y1="300.2969" y2="300.2969"/></g></a><!--reverse link C_0001117102382624673118 to C_0001073500714379115414--><g id="link_C_0001117102382624673118_C_0001073500714379115414"><path codeLine="22" d="M201.2385,102.4128 C227.3185,120.1328 248.32,134.4069 274.45,152.1569 " fill="transparent" id="C_0001117102382624673118-backto-C_0001073500714379115414" style="stroke:#181818;stroke-width:1;"/><polygon fill="transparent" points="186.35,92.2969,197.8665,107.3757,204.6105,97.45,186.35,92.2969" style="stroke:#181818;stroke-width:1;"/></g><!--reverse link C_0000895261582183440230 to C_0001073500714379115414--><g id="link_C_0000895261582183440230_C_0001073500714379115414"><path codeLine="23" d="M416.5128,102.3705 C390.2728,120.0905 369.07,134.4069 342.77,152.1569 " fill="transparent" id="C_0000895261582183440230-backto-C_0001073500714379115414" style="stroke:#181818;stroke-width:1;"/><polygon fill="transparent" points="431.43,92.2969,413.155,97.3981,419.8707,107.3429,431.43,92.2969" style="stroke:#181818;stroke-width:1;"/></g><!--reverse link C_0001073500714379115414 to C_0000785714713072053129--><g id="link_C_0001073500714379115414_C_0000785714713072053129"><path codeLine="24" d="M357.2385,210.4128 C383.3185,228.1328 404.32,242.4069 430.45,260.1569 " fill="transparent" id="C_0001073500714379115414-backto-C_0000785714713072053129" style="stroke:#181818;stroke-width:1;"/><polygon fill="transparent" points="342.35,200.2969,353.8665,215.3757,360.6105,205.45,342.35,200.2969" style="stroke:#181818;stroke-width:1;"/></g><!--reverse link C_0002077846075979426940 to C_0000785714713072053129--><g id="link_C_0002077846075979426940_C_0000785714713072053129"><path codeLine="25" d="M571.7615,210.4128 C545.6815,228.1328 524.68,242.4069 498.55,260.1569 " fill="transparent" id="C_0002077846075979426940-backto-C_0000785714713072053129" style="stroke:#181818;stroke-width:1;"/><polygon fill="transparent" points="586.65,200.2969,568.3895,205.45,575.1335,215.3757,586.65,200.2969" style="stroke:#181818;stroke-width:1;"/></g><!--SRC=[bLHDRvmm4BtlhnZbabORaCSO3AkUsagzfAUglKGHye9tGJ9u1TwagpJvxJKVONSB9DiB6ZmVps_UZ4rkb8GVUbyb4ZQvjGkTIWM94dKDMIuhKINPOT7zNoMwA7IvMhL1grKg4rq98zDOAbd8qbo1gE5BJ0X1H8w4UY4DA0kuXnZsHURSS7VN1jXFkTqNAiOOExp6QX4RuuZv2kfcfb1FdqKj-sjlT0L36AIvs5QYW3wwVhw_XwT572-UPrZLvg34MianAKeu3rb0k1_nYD4WOkIKr8JxGb83v3cdh_zS7Oo6nonFCcWIB5rHmbg2sErKBbFtVMQjph7IYJ2vBe_4I1ZvD40_f1XwZ5bXpeXDk2ybrY4Ea2Ejz0Q4KYEHm6J2G2OU97GbOAZmBik-riHC4kxvX71a7eyGVORiR2R7xajdiaTySo9h8yfKA5tA4TkBbMisz4Gr7lhsjXmzmYdnFQJHcMfZzt-gri1DJY9KSbV9sbfvkRKA5VtZqInUNid4wEfmIcfsvp_zSPnvSMQ7xuAqAJMFQLEjcztXjzCMrzzaARktvZ4t6RJDTMntR-11LhMTMI0kSud3dMqeWZMB-EBwzlRNzy7zSxqlpRvB70unS8aRm8VbaZQSRUi8inPVycIzGK7z27tgu8lylSENrn0CA66XYyJ_-1S0]--></g></svg>