<svg xmlns="http://www.w3.org/2000/svg" xmlns:xlink="http://www.w3.org/1999/xlink" contentStyleType="text/css" data-diagram-type="CLASS" height="574px" preserveAspectRatio="none" style="width:1284px;height:574px;background:#FFFFFF;" version="1.1" viewBox="0 0 1284 574" width="1284px" zoomAndPan="magnify"><title>Stylable diagram element class hierarchy</title><defs/><g><text fill="#000000" font-family="sans-serif" font-size="14" font-weight="bold" lengthAdjust="spacing" textLength="327.8379" x="471.0811" y="22.9951">Stylable diagram element class hierarchy</text><!--cluster C_0000316605034920222648--><g id="cluster_C_0000316605034920222648"><path d="M8.5,43.2969 L76.1777,43.2969 A3.75,3.75 0 0 1 78.6777,45.7969 L85.6777,65.5938 L467.5,65.5938 A2.5,2.5 0 0 1 470,68.0938 L470,348.7969 A2.5,2.5 0 0 1 467.5,351.2969 L8.5,351.2969 A2.5,2.5 0 0 1 6,348.7969 L6,45.7969 A2.5,2.5 0 0 1 8.5,43.2969 " fill="transparent" style="stroke:#000000;stroke-width:1.5;"/><line style="stroke:#000000;stroke-width:1.5;" x1="6" x2="85.6777" y1="65.5938" y2="65.5938"/><text fill="#000000" font-family="sans-serif" font-size="14" font-weight="bold" lengthAdjust="spacing" textLength="66.6777" x="10" y="58.292">common</text></g><!--cluster C_0000083721806430512831--><g id="cluster_C_0000083721806430512831"><path d="M32.5,86.2969 L82.0215,86.2969 A3.75,3.75 0 0 1 84.5215,88.7969 L91.5215,108.5938 L443.5,108.5938 A2.5,2.5 0 0 1 446,111.0938 L446,324.7969 A2.5,2.5 0 0 1 443.5,327.2969 L32.5,327.2969 A2.5,2.5 0 0 1 30,324.7969 L30,88.7969 A2.5,2.5 0 0 1 32.5,86.2969 " fill="transparent" style="stroke:#000000;stroke-width:1.5;"/><line style="stroke:#000000;stroke-width:1.5;" x1="30" x2="91.5215" y1="108.5938" y2="108.5938"/><text fill="#000000" font-family="sans-serif" font-size="14" font-weight="bold" lengthAdjust="spacing" textLength="48.5215" x="34" y="101.292">model</text></g><!--cluster C_0002240167036201725606--><g id="cluster_C_0002240167036201725606"><path d="M496.5,185.2969 L608.9395,185.2969 A3.75,3.75 0 0 1 611.4395,187.7969 L618.4395,207.5938 L890.5,207.5938 A2.5,2.5 0 0 1 893,210.0938 L893,348.7969 A2.5,2.5 0 0 1 890.5,351.2969 L496.5,351.2969 A2.5,2.5 0 0 1 494,348.7969 L494,187.7969 A2.5,2.5 0 0 1 496.5,185.2969 " fill="transparent" style="stroke:#000000;stroke-width:1.5;"/><line style="stroke:#000000;stroke-width:1.5;" x1="494" x2="618.4395" y1="207.5938" y2="207.5938"/><text fill="#000000" font-family="sans-serif" font-size="14" font-weight="bold" lengthAdjust="spacing" textLength="111.4395" x="498" y="200.292">class_diagram</text></g><!--cluster C_0000897124234964432620--><g id="cluster_C_0000897124234964432620"><path d="M520.5,228.2969 L570.0215,228.2969 A3.75,3.75 0 0 1 572.5215,230.7969 L579.5215,250.5938 L866.5,250.5938 A2.5,2.5 0 0 1 869,253.0938 L869,324.7969 A2.5,2.5 0 0 1 866.5,327.2969 L520.5,327.2969 A2.5,2.5 0 0 1 518,324.7969 L518,230.7969 A2.5,2.5 0 0 1 520.5,228.2969 " fill="transparent" style="stroke:#000000;stroke-width:1.5;"/><line style="stroke:#000000;stroke-width:1.5;" x1="518" x2="579.5215" y1="250.5938" y2="250.5938"/><text fill="#000000" font-family="sans-serif" font-size="14" font-weight="bold" lengthAdjust="spacing" textLength="48.5215" x="522" y="243.292">model</text></g><!--cluster C_0001521862840957629236--><g id="cluster_C_0001521862840957629236"><path d="M919.5,185.2969 L1067.8008,185.2969 A3.75,3.75 0 0 1 1070.3008,187.7969 L1077.3008,207.5938 L1274.5,207.5938 A2.5,2.5 0 0 1 1277,210.0938 L1277,564.7969 A2.5,2.5 0 0 1 1274.5,567.2969 L919.5,567.2969 A2.5,2.5 0 0 1 917,564.7969 L917,187.7969 A2.5,2.5 0 0 1 919.5,185.2969 " fill="transparent" style="stroke:#000000;stroke-width:1.5;"/><line style="stroke:#000000;stroke-width:1.5;" x1="917" x2="1077.3008" y1="207.5938" y2="207.5938"/><text fill="#000000" font-family="sans-serif" font-size="14" font-weight="bold" lengthAdjust="spacing" textLength="147.3008" x="921" y="200.292">sequence_diagram</text></g><!--cluster C_0002206969880830639264--><g id="cluster_C_0002206969880830639264"><path d="M943.5,228.2969 L993.0215,228.2969 A3.75,3.75 0 0 1 995.5215,230.7969 L1002.5215,250.5938 L1250.5,250.5938 A2.5,2.5 0 0 1 1253,253.0938 L1253,540.7969 A2.5,2.5 0 0 1 1250.5,543.2969 L943.5,543.2969 A2.5,2.5 0 0 1 941,540.7969 L941,230.7969 A2.5,2.5 0 0 1 943.5,228.2969 " fill="transparent" style="stroke:#000000;stroke-width:1.5;"/><line style="stroke:#000000;stroke-width:1.5;" x1="941" x2="1002.5215" y1="250.5938" y2="250.5938"/><text fill="#000000" font-family="sans-serif" font-size="14" font-weight="bold" lengthAdjust="spacing" textLength="48.5215" x="945" y="243.292">model</text></g><!--class C_0002077846075979426940--><a href="classclanguml_1_1common_1_1model_1_1stylable__element.html" target="_top" title="Diagram elements to which style can be applied." xlink:actuate="onRequest" xlink:href="classclanguml_1_1common_1_1model_1_1stylable__element.html" xlink:show="new" xlink:title="Diagram elements to which style can be applied." xlink:type="simple"><g id="elem_C_0002077846075979426940"><rect codeLine="5" fill="#F1F1F1" height="48" id="C_0002077846075979426940" rx="2.5" ry="2.5" style="stroke:#181818;stroke-width:0.5;" width="151.6563" x="278" y="121.2969"/><ellipse cx="293" cy="137.2969" fill="#ADD1B2" rx="11" ry="11" style="stroke:#181818;stroke-width:1;"/><path d="M295.9688,142.9375 Q295.3906,143.2344 294.75,143.375 Q294.1094,143.5313 293.4063,143.5313 Q290.9063,143.5313 289.5781,141.8906 Q288.2656,140.2344 288.2656,137.1094 Q288.2656,133.9844 289.5781,132.3281 Q290.9063,130.6719 293.4063,130.6719 Q294.1094,130.6719 294.75,130.8281 Q295.4063,130.9844 295.9688,131.2813 L295.9688,134 Q295.3438,133.4219 294.75,133.1563 Q294.1563,132.875 293.5313,132.875 Q292.1875,132.875 291.5,133.9531 Q290.8125,135.0156 290.8125,137.1094 Q290.8125,139.2031 291.5,140.2813 Q292.1875,141.3438 293.5313,141.3438 Q294.1563,141.3438 294.75,141.0781 Q295.3438,140.7969 295.9688,140.2188 L295.9688,142.9375 Z " fill="#000000"/><text fill="#000000" font-family="sans-serif" font-size="14" lengthAdjust="spacing" textLength="119.6563" x="307" y="142.1436">stylable_element</text><line style="stroke:#181818;stroke-width:0.5;" x1="279" x2="428.6563" y1="153.2969" y2="153.2969"/><line style="stroke:#181818;stroke-width:0.5;" x1="279" x2="428.6563" y1="161.2969" y2="161.2969"/></g></a><!--class C_0002046336758797367926--><a href="classclanguml_1_1common_1_1model_1_1relationship.html" target="_top" title="Class representing any relationship other than inheritance" xlink:actuate="onRequest" xlink:href="classclanguml_1_1common_1_1model_1_1relationship.html" xlink:show="new" xlink:title="Class representing any relationship other than inheritance" xlink:type="simple"><g id="elem_C_0002046336758797367926"><rect codeLine="9" fill="#F1F1F1" height="48" id="C_0002046336758797367926" rx="2.5" ry="2.5" style="stroke:#181818;stroke-width:0.5;" width="114.5986" x="46.5" y="263.2969"/><ellipse cx="61.5" cy="279.2969" fill="#ADD1B2" rx="11" ry="11" style="stroke:#181818;stroke-width:1;"/><path d="M64.4688,284.9375 Q63.8906,285.2344 63.25,285.375 Q62.6094,285.5313 61.9063,285.5313 Q59.4063,285.5313 58.0781,283.8906 Q56.7656,282.2344 56.7656,279.1094 Q56.7656,275.9844 58.0781,274.3281 Q59.4063,272.6719 61.9063,272.6719 Q62.6094,272.6719 63.25,272.8281 Q63.9063,272.9844 64.4688,273.2813 L64.4688,276 Q63.8438,275.4219 63.25,275.1563 Q62.6563,274.875 62.0313,274.875 Q60.6875,274.875 60,275.9531 Q59.3125,277.0156 59.3125,279.1094 Q59.3125,281.2031 60,282.2813 Q60.6875,283.3438 62.0313,283.3438 Q62.6563,283.3438 63.25,283.0781 Q63.8438,282.7969 64.4688,282.2188 L64.4688,284.9375 Z " fill="#000000"/><text fill="#000000" font-family="sans-serif" font-size="14" lengthAdjust="spacing" textLength="82.5986" x="75.5" y="284.1436">relationship</text><line style="stroke:#181818;stroke-width:0.5;" x1="47.5" x2="160.0986" y1="295.2969" y2="295.2969"/><line style="stroke:#181818;stroke-width:0.5;" x1="47.5" x2="160.0986" y1="303.2969" y2="303.2969"/></g></a><!--class C_0000785714713072053129--><a href="classclanguml_1_1common_1_1model_1_1source__file.html" target="_top" title="Diagram element representing some file or directory." xlink:actuate="onRequest" xlink:href="classclanguml_1_1common_1_1model_1_1source__file.html" xlink:show="new" xlink:title="Diagram element representing some file or directory." xlink:type="simple"><g id="elem_C_0000785714713072053129"><rect codeLine="13" fill="#F1F1F1" height="48" id="C_0000785714713072053129" rx="2.5" ry="2.5" style="stroke:#181818;stroke-width:0.5;" width="107.1201" x="196.5" y="263.2969"/><ellipse cx="211.5" cy="279.2969" fill="#ADD1B2" rx="11" ry="11" style="stroke:#181818;stroke-width:1;"/><path d="M214.4688,284.9375 Q213.8906,285.2344 213.25,285.375 Q212.6094,285.5313 211.9063,285.5313 Q209.4063,285.5313 208.0781,283.8906 Q206.7656,282.2344 206.7656,279.1094 Q206.7656,275.9844 208.0781,274.3281 Q209.4063,272.6719 211.9063,272.6719 Q212.6094,272.6719 213.25,272.8281 Q213.9063,272.9844 214.4688,273.2813 L214.4688,276 Q213.8438,275.4219 213.25,275.1563 Q212.6563,274.875 212.0313,274.875 Q210.6875,274.875 210,275.9531 Q209.3125,277.0156 209.3125,279.1094 Q209.3125,281.2031 210,282.2813 Q210.6875,283.3438 212.0313,283.3438 Q212.6563,283.3438 213.25,283.0781 Q213.8438,282.7969 214.4688,282.2188 L214.4688,284.9375 Z " fill="#000000"/><text fill="#000000" font-family="sans-serif" font-size="14" lengthAdjust="spacing" textLength="75.1201" x="225.5" y="284.1436">source_file</text><line style="stroke:#181818;stroke-width:0.5;" x1="197.5" x2="302.6201" y1="295.2969" y2="295.2969"/><line style="stroke:#181818;stroke-width:0.5;" x1="197.5" x2="302.6201" y1="303.2969" y2="303.2969"/></g></a><!--class C_0002143286684830686854--><a href="classclanguml_1_1common_1_1model_1_1package.html" target="_top" title="Diagram element representing namespace or directory package" xlink:actuate="onRequest" xlink:href="classclanguml_1_1common_1_1model_1_1package.html" xlink:show="new" xlink:title="Diagram element representing namespace or directory package" xlink:type="simple"><g id="elem_C_0002143286684830686854"><rect codeLine="17" fill="#F1F1F1" height="48" id="C_0002143286684830686854" rx="2.5" ry="2.5" style="stroke:#181818;stroke-width:0.5;" width="91.3496" x="338.5" y="263.2969"/><ellipse cx="353.5" cy="279.2969" fill="#ADD1B2" rx="11" ry="11" style="stroke:#181818;stroke-width:1;"/><path d="M356.4688,284.9375 Q355.8906,285.2344 355.25,285.375 Q354.6094,285.5313 353.9063,285.5313 Q351.4063,285.5313 350.0781,283.8906 Q348.7656,282.2344 348.7656,279.1094 Q348.7656,275.9844 350.0781,274.3281 Q351.4063,272.6719 353.9063,272.6719 Q354.6094,272.6719 355.25,272.8281 Q355.9063,272.9844 356.4688,273.2813 L356.4688,276 Q355.8438,275.4219 355.25,275.1563 Q354.6563,274.875 354.0313,274.875 Q352.6875,274.875 352,275.9531 Q351.3125,277.0156 351.3125,279.1094 Q351.3125,281.2031 352,282.2813 Q352.6875,283.3438 354.0313,283.3438 Q354.6563,283.3438 355.25,283.0781 Q355.8438,282.7969 356.4688,282.2188 L356.4688,284.9375 Z " fill="#000000"/><text fill="#000000" font-family="sans-serif" font-size="14" lengthAdjust="spacing" textLength="59.3496" x="367.5" y="284.1436">package</text><line style="stroke:#181818;stroke-width:0.5;" x1="339.5" x2="428.8496" y1="295.2969" y2="295.2969"/><line style="stroke:#181818;stroke-width:0.5;" x1="339.5" x2="428.8496" y1="303.2969" y2="303.2969"/></g></a><!--class C_0001292034357466653182--><a href="classclanguml_1_1class__diagram_1_1model_1_1class__.html" target="_top" title="Diagram element representing a class or class template." xlink:actuate="onRequest" xlink:href="classclanguml_1_1class__diagram_1_1model_1_1class__.html" xlink:show="new" xlink:title="Diagram element representing a class or class template." xlink:type="simple"><g id="elem_C_0001292034357466653182"><rect codeLine="25" fill="#F1F1F1" height="48" id="C_0001292034357466653182" rx="2.5" ry="2.5" style="stroke:#181818;stroke-width:0.5;" width="73.7539" x="779" y="263.2969"/><ellipse cx="794" cy="279.2969" fill="#ADD1B2" rx="11" ry="11" style="stroke:#181818;stroke-width:1;"/><path d="M796.9688,284.9375 Q796.3906,285.2344 795.75,285.375 Q795.1094,285.5313 794.4063,285.5313 Q791.9063,285.5313 790.5781,283.8906 Q789.2656,282.2344 789.2656,279.1094 Q789.2656,275.9844 790.5781,274.3281 Q791.9063,272.6719 794.4063,272.6719 Q795.1094,272.6719 795.75,272.8281 Q796.4063,272.9844 796.9688,273.2813 L796.9688,276 Q796.3438,275.4219 795.75,275.1563 Q795.1563,274.875 794.5313,274.875 Q793.1875,274.875 792.5,275.9531 Q791.8125,277.0156 791.8125,279.1094 Q791.8125,281.2031 792.5,282.2813 Q793.1875,283.3438 794.5313,283.3438 Q795.1563,283.3438 795.75,283.0781 Q796.3438,282.7969 796.9688,282.2188 L796.9688,284.9375 Z " fill="#000000"/><text fill="#000000" font-family="sans-serif" font-size="14" lengthAdjust="spacing" textLength="41.7539" x="808" y="284.1436">class_</text><line style="stroke:#181818;stroke-width:0.5;" x1="780" x2="851.7539" y1="295.2969" y2="295.2969"/><line style="stroke:#181818;stroke-width:0.5;" x1="780" x2="851.7539" y1="303.2969" y2="303.2969"/></g></a><!--class C_0000724392977093650506--><a href="classclanguml_1_1class__diagram_1_1model_1_1enum__.html" target="_top" title="enum_" xlink:actuate="onRequest" xlink:href="classclanguml_1_1class__diagram_1_1model_1_1enum__.html" xlink:show="new" xlink:title="enum_" xlink:type="simple"><g id="elem_C_0000724392977093650506"><rect codeLine="29" fill="#F1F1F1" height="48" id="C_0000724392977093650506" rx="2.5" ry="2.5" style="stroke:#181818;stroke-width:0.5;" width="78.9971" x="664.5" y="263.2969"/><ellipse cx="679.5" cy="279.2969" fill="#ADD1B2" rx="11" ry="11" style="stroke:#181818;stroke-width:1;"/><path d="M682.4688,284.9375 Q681.8906,285.2344 681.25,285.375 Q680.6094,285.5313 679.9063,285.5313 Q677.4063,285.5313 676.0781,283.8906 Q674.7656,282.2344 674.7656,279.1094 Q674.7656,275.9844 676.0781,274.3281 Q677.4063,272.6719 679.9063,272.6719 Q680.6094,272.6719 681.25,272.8281 Q681.9063,272.9844 682.4688,273.2813 L682.4688,276 Q681.8438,275.4219 681.25,275.1563 Q680.6563,274.875 680.0313,274.875 Q678.6875,274.875 678,275.9531 Q677.3125,277.0156 677.3125,279.1094 Q677.3125,281.2031 678,282.2813 Q678.6875,283.3438 680.0313,283.3438 Q680.6563,283.3438 681.25,283.0781 Q681.8438,282.7969 682.4688,282.2188 L682.4688,284.9375 Z " fill="#000000"/><text fill="#000000" font-family="sans-serif" font-size="14" lengthAdjust="spacing" textLength="46.9971" x="693.5" y="284.1436">enum_</text><line style="stroke:#181818;stroke-width:0.5;" x1="665.5" x2="742.4971" y1="295.2969" y2="295.2969"/><line style="stroke:#181818;stroke-width:0.5;" x1="665.5" x2="742.4971" y1="303.2969" y2="303.2969"/></g></a><!--class C_0001374849051752224500--><a href="classclanguml_1_1class__diagram_1_1model_1_1concept__.html" target="_top" title="Model of C++ concept." xlink:actuate="onRequest" xlink:href="classclanguml_1_1class__diagram_1_1model_1_1concept__.html" xlink:show="new" xlink:title="Model of C++ concept." xlink:type="simple"><g id="elem_C_0001374849051752224500"><rect codeLine="33" fill="#F1F1F1" height="48" id="C_0001374849051752224500" rx="2.5" ry="2.5" style="stroke:#181818;stroke-width:0.5;" width="94.8223" x="534.5" y="263.2969"/><ellipse cx="549.5" cy="279.2969" fill="#ADD1B2" rx="11" ry="11" style="stroke:#181818;stroke-width:1;"/><path d="M552.4688,284.9375 Q551.8906,285.2344 551.25,285.375 Q550.6094,285.5313 549.9063,285.5313 Q547.4063,285.5313 546.0781,283.8906 Q544.7656,282.2344 544.7656,279.1094 Q544.7656,275.9844 546.0781,274.3281 Q547.4063,272.6719 549.9063,272.6719 Q550.6094,272.6719 551.25,272.8281 Q551.9063,272.9844 552.4688,273.2813 L552.4688,276 Q551.8438,275.4219 551.25,275.1563 Q550.6563,274.875 550.0313,274.875 Q548.6875,274.875 548,275.9531 Q547.3125,277.0156 547.3125,279.1094 Q547.3125,281.2031 548,282.2813 Q548.6875,283.3438 550.0313,283.3438 Q550.6563,283.3438 551.25,283.0781 Q551.8438,282.7969 552.4688,282.2188 L552.4688,284.9375 Z " fill="#000000"/><text fill="#000000" font-family="sans-serif" font-size="14" lengthAdjust="spacing" textLength="62.8223" x="563.5" y="284.1436">concept_</text><line style="stroke:#181818;stroke-width:0.5;" x1="535.5" x2="628.3223" y1="295.2969" y2="295.2969"/><line style="stroke:#181818;stroke-width:0.5;" x1="535.5" x2="628.3223" y1="303.2969" y2="303.2969"/></g></a><!--class C_0001400215772842495226--><a href="structclanguml_1_1sequence__diagram_1_1model_1_1participant.html" target="_top" title="Base class for various types of sequence diagram participants" xlink:actuate="onRequest" xlink:href="structclanguml_1_1sequence__diagram_1_1model_1_1participant.html" xlink:show="new" xlink:title="Base class for various types of sequence diagram participants" xlink:type="simple"><g id="elem_C_0001400215772842495226"><rect codeLine="41" fill="#F1F1F1" height="48" id="C_0001400215772842495226" rx="2.5" ry="2.5" style="stroke:#181818;stroke-width:0.5;" width="108.0156" x="957" y="263.2969"/><ellipse cx="972" cy="279.2969" fill="#ADD1B2" rx="11" ry="11" style="stroke:#181818;stroke-width:1;"/><path d="M974.9688,284.9375 Q974.3906,285.2344 973.75,285.375 Q973.1094,285.5313 972.4063,285.5313 Q969.9063,285.5313 968.5781,283.8906 Q967.2656,282.2344 967.2656,279.1094 Q967.2656,275.9844 968.5781,274.3281 Q969.9063,272.6719 972.4063,272.6719 Q973.1094,272.6719 973.75,272.8281 Q974.4063,272.9844 974.9688,273.2813 L974.9688,276 Q974.3438,275.4219 973.75,275.1563 Q973.1563,274.875 972.5313,274.875 Q971.1875,274.875 970.5,275.9531 Q969.8125,277.0156 969.8125,279.1094 Q969.8125,281.2031 970.5,282.2813 Q971.1875,283.3438 972.5313,283.3438 Q973.1563,283.3438 973.75,283.0781 Q974.3438,282.7969 974.9688,282.2188 L974.9688,284.9375 Z " fill="#000000"/><text fill="#000000" font-family="sans-serif" font-size="14" lengthAdjust="spacing" textLength="76.0156" x="986" y="284.1436">participant</text><line style="stroke:#181818;stroke-width:0.5;" x1="958" x2="1064.0156" y1="295.2969" y2="295.2969"/><line style="stroke:#181818;stroke-width:0.5;" x1="958" x2="1064.0156" y1="303.2969" y2="303.2969"/></g></a><!--class C_0000885514871619471610--><a href="structclanguml_1_1sequence__diagram_1_1model_1_1class__.html" target="_top" title="Sequence diagram participant representing a class." xlink:actuate="onRequest" xlink:href="structclanguml_1_1sequence__diagram_1_1model_1_1class__.html" xlink:show="new" xlink:title="Sequence diagram participant representing a class." xlink:type="simple"><g id="elem_C_0000885514871619471610"><rect codeLine="45" fill="#F1F1F1" height="48" id="C_0000885514871619471610" rx="2.5" ry="2.5" style="stroke:#181818;stroke-width:0.5;" width="73.7539" x="965" y="371.2969"/><ellipse cx="980" cy="387.2969" fill="#ADD1B2" rx="11" ry="11" style="stroke:#181818;stroke-width:1;"/><path d="M982.9688,392.9375 Q982.3906,393.2344 981.75,393.375 Q981.1094,393.5313 980.4063,393.5313 Q977.9063,393.5313 976.5781,391.8906 Q975.2656,390.2344 975.2656,387.1094 Q975.2656,383.9844 976.5781,382.3281 Q977.9063,380.6719 980.4063,380.6719 Q981.1094,380.6719 981.75,380.8281 Q982.4063,380.9844 982.9688,381.2813 L982.9688,384 Q982.3438,383.4219 981.75,383.1563 Q981.1563,382.875 980.5313,382.875 Q979.1875,382.875 978.5,383.9531 Q977.8125,385.0156 977.8125,387.1094 Q977.8125,389.2031 978.5,390.2813 Q979.1875,391.3438 980.5313,391.3438 Q981.1563,391.3438 981.75,391.0781 Q982.3438,390.7969 982.9688,390.2188 L982.9688,392.9375 Z " fill="#000000"/><text fill="#000000" font-family="sans-serif" font-size="14" lengthAdjust="spacing" textLength="41.7539" x="994" y="392.1436">class_</text><line style="stroke:#181818;stroke-width:0.5;" x1="966" x2="1037.7539" y1="403.2969" y2="403.2969"/><line style="stroke:#181818;stroke-width:0.5;" x1="966" x2="1037.7539" y1="411.2969" y2="411.2969"/></g></a><!--class C_0000232638456031681828--><a href="structclanguml_1_1sequence__diagram_1_1model_1_1function.html" target="_top" title="Participant mode representing a free function." xlink:actuate="onRequest" xlink:href="structclanguml_1_1sequence__diagram_1_1model_1_1function.html" xlink:show="new" xlink:title="Participant mode representing a free function." xlink:type="simple"><g id="elem_C_0000232638456031681828"><rect codeLine="49" fill="#F1F1F1" height="48" id="C_0000232638456031681828" rx="2.5" ry="2.5" style="stroke:#181818;stroke-width:0.5;" width="89.1895" x="1074.5" y="371.2969"/><ellipse cx="1089.5" cy="387.2969" fill="#ADD1B2" rx="11" ry="11" style="stroke:#181818;stroke-width:1;"/><path d="M1092.4688,392.9375 Q1091.8906,393.2344 1091.25,393.375 Q1090.6094,393.5313 1089.9063,393.5313 Q1087.4063,393.5313 1086.0781,391.8906 Q1084.7656,390.2344 1084.7656,387.1094 Q1084.7656,383.9844 1086.0781,382.3281 Q1087.4063,380.6719 1089.9063,380.6719 Q1090.6094,380.6719 1091.25,380.8281 Q1091.9063,380.9844 1092.4688,381.2813 L1092.4688,384 Q1091.8438,383.4219 1091.25,383.1563 Q1090.6563,382.875 1090.0313,382.875 Q1088.6875,382.875 1088,383.9531 Q1087.3125,385.0156 1087.3125,387.1094 Q1087.3125,389.2031 1088,390.2813 Q1088.6875,391.3438 1090.0313,391.3438 Q1090.6563,391.3438 1091.25,391.0781 Q1091.8438,390.7969 1092.4688,390.2188 L1092.4688,392.9375 Z " fill="#000000"/><text fill="#000000" font-family="sans-serif" font-size="14" lengthAdjust="spacing" textLength="57.1895" x="1103.5" y="392.1436">function</text><line style="stroke:#181818;stroke-width:0.5;" x1="1075.5" x2="1162.6895" y1="403.2969" y2="403.2969"/><line style="stroke:#181818;stroke-width:0.5;" x1="1075.5" x2="1162.6895" y1="411.2969" y2="411.2969"/></g></a><!--class C_0000817665972547784504--><a href="structclanguml_1_1sequence__diagram_1_1model_1_1method.html" target="_top" title="Participant model representing a method" xlink:actuate="onRequest" xlink:href="structclanguml_1_1sequence__diagram_1_1model_1_1method.html" xlink:show="new" xlink:title="Participant model representing a method" xlink:type="simple"><g id="elem_C_0000817665972547784504"><rect codeLine="53" fill="#F1F1F1" height="48" id="C_0000817665972547784504" rx="2.5" ry="2.5" style="stroke:#181818;stroke-width:0.5;" width="86.0654" x="957" y="479.2969"/><ellipse cx="972" cy="495.2969" fill="#ADD1B2" rx="11" ry="11" style="stroke:#181818;stroke-width:1;"/><path d="M974.9688,500.9375 Q974.3906,501.2344 973.75,501.375 Q973.1094,501.5313 972.4063,501.5313 Q969.9063,501.5313 968.5781,499.8906 Q967.2656,498.2344 967.2656,495.1094 Q967.2656,491.9844 968.5781,490.3281 Q969.9063,488.6719 972.4063,488.6719 Q973.1094,488.6719 973.75,488.8281 Q974.4063,488.9844 974.9688,489.2813 L974.9688,492 Q974.3438,491.4219 973.75,491.1563 Q973.1563,490.875 972.5313,490.875 Q971.1875,490.875 970.5,491.9531 Q969.8125,493.0156 969.8125,495.1094 Q969.8125,497.2031 970.5,498.2813 Q971.1875,499.3438 972.5313,499.3438 Q973.1563,499.3438 973.75,499.0781 Q974.3438,498.7969 974.9688,498.2188 L974.9688,500.9375 Z " fill="#000000"/><text fill="#000000" font-family="sans-serif" font-size="14" lengthAdjust="spacing" textLength="54.0654" x="986" y="500.1436">method</text><line style="stroke:#181818;stroke-width:0.5;" x1="958" x2="1042.0654" y1="511.2969" y2="511.2969"/><line style="stroke:#181818;stroke-width:0.5;" x1="958" x2="1042.0654" y1="519.2969" y2="519.2969"/></g></a><!--class C_0002280191967493310558--><a href="structclanguml_1_1sequence__diagram_1_1model_1_1function__template.html" target="_top" title="Participant model representing a function template." xlink:actuate="onRequest" xlink:href="structclanguml_1_1sequence__diagram_1_1model_1_1function__template.html" xlink:show="new" xlink:title="Participant model representing a function template." xlink:type="simple"><g id="elem_C_0002280191967493310558"><rect codeLine="57" fill="#F1F1F1" height="48" id="C_0002280191967493310558" rx="2.5" ry="2.5" style="stroke:#181818;stroke-width:0.5;" width="159.3877" x="1078.5" y="479.2969"/><ellipse cx="1093.5" cy="495.2969" fill="#ADD1B2" rx="11" ry="11" style="stroke:#181818;stroke-width:1;"/><path d="M1096.4688,500.9375 Q1095.8906,501.2344 1095.25,501.375 Q1094.6094,501.5313 1093.9063,501.5313 Q1091.4063,501.5313 1090.0781,499.8906 Q1088.7656,498.2344 1088.7656,495.1094 Q1088.7656,491.9844 1090.0781,490.3281 Q1091.4063,488.6719 1093.9063,488.6719 Q1094.6094,488.6719 1095.25,488.8281 Q1095.9063,488.9844 1096.4688,489.2813 L1096.4688,492 Q1095.8438,491.4219 1095.25,491.1563 Q1094.6563,490.875 1094.0313,490.875 Q1092.6875,490.875 1092,491.9531 Q1091.3125,493.0156 1091.3125,495.1094 Q1091.3125,497.2031 1092,498.2813 Q1092.6875,499.3438 1094.0313,499.3438 Q1094.6563,499.3438 1095.25,499.0781 Q1095.8438,498.7969 1096.4688,498.2188 L1096.4688,500.9375 Z " fill="#000000"/><text fill="#000000" font-family="sans-serif" font-size="14" lengthAdjust="spacing" textLength="127.3877" x="1107.5" y="500.1436">function_template</text><line style="stroke:#181818;stroke-width:0.5;" x1="1079.5" x2="1236.8877" y1="511.2969" y2="511.2969"/><line style="stroke:#181818;stroke-width:0.5;" x1="1079.5" x2="1236.8877" y1="519.2969" y2="519.2969"/></g></a><!--reverse link C_0002077846075979426940 to C_0002046336758797367926--><g id="link_C_0002077846075979426940_C_0002046336758797367926"><path codeLine="62" d="M259.7091,156.279 C220.4891,161.359 195.41,166.7369 179,177.2969 C146.93,197.9269 124.92,237.6369 113.4,263.0069 " fill="transparent" id="C_0002077846075979426940-backto-C_0002046336758797367926" style="stroke:#181818;stroke-width:1;"/><polygon fill="transparent" points="277.56,153.9669,258.9384,150.3287,260.4798,162.2293,277.56,153.9669" style="stroke:#181818;stroke-width:1;"/></g><!--reverse link C_0002077846075979426940 to C_0000785714713072053129--><g id="link_C_0002077846075979426940_C_0000785714713072053129"><path codeLine="63" d="M315.6083,182.3086 C292.5583,209.8386 276.14,240.2069 262.93,263.0669 " fill="transparent" id="C_0002077846075979426940-backto-C_0000785714713072053129" style="stroke:#181818;stroke-width:1;"/><polygon fill="transparent" points="328.16,169.4069,311.3077,178.1247,319.9089,186.4925,328.16,169.4069" style="stroke:#181818;stroke-width:1;"/></g><!--reverse link C_0002077846075979426940 to C_0002143286684830686854--><g id="link_C_0002077846075979426940_C_0002143286684830686854"><path codeLine="64" d="M362.7225,187.0171 C368.2825,212.9571 373.48,237.1869 379.04,263.1469 " fill="transparent" id="C_0002077846075979426940-backto-C_0002143286684830686854" style="stroke:#181818;stroke-width:1;"/><polygon fill="transparent" points="358.95,169.4169,356.8557,188.2746,368.5892,185.7596,358.95,169.4169" style="stroke:#181818;stroke-width:1;"/></g><!--reverse link C_0002077846075979426940 to C_0001292034357466653182--><g id="link_C_0002077846075979426940_C_0001292034357466653182"><path codeLine="65" d="M448.0924,148.6092 C558.3224,151.8092 734.24,159.3869 761,177.2969 C790.42,196.9869 804.86,237.3669 811.35,263.0769 " fill="transparent" id="C_0002077846075979426940-backto-C_0001292034357466653182" style="stroke:#181818;stroke-width:1;"/><polygon fill="transparent" points="430.1,148.0869,447.9183,154.6067,448.2665,142.6117,430.1,148.0869" style="stroke:#181818;stroke-width:1;"/></g><!--reverse link C_0002077846075979426940 to C_0000724392977093650506--><g id="link_C_0002077846075979426940_C_0000724392977093650506"><path codeLine="66" d="M448.3366,146.7056 C523.1666,148.1556 612.84,154.0669 647,177.2969 C676.49,197.3469 691.76,237.6269 698.82,263.2069 " fill="transparent" id="C_0002077846075979426940-backto-C_0000724392977093650506" style="stroke:#181818;stroke-width:1;"/><polygon fill="transparent" points="430.34,146.3569,448.2204,152.7045,448.4529,140.7067,430.34,146.3569" style="stroke:#181818;stroke-width:1;"/></g><!--reverse link C_0002077846075979426940 to C_0001374849051752224500--><g id="link_C_0002077846075979426940_C_0001374849051752224500"><path codeLine="67" d="M446.2416,176.5769 C451.8416,179.0169 440.82,174.4669 446,177.2969 C489.28,200.9569 532.58,238.6769 558.33,262.9569 " fill="transparent" id="C_0002077846075979426940-backto-C_0001374849051752224500" style="stroke:#181818;stroke-width:1;"/><polygon fill="transparent" points="429.74,169.3869,443.845,182.0774,448.6383,171.0763,429.74,169.3869" style="stroke:#181818;stroke-width:1;"/></g><!--reverse link C_0002077846075979426940 to C_0001400215772842495226--><g id="link_C_0002077846075979426940_C_0001400215772842495226"><path codeLine="68" d="M448.4599,145.3798 C571.8199,144.9198 790.86,148.1169 869,177.2969 C917.91,195.5669 963.78,236.7969 989.54,262.9869 " fill="transparent" id="C_0002077846075979426940-backto-C_0001400215772842495226" style="stroke:#181818;stroke-width:1;"/><polygon fill="transparent" points="430.46,145.4469,448.4822,151.3797,448.4375,139.3798,430.46,145.4469" style="stroke:#181818;stroke-width:1;"/></g><!--reverse link C_0001400215772842495226 to C_0000885514871619471610--><g id="link_C_0001400215772842495226_C_0000885514871619471610"><path codeLine="69" d="M1007.5266,329.2323 C1006.0266,346.8923 1005.49,353.2369 1003.98,370.9769 " fill="transparent" id="C_0001400215772842495226-backto-C_0000885514871619471610" style="stroke:#181818;stroke-width:1;"/><polygon fill="transparent" points="1009.05,311.2969,1001.5481,328.7245,1013.5051,329.7401,1009.05,311.2969" style="stroke:#181818;stroke-width:1;"/></g><!--reverse link C_0001400215772842495226 to C_0000232638456031681828--><g id="link_C_0001400215772842495226_C_0000232638456031681828"><path codeLine="70" d="M1047.2787,323.9029 C1065.2787,341.5629 1077.17,353.2369 1095.24,370.9769 " fill="transparent" id="C_0001400215772842495226-backto-C_0000232638456031681828" style="stroke:#181818;stroke-width:1;"/><polygon fill="transparent" points="1034.43,311.2969,1043.0767,328.1858,1051.4807,319.62,1034.43,311.2969" style="stroke:#181818;stroke-width:1;"/></g><!--reverse link C_0000232638456031681828 to C_0000817665972547784504--><g id="link_C_0000232638456031681828_C_0000817665972547784504"><path codeLine="71" d="M1079.7409,431.2714 C1059.9209,448.9314 1046.09,461.2369 1026.18,478.9769 " fill="transparent" id="C_0000232638456031681828-backto-C_0000817665972547784504" style="stroke:#181818;stroke-width:1;"/><polygon fill="transparent" points="1093.18,419.2969,1075.7493,426.7917,1083.7324,435.7511,1093.18,419.2969" style="stroke:#181818;stroke-width:1;"/></g><!--reverse link C_0000232638456031681828 to C_0002280191967493310558--><g id="link_C_0000232638456031681828_C_0002280191967493310558"><path codeLine="72" d="M1133.6774,436.189 C1140.1774,453.849 1142.89,461.2369 1149.42,478.9769 " fill="transparent" id="C_0000232638456031681828-backto-C_0002280191967493310558" style="stroke:#181818;stroke-width:1;"/><polygon fill="transparent" points="1127.46,419.2969,1128.0467,438.2615,1139.3081,434.1166,1127.46,419.2969" style="stroke:#181818;stroke-width:1;"/></g><!--SRC=[fLTBZzis4Bxlho1oIOkj3RuVG4xT0hqaG86WlImM0YtJbX2zAj59ZJJvxHrPiasjw8MojG6PqCnmvfl7Hzhdld3eepyMTWEBRMxthIsHArpfAe_ImdOTodBNsZRDZdUDJJ_PlKEFQLsMTVM4R8SU4WmVHgJ40ZDkAAQKIgxHrwjwMMzT4MXZpHGb6alEi21KCmBQWxCttHXCCWRnvc96iLAQIwo4KOPJQJWUZMw9qUFZIG4UrVvG5Wb9o11wlpf5rIykBiy-rvalYw-_JRFH8L-ZBrcUPgWtS2Yr5TeuP9kcoDrs_Utf2L0aoTstCvJM5TRdTTLbUHF2u98ngOHMHi6leN8AOoPU22DqDo1uE6tRkgPr7I38gpsorH65YgZscMkHpm1CNi4ozxPAtHnCLn_Qr2Mxl71NB5XfeGXNX655iM24cX1BHBoq98EtaxjeDQQekhfqgDT5TGjTtBhKr-qnKfAn9ODg4Cwebb9ppR3KKWi-gSPSl131w6b1y9KjNGVgq-3Hk460eVzUHx2F8HadzZfRb79CfC9CKamK5HBBboPH6qKefp2taWDICBfEuk3XcYge7eK9Pq9nAILKKzCmLH5nD5MdNS-1Jr8sYXQap8xK10aR5jwL3JIrYvJSLOSo2LkMScQeKGeR9WMGbfosx4pyWoXE_aOGf_KyfBI64Mjyc5kckEO6s509u4yky8JR8k8VpUteSWpiG_yUrJlqS7-FHjdwLgjrxk-30vLvjn41D2wfvjW89Q41s4lTHYcMHXgjSJzCa6N9hztMsDRdQTxOaF89xqTGA0KkA3U0VLAiY1ZIqldsaFemBnS0qTG4deVa_6exD_RL3Zhiistp-W0zTcnSr-VilDtbl0nsw2BLVZP7M6iX2DUAI69u_vpKEY9-1QZ9B7ry8U3eO4N6Q7UeqlxG271G80ocEN0C7FyQvbrFSCp5hy1nTZi0-IE8krTv7lokTN0Ed4tc84hditeRbe8eu2e3HCdxsuF0V5gAcVWL40QdSG35SmI3yktq9sUc2uumgZ4nn4Z53MC42p6fGqJyF-gGN09O2EXi6ANe_dlpylRktzNgzfLfWLdiThB4M-HAiC0iTZmk2d9-7Ytn5ZambfX52FKcbGP1HYXhYLc48MvoG-XjFfKBp69pSFVsTrV1tnVljkXBxZDqwlWLjFmlwBDhkxunyPglyKgjzjhA3JVgxktxztzzk8Z_t1mgVnWCBo-9NEErH3_TtyF_7MWlWZ67bRfNwMP7B1K6ZiOL-Ux-QSZtimg1wnNNQuZiv_y0]--></g></svg>