<svg xmlns="http://www.w3.org/2000/svg" xmlns:xlink="http://www.w3.org/1999/xlink" contentStyleType="text/css" data-diagram-type="CLASS" height="574px" preserveAspectRatio="none" style="width:1606px;height:574px;background:#FFFFFF;" version="1.1" viewBox="0 0 1606 574" width="1606px" zoomAndPan="magnify"><title>Stylable diagram element class hierarchy</title><defs/><g><text fill="#000000" font-family="sans-serif" font-size="14" font-weight="bold" lengthAdjust="spacing" textLength="327.8379" x="632.0811" y="22.9951">Stylable diagram element class hierarchy</text><!--cluster C_0002532840279361781187--><g id="cluster_C_0002532840279361781187"><path d="M8.5,43.2969 L76.1777,43.2969 A3.75,3.75 0 0 1 78.6777,45.7969 L85.6777,65.5938 L467.5,65.5938 A2.5,2.5 0 0 1 470,68.0938 L470,348.7969 A2.5,2.5 0 0 1 467.5,351.2969 L8.5,351.2969 A2.5,2.5 0 0 1 6,348.7969 L6,45.7969 A2.5,2.5 0 0 1 8.5,43.2969 " fill="transparent" style="stroke:#000000;stroke-width:1.5;"/><line style="stroke:#000000;stroke-width:1.5;" x1="6" x2="85.6777" y1="65.5938" y2="65.5938"/><text fill="#000000" font-family="sans-serif" font-size="14" font-weight="bold" lengthAdjust="spacing" textLength="66.6777" x="10" y="58.292">common</text></g><!--cluster C_0000669774451444102653--><g id="cluster_C_0000669774451444102653"><path d="M32.5,86.2969 L82.0215,86.2969 A3.75,3.75 0 0 1 84.5215,88.7969 L91.5215,108.5938 L443.5,108.5938 A2.5,2.5 0 0 1 446,111.0938 L446,324.7969 A2.5,2.5 0 0 1 443.5,327.2969 L32.5,327.2969 A2.5,2.5 0 0 1 30,324.7969 L30,88.7969 A2.5,2.5 0 0 1 32.5,86.2969 " fill="transparent" style="stroke:#000000;stroke-width:1.5;"/><line style="stroke:#000000;stroke-width:1.5;" x1="30" x2="91.5215" y1="108.5938" y2="108.5938"/><text fill="#000000" font-family="sans-serif" font-size="14" font-weight="bold" lengthAdjust="spacing" textLength="48.5215" x="34" y="101.292">model</text></g><!--cluster C_0017921336289613804855--><g id="cluster_C_0017921336289613804855"><path d="M496.5,185.2969 L608.9395,185.2969 A3.75,3.75 0 0 1 611.4395,187.7969 L618.4395,207.5938 L1055.5,207.5938 A2.5,2.5 0 0 1 1058,210.0938 L1058,348.7969 A2.5,2.5 0 0 1 1055.5,351.2969 L496.5,351.2969 A2.5,2.5 0 0 1 494,348.7969 L494,187.7969 A2.5,2.5 0 0 1 496.5,185.2969 " fill="transparent" style="stroke:#000000;stroke-width:1.5;"/><line style="stroke:#000000;stroke-width:1.5;" x1="494" x2="618.4395" y1="207.5938" y2="207.5938"/><text fill="#000000" font-family="sans-serif" font-size="14" font-weight="bold" lengthAdjust="spacing" textLength="111.4395" x="498" y="200.292">class_diagram</text></g><!--cluster C_0007176993879715460962--><g id="cluster_C_0007176993879715460962"><path d="M520.5,228.2969 L570.0215,228.2969 A3.75,3.75 0 0 1 572.5215,230.7969 L579.5215,250.5938 L1031.5,250.5938 A2.5,2.5 0 0 1 1034,253.0938 L1034,324.7969 A2.5,2.5 0 0 1 1031.5,327.2969 L520.5,327.2969 A2.5,2.5 0 0 1 518,324.7969 L518,230.7969 A2.5,2.5 0 0 1 520.5,228.2969 " fill="transparent" style="stroke:#000000;stroke-width:1.5;"/><line style="stroke:#000000;stroke-width:1.5;" x1="518" x2="579.5215" y1="250.5938" y2="250.5938"/><text fill="#000000" font-family="sans-serif" font-size="14" font-weight="bold" lengthAdjust="spacing" textLength="48.5215" x="522" y="243.292">model</text></g><!--cluster C_0012174902727661033893--><g id="cluster_C_0012174902727661033893"><path d="M1084.5,185.2969 L1232.8008,185.2969 A3.75,3.75 0 0 1 1235.3008,187.7969 L1242.3008,207.5938 L1596.5,207.5938 A2.5,2.5 0 0 1 1599,210.0938 L1599,564.7969 A2.5,2.5 0 0 1 1596.5,567.2969 L1084.5,567.2969 A2.5,2.5 0 0 1 1082,564.7969 L1082,187.7969 A2.5,2.5 0 0 1 1084.5,185.2969 " fill="transparent" style="stroke:#000000;stroke-width:1.5;"/><line style="stroke:#000000;stroke-width:1.5;" x1="1082" x2="1242.3008" y1="207.5938" y2="207.5938"/><text fill="#000000" font-family="sans-serif" font-size="14" font-weight="bold" lengthAdjust="spacing" textLength="147.3008" x="1086" y="200.292">sequence_diagram</text></g><!--cluster C_0017655759046645114118--><g id="cluster_C_0017655759046645114118"><path d="M1108.5,228.2969 L1158.0215,228.2969 A3.75,3.75 0 0 1 1160.5215,230.7969 L1167.5215,250.5938 L1572.5,250.5938 A2.5,2.5 0 0 1 1575,253.0938 L1575,540.7969 A2.5,2.5 0 0 1 1572.5,543.2969 L1108.5,543.2969 A2.5,2.5 0 0 1 1106,540.7969 L1106,230.7969 A2.5,2.5 0 0 1 1108.5,228.2969 " fill="transparent" style="stroke:#000000;stroke-width:1.5;"/><line style="stroke:#000000;stroke-width:1.5;" x1="1106" x2="1167.5215" y1="250.5938" y2="250.5938"/><text fill="#000000" font-family="sans-serif" font-size="14" font-weight="bold" lengthAdjust="spacing" textLength="48.5215" x="1110" y="243.292">model</text></g><!--class C_0016622768607835415521--><a href="classclanguml_1_1common_1_1model_1_1stylable__element.html" target="_top" title="Diagram elements to which style can be applied." xlink:actuate="onRequest" xlink:href="classclanguml_1_1common_1_1model_1_1stylable__element.html" xlink:show="new" xlink:title="Diagram elements to which style can be applied." xlink:type="simple"><g id="elem_C_0016622768607835415521"><rect codeLine="5" fill="#F1F1F1" height="48" id="C_0016622768607835415521" rx="2.5" ry="2.5" style="stroke:#181818;stroke-width:0.5;" width="151.6563" x="278" y="121.2969"/><ellipse cx="293" cy="137.2969" fill="#ADD1B2" rx="11" ry="11" style="stroke:#181818;stroke-width:1;"/><path d="M295.9688,142.9375 Q295.3906,143.2344 294.75,143.375 Q294.1094,143.5313 293.4063,143.5313 Q290.9063,143.5313 289.5781,141.8906 Q288.2656,140.2344 288.2656,137.1094 Q288.2656,133.9844 289.5781,132.3281 Q290.9063,130.6719 293.4063,130.6719 Q294.1094,130.6719 294.75,130.8281 Q295.4063,130.9844 295.9688,131.2813 L295.9688,134 Q295.3438,133.4219 294.75,133.1563 Q294.1563,132.875 293.5313,132.875 Q292.1875,132.875 291.5,133.9531 Q290.8125,135.0156 290.8125,137.1094 Q290.8125,139.2031 291.5,140.2813 Q292.1875,141.3438 293.5313,141.3438 Q294.1563,141.3438 294.75,141.0781 Q295.3438,140.7969 295.9688,140.2188 L295.9688,142.9375 Z " fill="#000000"/><text fill="#000000" font-family="sans-serif" font-size="14" lengthAdjust="spacing" textLength="119.6563" x="307" y="142.1436">stylable_element</text><line style="stroke:#181818;stroke-width:0.5;" x1="279" x2="428.6563" y1="153.2969" y2="153.2969"/><line style="stroke:#181818;stroke-width:0.5;" x1="279" x2="428.6563" y1="161.2969" y2="161.2969"/></g></a><!--class C_0016370694070378943411--><a href="classclanguml_1_1common_1_1model_1_1relationship.html" target="_top" title="Class representing any relationship other than inheritance" xlink:actuate="onRequest" xlink:href="classclanguml_1_1common_1_1model_1_1relationship.html" xlink:show="new" xlink:title="Class representing any relationship other than inheritance" xlink:type="simple"><g id="elem_C_0016370694070378943411"><rect codeLine="9" fill="#F1F1F1" height="48" id="C_0016370694070378943411" rx="2.5" ry="2.5" style="stroke:#181818;stroke-width:0.5;" width="114.5986" x="46.5" y="263.2969"/><ellipse cx="61.5" cy="279.2969" fill="#ADD1B2" rx="11" ry="11" style="stroke:#181818;stroke-width:1;"/><path d="M64.4688,284.9375 Q63.8906,285.2344 63.25,285.375 Q62.6094,285.5313 61.9063,285.5313 Q59.4063,285.5313 58.0781,283.8906 Q56.7656,282.2344 56.7656,279.1094 Q56.7656,275.9844 58.0781,274.3281 Q59.4063,272.6719 61.9063,272.6719 Q62.6094,272.6719 63.25,272.8281 Q63.9063,272.9844 64.4688,273.2813 L64.4688,276 Q63.8438,275.4219 63.25,275.1563 Q62.6563,274.875 62.0313,274.875 Q60.6875,274.875 60,275.9531 Q59.3125,277.0156 59.3125,279.1094 Q59.3125,281.2031 60,282.2813 Q60.6875,283.3438 62.0313,283.3438 Q62.6563,283.3438 63.25,283.0781 Q63.8438,282.7969 64.4688,282.2188 L64.4688,284.9375 Z " fill="#000000"/><text fill="#000000" font-family="sans-serif" font-size="14" lengthAdjust="spacing" textLength="82.5986" x="75.5" y="284.1436">relationship</text><line style="stroke:#181818;stroke-width:0.5;" x1="47.5" x2="160.0986" y1="295.2969" y2="295.2969"/><line style="stroke:#181818;stroke-width:0.5;" x1="47.5" x2="160.0986" y1="303.2969" y2="303.2969"/></g></a><!--class C_0006285717704576425038--><a href="classclanguml_1_1common_1_1model_1_1source__file.html" target="_top" title="Diagram element representing some file or directory." xlink:actuate="onRequest" xlink:href="classclanguml_1_1common_1_1model_1_1source__file.html" xlink:show="new" xlink:title="Diagram element representing some file or directory." xlink:type="simple"><g id="elem_C_0006285717704576425038"><rect codeLine="13" fill="#F1F1F1" height="48" id="C_0006285717704576425038" rx="2.5" ry="2.5" style="stroke:#181818;stroke-width:0.5;" width="107.1201" x="196.5" y="263.2969"/><ellipse cx="211.5" cy="279.2969" fill="#ADD1B2" rx="11" ry="11" style="stroke:#181818;stroke-width:1;"/><path d="M214.4688,284.9375 Q213.8906,285.2344 213.25,285.375 Q212.6094,285.5313 211.9063,285.5313 Q209.4063,285.5313 208.0781,283.8906 Q206.7656,282.2344 206.7656,279.1094 Q206.7656,275.9844 208.0781,274.3281 Q209.4063,272.6719 211.9063,272.6719 Q212.6094,272.6719 213.25,272.8281 Q213.9063,272.9844 214.4688,273.2813 L214.4688,276 Q213.8438,275.4219 213.25,275.1563 Q212.6563,274.875 212.0313,274.875 Q210.6875,274.875 210,275.9531 Q209.3125,277.0156 209.3125,279.1094 Q209.3125,281.2031 210,282.2813 Q210.6875,283.3438 212.0313,283.3438 Q212.6563,283.3438 213.25,283.0781 Q213.8438,282.7969 214.4688,282.2188 L214.4688,284.9375 Z " fill="#000000"/><text fill="#000000" font-family="sans-serif" font-size="14" lengthAdjust="spacing" textLength="75.1201" x="225.5" y="284.1436">source_file</text><line style="stroke:#181818;stroke-width:0.5;" x1="197.5" x2="302.6201" y1="295.2969" y2="295.2969"/><line style="stroke:#181818;stroke-width:0.5;" x1="197.5" x2="302.6201" y1="303.2969" y2="303.2969"/></g></a><!--class C_0017146293478645494837--><a href="classclanguml_1_1common_1_1model_1_1package.html" target="_top" title="Diagram element representing namespace or directory package" xlink:actuate="onRequest" xlink:href="classclanguml_1_1common_1_1model_1_1package.html" xlink:show="new" xlink:title="Diagram element representing namespace or directory package" xlink:type="simple"><g id="elem_C_0017146293478645494837"><rect codeLine="17" fill="#F1F1F1" height="48" id="C_0017146293478645494837" rx="2.5" ry="2.5" style="stroke:#181818;stroke-width:0.5;" width="91.3496" x="338.5" y="263.2969"/><ellipse cx="353.5" cy="279.2969" fill="#ADD1B2" rx="11" ry="11" style="stroke:#181818;stroke-width:1;"/><path d="M356.4688,284.9375 Q355.8906,285.2344 355.25,285.375 Q354.6094,285.5313 353.9063,285.5313 Q351.4063,285.5313 350.0781,283.8906 Q348.7656,282.2344 348.7656,279.1094 Q348.7656,275.9844 350.0781,274.3281 Q351.4063,272.6719 353.9063,272.6719 Q354.6094,272.6719 355.25,272.8281 Q355.9063,272.9844 356.4688,273.2813 L356.4688,276 Q355.8438,275.4219 355.25,275.1563 Q354.6563,274.875 354.0313,274.875 Q352.6875,274.875 352,275.9531 Q351.3125,277.0156 351.3125,279.1094 Q351.3125,281.2031 352,282.2813 Q352.6875,283.3438 354.0313,283.3438 Q354.6563,283.3438 355.25,283.0781 Q355.8438,282.7969 356.4688,282.2188 L356.4688,284.9375 Z " fill="#000000"/><text fill="#000000" font-family="sans-serif" font-size="14" lengthAdjust="spacing" textLength="59.3496" x="367.5" y="284.1436">package</text><line style="stroke:#181818;stroke-width:0.5;" x1="339.5" x2="428.8496" y1="295.2969" y2="295.2969"/><line style="stroke:#181818;stroke-width:0.5;" x1="339.5" x2="428.8496" y1="303.2969" y2="303.2969"/></g></a><!--class C_0010336274859733225462--><a href="classclanguml_1_1class__diagram_1_1model_1_1class__.html" target="_top" title="Diagram element representing a class or class template." xlink:actuate="onRequest" xlink:href="classclanguml_1_1class__diagram_1_1model_1_1class__.html" xlink:show="new" xlink:title="Diagram element representing a class or class template." xlink:type="simple"><g id="elem_C_0010336274859733225462"><rect codeLine="25" fill="#F1F1F1" height="48" id="C_0010336274859733225462" rx="2.5" ry="2.5" style="stroke:#181818;stroke-width:0.5;" width="73.7539" x="944" y="263.2969"/><ellipse cx="959" cy="279.2969" fill="#ADD1B2" rx="11" ry="11" style="stroke:#181818;stroke-width:1;"/><path d="M961.9688,284.9375 Q961.3906,285.2344 960.75,285.375 Q960.1094,285.5313 959.4063,285.5313 Q956.9063,285.5313 955.5781,283.8906 Q954.2656,282.2344 954.2656,279.1094 Q954.2656,275.9844 955.5781,274.3281 Q956.9063,272.6719 959.4063,272.6719 Q960.1094,272.6719 960.75,272.8281 Q961.4063,272.9844 961.9688,273.2813 L961.9688,276 Q961.3438,275.4219 960.75,275.1563 Q960.1563,274.875 959.5313,274.875 Q958.1875,274.875 957.5,275.9531 Q956.8125,277.0156 956.8125,279.1094 Q956.8125,281.2031 957.5,282.2813 Q958.1875,283.3438 959.5313,283.3438 Q960.1563,283.3438 960.75,283.0781 Q961.3438,282.7969 961.9688,282.2188 L961.9688,284.9375 Z " fill="#000000"/><text fill="#000000" font-family="sans-serif" font-size="14" lengthAdjust="spacing" textLength="41.7539" x="973" y="284.1436">class_</text><line style="stroke:#181818;stroke-width:0.5;" x1="945" x2="1016.7539" y1="295.2969" y2="295.2969"/><line style="stroke:#181818;stroke-width:0.5;" x1="945" x2="1016.7539" y1="303.2969" y2="303.2969"/></g></a><!--class C_0010998792414017796003--><a href="classclanguml_1_1class__diagram_1_1model_1_1concept__.html" target="_top" title="Model of C++ concept." xlink:actuate="onRequest" xlink:href="classclanguml_1_1class__diagram_1_1model_1_1concept__.html" xlink:show="new" xlink:title="Model of C++ concept." xlink:type="simple"><g id="elem_C_0010998792414017796003"><rect codeLine="29" fill="#F1F1F1" height="48" id="C_0010998792414017796003" rx="2.5" ry="2.5" style="stroke:#181818;stroke-width:0.5;" width="94.8223" x="813.5" y="263.2969"/><ellipse cx="828.5" cy="279.2969" fill="#ADD1B2" rx="11" ry="11" style="stroke:#181818;stroke-width:1;"/><path d="M831.4688,284.9375 Q830.8906,285.2344 830.25,285.375 Q829.6094,285.5313 828.9063,285.5313 Q826.4063,285.5313 825.0781,283.8906 Q823.7656,282.2344 823.7656,279.1094 Q823.7656,275.9844 825.0781,274.3281 Q826.4063,272.6719 828.9063,272.6719 Q829.6094,272.6719 830.25,272.8281 Q830.9063,272.9844 831.4688,273.2813 L831.4688,276 Q830.8438,275.4219 830.25,275.1563 Q829.6563,274.875 829.0313,274.875 Q827.6875,274.875 827,275.9531 Q826.3125,277.0156 826.3125,279.1094 Q826.3125,281.2031 827,282.2813 Q827.6875,283.3438 829.0313,283.3438 Q829.6563,283.3438 830.25,283.0781 Q830.8438,282.7969 831.4688,282.2188 L831.4688,284.9375 Z " fill="#000000"/><text fill="#000000" font-family="sans-serif" font-size="14" lengthAdjust="spacing" textLength="62.8223" x="842.5" y="284.1436">concept_</text><line style="stroke:#181818;stroke-width:0.5;" x1="814.5" x2="907.3223" y1="295.2969" y2="295.2969"/><line style="stroke:#181818;stroke-width:0.5;" x1="814.5" x2="907.3223" y1="303.2969" y2="303.2969"/></g></a><!--class C_0005795143816749204050--><a href="classclanguml_1_1class__diagram_1_1model_1_1enum__.html" target="_top" title="Diagram element representing an enum." xlink:actuate="onRequest" xlink:href="classclanguml_1_1class__diagram_1_1model_1_1enum__.html" xlink:show="new" xlink:title="Diagram element representing an enum." xlink:type="simple"><g id="elem_C_0005795143816749204050"><rect codeLine="33" fill="#F1F1F1" height="48" id="C_0005795143816749204050" rx="2.5" ry="2.5" style="stroke:#181818;stroke-width:0.5;" width="78.9971" x="699.5" y="263.2969"/><ellipse cx="714.5" cy="279.2969" fill="#ADD1B2" rx="11" ry="11" style="stroke:#181818;stroke-width:1;"/><path d="M717.4688,284.9375 Q716.8906,285.2344 716.25,285.375 Q715.6094,285.5313 714.9063,285.5313 Q712.4063,285.5313 711.0781,283.8906 Q709.7656,282.2344 709.7656,279.1094 Q709.7656,275.9844 711.0781,274.3281 Q712.4063,272.6719 714.9063,272.6719 Q715.6094,272.6719 716.25,272.8281 Q716.9063,272.9844 717.4688,273.2813 L717.4688,276 Q716.8438,275.4219 716.25,275.1563 Q715.6563,274.875 715.0313,274.875 Q713.6875,274.875 713,275.9531 Q712.3125,277.0156 712.3125,279.1094 Q712.3125,281.2031 713,282.2813 Q713.6875,283.3438 715.0313,283.3438 Q715.6563,283.3438 716.25,283.0781 Q716.8438,282.7969 717.4688,282.2188 L717.4688,284.9375 Z " fill="#000000"/><text fill="#000000" font-family="sans-serif" font-size="14" lengthAdjust="spacing" textLength="46.9971" x="728.5" y="284.1436">enum_</text><line style="stroke:#181818;stroke-width:0.5;" x1="700.5" x2="777.4971" y1="295.2969" y2="295.2969"/><line style="stroke:#181818;stroke-width:0.5;" x1="700.5" x2="777.4971" y1="303.2969" y2="303.2969"/></g></a><!--class C_0010166346108406727066--><a href="classclanguml_1_1class__diagram_1_1model_1_1objc__interface.html" target="_top" title="Diagram element representing an ObjC interface." xlink:actuate="onRequest" xlink:href="classclanguml_1_1class__diagram_1_1model_1_1objc__interface.html" xlink:show="new" xlink:title="Diagram element representing an ObjC interface." xlink:type="simple"><g id="elem_C_0010166346108406727066"><rect codeLine="37" fill="#F1F1F1" height="48" id="C_0010166346108406727066" rx="2.5" ry="2.5" style="stroke:#181818;stroke-width:0.5;" width="130.4785" x="534" y="263.2969"/><ellipse cx="549" cy="279.2969" fill="#ADD1B2" rx="11" ry="11" style="stroke:#181818;stroke-width:1;"/><path d="M551.9688,284.9375 Q551.3906,285.2344 550.75,285.375 Q550.1094,285.5313 549.4063,285.5313 Q546.9063,285.5313 545.5781,283.8906 Q544.2656,282.2344 544.2656,279.1094 Q544.2656,275.9844 545.5781,274.3281 Q546.9063,272.6719 549.4063,272.6719 Q550.1094,272.6719 550.75,272.8281 Q551.4063,272.9844 551.9688,273.2813 L551.9688,276 Q551.3438,275.4219 550.75,275.1563 Q550.1563,274.875 549.5313,274.875 Q548.1875,274.875 547.5,275.9531 Q546.8125,277.0156 546.8125,279.1094 Q546.8125,281.2031 547.5,282.2813 Q548.1875,283.3438 549.5313,283.3438 Q550.1563,283.3438 550.75,283.0781 Q551.3438,282.7969 551.9688,282.2188 L551.9688,284.9375 Z " fill="#000000"/><text fill="#000000" font-family="sans-serif" font-size="14" lengthAdjust="spacing" textLength="98.4785" x="563" y="284.1436">objc_interface</text><line style="stroke:#181818;stroke-width:0.5;" x1="535" x2="663.4785" y1="295.2969" y2="295.2969"/><line style="stroke:#181818;stroke-width:0.5;" x1="535" x2="663.4785" y1="303.2969" y2="303.2969"/></g></a><!--class C_0011201726182739961811--><a href="structclanguml_1_1sequence__diagram_1_1model_1_1participant.html" target="_top" title="Base class for various types of sequence diagram participants" xlink:actuate="onRequest" xlink:href="structclanguml_1_1sequence__diagram_1_1model_1_1participant.html" xlink:show="new" xlink:title="Base class for various types of sequence diagram participants" xlink:type="simple"><g id="elem_C_0011201726182739961811"><rect codeLine="45" fill="#F1F1F1" height="48" id="C_0011201726182739961811" rx="2.5" ry="2.5" style="stroke:#181818;stroke-width:0.5;" width="108.0156" x="1127" y="263.2969"/><ellipse cx="1142" cy="279.2969" fill="#ADD1B2" rx="11" ry="11" style="stroke:#181818;stroke-width:1;"/><path d="M1144.9688,284.9375 Q1144.3906,285.2344 1143.75,285.375 Q1143.1094,285.5313 1142.4063,285.5313 Q1139.9063,285.5313 1138.5781,283.8906 Q1137.2656,282.2344 1137.2656,279.1094 Q1137.2656,275.9844 1138.5781,274.3281 Q1139.9063,272.6719 1142.4063,272.6719 Q1143.1094,272.6719 1143.75,272.8281 Q1144.4063,272.9844 1144.9688,273.2813 L1144.9688,276 Q1144.3438,275.4219 1143.75,275.1563 Q1143.1563,274.875 1142.5313,274.875 Q1141.1875,274.875 1140.5,275.9531 Q1139.8125,277.0156 1139.8125,279.1094 Q1139.8125,281.2031 1140.5,282.2813 Q1141.1875,283.3438 1142.5313,283.3438 Q1143.1563,283.3438 1143.75,283.0781 Q1144.3438,282.7969 1144.9688,282.2188 L1144.9688,284.9375 Z " fill="#000000"/><text fill="#000000" font-family="sans-serif" font-size="14" lengthAdjust="spacing" textLength="76.0156" x="1156" y="284.1436">participant</text><line style="stroke:#181818;stroke-width:0.5;" x1="1128" x2="1234.0156" y1="295.2969" y2="295.2969"/><line style="stroke:#181818;stroke-width:0.5;" x1="1128" x2="1234.0156" y1="303.2969" y2="303.2969"/></g></a><!--class C_0007084118972955772881--><a href="structclanguml_1_1sequence__diagram_1_1model_1_1class__.html" target="_top" title="Sequence diagram participant representing a class." xlink:actuate="onRequest" xlink:href="structclanguml_1_1sequence__diagram_1_1model_1_1class__.html" xlink:show="new" xlink:title="Sequence diagram participant representing a class." xlink:type="simple"><g id="elem_C_0007084118972955772881"><rect codeLine="49" fill="#F1F1F1" height="48" id="C_0007084118972955772881" rx="2.5" ry="2.5" style="stroke:#181818;stroke-width:0.5;" width="73.7539" x="1144" y="371.2969"/><ellipse cx="1159" cy="387.2969" fill="#ADD1B2" rx="11" ry="11" style="stroke:#181818;stroke-width:1;"/><path d="M1161.9688,392.9375 Q1161.3906,393.2344 1160.75,393.375 Q1160.1094,393.5313 1159.4063,393.5313 Q1156.9063,393.5313 1155.5781,391.8906 Q1154.2656,390.2344 1154.2656,387.1094 Q1154.2656,383.9844 1155.5781,382.3281 Q1156.9063,380.6719 1159.4063,380.6719 Q1160.1094,380.6719 1160.75,380.8281 Q1161.4063,380.9844 1161.9688,381.2813 L1161.9688,384 Q1161.3438,383.4219 1160.75,383.1563 Q1160.1563,382.875 1159.5313,382.875 Q1158.1875,382.875 1157.5,383.9531 Q1156.8125,385.0156 1156.8125,387.1094 Q1156.8125,389.2031 1157.5,390.2813 Q1158.1875,391.3438 1159.5313,391.3438 Q1160.1563,391.3438 1160.75,391.0781 Q1161.3438,390.7969 1161.9688,390.2188 L1161.9688,392.9375 Z " fill="#000000"/><text fill="#000000" font-family="sans-serif" font-size="14" lengthAdjust="spacing" textLength="41.7539" x="1173" y="392.1436">class_</text><line style="stroke:#181818;stroke-width:0.5;" x1="1145" x2="1216.7539" y1="403.2969" y2="403.2969"/><line style="stroke:#181818;stroke-width:0.5;" x1="1145" x2="1216.7539" y1="411.2969" y2="411.2969"/></g></a><!--class C_0001861107648253454629--><a href="structclanguml_1_1sequence__diagram_1_1model_1_1function.html" target="_top" title="Participant mode representing a free function." xlink:actuate="onRequest" xlink:href="structclanguml_1_1sequence__diagram_1_1model_1_1function.html" xlink:show="new" xlink:title="Participant mode representing a free function." xlink:type="simple"><g id="elem_C_0001861107648253454629"><rect codeLine="53" fill="#F1F1F1" height="48" id="C_0001861107648253454629" rx="2.5" ry="2.5" style="stroke:#181818;stroke-width:0.5;" width="89.1895" x="1256.5" y="371.2969"/><ellipse cx="1271.5" cy="387.2969" fill="#ADD1B2" rx="11" ry="11" style="stroke:#181818;stroke-width:1;"/><path d="M1274.4688,392.9375 Q1273.8906,393.2344 1273.25,393.375 Q1272.6094,393.5313 1271.9063,393.5313 Q1269.4063,393.5313 1268.0781,391.8906 Q1266.7656,390.2344 1266.7656,387.1094 Q1266.7656,383.9844 1268.0781,382.3281 Q1269.4063,380.6719 1271.9063,380.6719 Q1272.6094,380.6719 1273.25,380.8281 Q1273.9063,380.9844 1274.4688,381.2813 L1274.4688,384 Q1273.8438,383.4219 1273.25,383.1563 Q1272.6563,382.875 1272.0313,382.875 Q1270.6875,382.875 1270,383.9531 Q1269.3125,385.0156 1269.3125,387.1094 Q1269.3125,389.2031 1270,390.2813 Q1270.6875,391.3438 1272.0313,391.3438 Q1272.6563,391.3438 1273.25,391.0781 Q1273.8438,390.7969 1274.4688,390.2188 L1274.4688,392.9375 Z " fill="#000000"/><text fill="#000000" font-family="sans-serif" font-size="14" lengthAdjust="spacing" textLength="57.1895" x="1285.5" y="392.1436">function</text><line style="stroke:#181818;stroke-width:0.5;" x1="1257.5" x2="1344.6895" y1="403.2969" y2="403.2969"/><line style="stroke:#181818;stroke-width:0.5;" x1="1257.5" x2="1344.6895" y1="411.2969" y2="411.2969"/></g></a><!--class C_0006541327780382276039--><a href="structclanguml_1_1sequence__diagram_1_1model_1_1method.html" target="_top" title="Participant model representing a method" xlink:actuate="onRequest" xlink:href="structclanguml_1_1sequence__diagram_1_1model_1_1method.html" xlink:show="new" xlink:title="Participant model representing a method" xlink:type="simple"><g id="elem_C_0006541327780382276039"><rect codeLine="57" fill="#F1F1F1" height="48" id="C_0006541327780382276039" rx="2.5" ry="2.5" style="stroke:#181818;stroke-width:0.5;" width="86.0654" x="1122" y="479.2969"/><ellipse cx="1137" cy="495.2969" fill="#ADD1B2" rx="11" ry="11" style="stroke:#181818;stroke-width:1;"/><path d="M1139.9688,500.9375 Q1139.3906,501.2344 1138.75,501.375 Q1138.1094,501.5313 1137.4063,501.5313 Q1134.9063,501.5313 1133.5781,499.8906 Q1132.2656,498.2344 1132.2656,495.1094 Q1132.2656,491.9844 1133.5781,490.3281 Q1134.9063,488.6719 1137.4063,488.6719 Q1138.1094,488.6719 1138.75,488.8281 Q1139.4063,488.9844 1139.9688,489.2813 L1139.9688,492 Q1139.3438,491.4219 1138.75,491.1563 Q1138.1563,490.875 1137.5313,490.875 Q1136.1875,490.875 1135.5,491.9531 Q1134.8125,493.0156 1134.8125,495.1094 Q1134.8125,497.2031 1135.5,498.2813 Q1136.1875,499.3438 1137.5313,499.3438 Q1138.1563,499.3438 1138.75,499.0781 Q1139.3438,498.7969 1139.9688,498.2188 L1139.9688,500.9375 Z " fill="#000000"/><text fill="#000000" font-family="sans-serif" font-size="14" lengthAdjust="spacing" textLength="54.0654" x="1151" y="500.1436">method</text><line style="stroke:#181818;stroke-width:0.5;" x1="1123" x2="1207.0654" y1="511.2969" y2="511.2969"/><line style="stroke:#181818;stroke-width:0.5;" x1="1123" x2="1207.0654" y1="519.2969" y2="519.2969"/></g></a><!--class C_0013742559556936917396--><a href="structclanguml_1_1sequence__diagram_1_1model_1_1objc__method.html" target="_top" title="objc_method" xlink:actuate="onRequest" xlink:href="structclanguml_1_1sequence__diagram_1_1model_1_1objc__method.html" xlink:show="new" xlink:title="objc_method" xlink:type="simple"><g id="elem_C_0013742559556936917396"><rect codeLine="61" fill="#F1F1F1" height="48" id="C_0013742559556936917396" rx="2.5" ry="2.5" style="stroke:#181818;stroke-width:0.5;" width="122.1045" x="1243" y="479.2969"/><ellipse cx="1258" cy="495.2969" fill="#ADD1B2" rx="11" ry="11" style="stroke:#181818;stroke-width:1;"/><path d="M1260.9688,500.9375 Q1260.3906,501.2344 1259.75,501.375 Q1259.1094,501.5313 1258.4063,501.5313 Q1255.9063,501.5313 1254.5781,499.8906 Q1253.2656,498.2344 1253.2656,495.1094 Q1253.2656,491.9844 1254.5781,490.3281 Q1255.9063,488.6719 1258.4063,488.6719 Q1259.1094,488.6719 1259.75,488.8281 Q1260.4063,488.9844 1260.9688,489.2813 L1260.9688,492 Q1260.3438,491.4219 1259.75,491.1563 Q1259.1563,490.875 1258.5313,490.875 Q1257.1875,490.875 1256.5,491.9531 Q1255.8125,493.0156 1255.8125,495.1094 Q1255.8125,497.2031 1256.5,498.2813 Q1257.1875,499.3438 1258.5313,499.3438 Q1259.1563,499.3438 1259.75,499.0781 Q1260.3438,498.7969 1260.9688,498.2188 L1260.9688,500.9375 Z " fill="#000000"/><text fill="#000000" font-family="sans-serif" font-size="14" lengthAdjust="spacing" textLength="90.1045" x="1272" y="500.1436">objc_method</text><line style="stroke:#181818;stroke-width:0.5;" x1="1244" x2="1364.1045" y1="511.2969" y2="511.2969"/><line style="stroke:#181818;stroke-width:0.5;" x1="1244" x2="1364.1045" y1="519.2969" y2="519.2969"/></g></a><!--class C_0018241535739946484465--><a href="structclanguml_1_1sequence__diagram_1_1model_1_1function__template.html" target="_top" title="Participant model representing a function template." xlink:actuate="onRequest" xlink:href="structclanguml_1_1sequence__diagram_1_1model_1_1function__template.html" xlink:show="new" xlink:title="Participant model representing a function template." xlink:type="simple"><g id="elem_C_0018241535739946484465"><rect codeLine="65" fill="#F1F1F1" height="48" id="C_0018241535739946484465" rx="2.5" ry="2.5" style="stroke:#181818;stroke-width:0.5;" width="159.3877" x="1400.5" y="479.2969"/><ellipse cx="1415.5" cy="495.2969" fill="#ADD1B2" rx="11" ry="11" style="stroke:#181818;stroke-width:1;"/><path d="M1418.4688,500.9375 Q1417.8906,501.2344 1417.25,501.375 Q1416.6094,501.5313 1415.9063,501.5313 Q1413.4063,501.5313 1412.0781,499.8906 Q1410.7656,498.2344 1410.7656,495.1094 Q1410.7656,491.9844 1412.0781,490.3281 Q1413.4063,488.6719 1415.9063,488.6719 Q1416.6094,488.6719 1417.25,488.8281 Q1417.9063,488.9844 1418.4688,489.2813 L1418.4688,492 Q1417.8438,491.4219 1417.25,491.1563 Q1416.6563,490.875 1416.0313,490.875 Q1414.6875,490.875 1414,491.9531 Q1413.3125,493.0156 1413.3125,495.1094 Q1413.3125,497.2031 1414,498.2813 Q1414.6875,499.3438 1416.0313,499.3438 Q1416.6563,499.3438 1417.25,499.0781 Q1417.8438,498.7969 1418.4688,498.2188 L1418.4688,500.9375 Z " fill="#000000"/><text fill="#000000" font-family="sans-serif" font-size="14" lengthAdjust="spacing" textLength="127.3877" x="1429.5" y="500.1436">function_template</text><line style="stroke:#181818;stroke-width:0.5;" x1="1401.5" x2="1558.8877" y1="511.2969" y2="511.2969"/><line style="stroke:#181818;stroke-width:0.5;" x1="1401.5" x2="1558.8877" y1="519.2969" y2="519.2969"/></g></a><!--reverse link C_0016622768607835415521 to C_0016370694070378943411--><g id="link_C_0016622768607835415521_C_0016370694070378943411"><path codeLine="70" d="M259.7091,156.279 C220.4891,161.359 195.41,166.7369 179,177.2969 C146.93,197.9269 124.92,237.6369 113.4,263.0069 " fill="transparent" id="C_0016622768607835415521-backto-C_0016370694070378943411" style="stroke:#181818;stroke-width:1;"/><polygon fill="transparent" points="277.56,153.9669,258.9384,150.3287,260.4798,162.2293,277.56,153.9669" style="stroke:#181818;stroke-width:1;"/></g><!--reverse link C_0016622768607835415521 to C_0006285717704576425038--><g id="link_C_0016622768607835415521_C_0006285717704576425038"><path codeLine="71" d="M315.6083,182.3086 C292.5583,209.8386 276.14,240.2069 262.93,263.0669 " fill="transparent" id="C_0016622768607835415521-backto-C_0006285717704576425038" style="stroke:#181818;stroke-width:1;"/><polygon fill="transparent" points="328.16,169.4069,311.3077,178.1247,319.9089,186.4925,328.16,169.4069" style="stroke:#181818;stroke-width:1;"/></g><!--reverse link C_0016622768607835415521 to C_0017146293478645494837--><g id="link_C_0016622768607835415521_C_0017146293478645494837"><path codeLine="72" d="M362.7225,187.0171 C368.2825,212.9571 373.48,237.1869 379.04,263.1469 " fill="transparent" id="C_0016622768607835415521-backto-C_0017146293478645494837" style="stroke:#181818;stroke-width:1;"/><polygon fill="transparent" points="358.95,169.4169,356.8557,188.2746,368.5892,185.7596,358.95,169.4169" style="stroke:#181818;stroke-width:1;"/></g><!--reverse link C_0016622768607835415521 to C_0010336274859733225462--><g id="link_C_0016622768607835415521_C_0010336274859733225462"><path codeLine="73" d="M448.1599,146.2847 C594.3699,146.7547 885.52,150.8469 926,177.2969 C955.63,196.6569 970.01,237.1469 976.42,262.9569 " fill="transparent" id="C_0016622768607835415521-backto-C_0010336274859733225462" style="stroke:#181818;stroke-width:1;"/><polygon fill="transparent" points="430.16,146.2269,448.1406,152.2847,448.1792,140.2848,430.16,146.2269" style="stroke:#181818;stroke-width:1;"/></g><!--reverse link C_0016622768607835415521 to C_0010998792414017796003--><g id="link_C_0016622768607835415521_C_0010998792414017796003"><path codeLine="74" d="M448.1344,148.2743 C566.3644,151.2143 765.7,158.6569 796,177.2969 C827.34,196.5769 845.45,237.0869 854.26,262.9269 " fill="transparent" id="C_0016622768607835415521-backto-C_0010998792414017796003" style="stroke:#181818;stroke-width:1;"/><polygon fill="transparent" points="430.14,147.8269,447.9853,154.2725,448.2836,142.2762,430.14,147.8269" style="stroke:#181818;stroke-width:1;"/></g><!--reverse link C_0016622768607835415521 to C_0005795143816749204050--><g id="link_C_0016622768607835415521_C_0005795143816749204050"><path codeLine="75" d="M448.1466,150.6039 C538.5166,155.2139 661.58,163.5769 682,177.2969 C711.6,197.1869 726.84,237.5069 733.86,263.1469 " fill="transparent" id="C_0016622768607835415521-backto-C_0005795143816749204050" style="stroke:#181818;stroke-width:1;"/><polygon fill="transparent" points="430.17,149.6869,447.8409,156.5961,448.4523,144.6117,430.17,149.6869" style="stroke:#181818;stroke-width:1;"/></g><!--reverse link C_0016622768607835415521 to C_0010166346108406727066--><g id="link_C_0016622768607835415521_C_0010166346108406727066"><path codeLine="76" d="M445.2269,176.2123 C451.2069,178.6923 440.45,174.4569 446,177.2969 C493.35,201.4669 542.43,239.0469 571.84,263.1669 " fill="transparent" id="C_0016622768607835415521-backto-C_0010166346108406727066" style="stroke:#181818;stroke-width:1;"/><polygon fill="transparent" points="428.6,169.3169,442.9284,181.7546,447.5254,170.67,428.6,169.3169" style="stroke:#181818;stroke-width:1;"/></g><!--reverse link C_0016622768607835415521 to C_0011201726182739961811--><g id="link_C_0016622768607835415521_C_0011201726182739961811"><path codeLine="77" d="M448.008,147.5343 C613.558,149.9943 978.4,157.5169 1034,177.2969 C1084.29,195.1869 1131.88,236.5369 1158.66,262.8569 " fill="transparent" id="C_0016622768607835415521-backto-C_0011201726182739961811" style="stroke:#181818;stroke-width:1;"/><polygon fill="transparent" points="430.01,147.2669,447.9189,153.5337,448.0972,141.535,430.01,147.2669" style="stroke:#181818;stroke-width:1;"/></g><!--reverse link C_0011201726182739961811 to C_0007084118972955772881--><g id="link_C_0011201726182739961811_C_0007084118972955772881"><path codeLine="78" d="M1181,329.2969 C1181,346.9569 1181,353.2369 1181,370.9769 " fill="transparent" id="C_0011201726182739961811-backto-C_0007084118972955772881" style="stroke:#181818;stroke-width:1;"/><polygon fill="transparent" points="1181,311.2969,1175,329.2969,1187,329.2969,1181,311.2969" style="stroke:#181818;stroke-width:1;"/></g><!--reverse link C_0011201726182739961811 to C_0001861107648253454629--><g id="link_C_0011201726182739961811_C_0001861107648253454629"><path codeLine="79" d="M1220.5298,323.2143 C1240.5198,340.8743 1254.52,353.2369 1274.6,370.9769 " fill="transparent" id="C_0011201726182739961811-backto-C_0001861107648253454629" style="stroke:#181818;stroke-width:1;"/><polygon fill="transparent" points="1207.04,311.2969,1216.5573,327.7109,1224.5023,318.7177,1207.04,311.2969" style="stroke:#181818;stroke-width:1;"/></g><!--reverse link C_0001861107648253454629 to C_0006541327780382276039--><g id="link_C_0001861107648253454629_C_0006541327780382276039"><path codeLine="80" d="M1257.2925,430.3617 C1234.6325,448.0217 1217.68,461.2369 1194.92,478.9769 " fill="transparent" id="C_0001861107648253454629-backto-C_0006541327780382276039" style="stroke:#181818;stroke-width:1;"/><polygon fill="transparent" points="1271.49,419.2969,1253.6042,425.6292,1260.9807,435.0942,1271.49,419.2969" style="stroke:#181818;stroke-width:1;"/></g><!--reverse link C_0001861107648253454629 to C_0013742559556936917396--><g id="link_C_0001861107648253454629_C_0013742559556936917396"><path codeLine="81" d="M1302.1594,437.2897 C1302.6594,454.9497 1302.84,461.2369 1303.34,478.9769 " fill="transparent" id="C_0001861107648253454629-backto-C_0013742559556936917396" style="stroke:#181818;stroke-width:1;"/><polygon fill="transparent" points="1301.65,419.2969,1296.1618,437.4595,1308.157,437.1199,1301.65,419.2969" style="stroke:#181818;stroke-width:1;"/></g><!--reverse link C_0001861107648253454629 to C_0018241535739946484465--><g id="link_C_0001861107648253454629_C_0018241535739946484465"><path codeLine="82" d="M1355.3276,428.4693 C1385.2476,446.1893 1410.95,461.4069 1440.93,479.1569 " fill="transparent" id="C_0001861107648253454629-backto-C_0018241535739946484465" style="stroke:#181818;stroke-width:1;"/><polygon fill="transparent" points="1339.84,419.2969,1352.2701,433.6319,1358.3851,423.3068,1339.84,419.2969" style="stroke:#181818;stroke-width:1;"/></g><!--SRC=[fLTBRzj64BxxLonoIOlKmhuVG4vrWLuIj43GNWo3eAYLoPIlaii4Gfh_tbcH4fVMAg4T230Md9cTxvkTbrtXIei-k4EPRk6mAzB7BgsGBMrbQuUoCkrxb1UsIxiiFzoqQVPF-cZHVTPKLLC_eBH7Tmd6c0f6DSTK6IQ9qeHeXRxCwbMpi-MiZQKqId4k2EUSO2e50-tHsQj-0fDC85wTp8YKb2gf9LQQ2Kw4e6GokYP6z_T71VXJFmvLcP24ZD3zwOZA7yukJputkQlABxyjez4Zrw3FUP7bo1jObAKrsbgKjcrPsDtcwyC3i4YIcwydAfqjKrSqTPyNRK23AImDnmepfGrdd2nfN8fNqWZTZGpkZjTsjkri3moA-X6bzG65YgXnkUsGou5CKSEnS6cTsKioVJDqcKtsHMdFNB2aMYYY5EP2IKu5PZhW4XElVPBHsz5Tz3MMhFgciiZhegQ3BEvivfhk47cIAINdrr24IseOLrfomGtNJ8Ml4H6lP31vMW6-JYlRW_eIF9ek23Zutro27aCoLUp3pCTGmXW4taZ2DEPQY6zK8ZoED8PfPHGHN68ZwLo9euSvLDZVg-16enYZ5FHf6Ag8E1gguwqdu8kGJQ8L8KkdrWG16m_ELYqajOqyUTP0FhSk968CCAQSS8YNCX9ZjY1oANukaSdbHEMz_uwQFRfxymPDiWXGMm_LZ18BPQ11CasauePYZWKEQoiYVYRAexzLqQwHrur0RhOViwIedUtsaBz1XA4RCou9Xg4W5OME9XSHlXG_4_lHyUnv7Oa_jX_lq6nphR9w- -zWuP4kYuiIY3LCEPWpqkUxDknwSK5f2Q64mLn2xo046hcUYwjDErTaHPk64uvGiAAIQAgOWGBMoz4G4KFOUjSDcGlZTYOG3LtWUGpRhsblfpBQGq5zIhkY6Q2a3gtjVTQUhZkl1y4DVQJUbcq31fdsr8sY1kAXgDOXgPZu1QGMhUF3Dm17-qWai_T3dVaPEVCWMXA2OOvfs7QuRsycv14Hlu37oUr8vCy0jrTv2dxVMHXx9vDB4fLrURCBnZNiHOmgfM4G-sK9imM5YFW554QdSGBbKmQZyfN6yWG-OGfs205f8c7DD0IAOD5L8k8Nm1yxIqWYm78zJvBJ19hXQXWXWWbVgnpIWdCfGhWHyGyaJ786i3Bo9yFewFI_gqlrs_zkRw-lijytYswDAxp5LhKLPh6rPOrPP4bOmIqsjTTuYmpC5MQnWN5rLCmWOorvXLci0rxjVS5pHxhEzysYrRx2B5PrDwz_jpNy4-li3dqkN8wEzNKB1VOB-cIxtfS1tiWDkNdzxjtVxy_V_jeEjHj6xVD7OZPaGz1FP3XAoS__0m00]--></g></svg>