<svg xmlns="http://www.w3.org/2000/svg" xmlns:xlink="http://www.w3.org/1999/xlink" contentStyleType="text/css" data-diagram-type="CLASS" height="556px" preserveAspectRatio="none" style="width:1135px;height:556px;background:#FFFFFF;" version="1.1" viewBox="0 0 1135 556" width="1135px" zoomAndPan="magnify"><title>Template trait diagram element model class hierarchy</title><defs/><g><text fill="#000000" font-family="sans-serif" font-size="14" font-weight="bold" lengthAdjust="spacing" textLength="430.2676" x="345.3662" y="22.9951">Template trait diagram element model class hierarchy</text><!--cluster C_0000316605034920222648--><g id="cluster_C_0000316605034920222648"><path d="M8.5,43.2969 L76.1777,43.2969 A3.75,3.75 0 0 1 78.6777,45.7969 L85.6777,65.5938 L421.5,65.5938 A2.5,2.5 0 0 1 424,68.0938 L424,395.7969 A2.5,2.5 0 0 1 421.5,398.2969 L8.5,398.2969 A2.5,2.5 0 0 1 6,395.7969 L6,45.7969 A2.5,2.5 0 0 1 8.5,43.2969 " fill="transparent" style="stroke:#000000;stroke-width:1.5;"/><line style="stroke:#000000;stroke-width:1.5;" x1="6" x2="85.6777" y1="65.5938" y2="65.5938"/><text fill="#000000" font-family="sans-serif" font-size="14" font-weight="bold" lengthAdjust="spacing" textLength="66.6777" x="10" y="58.292">common</text></g><!--cluster C_0000083721806430512831--><g id="cluster_C_0000083721806430512831"><path d="M32.5,86.2969 L82.0215,86.2969 A3.75,3.75 0 0 1 84.5215,88.7969 L91.5215,108.5938 L397.5,108.5938 A2.5,2.5 0 0 1 400,111.0938 L400,371.7969 A2.5,2.5 0 0 1 397.5,374.2969 L32.5,374.2969 A2.5,2.5 0 0 1 30,371.7969 L30,88.7969 A2.5,2.5 0 0 1 32.5,86.2969 " fill="transparent" style="stroke:#000000;stroke-width:1.5;"/><line style="stroke:#000000;stroke-width:1.5;" x1="30" x2="91.5215" y1="108.5938" y2="108.5938"/><text fill="#000000" font-family="sans-serif" font-size="14" font-weight="bold" lengthAdjust="spacing" textLength="48.5215" x="34" y="101.292">model</text></g><!--cluster C_0002240167036201725606--><g id="cluster_C_0002240167036201725606"><path d="M450.5,232.2969 L562.9395,232.2969 A3.75,3.75 0 0 1 565.4395,234.7969 L572.4395,254.5938 L730.5,254.5938 A2.5,2.5 0 0 1 733,257.0938 L733,546.7969 A2.5,2.5 0 0 1 730.5,549.2969 L450.5,549.2969 A2.5,2.5 0 0 1 448,546.7969 L448,234.7969 A2.5,2.5 0 0 1 450.5,232.2969 " fill="transparent" style="stroke:#000000;stroke-width:1.5;"/><line style="stroke:#000000;stroke-width:1.5;" x1="448" x2="572.4395" y1="254.5938" y2="254.5938"/><text fill="#000000" font-family="sans-serif" font-size="14" font-weight="bold" lengthAdjust="spacing" textLength="111.4395" x="452" y="247.292">class_diagram</text></g><!--cluster C_0000897124234964432620--><g id="cluster_C_0000897124234964432620"><path d="M474.5,275.2969 L524.0215,275.2969 A3.75,3.75 0 0 1 526.5215,277.7969 L533.5215,297.5938 L706.5,297.5938 A2.5,2.5 0 0 1 709,300.0938 L709,522.7969 A2.5,2.5 0 0 1 706.5,525.2969 L474.5,525.2969 A2.5,2.5 0 0 1 472,522.7969 L472,277.7969 A2.5,2.5 0 0 1 474.5,275.2969 " fill="transparent" style="stroke:#000000;stroke-width:1.5;"/><line style="stroke:#000000;stroke-width:1.5;" x1="472" x2="533.5215" y1="297.5938" y2="297.5938"/><text fill="#000000" font-family="sans-serif" font-size="14" font-weight="bold" lengthAdjust="spacing" textLength="48.5215" x="476" y="290.292">model</text></g><!--cluster C_0001521862840957629236--><g id="cluster_C_0001521862840957629236"><path d="M782.5,232.2969 L930.8008,232.2969 A3.75,3.75 0 0 1 933.3008,234.7969 L940.3008,254.5938 L1125.5,254.5938 A2.5,2.5 0 0 1 1128,257.0938 L1128,395.7969 A2.5,2.5 0 0 1 1125.5,398.2969 L782.5,398.2969 A2.5,2.5 0 0 1 780,395.7969 L780,234.7969 A2.5,2.5 0 0 1 782.5,232.2969 " fill="transparent" style="stroke:#000000;stroke-width:1.5;"/><line style="stroke:#000000;stroke-width:1.5;" x1="780" x2="940.3008" y1="254.5938" y2="254.5938"/><text fill="#000000" font-family="sans-serif" font-size="14" font-weight="bold" lengthAdjust="spacing" textLength="147.3008" x="784" y="247.292">sequence_diagram</text></g><!--cluster C_0002206969880830639264--><g id="cluster_C_0002206969880830639264"><path d="M806.5,275.2969 L856.0215,275.2969 A3.75,3.75 0 0 1 858.5215,277.7969 L865.5215,297.5938 L1101.5,297.5938 A2.5,2.5 0 0 1 1104,300.0938 L1104,371.7969 A2.5,2.5 0 0 1 1101.5,374.2969 L806.5,374.2969 A2.5,2.5 0 0 1 804,371.7969 L804,277.7969 A2.5,2.5 0 0 1 806.5,275.2969 " fill="transparent" style="stroke:#000000;stroke-width:1.5;"/><line style="stroke:#000000;stroke-width:1.5;" x1="804" x2="865.5215" y1="297.5938" y2="297.5938"/><text fill="#000000" font-family="sans-serif" font-size="14" font-weight="bold" lengthAdjust="spacing" textLength="48.5215" x="808" y="290.292">model</text></g><!--class C_0000178138562743079529--><a href="classclanguml_1_1common_1_1model_1_1template__parameter.html" target="_top" title="Represents template parameter, template arguments or concept         constraints" xlink:actuate="onRequest" xlink:href="classclanguml_1_1common_1_1model_1_1template__parameter.html" xlink:show="new" xlink:title="Represents template parameter, template arguments or concept         constraints" xlink:type="simple"><g id="elem_C_0000178138562743079529"><rect codeLine="5" fill="#F1F1F1" height="48" id="C_0000178138562743079529" rx="2.5" ry="2.5" style="stroke:#181818;stroke-width:0.5;" width="176.1084" x="46" y="310.2969"/><ellipse cx="61" cy="326.2969" fill="#ADD1B2" rx="11" ry="11" style="stroke:#181818;stroke-width:1;"/><path d="M63.9688,331.9375 Q63.3906,332.2344 62.75,332.375 Q62.1094,332.5313 61.4063,332.5313 Q58.9063,332.5313 57.5781,330.8906 Q56.2656,329.2344 56.2656,326.1094 Q56.2656,322.9844 57.5781,321.3281 Q58.9063,319.6719 61.4063,319.6719 Q62.1094,319.6719 62.75,319.8281 Q63.4063,319.9844 63.9688,320.2813 L63.9688,323 Q63.3438,322.4219 62.75,322.1563 Q62.1563,321.875 61.5313,321.875 Q60.1875,321.875 59.5,322.9531 Q58.8125,324.0156 58.8125,326.1094 Q58.8125,328.2031 59.5,329.2813 Q60.1875,330.3438 61.5313,330.3438 Q62.1563,330.3438 62.75,330.0781 Q63.3438,329.7969 63.9688,329.2188 L63.9688,331.9375 Z " fill="#000000"/><text fill="#000000" font-family="sans-serif" font-size="14" lengthAdjust="spacing" textLength="144.1084" x="75" y="331.1436">template_parameter</text><line style="stroke:#181818;stroke-width:0.5;" x1="47" x2="221.1084" y1="342.2969" y2="342.2969"/><line style="stroke:#181818;stroke-width:0.5;" x1="47" x2="221.1084" y1="350.2969" y2="350.2969"/></g></a><!--class C_0000464715462505216589--><a href="classclanguml_1_1common_1_1model_1_1template__trait.html" target="_top" title="Common interface for template diagram elements." xlink:actuate="onRequest" xlink:href="classclanguml_1_1common_1_1model_1_1template__trait.html" xlink:show="new" xlink:title="Common interface for template diagram elements." xlink:type="simple"><g id="elem_C_0000464715462505216589"><rect codeLine="9" fill="#F1F1F1" height="48" id="C_0000464715462505216589" rx="2.5" ry="2.5" style="stroke:#181818;stroke-width:0.5;" width="131.4014" x="252.5" y="121.2969"/><ellipse cx="267.5" cy="137.2969" fill="#ADD1B2" rx="11" ry="11" style="stroke:#181818;stroke-width:1;"/><path d="M270.4688,142.9375 Q269.8906,143.2344 269.25,143.375 Q268.6094,143.5313 267.9063,143.5313 Q265.4063,143.5313 264.0781,141.8906 Q262.7656,140.2344 262.7656,137.1094 Q262.7656,133.9844 264.0781,132.3281 Q265.4063,130.6719 267.9063,130.6719 Q268.6094,130.6719 269.25,130.8281 Q269.9063,130.9844 270.4688,131.2813 L270.4688,134 Q269.8438,133.4219 269.25,133.1563 Q268.6563,132.875 268.0313,132.875 Q266.6875,132.875 266,133.9531 Q265.3125,135.0156 265.3125,137.1094 Q265.3125,139.2031 266,140.2813 Q266.6875,141.3438 268.0313,141.3438 Q268.6563,141.3438 269.25,141.0781 Q269.8438,140.7969 270.4688,140.2188 L270.4688,142.9375 Z " fill="#000000"/><text fill="#000000" font-family="sans-serif" font-size="14" lengthAdjust="spacing" textLength="99.4014" x="281.5" y="142.1436">template_trait</text><line style="stroke:#181818;stroke-width:0.5;" x1="253.5" x2="382.9014" y1="153.2969" y2="153.2969"/><line style="stroke:#181818;stroke-width:0.5;" x1="253.5" x2="382.9014" y1="161.2969" y2="161.2969"/></g></a><!--class C_0000204145716468348671--><a href="classclanguml_1_1class__diagram_1_1model_1_1class__method.html" target="_top" title="Class method model." xlink:actuate="onRequest" xlink:href="classclanguml_1_1class__diagram_1_1model_1_1class__method.html" xlink:show="new" xlink:title="Class method model." xlink:type="simple"><g id="elem_C_0000204145716468348671"><rect codeLine="17" fill="#F1F1F1" height="48" id="C_0000204145716468348671" rx="2.5" ry="2.5" style="stroke:#181818;stroke-width:0.5;" width="127.8193" x="526" y="461.2969"/><ellipse cx="541" cy="477.2969" fill="#ADD1B2" rx="11" ry="11" style="stroke:#181818;stroke-width:1;"/><path d="M543.9688,482.9375 Q543.3906,483.2344 542.75,483.375 Q542.1094,483.5313 541.4063,483.5313 Q538.9063,483.5313 537.5781,481.8906 Q536.2656,480.2344 536.2656,477.1094 Q536.2656,473.9844 537.5781,472.3281 Q538.9063,470.6719 541.4063,470.6719 Q542.1094,470.6719 542.75,470.8281 Q543.4063,470.9844 543.9688,471.2813 L543.9688,474 Q543.3438,473.4219 542.75,473.1563 Q542.1563,472.875 541.5313,472.875 Q540.1875,472.875 539.5,473.9531 Q538.8125,475.0156 538.8125,477.1094 Q538.8125,479.2031 539.5,480.2813 Q540.1875,481.3438 541.5313,481.3438 Q542.1563,481.3438 542.75,481.0781 Q543.3438,480.7969 543.9688,480.2188 L543.9688,482.9375 Z " fill="#000000"/><text fill="#000000" font-family="sans-serif" font-size="14" lengthAdjust="spacing" textLength="95.8193" x="555" y="482.1436">class_method</text><line style="stroke:#181818;stroke-width:0.5;" x1="527" x2="652.8193" y1="493.2969" y2="493.2969"/><line style="stroke:#181818;stroke-width:0.5;" x1="527" x2="652.8193" y1="501.2969" y2="501.2969"/></g></a><!--class C_0001292034357466653182--><a href="classclanguml_1_1class__diagram_1_1model_1_1class__.html" target="_top" title="Diagram element representing a class or class template." xlink:actuate="onRequest" xlink:href="classclanguml_1_1class__diagram_1_1model_1_1class__.html" xlink:show="new" xlink:title="Diagram element representing a class or class template." xlink:type="simple"><g id="elem_C_0001292034357466653182"><rect codeLine="21" fill="#F1F1F1" height="48" id="C_0001292034357466653182" rx="2.5" ry="2.5" style="stroke:#181818;stroke-width:0.5;" width="73.7539" x="488" y="310.2969"/><ellipse cx="503" cy="326.2969" fill="#ADD1B2" rx="11" ry="11" style="stroke:#181818;stroke-width:1;"/><path d="M505.9688,331.9375 Q505.3906,332.2344 504.75,332.375 Q504.1094,332.5313 503.4063,332.5313 Q500.9063,332.5313 499.5781,330.8906 Q498.2656,329.2344 498.2656,326.1094 Q498.2656,322.9844 499.5781,321.3281 Q500.9063,319.6719 503.4063,319.6719 Q504.1094,319.6719 504.75,319.8281 Q505.4063,319.9844 505.9688,320.2813 L505.9688,323 Q505.3438,322.4219 504.75,322.1563 Q504.1563,321.875 503.5313,321.875 Q502.1875,321.875 501.5,322.9531 Q500.8125,324.0156 500.8125,326.1094 Q500.8125,328.2031 501.5,329.2813 Q502.1875,330.3438 503.5313,330.3438 Q504.1563,330.3438 504.75,330.0781 Q505.3438,329.7969 505.9688,329.2188 L505.9688,331.9375 Z " fill="#000000"/><text fill="#000000" font-family="sans-serif" font-size="14" lengthAdjust="spacing" textLength="41.7539" x="517" y="331.1436">class_</text><line style="stroke:#181818;stroke-width:0.5;" x1="489" x2="560.7539" y1="342.2969" y2="342.2969"/><line style="stroke:#181818;stroke-width:0.5;" x1="489" x2="560.7539" y1="350.2969" y2="350.2969"/></g></a><!--class C_0001374849051752224500--><a href="classclanguml_1_1class__diagram_1_1model_1_1concept__.html" target="_top" title="Model of C++ concept." xlink:actuate="onRequest" xlink:href="classclanguml_1_1class__diagram_1_1model_1_1concept__.html" xlink:show="new" xlink:title="Model of C++ concept." xlink:type="simple"><g id="elem_C_0001374849051752224500"><rect codeLine="25" fill="#F1F1F1" height="48" id="C_0001374849051752224500" rx="2.5" ry="2.5" style="stroke:#181818;stroke-width:0.5;" width="94.8223" x="597.5" y="310.2969"/><ellipse cx="612.5" cy="326.2969" fill="#ADD1B2" rx="11" ry="11" style="stroke:#181818;stroke-width:1;"/><path d="M615.4688,331.9375 Q614.8906,332.2344 614.25,332.375 Q613.6094,332.5313 612.9063,332.5313 Q610.4063,332.5313 609.0781,330.8906 Q607.7656,329.2344 607.7656,326.1094 Q607.7656,322.9844 609.0781,321.3281 Q610.4063,319.6719 612.9063,319.6719 Q613.6094,319.6719 614.25,319.8281 Q614.9063,319.9844 615.4688,320.2813 L615.4688,323 Q614.8438,322.4219 614.25,322.1563 Q613.6563,321.875 613.0313,321.875 Q611.6875,321.875 611,322.9531 Q610.3125,324.0156 610.3125,326.1094 Q610.3125,328.2031 611,329.2813 Q611.6875,330.3438 613.0313,330.3438 Q613.6563,330.3438 614.25,330.0781 Q614.8438,329.7969 615.4688,329.2188 L615.4688,331.9375 Z " fill="#000000"/><text fill="#000000" font-family="sans-serif" font-size="14" lengthAdjust="spacing" textLength="62.8223" x="626.5" y="331.1436">concept_</text><line style="stroke:#181818;stroke-width:0.5;" x1="598.5" x2="691.3223" y1="342.2969" y2="342.2969"/><line style="stroke:#181818;stroke-width:0.5;" x1="598.5" x2="691.3223" y1="350.2969" y2="350.2969"/></g></a><!--class C_0000885514871619471610--><a href="structclanguml_1_1sequence__diagram_1_1model_1_1class__.html" target="_top" title="Sequence diagram participant representing a class." xlink:actuate="onRequest" xlink:href="structclanguml_1_1sequence__diagram_1_1model_1_1class__.html" xlink:show="new" xlink:title="Sequence diagram participant representing a class." xlink:type="simple"><g id="elem_C_0000885514871619471610"><rect codeLine="33" fill="#F1F1F1" height="48" id="C_0000885514871619471610" rx="2.5" ry="2.5" style="stroke:#181818;stroke-width:0.5;" width="73.7539" x="820" y="310.2969"/><ellipse cx="835" cy="326.2969" fill="#ADD1B2" rx="11" ry="11" style="stroke:#181818;stroke-width:1;"/><path d="M837.9688,331.9375 Q837.3906,332.2344 836.75,332.375 Q836.1094,332.5313 835.4063,332.5313 Q832.9063,332.5313 831.5781,330.8906 Q830.2656,329.2344 830.2656,326.1094 Q830.2656,322.9844 831.5781,321.3281 Q832.9063,319.6719 835.4063,319.6719 Q836.1094,319.6719 836.75,319.8281 Q837.4063,319.9844 837.9688,320.2813 L837.9688,323 Q837.3438,322.4219 836.75,322.1563 Q836.1563,321.875 835.5313,321.875 Q834.1875,321.875 833.5,322.9531 Q832.8125,324.0156 832.8125,326.1094 Q832.8125,328.2031 833.5,329.2813 Q834.1875,330.3438 835.5313,330.3438 Q836.1563,330.3438 836.75,330.0781 Q837.3438,329.7969 837.9688,329.2188 L837.9688,331.9375 Z " fill="#000000"/><text fill="#000000" font-family="sans-serif" font-size="14" lengthAdjust="spacing" textLength="41.7539" x="849" y="331.1436">class_</text><line style="stroke:#181818;stroke-width:0.5;" x1="821" x2="892.7539" y1="342.2969" y2="342.2969"/><line style="stroke:#181818;stroke-width:0.5;" x1="821" x2="892.7539" y1="350.2969" y2="350.2969"/></g></a><!--class C_0002280191967493310558--><a href="structclanguml_1_1sequence__diagram_1_1model_1_1function__template.html" target="_top" title="Participant model representing a function template." xlink:actuate="onRequest" xlink:href="structclanguml_1_1sequence__diagram_1_1model_1_1function__template.html" xlink:show="new" xlink:title="Participant model representing a function template." xlink:type="simple"><g id="elem_C_0002280191967493310558"><rect codeLine="37" fill="#F1F1F1" height="48" id="C_0002280191967493310558" rx="2.5" ry="2.5" style="stroke:#181818;stroke-width:0.5;" width="159.3877" x="929.5" y="310.2969"/><ellipse cx="944.5" cy="326.2969" fill="#ADD1B2" rx="11" ry="11" style="stroke:#181818;stroke-width:1;"/><path d="M947.4688,331.9375 Q946.8906,332.2344 946.25,332.375 Q945.6094,332.5313 944.9063,332.5313 Q942.4063,332.5313 941.0781,330.8906 Q939.7656,329.2344 939.7656,326.1094 Q939.7656,322.9844 941.0781,321.3281 Q942.4063,319.6719 944.9063,319.6719 Q945.6094,319.6719 946.25,319.8281 Q946.9063,319.9844 947.4688,320.2813 L947.4688,323 Q946.8438,322.4219 946.25,322.1563 Q945.6563,321.875 945.0313,321.875 Q943.6875,321.875 943,322.9531 Q942.3125,324.0156 942.3125,326.1094 Q942.3125,328.2031 943,329.2813 Q943.6875,330.3438 945.0313,330.3438 Q945.6563,330.3438 946.25,330.0781 Q946.8438,329.7969 947.4688,329.2188 L947.4688,331.9375 Z " fill="#000000"/><text fill="#000000" font-family="sans-serif" font-size="14" lengthAdjust="spacing" textLength="127.3877" x="958.5" y="331.1436">function_template</text><line style="stroke:#181818;stroke-width:0.5;" x1="930.5" x2="1087.8877" y1="342.2969" y2="342.2969"/><line style="stroke:#181818;stroke-width:0.5;" x1="930.5" x2="1087.8877" y1="350.2969" y2="350.2969"/></g></a><!--reverse link C_0000178138562743079529 to C_0000178138562743079529--><g id="link_C_0000178138562743079529_C_0000178138562743079529"><path codeLine="42" d="M234.1501,319.0229 C254.2401,320.4429 257,324.9769 257,334.2969 C257,343.6169 242.27,348.9969 222.18,350.4169 " fill="transparent" id="C_0000178138562743079529-backto-C_0000178138562743079529" style="stroke:#181818;stroke-width:1;"/><polygon fill="transparent" points="222.18,318.1769,227.883,322.59,234.1501,319.0229,228.4471,314.6099,222.18,318.1769" style="stroke:#181818;stroke-width:1;"/><rect fill="transparent" height="6" style="stroke:#C82930;stroke-width:1;" width="6" x="265" y="331.8633"/><text fill="#000000" font-family="sans-serif" font-size="13" lengthAdjust="spacing" textLength="120.6499" x="275" y="338.8638">template_params_</text></g><!--reverse link C_0000464715462505216589 to C_0000178138562743079529--><g id="link_C_0000464715462505216589_C_0000178138562743079529"><path codeLine="43" d="M286.6538,178.1607 C251.2038,214.1907 191.92,274.4369 156.64,310.2869 " fill="transparent" id="C_0000464715462505216589-backto-C_0000178138562743079529" style="stroke:#181818;stroke-width:1;"/><polygon fill="transparent" points="295.07,169.6069,288.0106,171.0784,286.6538,178.1607,293.7132,176.6892,295.07,169.6069" style="stroke:#181818;stroke-width:1;"/><rect fill="transparent" height="6" style="stroke:#C82930;stroke-width:1;" width="6" x="267" y="205.3633"/><text fill="#000000" font-family="sans-serif" font-size="13" lengthAdjust="spacing" textLength="71.957" x="277" y="212.3638">templates_</text></g><!--reverse link C_0000464715462505216589 to C_0000204145716468348671--><g id="link_C_0000464715462505216589_C_0000204145716468348671"><path codeLine="44" d="M401.5214,150.7747 C502.1714,157.3747 669.45,174.8769 710,224.2969 C761.31,286.8269 748.58,335.2069 710,406.2969 C696.73,430.7569 672.1,448.7469 648.59,461.2369 " fill="transparent" id="C_0000464715462505216589-backto-C_0000204145716468348671" style="stroke:#181818;stroke-width:1;"/><polygon fill="transparent" points="383.56,149.5969,401.1288,156.7618,401.914,144.7875,383.56,149.5969" style="stroke:#181818;stroke-width:1;"/></g><!--reverse link C_0001292034357466653182 to C_0000204145716468348671--><g id="link_C_0001292034357466653182_C_0000204145716468348671"><path codeLine="45" d="M539.9581,369.5759 C552.1681,397.5659 567.74,433.2569 579.92,461.1769 " fill="transparent" id="C_0001292034357466653182-backto-C_0000204145716468348671" style="stroke:#181818;stroke-width:1;"/><polygon fill="transparent" points="535.16,358.5769,533.8927,365.6757,539.9581,369.5759,541.2254,362.477,535.16,358.5769" style="stroke:#181818;stroke-width:1;"/><rect fill="transparent" height="6" style="stroke:#C82930;stroke-width:1;" width="6" x="568" y="420.3633"/><text fill="#000000" font-family="sans-serif" font-size="13" lengthAdjust="spacing" textLength="63.4766" x="578" y="427.3638">methods_</text></g><!--reverse link C_0000464715462505216589 to C_0001292034357466653182--><g id="link_C_0000464715462505216589_C_0001292034357466653182"><path codeLine="46" d="M357.1563,181.6738 C397.0363,217.7038 459.84,274.4369 499.53,310.2869 " fill="transparent" id="C_0000464715462505216589-backto-C_0001292034357466653182" style="stroke:#181818;stroke-width:1;"/><polygon fill="transparent" points="343.8,169.6069,353.134,186.1258,361.1786,177.2217,343.8,169.6069" style="stroke:#181818;stroke-width:1;"/></g><!--reverse link C_0000464715462505216589 to C_0001374849051752224500--><g id="link_C_0000464715462505216589_C_0001374849051752224500"><path codeLine="47" d="M401.3762,154.9726 C458.3862,163.1826 522.78,179.7769 580,224.2969 C608.69,246.6169 627.4,285.4469 637.08,310.2369 " fill="transparent" id="C_0000464715462505216589-backto-C_0001374849051752224500" style="stroke:#181818;stroke-width:1;"/><polygon fill="transparent" points="383.56,152.4069,400.521,160.9113,402.2314,149.0338,383.56,152.4069" style="stroke:#181818;stroke-width:1;"/></g><!--reverse link C_0000464715462505216589 to C_0000885514871619471610--><g id="link_C_0000464715462505216589_C_0000885514871619471610"><path codeLine="48" d="M401.7053,147.5379 C511.5953,150.0479 708.83,159.6169 772,199.2969 C813.18,225.1569 837.98,279.0569 849.41,310.0369 " fill="transparent" id="C_0000464715462505216589-backto-C_0000885514871619471610" style="stroke:#181818;stroke-width:1;"/><polygon fill="transparent" points="383.71,147.1269,401.5683,153.5363,401.8423,141.5395,383.71,147.1269" style="stroke:#181818;stroke-width:1;"/></g><!--reverse link C_0000464715462505216589 to C_0002280191967493310558--><g id="link_C_0000464715462505216589_C_0002280191967493310558"><path codeLine="49" d="M401.5757,149.123 C536.9457,154.513 824,171.5769 912,224.2969 C947.86,245.7769 977.79,284.8469 994.54,309.9169 " fill="transparent" id="C_0000464715462505216589-backto-C_0002280191967493310558" style="stroke:#181818;stroke-width:1;"/><polygon fill="transparent" points="383.59,148.4069,401.337,155.1183,401.8145,143.1278,383.59,148.4069" style="stroke:#181818;stroke-width:1;"/></g><!--SRC=[dLR9Rjj03BtxAmQvf8LZOVQbw2q5Uac0ejib28I9FBQ5Mf8hZRiWRRwzr2xRikj40eIHI0xvo4UEVEpN3drsoMPjlKC-jx57yzWkSviWjtQ9IprAihbResXjYmAjOfVRF5hzdcnizCqk7RgBiYJ9qdja2tGTOhWOaH8BpBYXc58gkKQFlNgrsq0RQwOeqLXoXWMXcX7GhfrT-2QmS6CX8ETTVj4R4gK9qq9I1PRA26eQisDYT7TNAS0ZNMwJTKX2KWTVhgguoaNdjFSQh7ooVlpeDhah82C5QdLGftBLVxCvx5wfPJcAiZHo6u_Q2zwBCiqW_dj_3r33SFBt06zLY05MBhaYWaigiA142hsBzL3yRAoLnnhdTQM784INBspaq09mTEZss5440nZbtVEYz1yswdt1AUMOI8MPf50ZAYIMf-YXZIAKKo2Jv9nHCEhfKNk0zA-o-I1P57F2XIAIIysubehi9EjGF9giQkys_9saDQBQRvEoQl_wIzqlmM5rQxi-K4AXGHXdGd4ffM14qs6W8-AN1Lg7-6wlg_EMpN6wHBPfxvAmrQ8jznYCcj5384nnpGsqhnBGy5nWl0FaKFnS88tB1ifjDP2o1RgUJji6Eqh3mdtVEb0vP2A1Nj6IQewDK1AopKunaL8iZJHQmy32aXcOQ_jC771GQo48ry0oOdZvtCd8Y1Wo0dDX6_bXIhhO_r_UJurgrvymcNmSnHjxfDOZbLriqyZ7C2BQwbyCq6jC335ISSCOmKBe8Q0HyGi0TVwx06fi7mPGwiDe3r1hE4hRyZvw96IpsV7puWsQxPv0HJWvEd3FtUdK7c__T9kC3B6ZKo4xOLMwhkVIUOx7Xj8vPYCZu1oO8troXjaO6oUNxrqAFoVUpT7FsAzGnRiP4EyA_N1vKT831pp0CpLRQYiVk56JovkRhxUT-Cl3DlNRsh3xI6I00ubUJQVmDmFr910RhDHKHGyBOgamC4TcvCdzsf2dLeN0ESLr096z_WS0]--></g></svg>