<svg xmlns="http://www.w3.org/2000/svg" xmlns:xlink="http://www.w3.org/1999/xlink" contentStyleType="text/css" data-diagram-type="CLASS" height="800px" preserveAspectRatio="none" style="width:871px;height:800px;background:#FFFFFF;" version="1.1" viewBox="0 0 871 800" width="871px" zoomAndPan="magnify"><title>Template trait diagram element model class hierarchy</title><defs/><g><text fill="#000000" font-family="sans-serif" font-size="14" font-weight="bold" lengthAdjust="spacing" textLength="430.2676" x="213.8012" y="22.9951">Template trait diagram element model class hierarchy</text><!--cluster C_0002532840279361781187--><g id="cluster_C_0002532840279361781187"><path d="M192.5,43.2969 L260.1777,43.2969 A3.75,3.75 0 0 1 262.6777,45.7969 L269.6777,65.5938 L800.5,65.5938 A2.5,2.5 0 0 1 803,68.0938 L803,331.7969 A2.5,2.5 0 0 1 800.5,334.2969 L192.5,334.2969 A2.5,2.5 0 0 1 190,331.7969 L190,45.7969 A2.5,2.5 0 0 1 192.5,43.2969 " fill="transparent" style="stroke:#000000;stroke-width:1.5;"/><line style="stroke:#000000;stroke-width:1.5;" x1="190" x2="269.6777" y1="65.5938" y2="65.5938"/><text fill="#000000" font-family="sans-serif" font-size="14" font-weight="bold" lengthAdjust="spacing" textLength="66.6777" x="194" y="58.292">common</text></g><!--cluster C_0000669774451444102653--><g id="cluster_C_0000669774451444102653"><path d="M216.5,86.2969 L266.0215,86.2969 A3.75,3.75 0 0 1 268.5215,88.7969 L275.5215,108.5938 L776.5,108.5938 A2.5,2.5 0 0 1 779,111.0938 L779,307.7969 A2.5,2.5 0 0 1 776.5,310.2969 L216.5,310.2969 A2.5,2.5 0 0 1 214,307.7969 L214,88.7969 A2.5,2.5 0 0 1 216.5,86.2969 " fill="transparent" style="stroke:#000000;stroke-width:1.5;"/><line style="stroke:#000000;stroke-width:1.5;" x1="214" x2="275.5215" y1="108.5938" y2="108.5938"/><text fill="#000000" font-family="sans-serif" font-size="14" font-weight="bold" lengthAdjust="spacing" textLength="48.5215" x="218" y="101.292">model</text></g><!--cluster C_0017921336289613804855--><g id="cluster_C_0017921336289613804855"><path d="M549.5,367.2969 L661.9395,367.2969 A3.75,3.75 0 0 1 664.4395,369.7969 L671.4395,389.5938 L829.5,389.5938 A2.5,2.5 0 0 1 832,392.0938 L832,655.7969 A2.5,2.5 0 0 1 829.5,658.2969 L549.5,658.2969 A2.5,2.5 0 0 1 547,655.7969 L547,369.7969 A2.5,2.5 0 0 1 549.5,367.2969 " fill="transparent" style="stroke:#000000;stroke-width:1.5;"/><line style="stroke:#000000;stroke-width:1.5;" x1="547" x2="671.4395" y1="389.5938" y2="389.5938"/><text fill="#000000" font-family="sans-serif" font-size="14" font-weight="bold" lengthAdjust="spacing" textLength="111.4395" x="551" y="382.292">class_diagram</text></g><!--cluster C_0007176993879715460962--><g id="cluster_C_0007176993879715460962"><path d="M573.5,410.2969 L623.0215,410.2969 A3.75,3.75 0 0 1 625.5215,412.7969 L632.5215,432.5938 L805.5,432.5938 A2.5,2.5 0 0 1 808,435.0938 L808,631.7969 A2.5,2.5 0 0 1 805.5,634.2969 L573.5,634.2969 A2.5,2.5 0 0 1 571,631.7969 L571,412.7969 A2.5,2.5 0 0 1 573.5,410.2969 " fill="transparent" style="stroke:#000000;stroke-width:1.5;"/><line style="stroke:#000000;stroke-width:1.5;" x1="571" x2="632.5215" y1="432.5938" y2="432.5938"/><text fill="#000000" font-family="sans-serif" font-size="14" font-weight="bold" lengthAdjust="spacing" textLength="48.5215" x="575" y="425.292">model</text></g><!--cluster C_0012174902727661033893--><g id="cluster_C_0012174902727661033893"><path d="M8.5,367.2969 L156.8008,367.2969 A3.75,3.75 0 0 1 159.3008,369.7969 L166.3008,389.5938 L520.5,389.5938 A2.5,2.5 0 0 1 523,392.0938 L523,790.7969 A2.5,2.5 0 0 1 520.5,793.2969 L8.5,793.2969 A2.5,2.5 0 0 1 6,790.7969 L6,369.7969 A2.5,2.5 0 0 1 8.5,367.2969 " fill="transparent" style="stroke:#000000;stroke-width:1.5;"/><line style="stroke:#000000;stroke-width:1.5;" x1="6" x2="166.3008" y1="389.5938" y2="389.5938"/><text fill="#000000" font-family="sans-serif" font-size="14" font-weight="bold" lengthAdjust="spacing" textLength="147.3008" x="10" y="382.292">sequence_diagram</text></g><!--cluster C_0017655759046645114118--><g id="cluster_C_0017655759046645114118"><path d="M32.5,410.2969 L82.0215,410.2969 A3.75,3.75 0 0 1 84.5215,412.7969 L91.5215,432.5938 L496.5,432.5938 A2.5,2.5 0 0 1 499,435.0938 L499,766.7969 A2.5,2.5 0 0 1 496.5,769.2969 L32.5,769.2969 A2.5,2.5 0 0 1 30,766.7969 L30,412.7969 A2.5,2.5 0 0 1 32.5,410.2969 " fill="transparent" style="stroke:#000000;stroke-width:1.5;"/><line style="stroke:#000000;stroke-width:1.5;" x1="30" x2="91.5215" y1="432.5938" y2="432.5938"/><text fill="#000000" font-family="sans-serif" font-size="14" font-weight="bold" lengthAdjust="spacing" textLength="48.5215" x="34" y="425.292">model</text></g><!--class C_0001425108501944636238--><a href="classclanguml_1_1common_1_1model_1_1template__parameter.html" target="_top" title="Represents template parameter, template arguments or concept         constraints" xlink:actuate="onRequest" xlink:href="classclanguml_1_1common_1_1model_1_1template__parameter.html" xlink:show="new" xlink:title="Represents template parameter, template arguments or concept         constraints" xlink:type="simple"><g id="elem_C_0001425108501944636238"><rect codeLine="5" fill="#F1F1F1" height="48" id="C_0001425108501944636238" rx="2.5" ry="2.5" style="stroke:#181818;stroke-width:0.5;" width="176.1084" x="230" y="246.2969"/><ellipse cx="245" cy="262.2969" fill="#ADD1B2" rx="11" ry="11" style="stroke:#181818;stroke-width:1;"/><path d="M247.9688,267.9375 Q247.3906,268.2344 246.75,268.375 Q246.1094,268.5313 245.4063,268.5313 Q242.9063,268.5313 241.5781,266.8906 Q240.2656,265.2344 240.2656,262.1094 Q240.2656,258.9844 241.5781,257.3281 Q242.9063,255.6719 245.4063,255.6719 Q246.1094,255.6719 246.75,255.8281 Q247.4063,255.9844 247.9688,256.2813 L247.9688,259 Q247.3438,258.4219 246.75,258.1563 Q246.1563,257.875 245.5313,257.875 Q244.1875,257.875 243.5,258.9531 Q242.8125,260.0156 242.8125,262.1094 Q242.8125,264.2031 243.5,265.2813 Q244.1875,266.3438 245.5313,266.3438 Q246.1563,266.3438 246.75,266.0781 Q247.3438,265.7969 247.9688,265.2188 L247.9688,267.9375 Z " fill="#000000"/><text fill="#000000" font-family="sans-serif" font-size="14" lengthAdjust="spacing" textLength="144.1084" x="259" y="267.1436">template_parameter</text><line style="stroke:#181818;stroke-width:0.5;" x1="231" x2="405.1084" y1="278.2969" y2="278.2969"/><line style="stroke:#181818;stroke-width:0.5;" x1="231" x2="405.1084" y1="286.2969" y2="286.2969"/></g></a><!--class C_0003717723700041732716--><a href="classclanguml_1_1common_1_1model_1_1template__trait.html" target="_top" title="Common interface for template diagram elements." xlink:actuate="onRequest" xlink:href="classclanguml_1_1common_1_1model_1_1template__trait.html" xlink:show="new" xlink:title="Common interface for template diagram elements." xlink:type="simple"><g id="elem_C_0003717723700041732716"><rect codeLine="9" fill="#F1F1F1" height="48" id="C_0003717723700041732716" rx="2.5" ry="2.5" style="stroke:#181818;stroke-width:0.5;" width="131.4014" x="617.5" y="121.2969"/><ellipse cx="632.5" cy="137.2969" fill="#ADD1B2" rx="11" ry="11" style="stroke:#181818;stroke-width:1;"/><path d="M635.4688,142.9375 Q634.8906,143.2344 634.25,143.375 Q633.6094,143.5313 632.9063,143.5313 Q630.4063,143.5313 629.0781,141.8906 Q627.7656,140.2344 627.7656,137.1094 Q627.7656,133.9844 629.0781,132.3281 Q630.4063,130.6719 632.9063,130.6719 Q633.6094,130.6719 634.25,130.8281 Q634.9063,130.9844 635.4688,131.2813 L635.4688,134 Q634.8438,133.4219 634.25,133.1563 Q633.6563,132.875 633.0313,132.875 Q631.6875,132.875 631,133.9531 Q630.3125,135.0156 630.3125,137.1094 Q630.3125,139.2031 631,140.2813 Q631.6875,141.3438 633.0313,141.3438 Q633.6563,141.3438 634.25,141.0781 Q634.8438,140.7969 635.4688,140.2188 L635.4688,142.9375 Z " fill="#000000"/><text fill="#000000" font-family="sans-serif" font-size="14" lengthAdjust="spacing" textLength="99.4014" x="646.5" y="142.1436">template_trait</text><line style="stroke:#181818;stroke-width:0.5;" x1="618.5" x2="747.9014" y1="153.2969" y2="153.2969"/><line style="stroke:#181818;stroke-width:0.5;" x1="618.5" x2="747.9014" y1="161.2969" y2="161.2969"/></g></a><!--class C_0013384831159811298387--><a href="classclanguml_1_1common_1_1model_1_1template__element.html" target="_top" title="Base class for any element qualified by namespace." xlink:actuate="onRequest" xlink:href="classclanguml_1_1common_1_1model_1_1template__element.html" xlink:show="new" xlink:title="Base class for any element qualified by namespace." xlink:type="simple"><g id="elem_C_0013384831159811298387"><rect codeLine="13" fill="#F1F1F1" height="48" id="C_0013384831159811298387" rx="2.5" ry="2.5" style="stroke:#181818;stroke-width:0.5;" width="159.9277" x="603" y="246.2969"/><ellipse cx="618" cy="262.2969" fill="#ADD1B2" rx="11" ry="11" style="stroke:#181818;stroke-width:1;"/><path d="M620.9688,267.9375 Q620.3906,268.2344 619.75,268.375 Q619.1094,268.5313 618.4063,268.5313 Q615.9063,268.5313 614.5781,266.8906 Q613.2656,265.2344 613.2656,262.1094 Q613.2656,258.9844 614.5781,257.3281 Q615.9063,255.6719 618.4063,255.6719 Q619.1094,255.6719 619.75,255.8281 Q620.4063,255.9844 620.9688,256.2813 L620.9688,259 Q620.3438,258.4219 619.75,258.1563 Q619.1563,257.875 618.5313,257.875 Q617.1875,257.875 616.5,258.9531 Q615.8125,260.0156 615.8125,262.1094 Q615.8125,264.2031 616.5,265.2813 Q617.1875,266.3438 618.5313,266.3438 Q619.1563,266.3438 619.75,266.0781 Q620.3438,265.7969 620.9688,265.2188 L620.9688,267.9375 Z " fill="#000000"/><text fill="#000000" font-family="sans-serif" font-size="14" lengthAdjust="spacing" textLength="127.9277" x="632" y="267.1436">template_element</text><line style="stroke:#181818;stroke-width:0.5;" x1="604" x2="761.9277" y1="278.2969" y2="278.2969"/><line style="stroke:#181818;stroke-width:0.5;" x1="604" x2="761.9277" y1="286.2969" y2="286.2969"/></g></a><!--class C_0001633165731746789371--><a href="classclanguml_1_1class__diagram_1_1model_1_1class__method.html" target="_top" title="Class method model." xlink:actuate="onRequest" xlink:href="classclanguml_1_1class__diagram_1_1model_1_1class__method.html" xlink:show="new" xlink:title="Class method model." xlink:type="simple"><g id="elem_C_0001633165731746789371"><rect codeLine="21" fill="#F1F1F1" height="48" id="C_0001633165731746789371" rx="2.5" ry="2.5" style="stroke:#181818;stroke-width:0.5;" width="127.8193" x="657" y="570.2969"/><ellipse cx="672" cy="586.2969" fill="#ADD1B2" rx="11" ry="11" style="stroke:#181818;stroke-width:1;"/><path d="M674.9688,591.9375 Q674.3906,592.2344 673.75,592.375 Q673.1094,592.5313 672.4063,592.5313 Q669.9063,592.5313 668.5781,590.8906 Q667.2656,589.2344 667.2656,586.1094 Q667.2656,582.9844 668.5781,581.3281 Q669.9063,579.6719 672.4063,579.6719 Q673.1094,579.6719 673.75,579.8281 Q674.4063,579.9844 674.9688,580.2813 L674.9688,583 Q674.3438,582.4219 673.75,582.1563 Q673.1563,581.875 672.5313,581.875 Q671.1875,581.875 670.5,582.9531 Q669.8125,584.0156 669.8125,586.1094 Q669.8125,588.2031 670.5,589.2813 Q671.1875,590.3438 672.5313,590.3438 Q673.1563,590.3438 673.75,590.0781 Q674.3438,589.7969 674.9688,589.2188 L674.9688,591.9375 Z " fill="#000000"/><text fill="#000000" font-family="sans-serif" font-size="14" lengthAdjust="spacing" textLength="95.8193" x="686" y="591.1436">class_method</text><line style="stroke:#181818;stroke-width:0.5;" x1="658" x2="783.8193" y1="602.2969" y2="602.2969"/><line style="stroke:#181818;stroke-width:0.5;" x1="658" x2="783.8193" y1="610.2969" y2="610.2969"/></g></a><!--class C_0010336274859733225462--><a href="classclanguml_1_1class__diagram_1_1model_1_1class__.html" target="_top" title="Diagram element representing a class or class template." xlink:actuate="onRequest" xlink:href="classclanguml_1_1class__diagram_1_1model_1_1class__.html" xlink:show="new" xlink:title="Diagram element representing a class or class template." xlink:type="simple"><g id="elem_C_0010336274859733225462"><rect codeLine="25" fill="#F1F1F1" height="48" id="C_0010336274859733225462" rx="2.5" ry="2.5" style="stroke:#181818;stroke-width:0.5;" width="73.7539" x="718" y="445.2969"/><ellipse cx="733" cy="461.2969" fill="#ADD1B2" rx="11" ry="11" style="stroke:#181818;stroke-width:1;"/><path d="M735.9688,466.9375 Q735.3906,467.2344 734.75,467.375 Q734.1094,467.5313 733.4063,467.5313 Q730.9063,467.5313 729.5781,465.8906 Q728.2656,464.2344 728.2656,461.1094 Q728.2656,457.9844 729.5781,456.3281 Q730.9063,454.6719 733.4063,454.6719 Q734.1094,454.6719 734.75,454.8281 Q735.4063,454.9844 735.9688,455.2813 L735.9688,458 Q735.3438,457.4219 734.75,457.1563 Q734.1563,456.875 733.5313,456.875 Q732.1875,456.875 731.5,457.9531 Q730.8125,459.0156 730.8125,461.1094 Q730.8125,463.2031 731.5,464.2813 Q732.1875,465.3438 733.5313,465.3438 Q734.1563,465.3438 734.75,465.0781 Q735.3438,464.7969 735.9688,464.2188 L735.9688,466.9375 Z " fill="#000000"/><text fill="#000000" font-family="sans-serif" font-size="14" lengthAdjust="spacing" textLength="41.7539" x="747" y="466.1436">class_</text><line style="stroke:#181818;stroke-width:0.5;" x1="719" x2="790.7539" y1="477.2969" y2="477.2969"/><line style="stroke:#181818;stroke-width:0.5;" x1="719" x2="790.7539" y1="485.2969" y2="485.2969"/></g></a><!--class C_0010998792414017796003--><a href="classclanguml_1_1class__diagram_1_1model_1_1concept__.html" target="_top" title="Model of C++ concept." xlink:actuate="onRequest" xlink:href="classclanguml_1_1class__diagram_1_1model_1_1concept__.html" xlink:show="new" xlink:title="Model of C++ concept." xlink:type="simple"><g id="elem_C_0010998792414017796003"><rect codeLine="29" fill="#F1F1F1" height="48" id="C_0010998792414017796003" rx="2.5" ry="2.5" style="stroke:#181818;stroke-width:0.5;" width="94.8223" x="587.5" y="445.2969"/><ellipse cx="602.5" cy="461.2969" fill="#ADD1B2" rx="11" ry="11" style="stroke:#181818;stroke-width:1;"/><path d="M605.4688,466.9375 Q604.8906,467.2344 604.25,467.375 Q603.6094,467.5313 602.9063,467.5313 Q600.4063,467.5313 599.0781,465.8906 Q597.7656,464.2344 597.7656,461.1094 Q597.7656,457.9844 599.0781,456.3281 Q600.4063,454.6719 602.9063,454.6719 Q603.6094,454.6719 604.25,454.8281 Q604.9063,454.9844 605.4688,455.2813 L605.4688,458 Q604.8438,457.4219 604.25,457.1563 Q603.6563,456.875 603.0313,456.875 Q601.6875,456.875 601,457.9531 Q600.3125,459.0156 600.3125,461.1094 Q600.3125,463.2031 601,464.2813 Q601.6875,465.3438 603.0313,465.3438 Q603.6563,465.3438 604.25,465.0781 Q604.8438,464.7969 605.4688,464.2188 L605.4688,466.9375 Z " fill="#000000"/><text fill="#000000" font-family="sans-serif" font-size="14" lengthAdjust="spacing" textLength="62.8223" x="616.5" y="466.1436">concept_</text><line style="stroke:#181818;stroke-width:0.5;" x1="588.5" x2="681.3223" y1="477.2969" y2="477.2969"/><line style="stroke:#181818;stroke-width:0.5;" x1="588.5" x2="681.3223" y1="485.2969" y2="485.2969"/></g></a><!--class C_0011201726182739961811--><a href="structclanguml_1_1sequence__diagram_1_1model_1_1participant.html" target="_top" title="Base class for various types of sequence diagram participants" xlink:actuate="onRequest" xlink:href="structclanguml_1_1sequence__diagram_1_1model_1_1participant.html" xlink:show="new" xlink:title="Base class for various types of sequence diagram participants" xlink:type="simple"><g id="elem_C_0011201726182739961811"><rect codeLine="37" fill="#F1F1F1" height="48" id="C_0011201726182739961811" rx="2.5" ry="2.5" style="stroke:#181818;stroke-width:0.5;" width="108.0156" x="262" y="445.2969"/><ellipse cx="277" cy="461.2969" fill="#ADD1B2" rx="11" ry="11" style="stroke:#181818;stroke-width:1;"/><path d="M279.9688,466.9375 Q279.3906,467.2344 278.75,467.375 Q278.1094,467.5313 277.4063,467.5313 Q274.9063,467.5313 273.5781,465.8906 Q272.2656,464.2344 272.2656,461.1094 Q272.2656,457.9844 273.5781,456.3281 Q274.9063,454.6719 277.4063,454.6719 Q278.1094,454.6719 278.75,454.8281 Q279.4063,454.9844 279.9688,455.2813 L279.9688,458 Q279.3438,457.4219 278.75,457.1563 Q278.1563,456.875 277.5313,456.875 Q276.1875,456.875 275.5,457.9531 Q274.8125,459.0156 274.8125,461.1094 Q274.8125,463.2031 275.5,464.2813 Q276.1875,465.3438 277.5313,465.3438 Q278.1563,465.3438 278.75,465.0781 Q279.3438,464.7969 279.9688,464.2188 L279.9688,466.9375 Z " fill="#000000"/><text fill="#000000" font-family="sans-serif" font-size="14" lengthAdjust="spacing" textLength="76.0156" x="291" y="466.1436">participant</text><line style="stroke:#181818;stroke-width:0.5;" x1="263" x2="369.0156" y1="477.2969" y2="477.2969"/><line style="stroke:#181818;stroke-width:0.5;" x1="263" x2="369.0156" y1="485.2969" y2="485.2969"/></g></a><!--class C_0007084118972955772881--><a href="structclanguml_1_1sequence__diagram_1_1model_1_1class__.html" target="_top" title="Sequence diagram participant representing a class." xlink:actuate="onRequest" xlink:href="structclanguml_1_1sequence__diagram_1_1model_1_1class__.html" xlink:show="new" xlink:title="Sequence diagram participant representing a class." xlink:type="simple"><g id="elem_C_0007084118972955772881"><rect codeLine="41" fill="#F1F1F1" height="48" id="C_0007084118972955772881" rx="2.5" ry="2.5" style="stroke:#181818;stroke-width:0.5;" width="73.7539" x="162" y="570.2969"/><ellipse cx="177" cy="586.2969" fill="#ADD1B2" rx="11" ry="11" style="stroke:#181818;stroke-width:1;"/><path d="M179.9688,591.9375 Q179.3906,592.2344 178.75,592.375 Q178.1094,592.5313 177.4063,592.5313 Q174.9063,592.5313 173.5781,590.8906 Q172.2656,589.2344 172.2656,586.1094 Q172.2656,582.9844 173.5781,581.3281 Q174.9063,579.6719 177.4063,579.6719 Q178.1094,579.6719 178.75,579.8281 Q179.4063,579.9844 179.9688,580.2813 L179.9688,583 Q179.3438,582.4219 178.75,582.1563 Q178.1563,581.875 177.5313,581.875 Q176.1875,581.875 175.5,582.9531 Q174.8125,584.0156 174.8125,586.1094 Q174.8125,588.2031 175.5,589.2813 Q176.1875,590.3438 177.5313,590.3438 Q178.1563,590.3438 178.75,590.0781 Q179.3438,589.7969 179.9688,589.2188 L179.9688,591.9375 Z " fill="#000000"/><text fill="#000000" font-family="sans-serif" font-size="14" lengthAdjust="spacing" textLength="41.7539" x="191" y="591.1436">class_</text><line style="stroke:#181818;stroke-width:0.5;" x1="163" x2="234.7539" y1="602.2969" y2="602.2969"/><line style="stroke:#181818;stroke-width:0.5;" x1="163" x2="234.7539" y1="610.2969" y2="610.2969"/></g></a><!--class C_0001861107648253454629--><a href="structclanguml_1_1sequence__diagram_1_1model_1_1function.html" target="_top" title="Participant mode representing a free function." xlink:actuate="onRequest" xlink:href="structclanguml_1_1sequence__diagram_1_1model_1_1function.html" xlink:show="new" xlink:title="Participant mode representing a free function." xlink:type="simple"><g id="elem_C_0001861107648253454629"><rect codeLine="45" fill="#F1F1F1" height="48" id="C_0001861107648253454629" rx="2.5" ry="2.5" style="stroke:#181818;stroke-width:0.5;" width="89.1895" x="271.5" y="570.2969"/><ellipse cx="286.5" cy="586.2969" fill="#ADD1B2" rx="11" ry="11" style="stroke:#181818;stroke-width:1;"/><path d="M289.4688,591.9375 Q288.8906,592.2344 288.25,592.375 Q287.6094,592.5313 286.9063,592.5313 Q284.4063,592.5313 283.0781,590.8906 Q281.7656,589.2344 281.7656,586.1094 Q281.7656,582.9844 283.0781,581.3281 Q284.4063,579.6719 286.9063,579.6719 Q287.6094,579.6719 288.25,579.8281 Q288.9063,579.9844 289.4688,580.2813 L289.4688,583 Q288.8438,582.4219 288.25,582.1563 Q287.6563,581.875 287.0313,581.875 Q285.6875,581.875 285,582.9531 Q284.3125,584.0156 284.3125,586.1094 Q284.3125,588.2031 285,589.2813 Q285.6875,590.3438 287.0313,590.3438 Q287.6563,590.3438 288.25,590.0781 Q288.8438,589.7969 289.4688,589.2188 L289.4688,591.9375 Z " fill="#000000"/><text fill="#000000" font-family="sans-serif" font-size="14" lengthAdjust="spacing" textLength="57.1895" x="300.5" y="591.1436">function</text><line style="stroke:#181818;stroke-width:0.5;" x1="272.5" x2="359.6895" y1="602.2969" y2="602.2969"/><line style="stroke:#181818;stroke-width:0.5;" x1="272.5" x2="359.6895" y1="610.2969" y2="610.2969"/></g></a><!--class C_0006541327780382276039--><a href="structclanguml_1_1sequence__diagram_1_1model_1_1method.html" target="_top" title="Participant model representing a method" xlink:actuate="onRequest" xlink:href="structclanguml_1_1sequence__diagram_1_1model_1_1method.html" xlink:show="new" xlink:title="Participant model representing a method" xlink:type="simple"><g id="elem_C_0006541327780382276039"><rect codeLine="49" fill="#F1F1F1" height="48" id="C_0006541327780382276039" rx="2.5" ry="2.5" style="stroke:#181818;stroke-width:0.5;" width="86.0654" x="46" y="705.2969"/><ellipse cx="61" cy="721.2969" fill="#ADD1B2" rx="11" ry="11" style="stroke:#181818;stroke-width:1;"/><path d="M63.9688,726.9375 Q63.3906,727.2344 62.75,727.375 Q62.1094,727.5313 61.4063,727.5313 Q58.9063,727.5313 57.5781,725.8906 Q56.2656,724.2344 56.2656,721.1094 Q56.2656,717.9844 57.5781,716.3281 Q58.9063,714.6719 61.4063,714.6719 Q62.1094,714.6719 62.75,714.8281 Q63.4063,714.9844 63.9688,715.2813 L63.9688,718 Q63.3438,717.4219 62.75,717.1563 Q62.1563,716.875 61.5313,716.875 Q60.1875,716.875 59.5,717.9531 Q58.8125,719.0156 58.8125,721.1094 Q58.8125,723.2031 59.5,724.2813 Q60.1875,725.3438 61.5313,725.3438 Q62.1563,725.3438 62.75,725.0781 Q63.3438,724.7969 63.9688,724.2188 L63.9688,726.9375 Z " fill="#000000"/><text fill="#000000" font-family="sans-serif" font-size="14" lengthAdjust="spacing" textLength="54.0654" x="75" y="726.1436">method</text><line style="stroke:#181818;stroke-width:0.5;" x1="47" x2="131.0654" y1="737.2969" y2="737.2969"/><line style="stroke:#181818;stroke-width:0.5;" x1="47" x2="131.0654" y1="745.2969" y2="745.2969"/></g></a><!--class C_0013742559556936917396--><a href="structclanguml_1_1sequence__diagram_1_1model_1_1objc__method.html" target="_top" title="objc_method" xlink:actuate="onRequest" xlink:href="structclanguml_1_1sequence__diagram_1_1model_1_1objc__method.html" xlink:show="new" xlink:title="objc_method" xlink:type="simple"><g id="elem_C_0013742559556936917396"><rect codeLine="53" fill="#F1F1F1" height="48" id="C_0013742559556936917396" rx="2.5" ry="2.5" style="stroke:#181818;stroke-width:0.5;" width="122.1045" x="167" y="705.2969"/><ellipse cx="182" cy="721.2969" fill="#ADD1B2" rx="11" ry="11" style="stroke:#181818;stroke-width:1;"/><path d="M184.9688,726.9375 Q184.3906,727.2344 183.75,727.375 Q183.1094,727.5313 182.4063,727.5313 Q179.9063,727.5313 178.5781,725.8906 Q177.2656,724.2344 177.2656,721.1094 Q177.2656,717.9844 178.5781,716.3281 Q179.9063,714.6719 182.4063,714.6719 Q183.1094,714.6719 183.75,714.8281 Q184.4063,714.9844 184.9688,715.2813 L184.9688,718 Q184.3438,717.4219 183.75,717.1563 Q183.1563,716.875 182.5313,716.875 Q181.1875,716.875 180.5,717.9531 Q179.8125,719.0156 179.8125,721.1094 Q179.8125,723.2031 180.5,724.2813 Q181.1875,725.3438 182.5313,725.3438 Q183.1563,725.3438 183.75,725.0781 Q184.3438,724.7969 184.9688,724.2188 L184.9688,726.9375 Z " fill="#000000"/><text fill="#000000" font-family="sans-serif" font-size="14" lengthAdjust="spacing" textLength="90.1045" x="196" y="726.1436">objc_method</text><line style="stroke:#181818;stroke-width:0.5;" x1="168" x2="288.1045" y1="737.2969" y2="737.2969"/><line style="stroke:#181818;stroke-width:0.5;" x1="168" x2="288.1045" y1="745.2969" y2="745.2969"/></g></a><!--class C_0018241535739946484465--><a href="structclanguml_1_1sequence__diagram_1_1model_1_1function__template.html" target="_top" title="Participant model representing a function template." xlink:actuate="onRequest" xlink:href="structclanguml_1_1sequence__diagram_1_1model_1_1function__template.html" xlink:show="new" xlink:title="Participant model representing a function template." xlink:type="simple"><g id="elem_C_0018241535739946484465"><rect codeLine="57" fill="#F1F1F1" height="48" id="C_0018241535739946484465" rx="2.5" ry="2.5" style="stroke:#181818;stroke-width:0.5;" width="159.3877" x="324.5" y="705.2969"/><ellipse cx="339.5" cy="721.2969" fill="#ADD1B2" rx="11" ry="11" style="stroke:#181818;stroke-width:1;"/><path d="M342.4688,726.9375 Q341.8906,727.2344 341.25,727.375 Q340.6094,727.5313 339.9063,727.5313 Q337.4063,727.5313 336.0781,725.8906 Q334.7656,724.2344 334.7656,721.1094 Q334.7656,717.9844 336.0781,716.3281 Q337.4063,714.6719 339.9063,714.6719 Q340.6094,714.6719 341.25,714.8281 Q341.9063,714.9844 342.4688,715.2813 L342.4688,718 Q341.8438,717.4219 341.25,717.1563 Q340.6563,716.875 340.0313,716.875 Q338.6875,716.875 338,717.9531 Q337.3125,719.0156 337.3125,721.1094 Q337.3125,723.2031 338,724.2813 Q338.6875,725.3438 340.0313,725.3438 Q340.6563,725.3438 341.25,725.0781 Q341.8438,724.7969 342.4688,724.2188 L342.4688,726.9375 Z " fill="#000000"/><text fill="#000000" font-family="sans-serif" font-size="14" lengthAdjust="spacing" textLength="127.3877" x="353.5" y="726.1436">function_template</text><line style="stroke:#181818;stroke-width:0.5;" x1="325.5" x2="482.8877" y1="737.2969" y2="737.2969"/><line style="stroke:#181818;stroke-width:0.5;" x1="325.5" x2="482.8877" y1="745.2969" y2="745.2969"/></g></a><!--reverse link C_0001425108501944636238 to C_0001425108501944636238--><a href="" target="_top" title="template_params_" xlink:actuate="onRequest" xlink:href="" xlink:show="new" xlink:title="template_params_" xlink:type="simple"><path codeLine="62" d="M418.1649,259.5394 C438.2549,260.5494 441,263.7269 441,270.2969 C441,276.8669 426.27,280.6469 406.18,281.6569 " fill="transparent" id="C_0001425108501944636238-backto-C_0001425108501944636238" style="stroke:#181818;stroke-width:1;"/><polygon fill="transparent" points="406.18,258.9369,411.9716,263.2331,418.1649,259.5394,412.3733,255.2432,406.18,258.9369" style="stroke:#181818;stroke-width:1;"/><rect fill="transparent" height="6" style="stroke:#C82930;stroke-width:1;" width="6" x="449" y="267.8633"/><text fill="#000000" font-family="sans-serif" font-size="13" lengthAdjust="spacing" textLength="120.6499" x="459" y="274.8638">template_params_</text></a><!--reverse link C_0003717723700041732716 to C_0001425108501944636238--><a href="" target="_top" title="templates_" xlink:actuate="onRequest" xlink:href="" xlink:show="new" xlink:title="templates_" xlink:type="simple"><path codeLine="63" d="M605.9484,172.2593 C540.7884,194.2193 452.71,223.8969 386.56,246.1969 " fill="transparent" id="C_0003717723700041732716-backto-C_0001425108501944636238" style="stroke:#181818;stroke-width:1;"/><polygon fill="transparent" points="617.32,168.4269,610.3567,166.5526,605.9484,172.2593,612.9117,174.1336,617.32,168.4269" style="stroke:#181818;stroke-width:1;"/><rect fill="transparent" height="6" style="stroke:#C82930;stroke-width:1;" width="6" x="525" y="205.3633"/><text fill="#000000" font-family="sans-serif" font-size="13" lengthAdjust="spacing" textLength="71.957" x="535" y="212.3638">templates_</text></a><!--reverse link C_0003717723700041732716 to C_0013384831159811298387--><g id="link_C_0003717723700041732716_C_0013384831159811298387"><path codeLine="64" d="M683,187.4369 C683,209.4269 683,224.3069 683,246.2669 " fill="transparent" id="C_0003717723700041732716-backto-C_0013384831159811298387" style="stroke:#181818;stroke-width:1;"/><polygon fill="transparent" points="683,169.4369,677,187.4369,689,187.4369,683,169.4369" style="stroke:#181818;stroke-width:1;"/></g><!--reverse link C_0003717723700041732716 to C_0001633165731746789371--><g id="link_C_0003717723700041732716_C_0001633165731746789371"><path codeLine="65" d="M726.7499,181.0613 C748.7099,199.5813 763.81,215.8069 781,246.2969 C806.46,291.4669 801.48,308.1569 810,359.2969 C823.26,438.8469 864.87,471.3669 823,540.2969 C814.25,554.7069 800.16,565.3869 785.21,573.2169 " fill="transparent" id="C_0003717723700041732716-backto-C_0001633165731746789371" style="stroke:#181818;stroke-width:1;"/><polygon fill="transparent" points="712.99,169.4569,722.8818,185.648,730.6181,176.4747,712.99,169.4569" style="stroke:#181818;stroke-width:1;"/></g><!--reverse link C_0010336274859733225462 to C_0001633165731746789371--><a href="" target="_top" title="methods_" xlink:actuate="onRequest" xlink:href="" xlink:show="new" xlink:title="methods_" xlink:type="simple"><path codeLine="66" d="M745.407,505.0043 C739.337,526.9943 733.44,548.3069 727.37,570.2669 " fill="transparent" id="C_0010336274859733225462-backto-C_0001633165731746789371" style="stroke:#181818;stroke-width:1;"/><polygon fill="transparent" points="748.6,493.4369,743.1477,498.1562,745.407,505.0043,750.8593,500.2849,748.6,493.4369" style="stroke:#181818;stroke-width:1;"/><rect fill="transparent" height="6" style="stroke:#C82930;stroke-width:1;" width="6" x="743" y="529.3633"/><text fill="#000000" font-family="sans-serif" font-size="13" lengthAdjust="spacing" textLength="63.4766" x="753" y="536.3638">methods_</text></a><!--reverse link C_0013384831159811298387 to C_0010336274859733225462--><g id="link_C_0013384831159811298387_C_0010336274859733225462"><path codeLine="67" d="M697.7206,311.5725 C711.6206,349.5925 732.77,407.4569 746.58,445.2569 " fill="transparent" id="C_0013384831159811298387-backto-C_0010336274859733225462" style="stroke:#181818;stroke-width:1;"/><polygon fill="transparent" points="691.54,294.6669,692.0854,313.6327,703.3558,309.5123,691.54,294.6669" style="stroke:#181818;stroke-width:1;"/></g><!--reverse link C_0013384831159811298387 to C_0010998792414017796003--><g id="link_C_0013384831159811298387_C_0010998792414017796003"><path codeLine="68" d="M673.0462,312.1546 C663.7762,350.1746 649.82,407.4569 640.61,445.2569 " fill="transparent" id="C_0013384831159811298387-backto-C_0010998792414017796003" style="stroke:#181818;stroke-width:1;"/><polygon fill="transparent" points="677.31,294.6669,667.2169,310.7333,678.8754,313.5759,677.31,294.6669" style="stroke:#181818;stroke-width:1;"/></g><!--reverse link C_0013384831159811298387 to C_0011201726182739961811--><g id="link_C_0013384831159811298387_C_0011201726182739961811"><path codeLine="69" d="M640.122,305.6739 C621.332,320.3439 610.07,328.0569 586,342.2969 C514.21,384.7669 425.74,423.7269 370.08,446.7469 " fill="transparent" id="C_0013384831159811298387-backto-C_0011201726182739961811" style="stroke:#181818;stroke-width:1;"/><polygon fill="transparent" points="654.31,294.5969,636.4297,300.9446,643.8144,310.4033,654.31,294.5969" style="stroke:#181818;stroke-width:1;"/></g><!--reverse link C_0011201726182739961811 to C_0007084118972955772881--><g id="link_C_0011201726182739961811_C_0007084118972955772881"><path codeLine="70" d="M281.5864,506.4811 C260.6764,528.4711 241.79,548.3069 220.91,570.2669 " fill="transparent" id="C_0011201726182739961811-backto-C_0007084118972955772881" style="stroke:#181818;stroke-width:1;"/><polygon fill="transparent" points="293.99,493.4369,277.2384,502.3466,285.9345,510.6156,293.99,493.4369" style="stroke:#181818;stroke-width:1;"/></g><!--reverse link C_0011201726182739961811 to C_0001861107648253454629--><g id="link_C_0011201726182739961811_C_0001861107648253454629"><path codeLine="71" d="M316,511.4369 C316,533.4269 316,548.3069 316,570.2669 " fill="transparent" id="C_0011201726182739961811-backto-C_0001861107648253454629" style="stroke:#181818;stroke-width:1;"/><polygon fill="transparent" points="316,493.4369,310,511.4369,322,511.4369,316,493.4369" style="stroke:#181818;stroke-width:1;"/></g><!--reverse link C_0001861107648253454629 to C_0006541327780382276039--><g id="link_C_0001861107648253454629_C_0006541327780382276039"><path codeLine="72" d="M289.775,632.9324 C278.445,648.2924 272.56,653.4369 254,666.2969 C213.42,694.4069 196.21,687.9269 150,705.2969 C144.28,707.4469 138.26,709.7169 132.32,711.9569 " fill="transparent" id="C_0001861107648253454629-backto-C_0006541327780382276039" style="stroke:#181818;stroke-width:1;"/><polygon fill="transparent" points="300.46,618.4469,284.9465,629.3708,294.6035,636.4941,300.46,618.4469" style="stroke:#181818;stroke-width:1;"/></g><!--reverse link C_0001861107648253454629 to C_0013742559556936917396--><g id="link_C_0001861107648253454629_C_0013742559556936917396"><path codeLine="73" d="M290.7383,633.4789 C274.6883,657.7389 259.55,680.6169 243.45,704.9469 " fill="transparent" id="C_0001861107648253454629-backto-C_0013742559556936917396" style="stroke:#181818;stroke-width:1;"/><polygon fill="transparent" points="300.67,618.4669,285.7343,630.1683,295.7423,636.7895,300.67,618.4669" style="stroke:#181818;stroke-width:1;"/></g><!--reverse link C_0001861107648253454629 to C_0018241535739946484465--><g id="link_C_0001861107648253454629_C_0018241535739946484465"><path codeLine="74" d="M341.2617,633.4789 C357.3117,657.7389 372.45,680.6169 388.55,704.9469 " fill="transparent" id="C_0001861107648253454629-backto-C_0018241535739946484465" style="stroke:#181818;stroke-width:1;"/><polygon fill="transparent" points="331.33,618.4669,336.2577,636.7895,346.2657,630.1683,331.33,618.4669" style="stroke:#181818;stroke-width:1;"/></g><!--SRC=[fLV9Rjj84BthAngv98F4GkzBa5Cym5mIO33RnJ28Djsoc52aGb8P69xyUwgvKspAiiO238grlkfNrQKggLA7_dAxVMehXwh29XMwJ-n3ONV8fMxdiWhjydkNeZYrPOcsYIji4MyVLtiRVxKF3jt4-MwNPxV8bkWwmXXJmQZcc2h3956Q4AtGqw1UUnkqiPH6ASu5uPmJJALWeDq4UrMrYKLx2mcvoXMlUaF2gI1O2qmCvv99odHhjYH6DpUr0lpB7WwxD28HQPBtJtLU_g4FEaHTRwjT-lI7snUkX8gKgDD1lSgxuPqjm7kjbXSephFOxIlK_S7tqfSPn3zkRm5g5Ar-pF3M1p5WPOeeHPc2HquKeuh8CTQ0-CLOwuWDpkjQ3q6AhjZOsA4DuEZH7R6ZN9-0qUhqG0XZccj6Y3302seqqse492H-CP0sPWFbeorTormFmcQFFQk_7MoQR19tZ-uUKGQ7M095tHYD_mmizqwY5dnFNw8CXQmbrKOIfZ7NGfmWEvoJD0PG6KK4bzX8Ef2zYG1askRt8vfBneWKYX75fT86pdf2yxauMB7QTvV-f7Ajg8dR4g3stxnfkZzmo8tTSBJObq510OnYZ5A0HyT76n1VbcYJugz7CwheUZF97f1jZzotN_tGiIC4e-dFCH1Zu80e9noELna9_JK1CXU_54WRieNokHwl-GPTlttRZOj56fRksy61ofo951XWOEfI9QMlDd1XcOd0Go6KC9XB2QENS9ZI0nDXg5L9dEpjk7K91IigYQQA6M0xTEYuB04nb0L6tI6kndNf0GHBCueSRE3ljaZo0npeuzwLlcQTktuiZJoKpv8MAwmzTAEeWNeeglMakmBY2q1DYFldYOI3B0vmTdF8uYh9iz6Kq98Gh2JNSFjotrncCYNcuWjmT64R8B-FylOgnybl2WStHsSo1t4ywAJW1AukfJ7J54YCsGH2G7m1XF6KEmQG7YDebEUPvtTVukCvJPY2XKC0JIIiFGPkOICdDzjSV47wTUJ9g1xbiioJg9j_GxeQ1fXWmlSg1rh0YYJ6wGR4_uCmKP_0cPNl38E3styMLxpywkhK_lSqtIZBoFjzZwwENwyMzwfp0ynSdtBwuR_MQt11Ujuik2KiNhlv2IiFeQ5J3w3xkbfSqORqGql0EMQ1A_SCiz2Lj7WP3SKA3Vqpp48pTd6w3cQXkVQyMN2Ud64MwklLwzzS1Z_RAjXr_qsgBQex-0fQ-1twxehIDnfUopLPlVxqwP_F_Rk_xmvPTMYq-vV4hCcQe3VaK4l9Bpy1]--></g></svg>