<svg xmlns="http://www.w3.org/2000/svg" xmlns:xlink="http://www.w3.org/1999/xlink" contentStyleType="text/css" data-diagram-type="CLASS" height="525px" preserveAspectRatio="none" style="width:1658px;height:525px;background:#FFFFFF;" version="1.1" viewBox="0 0 1658 525" width="1658px" zoomAndPan="magnify"><title>'cpp_entity_index' class diagram</title><defs/><g><text fill="#000000" font-family="sans-serif" font-size="14" font-weight="bold" lengthAdjust="spacing" textLength="255.1855" x="694.6968" y="22.9951">'cpp_entity_index' class diagram</text><!--class C_0004485257828227364477--><a href="https://github.com/foonathan/cppast/blob/5329e377ab9b9ab9309e9641f3fcda04366a449a/include/cppast/cpp_attribute.hpp#L42" target="_top" title="cpp_attribute" xlink:actuate="onRequest" xlink:href="https://github.com/foonathan/cppast/blob/5329e377ab9b9ab9309e9641f3fcda04366a449a/include/cppast/cpp_attribute.hpp#L42" xlink:show="new" xlink:title="cpp_attribute" xlink:type="simple"><g id="elem_C_0004485257828227364477"><rect codeLine="4" fill="#F1F1F1" height="48" id="C_0004485257828227364477" rx="2.5" ry="2.5" style="stroke:#181818;stroke-width:0.5;" width="125.5361" x="1130.5" y="281.2969"/><ellipse cx="1145.5" cy="297.2969" fill="#ADD1B2" rx="11" ry="11" style="stroke:#181818;stroke-width:1;"/><path d="M1148.4688,302.9375 Q1147.8906,303.2344 1147.25,303.375 Q1146.6094,303.5313 1145.9063,303.5313 Q1143.4063,303.5313 1142.0781,301.8906 Q1140.7656,300.2344 1140.7656,297.1094 Q1140.7656,293.9844 1142.0781,292.3281 Q1143.4063,290.6719 1145.9063,290.6719 Q1146.6094,290.6719 1147.25,290.8281 Q1147.9063,290.9844 1148.4688,291.2813 L1148.4688,294 Q1147.8438,293.4219 1147.25,293.1563 Q1146.6563,292.875 1146.0313,292.875 Q1144.6875,292.875 1144,293.9531 Q1143.3125,295.0156 1143.3125,297.1094 Q1143.3125,299.2031 1144,300.2813 Q1144.6875,301.3438 1146.0313,301.3438 Q1146.6563,301.3438 1147.25,301.0781 Q1147.8438,300.7969 1148.4688,300.2188 L1148.4688,302.9375 Z " fill="#000000"/><text fill="#000000" font-family="sans-serif" font-size="14" lengthAdjust="spacing" textLength="93.5361" x="1159.5" y="302.1436">cpp_attribute</text><line style="stroke:#181818;stroke-width:0.5;" x1="1131.5" x2="1255.0361" y1="313.2969" y2="313.2969"/><line style="stroke:#181818;stroke-width:0.5;" x1="1131.5" x2="1255.0361" y1="321.2969" y2="321.2969"/></g></a><!--class C_0013528989159768861052--><a href="https://github.com/foonathan/cppast/blob/5329e377ab9b9ab9309e9641f3fcda04366a449a/include/cppast/cpp_entity.hpp#L22" target="_top" title="cpp_scope_name" xlink:actuate="onRequest" xlink:href="https://github.com/foonathan/cppast/blob/5329e377ab9b9ab9309e9641f3fcda04366a449a/include/cppast/cpp_entity.hpp#L22" xlink:show="new" xlink:title="cpp_scope_name" xlink:type="simple"><g id="elem_C_0013528989159768861052"><rect codeLine="8" fill="#F1F1F1" height="48" id="C_0013528989159768861052" rx="2.5" ry="2.5" style="stroke:#181818;stroke-width:0.5;" width="152.2305" x="402.5" y="44.2969"/><ellipse cx="417.5" cy="60.2969" fill="#ADD1B2" rx="11" ry="11" style="stroke:#181818;stroke-width:1;"/><path d="M420.4688,65.9375 Q419.8906,66.2344 419.25,66.375 Q418.6094,66.5313 417.9063,66.5313 Q415.4063,66.5313 414.0781,64.8906 Q412.7656,63.2344 412.7656,60.1094 Q412.7656,56.9844 414.0781,55.3281 Q415.4063,53.6719 417.9063,53.6719 Q418.6094,53.6719 419.25,53.8281 Q419.9063,53.9844 420.4688,54.2813 L420.4688,57 Q419.8438,56.4219 419.25,56.1563 Q418.6563,55.875 418.0313,55.875 Q416.6875,55.875 416,56.9531 Q415.3125,58.0156 415.3125,60.1094 Q415.3125,62.2031 416,63.2813 Q416.6875,64.3438 418.0313,64.3438 Q418.6563,64.3438 419.25,64.0781 Q419.8438,63.7969 420.4688,63.2188 L420.4688,65.9375 Z " fill="#000000"/><text fill="#000000" font-family="sans-serif" font-size="14" lengthAdjust="spacing" textLength="120.2305" x="431.5" y="65.1436">cpp_scope_name</text><line style="stroke:#181818;stroke-width:0.5;" x1="403.5" x2="553.7305" y1="76.2969" y2="76.2969"/><line style="stroke:#181818;stroke-width:0.5;" x1="403.5" x2="553.7305" y1="84.2969" y2="84.2969"/></g></a><!--class C_0014837562978658247224--><a href="https://github.com/foonathan/cppast/blob/5329e377ab9b9ab9309e9641f3fcda04366a449a/include/cppast/cpp_entity.hpp#L47" target="_top" title="cpp_entity" xlink:actuate="onRequest" xlink:href="https://github.com/foonathan/cppast/blob/5329e377ab9b9ab9309e9641f3fcda04366a449a/include/cppast/cpp_entity.hpp#L47" xlink:show="new" xlink:title="cpp_entity" xlink:type="simple"><g id="elem_C_0014837562978658247224"><rect codeLine="12" fill="#F1F1F1" height="48" id="C_0014837562978658247224" rx="2.5" ry="2.5" style="stroke:#181818;stroke-width:0.5;" width="105.1104" x="828" y="193.2969"/><ellipse cx="843" cy="209.2969" fill="#ADD1B2" rx="11" ry="11" style="stroke:#181818;stroke-width:1;"/><path d="M845.9688,214.9375 Q845.3906,215.2344 844.75,215.375 Q844.1094,215.5313 843.4063,215.5313 Q840.9063,215.5313 839.5781,213.8906 Q838.2656,212.2344 838.2656,209.1094 Q838.2656,205.9844 839.5781,204.3281 Q840.9063,202.6719 843.4063,202.6719 Q844.1094,202.6719 844.75,202.8281 Q845.4063,202.9844 845.9688,203.2813 L845.9688,206 Q845.3438,205.4219 844.75,205.1563 Q844.1563,204.875 843.5313,204.875 Q842.1875,204.875 841.5,205.9531 Q840.8125,207.0156 840.8125,209.1094 Q840.8125,211.2031 841.5,212.2813 Q842.1875,213.3438 843.5313,213.3438 Q844.1563,213.3438 844.75,213.0781 Q845.3438,212.7969 845.9688,212.2188 L845.9688,214.9375 Z " fill="#000000"/><text fill="#000000" font-family="sans-serif" font-size="14" lengthAdjust="spacing" textLength="73.1104" x="857" y="214.1436">cpp_entity</text><line style="stroke:#181818;stroke-width:0.5;" x1="829" x2="932.1104" y1="225.2969" y2="225.2969"/><line style="stroke:#181818;stroke-width:0.5;" x1="829" x2="932.1104" y1="233.2969" y2="233.2969"/></g></a><!--class C_0011598861676029238614--><a href="https://github.com/foonathan/cppast/blob/5329e377ab9b9ab9309e9641f3fcda04366a449a/include/cppast/cpp_entity.hpp#L187" target="_top" title="cpp_unexposed_entity" xlink:actuate="onRequest" xlink:href="https://github.com/foonathan/cppast/blob/5329e377ab9b9ab9309e9641f3fcda04366a449a/include/cppast/cpp_entity.hpp#L187" xlink:show="new" xlink:title="cpp_unexposed_entity" xlink:type="simple"><g id="elem_C_0011598861676029238614"><rect codeLine="16" fill="#F1F1F1" height="48" id="C_0011598861676029238614" rx="2.5" ry="2.5" style="stroke:#181818;stroke-width:0.5;" width="189.001" x="1099" y="127.2969"/><ellipse cx="1114" cy="143.2969" fill="#ADD1B2" rx="11" ry="11" style="stroke:#181818;stroke-width:1;"/><path d="M1116.9688,148.9375 Q1116.3906,149.2344 1115.75,149.375 Q1115.1094,149.5313 1114.4063,149.5313 Q1111.9063,149.5313 1110.5781,147.8906 Q1109.2656,146.2344 1109.2656,143.1094 Q1109.2656,139.9844 1110.5781,138.3281 Q1111.9063,136.6719 1114.4063,136.6719 Q1115.1094,136.6719 1115.75,136.8281 Q1116.4063,136.9844 1116.9688,137.2813 L1116.9688,140 Q1116.3438,139.4219 1115.75,139.1563 Q1115.1563,138.875 1114.5313,138.875 Q1113.1875,138.875 1112.5,139.9531 Q1111.8125,141.0156 1111.8125,143.1094 Q1111.8125,145.2031 1112.5,146.2813 Q1113.1875,147.3438 1114.5313,147.3438 Q1115.1563,147.3438 1115.75,147.0781 Q1116.3438,146.7969 1116.9688,146.2188 L1116.9688,148.9375 Z " fill="#000000"/><text fill="#000000" font-family="sans-serif" font-size="14" lengthAdjust="spacing" textLength="157.001" x="1128" y="148.1436">cpp_unexposed_entity</text><line style="stroke:#181818;stroke-width:0.5;" x1="1100" x2="1287.001" y1="159.2969" y2="159.2969"/><line style="stroke:#181818;stroke-width:0.5;" x1="1100" x2="1287.001" y1="167.2969" y2="167.2969"/></g></a><!--class C_0009218756409310628439--><a href="https://github.com/foonathan/cppast/blob/5329e377ab9b9ab9309e9641f3fcda04366a449a/include/cppast/cpp_entity_index.hpp#L38" target="_top" title="cpp_entity_id" xlink:actuate="onRequest" xlink:href="https://github.com/foonathan/cppast/blob/5329e377ab9b9ab9309e9641f3fcda04366a449a/include/cppast/cpp_entity_index.hpp#L38" xlink:show="new" xlink:title="cpp_entity_id" xlink:type="simple"><g id="elem_C_0009218756409310628439"><rect codeLine="20" fill="#F1F1F1" height="48" id="C_0009218756409310628439" rx="2.5" ry="2.5" style="stroke:#181818;stroke-width:0.5;" width="124.8867" x="1131" y="365.2969"/><ellipse cx="1146" cy="381.2969" fill="#ADD1B2" rx="11" ry="11" style="stroke:#181818;stroke-width:1;"/><path d="M1148.9688,386.9375 Q1148.3906,387.2344 1147.75,387.375 Q1147.1094,387.5313 1146.4063,387.5313 Q1143.9063,387.5313 1142.5781,385.8906 Q1141.2656,384.2344 1141.2656,381.1094 Q1141.2656,377.9844 1142.5781,376.3281 Q1143.9063,374.6719 1146.4063,374.6719 Q1147.1094,374.6719 1147.75,374.8281 Q1148.4063,374.9844 1148.9688,375.2813 L1148.9688,378 Q1148.3438,377.4219 1147.75,377.1563 Q1147.1563,376.875 1146.5313,376.875 Q1145.1875,376.875 1144.5,377.9531 Q1143.8125,379.0156 1143.8125,381.1094 Q1143.8125,383.2031 1144.5,384.2813 Q1145.1875,385.3438 1146.5313,385.3438 Q1147.1563,385.3438 1147.75,385.0781 Q1148.3438,384.7969 1148.9688,384.2188 L1148.9688,386.9375 Z " fill="#000000"/><text fill="#000000" font-family="sans-serif" font-size="14" lengthAdjust="spacing" textLength="92.8867" x="1160" y="386.1436">cpp_entity_id</text><line style="stroke:#181818;stroke-width:0.5;" x1="1132" x2="1254.8867" y1="397.2969" y2="397.2969"/><line style="stroke:#181818;stroke-width:0.5;" x1="1132" x2="1254.8867" y1="405.2969" y2="405.2969"/></g></a><!--class C_0015917849809320296332--><a href="https://github.com/foonathan/cppast/blob/5329e377ab9b9ab9309e9641f3fcda04366a449a/include/cppast/cpp_entity_index.hpp#L58" target="_top" title="cpp_entity_index" xlink:actuate="onRequest" xlink:href="https://github.com/foonathan/cppast/blob/5329e377ab9b9ab9309e9641f3fcda04366a449a/include/cppast/cpp_entity_index.hpp#L58" xlink:show="new" xlink:title="cpp_entity_index" xlink:type="simple"><g id="elem_C_0015917849809320296332"><rect codeLine="24" fill="#F1F1F1" height="48" id="C_0015917849809320296332" rx="2.5" ry="2.5" style="stroke:#181818;stroke-width:0.5;" width="150.6582" x="805" y="388.2969"/><ellipse cx="820" cy="404.2969" fill="#ADD1B2" rx="11" ry="11" style="stroke:#181818;stroke-width:1;"/><path d="M822.9688,409.9375 Q822.3906,410.2344 821.75,410.375 Q821.1094,410.5313 820.4063,410.5313 Q817.9063,410.5313 816.5781,408.8906 Q815.2656,407.2344 815.2656,404.1094 Q815.2656,400.9844 816.5781,399.3281 Q817.9063,397.6719 820.4063,397.6719 Q821.1094,397.6719 821.75,397.8281 Q822.4063,397.9844 822.9688,398.2813 L822.9688,401 Q822.3438,400.4219 821.75,400.1563 Q821.1563,399.875 820.5313,399.875 Q819.1875,399.875 818.5,400.9531 Q817.8125,402.0156 817.8125,404.1094 Q817.8125,406.2031 818.5,407.2813 Q819.1875,408.3438 820.5313,408.3438 Q821.1563,408.3438 821.75,408.0781 Q822.3438,407.7969 822.9688,407.2188 L822.9688,409.9375 Z " fill="#000000"/><text fill="#000000" font-family="sans-serif" font-size="14" lengthAdjust="spacing" textLength="118.6582" x="834" y="409.1436">cpp_entity_index</text><line style="stroke:#181818;stroke-width:0.5;" x1="806" x2="954.6582" y1="420.2969" y2="420.2969"/><line style="stroke:#181818;stroke-width:0.5;" x1="806" x2="954.6582" y1="428.2969" y2="428.2969"/></g></a><!--class C_0015916253088811816967--><a href="https://github.com/foonathan/cppast/blob/5329e377ab9b9ab9309e9641f3fcda04366a449a/include/cppast/cpp_entity_index.hpp#L62" target="_top" title="cpp_entity_index::duplicate_definition_error" xlink:actuate="onRequest" xlink:href="https://github.com/foonathan/cppast/blob/5329e377ab9b9ab9309e9641f3fcda04366a449a/include/cppast/cpp_entity_index.hpp#L62" xlink:show="new" xlink:title="cpp_entity_index::duplicate_definition_error" xlink:type="simple"><g id="elem_C_0015916253088811816967"><rect codeLine="28" fill="#F1F1F1" height="48" id="C_0015916253088811816967" rx="2.5" ry="2.5" style="stroke:#181818;stroke-width:0.5;" width="339.2412" x="309" y="387.2969"/><ellipse cx="324" cy="403.2969" fill="#ADD1B2" rx="11" ry="11" style="stroke:#181818;stroke-width:1;"/><path d="M326.9688,408.9375 Q326.3906,409.2344 325.75,409.375 Q325.1094,409.5313 324.4063,409.5313 Q321.9063,409.5313 320.5781,407.8906 Q319.2656,406.2344 319.2656,403.1094 Q319.2656,399.9844 320.5781,398.3281 Q321.9063,396.6719 324.4063,396.6719 Q325.1094,396.6719 325.75,396.8281 Q326.4063,396.9844 326.9688,397.2813 L326.9688,400 Q326.3438,399.4219 325.75,399.1563 Q325.1563,398.875 324.5313,398.875 Q323.1875,398.875 322.5,399.9531 Q321.8125,401.0156 321.8125,403.1094 Q321.8125,405.2031 322.5,406.2813 Q323.1875,407.3438 324.5313,407.3438 Q325.1563,407.3438 325.75,407.0781 Q326.3438,406.7969 326.9688,406.2188 L326.9688,408.9375 Z " fill="#000000"/><text fill="#000000" font-family="sans-serif" font-size="14" lengthAdjust="spacing" textLength="307.2412" x="338" y="408.1436">cpp_entity_index::duplicate_definition_error</text><line style="stroke:#181818;stroke-width:0.5;" x1="310" x2="647.2412" y1="419.2969" y2="419.2969"/><line style="stroke:#181818;stroke-width:0.5;" x1="310" x2="647.2412" y1="427.2969" y2="427.2969"/></g></a><!--class C_0005075454191225961157--><a href="https://github.com/foonathan/cppast/blob/5329e377ab9b9ab9309e9641f3fcda04366a449a/include/cppast/cpp_entity_index.hpp#L116" target="_top" title="cpp_entity_index::hash" xlink:actuate="onRequest" xlink:href="https://github.com/foonathan/cppast/blob/5329e377ab9b9ab9309e9641f3fcda04366a449a/include/cppast/cpp_entity_index.hpp#L116" xlink:show="new" xlink:title="cpp_entity_index::hash" xlink:type="simple"><g id="elem_C_0005075454191225961157"><rect codeLine="32" fill="#F1F1F1" height="48" id="C_0005075454191225961157" rx="2.5" ry="2.5" style="stroke:#181818;stroke-width:0.5;" width="193.7109" x="381.5" y="470.2969"/><ellipse cx="396.5" cy="486.2969" fill="#ADD1B2" rx="11" ry="11" style="stroke:#181818;stroke-width:1;"/><path d="M399.4688,491.9375 Q398.8906,492.2344 398.25,492.375 Q397.6094,492.5313 396.9063,492.5313 Q394.4063,492.5313 393.0781,490.8906 Q391.7656,489.2344 391.7656,486.1094 Q391.7656,482.9844 393.0781,481.3281 Q394.4063,479.6719 396.9063,479.6719 Q397.6094,479.6719 398.25,479.8281 Q398.9063,479.9844 399.4688,480.2813 L399.4688,483 Q398.8438,482.4219 398.25,482.1563 Q397.6563,481.875 397.0313,481.875 Q395.6875,481.875 395,482.9531 Q394.3125,484.0156 394.3125,486.1094 Q394.3125,488.2031 395,489.2813 Q395.6875,490.3438 397.0313,490.3438 Q397.6563,490.3438 398.25,490.0781 Q398.8438,489.7969 399.4688,489.2188 L399.4688,491.9375 Z " fill="#000000"/><text fill="#000000" font-family="sans-serif" font-size="14" lengthAdjust="spacing" textLength="161.7109" x="410.5" y="491.1436">cpp_entity_index::hash</text><line style="stroke:#181818;stroke-width:0.5;" x1="382.5" x2="574.2109" y1="502.2969" y2="502.2969"/><line style="stroke:#181818;stroke-width:0.5;" x1="382.5" x2="574.2109" y1="510.2969" y2="510.2969"/></g></a><!--class C_0015347669116277710106--><a href="https://github.com/foonathan/cppast/blob/5329e377ab9b9ab9309e9641f3fcda04366a449a/include/cppast/cpp_entity_index.hpp#L124" target="_top" title="cpp_entity_index::value" xlink:actuate="onRequest" xlink:href="https://github.com/foonathan/cppast/blob/5329e377ab9b9ab9309e9641f3fcda04366a449a/include/cppast/cpp_entity_index.hpp#L124" xlink:show="new" xlink:title="cpp_entity_index::value" xlink:type="simple"><g id="elem_C_0015347669116277710106"><rect codeLine="36" fill="#F1F1F1" height="48" id="C_0015347669116277710106" rx="2.5" ry="2.5" style="stroke:#181818;stroke-width:0.5;" width="198.332" x="379.5" y="300.2969"/><ellipse cx="394.5" cy="316.2969" fill="#ADD1B2" rx="11" ry="11" style="stroke:#181818;stroke-width:1;"/><path d="M397.4688,321.9375 Q396.8906,322.2344 396.25,322.375 Q395.6094,322.5313 394.9063,322.5313 Q392.4063,322.5313 391.0781,320.8906 Q389.7656,319.2344 389.7656,316.1094 Q389.7656,312.9844 391.0781,311.3281 Q392.4063,309.6719 394.9063,309.6719 Q395.6094,309.6719 396.25,309.8281 Q396.9063,309.9844 397.4688,310.2813 L397.4688,313 Q396.8438,312.4219 396.25,312.1563 Q395.6563,311.875 395.0313,311.875 Q393.6875,311.875 393,312.9531 Q392.3125,314.0156 392.3125,316.1094 Q392.3125,318.2031 393,319.2813 Q393.6875,320.3438 395.0313,320.3438 Q395.6563,320.3438 396.25,320.0781 Q396.8438,319.7969 397.4688,319.2188 L397.4688,321.9375 Z " fill="#000000"/><text fill="#000000" font-family="sans-serif" font-size="14" lengthAdjust="spacing" textLength="166.332" x="408.5" y="321.1436">cpp_entity_index::value</text><line style="stroke:#181818;stroke-width:0.5;" x1="380.5" x2="576.832" y1="332.2969" y2="332.2969"/><line style="stroke:#181818;stroke-width:0.5;" x1="380.5" x2="576.832" y1="340.2969" y2="340.2969"/></g></a><!--class C_0005317930743773681966--><a href="https://github.com/foonathan/cppast/blob/5329e377ab9b9ab9309e9641f3fcda04366a449a/include/cppast/code_generator.hpp#L142" target="_top" title="code_generator" xlink:actuate="onRequest" xlink:href="https://github.com/foonathan/cppast/blob/5329e377ab9b9ab9309e9641f3fcda04366a449a/include/cppast/code_generator.hpp#L142" xlink:show="new" xlink:title="code_generator" xlink:type="simple"><g id="elem_C_0005317930743773681966"><rect codeLine="40" fill="#F1F1F1" height="48" id="C_0005317930743773681966" rx="2.5" ry="2.5" style="stroke:#181818;stroke-width:0.5;" width="141.8945" x="407.5" y="128.2969"/><ellipse cx="422.5" cy="144.2969" fill="#ADD1B2" rx="11" ry="11" style="stroke:#181818;stroke-width:1;"/><path d="M425.4688,149.9375 Q424.8906,150.2344 424.25,150.375 Q423.6094,150.5313 422.9063,150.5313 Q420.4063,150.5313 419.0781,148.8906 Q417.7656,147.2344 417.7656,144.1094 Q417.7656,140.9844 419.0781,139.3281 Q420.4063,137.6719 422.9063,137.6719 Q423.6094,137.6719 424.25,137.8281 Q424.9063,137.9844 425.4688,138.2813 L425.4688,141 Q424.8438,140.4219 424.25,140.1563 Q423.6563,139.875 423.0313,139.875 Q421.6875,139.875 421,140.9531 Q420.3125,142.0156 420.3125,144.1094 Q420.3125,146.2031 421,147.2813 Q421.6875,148.3438 423.0313,148.3438 Q423.6563,148.3438 424.25,148.0781 Q424.8438,147.7969 425.4688,147.2188 L425.4688,149.9375 Z " fill="#000000"/><text fill="#000000" font-family="sans-serif" font-size="14" lengthAdjust="spacing" textLength="109.8945" x="436.5" y="149.1436">code_generator</text><line style="stroke:#181818;stroke-width:0.5;" x1="408.5" x2="548.3945" y1="160.2969" y2="160.2969"/><line style="stroke:#181818;stroke-width:0.5;" x1="408.5" x2="548.3945" y1="168.2969" y2="168.2969"/></g></a><!--class C_0001539461946534932835--><a href="https://github.com/foonathan/cppast/blob/5329e377ab9b9ab9309e9641f3fcda04366a449a/include/cppast/code_generator.hpp#L168" target="_top" title="code_generator::output" xlink:actuate="onRequest" xlink:href="https://github.com/foonathan/cppast/blob/5329e377ab9b9ab9309e9641f3fcda04366a449a/include/cppast/code_generator.hpp#L168" xlink:show="new" xlink:title="code_generator::output" xlink:type="simple"><g id="elem_C_0001539461946534932835"><rect codeLine="44" fill="#F1F1F1" height="48" id="C_0001539461946534932835" rx="2.5" ry="2.5" style="stroke:#181818;stroke-width:0.5;" width="197.5049" x="7" y="163.2969"/><ellipse cx="22" cy="179.2969" fill="#ADD1B2" rx="11" ry="11" style="stroke:#181818;stroke-width:1;"/><path d="M24.9688,184.9375 Q24.3906,185.2344 23.75,185.375 Q23.1094,185.5313 22.4063,185.5313 Q19.9063,185.5313 18.5781,183.8906 Q17.2656,182.2344 17.2656,179.1094 Q17.2656,175.9844 18.5781,174.3281 Q19.9063,172.6719 22.4063,172.6719 Q23.1094,172.6719 23.75,172.8281 Q24.4063,172.9844 24.9688,173.2813 L24.9688,176 Q24.3438,175.4219 23.75,175.1563 Q23.1563,174.875 22.5313,174.875 Q21.1875,174.875 20.5,175.9531 Q19.8125,177.0156 19.8125,179.1094 Q19.8125,181.2031 20.5,182.2813 Q21.1875,183.3438 22.5313,183.3438 Q23.1563,183.3438 23.75,183.0781 Q24.3438,182.7969 24.9688,182.2188 L24.9688,184.9375 Z " fill="#000000"/><text fill="#000000" font-family="sans-serif" font-size="14" lengthAdjust="spacing" textLength="165.5049" x="36" y="184.1436">code_generator::output</text><line style="stroke:#181818;stroke-width:0.5;" x1="8" x2="203.5049" y1="195.2969" y2="195.2969"/><line style="stroke:#181818;stroke-width:0.5;" x1="8" x2="203.5049" y1="203.2969" y2="203.2969"/></g></a><!--class C_0009267542389196346145--><a href="https://github.com/foonathan/cppast/blob/5329e377ab9b9ab9309e9641f3fcda04366a449a/include/cppast/cpp_template_parameter.hpp#L17" target="_top" title="cpp_template_parameter" xlink:actuate="onRequest" xlink:href="https://github.com/foonathan/cppast/blob/5329e377ab9b9ab9309e9641f3fcda04366a449a/include/cppast/cpp_template_parameter.hpp#L17" xlink:show="new" xlink:title="cpp_template_parameter" xlink:type="simple"><g id="elem_C_0009267542389196346145"><rect codeLine="48" fill="#F1F1F1" height="48" id="C_0009267542389196346145" rx="2.5" ry="2.5" style="stroke:#181818;stroke-width:0.5;" width="208.5791" x="1443" y="150.2969"/><ellipse cx="1458" cy="166.2969" fill="#ADD1B2" rx="11" ry="11" style="stroke:#181818;stroke-width:1;"/><path d="M1460.9688,171.9375 Q1460.3906,172.2344 1459.75,172.375 Q1459.1094,172.5313 1458.4063,172.5313 Q1455.9063,172.5313 1454.5781,170.8906 Q1453.2656,169.2344 1453.2656,166.1094 Q1453.2656,162.9844 1454.5781,161.3281 Q1455.9063,159.6719 1458.4063,159.6719 Q1459.1094,159.6719 1459.75,159.8281 Q1460.4063,159.9844 1460.9688,160.2813 L1460.9688,163 Q1460.3438,162.4219 1459.75,162.1563 Q1459.1563,161.875 1458.5313,161.875 Q1457.1875,161.875 1456.5,162.9531 Q1455.8125,164.0156 1455.8125,166.1094 Q1455.8125,168.2031 1456.5,169.2813 Q1457.1875,170.3438 1458.5313,170.3438 Q1459.1563,170.3438 1459.75,170.0781 Q1460.3438,169.7969 1460.9688,169.2188 L1460.9688,171.9375 Z " fill="#000000"/><text fill="#000000" font-family="sans-serif" font-size="14" lengthAdjust="spacing" textLength="176.5791" x="1472" y="171.1436">cpp_template_parameter</text><line style="stroke:#181818;stroke-width:0.5;" x1="1444" x2="1650.5791" y1="182.2969" y2="182.2969"/><line style="stroke:#181818;stroke-width:0.5;" x1="1444" x2="1650.5791" y1="190.2969" y2="190.2969"/></g></a><!--class C_0000056978405368650305--><a href="https://github.com/foonathan/cppast/blob/5329e377ab9b9ab9309e9641f3fcda04366a449a/include/cppast/cpp_template.hpp#L21" target="_top" title="cpp_template" xlink:actuate="onRequest" xlink:href="https://github.com/foonathan/cppast/blob/5329e377ab9b9ab9309e9641f3fcda04366a449a/include/cppast/cpp_template.hpp#L21" xlink:show="new" xlink:title="cpp_template" xlink:type="simple"><g id="elem_C_0000056978405368650305"><rect codeLine="52" fill="#F1F1F1" height="48" id="C_0000056978405368650305" rx="2.5" ry="2.5" style="stroke:#181818;stroke-width:0.5;" width="127.6689" x="1129.5" y="44.2969"/><ellipse cx="1144.5" cy="60.2969" fill="#ADD1B2" rx="11" ry="11" style="stroke:#181818;stroke-width:1;"/><path d="M1147.4688,65.9375 Q1146.8906,66.2344 1146.25,66.375 Q1145.6094,66.5313 1144.9063,66.5313 Q1142.4063,66.5313 1141.0781,64.8906 Q1139.7656,63.2344 1139.7656,60.1094 Q1139.7656,56.9844 1141.0781,55.3281 Q1142.4063,53.6719 1144.9063,53.6719 Q1145.6094,53.6719 1146.25,53.8281 Q1146.9063,53.9844 1147.4688,54.2813 L1147.4688,57 Q1146.8438,56.4219 1146.25,56.1563 Q1145.6563,55.875 1145.0313,55.875 Q1143.6875,55.875 1143,56.9531 Q1142.3125,58.0156 1142.3125,60.1094 Q1142.3125,62.2031 1143,63.2813 Q1143.6875,64.3438 1145.0313,64.3438 Q1145.6563,64.3438 1146.25,64.0781 Q1146.8438,63.7969 1147.4688,63.2188 L1147.4688,65.9375 Z " fill="#000000"/><text fill="#000000" font-family="sans-serif" font-size="14" lengthAdjust="spacing" textLength="95.6689" x="1158.5" y="65.1436">cpp_template</text><line style="stroke:#181818;stroke-width:0.5;" x1="1130.5" x2="1256.1689" y1="76.2969" y2="76.2969"/><line style="stroke:#181818;stroke-width:0.5;" x1="1130.5" x2="1256.1689" y1="84.2969" y2="84.2969"/></g></a><!--class C_0010549045533069850854--><a href="https://github.com/foonathan/cppast/blob/5329e377ab9b9ab9309e9641f3fcda04366a449a/include/cppast/cppast_fwd.hpp#L55" target="_top" title="cpp_namespace" xlink:actuate="onRequest" xlink:href="https://github.com/foonathan/cppast/blob/5329e377ab9b9ab9309e9641f3fcda04366a449a/include/cppast/cppast_fwd.hpp#L55" xlink:show="new" xlink:title="cpp_namespace" xlink:type="simple"><g id="elem_C_0010549045533069850854"><rect codeLine="56" fill="#F1F1F1" height="48" id="C_0010549045533069850854" rx="2.5" ry="2.5" style="stroke:#181818;stroke-width:0.5;" width="145.2441" x="1121" y="450.2969"/><ellipse cx="1136" cy="466.2969" fill="#ADD1B2" rx="11" ry="11" style="stroke:#181818;stroke-width:1;"/><path d="M1138.9688,471.9375 Q1138.3906,472.2344 1137.75,472.375 Q1137.1094,472.5313 1136.4063,472.5313 Q1133.9063,472.5313 1132.5781,470.8906 Q1131.2656,469.2344 1131.2656,466.1094 Q1131.2656,462.9844 1132.5781,461.3281 Q1133.9063,459.6719 1136.4063,459.6719 Q1137.1094,459.6719 1137.75,459.8281 Q1138.4063,459.9844 1138.9688,460.2813 L1138.9688,463 Q1138.3438,462.4219 1137.75,462.1563 Q1137.1563,461.875 1136.5313,461.875 Q1135.1875,461.875 1134.5,462.9531 Q1133.8125,464.0156 1133.8125,466.1094 Q1133.8125,468.2031 1134.5,469.2813 Q1135.1875,470.3438 1136.5313,470.3438 Q1137.1563,470.3438 1137.75,470.0781 Q1138.3438,469.7969 1138.9688,469.2188 L1138.9688,471.9375 Z " fill="#000000"/><text fill="#000000" font-family="sans-serif" font-size="14" lengthAdjust="spacing" textLength="113.2441" x="1150" y="471.1436">cpp_namespace</text><line style="stroke:#181818;stroke-width:0.5;" x1="1122" x2="1265.2441" y1="482.2969" y2="482.2969"/><line style="stroke:#181818;stroke-width:0.5;" x1="1122" x2="1265.2441" y1="490.2969" y2="490.2969"/></g></a><!--reverse link C_0013528989159768861052 to C_0014837562978658247224--><a href="https://github.com/foonathan/cppast/blob/5329e377ab9b9ab9309e9641f3fcda04366a449a/include/cppast/cpp_entity.hpp#L42" target="_top" title="entity_" xlink:actuate="onRequest" xlink:href="https://github.com/foonathan/cppast/blob/5329e377ab9b9ab9309e9641f3fcda04366a449a/include/cppast/cpp_entity.hpp#L42" xlink:show="new" xlink:title="entity_" xlink:type="simple"><path codeLine="59" d="M566.4108,87.6183 C595.7608,94.6383 617.85,100.6469 648,110.2969 C705.78,128.7869 720.04,134.6169 775,160.2969 C796.25,170.2269 819.2,182.5569 838.16,193.2069 " fill="transparent" id="C_0013528989159768861052-backto-C_0014837562978658247224" style="stroke:#181818;stroke-width:1;"/><polygon fill="transparent" points="554.74,84.8269,559.6449,90.1129,566.4108,87.6183,561.5059,82.3323,554.74,84.8269" style="stroke:#181818;stroke-width:1;"/><rect fill="transparent" height="6" style="stroke:#C82930;stroke-width:1;" width="6" x="700.5" y="109.3633"/><text fill="#000000" font-family="sans-serif" font-size="13" lengthAdjust="spacing" textLength="44.2368" x="710.5" y="116.3638">entity_</text></a><!--reverse link C_0013528989159768861052 to C_0000056978405368650305--><a href="https://github.com/foonathan/cppast/blob/5329e377ab9b9ab9309e9641f3fcda04366a449a/include/cppast/cpp_entity.hpp#L43" target="_top" title="templ_" xlink:actuate="onRequest" xlink:href="https://github.com/foonathan/cppast/blob/5329e377ab9b9ab9309e9641f3fcda04366a449a/include/cppast/cpp_entity.hpp#L43" xlink:show="new" xlink:title="templ_" xlink:type="simple"><path codeLine="60" d="M566.79,68.2969 C708.01,68.2969 998.21,68.2969 1129.47,68.2969 " fill="transparent" id="C_0013528989159768861052-backto-C_0000056978405368650305" style="stroke:#181818;stroke-width:1;"/><polygon fill="transparent" points="554.79,68.2969,560.79,72.2969,566.79,68.2969,560.79,64.2969,554.79,68.2969" style="stroke:#181818;stroke-width:1;"/><rect fill="transparent" height="6" style="stroke:#C82930;stroke-width:1;" width="6" x="854.5" y="57.3633"/><text fill="#000000" font-family="sans-serif" font-size="13" lengthAdjust="spacing" textLength="44.1226" x="864.5" y="64.3638">templ_</text></a><!--reverse link C_0014837562978658247224 to C_0004485257828227364477--><a href="https://github.com/foonathan/cppast/blob/5329e377ab9b9ab9309e9641f3fcda04366a449a/include/cppast/cpp_entity.hpp#L175" target="_top" title="attributes_" xlink:actuate="onRequest" xlink:href="https://github.com/foonathan/cppast/blob/5329e377ab9b9ab9309e9641f3fcda04366a449a/include/cppast/cpp_entity.hpp#L175" xlink:show="new" xlink:title="attributes_" xlink:type="simple"><path codeLine="61" d="M931.3719,247.2568 C950.4219,257.9168 963.51,263.8469 986,271.2969 C1033.08,286.8969 1088.66,295.5269 1130.29,300.1869 " fill="transparent" id="C_0014837562978658247224-backto-C_0004485257828227364477" style="stroke:#181818;stroke-width:1;"/><polygon fill="transparent" points="920.9,241.3969,924.1827,247.8175,931.3719,247.2568,928.0893,240.8362,920.9,241.3969" style="stroke:#181818;stroke-width:1;"/><rect fill="transparent" height="6" style="stroke:#C82930;stroke-width:1;" width="6" x="989" y="260.3633"/><text fill="#000000" font-family="sans-serif" font-size="13" lengthAdjust="spacing" textLength="69.9766" x="999" y="267.3638">attributes_</text></a><!--reverse link C_0014837562978658247224 to C_0014837562978658247224--><a href="https://github.com/foonathan/cppast/blob/5329e377ab9b9ab9309e9641f3fcda04366a449a/include/cppast/cpp_entity.hpp#L176" target="_top" title="parent_" xlink:actuate="onRequest" xlink:href="https://github.com/foonathan/cppast/blob/5329e377ab9b9ab9309e9641f3fcda04366a449a/include/cppast/cpp_entity.hpp#L176" xlink:show="new" xlink:title="parent_" xlink:type="simple"><path codeLine="62" d="M851.0855,182.1411 C843.1355,164.7311 856.26,158.2969 880.5,158.2969 C904.74,158.2969 912.88,175.6469 904.93,193.0569 " fill="transparent" id="C_0014837562978658247224-backto-C_0014837562978658247224" style="stroke:#181818;stroke-width:1;"/><polygon fill="transparent" points="856.07,193.0569,857.2163,185.9375,851.0855,182.1411,849.9391,189.2605,856.07,193.0569" style="stroke:#181818;stroke-width:1;"/><rect fill="transparent" height="6" style="stroke:#C82930;stroke-width:1;" width="6" x="852" y="142.3633"/><text fill="#000000" font-family="sans-serif" font-size="13" lengthAdjust="spacing" textLength="49.3975" x="862" y="149.3638">parent_</text></a><!--reverse link C_0014837562978658247224 to C_0011598861676029238614--><g id="link_C_0014837562978658247224_C_0011598861676029238614"><path codeLine="63" d="M950.8079,202.5901 C995.8079,193.0401 1044.53,182.6969 1098.84,171.1769 " fill="transparent" id="C_0014837562978658247224-backto-C_0011598861676029238614" style="stroke:#181818;stroke-width:1;"/><polygon fill="transparent" points="933.2,206.3269,952.0534,208.4594,949.5623,196.7208,933.2,206.3269" style="stroke:#181818;stroke-width:1;"/></g><!--reverse link C_0015917849809320296332 to C_0009218756409310628439--><a href="https://github.com/foonathan/cppast/blob/5329e377ab9b9ab9309e9641f3fcda04366a449a/include/cppast/cpp_entity_index.hpp#L135" target="_top" title="map_" xlink:actuate="onRequest" xlink:href="https://github.com/foonathan/cppast/blob/5329e377ab9b9ab9309e9641f3fcda04366a449a/include/cppast/cpp_entity_index.hpp#L135" xlink:show="new" xlink:title="map_" xlink:type="simple"><path codeLine="64" d="M968.2147,419.4952 C978.2147,420.1452 976.36,419.9269 986,420.2969 C1022.86,421.7069 1032.39,424.8169 1069,420.2969 C1089.4,417.7769 1111.28,412.9969 1130.87,407.9269 " fill="transparent" id="C_0015917849809320296332-backto-C_0009218756409310628439" style="stroke:#181818;stroke-width:1;"/><polygon fill="transparent" points="956.24,418.7169,961.9679,423.0976,968.2147,419.4952,962.4868,415.1145,956.24,418.7169" style="stroke:#181818;stroke-width:1;"/><rect fill="transparent" height="6" style="stroke:#C82930;stroke-width:1;" width="6" x="1006" y="409.3633"/><text fill="#000000" font-family="sans-serif" font-size="13" lengthAdjust="spacing" textLength="35.3818" x="1016" y="416.3638">map_</text></a><!--reverse link C_0015917849809320296332 to C_0009218756409310628439--><a href="https://github.com/foonathan/cppast/blob/5329e377ab9b9ab9309e9641f3fcda04366a449a/include/cppast/cpp_entity_index.hpp#L138" target="_top" title="ns_" xlink:actuate="onRequest" xlink:href="https://github.com/foonathan/cppast/blob/5329e377ab9b9ab9309e9641f3fcda04366a449a/include/cppast/cpp_entity_index.hpp#L138" xlink:show="new" xlink:title="ns_" xlink:type="simple"><path codeLine="65" d="M968.1341,400.9595 C978.1341,399.8295 976.35,400.1269 986,399.2969 C1034.63,395.0969 1089.87,392.5369 1130.98,391.0669 " fill="transparent" id="C_0015917849809320296332-backto-C_0009218756409310628439-1" style="stroke:#181818;stroke-width:1;"/><polygon fill="transparent" points="956.21,402.3069,962.6212,405.6079,968.1341,400.9595,961.7229,397.6585,956.21,402.3069" style="stroke:#181818;stroke-width:1;"/><rect fill="transparent" height="6" style="stroke:#C82930;stroke-width:1;" width="6" x="1013" y="383.3633"/><text fill="#000000" font-family="sans-serif" font-size="13" lengthAdjust="spacing" textLength="21.5122" x="1023" y="390.3638">ns_</text></a><!--reverse link C_0015917849809320296332 to C_0010549045533069850854--><a href="https://github.com/foonathan/cppast/blob/5329e377ab9b9ab9309e9641f3fcda04366a449a/include/cppast/cpp_entity_index.hpp#L138" target="_top" title="ns_" xlink:actuate="onRequest" xlink:href="https://github.com/foonathan/cppast/blob/5329e377ab9b9ab9309e9641f3fcda04366a449a/include/cppast/cpp_entity_index.hpp#L138" xlink:show="new" xlink:title="ns_" xlink:type="simple"><path codeLine="66" d="M955.8242,440.1116 C969.3842,444.6316 972.36,445.1269 986,448.2969 C1030.17,458.5669 1080.66,465.0169 1120.66,468.9269 " fill="transparent" id="C_0015917849809320296332-backto-C_0010549045533069850854" style="stroke:#181818;stroke-width:1;"/><polygon fill="transparent" points="944.44,436.3169,948.8672,442.009,955.8242,440.1116,951.397,434.4195,944.44,436.3169" style="stroke:#181818;stroke-width:1;"/><rect fill="transparent" height="6" style="stroke:#C82930;stroke-width:1;" width="6" x="1013" y="437.3633"/><text fill="#000000" font-family="sans-serif" font-size="13" lengthAdjust="spacing" textLength="21.5122" x="1023" y="444.3638">ns_</text></a><!--link C_0015916253088811816967 to C_0015917849809320296332--><g id="link_C_0015916253088811816967_C_0015917849809320296332"><path codeLine="67" d="M648.27,411.7169 C702.89,411.8569 744.7,411.957 788.85,412.067 " fill="transparent" id="C_0015916253088811816967-to-C_0015917849809320296332" style="stroke:#181818;stroke-width:1;"/><ellipse cx="796.85" cy="412.0869" fill="#FFFFFF" rx="8" ry="8" style="stroke:#181818;stroke-width:1;"/><line style="stroke:#181818;stroke-width:1;" x1="788.85" x2="804.85" y1="412.067" y2="412.1069"/><line style="stroke:#181818;stroke-width:1;" x1="796.87" x2="796.8301" y1="404.087" y2="420.0869"/></g><!--link C_0005075454191225961157 to C_0015917849809320296332--><g id="link_C_0005075454191225961157_C_0015917849809320296332"><path codeLine="68" d="M575.56,474.6069 C645.95,460.1769 724.4457,444.0787 789.2057,430.8087 " fill="transparent" id="C_0005075454191225961157-to-C_0015917849809320296332" style="stroke:#181818;stroke-width:1;"/><ellipse cx="797.0428" cy="429.2028" fill="#FFFFFF" rx="8" ry="8" style="stroke:#181818;stroke-width:1;"/><line style="stroke:#181818;stroke-width:1;" x1="789.2057" x2="804.88" y1="430.8087" y2="427.5969"/><line style="stroke:#181818;stroke-width:1;" x1="795.4369" x2="798.6488" y1="421.3656" y2="437.0399"/></g><!--link C_0015347669116277710106 to C_0015917849809320296332--><g id="link_C_0015347669116277710106_C_0015917849809320296332"><path codeLine="69" d="M577.53,343.9169 C635.15,355.6869 709.34,371.2469 775,386.2969 C784.66,388.5069 779.2525,387.1488 789.2525,389.5788 " fill="transparent" id="C_0015347669116277710106-to-C_0015917849809320296332" style="stroke:#181818;stroke-width:1;"/><ellipse cx="797.0262" cy="391.4678" fill="#FFFFFF" rx="8" ry="8" style="stroke:#181818;stroke-width:1;"/><line style="stroke:#181818;stroke-width:1;" x1="789.2525" x2="804.8" y1="389.5788" y2="393.3569"/><line style="stroke:#181818;stroke-width:1;" x1="798.9153" x2="795.1372" y1="383.6941" y2="399.2416"/></g><!--reverse link C_0015347669116277710106 to C_0014837562978658247224--><a href="https://github.com/foonathan/cppast/blob/5329e377ab9b9ab9309e9641f3fcda04366a449a/include/cppast/cpp_entity_index.hpp#L126" target="_top" title="entity" xlink:actuate="onRequest" xlink:href="https://github.com/foonathan/cppast/blob/5329e377ab9b9ab9309e9641f3fcda04366a449a/include/cppast/cpp_entity_index.hpp#L126" xlink:show="new" xlink:title="entity" xlink:type="simple"><path codeLine="70" d="M589.7227,312.556 C648.1127,304.696 711.08,292.9869 775,271.2969 C797.24,263.7469 820.59,252.0869 839.56,241.5269 " fill="transparent" id="C_0015347669116277710106-backto-C_0014837562978658247224" style="stroke:#181818;stroke-width:1;"/><polygon fill="transparent" points="577.83,314.1569,584.31,317.3207,589.7227,312.556,583.2427,309.3922,577.83,314.1569" style="stroke:#181818;stroke-width:1;"/><ellipse cx="707" cy="263.3633" fill="transparent" rx="3" ry="3" style="stroke:#038048;stroke-width:1;"/><text fill="#000000" font-family="sans-serif" font-size="13" lengthAdjust="spacing" textLength="37.7368" x="714" y="267.3638">entity</text></a><!--reverse link C_0005317930743773681966 to C_0014837562978658247224--><a href="https://github.com/foonathan/cppast/blob/5329e377ab9b9ab9309e9641f3fcda04366a449a/include/cppast/code_generator.hpp#L509" target="_top" title="main_entity_" xlink:actuate="onRequest" xlink:href="https://github.com/foonathan/cppast/blob/5329e377ab9b9ab9309e9641f3fcda04366a449a/include/cppast/code_generator.hpp#L509" xlink:show="new" xlink:title="main_entity_" xlink:type="simple"><path codeLine="71" d="M561.4748,165.6209 C641.0148,178.5409 757,197.3869 827.91,208.9169 " fill="transparent" id="C_0005317930743773681966-backto-C_0014837562978658247224" style="stroke:#181818;stroke-width:1;"/><polygon fill="transparent" points="549.63,163.6969,554.911,168.6071,561.4748,165.6209,556.1937,160.7106,549.63,163.6969" style="stroke:#181818;stroke-width:1;"/><rect fill="transparent" height="6" style="stroke:#C82930;stroke-width:1;" width="6" x="681" y="174.3633"/><text fill="#000000" font-family="sans-serif" font-size="13" lengthAdjust="spacing" textLength="83.2178" x="691" y="181.3638">main_entity_</text></a><!--link C_0001539461946534932835 to C_0005317930743773681966--><g id="link_C_0001539461946534932835_C_0005317930743773681966"><path codeLine="72" d="M205.31,178.0069 C268.88,172.0069 334.1708,165.83 391.2908,160.44 " fill="transparent" id="C_0001539461946534932835-to-C_0005317930743773681966" style="stroke:#181818;stroke-width:1;"/><ellipse cx="399.2554" cy="159.6884" fill="#FFFFFF" rx="8" ry="8" style="stroke:#181818;stroke-width:1;"/><line style="stroke:#181818;stroke-width:1;" x1="391.2908" x2="407.22" y1="160.44" y2="158.9369"/><line style="stroke:#181818;stroke-width:1;" x1="398.5038" x2="400.0069" y1="151.7238" y2="167.6531"/></g><!--reverse link C_0001539461946534932835 to C_0005317930743773681966--><a href="https://github.com/foonathan/cppast/blob/5329e377ab9b9ab9309e9641f3fcda04366a449a/include/cppast/code_generator.hpp#L355" target="_top" title="gen_" xlink:actuate="onRequest" xlink:href="https://github.com/foonathan/cppast/blob/5329e377ab9b9ab9309e9641f3fcda04366a449a/include/cppast/code_generator.hpp#L355" xlink:show="new" xlink:title="gen_" xlink:type="simple"><path codeLine="73" d="M216.9771,170.3387 C227.0671,169.0087 225.28,169.3369 235,168.2969 C292.89,162.0969 358.84,157.9369 407.33,155.4069 " fill="transparent" id="C_0001539461946534932835-backto-C_0005317930743773681966" style="stroke:#181818;stroke-width:1;"/><polygon fill="transparent" points="205.08,171.9069,211.5513,175.0885,216.9771,170.3387,210.5058,167.1571,205.08,171.9069" style="stroke:#181818;stroke-width:1;"/><rect fill="transparent" height="6" style="stroke:#C82930;stroke-width:1;" width="6" x="238" y="154.3633"/><text fill="#000000" font-family="sans-serif" font-size="13" lengthAdjust="spacing" textLength="30.9893" x="248" y="161.3638">gen_</text></a><!--reverse link C_0001539461946534932835 to C_0014837562978658247224--><a href="https://github.com/foonathan/cppast/blob/5329e377ab9b9ab9309e9641f3fcda04366a449a/include/cppast/code_generator.hpp#L356" target="_top" title="e_" xlink:actuate="onRequest" xlink:href="https://github.com/foonathan/cppast/blob/5329e377ab9b9ab9309e9641f3fcda04366a449a/include/cppast/code_generator.hpp#L356" xlink:show="new" xlink:title="e_" xlink:type="simple"><path codeLine="74" d="M217.1171,201.9046 C250.0471,205.7946 275.09,208.1669 309,210.2969 C500.04,222.3169 727.75,220.1769 827.91,218.4069 " fill="transparent" id="C_0001539461946534932835-backto-C_0014837562978658247224" style="stroke:#181818;stroke-width:1;"/><polygon fill="transparent" points="205.2,200.4969,210.6893,205.1731,217.1171,201.9046,211.6278,197.2284,205.2,200.4969" style="stroke:#181818;stroke-width:1;"/><rect fill="transparent" height="6" style="stroke:#C82930;stroke-width:1;" width="6" x="467.5" y="199.3633"/><text fill="#000000" font-family="sans-serif" font-size="13" lengthAdjust="spacing" textLength="14.498" x="477.5" y="206.3638">e_</text></a><!--reverse link C_0014837562978658247224 to C_0009267542389196346145--><g id="link_C_0014837562978658247224_C_0009267542389196346145"><path codeLine="75" d="M951.1284,213.1911 C1028.3484,208.6111 1160.47,200.6569 1288,192.2969 C1338.95,188.9569 1395.54,185.0369 1442.74,181.7169 " fill="transparent" id="C_0014837562978658247224-backto-C_0009267542389196346145" style="stroke:#181818;stroke-width:1;"/><polygon fill="transparent" points="933.16,214.2569,951.4837,219.1806,950.7732,207.2017,933.16,214.2569" style="stroke:#181818;stroke-width:1;"/></g><!--reverse link C_0000056978405368650305 to C_0009267542389196346145--><a href="https://github.com/foonathan/cppast/blob/5329e377ab9b9ab9309e9641f3fcda04366a449a/include/cppast/cpp_template.hpp#L89" target="_top" title="parameters_" xlink:actuate="onRequest" xlink:href="https://github.com/foonathan/cppast/blob/5329e377ab9b9ab9309e9641f3fcda04366a449a/include/cppast/cpp_template.hpp#L89" xlink:show="new" xlink:title="parameters_" xlink:type="simple"><path codeLine="76" d="M1269.33,90.8282 C1327.82,108.4482 1403.46,131.2169 1466.68,150.2569 " fill="transparent" id="C_0000056978405368650305-backto-C_0009267542389196346145" style="stroke:#181818;stroke-width:1;"/><polygon fill="transparent" points="1257.84,87.3669,1262.4312,92.9275,1269.33,90.8282,1264.7388,85.2676,1257.84,87.3669" style="stroke:#181818;stroke-width:1;"/><rect fill="transparent" height="6" style="stroke:#C82930;stroke-width:1;" width="6" x="1321" y="95.3633"/><text fill="#000000" font-family="sans-serif" font-size="13" lengthAdjust="spacing" textLength="81.9038" x="1331" y="102.3638">parameters_</text></a><!--reverse link C_0014837562978658247224 to C_0000056978405368650305--><g id="link_C_0014837562978658247224_C_0000056978405368650305"><path codeLine="77" d="M939.5711,184.5366 C958.4311,174.0766 965.28,170.6069 986,160.2969 C1035.33,135.7569 1048.66,131.6969 1099,109.2969 C1111.31,103.8169 1124.55,97.9869 1137.08,92.4769 " fill="transparent" id="C_0014837562978658247224-backto-C_0000056978405368650305" style="stroke:#181818;stroke-width:1;"/><polygon fill="transparent" points="923.83,193.2669,942.4812,189.7837,936.661,179.2896,923.83,193.2669" style="stroke:#181818;stroke-width:1;"/></g><!--SRC=[rPZBijeu48RtVWfNPd4obG5qlr2pcyLiJfOpcrJA9R00Lu7jikLSoicxZnpZYmxoWMI1cGLWToEZJzqj_Or9p567JziyZtHg4lCrIj9OVtaAjqTLbc6Sg7sXJi5Hxqneih18zWTZhONUcYHBW_PRRvhXofWYsLH6lmbL6VuL0G084HHHBf10Y6D62EVd4LFkyCE7Wp5vkLwjzeavL9lbDZkjTbcMAdDGwSh-a2hDQdFCDYkAaTIOSxMH6sdVC91QCW9tUBUD5I2OCKM8LAiatHwhM7U3dSak3td-spD1jMFz_l5ZM0TH57mV4vRRBDTHgau38iGK2Iaaf98p8HW458qGVUvx8RRXRFbGopS0-07R8GCS4PXJXYGNZ0f4E49a3ETnpm57U3sO_61Lgh_aMQdZ2qGRcIOkZ3E09CBsqa7qkET0XA9bVCdnMXYZ91ugKIBx2Ce8a1W2XWJ1Sbo97lTzCTjTfuN5edOeNeTinWtXf19oGQIm8CX6Z67ibAF7FHydTJaRntNKzJgkycEoLKP7iTubQTBimv4kYgnmbe4XYe4G0a81cMJynJAyTC-t30pLFmDvon8TL7aOSfy2JWabK4A4g6IsffrJoEEURp4WPBMVvnRkJ-fOZSucYWbdJDfd8iuv1BQqdIouTCy8ZaWz0UGXps8TxNMg2sL6QGyeXjpEWnCxBSm4b8mvaRvqtmNOcUqPjr4SZlqQvNgTLIQlp41h0oW9W_Pb8satD87fcDRZdesMYTfFuyzgeq_viId-N5dngOqknYSPi_LgZs9fuuSj8A7kINRXlbTINyxwJD-UtPVkr-47P9kvp8eiOXEOMQa5C72GFUvx8vzL9dH0_NYD-YnpjHtjKu0I2GYb60Cc1GM2EXhCuxuJd_s8Tf_Zyt5DQsV-8xn9gPyj5eybbL5ztc2RsQ_3nVdkEi6SMUOGuFf7VdK0xKqmkSZz_6TiDXqbpsdTjvbbHp6oN4Tvb6I2dDLsBxEc3kDyDutmvxUEmTTtJKhqFeWFrQVOUgbFAk_Wcyl_7uAeqpuBq_86W1ctuvy2k6Xm5ejtqptYP2TmTPHNHl_QgCSfS5UPithujs4TlcjlWab9FJk6Hu5I86sj9cda7dzZKp2fchjeUlkBoL5znJzGsu6jYB6c3h-vl0xmI774r2PZBrvkEMcy3SEaeibU6JMFg1QoxXk6SdJGTfPRbi3NG0HFVxTBg-FmiyLf_l1FzulgTFmZ_6GVd6Hf29Pi2OAdv-T_t_UsVpPLQghssxqHoYLSml0jh7vuuU__0G00]--></g></svg>