<svg xmlns="http://www.w3.org/2000/svg" xmlns:xlink="http://www.w3.org/1999/xlink" contentStyleType="text/css" data-diagram-type="CLASS" height="265px" preserveAspectRatio="none" style="width:424px;height:265px;background:#FFFFFF;" version="1.1" viewBox="0 0 424 265" width="424px" zoomAndPan="magnify"><title>'cpp_entity' class hierarchy</title><defs/><g><text fill="#000000" font-family="sans-serif" font-size="14" font-weight="bold" lengthAdjust="spacing" textLength="214.5527" x="97.7241" y="22.9951">'cpp_entity' class hierarchy</text><!--class C_0014837562978658247224--><a href="https://github.com/foonathan/cppast/blob/5329e377ab9b9ab9309e9641f3fcda04366a449a/include/cppast/cpp_entity.hpp#L47" target="_top" title="cpp_entity" xlink:actuate="onRequest" xlink:href="https://github.com/foonathan/cppast/blob/5329e377ab9b9ab9309e9641f3fcda04366a449a/include/cppast/cpp_entity.hpp#L47" xlink:show="new" xlink:title="cpp_entity" xlink:type="simple"><g id="elem_C_0014837562978658247224"><rect codeLine="4" fill="#F1F1F1" height="48" id="C_0014837562978658247224" rx="2.5" ry="2.5" style="stroke:#181818;stroke-width:0.5;" width="105.1104" x="35" y="127.2969"/><ellipse cx="50" cy="143.2969" fill="#ADD1B2" rx="11" ry="11" style="stroke:#181818;stroke-width:1;"/><path d="M52.9688,148.9375 Q52.3906,149.2344 51.75,149.375 Q51.1094,149.5313 50.4063,149.5313 Q47.9063,149.5313 46.5781,147.8906 Q45.2656,146.2344 45.2656,143.1094 Q45.2656,139.9844 46.5781,138.3281 Q47.9063,136.6719 50.4063,136.6719 Q51.1094,136.6719 51.75,136.8281 Q52.4063,136.9844 52.9688,137.2813 L52.9688,140 Q52.3438,139.4219 51.75,139.1563 Q51.1563,138.875 50.5313,138.875 Q49.1875,138.875 48.5,139.9531 Q47.8125,141.0156 47.8125,143.1094 Q47.8125,145.2031 48.5,146.2813 Q49.1875,147.3438 50.5313,147.3438 Q51.1563,147.3438 51.75,147.0781 Q52.3438,146.7969 52.9688,146.2188 L52.9688,148.9375 Z " fill="#000000"/><text fill="#000000" font-family="sans-serif" font-size="14" lengthAdjust="spacing" textLength="73.1104" x="64" y="148.1436">cpp_entity</text><line style="stroke:#181818;stroke-width:0.5;" x1="36" x2="139.1104" y1="159.2969" y2="159.2969"/><line style="stroke:#181818;stroke-width:0.5;" x1="36" x2="139.1104" y1="167.2969" y2="167.2969"/></g></a><!--class C_0011598861676029238614--><a href="https://github.com/foonathan/cppast/blob/5329e377ab9b9ab9309e9641f3fcda04366a449a/include/cppast/cpp_entity.hpp#L187" target="_top" title="cpp_unexposed_entity" xlink:actuate="onRequest" xlink:href="https://github.com/foonathan/cppast/blob/5329e377ab9b9ab9309e9641f3fcda04366a449a/include/cppast/cpp_entity.hpp#L187" xlink:show="new" xlink:title="cpp_unexposed_entity" xlink:type="simple"><g id="elem_C_0011598861676029238614"><rect codeLine="8" fill="#F1F1F1" height="48" id="C_0011598861676029238614" rx="2.5" ry="2.5" style="stroke:#181818;stroke-width:0.5;" width="189.001" x="228" y="44.2969"/><ellipse cx="243" cy="60.2969" fill="#ADD1B2" rx="11" ry="11" style="stroke:#181818;stroke-width:1;"/><path d="M245.9688,65.9375 Q245.3906,66.2344 244.75,66.375 Q244.1094,66.5313 243.4063,66.5313 Q240.9063,66.5313 239.5781,64.8906 Q238.2656,63.2344 238.2656,60.1094 Q238.2656,56.9844 239.5781,55.3281 Q240.9063,53.6719 243.4063,53.6719 Q244.1094,53.6719 244.75,53.8281 Q245.4063,53.9844 245.9688,54.2813 L245.9688,57 Q245.3438,56.4219 244.75,56.1563 Q244.1563,55.875 243.5313,55.875 Q242.1875,55.875 241.5,56.9531 Q240.8125,58.0156 240.8125,60.1094 Q240.8125,62.2031 241.5,63.2813 Q242.1875,64.3438 243.5313,64.3438 Q244.1563,64.3438 244.75,64.0781 Q245.3438,63.7969 245.9688,63.2188 L245.9688,65.9375 Z " fill="#000000"/><text fill="#000000" font-family="sans-serif" font-size="14" lengthAdjust="spacing" textLength="157.001" x="257" y="65.1436">cpp_unexposed_entity</text><line style="stroke:#181818;stroke-width:0.5;" x1="229" x2="416.001" y1="76.2969" y2="76.2969"/><line style="stroke:#181818;stroke-width:0.5;" x1="229" x2="416.001" y1="84.2969" y2="84.2969"/></g></a><!--class C_0002424370915184415608--><a href="https://github.com/foonathan/cppast/blob/5329e377ab9b9ab9309e9641f3fcda04366a449a/include/cppast/cpp_friend.hpp#L19" target="_top" title="cpp_friend" xlink:actuate="onRequest" xlink:href="https://github.com/foonathan/cppast/blob/5329e377ab9b9ab9309e9641f3fcda04366a449a/include/cppast/cpp_friend.hpp#L19" xlink:show="new" xlink:title="cpp_friend" xlink:type="simple"><g id="elem_C_0002424370915184415608"><rect codeLine="12" fill="#F1F1F1" height="48" id="C_0002424370915184415608" rx="2.5" ry="2.5" style="stroke:#181818;stroke-width:0.5;" width="105.418" x="270" y="127.2969"/><ellipse cx="285" cy="143.2969" fill="#ADD1B2" rx="11" ry="11" style="stroke:#181818;stroke-width:1;"/><path d="M287.9688,148.9375 Q287.3906,149.2344 286.75,149.375 Q286.1094,149.5313 285.4063,149.5313 Q282.9063,149.5313 281.5781,147.8906 Q280.2656,146.2344 280.2656,143.1094 Q280.2656,139.9844 281.5781,138.3281 Q282.9063,136.6719 285.4063,136.6719 Q286.1094,136.6719 286.75,136.8281 Q287.4063,136.9844 287.9688,137.2813 L287.9688,140 Q287.3438,139.4219 286.75,139.1563 Q286.1563,138.875 285.5313,138.875 Q284.1875,138.875 283.5,139.9531 Q282.8125,141.0156 282.8125,143.1094 Q282.8125,145.2031 283.5,146.2813 Q284.1875,147.3438 285.5313,147.3438 Q286.1563,147.3438 286.75,147.0781 Q287.3438,146.7969 287.9688,146.2188 L287.9688,148.9375 Z " fill="#000000"/><text fill="#000000" font-family="sans-serif" font-size="14" lengthAdjust="spacing" textLength="73.418" x="299" y="148.1436">cpp_friend</text><line style="stroke:#181818;stroke-width:0.5;" x1="271" x2="374.418" y1="159.2969" y2="159.2969"/><line style="stroke:#181818;stroke-width:0.5;" x1="271" x2="374.418" y1="167.2969" y2="167.2969"/></g></a><!--class C_0001476801060215450073--><a href="https://github.com/foonathan/cppast/blob/5329e377ab9b9ab9309e9641f3fcda04366a449a/include/cppast/cppast_fwd.hpp#L79" target="_top" title="cpp_variable_base" xlink:actuate="onRequest" xlink:href="https://github.com/foonathan/cppast/blob/5329e377ab9b9ab9309e9641f3fcda04366a449a/include/cppast/cppast_fwd.hpp#L79" xlink:show="new" xlink:title="cpp_variable_base" xlink:type="simple"><g id="elem_C_0001476801060215450073"><rect codeLine="16" fill="#F1F1F1" height="48" id="C_0001476801060215450073" rx="2.5" ry="2.5" style="stroke:#181818;stroke-width:0.5;" width="161.3223" x="7" y="44.2969"/><ellipse cx="22" cy="60.2969" fill="#ADD1B2" rx="11" ry="11" style="stroke:#181818;stroke-width:1;"/><path d="M24.9688,65.9375 Q24.3906,66.2344 23.75,66.375 Q23.1094,66.5313 22.4063,66.5313 Q19.9063,66.5313 18.5781,64.8906 Q17.2656,63.2344 17.2656,60.1094 Q17.2656,56.9844 18.5781,55.3281 Q19.9063,53.6719 22.4063,53.6719 Q23.1094,53.6719 23.75,53.8281 Q24.4063,53.9844 24.9688,54.2813 L24.9688,57 Q24.3438,56.4219 23.75,56.1563 Q23.1563,55.875 22.5313,55.875 Q21.1875,55.875 20.5,56.9531 Q19.8125,58.0156 19.8125,60.1094 Q19.8125,62.2031 20.5,63.2813 Q21.1875,64.3438 22.5313,64.3438 Q23.1563,64.3438 23.75,64.0781 Q24.3438,63.7969 24.9688,63.2188 L24.9688,65.9375 Z " fill="#000000"/><text fill="#000000" font-family="sans-serif" font-size="14" lengthAdjust="spacing" textLength="129.3223" x="36" y="65.1436">cpp_variable_base</text><line style="stroke:#181818;stroke-width:0.5;" x1="8" x2="167.3223" y1="76.2969" y2="76.2969"/><line style="stroke:#181818;stroke-width:0.5;" x1="8" x2="167.3223" y1="84.2969" y2="84.2969"/></g></a><!--class C_0001387303117080103145--><a href="https://github.com/foonathan/cppast/blob/5329e377ab9b9ab9309e9641f3fcda04366a449a/include/cppast/cpp_namespace.hpp#L102" target="_top" title="cpp_namespace_alias" xlink:actuate="onRequest" xlink:href="https://github.com/foonathan/cppast/blob/5329e377ab9b9ab9309e9641f3fcda04366a449a/include/cppast/cpp_namespace.hpp#L102" xlink:show="new" xlink:title="cpp_namespace_alias" xlink:type="simple"><g id="elem_C_0001387303117080103145"><rect codeLine="20" fill="#F1F1F1" height="48" id="C_0001387303117080103145" rx="2.5" ry="2.5" style="stroke:#181818;stroke-width:0.5;" width="184.4756" x="230.5" y="210.2969"/><ellipse cx="245.5" cy="226.2969" fill="#ADD1B2" rx="11" ry="11" style="stroke:#181818;stroke-width:1;"/><path d="M248.4688,231.9375 Q247.8906,232.2344 247.25,232.375 Q246.6094,232.5313 245.9063,232.5313 Q243.4063,232.5313 242.0781,230.8906 Q240.7656,229.2344 240.7656,226.1094 Q240.7656,222.9844 242.0781,221.3281 Q243.4063,219.6719 245.9063,219.6719 Q246.6094,219.6719 247.25,219.8281 Q247.9063,219.9844 248.4688,220.2813 L248.4688,223 Q247.8438,222.4219 247.25,222.1563 Q246.6563,221.875 246.0313,221.875 Q244.6875,221.875 244,222.9531 Q243.3125,224.0156 243.3125,226.1094 Q243.3125,228.2031 244,229.2813 Q244.6875,230.3438 246.0313,230.3438 Q246.6563,230.3438 247.25,230.0781 Q247.8438,229.7969 248.4688,229.2188 L248.4688,231.9375 Z " fill="#000000"/><text fill="#000000" font-family="sans-serif" font-size="14" lengthAdjust="spacing" textLength="152.4756" x="259.5" y="231.1436">cpp_namespace_alias</text><line style="stroke:#181818;stroke-width:0.5;" x1="231.5" x2="413.9756" y1="242.2969" y2="242.2969"/><line style="stroke:#181818;stroke-width:0.5;" x1="231.5" x2="413.9756" y1="250.2969" y2="250.2969"/></g></a><!--reverse link C_0014837562978658247224 to C_0011598861676029238614--><g id="link_C_0014837562978658247224_C_0011598861676029238614"><path codeLine="23" d="M157.1664,126.8369 C190.6864,114.8969 217.74,105.2569 254,92.3469 " fill="transparent" id="C_0014837562978658247224-backto-C_0011598861676029238614" style="stroke:#181818;stroke-width:1;"/><polygon fill="transparent" points="140.21,132.8769,159.1797,132.489,155.1531,121.1848,140.21,132.8769" style="stroke:#181818;stroke-width:1;"/></g><!--reverse link C_0014837562978658247224 to C_0002424370915184415608--><g id="link_C_0014837562978658247224_C_0002424370915184415608"><path codeLine="24" d="M158.21,151.2969 C196.82,151.2969 231.36,151.2969 269.93,151.2969 " fill="transparent" id="C_0014837562978658247224-backto-C_0002424370915184415608" style="stroke:#181818;stroke-width:1;"/><polygon fill="transparent" points="140.21,151.2969,158.21,157.2969,158.21,145.2969,140.21,151.2969" style="stroke:#181818;stroke-width:1;"/></g><!--reverse link C_0014837562978658247224 to C_0001387303117080103145--><g id="link_C_0014837562978658247224_C_0001387303117080103145"><path codeLine="25" d="M157.1664,175.7568 C190.6864,187.6968 217.74,197.3369 254,210.2469 " fill="transparent" id="C_0014837562978658247224-backto-C_0001387303117080103145" style="stroke:#181818;stroke-width:1;"/><polygon fill="transparent" points="140.21,169.7169,155.1531,181.409,159.1797,170.1047,140.21,169.7169" style="stroke:#181818;stroke-width:1;"/></g><!--SRC=[nTHFRvim503mEv_2wWxPf0NyREC_qsuxx98TjqjL8GCcM286OTEkolhTHvSia9LeFQKNGE_vYVUpuGKR6eDMHTTbnWKR7bUeQBJtgBQcrtrHFqQDgG8ABUhjjWwejBqfWcrTT5XtCvNU8EtHbmnZO9AAb1Cb94ybOO8GTbn-AOrkR-iGElyfIROsr4CU5-qkgThMwL1hbunlqJuaUTFcIKg9CbG8dQjSZHUAbL6SGKMhejIOKSurOqedrXNDK9g_nLEdSTrrxpPCxAVGqzqTsaTP5ZtDOOCpFxlMc_854L8b9GSkE2QAqF7nZBYGVWiYo8FnNyUojkgjSUN9Y0aZZ0gi80N96AGSovbnANqjuw7Jer7jfz0ox5xtLkUDoNBjpUG39hZ4WCSpWfIb60iwzosah-GRRrdrSFI9W-_CiCnqUcTyfmkJwSPgFuDIAIYc008_WoYmz0pwCdsjWporV3nBJFOBaXdtuW3v_6kzllnh_hziyMj_HTdItaQhhyQDypEO4ZsCs_SyKzrsFUoQZ-ZUz7uSdmZ7FCRHQhFvyUqK-vuFBWo7rQSWg1XYGEzX-9E53xy1]--></g></svg>