<svg xmlns="http://www.w3.org/2000/svg" xmlns:xlink="http://www.w3.org/1999/xlink" contentStyleType="text/css" data-diagram-type="CLASS" height="1344px" preserveAspectRatio="none" style="width:430px;height:1344px;background:#FFFFFF;" version="1.1" viewBox="0 0 430 1344" width="430px" zoomAndPan="magnify"><title>'cpp_type' class hierarchy diagram</title><defs/><g><text fill="#000000" font-family="sans-serif" font-size="14" font-weight="bold" lengthAdjust="spacing" textLength="273.2188" x="71.749" y="22.9951">'cpp_type' class hierarchy diagram</text><!--class C_0012685224329895379678--><a href="https://github.com/foonathan/cppast/blob/5329e377ab9b9ab9309e9641f3fcda04366a449a/include/cppast/cpp_type.hpp#L44" target="_top" title="cpp_type" xlink:actuate="onRequest" xlink:href="https://github.com/foonathan/cppast/blob/5329e377ab9b9ab9309e9641f3fcda04366a449a/include/cppast/cpp_type.hpp#L44" xlink:show="new" xlink:title="cpp_type" xlink:type="simple"><g id="elem_C_0012685224329895379678"><rect codeLine="4" fill="#F1F1F1" height="48" id="C_0012685224329895379678" rx="2.5" ry="2.5" style="stroke:#181818;stroke-width:0.5;" width="95.7451" x="7" y="667.2969"/><ellipse cx="22" cy="683.2969" fill="#ADD1B2" rx="11" ry="11" style="stroke:#181818;stroke-width:1;"/><path d="M24.9688,688.9375 Q24.3906,689.2344 23.75,689.375 Q23.1094,689.5313 22.4063,689.5313 Q19.9063,689.5313 18.5781,687.8906 Q17.2656,686.2344 17.2656,683.1094 Q17.2656,679.9844 18.5781,678.3281 Q19.9063,676.6719 22.4063,676.6719 Q23.1094,676.6719 23.75,676.8281 Q24.4063,676.9844 24.9688,677.2813 L24.9688,680 Q24.3438,679.4219 23.75,679.1563 Q23.1563,678.875 22.5313,678.875 Q21.1875,678.875 20.5,679.9531 Q19.8125,681.0156 19.8125,683.1094 Q19.8125,685.2031 20.5,686.2813 Q21.1875,687.3438 22.5313,687.3438 Q23.1563,687.3438 23.75,687.0781 Q24.3438,686.7969 24.9688,686.2188 L24.9688,688.9375 Z " fill="#000000"/><text fill="#000000" font-family="sans-serif" font-size="14" lengthAdjust="spacing" textLength="63.7451" x="36" y="688.1436">cpp_type</text><line style="stroke:#181818;stroke-width:0.5;" x1="8" x2="101.7451" y1="699.2969" y2="699.2969"/><line style="stroke:#181818;stroke-width:0.5;" x1="8" x2="101.7451" y1="707.2969" y2="707.2969"/></g></a><!--class C_0004813842429643163269--><a href="https://github.com/foonathan/cppast/blob/5329e377ab9b9ab9309e9641f3fcda04366a449a/include/cppast/cpp_type.hpp#L95" target="_top" title="cpp_unexposed_type" xlink:actuate="onRequest" xlink:href="https://github.com/foonathan/cppast/blob/5329e377ab9b9ab9309e9641f3fcda04366a449a/include/cppast/cpp_type.hpp#L95" xlink:show="new" xlink:title="cpp_unexposed_type" xlink:type="simple"><g id="elem_C_0004813842429643163269"><rect codeLine="8" fill="#F1F1F1" height="48" id="C_0004813842429643163269" rx="2.5" ry="2.5" style="stroke:#181818;stroke-width:0.5;" width="179.6357" x="203.5" y="44.2969"/><ellipse cx="218.5" cy="60.2969" fill="#ADD1B2" rx="11" ry="11" style="stroke:#181818;stroke-width:1;"/><path d="M221.4688,65.9375 Q220.8906,66.2344 220.25,66.375 Q219.6094,66.5313 218.9063,66.5313 Q216.4063,66.5313 215.0781,64.8906 Q213.7656,63.2344 213.7656,60.1094 Q213.7656,56.9844 215.0781,55.3281 Q216.4063,53.6719 218.9063,53.6719 Q219.6094,53.6719 220.25,53.8281 Q220.9063,53.9844 221.4688,54.2813 L221.4688,57 Q220.8438,56.4219 220.25,56.1563 Q219.6563,55.875 219.0313,55.875 Q217.6875,55.875 217,56.9531 Q216.3125,58.0156 216.3125,60.1094 Q216.3125,62.2031 217,63.2813 Q217.6875,64.3438 219.0313,64.3438 Q219.6563,64.3438 220.25,64.0781 Q220.8438,63.7969 221.4688,63.2188 L221.4688,65.9375 Z " fill="#000000"/><text fill="#000000" font-family="sans-serif" font-size="14" lengthAdjust="spacing" textLength="147.6357" x="232.5" y="65.1436">cpp_unexposed_type</text><line style="stroke:#181818;stroke-width:0.5;" x1="204.5" x2="382.1357" y1="76.2969" y2="76.2969"/><line style="stroke:#181818;stroke-width:0.5;" x1="204.5" x2="382.1357" y1="84.2969" y2="84.2969"/></g></a><!--class C_0016286280656642083260--><a href="https://github.com/foonathan/cppast/blob/5329e377ab9b9ab9309e9641f3fcda04366a449a/include/cppast/cpp_type.hpp#L161" target="_top" title="cpp_builtin_type" xlink:actuate="onRequest" xlink:href="https://github.com/foonathan/cppast/blob/5329e377ab9b9ab9309e9641f3fcda04366a449a/include/cppast/cpp_type.hpp#L161" xlink:show="new" xlink:title="cpp_builtin_type" xlink:type="simple"><g id="elem_C_0016286280656642083260"><rect codeLine="12" fill="#F1F1F1" height="48" id="C_0016286280656642083260" rx="2.5" ry="2.5" style="stroke:#181818;stroke-width:0.5;" width="146.5361" x="220" y="127.2969"/><ellipse cx="235" cy="143.2969" fill="#ADD1B2" rx="11" ry="11" style="stroke:#181818;stroke-width:1;"/><path d="M237.9688,148.9375 Q237.3906,149.2344 236.75,149.375 Q236.1094,149.5313 235.4063,149.5313 Q232.9063,149.5313 231.5781,147.8906 Q230.2656,146.2344 230.2656,143.1094 Q230.2656,139.9844 231.5781,138.3281 Q232.9063,136.6719 235.4063,136.6719 Q236.1094,136.6719 236.75,136.8281 Q237.4063,136.9844 237.9688,137.2813 L237.9688,140 Q237.3438,139.4219 236.75,139.1563 Q236.1563,138.875 235.5313,138.875 Q234.1875,138.875 233.5,139.9531 Q232.8125,141.0156 232.8125,143.1094 Q232.8125,145.2031 233.5,146.2813 Q234.1875,147.3438 235.5313,147.3438 Q236.1563,147.3438 236.75,147.0781 Q237.3438,146.7969 237.9688,146.2188 L237.9688,148.9375 Z " fill="#000000"/><text fill="#000000" font-family="sans-serif" font-size="14" lengthAdjust="spacing" textLength="114.5361" x="249" y="148.1436">cpp_builtin_type</text><line style="stroke:#181818;stroke-width:0.5;" x1="221" x2="365.5361" y1="159.2969" y2="159.2969"/><line style="stroke:#181818;stroke-width:0.5;" x1="221" x2="365.5361" y1="167.2969" y2="167.2969"/></g></a><!--class C_0017335635478607505504--><a href="https://github.com/foonathan/cppast/blob/5329e377ab9b9ab9309e9641f3fcda04366a449a/include/cppast/cpp_type.hpp#L202" target="_top" title="cpp_user_defined_type" xlink:actuate="onRequest" xlink:href="https://github.com/foonathan/cppast/blob/5329e377ab9b9ab9309e9641f3fcda04366a449a/include/cppast/cpp_type.hpp#L202" xlink:show="new" xlink:title="cpp_user_defined_type" xlink:type="simple"><g id="elem_C_0017335635478607505504"><rect codeLine="16" fill="#F1F1F1" height="48" id="C_0017335635478607505504" rx="2.5" ry="2.5" style="stroke:#181818;stroke-width:0.5;" width="192.9727" x="197" y="210.2969"/><ellipse cx="212" cy="226.2969" fill="#ADD1B2" rx="11" ry="11" style="stroke:#181818;stroke-width:1;"/><path d="M214.9688,231.9375 Q214.3906,232.2344 213.75,232.375 Q213.1094,232.5313 212.4063,232.5313 Q209.9063,232.5313 208.5781,230.8906 Q207.2656,229.2344 207.2656,226.1094 Q207.2656,222.9844 208.5781,221.3281 Q209.9063,219.6719 212.4063,219.6719 Q213.1094,219.6719 213.75,219.8281 Q214.4063,219.9844 214.9688,220.2813 L214.9688,223 Q214.3438,222.4219 213.75,222.1563 Q213.1563,221.875 212.5313,221.875 Q211.1875,221.875 210.5,222.9531 Q209.8125,224.0156 209.8125,226.1094 Q209.8125,228.2031 210.5,229.2813 Q211.1875,230.3438 212.5313,230.3438 Q213.1563,230.3438 213.75,230.0781 Q214.3438,229.7969 214.9688,229.2188 L214.9688,231.9375 Z " fill="#000000"/><text fill="#000000" font-family="sans-serif" font-size="14" lengthAdjust="spacing" textLength="160.9727" x="226" y="231.1436">cpp_user_defined_type</text><line style="stroke:#181818;stroke-width:0.5;" x1="198" x2="388.9727" y1="242.2969" y2="242.2969"/><line style="stroke:#181818;stroke-width:0.5;" x1="198" x2="388.9727" y1="250.2969" y2="250.2969"/></g></a><!--class C_0014472026947678462140--><a href="https://github.com/foonathan/cppast/blob/5329e377ab9b9ab9309e9641f3fcda04366a449a/include/cppast/cpp_type.hpp#L230" target="_top" title="cpp_auto_type" xlink:actuate="onRequest" xlink:href="https://github.com/foonathan/cppast/blob/5329e377ab9b9ab9309e9641f3fcda04366a449a/include/cppast/cpp_type.hpp#L230" xlink:show="new" xlink:title="cpp_auto_type" xlink:type="simple"><g id="elem_C_0014472026947678462140"><rect codeLine="20" fill="#F1F1F1" height="48" id="C_0014472026947678462140" rx="2.5" ry="2.5" style="stroke:#181818;stroke-width:0.5;" width="134.252" x="226.5" y="293.2969"/><ellipse cx="241.5" cy="309.2969" fill="#ADD1B2" rx="11" ry="11" style="stroke:#181818;stroke-width:1;"/><path d="M244.4688,314.9375 Q243.8906,315.2344 243.25,315.375 Q242.6094,315.5313 241.9063,315.5313 Q239.4063,315.5313 238.0781,313.8906 Q236.7656,312.2344 236.7656,309.1094 Q236.7656,305.9844 238.0781,304.3281 Q239.4063,302.6719 241.9063,302.6719 Q242.6094,302.6719 243.25,302.8281 Q243.9063,302.9844 244.4688,303.2813 L244.4688,306 Q243.8438,305.4219 243.25,305.1563 Q242.6563,304.875 242.0313,304.875 Q240.6875,304.875 240,305.9531 Q239.3125,307.0156 239.3125,309.1094 Q239.3125,311.2031 240,312.2813 Q240.6875,313.3438 242.0313,313.3438 Q242.6563,313.3438 243.25,313.0781 Q243.8438,312.7969 244.4688,312.2188 L244.4688,314.9375 Z " fill="#000000"/><text fill="#000000" font-family="sans-serif" font-size="14" lengthAdjust="spacing" textLength="102.252" x="255.5" y="314.1436">cpp_auto_type</text><line style="stroke:#181818;stroke-width:0.5;" x1="227.5" x2="359.752" y1="325.2969" y2="325.2969"/><line style="stroke:#181818;stroke-width:0.5;" x1="227.5" x2="359.752" y1="333.2969" y2="333.2969"/></g></a><!--class C_0004063987833557896570--><a href="https://github.com/foonathan/cppast/blob/5329e377ab9b9ab9309e9641f3fcda04366a449a/include/cppast/cpp_type.hpp#L249" target="_top" title="cpp_dependent_type" xlink:actuate="onRequest" xlink:href="https://github.com/foonathan/cppast/blob/5329e377ab9b9ab9309e9641f3fcda04366a449a/include/cppast/cpp_type.hpp#L249" xlink:show="new" xlink:title="cpp_dependent_type" xlink:type="simple"><g id="elem_C_0004063987833557896570"><rect codeLine="24" fill="#F1F1F1" height="48" id="C_0004063987833557896570" rx="2.5" ry="2.5" style="stroke:#181818;stroke-width:0.5;" width="178.4805" x="204.5" y="376.2969"/><ellipse cx="219.5" cy="392.2969" fill="#ADD1B2" rx="11" ry="11" style="stroke:#181818;stroke-width:1;"/><path d="M222.4688,397.9375 Q221.8906,398.2344 221.25,398.375 Q220.6094,398.5313 219.9063,398.5313 Q217.4063,398.5313 216.0781,396.8906 Q214.7656,395.2344 214.7656,392.1094 Q214.7656,388.9844 216.0781,387.3281 Q217.4063,385.6719 219.9063,385.6719 Q220.6094,385.6719 221.25,385.8281 Q221.9063,385.9844 222.4688,386.2813 L222.4688,389 Q221.8438,388.4219 221.25,388.1563 Q220.6563,387.875 220.0313,387.875 Q218.6875,387.875 218,388.9531 Q217.3125,390.0156 217.3125,392.1094 Q217.3125,394.2031 218,395.2813 Q218.6875,396.3438 220.0313,396.3438 Q220.6563,396.3438 221.25,396.0781 Q221.8438,395.7969 222.4688,395.2188 L222.4688,397.9375 Z " fill="#000000"/><text fill="#000000" font-family="sans-serif" font-size="14" lengthAdjust="spacing" textLength="146.4805" x="233.5" y="397.1436">cpp_dependent_type</text><line style="stroke:#181818;stroke-width:0.5;" x1="205.5" x2="381.9805" y1="408.2969" y2="408.2969"/><line style="stroke:#181818;stroke-width:0.5;" x1="205.5" x2="381.9805" y1="416.2969" y2="416.2969"/></g></a><!--class C_0002742775955639665712--><a href="https://github.com/foonathan/cppast/blob/5329e377ab9b9ab9309e9641f3fcda04366a449a/include/cppast/cpp_type.hpp#L311" target="_top" title="cpp_cv_qualified_type" xlink:actuate="onRequest" xlink:href="https://github.com/foonathan/cppast/blob/5329e377ab9b9ab9309e9641f3fcda04366a449a/include/cppast/cpp_type.hpp#L311" xlink:show="new" xlink:title="cpp_cv_qualified_type" xlink:type="simple"><g id="elem_C_0002742775955639665712"><rect codeLine="28" fill="#F1F1F1" height="48" id="C_0002742775955639665712" rx="2.5" ry="2.5" style="stroke:#181818;stroke-width:0.5;" width="186.1641" x="200.5" y="459.2969"/><ellipse cx="215.5" cy="475.2969" fill="#ADD1B2" rx="11" ry="11" style="stroke:#181818;stroke-width:1;"/><path d="M218.4688,480.9375 Q217.8906,481.2344 217.25,481.375 Q216.6094,481.5313 215.9063,481.5313 Q213.4063,481.5313 212.0781,479.8906 Q210.7656,478.2344 210.7656,475.1094 Q210.7656,471.9844 212.0781,470.3281 Q213.4063,468.6719 215.9063,468.6719 Q216.6094,468.6719 217.25,468.8281 Q217.9063,468.9844 218.4688,469.2813 L218.4688,472 Q217.8438,471.4219 217.25,471.1563 Q216.6563,470.875 216.0313,470.875 Q214.6875,470.875 214,471.9531 Q213.3125,473.0156 213.3125,475.1094 Q213.3125,477.2031 214,478.2813 Q214.6875,479.3438 216.0313,479.3438 Q216.6563,479.3438 217.25,479.0781 Q217.8438,478.7969 218.4688,478.2188 L218.4688,480.9375 Z " fill="#000000"/><text fill="#000000" font-family="sans-serif" font-size="14" lengthAdjust="spacing" textLength="154.1641" x="229.5" y="480.1436">cpp_cv_qualified_type</text><line style="stroke:#181818;stroke-width:0.5;" x1="201.5" x2="385.6641" y1="491.2969" y2="491.2969"/><line style="stroke:#181818;stroke-width:0.5;" x1="201.5" x2="385.6641" y1="499.2969" y2="499.2969"/></g></a><!--class C_0006892285644718134459--><a href="https://github.com/foonathan/cppast/blob/5329e377ab9b9ab9309e9641f3fcda04366a449a/include/cppast/cpp_type.hpp#L359" target="_top" title="cpp_pointer_type" xlink:actuate="onRequest" xlink:href="https://github.com/foonathan/cppast/blob/5329e377ab9b9ab9309e9641f3fcda04366a449a/include/cppast/cpp_type.hpp#L359" xlink:show="new" xlink:title="cpp_pointer_type" xlink:type="simple"><g id="elem_C_0006892285644718134459"><rect codeLine="32" fill="#F1F1F1" height="48" id="C_0006892285644718134459" rx="2.5" ry="2.5" style="stroke:#181818;stroke-width:0.5;" width="152.8184" x="217" y="542.2969"/><ellipse cx="232" cy="558.2969" fill="#ADD1B2" rx="11" ry="11" style="stroke:#181818;stroke-width:1;"/><path d="M234.9688,563.9375 Q234.3906,564.2344 233.75,564.375 Q233.1094,564.5313 232.4063,564.5313 Q229.9063,564.5313 228.5781,562.8906 Q227.2656,561.2344 227.2656,558.1094 Q227.2656,554.9844 228.5781,553.3281 Q229.9063,551.6719 232.4063,551.6719 Q233.1094,551.6719 233.75,551.8281 Q234.4063,551.9844 234.9688,552.2813 L234.9688,555 Q234.3438,554.4219 233.75,554.1563 Q233.1563,553.875 232.5313,553.875 Q231.1875,553.875 230.5,554.9531 Q229.8125,556.0156 229.8125,558.1094 Q229.8125,560.2031 230.5,561.2813 Q231.1875,562.3438 232.5313,562.3438 Q233.1563,562.3438 233.75,562.0781 Q234.3438,561.7969 234.9688,561.2188 L234.9688,563.9375 Z " fill="#000000"/><text fill="#000000" font-family="sans-serif" font-size="14" lengthAdjust="spacing" textLength="120.8184" x="246" y="563.1436">cpp_pointer_type</text><line style="stroke:#181818;stroke-width:0.5;" x1="218" x2="368.8184" y1="574.2969" y2="574.2969"/><line style="stroke:#181818;stroke-width:0.5;" x1="218" x2="368.8184" y1="582.2969" y2="582.2969"/></g></a><!--class C_0004804591595803064605--><a href="https://github.com/foonathan/cppast/blob/5329e377ab9b9ab9309e9641f3fcda04366a449a/include/cppast/cpp_type.hpp#L394" target="_top" title="cpp_reference_type" xlink:actuate="onRequest" xlink:href="https://github.com/foonathan/cppast/blob/5329e377ab9b9ab9309e9641f3fcda04366a449a/include/cppast/cpp_type.hpp#L394" xlink:show="new" xlink:title="cpp_reference_type" xlink:type="simple"><g id="elem_C_0004804591595803064605"><rect codeLine="36" fill="#F1F1F1" height="48" id="C_0004804591595803064605" rx="2.5" ry="2.5" style="stroke:#181818;stroke-width:0.5;" width="170.209" x="208.5" y="625.2969"/><ellipse cx="223.5" cy="641.2969" fill="#ADD1B2" rx="11" ry="11" style="stroke:#181818;stroke-width:1;"/><path d="M226.4688,646.9375 Q225.8906,647.2344 225.25,647.375 Q224.6094,647.5313 223.9063,647.5313 Q221.4063,647.5313 220.0781,645.8906 Q218.7656,644.2344 218.7656,641.1094 Q218.7656,637.9844 220.0781,636.3281 Q221.4063,634.6719 223.9063,634.6719 Q224.6094,634.6719 225.25,634.8281 Q225.9063,634.9844 226.4688,635.2813 L226.4688,638 Q225.8438,637.4219 225.25,637.1563 Q224.6563,636.875 224.0313,636.875 Q222.6875,636.875 222,637.9531 Q221.3125,639.0156 221.3125,641.1094 Q221.3125,643.2031 222,644.2813 Q222.6875,645.3438 224.0313,645.3438 Q224.6563,645.3438 225.25,645.0781 Q225.8438,644.7969 226.4688,644.2188 L226.4688,646.9375 Z " fill="#000000"/><text fill="#000000" font-family="sans-serif" font-size="14" lengthAdjust="spacing" textLength="138.209" x="237.5" y="646.1436">cpp_reference_type</text><line style="stroke:#181818;stroke-width:0.5;" x1="209.5" x2="377.709" y1="657.2969" y2="657.2969"/><line style="stroke:#181818;stroke-width:0.5;" x1="209.5" x2="377.709" y1="665.2969" y2="665.2969"/></g></a><!--class C_0000209986721715701296--><a href="https://github.com/foonathan/cppast/blob/5329e377ab9b9ab9309e9641f3fcda04366a449a/include/cppast/cpp_decltype_type.hpp#L40" target="_top" title="cpp_decltype_auto_type" xlink:actuate="onRequest" xlink:href="https://github.com/foonathan/cppast/blob/5329e377ab9b9ab9309e9641f3fcda04366a449a/include/cppast/cpp_decltype_type.hpp#L40" xlink:show="new" xlink:title="cpp_decltype_auto_type" xlink:type="simple"><g id="elem_C_0000209986721715701296"><rect codeLine="40" fill="#F1F1F1" height="48" id="C_0000209986721715701296" rx="2.5" ry="2.5" style="stroke:#181818;stroke-width:0.5;" width="201.6133" x="192.5" y="708.2969"/><ellipse cx="207.5" cy="724.2969" fill="#ADD1B2" rx="11" ry="11" style="stroke:#181818;stroke-width:1;"/><path d="M210.4688,729.9375 Q209.8906,730.2344 209.25,730.375 Q208.6094,730.5313 207.9063,730.5313 Q205.4063,730.5313 204.0781,728.8906 Q202.7656,727.2344 202.7656,724.1094 Q202.7656,720.9844 204.0781,719.3281 Q205.4063,717.6719 207.9063,717.6719 Q208.6094,717.6719 209.25,717.8281 Q209.9063,717.9844 210.4688,718.2813 L210.4688,721 Q209.8438,720.4219 209.25,720.1563 Q208.6563,719.875 208.0313,719.875 Q206.6875,719.875 206,720.9531 Q205.3125,722.0156 205.3125,724.1094 Q205.3125,726.2031 206,727.2813 Q206.6875,728.3438 208.0313,728.3438 Q208.6563,728.3438 209.25,728.0781 Q209.8438,727.7969 210.4688,727.2188 L210.4688,729.9375 Z " fill="#000000"/><text fill="#000000" font-family="sans-serif" font-size="14" lengthAdjust="spacing" textLength="169.6133" x="221.5" y="729.1436">cpp_decltype_auto_type</text><line style="stroke:#181818;stroke-width:0.5;" x1="193.5" x2="393.1133" y1="740.2969" y2="740.2969"/><line style="stroke:#181818;stroke-width:0.5;" x1="193.5" x2="393.1133" y1="748.2969" y2="748.2969"/></g></a><!--class C_0004829067063951846468--><a href="https://github.com/foonathan/cppast/blob/5329e377ab9b9ab9309e9641f3fcda04366a449a/include/cppast/cpp_function_type.hpp#L164" target="_top" title="cpp_member_object_type" xlink:actuate="onRequest" xlink:href="https://github.com/foonathan/cppast/blob/5329e377ab9b9ab9309e9641f3fcda04366a449a/include/cppast/cpp_function_type.hpp#L164" xlink:show="new" xlink:title="cpp_member_object_type" xlink:type="simple"><g id="elem_C_0004829067063951846468"><rect codeLine="44" fill="#F1F1F1" height="48" id="C_0004829067063951846468" rx="2.5" ry="2.5" style="stroke:#181818;stroke-width:0.5;" width="212.0313" x="187.5" y="791.2969"/><ellipse cx="202.5" cy="807.2969" fill="#ADD1B2" rx="11" ry="11" style="stroke:#181818;stroke-width:1;"/><path d="M205.4688,812.9375 Q204.8906,813.2344 204.25,813.375 Q203.6094,813.5313 202.9063,813.5313 Q200.4063,813.5313 199.0781,811.8906 Q197.7656,810.2344 197.7656,807.1094 Q197.7656,803.9844 199.0781,802.3281 Q200.4063,800.6719 202.9063,800.6719 Q203.6094,800.6719 204.25,800.8281 Q204.9063,800.9844 205.4688,801.2813 L205.4688,804 Q204.8438,803.4219 204.25,803.1563 Q203.6563,802.875 203.0313,802.875 Q201.6875,802.875 201,803.9531 Q200.3125,805.0156 200.3125,807.1094 Q200.3125,809.2031 201,810.2813 Q201.6875,811.3438 203.0313,811.3438 Q203.6563,811.3438 204.25,811.0781 Q204.8438,810.7969 205.4688,810.2188 L205.4688,812.9375 Z " fill="#000000"/><text fill="#000000" font-family="sans-serif" font-size="14" lengthAdjust="spacing" textLength="180.0313" x="216.5" y="812.1436">cpp_member_object_type</text><line style="stroke:#181818;stroke-width:0.5;" x1="188.5" x2="398.5313" y1="823.2969" y2="823.2969"/><line style="stroke:#181818;stroke-width:0.5;" x1="188.5" x2="398.5313" y1="831.2969" y2="831.2969"/></g></a><!--class C_0008075371397714845723--><a href="https://github.com/foonathan/cppast/blob/5329e377ab9b9ab9309e9641f3fcda04366a449a/include/cppast/cpp_template.hpp#L93" target="_top" title="cpp_template_instantiation_type" xlink:actuate="onRequest" xlink:href="https://github.com/foonathan/cppast/blob/5329e377ab9b9ab9309e9641f3fcda04366a449a/include/cppast/cpp_template.hpp#L93" xlink:show="new" xlink:title="cpp_template_instantiation_type" xlink:type="simple"><g id="elem_C_0008075371397714845723"><rect codeLine="48" fill="#F1F1F1" height="48" id="C_0008075371397714845723" rx="2.5" ry="2.5" style="stroke:#181818;stroke-width:0.5;" width="260.7168" x="163" y="874.2969"/><ellipse cx="178" cy="890.2969" fill="#ADD1B2" rx="11" ry="11" style="stroke:#181818;stroke-width:1;"/><path d="M180.9688,895.9375 Q180.3906,896.2344 179.75,896.375 Q179.1094,896.5313 178.4063,896.5313 Q175.9063,896.5313 174.5781,894.8906 Q173.2656,893.2344 173.2656,890.1094 Q173.2656,886.9844 174.5781,885.3281 Q175.9063,883.6719 178.4063,883.6719 Q179.1094,883.6719 179.75,883.8281 Q180.4063,883.9844 180.9688,884.2813 L180.9688,887 Q180.3438,886.4219 179.75,886.1563 Q179.1563,885.875 178.5313,885.875 Q177.1875,885.875 176.5,886.9531 Q175.8125,888.0156 175.8125,890.1094 Q175.8125,892.2031 176.5,893.2813 Q177.1875,894.3438 178.5313,894.3438 Q179.1563,894.3438 179.75,894.0781 Q180.3438,893.7969 180.9688,893.2188 L180.9688,895.9375 Z " fill="#000000"/><text fill="#000000" font-family="sans-serif" font-size="14" lengthAdjust="spacing" textLength="228.7168" x="192" y="895.1436">cpp_template_instantiation_type</text><line style="stroke:#181818;stroke-width:0.5;" x1="164" x2="422.7168" y1="906.2969" y2="906.2969"/><line style="stroke:#181818;stroke-width:0.5;" x1="164" x2="422.7168" y1="914.2969" y2="914.2969"/></g></a><!--class C_0009479862681401776453--><a href="https://github.com/foonathan/cppast/blob/5329e377ab9b9ab9309e9641f3fcda04366a449a/include/cppast/cpp_decltype_type.hpp#L13" target="_top" title="cpp_decltype_type" xlink:actuate="onRequest" xlink:href="https://github.com/foonathan/cppast/blob/5329e377ab9b9ab9309e9641f3fcda04366a449a/include/cppast/cpp_decltype_type.hpp#L13" xlink:show="new" xlink:title="cpp_decltype_type" xlink:type="simple"><g id="elem_C_0009479862681401776453"><rect codeLine="52" fill="#F1F1F1" height="48" id="C_0009479862681401776453" rx="2.5" ry="2.5" style="stroke:#181818;stroke-width:0.5;" width="163.1064" x="212" y="957.2969"/><ellipse cx="227" cy="973.2969" fill="#ADD1B2" rx="11" ry="11" style="stroke:#181818;stroke-width:1;"/><path d="M229.9688,978.9375 Q229.3906,979.2344 228.75,979.375 Q228.1094,979.5313 227.4063,979.5313 Q224.9063,979.5313 223.5781,977.8906 Q222.2656,976.2344 222.2656,973.1094 Q222.2656,969.9844 223.5781,968.3281 Q224.9063,966.6719 227.4063,966.6719 Q228.1094,966.6719 228.75,966.8281 Q229.4063,966.9844 229.9688,967.2813 L229.9688,970 Q229.3438,969.4219 228.75,969.1563 Q228.1563,968.875 227.5313,968.875 Q226.1875,968.875 225.5,969.9531 Q224.8125,971.0156 224.8125,973.1094 Q224.8125,975.2031 225.5,976.2813 Q226.1875,977.3438 227.5313,977.3438 Q228.1563,977.3438 228.75,977.0781 Q229.3438,976.7969 229.9688,976.2188 L229.9688,978.9375 Z " fill="#000000"/><text fill="#000000" font-family="sans-serif" font-size="14" lengthAdjust="spacing" textLength="131.1064" x="241" y="978.1436">cpp_decltype_type</text><line style="stroke:#181818;stroke-width:0.5;" x1="213" x2="374.1064" y1="989.2969" y2="989.2969"/><line style="stroke:#181818;stroke-width:0.5;" x1="213" x2="374.1064" y1="997.2969" y2="997.2969"/></g></a><!--class C_0010779989821278160600--><a href="https://github.com/foonathan/cppast/blob/5329e377ab9b9ab9309e9641f3fcda04366a449a/include/cppast/cpp_array_type.hpp#L13" target="_top" title="cpp_array_type" xlink:actuate="onRequest" xlink:href="https://github.com/foonathan/cppast/blob/5329e377ab9b9ab9309e9641f3fcda04366a449a/include/cppast/cpp_array_type.hpp#L13" xlink:show="new" xlink:title="cpp_array_type" xlink:type="simple"><g id="elem_C_0010779989821278160600"><rect codeLine="56" fill="#F1F1F1" height="48" id="C_0010779989821278160600" rx="2.5" ry="2.5" style="stroke:#181818;stroke-width:0.5;" width="139.7002" x="223.5" y="1040.2969"/><ellipse cx="238.5" cy="1056.2969" fill="#ADD1B2" rx="11" ry="11" style="stroke:#181818;stroke-width:1;"/><path d="M241.4688,1061.9375 Q240.8906,1062.2344 240.25,1062.375 Q239.6094,1062.5313 238.9063,1062.5313 Q236.4063,1062.5313 235.0781,1060.8906 Q233.7656,1059.2344 233.7656,1056.1094 Q233.7656,1052.9844 235.0781,1051.3281 Q236.4063,1049.6719 238.9063,1049.6719 Q239.6094,1049.6719 240.25,1049.8281 Q240.9063,1049.9844 241.4688,1050.2813 L241.4688,1053 Q240.8438,1052.4219 240.25,1052.1563 Q239.6563,1051.875 239.0313,1051.875 Q237.6875,1051.875 237,1052.9531 Q236.3125,1054.0156 236.3125,1056.1094 Q236.3125,1058.2031 237,1059.2813 Q237.6875,1060.3438 239.0313,1060.3438 Q239.6563,1060.3438 240.25,1060.0781 Q240.8438,1059.7969 241.4688,1059.2188 L241.4688,1061.9375 Z " fill="#000000"/><text fill="#000000" font-family="sans-serif" font-size="14" lengthAdjust="spacing" textLength="107.7002" x="252.5" y="1061.1436">cpp_array_type</text><line style="stroke:#181818;stroke-width:0.5;" x1="224.5" x2="362.2002" y1="1072.2969" y2="1072.2969"/><line style="stroke:#181818;stroke-width:0.5;" x1="224.5" x2="362.2002" y1="1080.2969" y2="1080.2969"/></g></a><!--class C_0011646818473724564525--><a href="https://github.com/foonathan/cppast/blob/5329e377ab9b9ab9309e9641f3fcda04366a449a/include/cppast/cpp_function_type.hpp#L14" target="_top" title="cpp_function_type" xlink:actuate="onRequest" xlink:href="https://github.com/foonathan/cppast/blob/5329e377ab9b9ab9309e9641f3fcda04366a449a/include/cppast/cpp_function_type.hpp#L14" xlink:show="new" xlink:title="cpp_function_type" xlink:type="simple"><g id="elem_C_0011646818473724564525"><rect codeLine="60" fill="#F1F1F1" height="48" id="C_0011646818473724564525" rx="2.5" ry="2.5" style="stroke:#181818;stroke-width:0.5;" width="159.9346" x="213.5" y="1123.2969"/><ellipse cx="228.5" cy="1139.2969" fill="#ADD1B2" rx="11" ry="11" style="stroke:#181818;stroke-width:1;"/><path d="M231.4688,1144.9375 Q230.8906,1145.2344 230.25,1145.375 Q229.6094,1145.5313 228.9063,1145.5313 Q226.4063,1145.5313 225.0781,1143.8906 Q223.7656,1142.2344 223.7656,1139.1094 Q223.7656,1135.9844 225.0781,1134.3281 Q226.4063,1132.6719 228.9063,1132.6719 Q229.6094,1132.6719 230.25,1132.8281 Q230.9063,1132.9844 231.4688,1133.2813 L231.4688,1136 Q230.8438,1135.4219 230.25,1135.1563 Q229.6563,1134.875 229.0313,1134.875 Q227.6875,1134.875 227,1135.9531 Q226.3125,1137.0156 226.3125,1139.1094 Q226.3125,1141.2031 227,1142.2813 Q227.6875,1143.3438 229.0313,1143.3438 Q229.6563,1143.3438 230.25,1143.0781 Q230.8438,1142.7969 231.4688,1142.2188 L231.4688,1144.9375 Z " fill="#000000"/><text fill="#000000" font-family="sans-serif" font-size="14" lengthAdjust="spacing" textLength="127.9346" x="242.5" y="1144.1436">cpp_function_type</text><line style="stroke:#181818;stroke-width:0.5;" x1="214.5" x2="372.4346" y1="1155.2969" y2="1155.2969"/><line style="stroke:#181818;stroke-width:0.5;" x1="214.5" x2="372.4346" y1="1163.2969" y2="1163.2969"/></g></a><!--class C_0015655533434215258614--><a href="https://github.com/foonathan/cppast/blob/5329e377ab9b9ab9309e9641f3fcda04366a449a/include/cppast/cpp_function_type.hpp#L87" target="_top" title="cpp_member_function_type" xlink:actuate="onRequest" xlink:href="https://github.com/foonathan/cppast/blob/5329e377ab9b9ab9309e9641f3fcda04366a449a/include/cppast/cpp_function_type.hpp#L87" xlink:show="new" xlink:title="cpp_member_function_type" xlink:type="simple"><g id="elem_C_0015655533434215258614"><rect codeLine="64" fill="#F1F1F1" height="48" id="C_0015655533434215258614" rx="2.5" ry="2.5" style="stroke:#181818;stroke-width:0.5;" width="226.0791" x="180.5" y="1206.2969"/><ellipse cx="195.5" cy="1222.2969" fill="#ADD1B2" rx="11" ry="11" style="stroke:#181818;stroke-width:1;"/><path d="M198.4688,1227.9375 Q197.8906,1228.2344 197.25,1228.375 Q196.6094,1228.5313 195.9063,1228.5313 Q193.4063,1228.5313 192.0781,1226.8906 Q190.7656,1225.2344 190.7656,1222.1094 Q190.7656,1218.9844 192.0781,1217.3281 Q193.4063,1215.6719 195.9063,1215.6719 Q196.6094,1215.6719 197.25,1215.8281 Q197.9063,1215.9844 198.4688,1216.2813 L198.4688,1219 Q197.8438,1218.4219 197.25,1218.1563 Q196.6563,1217.875 196.0313,1217.875 Q194.6875,1217.875 194,1218.9531 Q193.3125,1220.0156 193.3125,1222.1094 Q193.3125,1224.2031 194,1225.2813 Q194.6875,1226.3438 196.0313,1226.3438 Q196.6563,1226.3438 197.25,1226.0781 Q197.8438,1225.7969 198.4688,1225.2188 L198.4688,1227.9375 Z " fill="#000000"/><text fill="#000000" font-family="sans-serif" font-size="14" lengthAdjust="spacing" textLength="194.0791" x="209.5" y="1227.1436">cpp_member_function_type</text><line style="stroke:#181818;stroke-width:0.5;" x1="181.5" x2="405.5791" y1="1238.2969" y2="1238.2969"/><line style="stroke:#181818;stroke-width:0.5;" x1="181.5" x2="405.5791" y1="1246.2969" y2="1246.2969"/></g></a><!--class C_0017266576910863053385--><a href="https://github.com/foonathan/cppast/blob/5329e377ab9b9ab9309e9641f3fcda04366a449a/include/cppast/cpp_template_parameter.hpp#L106" target="_top" title="cpp_template_parameter_type" xlink:actuate="onRequest" xlink:href="https://github.com/foonathan/cppast/blob/5329e377ab9b9ab9309e9641f3fcda04366a449a/include/cppast/cpp_template_parameter.hpp#L106" xlink:show="new" xlink:title="cpp_template_parameter_type" xlink:type="simple"><g id="elem_C_0017266576910863053385"><rect codeLine="68" fill="#F1F1F1" height="48" id="C_0017266576910863053385" rx="2.5" ry="2.5" style="stroke:#181818;stroke-width:0.5;" width="246.8535" x="170" y="1289.2969"/><ellipse cx="185" cy="1305.2969" fill="#ADD1B2" rx="11" ry="11" style="stroke:#181818;stroke-width:1;"/><path d="M187.9688,1310.9375 Q187.3906,1311.2344 186.75,1311.375 Q186.1094,1311.5313 185.4063,1311.5313 Q182.9063,1311.5313 181.5781,1309.8906 Q180.2656,1308.2344 180.2656,1305.1094 Q180.2656,1301.9844 181.5781,1300.3281 Q182.9063,1298.6719 185.4063,1298.6719 Q186.1094,1298.6719 186.75,1298.8281 Q187.4063,1298.9844 187.9688,1299.2813 L187.9688,1302 Q187.3438,1301.4219 186.75,1301.1563 Q186.1563,1300.875 185.5313,1300.875 Q184.1875,1300.875 183.5,1301.9531 Q182.8125,1303.0156 182.8125,1305.1094 Q182.8125,1307.2031 183.5,1308.2813 Q184.1875,1309.3438 185.5313,1309.3438 Q186.1563,1309.3438 186.75,1309.0781 Q187.3438,1308.7969 187.9688,1308.2188 L187.9688,1310.9375 Z " fill="#000000"/><text fill="#000000" font-family="sans-serif" font-size="14" lengthAdjust="spacing" textLength="214.8535" x="199" y="1310.1436">cpp_template_parameter_type</text><line style="stroke:#181818;stroke-width:0.5;" x1="171" x2="415.8535" y1="1321.2969" y2="1321.2969"/><line style="stroke:#181818;stroke-width:0.5;" x1="171" x2="415.8535" y1="1329.2969" y2="1329.2969"/></g></a><!--reverse link C_0012685224329895379678 to C_0004813842429643163269--><g id="link_C_0012685224329895379678_C_0004813842429643163269"><path codeLine="71" d="M58.1813,649.1136 C63.5913,550.0236 87.72,194.6069 163,109.2969 C173.77,97.0969 188.14,88.4969 203.39,82.4369 " fill="transparent" id="C_0012685224329895379678-backto-C_0004813842429643163269" style="stroke:#181818;stroke-width:1;"/><polygon fill="transparent" points="57.2,667.0869,64.1724,649.4407,52.1902,648.7865,57.2,667.0869" style="stroke:#181818;stroke-width:1;"/></g><!--reverse link C_0012685224329895379678 to C_0016286280656642083260--><g id="link_C_0012685224329895379678_C_0016286280656642083260"><path codeLine="72" d="M59.581,649.2964 C67.491,559.5864 97.82,264.0069 163,192.2969 C177.75,176.0669 198.88,166.2169 219.8,160.2569 " fill="transparent" id="C_0012685224329895379678-backto-C_0016286280656642083260" style="stroke:#181818;stroke-width:1;"/><polygon fill="transparent" points="58,667.2269,65.5578,649.8234,53.6042,648.7694,58,667.2269" style="stroke:#181818;stroke-width:1;"/></g><!--reverse link C_0012685224329895379678 to C_0017335635478607505504--><g id="link_C_0012685224329895379678_C_0017335635478607505504"><path codeLine="73" d="M61.5169,649.3485 C72.2869,569.5285 107.89,333.5169 163,275.2969 C172.4,265.3669 184.19,257.8269 196.8,252.1069 " fill="transparent" id="C_0012685224329895379678-backto-C_0017335635478607505504" style="stroke:#181818;stroke-width:1;"/><polygon fill="transparent" points="59.11,667.1869,67.463,650.1508,55.5708,648.5462,59.11,667.1869" style="stroke:#181818;stroke-width:1;"/></g><!--reverse link C_0012685224329895379678 to C_0014472026947678462140--><g id="link_C_0012685224329895379678_C_0014472026947678462140"><path codeLine="74" d="M57.3752,648.9453 C60.1352,588.0653 75,445.9169 163,358.2969 C179.96,341.4069 203.83,331.4669 226.46,325.6169 " fill="transparent" id="C_0012685224329895379678-backto-C_0014472026947678462140" style="stroke:#181818;stroke-width:1;"/><polygon fill="transparent" points="56.56,666.9269,63.369,649.2171,51.3814,648.6736,56.56,666.9269" style="stroke:#181818;stroke-width:1;"/></g><!--reverse link C_0012685224329895379678 to C_0004063987833557896570--><g id="link_C_0012685224329895379678_C_0004063987833557896570"><path codeLine="75" d="M62.5569,649.4149 C71.0469,599.8149 94.27,503.6069 163,441.2969 C174.79,430.6069 189.37,422.6969 204.44,416.8569 " fill="transparent" id="C_0012685224329895379678-backto-C_0004063987833557896570" style="stroke:#181818;stroke-width:1;"/><polygon fill="transparent" points="59.52,667.1569,68.4709,650.4272,56.6429,648.4026,59.52,667.1569" style="stroke:#181818;stroke-width:1;"/></g><!--reverse link C_0012685224329895379678 to C_0002742775955639665712--><g id="link_C_0012685224329895379678_C_0002742775955639665712"><path codeLine="76" d="M72.0432,650.4167 C87.0232,614.0967 113.25,562.4169 163,524.2969 C174.14,515.7669 187.09,508.9769 200.42,503.5969 " fill="transparent" id="C_0012685224329895379678-backto-C_0002742775955639665712" style="stroke:#181818;stroke-width:1;"/><polygon fill="transparent" points="65.18,667.0569,77.5899,652.7044,66.4964,648.1289,65.18,667.0569" style="stroke:#181818;stroke-width:1;"/></g><!--reverse link C_0012685224329895379678 to C_0006892285644718134459--><g id="link_C_0012685224329895379678_C_0006892285644718134459"><path codeLine="77" d="M94.7728,654.9683 C115.3728,636.4083 132.51,623.4069 163,607.2969 C179.68,598.4869 198.58,591.1769 216.69,585.2869 " fill="transparent" id="C_0012685224329895379678-backto-C_0006892285644718134459" style="stroke:#181818;stroke-width:1;"/><polygon fill="transparent" points="81.4,667.0169,98.789,659.426,90.7567,650.5107,81.4,667.0169" style="stroke:#181818;stroke-width:1;"/></g><!--reverse link C_0012685224329895379678 to C_0004804591595803064605--><g id="link_C_0012685224329895379678_C_0004804591595803064605"><path codeLine="78" d="M120.7332,679.8022 C150.7732,674.4722 172.87,670.5469 208.25,664.2569 " fill="transparent" id="C_0012685224329895379678-backto-C_0004804591595803064605" style="stroke:#181818;stroke-width:1;"/><polygon fill="transparent" points="103.01,682.9469,121.7814,685.71,119.685,673.8945,103.01,682.9469" style="stroke:#181818;stroke-width:1;"/></g><!--reverse link C_0012685224329895379678 to C_0000209986721715701296--><g id="link_C_0012685224329895379678_C_0000209986721715701296"><path codeLine="79" d="M120.745,702.524 C146.335,706.964 161.3,709.5469 192.3,714.9269 " fill="transparent" id="C_0012685224329895379678-backto-C_0000209986721715701296" style="stroke:#181818;stroke-width:1;"/><polygon fill="transparent" points="103.01,699.4469,119.7193,708.4357,121.7707,696.6123,103.01,699.4469" style="stroke:#181818;stroke-width:1;"/></g><!--reverse link C_0012685224329895379678 to C_0004829067063951846468--><g id="link_C_0012685224329895379678_C_0004829067063951846468"><path codeLine="80" d="M95.962,727.4706 C116.612,745.4606 133.17,757.6269 163,773.2969 C175.97,780.1169 190.26,786.0869 204.46,791.2369 " fill="transparent" id="C_0012685224329895379678-backto-C_0004829067063951846468" style="stroke:#181818;stroke-width:1;"/><polygon fill="transparent" points="82.39,715.6469,92.0208,731.9946,99.9032,722.9466,82.39,715.6469" style="stroke:#181818;stroke-width:1;"/></g><!--reverse link C_0012685224329895379678 to C_0008075371397714845723--><g id="link_C_0012685224329895379678_C_0008075371397714845723"><path codeLine="81" d="M72.4302,732.0757 C87.6102,767.9757 113.84,818.5669 163,856.2969 C172.19,863.3469 182.6,869.2369 193.44,874.1569 " fill="transparent" id="C_0012685224329895379678-backto-C_0008075371397714845723" style="stroke:#181818;stroke-width:1;"/><polygon fill="transparent" points="65.42,715.4969,66.9039,734.4124,77.9565,729.739,65.42,715.4969" style="stroke:#181818;stroke-width:1;"/></g><!--reverse link C_0012685224329895379678 to C_0009479862681401776453--><g id="link_C_0012685224329895379678_C_0009479862681401776453"><path codeLine="82" d="M62.8202,733.3108 C71.5602,782.6408 95.04,877.4269 163,939.2969 C176.72,951.7869 194.2,960.5669 211.85,966.7369 " fill="transparent" id="C_0012685224329895379678-backto-C_0009479862681401776453" style="stroke:#181818;stroke-width:1;"/><polygon fill="transparent" points="59.68,715.5869,56.9122,734.3576,68.7282,732.2641,59.68,715.5869" style="stroke:#181818;stroke-width:1;"/></g><!--reverse link C_0012685224329895379678 to C_0010779989821278160600--><g id="link_C_0012685224329895379678_C_0010779989821278160600"><path codeLine="83" d="M57.5275,733.4655 C60.4775,793.9055 75.71,934.9269 163,1022.2969 C179.2,1038.5169 201.72,1048.4769 223.44,1054.5869 " fill="transparent" id="C_0012685224329895379678-backto-C_0010779989821278160600" style="stroke:#181818;stroke-width:1;"/><polygon fill="transparent" points="56.65,715.4869,51.5346,733.758,63.5204,733.173,56.65,715.4869" style="stroke:#181818;stroke-width:1;"/></g><!--reverse link C_0012685224329895379678 to C_0011646818473724564525--><g id="link_C_0012685224329895379678_C_0011646818473724564525"><path codeLine="84" d="M61.6234,733.3903 C72.5434,813.0903 108.37,1047.2469 163,1105.2969 C176.44,1119.5869 194.78,1129.0169 213.43,1135.2469 " fill="transparent" id="C_0012685224329895379678-backto-C_0011646818473724564525" style="stroke:#181818;stroke-width:1;"/><polygon fill="transparent" points="59.18,715.5569,55.679,734.2047,67.5679,732.5758,59.18,715.5569" style="stroke:#181818;stroke-width:1;"/></g><!--reverse link C_0012685224329895379678 to C_0015655533434215258614--><g id="link_C_0012685224329895379678_C_0015655533434215258614"><path codeLine="85" d="M59.6625,733.4845 C67.7325,823.2045 98.37,1116.7369 163,1188.2969 C169.42,1195.3969 177.04,1201.3069 185.34,1206.2169 " fill="transparent" id="C_0012685224329895379678-backto-C_0015655533434215258614" style="stroke:#181818;stroke-width:1;"/><polygon fill="transparent" points="58.05,715.5569,53.6867,734.022,65.6384,732.947,58.05,715.5569" style="stroke:#181818;stroke-width:1;"/></g><!--reverse link C_0012685224329895379678 to C_0017266576910863053385--><g id="link_C_0012685224329895379678_C_0017266576910863053385"><path codeLine="86" d="M58.2352,733.3888 C63.7552,832.0788 88.24,1186.0269 163,1271.2969 C169.23,1278.4069 176.68,1284.3169 184.81,1289.2369 " fill="transparent" id="C_0012685224329895379678-backto-C_0017266576910863053385" style="stroke:#181818;stroke-width:1;"/><polygon fill="transparent" points="57.23,715.4169,52.2446,733.7239,64.2259,733.0537,57.23,715.4169" style="stroke:#181818;stroke-width:1;"/></g><!--SRC=[nPXBRvjA5CVt_XIeNUHMQknvFwhkkkWcNTwxgIfhmEEO2WE5eMt4xNVlSPt4Z3bkM679ycB-79WVvpc4F1G-kSdgUXqUQd-JP8LhssIN-yOrsUuXsUJkld7xHU6t8GbLqkJtkm2hZSz2NfMBu_MldcxmAd5jyc5D26NAICO4PzPOoRLLsZnUV4bEFd_UXL2txrQh-ppikdIPLVlLjgfA5tQkNC4pN1jMQL6bAmc6dcljKfjQ-EF4Ugi4tV9jjd54SAMS4DQjyZ8hker_CdxQvt9Nrw_lXEYV5dvz-PBqY_LwyMk8r9N-PrsrVXF34M4eDu891i_aL76cx00Ea-U7ix8V8-2OQPSN8I_FFAYOWHzHKYd1Y04AClGW8iyFIHNjpmakkBBrpNhZjtbvxasgEPUAIw6D8beIAOaOWYBo_A2Ci1x5m6bT5wepIY4qt4HPeI7NX69KHEv4v2jGSj97syVfDhxsvSQNuJmjYUBMQ0CEazfO9JM9qd8iNm5Hs7xCW7DctzVVEbVastnKWPWMJ6jf9OIcLO12sH0LaUT7vVIOd2CCdBQkyZ90TCUWobZ6Z5GGdnJAgX0oAhM8V0LGUVJfa01dRFpMDxxC_AYX4DWv1OSPmeaIYiYueOpaAr3QOxkC6IvbQ5OSLAGGGN0IQutIZ6eAAKYXImvP4NakrkTT3qO4qkCyEFVUxrC8W2hz2lFHoCVC4gKFHKXIAB52cTZ78takxcrN_fdceiPwTFOO20SFVbyNBlXrNhR1bI5tppSylG43_PDhogtML1WXDUF3Du38iqNvu_OVHoVUly3qGjJ7sD1J8Q1XueMUIhLMGaROY7p5WAUy7oaNPeocSGzdGmRH6fBN6aQPDbGHHQ8X0v7dGZtjDk8yBUEGKMgSEEaXFI5BDTTCGFUHR5YlCVcQkNnCvKZvQ_cw02sLb99pmGMZG6GKZUPaHBuYjD7z9Q8NAbZjuC3hHvC8rUmmI2bBYL6S0Ac9V8x8SrUlqzOV7KzK_nUqmNkuU2P____jxUKpxyjcw2boWXbs9fjWXXrofh0X1uS9PjWGFi4C6sadEM0y8qummyQjIKyRJoiJpB0MFy4CQv4Jt8srcmbcMFMUO8RLlocXZDIDnSr7N_e6SdAJ_83ISFZkLjxVTllYRVBTDosKgeGirP8kRkxk_llqlFPlsfMXErxzl4ZjaYvfyW_j_gZqpMy0]--></g></svg>