<svg xmlns="http://www.w3.org/2000/svg" xmlns:xlink="http://www.w3.org/1999/xlink" contentStyleType="text/css" data-diagram-type="CLASS" height="680px" preserveAspectRatio="none" style="width:362px;height:680px;background:#FFFFFF;" version="1.1" viewBox="0 0 362 680" width="362px" zoomAndPan="magnify"><title>'cpp_type' class hierarchy diagram</title><defs/><g><text fill="#000000" font-family="sans-serif" font-size="14" font-weight="bold" lengthAdjust="spacing" textLength="273.2188" x="37.877" y="22.9951">'cpp_type' class hierarchy diagram</text><!--class C_0012685224329895379678--><a href="https://github.com/foonathan/cppast/blob/5329e377ab9b9ab9309e9641f3fcda04366a449a/include/cppast/cpp_type.hpp#L44" target="_top" title="cpp_type" xlink:actuate="onRequest" xlink:href="https://github.com/foonathan/cppast/blob/5329e377ab9b9ab9309e9641f3fcda04366a449a/include/cppast/cpp_type.hpp#L44" xlink:show="new" xlink:title="cpp_type" xlink:type="simple"><g id="elem_C_0012685224329895379678"><rect codeLine="4" fill="#F1F1F1" height="48" id="C_0012685224329895379678" rx="2.5" ry="2.5" style="stroke:#181818;stroke-width:0.5;" width="95.7451" x="7" y="335.2969"/><ellipse cx="22" cy="351.2969" fill="#ADD1B2" rx="11" ry="11" style="stroke:#181818;stroke-width:1;"/><path d="M24.9688,356.9375 Q24.3906,357.2344 23.75,357.375 Q23.1094,357.5313 22.4063,357.5313 Q19.9063,357.5313 18.5781,355.8906 Q17.2656,354.2344 17.2656,351.1094 Q17.2656,347.9844 18.5781,346.3281 Q19.9063,344.6719 22.4063,344.6719 Q23.1094,344.6719 23.75,344.8281 Q24.4063,344.9844 24.9688,345.2813 L24.9688,348 Q24.3438,347.4219 23.75,347.1563 Q23.1563,346.875 22.5313,346.875 Q21.1875,346.875 20.5,347.9531 Q19.8125,349.0156 19.8125,351.1094 Q19.8125,353.2031 20.5,354.2813 Q21.1875,355.3438 22.5313,355.3438 Q23.1563,355.3438 23.75,355.0781 Q24.3438,354.7969 24.9688,354.2188 L24.9688,356.9375 Z " fill="#000000"/><text fill="#000000" font-family="sans-serif" font-size="14" lengthAdjust="spacing" textLength="63.7451" x="36" y="356.1436">cpp_type</text><line style="stroke:#181818;stroke-width:0.5;" x1="8" x2="101.7451" y1="367.2969" y2="367.2969"/><line style="stroke:#181818;stroke-width:0.5;" x1="8" x2="101.7451" y1="375.2969" y2="375.2969"/></g></a><!--class C_0004813842429643163269--><a href="https://github.com/foonathan/cppast/blob/5329e377ab9b9ab9309e9641f3fcda04366a449a/include/cppast/cpp_type.hpp#L95" target="_top" title="cpp_unexposed_type" xlink:actuate="onRequest" xlink:href="https://github.com/foonathan/cppast/blob/5329e377ab9b9ab9309e9641f3fcda04366a449a/include/cppast/cpp_type.hpp#L95" xlink:show="new" xlink:title="cpp_unexposed_type" xlink:type="simple"><g id="elem_C_0004813842429643163269"><rect codeLine="8" fill="#F1F1F1" height="48" id="C_0004813842429643163269" rx="2.5" ry="2.5" style="stroke:#181818;stroke-width:0.5;" width="179.6357" x="169.5" y="44.2969"/><ellipse cx="184.5" cy="60.2969" fill="#ADD1B2" rx="11" ry="11" style="stroke:#181818;stroke-width:1;"/><path d="M187.4688,65.9375 Q186.8906,66.2344 186.25,66.375 Q185.6094,66.5313 184.9063,66.5313 Q182.4063,66.5313 181.0781,64.8906 Q179.7656,63.2344 179.7656,60.1094 Q179.7656,56.9844 181.0781,55.3281 Q182.4063,53.6719 184.9063,53.6719 Q185.6094,53.6719 186.25,53.8281 Q186.9063,53.9844 187.4688,54.2813 L187.4688,57 Q186.8438,56.4219 186.25,56.1563 Q185.6563,55.875 185.0313,55.875 Q183.6875,55.875 183,56.9531 Q182.3125,58.0156 182.3125,60.1094 Q182.3125,62.2031 183,63.2813 Q183.6875,64.3438 185.0313,64.3438 Q185.6563,64.3438 186.25,64.0781 Q186.8438,63.7969 187.4688,63.2188 L187.4688,65.9375 Z " fill="#000000"/><text fill="#000000" font-family="sans-serif" font-size="14" lengthAdjust="spacing" textLength="147.6357" x="198.5" y="65.1436">cpp_unexposed_type</text><line style="stroke:#181818;stroke-width:0.5;" x1="170.5" x2="348.1357" y1="76.2969" y2="76.2969"/><line style="stroke:#181818;stroke-width:0.5;" x1="170.5" x2="348.1357" y1="84.2969" y2="84.2969"/></g></a><!--class C_0016286280656642083260--><a href="https://github.com/foonathan/cppast/blob/5329e377ab9b9ab9309e9641f3fcda04366a449a/include/cppast/cpp_type.hpp#L161" target="_top" title="cpp_builtin_type" xlink:actuate="onRequest" xlink:href="https://github.com/foonathan/cppast/blob/5329e377ab9b9ab9309e9641f3fcda04366a449a/include/cppast/cpp_type.hpp#L161" xlink:show="new" xlink:title="cpp_builtin_type" xlink:type="simple"><g id="elem_C_0016286280656642083260"><rect codeLine="12" fill="#F1F1F1" height="48" id="C_0016286280656642083260" rx="2.5" ry="2.5" style="stroke:#181818;stroke-width:0.5;" width="146.5361" x="186" y="127.2969"/><ellipse cx="201" cy="143.2969" fill="#ADD1B2" rx="11" ry="11" style="stroke:#181818;stroke-width:1;"/><path d="M203.9688,148.9375 Q203.3906,149.2344 202.75,149.375 Q202.1094,149.5313 201.4063,149.5313 Q198.9063,149.5313 197.5781,147.8906 Q196.2656,146.2344 196.2656,143.1094 Q196.2656,139.9844 197.5781,138.3281 Q198.9063,136.6719 201.4063,136.6719 Q202.1094,136.6719 202.75,136.8281 Q203.4063,136.9844 203.9688,137.2813 L203.9688,140 Q203.3438,139.4219 202.75,139.1563 Q202.1563,138.875 201.5313,138.875 Q200.1875,138.875 199.5,139.9531 Q198.8125,141.0156 198.8125,143.1094 Q198.8125,145.2031 199.5,146.2813 Q200.1875,147.3438 201.5313,147.3438 Q202.1563,147.3438 202.75,147.0781 Q203.3438,146.7969 203.9688,146.2188 L203.9688,148.9375 Z " fill="#000000"/><text fill="#000000" font-family="sans-serif" font-size="14" lengthAdjust="spacing" textLength="114.5361" x="215" y="148.1436">cpp_builtin_type</text><line style="stroke:#181818;stroke-width:0.5;" x1="187" x2="331.5361" y1="159.2969" y2="159.2969"/><line style="stroke:#181818;stroke-width:0.5;" x1="187" x2="331.5361" y1="167.2969" y2="167.2969"/></g></a><!--class C_0017335635478607505504--><a href="https://github.com/foonathan/cppast/blob/5329e377ab9b9ab9309e9641f3fcda04366a449a/include/cppast/cpp_type.hpp#L202" target="_top" title="cpp_user_defined_type" xlink:actuate="onRequest" xlink:href="https://github.com/foonathan/cppast/blob/5329e377ab9b9ab9309e9641f3fcda04366a449a/include/cppast/cpp_type.hpp#L202" xlink:show="new" xlink:title="cpp_user_defined_type" xlink:type="simple"><g id="elem_C_0017335635478607505504"><rect codeLine="16" fill="#F1F1F1" height="48" id="C_0017335635478607505504" rx="2.5" ry="2.5" style="stroke:#181818;stroke-width:0.5;" width="192.9727" x="163" y="210.2969"/><ellipse cx="178" cy="226.2969" fill="#ADD1B2" rx="11" ry="11" style="stroke:#181818;stroke-width:1;"/><path d="M180.9688,231.9375 Q180.3906,232.2344 179.75,232.375 Q179.1094,232.5313 178.4063,232.5313 Q175.9063,232.5313 174.5781,230.8906 Q173.2656,229.2344 173.2656,226.1094 Q173.2656,222.9844 174.5781,221.3281 Q175.9063,219.6719 178.4063,219.6719 Q179.1094,219.6719 179.75,219.8281 Q180.4063,219.9844 180.9688,220.2813 L180.9688,223 Q180.3438,222.4219 179.75,222.1563 Q179.1563,221.875 178.5313,221.875 Q177.1875,221.875 176.5,222.9531 Q175.8125,224.0156 175.8125,226.1094 Q175.8125,228.2031 176.5,229.2813 Q177.1875,230.3438 178.5313,230.3438 Q179.1563,230.3438 179.75,230.0781 Q180.3438,229.7969 180.9688,229.2188 L180.9688,231.9375 Z " fill="#000000"/><text fill="#000000" font-family="sans-serif" font-size="14" lengthAdjust="spacing" textLength="160.9727" x="192" y="231.1436">cpp_user_defined_type</text><line style="stroke:#181818;stroke-width:0.5;" x1="164" x2="354.9727" y1="242.2969" y2="242.2969"/><line style="stroke:#181818;stroke-width:0.5;" x1="164" x2="354.9727" y1="250.2969" y2="250.2969"/></g></a><!--class C_0014472026947678462140--><a href="https://github.com/foonathan/cppast/blob/5329e377ab9b9ab9309e9641f3fcda04366a449a/include/cppast/cpp_type.hpp#L230" target="_top" title="cpp_auto_type" xlink:actuate="onRequest" xlink:href="https://github.com/foonathan/cppast/blob/5329e377ab9b9ab9309e9641f3fcda04366a449a/include/cppast/cpp_type.hpp#L230" xlink:show="new" xlink:title="cpp_auto_type" xlink:type="simple"><g id="elem_C_0014472026947678462140"><rect codeLine="20" fill="#F1F1F1" height="48" id="C_0014472026947678462140" rx="2.5" ry="2.5" style="stroke:#181818;stroke-width:0.5;" width="134.252" x="192.5" y="293.2969"/><ellipse cx="207.5" cy="309.2969" fill="#ADD1B2" rx="11" ry="11" style="stroke:#181818;stroke-width:1;"/><path d="M210.4688,314.9375 Q209.8906,315.2344 209.25,315.375 Q208.6094,315.5313 207.9063,315.5313 Q205.4063,315.5313 204.0781,313.8906 Q202.7656,312.2344 202.7656,309.1094 Q202.7656,305.9844 204.0781,304.3281 Q205.4063,302.6719 207.9063,302.6719 Q208.6094,302.6719 209.25,302.8281 Q209.9063,302.9844 210.4688,303.2813 L210.4688,306 Q209.8438,305.4219 209.25,305.1563 Q208.6563,304.875 208.0313,304.875 Q206.6875,304.875 206,305.9531 Q205.3125,307.0156 205.3125,309.1094 Q205.3125,311.2031 206,312.2813 Q206.6875,313.3438 208.0313,313.3438 Q208.6563,313.3438 209.25,313.0781 Q209.8438,312.7969 210.4688,312.2188 L210.4688,314.9375 Z " fill="#000000"/><text fill="#000000" font-family="sans-serif" font-size="14" lengthAdjust="spacing" textLength="102.252" x="221.5" y="314.1436">cpp_auto_type</text><line style="stroke:#181818;stroke-width:0.5;" x1="193.5" x2="325.752" y1="325.2969" y2="325.2969"/><line style="stroke:#181818;stroke-width:0.5;" x1="193.5" x2="325.752" y1="333.2969" y2="333.2969"/></g></a><!--class C_0004063987833557896570--><a href="https://github.com/foonathan/cppast/blob/5329e377ab9b9ab9309e9641f3fcda04366a449a/include/cppast/cpp_type.hpp#L249" target="_top" title="cpp_dependent_type" xlink:actuate="onRequest" xlink:href="https://github.com/foonathan/cppast/blob/5329e377ab9b9ab9309e9641f3fcda04366a449a/include/cppast/cpp_type.hpp#L249" xlink:show="new" xlink:title="cpp_dependent_type" xlink:type="simple"><g id="elem_C_0004063987833557896570"><rect codeLine="24" fill="#F1F1F1" height="48" id="C_0004063987833557896570" rx="2.5" ry="2.5" style="stroke:#181818;stroke-width:0.5;" width="178.4805" x="170.5" y="376.2969"/><ellipse cx="185.5" cy="392.2969" fill="#ADD1B2" rx="11" ry="11" style="stroke:#181818;stroke-width:1;"/><path d="M188.4688,397.9375 Q187.8906,398.2344 187.25,398.375 Q186.6094,398.5313 185.9063,398.5313 Q183.4063,398.5313 182.0781,396.8906 Q180.7656,395.2344 180.7656,392.1094 Q180.7656,388.9844 182.0781,387.3281 Q183.4063,385.6719 185.9063,385.6719 Q186.6094,385.6719 187.25,385.8281 Q187.9063,385.9844 188.4688,386.2813 L188.4688,389 Q187.8438,388.4219 187.25,388.1563 Q186.6563,387.875 186.0313,387.875 Q184.6875,387.875 184,388.9531 Q183.3125,390.0156 183.3125,392.1094 Q183.3125,394.2031 184,395.2813 Q184.6875,396.3438 186.0313,396.3438 Q186.6563,396.3438 187.25,396.0781 Q187.8438,395.7969 188.4688,395.2188 L188.4688,397.9375 Z " fill="#000000"/><text fill="#000000" font-family="sans-serif" font-size="14" lengthAdjust="spacing" textLength="146.4805" x="199.5" y="397.1436">cpp_dependent_type</text><line style="stroke:#181818;stroke-width:0.5;" x1="171.5" x2="347.9805" y1="408.2969" y2="408.2969"/><line style="stroke:#181818;stroke-width:0.5;" x1="171.5" x2="347.9805" y1="416.2969" y2="416.2969"/></g></a><!--class C_0002742775955639665712--><a href="https://github.com/foonathan/cppast/blob/5329e377ab9b9ab9309e9641f3fcda04366a449a/include/cppast/cpp_type.hpp#L311" target="_top" title="cpp_cv_qualified_type" xlink:actuate="onRequest" xlink:href="https://github.com/foonathan/cppast/blob/5329e377ab9b9ab9309e9641f3fcda04366a449a/include/cppast/cpp_type.hpp#L311" xlink:show="new" xlink:title="cpp_cv_qualified_type" xlink:type="simple"><g id="elem_C_0002742775955639665712"><rect codeLine="28" fill="#F1F1F1" height="48" id="C_0002742775955639665712" rx="2.5" ry="2.5" style="stroke:#181818;stroke-width:0.5;" width="186.1641" x="166.5" y="459.2969"/><ellipse cx="181.5" cy="475.2969" fill="#ADD1B2" rx="11" ry="11" style="stroke:#181818;stroke-width:1;"/><path d="M184.4688,480.9375 Q183.8906,481.2344 183.25,481.375 Q182.6094,481.5313 181.9063,481.5313 Q179.4063,481.5313 178.0781,479.8906 Q176.7656,478.2344 176.7656,475.1094 Q176.7656,471.9844 178.0781,470.3281 Q179.4063,468.6719 181.9063,468.6719 Q182.6094,468.6719 183.25,468.8281 Q183.9063,468.9844 184.4688,469.2813 L184.4688,472 Q183.8438,471.4219 183.25,471.1563 Q182.6563,470.875 182.0313,470.875 Q180.6875,470.875 180,471.9531 Q179.3125,473.0156 179.3125,475.1094 Q179.3125,477.2031 180,478.2813 Q180.6875,479.3438 182.0313,479.3438 Q182.6563,479.3438 183.25,479.0781 Q183.8438,478.7969 184.4688,478.2188 L184.4688,480.9375 Z " fill="#000000"/><text fill="#000000" font-family="sans-serif" font-size="14" lengthAdjust="spacing" textLength="154.1641" x="195.5" y="480.1436">cpp_cv_qualified_type</text><line style="stroke:#181818;stroke-width:0.5;" x1="167.5" x2="351.6641" y1="491.2969" y2="491.2969"/><line style="stroke:#181818;stroke-width:0.5;" x1="167.5" x2="351.6641" y1="499.2969" y2="499.2969"/></g></a><!--class C_0006892285644718134459--><a href="https://github.com/foonathan/cppast/blob/5329e377ab9b9ab9309e9641f3fcda04366a449a/include/cppast/cpp_type.hpp#L359" target="_top" title="cpp_pointer_type" xlink:actuate="onRequest" xlink:href="https://github.com/foonathan/cppast/blob/5329e377ab9b9ab9309e9641f3fcda04366a449a/include/cppast/cpp_type.hpp#L359" xlink:show="new" xlink:title="cpp_pointer_type" xlink:type="simple"><g id="elem_C_0006892285644718134459"><rect codeLine="32" fill="#F1F1F1" height="48" id="C_0006892285644718134459" rx="2.5" ry="2.5" style="stroke:#181818;stroke-width:0.5;" width="152.8184" x="183" y="542.2969"/><ellipse cx="198" cy="558.2969" fill="#ADD1B2" rx="11" ry="11" style="stroke:#181818;stroke-width:1;"/><path d="M200.9688,563.9375 Q200.3906,564.2344 199.75,564.375 Q199.1094,564.5313 198.4063,564.5313 Q195.9063,564.5313 194.5781,562.8906 Q193.2656,561.2344 193.2656,558.1094 Q193.2656,554.9844 194.5781,553.3281 Q195.9063,551.6719 198.4063,551.6719 Q199.1094,551.6719 199.75,551.8281 Q200.4063,551.9844 200.9688,552.2813 L200.9688,555 Q200.3438,554.4219 199.75,554.1563 Q199.1563,553.875 198.5313,553.875 Q197.1875,553.875 196.5,554.9531 Q195.8125,556.0156 195.8125,558.1094 Q195.8125,560.2031 196.5,561.2813 Q197.1875,562.3438 198.5313,562.3438 Q199.1563,562.3438 199.75,562.0781 Q200.3438,561.7969 200.9688,561.2188 L200.9688,563.9375 Z " fill="#000000"/><text fill="#000000" font-family="sans-serif" font-size="14" lengthAdjust="spacing" textLength="120.8184" x="212" y="563.1436">cpp_pointer_type</text><line style="stroke:#181818;stroke-width:0.5;" x1="184" x2="334.8184" y1="574.2969" y2="574.2969"/><line style="stroke:#181818;stroke-width:0.5;" x1="184" x2="334.8184" y1="582.2969" y2="582.2969"/></g></a><!--class C_0004804591595803064605--><a href="https://github.com/foonathan/cppast/blob/5329e377ab9b9ab9309e9641f3fcda04366a449a/include/cppast/cpp_type.hpp#L394" target="_top" title="cpp_reference_type" xlink:actuate="onRequest" xlink:href="https://github.com/foonathan/cppast/blob/5329e377ab9b9ab9309e9641f3fcda04366a449a/include/cppast/cpp_type.hpp#L394" xlink:show="new" xlink:title="cpp_reference_type" xlink:type="simple"><g id="elem_C_0004804591595803064605"><rect codeLine="36" fill="#F1F1F1" height="48" id="C_0004804591595803064605" rx="2.5" ry="2.5" style="stroke:#181818;stroke-width:0.5;" width="170.209" x="174.5" y="625.2969"/><ellipse cx="189.5" cy="641.2969" fill="#ADD1B2" rx="11" ry="11" style="stroke:#181818;stroke-width:1;"/><path d="M192.4688,646.9375 Q191.8906,647.2344 191.25,647.375 Q190.6094,647.5313 189.9063,647.5313 Q187.4063,647.5313 186.0781,645.8906 Q184.7656,644.2344 184.7656,641.1094 Q184.7656,637.9844 186.0781,636.3281 Q187.4063,634.6719 189.9063,634.6719 Q190.6094,634.6719 191.25,634.8281 Q191.9063,634.9844 192.4688,635.2813 L192.4688,638 Q191.8438,637.4219 191.25,637.1563 Q190.6563,636.875 190.0313,636.875 Q188.6875,636.875 188,637.9531 Q187.3125,639.0156 187.3125,641.1094 Q187.3125,643.2031 188,644.2813 Q188.6875,645.3438 190.0313,645.3438 Q190.6563,645.3438 191.25,645.0781 Q191.8438,644.7969 192.4688,644.2188 L192.4688,646.9375 Z " fill="#000000"/><text fill="#000000" font-family="sans-serif" font-size="14" lengthAdjust="spacing" textLength="138.209" x="203.5" y="646.1436">cpp_reference_type</text><line style="stroke:#181818;stroke-width:0.5;" x1="175.5" x2="343.709" y1="657.2969" y2="657.2969"/><line style="stroke:#181818;stroke-width:0.5;" x1="175.5" x2="343.709" y1="665.2969" y2="665.2969"/></g></a><!--reverse link C_0012685224329895379678 to C_0004813842429643163269--><g id="link_C_0012685224329895379678_C_0004813842429643163269"><path codeLine="39" d="M63.6314,317.2828 C73.2314,268.2928 97.77,174.5969 163,109.2969 C169.5,102.7869 177.21,97.2469 185.37,92.5369 " fill="transparent" id="C_0012685224329895379678-backto-C_0004813842429643163269" style="stroke:#181818;stroke-width:1;"/><polygon fill="transparent" points="60.17,334.9469,69.5194,318.4366,57.7434,316.129,60.17,334.9469" style="stroke:#181818;stroke-width:1;"/></g><!--reverse link C_0012685224329895379678 to C_0016286280656642083260--><g id="link_C_0012685224329895379678_C_0016286280656642083260"><path codeLine="40" d="M73.1912,318.6064 C88.9212,282.9264 115.46,232.6069 163,192.2969 C170.71,185.7669 179.61,180.1269 188.82,175.3069 " fill="transparent" id="C_0012685224329895379678-backto-C_0016286280656642083260" style="stroke:#181818;stroke-width:1;"/><polygon fill="transparent" points="65.93,335.0769,78.6813,321.0269,67.7011,316.186,65.93,335.0769" style="stroke:#181818;stroke-width:1;"/></g><!--reverse link C_0012685224329895379678 to C_0017335635478607505504--><g id="link_C_0012685224329895379678_C_0017335635478607505504"><path codeLine="41" d="M96.3337,323.3096 C117.1537,305.2696 133.75,292.6469 163,275.2969 C173.32,269.1769 184.72,263.4669 195.95,258.3669 " fill="transparent" id="C_0012685224329895379678-backto-C_0017335635478607505504" style="stroke:#181818;stroke-width:1;"/><polygon fill="transparent" points="82.73,335.0969,100.2628,327.8442,92.4046,318.7751,82.73,335.0969" style="stroke:#181818;stroke-width:1;"/></g><!--reverse link C_0012685224329895379678 to C_0014472026947678462140--><g id="link_C_0012685224329895379678_C_0014472026947678462140"><path codeLine="42" d="M120.8439,345.8466 C147.3739,340.3366 163.28,337.0469 192.38,331.0069 " fill="transparent" id="C_0012685224329895379678-backto-C_0014472026947678462140" style="stroke:#181818;stroke-width:1;"/><polygon fill="transparent" points="103.22,349.5069,122.064,351.7212,119.6238,339.9719,103.22,349.5069" style="stroke:#181818;stroke-width:1;"/></g><!--reverse link C_0012685224329895379678 to C_0004063987833557896570--><g id="link_C_0012685224329895379678_C_0004063987833557896570"><path codeLine="43" d="M120.8616,372.4311 C140.8516,376.4811 147.16,377.7569 170.21,382.4169 " fill="transparent" id="C_0012685224329895379678-backto-C_0004063987833557896570" style="stroke:#181818;stroke-width:1;"/><polygon fill="transparent" points="103.22,368.8569,119.6702,378.3116,122.053,366.5506,103.22,368.8569" style="stroke:#181818;stroke-width:1;"/></g><!--reverse link C_0012685224329895379678 to C_0002742775955639665712--><g id="link_C_0012685224329895379678_C_0002742775955639665712"><path codeLine="44" d="M97.543,395.0901 C118.403,412.5501 134.39,424.3769 163,441.2969 C173.91,447.7469 186,453.8169 197.8,459.2269 " fill="transparent" id="C_0012685224329895379678-backto-C_0002742775955639665712" style="stroke:#181818;stroke-width:1;"/><polygon fill="transparent" points="83.74,383.5369,93.6919,399.6911,101.3941,390.4891,83.74,383.5369" style="stroke:#181818;stroke-width:1;"/></g><!--reverse link C_0012685224329895379678 to C_0006892285644718134459--><g id="link_C_0012685224329895379678_C_0006892285644718134459"><path codeLine="45" d="M73.5965,399.8679 C89.5365,435.1179 116.06,484.3669 163,524.2969 C171.14,531.2169 180.6,537.1869 190.34,542.2669 " fill="transparent" id="C_0012685224329895379678-backto-C_0006892285644718134459" style="stroke:#181818;stroke-width:1;"/><polygon fill="transparent" points="66.18,383.4669,68.1295,402.3401,79.0636,397.3958,66.18,383.4669" style="stroke:#181818;stroke-width:1;"/></g><!--reverse link C_0012685224329895379678 to C_0004804591595803064605--><g id="link_C_0012685224329895379678_C_0004804591595803064605"><path codeLine="46" d="M63.8409,401.0511 C73.6309,449.5611 98.4,542.2469 163,607.2969 C169.89,614.2369 178.13,620.1169 186.83,625.0769 " fill="transparent" id="C_0012685224329895379678-backto-C_0004804591595803064605" style="stroke:#181818;stroke-width:1;"/><polygon fill="transparent" points="60.28,383.4069,57.9594,402.2381,69.7223,399.8642,60.28,383.4069" style="stroke:#181818;stroke-width:1;"/></g><!--SRC=[nPRBZfim58RtUGfhkaWhDS7tIzLT5zrCb-rcD486JB1430KpxOZEkzTjcX44HyqgaH0B_pxWJ_-vs5jV6x3EspRrpwrPWxpMVGygQphTvTKpAApUTNg_gatfWMz0PtUL3wkToRrjtEgm_-xuWJkWU_0fXH1XBXd6b60b5ID2SI7_RJudWuU7olks_v0aE-kh8TlcpJufcyPfNscNX7_etYTPtMG92u662A4pbQdm8b0PnIagIPaN6bB2kQPKwSIwl1uASmm-ddDRjUsRUqh7uyBBuoCOLscwUfaY3SxyR9lU57CuI2KYacAAmpy9uWHpDO6BoTU7KsnS8iGniy7MtheJ1pcMuO6SSKunb842JXsCoDU7H1oDfmHdhEnDbnQcjExKJIG8OPmmAYI7Wa7689s2HkJhWsA8noX6d5OFlZcXf5I4Zt15HQWroZ6YCpiZyWqe2Hndnu_J5QOrhZ3EdvObv4H98ODXJ4Z5cO2pibpADq2aQbmon3dpf_Jxe6jRsaK7me9Y8PXY8JKL3oW8Jr4ZylLH2JeKvm8ZJjisrlcGtNDGBXN6al6GdoYqLKhPhDL6v1k0ieEdKu8uOsTAqncNcyL0WU7aA1Wc8O6SSiZc0sKXtu1I7SRbd672UNQmV_orsPmVdFyFYuwY2y9YZVs2i5Ydl8Gjqdqk28jLyWLXiRguo81begtMduqB5pvl2l0ZvDAVIw3RROPz_HuycQuFzpm0jtmBL-lx-szVNjU-PeFpms7two9IMxH5u2qQ_ghetMy0]--></g></svg>