<svg xmlns="http://www.w3.org/2000/svg" xmlns:xlink="http://www.w3.org/1999/xlink" contentStyleType="text/css" data-diagram-type="CLASS" height="588px" preserveAspectRatio="none" style="width:1658px;height:588px;background:#FFFFFF;" version="1.1" viewBox="0 0 1658 588" width="1658px" zoomAndPan="magnify"><title>'cpp_entity_index' class diagram</title><defs/><g><text fill="#000000" font-family="sans-serif" font-size="14" font-weight="bold" lengthAdjust="spacing" textLength="255.1855" x="694.6968" y="22.9951">'cpp_entity_index' class diagram</text><!--class C_0004485257828227364477--><a href="https://github.com/foonathan/cppast/blob/5329e377ab9b9ab9309e9641f3fcda04366a449a/include/cppast/cpp_attribute.hpp#L42" target="_top" title="cpp_attribute" xlink:actuate="onRequest" xlink:href="https://github.com/foonathan/cppast/blob/5329e377ab9b9ab9309e9641f3fcda04366a449a/include/cppast/cpp_attribute.hpp#L42" xlink:show="new" xlink:title="cpp_attribute" xlink:type="simple"><g id="elem_C_0004485257828227364477"><rect codeLine="4" fill="#F1F1F1" height="48" id="C_0004485257828227364477" rx="2.5" ry="2.5" style="stroke:#181818;stroke-width:0.5;" width="125.5361" x="1130.5" y="284.2969"/><ellipse cx="1145.5" cy="300.2969" fill="#ADD1B2" rx="11" ry="11" style="stroke:#181818;stroke-width:1;"/><path d="M1148.4688,305.9375 Q1147.8906,306.2344 1147.25,306.375 Q1146.6094,306.5313 1145.9063,306.5313 Q1143.4063,306.5313 1142.0781,304.8906 Q1140.7656,303.2344 1140.7656,300.1094 Q1140.7656,296.9844 1142.0781,295.3281 Q1143.4063,293.6719 1145.9063,293.6719 Q1146.6094,293.6719 1147.25,293.8281 Q1147.9063,293.9844 1148.4688,294.2813 L1148.4688,297 Q1147.8438,296.4219 1147.25,296.1563 Q1146.6563,295.875 1146.0313,295.875 Q1144.6875,295.875 1144,296.9531 Q1143.3125,298.0156 1143.3125,300.1094 Q1143.3125,302.2031 1144,303.2813 Q1144.6875,304.3438 1146.0313,304.3438 Q1146.6563,304.3438 1147.25,304.0781 Q1147.8438,303.7969 1148.4688,303.2188 L1148.4688,305.9375 Z " fill="#000000"/><text fill="#000000" font-family="sans-serif" font-size="14" lengthAdjust="spacing" textLength="93.5361" x="1159.5" y="305.1436">cpp_attribute</text><line style="stroke:#181818;stroke-width:0.5;" x1="1131.5" x2="1255.0361" y1="316.2969" y2="316.2969"/><line style="stroke:#181818;stroke-width:0.5;" x1="1131.5" x2="1255.0361" y1="324.2969" y2="324.2969"/></g></a><!--class C_0013528989159768861052--><a href="https://github.com/foonathan/cppast/blob/5329e377ab9b9ab9309e9641f3fcda04366a449a/include/cppast/cpp_entity.hpp#L22" target="_top" title="cpp_scope_name" xlink:actuate="onRequest" xlink:href="https://github.com/foonathan/cppast/blob/5329e377ab9b9ab9309e9641f3fcda04366a449a/include/cppast/cpp_entity.hpp#L22" xlink:show="new" xlink:title="cpp_scope_name" xlink:type="simple"><g id="elem_C_0013528989159768861052"><rect codeLine="8" fill="#F1F1F1" height="48" id="C_0013528989159768861052" rx="2.5" ry="2.5" style="stroke:#181818;stroke-width:0.5;" width="152.2305" x="402.5" y="44.2969"/><ellipse cx="417.5" cy="60.2969" fill="#ADD1B2" rx="11" ry="11" style="stroke:#181818;stroke-width:1;"/><path d="M420.4688,65.9375 Q419.8906,66.2344 419.25,66.375 Q418.6094,66.5313 417.9063,66.5313 Q415.4063,66.5313 414.0781,64.8906 Q412.7656,63.2344 412.7656,60.1094 Q412.7656,56.9844 414.0781,55.3281 Q415.4063,53.6719 417.9063,53.6719 Q418.6094,53.6719 419.25,53.8281 Q419.9063,53.9844 420.4688,54.2813 L420.4688,57 Q419.8438,56.4219 419.25,56.1563 Q418.6563,55.875 418.0313,55.875 Q416.6875,55.875 416,56.9531 Q415.3125,58.0156 415.3125,60.1094 Q415.3125,62.2031 416,63.2813 Q416.6875,64.3438 418.0313,64.3438 Q418.6563,64.3438 419.25,64.0781 Q419.8438,63.7969 420.4688,63.2188 L420.4688,65.9375 Z " fill="#000000"/><text fill="#000000" font-family="sans-serif" font-size="14" lengthAdjust="spacing" textLength="120.2305" x="431.5" y="65.1436">cpp_scope_name</text><line style="stroke:#181818;stroke-width:0.5;" x1="403.5" x2="553.7305" y1="76.2969" y2="76.2969"/><line style="stroke:#181818;stroke-width:0.5;" x1="403.5" x2="553.7305" y1="84.2969" y2="84.2969"/></g></a><!--class C_0014837562978658247224--><a href="https://github.com/foonathan/cppast/blob/5329e377ab9b9ab9309e9641f3fcda04366a449a/include/cppast/cpp_entity.hpp#L47" target="_top" title="cpp_entity" xlink:actuate="onRequest" xlink:href="https://github.com/foonathan/cppast/blob/5329e377ab9b9ab9309e9641f3fcda04366a449a/include/cppast/cpp_entity.hpp#L47" xlink:show="new" xlink:title="cpp_entity" xlink:type="simple"><g id="elem_C_0014837562978658247224"><rect codeLine="12" fill="#F1F1F1" height="48" id="C_0014837562978658247224" rx="2.5" ry="2.5" style="stroke:#181818;stroke-width:0.5;" width="105.1104" x="828" y="201.2969"/><ellipse cx="843" cy="217.2969" fill="#ADD1B2" rx="11" ry="11" style="stroke:#181818;stroke-width:1;"/><path d="M845.9688,222.9375 Q845.3906,223.2344 844.75,223.375 Q844.1094,223.5313 843.4063,223.5313 Q840.9063,223.5313 839.5781,221.8906 Q838.2656,220.2344 838.2656,217.1094 Q838.2656,213.9844 839.5781,212.3281 Q840.9063,210.6719 843.4063,210.6719 Q844.1094,210.6719 844.75,210.8281 Q845.4063,210.9844 845.9688,211.2813 L845.9688,214 Q845.3438,213.4219 844.75,213.1563 Q844.1563,212.875 843.5313,212.875 Q842.1875,212.875 841.5,213.9531 Q840.8125,215.0156 840.8125,217.1094 Q840.8125,219.2031 841.5,220.2813 Q842.1875,221.3438 843.5313,221.3438 Q844.1563,221.3438 844.75,221.0781 Q845.3438,220.7969 845.9688,220.2188 L845.9688,222.9375 Z " fill="#000000"/><text fill="#000000" font-family="sans-serif" font-size="14" lengthAdjust="spacing" textLength="73.1104" x="857" y="222.1436">cpp_entity</text><line style="stroke:#181818;stroke-width:0.5;" x1="829" x2="932.1104" y1="233.2969" y2="233.2969"/><line style="stroke:#181818;stroke-width:0.5;" x1="829" x2="932.1104" y1="241.2969" y2="241.2969"/></g></a><!--class C_0011598861676029238614--><a href="https://github.com/foonathan/cppast/blob/5329e377ab9b9ab9309e9641f3fcda04366a449a/include/cppast/cpp_entity.hpp#L187" target="_top" title="cpp_unexposed_entity" xlink:actuate="onRequest" xlink:href="https://github.com/foonathan/cppast/blob/5329e377ab9b9ab9309e9641f3fcda04366a449a/include/cppast/cpp_entity.hpp#L187" xlink:show="new" xlink:title="cpp_unexposed_entity" xlink:type="simple"><g id="elem_C_0011598861676029238614"><rect codeLine="16" fill="#F1F1F1" height="48" id="C_0011598861676029238614" rx="2.5" ry="2.5" style="stroke:#181818;stroke-width:0.5;" width="189.001" x="1099" y="367.2969"/><ellipse cx="1114" cy="383.2969" fill="#ADD1B2" rx="11" ry="11" style="stroke:#181818;stroke-width:1;"/><path d="M1116.9688,388.9375 Q1116.3906,389.2344 1115.75,389.375 Q1115.1094,389.5313 1114.4063,389.5313 Q1111.9063,389.5313 1110.5781,387.8906 Q1109.2656,386.2344 1109.2656,383.1094 Q1109.2656,379.9844 1110.5781,378.3281 Q1111.9063,376.6719 1114.4063,376.6719 Q1115.1094,376.6719 1115.75,376.8281 Q1116.4063,376.9844 1116.9688,377.2813 L1116.9688,380 Q1116.3438,379.4219 1115.75,379.1563 Q1115.1563,378.875 1114.5313,378.875 Q1113.1875,378.875 1112.5,379.9531 Q1111.8125,381.0156 1111.8125,383.1094 Q1111.8125,385.2031 1112.5,386.2813 Q1113.1875,387.3438 1114.5313,387.3438 Q1115.1563,387.3438 1115.75,387.0781 Q1116.3438,386.7969 1116.9688,386.2188 L1116.9688,388.9375 Z " fill="#000000"/><text fill="#000000" font-family="sans-serif" font-size="14" lengthAdjust="spacing" textLength="157.001" x="1128" y="388.1436">cpp_unexposed_entity</text><line style="stroke:#181818;stroke-width:0.5;" x1="1100" x2="1287.001" y1="399.2969" y2="399.2969"/><line style="stroke:#181818;stroke-width:0.5;" x1="1100" x2="1287.001" y1="407.2969" y2="407.2969"/></g></a><!--class C_0009218756409310628439--><a href="https://github.com/foonathan/cppast/blob/5329e377ab9b9ab9309e9641f3fcda04366a449a/include/cppast/cpp_entity_index.hpp#L38" target="_top" title="cpp_entity_id" xlink:actuate="onRequest" xlink:href="https://github.com/foonathan/cppast/blob/5329e377ab9b9ab9309e9641f3fcda04366a449a/include/cppast/cpp_entity_index.hpp#L38" xlink:show="new" xlink:title="cpp_entity_id" xlink:type="simple"><g id="elem_C_0009218756409310628439"><rect codeLine="20" fill="#F1F1F1" height="48" id="C_0009218756409310628439" rx="2.5" ry="2.5" style="stroke:#181818;stroke-width:0.5;" width="124.8867" x="1131" y="450.2969"/><ellipse cx="1146" cy="466.2969" fill="#ADD1B2" rx="11" ry="11" style="stroke:#181818;stroke-width:1;"/><path d="M1148.9688,471.9375 Q1148.3906,472.2344 1147.75,472.375 Q1147.1094,472.5313 1146.4063,472.5313 Q1143.9063,472.5313 1142.5781,470.8906 Q1141.2656,469.2344 1141.2656,466.1094 Q1141.2656,462.9844 1142.5781,461.3281 Q1143.9063,459.6719 1146.4063,459.6719 Q1147.1094,459.6719 1147.75,459.8281 Q1148.4063,459.9844 1148.9688,460.2813 L1148.9688,463 Q1148.3438,462.4219 1147.75,462.1563 Q1147.1563,461.875 1146.5313,461.875 Q1145.1875,461.875 1144.5,462.9531 Q1143.8125,464.0156 1143.8125,466.1094 Q1143.8125,468.2031 1144.5,469.2813 Q1145.1875,470.3438 1146.5313,470.3438 Q1147.1563,470.3438 1147.75,470.0781 Q1148.3438,469.7969 1148.9688,469.2188 L1148.9688,471.9375 Z " fill="#000000"/><text fill="#000000" font-family="sans-serif" font-size="14" lengthAdjust="spacing" textLength="92.8867" x="1160" y="471.1436">cpp_entity_id</text><line style="stroke:#181818;stroke-width:0.5;" x1="1132" x2="1254.8867" y1="482.2969" y2="482.2969"/><line style="stroke:#181818;stroke-width:0.5;" x1="1132" x2="1254.8867" y1="490.2969" y2="490.2969"/></g></a><!--class C_0015917849809320296332--><a href="https://github.com/foonathan/cppast/blob/5329e377ab9b9ab9309e9641f3fcda04366a449a/include/cppast/cpp_entity_index.hpp#L58" target="_top" title="cpp_entity_index" xlink:actuate="onRequest" xlink:href="https://github.com/foonathan/cppast/blob/5329e377ab9b9ab9309e9641f3fcda04366a449a/include/cppast/cpp_entity_index.hpp#L58" xlink:show="new" xlink:title="cpp_entity_index" xlink:type="simple"><g id="elem_C_0015917849809320296332"><rect codeLine="24" fill="#F1F1F1" height="48" id="C_0015917849809320296332" rx="2.5" ry="2.5" style="stroke:#181818;stroke-width:0.5;" width="150.6582" x="805" y="456.2969"/><ellipse cx="820" cy="472.2969" fill="#ADD1B2" rx="11" ry="11" style="stroke:#181818;stroke-width:1;"/><path d="M822.9688,477.9375 Q822.3906,478.2344 821.75,478.375 Q821.1094,478.5313 820.4063,478.5313 Q817.9063,478.5313 816.5781,476.8906 Q815.2656,475.2344 815.2656,472.1094 Q815.2656,468.9844 816.5781,467.3281 Q817.9063,465.6719 820.4063,465.6719 Q821.1094,465.6719 821.75,465.8281 Q822.4063,465.9844 822.9688,466.2813 L822.9688,469 Q822.3438,468.4219 821.75,468.1563 Q821.1563,467.875 820.5313,467.875 Q819.1875,467.875 818.5,468.9531 Q817.8125,470.0156 817.8125,472.1094 Q817.8125,474.2031 818.5,475.2813 Q819.1875,476.3438 820.5313,476.3438 Q821.1563,476.3438 821.75,476.0781 Q822.3438,475.7969 822.9688,475.2188 L822.9688,477.9375 Z " fill="#000000"/><text fill="#000000" font-family="sans-serif" font-size="14" lengthAdjust="spacing" textLength="118.6582" x="834" y="477.1436">cpp_entity_index</text><line style="stroke:#181818;stroke-width:0.5;" x1="806" x2="954.6582" y1="488.2969" y2="488.2969"/><line style="stroke:#181818;stroke-width:0.5;" x1="806" x2="954.6582" y1="496.2969" y2="496.2969"/></g></a><!--class C_0015916253088811816967--><a href="https://github.com/foonathan/cppast/blob/5329e377ab9b9ab9309e9641f3fcda04366a449a/include/cppast/cpp_entity_index.hpp#L62" target="_top" title="cpp_entity_index::duplicate_definition_error" xlink:actuate="onRequest" xlink:href="https://github.com/foonathan/cppast/blob/5329e377ab9b9ab9309e9641f3fcda04366a449a/include/cppast/cpp_entity_index.hpp#L62" xlink:show="new" xlink:title="cpp_entity_index::duplicate_definition_error" xlink:type="simple"><g id="elem_C_0015916253088811816967"><rect codeLine="28" fill="#F1F1F1" height="48" id="C_0015916253088811816967" rx="2.5" ry="2.5" style="stroke:#181818;stroke-width:0.5;" width="339.2412" x="309" y="399.2969"/><ellipse cx="324" cy="415.2969" fill="#ADD1B2" rx="11" ry="11" style="stroke:#181818;stroke-width:1;"/><path d="M326.9688,420.9375 Q326.3906,421.2344 325.75,421.375 Q325.1094,421.5313 324.4063,421.5313 Q321.9063,421.5313 320.5781,419.8906 Q319.2656,418.2344 319.2656,415.1094 Q319.2656,411.9844 320.5781,410.3281 Q321.9063,408.6719 324.4063,408.6719 Q325.1094,408.6719 325.75,408.8281 Q326.4063,408.9844 326.9688,409.2813 L326.9688,412 Q326.3438,411.4219 325.75,411.1563 Q325.1563,410.875 324.5313,410.875 Q323.1875,410.875 322.5,411.9531 Q321.8125,413.0156 321.8125,415.1094 Q321.8125,417.2031 322.5,418.2813 Q323.1875,419.3438 324.5313,419.3438 Q325.1563,419.3438 325.75,419.0781 Q326.3438,418.7969 326.9688,418.2188 L326.9688,420.9375 Z " fill="#000000"/><text fill="#000000" font-family="sans-serif" font-size="14" lengthAdjust="spacing" textLength="307.2412" x="338" y="420.1436">cpp_entity_index::duplicate_definition_error</text><line style="stroke:#181818;stroke-width:0.5;" x1="310" x2="647.2412" y1="431.2969" y2="431.2969"/><line style="stroke:#181818;stroke-width:0.5;" x1="310" x2="647.2412" y1="439.2969" y2="439.2969"/></g></a><!--class C_0005075454191225961157--><a href="https://github.com/foonathan/cppast/blob/5329e377ab9b9ab9309e9641f3fcda04366a449a/include/cppast/cpp_entity_index.hpp#L116" target="_top" title="cpp_entity_index::hash" xlink:actuate="onRequest" xlink:href="https://github.com/foonathan/cppast/blob/5329e377ab9b9ab9309e9641f3fcda04366a449a/include/cppast/cpp_entity_index.hpp#L116" xlink:show="new" xlink:title="cpp_entity_index::hash" xlink:type="simple"><g id="elem_C_0005075454191225961157"><rect codeLine="32" fill="#F1F1F1" height="48" id="C_0005075454191225961157" rx="2.5" ry="2.5" style="stroke:#181818;stroke-width:0.5;" width="193.7109" x="381.5" y="482.2969"/><ellipse cx="396.5" cy="498.2969" fill="#ADD1B2" rx="11" ry="11" style="stroke:#181818;stroke-width:1;"/><path d="M399.4688,503.9375 Q398.8906,504.2344 398.25,504.375 Q397.6094,504.5313 396.9063,504.5313 Q394.4063,504.5313 393.0781,502.8906 Q391.7656,501.2344 391.7656,498.1094 Q391.7656,494.9844 393.0781,493.3281 Q394.4063,491.6719 396.9063,491.6719 Q397.6094,491.6719 398.25,491.8281 Q398.9063,491.9844 399.4688,492.2813 L399.4688,495 Q398.8438,494.4219 398.25,494.1563 Q397.6563,493.875 397.0313,493.875 Q395.6875,493.875 395,494.9531 Q394.3125,496.0156 394.3125,498.1094 Q394.3125,500.2031 395,501.2813 Q395.6875,502.3438 397.0313,502.3438 Q397.6563,502.3438 398.25,502.0781 Q398.8438,501.7969 399.4688,501.2188 L399.4688,503.9375 Z " fill="#000000"/><text fill="#000000" font-family="sans-serif" font-size="14" lengthAdjust="spacing" textLength="161.7109" x="410.5" y="503.1436">cpp_entity_index::hash</text><line style="stroke:#181818;stroke-width:0.5;" x1="382.5" x2="574.2109" y1="514.2969" y2="514.2969"/><line style="stroke:#181818;stroke-width:0.5;" x1="382.5" x2="574.2109" y1="522.2969" y2="522.2969"/></g></a><!--class C_0015347669116277710106--><a href="https://github.com/foonathan/cppast/blob/5329e377ab9b9ab9309e9641f3fcda04366a449a/include/cppast/cpp_entity_index.hpp#L124" target="_top" title="cpp_entity_index::value" xlink:actuate="onRequest" xlink:href="https://github.com/foonathan/cppast/blob/5329e377ab9b9ab9309e9641f3fcda04366a449a/include/cppast/cpp_entity_index.hpp#L124" xlink:show="new" xlink:title="cpp_entity_index::value" xlink:type="simple"><g id="elem_C_0015347669116277710106"><rect codeLine="36" fill="#F1F1F1" height="48" id="C_0015347669116277710106" rx="2.5" ry="2.5" style="stroke:#181818;stroke-width:0.5;" width="198.332" x="379.5" y="301.2969"/><ellipse cx="394.5" cy="317.2969" fill="#ADD1B2" rx="11" ry="11" style="stroke:#181818;stroke-width:1;"/><path d="M397.4688,322.9375 Q396.8906,323.2344 396.25,323.375 Q395.6094,323.5313 394.9063,323.5313 Q392.4063,323.5313 391.0781,321.8906 Q389.7656,320.2344 389.7656,317.1094 Q389.7656,313.9844 391.0781,312.3281 Q392.4063,310.6719 394.9063,310.6719 Q395.6094,310.6719 396.25,310.8281 Q396.9063,310.9844 397.4688,311.2813 L397.4688,314 Q396.8438,313.4219 396.25,313.1563 Q395.6563,312.875 395.0313,312.875 Q393.6875,312.875 393,313.9531 Q392.3125,315.0156 392.3125,317.1094 Q392.3125,319.2031 393,320.2813 Q393.6875,321.3438 395.0313,321.3438 Q395.6563,321.3438 396.25,321.0781 Q396.8438,320.7969 397.4688,320.2188 L397.4688,322.9375 Z " fill="#000000"/><text fill="#000000" font-family="sans-serif" font-size="14" lengthAdjust="spacing" textLength="166.332" x="408.5" y="322.1436">cpp_entity_index::value</text><line style="stroke:#181818;stroke-width:0.5;" x1="380.5" x2="576.832" y1="333.2969" y2="333.2969"/><line style="stroke:#181818;stroke-width:0.5;" x1="380.5" x2="576.832" y1="341.2969" y2="341.2969"/></g></a><!--class C_0005317930743773681966--><a href="https://github.com/foonathan/cppast/blob/5329e377ab9b9ab9309e9641f3fcda04366a449a/include/cppast/code_generator.hpp#L142" target="_top" title="code_generator" xlink:actuate="onRequest" xlink:href="https://github.com/foonathan/cppast/blob/5329e377ab9b9ab9309e9641f3fcda04366a449a/include/cppast/code_generator.hpp#L142" xlink:show="new" xlink:title="code_generator" xlink:type="simple"><g id="elem_C_0005317930743773681966"><rect codeLine="40" fill="#F1F1F1" height="48" id="C_0005317930743773681966" rx="2.5" ry="2.5" style="stroke:#181818;stroke-width:0.5;" width="141.8945" x="407.5" y="129.2969"/><ellipse cx="422.5" cy="145.2969" fill="#ADD1B2" rx="11" ry="11" style="stroke:#181818;stroke-width:1;"/><path d="M425.4688,150.9375 Q424.8906,151.2344 424.25,151.375 Q423.6094,151.5313 422.9063,151.5313 Q420.4063,151.5313 419.0781,149.8906 Q417.7656,148.2344 417.7656,145.1094 Q417.7656,141.9844 419.0781,140.3281 Q420.4063,138.6719 422.9063,138.6719 Q423.6094,138.6719 424.25,138.8281 Q424.9063,138.9844 425.4688,139.2813 L425.4688,142 Q424.8438,141.4219 424.25,141.1563 Q423.6563,140.875 423.0313,140.875 Q421.6875,140.875 421,141.9531 Q420.3125,143.0156 420.3125,145.1094 Q420.3125,147.2031 421,148.2813 Q421.6875,149.3438 423.0313,149.3438 Q423.6563,149.3438 424.25,149.0781 Q424.8438,148.7969 425.4688,148.2188 L425.4688,150.9375 Z " fill="#000000"/><text fill="#000000" font-family="sans-serif" font-size="14" lengthAdjust="spacing" textLength="109.8945" x="436.5" y="150.1436">code_generator</text><line style="stroke:#181818;stroke-width:0.5;" x1="408.5" x2="548.3945" y1="161.2969" y2="161.2969"/><line style="stroke:#181818;stroke-width:0.5;" x1="408.5" x2="548.3945" y1="169.2969" y2="169.2969"/></g></a><!--class C_0001539461946534932835--><a href="https://github.com/foonathan/cppast/blob/5329e377ab9b9ab9309e9641f3fcda04366a449a/include/cppast/code_generator.hpp#L168" target="_top" title="code_generator::output" xlink:actuate="onRequest" xlink:href="https://github.com/foonathan/cppast/blob/5329e377ab9b9ab9309e9641f3fcda04366a449a/include/cppast/code_generator.hpp#L168" xlink:show="new" xlink:title="code_generator::output" xlink:type="simple"><g id="elem_C_0001539461946534932835"><rect codeLine="44" fill="#F1F1F1" height="48" id="C_0001539461946534932835" rx="2.5" ry="2.5" style="stroke:#181818;stroke-width:0.5;" width="197.5049" x="7" y="164.2969"/><ellipse cx="22" cy="180.2969" fill="#ADD1B2" rx="11" ry="11" style="stroke:#181818;stroke-width:1;"/><path d="M24.9688,185.9375 Q24.3906,186.2344 23.75,186.375 Q23.1094,186.5313 22.4063,186.5313 Q19.9063,186.5313 18.5781,184.8906 Q17.2656,183.2344 17.2656,180.1094 Q17.2656,176.9844 18.5781,175.3281 Q19.9063,173.6719 22.4063,173.6719 Q23.1094,173.6719 23.75,173.8281 Q24.4063,173.9844 24.9688,174.2813 L24.9688,177 Q24.3438,176.4219 23.75,176.1563 Q23.1563,175.875 22.5313,175.875 Q21.1875,175.875 20.5,176.9531 Q19.8125,178.0156 19.8125,180.1094 Q19.8125,182.2031 20.5,183.2813 Q21.1875,184.3438 22.5313,184.3438 Q23.1563,184.3438 23.75,184.0781 Q24.3438,183.7969 24.9688,183.2188 L24.9688,185.9375 Z " fill="#000000"/><text fill="#000000" font-family="sans-serif" font-size="14" lengthAdjust="spacing" textLength="165.5049" x="36" y="185.1436">code_generator::output</text><line style="stroke:#181818;stroke-width:0.5;" x1="8" x2="203.5049" y1="196.2969" y2="196.2969"/><line style="stroke:#181818;stroke-width:0.5;" x1="8" x2="203.5049" y1="204.2969" y2="204.2969"/></g></a><!--class C_0009267542389196346145--><a href="https://github.com/foonathan/cppast/blob/5329e377ab9b9ab9309e9641f3fcda04366a449a/include/cppast/cpp_template_parameter.hpp#L17" target="_top" title="cpp_template_parameter" xlink:actuate="onRequest" xlink:href="https://github.com/foonathan/cppast/blob/5329e377ab9b9ab9309e9641f3fcda04366a449a/include/cppast/cpp_template_parameter.hpp#L17" xlink:show="new" xlink:title="cpp_template_parameter" xlink:type="simple"><g id="elem_C_0009267542389196346145"><rect codeLine="48" fill="#F1F1F1" height="48" id="C_0009267542389196346145" rx="2.5" ry="2.5" style="stroke:#181818;stroke-width:0.5;" width="208.5791" x="1443" y="91.2969"/><ellipse cx="1458" cy="107.2969" fill="#ADD1B2" rx="11" ry="11" style="stroke:#181818;stroke-width:1;"/><path d="M1460.9688,112.9375 Q1460.3906,113.2344 1459.75,113.375 Q1459.1094,113.5313 1458.4063,113.5313 Q1455.9063,113.5313 1454.5781,111.8906 Q1453.2656,110.2344 1453.2656,107.1094 Q1453.2656,103.9844 1454.5781,102.3281 Q1455.9063,100.6719 1458.4063,100.6719 Q1459.1094,100.6719 1459.75,100.8281 Q1460.4063,100.9844 1460.9688,101.2813 L1460.9688,104 Q1460.3438,103.4219 1459.75,103.1563 Q1459.1563,102.875 1458.5313,102.875 Q1457.1875,102.875 1456.5,103.9531 Q1455.8125,105.0156 1455.8125,107.1094 Q1455.8125,109.2031 1456.5,110.2813 Q1457.1875,111.3438 1458.5313,111.3438 Q1459.1563,111.3438 1459.75,111.0781 Q1460.3438,110.7969 1460.9688,110.2188 L1460.9688,112.9375 Z " fill="#000000"/><text fill="#000000" font-family="sans-serif" font-size="14" lengthAdjust="spacing" textLength="176.5791" x="1472" y="112.1436">cpp_template_parameter</text><line style="stroke:#181818;stroke-width:0.5;" x1="1444" x2="1650.5791" y1="123.2969" y2="123.2969"/><line style="stroke:#181818;stroke-width:0.5;" x1="1444" x2="1650.5791" y1="131.2969" y2="131.2969"/></g></a><!--class C_0000056978405368650305--><a href="https://github.com/foonathan/cppast/blob/5329e377ab9b9ab9309e9641f3fcda04366a449a/include/cppast/cpp_template.hpp#L21" target="_top" title="cpp_template" xlink:actuate="onRequest" xlink:href="https://github.com/foonathan/cppast/blob/5329e377ab9b9ab9309e9641f3fcda04366a449a/include/cppast/cpp_template.hpp#L21" xlink:show="new" xlink:title="cpp_template" xlink:type="simple"><g id="elem_C_0000056978405368650305"><rect codeLine="52" fill="#F1F1F1" height="48" id="C_0000056978405368650305" rx="2.5" ry="2.5" style="stroke:#181818;stroke-width:0.5;" width="127.6689" x="1129.5" y="47.2969"/><ellipse cx="1144.5" cy="63.2969" fill="#ADD1B2" rx="11" ry="11" style="stroke:#181818;stroke-width:1;"/><path d="M1147.4688,68.9375 Q1146.8906,69.2344 1146.25,69.375 Q1145.6094,69.5313 1144.9063,69.5313 Q1142.4063,69.5313 1141.0781,67.8906 Q1139.7656,66.2344 1139.7656,63.1094 Q1139.7656,59.9844 1141.0781,58.3281 Q1142.4063,56.6719 1144.9063,56.6719 Q1145.6094,56.6719 1146.25,56.8281 Q1146.9063,56.9844 1147.4688,57.2813 L1147.4688,60 Q1146.8438,59.4219 1146.25,59.1563 Q1145.6563,58.875 1145.0313,58.875 Q1143.6875,58.875 1143,59.9531 Q1142.3125,61.0156 1142.3125,63.1094 Q1142.3125,65.2031 1143,66.2813 Q1143.6875,67.3438 1145.0313,67.3438 Q1145.6563,67.3438 1146.25,67.0781 Q1146.8438,66.7969 1147.4688,66.2188 L1147.4688,68.9375 Z " fill="#000000"/><text fill="#000000" font-family="sans-serif" font-size="14" lengthAdjust="spacing" textLength="95.6689" x="1158.5" y="68.1436">cpp_template</text><line style="stroke:#181818;stroke-width:0.5;" x1="1130.5" x2="1256.1689" y1="79.2969" y2="79.2969"/><line style="stroke:#181818;stroke-width:0.5;" x1="1130.5" x2="1256.1689" y1="87.2969" y2="87.2969"/></g></a><!--class C_0009988748056411922181--><a href="https://github.com/foonathan/cppast/blob/5329e377ab9b9ab9309e9641f3fcda04366a449a/include/cppast/cpp_file.hpp#L27" target="_top" title="cpp_file" xlink:actuate="onRequest" xlink:href="https://github.com/foonathan/cppast/blob/5329e377ab9b9ab9309e9641f3fcda04366a449a/include/cppast/cpp_file.hpp#L27" xlink:show="new" xlink:title="cpp_file" xlink:type="simple"><g id="elem_C_0009988748056411922181"><rect codeLine="56" fill="#F1F1F1" height="48" id="C_0009988748056411922181" rx="2.5" ry="2.5" style="stroke:#181818;stroke-width:0.5;" width="85.792" x="1150.5" y="201.2969"/><ellipse cx="1165.5" cy="217.2969" fill="#ADD1B2" rx="11" ry="11" style="stroke:#181818;stroke-width:1;"/><path d="M1168.4688,222.9375 Q1167.8906,223.2344 1167.25,223.375 Q1166.6094,223.5313 1165.9063,223.5313 Q1163.4063,223.5313 1162.0781,221.8906 Q1160.7656,220.2344 1160.7656,217.1094 Q1160.7656,213.9844 1162.0781,212.3281 Q1163.4063,210.6719 1165.9063,210.6719 Q1166.6094,210.6719 1167.25,210.8281 Q1167.9063,210.9844 1168.4688,211.2813 L1168.4688,214 Q1167.8438,213.4219 1167.25,213.1563 Q1166.6563,212.875 1166.0313,212.875 Q1164.6875,212.875 1164,213.9531 Q1163.3125,215.0156 1163.3125,217.1094 Q1163.3125,219.2031 1164,220.2813 Q1164.6875,221.3438 1166.0313,221.3438 Q1166.6563,221.3438 1167.25,221.0781 Q1167.8438,220.7969 1168.4688,220.2188 L1168.4688,222.9375 Z " fill="#000000"/><text fill="#000000" font-family="sans-serif" font-size="14" lengthAdjust="spacing" textLength="53.792" x="1179.5" y="222.1436">cpp_file</text><line style="stroke:#181818;stroke-width:0.5;" x1="1151.5" x2="1235.292" y1="233.2969" y2="233.2969"/><line style="stroke:#181818;stroke-width:0.5;" x1="1151.5" x2="1235.292" y1="241.2969" y2="241.2969"/></g></a><!--class C_0010549045533069850854--><a href="https://github.com/foonathan/cppast/blob/5329e377ab9b9ab9309e9641f3fcda04366a449a/include/cppast/cppast_fwd.hpp#L55" target="_top" title="cpp_namespace" xlink:actuate="onRequest" xlink:href="https://github.com/foonathan/cppast/blob/5329e377ab9b9ab9309e9641f3fcda04366a449a/include/cppast/cppast_fwd.hpp#L55" xlink:show="new" xlink:title="cpp_namespace" xlink:type="simple"><g id="elem_C_0010549045533069850854"><rect codeLine="60" fill="#F1F1F1" height="48" id="C_0010549045533069850854" rx="2.5" ry="2.5" style="stroke:#181818;stroke-width:0.5;" width="145.2441" x="1121" y="533.2969"/><ellipse cx="1136" cy="549.2969" fill="#ADD1B2" rx="11" ry="11" style="stroke:#181818;stroke-width:1;"/><path d="M1138.9688,554.9375 Q1138.3906,555.2344 1137.75,555.375 Q1137.1094,555.5313 1136.4063,555.5313 Q1133.9063,555.5313 1132.5781,553.8906 Q1131.2656,552.2344 1131.2656,549.1094 Q1131.2656,545.9844 1132.5781,544.3281 Q1133.9063,542.6719 1136.4063,542.6719 Q1137.1094,542.6719 1137.75,542.8281 Q1138.4063,542.9844 1138.9688,543.2813 L1138.9688,546 Q1138.3438,545.4219 1137.75,545.1563 Q1137.1563,544.875 1136.5313,544.875 Q1135.1875,544.875 1134.5,545.9531 Q1133.8125,547.0156 1133.8125,549.1094 Q1133.8125,551.2031 1134.5,552.2813 Q1135.1875,553.3438 1136.5313,553.3438 Q1137.1563,553.3438 1137.75,553.0781 Q1138.3438,552.7969 1138.9688,552.2188 L1138.9688,554.9375 Z " fill="#000000"/><text fill="#000000" font-family="sans-serif" font-size="14" lengthAdjust="spacing" textLength="113.2441" x="1150" y="554.1436">cpp_namespace</text><line style="stroke:#181818;stroke-width:0.5;" x1="1122" x2="1265.2441" y1="565.2969" y2="565.2969"/><line style="stroke:#181818;stroke-width:0.5;" x1="1122" x2="1265.2441" y1="573.2969" y2="573.2969"/></g></a><!--reverse link C_0013528989159768861052 to C_0014837562978658247224--><a href="https://github.com/foonathan/cppast/blob/5329e377ab9b9ab9309e9641f3fcda04366a449a/include/cppast/cpp_entity.hpp#L42" target="_top" title="entity_" xlink:actuate="onRequest" xlink:href="https://github.com/foonathan/cppast/blob/5329e377ab9b9ab9309e9641f3fcda04366a449a/include/cppast/cpp_entity.hpp#L42" xlink:show="new" xlink:title="entity_" xlink:type="simple"><path codeLine="63" d="M566.4874,87.8837 C595.8474,95.0537 617.93,101.2469 648,111.2969 C706.01,130.6869 720.25,137.0469 775,164.2969 C797.38,175.4369 821.53,189.3969 840.98,201.1569 " fill="transparent" id="C_0013528989159768861052-backto-C_0014837562978658247224" style="stroke:#181818;stroke-width:1;"/><polygon fill="transparent" points="554.83,85.0369,559.7098,90.3461,566.4874,87.8837,561.6077,82.5745,554.83,85.0369" style="stroke:#181818;stroke-width:1;"/><rect fill="transparent" height="6" style="stroke:#C82930;stroke-width:1;" width="6" x="700.5" y="111.3633"/><text fill="#000000" font-family="sans-serif" font-size="13" lengthAdjust="spacing" textLength="44.2368" x="710.5" y="118.3638">entity_</text></a><!--reverse link C_0013528989159768861052 to C_0000056978405368650305--><a href="https://github.com/foonathan/cppast/blob/5329e377ab9b9ab9309e9641f3fcda04366a449a/include/cppast/cpp_entity.hpp#L43" target="_top" title="templ_" xlink:actuate="onRequest" xlink:href="https://github.com/foonathan/cppast/blob/5329e377ab9b9ab9309e9641f3fcda04366a449a/include/cppast/cpp_entity.hpp#L43" xlink:show="new" xlink:title="templ_" xlink:type="simple"><path codeLine="64" d="M566.7899,68.667 C708.0099,69.257 998.21,70.4769 1129.47,71.0269 " fill="transparent" id="C_0013528989159768861052-backto-C_0000056978405368650305" style="stroke:#181818;stroke-width:1;"/><polygon fill="transparent" points="554.79,68.6169,560.7732,72.6419,566.7899,68.667,560.8067,64.642,554.79,68.6169" style="stroke:#181818;stroke-width:1;"/><rect fill="transparent" height="6" style="stroke:#C82930;stroke-width:1;" width="6" x="854.5" y="59.3633"/><text fill="#000000" font-family="sans-serif" font-size="13" lengthAdjust="spacing" textLength="44.1226" x="864.5" y="66.3638">templ_</text></a><!--reverse link C_0014837562978658247224 to C_0004485257828227364477--><a href="https://github.com/foonathan/cppast/blob/5329e377ab9b9ab9309e9641f3fcda04366a449a/include/cppast/cpp_entity.hpp#L175" target="_top" title="attributes_" xlink:actuate="onRequest" xlink:href="https://github.com/foonathan/cppast/blob/5329e377ab9b9ab9309e9641f3fcda04366a449a/include/cppast/cpp_entity.hpp#L175" xlink:show="new" xlink:title="attributes_" xlink:type="simple"><path codeLine="65" d="M944.7945,242.19 C999.0345,256.66 1072.68,276.3169 1130.49,291.7469 " fill="transparent" id="C_0014837562978658247224-backto-C_0004485257828227364477" style="stroke:#181818;stroke-width:1;"/><polygon fill="transparent" points="933.2,239.0969,937.9662,244.5083,944.7945,242.19,940.0283,236.7786,933.2,239.0969" style="stroke:#181818;stroke-width:1;"/><rect fill="transparent" height="6" style="stroke:#C82930;stroke-width:1;" width="6" x="989" y="244.3633"/><text fill="#000000" font-family="sans-serif" font-size="13" lengthAdjust="spacing" textLength="69.9766" x="999" y="251.3638">attributes_</text></a><!--reverse link C_0014837562978658247224 to C_0014837562978658247224--><a href="https://github.com/foonathan/cppast/blob/5329e377ab9b9ab9309e9641f3fcda04366a449a/include/cppast/cpp_entity.hpp#L176" target="_top" title="parent_" xlink:actuate="onRequest" xlink:href="https://github.com/foonathan/cppast/blob/5329e377ab9b9ab9309e9641f3fcda04366a449a/include/cppast/cpp_entity.hpp#L176" xlink:show="new" xlink:title="parent_" xlink:type="simple"><path codeLine="66" d="M851.0855,190.1411 C843.1355,172.7311 856.26,166.2969 880.5,166.2969 C904.74,166.2969 912.88,183.6469 904.93,201.0569 " fill="transparent" id="C_0014837562978658247224-backto-C_0014837562978658247224" style="stroke:#181818;stroke-width:1;"/><polygon fill="transparent" points="856.07,201.0569,857.2163,193.9375,851.0855,190.1411,849.9391,197.2605,856.07,201.0569" style="stroke:#181818;stroke-width:1;"/><rect fill="transparent" height="6" style="stroke:#C82930;stroke-width:1;" width="6" x="852" y="150.3633"/><text fill="#000000" font-family="sans-serif" font-size="13" lengthAdjust="spacing" textLength="49.3975" x="862" y="157.3638">parent_</text></a><!--reverse link C_0014837562978658247224 to C_0011598861676029238614--><g id="link_C_0014837562978658247224_C_0011598861676029238614"><path codeLine="67" d="M936.3917,258.5831 C979.4917,284.4631 1035.45,317.0069 1099,349.2969 C1111.06,355.4269 1124.2,361.6169 1136.71,367.2869 " fill="transparent" id="C_0014837562978658247224-backto-C_0011598861676029238614" style="stroke:#181818;stroke-width:1;"/><polygon fill="transparent" points="920.96,249.3169,933.303,263.727,939.4804,253.4392,920.96,249.3169" style="stroke:#181818;stroke-width:1;"/></g><!--reverse link C_0015917849809320296332 to C_0009218756409310628439--><a href="https://github.com/foonathan/cppast/blob/5329e377ab9b9ab9309e9641f3fcda04366a449a/include/cppast/cpp_entity_index.hpp#L135" target="_top" title="map_" xlink:actuate="onRequest" xlink:href="https://github.com/foonathan/cppast/blob/5329e377ab9b9ab9309e9641f3fcda04366a449a/include/cppast/cpp_entity_index.hpp#L135" xlink:show="new" xlink:title="map_" xlink:type="simple"><path codeLine="68" d="M967.9862,495.5858 C978.0062,496.9758 976.29,496.5169 986,497.2969 C1022.77,500.2669 1032.27,500.6869 1069,497.2969 C1089.31,495.4269 1111.25,491.8469 1130.93,488.0669 " fill="transparent" id="C_0015917849809320296332-backto-C_0009218756409310628439" style="stroke:#181818;stroke-width:1;"/><polygon fill="transparent" points="956.1,493.9369,961.4935,498.7234,967.9862,495.5858,962.5927,490.7993,956.1,493.9369" style="stroke:#181818;stroke-width:1;"/><rect fill="transparent" height="6" style="stroke:#C82930;stroke-width:1;" width="6" x="1006" y="486.3633"/><text fill="#000000" font-family="sans-serif" font-size="13" lengthAdjust="spacing" textLength="35.3818" x="1016" y="493.3638">map_</text></a><!--reverse link C_0015917849809320296332 to C_0009218756409310628439--><a href="https://github.com/foonathan/cppast/blob/5329e377ab9b9ab9309e9641f3fcda04366a449a/include/cppast/cpp_entity_index.hpp#L138" target="_top" title="ns_" xlink:actuate="onRequest" xlink:href="https://github.com/foonathan/cppast/blob/5329e377ab9b9ab9309e9641f3fcda04366a449a/include/cppast/cpp_entity_index.hpp#L138" xlink:show="new" xlink:title="ns_" xlink:type="simple"><path codeLine="69" d="M968.2631,476.7687 C978.2531,476.4287 976.38,476.5269 986,476.2969 C1034.57,475.1369 1089.57,474.6369 1130.6,474.4369 " fill="transparent" id="C_0015917849809320296332-backto-C_0009218756409310628439-1" style="stroke:#181818;stroke-width:1;"/><polygon fill="transparent" points="956.27,477.1769,962.4026,480.9705,968.2631,476.7687,962.1305,472.9751,956.27,477.1769" style="stroke:#181818;stroke-width:1;"/><rect fill="transparent" height="6" style="stroke:#C82930;stroke-width:1;" width="6" x="1013" y="464.3633"/><text fill="#000000" font-family="sans-serif" font-size="13" lengthAdjust="spacing" textLength="21.5122" x="1023" y="471.3638">ns_</text></a><!--reverse link C_0015917849809320296332 to C_0010549045533069850854--><a href="https://github.com/foonathan/cppast/blob/5329e377ab9b9ab9309e9641f3fcda04366a449a/include/cppast/cpp_entity_index.hpp#L138" target="_top" title="ns_" xlink:actuate="onRequest" xlink:href="https://github.com/foonathan/cppast/blob/5329e377ab9b9ab9309e9641f3fcda04366a449a/include/cppast/cpp_entity_index.hpp#L138" xlink:show="new" xlink:title="ns_" xlink:type="simple"><path codeLine="70" d="M942.9242,509.1601 C959.8042,516.4601 967.93,519.1269 986,524.2969 C1029.98,536.8769 1080.69,545.0669 1120.86,550.1369 " fill="transparent" id="C_0015917849809320296332-backto-C_0010549045533069850854" style="stroke:#181818;stroke-width:1;"/><polygon fill="transparent" points="931.91,504.3969,935.8293,510.4499,942.9242,509.1601,939.0048,503.1071,931.91,504.3969" style="stroke:#181818;stroke-width:1;"/><rect fill="transparent" height="6" style="stroke:#C82930;stroke-width:1;" width="6" x="1013" y="513.3633"/><text fill="#000000" font-family="sans-serif" font-size="13" lengthAdjust="spacing" textLength="21.5122" x="1023" y="520.3638">ns_</text></a><!--link C_0015916253088811816967 to C_0015917849809320296332--><g id="link_C_0015916253088811816967_C_0015917849809320296332"><path codeLine="71" d="M648.38,445.3669 C689.82,450.9969 734.04,457.1969 775,463.2969 C784.64,464.7369 778.956,463.8099 788.956,465.3899 " fill="transparent" id="C_0015916253088811816967-to-C_0015917849809320296332" style="stroke:#181818;stroke-width:1;"/><ellipse cx="796.858" cy="466.6384" fill="#FFFFFF" rx="8" ry="8" style="stroke:#181818;stroke-width:1;"/><line style="stroke:#181818;stroke-width:1;" x1="788.956" x2="804.76" y1="465.3899" y2="467.8869"/><line style="stroke:#181818;stroke-width:1;" x1="798.1065" x2="795.6095" y1="458.7364" y2="474.5403"/></g><!--link C_0005075454191225961157 to C_0015917849809320296332--><g id="link_C_0005075454191225961157_C_0015917849809320296332"><path codeLine="72" d="M575.56,500.0569 C645.95,495.4769 724.1537,490.3948 788.9137,486.1848 " fill="transparent" id="C_0005075454191225961157-to-C_0015917849809320296332" style="stroke:#181818;stroke-width:1;"/><ellipse cx="796.8969" cy="485.6659" fill="#FFFFFF" rx="8" ry="8" style="stroke:#181818;stroke-width:1;"/><line style="stroke:#181818;stroke-width:1;" x1="788.9137" x2="804.88" y1="486.1848" y2="485.1469"/><line style="stroke:#181818;stroke-width:1;" x1="796.3779" x2="797.4158" y1="477.6827" y2="493.649"/></g><!--link C_0015347669116277710106 to C_0015917849809320296332--><g id="link_C_0015347669116277710106_C_0015917849809320296332"><path codeLine="73" d="M554.87,349.3769 C584.08,358.9669 617.72,370.3169 648,381.2969 C705.03,401.9769 719.29,407.2969 775,431.2969 C793.03,439.0669 798.1134,441.2319 815.3634,449.3819 " fill="transparent" id="C_0015347669116277710106-to-C_0015917849809320296332" style="stroke:#181818;stroke-width:1;"/><ellipse cx="822.5967" cy="452.7994" fill="#FFFFFF" rx="8" ry="8" style="stroke:#181818;stroke-width:1;"/><line style="stroke:#181818;stroke-width:1;" x1="815.3634" x2="829.83" y1="449.3819" y2="456.2169"/><line style="stroke:#181818;stroke-width:1;" x1="826.0142" x2="819.1792" y1="445.5661" y2="460.0327"/></g><!--reverse link C_0015347669116277710106 to C_0014837562978658247224--><a href="https://github.com/foonathan/cppast/blob/5329e377ab9b9ab9309e9641f3fcda04366a449a/include/cppast/cpp_entity_index.hpp#L126" target="_top" title="entity" xlink:actuate="onRequest" xlink:href="https://github.com/foonathan/cppast/blob/5329e377ab9b9ab9309e9641f3fcda04366a449a/include/cppast/cpp_entity_index.hpp#L126" xlink:show="new" xlink:title="entity" xlink:type="simple"><path codeLine="74" d="M589.6398,312.1324 C647.8298,303.8324 710.64,292.2069 775,272.2969 C794.38,266.2969 814.91,257.6169 832.59,249.3469 " fill="transparent" id="C_0015347669116277710106-backto-C_0014837562978658247224" style="stroke:#181818;stroke-width:1;"/><polygon fill="transparent" points="577.76,313.8269,584.2647,316.9396,589.6398,312.1324,583.1351,309.0197,577.76,313.8269" style="stroke:#181818;stroke-width:1;"/><ellipse cx="707" cy="264.3633" fill="transparent" rx="3" ry="3" style="stroke:#038048;stroke-width:1;"/><text fill="#000000" font-family="sans-serif" font-size="13" lengthAdjust="spacing" textLength="37.7368" x="714" y="268.3638">entity</text></a><!--reverse link C_0005317930743773681966 to C_0014837562978658247224--><a href="https://github.com/foonathan/cppast/blob/5329e377ab9b9ab9309e9641f3fcda04366a449a/include/cppast/code_generator.hpp#L509" target="_top" title="main_entity_" xlink:actuate="onRequest" xlink:href="https://github.com/foonathan/cppast/blob/5329e377ab9b9ab9309e9641f3fcda04366a449a/include/cppast/code_generator.hpp#L509" xlink:show="new" xlink:title="main_entity_" xlink:type="simple"><path codeLine="75" d="M561.4401,168.0431 C640.9801,182.3631 757,203.2469 827.91,216.0069 " fill="transparent" id="C_0005317930743773681966-backto-C_0014837562978658247224" style="stroke:#181818;stroke-width:1;"/><polygon fill="transparent" points="549.63,165.9169,554.8263,170.9167,561.4401,168.0431,556.2438,163.0433,549.63,165.9169" style="stroke:#181818;stroke-width:1;"/><rect fill="transparent" height="6" style="stroke:#C82930;stroke-width:1;" width="6" x="681" y="178.3633"/><text fill="#000000" font-family="sans-serif" font-size="13" lengthAdjust="spacing" textLength="83.2178" x="691" y="185.3638">main_entity_</text></a><!--link C_0001539461946534932835 to C_0005317930743773681966--><g id="link_C_0001539461946534932835_C_0005317930743773681966"><path codeLine="76" d="M205.31,179.0069 C268.88,173.0069 334.1708,166.83 391.2908,161.44 " fill="transparent" id="C_0001539461946534932835-to-C_0005317930743773681966" style="stroke:#181818;stroke-width:1;"/><ellipse cx="399.2554" cy="160.6884" fill="#FFFFFF" rx="8" ry="8" style="stroke:#181818;stroke-width:1;"/><line style="stroke:#181818;stroke-width:1;" x1="391.2908" x2="407.22" y1="161.44" y2="159.9369"/><line style="stroke:#181818;stroke-width:1;" x1="398.5038" x2="400.0069" y1="152.7238" y2="168.6531"/></g><!--reverse link C_0001539461946534932835 to C_0005317930743773681966--><a href="https://github.com/foonathan/cppast/blob/5329e377ab9b9ab9309e9641f3fcda04366a449a/include/cppast/code_generator.hpp#L355" target="_top" title="gen_" xlink:actuate="onRequest" xlink:href="https://github.com/foonathan/cppast/blob/5329e377ab9b9ab9309e9641f3fcda04366a449a/include/cppast/code_generator.hpp#L355" xlink:show="new" xlink:title="gen_" xlink:type="simple"><path codeLine="77" d="M216.9771,171.3387 C227.0671,170.0087 225.28,170.3369 235,169.2969 C292.89,163.0969 358.84,158.9369 407.33,156.4069 " fill="transparent" id="C_0001539461946534932835-backto-C_0005317930743773681966" style="stroke:#181818;stroke-width:1;"/><polygon fill="transparent" points="205.08,172.9069,211.5513,176.0885,216.9771,171.3387,210.5058,168.1571,205.08,172.9069" style="stroke:#181818;stroke-width:1;"/><rect fill="transparent" height="6" style="stroke:#C82930;stroke-width:1;" width="6" x="238" y="155.3633"/><text fill="#000000" font-family="sans-serif" font-size="13" lengthAdjust="spacing" textLength="30.9893" x="248" y="162.3638">gen_</text></a><!--reverse link C_0001539461946534932835 to C_0014837562978658247224--><a href="https://github.com/foonathan/cppast/blob/5329e377ab9b9ab9309e9641f3fcda04366a449a/include/cppast/code_generator.hpp#L356" target="_top" title="e_" xlink:actuate="onRequest" xlink:href="https://github.com/foonathan/cppast/blob/5329e377ab9b9ab9309e9641f3fcda04366a449a/include/cppast/code_generator.hpp#L356" xlink:show="new" xlink:title="e_" xlink:type="simple"><path codeLine="78" d="M217.138,202.6575 C250.068,206.5275 275.11,208.9569 309,211.2969 C500.01,224.4869 727.74,225.7369 827.9,225.5669 " fill="transparent" id="C_0001539461946534932835-backto-C_0014837562978658247224" style="stroke:#181818;stroke-width:1;"/><polygon fill="transparent" points="205.22,201.2569,210.7121,205.9298,217.138,202.6575,211.6459,197.9845,205.22,201.2569" style="stroke:#181818;stroke-width:1;"/><rect fill="transparent" height="6" style="stroke:#C82930;stroke-width:1;" width="6" x="467.5" y="200.3633"/><text fill="#000000" font-family="sans-serif" font-size="13" lengthAdjust="spacing" textLength="14.498" x="477.5" y="207.3638">e_</text></a><!--reverse link C_0014837562978658247224 to C_0009267542389196346145--><g id="link_C_0014837562978658247224_C_0009267542389196346145"><path codeLine="79" d="M950.5621,207.0197 C967.3521,202.7797 968.67,202.7469 986,199.2969 C1144.39,167.7969 1330.07,142.1569 1442.94,127.8169 " fill="transparent" id="C_0014837562978658247224-backto-C_0009267542389196346145" style="stroke:#181818;stroke-width:1;"/><polygon fill="transparent" points="933.11,211.4269,952.0312,212.837,949.0931,201.2023,933.11,211.4269" style="stroke:#181818;stroke-width:1;"/></g><!--reverse link C_0000056978405368650305 to C_0009267542389196346145--><a href="https://github.com/foonathan/cppast/blob/5329e377ab9b9ab9309e9641f3fcda04366a449a/include/cppast/cpp_template.hpp#L89" target="_top" title="parameters_" xlink:actuate="onRequest" xlink:href="https://github.com/foonathan/cppast/blob/5329e377ab9b9ab9309e9641f3fcda04366a449a/include/cppast/cpp_template.hpp#L89" xlink:show="new" xlink:title="parameters_" xlink:type="simple"><path codeLine="80" d="M1269.7474,80.7047 C1321.2074,87.1347 1382.93,94.8469 1442.95,102.3569 " fill="transparent" id="C_0000056978405368650305-backto-C_0009267542389196346145" style="stroke:#181818;stroke-width:1;"/><polygon fill="transparent" points="1257.84,79.2169,1263.2978,83.9299,1269.7474,80.7047,1264.2897,75.9917,1257.84,79.2169" style="stroke:#181818;stroke-width:1;"/><rect fill="transparent" height="6" style="stroke:#C82930;stroke-width:1;" width="6" x="1321" y="76.3633"/><text fill="#000000" font-family="sans-serif" font-size="13" lengthAdjust="spacing" textLength="81.9038" x="1331" y="83.3638">parameters_</text></a><!--reverse link C_0014837562978658247224 to C_0000056978405368650305--><g id="link_C_0014837562978658247224_C_0000056978405368650305"><path codeLine="81" d="M913.8898,187.5203 C933.3698,165.7403 952.64,147.8869 986,129.2969 C1030.73,104.3669 1086.98,89.4869 1129.47,81.0569 " fill="transparent" id="C_0014837562978658247224-backto-C_0000056978405368650305" style="stroke:#181818;stroke-width:1;"/><polygon fill="transparent" points="901.89,200.9369,918.362,191.5202,909.4176,183.5203,901.89,200.9369" style="stroke:#181818;stroke-width:1;"/></g><!--reverse link C_0014837562978658247224 to C_0009988748056411922181--><g id="link_C_0014837562978658247224_C_0009988748056411922181"><path codeLine="82" d="M951.2,225.2969 C1012,225.2969 1093.76,225.2969 1150.17,225.2969 " fill="transparent" id="C_0014837562978658247224-backto-C_0009988748056411922181" style="stroke:#181818;stroke-width:1;"/><polygon fill="transparent" points="933.2,225.2969,951.2,231.2969,951.2,219.2969,933.2,225.2969" style="stroke:#181818;stroke-width:1;"/></g><!--SRC=[rPbDS-9648Rl_0hLvk2aDi1yVr2vvP2BSqmkMrkg0Gr6LK9IeT7kffJzxscj06dCoB1xGEHW6tKpk9_fwUb-RPUwp4PFcxACRUvIzq-SvedzyXHjCbDLKPAQbuFPppAxTP4heaFwidDWFTYDIujyrhthNRlSE7T8rxMpxo9JHR_7227652TSAg88aLGm9kLnnPWx-l1XvrnPhPRBbzJjwlLYK-oNswB8ZTkPV0c_o5HkkSwAzP9JeYsLqgprMiCtYhJLWk4jtMuIWnWLmZ2cpJBDDrcTsDDYBzZ5hYn_UcQayQnVFtwCcbaSpxuE2QjDKTeuD_iU4LDEb5OQSos5KW8ZJWQ88VUz4BjqTdoau-i1me3TaXwEAIgv85egmHLXaX0sX0kufu1ZikbDOR0wjr_AehB91I9afisBa08HJIYyz103xYaGiUeONtEybSOuJVfAr0G-WWk6DCL84CMe7bPYm7rVpExMwM2fQZoAjo7RTNqwkSPICQq0X4361ALUEGRSqt5odxDrN4TThPAwpDADSJPEx3RDq_OUZktXK1oyRH24KwIKmbXXeOLyjGsltTDjWo3Dzq3UiaKxK-twiy-Hv8mph34XN0keQQyB1TpJRGR6eWdptCBzoMJre3TnogGG6ZwJI2anWjBsJi6bUq9mmfeHe01vaTZunURsODpWs2DEiOGu98Emg51O2-5b-j9z5s0lsYDkEt5uzckKgrLHkx9sFIqaK3E1uGio2HUQedn86t1FHYjK4wO9dsfdzsNM5dzfOFYqpXw6dKn0lK8hrf0_2e2C-vtimdslGtqPzP6-wzsNxhVXUsGukGA6B0O7MC2eXIZoa0FkUoCVfqpiWORnjcasGDCmNaccW81Xh0cC8TZBvgNxNcXjd4UiBd-j8OpK3jHLQJQ3gnTnfX7Zd58ajE98SM-i3BZln0K_uktdv3Y1yCQBVu0tgbwA-Vonfd_I77j66_qgcX-VhXDCMJWU0Ms-bSm9e7kOZMxoEVu9zRCdJYHlpigvEb4CBDTH7kKmOIaQk9x1TC8uFeqZ_FRlYI4a9KTLnpc93oMze5wQlIbFyEtB_n-2QlBpASoh6m0cl8w_2-12iytdxyTbxwYukRegg0n-RDNZ5BWlDaJJ_m5b5Rtl7cQZAc5oZC1GpP66Matps6z_GzDiL0YSiXcKJAEhpXN_G4gAmX03fXD- -_8wm2FbaN8uZEVXvPPE4zH0enDDySQgQNI2qirP0rM3HdkotB858Krqoyu5zCRiwOyk8pQ9FiCkjF_wo5_czJxxDVe4yQH57g65ME3Pq_Fptt-URN-jwzpLtRlFHgmNU86Zdt7zpOj_-Gy0]--></g></svg>