<?xml version="1.0" encoding="UTF-8" standalone="no"?><svg xmlns="http://www.w3.org/2000/svg" xmlns:xlink="http://www.w3.org/1999/xlink" contentScriptType="application/ecmascript" contentStyleType="text/css" height="603px" preserveAspectRatio="none" style="width:1706px;height:603px;" version="1.1" viewBox="0 0 1706 603" width="1706px" zoomAndPan="magnify"><defs><filter height="300%" id="fcil8ye8yj56j" width="300%" x="-1" y="-1"><feGaussianBlur result="blurOut" stdDeviation="2.0"/><feColorMatrix in="blurOut" result="blurOut2" type="matrix" values="0 0 0 0 0 0 0 0 0 0 0 0 0 0 0 0 0 0 .4 0"/><feOffset dx="4.0" dy="4.0" in="blurOut2" result="blurOut3"/><feBlend in="SourceGraphic" in2="blurOut3" mode="normal"/></filter></defs><g><text fill="#000000" font-family="sans-serif" font-size="18" lengthAdjust="spacingAndGlyphs" textLength="326" x="682" y="16.708">Directory structure package diagram</text><!--MD5=[c53eb86dd6a2c3b12687b649f2baee56]
cluster C_0002285326295477687690--><a href="https://github.com/FreeCAD/FreeCAD/blob/f6708547a9bb3f71a4aaade12109f511a72c207c/src/App/DynamicProperty.h#L51" target="_top" title="App" xlink:actuate="onRequest" xlink:href="https://github.com/FreeCAD/FreeCAD/blob/f6708547a9bb3f71a4aaade12109f511a72c207c/src/App/DynamicProperty.h#L51" xlink:show="new" xlink:title="App" xlink:type="simple"><polygon fill="#FFFFFF" filter="url(#fcil8ye8yj56j)" points="191,225.0931,228,225.0931,235,247.39,313,247.39,313,415.9531,191,415.9531,191,225.0931" style="stroke: #000000; stroke-width: 1.5;"/><line style="stroke: #000000; stroke-width: 1.5;" x1="191" x2="235" y1="247.39" y2="247.39"/><text fill="#000000" font-family="sans-serif" font-size="14" font-weight="bold" lengthAdjust="spacingAndGlyphs" textLength="31" x="195" y="240.0882">App</text></a><!--MD5=[cdee9f1748e0118da85feef4919c926a]
cluster C_0000313009706968763048--><a href="https://github.com/FreeCAD/FreeCAD/blob/f6708547a9bb3f71a4aaade12109f511a72c207c/src/Gui/DocumentModel.h#L38" target="_top" title="Gui" xlink:actuate="onRequest" xlink:href="https://github.com/FreeCAD/FreeCAD/blob/f6708547a9bb3f71a4aaade12109f511a72c207c/src/Gui/DocumentModel.h#L38" xlink:show="new" xlink:title="Gui" xlink:type="simple"><polygon fill="#FFFFFF" filter="url(#fcil8ye8yj56j)" points="385,53.0931,417,53.0931,424,75.39,1598,75.39,1598,455.9531,385,455.9531,385,53.0931" style="stroke: #000000; stroke-width: 1.5;"/><line style="stroke: #000000; stroke-width: 1.5;" x1="385" x2="424" y1="75.39" y2="75.39"/><text fill="#000000" font-family="sans-serif" font-size="14" font-weight="bold" lengthAdjust="spacingAndGlyphs" textLength="26" x="389" y="68.0882">Gui</text></a><!--MD5=[4143fbd132e52f36d81f5c6abcc2795d]
cluster C_0002108677891080513384--><polygon fill="#FFFFFF" filter="url(#fcil8ye8yj56j)" points="1202,190.9531,1250,190.9531,1257,213.25,1344,213.25,1344,294.9531,1202,294.9531,1202,190.9531" style="stroke: #000000; stroke-width: 1.5;"/><line style="stroke: #000000; stroke-width: 1.5;" x1="1202" x2="1257" y1="213.25" y2="213.25"/><text fill="#000000" font-family="sans-serif" font-size="14" font-weight="bold" lengthAdjust="spacingAndGlyphs" textLength="42" x="1206" y="205.9482">QSint</text><!--MD5=[507ea0cbeec820cc4682e82cbfbd2683]
cluster C_0000672531649796077860--><a href="https://github.com/FreeCAD/FreeCAD/blob/f6708547a9bb3f71a4aaade12109f511a72c207c/src/Gui/Quarter/SensorManager.h#L44" target="_top" title="Quarter" xlink:actuate="onRequest" xlink:href="https://github.com/FreeCAD/FreeCAD/blob/f6708547a9bb3f71a4aaade12109f511a72c207c/src/Gui/Quarter/SensorManager.h#L44" xlink:show="new" xlink:title="Quarter" xlink:type="simple"><polygon fill="#FFFFFF" filter="url(#fcil8ye8yj56j)" points="1376,112.0931,1443,112.0931,1450,134.39,1558,134.39,1558,415.9531,1376,415.9531,1376,112.0931" style="stroke: #000000; stroke-width: 1.5;"/><line style="stroke: #000000; stroke-width: 1.5;" x1="1376" x2="1450" y1="134.39" y2="134.39"/><text fill="#000000" font-family="sans-serif" font-size="14" font-weight="bold" lengthAdjust="spacingAndGlyphs" textLength="61" x="1380" y="127.0882">Quarter</text></a><!--MD5=[47258337e192e89082a656cd75d548a4]
cluster C_0001569096355853067356--><polygon fill="#FFFFFF" filter="url(#fcil8ye8yj56j)" points="284,487.9531,321,487.9531,328,510.25,402,510.25,402,591.9531,284,591.9531,284,487.9531" style="stroke: #000000; stroke-width: 1.5;"/><line style="stroke: #000000; stroke-width: 1.5;" x1="284" x2="328" y1="510.25" y2="510.25"/><text fill="#000000" font-family="sans-serif" font-size="14" font-weight="bold" lengthAdjust="spacingAndGlyphs" textLength="31" x="288" y="502.9482">CXX</text><a href="https://github.com/FreeCAD/FreeCAD/blob/f6708547a9bb3f71a4aaade12109f511a72c207c/src/Base/Vector3D.h#L58" target="_top" title="Base" xlink:actuate="onRequest" xlink:href="https://github.com/FreeCAD/FreeCAD/blob/f6708547a9bb3f71a4aaade12109f511a72c207c/src/Base/Vector3D.h#L58" xlink:show="new" xlink:title="Base" xlink:type="simple"><polygon fill="#FFFFFF" filter="url(#fcil8ye8yj56j)" points="109,225.9531,153,225.9531,160,248.25,167,248.25,167,278.5469,109,278.5469,109,225.9531" style="stroke: #000000; stroke-width: 1.5;"/><line style="stroke: #000000; stroke-width: 1.5;" x1="109" x2="160" y1="248.25" y2="248.25"/><text fill="#000000" font-family="sans-serif" font-size="14" font-weight="bold" lengthAdjust="spacingAndGlyphs" textLength="38" x="113" y="240.9482">Base</text></a><a href="https://github.com/FreeCAD/FreeCAD/blob/f6708547a9bb3f71a4aaade12109f511a72c207c/src/App/private/DocumentP.h#L53" target="_top" title="private" xlink:actuate="onRequest" xlink:href="https://github.com/FreeCAD/FreeCAD/blob/f6708547a9bb3f71a4aaade12109f511a72c207c/src/App/private/DocumentP.h#L53" xlink:show="new" xlink:title="private" xlink:type="simple"><polygon fill="#FFFFFF" filter="url(#fcil8ye8yj56j)" points="214.5,338.9531,275.5,338.9531,282.5,361.25,289.5,361.25,289.5,391.5469,214.5,391.5469,214.5,338.9531" style="stroke: #000000; stroke-width: 1.5;"/><line style="stroke: #000000; stroke-width: 1.5;" x1="214.5" x2="282.5" y1="361.25" y2="361.25"/><text fill="#000000" font-family="sans-serif" font-size="14" font-weight="bold" lengthAdjust="spacingAndGlyphs" textLength="55" x="218.5" y="353.9482">private</text></a><a href="https://github.com/FreeCAD/FreeCAD/blob/f6708547a9bb3f71a4aaade12109f511a72c207c/src/Gui/TaskView/TaskWatcher.h#L39" target="_top" title="TaskView" xlink:actuate="onRequest" xlink:href="https://github.com/FreeCAD/FreeCAD/blob/f6708547a9bb3f71a4aaade12109f511a72c207c/src/Gui/TaskView/TaskWatcher.h#L39" xlink:show="new" xlink:title="TaskView" xlink:type="simple"><polygon fill="#FFFFFF" filter="url(#fcil8ye8yj56j)" points="1256,112.9531,1338,112.9531,1345,135.25,1352,135.25,1352,165.5469,1256,165.5469,1256,112.9531" style="stroke: #000000; stroke-width: 1.5;"/><line style="stroke: #000000; stroke-width: 1.5;" x1="1256" x2="1345" y1="135.25" y2="135.25"/><text fill="#000000" font-family="sans-serif" font-size="14" font-weight="bold" lengthAdjust="spacingAndGlyphs" textLength="76" x="1260" y="127.9482">TaskView</text></a><a href="https://github.com/FreeCAD/FreeCAD/blob/f6708547a9bb3f71a4aaade12109f511a72c207c/src/Gui/QSint/actionpanel/actionlabel.h#L68" target="_top" title="actionpanel" xlink:actuate="onRequest" xlink:href="https://github.com/FreeCAD/FreeCAD/blob/f6708547a9bb3f71a4aaade12109f511a72c207c/src/Gui/QSint/actionpanel/actionlabel.h#L68" xlink:show="new" xlink:title="actionpanel" xlink:type="simple"><polygon fill="#FFFFFF" filter="url(#fcil8ye8yj56j)" points="1217.5,225.9531,1314.5,225.9531,1321.5,248.25,1328.5,248.25,1328.5,278.5469,1217.5,278.5469,1217.5,225.9531" style="stroke: #000000; stroke-width: 1.5;"/><line style="stroke: #000000; stroke-width: 1.5;" x1="1217.5" x2="1321.5" y1="248.25" y2="248.25"/><text fill="#000000" font-family="sans-serif" font-size="14" font-weight="bold" lengthAdjust="spacingAndGlyphs" textLength="91" x="1221.5" y="240.9482">actionpanel</text></a><a href="https://github.com/FreeCAD/FreeCAD/blob/f6708547a9bb3f71a4aaade12109f511a72c207c/src/Gui/propertyeditor/PropertyItemDelegate.h#L34" target="_top" title="propertyeditor" xlink:actuate="onRequest" xlink:href="https://github.com/FreeCAD/FreeCAD/blob/f6708547a9bb3f71a4aaade12109f511a72c207c/src/Gui/propertyeditor/PropertyItemDelegate.h#L34" xlink:show="new" xlink:title="propertyeditor" xlink:type="simple"><polygon fill="#FFFFFF" filter="url(#fcil8ye8yj56j)" points="428,112.9531,550,112.9531,557,135.25,564,135.25,564,165.5469,428,165.5469,428,112.9531" style="stroke: #000000; stroke-width: 1.5;"/><line style="stroke: #000000; stroke-width: 1.5;" x1="428" x2="557" y1="135.25" y2="135.25"/><text fill="#000000" font-family="sans-serif" font-size="14" font-weight="bold" lengthAdjust="spacingAndGlyphs" textLength="116" x="432" y="127.9482">propertyeditor</text></a><a href="https://github.com/FreeCAD/FreeCAD/blob/f6708547a9bb3f71a4aaade12109f511a72c207c/src/Gui/Quarter/devices/InputDevice.h#L47" target="_top" title="devices" xlink:actuate="onRequest" xlink:href="https://github.com/FreeCAD/FreeCAD/blob/f6708547a9bb3f71a4aaade12109f511a72c207c/src/Gui/Quarter/devices/InputDevice.h#L47" xlink:show="new" xlink:title="devices" xlink:type="simple"><polygon fill="#FFFFFF" filter="url(#fcil8ye8yj56j)" points="1426.5,338.9531,1493.5,338.9531,1500.5,361.25,1507.5,361.25,1507.5,391.5469,1426.5,391.5469,1426.5,338.9531" style="stroke: #000000; stroke-width: 1.5;"/><line style="stroke: #000000; stroke-width: 1.5;" x1="1426.5" x2="1500.5" y1="361.25" y2="361.25"/><text fill="#000000" font-family="sans-serif" font-size="14" font-weight="bold" lengthAdjust="spacingAndGlyphs" textLength="61" x="1430.5" y="353.9482">devices</text></a><a href="https://github.com/FreeCAD/FreeCAD/blob/f6708547a9bb3f71a4aaade12109f511a72c207c/src/Gui/Quarter/eventhandlers/EventFilter.h#L46" target="_top" title="eventhandlers" xlink:actuate="onRequest" xlink:href="https://github.com/FreeCAD/FreeCAD/blob/f6708547a9bb3f71a4aaade12109f511a72c207c/src/Gui/Quarter/eventhandlers/EventFilter.h#L46" xlink:show="new" xlink:title="eventhandlers" xlink:type="simple"><polygon fill="#FFFFFF" filter="url(#fcil8ye8yj56j)" points="1400,225.9531,1520,225.9531,1527,248.25,1534,248.25,1534,278.5469,1400,278.5469,1400,225.9531" style="stroke: #000000; stroke-width: 1.5;"/><line style="stroke: #000000; stroke-width: 1.5;" x1="1400" x2="1527" y1="248.25" y2="248.25"/><text fill="#000000" font-family="sans-serif" font-size="14" font-weight="bold" lengthAdjust="spacingAndGlyphs" textLength="114" x="1404" y="240.9482">eventhandlers</text></a><a href="https://github.com/FreeCAD/FreeCAD/blob/f6708547a9bb3f71a4aaade12109f511a72c207c/src/Gui/3Dconnexion/GuiAbstractNativeEvent.h#L35" target="_top" title="3Dconnexion" xlink:actuate="onRequest" xlink:href="https://github.com/FreeCAD/FreeCAD/blob/f6708547a9bb3f71a4aaade12109f511a72c207c/src/Gui/3Dconnexion/GuiAbstractNativeEvent.h#L35" xlink:show="new" xlink:title="3Dconnexion" xlink:type="simple"><polygon fill="#FFFFFF" filter="url(#fcil8ye8yj56j)" points="969.5,112.9531,1078.5,112.9531,1085.5,135.25,1092.5,135.25,1092.5,165.5469,969.5,165.5469,969.5,112.9531" style="stroke: #000000; stroke-width: 1.5;"/><line style="stroke: #000000; stroke-width: 1.5;" x1="969.5" x2="1085.5" y1="135.25" y2="135.25"/><text fill="#000000" font-family="sans-serif" font-size="14" font-weight="bold" lengthAdjust="spacingAndGlyphs" textLength="103" x="973.5" y="127.9482">3Dconnexion</text></a><a href="https://github.com/FreeCAD/FreeCAD/blob/f6708547a9bb3f71a4aaade12109f511a72c207c/src/Gui/Inventor/SoDrawingGrid.h#L30" target="_top" title="Inventor" xlink:actuate="onRequest" xlink:href="https://github.com/FreeCAD/FreeCAD/blob/f6708547a9bb3f71a4aaade12109f511a72c207c/src/Gui/Inventor/SoDrawingGrid.h#L30" xlink:show="new" xlink:title="Inventor" xlink:type="simple"><polygon fill="#FFFFFF" filter="url(#fcil8ye8yj56j)" points="848,112.9531,920,112.9531,927,135.25,934,135.25,934,165.5469,848,165.5469,848,112.9531" style="stroke: #000000; stroke-width: 1.5;"/><line style="stroke: #000000; stroke-width: 1.5;" x1="848" x2="927" y1="135.25" y2="135.25"/><text fill="#000000" font-family="sans-serif" font-size="14" font-weight="bold" lengthAdjust="spacingAndGlyphs" textLength="66" x="852" y="127.9482">Inventor</text></a><polygon fill="#FFFFFF" filter="url(#fcil8ye8yj56j)" points="731.5,112.9531,798.5,112.9531,805.5,135.25,812.5,135.25,812.5,165.5469,731.5,165.5469,731.5,112.9531" style="stroke: #000000; stroke-width: 1.5;"/><line style="stroke: #000000; stroke-width: 1.5;" x1="731.5" x2="805.5" y1="135.25" y2="135.25"/><text fill="#000000" font-family="sans-serif" font-size="14" font-weight="bold" lengthAdjust="spacingAndGlyphs" textLength="61" x="735.5" y="127.9482">Quarter</text><a href="https://github.com/FreeCAD/FreeCAD/blob/f6708547a9bb3f71a4aaade12109f511a72c207c/src/Gui/Language/Translator.h#L50" target="_top" title="Language" xlink:actuate="onRequest" xlink:href="https://github.com/FreeCAD/FreeCAD/blob/f6708547a9bb3f71a4aaade12109f511a72c207c/src/Gui/Language/Translator.h#L50" xlink:show="new" xlink:title="Language" xlink:type="simple"><polygon fill="#FFFFFF" filter="url(#fcil8ye8yj56j)" points="599.5,112.9531,682.5,112.9531,689.5,135.25,696.5,135.25,696.5,165.5469,599.5,165.5469,599.5,112.9531" style="stroke: #000000; stroke-width: 1.5;"/><line style="stroke: #000000; stroke-width: 1.5;" x1="599.5" x2="689.5" y1="135.25" y2="135.25"/><text fill="#000000" font-family="sans-serif" font-size="14" font-weight="bold" lengthAdjust="spacingAndGlyphs" textLength="77" x="603.5" y="127.9482">Language</text></a><a href="https://github.com/FreeCAD/FreeCAD/blob/f6708547a9bb3f71a4aaade12109f511a72c207c/src/Gui/DAGView/DAGRectItem.h#L37" target="_top" title="DAGView" xlink:actuate="onRequest" xlink:href="https://github.com/FreeCAD/FreeCAD/blob/f6708547a9bb3f71a4aaade12109f511a72c207c/src/Gui/DAGView/DAGRectItem.h#L37" xlink:show="new" xlink:title="DAGView" xlink:type="simple"><polygon fill="#FFFFFF" filter="url(#fcil8ye8yj56j)" points="1127.5,112.9531,1206.5,112.9531,1213.5,135.25,1220.5,135.25,1220.5,165.5469,1127.5,165.5469,1127.5,112.9531" style="stroke: #000000; stroke-width: 1.5;"/><line style="stroke: #000000; stroke-width: 1.5;" x1="1127.5" x2="1213.5" y1="135.25" y2="135.25"/><text fill="#000000" font-family="sans-serif" font-size="14" font-weight="bold" lengthAdjust="spacingAndGlyphs" textLength="73" x="1131.5" y="127.9482">DAGView</text></a><a href="https://github.com/FreeCAD/FreeCAD/blob/f6708547a9bb3f71a4aaade12109f511a72c207c/src/CXX/Python3/IndirectPythonInterface.hxx#L46" target="_top" title="Python3" xlink:actuate="onRequest" xlink:href="https://github.com/FreeCAD/FreeCAD/blob/f6708547a9bb3f71a4aaade12109f511a72c207c/src/CXX/Python3/IndirectPythonInterface.hxx#L46" xlink:show="new" xlink:title="Python3" xlink:type="simple"><polygon fill="#FFFFFF" filter="url(#fcil8ye8yj56j)" points="300.5,522.9531,371.5,522.9531,378.5,545.25,385.5,545.25,385.5,575.5469,300.5,575.5469,300.5,522.9531" style="stroke: #000000; stroke-width: 1.5;"/><line style="stroke: #000000; stroke-width: 1.5;" x1="300.5" x2="378.5" y1="545.25" y2="545.25"/><text fill="#000000" font-family="sans-serif" font-size="14" font-weight="bold" lengthAdjust="spacingAndGlyphs" textLength="65" x="304.5" y="537.9482">Python3</text></a><a href="https://github.com/FreeCAD/FreeCAD/blob/f6708547a9bb3f71a4aaade12109f511a72c207c/src/zipios++/fcollexceptions.h#L16" target="_top" title="zipios++" xlink:actuate="onRequest" xlink:href="https://github.com/FreeCAD/FreeCAD/blob/f6708547a9bb3f71a4aaade12109f511a72c207c/src/zipios++/fcollexceptions.h#L16" xlink:show="new" xlink:title="zipios++" xlink:type="simple"><polygon fill="#FFFFFF" filter="url(#fcil8ye8yj56j)" points="6,338.9531,82,338.9531,89,361.25,96,361.25,96,391.5469,6,391.5469,6,338.9531" style="stroke: #000000; stroke-width: 1.5;"/><line style="stroke: #000000; stroke-width: 1.5;" x1="6" x2="89" y1="361.25" y2="361.25"/><text fill="#000000" font-family="sans-serif" font-size="14" font-weight="bold" lengthAdjust="spacingAndGlyphs" textLength="70" x="10" y="353.9482">zipios++</text></a><a href="https://github.com/FreeCAD/FreeCAD/blob/f6708547a9bb3f71a4aaade12109f511a72c207c/src/Main/MainCmd.cpp#L66" target="_top" title="Main" xlink:actuate="onRequest" xlink:href="https://github.com/FreeCAD/FreeCAD/blob/f6708547a9bb3f71a4aaade12109f511a72c207c/src/Main/MainCmd.cpp#L66" xlink:show="new" xlink:title="Main" xlink:type="simple"><polygon fill="#FFFFFF" filter="url(#fcil8ye8yj56j)" points="110,112.9531,152,112.9531,159,135.25,166,135.25,166,165.5469,110,165.5469,110,112.9531" style="stroke: #000000; stroke-width: 1.5;"/><line style="stroke: #000000; stroke-width: 1.5;" x1="110" x2="159" y1="135.25" y2="135.25"/><text fill="#000000" font-family="sans-serif" font-size="14" font-weight="bold" lengthAdjust="spacingAndGlyphs" textLength="36" x="114" y="127.9482">Main</text></a><!--MD5=[13e8fa432cdbbf862b0a6a7302aea135]
link C_0000701777446892506059 to C_0002285326295477687690--><path d="M167.03,252.4531 C172.7563,252.4531 178.4825,252.4531 184.2088,252.4531 C185.6403,252.4531 187.0719,252.4531 188.5034,252.4531 C189.2192,252.4531 189.935,252.4531 190.6508,252.4531 " fill="none" id="C_0000701777446892506059-&gt;C_0002285326295477687690" style="stroke: #A80036; stroke-width: 1.0; stroke-dasharray: 7.0,7.0;"/><polygon fill="#A80036" points="190.6508,252.4531,181.6508,248.4531,185.6508,252.4531,181.6508,256.4531,190.6508,252.4531" style="stroke: #A80036; stroke-width: 1.0;"/><!--MD5=[6d392f3cc2ce878baf2658e94efdac16]
link C_0002285326295477687690 to C_0000701777446892506059--><path d="M190.7389,252.4531 C190.0497,252.4531 189.3605,252.4531 188.6713,252.4531 C183.1575,252.4531 177.6438,252.4531 172.13,252.4531 " fill="none" id="C_0002285326295477687690-&gt;C_0000701777446892506059" style="stroke: #A80036; stroke-width: 1.0; stroke-dasharray: 7.0,7.0;"/><polygon fill="#A80036" points="167.03,252.4531,176.03,256.4531,172.03,252.4531,176.03,248.4531,167.03,252.4531" style="stroke: #A80036; stroke-width: 1.0;"/><!--MD5=[46c0b2a97cc56c4a22a61ff336a336a8]
link C_0000701777446892506059 to C_0001021531881519869320--><path d="M138.8,279.3031 C141.45,323.4631 152.59,414.2531 199,471.9531 C223.59,502.5231 263.76,522.4131 295.43,534.2331 " fill="none" id="C_0000701777446892506059-&gt;C_0001021531881519869320" style="stroke: #A80036; stroke-width: 1.0; stroke-dasharray: 7.0,7.0;"/><polygon fill="#A80036" points="300.44,536.0531,293.3622,529.2044,295.7444,534.3352,290.6136,536.7174,300.44,536.0531" style="stroke: #A80036; stroke-width: 1.0;"/><!--MD5=[df66e7090865ce2a2b1322ef4280000c]
link C_0000701777446892506059 to C_0002240753786558542408--><path d="M117.82,279.1931 C104.86,295.7331 87.99,317.2631 74.44,334.5531 " fill="none" id="C_0000701777446892506059-&gt;C_0002240753786558542408" style="stroke: #A80036; stroke-width: 1.0; stroke-dasharray: 7.0,7.0;"/><polygon fill="#A80036" points="71.07,338.8431,79.7749,334.2361,74.1585,334.911,73.4836,329.2946,71.07,338.8431" style="stroke: #A80036; stroke-width: 1.0;"/><!--MD5=[458133a18bfcbf818e9f47c88119e53e]
link C_0000701777446892506059 to C_0000313009706968763048--><path d="M164.25,225.8731 C174.14,211.0831 185.56,193.3931 201,182.9531 C239.21,157.1131 289.675,146.3331 329.5125,142.0869 C349.4313,139.9638 366.6931,139.4741 378.4378,139.552 C379.9059,139.5618 381.2878,139.5804 382.5779,139.6058 C383.2229,139.6185 383.845,139.6329 384.4435,139.6487 C384.5931,139.6527 384.7412,139.6567 384.8878,139.6609 " fill="none" id="C_0000701777446892506059-&gt;C_0000313009706968763048" style="stroke: #A80036; stroke-width: 1.0; stroke-dasharray: 7.0,7.0;"/><polygon fill="#A80036" points="384.8878,139.6609,376.0042,135.4088,379.8898,139.52,375.7787,143.4056,384.8878,139.6609" style="stroke: #A80036; stroke-width: 1.0;"/><!--MD5=[c2e411634c95707d90402c86f34906c8]
link C_0000313009706968763048 to C_0000701777446892506059--><path d="M384.9871,140.2161 C384.8415,140.2107 384.6944,140.2052 384.5459,140.1996 C383.3576,140.1553 382.0757,140.1079 380.7052,140.0595 C375.2232,139.8661 368.3232,139.6581 360.3227,139.5787 C344.3216,139.42 323.9181,139.7756 301.6513,141.7906 C257.1175,145.8206 205.13,156.4881 166,182.9531 C152.25,192.2531 141.68,207.3031 135.87,220.9331 " fill="none" id="C_0000313009706968763048-&gt;C_0000701777446892506059" style="stroke: #A80036; stroke-width: 1.0; stroke-dasharray: 7.0,7.0;"/><polygon fill="#A80036" points="133.94,225.8731,140.9341,218.939,135.755,221.2142,133.4798,216.035,133.94,225.8731" style="stroke: #A80036; stroke-width: 1.0;"/><!--MD5=[4db2f678a7c053d9ef8f36e287eb9a13]
link C_0002285326295477687690 to C_0001021531881519869320--><path d="M313.1405,316.6608 C313.239,317.4254 313.338,318.1946 313.4377,318.9681 C315.0317,331.3449 316.7713,344.8503 318.5825,358.9119 C325.8275,415.1581 334.22,480.3031 339.04,517.7131 " fill="none" id="C_0002285326295477687690-&gt;C_0001021531881519869320" style="stroke: #A80036; stroke-width: 1.0; stroke-dasharray: 7.0,7.0;"/><polygon fill="#A80036" points="339.71,522.9131,342.5228,513.4745,339.0688,517.9544,334.5888,514.5004,339.71,522.9131" style="stroke: #A80036; stroke-width: 1.0;"/><!--MD5=[8ce55aaa7edaef27188b73363345b746]
link C_0002285326295477687690 to C_0000313009706968763048--><path d="M313.0343,247.8658 C313.273,247.7017 313.5148,247.5324 313.7595,247.358 C314.2488,247.0094 314.75,246.6405 315.2622,246.2523 C319.3602,243.1463 324.1695,238.7991 329.3622,233.6245 C339.7475,223.2753 351.6663,209.6162 362.495,195.9569 C367.9094,189.1272 373.0513,182.2974 377.5927,175.8813 C379.8634,172.6732 381.984,169.5685 383.9135,166.619 C384.1547,166.2503 384.3929,165.884 384.6281,165.5203 C384.7456,165.3384 384.8625,165.1571 384.9785,164.9765 " fill="none" id="C_0002285326295477687690-&gt;C_0000313009706968763048" style="stroke: #A80036; stroke-width: 1.0; stroke-dasharray: 7.0,7.0;"/><polygon fill="#A80036" points="384.9785,164.9765,376.7485,170.3865,382.2759,169.1832,383.4792,174.7106,384.9785,164.9765" style="stroke: #A80036; stroke-width: 1.0;"/><!--MD5=[48ab8a0bf5bad4b78dfa99f4d0fc7d35]
link C_0000313009706968763048 to C_0002285326295477687690--><path d="M384.8971,144.2933 C384.7792,144.378 384.6605,144.4639 384.5411,144.5511 C384.0634,144.8999 383.5738,145.2689 383.0728,145.6572 C379.0648,148.7642 374.3305,153.1121 369.1978,158.2873 C358.9325,168.6378 347.0738,182.2975 336.245,195.9569 C330.8306,202.7866 325.6738,209.6162 321.1023,216.032 C318.8166,219.2399 316.6772,222.3444 314.7252,225.2937 C314.2372,226.0311 313.7609,226.7587 313.297,227.4758 C313.239,227.5655 313.1812,227.6549 313.1236,227.7443 " fill="none" id="C_0000313009706968763048-&gt;C_0002285326295477687690" style="stroke: #A80036; stroke-width: 1.0; stroke-dasharray: 7.0,7.0;"/><polygon fill="#A80036" points="313.1236,227.7443,321.3633,222.3492,315.8337,223.5425,314.6404,218.0129,313.1236,227.7443" style="stroke: #A80036; stroke-width: 1.0;"/><!--MD5=[67b72c2a33d2a267ce9318a17fcc1917]
link C_0002285326295477687690 to C_0002240753786558542408--><path d="M190.531,303.4779 C189.8314,303.7837 189.1312,304.0896 188.4306,304.3958 C185.6284,305.6204 182.8193,306.8479 180.0089,308.0761 C174.388,310.5324 168.762,312.9909 163.1747,315.4325 C140.8256,325.1988 119.0975,334.6931 100.81,342.6831 " fill="none" id="C_0002285326295477687690-&gt;C_0002240753786558542408" style="stroke: #A80036; stroke-width: 1.0; stroke-dasharray: 7.0,7.0;"/><polygon fill="#A80036" points="96.07,344.7531,105.9186,344.8217,100.6531,342.7543,102.7205,337.4887,96.07,344.7531" style="stroke: #A80036; stroke-width: 1.0;"/><!--MD5=[b88aa52dba7283cb9306875de46998f0]
link C_0002285326295477687690 to C_0001272290636556090904--><path d="M304.96,253.5331 C303.92,255.7231 281.75,302.1431 266.43,334.2331 " fill="none" id="C_0002285326295477687690-&gt;C_0001272290636556090904" style="stroke: #A80036; stroke-width: 1.0; stroke-dasharray: 7.0,7.0;"/><polygon fill="#A80036" points="264.22,338.8531,271.7095,332.4572,266.3758,334.3417,264.4913,329.008,264.22,338.8531" style="stroke: #A80036; stroke-width: 1.0;"/><!--MD5=[dc1675fba335b918c5ab4293c48ff833]
link C_0001272290636556090904 to C_0001021531881519869320--><path d="M264.85,392.1431 C281.44,425.3431 310.3,483.0431 327.92,518.2831 " fill="none" id="C_0001272290636556090904-&gt;C_0001021531881519869320" style="stroke: #A80036; stroke-width: 1.0; stroke-dasharray: 7.0,7.0;"/><polygon fill="#A80036" points="330.22,522.8931,329.7854,513.0539,327.9897,518.4181,322.6254,516.6224,330.22,522.8931" style="stroke: #A80036; stroke-width: 1.0;"/><!--MD5=[2f037a022adc8a166ed63fd616e7ccdb]
link C_0000313009706968763048 to C_0001021531881519869320--><path d="M1598.2424,249.034 C1598.98,250.5347 1599.6955,252.0373 1600.3888,253.5414 C1611.4813,277.6078 1616.905,302.0938 1616.765,326.6469 C1616.485,375.7531 1593.95,425.1281 1550,471.9531 C1509.63,514.9631 609.99,541.4131 390.82,547.2331 " fill="none" id="C_0000313009706968763048-&gt;C_0001021531881519869320" style="stroke: #A80036; stroke-width: 1.0; stroke-dasharray: 7.0,7.0;"/><polygon fill="#A80036" points="385.77,547.3631,394.8698,551.1305,390.7683,547.2346,394.6642,543.1331,385.77,547.3631" style="stroke: #A80036; stroke-width: 1.0;"/><!--MD5=[5036f1a2104fbb730f12dd0f2f655e7a]
link C_0000313009706968763048 to C_0002240753786558542408--><path d="M384.6093,141.5071 C382.9498,141.7155 381.0635,141.9527 378.9677,142.2167 C370.5847,143.2726 358.8503,144.7567 344.8775,146.5397 C316.9319,150.1056 280.0325,154.8669 243.0825,159.7881 C169.1825,169.6306 95.08,180.1131 92,182.9531 C50.28,221.3931 46.5,292.5031 48.25,333.3731 " fill="none" id="C_0000313009706968763048-&gt;C_0002240753786558542408" style="stroke: #A80036; stroke-width: 1.0; stroke-dasharray: 7.0,7.0;"/><polygon fill="#A80036" points="48.51,338.6931,52.0674,329.5092,48.2667,333.699,44.0769,329.8984,48.51,338.6931" style="stroke: #A80036; stroke-width: 1.0;"/><!--MD5=[2d46165d8e037041ae3c7306fdcbf4fa]
link C_0001002722223001827548 to C_0000599777990138496733--><path d="M1296.81,166.1931 C1292.27,182.4531 1286.38,203.5331 1281.6,220.6631 " fill="none" id="C_0001002722223001827548-&gt;C_0000599777990138496733" style="stroke: #A80036; stroke-width: 1.0; stroke-dasharray: 7.0,7.0;"/><polygon fill="#A80036" points="1280.15,225.8431,1286.421,218.2488,1281.4934,221.027,1278.7152,216.0993,1280.15,225.8431" style="stroke: #A80036; stroke-width: 1.0;"/><!--MD5=[ca3ca2b5685e05bb8a2373e5b295be63]
link C_0001002722223001827548 to C_0000701777446892506059--><path d="M1255.92,161.2531 C1249.97,163.1531 1243.91,164.8031 1238,165.9531 C1180.46,177.1631 234.36,154.7031 183,182.9531 C167.99,191.2131 157.15,206.8531 149.87,221.1031 " fill="none" id="C_0001002722223001827548-&gt;C_0000701777446892506059" style="stroke: #A80036; stroke-width: 1.0; stroke-dasharray: 7.0,7.0;"/><polygon fill="#A80036" points="147.54,225.8731,155.0702,219.5252,149.7245,221.3756,147.8741,216.0299,147.54,225.8731" style="stroke: #A80036; stroke-width: 1.0;"/><!--MD5=[11a92f43eb4c08a49b20dea24b9c0d3d]
link C_0001002722223001827548 to C_0002285326295477687690--><path d="M1255.82,160.8131 C1249.9,162.8031 1243.86,164.5831 1238,165.9531 C1036.865,213.0581 805.675,234.4681 623.7513,244.0844 C532.7894,248.8925 454.1441,250.7522 397.7305,251.4011 C369.5237,251.7255 346.8748,251.7473 331.0233,251.6836 C327.0604,251.6676 323.5223,251.6464 320.4285,251.6231 C318.8815,251.6115 317.4457,251.5994 316.1233,251.5873 C315.4621,251.5812 314.8292,251.5751 314.225,251.569 C313.923,251.566 313.6281,251.563 313.3403,251.56 " fill="none" id="C_0001002722223001827548-&gt;C_0002285326295477687690" style="stroke: #A80036; stroke-width: 1.0; stroke-dasharray: 7.0,7.0;"/><polygon fill="#A80036" points="313.3403,251.56,322.2981,255.6537,318.3401,251.6122,322.3816,247.6542,313.3403,251.56" style="stroke: #A80036; stroke-width: 1.0;"/><!--MD5=[c5320763350e08511f2a1910cbe7ed6c]
link C_0001002722223001827548 to C_0001021531881519869320--><path d="M1352.07,161.4131 C1357.37,163.1831 1362.75,164.7531 1368,165.9531 C1393.84,171.8731 1587.93,163.5531 1606,182.9531 C1693.53,276.9531 1694.04,378.4231 1606,471.9531 C1563.56,517.0331 616.12,542.0531 390.78,547.3731 " fill="none" id="C_0001002722223001827548-&gt;C_0001021531881519869320" style="stroke: #A80036; stroke-width: 1.0; stroke-dasharray: 7.0,7.0;"/><polygon fill="#A80036" points="385.59,547.4931,394.6791,551.2864,390.5887,547.3789,394.4962,543.2885,385.59,547.4931" style="stroke: #A80036; stroke-width: 1.0;"/><!--MD5=[74947e0fbeaf68738d8aaf1c2a4b9dff]
link C_0000637572231984497791 to C_0000701777446892506059--><path d="M427.92,165.0931 C426.6,165.3931 425.3,165.6831 424,165.9531 C371.44,176.9031 229.32,155.8131 183,182.9531 C168.33,191.5531 157.55,207.0431 150.23,221.1231 " fill="none" id="C_0000637572231984497791-&gt;C_0000701777446892506059" style="stroke: #A80036; stroke-width: 1.0; stroke-dasharray: 7.0,7.0;"/><polygon fill="#A80036" points="147.87,225.8331,155.4646,219.5624,150.1003,221.3581,148.3046,215.9939,147.87,225.8331" style="stroke: #A80036; stroke-width: 1.0;"/><!--MD5=[3c4ca82707795de0b42f310603a9e8aa]
link C_0000637572231984497791 to C_0002285326295477687690--><path d="M451.7,166.1931 C423.93,182.3331 387.9575,203.2406 358.585,220.3119 C343.8987,228.8475 330.8625,236.4241 321.3266,241.9661 C318.9426,243.3516 316.7774,244.61 314.8598,245.7243 C314.3804,246.0029 313.9165,246.2725 313.4686,246.5329 C313.3566,246.598 313.2456,246.6625 313.1356,246.7264 " fill="none" id="C_0000637572231984497791-&gt;C_0002285326295477687690" style="stroke: #A80036; stroke-width: 1.0; stroke-dasharray: 7.0,7.0;"/><polygon fill="#A80036" points="313.1356,246.7264,322.9268,245.6626,317.4586,244.2141,318.9071,238.7458,313.1356,246.7264" style="stroke: #A80036; stroke-width: 1.0;"/><!--MD5=[7a8c8c2d6d3485c9178f2dfbe75c7110]
link C_0000672531649796077860 to C_0002269131346128288589--><path d="M1467,140.5331 C1467,142.7131 1467,188.7631 1467,220.8431 " fill="none" id="C_0000672531649796077860-&gt;C_0002269131346128288589" style="stroke: #A80036; stroke-width: 1.0; stroke-dasharray: 7.0,7.0;"/><polygon fill="#A80036" points="1467,225.8531,1471,216.8531,1467,220.8531,1463,216.8531,1467,225.8531" style="stroke: #A80036; stroke-width: 1.0;"/><!--MD5=[736e4c4b6a64f4be07a0ca06c13880f7]
link C_0002269131346128288589 to C_0001271558178805886497--><path d="M1467,279.1931 C1467,295.4531 1467,316.5331 1467,333.6631 " fill="none" id="C_0002269131346128288589-&gt;C_0001271558178805886497" style="stroke: #A80036; stroke-width: 1.0; stroke-dasharray: 7.0,7.0;"/><polygon fill="#A80036" points="1467,338.8431,1471.0257,329.8546,1467.0143,333.8431,1463.0257,329.8317,1467,338.8431" style="stroke: #A80036; stroke-width: 1.0;"/><!--MD5=[65d2b4da98fbd614b99a7feae2b0e2e7]
link C_0000280786710091292814 to C_0002285326295477687690--><path d="M1127.3,160.7431 C1121.55,162.7431 1115.69,164.5431 1110,165.9531 C936.73,208.8131 737.2575,230.1906 580.2238,240.8519 C501.7069,246.1825 433.7997,248.8341 385.0823,250.1523 C360.7237,250.8115 341.1625,251.1373 327.4712,251.298 C324.0484,251.3382 320.9925,251.3681 318.3202,251.3902 C316.984,251.4013 315.7438,251.4105 314.6016,251.4181 C314.316,251.42 314.0366,251.4217 313.7633,251.4234 " fill="none" id="C_0000280786710091292814-&gt;C_0002285326295477687690" style="stroke: #A80036; stroke-width: 1.0; stroke-dasharray: 7.0,7.0;"/><polygon fill="#A80036" points="313.7633,251.4234,322.788,255.3674,318.7632,251.3924,322.7382,247.3676,313.7633,251.4234" style="stroke: #A80036; stroke-width: 1.0;"/><!--MD5=[a0ad21571497e0a18219680ff591c77e]
link C_0001871596415323488646 to C_0000701777446892506059--><path d="M138,166.1931 C138,182.4531 138,203.5331 138,220.6631 " fill="none" id="C_0001871596415323488646-&gt;C_0000701777446892506059" style="stroke: #A80036; stroke-width: 1.0; stroke-dasharray: 7.0,7.0;"/><polygon fill="#A80036" points="138,225.8431,142.0257,216.8546,138.0143,220.8431,134.0257,216.8317,138,225.8431" style="stroke: #A80036; stroke-width: 1.0;"/><!--MD5=[6e176229f3eaba04c5a693b352b9a47b]
@startuml
title Directory structure package diagram
package [Base] as C_0000701777446892506059 [[https://github.com/FreeCAD/FreeCAD/blob/f6708547a9bb3f71a4aaade12109f511a72c207c/src/Base/Vector3D.h#L58{Base}]] {
}
package [App] as C_0002285326295477687690 [[https://github.com/FreeCAD/FreeCAD/blob/f6708547a9bb3f71a4aaade12109f511a72c207c/src/App/DynamicProperty.h#L51{App}]] {
package [private] as C_0001272290636556090904 [[https://github.com/FreeCAD/FreeCAD/blob/f6708547a9bb3f71a4aaade12109f511a72c207c/src/App/private/DocumentP.h#L53{private}]] {
}
}
package [Gui] as C_0000313009706968763048 [[https://github.com/FreeCAD/FreeCAD/blob/f6708547a9bb3f71a4aaade12109f511a72c207c/src/Gui/DocumentModel.h#L38{Gui}]] {
package [TaskView] as C_0001002722223001827548 [[https://github.com/FreeCAD/FreeCAD/blob/f6708547a9bb3f71a4aaade12109f511a72c207c/src/Gui/TaskView/TaskWatcher.h#L39{TaskView}]] {
}
package [QSint] as C_0002108677891080513384 {
package [actionpanel] as C_0000599777990138496733 [[https://github.com/FreeCAD/FreeCAD/blob/f6708547a9bb3f71a4aaade12109f511a72c207c/src/Gui/QSint/actionpanel/actionlabel.h#L68{actionpanel}]] {
}
}
package [propertyeditor] as C_0000637572231984497791 [[https://github.com/FreeCAD/FreeCAD/blob/f6708547a9bb3f71a4aaade12109f511a72c207c/src/Gui/propertyeditor/PropertyItemDelegate.h#L34{propertyeditor}]] {
}
package [Quarter] as C_0000672531649796077860 [[https://github.com/FreeCAD/FreeCAD/blob/f6708547a9bb3f71a4aaade12109f511a72c207c/src/Gui/Quarter/SensorManager.h#L44{Quarter}]] {
package [devices] as C_0001271558178805886497 [[https://github.com/FreeCAD/FreeCAD/blob/f6708547a9bb3f71a4aaade12109f511a72c207c/src/Gui/Quarter/devices/InputDevice.h#L47{devices}]] {
}
package [eventhandlers] as C_0002269131346128288589 [[https://github.com/FreeCAD/FreeCAD/blob/f6708547a9bb3f71a4aaade12109f511a72c207c/src/Gui/Quarter/eventhandlers/EventFilter.h#L46{eventhandlers}]] {
}
}
package [3Dconnexion] as C_0000342380016614166917 [[https://github.com/FreeCAD/FreeCAD/blob/f6708547a9bb3f71a4aaade12109f511a72c207c/src/Gui/3Dconnexion/GuiAbstractNativeEvent.h#L35{3Dconnexion}]] {
}
package [Inventor] as C_0000150113212265676870 [[https://github.com/FreeCAD/FreeCAD/blob/f6708547a9bb3f71a4aaade12109f511a72c207c/src/Gui/Inventor/SoDrawingGrid.h#L30{Inventor}]] {
}
package [Quarter] as C_0001364758812618454341 {
}
package [Language] as C_0002238622400958539862 [[https://github.com/FreeCAD/FreeCAD/blob/f6708547a9bb3f71a4aaade12109f511a72c207c/src/Gui/Language/Translator.h#L50{Language}]] {
}
package [DAGView] as C_0000280786710091292814 [[https://github.com/FreeCAD/FreeCAD/blob/f6708547a9bb3f71a4aaade12109f511a72c207c/src/Gui/DAGView/DAGRectItem.h#L37{DAGView}]] {
}
}
package [CXX] as C_0001569096355853067356 {
package [Python3] as C_0001021531881519869320 [[https://github.com/FreeCAD/FreeCAD/blob/f6708547a9bb3f71a4aaade12109f511a72c207c/src/CXX/Python3/IndirectPythonInterface.hxx#L46{Python3}]] {
}
}
package [zipios++] as C_0002240753786558542408 [[https://github.com/FreeCAD/FreeCAD/blob/f6708547a9bb3f71a4aaade12109f511a72c207c/src/zipios++/fcollexceptions.h#L16{zipios++}]] {
}
package [Main] as C_0001871596415323488646 [[https://github.com/FreeCAD/FreeCAD/blob/f6708547a9bb3f71a4aaade12109f511a72c207c/src/Main/MainCmd.cpp#L66{Main}]] {
}
C_0000701777446892506059 ..> C_0002285326295477687690
C_0000701777446892506059 ..> C_0001021531881519869320
C_0000701777446892506059 ..> C_0002240753786558542408
C_0000701777446892506059 ..> C_0000313009706968763048
C_0002285326295477687690 ..> C_0000701777446892506059
C_0002285326295477687690 ..> C_0001021531881519869320
C_0002285326295477687690 ..> C_0000313009706968763048
C_0002285326295477687690 ..> C_0002240753786558542408
C_0002285326295477687690 ..> C_0001272290636556090904
C_0001272290636556090904 ..> C_0001021531881519869320
C_0000313009706968763048 ..> C_0002285326295477687690
C_0000313009706968763048 ..> C_0000701777446892506059
C_0000313009706968763048 ..> C_0001021531881519869320
C_0000313009706968763048 ..> C_0002240753786558542408
C_0001002722223001827548 ..> C_0000599777990138496733
C_0001002722223001827548 ..> C_0000701777446892506059
C_0001002722223001827548 ..> C_0002285326295477687690
C_0001002722223001827548 ..> C_0001021531881519869320
C_0000637572231984497791 ..> C_0000701777446892506059
C_0000637572231984497791 ..> C_0002285326295477687690
C_0000672531649796077860 ..> C_0002269131346128288589
C_0002269131346128288589 ..> C_0001271558178805886497
C_0000280786710091292814 ..> C_0002285326295477687690
C_0001871596415323488646 ..> C_0000701777446892506059

@enduml

PlantUML version 1.2020.02(Sun Mar 01 11:22:07 CET 2020)
(GPL source distribution)
Java Runtime: OpenJDK Runtime Environment
JVM: OpenJDK 64-Bit Server VM
Java Version: 11.0.20.1+1-post-Ubuntu-0ubuntu122.04
Operating System: Linux
Default Encoding: UTF-8
Language: en
Country: US
--></g></svg>