<?xml version="1.0" encoding="UTF-8" standalone="no"?><svg xmlns="http://www.w3.org/2000/svg" xmlns:xlink="http://www.w3.org/1999/xlink" contentScriptType="application/ecmascript" contentStyleType="text/css" height="521px" preserveAspectRatio="none" style="width:2769px;height:521px;" version="1.1" viewBox="0 0 2769 521" width="2769px" zoomAndPan="magnify"><defs><filter height="300%" id="f17kyxqp495mt9" width="300%" x="-1" y="-1"><feGaussianBlur result="blurOut" stdDeviation="2.0"/><feColorMatrix in="blurOut" result="blurOut2" type="matrix" values="0 0 0 0 0 0 0 0 0 0 0 0 0 0 0 0 0 0 .4 0"/><feOffset dx="4.0" dy="4.0" in="blurOut2" result="blurOut3"/><feBlend in="SourceGraphic" in2="blurOut3" mode="normal"/></filter></defs><g><text fill="#000000" font-family="sans-serif" font-size="18" lengthAdjust="spacingAndGlyphs" textLength="260" x="1258" y="16.708">std::list context class diagram</text><!--MD5=[4e597ac99044cde6a828d018fd349b3a]
class C_0001780373788828611506--><a href="https://github.com/gcc-mirror/gcc/blob/releases/gcc-11.4.0/libstdc++-v3/include/ext/aligned_buffer.h#L47" target="_top" title="" xlink:actuate="onRequest" xlink:href="https://github.com/gcc-mirror/gcc/blob/releases/gcc-11.4.0/libstdc++-v3/include/ext/aligned_buffer.h#L47" xlink:show="new" xlink:title="" xlink:type="simple"><rect fill="#FEFECE" filter="url(#f17kyxqp495mt9)" height="48" id="C_0001780373788828611506" style="stroke: #A80036; stroke-width: 1.5;" width="216" x="510" y="462.9531"/><ellipse cx="525" cy="478.9531" fill="#ADD1B2" rx="11" ry="11" style="stroke: #A80036; stroke-width: 1.0;"/><path d="M527.9688,484.5938 Q527.3906,484.8906 526.75,485.0313 Q526.1094,485.1875 525.4063,485.1875 Q522.9063,485.1875 521.5781,483.5469 Q520.2656,481.8906 520.2656,478.7656 Q520.2656,475.6406 521.5781,473.9844 Q522.9063,472.3281 525.4063,472.3281 Q526.1094,472.3281 526.75,472.4844 Q527.4063,472.6406 527.9688,472.9375 L527.9688,475.6563 Q527.3438,475.0781 526.75,474.8125 Q526.1563,474.5313 525.5313,474.5313 Q524.1875,474.5313 523.5,475.6094 Q522.8125,476.6719 522.8125,478.7656 Q522.8125,480.8594 523.5,481.9375 Q524.1875,483 525.5313,483 Q526.1563,483 526.75,482.7344 Q527.3438,482.4531 527.9688,481.875 L527.9688,484.5938 Z "/><text fill="#000000" font-family="sans-serif" font-size="12" lengthAdjust="spacingAndGlyphs" text-decoration="underline" textLength="57" x="539" y="483.1074">gnu_cxx::</text><text fill="#000000" font-family="sans-serif" font-size="12" lengthAdjust="spacingAndGlyphs" textLength="102" x="596" y="483.1074">aligned_membuf</text><rect fill="#FFFFFF" height="15.9688" style="stroke: #000000; stroke-width: 1.0; stroke-dasharray: 2.0,2.0;" width="23" x="706" y="459.9531"/><text fill="#000000" font-family="sans-serif" font-size="12" font-style="italic" lengthAdjust="spacingAndGlyphs" textLength="21" x="707" y="472.0918">_Tp</text><line style="stroke: #A80036; stroke-width: 1.5;" x1="511" x2="725" y1="494.9531" y2="494.9531"/><line style="stroke: #A80036; stroke-width: 1.5;" x1="511" x2="725" y1="502.9531" y2="502.9531"/></a><!--MD5=[2b2076e3a25ffe2bee9bc44da0976d57]
class C_0000363944907545484744--><a href="https://github.com/gcc-mirror/gcc/blob/releases/gcc-11.4.0/libstdc++-v3/include/ext/aligned_buffer.h#L54" target="_top" title="" xlink:actuate="onRequest" xlink:href="https://github.com/gcc-mirror/gcc/blob/releases/gcc-11.4.0/libstdc++-v3/include/ext/aligned_buffer.h#L54" xlink:show="new" xlink:title="" xlink:type="simple"><rect fill="#FEFECE" filter="url(#f17kyxqp495mt9)" height="48" id="C_0000363944907545484744" style="stroke: #A80036; stroke-width: 1.5;" width="228" x="215" y="288.9531"/><ellipse cx="230" cy="304.9531" fill="#ADD1B2" rx="11" ry="11" style="stroke: #A80036; stroke-width: 1.0;"/><path d="M232.9688,310.5938 Q232.3906,310.8906 231.75,311.0313 Q231.1094,311.1875 230.4063,311.1875 Q227.9063,311.1875 226.5781,309.5469 Q225.2656,307.8906 225.2656,304.7656 Q225.2656,301.6406 226.5781,299.9844 Q227.9063,298.3281 230.4063,298.3281 Q231.1094,298.3281 231.75,298.4844 Q232.4063,298.6406 232.9688,298.9375 L232.9688,301.6563 Q232.3438,301.0781 231.75,300.8125 Q231.1563,300.5313 230.5313,300.5313 Q229.1875,300.5313 228.5,301.6094 Q227.8125,302.6719 227.8125,304.7656 Q227.8125,306.8594 228.5,307.9375 Q229.1875,309 230.5313,309 Q231.1563,309 231.75,308.7344 Q232.3438,308.4531 232.9688,307.875 L232.9688,310.5938 Z "/><text fill="#000000" font-family="sans-serif" font-size="12" lengthAdjust="spacingAndGlyphs" text-decoration="underline" textLength="57" x="244" y="309.1074">gnu_cxx::</text><text fill="#000000" font-family="sans-serif" font-size="12" lengthAdjust="spacingAndGlyphs" textLength="139" x="301" y="309.1074">aligned_membuf::_Tp2</text><line style="stroke: #A80036; stroke-width: 1.5;" x1="216" x2="442" y1="320.9531" y2="320.9531"/><line style="stroke: #A80036; stroke-width: 1.5;" x1="216" x2="442" y1="328.9531" y2="328.9531"/></a><!--MD5=[139bbc94319281e3b64333efc311d987]
class C_0003061237274580542436--><a href="https://github.com/gcc-mirror/gcc/blob/releases/gcc-11.4.0/libstdc++-v3/include/bits/stl_list.h#L81" target="_top" title="" xlink:actuate="onRequest" xlink:href="https://github.com/gcc-mirror/gcc/blob/releases/gcc-11.4.0/libstdc++-v3/include/bits/stl_list.h#L81" xlink:show="new" xlink:title="" xlink:type="simple"><rect fill="#FEFECE" filter="url(#f17kyxqp495mt9)" height="48" id="C_0003061237274580542436" style="stroke: #A80036; stroke-width: 1.5;" width="189" x="794.5" y="114.9531"/><ellipse cx="809.5" cy="130.9531" fill="#ADD1B2" rx="11" ry="11" style="stroke: #A80036; stroke-width: 1.0;"/><path d="M812.4688,136.5938 Q811.8906,136.8906 811.25,137.0313 Q810.6094,137.1875 809.9063,137.1875 Q807.4063,137.1875 806.0781,135.5469 Q804.7656,133.8906 804.7656,130.7656 Q804.7656,127.6406 806.0781,125.9844 Q807.4063,124.3281 809.9063,124.3281 Q810.6094,124.3281 811.25,124.4844 Q811.9063,124.6406 812.4688,124.9375 L812.4688,127.6563 Q811.8438,127.0781 811.25,126.8125 Q810.6563,126.5313 810.0313,126.5313 Q808.6875,126.5313 808,127.6094 Q807.3125,128.6719 807.3125,130.7656 Q807.3125,132.8594 808,133.9375 Q808.6875,135 810.0313,135 Q810.6563,135 811.25,134.7344 Q811.8438,134.4531 812.4688,133.875 L812.4688,136.5938 Z "/><text fill="#000000" font-family="sans-serif" font-size="12" lengthAdjust="spacingAndGlyphs" textLength="157" x="823.5" y="135.1074">__detail::_List_node_base</text><line style="stroke: #A80036; stroke-width: 1.5;" x1="795.5" x2="982.5" y1="146.9531" y2="146.9531"/><line style="stroke: #A80036; stroke-width: 1.5;" x1="795.5" x2="982.5" y1="154.9531" y2="154.9531"/></a><!--MD5=[845b4f5aee9995a82bf5846ef0c9a94e]
class C_0000986537528964488307--><a href="https://github.com/gcc-mirror/gcc/blob/releases/gcc-11.4.0/libstdc++-v3/include/bits/stl_list.h#L104" target="_top" title="" xlink:actuate="onRequest" xlink:href="https://github.com/gcc-mirror/gcc/blob/releases/gcc-11.4.0/libstdc++-v3/include/bits/stl_list.h#L104" xlink:show="new" xlink:title="" xlink:type="simple"><rect fill="#FEFECE" filter="url(#f17kyxqp495mt9)" height="48" id="C_0000986537528964488307" style="stroke: #A80036; stroke-width: 1.5;" width="203" x="1217.5" y="288.9531"/><ellipse cx="1232.5" cy="304.9531" fill="#ADD1B2" rx="11" ry="11" style="stroke: #A80036; stroke-width: 1.0;"/><path d="M1235.4688,310.5938 Q1234.8906,310.8906 1234.25,311.0313 Q1233.6094,311.1875 1232.9063,311.1875 Q1230.4063,311.1875 1229.0781,309.5469 Q1227.7656,307.8906 1227.7656,304.7656 Q1227.7656,301.6406 1229.0781,299.9844 Q1230.4063,298.3281 1232.9063,298.3281 Q1233.6094,298.3281 1234.25,298.4844 Q1234.9063,298.6406 1235.4688,298.9375 L1235.4688,301.6563 Q1234.8438,301.0781 1234.25,300.8125 Q1233.6563,300.5313 1233.0313,300.5313 Q1231.6875,300.5313 1231,301.6094 Q1230.3125,302.6719 1230.3125,304.7656 Q1230.3125,306.8594 1231,307.9375 Q1231.6875,309 1233.0313,309 Q1233.6563,309 1234.25,308.7344 Q1234.8438,308.4531 1235.4688,307.875 L1235.4688,310.5938 Z "/><text fill="#000000" font-family="sans-serif" font-size="12" lengthAdjust="spacingAndGlyphs" textLength="171" x="1246.5" y="309.1074">__detail::_List_node_header</text><line style="stroke: #A80036; stroke-width: 1.5;" x1="1218.5" x2="1419.5" y1="320.9531" y2="320.9531"/><line style="stroke: #A80036; stroke-width: 1.5;" x1="1218.5" x2="1419.5" y1="328.9531" y2="328.9531"/></a><!--MD5=[e494e76d7d581bd9511ad4dcec693e44]
class C_0016581430309674106927--><a href="https://github.com/gcc-mirror/gcc/blob/releases/gcc-11.4.0/libstdc++-v3/include/bits/stl_list.h#L167" target="_top" title="" xlink:actuate="onRequest" xlink:href="https://github.com/gcc-mirror/gcc/blob/releases/gcc-11.4.0/libstdc++-v3/include/bits/stl_list.h#L167" xlink:show="new" xlink:title="" xlink:type="simple"><rect fill="#FEFECE" filter="url(#f17kyxqp495mt9)" height="48" id="C_0016581430309674106927" style="stroke: #A80036; stroke-width: 1.5;" width="122" x="557" y="288.9531"/><ellipse cx="572" cy="304.9531" fill="#ADD1B2" rx="11" ry="11" style="stroke: #A80036; stroke-width: 1.0;"/><path d="M574.9688,310.5938 Q574.3906,310.8906 573.75,311.0313 Q573.1094,311.1875 572.4063,311.1875 Q569.9063,311.1875 568.5781,309.5469 Q567.2656,307.8906 567.2656,304.7656 Q567.2656,301.6406 568.5781,299.9844 Q569.9063,298.3281 572.4063,298.3281 Q573.1094,298.3281 573.75,298.4844 Q574.4063,298.6406 574.9688,298.9375 L574.9688,301.6563 Q574.3438,301.0781 573.75,300.8125 Q573.1563,300.5313 572.5313,300.5313 Q571.1875,300.5313 570.5,301.6094 Q569.8125,302.6719 569.8125,304.7656 Q569.8125,306.8594 570.5,307.9375 Q571.1875,309 572.5313,309 Q573.1563,309 573.75,308.7344 Q574.3438,308.4531 574.9688,307.875 L574.9688,310.5938 Z "/><text fill="#000000" font-family="sans-serif" font-size="12" lengthAdjust="spacingAndGlyphs" textLength="65" x="586" y="309.1074">_List_node</text><rect fill="#FFFFFF" height="15.9688" style="stroke: #000000; stroke-width: 1.0; stroke-dasharray: 2.0,2.0;" width="23" x="659" y="285.9531"/><text fill="#000000" font-family="sans-serif" font-size="12" font-style="italic" lengthAdjust="spacingAndGlyphs" textLength="21" x="660" y="298.0918">_Tp</text><line style="stroke: #A80036; stroke-width: 1.5;" x1="558" x2="678" y1="320.9531" y2="320.9531"/><line style="stroke: #A80036; stroke-width: 1.5;" x1="558" x2="678" y1="328.9531" y2="328.9531"/></a><!--MD5=[6c62eda097a4f2b99c9722a53d5e419f]
class C_0010079646352454332341--><a href="https://github.com/gcc-mirror/gcc/blob/releases/gcc-11.4.0/libstdc++-v3/include/bits/stl_list.h#L186" target="_top" title="" xlink:actuate="onRequest" xlink:href="https://github.com/gcc-mirror/gcc/blob/releases/gcc-11.4.0/libstdc++-v3/include/bits/stl_list.h#L186" xlink:show="new" xlink:title="" xlink:type="simple"><rect fill="#FEFECE" filter="url(#f17kyxqp495mt9)" height="48" id="C_0010079646352454332341" style="stroke: #A80036; stroke-width: 1.5;" width="137" x="2029.5" y="462.9531"/><ellipse cx="2044.5" cy="478.9531" fill="#ADD1B2" rx="11" ry="11" style="stroke: #A80036; stroke-width: 1.0;"/><path d="M2047.4688,484.5938 Q2046.8906,484.8906 2046.25,485.0313 Q2045.6094,485.1875 2044.9063,485.1875 Q2042.4063,485.1875 2041.0781,483.5469 Q2039.7656,481.8906 2039.7656,478.7656 Q2039.7656,475.6406 2041.0781,473.9844 Q2042.4063,472.3281 2044.9063,472.3281 Q2045.6094,472.3281 2046.25,472.4844 Q2046.9063,472.6406 2047.4688,472.9375 L2047.4688,475.6563 Q2046.8438,475.0781 2046.25,474.8125 Q2045.6563,474.5313 2045.0313,474.5313 Q2043.6875,474.5313 2043,475.6094 Q2042.3125,476.6719 2042.3125,478.7656 Q2042.3125,480.8594 2043,481.9375 Q2043.6875,483 2045.0313,483 Q2045.6563,483 2046.25,482.7344 Q2046.8438,482.4531 2047.4688,481.875 L2047.4688,484.5938 Z "/><text fill="#000000" font-family="sans-serif" font-size="12" lengthAdjust="spacingAndGlyphs" textLength="80" x="2058.5" y="483.1074">_List_iterator</text><rect fill="#FFFFFF" height="15.9688" style="stroke: #000000; stroke-width: 1.0; stroke-dasharray: 2.0,2.0;" width="23" x="2146.5" y="459.9531"/><text fill="#000000" font-family="sans-serif" font-size="12" font-style="italic" lengthAdjust="spacingAndGlyphs" textLength="21" x="2147.5" y="472.0918">_Tp</text><line style="stroke: #A80036; stroke-width: 1.5;" x1="2030.5" x2="2165.5" y1="494.9531" y2="494.9531"/><line style="stroke: #A80036; stroke-width: 1.5;" x1="2030.5" x2="2165.5" y1="502.9531" y2="502.9531"/></a><!--MD5=[21a7c392b56cb7a2355bb03a804c3b70]
class C_0017268439787651424876--><a href="https://github.com/gcc-mirror/gcc/blob/releases/gcc-11.4.0/libstdc++-v3/include/bits/stl_list.h#L350" target="_top" title="" xlink:actuate="onRequest" xlink:href="https://github.com/gcc-mirror/gcc/blob/releases/gcc-11.4.0/libstdc++-v3/include/bits/stl_list.h#L350" xlink:show="new" xlink:title="" xlink:type="simple"><rect fill="#FEFECE" filter="url(#f17kyxqp495mt9)" height="48" id="C_0017268439787651424876" style="stroke: #A80036; stroke-width: 1.5;" width="160" x="1670" y="288.9531"/><ellipse cx="1685" cy="304.9531" fill="#ADD1B2" rx="11" ry="11" style="stroke: #A80036; stroke-width: 1.0;"/><path d="M1687.9688,310.5938 Q1687.3906,310.8906 1686.75,311.0313 Q1686.1094,311.1875 1685.4063,311.1875 Q1682.9063,311.1875 1681.5781,309.5469 Q1680.2656,307.8906 1680.2656,304.7656 Q1680.2656,301.6406 1681.5781,299.9844 Q1682.9063,298.3281 1685.4063,298.3281 Q1686.1094,298.3281 1686.75,298.4844 Q1687.4063,298.6406 1687.9688,298.9375 L1687.9688,301.6563 Q1687.3438,301.0781 1686.75,300.8125 Q1686.1563,300.5313 1685.5313,300.5313 Q1684.1875,300.5313 1683.5,301.6094 Q1682.8125,302.6719 1682.8125,304.7656 Q1682.8125,306.8594 1683.5,307.9375 Q1684.1875,309 1685.5313,309 Q1686.1563,309 1686.75,308.7344 Q1687.3438,308.4531 1687.9688,307.875 L1687.9688,310.5938 Z "/><text fill="#000000" font-family="sans-serif" font-size="12" lengthAdjust="spacingAndGlyphs" textLength="64" x="1699" y="309.1074">_List_base</text><rect fill="#FFFFFF" height="15.9688" style="stroke: #000000; stroke-width: 1.0; stroke-dasharray: 2.0,2.0;" width="62" x="1771" y="285.9531"/><text fill="#000000" font-family="sans-serif" font-size="12" font-style="italic" lengthAdjust="spacingAndGlyphs" textLength="60" x="1772" y="298.0918">_Tp,_Alloc</text><line style="stroke: #A80036; stroke-width: 1.5;" x1="1671" x2="1829" y1="320.9531" y2="320.9531"/><line style="stroke: #A80036; stroke-width: 1.5;" x1="1671" x2="1829" y1="328.9531" y2="328.9531"/></a><!--MD5=[6c4102949cbfa1db6601b6e042834b15]
class C_0009730025766701730813--><a href="https://github.com/gcc-mirror/gcc/blob/releases/gcc-11.4.0/libstdc++-v3/include/bits/stl_list.h#L375" target="_top" title="" xlink:actuate="onRequest" xlink:href="https://github.com/gcc-mirror/gcc/blob/releases/gcc-11.4.0/libstdc++-v3/include/bits/stl_list.h#L375" xlink:show="new" xlink:title="" xlink:type="simple"><rect fill="#FEFECE" filter="url(#f17kyxqp495mt9)" height="48" id="C_0009730025766701730813" style="stroke: #A80036; stroke-width: 1.5;" width="162" x="1429" y="114.9531"/><ellipse cx="1444" cy="130.9531" fill="#ADD1B2" rx="11" ry="11" style="stroke: #A80036; stroke-width: 1.0;"/><path d="M1446.9688,136.5938 Q1446.3906,136.8906 1445.75,137.0313 Q1445.1094,137.1875 1444.4063,137.1875 Q1441.9063,137.1875 1440.5781,135.5469 Q1439.2656,133.8906 1439.2656,130.7656 Q1439.2656,127.6406 1440.5781,125.9844 Q1441.9063,124.3281 1444.4063,124.3281 Q1445.1094,124.3281 1445.75,124.4844 Q1446.4063,124.6406 1446.9688,124.9375 L1446.9688,127.6563 Q1446.3438,127.0781 1445.75,126.8125 Q1445.1563,126.5313 1444.5313,126.5313 Q1443.1875,126.5313 1442.5,127.6094 Q1441.8125,128.6719 1441.8125,130.7656 Q1441.8125,132.8594 1442.5,133.9375 Q1443.1875,135 1444.5313,135 Q1445.1563,135 1445.75,134.7344 Q1446.3438,134.4531 1446.9688,133.875 L1446.9688,136.5938 Z "/><text fill="#000000" font-family="sans-serif" font-size="12" lengthAdjust="spacingAndGlyphs" textLength="130" x="1458" y="135.1074">_List_base::_List_impl</text><line style="stroke: #A80036; stroke-width: 1.5;" x1="1430" x2="1590" y1="146.9531" y2="146.9531"/><line style="stroke: #A80036; stroke-width: 1.5;" x1="1430" x2="1590" y1="154.9531" y2="154.9531"/></a><!--MD5=[89d3e05a7d4019bbb37c0855faa2703a]
class C_0015609426756015090359--><a href="https://github.com/gcc-mirror/gcc/blob/releases/gcc-11.4.0/libstdc++-v3/include/bits/stl_list.h#L557" target="_top" title="" xlink:actuate="onRequest" xlink:href="https://github.com/gcc-mirror/gcc/blob/releases/gcc-11.4.0/libstdc++-v3/include/bits/stl_list.h#L557" xlink:show="new" xlink:title="" xlink:type="simple"><rect fill="#FEFECE" filter="url(#f17kyxqp495mt9)" height="48" id="C_0015609426756015090359" style="stroke: #A80036; stroke-width: 1.5;" width="220" x="2224" y="462.9531"/><ellipse cx="2239" cy="478.9531" fill="#ADD1B2" rx="11" ry="11" style="stroke: #A80036; stroke-width: 1.0;"/><path d="M2241.9688,484.5938 Q2241.3906,484.8906 2240.75,485.0313 Q2240.1094,485.1875 2239.4063,485.1875 Q2236.9063,485.1875 2235.5781,483.5469 Q2234.2656,481.8906 2234.2656,478.7656 Q2234.2656,475.6406 2235.5781,473.9844 Q2236.9063,472.3281 2239.4063,472.3281 Q2240.1094,472.3281 2240.75,472.4844 Q2241.4063,472.6406 2241.9688,472.9375 L2241.9688,475.6563 Q2241.3438,475.0781 2240.75,474.8125 Q2240.1563,474.5313 2239.5313,474.5313 Q2238.1875,474.5313 2237.5,475.6094 Q2236.8125,476.6719 2236.8125,478.7656 Q2236.8125,480.8594 2237.5,481.9375 Q2238.1875,483 2239.5313,483 Q2240.1563,483 2240.75,482.7344 Q2241.3438,482.4531 2241.9688,481.875 L2241.9688,484.5938 Z "/><text fill="#000000" font-family="sans-serif" font-size="12" lengthAdjust="spacingAndGlyphs" textLength="18" x="2253" y="483.1074">list</text><rect fill="#FFFFFF" height="15.9688" style="stroke: #000000; stroke-width: 1.0; stroke-dasharray: 2.0,2.0;" width="168" x="2279" y="459.9531"/><text fill="#000000" font-family="sans-serif" font-size="12" font-style="italic" lengthAdjust="spacingAndGlyphs" textLength="166" x="2280" y="472.0918">_Tp,_Alloc=allocator&lt;_Tp&gt;</text><line style="stroke: #A80036; stroke-width: 1.5;" x1="2225" x2="2443" y1="494.9531" y2="494.9531"/><line style="stroke: #A80036; stroke-width: 1.5;" x1="2225" x2="2443" y1="502.9531" y2="502.9531"/></a><!--MD5=[116a0580610896eb1ba9fe651bb08ca0]
class C_0008831140152225074072--><a href="https://github.com/gcc-mirror/gcc/blob/releases/gcc-11.4.0/libstdc++-v3/include/bits/stl_list.h#L1973" target="_top" title="" xlink:actuate="onRequest" xlink:href="https://github.com/gcc-mirror/gcc/blob/releases/gcc-11.4.0/libstdc++-v3/include/bits/stl_list.h#L1973" xlink:show="new" xlink:title="" xlink:type="simple"><rect fill="#FEFECE" filter="url(#f17kyxqp495mt9)" height="48" id="C_0008831140152225074072" style="stroke: #A80036; stroke-width: 1.5;" width="155" x="2020.5" y="288.9531"/><ellipse cx="2035.5" cy="304.9531" fill="#ADD1B2" rx="11" ry="11" style="stroke: #A80036; stroke-width: 1.0;"/><path d="M2038.4688,310.5938 Q2037.8906,310.8906 2037.25,311.0313 Q2036.6094,311.1875 2035.9063,311.1875 Q2033.4063,311.1875 2032.0781,309.5469 Q2030.7656,307.8906 2030.7656,304.7656 Q2030.7656,301.6406 2032.0781,299.9844 Q2033.4063,298.3281 2035.9063,298.3281 Q2036.6094,298.3281 2037.25,298.4844 Q2037.9063,298.6406 2038.4688,298.9375 L2038.4688,301.6563 Q2037.8438,301.0781 2037.25,300.8125 Q2036.6563,300.5313 2036.0313,300.5313 Q2034.6875,300.5313 2034,301.6094 Q2033.3125,302.6719 2033.3125,304.7656 Q2033.3125,306.8594 2034,307.9375 Q2034.6875,309 2036.0313,309 Q2036.6563,309 2037.25,308.7344 Q2037.8438,308.4531 2038.4688,307.875 L2038.4688,310.5938 Z "/><text fill="#000000" font-family="sans-serif" font-size="12" lengthAdjust="spacingAndGlyphs" textLength="123" x="2049.5" y="309.1074">list::_Finalize_merge</text><line style="stroke: #A80036; stroke-width: 1.5;" x1="2021.5" x2="2174.5" y1="320.9531" y2="320.9531"/><line style="stroke: #A80036; stroke-width: 1.5;" x1="2021.5" x2="2174.5" y1="328.9531" y2="328.9531"/></a><!--MD5=[1847c92d98e5baf9b479cf62907b3355]
class C_0005440126081384335850--><a href="https://github.com/gcc-mirror/gcc/blob/releases/gcc-11.4.0/libstdc++-v3/include/list#L78" target="_top" title="" xlink:actuate="onRequest" xlink:href="https://github.com/gcc-mirror/gcc/blob/releases/gcc-11.4.0/libstdc++-v3/include/list#L78" xlink:show="new" xlink:title="" xlink:type="simple"><rect fill="#FEFECE" filter="url(#f17kyxqp495mt9)" height="48" id="C_0005440126081384335850" style="stroke: #A80036; stroke-width: 1.5;" width="289" x="2210.5" y="288.9531"/><ellipse cx="2225.5" cy="304.9531" fill="#ADD1B2" rx="11" ry="11" style="stroke: #A80036; stroke-width: 1.0;"/><path d="M2228.4688,310.5938 Q2227.8906,310.8906 2227.25,311.0313 Q2226.6094,311.1875 2225.9063,311.1875 Q2223.4063,311.1875 2222.0781,309.5469 Q2220.7656,307.8906 2220.7656,304.7656 Q2220.7656,301.6406 2222.0781,299.9844 Q2223.4063,298.3281 2225.9063,298.3281 Q2226.6094,298.3281 2227.25,298.4844 Q2227.9063,298.6406 2228.4688,298.9375 L2228.4688,301.6563 Q2227.8438,301.0781 2227.25,300.8125 Q2226.6563,300.5313 2226.0313,300.5313 Q2224.6875,300.5313 2224,301.6094 Q2223.3125,302.6719 2223.3125,304.7656 Q2223.3125,306.8594 2224,307.9375 Q2224.6875,309 2226.0313,309 Q2226.6563,309 2227.25,308.7344 Q2227.8438,308.4531 2228.4688,307.875 L2228.4688,310.5938 Z "/><text fill="#000000" font-family="sans-serif" font-size="12" lengthAdjust="spacingAndGlyphs" textLength="18" x="2239.5" y="309.1074">list</text><rect fill="#FFFFFF" height="15.9688" style="stroke: #000000; stroke-width: 1.0; stroke-dasharray: 2.0,2.0;" width="237" x="2265.5" y="285.9531"/><text fill="#000000" font-family="sans-serif" font-size="12" font-style="italic" lengthAdjust="spacingAndGlyphs" textLength="235" x="2266.5" y="298.0918">_Tp,pmr::polymorphic_allocator&lt;_Tp&gt;</text><line style="stroke: #A80036; stroke-width: 1.5;" x1="2211.5" x2="2498.5" y1="320.9531" y2="320.9531"/><line style="stroke: #A80036; stroke-width: 1.5;" x1="2211.5" x2="2498.5" y1="328.9531" y2="328.9531"/></a><path d="M714,292.9531 L714,333.2188 A0,0 0 0 0 714,333.2188 L907.42,333.2188 L662.34,462.8431 L915.42,333.2188 L1182,333.2188 A0,0 0 0 0 1182,333.2188 L1182,302.9531 L1172,292.9531 L714,292.9531 A0,0 0 0 0 714,292.9531 " fill="#FBFB77" filter="url(#f17kyxqp495mt9)" style="stroke: #A80036; stroke-width: 1.0;"/><path d="M1172,292.9531 L1172,302.9531 L1182,302.9531 L1172,292.9531 " fill="#FBFB77" style="stroke: #A80036; stroke-width: 1.0;"/><text fill="#000000" font-family="sans-serif" font-size="13" lengthAdjust="spacingAndGlyphs" textLength="435" x="732" y="310.02">A utility type containing a POD object that can hold an object of type</text><text fill="#000000" font-family="sans-serif" font-size="13" lengthAdjust="spacingAndGlyphs" textLength="157" x="720" y="325.1528">_Tp initialized via place...</text><path d="M6,118.9531 L6,159.2188 A0,0 0 0 0 6,159.2188 L254.76,159.2188 L318.32,288.7031 L262.76,159.2188 L494,159.2188 A0,0 0 0 0 494,159.2188 L494,128.9531 L484,118.9531 L6,118.9531 A0,0 0 0 0 6,118.9531 " fill="#FBFB77" filter="url(#f17kyxqp495mt9)" style="stroke: #A80036; stroke-width: 1.0;"/><path d="M484,118.9531 L484,128.9531 L494,128.9531 L484,118.9531 " fill="#FBFB77" style="stroke: #A80036; stroke-width: 1.0;"/><text fill="#000000" font-family="sans-serif" font-size="13" lengthAdjust="spacingAndGlyphs" textLength="455" x="24" y="136.02">Target macro ADJUST_FIELD_ALIGN can produce different alignment for</text><text fill="#000000" font-family="sans-serif" font-size="13" lengthAdjust="spacingAndGlyphs" textLength="212" x="12" y="151.1528">types when used as class mem...</text><path d="M763,28.9531 L763,54.0859 A0,0 0 0 0 763,54.0859 L885,54.0859 L889,114.8231 L893,54.0859 L1015,54.0859 A0,0 0 0 0 1015,54.0859 L1015,38.9531 L1005,28.9531 L763,28.9531 A0,0 0 0 0 763,28.9531 " fill="#FBFB77" filter="url(#f17kyxqp495mt9)" style="stroke: #A80036; stroke-width: 1.0;"/><path d="M1005,28.9531 L1005,38.9531 L1015,38.9531 L1005,28.9531 " fill="#FBFB77" style="stroke: #A80036; stroke-width: 1.0;"/><text fill="#000000" font-family="sans-serif" font-size="13" lengthAdjust="spacingAndGlyphs" textLength="231" x="769" y="46.02">Common part of a node in the %list.</text><path d="M1226.5,126.4531 L1226.5,151.5859 A0,0 0 0 0 1226.5,151.5859 L1306.6,151.5859 L1317.79,288.8131 L1314.6,151.5859 L1393.5,151.5859 A0,0 0 0 0 1393.5,151.5859 L1393.5,136.4531 L1383.5,126.4531 L1226.5,126.4531 A0,0 0 0 0 1226.5,126.4531 " fill="#FBFB77" filter="url(#f17kyxqp495mt9)" style="stroke: #A80036; stroke-width: 1.0;"/><path d="M1383.5,126.4531 L1383.5,136.4531 L1393.5,136.4531 L1383.5,126.4531 " fill="#FBFB77" style="stroke: #A80036; stroke-width: 1.0;"/><text fill="#000000" font-family="sans-serif" font-size="13" lengthAdjust="spacingAndGlyphs" textLength="146" x="1232.5" y="143.52">The %list node header.</text><path d="M529.5,126.4531 L529.5,151.5859 A0,0 0 0 0 529.5,151.5859 L622.4,151.5859 L619.21,288.8131 L630.4,151.5859 L724.5,151.5859 A0,0 0 0 0 724.5,151.5859 L724.5,136.4531 L714.5,126.4531 L529.5,126.4531 A0,0 0 0 0 529.5,126.4531 " fill="#FBFB77" filter="url(#f17kyxqp495mt9)" style="stroke: #A80036; stroke-width: 1.0;"/><path d="M714.5,126.4531 L714.5,136.4531 L724.5,136.4531 L714.5,126.4531 " fill="#FBFB77" style="stroke: #A80036; stroke-width: 1.0;"/><text fill="#000000" font-family="sans-serif" font-size="13" lengthAdjust="spacingAndGlyphs" textLength="174" x="535.5" y="143.52">An actual node in the %list.</text><path d="M1626.5,126.4531 L1626.5,151.5859 A0,0 0 0 0 1626.5,151.5859 L1805.7,151.5859 L1758.61,288.8131 L1813.7,151.5859 L2001.5,151.5859 A0,0 0 0 0 2001.5,151.5859 L2001.5,136.4531 L1991.5,126.4531 L1626.5,126.4531 A0,0 0 0 0 1626.5,126.4531 " fill="#FBFB77" filter="url(#f17kyxqp495mt9)" style="stroke: #A80036; stroke-width: 1.0;"/><path d="M1991.5,126.4531 L1991.5,136.4531 L2001.5,136.4531 L1991.5,126.4531 " fill="#FBFB77" style="stroke: #A80036; stroke-width: 1.0;"/><text fill="#000000" font-family="sans-serif" font-size="13" lengthAdjust="spacingAndGlyphs" textLength="354" x="1632.5" y="143.52">See bits/stl_deque.h's _Deque_base for an explanation.</text><path d="M2534.5,239.9531 L2534.5,386.1484 L2757.5,386.1484 L2757.5,249.9531 L2747.5,239.9531 L2534.5,239.9531 " fill="#FBFB77" filter="url(#f17kyxqp495mt9)" style="stroke: #A80036; stroke-width: 1.0;"/><path d="M2747.5,239.9531 L2747.5,249.9531 L2757.5,249.9531 L2747.5,239.9531 " fill="#FBFB77" style="stroke: #A80036; stroke-width: 1.0;"/><text fill="#000000" font-family="sans-serif" font-size="13" lengthAdjust="spacingAndGlyphs" textLength="182" x="2556.5" y="257.02">Meets the requirements of a</text><text fill="#000000" font-family="sans-serif" font-size="13" lengthAdjust="spacingAndGlyphs" textLength="60" x="2540.5" y="272.1528">container</text><text fill="#000000" font-family="sans-serif" font-size="13" lengthAdjust="spacingAndGlyphs" textLength="16" x="2540.5" y="287.2856">, a</text><text fill="#000000" font-family="sans-serif" font-size="13" lengthAdjust="spacingAndGlyphs" textLength="0" x="2548.5" y="302.4185"/><text fill="#000000" font-family="sans-serif" font-size="13" lengthAdjust="spacingAndGlyphs" textLength="126" x="2540.5" y="317.5513">reversible container</text><text fill="#000000" font-family="sans-serif" font-size="13" lengthAdjust="spacingAndGlyphs" textLength="44" x="2540.5" y="332.6841">, and a</text><text fill="#000000" font-family="sans-serif" font-size="13" lengthAdjust="spacingAndGlyphs" textLength="0" x="2548.5" y="347.8169"/><text fill="#000000" font-family="sans-serif" font-size="13" lengthAdjust="spacingAndGlyphs" textLength="62" x="2540.5" y="362.9497">sequence</text><text fill="#000000" font-family="sans-serif" font-size="13" lengthAdjust="spacingAndGlyphs" textLength="68" x="2540.5" y="378.0825">, includin...</text><path d="M2037,126.4531 L2037,151.5859 A0,0 0 0 0 2037,151.5859 L2238.59,151.5859 L2118.86,288.8131 L2246.59,151.5859 L2469,151.5859 A0,0 0 0 0 2469,151.5859 L2469,136.4531 L2459,126.4531 L2037,126.4531 A0,0 0 0 0 2037,126.4531 " fill="#FBFB77" filter="url(#f17kyxqp495mt9)" style="stroke: #A80036; stroke-width: 1.0;"/><path d="M2459,126.4531 L2459,136.4531 L2469,136.4531 L2459,126.4531 " fill="#FBFB77" style="stroke: #A80036; stroke-width: 1.0;"/><text fill="#000000" font-family="sans-serif" font-size="13" lengthAdjust="spacingAndGlyphs" textLength="324" x="2043" y="143.52">Update _M_size members after merging (some of)</text><text fill="#000000" font-family="sans-serif" font-size="13" lengthAdjust="spacingAndGlyphs" text-decoration="underline" textLength="47" x="2371" y="143.52">src into</text><text fill="#000000" font-family="sans-serif" font-size="13" lengthAdjust="spacingAndGlyphs" textLength="32" x="2422" y="143.52">dest.</text><!--MD5=[ab50312c72027cee7312c600e4bbba82]
link C_0000363944907545484744 to C_0001780373788828611506--><path d="M367.68,336.9731 C418.79,367.3931 509.03,421.0931 566.05,455.0331 " fill="none" id="C_0000363944907545484744-&gt;C_0001780373788828611506" style="stroke: #A80036; stroke-width: 1.0;"/><ellipse cx="572.216" cy="458.7007" fill="#FFFFFF" rx="8" ry="8" style="stroke: #A80036; stroke-width: 1.0;"/><line style="stroke: #A80036; stroke-width: 1.0;" x1="565.342" x2="579.09" y1="454.6083" y2="462.7931"/><line style="stroke: #A80036; stroke-width: 1.0;" x1="576.3084" x2="568.1236" y1="451.8267" y2="465.5747"/><!--MD5=[d31aec29f88c48bfc0b4ca85ad3666fd]
link C_0003061237274580542436 to C_0003061237274580542436--><path d="M983.58,134.0431 C1003.84,134.5331 1018.5,136.1731 1018.5,138.9531 C1018.5,141.4931 1006.25,143.0831 988.67,143.7031 " fill="none" id="C_0003061237274580542436-&gt;C_0003061237274580542436" style="stroke: #A80036; stroke-width: 1.0;"/><polygon fill="#A80036" points="983.58,143.8631,992.7012,147.5784,988.5775,143.7061,992.4499,139.5824,983.58,143.8631" style="stroke: #A80036; stroke-width: 1.0;"/><ellipse cx="1029.5" cy="139.5195" fill="none" rx="3" ry="3" style="stroke: #038048; stroke-width: 1.0;"/><text fill="#000000" font-family="sans-serif" font-size="13" lengthAdjust="spacingAndGlyphs" textLength="53" x="1036.5" y="143.52">_M_next</text><!--MD5=[d31aec29f88c48bfc0b4ca85ad3666fd]
link C_0003061237274580542436 to C_0003061237274580542436--><path d="M983.59,129.2831 C1039.72,127.5431 1095.5,130.7631 1095.5,138.9531 C1095.5,146.8831 1043.15,150.1531 988.85,148.7631 " fill="none" id="C_0003061237274580542436-&gt;C_0003061237274580542436-1" style="stroke: #A80036; stroke-width: 1.0;"/><polygon fill="#A80036" points="983.59,148.6231,992.4721,152.8785,988.588,148.7659,992.7006,144.8818,983.59,148.6231" style="stroke: #A80036; stroke-width: 1.0;"/><ellipse cx="1106.5" cy="139.5195" fill="none" rx="3" ry="3" style="stroke: #038048; stroke-width: 1.0;"/><text fill="#000000" font-family="sans-serif" font-size="13" lengthAdjust="spacingAndGlyphs" textLength="53" x="1113.5" y="143.52">_M_prev</text><!--MD5=[5417aae2b9c2671e8e9a7622bdd86d4e]
reverse link C_0003061237274580542436 to C_0000986537528964488307--><path d="M999.06,168.5531 C1059.64,185.9631 1135.41,210.5131 1200,239.9531 C1230.21,253.7231 1262.3,273.4731 1285.53,288.8031 " fill="none" id="C_0003061237274580542436&lt;-C_0000986537528964488307" style="stroke: #A80036; stroke-width: 1.0;"/><polygon fill="none" points="996.9,175.2131,979.55,163.0331,1000.7,161.7431,996.9,175.2131" style="stroke: #A80036; stroke-width: 1.0;"/><!--MD5=[950a8771da154c039ef15a6317f9891a]
reverse link C_0016581430309674106927 to C_0001780373788828611506--><path d="M618,350.2031 C618,384.1831 618,433.9631 618,462.8531 " fill="none" id="C_0016581430309674106927&lt;-C_0001780373788828611506" style="stroke: #A80036; stroke-width: 1.0;"/><polygon fill="#FFFFFF" points="618,337.1531,614,343.1531,618,349.1531,622,343.1531,618,337.1531" style="stroke: #A80036; stroke-width: 1.0;"/><ellipse cx="624" cy="425.0195" fill="none" rx="3" ry="3" style="stroke: #038048; stroke-width: 1.0;"/><text fill="#000000" font-family="sans-serif" font-size="13" lengthAdjust="spacingAndGlyphs" textLength="74" x="631" y="429.02">_M_storage</text><!--MD5=[9d0fd5a53f3d9e3283c5e74fa0c6d95b]
reverse link C_0003061237274580542436 to C_0016581430309674106927--><path d="M817.01,171.5831 C779.54,189.4331 733.79,213.4431 696,239.9531 C675.48,254.3431 654.75,273.7631 639.82,288.8131 " fill="none" id="C_0003061237274580542436&lt;-C_0016581430309674106927" style="stroke: #A80036; stroke-width: 1.0;"/><polygon fill="none" points="814.12,165.2031,835.21,163.0931,820.05,177.8931,814.12,165.2031" style="stroke: #A80036; stroke-width: 1.0;"/><!--MD5=[cc5513422b010efc93029615732daee9]
reverse link C_0017268439787651424876 to C_0009730025766701730813--><path d="M1700.95,281.9231 C1669.72,262.3131 1628.75,235.6631 1594,209.9531 C1574.01,195.1631 1552.48,177.1831 1536.22,163.1431 " fill="none" id="C_0017268439787651424876&lt;-C_0009730025766701730813" style="stroke: #A80036; stroke-width: 1.0;"/><polygon fill="#FFFFFF" points="1711.98,288.8231,1709.0089,282.2525,1701.8011,282.4679,1704.7721,289.0385,1711.98,288.8231" style="stroke: #A80036; stroke-width: 1.0;"/><polygon fill="none" points="1600,197.0195,1604,201.0195,1600,205.0195,1596,201.0195" style="stroke: #B38D22; stroke-width: 1.0;"/><text fill="#000000" font-family="sans-serif" font-size="13" lengthAdjust="spacingAndGlyphs" textLength="52" x="1607" y="206.02">_M_impl</text><!--MD5=[8c906b9ba0a9d5a008a4e97695d6cac6]
link C_0009730025766701730813 to C_0017268439787651424876--><path d="M1591.31,157.7431 C1616.22,165.7631 1642.65,177.1231 1664,192.9531 C1693.15,214.5831 1716.48,248.9731 1731.45,275.2331 " fill="none" id="C_0009730025766701730813-&gt;C_0017268439787651424876" style="stroke: #A80036; stroke-width: 1.0;"/><ellipse cx="1734.8554" cy="281.462" fill="#FFFFFF" rx="8" ry="8" style="stroke: #A80036; stroke-width: 1.0;"/><line style="stroke: #A80036; stroke-width: 1.0;" x1="1731.0209" x2="1738.69" y1="274.4409" y2="288.4831"/><line style="stroke: #A80036; stroke-width: 1.0;" x1="1741.8766" x2="1727.8343" y1="277.6274" y2="285.2966"/><!--MD5=[61b68512af3cfee4706540dff08cd537]
reverse link C_0009730025766701730813 to C_0000986537528964488307--><path d="M1466.45,170.9531 C1457.2,177.9531 1447.63,185.5231 1439,192.9531 C1402.77,224.1731 1364.03,263.8831 1340.66,288.6131 " fill="none" id="C_0009730025766701730813&lt;-C_0000986537528964488307" style="stroke: #A80036; stroke-width: 1.0;"/><polygon fill="#FFFFFF" points="1477.09,163.0331,1469.8885,163.4046,1467.4616,170.1951,1474.6631,169.8236,1477.09,163.0331" style="stroke: #A80036; stroke-width: 1.0;"/><ellipse cx="1445" cy="202.0195" fill="none" rx="3" ry="3" style="stroke: #038048; stroke-width: 1.0;"/><text fill="#000000" font-family="sans-serif" font-size="13" lengthAdjust="spacingAndGlyphs" textLength="57" x="1452" y="206.02">_M_node</text><!--MD5=[609c197f90434b0cc5f103bd1b767d8e]
reverse link C_0017268439787651424876 to C_0015609426756015090359--><path d="M1842.69,342.8031 C1890.31,356.9831 1949.43,373.6431 2003,385.9531 C2077.77,403.1431 2099.53,393.8331 2173,415.9531 C2213.42,428.1231 2257.23,447.6131 2288.93,462.9431 " fill="none" id="C_0017268439787651424876&lt;-C_0015609426756015090359" style="stroke: #A80036; stroke-width: 1.0;"/><polygon fill="none" points="1840.52,349.4531,1823.38,336.9931,1844.55,336.0431,1840.52,349.4531" style="stroke: #A80036; stroke-width: 1.0;"/><!--MD5=[59a5211edcbd8dbc4fa9294b002a7d49]
link C_0008831140152225074072 to C_0015609426756015090359--><path d="M2125.61,337.2731 C2144.02,352.2031 2169.13,371.4331 2193,385.9531 C2219.5,402.0731 2230.19,398.7531 2256,415.9531 C2271.81,426.4931 2287.7,440.0731 2300.97,452.4731 " fill="none" id="C_0008831140152225074072-&gt;C_0015609426756015090359" style="stroke: #A80036; stroke-width: 1.0;"/><ellipse cx="2306.12" cy="457.4118" fill="#FFFFFF" rx="8" ry="8" style="stroke: #A80036; stroke-width: 1.0;"/><line style="stroke: #A80036; stroke-width: 1.0;" x1="2300.3499" x2="2311.89" y1="451.8704" y2="462.9531"/><line style="stroke: #A80036; stroke-width: 1.0;" x1="2311.6613" x2="2300.5786" y1="451.6417" y2="463.1818"/><!--MD5=[f025589d9be415d4734f39c22234286f]
link C_0008831140152225074072 to C_0010079646352454332341--><path d="M2098,337.1531 C2098,368.3931 2098,423.9631 2098,457.6431 " fill="none" id="C_0008831140152225074072-&gt;C_0010079646352454332341" style="stroke: #A80036; stroke-width: 1.0;"/><polygon fill="#A80036" points="2098,462.8531,2102,453.8531,2098,457.8531,2094,453.8531,2098,462.8531" style="stroke: #A80036; stroke-width: 1.0;"/><ellipse cx="2104" cy="425.0195" fill="none" rx="3" ry="3" style="stroke: #038048; stroke-width: 1.0;"/><text fill="#000000" font-family="sans-serif" font-size="13" lengthAdjust="spacingAndGlyphs" textLength="53" x="2111" y="429.02">_M_next</text><!--MD5=[439168ef5a1a22caa9c072b994500b44]
link C_0005440126081384335850 to C_0015609426756015090359--><path d="M2352.17,337.1531 C2348.87,364.1531 2343.36,409.3231 2339.27,442.8231 " fill="none" id="C_0005440126081384335850-&gt;C_0015609426756015090359" style="stroke: #A80036; stroke-width: 1.0; stroke-dasharray: 7.0,7.0;"/><polygon fill="none" points="2346.19,443.8431,2336.82,462.8531,2332.3,442.1531,2346.19,443.8431" style="stroke: #A80036; stroke-width: 1.0;"/><!--MD5=[49ec6d99419fd295026c2f3f58137143]
link GMN44 to C_0015609426756015090359--><path d="M2534.16,376.4531 C2528.36,379.6731 2522.61,382.8531 2517,385.9531 C2468.99,412.4731 2413.71,442.6231 2376.58,462.8231 " fill="none" id="GMN44-C_0015609426756015090359" style="stroke: #A80036; stroke-width: 1.0; stroke-dasharray: 7.0,7.0;"/><!--MD5=[baf86886df6e7f0f438c5a51251000a0]
@startuml
title std::list context class diagram
class "__gnu_cxx::__aligned_membuf<_Tp>" as C_0001780373788828611506
class C_0001780373788828611506 [[https://github.com/gcc-mirror/gcc/blob/releases/gcc-11.4.0/libstdc++-v3/include/ext/aligned_buffer.h#L47{}]] {
__
}
class "__gnu_cxx::__aligned_membuf::_Tp2" as C_0000363944907545484744
class C_0000363944907545484744 [[https://github.com/gcc-mirror/gcc/blob/releases/gcc-11.4.0/libstdc++-v3/include/ext/aligned_buffer.h#L54{}]] {
__
}
class "__detail::_List_node_base" as C_0003061237274580542436
class C_0003061237274580542436 [[https://github.com/gcc-mirror/gcc/blob/releases/gcc-11.4.0/libstdc++-v3/include/bits/stl_list.h#L81{}]] {
__
}
class "__detail::_List_node_header" as C_0000986537528964488307
class C_0000986537528964488307 [[https://github.com/gcc-mirror/gcc/blob/releases/gcc-11.4.0/libstdc++-v3/include/bits/stl_list.h#L104{}]] {
__
}
class "_List_node<_Tp>" as C_0016581430309674106927
class C_0016581430309674106927 [[https://github.com/gcc-mirror/gcc/blob/releases/gcc-11.4.0/libstdc++-v3/include/bits/stl_list.h#L167{}]] {
__
}
class "_List_iterator<_Tp>" as C_0010079646352454332341
class C_0010079646352454332341 [[https://github.com/gcc-mirror/gcc/blob/releases/gcc-11.4.0/libstdc++-v3/include/bits/stl_list.h#L186{}]] {
__
}
class "_List_base<_Tp,_Alloc>" as C_0017268439787651424876
class C_0017268439787651424876 [[https://github.com/gcc-mirror/gcc/blob/releases/gcc-11.4.0/libstdc++-v3/include/bits/stl_list.h#L350{}]] {
__
}
class "_List_base::_List_impl" as C_0009730025766701730813
class C_0009730025766701730813 [[https://github.com/gcc-mirror/gcc/blob/releases/gcc-11.4.0/libstdc++-v3/include/bits/stl_list.h#L375{}]] {
__
}
class "list<_Tp,_Alloc=allocator<_Tp>>" as C_0015609426756015090359
class C_0015609426756015090359 [[https://github.com/gcc-mirror/gcc/blob/releases/gcc-11.4.0/libstdc++-v3/include/bits/stl_list.h#L557{}]] {
__
}
class "list::_Finalize_merge" as C_0008831140152225074072
class C_0008831140152225074072 [[https://github.com/gcc-mirror/gcc/blob/releases/gcc-11.4.0/libstdc++-v3/include/bits/stl_list.h#L1973{}]] {
__
}
class "list<_Tp,pmr::polymorphic_allocator<_Tp>>" as C_0005440126081384335850
class C_0005440126081384335850 [[https://github.com/gcc-mirror/gcc/blob/releases/gcc-11.4.0/libstdc++-v3/include/list#L78{}]] {
__
}
C_0000363944907545484744 - -+ C_0001780373788828611506
C_0003061237274580542436 - -> C_0003061237274580542436 : +_M_next
C_0003061237274580542436 - -> C_0003061237274580542436 : +_M_prev
C_0003061237274580542436 <|- - C_0000986537528964488307
C_0016581430309674106927 o- - C_0001780373788828611506 : +_M_storage
C_0003061237274580542436 <|- - C_0016581430309674106927
C_0017268439787651424876 o- - C_0009730025766701730813 : #_M_impl
C_0009730025766701730813 - -+ C_0017268439787651424876
C_0009730025766701730813 o- - C_0000986537528964488307 : +_M_node
C_0017268439787651424876 <|- - C_0015609426756015090359
C_0008831140152225074072 - -+ C_0015609426756015090359
C_0008831140152225074072 - -> C_0010079646352454332341 : +_M_next
C_0005440126081384335850 ..|> C_0015609426756015090359
   note top of C_0001780373788828611506
    A utility type containing a POD object that can hold an object of type
 _Tp initialized via place...
end note
     note top of C_0000363944907545484744
    Target macro ADJUST_FIELD_ALIGN can produce different alignment for
 types when used as class mem...
end note
     note top of C_0003061237274580542436
    Common part of a node in the %list.
end note
     note top of C_0000986537528964488307
    The %list node header.
end note
     note top of C_0016581430309674106927
    An actual node in the %list.
end note
       note top of C_0017268439787651424876
    See bits/stl_deque.h's _Deque_base for an explanation.
end note
       note top of C_0015609426756015090359
    Meets the requirements of a 
container
, a
  
reversible container
, and a
  
sequence
, includin...
end note
     note top of C_0008831140152225074072
    Update _M_size members after merging (some of) __src into __dest.
end note
    


@enduml

PlantUML version 1.2020.02(Sun Mar 01 11:22:07 CET 2020)
(GPL source distribution)
Java Runtime: OpenJDK Runtime Environment
JVM: OpenJDK 64-Bit Server VM
Java Version: 11.0.23+9-post-Ubuntu-1ubuntu122.04.1
Operating System: Linux
Default Encoding: UTF-8
Language: en
Country: US
--></g></svg>