<?xml version="1.0" encoding="UTF-8" standalone="no"?><svg xmlns="http://www.w3.org/2000/svg" xmlns:xlink="http://www.w3.org/1999/xlink" contentScriptType="application/ecmascript" contentStyleType="text/css" height="521px" preserveAspectRatio="none" style="width:1502px;height:521px;" version="1.1" viewBox="0 0 1502 521" width="1502px" zoomAndPan="magnify"><defs><filter height="300%" id="f1srm6a8kr9yp2" width="300%" x="-1" y="-1"><feGaussianBlur result="blurOut" stdDeviation="2.0"/><feColorMatrix in="blurOut" result="blurOut2" type="matrix" values="0 0 0 0 0 0 0 0 0 0 0 0 0 0 0 0 0 0 .4 0"/><feOffset dx="4.0" dy="4.0" in="blurOut2" result="blurOut3"/><feBlend in="SourceGraphic" in2="blurOut3" mode="normal"/></filter></defs><g><text fill="#000000" font-family="sans-serif" font-size="18" lengthAdjust="spacingAndGlyphs" textLength="436" x="539" y="16.708">High-level namespace dependencies in clang-uml</text><!--MD5=[f200405694b678c37ccdd2cd776f9c73]
cluster C_0002174271399507040339--><a href="namespaceclanguml.html" target="_top" title="clanguml" xlink:actuate="onRequest" xlink:href="namespaceclanguml.html" xlink:show="new" xlink:title="clanguml" xlink:type="simple"><polygon fill="#FFFFFF" filter="url(#f1srm6a8kr9yp2)" points="22,45.2331,98,45.2331,105,67.53,1480,67.53,1480,509.9531,22,509.9531,22,45.2331" style="stroke: #000000; stroke-width: 1.5;"/><line style="stroke: #000000; stroke-width: 1.5;" x1="22" x2="105" y1="67.53" y2="67.53"/><text fill="#000000" font-family="sans-serif" font-size="14" font-weight="bold" lengthAdjust="spacingAndGlyphs" textLength="70" x="26" y="60.2282">clanguml</text></a><!--MD5=[7ba9c127878a642fef3f451151dda753]
cluster C_0000316605034920222648--><a href="namespaceclanguml_1_1common.html" target="_top" title="common" xlink:actuate="onRequest" xlink:href="namespaceclanguml_1_1common.html" xlink:show="new" xlink:title="common" xlink:type="simple"><polygon fill="#FFFFFF" filter="url(#f1srm6a8kr9yp2)" points="649,200.2331,722,200.2331,729,222.53,910,222.53,910,477.9531,649,477.9531,649,200.2331" style="stroke: #000000; stroke-width: 1.5;"/><line style="stroke: #000000; stroke-width: 1.5;" x1="649" x2="729" y1="222.53" y2="222.53"/><text fill="#000000" font-family="sans-serif" font-size="14" font-weight="bold" lengthAdjust="spacingAndGlyphs" textLength="67" x="653" y="215.2282">common</text></a><!--MD5=[09e992b259734a9820adb2642bf347d2]
cluster C_0002240167036201725606--><a href="namespaceclanguml_1_1class__diagram.html" target="_top" title="class_diagram" xlink:actuate="onRequest" xlink:href="namespaceclanguml_1_1class__diagram.html" xlink:show="new" xlink:title="class_diagram" xlink:type="simple"><polygon fill="#FFFFFF" filter="url(#f1srm6a8kr9yp2)" points="1211,88.2331,1327,88.2331,1334,110.53,1456,110.53,1456,312.2331,1211,312.2331,1211,88.2331" style="stroke: #000000; stroke-width: 1.5;"/><line style="stroke: #000000; stroke-width: 1.5;" x1="1211" x2="1334" y1="110.53" y2="110.53"/><text fill="#000000" font-family="sans-serif" font-size="14" font-weight="bold" lengthAdjust="spacingAndGlyphs" textLength="110" x="1215" y="103.2282">class_diagram</text></a><!--MD5=[afa88a3fa4a9d7982361c47c6e3d506f]
cluster C_0002289677368446195616--><a href="namespaceclanguml_1_1include__diagram.html" target="_top" title="include_diagram" xlink:actuate="onRequest" xlink:href="namespaceclanguml_1_1include__diagram.html" xlink:show="new" xlink:title="include_diagram" xlink:type="simple"><polygon fill="#FFFFFF" filter="url(#f1srm6a8kr9yp2)" points="942,88.2331,1075,88.2331,1082,110.53,1187,110.53,1187,312.2331,942,312.2331,942,88.2331" style="stroke: #000000; stroke-width: 1.5;"/><line style="stroke: #000000; stroke-width: 1.5;" x1="942" x2="1082" y1="110.53" y2="110.53"/><text fill="#000000" font-family="sans-serif" font-size="14" font-weight="bold" lengthAdjust="spacingAndGlyphs" textLength="127" x="946" y="103.2282">include_diagram</text></a><!--MD5=[2319765f5fef5e41f5b55adb85cd73ea]
cluster C_0001521862840957629236--><a href="namespaceclanguml_1_1sequence__diagram.html" target="_top" title="sequence_diagram" xlink:actuate="onRequest" xlink:href="namespaceclanguml_1_1sequence__diagram.html" xlink:show="new" xlink:title="sequence_diagram" xlink:type="simple"><polygon fill="#FFFFFF" filter="url(#f1srm6a8kr9yp2)" points="362,88.2331,516,88.2331,523,110.53,607,110.53,607,312.2331,362,312.2331,362,88.2331" style="stroke: #000000; stroke-width: 1.5;"/><line style="stroke: #000000; stroke-width: 1.5;" x1="362" x2="523" y1="110.53" y2="110.53"/><text fill="#000000" font-family="sans-serif" font-size="14" font-weight="bold" lengthAdjust="spacingAndGlyphs" textLength="148" x="366" y="103.2282">sequence_diagram</text></a><!--MD5=[d6d4256b649a06bde52dfa9851b6c77d]
cluster C_0001176715616702819073--><a href="namespaceclanguml_1_1package__diagram.html" target="_top" title="package_diagram" xlink:actuate="onRequest" xlink:href="namespaceclanguml_1_1package__diagram.html" xlink:show="new" xlink:title="package_diagram" xlink:type="simple"><polygon fill="#FFFFFF" filter="url(#f1srm6a8kr9yp2)" points="46,88.2331,188,88.2331,195,110.53,291,110.53,291,312.2331,46,312.2331,46,88.2331" style="stroke: #000000; stroke-width: 1.5;"/><line style="stroke: #000000; stroke-width: 1.5;" x1="46" x2="195" y1="110.53" y2="110.53"/><text fill="#000000" font-family="sans-serif" font-size="14" font-weight="bold" lengthAdjust="spacingAndGlyphs" textLength="136" x="50" y="103.2282">package_diagram</text></a><a href="namespaceclanguml_1_1common_1_1model.html" target="_top" title="model" xlink:actuate="onRequest" xlink:href="namespaceclanguml_1_1common_1_1model.html" xlink:show="new" xlink:title="model" xlink:type="simple"><polygon fill="#FFFFFF" filter="url(#f1srm6a8kr9yp2)" points="673,356.2331,727,356.2331,734,378.53,741,378.53,741,408.8269,673,408.8269,673,356.2331" style="stroke: #000000; stroke-width: 1.5;"/><line style="stroke: #000000; stroke-width: 1.5;" x1="673" x2="734" y1="378.53" y2="378.53"/><text fill="#000000" font-family="sans-serif" font-size="14" font-weight="bold" lengthAdjust="spacingAndGlyphs" textLength="48" x="677" y="371.2282">model</text></a><a href="namespaceclanguml_1_1common_1_1generators.html" target="_top" title="generators" xlink:actuate="onRequest" xlink:href="namespaceclanguml_1_1common_1_1generators.html" xlink:show="new" xlink:title="generators" xlink:type="simple"><polygon fill="#FFFFFF" filter="url(#f1srm6a8kr9yp2)" points="778,243.2331,872,243.2331,879,265.53,886,265.53,886,295.8269,778,295.8269,778,243.2331" style="stroke: #000000; stroke-width: 1.5;"/><line style="stroke: #000000; stroke-width: 1.5;" x1="778" x2="879" y1="265.53" y2="265.53"/><text fill="#000000" font-family="sans-serif" font-size="14" font-weight="bold" lengthAdjust="spacingAndGlyphs" textLength="88" x="782" y="258.2282">generators</text></a><a href="namespaceclanguml_1_1common_1_1visitor.html" target="_top" title="visitor" xlink:actuate="onRequest" xlink:href="namespaceclanguml_1_1common_1_1visitor.html" xlink:show="new" xlink:title="visitor" xlink:type="simple"><polygon fill="#FFFFFF" filter="url(#f1srm6a8kr9yp2)" points="673.5,243.2331,728.5,243.2331,735.5,265.53,742.5,265.53,742.5,295.8269,673.5,295.8269,673.5,243.2331" style="stroke: #000000; stroke-width: 1.5;"/><line style="stroke: #000000; stroke-width: 1.5;" x1="673.5" x2="735.5" y1="265.53" y2="265.53"/><text fill="#000000" font-family="sans-serif" font-size="14" font-weight="bold" lengthAdjust="spacingAndGlyphs" textLength="49" x="677.5" y="258.2282">visitor</text></a><a href="namespaceclanguml_1_1class__diagram_1_1model.html" target="_top" title="model" xlink:actuate="onRequest" xlink:href="namespaceclanguml_1_1class__diagram_1_1model.html" xlink:show="new" xlink:title="model" xlink:type="simple"><polygon fill="#FFFFFF" filter="url(#f1srm6a8kr9yp2)" points="1277,243.2331,1331,243.2331,1338,265.53,1345,265.53,1345,295.8269,1277,295.8269,1277,243.2331" style="stroke: #000000; stroke-width: 1.5;"/><line style="stroke: #000000; stroke-width: 1.5;" x1="1277" x2="1338" y1="265.53" y2="265.53"/><text fill="#000000" font-family="sans-serif" font-size="14" font-weight="bold" lengthAdjust="spacingAndGlyphs" textLength="48" x="1281" y="258.2282">model</text></a><a href="namespaceclanguml_1_1class__diagram_1_1visitor.html" target="_top" title="visitor" xlink:actuate="onRequest" xlink:href="namespaceclanguml_1_1class__diagram_1_1visitor.html" xlink:show="new" xlink:title="visitor" xlink:type="simple"><polygon fill="#FFFFFF" filter="url(#f1srm6a8kr9yp2)" points="1370.5,123.2331,1425.5,123.2331,1432.5,145.53,1439.5,145.53,1439.5,175.8269,1370.5,175.8269,1370.5,123.2331" style="stroke: #000000; stroke-width: 1.5;"/><line style="stroke: #000000; stroke-width: 1.5;" x1="1370.5" x2="1432.5" y1="145.53" y2="145.53"/><text fill="#000000" font-family="sans-serif" font-size="14" font-weight="bold" lengthAdjust="spacingAndGlyphs" textLength="49" x="1374.5" y="138.2282">visitor</text></a><a href="namespaceclanguml_1_1class__diagram_1_1generators.html" target="_top" title="generators" xlink:actuate="onRequest" xlink:href="namespaceclanguml_1_1class__diagram_1_1generators.html" xlink:show="new" xlink:title="generators" xlink:type="simple"><polygon fill="#FFFFFF" filter="url(#f1srm6a8kr9yp2)" points="1227,123.2331,1321,123.2331,1328,145.53,1335,145.53,1335,175.8269,1227,175.8269,1227,123.2331" style="stroke: #000000; stroke-width: 1.5;"/><line style="stroke: #000000; stroke-width: 1.5;" x1="1227" x2="1328" y1="145.53" y2="145.53"/><text fill="#000000" font-family="sans-serif" font-size="14" font-weight="bold" lengthAdjust="spacingAndGlyphs" textLength="88" x="1231" y="138.2282">generators</text></a><a href="namespaceclanguml_1_1config.html" target="_top" title="config" xlink:actuate="onRequest" xlink:href="namespaceclanguml_1_1config.html" xlink:show="new" xlink:title="config" xlink:type="simple"><polygon fill="#FFFFFF" filter="url(#f1srm6a8kr9yp2)" points="555.5,356.2331,610.5,356.2331,617.5,378.53,624.5,378.53,624.5,408.8269,555.5,408.8269,555.5,356.2331" style="stroke: #000000; stroke-width: 1.5;"/><line style="stroke: #000000; stroke-width: 1.5;" x1="555.5" x2="617.5" y1="378.53" y2="378.53"/><text fill="#000000" font-family="sans-serif" font-size="14" font-weight="bold" lengthAdjust="spacingAndGlyphs" textLength="49" x="559.5" y="371.2282">config</text></a><a href="namespaceclanguml_1_1include__diagram_1_1model.html" target="_top" title="model" xlink:actuate="onRequest" xlink:href="namespaceclanguml_1_1include__diagram_1_1model.html" xlink:show="new" xlink:title="model" xlink:type="simple"><polygon fill="#FFFFFF" filter="url(#f1srm6a8kr9yp2)" points="958,243.2331,1012,243.2331,1019,265.53,1026,265.53,1026,295.8269,958,295.8269,958,243.2331" style="stroke: #000000; stroke-width: 1.5;"/><line style="stroke: #000000; stroke-width: 1.5;" x1="958" x2="1019" y1="265.53" y2="265.53"/><text fill="#000000" font-family="sans-serif" font-size="14" font-weight="bold" lengthAdjust="spacingAndGlyphs" textLength="48" x="962" y="258.2282">model</text></a><a href="namespaceclanguml_1_1include__diagram_1_1visitor.html" target="_top" title="visitor" xlink:actuate="onRequest" xlink:href="namespaceclanguml_1_1include__diagram_1_1visitor.html" xlink:show="new" xlink:title="visitor" xlink:type="simple"><polygon fill="#FFFFFF" filter="url(#f1srm6a8kr9yp2)" points="1101.5,123.2331,1156.5,123.2331,1163.5,145.53,1170.5,145.53,1170.5,175.8269,1101.5,175.8269,1101.5,123.2331" style="stroke: #000000; stroke-width: 1.5;"/><line style="stroke: #000000; stroke-width: 1.5;" x1="1101.5" x2="1163.5" y1="145.53" y2="145.53"/><text fill="#000000" font-family="sans-serif" font-size="14" font-weight="bold" lengthAdjust="spacingAndGlyphs" textLength="49" x="1105.5" y="138.2282">visitor</text></a><a href="namespaceclanguml_1_1include__diagram_1_1generators.html" target="_top" title="generators" xlink:actuate="onRequest" xlink:href="namespaceclanguml_1_1include__diagram_1_1generators.html" xlink:show="new" xlink:title="generators" xlink:type="simple"><polygon fill="#FFFFFF" filter="url(#f1srm6a8kr9yp2)" points="958,123.2331,1052,123.2331,1059,145.53,1066,145.53,1066,175.8269,958,175.8269,958,123.2331" style="stroke: #000000; stroke-width: 1.5;"/><line style="stroke: #000000; stroke-width: 1.5;" x1="958" x2="1059" y1="145.53" y2="145.53"/><text fill="#000000" font-family="sans-serif" font-size="14" font-weight="bold" lengthAdjust="spacingAndGlyphs" textLength="88" x="962" y="138.2282">generators</text></a><a href="namespaceclanguml_1_1sequence__diagram_1_1model.html" target="_top" title="model" xlink:actuate="onRequest" xlink:href="namespaceclanguml_1_1sequence__diagram_1_1model.html" xlink:show="new" xlink:title="model" xlink:type="simple"><polygon fill="#FFFFFF" filter="url(#f1srm6a8kr9yp2)" points="483,243.2331,537,243.2331,544,265.53,551,265.53,551,295.8269,483,295.8269,483,243.2331" style="stroke: #000000; stroke-width: 1.5;"/><line style="stroke: #000000; stroke-width: 1.5;" x1="483" x2="544" y1="265.53" y2="265.53"/><text fill="#000000" font-family="sans-serif" font-size="14" font-weight="bold" lengthAdjust="spacingAndGlyphs" textLength="48" x="487" y="258.2282">model</text></a><a href="namespaceclanguml_1_1sequence__diagram_1_1visitor.html" target="_top" title="visitor" xlink:actuate="onRequest" xlink:href="namespaceclanguml_1_1sequence__diagram_1_1visitor.html" xlink:show="new" xlink:title="visitor" xlink:type="simple"><polygon fill="#FFFFFF" filter="url(#f1srm6a8kr9yp2)" points="521.5,123.2331,576.5,123.2331,583.5,145.53,590.5,145.53,590.5,175.8269,521.5,175.8269,521.5,123.2331" style="stroke: #000000; stroke-width: 1.5;"/><line style="stroke: #000000; stroke-width: 1.5;" x1="521.5" x2="583.5" y1="145.53" y2="145.53"/><text fill="#000000" font-family="sans-serif" font-size="14" font-weight="bold" lengthAdjust="spacingAndGlyphs" textLength="49" x="525.5" y="138.2282">visitor</text></a><a href="namespaceclanguml_1_1sequence__diagram_1_1generators.html" target="_top" title="generators" xlink:actuate="onRequest" xlink:href="namespaceclanguml_1_1sequence__diagram_1_1generators.html" xlink:show="new" xlink:title="generators" xlink:type="simple"><polygon fill="#FFFFFF" filter="url(#f1srm6a8kr9yp2)" points="378,123.2331,472,123.2331,479,145.53,486,145.53,486,175.8269,378,175.8269,378,123.2331" style="stroke: #000000; stroke-width: 1.5;"/><line style="stroke: #000000; stroke-width: 1.5;" x1="378" x2="479" y1="145.53" y2="145.53"/><text fill="#000000" font-family="sans-serif" font-size="14" font-weight="bold" lengthAdjust="spacingAndGlyphs" textLength="88" x="382" y="138.2282">generators</text></a><a href="namespaceclanguml_1_1package__diagram_1_1model.html" target="_top" title="model" xlink:actuate="onRequest" xlink:href="namespaceclanguml_1_1package__diagram_1_1model.html" xlink:show="new" xlink:title="model" xlink:type="simple"><polygon fill="#FFFFFF" filter="url(#f1srm6a8kr9yp2)" points="167,243.2331,221,243.2331,228,265.53,235,265.53,235,295.8269,167,295.8269,167,243.2331" style="stroke: #000000; stroke-width: 1.5;"/><line style="stroke: #000000; stroke-width: 1.5;" x1="167" x2="228" y1="265.53" y2="265.53"/><text fill="#000000" font-family="sans-serif" font-size="14" font-weight="bold" lengthAdjust="spacingAndGlyphs" textLength="48" x="171" y="258.2282">model</text></a><a href="namespaceclanguml_1_1package__diagram_1_1visitor.html" target="_top" title="visitor" xlink:actuate="onRequest" xlink:href="namespaceclanguml_1_1package__diagram_1_1visitor.html" xlink:show="new" xlink:title="visitor" xlink:type="simple"><polygon fill="#FFFFFF" filter="url(#f1srm6a8kr9yp2)" points="205.5,123.2331,260.5,123.2331,267.5,145.53,274.5,145.53,274.5,175.8269,205.5,175.8269,205.5,123.2331" style="stroke: #000000; stroke-width: 1.5;"/><line style="stroke: #000000; stroke-width: 1.5;" x1="205.5" x2="267.5" y1="145.53" y2="145.53"/><text fill="#000000" font-family="sans-serif" font-size="14" font-weight="bold" lengthAdjust="spacingAndGlyphs" textLength="49" x="209.5" y="138.2282">visitor</text></a><a href="namespaceclanguml_1_1package__diagram_1_1generators.html" target="_top" title="generators" xlink:actuate="onRequest" xlink:href="namespaceclanguml_1_1package__diagram_1_1generators.html" xlink:show="new" xlink:title="generators" xlink:type="simple"><polygon fill="#FFFFFF" filter="url(#f1srm6a8kr9yp2)" points="62,123.2331,156,123.2331,163,145.53,170,145.53,170,175.8269,62,175.8269,62,123.2331" style="stroke: #000000; stroke-width: 1.5;"/><line style="stroke: #000000; stroke-width: 1.5;" x1="62" x2="163" y1="145.53" y2="145.53"/><text fill="#000000" font-family="sans-serif" font-size="14" font-weight="bold" lengthAdjust="spacingAndGlyphs" textLength="88" x="66" y="138.2282">generators</text></a><!--MD5=[ba2da6be234357b66b2e2f80a3af6860]
link C_0000316605034920222648 to C_0000083721806430512831--><path d="M682.27,469.2231 C692.93,468.7231 705.93,438.7831 711.03,414.4731 " fill="none" id="C_0000316605034920222648-&gt;C_0000083721806430512831" style="stroke: #A80036; stroke-width: 1.0; stroke-dasharray: 7.0,7.0;"/><polygon fill="#A80036" points="711.99,409.3831,706.3885,417.484,711.0617,414.2962,714.2494,418.9693,711.99,409.3831" style="stroke: #A80036; stroke-width: 1.0;"/><!--MD5=[ef4738b47d95db08613fbcac412a7a33]
link C_0000083721806430512831 to C_0000316605034920222648--><path d="M687.7,409.3831 C677.54,434.1731 671.37,468.1531 681.51,469.2031 " fill="none" id="C_0000083721806430512831-&gt;C_0000316605034920222648" style="stroke: #A80036; stroke-width: 1.0; stroke-dasharray: 7.0,7.0;"/><polygon fill="#A80036" points="681.51,469.2031,672.9699,464.2974,676.5366,468.6881,672.1459,472.2549,681.51,469.2031" style="stroke: #A80036; stroke-width: 1.0;"/><!--MD5=[0dce90b5182043ee1f405b30ed9b7e73]
link C_0000083721806430512831 to C_0000897124234964432620--><path d="M741.02,380.6731 C848.17,376.5931 1172.97,360.1031 1268,320.2331 C1279.35,315.4731 1290.28,307.9131 1298.88,300.1331 " fill="none" id="C_0000083721806430512831-&gt;C_0000897124234964432620" style="stroke: #A80036; stroke-width: 1.0; stroke-dasharray: 7.0,7.0;"/><polygon fill="#A80036" points="1302.91,296.3031,1293.628,299.5961,1299.2829,299.7446,1299.1344,305.3995,1302.91,296.3031" style="stroke: #A80036; stroke-width: 1.0;"/><!--MD5=[be795358792d041ee51d11b0d0c57c97]
link C_0000897124234964432620 to C_0000083721806430512831--><path d="M1276.76,291.1731 C1263.63,301.6831 1248.72,313.6331 1233,320.2331 C1143.96,357.5931 853.19,374.4231 746.35,379.7531 " fill="none" id="C_0000897124234964432620-&gt;C_0000083721806430512831" style="stroke: #A80036; stroke-width: 1.0; stroke-dasharray: 7.0,7.0;"/><polygon fill="#A80036" points="741.1,380.0131,750.2835,383.5718,746.0941,379.7706,749.8953,375.5812,741.1,380.0131" style="stroke: #A80036; stroke-width: 1.0;"/><!--MD5=[fa360e851c37f2a8f6ee523bc6f9fafd]
link C_0000083721806430512831 to C_0002206969880830639264--><path d="M687.42,356.4531 C687.28,356.3831 687.14,356.3031 687,356.2331 C648.5,336.0031 633.54,342.1931 596,320.2331 C582.25,312.1931 568.35,301.1831 555.59,291.5931 " fill="none" id="C_0000083721806430512831-&gt;C_0002206969880830639264" style="stroke: #A80036; stroke-width: 1.0; stroke-dasharray: 7.0,7.0;"/><polygon fill="#A80036" points="551.31,288.3931,556.1443,296.9739,555.322,291.3771,560.9187,290.5547,551.31,288.3931" style="stroke: #A80036; stroke-width: 1.0;"/><!--MD5=[2d8cecd3f53b8446a6d4eeac26559a55]
link C_0002206969880830639264 to C_0000083721806430512831--><path d="M528.8,296.3131 C537.82,304.6531 549.46,313.4831 561,320.2331 C598.54,342.1931 613.5,336.0031 652,356.2331 C657.38,359.0631 662.94,362.4731 668.54,365.8731 " fill="none" id="C_0002206969880830639264-&gt;C_0000083721806430512831" style="stroke: #A80036; stroke-width: 1.0; stroke-dasharray: 7.0,7.0;"/><polygon fill="#A80036" points="672.83,368.4631,667.1824,360.3944,668.5463,365.8843,663.0564,367.2482,672.83,368.4631" style="stroke: #A80036; stroke-width: 1.0;"/><!--MD5=[c4a22cd14a2c08fffb2173e9b6c3e42c]
link C_0000083721806430512831 to C_0000111389493058790497--><path d="M672.94,382.7331 C658.63,382.7331 644.32,382.7331 630.01,382.7331 " fill="none" id="C_0000083721806430512831-&gt;C_0000111389493058790497" style="stroke: #A80036; stroke-width: 1.0; stroke-dasharray: 7.0,7.0;"/><polygon fill="#A80036" points="624.73,382.7331,633.73,386.7331,629.73,382.7331,633.73,378.7331,624.73,382.7331" style="stroke: #A80036; stroke-width: 1.0;"/><!--MD5=[8f601ca51e095f03f9c3f1d6478a8a00]
link C_0000111389493058790497 to C_0000083721806430512831--><path d="M624.73,382.7331 C639.04,382.7331 653.35,382.7331 667.66,382.7331 " fill="none" id="C_0000111389493058790497-&gt;C_0000083721806430512831" style="stroke: #A80036; stroke-width: 1.0; stroke-dasharray: 7.0,7.0;"/><polygon fill="#A80036" points="672.94,382.7331,663.94,378.7331,667.94,382.7331,663.94,386.7331,672.94,382.7331" style="stroke: #A80036; stroke-width: 1.0;"/><!--MD5=[afe42d899e23f341bd05918f4301571a]
link C_0002059309769421024048 to C_0000111389493058790497--><path d="M690.26,296.4631 C684.23,304.4431 677.2,313.0331 670,320.2331 C657.54,332.7031 642.52,344.8631 628.88,355.0431 " fill="none" id="C_0002059309769421024048-&gt;C_0000111389493058790497" style="stroke: #A80036; stroke-width: 1.0; stroke-dasharray: 7.0,7.0;"/><polygon fill="#A80036" points="624.69,358.1331,634.3073,356.0099,628.7138,355.1652,629.5586,349.5718,624.69,358.1331" style="stroke: #A80036; stroke-width: 1.0;"/><!--MD5=[2ac810ab3bacb361eaa965529f28133f]
link C_0002059309769421024048 to C_0000083721806430512831--><path d="M707.77,296.4731 C707.62,312.7331 707.43,333.8131 707.28,350.9431 " fill="none" id="C_0002059309769421024048-&gt;C_0000083721806430512831" style="stroke: #A80036; stroke-width: 1.0; stroke-dasharray: 7.0,7.0;"/><polygon fill="#A80036" points="707.23,356.1231,711.307,347.1577,707.2729,351.1233,703.3073,347.0892,707.23,356.1231" style="stroke: #A80036; stroke-width: 1.0;"/><!--MD5=[2fdec463d6ea5a74acddbf321b88e96f]
link C_0000897124234964432620 to C_0000316605034920222648--><path d="M1283.66,296.4031 C1273.63,304.8431 1261.83,313.7231 1250,320.2331 C1193.2875,351.4481 1129.7625,376.345 1066.2939,396.1377 C1034.5596,406.034 1002.8394,414.6543 971.9919,422.1502 C956.5682,425.8982 941.3626,429.3651 926.4826,432.5699 C922.7626,433.3711 919.0629,434.1559 915.3852,434.9246 C914.4658,435.1168 913.5478,435.308 912.6312,435.4982 " fill="none" id="C_0000897124234964432620-&gt;C_0000316605034920222648" style="stroke: #A80036; stroke-width: 1.0; stroke-dasharray: 7.0,7.0;"/><polygon fill="#A80036" points="912.6312,435.4982,922.2561,437.5864,917.5269,434.4824,920.6309,429.7532,912.6312,435.4982" style="stroke: #A80036; stroke-width: 1.0;"/><!--MD5=[986523af660b4cc3bd1f979a80d6b906]
link C_0001862217944346803827 to C_0000897124234964432620--><path d="M1384.6,176.3331 C1369.95,194.7431 1350.14,219.6031 1334.76,238.9031 " fill="none" id="C_0001862217944346803827-&gt;C_0000897124234964432620" style="stroke: #A80036; stroke-width: 1.0; stroke-dasharray: 7.0,7.0;"/><polygon fill="#A80036" points="1331.36,243.1831,1340.1037,238.6502,1334.4817,239.2774,1333.8545,233.6554,1331.36,243.1831" style="stroke: #A80036; stroke-width: 1.0;"/><!--MD5=[7995531c1332a87871b0ccb0493c695c]
link C_0001862217944346803827 to C_0000111389493058790497--><path d="M1370.48,169.9631 C1364.78,172.4631 1358.83,174.6831 1353,176.2331 C1339.55,179.8131 1238.9,175.5831 1228,184.2331 C1178.55,223.4831 1236.37,280.8831 1187,320.2331 C1140.84,357.0231 714.66,343.5931 657,356.2331 C647.87,358.2331 638.33,361.2531 629.41,364.5231 " fill="none" id="C_0001862217944346803827-&gt;C_0000111389493058790497" style="stroke: #A80036; stroke-width: 1.0; stroke-dasharray: 7.0,7.0;"/><polygon fill="#A80036" points="624.52,366.3631,634.3515,366.9483,629.2016,364.6075,631.5425,359.4577,624.52,366.3631" style="stroke: #A80036; stroke-width: 1.0;"/><!--MD5=[fe6c659b1d9551b23d6b7b46d3ddf306]
link C_0001862217944346803827 to C_0002059309769421024048--><path d="M1370.26,170.3431 C1364.64,172.7531 1358.77,174.8531 1353,176.2331 C1321.01,183.8831 789.67,168.1131 761,184.2331 C740.4,195.8131 726.71,219.0531 718.41,238.2331 " fill="none" id="C_0001862217944346803827-&gt;C_0002059309769421024048" style="stroke: #A80036; stroke-width: 1.0; stroke-dasharray: 7.0,7.0;"/><polygon fill="#A80036" points="716.41,243.0131,723.5713,236.2518,718.3381,238.3999,716.19,233.1667,716.41,243.0131" style="stroke: #A80036; stroke-width: 1.0;"/><!--MD5=[94cd7daeef8576610aa0eefb9af041b2]
link C_0001862217944346803827 to C_0000083721806430512831--><path d="M1370.45,169.8531 C1364.76,172.3631 1358.81,174.6231 1353,176.2331 C1333.01,181.7831 1275.3,170.2331 1260,184.2331 C1214.71,225.6631 1280.66,278.1331 1236,320.2331 C1227.05,328.6731 867.33,365.5831 746.28,377.7931 " fill="none" id="C_0001862217944346803827-&gt;C_0000083721806430512831" style="stroke: #A80036; stroke-width: 1.0; stroke-dasharray: 7.0,7.0;"/><polygon fill="#A80036" points="741.04,378.3231,750.3951,381.4024,746.0149,377.8228,749.5945,373.4426,741.04,378.3231" style="stroke: #A80036; stroke-width: 1.0;"/><!--MD5=[18ca2bdf7722de89f506b3164a26946d]
link C_0001862217944346803827 to C_0000316605034920222648--><path d="M1405.75,176.2631 C1405.41,212.7331 1399.42,279.7931 1363,320.2331 C1271.27,422.0931 1206.48,394.0231 1073,425.2331 C1031.095,435.0331 986.1356,442.6744 942.163,448.6259 C936.6664,449.3699 931.1852,450.0874 925.7274,450.7795 C922.9984,451.1255 920.2753,451.4652 917.5591,451.7986 C916.2009,451.9653 914.8445,452.1304 913.4899,452.294 C912.8126,452.3758 912.1357,452.4572 911.4593,452.5382 " fill="none" id="C_0001862217944346803827-&gt;C_0000316605034920222648" style="stroke: #A80036; stroke-width: 1.0; stroke-dasharray: 7.0,7.0;"/><polygon fill="#A80036" points="911.4593,452.5382,920.8712,455.4394,916.4238,451.9435,919.9197,447.4962,911.4593,452.5382" style="stroke: #A80036; stroke-width: 1.0;"/><!--MD5=[355fb263a9bcc3f17860aeaab8269b2c]
link C_0000111389493058790497 to C_0000316605034920222648--><path d="M617.6,409.3831 C624.165,415.4831 631.3275,422.1387 638.413,428.7231 C641.9557,432.0153 645.4792,435.2897 648.8991,438.4679 " fill="none" id="C_0000111389493058790497-&gt;C_0000316605034920222648" style="stroke: #A80036; stroke-width: 1.0; stroke-dasharray: 7.0,7.0;"/><polygon fill="#A80036" points="648.8991,438.4679,645.0294,429.4111,645.2365,435.0642,639.5834,435.2712,648.8991,438.4679" style="stroke: #A80036; stroke-width: 1.0;"/><!--MD5=[f6cbfd97ae39c76c6d11a0244ead3fe7]
link C_0000545328881104248214 to C_0000316605034920222648--><path d="M984.45,296.3731 C978.605,313.8431 969.2,338.0506 955.6525,361.8944 C948.8788,373.8162 941.0694,385.6472 932.1516,396.4995 C927.6927,401.9257 922.9566,407.1072 917.9344,411.9331 C915.4233,414.3461 912.8406,416.6702 910.1853,418.8914 " fill="none" id="C_0000545328881104248214-&gt;C_0000316605034920222648" style="stroke: #A80036; stroke-width: 1.0; stroke-dasharray: 7.0,7.0;"/><polygon fill="#A80036" points="910.1853,418.8914,919.6549,416.1848,914.0203,415.6833,914.5219,410.0487,910.1853,418.8914" style="stroke: #A80036; stroke-width: 1.0;"/><!--MD5=[3b6106ace947b6aeef04bdce20fc5abe]
link C_0000545328881104248214 to C_0000083721806430512831--><path d="M957.75,291.6531 C941.28,301.1731 921.02,312.1031 902,320.2331 C849.68,342.6131 786.42,361.0831 746.44,371.7531 " fill="none" id="C_0000545328881104248214-&gt;C_0000083721806430512831" style="stroke: #A80036; stroke-width: 1.0; stroke-dasharray: 7.0,7.0;"/><polygon fill="#A80036" points="741.2,373.1531,750.9262,374.7027,746.0316,371.8666,748.8677,366.972,741.2,373.1531" style="stroke: #A80036; stroke-width: 1.0;"/><!--MD5=[e886a6702b1218b8a9a59fd2c3aacce5]
link C_0000299757823634161563 to C_0000545328881104248214--><path d="M1101.36,169.5331 C1095.68,172.0931 1089.76,174.4431 1084,176.2331 C1060.83,183.4331 1049.35,169.5931 1030,184.2331 C1012.88,197.1831 1003.28,219.5931 998.02,238.0831 " fill="none" id="C_0000299757823634161563-&gt;C_0000545328881104248214" style="stroke: #A80036; stroke-width: 1.0; stroke-dasharray: 7.0,7.0;"/><polygon fill="#A80036" points="996.64,243.1831,1002.8422,235.5325,997.9399,238.355,995.1173,233.4527,996.64,243.1831" style="stroke: #A80036; stroke-width: 1.0;"/><!--MD5=[c9f0ecfcf20f6128fd9201f1675e5614]
link C_0000299757823634161563 to C_0000111389493058790497--><path d="M1101.26,170.3131 C1095.64,172.7331 1089.77,174.8431 1084,176.2331 C1060.94,181.8131 676.15,170.2331 657,184.2331 C643.12,194.3731 612.97,298.1231 598.32,351.0431 " fill="none" id="C_0000299757823634161563-&gt;C_0000111389493058790497" style="stroke: #A80036; stroke-width: 1.0; stroke-dasharray: 7.0,7.0;"/><polygon fill="#A80036" points="596.96,355.9931,603.2101,348.3815,598.2901,351.1733,595.4983,346.2533,596.96,355.9931" style="stroke: #A80036; stroke-width: 1.0;"/><!--MD5=[c1eebb66b2db6d00482c390e2b3c10db]
link C_0000299757823634161563 to C_0002059309769421024048--><path d="M1101.25,170.2831 C1095.63,172.7031 1089.76,174.8231 1084,176.2331 C1066.57,180.5031 776.6,175.3531 761,184.2331 C740.47,195.9231 726.77,219.1531 718.45,238.3031 " fill="none" id="C_0000299757823634161563-&gt;C_0002059309769421024048" style="stroke: #A80036; stroke-width: 1.0; stroke-dasharray: 7.0,7.0;"/><polygon fill="#A80036" points="716.45,243.0731,723.6113,236.3118,718.3781,238.4599,716.23,233.2267,716.45,243.0731" style="stroke: #A80036; stroke-width: 1.0;"/><!--MD5=[092ad7fc3ac1761b7b84112e4e558371]
link C_0002206969880830639264 to C_0000316605034920222648--><path d="M509.66,296.2831 C501.74,329.7331 493.84,388.4031 523,425.2331 C534.205,439.3781 572.8975,450.2581 609.305,457.6606 C618.4069,459.5113 627.3659,461.1445 635.717,462.5571 C639.8925,463.2635 643.916,463.9146 647.7294,464.5102 C647.9678,464.5474 648.2053,464.5844 648.4419,464.6212 " fill="none" id="C_0002206969880830639264-&gt;C_0000316605034920222648" style="stroke: #A80036; stroke-width: 1.0; stroke-dasharray: 7.0,7.0;"/><polygon fill="#A80036" points="648.4419,464.6212,640.1631,459.2863,643.5013,463.8532,638.9344,467.1914,648.4419,464.6212" style="stroke: #A80036; stroke-width: 1.0;"/><!--MD5=[b54cea1d1b7609580cc8e2f4b98c0500]
link C_0002206969880830639264 to C_0000111389493058790497--><path d="M533.93,296.4731 C544.8,313.0131 558.96,334.5431 570.33,351.8331 " fill="none" id="C_0002206969880830639264-&gt;C_0000111389493058790497" style="stroke: #A80036; stroke-width: 1.0; stroke-dasharray: 7.0,7.0;"/><polygon fill="#A80036" points="573.16,356.1231,571.5728,346.403,570.4195,351.941,564.8815,350.7878,573.16,356.1231" style="stroke: #A80036; stroke-width: 1.0;"/><!--MD5=[e88230400ea873f6a58e0a36bed1a1dd]
link C_0000351520758190157237 to C_0000316605034920222648--><path d="M521.23,170.1931 C515.61,172.6331 509.75,174.7731 504,176.2331 C483.41,181.4631 327.7,168.9031 313,184.2331 C292.08,206.0431 297.92,294.0431 313,320.2331 C356.79,396.2631 447.9475,433.5281 528.6975,451.7781 C569.0725,460.9031 606.8456,465.2744 634.795,467.3606 C638.2887,467.6214 641.6288,467.8465 644.8014,468.0407 C645.5946,468.0892 646.3772,468.1358 647.1492,468.1806 C647.5352,468.203 647.9185,468.2249 648.2991,468.2464 " fill="none" id="C_0000351520758190157237-&gt;C_0000316605034920222648" style="stroke: #A80036; stroke-width: 1.0; stroke-dasharray: 7.0,7.0;"/><polygon fill="#A80036" points="648.2991,468.2464,639.5386,463.746,643.307,467.9649,639.0882,471.7333,648.2991,468.2464" style="stroke: #A80036; stroke-width: 1.0;"/><!--MD5=[bce4cb2e9fa0dfe9ce0cde195e5d0062]
link C_0000351520758190157237 to C_0002206969880830639264--><path d="M547.54,176.3331 C541.51,194.5831 533.38,219.1831 527.02,238.4131 " fill="none" id="C_0000351520758190157237-&gt;C_0002206969880830639264" style="stroke: #A80036; stroke-width: 1.0; stroke-dasharray: 7.0,7.0;"/><polygon fill="#A80036" points="525.45,243.1831,532.0711,235.8919,527.0183,238.4354,524.4748,233.3827,525.45,243.1831" style="stroke: #A80036; stroke-width: 1.0;"/><!--MD5=[99f0c3811d42f1c03075795e14627421]
link C_0000351520758190157237 to C_0000111389493058790497--><path d="M521.26,169.2331 C515.59,171.8231 509.7,174.2731 504,176.2331 C487.68,181.8531 476.87,170.8331 466,184.2331 C427.92,231.1731 434.14,268.8631 466,320.2331 C484.32,349.7731 521.52,365.5631 550.42,373.7131 " fill="none" id="C_0000351520758190157237-&gt;C_0000111389493058790497" style="stroke: #A80036; stroke-width: 1.0; stroke-dasharray: 7.0,7.0;"/><polygon fill="#A80036" points="555.34,375.0531,547.7112,368.8241,550.5165,373.7363,545.6043,376.5417,555.34,375.0531" style="stroke: #A80036; stroke-width: 1.0;"/><!--MD5=[70b67a87ec0f1413a096c6190b33b0f2]
link C_0000351520758190157237 to C_0000083721806430512831--><path d="M569.53,176.5031 C587.71,210.4231 621.71,271.4531 656,320.2331 C663.61,331.0531 672.62,342.3431 680.94,352.2531 " fill="none" id="C_0000351520758190157237-&gt;C_0000083721806430512831" style="stroke: #A80036; stroke-width: 1.0; stroke-dasharray: 7.0,7.0;"/><polygon fill="#A80036" points="684.21,356.1231,681.4485,346.6693,680.9796,352.3067,675.3423,351.8379,684.21,356.1231" style="stroke: #A80036; stroke-width: 1.0;"/><!--MD5=[e0f50984c2c2abe5a6eea2c0f9df723a]
link C_0000351520758190157237 to C_0002059309769421024048--><path d="M590.66,172.7231 C596.2,176.4631 601.81,180.3831 607,184.2331 C630.57,201.7431 655.91,222.9531 675.32,239.7431 " fill="none" id="C_0000351520758190157237-&gt;C_0002059309769421024048" style="stroke: #A80036; stroke-width: 1.0; stroke-dasharray: 7.0,7.0;"/><polygon fill="#A80036" points="679.12,243.0431,674.9616,234.1152,675.35,239.7587,669.7065,240.1471,679.12,243.0431" style="stroke: #A80036; stroke-width: 1.0;"/><!--MD5=[f8ec71451627ad7317ba4562f649716b]
link C_0001569810617781744082 to C_0000316605034920222648--><path d="M209.3,296.3631 C222.27,331.8831 250.96,395.1131 299,425.2331 C335.01,447.8081 429.55,458.8131 515.685,464.1719 C558.7525,466.8513 599.7188,468.1191 630.2169,468.7158 C634.0291,468.7904 637.6778,468.8545 641.1466,468.9095 C642.881,468.9371 644.5705,468.9623 646.2129,468.9855 C647.0341,468.9971 647.8435,469.0082 648.6409,469.0188 " fill="none" id="C_0001569810617781744082-&gt;C_0000316605034920222648" style="stroke: #A80036; stroke-width: 1.0; stroke-dasharray: 7.0,7.0;"/><polygon fill="#A80036" points="648.6409,469.0188,639.6948,464.8997,643.6414,468.9525,639.5887,472.899,648.6409,469.0188" style="stroke: #A80036; stroke-width: 1.0;"/><!--MD5=[818001e0f9322d92b1de659e76f4af3c]
link C_0001569810617781744082 to C_0000083721806430512831--><path d="M235.25,285.9331 C262.12,297.2131 300.75,311.9931 336,320.2331 C479.26,353.7131 527.99,306.4131 667.57,355.8631 " fill="none" id="C_0001569810617781744082-&gt;C_0000083721806430512831" style="stroke: #A80036; stroke-width: 1.0; stroke-dasharray: 7.0,7.0;"/><polygon fill="#A80036" points="672.58,357.6631,665.4523,350.8664,667.8719,355.9796,662.7587,358.3993,672.58,357.6631" style="stroke: #A80036; stroke-width: 1.0;"/><!--MD5=[a34f379144e9ccdcbba1ffde200dca2e]
link C_0000183895282854293183 to C_0001569810617781744082--><path d="M231.54,176.3331 C225.51,194.5831 217.38,219.1831 211.02,238.4131 " fill="none" id="C_0000183895282854293183-&gt;C_0001569810617781744082" style="stroke: #A80036; stroke-width: 1.0; stroke-dasharray: 7.0,7.0;"/><polygon fill="#A80036" points="209.45,243.1831,216.0711,235.8919,211.0183,238.4354,208.4748,233.3827,209.45,243.1831" style="stroke: #A80036; stroke-width: 1.0;"/><!--MD5=[40c53b4924977ae8d1d0ddde147587d3]
link C_0000183895282854293183 to C_0000111389493058790497--><path d="M251.51,176.5431 C270.96,219.0831 310.69,301.1331 336,320.2331 C399.85,368.4231 496.23,379.4031 550.05,381.5731 " fill="none" id="C_0000183895282854293183-&gt;C_0000111389493058790497" style="stroke: #A80036; stroke-width: 1.0; stroke-dasharray: 7.0,7.0;"/><polygon fill="#A80036" points="555.12,381.7531,546.2747,377.4218,550.1234,381.5675,545.9777,385.4163,555.12,381.7531" style="stroke: #A80036; stroke-width: 1.0;"/><!--MD5=[61fa8295436377539aad259cfc0d2222]
link C_0000183895282854293183 to C_0000083721806430512831--><path d="M274.69,153.4031 C296.67,156.9831 323.88,165.2531 340,184.2331 C379.63,230.9031 317.77,277.8931 362,320.2331 C410.46,366.6231 595.6,334.0431 667.59,356.0031 " fill="none" id="C_0000183895282854293183-&gt;C_0000083721806430512831" style="stroke: #A80036; stroke-width: 1.0; stroke-dasharray: 7.0,7.0;"/><polygon fill="#A80036" points="672.57,357.6831,665.3208,351.0161,667.8323,356.0849,662.7636,358.5964,672.57,357.6831" style="stroke: #A80036; stroke-width: 1.0;"/><!--MD5=[8befd17b8e2d40ca5a0f4237541b457b]
link C_0000183895282854293183 to C_0002059309769421024048--><path d="M274.71,159.6631 C298.98,165.4931 332.24,172.6631 362,176.2331 C389.04,179.4731 581.55,174.5231 607,184.2331 C636.84,195.6231 664.18,219.7431 682.87,239.3031 " fill="none" id="C_0000183895282854293183-&gt;C_0002059309769421024048" style="stroke: #A80036; stroke-width: 1.0; stroke-dasharray: 7.0,7.0;"/><polygon fill="#A80036" points="686.5,243.1531,683.2445,233.8579,683.0732,239.5121,677.4189,239.3408,686.5,243.1531" style="stroke: #A80036; stroke-width: 1.0;"/><!--MD5=[ade4e72af3df62d39f85f8177d795285]
@startuml
title High-level namespace dependencies in clang-uml
package [clanguml] as C_0002174271399507040339 [[namespaceclanguml.html{clanguml}]] {
package [common] as C_0000316605034920222648 [[namespaceclanguml_1_1common.html{common}]] {
package [model] as C_0000083721806430512831 [[namespaceclanguml_1_1common_1_1model.html{model}]] {
}
package [generators] as C_0001127696046613471321 [[namespaceclanguml_1_1common_1_1generators.html{generators}]] {
}
package [visitor] as C_0002059309769421024048 [[namespaceclanguml_1_1common_1_1visitor.html{visitor}]] {
}
}
package [class_diagram] as C_0002240167036201725606 [[namespaceclanguml_1_1class__diagram.html{class_diagram}]] {
package [model] as C_0000897124234964432620 [[namespaceclanguml_1_1class__diagram_1_1model.html{model}]] {
}
package [visitor] as C_0001862217944346803827 [[namespaceclanguml_1_1class__diagram_1_1visitor.html{visitor}]] {
}
package [generators] as C_0001202809603534656108 [[namespaceclanguml_1_1class__diagram_1_1generators.html{generators}]] {
}
}
package [config] as C_0000111389493058790497 [[namespaceclanguml_1_1config.html{config}]] {
}
package [include_diagram] as C_0002289677368446195616 [[namespaceclanguml_1_1include__diagram.html{include_diagram}]] {
package [model] as C_0000545328881104248214 [[namespaceclanguml_1_1include__diagram_1_1model.html{model}]] {
}
package [visitor] as C_0000299757823634161563 [[namespaceclanguml_1_1include__diagram_1_1visitor.html{visitor}]] {
}
package [generators] as C_0001148912745423261924 [[namespaceclanguml_1_1include__diagram_1_1generators.html{generators}]] {
}
}
package [sequence_diagram] as C_0001521862840957629236 [[namespaceclanguml_1_1sequence__diagram.html{sequence_diagram}]] {
package [model] as C_0002206969880830639264 [[namespaceclanguml_1_1sequence__diagram_1_1model.html{model}]] {
}
package [visitor] as C_0000351520758190157237 [[namespaceclanguml_1_1sequence__diagram_1_1visitor.html{visitor}]] {
}
package [generators] as C_0001816110126439728844 [[namespaceclanguml_1_1sequence__diagram_1_1generators.html{generators}]] {
}
}
package [package_diagram] as C_0001176715616702819073 [[namespaceclanguml_1_1package__diagram.html{package_diagram}]] {
package [model] as C_0001569810617781744082 [[namespaceclanguml_1_1package__diagram_1_1model.html{model}]] {
}
package [visitor] as C_0000183895282854293183 [[namespaceclanguml_1_1package__diagram_1_1visitor.html{visitor}]] {
}
package [generators] as C_0000377372199728063954 [[namespaceclanguml_1_1package__diagram_1_1generators.html{generators}]] {
}
}
}
C_0000316605034920222648 ..> C_0000083721806430512831
C_0000083721806430512831 ..> C_0000316605034920222648
C_0000083721806430512831 ..> C_0000897124234964432620
C_0000083721806430512831 ..> C_0002206969880830639264
C_0000083721806430512831 ..> C_0000111389493058790497
C_0002059309769421024048 ..> C_0000111389493058790497
C_0002059309769421024048 ..> C_0000083721806430512831
C_0000897124234964432620 ..> C_0000083721806430512831
C_0000897124234964432620 ..> C_0000316605034920222648
C_0001862217944346803827 ..> C_0000897124234964432620
C_0001862217944346803827 ..> C_0000111389493058790497
C_0001862217944346803827 ..> C_0002059309769421024048
C_0001862217944346803827 ..> C_0000083721806430512831
C_0001862217944346803827 ..> C_0000316605034920222648
C_0000111389493058790497 ..> C_0000083721806430512831
C_0000111389493058790497 ..> C_0000316605034920222648
C_0000545328881104248214 ..> C_0000316605034920222648
C_0000545328881104248214 ..> C_0000083721806430512831
C_0000299757823634161563 ..> C_0000545328881104248214
C_0000299757823634161563 ..> C_0000111389493058790497
C_0000299757823634161563 ..> C_0002059309769421024048
C_0002206969880830639264 ..> C_0000083721806430512831
C_0002206969880830639264 ..> C_0000316605034920222648
C_0002206969880830639264 ..> C_0000111389493058790497
C_0000351520758190157237 ..> C_0000316605034920222648
C_0000351520758190157237 ..> C_0002206969880830639264
C_0000351520758190157237 ..> C_0000111389493058790497
C_0000351520758190157237 ..> C_0000083721806430512831
C_0000351520758190157237 ..> C_0002059309769421024048
C_0001569810617781744082 ..> C_0000316605034920222648
C_0001569810617781744082 ..> C_0000083721806430512831
C_0000183895282854293183 ..> C_0001569810617781744082
C_0000183895282854293183 ..> C_0000111389493058790497
C_0000183895282854293183 ..> C_0000083721806430512831
C_0000183895282854293183 ..> C_0002059309769421024048

@enduml

PlantUML version 1.2020.02(Sun Mar 01 11:22:07 CET 2020)
(GPL source distribution)
Java Runtime: OpenJDK Runtime Environment
JVM: OpenJDK 64-Bit Server VM
Java Version: 11.0.20.1+1-post-Ubuntu-0ubuntu122.04
Operating System: Linux
Default Encoding: UTF-8
Language: en
Country: US
--></g></svg>