<?xml version="1.0" encoding="UTF-8" standalone="no"?><svg xmlns="http://www.w3.org/2000/svg" xmlns:xlink="http://www.w3.org/1999/xlink" contentScriptType="application/ecmascript" contentStyleType="text/css" height="808px" preserveAspectRatio="none" style="width:1331px;height:808px;" version="1.1" viewBox="0 0 1331 808" width="1331px" zoomAndPan="magnify"><defs><filter height="300%" id="fe1whhytuic7g" width="300%" x="-1" y="-1"><feGaussianBlur result="blurOut" stdDeviation="2.0"/><feColorMatrix in="blurOut" result="blurOut2" type="matrix" values="0 0 0 0 0 0 0 0 0 0 0 0 0 0 0 0 0 0 .4 0"/><feOffset dx="4.0" dy="4.0" in="blurOut2" result="blurOut3"/><feBlend in="SourceGraphic" in2="blurOut3" mode="normal"/></filter></defs><g><text fill="#000000" font-family="sans-serif" font-size="18" lengthAdjust="spacingAndGlyphs" textLength="406" x="468.5" y="16.708">clang-uml top level architecture - AST visitors</text><!--MD5=[f200405694b678c37ccdd2cd776f9c73]
cluster C_0002174271399507040339--><polygon fill="#FFFFFF" filter="url(#fe1whhytuic7g)" points="22,44.9531,98,44.9531,105,67.25,1309,67.25,1309,796.9531,22,796.9531,22,44.9531" style="stroke: #000000; stroke-width: 1.5;"/><line style="stroke: #000000; stroke-width: 1.5;" x1="22" x2="105" y1="67.25" y2="67.25"/><text fill="#000000" font-family="sans-serif" font-size="14" font-weight="bold" lengthAdjust="spacingAndGlyphs" textLength="70" x="26" y="59.9482">clanguml</text><!--MD5=[7ba9c127878a642fef3f451151dda753]
cluster C_0000316605034920222648--><polygon fill="#FFFFFF" filter="url(#fe1whhytuic7g)" points="599,87.9531,672,87.9531,679,110.25,1112,110.25,1112,253.9531,599,253.9531,599,87.9531" style="stroke: #000000; stroke-width: 1.5;"/><line style="stroke: #000000; stroke-width: 1.5;" x1="599" x2="679" y1="110.25" y2="110.25"/><text fill="#000000" font-family="sans-serif" font-size="14" font-weight="bold" lengthAdjust="spacingAndGlyphs" textLength="67" x="603" y="102.9482">common</text><!--MD5=[f7110622f5be760311cd0491b75bf8f9]
cluster C_0000083721806430512831--><polygon fill="#FFFFFF" filter="url(#fe1whhytuic7g)" points="742,130.9531,796,130.9531,803,153.25,858,153.25,858,229.9531,742,229.9531,742,130.9531" style="stroke: #000000; stroke-width: 1.5;"/><line style="stroke: #000000; stroke-width: 1.5;" x1="742" x2="803" y1="153.25" y2="153.25"/><text fill="#000000" font-family="sans-serif" font-size="14" font-weight="bold" lengthAdjust="spacingAndGlyphs" textLength="48" x="746" y="145.9482">model</text><!--MD5=[e4feaaeab498ea22d61a37cc9ff215c8]
cluster C_0002059309769421024048--><polygon fill="#FFFFFF" filter="url(#fe1whhytuic7g)" points="882,130.9531,937,130.9531,944,153.25,1088,153.25,1088,229.9531,882,229.9531,882,130.9531" style="stroke: #000000; stroke-width: 1.5;"/><line style="stroke: #000000; stroke-width: 1.5;" x1="882" x2="944" y1="153.25" y2="153.25"/><text fill="#000000" font-family="sans-serif" font-size="14" font-weight="bold" lengthAdjust="spacingAndGlyphs" textLength="49" x="886" y="145.9482">visitor</text><!--MD5=[09e992b259734a9820adb2642bf347d2]
cluster C_0002240167036201725606--><polygon fill="#FFFFFF" filter="url(#fe1whhytuic7g)" points="72,286.9531,188,286.9531,195,309.25,326,309.25,326,600.9531,72,600.9531,72,286.9531" style="stroke: #000000; stroke-width: 1.5;"/><line style="stroke: #000000; stroke-width: 1.5;" x1="72" x2="195" y1="309.25" y2="309.25"/><text fill="#000000" font-family="sans-serif" font-size="14" font-weight="bold" lengthAdjust="spacingAndGlyphs" textLength="110" x="76" y="301.9482">class_diagram</text><!--MD5=[5d123d1ba3dda692cf099252127394e7]
cluster C_0000897124234964432620--><polygon fill="#FFFFFF" filter="url(#fe1whhytuic7g)" points="118,477.9531,172,477.9531,179,500.25,234,500.25,234,576.9531,118,576.9531,118,477.9531" style="stroke: #000000; stroke-width: 1.5;"/><line style="stroke: #000000; stroke-width: 1.5;" x1="118" x2="179" y1="500.25" y2="500.25"/><text fill="#000000" font-family="sans-serif" font-size="14" font-weight="bold" lengthAdjust="spacingAndGlyphs" textLength="48" x="122" y="492.9482">model</text><!--MD5=[664588b23c38cd2f42231bf1d48f4389]
cluster C_0001862217944346803827--><polygon fill="#FFFFFF" filter="url(#fe1whhytuic7g)" points="96,329.9531,151,329.9531,158,352.25,302,352.25,302,428.9531,96,428.9531,96,329.9531" style="stroke: #000000; stroke-width: 1.5;"/><line style="stroke: #000000; stroke-width: 1.5;" x1="96" x2="158" y1="352.25" y2="352.25"/><text fill="#000000" font-family="sans-serif" font-size="14" font-weight="bold" lengthAdjust="spacingAndGlyphs" textLength="49" x="100" y="344.9482">visitor</text><!--MD5=[afa88a3fa4a9d7982361c47c6e3d506f]
cluster C_0002289677368446195616--><polygon fill="#FFFFFF" filter="url(#fe1whhytuic7g)" points="350,286.9531,483,286.9531,490,309.25,724,309.25,724,772.9531,350,772.9531,350,286.9531" style="stroke: #000000; stroke-width: 1.5;"/><line style="stroke: #000000; stroke-width: 1.5;" x1="350" x2="490" y1="309.25" y2="309.25"/><text fill="#000000" font-family="sans-serif" font-size="14" font-weight="bold" lengthAdjust="spacingAndGlyphs" textLength="127" x="354" y="301.9482">include_diagram</text><!--MD5=[ffb2de9a6db4f2cf1c371e7db43e3510]
cluster C_0000545328881104248214--><polygon fill="#FFFFFF" filter="url(#fe1whhytuic7g)" points="419,649.9531,473,649.9531,480,672.25,535,672.25,535,748.9531,419,748.9531,419,649.9531" style="stroke: #000000; stroke-width: 1.5;"/><line style="stroke: #000000; stroke-width: 1.5;" x1="419" x2="480" y1="672.25" y2="672.25"/><text fill="#000000" font-family="sans-serif" font-size="14" font-weight="bold" lengthAdjust="spacingAndGlyphs" textLength="48" x="423" y="664.9482">model</text><!--MD5=[b41f7cf2d171725340527ddacb5f30c2]
cluster C_0000299757823634161563--><polygon fill="#FFFFFF" filter="url(#fe1whhytuic7g)" points="374,329.9531,429,329.9531,436,352.25,676,352.25,676,576.9531,374,576.9531,374,329.9531" style="stroke: #000000; stroke-width: 1.5;"/><line style="stroke: #000000; stroke-width: 1.5;" x1="374" x2="436" y1="352.25" y2="352.25"/><text fill="#000000" font-family="sans-serif" font-size="14" font-weight="bold" lengthAdjust="spacingAndGlyphs" textLength="49" x="378" y="344.9482">visitor</text><!--MD5=[d6d4256b649a06bde52dfa9851b6c77d]
cluster C_0001176715616702819073--><polygon fill="#FFFFFF" filter="url(#fe1whhytuic7g)" points="748,286.9531,890,286.9531,897,309.25,1002,309.25,1002,600.9531,748,600.9531,748,286.9531" style="stroke: #000000; stroke-width: 1.5;"/><line style="stroke: #000000; stroke-width: 1.5;" x1="748" x2="897" y1="309.25" y2="309.25"/><text fill="#000000" font-family="sans-serif" font-size="14" font-weight="bold" lengthAdjust="spacingAndGlyphs" textLength="136" x="752" y="301.9482">package_diagram</text><!--MD5=[3026c650b7ecec9f8331301aa821625e]
cluster C_0001569810617781744082--><polygon fill="#FFFFFF" filter="url(#fe1whhytuic7g)" points="850,477.9531,904,477.9531,911,500.25,966,500.25,966,576.9531,850,576.9531,850,477.9531" style="stroke: #000000; stroke-width: 1.5;"/><line style="stroke: #000000; stroke-width: 1.5;" x1="850" x2="911" y1="500.25" y2="500.25"/><text fill="#000000" font-family="sans-serif" font-size="14" font-weight="bold" lengthAdjust="spacingAndGlyphs" textLength="48" x="854" y="492.9482">model</text><!--MD5=[b998247e8a28a111c6facfc1f9b9fe7a]
cluster C_0000183895282854293183--><polygon fill="#FFFFFF" filter="url(#fe1whhytuic7g)" points="772,329.9531,827,329.9531,834,352.25,978,352.25,978,428.9531,772,428.9531,772,329.9531" style="stroke: #000000; stroke-width: 1.5;"/><line style="stroke: #000000; stroke-width: 1.5;" x1="772" x2="834" y1="352.25" y2="352.25"/><text fill="#000000" font-family="sans-serif" font-size="14" font-weight="bold" lengthAdjust="spacingAndGlyphs" textLength="49" x="776" y="344.9482">visitor</text><!--MD5=[2319765f5fef5e41f5b55adb85cd73ea]
cluster C_0001521862840957629236--><polygon fill="#FFFFFF" filter="url(#fe1whhytuic7g)" points="1031,286.9531,1185,286.9531,1192,309.25,1285,309.25,1285,600.9531,1031,600.9531,1031,286.9531" style="stroke: #000000; stroke-width: 1.5;"/><line style="stroke: #000000; stroke-width: 1.5;" x1="1031" x2="1192" y1="309.25" y2="309.25"/><text fill="#000000" font-family="sans-serif" font-size="14" font-weight="bold" lengthAdjust="spacingAndGlyphs" textLength="148" x="1035" y="301.9482">sequence_diagram</text><!--MD5=[aff6d1ed1f9fc56ba8376cf20ecae299]
cluster C_0002206969880830639264--><polygon fill="#FFFFFF" filter="url(#fe1whhytuic7g)" points="1077,477.9531,1131,477.9531,1138,500.25,1193,500.25,1193,576.9531,1077,576.9531,1077,477.9531" style="stroke: #000000; stroke-width: 1.5;"/><line style="stroke: #000000; stroke-width: 1.5;" x1="1077" x2="1138" y1="500.25" y2="500.25"/><text fill="#000000" font-family="sans-serif" font-size="14" font-weight="bold" lengthAdjust="spacingAndGlyphs" textLength="48" x="1081" y="492.9482">model</text><!--MD5=[e72bd8bf0ef94924298264e684ff9faa]
cluster C_0000351520758190157237--><polygon fill="#FFFFFF" filter="url(#fe1whhytuic7g)" points="1055,329.9531,1110,329.9531,1117,352.25,1261,352.25,1261,428.9531,1055,428.9531,1055,329.9531" style="stroke: #000000; stroke-width: 1.5;"/><line style="stroke: #000000; stroke-width: 1.5;" x1="1055" x2="1117" y1="352.25" y2="352.25"/><text fill="#000000" font-family="sans-serif" font-size="14" font-weight="bold" lengthAdjust="spacingAndGlyphs" textLength="49" x="1059" y="344.9482">visitor</text><!--MD5=[ff9e0a0bc9f03396ed80b26723707697]
class C_0000197068985320835874--><a href="classclanguml_1_1common_1_1model_1_1diagram.html" target="_top" title="Base class for all diagram models" xlink:actuate="onRequest" xlink:href="classclanguml_1_1common_1_1model_1_1diagram.html" xlink:show="new" xlink:title="Base class for all diagram models" xlink:type="simple"><rect fill="#FEFECE" filter="url(#fe1whhytuic7g)" height="48" id="C_0000197068985320835874" style="stroke: #A80036; stroke-width: 1.5;" width="83" x="758.5" y="165.9531"/><ellipse cx="773.5" cy="181.9531" fill="#ADD1B2" rx="11" ry="11" style="stroke: #A80036; stroke-width: 1.0;"/><path d="M776.4688,187.5938 Q775.8906,187.8906 775.25,188.0313 Q774.6094,188.1875 773.9063,188.1875 Q771.4063,188.1875 770.0781,186.5469 Q768.7656,184.8906 768.7656,181.7656 Q768.7656,178.6406 770.0781,176.9844 Q771.4063,175.3281 773.9063,175.3281 Q774.6094,175.3281 775.25,175.4844 Q775.9063,175.6406 776.4688,175.9375 L776.4688,178.6563 Q775.8438,178.0781 775.25,177.8125 Q774.6563,177.5313 774.0313,177.5313 Q772.6875,177.5313 772,178.6094 Q771.3125,179.6719 771.3125,181.7656 Q771.3125,183.8594 772,184.9375 Q772.6875,186 774.0313,186 Q774.6563,186 775.25,185.7344 Q775.8438,185.4531 776.4688,184.875 L776.4688,187.5938 Z "/><text fill="#000000" font-family="sans-serif" font-size="12" lengthAdjust="spacingAndGlyphs" textLength="51" x="787.5" y="186.1074">diagram</text><line style="stroke: #A80036; stroke-width: 1.5;" x1="759.5" x2="840.5" y1="197.9531" y2="197.9531"/><line style="stroke: #A80036; stroke-width: 1.5;" x1="759.5" x2="840.5" y1="205.9531" y2="205.9531"/></a><!--MD5=[3b16415d4f3a25988a0607b7683a591b]
class C_0000116368705153207296--><a href="classclanguml_1_1common_1_1visitor_1_1translation__unit__visitor.html" target="_top" title="Diagram translation unit visitor base class" xlink:actuate="onRequest" xlink:href="classclanguml_1_1common_1_1visitor_1_1translation__unit__visitor.html" xlink:show="new" xlink:title="Diagram translation unit visitor base class" xlink:type="simple"><rect fill="#FEFECE" filter="url(#fe1whhytuic7g)" height="48" id="C_0000116368705153207296" style="stroke: #A80036; stroke-width: 1.5;" width="173" x="898.5" y="165.9531"/><ellipse cx="913.5" cy="181.9531" fill="#ADD1B2" rx="11" ry="11" style="stroke: #A80036; stroke-width: 1.0;"/><path d="M916.4688,187.5938 Q915.8906,187.8906 915.25,188.0313 Q914.6094,188.1875 913.9063,188.1875 Q911.4063,188.1875 910.0781,186.5469 Q908.7656,184.8906 908.7656,181.7656 Q908.7656,178.6406 910.0781,176.9844 Q911.4063,175.3281 913.9063,175.3281 Q914.6094,175.3281 915.25,175.4844 Q915.9063,175.6406 916.4688,175.9375 L916.4688,178.6563 Q915.8438,178.0781 915.25,177.8125 Q914.6563,177.5313 914.0313,177.5313 Q912.6875,177.5313 912,178.6094 Q911.3125,179.6719 911.3125,181.7656 Q911.3125,183.8594 912,184.9375 Q912.6875,186 914.0313,186 Q914.6563,186 915.25,185.7344 Q915.8438,185.4531 916.4688,184.875 L916.4688,187.5938 Z "/><text fill="#000000" font-family="sans-serif" font-size="12" lengthAdjust="spacingAndGlyphs" textLength="141" x="927.5" y="186.1074">translation_unit_visitor</text><line style="stroke: #A80036; stroke-width: 1.5;" x1="899.5" x2="1070.5" y1="197.9531" y2="197.9531"/><line style="stroke: #A80036; stroke-width: 1.5;" x1="899.5" x2="1070.5" y1="205.9531" y2="205.9531"/></a><polygon fill="#FFFFFF" filter="url(#fe1whhytuic7g)" points="615,163.4531,709,163.4531,716,185.75,723,185.75,723,216.0469,615,216.0469,615,163.4531" style="stroke: #000000; stroke-width: 1.5;"/><line style="stroke: #000000; stroke-width: 1.5;" x1="615" x2="716" y1="185.75" y2="185.75"/><text fill="#000000" font-family="sans-serif" font-size="14" font-weight="bold" lengthAdjust="spacingAndGlyphs" textLength="88" x="619" y="178.4482">generators</text><!--MD5=[01d3c478a0ba4034ff864e8146f50cf4]
class C_0000914432076690777687--><a href="classclanguml_1_1class__diagram_1_1model_1_1diagram.html" target="_top" title="Class representing a class diagram." xlink:actuate="onRequest" xlink:href="classclanguml_1_1class__diagram_1_1model_1_1diagram.html" xlink:show="new" xlink:title="Class representing a class diagram." xlink:type="simple"><rect fill="#FEFECE" filter="url(#fe1whhytuic7g)" height="48" id="C_0000914432076690777687" style="stroke: #A80036; stroke-width: 1.5;" width="83" x="134.5" y="512.9531"/><ellipse cx="149.5" cy="528.9531" fill="#ADD1B2" rx="11" ry="11" style="stroke: #A80036; stroke-width: 1.0;"/><path d="M152.4688,534.5938 Q151.8906,534.8906 151.25,535.0313 Q150.6094,535.1875 149.9063,535.1875 Q147.4063,535.1875 146.0781,533.5469 Q144.7656,531.8906 144.7656,528.7656 Q144.7656,525.6406 146.0781,523.9844 Q147.4063,522.3281 149.9063,522.3281 Q150.6094,522.3281 151.25,522.4844 Q151.9063,522.6406 152.4688,522.9375 L152.4688,525.6563 Q151.8438,525.0781 151.25,524.8125 Q150.6563,524.5313 150.0313,524.5313 Q148.6875,524.5313 148,525.6094 Q147.3125,526.6719 147.3125,528.7656 Q147.3125,530.8594 148,531.9375 Q148.6875,533 150.0313,533 Q150.6563,533 151.25,532.7344 Q151.8438,532.4531 152.4688,531.875 L152.4688,534.5938 Z "/><text fill="#000000" font-family="sans-serif" font-size="12" lengthAdjust="spacingAndGlyphs" textLength="51" x="163.5" y="533.1074">diagram</text><line style="stroke: #A80036; stroke-width: 1.5;" x1="135.5" x2="216.5" y1="544.9531" y2="544.9531"/><line style="stroke: #A80036; stroke-width: 1.5;" x1="135.5" x2="216.5" y1="552.9531" y2="552.9531"/></a><!--MD5=[d58e65628cc72400a01353a5690b2494]
class C_0001741760762642742451--><a href="classclanguml_1_1class__diagram_1_1visitor_1_1translation__unit__visitor.html" target="_top" title="Class diagram translation unit visitor" xlink:actuate="onRequest" xlink:href="classclanguml_1_1class__diagram_1_1visitor_1_1translation__unit__visitor.html" xlink:show="new" xlink:title="Class diagram translation unit visitor" xlink:type="simple"><rect fill="#FEFECE" filter="url(#fe1whhytuic7g)" height="48" id="C_0001741760762642742451" style="stroke: #A80036; stroke-width: 1.5;" width="173" x="112.5" y="364.9531"/><ellipse cx="127.5" cy="380.9531" fill="#ADD1B2" rx="11" ry="11" style="stroke: #A80036; stroke-width: 1.0;"/><path d="M130.4688,386.5938 Q129.8906,386.8906 129.25,387.0313 Q128.6094,387.1875 127.9063,387.1875 Q125.4063,387.1875 124.0781,385.5469 Q122.7656,383.8906 122.7656,380.7656 Q122.7656,377.6406 124.0781,375.9844 Q125.4063,374.3281 127.9063,374.3281 Q128.6094,374.3281 129.25,374.4844 Q129.9063,374.6406 130.4688,374.9375 L130.4688,377.6563 Q129.8438,377.0781 129.25,376.8125 Q128.6563,376.5313 128.0313,376.5313 Q126.6875,376.5313 126,377.6094 Q125.3125,378.6719 125.3125,380.7656 Q125.3125,382.8594 126,383.9375 Q126.6875,385 128.0313,385 Q128.6563,385 129.25,384.7344 Q129.8438,384.4531 130.4688,383.875 L130.4688,386.5938 Z "/><text fill="#000000" font-family="sans-serif" font-size="12" lengthAdjust="spacingAndGlyphs" textLength="141" x="141.5" y="385.1074">translation_unit_visitor</text><line style="stroke: #A80036; stroke-width: 1.5;" x1="113.5" x2="284.5" y1="396.9531" y2="396.9531"/><line style="stroke: #A80036; stroke-width: 1.5;" x1="113.5" x2="284.5" y1="404.9531" y2="404.9531"/></a><polygon fill="#FFFFFF" filter="url(#fe1whhytuic7g)" points="396.5,163.4531,451.5,163.4531,458.5,185.75,465.5,185.75,465.5,216.0469,396.5,216.0469,396.5,163.4531" style="stroke: #000000; stroke-width: 1.5;"/><line style="stroke: #000000; stroke-width: 1.5;" x1="396.5" x2="458.5" y1="185.75" y2="185.75"/><text fill="#000000" font-family="sans-serif" font-size="14" font-weight="bold" lengthAdjust="spacingAndGlyphs" textLength="49" x="400.5" y="178.4482">config</text><polygon fill="#FFFFFF" filter="url(#fe1whhytuic7g)" points="96.5,163.4531,119.5,163.4531,126.5,185.75,133.5,185.75,133.5,216.0469,96.5,216.0469,96.5,163.4531" style="stroke: #000000; stroke-width: 1.5;"/><line style="stroke: #000000; stroke-width: 1.5;" x1="96.5" x2="126.5" y1="185.75" y2="185.75"/><text fill="#000000" font-family="sans-serif" font-size="14" font-weight="bold" lengthAdjust="spacingAndGlyphs" textLength="17" x="100.5" y="178.4482">cli</text><!--MD5=[283c62a9da2b1dcea75ea2262aa5b77f]
class C_0000308380398356948374--><a href="classclanguml_1_1include__diagram_1_1model_1_1diagram.html" target="_top" title="Class representing an include diagram model." xlink:actuate="onRequest" xlink:href="classclanguml_1_1include__diagram_1_1model_1_1diagram.html" xlink:show="new" xlink:title="Class representing an include diagram model." xlink:type="simple"><rect fill="#FEFECE" filter="url(#fe1whhytuic7g)" height="48" id="C_0000308380398356948374" style="stroke: #A80036; stroke-width: 1.5;" width="83" x="435.5" y="684.9531"/><ellipse cx="450.5" cy="700.9531" fill="#ADD1B2" rx="11" ry="11" style="stroke: #A80036; stroke-width: 1.0;"/><path d="M453.4688,706.5938 Q452.8906,706.8906 452.25,707.0313 Q451.6094,707.1875 450.9063,707.1875 Q448.4063,707.1875 447.0781,705.5469 Q445.7656,703.8906 445.7656,700.7656 Q445.7656,697.6406 447.0781,695.9844 Q448.4063,694.3281 450.9063,694.3281 Q451.6094,694.3281 452.25,694.4844 Q452.9063,694.6406 453.4688,694.9375 L453.4688,697.6563 Q452.8438,697.0781 452.25,696.8125 Q451.6563,696.5313 451.0313,696.5313 Q449.6875,696.5313 449,697.6094 Q448.3125,698.6719 448.3125,700.7656 Q448.3125,702.8594 449,703.9375 Q449.6875,705 451.0313,705 Q451.6563,705 452.25,704.7344 Q452.8438,704.4531 453.4688,703.875 L453.4688,706.5938 Z "/><text fill="#000000" font-family="sans-serif" font-size="12" lengthAdjust="spacingAndGlyphs" textLength="51" x="464.5" y="705.1074">diagram</text><line style="stroke: #A80036; stroke-width: 1.5;" x1="436.5" x2="517.5" y1="716.9531" y2="716.9531"/><line style="stroke: #A80036; stroke-width: 1.5;" x1="436.5" x2="517.5" y1="724.9531" y2="724.9531"/></a><!--MD5=[37a74b96d183078571d35a7c5077c25f]
class C_0001957392097002977756--><a href="classclanguml_1_1include__diagram_1_1visitor_1_1translation__unit__visitor.html" target="_top" title="Include diagram translation unit visitor wrapper" xlink:actuate="onRequest" xlink:href="classclanguml_1_1include__diagram_1_1visitor_1_1translation__unit__visitor.html" xlink:show="new" xlink:title="Include diagram translation unit visitor wrapper" xlink:type="simple"><rect fill="#FEFECE" filter="url(#fe1whhytuic7g)" height="48" id="C_0001957392097002977756" style="stroke: #A80036; stroke-width: 1.5;" width="173" x="390.5" y="512.9531"/><ellipse cx="405.5" cy="528.9531" fill="#ADD1B2" rx="11" ry="11" style="stroke: #A80036; stroke-width: 1.0;"/><path d="M408.4688,534.5938 Q407.8906,534.8906 407.25,535.0313 Q406.6094,535.1875 405.9063,535.1875 Q403.4063,535.1875 402.0781,533.5469 Q400.7656,531.8906 400.7656,528.7656 Q400.7656,525.6406 402.0781,523.9844 Q403.4063,522.3281 405.9063,522.3281 Q406.6094,522.3281 407.25,522.4844 Q407.9063,522.6406 408.4688,522.9375 L408.4688,525.6563 Q407.8438,525.0781 407.25,524.8125 Q406.6563,524.5313 406.0313,524.5313 Q404.6875,524.5313 404,525.6094 Q403.3125,526.6719 403.3125,528.7656 Q403.3125,530.8594 404,531.9375 Q404.6875,533 406.0313,533 Q406.6563,533 407.25,532.7344 Q407.8438,532.4531 408.4688,531.875 L408.4688,534.5938 Z "/><text fill="#000000" font-family="sans-serif" font-size="12" lengthAdjust="spacingAndGlyphs" textLength="141" x="419.5" y="533.1074">translation_unit_visitor</text><line style="stroke: #A80036; stroke-width: 1.5;" x1="391.5" x2="562.5" y1="544.9531" y2="544.9531"/><line style="stroke: #A80036; stroke-width: 1.5;" x1="391.5" x2="562.5" y1="552.9531" y2="552.9531"/></a><!--MD5=[ed7ebb35f72ad551b118420696c94983]
class C_0000070935554513618182--><a href="classclanguml_1_1include__diagram_1_1visitor_1_1translation__unit__visitor_1_1include__visitor.html" target="_top" title="translation_unit_visitor##include_visitor" xlink:actuate="onRequest" xlink:href="classclanguml_1_1include__diagram_1_1visitor_1_1translation__unit__visitor_1_1include__visitor.html" xlink:show="new" xlink:title="translation_unit_visitor##include_visitor" xlink:type="simple"><rect fill="#FEFECE" filter="url(#fe1whhytuic7g)" height="48" id="C_0000070935554513618182" style="stroke: #A80036; stroke-width: 1.5;" width="269" x="390.5" y="364.9531"/><ellipse cx="405.5" cy="380.9531" fill="#ADD1B2" rx="11" ry="11" style="stroke: #A80036; stroke-width: 1.0;"/><path d="M408.4688,386.5938 Q407.8906,386.8906 407.25,387.0313 Q406.6094,387.1875 405.9063,387.1875 Q403.4063,387.1875 402.0781,385.5469 Q400.7656,383.8906 400.7656,380.7656 Q400.7656,377.6406 402.0781,375.9844 Q403.4063,374.3281 405.9063,374.3281 Q406.6094,374.3281 407.25,374.4844 Q407.9063,374.6406 408.4688,374.9375 L408.4688,377.6563 Q407.8438,377.0781 407.25,376.8125 Q406.6563,376.5313 406.0313,376.5313 Q404.6875,376.5313 404,377.6094 Q403.3125,378.6719 403.3125,380.7656 Q403.3125,382.8594 404,383.9375 Q404.6875,385 406.0313,385 Q406.6563,385 407.25,384.7344 Q407.8438,384.4531 408.4688,383.875 L408.4688,386.5938 Z "/><text fill="#000000" font-family="sans-serif" font-size="12" lengthAdjust="spacingAndGlyphs" textLength="237" x="419.5" y="385.1074">translation_unit_visitor::include_visitor</text><line style="stroke: #A80036; stroke-width: 1.5;" x1="391.5" x2="658.5" y1="396.9531" y2="396.9531"/><line style="stroke: #A80036; stroke-width: 1.5;" x1="391.5" x2="658.5" y1="404.9531" y2="404.9531"/></a><!--MD5=[bc315e7d0960eeae67e337de181c1bce]
class C_0000148537001046167478--><a href="classclanguml_1_1package__diagram_1_1model_1_1diagram.html" target="_top" title="Package diagram model." xlink:actuate="onRequest" xlink:href="classclanguml_1_1package__diagram_1_1model_1_1diagram.html" xlink:show="new" xlink:title="Package diagram model." xlink:type="simple"><rect fill="#FEFECE" filter="url(#fe1whhytuic7g)" height="48" id="C_0000148537001046167478" style="stroke: #A80036; stroke-width: 1.5;" width="83" x="866.5" y="512.9531"/><ellipse cx="881.5" cy="528.9531" fill="#ADD1B2" rx="11" ry="11" style="stroke: #A80036; stroke-width: 1.0;"/><path d="M884.4688,534.5938 Q883.8906,534.8906 883.25,535.0313 Q882.6094,535.1875 881.9063,535.1875 Q879.4063,535.1875 878.0781,533.5469 Q876.7656,531.8906 876.7656,528.7656 Q876.7656,525.6406 878.0781,523.9844 Q879.4063,522.3281 881.9063,522.3281 Q882.6094,522.3281 883.25,522.4844 Q883.9063,522.6406 884.4688,522.9375 L884.4688,525.6563 Q883.8438,525.0781 883.25,524.8125 Q882.6563,524.5313 882.0313,524.5313 Q880.6875,524.5313 880,525.6094 Q879.3125,526.6719 879.3125,528.7656 Q879.3125,530.8594 880,531.9375 Q880.6875,533 882.0313,533 Q882.6563,533 883.25,532.7344 Q883.8438,532.4531 884.4688,531.875 L884.4688,534.5938 Z "/><text fill="#000000" font-family="sans-serif" font-size="12" lengthAdjust="spacingAndGlyphs" textLength="51" x="895.5" y="533.1074">diagram</text><line style="stroke: #A80036; stroke-width: 1.5;" x1="867.5" x2="948.5" y1="544.9531" y2="544.9531"/><line style="stroke: #A80036; stroke-width: 1.5;" x1="867.5" x2="948.5" y1="552.9531" y2="552.9531"/></a><!--MD5=[1c4a1c0cdb56163955f04d6fa224487e]
class C_0001286342034490329345--><a href="classclanguml_1_1package__diagram_1_1visitor_1_1translation__unit__visitor.html" target="_top" title="Package diagram translation unit visitor" xlink:actuate="onRequest" xlink:href="classclanguml_1_1package__diagram_1_1visitor_1_1translation__unit__visitor.html" xlink:show="new" xlink:title="Package diagram translation unit visitor" xlink:type="simple"><rect fill="#FEFECE" filter="url(#fe1whhytuic7g)" height="48" id="C_0001286342034490329345" style="stroke: #A80036; stroke-width: 1.5;" width="173" x="788.5" y="364.9531"/><ellipse cx="803.5" cy="380.9531" fill="#ADD1B2" rx="11" ry="11" style="stroke: #A80036; stroke-width: 1.0;"/><path d="M806.4688,386.5938 Q805.8906,386.8906 805.25,387.0313 Q804.6094,387.1875 803.9063,387.1875 Q801.4063,387.1875 800.0781,385.5469 Q798.7656,383.8906 798.7656,380.7656 Q798.7656,377.6406 800.0781,375.9844 Q801.4063,374.3281 803.9063,374.3281 Q804.6094,374.3281 805.25,374.4844 Q805.9063,374.6406 806.4688,374.9375 L806.4688,377.6563 Q805.8438,377.0781 805.25,376.8125 Q804.6563,376.5313 804.0313,376.5313 Q802.6875,376.5313 802,377.6094 Q801.3125,378.6719 801.3125,380.7656 Q801.3125,382.8594 802,383.9375 Q802.6875,385 804.0313,385 Q804.6563,385 805.25,384.7344 Q805.8438,384.4531 806.4688,383.875 L806.4688,386.5938 Z "/><text fill="#000000" font-family="sans-serif" font-size="12" lengthAdjust="spacingAndGlyphs" textLength="141" x="817.5" y="385.1074">translation_unit_visitor</text><line style="stroke: #A80036; stroke-width: 1.5;" x1="789.5" x2="960.5" y1="396.9531" y2="396.9531"/><line style="stroke: #A80036; stroke-width: 1.5;" x1="789.5" x2="960.5" y1="404.9531" y2="404.9531"/></a><!--MD5=[4ac8ef68b016624e17a7e7cc10156a8f]
class C_0000924044572035510976--><a href="classclanguml_1_1sequence__diagram_1_1model_1_1diagram.html" target="_top" title="Model of a sequence diagram" xlink:actuate="onRequest" xlink:href="classclanguml_1_1sequence__diagram_1_1model_1_1diagram.html" xlink:show="new" xlink:title="Model of a sequence diagram" xlink:type="simple"><rect fill="#FEFECE" filter="url(#fe1whhytuic7g)" height="48" id="C_0000924044572035510976" style="stroke: #A80036; stroke-width: 1.5;" width="83" x="1093.5" y="512.9531"/><ellipse cx="1108.5" cy="528.9531" fill="#ADD1B2" rx="11" ry="11" style="stroke: #A80036; stroke-width: 1.0;"/><path d="M1111.4688,534.5938 Q1110.8906,534.8906 1110.25,535.0313 Q1109.6094,535.1875 1108.9063,535.1875 Q1106.4063,535.1875 1105.0781,533.5469 Q1103.7656,531.8906 1103.7656,528.7656 Q1103.7656,525.6406 1105.0781,523.9844 Q1106.4063,522.3281 1108.9063,522.3281 Q1109.6094,522.3281 1110.25,522.4844 Q1110.9063,522.6406 1111.4688,522.9375 L1111.4688,525.6563 Q1110.8438,525.0781 1110.25,524.8125 Q1109.6563,524.5313 1109.0313,524.5313 Q1107.6875,524.5313 1107,525.6094 Q1106.3125,526.6719 1106.3125,528.7656 Q1106.3125,530.8594 1107,531.9375 Q1107.6875,533 1109.0313,533 Q1109.6563,533 1110.25,532.7344 Q1110.8438,532.4531 1111.4688,531.875 L1111.4688,534.5938 Z "/><text fill="#000000" font-family="sans-serif" font-size="12" lengthAdjust="spacingAndGlyphs" textLength="51" x="1122.5" y="533.1074">diagram</text><line style="stroke: #A80036; stroke-width: 1.5;" x1="1094.5" x2="1175.5" y1="544.9531" y2="544.9531"/><line style="stroke: #A80036; stroke-width: 1.5;" x1="1094.5" x2="1175.5" y1="552.9531" y2="552.9531"/></a><!--MD5=[606f57e5163c27e3242bb4d4ad91ec98]
class C_0001229352445421790185--><a href="classclanguml_1_1sequence__diagram_1_1visitor_1_1translation__unit__visitor.html" target="_top" title="Sequence diagram translation unit visitor" xlink:actuate="onRequest" xlink:href="classclanguml_1_1sequence__diagram_1_1visitor_1_1translation__unit__visitor.html" xlink:show="new" xlink:title="Sequence diagram translation unit visitor" xlink:type="simple"><rect fill="#FEFECE" filter="url(#fe1whhytuic7g)" height="48" id="C_0001229352445421790185" style="stroke: #A80036; stroke-width: 1.5;" width="173" x="1071.5" y="364.9531"/><ellipse cx="1086.5" cy="380.9531" fill="#ADD1B2" rx="11" ry="11" style="stroke: #A80036; stroke-width: 1.0;"/><path d="M1089.4688,386.5938 Q1088.8906,386.8906 1088.25,387.0313 Q1087.6094,387.1875 1086.9063,387.1875 Q1084.4063,387.1875 1083.0781,385.5469 Q1081.7656,383.8906 1081.7656,380.7656 Q1081.7656,377.6406 1083.0781,375.9844 Q1084.4063,374.3281 1086.9063,374.3281 Q1087.6094,374.3281 1088.25,374.4844 Q1088.9063,374.6406 1089.4688,374.9375 L1089.4688,377.6563 Q1088.8438,377.0781 1088.25,376.8125 Q1087.6563,376.5313 1087.0313,376.5313 Q1085.6875,376.5313 1085,377.6094 Q1084.3125,378.6719 1084.3125,380.7656 Q1084.3125,382.8594 1085,383.9375 Q1085.6875,385 1087.0313,385 Q1087.6563,385 1088.25,384.7344 Q1088.8438,384.4531 1089.4688,383.875 L1089.4688,386.5938 Z "/><text fill="#000000" font-family="sans-serif" font-size="12" lengthAdjust="spacingAndGlyphs" textLength="141" x="1100.5" y="385.1074">translation_unit_visitor</text><line style="stroke: #A80036; stroke-width: 1.5;" x1="1072.5" x2="1243.5" y1="396.9531" y2="396.9531"/><line style="stroke: #A80036; stroke-width: 1.5;" x1="1072.5" x2="1243.5" y1="404.9531" y2="404.9531"/></a><!--MD5=[0aa646b37725dc55b8a82c6eac2e4aae]
reverse link C_0000197068985320835874 to C_0000914432076690777687--><path d="M783.06,232.2131 C776.15,243.8731 766.92,255.2131 755,261.9531 C723.12,279.9731 121.52,252.6831 96,278.9531 C47.06,329.3131 72.59,370.7431 96,436.9531 C106.61,466.9531 130.59,494.5331 149.55,512.9131 " fill="none" id="C_0000197068985320835874&lt;-C_0000914432076690777687" style="stroke: #A80036; stroke-width: 1.0;"/><polygon fill="none" points="776.84,228.9931,792.06,214.2431,789.36,235.2531,776.84,228.9931" style="stroke: #A80036; stroke-width: 1.0;"/><!--MD5=[41d9130a46c25429cae146b9252ca148]
link C_0001741760762642742451 to C_0000914432076690777687--><path d="M195.36,413.0831 C191.3,438.8231 184.75,480.4031 180.41,507.9531 " fill="none" id="C_0001741760762642742451-&gt;C_0000914432076690777687" style="stroke: #A80036; stroke-width: 1.0;"/><polygon fill="#A80036" points="179.63,512.9231,184.997,504.6651,180.4172,507.9855,177.0968,503.4056,179.63,512.9231" style="stroke: #A80036; stroke-width: 1.0;"/><rect fill="none" height="6" style="stroke: #C82930; stroke-width: 1.0;" width="6" x="193" y="451.0195"/><text fill="#000000" font-family="sans-serif" font-size="13" lengthAdjust="spacingAndGlyphs" textLength="60" x="203" y="458.02">diagram_</text><!--MD5=[aa09034a95e448eeca4db39db9ddd476]
reverse link C_0000116368705153207296 to C_0001741760762642742451--><path d="M936.74,225.0931 C913.96,239.2731 885.74,254.2031 858,261.9531 C754.35,290.9131 476.94,247.5531 374,278.9531 C316.14,296.6031 258.41,338.4531 225.85,364.8631 " fill="none" id="C_0000116368705153207296&lt;-C_0001741760762642742451" style="stroke: #A80036; stroke-width: 1.0;"/><polygon fill="none" points="933.14,219.0831,953.72,214.0331,940.78,230.8131,933.14,219.0831" style="stroke: #A80036; stroke-width: 1.0;"/><!--MD5=[fbf3fd3adcd40d873bb8db103a536fc0]
reverse link C_0000197068985320835874 to C_0000308380398356948374--><path d="M783.1,232.2831 C776.19,243.9531 766.96,255.2731 755,261.9531 C721.28,280.7831 85.54,249.9731 60,278.9531 C-38.46,390.6731 9.79,506.6531 118,608.9531 C207.15,693.2331 361.37,706.9631 435.23,708.4231 " fill="none" id="C_0000197068985320835874&lt;-C_0000308380398356948374" style="stroke: #A80036; stroke-width: 1.0;"/><polygon fill="none" points="776.89,229.0531,792.09,214.2931,789.41,235.3131,776.89,229.0531" style="stroke: #A80036; stroke-width: 1.0;"/><!--MD5=[d07385a5bdd980a9dab5cc8399436ac8]
link C_0001957392097002977756 to C_0000308380398356948374--><path d="M477,561.2331 C477,592.1331 477,646.6531 477,679.8231 " fill="none" id="C_0001957392097002977756-&gt;C_0000308380398356948374" style="stroke: #A80036; stroke-width: 1.0;"/><polygon fill="#A80036" points="477,684.9531,481,675.9531,477,679.9531,473,675.9531,477,684.9531" style="stroke: #A80036; stroke-width: 1.0;"/><rect fill="none" height="6" style="stroke: #C82930; stroke-width: 1.0;" width="6" x="480" y="623.0195"/><text fill="#000000" font-family="sans-serif" font-size="13" lengthAdjust="spacingAndGlyphs" textLength="60" x="490" y="630.02">diagram_</text><!--MD5=[df5a9039d3a8d6ff82b19c2d7c253a5c]
link C_0000070935554513618182 to C_0001957392097002977756--><path d="M517.39,413.0831 C509.85,436.0431 498.15,471.6131 489.29,498.5831 " fill="none" id="C_0000070935554513618182-&gt;C_0001957392097002977756" style="stroke: #A80036; stroke-width: 1.0;"/><ellipse cx="487.0701" cy="505.3238" fill="#FFFFFF" rx="8" ry="8" style="stroke: #A80036; stroke-width: 1.0;"/><line style="stroke: #A80036; stroke-width: 1.0;" x1="489.5702" x2="484.57" y1="497.7245" y2="512.9231"/><line style="stroke: #A80036; stroke-width: 1.0;" x1="494.6694" x2="479.4708" y1="507.8239" y2="502.8237"/><!--MD5=[bc1a9c6fca854df30c83a08c45fd9ecf]
link C_0000070935554513618182 to C_0000308380398356948374--><path d="M546.95,413.0531 C559.59,428.0031 574.27,448.6131 581,469.9531 C599.57,528.8731 602.81,551.1531 581,608.9531 C569.48,639.4931 542.54,664.6831 518.97,682.0131 " fill="none" id="C_0000070935554513618182-&gt;C_0000308380398356948374" style="stroke: #A80036; stroke-width: 1.0;"/><polygon fill="#A80036" points="514.91,684.9431,524.5452,682.9028,518.9592,682.0099,519.8521,676.424,514.91,684.9431" style="stroke: #A80036; stroke-width: 1.0;"/><rect fill="none" height="6" style="stroke: #C82930; stroke-width: 1.0;" width="6" x="599" y="534.5195"/><text fill="#000000" font-family="sans-serif" font-size="13" lengthAdjust="spacingAndGlyphs" textLength="60" x="609" y="541.52">diagram_</text><!--MD5=[3fcc2379025a5b1219b70b236391a931]
reverse link C_0000116368705153207296 to C_0000070935554513618182--><path d="M933.59,224.5631 C911.16,237.9231 884.06,252.3631 858,261.9531 C821.43,275.4031 809.16,267.2431 772,278.9531 C698.69,302.0631 617.94,340.2931 569.37,364.7931 " fill="none" id="C_0000116368705153207296&lt;-C_0000070935554513618182" style="stroke: #A80036; stroke-width: 1.0;"/><polygon fill="none" points="930.14,218.4631,950.85,213.9531,937.47,230.3931,930.14,218.4631" style="stroke: #A80036; stroke-width: 1.0;"/><!--MD5=[d3df50313eac67d25f4285ef55f7c15c]
reverse link C_0000197068985320835874 to C_0000148537001046167478--><path d="M834.76,228.4031 C848.33,240.9131 864.77,253.7431 882,261.9531 C921.12,280.5831 950.16,245.7531 978,278.9531 C1030.29,341.3131 1009.17,389.5631 972,461.9531 C962.23,480.9931 946.57,499.2131 933.19,512.8131 " fill="none" id="C_0000197068985320835874&lt;-C_0000148537001046167478" style="stroke: #A80036; stroke-width: 1.0;"/><polygon fill="none" points="829.62,233.1631,820.26,214.1531,839.43,223.1831,829.62,233.1631" style="stroke: #A80036; stroke-width: 1.0;"/><!--MD5=[85fdea5f42d7163448d9e3a0e210ae96]
link C_0001286342034490329345 to C_0000148537001046167478--><path d="M880.23,413.0831 C886.05,438.8231 895.44,480.4031 901.67,507.9531 " fill="none" id="C_0001286342034490329345-&gt;C_0000148537001046167478" style="stroke: #A80036; stroke-width: 1.0;"/><polygon fill="#A80036" points="902.8,512.9231,904.7194,503.2631,901.6987,508.0459,896.9159,505.0252,902.8,512.9231" style="stroke: #A80036; stroke-width: 1.0;"/><rect fill="none" height="6" style="stroke: #C82930; stroke-width: 1.0;" width="6" x="893" y="451.0195"/><text fill="#000000" font-family="sans-serif" font-size="13" lengthAdjust="spacingAndGlyphs" textLength="60" x="903" y="458.02">diagram_</text><!--MD5=[2553026d6ba0a1a3f395dde5d2e40503]
reverse link C_0000116368705153207296 to C_0001286342034490329345--><path d="M962.2,231.7931 C939.69,272.0931 906.08,332.2831 887.86,364.9131 " fill="none" id="C_0000116368705153207296&lt;-C_0001286342034490329345" style="stroke: #A80036; stroke-width: 1.0;"/><polygon fill="none" points="956.09,228.3731,971.95,214.3231,968.31,235.2031,956.09,228.3731" style="stroke: #A80036; stroke-width: 1.0;"/><!--MD5=[200170a1e068a1e5ab0bc25f74c55d33]
reverse link C_0000197068985320835874 to C_0000924044572035510976--><path d="M833.79,228.7431 C847.43,241.5231 864.16,254.4431 882,261.9531 C931.65,282.8531 964.59,240.2031 1002,278.9531 C1053.45,332.2431 1019.38,372.0131 1055,436.9531 C1070.62,465.4331 1094.68,493.8531 1112.34,512.8831 " fill="none" id="C_0000197068985320835874&lt;-C_0000924044572035510976" style="stroke: #A80036; stroke-width: 1.0;"/><polygon fill="none" points="828.42,233.2731,819.32,214.1331,838.37,223.4131,828.42,233.2731" style="stroke: #A80036; stroke-width: 1.0;"/><!--MD5=[0ff4455d6d223c5222b4f941ac47cbce]
link C_0001229352445421790185 to C_0000924044572035510976--><path d="M1154.36,413.0831 C1150.3,438.8231 1143.75,480.4031 1139.41,507.9531 " fill="none" id="C_0001229352445421790185-&gt;C_0000924044572035510976" style="stroke: #A80036; stroke-width: 1.0;"/><polygon fill="#A80036" points="1138.63,512.9231,1143.997,504.6651,1139.4172,507.9855,1136.0968,503.4056,1138.63,512.9231" style="stroke: #A80036; stroke-width: 1.0;"/><rect fill="none" height="6" style="stroke: #C82930; stroke-width: 1.0;" width="6" x="1152" y="451.0195"/><text fill="#000000" font-family="sans-serif" font-size="13" lengthAdjust="spacingAndGlyphs" textLength="60" x="1162" y="458.02">diagram_</text><!--MD5=[65ae147be13adc6403579893f0883414]
reverse link C_0000116368705153207296 to C_0001229352445421790185--><path d="M1018.72,229.3531 C1054.1,269.6331 1108.53,331.6231 1137.77,364.9131 " fill="none" id="C_0000116368705153207296&lt;-C_0001229352445421790185" style="stroke: #A80036; stroke-width: 1.0;"/><polygon fill="none" points="1013.46,233.9731,1005.52,214.3231,1023.98,224.7331,1013.46,233.9731" style="stroke: #A80036; stroke-width: 1.0;"/><!--MD5=[246750d3129b60d1ec3d9090ce11a1d7]
@startuml
title Translation unit AST visitors
title clang-uml top level architecture - AST visitors
package [clanguml] as C_0002174271399507040339 {
package [common] as C_0000316605034920222648 {
package [model] as C_0000083721806430512831 {
class "diagram" as C_0000197068985320835874
class C_0000197068985320835874 [[classclanguml_1_1common_1_1model_1_1diagram.html{Base class for all diagram models}]] {
__
}
}
package [visitor] as C_0002059309769421024048 {
class "translation_unit_visitor" as C_0000116368705153207296
class C_0000116368705153207296 [[classclanguml_1_1common_1_1visitor_1_1translation__unit__visitor.html{Diagram translation unit visitor base class}]] {
__
}
}
package [generators] as C_0001127696046613471321 {
}
}
package [class_diagram] as C_0002240167036201725606 {
package [model] as C_0000897124234964432620 {
class "diagram" as C_0000914432076690777687
class C_0000914432076690777687 [[classclanguml_1_1class__diagram_1_1model_1_1diagram.html{Class representing a class diagram.}]] {
__
}
}
package [visitor] as C_0001862217944346803827 {
class "translation_unit_visitor" as C_0001741760762642742451
class C_0001741760762642742451 [[classclanguml_1_1class__diagram_1_1visitor_1_1translation__unit__visitor.html{Class diagram translation unit visitor}]] {
__
}
}
}
package [config] as C_0000111389493058790497 {
}
package [cli] as C_0001260703306241669209 {
}
package [include_diagram] as C_0002289677368446195616 {
package [model] as C_0000545328881104248214 {
class "diagram" as C_0000308380398356948374
class C_0000308380398356948374 [[classclanguml_1_1include__diagram_1_1model_1_1diagram.html{Class representing an include diagram model.}]] {
__
}
}
package [visitor] as C_0000299757823634161563 {
class "translation_unit_visitor" as C_0001957392097002977756
class C_0001957392097002977756 [[classclanguml_1_1include__diagram_1_1visitor_1_1translation__unit__visitor.html{Include diagram translation unit visitor wrapper}]] {
__
}
class "translation_unit_visitor::include_visitor" as C_0000070935554513618182
class C_0000070935554513618182 [[classclanguml_1_1include__diagram_1_1visitor_1_1translation__unit__visitor_1_1include__visitor.html{translation_unit_visitor##include_visitor}]] {
__
}
}
}
package [package_diagram] as C_0001176715616702819073 {
package [model] as C_0001569810617781744082 {
class "diagram" as C_0000148537001046167478
class C_0000148537001046167478 [[classclanguml_1_1package__diagram_1_1model_1_1diagram.html{Package diagram model.}]] {
__
}
}
package [visitor] as C_0000183895282854293183 {
class "translation_unit_visitor" as C_0001286342034490329345
class C_0001286342034490329345 [[classclanguml_1_1package__diagram_1_1visitor_1_1translation__unit__visitor.html{Package diagram translation unit visitor}]] {
__
}
}
}
package [sequence_diagram] as C_0001521862840957629236 {
package [model] as C_0002206969880830639264 {
class "diagram" as C_0000924044572035510976
class C_0000924044572035510976 [[classclanguml_1_1sequence__diagram_1_1model_1_1diagram.html{Model of a sequence diagram}]] {
__
}
}
package [visitor] as C_0000351520758190157237 {
class "translation_unit_visitor" as C_0001229352445421790185
class C_0001229352445421790185 [[classclanguml_1_1sequence__diagram_1_1visitor_1_1translation__unit__visitor.html{Sequence diagram translation unit visitor}]] {
__
}
}
}
}
C_0000197068985320835874 <|- - C_0000914432076690777687
C_0001741760762642742451 - -> C_0000914432076690777687 : -diagram_
C_0000116368705153207296 <|- - C_0001741760762642742451
C_0000197068985320835874 <|- - C_0000308380398356948374
C_0001957392097002977756 - -> C_0000308380398356948374 : -diagram_
C_0000070935554513618182 - -+ C_0001957392097002977756
C_0000070935554513618182 - -> C_0000308380398356948374 : -diagram_
C_0000116368705153207296 <|- - C_0000070935554513618182
C_0000197068985320835874 <|- - C_0000148537001046167478
C_0001286342034490329345 - -> C_0000148537001046167478 : -diagram_
C_0000116368705153207296 <|- - C_0001286342034490329345
C_0000197068985320835874 <|- - C_0000924044572035510976
C_0001229352445421790185 - -> C_0000924044572035510976 : -diagram_
C_0000116368705153207296 <|- - C_0001229352445421790185

@enduml

PlantUML version 1.2020.02(Sun Mar 01 11:22:07 CET 2020)
(GPL source distribution)
Java Runtime: OpenJDK Runtime Environment
JVM: OpenJDK 64-Bit Server VM
Java Version: 11.0.20.1+1-post-Ubuntu-0ubuntu122.04
Operating System: Linux
Default Encoding: UTF-8
Language: en
Country: US
--></g></svg>