<?xml version="1.0" encoding="UTF-8" standalone="no"?><svg xmlns="http://www.w3.org/2000/svg" xmlns:xlink="http://www.w3.org/1999/xlink" contentScriptType="application/ecmascript" contentStyleType="text/css" height="462px" preserveAspectRatio="none" style="width:1389px;height:462px;" version="1.1" viewBox="0 0 1389 462" width="1389px" zoomAndPan="magnify"><defs><filter height="300%" id="fymg3df53jdwc" width="300%" x="-1" y="-1"><feGaussianBlur result="blurOut" stdDeviation="2.0"/><feColorMatrix in="blurOut" result="blurOut2" type="matrix" values="0 0 0 0 0 0 0 0 0 0 0 0 0 0 0 0 0 0 .4 0"/><feOffset dx="4.0" dy="4.0" in="blurOut2" result="blurOut3"/><feBlend in="SourceGraphic" in2="blurOut3" mode="normal"/></filter></defs><g><text fill="#000000" font-family="sans-serif" font-size="18" lengthAdjust="spacingAndGlyphs" textLength="219" x="588" y="16.708">Common diagram model</text><!--MD5=[b75d17d3ee67ca210c766132488de4b0]
class C_0001117102382624673118--><a href="classclanguml_1_1common_1_1model_1_1decorated__element.html" target="_top" title="Base class for decorated diagram elements" xlink:actuate="onRequest" xlink:href="classclanguml_1_1common_1_1model_1_1decorated__element.html" xlink:show="new" xlink:title="Base class for decorated diagram elements" xlink:type="simple"><rect fill="#FEFECE" filter="url(#fymg3df53jdwc)" height="48" id="C_0001117102382624673118" style="stroke: #A80036; stroke-width: 1.5;" width="154" x="453" y="28.9531"/><ellipse cx="468" cy="44.9531" fill="#ADD1B2" rx="11" ry="11" style="stroke: #A80036; stroke-width: 1.0;"/><path d="M470.9688,50.5938 Q470.3906,50.8906 469.75,51.0313 Q469.1094,51.1875 468.4063,51.1875 Q465.9063,51.1875 464.5781,49.5469 Q463.2656,47.8906 463.2656,44.7656 Q463.2656,41.6406 464.5781,39.9844 Q465.9063,38.3281 468.4063,38.3281 Q469.1094,38.3281 469.75,38.4844 Q470.4063,38.6406 470.9688,38.9375 L470.9688,41.6563 Q470.3438,41.0781 469.75,40.8125 Q469.1563,40.5313 468.5313,40.5313 Q467.1875,40.5313 466.5,41.6094 Q465.8125,42.6719 465.8125,44.7656 Q465.8125,46.8594 466.5,47.9375 Q467.1875,49 468.5313,49 Q469.1563,49 469.75,48.7344 Q470.3438,48.4531 470.9688,47.875 L470.9688,50.5938 Z "/><text fill="#000000" font-family="sans-serif" font-size="12" lengthAdjust="spacingAndGlyphs" textLength="122" x="482" y="49.1074">decorated_element</text><line style="stroke: #A80036; stroke-width: 1.5;" x1="454" x2="606" y1="60.9531" y2="60.9531"/><line style="stroke: #A80036; stroke-width: 1.5;" x1="454" x2="606" y1="68.9531" y2="68.9531"/></a><!--MD5=[39023b0134efb4261990e1927fe4a3ac]
class C_0002077846075979426940--><a href="classclanguml_1_1common_1_1model_1_1stylable__element.html" target="_top" title="Diagram elements to which style can be applied." xlink:actuate="onRequest" xlink:href="classclanguml_1_1common_1_1model_1_1stylable__element.html" xlink:show="new" xlink:title="Diagram elements to which style can be applied." xlink:type="simple"><rect fill="#FEFECE" filter="url(#fymg3df53jdwc)" height="48" id="C_0002077846075979426940" style="stroke: #A80036; stroke-width: 1.5;" width="137" x="331.5" y="153.9531"/><ellipse cx="346.5" cy="169.9531" fill="#ADD1B2" rx="11" ry="11" style="stroke: #A80036; stroke-width: 1.0;"/><path d="M349.4688,175.5938 Q348.8906,175.8906 348.25,176.0313 Q347.6094,176.1875 346.9063,176.1875 Q344.4063,176.1875 343.0781,174.5469 Q341.7656,172.8906 341.7656,169.7656 Q341.7656,166.6406 343.0781,164.9844 Q344.4063,163.3281 346.9063,163.3281 Q347.6094,163.3281 348.25,163.4844 Q348.9063,163.6406 349.4688,163.9375 L349.4688,166.6563 Q348.8438,166.0781 348.25,165.8125 Q347.6563,165.5313 347.0313,165.5313 Q345.6875,165.5313 345,166.6094 Q344.3125,167.6719 344.3125,169.7656 Q344.3125,171.8594 345,172.9375 Q345.6875,174 347.0313,174 Q347.6563,174 348.25,173.7344 Q348.8438,173.4531 349.4688,172.875 L349.4688,175.5938 Z "/><text fill="#000000" font-family="sans-serif" font-size="12" lengthAdjust="spacingAndGlyphs" textLength="105" x="360.5" y="174.1074">stylable_element</text><line style="stroke: #A80036; stroke-width: 1.5;" x1="332.5" x2="467.5" y1="185.9531" y2="185.9531"/><line style="stroke: #A80036; stroke-width: 1.5;" x1="332.5" x2="467.5" y1="193.9531" y2="193.9531"/></a><!--MD5=[84ee75f83c3c126eb45e1cb912bd00ce]
class C_0000844837292165721774--><a href="classclanguml_1_1common_1_1model_1_1path.html" target="_top" title="Diagram path" xlink:actuate="onRequest" xlink:href="classclanguml_1_1common_1_1model_1_1path.html" xlink:show="new" xlink:title="Diagram path" xlink:type="simple"><rect fill="#FEFECE" filter="url(#fymg3df53jdwc)" height="48" id="C_0000844837292165721774" style="stroke: #A80036; stroke-width: 1.5;" width="61" x="674.5" y="403.9531"/><ellipse cx="689.5" cy="419.9531" fill="#ADD1B2" rx="11" ry="11" style="stroke: #A80036; stroke-width: 1.0;"/><path d="M692.4688,425.5938 Q691.8906,425.8906 691.25,426.0313 Q690.6094,426.1875 689.9063,426.1875 Q687.4063,426.1875 686.0781,424.5469 Q684.7656,422.8906 684.7656,419.7656 Q684.7656,416.6406 686.0781,414.9844 Q687.4063,413.3281 689.9063,413.3281 Q690.6094,413.3281 691.25,413.4844 Q691.9063,413.6406 692.4688,413.9375 L692.4688,416.6563 Q691.8438,416.0781 691.25,415.8125 Q690.6563,415.5313 690.0313,415.5313 Q688.6875,415.5313 688,416.6094 Q687.3125,417.6719 687.3125,419.7656 Q687.3125,421.8594 688,422.9375 Q688.6875,424 690.0313,424 Q690.6563,424 691.25,423.7344 Q691.8438,423.4531 692.4688,422.875 L692.4688,425.5938 Z "/><text fill="#000000" font-family="sans-serif" font-size="12" lengthAdjust="spacingAndGlyphs" textLength="29" x="703.5" y="424.1074">path</text><line style="stroke: #A80036; stroke-width: 1.5;" x1="675.5" x2="734.5" y1="435.9531" y2="435.9531"/><line style="stroke: #A80036; stroke-width: 1.5;" x1="675.5" x2="734.5" y1="443.9531" y2="443.9531"/></a><!--MD5=[f900686223e5089b4f02919e46615b11]
class C_0001331923285602672865--><a href="structclanguml_1_1common_1_1model_1_1ns__path__separator.html" target="_top" title="ns_path_separator" xlink:actuate="onRequest" xlink:href="structclanguml_1_1common_1_1model_1_1ns__path__separator.html" xlink:show="new" xlink:title="ns_path_separator" xlink:type="simple"><rect fill="#FEFECE" filter="url(#fymg3df53jdwc)" height="48" id="C_0001331923285602672865" style="stroke: #A80036; stroke-width: 1.5;" width="150" x="6" y="28.9531"/><ellipse cx="21" cy="44.9531" fill="#ADD1B2" rx="11" ry="11" style="stroke: #A80036; stroke-width: 1.0;"/><path d="M23.9688,50.5938 Q23.3906,50.8906 22.75,51.0313 Q22.1094,51.1875 21.4063,51.1875 Q18.9063,51.1875 17.5781,49.5469 Q16.2656,47.8906 16.2656,44.7656 Q16.2656,41.6406 17.5781,39.9844 Q18.9063,38.3281 21.4063,38.3281 Q22.1094,38.3281 22.75,38.4844 Q23.4063,38.6406 23.9688,38.9375 L23.9688,41.6563 Q23.3438,41.0781 22.75,40.8125 Q22.1563,40.5313 21.5313,40.5313 Q20.1875,40.5313 19.5,41.6094 Q18.8125,42.6719 18.8125,44.7656 Q18.8125,46.8594 19.5,47.9375 Q20.1875,49 21.5313,49 Q22.1563,49 22.75,48.7344 Q23.3438,48.4531 23.9688,47.875 L23.9688,50.5938 Z "/><text fill="#000000" font-family="sans-serif" font-size="12" lengthAdjust="spacingAndGlyphs" textLength="118" x="35" y="49.1074">ns_path_separator</text><line style="stroke: #A80036; stroke-width: 1.5;" x1="7" x2="155" y1="60.9531" y2="60.9531"/><line style="stroke: #A80036; stroke-width: 1.5;" x1="7" x2="155" y1="68.9531" y2="68.9531"/></a><!--MD5=[e8deacb898fc3c022fd97c095b285f76]
class C_0002046336758797367926--><a href="classclanguml_1_1common_1_1model_1_1relationship.html" target="_top" title="Class representing any relationship other than inheritance" xlink:actuate="onRequest" xlink:href="classclanguml_1_1common_1_1model_1_1relationship.html" xlink:show="new" xlink:title="Class representing any relationship other than inheritance" xlink:type="simple"><rect fill="#FEFECE" filter="url(#fymg3df53jdwc)" height="48" id="C_0002046336758797367926" style="stroke: #A80036; stroke-width: 1.5;" width="106" x="465" y="278.9531"/><ellipse cx="480" cy="294.9531" fill="#ADD1B2" rx="11" ry="11" style="stroke: #A80036; stroke-width: 1.0;"/><path d="M482.9688,300.5938 Q482.3906,300.8906 481.75,301.0313 Q481.1094,301.1875 480.4063,301.1875 Q477.9063,301.1875 476.5781,299.5469 Q475.2656,297.8906 475.2656,294.7656 Q475.2656,291.6406 476.5781,289.9844 Q477.9063,288.3281 480.4063,288.3281 Q481.1094,288.3281 481.75,288.4844 Q482.4063,288.6406 482.9688,288.9375 L482.9688,291.6563 Q482.3438,291.0781 481.75,290.8125 Q481.1563,290.5313 480.5313,290.5313 Q479.1875,290.5313 478.5,291.6094 Q477.8125,292.6719 477.8125,294.7656 Q477.8125,296.8594 478.5,297.9375 Q479.1875,299 480.5313,299 Q481.1563,299 481.75,298.7344 Q482.3438,298.4531 482.9688,297.875 L482.9688,300.5938 Z "/><text fill="#000000" font-family="sans-serif" font-size="12" lengthAdjust="spacingAndGlyphs" textLength="74" x="494" y="299.1074">relationship</text><line style="stroke: #A80036; stroke-width: 1.5;" x1="466" x2="570" y1="310.9531" y2="310.9531"/><line style="stroke: #A80036; stroke-width: 1.5;" x1="466" x2="570" y1="318.9531" y2="318.9531"/></a><!--MD5=[f862e5f61ea976202ee196a1ef68e0c4]
class C_0000895261582183440230--><a href="classclanguml_1_1common_1_1model_1_1source__location.html" target="_top" title="Base class of all diagram elements that have source location." xlink:actuate="onRequest" xlink:href="classclanguml_1_1common_1_1model_1_1source__location.html" xlink:show="new" xlink:title="Base class of all diagram elements that have source location." xlink:type="simple"><rect fill="#FEFECE" filter="url(#fymg3df53jdwc)" height="48" id="C_0000895261582183440230" style="stroke: #A80036; stroke-width: 1.5;" width="131" x="648.5" y="28.9531"/><ellipse cx="663.5" cy="44.9531" fill="#ADD1B2" rx="11" ry="11" style="stroke: #A80036; stroke-width: 1.0;"/><path d="M666.4688,50.5938 Q665.8906,50.8906 665.25,51.0313 Q664.6094,51.1875 663.9063,51.1875 Q661.4063,51.1875 660.0781,49.5469 Q658.7656,47.8906 658.7656,44.7656 Q658.7656,41.6406 660.0781,39.9844 Q661.4063,38.3281 663.9063,38.3281 Q664.6094,38.3281 665.25,38.4844 Q665.9063,38.6406 666.4688,38.9375 L666.4688,41.6563 Q665.8438,41.0781 665.25,40.8125 Q664.6563,40.5313 664.0313,40.5313 Q662.6875,40.5313 662,41.6094 Q661.3125,42.6719 661.3125,44.7656 Q661.3125,46.8594 662,47.9375 Q662.6875,49 664.0313,49 Q664.6563,49 665.25,48.7344 Q665.8438,48.4531 666.4688,47.875 L666.4688,50.5938 Z "/><text fill="#000000" font-family="sans-serif" font-size="12" lengthAdjust="spacingAndGlyphs" textLength="99" x="677.5" y="49.1074">source_location</text><line style="stroke: #A80036; stroke-width: 1.5;" x1="649.5" x2="778.5" y1="60.9531" y2="60.9531"/><line style="stroke: #A80036; stroke-width: 1.5;" x1="649.5" x2="778.5" y1="68.9531" y2="68.9531"/></a><!--MD5=[c7954e9554acd525dcb4b1b7d8febda3]
class C_0001073500714379115414--><a href="classclanguml_1_1common_1_1model_1_1diagram__element.html" target="_top" title="Base class for standalone diagram elements." xlink:actuate="onRequest" xlink:href="classclanguml_1_1common_1_1model_1_1diagram__element.html" xlink:show="new" xlink:title="Base class for standalone diagram elements." xlink:type="simple"><rect fill="#FEFECE" filter="url(#fymg3df53jdwc)" height="48" id="C_0001073500714379115414" style="stroke: #A80036; stroke-width: 1.5;" width="140" x="644" y="153.9531"/><ellipse cx="659" cy="169.9531" fill="#ADD1B2" rx="11" ry="11" style="stroke: #A80036; stroke-width: 1.0;"/><path d="M661.9688,175.5938 Q661.3906,175.8906 660.75,176.0313 Q660.1094,176.1875 659.4063,176.1875 Q656.9063,176.1875 655.5781,174.5469 Q654.2656,172.8906 654.2656,169.7656 Q654.2656,166.6406 655.5781,164.9844 Q656.9063,163.3281 659.4063,163.3281 Q660.1094,163.3281 660.75,163.4844 Q661.4063,163.6406 661.9688,163.9375 L661.9688,166.6563 Q661.3438,166.0781 660.75,165.8125 Q660.1563,165.5313 659.5313,165.5313 Q658.1875,165.5313 657.5,166.6094 Q656.8125,167.6719 656.8125,169.7656 Q656.8125,171.8594 657.5,172.9375 Q658.1875,174 659.5313,174 Q660.1563,174 660.75,173.7344 Q661.3438,173.4531 661.9688,172.875 L661.9688,175.5938 Z "/><text fill="#000000" font-family="sans-serif" font-size="12" lengthAdjust="spacingAndGlyphs" textLength="108" x="673" y="174.1074">diagram_element</text><line style="stroke: #A80036; stroke-width: 1.5;" x1="645" x2="783" y1="185.9531" y2="185.9531"/><line style="stroke: #A80036; stroke-width: 1.5;" x1="645" x2="783" y1="193.9531" y2="193.9531"/></a><!--MD5=[5e78f8fc55e497bc4b976d966927ffe8]
class C_0000845978329661395972--><a href="structclanguml_1_1common_1_1model_1_1context.html" target="_top" title="context" xlink:actuate="onRequest" xlink:href="structclanguml_1_1common_1_1model_1_1context.html" xlink:show="new" xlink:title="context" xlink:type="simple"><rect fill="#FEFECE" filter="url(#fymg3df53jdwc)" height="48" id="C_0000845978329661395972" style="stroke: #A80036; stroke-width: 1.5;" width="79" x="875.5" y="278.9531"/><ellipse cx="890.5" cy="294.9531" fill="#ADD1B2" rx="11" ry="11" style="stroke: #A80036; stroke-width: 1.0;"/><path d="M893.4688,300.5938 Q892.8906,300.8906 892.25,301.0313 Q891.6094,301.1875 890.9063,301.1875 Q888.4063,301.1875 887.0781,299.5469 Q885.7656,297.8906 885.7656,294.7656 Q885.7656,291.6406 887.0781,289.9844 Q888.4063,288.3281 890.9063,288.3281 Q891.6094,288.3281 892.25,288.4844 Q892.9063,288.6406 893.4688,288.9375 L893.4688,291.6563 Q892.8438,291.0781 892.25,290.8125 Q891.6563,290.5313 891.0313,290.5313 Q889.6875,290.5313 889,291.6094 Q888.3125,292.6719 888.3125,294.7656 Q888.3125,296.8594 889,297.9375 Q889.6875,299 891.0313,299 Q891.6563,299 892.25,298.7344 Q892.8438,298.4531 893.4688,297.875 L893.4688,300.5938 Z "/><text fill="#000000" font-family="sans-serif" font-size="12" lengthAdjust="spacingAndGlyphs" textLength="47" x="904.5" y="299.1074">context</text><line style="stroke: #A80036; stroke-width: 1.5;" x1="876.5" x2="953.5" y1="310.9531" y2="310.9531"/><line style="stroke: #A80036; stroke-width: 1.5;" x1="876.5" x2="953.5" y1="318.9531" y2="318.9531"/></a><!--MD5=[913c6f233a96408f73aaa4779df4a12a]
class C_0000178138562743079529--><a href="classclanguml_1_1common_1_1model_1_1template__parameter.html" target="_top" title="Represents template parameter, template arguments or concept         constraints" xlink:actuate="onRequest" xlink:href="classclanguml_1_1common_1_1model_1_1template__parameter.html" xlink:show="new" xlink:title="Represents template parameter, template arguments or concept         constraints" xlink:type="simple"><rect fill="#FEFECE" filter="url(#fymg3df53jdwc)" height="48" id="C_0000178138562743079529" style="stroke: #A80036; stroke-width: 1.5;" width="160" x="835" y="153.9531"/><ellipse cx="850" cy="169.9531" fill="#ADD1B2" rx="11" ry="11" style="stroke: #A80036; stroke-width: 1.0;"/><path d="M852.9688,175.5938 Q852.3906,175.8906 851.75,176.0313 Q851.1094,176.1875 850.4063,176.1875 Q847.9063,176.1875 846.5781,174.5469 Q845.2656,172.8906 845.2656,169.7656 Q845.2656,166.6406 846.5781,164.9844 Q847.9063,163.3281 850.4063,163.3281 Q851.1094,163.3281 851.75,163.4844 Q852.4063,163.6406 852.9688,163.9375 L852.9688,166.6563 Q852.3438,166.0781 851.75,165.8125 Q851.1563,165.5313 850.5313,165.5313 Q849.1875,165.5313 848.5,166.6094 Q847.8125,167.6719 847.8125,169.7656 Q847.8125,171.8594 848.5,172.9375 Q849.1875,174 850.5313,174 Q851.1563,174 851.75,173.7344 Q852.3438,173.4531 852.9688,172.875 L852.9688,175.5938 Z "/><text fill="#000000" font-family="sans-serif" font-size="12" lengthAdjust="spacingAndGlyphs" textLength="128" x="864" y="174.1074">template_parameter</text><line style="stroke: #A80036; stroke-width: 1.5;" x1="836" x2="994" y1="185.9531" y2="185.9531"/><line style="stroke: #A80036; stroke-width: 1.5;" x1="836" x2="994" y1="193.9531" y2="193.9531"/></a><!--MD5=[9fe22c22cfca4da03ec5635d5d7f9c7a]
class C_0000891208748219309562--><a href="classclanguml_1_1common_1_1model_1_1nested__trait.html" target="_top" title="Base class for elements nested in the diagram." xlink:actuate="onRequest" xlink:href="classclanguml_1_1common_1_1model_1_1nested__trait.html" xlink:show="new" xlink:title="Base class for elements nested in the diagram." xlink:type="simple"><rect fill="#FEFECE" filter="url(#fymg3df53jdwc)" height="48" id="C_0000891208748219309562" style="stroke: #A80036; stroke-width: 1.5;" width="151" x="191.5" y="28.9531"/><ellipse cx="206.5" cy="44.9531" fill="#ADD1B2" rx="11" ry="11" style="stroke: #A80036; stroke-width: 1.0;"/><path d="M209.4688,50.5938 Q208.8906,50.8906 208.25,51.0313 Q207.6094,51.1875 206.9063,51.1875 Q204.4063,51.1875 203.0781,49.5469 Q201.7656,47.8906 201.7656,44.7656 Q201.7656,41.6406 203.0781,39.9844 Q204.4063,38.3281 206.9063,38.3281 Q207.6094,38.3281 208.25,38.4844 Q208.9063,38.6406 209.4688,38.9375 L209.4688,41.6563 Q208.8438,41.0781 208.25,40.8125 Q207.6563,40.5313 207.0313,40.5313 Q205.6875,40.5313 205,41.6094 Q204.3125,42.6719 204.3125,44.7656 Q204.3125,46.8594 205,47.9375 Q205.6875,49 207.0313,49 Q207.6563,49 208.25,48.7344 Q208.8438,48.4531 209.4688,47.875 L209.4688,50.5938 Z "/><text fill="#000000" font-family="sans-serif" font-size="12" lengthAdjust="spacingAndGlyphs" textLength="76" x="220.5" y="49.1074">nested_trait</text><rect fill="#FFFFFF" height="15.9688" style="stroke: #000000; stroke-width: 1.0; stroke-dasharray: 2.0,2.0;" width="41" x="304.5" y="25.9531"/><text fill="#000000" font-family="sans-serif" font-size="12" font-style="italic" lengthAdjust="spacingAndGlyphs" textLength="39" x="305.5" y="38.0918">T,Path</text><line style="stroke: #A80036; stroke-width: 1.5;" x1="192.5" x2="341.5" y1="60.9531" y2="60.9531"/><line style="stroke: #A80036; stroke-width: 1.5;" x1="192.5" x2="341.5" y1="68.9531" y2="68.9531"/></a><!--MD5=[c57c98c07ee8aeeaef60b2f6b37c95ad]
class C_0000640258162892495349--><a href="structclanguml_1_1common_1_1model_1_1fs__path__sep.html" target="_top" title="fs_path_sep" xlink:actuate="onRequest" xlink:href="structclanguml_1_1common_1_1model_1_1fs__path__sep.html" xlink:show="new" xlink:title="fs_path_sep" xlink:type="simple"><rect fill="#FEFECE" filter="url(#fymg3df53jdwc)" height="48" id="C_0000640258162892495349" style="stroke: #A80036; stroke-width: 1.5;" width="107" x="27.5" y="153.9531"/><ellipse cx="42.5" cy="169.9531" fill="#ADD1B2" rx="11" ry="11" style="stroke: #A80036; stroke-width: 1.0;"/><path d="M45.4688,175.5938 Q44.8906,175.8906 44.25,176.0313 Q43.6094,176.1875 42.9063,176.1875 Q40.4063,176.1875 39.0781,174.5469 Q37.7656,172.8906 37.7656,169.7656 Q37.7656,166.6406 39.0781,164.9844 Q40.4063,163.3281 42.9063,163.3281 Q43.6094,163.3281 44.25,163.4844 Q44.9063,163.6406 45.4688,163.9375 L45.4688,166.6563 Q44.8438,166.0781 44.25,165.8125 Q43.6563,165.5313 43.0313,165.5313 Q41.6875,165.5313 41,166.6094 Q40.3125,167.6719 40.3125,169.7656 Q40.3125,171.8594 41,172.9375 Q41.6875,174 43.0313,174 Q43.6563,174 44.25,173.7344 Q44.8438,173.4531 45.4688,172.875 L45.4688,175.5938 Z "/><text fill="#000000" font-family="sans-serif" font-size="12" lengthAdjust="spacingAndGlyphs" textLength="75" x="56.5" y="174.1074">fs_path_sep</text><line style="stroke: #A80036; stroke-width: 1.5;" x1="28.5" x2="133.5" y1="185.9531" y2="185.9531"/><line style="stroke: #A80036; stroke-width: 1.5;" x1="28.5" x2="133.5" y1="193.9531" y2="193.9531"/></a><!--MD5=[525da812764c4fe64f23950e964f77cd]
class C_0000785714713072053129--><a href="classclanguml_1_1common_1_1model_1_1source__file.html" target="_top" title="Diagram element representing some file or directory." xlink:actuate="onRequest" xlink:href="classclanguml_1_1common_1_1model_1_1source__file.html" xlink:show="new" xlink:title="Diagram element representing some file or directory." xlink:type="simple"><rect fill="#FEFECE" filter="url(#fymg3df53jdwc)" height="48" id="C_0000785714713072053129" style="stroke: #A80036; stroke-width: 1.5;" width="99" x="731.5" y="278.9531"/><ellipse cx="746.5" cy="294.9531" fill="#ADD1B2" rx="11" ry="11" style="stroke: #A80036; stroke-width: 1.0;"/><path d="M749.4688,300.5938 Q748.8906,300.8906 748.25,301.0313 Q747.6094,301.1875 746.9063,301.1875 Q744.4063,301.1875 743.0781,299.5469 Q741.7656,297.8906 741.7656,294.7656 Q741.7656,291.6406 743.0781,289.9844 Q744.4063,288.3281 746.9063,288.3281 Q747.6094,288.3281 748.25,288.4844 Q748.9063,288.6406 749.4688,288.9375 L749.4688,291.6563 Q748.8438,291.0781 748.25,290.8125 Q747.6563,290.5313 747.0313,290.5313 Q745.6875,290.5313 745,291.6094 Q744.3125,292.6719 744.3125,294.7656 Q744.3125,296.8594 745,297.9375 Q745.6875,299 747.0313,299 Q747.6563,299 748.25,298.7344 Q748.8438,298.4531 749.4688,297.875 L749.4688,300.5938 Z "/><text fill="#000000" font-family="sans-serif" font-size="12" lengthAdjust="spacingAndGlyphs" textLength="67" x="760.5" y="299.1074">source_file</text><line style="stroke: #A80036; stroke-width: 1.5;" x1="732.5" x2="829.5" y1="310.9531" y2="310.9531"/><line style="stroke: #A80036; stroke-width: 1.5;" x1="732.5" x2="829.5" y1="318.9531" y2="318.9531"/></a><!--MD5=[ff9e0a0bc9f03396ed80b26723707697]
class C_0000197068985320835874--><a href="classclanguml_1_1common_1_1model_1_1diagram.html" target="_top" title="Base class for all diagram models" xlink:actuate="onRequest" xlink:href="classclanguml_1_1common_1_1model_1_1diagram.html" xlink:show="new" xlink:title="Base class for all diagram models" xlink:type="simple"><rect fill="#FEFECE" filter="url(#fymg3df53jdwc)" height="48" id="C_0000197068985320835874" style="stroke: #A80036; stroke-width: 1.5;" width="83" x="1193.5" y="153.9531"/><ellipse cx="1208.5" cy="169.9531" fill="#ADD1B2" rx="11" ry="11" style="stroke: #A80036; stroke-width: 1.0;"/><path d="M1211.4688,175.5938 Q1210.8906,175.8906 1210.25,176.0313 Q1209.6094,176.1875 1208.9063,176.1875 Q1206.4063,176.1875 1205.0781,174.5469 Q1203.7656,172.8906 1203.7656,169.7656 Q1203.7656,166.6406 1205.0781,164.9844 Q1206.4063,163.3281 1208.9063,163.3281 Q1209.6094,163.3281 1210.25,163.4844 Q1210.9063,163.6406 1211.4688,163.9375 L1211.4688,166.6563 Q1210.8438,166.0781 1210.25,165.8125 Q1209.6563,165.5313 1209.0313,165.5313 Q1207.6875,165.5313 1207,166.6094 Q1206.3125,167.6719 1206.3125,169.7656 Q1206.3125,171.8594 1207,172.9375 Q1207.6875,174 1209.0313,174 Q1209.6563,174 1210.25,173.7344 Q1210.8438,173.4531 1211.4688,172.875 L1211.4688,175.5938 Z "/><text fill="#000000" font-family="sans-serif" font-size="12" lengthAdjust="spacingAndGlyphs" textLength="51" x="1222.5" y="174.1074">diagram</text><line style="stroke: #A80036; stroke-width: 1.5;" x1="1194.5" x2="1275.5" y1="185.9531" y2="185.9531"/><line style="stroke: #A80036; stroke-width: 1.5;" x1="1194.5" x2="1275.5" y1="193.9531" y2="193.9531"/></a><!--MD5=[61ee72164152887ec594509a8c6f7a5a]
class C_0002069520381434407937--><a href="classclanguml_1_1common_1_1model_1_1element.html" target="_top" title="Base class for any element qualified by namespace." xlink:actuate="onRequest" xlink:href="classclanguml_1_1common_1_1model_1_1element.html" xlink:show="new" xlink:title="Base class for any element qualified by namespace." xlink:type="simple"><rect fill="#FEFECE" filter="url(#fymg3df53jdwc)" height="48" id="C_0002069520381434407937" style="stroke: #A80036; stroke-width: 1.5;" width="83" x="609.5" y="278.9531"/><ellipse cx="624.5" cy="294.9531" fill="#ADD1B2" rx="11" ry="11" style="stroke: #A80036; stroke-width: 1.0;"/><path d="M627.4688,300.5938 Q626.8906,300.8906 626.25,301.0313 Q625.6094,301.1875 624.9063,301.1875 Q622.4063,301.1875 621.0781,299.5469 Q619.7656,297.8906 619.7656,294.7656 Q619.7656,291.6406 621.0781,289.9844 Q622.4063,288.3281 624.9063,288.3281 Q625.6094,288.3281 626.25,288.4844 Q626.9063,288.6406 627.4688,288.9375 L627.4688,291.6563 Q626.8438,291.0781 626.25,290.8125 Q625.6563,290.5313 625.0313,290.5313 Q623.6875,290.5313 623,291.6094 Q622.3125,292.6719 622.3125,294.7656 Q622.3125,296.8594 623,297.9375 Q623.6875,299 625.0313,299 Q625.6563,299 626.25,298.7344 Q626.8438,298.4531 627.4688,297.875 L627.4688,300.5938 Z "/><text fill="#000000" font-family="sans-serif" font-size="12" lengthAdjust="spacingAndGlyphs" textLength="51" x="638.5" y="299.1074">element</text><line style="stroke: #A80036; stroke-width: 1.5;" x1="610.5" x2="691.5" y1="310.9531" y2="310.9531"/><line style="stroke: #A80036; stroke-width: 1.5;" x1="610.5" x2="691.5" y1="318.9531" y2="318.9531"/></a><!--MD5=[2827fdd5558f2165e3e9bb4d89032bc9]
class C_0000464715462505216589--><a href="classclanguml_1_1common_1_1model_1_1template__trait.html" target="_top" title="Common interface for template diagram elements." xlink:actuate="onRequest" xlink:href="classclanguml_1_1common_1_1model_1_1template__trait.html" xlink:show="new" xlink:title="Common interface for template diagram elements." xlink:type="simple"><rect fill="#FEFECE" filter="url(#fymg3df53jdwc)" height="48" id="C_0000464715462505216589" style="stroke: #A80036; stroke-width: 1.5;" width="120" x="855" y="28.9531"/><ellipse cx="870" cy="44.9531" fill="#ADD1B2" rx="11" ry="11" style="stroke: #A80036; stroke-width: 1.0;"/><path d="M872.9688,50.5938 Q872.3906,50.8906 871.75,51.0313 Q871.1094,51.1875 870.4063,51.1875 Q867.9063,51.1875 866.5781,49.5469 Q865.2656,47.8906 865.2656,44.7656 Q865.2656,41.6406 866.5781,39.9844 Q867.9063,38.3281 870.4063,38.3281 Q871.1094,38.3281 871.75,38.4844 Q872.4063,38.6406 872.9688,38.9375 L872.9688,41.6563 Q872.3438,41.0781 871.75,40.8125 Q871.1563,40.5313 870.5313,40.5313 Q869.1875,40.5313 868.5,41.6094 Q867.8125,42.6719 867.8125,44.7656 Q867.8125,46.8594 868.5,47.9375 Q869.1875,49 870.5313,49 Q871.1563,49 871.75,48.7344 Q872.3438,48.4531 872.9688,47.875 L872.9688,50.5938 Z "/><text fill="#000000" font-family="sans-serif" font-size="12" lengthAdjust="spacingAndGlyphs" textLength="88" x="884" y="49.1074">template_trait</text><line style="stroke: #A80036; stroke-width: 1.5;" x1="856" x2="974" y1="60.9531" y2="60.9531"/><line style="stroke: #A80036; stroke-width: 1.5;" x1="856" x2="974" y1="68.9531" y2="68.9531"/></a><!--MD5=[7a65113fcf2e45c443974977561a90c9]
class C_0001786360230161561276--><a href="classclanguml_1_1common_1_1model_1_1element__view.html" target="_top" title="element_view" xlink:actuate="onRequest" xlink:href="classclanguml_1_1common_1_1model_1_1element__view.html" xlink:show="new" xlink:title="element_view" xlink:type="simple"><rect fill="#FEFECE" filter="url(#fymg3df53jdwc)" height="48" id="C_0001786360230161561276" style="stroke: #A80036; stroke-width: 1.5;" width="126" x="170" y="153.9531"/><ellipse cx="185" cy="169.9531" fill="#ADD1B2" rx="11" ry="11" style="stroke: #A80036; stroke-width: 1.0;"/><path d="M187.9688,175.5938 Q187.3906,175.8906 186.75,176.0313 Q186.1094,176.1875 185.4063,176.1875 Q182.9063,176.1875 181.5781,174.5469 Q180.2656,172.8906 180.2656,169.7656 Q180.2656,166.6406 181.5781,164.9844 Q182.9063,163.3281 185.4063,163.3281 Q186.1094,163.3281 186.75,163.4844 Q187.4063,163.6406 187.9688,163.9375 L187.9688,166.6563 Q187.3438,166.0781 186.75,165.8125 Q186.1563,165.5313 185.5313,165.5313 Q184.1875,165.5313 183.5,166.6094 Q182.8125,167.6719 182.8125,169.7656 Q182.8125,171.8594 183.5,172.9375 Q184.1875,174 185.5313,174 Q186.1563,174 186.75,173.7344 Q187.3438,173.4531 187.9688,172.875 L187.9688,175.5938 Z "/><text fill="#000000" font-family="sans-serif" font-size="12" lengthAdjust="spacingAndGlyphs" textLength="83" x="199" y="174.1074">element_view</text><rect fill="#FFFFFF" height="15.9688" style="stroke: #000000; stroke-width: 1.0; stroke-dasharray: 2.0,2.0;" width="9" x="290" y="150.9531"/><text fill="#000000" font-family="sans-serif" font-size="12" font-style="italic" lengthAdjust="spacingAndGlyphs" textLength="7" x="291" y="163.0918">T</text><line style="stroke: #A80036; stroke-width: 1.5;" x1="171" x2="295" y1="185.9531" y2="185.9531"/><line style="stroke: #A80036; stroke-width: 1.5;" x1="171" x2="295" y1="193.9531" y2="193.9531"/></a><!--MD5=[41fe75f5c358e82f7c3b024ae1be5ac2]
class C_0002143286684830686854--><a href="classclanguml_1_1common_1_1model_1_1package.html" target="_top" title="Diagram element representing namespace or directory package" xlink:actuate="onRequest" xlink:href="classclanguml_1_1common_1_1model_1_1package.html" xlink:show="new" xlink:title="Diagram element representing namespace or directory package" xlink:type="simple"><rect fill="#FEFECE" filter="url(#fymg3df53jdwc)" height="48" id="C_0002143286684830686854" style="stroke: #A80036; stroke-width: 1.5;" width="86" x="388" y="403.9531"/><ellipse cx="403" cy="419.9531" fill="#ADD1B2" rx="11" ry="11" style="stroke: #A80036; stroke-width: 1.0;"/><path d="M405.9688,425.5938 Q405.3906,425.8906 404.75,426.0313 Q404.1094,426.1875 403.4063,426.1875 Q400.9063,426.1875 399.5781,424.5469 Q398.2656,422.8906 398.2656,419.7656 Q398.2656,416.6406 399.5781,414.9844 Q400.9063,413.3281 403.4063,413.3281 Q404.1094,413.3281 404.75,413.4844 Q405.4063,413.6406 405.9688,413.9375 L405.9688,416.6563 Q405.3438,416.0781 404.75,415.8125 Q404.1563,415.5313 403.5313,415.5313 Q402.1875,415.5313 401.5,416.6094 Q400.8125,417.6719 400.8125,419.7656 Q400.8125,421.8594 401.5,422.9375 Q402.1875,424 403.5313,424 Q404.1563,424 404.75,423.7344 Q405.3438,423.4531 405.9688,422.875 L405.9688,425.5938 Z "/><text fill="#000000" font-family="sans-serif" font-size="12" lengthAdjust="spacingAndGlyphs" textLength="54" x="417" y="424.1074">package</text><line style="stroke: #A80036; stroke-width: 1.5;" x1="389" x2="473" y1="435.9531" y2="435.9531"/><line style="stroke: #A80036; stroke-width: 1.5;" x1="389" x2="473" y1="443.9531" y2="443.9531"/></a><!--MD5=[f7dfcf794614e50ee3dd2ad309c49343]
class C_0002054140694270036745--><a href="classclanguml_1_1common_1_1model_1_1diagram__filter.html" target="_top" title="Composite of all diagrams filters." xlink:actuate="onRequest" xlink:href="classclanguml_1_1common_1_1model_1_1diagram__filter.html" xlink:show="new" xlink:title="Composite of all diagrams filters." xlink:type="simple"><rect fill="#FEFECE" filter="url(#fymg3df53jdwc)" height="48" id="C_0002054140694270036745" style="stroke: #A80036; stroke-width: 1.5;" width="117" x="1176.5" y="278.9531"/><ellipse cx="1191.5" cy="294.9531" fill="#ADD1B2" rx="11" ry="11" style="stroke: #A80036; stroke-width: 1.0;"/><path d="M1194.4688,300.5938 Q1193.8906,300.8906 1193.25,301.0313 Q1192.6094,301.1875 1191.9063,301.1875 Q1189.4063,301.1875 1188.0781,299.5469 Q1186.7656,297.8906 1186.7656,294.7656 Q1186.7656,291.6406 1188.0781,289.9844 Q1189.4063,288.3281 1191.9063,288.3281 Q1192.6094,288.3281 1193.25,288.4844 Q1193.9063,288.6406 1194.4688,288.9375 L1194.4688,291.6563 Q1193.8438,291.0781 1193.25,290.8125 Q1192.6563,290.5313 1192.0313,290.5313 Q1190.6875,290.5313 1190,291.6094 Q1189.3125,292.6719 1189.3125,294.7656 Q1189.3125,296.8594 1190,297.9375 Q1190.6875,299 1192.0313,299 Q1192.6563,299 1193.25,298.7344 Q1193.8438,298.4531 1194.4688,297.875 L1194.4688,300.5938 Z "/><text fill="#000000" font-family="sans-serif" font-size="12" lengthAdjust="spacingAndGlyphs" textLength="85" x="1205.5" y="299.1074">diagram_filter</text><line style="stroke: #A80036; stroke-width: 1.5;" x1="1177.5" x2="1292.5" y1="310.9531" y2="310.9531"/><line style="stroke: #A80036; stroke-width: 1.5;" x1="1177.5" x2="1292.5" y1="318.9531" y2="318.9531"/></a><path d="M1093,40.4531 L1093,65.5859 A0,0 0 0 0 1093,65.5859 L1231,65.5859 L1235,153.7231 L1239,65.5859 L1377,65.5859 A0,0 0 0 0 1377,65.5859 L1377,50.4531 L1367,40.4531 L1093,40.4531 A0,0 0 0 0 1093,40.4531 " fill="#FBFB77" filter="url(#fymg3df53jdwc)" style="stroke: #A80036; stroke-width: 1.0;"/><path d="M1367,40.4531 L1367,50.4531 L1377,50.4531 L1367,40.4531 " fill="#FBFB77" style="stroke: #A80036; stroke-width: 1.0;"/><text fill="#000000" font-family="sans-serif" font-size="13" lengthAdjust="spacingAndGlyphs" textLength="263" x="1099" y="57.52">Common class for specific diagram types</text><!--MD5=[eec8df5c621e16efacc55aa1cc3fe68f]
reverse link C_0001117102382624673118 to C_0002046336758797367926--><path d="M527.9,97.2631 C525.35,150.1031 521.12,237.4831 519.12,278.8631 " fill="none" id="C_0001117102382624673118&lt;-C_0002046336758797367926" style="stroke: #A80036; stroke-width: 1.0;"/><polygon fill="none" points="520.91,96.9231,528.87,77.2831,534.9,97.6031,520.91,96.9231" style="stroke: #A80036; stroke-width: 1.0;"/><!--MD5=[9d476f3ed11f81b3c86253c8a660c2f2]
reverse link C_0002077846075979426940 to C_0002046336758797367926--><path d="M436.17,216.6531 C455.68,236.9831 479.12,261.4231 495.9,278.9231 " fill="none" id="C_0002077846075979426940&lt;-C_0002046336758797367926" style="stroke: #A80036; stroke-width: 1.0;"/><polygon fill="none" points="430.99,221.3631,422.19,202.0931,441.09,211.6731,430.99,221.3631" style="stroke: #A80036; stroke-width: 1.0;"/><!--MD5=[72997d05be5ec4d7c79f5239d6652a46]
reverse link C_0001073500714379115414 to C_0002046336758797367926--><path d="M631.62,202.6931 C612.38,210.3231 592.67,219.9831 576,231.9531 C558.44,244.5631 543.06,263.7231 532.56,278.8131 " fill="none" id="C_0001073500714379115414&lt;-C_0002046336758797367926" style="stroke: #A80036; stroke-width: 1.0;"/><polygon fill="#FFFFFF" points="643.82,198.0831,636.7944,196.4581,632.5922,202.3183,639.6178,203.9433,643.82,198.0831" style="stroke: #A80036; stroke-width: 1.0;"/><rect fill="none" height="6" style="stroke: #C82930; stroke-width: 1.0;" width="6" x="579" y="238.0195"/><text fill="#000000" font-family="sans-serif" font-size="13" lengthAdjust="spacingAndGlyphs" textLength="88" x="589" y="245.02">relationships_</text><!--MD5=[51b77a83e925bfa56ce9003126dec6da]
reverse link C_0001117102382624673118 to C_0001073500714379115414--><path d="M581.53,88.4031 C612.84,109.3331 651.96,135.4831 679.55,153.9231 " fill="none" id="C_0001117102382624673118&lt;-C_0001073500714379115414" style="stroke: #A80036; stroke-width: 1.0;"/><polygon fill="none" points="577.35,94.0231,564.61,77.0931,585.13,82.3831,577.35,94.0231" style="stroke: #A80036; stroke-width: 1.0;"/><!--MD5=[ca2904572ba2305549e4f16921901e5a]
reverse link C_0000895261582183440230 to C_0001073500714379115414--><path d="M714,97.1231 C714,116.2431 714,137.9731 714,153.9231 " fill="none" id="C_0000895261582183440230&lt;-C_0001073500714379115414" style="stroke: #A80036; stroke-width: 1.0;"/><polygon fill="none" points="707,97.0931,714,77.0931,721,97.0931,707,97.0931" style="stroke: #A80036; stroke-width: 1.0;"/><!--MD5=[7566fda333217dfb046318d35641bbd5]
reverse link C_0000178138562743079529 to C_0000845978329661395972--><path d="M915,215.1631 C915,235.7831 915,260.9931 915,278.9231 " fill="none" id="C_0000178138562743079529&lt;-C_0000845978329661395972" style="stroke: #A80036; stroke-width: 1.0;"/><polygon fill="#FFFFFF" points="915,202.0931,911,208.0931,915,214.0931,919,208.0931,915,202.0931" style="stroke: #A80036; stroke-width: 1.0;"/><rect fill="none" height="6" style="stroke: #C82930; stroke-width: 1.0;" width="6" x="918" y="238.0195"/><text fill="#000000" font-family="sans-serif" font-size="13" lengthAdjust="spacingAndGlyphs" textLength="55" x="928" y="245.02">context_</text><!--MD5=[8505caf16705ed6f5893bf86e39d9f72]
reverse link C_0000178138562743079529 to C_0000178138562743079529--><path d="M1008.17,167.5531 C1021.24,169.2431 1030,172.7131 1030,177.9531 C1030,184.7931 1015.06,188.6131 995.08,189.4231 " fill="none" id="C_0000178138562743079529&lt;-C_0000178138562743079529" style="stroke: #A80036; stroke-width: 1.0;"/><polygon fill="#FFFFFF" points="995.08,166.4831,1000.7398,170.9516,1007.0413,167.4458,1001.3816,162.9774,995.08,166.4831" style="stroke: #A80036; stroke-width: 1.0;"/><rect fill="none" height="6" style="stroke: #C82930; stroke-width: 1.0;" width="6" x="1038" y="175.5195"/><text fill="#000000" font-family="sans-serif" font-size="13" lengthAdjust="spacingAndGlyphs" textLength="121" x="1048" y="182.52">template_params_</text><!--MD5=[019d7bf597d0b181c46c8a98893e5495]
reverse link C_0000785714713072053129 to C_0000844837292165721774--><path d="M759.71,338.4031 C746.78,359.3331 730.62,385.4831 719.23,403.9231 " fill="none" id="C_0000785714713072053129&lt;-C_0000844837292165721774" style="stroke: #A80036; stroke-width: 1.0;"/><polygon fill="#FFFFFF" points="766.7,327.0931,760.1412,330.0902,760.3851,337.2971,766.9439,334.3001,766.7,327.0931" style="stroke: #A80036; stroke-width: 1.0;"/><rect fill="none" height="6" style="stroke: #C82930; stroke-width: 1.0;" width="6" x="751" y="363.0195"/><text fill="#000000" font-family="sans-serif" font-size="13" lengthAdjust="spacingAndGlyphs" textLength="36" x="761" y="370.02">path_</text><!--MD5=[5ecb1d83165a712adbd5650cef34b86b]
reverse link C_0001073500714379115414 to C_0000785714713072053129--><path d="M736.18,219.6731 C746.91,239.3631 759.39,262.2831 768.45,278.9231 " fill="none" id="C_0001073500714379115414&lt;-C_0000785714713072053129" style="stroke: #A80036; stroke-width: 1.0;"/><polygon fill="none" points="730.02,223.0031,726.6,202.0931,742.32,216.3031,730.02,223.0031" style="stroke: #A80036; stroke-width: 1.0;"/><!--MD5=[4f221eabf3421229e7e20303bd40a63c]
reverse link C_0002077846075979426940 to C_0000785714713072053129--><path d="M488.66,186.3531 C544.87,193.3031 618.19,206.6331 679,231.9531 C706.56,243.4331 734.26,263.0831 753.83,278.6431 " fill="none" id="C_0002077846075979426940&lt;-C_0000785714713072053129" style="stroke: #A80036; stroke-width: 1.0;"/><polygon fill="none" points="487.84,193.3031,468.77,184.0631,489.44,179.3931,487.84,193.3031" style="stroke: #A80036; stroke-width: 1.0;"/><!--MD5=[2c0e890a58fad6642f619a104dbc6186]
reverse link C_0000197068985320835874 to C_0002054140694270036745--><path d="M1198.39,212.3631 C1193.74,218.4031 1189.68,225.0031 1187,231.9531 C1180.43,249.0031 1191.48,265.9631 1204.63,278.9131 " fill="none" id="C_0000197068985320835874&lt;-C_0002054140694270036745" style="stroke: #A80036; stroke-width: 1.0;"/><polygon fill="#FFFFFF" points="1207.21,202.1531,1200.2597,204.0749,1199.3604,211.2297,1206.3107,209.3079,1207.21,202.1531" style="stroke: #A80036; stroke-width: 1.0;"/><rect fill="none" height="6" style="stroke: #C82930; stroke-width: 1.0;" width="6" x="1190" y="238.0195"/><text fill="#000000" font-family="sans-serif" font-size="13" lengthAdjust="spacingAndGlyphs" textLength="35" x="1200" y="245.02">filter_</text><!--MD5=[916f1520f6f72ccc5ea972a5fb9ab97b]
link C_0002054140694270036745 to C_0000197068985320835874--><path d="M1237.66,278.7631 C1238.6,269.5031 1239.54,258.7431 1240,248.9531 C1240.64,235.3231 1239.76,220.2231 1238.58,207.5431 " fill="none" id="C_0002054140694270036745-&gt;C_0000197068985320835874" style="stroke: #A80036; stroke-width: 1.0;"/><polygon fill="#A80036" points="1238.05,202.2731,1234.968,211.6273,1238.5489,207.2482,1242.9281,210.8291,1238.05,202.2731" style="stroke: #A80036; stroke-width: 1.0;"/><rect fill="none" height="6" style="stroke: #C82930; stroke-width: 1.0;" width="6" x="1243" y="238.0195"/><text fill="#000000" font-family="sans-serif" font-size="13" lengthAdjust="spacingAndGlyphs" textLength="60" x="1253" y="245.02">diagram_</text><!--MD5=[5d910ea399c8b53a1c5a5e084e915fb3]
reverse link C_0002069520381434407937 to C_0000844837292165721774--><path d="M666.51,339.2831 C675.63,360.0631 686.91,385.7431 694.89,403.9231 " fill="none" id="C_0002069520381434407937&lt;-C_0000844837292165721774" style="stroke: #A80036; stroke-width: 1.0;"/><polygon fill="#FFFFFF" points="661.16,327.0931,659.9115,334.1953,665.9871,338.0794,667.2357,330.9772,661.16,327.0931" style="stroke: #A80036; stroke-width: 1.0;"/><rect fill="none" height="6" style="stroke: #C82930; stroke-width: 1.0;" width="6" x="685" y="363.0195"/><text fill="#000000" font-family="sans-serif" font-size="13" lengthAdjust="spacingAndGlyphs" textLength="22" x="695" y="370.02">ns_</text><!--MD5=[5d910ea399c8b53a1c5a5e084e915fb3]
reverse link C_0002069520381434407937 to C_0000844837292165721774--><path d="M597.04,324.4431 C566.74,336.4831 534.18,350.5631 530,356.9531 C525.87,363.2731 525.5,367.8831 530,373.9531 C563.29,418.8231 633.52,427.0431 674.17,427.8031 " fill="none" id="C_0002069520381434407937&lt;-C_0000844837292165721774-1" style="stroke: #A80036; stroke-width: 1.0;"/><polygon fill="#FFFFFF" points="609.35,319.6031,602.3041,318.0686,598.1776,323.9824,605.2236,325.5169,609.35,319.6031" style="stroke: #A80036; stroke-width: 1.0;"/><rect fill="none" height="6" style="stroke: #C82930; stroke-width: 1.0;" width="6" x="533" y="363.0195"/><text fill="#000000" font-family="sans-serif" font-size="13" lengthAdjust="spacingAndGlyphs" textLength="123" x="543" y="370.02">using_namespace_</text><!--MD5=[4f2a77547d39d73bea822e52b2f0976b]
reverse link C_0001073500714379115414 to C_0002069520381434407937--><path d="M698.8,220.9731 C694.97,230.3431 690.62,240.1231 686,248.9531 C680.68,259.1131 673.91,269.7631 667.74,278.8331 " fill="none" id="C_0001073500714379115414&lt;-C_0002069520381434407937" style="stroke: #A80036; stroke-width: 1.0;"/><polygon fill="none" points="692.33,218.3131,706.06,202.1731,705.39,223.3531,692.33,218.3131" style="stroke: #A80036; stroke-width: 1.0;"/><!--MD5=[1421a7cb66ca20c748d686120e75df1f]
reverse link C_0000464715462505216589 to C_0000178138562743079529--><path d="M915,90.1631 C915,110.7831 915,135.9931 915,153.9231 " fill="none" id="C_0000464715462505216589&lt;-C_0000178138562743079529" style="stroke: #A80036; stroke-width: 1.0;"/><polygon fill="#FFFFFF" points="915,77.0931,911,83.0931,915,89.0931,919,83.0931,915,77.0931" style="stroke: #A80036; stroke-width: 1.0;"/><rect fill="none" height="6" style="stroke: #C82930; stroke-width: 1.0;" width="6" x="918" y="113.0195"/><text fill="#000000" font-family="sans-serif" font-size="13" lengthAdjust="spacingAndGlyphs" textLength="72" x="928" y="120.02">templates_</text><!--MD5=[3b5b148458d09c1202603fe4c86398e5]
reverse link C_0002069520381434407937 to C_0002143286684830686854--><path d="M590.41,326.3431 C562.14,337.1731 531.92,349.4331 519,356.9531 C496.22,370.2031 472.99,388.9431 456.13,403.7031 " fill="none" id="C_0002069520381434407937&lt;-C_0002143286684830686854" style="stroke: #A80036; stroke-width: 1.0;"/><polygon fill="none" points="588.25,319.6731,609.43,319.1431,593.2,332.7631,588.25,319.6731" style="stroke: #A80036; stroke-width: 1.0;"/><!--MD5=[8b57dc45e019868d19d5475e79e2f9cd]
reverse link C_0002077846075979426940 to C_0002143286684830686854--><path d="M405.41,222.2631 C412.02,275.1031 422.94,362.4831 428.11,403.8631 " fill="none" id="C_0002077846075979426940&lt;-C_0002143286684830686854" style="stroke: #A80036; stroke-width: 1.0;"/><polygon fill="none" points="398.45,223.0031,402.92,202.2831,412.34,221.2631,398.45,223.0031" style="stroke: #A80036; stroke-width: 1.0;"/><!--MD5=[2e9d6dc6805e4203d48866f9d6e14e12]
link C_0001331923285602672865 to C_0000891208748219309562--><!--MD5=[cb4a4bde59ae5b18fadcb5a773c61c56]
link C_0001331923285602672865 to C_0000640258162892495349--><!--MD5=[4ee04b561a3477e106a4c7bfb61d4113]
link C_0000640258162892495349 to C_0001786360230161561276--><!--MD5=[ba8290cde0e6a8b5e4239d3555ee5870]
@startuml
title Common diagram model
class "decorated_element" as C_0001117102382624673118
class C_0001117102382624673118 [[classclanguml_1_1common_1_1model_1_1decorated__element.html{Base class for decorated diagram elements}]] {
__
}
class "stylable_element" as C_0002077846075979426940
class C_0002077846075979426940 [[classclanguml_1_1common_1_1model_1_1stylable__element.html{Diagram elements to which style can be applied.}]] {
__
}
class "path" as C_0000844837292165721774
class C_0000844837292165721774 [[classclanguml_1_1common_1_1model_1_1path.html{Diagram path}]] {
__
}
class "ns_path_separator" as C_0001331923285602672865
class C_0001331923285602672865 [[structclanguml_1_1common_1_1model_1_1ns__path__separator.html{ns_path_separator}]] {
__
}
class "relationship" as C_0002046336758797367926
class C_0002046336758797367926 [[classclanguml_1_1common_1_1model_1_1relationship.html{Class representing any relationship other than inheritance}]] {
__
}
class "source_location" as C_0000895261582183440230
class C_0000895261582183440230 [[classclanguml_1_1common_1_1model_1_1source__location.html{Base class of all diagram elements that have source location.}]] {
__
}
class "diagram_element" as C_0001073500714379115414
class C_0001073500714379115414 [[classclanguml_1_1common_1_1model_1_1diagram__element.html{Base class for standalone diagram elements.}]] {
__
}
class "context" as C_0000845978329661395972
class C_0000845978329661395972 [[structclanguml_1_1common_1_1model_1_1context.html{context}]] {
__
}
class "template_parameter" as C_0000178138562743079529
class C_0000178138562743079529 [[classclanguml_1_1common_1_1model_1_1template__parameter.html{Represents template parameter, template arguments or concept         constraints}]] {
__
}
class "nested_trait<T,Path>" as C_0000891208748219309562
class C_0000891208748219309562 [[classclanguml_1_1common_1_1model_1_1nested__trait.html{Base class for elements nested in the diagram.}]] {
__
}
class "fs_path_sep" as C_0000640258162892495349
class C_0000640258162892495349 [[structclanguml_1_1common_1_1model_1_1fs__path__sep.html{fs_path_sep}]] {
__
}
class "source_file" as C_0000785714713072053129
class C_0000785714713072053129 [[classclanguml_1_1common_1_1model_1_1source__file.html{Diagram element representing some file or directory.}]] {
__
}
class "diagram" as C_0000197068985320835874
class C_0000197068985320835874 [[classclanguml_1_1common_1_1model_1_1diagram.html{Base class for all diagram models}]] {
__
}
class "element" as C_0002069520381434407937
class C_0002069520381434407937 [[classclanguml_1_1common_1_1model_1_1element.html{Base class for any element qualified by namespace.}]] {
__
}
class "template_trait" as C_0000464715462505216589
class C_0000464715462505216589 [[classclanguml_1_1common_1_1model_1_1template__trait.html{Common interface for template diagram elements.}]] {
__
}
class "element_view<T>" as C_0001786360230161561276
class C_0001786360230161561276 [[classclanguml_1_1common_1_1model_1_1element__view.html{element_view}]] {
__
}
class "package" as C_0002143286684830686854
class C_0002143286684830686854 [[classclanguml_1_1common_1_1model_1_1package.html{Diagram element representing namespace or directory package}]] {
__
}
class "diagram_filter" as C_0002054140694270036745
class C_0002054140694270036745 [[classclanguml_1_1common_1_1model_1_1diagram__filter.html{Composite of all diagrams filters.}]] {
__
}
C_0001117102382624673118 <|- - C_0002046336758797367926
C_0002077846075979426940 <|- - C_0002046336758797367926
C_0001073500714379115414 o- - C_0002046336758797367926 : -relationships_
C_0001117102382624673118 <|- - C_0001073500714379115414
C_0000895261582183440230 <|- - C_0001073500714379115414
C_0000178138562743079529 o- - C_0000845978329661395972 : -context_
C_0000178138562743079529 o- - C_0000178138562743079529 : -template_params_
C_0000785714713072053129 o- - C_0000844837292165721774 : -path_
C_0001073500714379115414 <|- - C_0000785714713072053129
C_0002077846075979426940 <|- - C_0000785714713072053129
C_0000197068985320835874 o- - C_0002054140694270036745 : -filter_
C_0002069520381434407937 o- - C_0000844837292165721774 : -ns_
C_0002069520381434407937 o- - C_0000844837292165721774 : -using_namespace_
C_0001073500714379115414 <|- - C_0002069520381434407937
C_0000464715462505216589 o- - C_0000178138562743079529 : -templates_
C_0002069520381434407937 <|- - C_0002143286684830686854
C_0002077846075979426940 <|- - C_0002143286684830686854
C_0002054140694270036745 - -> C_0000197068985320835874 : -diagram_
note top of C_0000197068985320835874: Common class for specific diagram types

@enduml

PlantUML version 1.2020.02(Sun Mar 01 11:22:07 CET 2020)
(GPL source distribution)
Java Runtime: OpenJDK Runtime Environment
JVM: OpenJDK 64-Bit Server VM
Java Version: 11.0.20.1+1-post-Ubuntu-0ubuntu122.04
Operating System: Linux
Default Encoding: UTF-8
Language: en
Country: US
--></g></svg>