<?xml version="1.0" encoding="UTF-8" standalone="no"?><svg xmlns="http://www.w3.org/2000/svg" xmlns:xlink="http://www.w3.org/1999/xlink" contentScriptType="application/ecmascript" contentStyleType="text/css" height="195px" preserveAspectRatio="none" style="width:610px;height:195px;" version="1.1" viewBox="0 0 610 195" width="610px" zoomAndPan="magnify"><defs><filter height="300%" id="f10j0ubo5h7nfb" width="300%" x="-1" y="-1"><feGaussianBlur result="blurOut" stdDeviation="2.0"/><feColorMatrix in="blurOut" result="blurOut2" type="matrix" values="0 0 0 0 0 0 0 0 0 0 0 0 0 0 0 0 0 0 .4 0"/><feOffset dx="4.0" dy="4.0" in="blurOut2" result="blurOut3"/><feBlend in="SourceGraphic" in2="blurOut3" mode="normal"/></filter></defs><g><text fill="#000000" font-family="sans-serif" font-size="18" lengthAdjust="spacingAndGlyphs" textLength="284" x="166.5" y="16.708">Comment visitor class hierarchy</text><!--MD5=[0ad0f9a3fcbb583af4be36f32f3b8406]
class C_0000112824866232232463--><a href="classclanguml_1_1common_1_1visitor_1_1comment_1_1comment__visitor.html" target="_top" title="Base class for comment visitors" xlink:actuate="onRequest" xlink:href="classclanguml_1_1common_1_1visitor_1_1comment_1_1comment__visitor.html" xlink:show="new" xlink:title="Base class for comment visitors" xlink:type="simple"><rect fill="#FEFECE" filter="url(#f10j0ubo5h7nfb)" height="48" id="C_0000112824866232232463" style="stroke: #A80036; stroke-width: 1.5;" width="305" x="149" y="28.9531"/><ellipse cx="164" cy="44.9531" fill="#ADD1B2" rx="11" ry="11" style="stroke: #A80036; stroke-width: 1.0;"/><path d="M166.9688,50.5938 Q166.3906,50.8906 165.75,51.0313 Q165.1094,51.1875 164.4063,51.1875 Q161.9063,51.1875 160.5781,49.5469 Q159.2656,47.8906 159.2656,44.7656 Q159.2656,41.6406 160.5781,39.9844 Q161.9063,38.3281 164.4063,38.3281 Q165.1094,38.3281 165.75,38.4844 Q166.4063,38.6406 166.9688,38.9375 L166.9688,41.6563 Q166.3438,41.0781 165.75,40.8125 Q165.1563,40.5313 164.5313,40.5313 Q163.1875,40.5313 162.5,41.6094 Q161.8125,42.6719 161.8125,44.7656 Q161.8125,46.8594 162.5,47.9375 Q163.1875,49 164.5313,49 Q165.1563,49 165.75,48.7344 Q166.3438,48.4531 166.9688,47.875 L166.9688,50.5938 Z "/><text fill="#000000" font-family="sans-serif" font-size="12" lengthAdjust="spacingAndGlyphs" textLength="273" x="178" y="49.1074">common::visitor::comment::comment_visitor</text><line style="stroke: #A80036; stroke-width: 1.5;" x1="150" x2="453" y1="60.9531" y2="60.9531"/><line style="stroke: #A80036; stroke-width: 1.5;" x1="150" x2="453" y1="68.9531" y2="68.9531"/></a><!--MD5=[020112f98eb6fb1dd2529c3dd14d0b2f]
class C_0000744033767562618314--><a href="classclanguml_1_1common_1_1visitor_1_1comment_1_1plain__visitor.html" target="_top" title="Plain comment visitor which extracts raw and formatted comment." xlink:actuate="onRequest" xlink:href="classclanguml_1_1common_1_1visitor_1_1comment_1_1plain__visitor.html" xlink:show="new" xlink:title="Plain comment visitor which extracts raw and formatted comment." xlink:type="simple"><rect fill="#FEFECE" filter="url(#f10j0ubo5h7nfb)" height="48" id="C_0000744033767562618314" style="stroke: #A80036; stroke-width: 1.5;" width="277" x="6" y="136.9531"/><ellipse cx="21" cy="152.9531" fill="#ADD1B2" rx="11" ry="11" style="stroke: #A80036; stroke-width: 1.0;"/><path d="M23.9688,158.5938 Q23.3906,158.8906 22.75,159.0313 Q22.1094,159.1875 21.4063,159.1875 Q18.9063,159.1875 17.5781,157.5469 Q16.2656,155.8906 16.2656,152.7656 Q16.2656,149.6406 17.5781,147.9844 Q18.9063,146.3281 21.4063,146.3281 Q22.1094,146.3281 22.75,146.4844 Q23.4063,146.6406 23.9688,146.9375 L23.9688,149.6563 Q23.3438,149.0781 22.75,148.8125 Q22.1563,148.5313 21.5313,148.5313 Q20.1875,148.5313 19.5,149.6094 Q18.8125,150.6719 18.8125,152.7656 Q18.8125,154.8594 19.5,155.9375 Q20.1875,157 21.5313,157 Q22.1563,157 22.75,156.7344 Q23.3438,156.4531 23.9688,155.875 L23.9688,158.5938 Z "/><text fill="#000000" font-family="sans-serif" font-size="12" lengthAdjust="spacingAndGlyphs" textLength="245" x="35" y="157.1074">common::visitor::comment::plain_visitor</text><line style="stroke: #A80036; stroke-width: 1.5;" x1="7" x2="282" y1="168.9531" y2="168.9531"/><line style="stroke: #A80036; stroke-width: 1.5;" x1="7" x2="282" y1="176.9531" y2="176.9531"/></a><!--MD5=[07f7a0818a2eecef237f0adc7fcf66a1]
class C_0000311729333045621056--><a href="classclanguml_1_1common_1_1visitor_1_1comment_1_1clang__visitor.html" target="_top" title="Uses Clang's comment parser to extract Doxygen-style comment blocks." xlink:actuate="onRequest" xlink:href="classclanguml_1_1common_1_1visitor_1_1comment_1_1clang__visitor.html" xlink:show="new" xlink:title="Uses Clang's comment parser to extract Doxygen-style comment blocks." xlink:type="simple"><rect fill="#FEFECE" filter="url(#f10j0ubo5h7nfb)" height="48" id="C_0000311729333045621056" style="stroke: #A80036; stroke-width: 1.5;" width="281" x="318" y="136.9531"/><ellipse cx="333" cy="152.9531" fill="#ADD1B2" rx="11" ry="11" style="stroke: #A80036; stroke-width: 1.0;"/><path d="M335.9688,158.5938 Q335.3906,158.8906 334.75,159.0313 Q334.1094,159.1875 333.4063,159.1875 Q330.9063,159.1875 329.5781,157.5469 Q328.2656,155.8906 328.2656,152.7656 Q328.2656,149.6406 329.5781,147.9844 Q330.9063,146.3281 333.4063,146.3281 Q334.1094,146.3281 334.75,146.4844 Q335.4063,146.6406 335.9688,146.9375 L335.9688,149.6563 Q335.3438,149.0781 334.75,148.8125 Q334.1563,148.5313 333.5313,148.5313 Q332.1875,148.5313 331.5,149.6094 Q330.8125,150.6719 330.8125,152.7656 Q330.8125,154.8594 331.5,155.9375 Q332.1875,157 333.5313,157 Q334.1563,157 334.75,156.7344 Q335.3438,156.4531 335.9688,155.875 L335.9688,158.5938 Z "/><text fill="#000000" font-family="sans-serif" font-size="12" lengthAdjust="spacingAndGlyphs" textLength="249" x="347" y="157.1074">common::visitor::comment::clang_visitor</text><line style="stroke: #A80036; stroke-width: 1.5;" x1="319" x2="598" y1="168.9531" y2="168.9531"/><line style="stroke: #A80036; stroke-width: 1.5;" x1="319" x2="598" y1="176.9531" y2="176.9531"/></a><!--MD5=[fca0da2b20f19519f1395966c890074b]
reverse link C_0000112824866232232463 to C_0000744033767562618314--><path d="M250.73,88.2331 C227.19,104.1231 199.83,122.6031 178.77,136.8131 " fill="none" id="C_0000112824866232232463&lt;-C_0000744033767562618314" style="stroke: #A80036; stroke-width: 1.0;"/><polygon fill="none" points="246.94,82.3431,267.43,76.9531,254.77,93.9431,246.94,82.3431" style="stroke: #A80036; stroke-width: 1.0;"/><!--MD5=[7d40092015e3bb91a5cfd031352ae350]
reverse link C_0000112824866232232463 to C_0000311729333045621056--><path d="M352.27,88.2331 C375.81,104.1231 403.17,122.6031 424.23,136.8131 " fill="none" id="C_0000112824866232232463&lt;-C_0000311729333045621056" style="stroke: #A80036; stroke-width: 1.0;"/><polygon fill="none" points="348.23,93.9431,335.57,76.9531,356.06,82.3431,348.23,93.9431" style="stroke: #A80036; stroke-width: 1.0;"/><!--MD5=[33cd20a0a3d5a2834c9c18eac143cb6f]
@startuml
title Comment visitor class hierarchy
class "common::visitor::comment::comment_visitor" as C_0000112824866232232463
class C_0000112824866232232463 [[classclanguml_1_1common_1_1visitor_1_1comment_1_1comment__visitor.html{Base class for comment visitors}]] {
__
}
class "common::visitor::comment::plain_visitor" as C_0000744033767562618314
class C_0000744033767562618314 [[classclanguml_1_1common_1_1visitor_1_1comment_1_1plain__visitor.html{Plain comment visitor which extracts raw and formatted comment.}]] {
__
}
class "common::visitor::comment::clang_visitor" as C_0000311729333045621056
class C_0000311729333045621056 [[classclanguml_1_1common_1_1visitor_1_1comment_1_1clang__visitor.html{Uses Clang's comment parser to extract Doxygen-style comment blocks.}]] {
__
}
C_0000112824866232232463 <|- - C_0000744033767562618314
C_0000112824866232232463 <|- - C_0000311729333045621056

@enduml

PlantUML version 1.2020.02(Sun Mar 01 11:22:07 CET 2020)
(GPL source distribution)
Java Runtime: OpenJDK Runtime Environment
JVM: OpenJDK 64-Bit Server VM
Java Version: 11.0.20.1+1-post-Ubuntu-0ubuntu122.04
Operating System: Linux
Default Encoding: UTF-8
Language: en
Country: US
--></g></svg>