<?xml version="1.0" encoding="UTF-8" standalone="no"?><svg xmlns="http://www.w3.org/2000/svg" xmlns:xlink="http://www.w3.org/1999/xlink" contentScriptType="application/ecmascript" contentStyleType="text/css" height="452px" preserveAspectRatio="none" style="width:2664px;height:452px;" version="1.1" viewBox="0 0 2664 452" width="2664px" zoomAndPan="magnify"><defs><filter height="300%" id="f1piwmil4e5qf3" width="300%" x="-1" y="-1"><feGaussianBlur result="blurOut" stdDeviation="2.0"/><feColorMatrix in="blurOut" result="blurOut2" type="matrix" values="0 0 0 0 0 0 0 0 0 0 0 0 0 0 0 0 0 0 .4 0"/><feOffset dx="4.0" dy="4.0" in="blurOut2" result="blurOut3"/><feBlend in="SourceGraphic" in2="blurOut3" mode="normal"/></filter></defs><g><text fill="#000000" font-family="sans-serif" font-size="18" lengthAdjust="spacingAndGlyphs" textLength="315" x="1178.5" y="16.708">Diagram element decorators model</text><!--MD5=[b700785d949d291f1c00242e2ee1330e]
class C_0000532301235174338361--><a href="structclanguml_1_1decorators_1_1decorator__toks.html" target="_top" title="decorator_toks" xlink:actuate="onRequest" xlink:href="structclanguml_1_1decorators_1_1decorator__toks.html" xlink:show="new" xlink:title="decorator_toks" xlink:type="simple"><rect fill="#FEFECE" filter="url(#f1piwmil4e5qf3)" height="99.2188" id="C_0000532301235174338361" style="stroke: #A80036; stroke-width: 1.5;" width="230" x="6" y="208.9531"/><ellipse cx="69.25" cy="224.9531" fill="#ADD1B2" rx="11" ry="11" style="stroke: #A80036; stroke-width: 1.0;"/><path d="M72.2188,230.5938 Q71.6406,230.8906 71,231.0313 Q70.3594,231.1875 69.6563,231.1875 Q67.1563,231.1875 65.8281,229.5469 Q64.5156,227.8906 64.5156,224.7656 Q64.5156,221.6406 65.8281,219.9844 Q67.1563,218.3281 69.6563,218.3281 Q70.3594,218.3281 71,218.4844 Q71.6563,218.6406 72.2188,218.9375 L72.2188,221.6563 Q71.5938,221.0781 71,220.8125 Q70.4063,220.5313 69.7813,220.5313 Q68.4375,220.5313 67.75,221.6094 Q67.0625,222.6719 67.0625,224.7656 Q67.0625,226.8594 67.75,227.9375 Q68.4375,229 69.7813,229 Q70.4063,229 71,228.7344 Q71.5938,228.4531 72.2188,227.875 L72.2188,230.5938 Z "/><text fill="#000000" font-family="sans-serif" font-size="12" lengthAdjust="spacingAndGlyphs" textLength="95" x="89.75" y="229.1074">decorator_toks</text><line style="stroke: #A80036; stroke-width: 1.5;" x1="7" x2="235" y1="240.9531" y2="240.9531"/><line style="stroke: #A80036; stroke-width: 1.5;" x1="7" x2="235" y1="248.9531" y2="248.9531"/></a><a href="" target="_top" title="diagrams" xlink:actuate="onRequest" xlink:href="" xlink:show="new" xlink:title="diagrams" xlink:type="simple"><rect fill="#FEFECE" height="10" style="stroke: none; stroke-width: 1.0;" width="20" x="12" y="254.9531"/><ellipse cx="17" cy="259.9531" fill="none" rx="3" ry="3" style="stroke: #038048; stroke-width: 1.0;"/></a><a href="" target="_top" title="diagrams" xlink:actuate="onRequest" xlink:href="" xlink:show="new" xlink:title="diagrams" xlink:type="simple"><text fill="#000000" font-family="sans-serif" font-size="11" lengthAdjust="spacingAndGlyphs" textLength="204" x="26" y="263.1636">diagrams : std::vector&lt;std::string&gt;</text></a><a href="" target="_top" title="label" xlink:actuate="onRequest" xlink:href="" xlink:show="new" xlink:title="label" xlink:type="simple"><rect fill="#FEFECE" height="10" style="stroke: none; stroke-width: 1.0;" width="20" x="12" y="267.7578"/><ellipse cx="17" cy="272.7578" fill="none" rx="3" ry="3" style="stroke: #038048; stroke-width: 1.0;"/></a><a href="" target="_top" title="label" xlink:actuate="onRequest" xlink:href="" xlink:show="new" xlink:title="label" xlink:type="simple"><text fill="#000000" font-family="sans-serif" font-size="11" lengthAdjust="spacingAndGlyphs" textLength="98" x="26" y="275.9683">label : std::string</text></a><a href="" target="_top" title="param" xlink:actuate="onRequest" xlink:href="" xlink:show="new" xlink:title="param" xlink:type="simple"><rect fill="#FEFECE" height="10" style="stroke: none; stroke-width: 1.0;" width="20" x="12" y="280.5625"/><ellipse cx="17" cy="285.5625" fill="none" rx="3" ry="3" style="stroke: #038048; stroke-width: 1.0;"/></a><a href="" target="_top" title="param" xlink:actuate="onRequest" xlink:href="" xlink:show="new" xlink:title="param" xlink:type="simple"><text fill="#000000" font-family="sans-serif" font-size="11" lengthAdjust="spacingAndGlyphs" textLength="108" x="26" y="288.7729">param : std::string</text></a><a href="" target="_top" title="text" xlink:actuate="onRequest" xlink:href="" xlink:show="new" xlink:title="text" xlink:type="simple"><rect fill="#FEFECE" height="10" style="stroke: none; stroke-width: 1.0;" width="20" x="12" y="293.3672"/><ellipse cx="17" cy="298.3672" fill="none" rx="3" ry="3" style="stroke: #038048; stroke-width: 1.0;"/></a><a href="" target="_top" title="text" xlink:actuate="onRequest" xlink:href="" xlink:show="new" xlink:title="text" xlink:type="simple"><text fill="#000000" font-family="sans-serif" font-size="11" lengthAdjust="spacingAndGlyphs" textLength="92" x="26" y="301.5776">text : std::string</text></a><!--MD5=[d2309b870d61476bcf44dfb183611839]
class C_0001039481254924641333--><a href="structclanguml_1_1decorators_1_1decorator.html" target="_top" title="Base class for clang-uml comment tags" xlink:actuate="onRequest" xlink:href="structclanguml_1_1decorators_1_1decorator.html" xlink:show="new" xlink:title="Base class for clang-uml comment tags" xlink:type="simple"><rect fill="#FEFECE" filter="url(#f1piwmil4e5qf3)" height="120.0234" id="C_0001039481254924641333" style="stroke: #A80036; stroke-width: 1.5;" width="424" x="1470" y="28.9531"/><ellipse cx="1646.75" cy="44.9531" fill="#ADD1B2" rx="11" ry="11" style="stroke: #A80036; stroke-width: 1.0;"/><path d="M1649.7188,50.5938 Q1649.1406,50.8906 1648.5,51.0313 Q1647.8594,51.1875 1647.1563,51.1875 Q1644.6563,51.1875 1643.3281,49.5469 Q1642.0156,47.8906 1642.0156,44.7656 Q1642.0156,41.6406 1643.3281,39.9844 Q1644.6563,38.3281 1647.1563,38.3281 Q1647.8594,38.3281 1648.5,38.4844 Q1649.1563,38.6406 1649.7188,38.9375 L1649.7188,41.6563 Q1649.0938,41.0781 1648.5,40.8125 Q1647.9063,40.5313 1647.2813,40.5313 Q1645.9375,40.5313 1645.25,41.6094 Q1644.5625,42.6719 1644.5625,44.7656 Q1644.5625,46.8594 1645.25,47.9375 Q1645.9375,49 1647.2813,49 Q1647.9063,49 1648.5,48.7344 Q1649.0938,48.4531 1649.7188,47.875 L1649.7188,50.5938 Z "/><text fill="#000000" font-family="sans-serif" font-size="12" lengthAdjust="spacingAndGlyphs" textLength="62" x="1667.25" y="49.1074">decorator</text><line style="stroke: #A80036; stroke-width: 1.5;" x1="1471" x2="1893" y1="60.9531" y2="60.9531"/></a><a href="" target="_top" title="~decorator" xlink:actuate="onRequest" xlink:href="" xlink:show="new" xlink:title="~decorator" xlink:type="simple"><rect fill="#FEFECE" height="10" style="stroke: none; stroke-width: 1.0;" width="20" x="1476" y="66.9531"/><ellipse cx="1481" cy="71.9531" fill="#84BE84" rx="3" ry="3" style="stroke: #038048; stroke-width: 1.0;"/></a><a href="" target="_top" title="~decorator" xlink:actuate="onRequest" xlink:href="" xlink:show="new" xlink:title="~decorator" xlink:type="simple"><text fill="#000000" font-family="sans-serif" font-size="11" lengthAdjust="spacingAndGlyphs" textLength="163" x="1490" y="75.1636">~decorator() = default : void</text></a><line style="stroke: #A80036; stroke-width: 1.0; stroke-dasharray: 1.0,2.0;" x1="1471" x2="1893" y1="81.7578" y2="81.7578"/><a href="" target="_top" title="Check if decorator applies to a specific diagram." xlink:actuate="onRequest" xlink:href="" xlink:show="new" xlink:title="Check if decorator applies to a specific diagram." xlink:type="simple"><rect fill="#FEFECE" height="10" style="stroke: none; stroke-width: 1.0;" width="20" x="1476" y="87.7578"/><ellipse cx="1481" cy="92.7578" fill="#84BE84" rx="3" ry="3" style="stroke: #038048; stroke-width: 1.0;"/></a><a href="" target="_top" title="Check if decorator applies to a specific diagram." xlink:actuate="onRequest" xlink:href="" xlink:show="new" xlink:title="Check if decorator applies to a specific diagram." xlink:type="simple"><text fill="#000000" font-family="sans-serif" font-size="11" lengthAdjust="spacingAndGlyphs" textLength="299" x="1490" y="95.9683">applies_to_diagram(const std::string &amp; name) : bool</text></a><a href="" target="_top" title="Create decorator of specific type based on it's string         representation." xlink:actuate="onRequest" xlink:href="" xlink:show="new" xlink:title="Create decorator of specific type based on it's string         representation." xlink:type="simple"><rect fill="#FEFECE" height="10" style="stroke: none; stroke-width: 1.0;" width="20" x="1476" y="100.5625"/><ellipse cx="1481" cy="105.5625" fill="#84BE84" rx="3" ry="3" style="stroke: #038048; stroke-width: 1.0;"/></a><a href="" target="_top" title="Create decorator of specific type based on it's string         representation." xlink:actuate="onRequest" xlink:href="" xlink:show="new" xlink:title="Create decorator of specific type based on it's string         representation." xlink:type="simple"><text fill="#000000" font-family="sans-serif" font-size="11" lengthAdjust="spacingAndGlyphs" text-decoration="underline" textLength="347" x="1490" y="108.7729">from_string(std::string_view c) : std::shared_ptr&lt;decorator&gt;</text></a><a href="" target="_top" title="tokenize" xlink:actuate="onRequest" xlink:href="" xlink:show="new" xlink:title="tokenize" xlink:type="simple"><rect fill="#FEFECE" height="10" style="stroke: none; stroke-width: 1.0;" width="20" x="1476" y="113.3672"/><polygon fill="#FFFF44" points="1481,113.3672,1485,117.3672,1481,121.3672,1477,117.3672" style="stroke: #B38D22; stroke-width: 1.0;"/></a><a href="" target="_top" title="tokenize" xlink:actuate="onRequest" xlink:href="" xlink:show="new" xlink:title="tokenize" xlink:type="simple"><text fill="#000000" font-family="sans-serif" font-size="11" lengthAdjust="spacingAndGlyphs" textLength="398" x="1490" y="121.5776">tokenize(const std::string &amp; label, std::string_view c) : decorator_toks</text></a><line style="stroke: #A80036; stroke-width: 1.5;" x1="1471" x2="1893" y1="128.1719" y2="128.1719"/><a href="" target="_top" title="diagrams" xlink:actuate="onRequest" xlink:href="" xlink:show="new" xlink:title="diagrams" xlink:type="simple"><rect fill="#FEFECE" height="10" style="stroke: none; stroke-width: 1.0;" width="20" x="1476" y="134.1719"/><ellipse cx="1481" cy="139.1719" fill="none" rx="3" ry="3" style="stroke: #038048; stroke-width: 1.0;"/></a><a href="" target="_top" title="diagrams" xlink:actuate="onRequest" xlink:href="" xlink:show="new" xlink:title="diagrams" xlink:type="simple"><text fill="#000000" font-family="sans-serif" font-size="11" lengthAdjust="spacingAndGlyphs" textLength="204" x="1490" y="142.3823">diagrams : std::vector&lt;std::string&gt;</text></a><!--MD5=[bcca7414763362d6588d0928c2566108]
class C_0001347272482812804274--><a href="structclanguml_1_1decorators_1_1note.html" target="_top" title="Represents a note diagram element" xlink:actuate="onRequest" xlink:href="structclanguml_1_1decorators_1_1note.html" xlink:show="new" xlink:title="Represents a note diagram element" xlink:type="simple"><rect fill="#FEFECE" filter="url(#f1piwmil4e5qf3)" height="99.2188" id="C_0001347272482812804274" style="stroke: #A80036; stroke-width: 1.5;" width="373" x="271.5" y="208.9531"/><ellipse cx="439.25" cy="224.9531" fill="#ADD1B2" rx="11" ry="11" style="stroke: #A80036; stroke-width: 1.0;"/><path d="M442.2188,230.5938 Q441.6406,230.8906 441,231.0313 Q440.3594,231.1875 439.6563,231.1875 Q437.1563,231.1875 435.8281,229.5469 Q434.5156,227.8906 434.5156,224.7656 Q434.5156,221.6406 435.8281,219.9844 Q437.1563,218.3281 439.6563,218.3281 Q440.3594,218.3281 441,218.4844 Q441.6563,218.6406 442.2188,218.9375 L442.2188,221.6563 Q441.5938,221.0781 441,220.8125 Q440.4063,220.5313 439.7813,220.5313 Q438.4375,220.5313 437.75,221.6094 Q437.0625,222.6719 437.0625,224.7656 Q437.0625,226.8594 437.75,227.9375 Q438.4375,229 439.7813,229 Q440.4063,229 441,228.7344 Q441.5938,228.4531 442.2188,227.875 L442.2188,230.5938 Z "/><text fill="#000000" font-family="sans-serif" font-size="12" lengthAdjust="spacingAndGlyphs" textLength="29" x="459.75" y="229.1074">note</text><line style="stroke: #A80036; stroke-width: 1.5;" x1="272.5" x2="643.5" y1="240.9531" y2="240.9531"/></a><a href="" target="_top" title="from_string" xlink:actuate="onRequest" xlink:href="" xlink:show="new" xlink:title="from_string" xlink:type="simple"><rect fill="#FEFECE" height="10" style="stroke: none; stroke-width: 1.0;" width="20" x="277.5" y="246.9531"/><ellipse cx="282.5" cy="251.9531" fill="#84BE84" rx="3" ry="3" style="stroke: #038048; stroke-width: 1.0;"/></a><a href="" target="_top" title="from_string" xlink:actuate="onRequest" xlink:href="" xlink:show="new" xlink:title="from_string" xlink:type="simple"><text fill="#000000" font-family="sans-serif" font-size="11" lengthAdjust="spacingAndGlyphs" text-decoration="underline" textLength="347" x="291.5" y="255.1636">from_string(std::string_view c) : std::shared_ptr&lt;decorator&gt;</text></a><line style="stroke: #A80036; stroke-width: 1.5;" x1="272.5" x2="643.5" y1="261.7578" y2="261.7578"/><a href="" target="_top" title="label" xlink:actuate="onRequest" xlink:href="" xlink:show="new" xlink:title="label" xlink:type="simple"><rect fill="#FEFECE" height="10" style="stroke: none; stroke-width: 1.0;" width="20" x="277.5" y="267.7578"/><ellipse cx="282.5" cy="272.7578" fill="none" rx="3" ry="3" style="stroke: #038048; stroke-width: 1.0;"/></a><a href="" target="_top" title="label" xlink:actuate="onRequest" xlink:href="" xlink:show="new" xlink:title="label" xlink:type="simple"><text fill="#000000" font-family="sans-serif" font-size="11" lengthAdjust="spacingAndGlyphs" text-decoration="underline" textLength="133" x="291.5" y="275.9683">label : const std::string</text></a><a href="" target="_top" title="position" xlink:actuate="onRequest" xlink:href="" xlink:show="new" xlink:title="position" xlink:type="simple"><rect fill="#FEFECE" height="10" style="stroke: none; stroke-width: 1.0;" width="20" x="277.5" y="280.5625"/><ellipse cx="282.5" cy="285.5625" fill="none" rx="3" ry="3" style="stroke: #038048; stroke-width: 1.0;"/></a><a href="" target="_top" title="position" xlink:actuate="onRequest" xlink:href="" xlink:show="new" xlink:title="position" xlink:type="simple"><text fill="#000000" font-family="sans-serif" font-size="11" lengthAdjust="spacingAndGlyphs" textLength="116" x="291.5" y="288.7729">position : std::string</text></a><a href="" target="_top" title="text" xlink:actuate="onRequest" xlink:href="" xlink:show="new" xlink:title="text" xlink:type="simple"><rect fill="#FEFECE" height="10" style="stroke: none; stroke-width: 1.0;" width="20" x="277.5" y="293.3672"/><ellipse cx="282.5" cy="298.3672" fill="none" rx="3" ry="3" style="stroke: #038048; stroke-width: 1.0;"/></a><a href="" target="_top" title="text" xlink:actuate="onRequest" xlink:href="" xlink:show="new" xlink:title="text" xlink:type="simple"><text fill="#000000" font-family="sans-serif" font-size="11" lengthAdjust="spacingAndGlyphs" textLength="92" x="291.5" y="301.5776">text : std::string</text></a><!--MD5=[487adcd260595f5799be4d1865d37845]
class C_0001462474947254948682--><a href="structclanguml_1_1decorators_1_1skip.html" target="_top" title="Whether a decorated element should be skipped from a diagram" xlink:actuate="onRequest" xlink:href="structclanguml_1_1decorators_1_1skip.html" xlink:show="new" xlink:title="Whether a decorated element should be skipped from a diagram" xlink:type="simple"><rect fill="#FEFECE" filter="url(#f1piwmil4e5qf3)" height="73.6094" id="C_0001462474947254948682" style="stroke: #A80036; stroke-width: 1.5;" width="373" x="679.5" y="221.4531"/><ellipse cx="849.25" cy="237.4531" fill="#ADD1B2" rx="11" ry="11" style="stroke: #A80036; stroke-width: 1.0;"/><path d="M852.2188,243.0938 Q851.6406,243.3906 851,243.5313 Q850.3594,243.6875 849.6563,243.6875 Q847.1563,243.6875 845.8281,242.0469 Q844.5156,240.3906 844.5156,237.2656 Q844.5156,234.1406 845.8281,232.4844 Q847.1563,230.8281 849.6563,230.8281 Q850.3594,230.8281 851,230.9844 Q851.6563,231.1406 852.2188,231.4375 L852.2188,234.1563 Q851.5938,233.5781 851,233.3125 Q850.4063,233.0313 849.7813,233.0313 Q848.4375,233.0313 847.75,234.1094 Q847.0625,235.1719 847.0625,237.2656 Q847.0625,239.3594 847.75,240.4375 Q848.4375,241.5 849.7813,241.5 Q850.4063,241.5 851,241.2344 Q851.5938,240.9531 852.2188,240.375 L852.2188,243.0938 Z "/><text fill="#000000" font-family="sans-serif" font-size="12" lengthAdjust="spacingAndGlyphs" textLength="25" x="869.75" y="241.6074">skip</text><line style="stroke: #A80036; stroke-width: 1.5;" x1="680.5" x2="1051.5" y1="253.4531" y2="253.4531"/></a><a href="" target="_top" title="from_string" xlink:actuate="onRequest" xlink:href="" xlink:show="new" xlink:title="from_string" xlink:type="simple"><rect fill="#FEFECE" height="10" style="stroke: none; stroke-width: 1.0;" width="20" x="685.5" y="259.4531"/><ellipse cx="690.5" cy="264.4531" fill="#84BE84" rx="3" ry="3" style="stroke: #038048; stroke-width: 1.0;"/></a><a href="" target="_top" title="from_string" xlink:actuate="onRequest" xlink:href="" xlink:show="new" xlink:title="from_string" xlink:type="simple"><text fill="#000000" font-family="sans-serif" font-size="11" lengthAdjust="spacingAndGlyphs" text-decoration="underline" textLength="347" x="699.5" y="267.6636">from_string(std::string_view c) : std::shared_ptr&lt;decorator&gt;</text></a><line style="stroke: #A80036; stroke-width: 1.5;" x1="680.5" x2="1051.5" y1="274.2578" y2="274.2578"/><a href="" target="_top" title="label" xlink:actuate="onRequest" xlink:href="" xlink:show="new" xlink:title="label" xlink:type="simple"><rect fill="#FEFECE" height="10" style="stroke: none; stroke-width: 1.0;" width="20" x="685.5" y="280.2578"/><ellipse cx="690.5" cy="285.2578" fill="none" rx="3" ry="3" style="stroke: #038048; stroke-width: 1.0;"/></a><a href="" target="_top" title="label" xlink:actuate="onRequest" xlink:href="" xlink:show="new" xlink:title="label" xlink:type="simple"><text fill="#000000" font-family="sans-serif" font-size="11" lengthAdjust="spacingAndGlyphs" text-decoration="underline" textLength="133" x="699.5" y="288.4683">label : const std::string</text></a><!--MD5=[06f4cb97d1b7c80a67cd1b52a4eae9fc]
class C_0000685427930366073750--><a href="structclanguml_1_1decorators_1_1skip__relationship.html" target="_top" title="Whether a decorated relationships should be skipped from a diagram" xlink:actuate="onRequest" xlink:href="structclanguml_1_1decorators_1_1skip__relationship.html" xlink:show="new" xlink:title="Whether a decorated relationships should be skipped from a diagram" xlink:type="simple"><rect fill="#FEFECE" filter="url(#f1piwmil4e5qf3)" height="73.6094" id="C_0000685427930366073750" style="stroke: #A80036; stroke-width: 1.5;" width="373" x="1087.5" y="221.4531"/><ellipse cx="1217.25" cy="237.4531" fill="#ADD1B2" rx="11" ry="11" style="stroke: #A80036; stroke-width: 1.0;"/><path d="M1220.2188,243.0938 Q1219.6406,243.3906 1219,243.5313 Q1218.3594,243.6875 1217.6563,243.6875 Q1215.1563,243.6875 1213.8281,242.0469 Q1212.5156,240.3906 1212.5156,237.2656 Q1212.5156,234.1406 1213.8281,232.4844 Q1215.1563,230.8281 1217.6563,230.8281 Q1218.3594,230.8281 1219,230.9844 Q1219.6563,231.1406 1220.2188,231.4375 L1220.2188,234.1563 Q1219.5938,233.5781 1219,233.3125 Q1218.4063,233.0313 1217.7813,233.0313 Q1216.4375,233.0313 1215.75,234.1094 Q1215.0625,235.1719 1215.0625,237.2656 Q1215.0625,239.3594 1215.75,240.4375 Q1216.4375,241.5 1217.7813,241.5 Q1218.4063,241.5 1219,241.2344 Q1219.5938,240.9531 1220.2188,240.375 L1220.2188,243.0938 Z "/><text fill="#000000" font-family="sans-serif" font-size="12" lengthAdjust="spacingAndGlyphs" textLength="105" x="1237.75" y="241.6074">skip_relationship</text><line style="stroke: #A80036; stroke-width: 1.5;" x1="1088.5" x2="1459.5" y1="253.4531" y2="253.4531"/></a><a href="" target="_top" title="from_string" xlink:actuate="onRequest" xlink:href="" xlink:show="new" xlink:title="from_string" xlink:type="simple"><rect fill="#FEFECE" height="10" style="stroke: none; stroke-width: 1.0;" width="20" x="1093.5" y="259.4531"/><ellipse cx="1098.5" cy="264.4531" fill="#84BE84" rx="3" ry="3" style="stroke: #038048; stroke-width: 1.0;"/></a><a href="" target="_top" title="from_string" xlink:actuate="onRequest" xlink:href="" xlink:show="new" xlink:title="from_string" xlink:type="simple"><text fill="#000000" font-family="sans-serif" font-size="11" lengthAdjust="spacingAndGlyphs" text-decoration="underline" textLength="347" x="1107.5" y="267.6636">from_string(std::string_view c) : std::shared_ptr&lt;decorator&gt;</text></a><line style="stroke: #A80036; stroke-width: 1.5;" x1="1088.5" x2="1459.5" y1="274.2578" y2="274.2578"/><a href="" target="_top" title="label" xlink:actuate="onRequest" xlink:href="" xlink:show="new" xlink:title="label" xlink:type="simple"><rect fill="#FEFECE" height="10" style="stroke: none; stroke-width: 1.0;" width="20" x="1093.5" y="280.2578"/><ellipse cx="1098.5" cy="285.2578" fill="none" rx="3" ry="3" style="stroke: #038048; stroke-width: 1.0;"/></a><a href="" target="_top" title="label" xlink:actuate="onRequest" xlink:href="" xlink:show="new" xlink:title="label" xlink:type="simple"><text fill="#000000" font-family="sans-serif" font-size="11" lengthAdjust="spacingAndGlyphs" text-decoration="underline" textLength="133" x="1107.5" y="288.4683">label : const std::string</text></a><!--MD5=[140975e1c95ca4de23ce15cbae34878a]
class C_0000116269747867995555--><a href="structclanguml_1_1decorators_1_1style.html" target="_top" title="Apply specific style to a decorated diagram element" xlink:actuate="onRequest" xlink:href="structclanguml_1_1decorators_1_1style.html" xlink:show="new" xlink:title="Apply specific style to a decorated diagram element" xlink:type="simple"><rect fill="#FEFECE" filter="url(#f1piwmil4e5qf3)" height="86.4141" id="C_0000116269747867995555" style="stroke: #A80036; stroke-width: 1.5;" width="373" x="1495.5" y="215.4531"/><ellipse cx="1663.25" cy="231.4531" fill="#ADD1B2" rx="11" ry="11" style="stroke: #A80036; stroke-width: 1.0;"/><path d="M1666.2188,237.0938 Q1665.6406,237.3906 1665,237.5313 Q1664.3594,237.6875 1663.6563,237.6875 Q1661.1563,237.6875 1659.8281,236.0469 Q1658.5156,234.3906 1658.5156,231.2656 Q1658.5156,228.1406 1659.8281,226.4844 Q1661.1563,224.8281 1663.6563,224.8281 Q1664.3594,224.8281 1665,224.9844 Q1665.6563,225.1406 1666.2188,225.4375 L1666.2188,228.1563 Q1665.5938,227.5781 1665,227.3125 Q1664.4063,227.0313 1663.7813,227.0313 Q1662.4375,227.0313 1661.75,228.1094 Q1661.0625,229.1719 1661.0625,231.2656 Q1661.0625,233.3594 1661.75,234.4375 Q1662.4375,235.5 1663.7813,235.5 Q1664.4063,235.5 1665,235.2344 Q1665.5938,234.9531 1666.2188,234.375 L1666.2188,237.0938 Z "/><text fill="#000000" font-family="sans-serif" font-size="12" lengthAdjust="spacingAndGlyphs" textLength="29" x="1683.75" y="235.6074">style</text><line style="stroke: #A80036; stroke-width: 1.5;" x1="1496.5" x2="1867.5" y1="247.4531" y2="247.4531"/></a><a href="" target="_top" title="from_string" xlink:actuate="onRequest" xlink:href="" xlink:show="new" xlink:title="from_string" xlink:type="simple"><rect fill="#FEFECE" height="10" style="stroke: none; stroke-width: 1.0;" width="20" x="1501.5" y="253.4531"/><ellipse cx="1506.5" cy="258.4531" fill="#84BE84" rx="3" ry="3" style="stroke: #038048; stroke-width: 1.0;"/></a><a href="" target="_top" title="from_string" xlink:actuate="onRequest" xlink:href="" xlink:show="new" xlink:title="from_string" xlink:type="simple"><text fill="#000000" font-family="sans-serif" font-size="11" lengthAdjust="spacingAndGlyphs" text-decoration="underline" textLength="347" x="1515.5" y="261.6636">from_string(std::string_view c) : std::shared_ptr&lt;decorator&gt;</text></a><line style="stroke: #A80036; stroke-width: 1.5;" x1="1496.5" x2="1867.5" y1="268.2578" y2="268.2578"/><a href="" target="_top" title="label" xlink:actuate="onRequest" xlink:href="" xlink:show="new" xlink:title="label" xlink:type="simple"><rect fill="#FEFECE" height="10" style="stroke: none; stroke-width: 1.0;" width="20" x="1501.5" y="274.2578"/><ellipse cx="1506.5" cy="279.2578" fill="none" rx="3" ry="3" style="stroke: #038048; stroke-width: 1.0;"/></a><a href="" target="_top" title="label" xlink:actuate="onRequest" xlink:href="" xlink:show="new" xlink:title="label" xlink:type="simple"><text fill="#000000" font-family="sans-serif" font-size="11" lengthAdjust="spacingAndGlyphs" text-decoration="underline" textLength="133" x="1515.5" y="282.4683">label : const std::string</text></a><a href="" target="_top" title="spec" xlink:actuate="onRequest" xlink:href="" xlink:show="new" xlink:title="spec" xlink:type="simple"><rect fill="#FEFECE" height="10" style="stroke: none; stroke-width: 1.0;" width="20" x="1501.5" y="287.0625"/><ellipse cx="1506.5" cy="292.0625" fill="none" rx="3" ry="3" style="stroke: #038048; stroke-width: 1.0;"/></a><a href="" target="_top" title="spec" xlink:actuate="onRequest" xlink:href="" xlink:show="new" xlink:title="spec" xlink:type="simple"><text fill="#000000" font-family="sans-serif" font-size="11" lengthAdjust="spacingAndGlyphs" textLength="98" x="1515.5" y="295.2729">spec : std::string</text></a><!--MD5=[98f20d24ab24f92954802d5334374bcd]
class C_0001576276283144132872--><a href="structclanguml_1_1decorators_1_1relationship.html" target="_top" title="Base class for decorators overriding default relationship types" xlink:actuate="onRequest" xlink:href="structclanguml_1_1decorators_1_1relationship.html" xlink:show="new" xlink:title="Base class for decorators overriding default relationship types" xlink:type="simple"><rect fill="#FEFECE" filter="url(#f1piwmil4e5qf3)" height="60.8047" id="C_0001576276283144132872" style="stroke: #A80036; stroke-width: 1.5;" width="157" x="2046.5" y="227.9531"/><ellipse cx="2084.45" cy="243.9531" fill="#ADD1B2" rx="11" ry="11" style="stroke: #A80036; stroke-width: 1.0;"/><path d="M2087.4188,249.5938 Q2086.8406,249.8906 2086.2,250.0313 Q2085.5594,250.1875 2084.8563,250.1875 Q2082.3563,250.1875 2081.0281,248.5469 Q2079.7156,246.8906 2079.7156,243.7656 Q2079.7156,240.6406 2081.0281,238.9844 Q2082.3563,237.3281 2084.8563,237.3281 Q2085.5594,237.3281 2086.2,237.4844 Q2086.8563,237.6406 2087.4188,237.9375 L2087.4188,240.6563 Q2086.7938,240.0781 2086.2,239.8125 Q2085.6063,239.5313 2084.9813,239.5313 Q2083.6375,239.5313 2082.95,240.6094 Q2082.2625,241.6719 2082.2625,243.7656 Q2082.2625,245.8594 2082.95,246.9375 Q2083.6375,248 2084.9813,248 Q2085.6063,248 2086.2,247.7344 Q2086.7938,247.4531 2087.4188,246.875 L2087.4188,249.5938 Z "/><text fill="#000000" font-family="sans-serif" font-size="12" lengthAdjust="spacingAndGlyphs" textLength="74" x="2103.55" y="248.1074">relationship</text><line style="stroke: #A80036; stroke-width: 1.5;" x1="2047.5" x2="2202.5" y1="259.9531" y2="259.9531"/><line style="stroke: #A80036; stroke-width: 1.5;" x1="2047.5" x2="2202.5" y1="267.9531" y2="267.9531"/></a><a href="" target="_top" title="multiplicity" xlink:actuate="onRequest" xlink:href="" xlink:show="new" xlink:title="multiplicity" xlink:type="simple"><rect fill="#FEFECE" height="10" style="stroke: none; stroke-width: 1.0;" width="20" x="2052.5" y="273.9531"/><ellipse cx="2057.5" cy="278.9531" fill="none" rx="3" ry="3" style="stroke: #038048; stroke-width: 1.0;"/></a><a href="" target="_top" title="multiplicity" xlink:actuate="onRequest" xlink:href="" xlink:show="new" xlink:title="multiplicity" xlink:type="simple"><text fill="#000000" font-family="sans-serif" font-size="11" lengthAdjust="spacingAndGlyphs" textLength="131" x="2066.5" y="282.1636">multiplicity : std::string</text></a><!--MD5=[72dfb194bd48fc14a809aaa70da084ff]
class C_0000175979950567138488--><a href="structclanguml_1_1decorators_1_1aggregation.html" target="_top" title="Make a member an aggregation relationship" xlink:actuate="onRequest" xlink:href="structclanguml_1_1decorators_1_1aggregation.html" xlink:show="new" xlink:title="Make a member an aggregation relationship" xlink:type="simple"><rect fill="#FEFECE" filter="url(#f1piwmil4e5qf3)" height="73.6094" id="C_0000175979950567138488" style="stroke: #A80036; stroke-width: 1.5;" width="373" x="1464.5" y="367.9531"/><ellipse cx="1608.25" cy="383.9531" fill="#ADD1B2" rx="11" ry="11" style="stroke: #A80036; stroke-width: 1.0;"/><path d="M1611.2188,389.5938 Q1610.6406,389.8906 1610,390.0313 Q1609.3594,390.1875 1608.6563,390.1875 Q1606.1563,390.1875 1604.8281,388.5469 Q1603.5156,386.8906 1603.5156,383.7656 Q1603.5156,380.6406 1604.8281,378.9844 Q1606.1563,377.3281 1608.6563,377.3281 Q1609.3594,377.3281 1610,377.4844 Q1610.6563,377.6406 1611.2188,377.9375 L1611.2188,380.6563 Q1610.5938,380.0781 1610,379.8125 Q1609.4063,379.5313 1608.7813,379.5313 Q1607.4375,379.5313 1606.75,380.6094 Q1606.0625,381.6719 1606.0625,383.7656 Q1606.0625,385.8594 1606.75,386.9375 Q1607.4375,388 1608.7813,388 Q1609.4063,388 1610,387.7344 Q1610.5938,387.4531 1611.2188,386.875 L1611.2188,389.5938 Z "/><text fill="#000000" font-family="sans-serif" font-size="12" lengthAdjust="spacingAndGlyphs" textLength="77" x="1628.75" y="388.1074">aggregation</text><line style="stroke: #A80036; stroke-width: 1.5;" x1="1465.5" x2="1836.5" y1="399.9531" y2="399.9531"/></a><a href="" target="_top" title="from_string" xlink:actuate="onRequest" xlink:href="" xlink:show="new" xlink:title="from_string" xlink:type="simple"><rect fill="#FEFECE" height="10" style="stroke: none; stroke-width: 1.0;" width="20" x="1470.5" y="405.9531"/><ellipse cx="1475.5" cy="410.9531" fill="#84BE84" rx="3" ry="3" style="stroke: #038048; stroke-width: 1.0;"/></a><a href="" target="_top" title="from_string" xlink:actuate="onRequest" xlink:href="" xlink:show="new" xlink:title="from_string" xlink:type="simple"><text fill="#000000" font-family="sans-serif" font-size="11" lengthAdjust="spacingAndGlyphs" text-decoration="underline" textLength="347" x="1484.5" y="414.1636">from_string(std::string_view c) : std::shared_ptr&lt;decorator&gt;</text></a><line style="stroke: #A80036; stroke-width: 1.5;" x1="1465.5" x2="1836.5" y1="420.7578" y2="420.7578"/><a href="" target="_top" title="label" xlink:actuate="onRequest" xlink:href="" xlink:show="new" xlink:title="label" xlink:type="simple"><rect fill="#FEFECE" height="10" style="stroke: none; stroke-width: 1.0;" width="20" x="1470.5" y="426.7578"/><ellipse cx="1475.5" cy="431.7578" fill="none" rx="3" ry="3" style="stroke: #038048; stroke-width: 1.0;"/></a><a href="" target="_top" title="label" xlink:actuate="onRequest" xlink:href="" xlink:show="new" xlink:title="label" xlink:type="simple"><text fill="#000000" font-family="sans-serif" font-size="11" lengthAdjust="spacingAndGlyphs" text-decoration="underline" textLength="133" x="1484.5" y="434.9683">label : const std::string</text></a><!--MD5=[e3960d822491529fed271017f81f17eb]
class C_0001028911016492067053--><a href="structclanguml_1_1decorators_1_1composition.html" target="_top" title="Make a member a composition relationship" xlink:actuate="onRequest" xlink:href="structclanguml_1_1decorators_1_1composition.html" xlink:show="new" xlink:title="Make a member a composition relationship" xlink:type="simple"><rect fill="#FEFECE" filter="url(#f1piwmil4e5qf3)" height="73.6094" id="C_0001028911016492067053" style="stroke: #A80036; stroke-width: 1.5;" width="373" x="1872.5" y="367.9531"/><ellipse cx="2016.75" cy="383.9531" fill="#ADD1B2" rx="11" ry="11" style="stroke: #A80036; stroke-width: 1.0;"/><path d="M2019.7188,389.5938 Q2019.1406,389.8906 2018.5,390.0313 Q2017.8594,390.1875 2017.1563,390.1875 Q2014.6563,390.1875 2013.3281,388.5469 Q2012.0156,386.8906 2012.0156,383.7656 Q2012.0156,380.6406 2013.3281,378.9844 Q2014.6563,377.3281 2017.1563,377.3281 Q2017.8594,377.3281 2018.5,377.4844 Q2019.1563,377.6406 2019.7188,377.9375 L2019.7188,380.6563 Q2019.0938,380.0781 2018.5,379.8125 Q2017.9063,379.5313 2017.2813,379.5313 Q2015.9375,379.5313 2015.25,380.6094 Q2014.5625,381.6719 2014.5625,383.7656 Q2014.5625,385.8594 2015.25,386.9375 Q2015.9375,388 2017.2813,388 Q2017.9063,388 2018.5,387.7344 Q2019.0938,387.4531 2019.7188,386.875 L2019.7188,389.5938 Z "/><text fill="#000000" font-family="sans-serif" font-size="12" lengthAdjust="spacingAndGlyphs" textLength="76" x="2037.25" y="388.1074">composition</text><line style="stroke: #A80036; stroke-width: 1.5;" x1="1873.5" x2="2244.5" y1="399.9531" y2="399.9531"/></a><a href="" target="_top" title="from_string" xlink:actuate="onRequest" xlink:href="" xlink:show="new" xlink:title="from_string" xlink:type="simple"><rect fill="#FEFECE" height="10" style="stroke: none; stroke-width: 1.0;" width="20" x="1878.5" y="405.9531"/><ellipse cx="1883.5" cy="410.9531" fill="#84BE84" rx="3" ry="3" style="stroke: #038048; stroke-width: 1.0;"/></a><a href="" target="_top" title="from_string" xlink:actuate="onRequest" xlink:href="" xlink:show="new" xlink:title="from_string" xlink:type="simple"><text fill="#000000" font-family="sans-serif" font-size="11" lengthAdjust="spacingAndGlyphs" text-decoration="underline" textLength="347" x="1892.5" y="414.1636">from_string(std::string_view c) : std::shared_ptr&lt;decorator&gt;</text></a><line style="stroke: #A80036; stroke-width: 1.5;" x1="1873.5" x2="2244.5" y1="420.7578" y2="420.7578"/><a href="" target="_top" title="label" xlink:actuate="onRequest" xlink:href="" xlink:show="new" xlink:title="label" xlink:type="simple"><rect fill="#FEFECE" height="10" style="stroke: none; stroke-width: 1.0;" width="20" x="1878.5" y="426.7578"/><ellipse cx="1883.5" cy="431.7578" fill="none" rx="3" ry="3" style="stroke: #038048; stroke-width: 1.0;"/></a><a href="" target="_top" title="label" xlink:actuate="onRequest" xlink:href="" xlink:show="new" xlink:title="label" xlink:type="simple"><text fill="#000000" font-family="sans-serif" font-size="11" lengthAdjust="spacingAndGlyphs" text-decoration="underline" textLength="133" x="1892.5" y="434.9683">label : const std::string</text></a><!--MD5=[cbbb34a4b7f8ffa09295cdf2f40caf6a]
class C_0001534243399456949265--><a href="structclanguml_1_1decorators_1_1association.html" target="_top" title="Make a member an association relationship" xlink:actuate="onRequest" xlink:href="structclanguml_1_1decorators_1_1association.html" xlink:show="new" xlink:title="Make a member an association relationship" xlink:type="simple"><rect fill="#FEFECE" filter="url(#f1piwmil4e5qf3)" height="73.6094" id="C_0001534243399456949265" style="stroke: #A80036; stroke-width: 1.5;" width="373" x="2280.5" y="367.9531"/><ellipse cx="2426.75" cy="383.9531" fill="#ADD1B2" rx="11" ry="11" style="stroke: #A80036; stroke-width: 1.0;"/><path d="M2429.7188,389.5938 Q2429.1406,389.8906 2428.5,390.0313 Q2427.8594,390.1875 2427.1563,390.1875 Q2424.6563,390.1875 2423.3281,388.5469 Q2422.0156,386.8906 2422.0156,383.7656 Q2422.0156,380.6406 2423.3281,378.9844 Q2424.6563,377.3281 2427.1563,377.3281 Q2427.8594,377.3281 2428.5,377.4844 Q2429.1563,377.6406 2429.7188,377.9375 L2429.7188,380.6563 Q2429.0938,380.0781 2428.5,379.8125 Q2427.9063,379.5313 2427.2813,379.5313 Q2425.9375,379.5313 2425.25,380.6094 Q2424.5625,381.6719 2424.5625,383.7656 Q2424.5625,385.8594 2425.25,386.9375 Q2425.9375,388 2427.2813,388 Q2427.9063,388 2428.5,387.7344 Q2429.0938,387.4531 2429.7188,386.875 L2429.7188,389.5938 Z "/><text fill="#000000" font-family="sans-serif" font-size="12" lengthAdjust="spacingAndGlyphs" textLength="72" x="2447.25" y="388.1074">association</text><line style="stroke: #A80036; stroke-width: 1.5;" x1="2281.5" x2="2652.5" y1="399.9531" y2="399.9531"/></a><a href="" target="_top" title="from_string" xlink:actuate="onRequest" xlink:href="" xlink:show="new" xlink:title="from_string" xlink:type="simple"><rect fill="#FEFECE" height="10" style="stroke: none; stroke-width: 1.0;" width="20" x="2286.5" y="405.9531"/><ellipse cx="2291.5" cy="410.9531" fill="#84BE84" rx="3" ry="3" style="stroke: #038048; stroke-width: 1.0;"/></a><a href="" target="_top" title="from_string" xlink:actuate="onRequest" xlink:href="" xlink:show="new" xlink:title="from_string" xlink:type="simple"><text fill="#000000" font-family="sans-serif" font-size="11" lengthAdjust="spacingAndGlyphs" text-decoration="underline" textLength="347" x="2300.5" y="414.1636">from_string(std::string_view c) : std::shared_ptr&lt;decorator&gt;</text></a><line style="stroke: #A80036; stroke-width: 1.5;" x1="2281.5" x2="2652.5" y1="420.7578" y2="420.7578"/><a href="" target="_top" title="label" xlink:actuate="onRequest" xlink:href="" xlink:show="new" xlink:title="label" xlink:type="simple"><rect fill="#FEFECE" height="10" style="stroke: none; stroke-width: 1.0;" width="20" x="2286.5" y="426.7578"/><ellipse cx="2291.5" cy="431.7578" fill="none" rx="3" ry="3" style="stroke: #038048; stroke-width: 1.0;"/></a><a href="" target="_top" title="label" xlink:actuate="onRequest" xlink:href="" xlink:show="new" xlink:title="label" xlink:type="simple"><text fill="#000000" font-family="sans-serif" font-size="11" lengthAdjust="spacingAndGlyphs" text-decoration="underline" textLength="133" x="2300.5" y="434.9683">label : const std::string</text></a><!--MD5=[2bf2f99fb24c4edbad1350492e7dcef4]
link C_0001039481254924641333 to C_0000532301235174338361--><path d="M1469.78,90.1031 C1188.55,94.2631 678.44,115.6431 254,208.9531 C249.77,209.8831 245.5,210.9131 241.2,212.0231 " fill="none" id="C_0001039481254924641333-&gt;C_0000532301235174338361" style="stroke: #A80036; stroke-width: 1.0; stroke-dasharray: 7.0,7.0;"/><polygon fill="#A80036" points="236.15,213.3731,245.8762,214.9227,240.9816,212.0866,243.8177,207.192,236.15,213.3731" style="stroke: #A80036; stroke-width: 1.0;"/><!--MD5=[76fecc400b69a81d2c039c791e1cdb4b]
reverse link C_0001039481254924641333 to C_0001347272482812804274--><path d="M1449.91,109.2131 C1242.43,128.2831 930.59,161.5231 662,208.9531 C656.26,209.9631 650.45,211.0431 644.59,212.1731 " fill="none" id="C_0001039481254924641333&lt;-C_0001347272482812804274" style="stroke: #A80036; stroke-width: 1.0;"/><polygon fill="none" points="1449.41,102.2331,1469.97,107.3831,1450.69,116.1731,1449.41,102.2331" style="stroke: #A80036; stroke-width: 1.0;"/><!--MD5=[a19d977bd9b6a447cbb73e6147936d06]
reverse link C_0001039481254924641333 to C_0001462474947254948682--><path d="M1449.86,132.7531 C1335.28,154.4631 1195.14,181.9231 1070,208.9531 C1051.94,212.8531 1033.03,217.1131 1014.3,221.4331 " fill="none" id="C_0001039481254924641333&lt;-C_0001462474947254948682" style="stroke: #A80036; stroke-width: 1.0;"/><polygon fill="none" points="1448.89,125.8131,1469.84,128.9731,1451.49,139.5631,1448.89,125.8131" style="stroke: #A80036; stroke-width: 1.0;"/><!--MD5=[6f8b56d6732e2974206eef7e7151352d]
reverse link C_0001039481254924641333 to C_0000685427930366073750--><path d="M1519.32,156.7431 C1465.51,178.8331 1407.7,202.5631 1361.73,221.4331 " fill="none" id="C_0001039481254924641333&lt;-C_0000685427930366073750" style="stroke: #A80036; stroke-width: 1.0;"/><polygon fill="none" points="1516.99,150.1231,1538.15,149.0031,1522.31,163.0831,1516.99,150.1231" style="stroke: #A80036; stroke-width: 1.0;"/><!--MD5=[e6dd79bef78f9c3c9b11165c0753a5fd]
reverse link C_0001039481254924641333 to C_0000116269747867995555--><path d="M1682,169.2131 C1682,185.1031 1682,201.2031 1682,215.2331 " fill="none" id="C_0001039481254924641333&lt;-C_0000116269747867995555" style="stroke: #A80036; stroke-width: 1.0;"/><polygon fill="none" points="1675,169.0031,1682,149.0031,1689,169.0031,1675,169.0031" style="stroke: #A80036; stroke-width: 1.0;"/><!--MD5=[7e4eb62d232577b9b971ef174e31081a]
reverse link C_0001039481254924641333 to C_0001576276283144132872--><path d="M1877.96,155.8131 C1924.49,172.3631 1973.75,190.6531 2019,208.9531 C2033.35,214.7531 2048.59,221.4231 2062.91,227.9131 " fill="none" id="C_0001039481254924641333&lt;-C_0001576276283144132872" style="stroke: #A80036; stroke-width: 1.0;"/><polygon fill="none" points="1875.42,162.3331,1858.9,149.0731,1880.09,149.1331,1875.42,162.3331" style="stroke: #A80036; stroke-width: 1.0;"/><!--MD5=[993e3a1529c8042cce387ca65dc1bfd2]
link C_0000175979950567138488 to C_0001039481254924641333--><path d="M1812.07,367.8631 C1841.24,353.9431 1868.06,334.6631 1886,307.9531 C1910.53,271.4331 1907.91,247.1031 1886,208.9531 C1872.98,186.2831 1853.8,167.5331 1832.32,152.1431 " fill="none" id="C_0000175979950567138488-&gt;C_0001039481254924641333" style="stroke: #A80036; stroke-width: 1.0; stroke-dasharray: 7.0,7.0;"/><polygon fill="#A80036" points="1828,149.1131,1833.0773,157.5524,1832.0955,151.9814,1837.6665,150.9996,1828,149.1131" style="stroke: #A80036; stroke-width: 1.0;"/><!--MD5=[a3eee9c1bc499e4541b24f72c71ccdb4]
reverse link C_0001576276283144132872 to C_0000175979950567138488--><path d="M2027.12,289.2931 C1952.26,312.1131 1848.73,343.6731 1769.24,367.9031 " fill="none" id="C_0001576276283144132872&lt;-C_0000175979950567138488" style="stroke: #A80036; stroke-width: 1.0;"/><polygon fill="none" points="2025.29,282.5331,2046.46,283.3931,2029.37,295.9231,2025.29,282.5331" style="stroke: #A80036; stroke-width: 1.0;"/><!--MD5=[53f145f4677d6903e1ebf340ea43fe6b]
link C_0001028911016492067053 to C_0001039481254924641333--><path d="M2040.67,367.8731 C2017.57,325.3531 1974.38,254.6931 1921,208.9531 C1895.17,186.8231 1864.5,167.5931 1833.9,151.4331 " fill="none" id="C_0001028911016492067053-&gt;C_0001039481254924641333" style="stroke: #A80036; stroke-width: 1.0; stroke-dasharray: 7.0,7.0;"/><polygon fill="#A80036" points="1829.39,149.0731,1835.5139,156.7866,1833.8214,151.3889,1839.2191,149.6964,1829.39,149.0731" style="stroke: #A80036; stroke-width: 1.0;"/><!--MD5=[e8a68b6f1244f1050ea9b0686c0cf722]
reverse link C_0001576276283144132872 to C_0001028911016492067053--><path d="M2103.04,307.5331 C2094.07,327.1831 2083.86,349.5231 2075.54,367.7431 " fill="none" id="C_0001576276283144132872&lt;-C_0001028911016492067053" style="stroke: #A80036; stroke-width: 1.0;"/><polygon fill="none" points="2096.81,304.3231,2111.48,289.0431,2109.54,310.1431,2096.81,304.3231" style="stroke: #A80036; stroke-width: 1.0;"/><!--MD5=[d1b3814b89ce37ba88edc23f1e903719]
link C_0001534243399456949265 to C_0001039481254924641333--><path d="M2432.27,367.7431 C2387.61,323.3931 2305.66,249.2031 2221,208.9531 C2120.68,161.2631 2000.69,132.3531 1899.43,115.0131 " fill="none" id="C_0001534243399456949265-&gt;C_0001039481254924641333" style="stroke: #A80036; stroke-width: 1.0; stroke-dasharray: 7.0,7.0;"/><polygon fill="#A80036" points="1894.31,114.1431,1902.5069,119.603,1899.2385,114.986,1903.8555,111.7175,1894.31,114.1431" style="stroke: #A80036; stroke-width: 1.0;"/><!--MD5=[b4664a15417c19794b8effee01bb45e8]
reverse link C_0001576276283144132872 to C_0001534243399456949265--><path d="M2213.47,296.8331 C2265.26,318.7131 2330.35,346.2131 2381.61,367.8731 " fill="none" id="C_0001576276283144132872&lt;-C_0001534243399456949265" style="stroke: #A80036; stroke-width: 1.0;"/><polygon fill="none" points="2210.73,303.2731,2195.03,289.0431,2216.18,290.3831,2210.73,303.2731" style="stroke: #A80036; stroke-width: 1.0;"/><!--MD5=[cfe740f625c2d7434fb2f4e06769f962]
@startuml
title Diagram element decorators model
class "decorator_toks" as C_0000532301235174338361
class C_0000532301235174338361 [[structclanguml_1_1decorators_1_1decorator__toks.html{decorator_toks}]] {
__
+diagrams : std::vector<std::string> [[[{diagrams}]]]
+label : std::string [[[{label}]]]
+param : std::string [[[{param}]]]
+text : std::string [[[{text}]]]
}
class "decorator" as C_0001039481254924641333
class C_0001039481254924641333 [[structclanguml_1_1decorators_1_1decorator.html{Base class for clang-uml comment tags}]] {
+~decorator() = default : void [[[{~decorator}]]]
..
+applies_to_diagram(const std::string & name) : bool [[[{Check if decorator applies to a specific diagram.}]]]
{static} +from_string(std::string_view c) : std::shared_ptr<decorator> [[[{Create decorator of specific type based on it's string         representation.}]]]
#tokenize(const std::string & label, std::string_view c) : decorator_toks [[[{tokenize}]]]
__
+diagrams : std::vector<std::string> [[[{diagrams}]]]
}
class "note" as C_0001347272482812804274
class C_0001347272482812804274 [[structclanguml_1_1decorators_1_1note.html{Represents a note diagram element}]] {
{static} +from_string(std::string_view c) : std::shared_ptr<decorator> [[[{from_string}]]]
__
{static} +label : const std::string [[[{label}]]]
+position : std::string [[[{position}]]]
+text : std::string [[[{text}]]]
}
class "skip" as C_0001462474947254948682
class C_0001462474947254948682 [[structclanguml_1_1decorators_1_1skip.html{Whether a decorated element should be skipped from a diagram}]] {
{static} +from_string(std::string_view c) : std::shared_ptr<decorator> [[[{from_string}]]]
__
{static} +label : const std::string [[[{label}]]]
}
class "skip_relationship" as C_0000685427930366073750
class C_0000685427930366073750 [[structclanguml_1_1decorators_1_1skip__relationship.html{Whether a decorated relationships should be skipped from a diagram}]] {
{static} +from_string(std::string_view c) : std::shared_ptr<decorator> [[[{from_string}]]]
__
{static} +label : const std::string [[[{label}]]]
}
class "style" as C_0000116269747867995555
class C_0000116269747867995555 [[structclanguml_1_1decorators_1_1style.html{Apply specific style to a decorated diagram element}]] {
{static} +from_string(std::string_view c) : std::shared_ptr<decorator> [[[{from_string}]]]
__
{static} +label : const std::string [[[{label}]]]
+spec : std::string [[[{spec}]]]
}
class "relationship" as C_0001576276283144132872
class C_0001576276283144132872 [[structclanguml_1_1decorators_1_1relationship.html{Base class for decorators overriding default relationship types}]] {
__
+multiplicity : std::string [[[{multiplicity}]]]
}
class "aggregation" as C_0000175979950567138488
class C_0000175979950567138488 [[structclanguml_1_1decorators_1_1aggregation.html{Make a member an aggregation relationship}]] {
{static} +from_string(std::string_view c) : std::shared_ptr<decorator> [[[{from_string}]]]
__
{static} +label : const std::string [[[{label}]]]
}
class "composition" as C_0001028911016492067053
class C_0001028911016492067053 [[structclanguml_1_1decorators_1_1composition.html{Make a member a composition relationship}]] {
{static} +from_string(std::string_view c) : std::shared_ptr<decorator> [[[{from_string}]]]
__
{static} +label : const std::string [[[{label}]]]
}
class "association" as C_0001534243399456949265
class C_0001534243399456949265 [[structclanguml_1_1decorators_1_1association.html{Make a member an association relationship}]] {
{static} +from_string(std::string_view c) : std::shared_ptr<decorator> [[[{from_string}]]]
__
{static} +label : const std::string [[[{label}]]]
}
C_0001039481254924641333 ..> C_0000532301235174338361
C_0001039481254924641333 <|- - C_0001347272482812804274
C_0001039481254924641333 <|- - C_0001462474947254948682
C_0001039481254924641333 <|- - C_0000685427930366073750
C_0001039481254924641333 <|- - C_0000116269747867995555
C_0001039481254924641333 <|- - C_0001576276283144132872
C_0000175979950567138488 ..> C_0001039481254924641333
C_0001576276283144132872 <|- - C_0000175979950567138488
C_0001028911016492067053 ..> C_0001039481254924641333
C_0001576276283144132872 <|- - C_0001028911016492067053
C_0001534243399456949265 ..> C_0001039481254924641333
C_0001576276283144132872 <|- - C_0001534243399456949265

@enduml

PlantUML version 1.2020.02(Sun Mar 01 11:22:07 CET 2020)
(GPL source distribution)
Java Runtime: OpenJDK Runtime Environment
JVM: OpenJDK 64-Bit Server VM
Java Version: 11.0.20.1+1-post-Ubuntu-0ubuntu122.04
Operating System: Linux
Default Encoding: UTF-8
Language: en
Country: US
--></g></svg>