<?xml version="1.0" encoding="UTF-8" standalone="no"?><svg xmlns="http://www.w3.org/2000/svg" xmlns:xlink="http://www.w3.org/1999/xlink" contentScriptType="application/ecmascript" contentStyleType="text/css" height="444px" preserveAspectRatio="none" style="width:2322px;height:444px;" version="1.1" viewBox="0 0 2322 444" width="2322px" zoomAndPan="magnify"><defs><filter height="300%" id="f1uih1ojgu56sv" width="300%" x="-1" y="-1"><feGaussianBlur result="blurOut" stdDeviation="2.0"/><feColorMatrix in="blurOut" result="blurOut2" type="matrix" values="0 0 0 0 0 0 0 0 0 0 0 0 0 0 0 0 0 0 .4 0"/><feOffset dx="4.0" dy="4.0" in="blurOut2" result="blurOut3"/><feBlend in="SourceGraphic" in2="blurOut3" mode="normal"/></filter></defs><g><text fill="#000000" font-family="sans-serif" font-size="18" lengthAdjust="spacingAndGlyphs" textLength="247" x="1041" y="16.708">clang-uml decorators model</text><!--MD5=[b700785d949d291f1c00242e2ee1330e]
class C_0000532301235174338361--><a href="https://github.com/bkryza/clang-uml/blob/b3382d8f041665d83d907a47f3dd9f0fd341e837/src/decorators/decorators.h#L29" target="_top" title="decorator_toks" xlink:actuate="onRequest" xlink:href="https://github.com/bkryza/clang-uml/blob/b3382d8f041665d83d907a47f3dd9f0fd341e837/src/decorators/decorators.h#L29" xlink:show="new" xlink:title="decorator_toks" xlink:type="simple"><rect fill="#FEFECE" filter="url(#f1uih1ojgu56sv)" height="99.2188" id="C_0000532301235174338361" style="stroke: #A80036; stroke-width: 1.5;" width="230" x="531.5" y="35.4531"/><ellipse cx="594.75" cy="51.4531" fill="#ADD1B2" rx="11" ry="11" style="stroke: #A80036; stroke-width: 1.0;"/><path d="M597.7188,57.0938 Q597.1406,57.3906 596.5,57.5313 Q595.8594,57.6875 595.1563,57.6875 Q592.6563,57.6875 591.3281,56.0469 Q590.0156,54.3906 590.0156,51.2656 Q590.0156,48.1406 591.3281,46.4844 Q592.6563,44.8281 595.1563,44.8281 Q595.8594,44.8281 596.5,44.9844 Q597.1563,45.1406 597.7188,45.4375 L597.7188,48.1563 Q597.0938,47.5781 596.5,47.3125 Q595.9063,47.0313 595.2813,47.0313 Q593.9375,47.0313 593.25,48.1094 Q592.5625,49.1719 592.5625,51.2656 Q592.5625,53.3594 593.25,54.4375 Q593.9375,55.5 595.2813,55.5 Q595.9063,55.5 596.5,55.2344 Q597.0938,54.9531 597.7188,54.375 L597.7188,57.0938 Z "/><text fill="#000000" font-family="sans-serif" font-size="12" lengthAdjust="spacingAndGlyphs" textLength="95" x="615.25" y="55.6074">decorator_toks</text><line style="stroke: #A80036; stroke-width: 1.5;" x1="532.5" x2="760.5" y1="67.4531" y2="67.4531"/></a><a href="https://github.com/bkryza/clang-uml/blob/b3382d8f041665d83d907a47f3dd9f0fd341e837/src/decorators/decorators.h#L30" target="_top" title="label" xlink:actuate="onRequest" xlink:href="https://github.com/bkryza/clang-uml/blob/b3382d8f041665d83d907a47f3dd9f0fd341e837/src/decorators/decorators.h#L30" xlink:show="new" xlink:title="label" xlink:type="simple"><rect fill="#FEFECE" height="10" style="stroke: none; stroke-width: 1.0;" width="20" x="537.5" y="73.4531"/><ellipse cx="542.5" cy="78.4531" fill="none" rx="3" ry="3" style="stroke: #038048; stroke-width: 1.0;"/></a><a href="https://github.com/bkryza/clang-uml/blob/b3382d8f041665d83d907a47f3dd9f0fd341e837/src/decorators/decorators.h#L30" target="_top" title="label" xlink:actuate="onRequest" xlink:href="https://github.com/bkryza/clang-uml/blob/b3382d8f041665d83d907a47f3dd9f0fd341e837/src/decorators/decorators.h#L30" xlink:show="new" xlink:title="label" xlink:type="simple"><text fill="#000000" font-family="sans-serif" font-size="11" lengthAdjust="spacingAndGlyphs" textLength="98" x="551.5" y="81.6636">label : std::string</text></a><a href="https://github.com/bkryza/clang-uml/blob/b3382d8f041665d83d907a47f3dd9f0fd341e837/src/decorators/decorators.h#L31" target="_top" title="diagrams" xlink:actuate="onRequest" xlink:href="https://github.com/bkryza/clang-uml/blob/b3382d8f041665d83d907a47f3dd9f0fd341e837/src/decorators/decorators.h#L31" xlink:show="new" xlink:title="diagrams" xlink:type="simple"><rect fill="#FEFECE" height="10" style="stroke: none; stroke-width: 1.0;" width="20" x="537.5" y="86.2578"/><ellipse cx="542.5" cy="91.2578" fill="none" rx="3" ry="3" style="stroke: #038048; stroke-width: 1.0;"/></a><a href="https://github.com/bkryza/clang-uml/blob/b3382d8f041665d83d907a47f3dd9f0fd341e837/src/decorators/decorators.h#L31" target="_top" title="diagrams" xlink:actuate="onRequest" xlink:href="https://github.com/bkryza/clang-uml/blob/b3382d8f041665d83d907a47f3dd9f0fd341e837/src/decorators/decorators.h#L31" xlink:show="new" xlink:title="diagrams" xlink:type="simple"><text fill="#000000" font-family="sans-serif" font-size="11" lengthAdjust="spacingAndGlyphs" textLength="204" x="551.5" y="94.4683">diagrams : std::vector&lt;std::string&gt;</text></a><a href="https://github.com/bkryza/clang-uml/blob/b3382d8f041665d83d907a47f3dd9f0fd341e837/src/decorators/decorators.h#L32" target="_top" title="param" xlink:actuate="onRequest" xlink:href="https://github.com/bkryza/clang-uml/blob/b3382d8f041665d83d907a47f3dd9f0fd341e837/src/decorators/decorators.h#L32" xlink:show="new" xlink:title="param" xlink:type="simple"><rect fill="#FEFECE" height="10" style="stroke: none; stroke-width: 1.0;" width="20" x="537.5" y="99.0625"/><ellipse cx="542.5" cy="104.0625" fill="none" rx="3" ry="3" style="stroke: #038048; stroke-width: 1.0;"/></a><a href="https://github.com/bkryza/clang-uml/blob/b3382d8f041665d83d907a47f3dd9f0fd341e837/src/decorators/decorators.h#L32" target="_top" title="param" xlink:actuate="onRequest" xlink:href="https://github.com/bkryza/clang-uml/blob/b3382d8f041665d83d907a47f3dd9f0fd341e837/src/decorators/decorators.h#L32" xlink:show="new" xlink:title="param" xlink:type="simple"><text fill="#000000" font-family="sans-serif" font-size="11" lengthAdjust="spacingAndGlyphs" textLength="108" x="551.5" y="107.2729">param : std::string</text></a><a href="https://github.com/bkryza/clang-uml/blob/b3382d8f041665d83d907a47f3dd9f0fd341e837/src/decorators/decorators.h#L33" target="_top" title="text" xlink:actuate="onRequest" xlink:href="https://github.com/bkryza/clang-uml/blob/b3382d8f041665d83d907a47f3dd9f0fd341e837/src/decorators/decorators.h#L33" xlink:show="new" xlink:title="text" xlink:type="simple"><rect fill="#FEFECE" height="10" style="stroke: none; stroke-width: 1.0;" width="20" x="537.5" y="111.8672"/><ellipse cx="542.5" cy="116.8672" fill="none" rx="3" ry="3" style="stroke: #038048; stroke-width: 1.0;"/></a><a href="https://github.com/bkryza/clang-uml/blob/b3382d8f041665d83d907a47f3dd9f0fd341e837/src/decorators/decorators.h#L33" target="_top" title="text" xlink:actuate="onRequest" xlink:href="https://github.com/bkryza/clang-uml/blob/b3382d8f041665d83d907a47f3dd9f0fd341e837/src/decorators/decorators.h#L33" xlink:show="new" xlink:title="text" xlink:type="simple"><text fill="#000000" font-family="sans-serif" font-size="11" lengthAdjust="spacingAndGlyphs" textLength="92" x="551.5" y="120.0776">text : std::string</text></a><line style="stroke: #A80036; stroke-width: 1.5;" x1="532.5" x2="760.5" y1="126.6719" y2="126.6719"/><!--MD5=[d2309b870d61476bcf44dfb183611839]
class C_0001039481254924641333--><a href="https://github.com/bkryza/clang-uml/blob/b3382d8f041665d83d907a47f3dd9f0fd341e837/src/decorators/decorators.h#L36" target="_top" title="decorator" xlink:actuate="onRequest" xlink:href="https://github.com/bkryza/clang-uml/blob/b3382d8f041665d83d907a47f3dd9f0fd341e837/src/decorators/decorators.h#L36" xlink:show="new" xlink:title="decorator" xlink:type="simple"><rect fill="#FEFECE" filter="url(#f1uih1ojgu56sv)" height="112.0234" id="C_0001039481254924641333" style="stroke: #A80036; stroke-width: 1.5;" width="424" x="796.5" y="28.9531"/><ellipse cx="973.25" cy="44.9531" fill="#ADD1B2" rx="11" ry="11" style="stroke: #A80036; stroke-width: 1.0;"/><path d="M976.2188,50.5938 Q975.6406,50.8906 975,51.0313 Q974.3594,51.1875 973.6563,51.1875 Q971.1563,51.1875 969.8281,49.5469 Q968.5156,47.8906 968.5156,44.7656 Q968.5156,41.6406 969.8281,39.9844 Q971.1563,38.3281 973.6563,38.3281 Q974.3594,38.3281 975,38.4844 Q975.6563,38.6406 976.2188,38.9375 L976.2188,41.6563 Q975.5938,41.0781 975,40.8125 Q974.4063,40.5313 973.7813,40.5313 Q972.4375,40.5313 971.75,41.6094 Q971.0625,42.6719 971.0625,44.7656 Q971.0625,46.8594 971.75,47.9375 Q972.4375,49 973.7813,49 Q974.4063,49 975,48.7344 Q975.5938,48.4531 976.2188,47.875 L976.2188,50.5938 Z "/><text fill="#000000" font-family="sans-serif" font-size="12" lengthAdjust="spacingAndGlyphs" textLength="62" x="993.75" y="49.1074">decorator</text><line style="stroke: #A80036; stroke-width: 1.5;" x1="797.5" x2="1219.5" y1="60.9531" y2="60.9531"/></a><a href="https://github.com/bkryza/clang-uml/blob/b3382d8f041665d83d907a47f3dd9f0fd341e837/src/decorators/decorators.h#L37" target="_top" title="diagrams" xlink:actuate="onRequest" xlink:href="https://github.com/bkryza/clang-uml/blob/b3382d8f041665d83d907a47f3dd9f0fd341e837/src/decorators/decorators.h#L37" xlink:show="new" xlink:title="diagrams" xlink:type="simple"><rect fill="#FEFECE" height="10" style="stroke: none; stroke-width: 1.0;" width="20" x="802.5" y="66.9531"/><ellipse cx="807.5" cy="71.9531" fill="none" rx="3" ry="3" style="stroke: #038048; stroke-width: 1.0;"/></a><a href="https://github.com/bkryza/clang-uml/blob/b3382d8f041665d83d907a47f3dd9f0fd341e837/src/decorators/decorators.h#L37" target="_top" title="diagrams" xlink:actuate="onRequest" xlink:href="https://github.com/bkryza/clang-uml/blob/b3382d8f041665d83d907a47f3dd9f0fd341e837/src/decorators/decorators.h#L37" xlink:show="new" xlink:title="diagrams" xlink:type="simple"><text fill="#000000" font-family="sans-serif" font-size="11" lengthAdjust="spacingAndGlyphs" textLength="204" x="816.5" y="75.1636">diagrams : std::vector&lt;std::string&gt;</text></a><line style="stroke: #A80036; stroke-width: 1.5;" x1="797.5" x2="1219.5" y1="81.7578" y2="81.7578"/><ellipse cx="807.5" cy="92.7578" fill="#84BE84" rx="3" ry="3" style="stroke: #038048; stroke-width: 1.0;"/><text fill="#000000" font-family="sans-serif" font-size="11" lengthAdjust="spacingAndGlyphs" textLength="163" x="816.5" y="95.9683">~decorator() = default : void</text><ellipse cx="807.5" cy="105.5625" fill="#84BE84" rx="3" ry="3" style="stroke: #038048; stroke-width: 1.0;"/><text fill="#000000" font-family="sans-serif" font-size="11" lengthAdjust="spacingAndGlyphs" text-decoration="underline" textLength="347" x="816.5" y="108.7729">from_string(std::string_view c) : std::shared_ptr&lt;decorator&gt;</text><ellipse cx="807.5" cy="118.3672" fill="#84BE84" rx="3" ry="3" style="stroke: #038048; stroke-width: 1.0;"/><text fill="#000000" font-family="sans-serif" font-size="11" lengthAdjust="spacingAndGlyphs" textLength="250" x="816.5" y="121.5776">applies_to_diagram(std::string name) : bool</text><polygon fill="#FFFF44" points="807.5,126.1719,811.5,130.1719,807.5,134.1719,803.5,130.1719" style="stroke: #B38D22; stroke-width: 1.0;"/><text fill="#000000" font-family="sans-serif" font-size="11" lengthAdjust="spacingAndGlyphs" textLength="398" x="816.5" y="134.3823">tokenize(const std::string &amp; label, std::string_view c) : decorator_toks</text><!--MD5=[bcca7414763362d6588d0928c2566108]
class C_0001347272482812804274--><a href="https://github.com/bkryza/clang-uml/blob/b3382d8f041665d83d907a47f3dd9f0fd341e837/src/decorators/decorators.h#L49" target="_top" title="note" xlink:actuate="onRequest" xlink:href="https://github.com/bkryza/clang-uml/blob/b3382d8f041665d83d907a47f3dd9f0fd341e837/src/decorators/decorators.h#L49" xlink:show="new" xlink:title="note" xlink:type="simple"><rect fill="#FEFECE" filter="url(#f1uih1ojgu56sv)" height="99.2188" id="C_0001347272482812804274" style="stroke: #A80036; stroke-width: 1.5;" width="373" x="6" y="200.9531"/><ellipse cx="173.75" cy="216.9531" fill="#ADD1B2" rx="11" ry="11" style="stroke: #A80036; stroke-width: 1.0;"/><path d="M176.7188,222.5938 Q176.1406,222.8906 175.5,223.0313 Q174.8594,223.1875 174.1563,223.1875 Q171.6563,223.1875 170.3281,221.5469 Q169.0156,219.8906 169.0156,216.7656 Q169.0156,213.6406 170.3281,211.9844 Q171.6563,210.3281 174.1563,210.3281 Q174.8594,210.3281 175.5,210.4844 Q176.1563,210.6406 176.7188,210.9375 L176.7188,213.6563 Q176.0938,213.0781 175.5,212.8125 Q174.9063,212.5313 174.2813,212.5313 Q172.9375,212.5313 172.25,213.6094 Q171.5625,214.6719 171.5625,216.7656 Q171.5625,218.8594 172.25,219.9375 Q172.9375,221 174.2813,221 Q174.9063,221 175.5,220.7344 Q176.0938,220.4531 176.7188,219.875 L176.7188,222.5938 Z "/><text fill="#000000" font-family="sans-serif" font-size="12" lengthAdjust="spacingAndGlyphs" textLength="29" x="194.25" y="221.1074">note</text><line style="stroke: #A80036; stroke-width: 1.5;" x1="7" x2="378" y1="232.9531" y2="232.9531"/></a><a href="https://github.com/bkryza/clang-uml/blob/b3382d8f041665d83d907a47f3dd9f0fd341e837/src/decorators/decorators.h#L52" target="_top" title="position" xlink:actuate="onRequest" xlink:href="https://github.com/bkryza/clang-uml/blob/b3382d8f041665d83d907a47f3dd9f0fd341e837/src/decorators/decorators.h#L52" xlink:show="new" xlink:title="position" xlink:type="simple"><rect fill="#FEFECE" height="10" style="stroke: none; stroke-width: 1.0;" width="20" x="12" y="238.9531"/><ellipse cx="17" cy="243.9531" fill="none" rx="3" ry="3" style="stroke: #038048; stroke-width: 1.0;"/></a><a href="https://github.com/bkryza/clang-uml/blob/b3382d8f041665d83d907a47f3dd9f0fd341e837/src/decorators/decorators.h#L52" target="_top" title="position" xlink:actuate="onRequest" xlink:href="https://github.com/bkryza/clang-uml/blob/b3382d8f041665d83d907a47f3dd9f0fd341e837/src/decorators/decorators.h#L52" xlink:show="new" xlink:title="position" xlink:type="simple"><text fill="#000000" font-family="sans-serif" font-size="11" lengthAdjust="spacingAndGlyphs" textLength="116" x="26" y="247.1636">position : std::string</text></a><a href="https://github.com/bkryza/clang-uml/blob/b3382d8f041665d83d907a47f3dd9f0fd341e837/src/decorators/decorators.h#L53" target="_top" title="text" xlink:actuate="onRequest" xlink:href="https://github.com/bkryza/clang-uml/blob/b3382d8f041665d83d907a47f3dd9f0fd341e837/src/decorators/decorators.h#L53" xlink:show="new" xlink:title="text" xlink:type="simple"><rect fill="#FEFECE" height="10" style="stroke: none; stroke-width: 1.0;" width="20" x="12" y="251.7578"/><ellipse cx="17" cy="256.7578" fill="none" rx="3" ry="3" style="stroke: #038048; stroke-width: 1.0;"/></a><a href="https://github.com/bkryza/clang-uml/blob/b3382d8f041665d83d907a47f3dd9f0fd341e837/src/decorators/decorators.h#L53" target="_top" title="text" xlink:actuate="onRequest" xlink:href="https://github.com/bkryza/clang-uml/blob/b3382d8f041665d83d907a47f3dd9f0fd341e837/src/decorators/decorators.h#L53" xlink:show="new" xlink:title="text" xlink:type="simple"><text fill="#000000" font-family="sans-serif" font-size="11" lengthAdjust="spacingAndGlyphs" textLength="92" x="26" y="259.9683">text : std::string</text></a><a href="https://github.com/bkryza/clang-uml/blob/b3382d8f041665d83d907a47f3dd9f0fd341e837/src/decorators/decorators.h#L50" target="_top" title="label" xlink:actuate="onRequest" xlink:href="https://github.com/bkryza/clang-uml/blob/b3382d8f041665d83d907a47f3dd9f0fd341e837/src/decorators/decorators.h#L50" xlink:show="new" xlink:title="label" xlink:type="simple"><rect fill="#FEFECE" height="10" style="stroke: none; stroke-width: 1.0;" width="20" x="12" y="264.5625"/><ellipse cx="17" cy="269.5625" fill="none" rx="3" ry="3" style="stroke: #038048; stroke-width: 1.0;"/></a><a href="https://github.com/bkryza/clang-uml/blob/b3382d8f041665d83d907a47f3dd9f0fd341e837/src/decorators/decorators.h#L50" target="_top" title="label" xlink:actuate="onRequest" xlink:href="https://github.com/bkryza/clang-uml/blob/b3382d8f041665d83d907a47f3dd9f0fd341e837/src/decorators/decorators.h#L50" xlink:show="new" xlink:title="label" xlink:type="simple"><text fill="#000000" font-family="sans-serif" font-size="11" lengthAdjust="spacingAndGlyphs" text-decoration="underline" textLength="133" x="26" y="272.7729">label : const std::string</text></a><line style="stroke: #A80036; stroke-width: 1.5;" x1="7" x2="378" y1="279.3672" y2="279.3672"/><ellipse cx="17" cy="290.3672" fill="#84BE84" rx="3" ry="3" style="stroke: #038048; stroke-width: 1.0;"/><text fill="#000000" font-family="sans-serif" font-size="11" lengthAdjust="spacingAndGlyphs" text-decoration="underline" textLength="347" x="26" y="293.5776">from_string(std::string_view c) : std::shared_ptr&lt;decorator&gt;</text><!--MD5=[487adcd260595f5799be4d1865d37845]
class C_0001462474947254948682--><a href="https://github.com/bkryza/clang-uml/blob/b3382d8f041665d83d907a47f3dd9f0fd341e837/src/decorators/decorators.h#L58" target="_top" title="skip" xlink:actuate="onRequest" xlink:href="https://github.com/bkryza/clang-uml/blob/b3382d8f041665d83d907a47f3dd9f0fd341e837/src/decorators/decorators.h#L58" xlink:show="new" xlink:title="skip" xlink:type="simple"><rect fill="#FEFECE" filter="url(#f1uih1ojgu56sv)" height="73.6094" id="C_0001462474947254948682" style="stroke: #A80036; stroke-width: 1.5;" width="373" x="414" y="213.4531"/><ellipse cx="583.75" cy="229.4531" fill="#ADD1B2" rx="11" ry="11" style="stroke: #A80036; stroke-width: 1.0;"/><path d="M586.7188,235.0938 Q586.1406,235.3906 585.5,235.5313 Q584.8594,235.6875 584.1563,235.6875 Q581.6563,235.6875 580.3281,234.0469 Q579.0156,232.3906 579.0156,229.2656 Q579.0156,226.1406 580.3281,224.4844 Q581.6563,222.8281 584.1563,222.8281 Q584.8594,222.8281 585.5,222.9844 Q586.1563,223.1406 586.7188,223.4375 L586.7188,226.1563 Q586.0938,225.5781 585.5,225.3125 Q584.9063,225.0313 584.2813,225.0313 Q582.9375,225.0313 582.25,226.1094 Q581.5625,227.1719 581.5625,229.2656 Q581.5625,231.3594 582.25,232.4375 Q582.9375,233.5 584.2813,233.5 Q584.9063,233.5 585.5,233.2344 Q586.0938,232.9531 586.7188,232.375 L586.7188,235.0938 Z "/><text fill="#000000" font-family="sans-serif" font-size="12" lengthAdjust="spacingAndGlyphs" textLength="25" x="604.25" y="233.6074">skip</text><line style="stroke: #A80036; stroke-width: 1.5;" x1="415" x2="786" y1="245.4531" y2="245.4531"/></a><a href="https://github.com/bkryza/clang-uml/blob/b3382d8f041665d83d907a47f3dd9f0fd341e837/src/decorators/decorators.h#L59" target="_top" title="label" xlink:actuate="onRequest" xlink:href="https://github.com/bkryza/clang-uml/blob/b3382d8f041665d83d907a47f3dd9f0fd341e837/src/decorators/decorators.h#L59" xlink:show="new" xlink:title="label" xlink:type="simple"><rect fill="#FEFECE" height="10" style="stroke: none; stroke-width: 1.0;" width="20" x="420" y="251.4531"/><ellipse cx="425" cy="256.4531" fill="none" rx="3" ry="3" style="stroke: #038048; stroke-width: 1.0;"/></a><a href="https://github.com/bkryza/clang-uml/blob/b3382d8f041665d83d907a47f3dd9f0fd341e837/src/decorators/decorators.h#L59" target="_top" title="label" xlink:actuate="onRequest" xlink:href="https://github.com/bkryza/clang-uml/blob/b3382d8f041665d83d907a47f3dd9f0fd341e837/src/decorators/decorators.h#L59" xlink:show="new" xlink:title="label" xlink:type="simple"><text fill="#000000" font-family="sans-serif" font-size="11" lengthAdjust="spacingAndGlyphs" text-decoration="underline" textLength="133" x="434" y="259.6636">label : const std::string</text></a><line style="stroke: #A80036; stroke-width: 1.5;" x1="415" x2="786" y1="266.2578" y2="266.2578"/><ellipse cx="425" cy="277.2578" fill="#84BE84" rx="3" ry="3" style="stroke: #038048; stroke-width: 1.0;"/><text fill="#000000" font-family="sans-serif" font-size="11" lengthAdjust="spacingAndGlyphs" text-decoration="underline" textLength="347" x="434" y="280.4683">from_string(std::string_view c) : std::shared_ptr&lt;decorator&gt;</text><!--MD5=[06f4cb97d1b7c80a67cd1b52a4eae9fc]
class C_0000685427930366073750--><a href="https://github.com/bkryza/clang-uml/blob/b3382d8f041665d83d907a47f3dd9f0fd341e837/src/decorators/decorators.h#L64" target="_top" title="skip_relationship" xlink:actuate="onRequest" xlink:href="https://github.com/bkryza/clang-uml/blob/b3382d8f041665d83d907a47f3dd9f0fd341e837/src/decorators/decorators.h#L64" xlink:show="new" xlink:title="skip_relationship" xlink:type="simple"><rect fill="#FEFECE" filter="url(#f1uih1ojgu56sv)" height="73.6094" id="C_0000685427930366073750" style="stroke: #A80036; stroke-width: 1.5;" width="373" x="822" y="213.4531"/><ellipse cx="951.75" cy="229.4531" fill="#ADD1B2" rx="11" ry="11" style="stroke: #A80036; stroke-width: 1.0;"/><path d="M954.7188,235.0938 Q954.1406,235.3906 953.5,235.5313 Q952.8594,235.6875 952.1563,235.6875 Q949.6563,235.6875 948.3281,234.0469 Q947.0156,232.3906 947.0156,229.2656 Q947.0156,226.1406 948.3281,224.4844 Q949.6563,222.8281 952.1563,222.8281 Q952.8594,222.8281 953.5,222.9844 Q954.1563,223.1406 954.7188,223.4375 L954.7188,226.1563 Q954.0938,225.5781 953.5,225.3125 Q952.9063,225.0313 952.2813,225.0313 Q950.9375,225.0313 950.25,226.1094 Q949.5625,227.1719 949.5625,229.2656 Q949.5625,231.3594 950.25,232.4375 Q950.9375,233.5 952.2813,233.5 Q952.9063,233.5 953.5,233.2344 Q954.0938,232.9531 954.7188,232.375 L954.7188,235.0938 Z "/><text fill="#000000" font-family="sans-serif" font-size="12" lengthAdjust="spacingAndGlyphs" textLength="105" x="972.25" y="233.6074">skip_relationship</text><line style="stroke: #A80036; stroke-width: 1.5;" x1="823" x2="1194" y1="245.4531" y2="245.4531"/></a><a href="https://github.com/bkryza/clang-uml/blob/b3382d8f041665d83d907a47f3dd9f0fd341e837/src/decorators/decorators.h#L65" target="_top" title="label" xlink:actuate="onRequest" xlink:href="https://github.com/bkryza/clang-uml/blob/b3382d8f041665d83d907a47f3dd9f0fd341e837/src/decorators/decorators.h#L65" xlink:show="new" xlink:title="label" xlink:type="simple"><rect fill="#FEFECE" height="10" style="stroke: none; stroke-width: 1.0;" width="20" x="828" y="251.4531"/><ellipse cx="833" cy="256.4531" fill="none" rx="3" ry="3" style="stroke: #038048; stroke-width: 1.0;"/></a><a href="https://github.com/bkryza/clang-uml/blob/b3382d8f041665d83d907a47f3dd9f0fd341e837/src/decorators/decorators.h#L65" target="_top" title="label" xlink:actuate="onRequest" xlink:href="https://github.com/bkryza/clang-uml/blob/b3382d8f041665d83d907a47f3dd9f0fd341e837/src/decorators/decorators.h#L65" xlink:show="new" xlink:title="label" xlink:type="simple"><text fill="#000000" font-family="sans-serif" font-size="11" lengthAdjust="spacingAndGlyphs" text-decoration="underline" textLength="133" x="842" y="259.6636">label : const std::string</text></a><line style="stroke: #A80036; stroke-width: 1.5;" x1="823" x2="1194" y1="266.2578" y2="266.2578"/><ellipse cx="833" cy="277.2578" fill="#84BE84" rx="3" ry="3" style="stroke: #038048; stroke-width: 1.0;"/><text fill="#000000" font-family="sans-serif" font-size="11" lengthAdjust="spacingAndGlyphs" text-decoration="underline" textLength="347" x="842" y="280.4683">from_string(std::string_view c) : std::shared_ptr&lt;decorator&gt;</text><!--MD5=[140975e1c95ca4de23ce15cbae34878a]
class C_0000116269747867995555--><a href="https://github.com/bkryza/clang-uml/blob/b3382d8f041665d83d907a47f3dd9f0fd341e837/src/decorators/decorators.h#L70" target="_top" title="style" xlink:actuate="onRequest" xlink:href="https://github.com/bkryza/clang-uml/blob/b3382d8f041665d83d907a47f3dd9f0fd341e837/src/decorators/decorators.h#L70" xlink:show="new" xlink:title="style" xlink:type="simple"><rect fill="#FEFECE" filter="url(#f1uih1ojgu56sv)" height="86.4141" id="C_0000116269747867995555" style="stroke: #A80036; stroke-width: 1.5;" width="373" x="1230" y="207.4531"/><ellipse cx="1397.75" cy="223.4531" fill="#ADD1B2" rx="11" ry="11" style="stroke: #A80036; stroke-width: 1.0;"/><path d="M1400.7188,229.0938 Q1400.1406,229.3906 1399.5,229.5313 Q1398.8594,229.6875 1398.1563,229.6875 Q1395.6563,229.6875 1394.3281,228.0469 Q1393.0156,226.3906 1393.0156,223.2656 Q1393.0156,220.1406 1394.3281,218.4844 Q1395.6563,216.8281 1398.1563,216.8281 Q1398.8594,216.8281 1399.5,216.9844 Q1400.1563,217.1406 1400.7188,217.4375 L1400.7188,220.1563 Q1400.0938,219.5781 1399.5,219.3125 Q1398.9063,219.0313 1398.2813,219.0313 Q1396.9375,219.0313 1396.25,220.1094 Q1395.5625,221.1719 1395.5625,223.2656 Q1395.5625,225.3594 1396.25,226.4375 Q1396.9375,227.5 1398.2813,227.5 Q1398.9063,227.5 1399.5,227.2344 Q1400.0938,226.9531 1400.7188,226.375 L1400.7188,229.0938 Z "/><text fill="#000000" font-family="sans-serif" font-size="12" lengthAdjust="spacingAndGlyphs" textLength="29" x="1418.25" y="227.6074">style</text><line style="stroke: #A80036; stroke-width: 1.5;" x1="1231" x2="1602" y1="239.4531" y2="239.4531"/></a><a href="https://github.com/bkryza/clang-uml/blob/b3382d8f041665d83d907a47f3dd9f0fd341e837/src/decorators/decorators.h#L73" target="_top" title="spec" xlink:actuate="onRequest" xlink:href="https://github.com/bkryza/clang-uml/blob/b3382d8f041665d83d907a47f3dd9f0fd341e837/src/decorators/decorators.h#L73" xlink:show="new" xlink:title="spec" xlink:type="simple"><rect fill="#FEFECE" height="10" style="stroke: none; stroke-width: 1.0;" width="20" x="1236" y="245.4531"/><ellipse cx="1241" cy="250.4531" fill="none" rx="3" ry="3" style="stroke: #038048; stroke-width: 1.0;"/></a><a href="https://github.com/bkryza/clang-uml/blob/b3382d8f041665d83d907a47f3dd9f0fd341e837/src/decorators/decorators.h#L73" target="_top" title="spec" xlink:actuate="onRequest" xlink:href="https://github.com/bkryza/clang-uml/blob/b3382d8f041665d83d907a47f3dd9f0fd341e837/src/decorators/decorators.h#L73" xlink:show="new" xlink:title="spec" xlink:type="simple"><text fill="#000000" font-family="sans-serif" font-size="11" lengthAdjust="spacingAndGlyphs" textLength="98" x="1250" y="253.6636">spec : std::string</text></a><a href="https://github.com/bkryza/clang-uml/blob/b3382d8f041665d83d907a47f3dd9f0fd341e837/src/decorators/decorators.h#L71" target="_top" title="label" xlink:actuate="onRequest" xlink:href="https://github.com/bkryza/clang-uml/blob/b3382d8f041665d83d907a47f3dd9f0fd341e837/src/decorators/decorators.h#L71" xlink:show="new" xlink:title="label" xlink:type="simple"><rect fill="#FEFECE" height="10" style="stroke: none; stroke-width: 1.0;" width="20" x="1236" y="258.2578"/><ellipse cx="1241" cy="263.2578" fill="none" rx="3" ry="3" style="stroke: #038048; stroke-width: 1.0;"/></a><a href="https://github.com/bkryza/clang-uml/blob/b3382d8f041665d83d907a47f3dd9f0fd341e837/src/decorators/decorators.h#L71" target="_top" title="label" xlink:actuate="onRequest" xlink:href="https://github.com/bkryza/clang-uml/blob/b3382d8f041665d83d907a47f3dd9f0fd341e837/src/decorators/decorators.h#L71" xlink:show="new" xlink:title="label" xlink:type="simple"><text fill="#000000" font-family="sans-serif" font-size="11" lengthAdjust="spacingAndGlyphs" text-decoration="underline" textLength="133" x="1250" y="266.4683">label : const std::string</text></a><line style="stroke: #A80036; stroke-width: 1.5;" x1="1231" x2="1602" y1="273.0625" y2="273.0625"/><ellipse cx="1241" cy="284.0625" fill="#84BE84" rx="3" ry="3" style="stroke: #038048; stroke-width: 1.0;"/><text fill="#000000" font-family="sans-serif" font-size="11" lengthAdjust="spacingAndGlyphs" text-decoration="underline" textLength="347" x="1250" y="287.2729">from_string(std::string_view c) : std::shared_ptr&lt;decorator&gt;</text><!--MD5=[98f20d24ab24f92954802d5334374bcd]
class C_0001576276283144132872--><a href="https://github.com/bkryza/clang-uml/blob/b3382d8f041665d83d907a47f3dd9f0fd341e837/src/decorators/decorators.h#L77" target="_top" title="relationship" xlink:actuate="onRequest" xlink:href="https://github.com/bkryza/clang-uml/blob/b3382d8f041665d83d907a47f3dd9f0fd341e837/src/decorators/decorators.h#L77" xlink:show="new" xlink:title="relationship" xlink:type="simple"><rect fill="#FEFECE" filter="url(#f1uih1ojgu56sv)" height="60.8047" id="C_0001576276283144132872" style="stroke: #A80036; stroke-width: 1.5;" width="157" x="1638" y="219.9531"/><ellipse cx="1675.95" cy="235.9531" fill="#ADD1B2" rx="11" ry="11" style="stroke: #A80036; stroke-width: 1.0;"/><path d="M1678.9188,241.5938 Q1678.3406,241.8906 1677.7,242.0313 Q1677.0594,242.1875 1676.3563,242.1875 Q1673.8563,242.1875 1672.5281,240.5469 Q1671.2156,238.8906 1671.2156,235.7656 Q1671.2156,232.6406 1672.5281,230.9844 Q1673.8563,229.3281 1676.3563,229.3281 Q1677.0594,229.3281 1677.7,229.4844 Q1678.3563,229.6406 1678.9188,229.9375 L1678.9188,232.6563 Q1678.2938,232.0781 1677.7,231.8125 Q1677.1063,231.5313 1676.4813,231.5313 Q1675.1375,231.5313 1674.45,232.6094 Q1673.7625,233.6719 1673.7625,235.7656 Q1673.7625,237.8594 1674.45,238.9375 Q1675.1375,240 1676.4813,240 Q1677.1063,240 1677.7,239.7344 Q1678.2938,239.4531 1678.9188,238.875 L1678.9188,241.5938 Z "/><text fill="#000000" font-family="sans-serif" font-size="12" lengthAdjust="spacingAndGlyphs" textLength="74" x="1695.05" y="240.1074">relationship</text><line style="stroke: #A80036; stroke-width: 1.5;" x1="1639" x2="1794" y1="251.9531" y2="251.9531"/></a><a href="https://github.com/bkryza/clang-uml/blob/b3382d8f041665d83d907a47f3dd9f0fd341e837/src/decorators/decorators.h#L78" target="_top" title="multiplicity" xlink:actuate="onRequest" xlink:href="https://github.com/bkryza/clang-uml/blob/b3382d8f041665d83d907a47f3dd9f0fd341e837/src/decorators/decorators.h#L78" xlink:show="new" xlink:title="multiplicity" xlink:type="simple"><rect fill="#FEFECE" height="10" style="stroke: none; stroke-width: 1.0;" width="20" x="1644" y="257.9531"/><ellipse cx="1649" cy="262.9531" fill="none" rx="3" ry="3" style="stroke: #038048; stroke-width: 1.0;"/></a><a href="https://github.com/bkryza/clang-uml/blob/b3382d8f041665d83d907a47f3dd9f0fd341e837/src/decorators/decorators.h#L78" target="_top" title="multiplicity" xlink:actuate="onRequest" xlink:href="https://github.com/bkryza/clang-uml/blob/b3382d8f041665d83d907a47f3dd9f0fd341e837/src/decorators/decorators.h#L78" xlink:show="new" xlink:title="multiplicity" xlink:type="simple"><text fill="#000000" font-family="sans-serif" font-size="11" lengthAdjust="spacingAndGlyphs" textLength="131" x="1658" y="266.1636">multiplicity : std::string</text></a><line style="stroke: #A80036; stroke-width: 1.5;" x1="1639" x2="1794" y1="272.7578" y2="272.7578"/><!--MD5=[72dfb194bd48fc14a809aaa70da084ff]
class C_0000175979950567138488--><a href="https://github.com/bkryza/clang-uml/blob/b3382d8f041665d83d907a47f3dd9f0fd341e837/src/decorators/decorators.h#L81" target="_top" title="aggregation" xlink:actuate="onRequest" xlink:href="https://github.com/bkryza/clang-uml/blob/b3382d8f041665d83d907a47f3dd9f0fd341e837/src/decorators/decorators.h#L81" xlink:show="new" xlink:title="aggregation" xlink:type="simple"><rect fill="#FEFECE" filter="url(#f1uih1ojgu56sv)" height="73.6094" id="C_0000175979950567138488" style="stroke: #A80036; stroke-width: 1.5;" width="373" x="1122" y="359.9531"/><ellipse cx="1265.75" cy="375.9531" fill="#ADD1B2" rx="11" ry="11" style="stroke: #A80036; stroke-width: 1.0;"/><path d="M1268.7188,381.5938 Q1268.1406,381.8906 1267.5,382.0313 Q1266.8594,382.1875 1266.1563,382.1875 Q1263.6563,382.1875 1262.3281,380.5469 Q1261.0156,378.8906 1261.0156,375.7656 Q1261.0156,372.6406 1262.3281,370.9844 Q1263.6563,369.3281 1266.1563,369.3281 Q1266.8594,369.3281 1267.5,369.4844 Q1268.1563,369.6406 1268.7188,369.9375 L1268.7188,372.6563 Q1268.0938,372.0781 1267.5,371.8125 Q1266.9063,371.5313 1266.2813,371.5313 Q1264.9375,371.5313 1264.25,372.6094 Q1263.5625,373.6719 1263.5625,375.7656 Q1263.5625,377.8594 1264.25,378.9375 Q1264.9375,380 1266.2813,380 Q1266.9063,380 1267.5,379.7344 Q1268.0938,379.4531 1268.7188,378.875 L1268.7188,381.5938 Z "/><text fill="#000000" font-family="sans-serif" font-size="12" lengthAdjust="spacingAndGlyphs" textLength="77" x="1286.25" y="380.1074">aggregation</text><line style="stroke: #A80036; stroke-width: 1.5;" x1="1123" x2="1494" y1="391.9531" y2="391.9531"/></a><a href="https://github.com/bkryza/clang-uml/blob/b3382d8f041665d83d907a47f3dd9f0fd341e837/src/decorators/decorators.h#L82" target="_top" title="label" xlink:actuate="onRequest" xlink:href="https://github.com/bkryza/clang-uml/blob/b3382d8f041665d83d907a47f3dd9f0fd341e837/src/decorators/decorators.h#L82" xlink:show="new" xlink:title="label" xlink:type="simple"><rect fill="#FEFECE" height="10" style="stroke: none; stroke-width: 1.0;" width="20" x="1128" y="397.9531"/><ellipse cx="1133" cy="402.9531" fill="none" rx="3" ry="3" style="stroke: #038048; stroke-width: 1.0;"/></a><a href="https://github.com/bkryza/clang-uml/blob/b3382d8f041665d83d907a47f3dd9f0fd341e837/src/decorators/decorators.h#L82" target="_top" title="label" xlink:actuate="onRequest" xlink:href="https://github.com/bkryza/clang-uml/blob/b3382d8f041665d83d907a47f3dd9f0fd341e837/src/decorators/decorators.h#L82" xlink:show="new" xlink:title="label" xlink:type="simple"><text fill="#000000" font-family="sans-serif" font-size="11" lengthAdjust="spacingAndGlyphs" text-decoration="underline" textLength="133" x="1142" y="406.1636">label : const std::string</text></a><line style="stroke: #A80036; stroke-width: 1.5;" x1="1123" x2="1494" y1="412.7578" y2="412.7578"/><ellipse cx="1133" cy="423.7578" fill="#84BE84" rx="3" ry="3" style="stroke: #038048; stroke-width: 1.0;"/><text fill="#000000" font-family="sans-serif" font-size="11" lengthAdjust="spacingAndGlyphs" text-decoration="underline" textLength="347" x="1142" y="426.9683">from_string(std::string_view c) : std::shared_ptr&lt;decorator&gt;</text><!--MD5=[e3960d822491529fed271017f81f17eb]
class C_0001028911016492067053--><a href="https://github.com/bkryza/clang-uml/blob/b3382d8f041665d83d907a47f3dd9f0fd341e837/src/decorators/decorators.h#L87" target="_top" title="composition" xlink:actuate="onRequest" xlink:href="https://github.com/bkryza/clang-uml/blob/b3382d8f041665d83d907a47f3dd9f0fd341e837/src/decorators/decorators.h#L87" xlink:show="new" xlink:title="composition" xlink:type="simple"><rect fill="#FEFECE" filter="url(#f1uih1ojgu56sv)" height="73.6094" id="C_0001028911016492067053" style="stroke: #A80036; stroke-width: 1.5;" width="373" x="1530" y="359.9531"/><ellipse cx="1674.25" cy="375.9531" fill="#ADD1B2" rx="11" ry="11" style="stroke: #A80036; stroke-width: 1.0;"/><path d="M1677.2188,381.5938 Q1676.6406,381.8906 1676,382.0313 Q1675.3594,382.1875 1674.6563,382.1875 Q1672.1563,382.1875 1670.8281,380.5469 Q1669.5156,378.8906 1669.5156,375.7656 Q1669.5156,372.6406 1670.8281,370.9844 Q1672.1563,369.3281 1674.6563,369.3281 Q1675.3594,369.3281 1676,369.4844 Q1676.6563,369.6406 1677.2188,369.9375 L1677.2188,372.6563 Q1676.5938,372.0781 1676,371.8125 Q1675.4063,371.5313 1674.7813,371.5313 Q1673.4375,371.5313 1672.75,372.6094 Q1672.0625,373.6719 1672.0625,375.7656 Q1672.0625,377.8594 1672.75,378.9375 Q1673.4375,380 1674.7813,380 Q1675.4063,380 1676,379.7344 Q1676.5938,379.4531 1677.2188,378.875 L1677.2188,381.5938 Z "/><text fill="#000000" font-family="sans-serif" font-size="12" lengthAdjust="spacingAndGlyphs" textLength="76" x="1694.75" y="380.1074">composition</text><line style="stroke: #A80036; stroke-width: 1.5;" x1="1531" x2="1902" y1="391.9531" y2="391.9531"/></a><a href="https://github.com/bkryza/clang-uml/blob/b3382d8f041665d83d907a47f3dd9f0fd341e837/src/decorators/decorators.h#L88" target="_top" title="label" xlink:actuate="onRequest" xlink:href="https://github.com/bkryza/clang-uml/blob/b3382d8f041665d83d907a47f3dd9f0fd341e837/src/decorators/decorators.h#L88" xlink:show="new" xlink:title="label" xlink:type="simple"><rect fill="#FEFECE" height="10" style="stroke: none; stroke-width: 1.0;" width="20" x="1536" y="397.9531"/><ellipse cx="1541" cy="402.9531" fill="none" rx="3" ry="3" style="stroke: #038048; stroke-width: 1.0;"/></a><a href="https://github.com/bkryza/clang-uml/blob/b3382d8f041665d83d907a47f3dd9f0fd341e837/src/decorators/decorators.h#L88" target="_top" title="label" xlink:actuate="onRequest" xlink:href="https://github.com/bkryza/clang-uml/blob/b3382d8f041665d83d907a47f3dd9f0fd341e837/src/decorators/decorators.h#L88" xlink:show="new" xlink:title="label" xlink:type="simple"><text fill="#000000" font-family="sans-serif" font-size="11" lengthAdjust="spacingAndGlyphs" text-decoration="underline" textLength="133" x="1550" y="406.1636">label : const std::string</text></a><line style="stroke: #A80036; stroke-width: 1.5;" x1="1531" x2="1902" y1="412.7578" y2="412.7578"/><ellipse cx="1541" cy="423.7578" fill="#84BE84" rx="3" ry="3" style="stroke: #038048; stroke-width: 1.0;"/><text fill="#000000" font-family="sans-serif" font-size="11" lengthAdjust="spacingAndGlyphs" text-decoration="underline" textLength="347" x="1550" y="426.9683">from_string(std::string_view c) : std::shared_ptr&lt;decorator&gt;</text><!--MD5=[cbbb34a4b7f8ffa09295cdf2f40caf6a]
class C_0001534243399456949265--><a href="https://github.com/bkryza/clang-uml/blob/b3382d8f041665d83d907a47f3dd9f0fd341e837/src/decorators/decorators.h#L93" target="_top" title="association" xlink:actuate="onRequest" xlink:href="https://github.com/bkryza/clang-uml/blob/b3382d8f041665d83d907a47f3dd9f0fd341e837/src/decorators/decorators.h#L93" xlink:show="new" xlink:title="association" xlink:type="simple"><rect fill="#FEFECE" filter="url(#f1uih1ojgu56sv)" height="73.6094" id="C_0001534243399456949265" style="stroke: #A80036; stroke-width: 1.5;" width="373" x="1938" y="359.9531"/><ellipse cx="2084.25" cy="375.9531" fill="#ADD1B2" rx="11" ry="11" style="stroke: #A80036; stroke-width: 1.0;"/><path d="M2087.2188,381.5938 Q2086.6406,381.8906 2086,382.0313 Q2085.3594,382.1875 2084.6563,382.1875 Q2082.1563,382.1875 2080.8281,380.5469 Q2079.5156,378.8906 2079.5156,375.7656 Q2079.5156,372.6406 2080.8281,370.9844 Q2082.1563,369.3281 2084.6563,369.3281 Q2085.3594,369.3281 2086,369.4844 Q2086.6563,369.6406 2087.2188,369.9375 L2087.2188,372.6563 Q2086.5938,372.0781 2086,371.8125 Q2085.4063,371.5313 2084.7813,371.5313 Q2083.4375,371.5313 2082.75,372.6094 Q2082.0625,373.6719 2082.0625,375.7656 Q2082.0625,377.8594 2082.75,378.9375 Q2083.4375,380 2084.7813,380 Q2085.4063,380 2086,379.7344 Q2086.5938,379.4531 2087.2188,378.875 L2087.2188,381.5938 Z "/><text fill="#000000" font-family="sans-serif" font-size="12" lengthAdjust="spacingAndGlyphs" textLength="72" x="2104.75" y="380.1074">association</text><line style="stroke: #A80036; stroke-width: 1.5;" x1="1939" x2="2310" y1="391.9531" y2="391.9531"/></a><a href="https://github.com/bkryza/clang-uml/blob/b3382d8f041665d83d907a47f3dd9f0fd341e837/src/decorators/decorators.h#L94" target="_top" title="label" xlink:actuate="onRequest" xlink:href="https://github.com/bkryza/clang-uml/blob/b3382d8f041665d83d907a47f3dd9f0fd341e837/src/decorators/decorators.h#L94" xlink:show="new" xlink:title="label" xlink:type="simple"><rect fill="#FEFECE" height="10" style="stroke: none; stroke-width: 1.0;" width="20" x="1944" y="397.9531"/><ellipse cx="1949" cy="402.9531" fill="none" rx="3" ry="3" style="stroke: #038048; stroke-width: 1.0;"/></a><a href="https://github.com/bkryza/clang-uml/blob/b3382d8f041665d83d907a47f3dd9f0fd341e837/src/decorators/decorators.h#L94" target="_top" title="label" xlink:actuate="onRequest" xlink:href="https://github.com/bkryza/clang-uml/blob/b3382d8f041665d83d907a47f3dd9f0fd341e837/src/decorators/decorators.h#L94" xlink:show="new" xlink:title="label" xlink:type="simple"><text fill="#000000" font-family="sans-serif" font-size="11" lengthAdjust="spacingAndGlyphs" text-decoration="underline" textLength="133" x="1958" y="406.1636">label : const std::string</text></a><line style="stroke: #A80036; stroke-width: 1.5;" x1="1939" x2="2310" y1="412.7578" y2="412.7578"/><ellipse cx="1949" cy="423.7578" fill="#84BE84" rx="3" ry="3" style="stroke: #038048; stroke-width: 1.0;"/><text fill="#000000" font-family="sans-serif" font-size="11" lengthAdjust="spacingAndGlyphs" text-decoration="underline" textLength="347" x="1958" y="426.9683">from_string(std::string_view c) : std::shared_ptr&lt;decorator&gt;</text><!--MD5=[76fecc400b69a81d2c039c791e1cdb4b]
reverse link C_0001039481254924641333 to C_0001347272482812804274--><path d="M776.37,141.4431 C607.03,173.9931 559.36,168.8831 396.5,200.9531 C390.79,202.0831 384.99,203.2531 379.14,204.4631 " fill="none" id="C_0001039481254924641333&lt;-C_0001347272482812804274" style="stroke: #A80036; stroke-width: 1.0;"/><polygon fill="none" points="775.25,134.5231,796.23,137.5631,777.94,148.2631,775.25,134.5231" style="stroke: #A80036; stroke-width: 1.0;"/><!--MD5=[a19d977bd9b6a447cbb73e6147936d06]
reverse link C_0001039481254924641333 to C_0001462474947254948682--><path d="M852.47,148.4831 C797.69,170.4331 738.02,194.3431 690.5,213.3831 " fill="none" id="C_0001039481254924641333&lt;-C_0001462474947254948682" style="stroke: #A80036; stroke-width: 1.0;"/><polygon fill="none" points="850.05,141.9031,871.22,140.9631,855.26,154.9031,850.05,141.9031" style="stroke: #A80036; stroke-width: 1.0;"/><!--MD5=[6f8b56d6732e2974206eef7e7151352d]
reverse link C_0001039481254924641333 to C_0000685427930366073750--><path d="M1008.5,161.3131 C1008.5,179.3631 1008.5,197.8331 1008.5,213.1631 " fill="none" id="C_0001039481254924641333&lt;-C_0000685427930366073750" style="stroke: #A80036; stroke-width: 1.0;"/><polygon fill="none" points="1001.5,161.3031,1008.5,141.3031,1015.5,161.3031,1001.5,161.3031" style="stroke: #A80036; stroke-width: 1.0;"/><!--MD5=[e6dd79bef78f9c3c9b11165c0753a5fd]
reverse link C_0001039481254924641333 to C_0000116269747867995555--><path d="M1164.43,148.4431 C1213.66,168.1631 1266.85,189.4831 1311.63,207.4231 " fill="none" id="C_0001039481254924641333&lt;-C_0000116269747867995555" style="stroke: #A80036; stroke-width: 1.0;"/><polygon fill="none" points="1161.74,154.9031,1145.78,140.9631,1166.95,141.9031,1161.74,154.9031" style="stroke: #A80036; stroke-width: 1.0;"/><!--MD5=[7e4eb62d232577b9b971ef174e31081a]
reverse link C_0001039481254924641333 to C_0001576276283144132872--><path d="M1240.68,113.8231 C1356.75,131.6931 1498.18,159.4931 1620.5,200.9531 C1635.27,205.9531 1650.61,212.8531 1664.59,219.8831 " fill="none" id="C_0001039481254924641333&lt;-C_0001576276283144132872" style="stroke: #A80036; stroke-width: 1.0;"/><polygon fill="none" points="1239.53,120.7231,1220.8,110.8131,1241.62,106.8831,1239.53,120.7231" style="stroke: #A80036; stroke-width: 1.0;"/><!--MD5=[a3eee9c1bc499e4541b24f72c71ccdb4]
reverse link C_0001576276283144132872 to C_0000175979950567138488--><path d="M1643.62,289.8731 C1635.89,293.4631 1628.09,296.8931 1620.5,299.9531 C1563.6,322.8831 1499.03,343.5931 1443.46,359.8531 " fill="none" id="C_0001576276283144132872&lt;-C_0000175979950567138488" style="stroke: #A80036; stroke-width: 1.0;"/><polygon fill="none" points="1640.85,283.4331,1661.91,281.0431,1646.94,296.0431,1640.85,283.4331" style="stroke: #A80036; stroke-width: 1.0;"/><!--MD5=[e8a68b6f1244f1050ea9b0686c0cf722]
reverse link C_0001576276283144132872 to C_0001028911016492067053--><path d="M1716.5,301.0731 C1716.5,320.3431 1716.5,341.9931 1716.5,359.7431 " fill="none" id="C_0001576276283144132872&lt;-C_0001028911016492067053" style="stroke: #A80036; stroke-width: 1.0;"/><polygon fill="none" points="1709.5,301.0431,1716.5,281.0431,1723.5,301.0431,1709.5,301.0431" style="stroke: #A80036; stroke-width: 1.0;"/><!--MD5=[b4664a15417c19794b8effee01bb45e8]
reverse link C_0001576276283144132872 to C_0001534243399456949265--><path d="M1814.05,286.0031 C1876.98,308.2931 1958.69,337.2331 2022.48,359.8231 " fill="none" id="C_0001576276283144132872&lt;-C_0001534243399456949265" style="stroke: #A80036; stroke-width: 1.0;"/><polygon fill="none" points="1811.68,292.5931,1795.17,279.3131,1816.36,279.3931,1811.68,292.5931" style="stroke: #A80036; stroke-width: 1.0;"/><!--MD5=[19124600f7e5d5f18842e606e33ddf75]
@startuml
title clang-uml decorators model
class "decorator_toks" as C_0000532301235174338361
class C_0000532301235174338361 [[https://github.com/bkryza/clang-uml/blob/b3382d8f041665d83d907a47f3dd9f0fd341e837/src/decorators/decorators.h#L29{decorator_toks}]] {
+label : std::string [[[https://github.com/bkryza/clang-uml/blob/b3382d8f041665d83d907a47f3dd9f0fd341e837/src/decorators/decorators.h#L30{label}]]]
+diagrams : std::vector<std::string> [[[https://github.com/bkryza/clang-uml/blob/b3382d8f041665d83d907a47f3dd9f0fd341e837/src/decorators/decorators.h#L31{diagrams}]]]
+param : std::string [[[https://github.com/bkryza/clang-uml/blob/b3382d8f041665d83d907a47f3dd9f0fd341e837/src/decorators/decorators.h#L32{param}]]]
+text : std::string [[[https://github.com/bkryza/clang-uml/blob/b3382d8f041665d83d907a47f3dd9f0fd341e837/src/decorators/decorators.h#L33{text}]]]
}
class "decorator" as C_0001039481254924641333
class C_0001039481254924641333 [[https://github.com/bkryza/clang-uml/blob/b3382d8f041665d83d907a47f3dd9f0fd341e837/src/decorators/decorators.h#L36{decorator}]] {
+~decorator() = default : void
{static} +from_string(std::string_view c) : std::shared_ptr<decorator>
+applies_to_diagram(std::string name) : bool
#tokenize(const std::string & label, std::string_view c) : decorator_toks
+diagrams : std::vector<std::string> [[[https://github.com/bkryza/clang-uml/blob/b3382d8f041665d83d907a47f3dd9f0fd341e837/src/decorators/decorators.h#L37{diagrams}]]]
}
class "note" as C_0001347272482812804274
class C_0001347272482812804274 [[https://github.com/bkryza/clang-uml/blob/b3382d8f041665d83d907a47f3dd9f0fd341e837/src/decorators/decorators.h#L49{note}]] {
{static} +from_string(std::string_view c) : std::shared_ptr<decorator>
+position : std::string [[[https://github.com/bkryza/clang-uml/blob/b3382d8f041665d83d907a47f3dd9f0fd341e837/src/decorators/decorators.h#L52{position}]]]
+text : std::string [[[https://github.com/bkryza/clang-uml/blob/b3382d8f041665d83d907a47f3dd9f0fd341e837/src/decorators/decorators.h#L53{text}]]]
{static} +label : const std::string [[[https://github.com/bkryza/clang-uml/blob/b3382d8f041665d83d907a47f3dd9f0fd341e837/src/decorators/decorators.h#L50{label}]]]
}
class "skip" as C_0001462474947254948682
class C_0001462474947254948682 [[https://github.com/bkryza/clang-uml/blob/b3382d8f041665d83d907a47f3dd9f0fd341e837/src/decorators/decorators.h#L58{skip}]] {
{static} +from_string(std::string_view c) : std::shared_ptr<decorator>
{static} +label : const std::string [[[https://github.com/bkryza/clang-uml/blob/b3382d8f041665d83d907a47f3dd9f0fd341e837/src/decorators/decorators.h#L59{label}]]]
}
class "skip_relationship" as C_0000685427930366073750
class C_0000685427930366073750 [[https://github.com/bkryza/clang-uml/blob/b3382d8f041665d83d907a47f3dd9f0fd341e837/src/decorators/decorators.h#L64{skip_relationship}]] {
{static} +from_string(std::string_view c) : std::shared_ptr<decorator>
{static} +label : const std::string [[[https://github.com/bkryza/clang-uml/blob/b3382d8f041665d83d907a47f3dd9f0fd341e837/src/decorators/decorators.h#L65{label}]]]
}
class "style" as C_0000116269747867995555
class C_0000116269747867995555 [[https://github.com/bkryza/clang-uml/blob/b3382d8f041665d83d907a47f3dd9f0fd341e837/src/decorators/decorators.h#L70{style}]] {
{static} +from_string(std::string_view c) : std::shared_ptr<decorator>
+spec : std::string [[[https://github.com/bkryza/clang-uml/blob/b3382d8f041665d83d907a47f3dd9f0fd341e837/src/decorators/decorators.h#L73{spec}]]]
{static} +label : const std::string [[[https://github.com/bkryza/clang-uml/blob/b3382d8f041665d83d907a47f3dd9f0fd341e837/src/decorators/decorators.h#L71{label}]]]
}
class "relationship" as C_0001576276283144132872
class C_0001576276283144132872 [[https://github.com/bkryza/clang-uml/blob/b3382d8f041665d83d907a47f3dd9f0fd341e837/src/decorators/decorators.h#L77{relationship}]] {
+multiplicity : std::string [[[https://github.com/bkryza/clang-uml/blob/b3382d8f041665d83d907a47f3dd9f0fd341e837/src/decorators/decorators.h#L78{multiplicity}]]]
}
class "aggregation" as C_0000175979950567138488
class C_0000175979950567138488 [[https://github.com/bkryza/clang-uml/blob/b3382d8f041665d83d907a47f3dd9f0fd341e837/src/decorators/decorators.h#L81{aggregation}]] {
{static} +from_string(std::string_view c) : std::shared_ptr<decorator>
{static} +label : const std::string [[[https://github.com/bkryza/clang-uml/blob/b3382d8f041665d83d907a47f3dd9f0fd341e837/src/decorators/decorators.h#L82{label}]]]
}
class "composition" as C_0001028911016492067053
class C_0001028911016492067053 [[https://github.com/bkryza/clang-uml/blob/b3382d8f041665d83d907a47f3dd9f0fd341e837/src/decorators/decorators.h#L87{composition}]] {
{static} +from_string(std::string_view c) : std::shared_ptr<decorator>
{static} +label : const std::string [[[https://github.com/bkryza/clang-uml/blob/b3382d8f041665d83d907a47f3dd9f0fd341e837/src/decorators/decorators.h#L88{label}]]]
}
class "association" as C_0001534243399456949265
class C_0001534243399456949265 [[https://github.com/bkryza/clang-uml/blob/b3382d8f041665d83d907a47f3dd9f0fd341e837/src/decorators/decorators.h#L93{association}]] {
{static} +from_string(std::string_view c) : std::shared_ptr<decorator>
{static} +label : const std::string [[[https://github.com/bkryza/clang-uml/blob/b3382d8f041665d83d907a47f3dd9f0fd341e837/src/decorators/decorators.h#L94{label}]]]
}
C_0001039481254924641333 <|- - C_0001347272482812804274
C_0001039481254924641333 <|- - C_0001462474947254948682
C_0001039481254924641333 <|- - C_0000685427930366073750
C_0001039481254924641333 <|- - C_0000116269747867995555
C_0001039481254924641333 <|- - C_0001576276283144132872
C_0001576276283144132872 <|- - C_0000175979950567138488
C_0001576276283144132872 <|- - C_0001028911016492067053
C_0001576276283144132872 <|- - C_0001534243399456949265
@enduml

PlantUML version 1.2020.02(Sun Mar 01 11:22:07 CET 2020)
(GPL source distribution)
Java Runtime: OpenJDK Runtime Environment
JVM: OpenJDK 64-Bit Server VM
Java Version: 11.0.16+8-post-Ubuntu-0ubuntu122.04
Operating System: Linux
Default Encoding: UTF-8
Language: en
Country: US
--></g></svg>