<?xml version="1.0" encoding="UTF-8" standalone="no"?><svg xmlns="http://www.w3.org/2000/svg" xmlns:xlink="http://www.w3.org/1999/xlink" contentScriptType="application/ecmascript" contentStyleType="text/css" height="371px" preserveAspectRatio="none" style="width:731px;height:371px;" version="1.1" viewBox="0 0 731 371" width="731px" zoomAndPan="magnify"><defs><filter height="300%" id="f1uznj4by83mu7" width="300%" x="-1" y="-1"><feGaussianBlur result="blurOut" stdDeviation="2.0"/><feColorMatrix in="blurOut" result="blurOut2" type="matrix" values="0 0 0 0 0 0 0 0 0 0 0 0 0 0 0 0 0 0 .4 0"/><feOffset dx="4.0" dy="4.0" in="blurOut2" result="blurOut3"/><feBlend in="SourceGraphic" in2="blurOut3" mode="normal"/></filter></defs><g><text fill="#000000" font-family="sans-serif" font-size="18" lengthAdjust="spacingAndGlyphs" textLength="317" x="213" y="16.708">Configuration model class hierarchy</text><!--MD5=[eaa669cb77c15bac839f640e513e0276]
cluster C_0000111389493058790497--><polygon fill="#FFFFFF" filter="url(#f1uznj4by83mu7)" points="22,44.9531,77,44.9531,84,67.25,709,67.25,709,359.9531,22,359.9531,22,44.9531" style="stroke: #000000; stroke-width: 1.5;"/><line style="stroke: #000000; stroke-width: 1.5;" x1="22" x2="84" y1="67.25" y2="67.25"/><text fill="#000000" font-family="sans-serif" font-size="14" font-weight="bold" lengthAdjust="spacingAndGlyphs" textLength="49" x="26" y="59.9482">config</text><!--MD5=[df320ff54115a1bc3532a94edb46ba67]
class C_0000120779063265662583--><a href="structclanguml_1_1config_1_1inheritable__diagram__options.html" target="_top" title="Represents subset of inheritable configuration options" xlink:actuate="onRequest" xlink:href="structclanguml_1_1config_1_1inheritable__diagram__options.html" xlink:show="new" xlink:title="Represents subset of inheritable configuration options" xlink:type="simple"><rect fill="#FEFECE" filter="url(#f1uznj4by83mu7)" height="48" id="C_0000120779063265662583" style="stroke: #A80036; stroke-width: 1.5;" width="209" x="256.5" y="79.9531"/><ellipse cx="271.5" cy="95.9531" fill="#ADD1B2" rx="11" ry="11" style="stroke: #A80036; stroke-width: 1.0;"/><path d="M274.4688,101.5938 Q273.8906,101.8906 273.25,102.0313 Q272.6094,102.1875 271.9063,102.1875 Q269.4063,102.1875 268.0781,100.5469 Q266.7656,98.8906 266.7656,95.7656 Q266.7656,92.6406 268.0781,90.9844 Q269.4063,89.3281 271.9063,89.3281 Q272.6094,89.3281 273.25,89.4844 Q273.9063,89.6406 274.4688,89.9375 L274.4688,92.6563 Q273.8438,92.0781 273.25,91.8125 Q272.6563,91.5313 272.0313,91.5313 Q270.6875,91.5313 270,92.6094 Q269.3125,93.6719 269.3125,95.7656 Q269.3125,97.8594 270,98.9375 Q270.6875,100 272.0313,100 Q272.6563,100 273.25,99.7344 Q273.8438,99.4531 274.4688,98.875 L274.4688,101.5938 Z "/><text fill="#000000" font-family="sans-serif" font-size="12" lengthAdjust="spacingAndGlyphs" textLength="177" x="285.5" y="100.1074">inheritable_diagram_options</text><line style="stroke: #A80036; stroke-width: 1.5;" x1="257.5" x2="464.5" y1="111.9531" y2="111.9531"/><line style="stroke: #A80036; stroke-width: 1.5;" x1="257.5" x2="464.5" y1="119.9531" y2="119.9531"/></a><!--MD5=[ae7762d6dc8ec1ee432785f9a7101014]
class C_0000400244097365422548--><a href="structclanguml_1_1config_1_1diagram.html" target="_top" title="Common diagram configuration type" xlink:actuate="onRequest" xlink:href="structclanguml_1_1config_1_1diagram.html" xlink:show="new" xlink:title="Common diagram configuration type" xlink:type="simple"><rect fill="#FEFECE" filter="url(#f1uznj4by83mu7)" height="48" id="C_0000400244097365422548" style="stroke: #A80036; stroke-width: 1.5;" width="83" x="319.5" y="187.9531"/><ellipse cx="334.5" cy="203.9531" fill="#ADD1B2" rx="11" ry="11" style="stroke: #A80036; stroke-width: 1.0;"/><path d="M337.4688,209.5938 Q336.8906,209.8906 336.25,210.0313 Q335.6094,210.1875 334.9063,210.1875 Q332.4063,210.1875 331.0781,208.5469 Q329.7656,206.8906 329.7656,203.7656 Q329.7656,200.6406 331.0781,198.9844 Q332.4063,197.3281 334.9063,197.3281 Q335.6094,197.3281 336.25,197.4844 Q336.9063,197.6406 337.4688,197.9375 L337.4688,200.6563 Q336.8438,200.0781 336.25,199.8125 Q335.6563,199.5313 335.0313,199.5313 Q333.6875,199.5313 333,200.6094 Q332.3125,201.6719 332.3125,203.7656 Q332.3125,205.8594 333,206.9375 Q333.6875,208 335.0313,208 Q335.6563,208 336.25,207.7344 Q336.8438,207.4531 337.4688,206.875 L337.4688,209.5938 Z "/><text fill="#000000" font-family="sans-serif" font-size="12" lengthAdjust="spacingAndGlyphs" textLength="51" x="348.5" y="208.1074">diagram</text><line style="stroke: #A80036; stroke-width: 1.5;" x1="320.5" x2="401.5" y1="219.9531" y2="219.9531"/><line style="stroke: #A80036; stroke-width: 1.5;" x1="320.5" x2="401.5" y1="227.9531" y2="227.9531"/></a><!--MD5=[a6f03e77b21e27831f18883e626512f8]
class C_0000315821915147252995--><a href="structclanguml_1_1config_1_1class__diagram.html" target="_top" title="Class diagram configuration" xlink:actuate="onRequest" xlink:href="structclanguml_1_1config_1_1class__diagram.html" xlink:show="new" xlink:title="Class diagram configuration" xlink:type="simple"><rect fill="#FEFECE" filter="url(#f1uznj4by83mu7)" height="48" id="C_0000315821915147252995" style="stroke: #A80036; stroke-width: 1.5;" width="121" x="38.5" y="295.9531"/><ellipse cx="53.5" cy="311.9531" fill="#ADD1B2" rx="11" ry="11" style="stroke: #A80036; stroke-width: 1.0;"/><path d="M56.4688,317.5938 Q55.8906,317.8906 55.25,318.0313 Q54.6094,318.1875 53.9063,318.1875 Q51.4063,318.1875 50.0781,316.5469 Q48.7656,314.8906 48.7656,311.7656 Q48.7656,308.6406 50.0781,306.9844 Q51.4063,305.3281 53.9063,305.3281 Q54.6094,305.3281 55.25,305.4844 Q55.9063,305.6406 56.4688,305.9375 L56.4688,308.6563 Q55.8438,308.0781 55.25,307.8125 Q54.6563,307.5313 54.0313,307.5313 Q52.6875,307.5313 52,308.6094 Q51.3125,309.6719 51.3125,311.7656 Q51.3125,313.8594 52,314.9375 Q52.6875,316 54.0313,316 Q54.6563,316 55.25,315.7344 Q55.8438,315.4531 56.4688,314.875 L56.4688,317.5938 Z "/><text fill="#000000" font-family="sans-serif" font-size="12" lengthAdjust="spacingAndGlyphs" textLength="89" x="67.5" y="316.1074">class_diagram</text><line style="stroke: #A80036; stroke-width: 1.5;" x1="39.5" x2="158.5" y1="327.9531" y2="327.9531"/><line style="stroke: #A80036; stroke-width: 1.5;" x1="39.5" x2="158.5" y1="335.9531" y2="335.9531"/></a><!--MD5=[a32ed790dff5dc10a0e723f2d7539c40]
class C_0002069553655160139136--><a href="structclanguml_1_1config_1_1sequence__diagram.html" target="_top" title="Sequence diagram configuration" xlink:actuate="onRequest" xlink:href="structclanguml_1_1config_1_1sequence__diagram.html" xlink:show="new" xlink:title="Sequence diagram configuration" xlink:type="simple"><rect fill="#FEFECE" filter="url(#f1uznj4by83mu7)" height="48" id="C_0002069553655160139136" style="stroke: #A80036; stroke-width: 1.5;" width="151" x="194.5" y="295.9531"/><ellipse cx="209.5" cy="311.9531" fill="#ADD1B2" rx="11" ry="11" style="stroke: #A80036; stroke-width: 1.0;"/><path d="M212.4688,317.5938 Q211.8906,317.8906 211.25,318.0313 Q210.6094,318.1875 209.9063,318.1875 Q207.4063,318.1875 206.0781,316.5469 Q204.7656,314.8906 204.7656,311.7656 Q204.7656,308.6406 206.0781,306.9844 Q207.4063,305.3281 209.9063,305.3281 Q210.6094,305.3281 211.25,305.4844 Q211.9063,305.6406 212.4688,305.9375 L212.4688,308.6563 Q211.8438,308.0781 211.25,307.8125 Q210.6563,307.5313 210.0313,307.5313 Q208.6875,307.5313 208,308.6094 Q207.3125,309.6719 207.3125,311.7656 Q207.3125,313.8594 208,314.9375 Q208.6875,316 210.0313,316 Q210.6563,316 211.25,315.7344 Q211.8438,315.4531 212.4688,314.875 L212.4688,317.5938 Z "/><text fill="#000000" font-family="sans-serif" font-size="12" lengthAdjust="spacingAndGlyphs" textLength="119" x="223.5" y="316.1074">sequence_diagram</text><line style="stroke: #A80036; stroke-width: 1.5;" x1="195.5" x2="344.5" y1="327.9531" y2="327.9531"/><line style="stroke: #A80036; stroke-width: 1.5;" x1="195.5" x2="344.5" y1="335.9531" y2="335.9531"/></a><!--MD5=[934b9acef2c528d87ee2817baa499768]
class C_0002030177163277970590--><a href="structclanguml_1_1config_1_1package__diagram.html" target="_top" title="Package diagram configuration" xlink:actuate="onRequest" xlink:href="structclanguml_1_1config_1_1package__diagram.html" xlink:show="new" xlink:title="Package diagram configuration" xlink:type="simple"><rect fill="#FEFECE" filter="url(#f1uznj4by83mu7)" height="48" id="C_0002030177163277970590" style="stroke: #A80036; stroke-width: 1.5;" width="143" x="380.5" y="295.9531"/><ellipse cx="395.5" cy="311.9531" fill="#ADD1B2" rx="11" ry="11" style="stroke: #A80036; stroke-width: 1.0;"/><path d="M398.4688,317.5938 Q397.8906,317.8906 397.25,318.0313 Q396.6094,318.1875 395.9063,318.1875 Q393.4063,318.1875 392.0781,316.5469 Q390.7656,314.8906 390.7656,311.7656 Q390.7656,308.6406 392.0781,306.9844 Q393.4063,305.3281 395.9063,305.3281 Q396.6094,305.3281 397.25,305.4844 Q397.9063,305.6406 398.4688,305.9375 L398.4688,308.6563 Q397.8438,308.0781 397.25,307.8125 Q396.6563,307.5313 396.0313,307.5313 Q394.6875,307.5313 394,308.6094 Q393.3125,309.6719 393.3125,311.7656 Q393.3125,313.8594 394,314.9375 Q394.6875,316 396.0313,316 Q396.6563,316 397.25,315.7344 Q397.8438,315.4531 398.4688,314.875 L398.4688,317.5938 Z "/><text fill="#000000" font-family="sans-serif" font-size="12" lengthAdjust="spacingAndGlyphs" textLength="111" x="409.5" y="316.1074">package_diagram</text><line style="stroke: #A80036; stroke-width: 1.5;" x1="381.5" x2="522.5" y1="327.9531" y2="327.9531"/><line style="stroke: #A80036; stroke-width: 1.5;" x1="381.5" x2="522.5" y1="335.9531" y2="335.9531"/></a><!--MD5=[5adaed36c2bdd088945d1f50087d7360]
class C_0000509333813868966475--><a href="structclanguml_1_1config_1_1include__diagram.html" target="_top" title="Include diagram configuration" xlink:actuate="onRequest" xlink:href="structclanguml_1_1config_1_1include__diagram.html" xlink:show="new" xlink:title="Include diagram configuration" xlink:type="simple"><rect fill="#FEFECE" filter="url(#f1uznj4by83mu7)" height="48" id="C_0000509333813868966475" style="stroke: #A80036; stroke-width: 1.5;" width="134" x="559" y="295.9531"/><ellipse cx="574" cy="311.9531" fill="#ADD1B2" rx="11" ry="11" style="stroke: #A80036; stroke-width: 1.0;"/><path d="M576.9688,317.5938 Q576.3906,317.8906 575.75,318.0313 Q575.1094,318.1875 574.4063,318.1875 Q571.9063,318.1875 570.5781,316.5469 Q569.2656,314.8906 569.2656,311.7656 Q569.2656,308.6406 570.5781,306.9844 Q571.9063,305.3281 574.4063,305.3281 Q575.1094,305.3281 575.75,305.4844 Q576.4063,305.6406 576.9688,305.9375 L576.9688,308.6563 Q576.3438,308.0781 575.75,307.8125 Q575.1563,307.5313 574.5313,307.5313 Q573.1875,307.5313 572.5,308.6094 Q571.8125,309.6719 571.8125,311.7656 Q571.8125,313.8594 572.5,314.9375 Q573.1875,316 574.5313,316 Q575.1563,316 575.75,315.7344 Q576.3438,315.4531 576.9688,314.875 L576.9688,317.5938 Z "/><text fill="#000000" font-family="sans-serif" font-size="12" lengthAdjust="spacingAndGlyphs" textLength="102" x="588" y="316.1074">include_diagram</text><line style="stroke: #A80036; stroke-width: 1.5;" x1="560" x2="692" y1="327.9531" y2="327.9531"/><line style="stroke: #A80036; stroke-width: 1.5;" x1="560" x2="692" y1="335.9531" y2="335.9531"/></a><!--MD5=[1965c244da8ec8b762e71e1b354e76ef]
reverse link C_0000120779063265662583 to C_0000400244097365422548--><path d="M361,147.9731 C361,161.5331 361,175.9931 361,187.6331 " fill="none" id="C_0000120779063265662583&lt;-C_0000400244097365422548" style="stroke: #A80036; stroke-width: 1.0;"/><polygon fill="none" points="354,147.9531,361,127.9531,368,147.9531,354,147.9531" style="stroke: #A80036; stroke-width: 1.0;"/><!--MD5=[3aac6dae346eeaf38bc0b73b46a544a6]
reverse link C_0000400244097365422548 to C_0000315821915147252995--><path d="M300.92,237.2631 C257.33,254.8931 198.75,278.5931 155.91,295.9231 " fill="none" id="C_0000400244097365422548&lt;-C_0000315821915147252995" style="stroke: #A80036; stroke-width: 1.0;"/><polygon fill="none" points="298.32,230.7631,319.49,229.7531,303.57,243.7431,298.32,230.7631" style="stroke: #A80036; stroke-width: 1.0;"/><!--MD5=[6e7258ce68bd4a6e41d1c81f1d3ace66]
reverse link C_0000400244097365422548 to C_0002069553655160139136--><path d="M328.18,251.1831 C315.42,266.0531 301.2,282.6031 290.02,295.6331 " fill="none" id="C_0000400244097365422548&lt;-C_0002069553655160139136" style="stroke: #A80036; stroke-width: 1.0;"/><polygon fill="none" points="322.92,246.5731,341.25,235.9531,333.54,255.6931,322.92,246.5731" style="stroke: #A80036; stroke-width: 1.0;"/><!--MD5=[159a6af8703ab912c2a1b370fdc3b5ab]
reverse link C_0000400244097365422548 to C_0002030177163277970590--><path d="M393.82,251.1831 C406.58,266.0531 420.8,282.6031 431.98,295.6331 " fill="none" id="C_0000400244097365422548&lt;-C_0002030177163277970590" style="stroke: #A80036; stroke-width: 1.0;"/><polygon fill="none" points="388.46,255.6931,380.75,235.9531,399.08,246.5731,388.46,255.6931" style="stroke: #A80036; stroke-width: 1.0;"/><!--MD5=[bba016cb89d24d9b4d51ca1c05ccf4ab]
reverse link C_0000400244097365422548 to C_0000509333813868966475--><path d="M421.46,237.1331 C465.53,254.7631 524.89,278.5031 568.3,295.8731 " fill="none" id="C_0000400244097365422548&lt;-C_0000509333813868966475" style="stroke: #A80036; stroke-width: 1.0;"/><polygon fill="none" points="418.67,243.5631,402.7,229.6331,423.87,230.5631,418.67,243.5631" style="stroke: #A80036; stroke-width: 1.0;"/><!--MD5=[d6ec6b5e75911e6c227653497795cf9e]
@startuml
title Configuration model class hierarchy
package [config] as C_0000111389493058790497 {
class "inheritable_diagram_options" as C_0000120779063265662583
class C_0000120779063265662583 [[structclanguml_1_1config_1_1inheritable__diagram__options.html{Represents subset of inheritable configuration options}]] {
__
}
class "diagram" as C_0000400244097365422548
class C_0000400244097365422548 [[structclanguml_1_1config_1_1diagram.html{Common diagram configuration type}]] {
__
}
class "class_diagram" as C_0000315821915147252995
class C_0000315821915147252995 [[structclanguml_1_1config_1_1class__diagram.html{Class diagram configuration}]] {
__
}
class "sequence_diagram" as C_0002069553655160139136
class C_0002069553655160139136 [[structclanguml_1_1config_1_1sequence__diagram.html{Sequence diagram configuration}]] {
__
}
class "package_diagram" as C_0002030177163277970590
class C_0002030177163277970590 [[structclanguml_1_1config_1_1package__diagram.html{Package diagram configuration}]] {
__
}
class "include_diagram" as C_0000509333813868966475
class C_0000509333813868966475 [[structclanguml_1_1config_1_1include__diagram.html{Include diagram configuration}]] {
__
}
}
C_0000120779063265662583 <|- - C_0000400244097365422548
C_0000400244097365422548 <|- - C_0000315821915147252995
C_0000400244097365422548 <|- - C_0002069553655160139136
C_0000400244097365422548 <|- - C_0002030177163277970590
C_0000400244097365422548 <|- - C_0000509333813868966475

@enduml

PlantUML version 1.2020.02(Sun Mar 01 11:22:07 CET 2020)
(GPL source distribution)
Java Runtime: OpenJDK Runtime Environment
JVM: OpenJDK 64-Bit Server VM
Java Version: 11.0.20.1+1-post-Ubuntu-0ubuntu122.04
Operating System: Linux
Default Encoding: UTF-8
Language: en
Country: US
--></g></svg>