<?xml version="1.0" encoding="UTF-8" standalone="no"?><svg xmlns="http://www.w3.org/2000/svg" xmlns:xlink="http://www.w3.org/1999/xlink" contentScriptType="application/ecmascript" contentStyleType="text/css" height="1292px" preserveAspectRatio="none" style="width:1398px;height:1292px;" version="1.1" viewBox="0 0 1398 1292" width="1398px" zoomAndPan="magnify"><defs><filter height="300%" id="f19hdtoghv1w75" width="300%" x="-1" y="-1"><feGaussianBlur result="blurOut" stdDeviation="2.0"/><feColorMatrix in="blurOut" result="blurOut2" type="matrix" values="0 0 0 0 0 0 0 0 0 0 0 0 0 0 0 0 0 0 .4 0"/><feOffset dx="4.0" dy="4.0" in="blurOut2" result="blurOut3"/><feBlend in="SourceGraphic" in2="blurOut3" mode="normal"/></filter></defs><g><text fill="#000000" font-family="sans-serif" font-size="18" lengthAdjust="spacingAndGlyphs" textLength="320" x="545" y="16.708">Diagram filter visitor class hierarchy</text><!--MD5=[7ba9c127878a642fef3f451151dda753]
cluster C_0000316605034920222648--><polygon fill="#FFFFFF" filter="url(#f19hdtoghv1w75)" points="22,44.9531,95,44.9531,102,67.25,1376,67.25,1376,1280.9531,22,1280.9531,22,44.9531" style="stroke: #000000; stroke-width: 1.5;"/><line style="stroke: #000000; stroke-width: 1.5;" x1="22" x2="102" y1="67.25" y2="67.25"/><text fill="#000000" font-family="sans-serif" font-size="14" font-weight="bold" lengthAdjust="spacingAndGlyphs" textLength="67" x="26" y="59.9482">common</text><!--MD5=[f7110622f5be760311cd0491b75bf8f9]
cluster C_0000083721806430512831--><polygon fill="#FFFFFF" filter="url(#f19hdtoghv1w75)" points="46,87.9531,100,87.9531,107,110.25,1352,110.25,1352,1256.9531,46,1256.9531,46,87.9531" style="stroke: #000000; stroke-width: 1.5;"/><line style="stroke: #000000; stroke-width: 1.5;" x1="46" x2="107" y1="110.25" y2="110.25"/><text fill="#000000" font-family="sans-serif" font-size="14" font-weight="bold" lengthAdjust="spacingAndGlyphs" textLength="48" x="50" y="102.9482">model</text><!--MD5=[348c2d3db5652c25145b0d8e485c461e]
class C_0000469458052685692314--><a href="classclanguml_1_1common_1_1model_1_1filter__visitor.html" target="_top" title="Base class for any diagram filter." xlink:actuate="onRequest" xlink:href="classclanguml_1_1common_1_1model_1_1filter__visitor.html" xlink:show="new" xlink:title="Base class for any diagram filter." xlink:type="simple"><rect fill="#FEFECE" filter="url(#f19hdtoghv1w75)" height="48" id="C_0000469458052685692314" style="stroke: #A80036; stroke-width: 1.5;" width="103" x="62" y="663.9531"/><ellipse cx="77" cy="679.9531" fill="#ADD1B2" rx="11" ry="11" style="stroke: #A80036; stroke-width: 1.0;"/><path d="M79.9688,685.5938 Q79.3906,685.8906 78.75,686.0313 Q78.1094,686.1875 77.4063,686.1875 Q74.9063,686.1875 73.5781,684.5469 Q72.2656,682.8906 72.2656,679.7656 Q72.2656,676.6406 73.5781,674.9844 Q74.9063,673.3281 77.4063,673.3281 Q78.1094,673.3281 78.75,673.4844 Q79.4063,673.6406 79.9688,673.9375 L79.9688,676.6563 Q79.3438,676.0781 78.75,675.8125 Q78.1563,675.5313 77.5313,675.5313 Q76.1875,675.5313 75.5,676.6094 Q74.8125,677.6719 74.8125,679.7656 Q74.8125,681.8594 75.5,682.9375 Q76.1875,684 77.5313,684 Q78.1563,684 78.75,683.7344 Q79.3438,683.4531 79.9688,682.875 L79.9688,685.5938 Z "/><text fill="#000000" font-family="sans-serif" font-size="12" lengthAdjust="spacingAndGlyphs" textLength="71" x="91" y="684.1074">filter_visitor</text><line style="stroke: #A80036; stroke-width: 1.5;" x1="63" x2="164" y1="695.9531" y2="695.9531"/><line style="stroke: #A80036; stroke-width: 1.5;" x1="63" x2="164" y1="703.9531" y2="703.9531"/></a><!--MD5=[4991383f4171a9218cca625e40b0fe42]
class C_0000605829206649563575--><a href="structclanguml_1_1common_1_1model_1_1anyof__filter.html" target="_top" title="anyof_filter" xlink:actuate="onRequest" xlink:href="structclanguml_1_1common_1_1model_1_1anyof__filter.html" xlink:show="new" xlink:title="anyof_filter" xlink:type="simple"><rect fill="#FEFECE" filter="url(#f19hdtoghv1w75)" height="48" id="C_0000605829206649563575" style="stroke: #A80036; stroke-width: 1.5;" width="100" x="584.5" y="657.9531"/><ellipse cx="599.5" cy="673.9531" fill="#ADD1B2" rx="11" ry="11" style="stroke: #A80036; stroke-width: 1.0;"/><path d="M602.4688,679.5938 Q601.8906,679.8906 601.25,680.0313 Q600.6094,680.1875 599.9063,680.1875 Q597.4063,680.1875 596.0781,678.5469 Q594.7656,676.8906 594.7656,673.7656 Q594.7656,670.6406 596.0781,668.9844 Q597.4063,667.3281 599.9063,667.3281 Q600.6094,667.3281 601.25,667.4844 Q601.9063,667.6406 602.4688,667.9375 L602.4688,670.6563 Q601.8438,670.0781 601.25,669.8125 Q600.6563,669.5313 600.0313,669.5313 Q598.6875,669.5313 598,670.6094 Q597.3125,671.6719 597.3125,673.7656 Q597.3125,675.8594 598,676.9375 Q598.6875,678 600.0313,678 Q600.6563,678 601.25,677.7344 Q601.8438,677.4531 602.4688,676.875 L602.4688,679.5938 Z "/><text fill="#000000" font-family="sans-serif" font-size="12" lengthAdjust="spacingAndGlyphs" textLength="68" x="613.5" y="678.1074">anyof_filter</text><line style="stroke: #A80036; stroke-width: 1.5;" x1="585.5" x2="683.5" y1="689.9531" y2="689.9531"/><line style="stroke: #A80036; stroke-width: 1.5;" x1="585.5" x2="683.5" y1="697.9531" y2="697.9531"/></a><!--MD5=[9cfce3424a6356171c77b8391b426661]
class C_0001816240256470820189--><a href="structclanguml_1_1common_1_1model_1_1namespace__filter.html" target="_top" title="namespace_filter" xlink:actuate="onRequest" xlink:href="structclanguml_1_1common_1_1model_1_1namespace__filter.html" xlink:show="new" xlink:title="namespace_filter" xlink:type="simple"><rect fill="#FEFECE" filter="url(#f19hdtoghv1w75)" height="48" id="C_0001816240256470820189" style="stroke: #A80036; stroke-width: 1.5;" width="139" x="565" y="1192.9531"/><ellipse cx="580" cy="1208.9531" fill="#ADD1B2" rx="11" ry="11" style="stroke: #A80036; stroke-width: 1.0;"/><path d="M582.9688,1214.5938 Q582.3906,1214.8906 581.75,1215.0313 Q581.1094,1215.1875 580.4063,1215.1875 Q577.9063,1215.1875 576.5781,1213.5469 Q575.2656,1211.8906 575.2656,1208.7656 Q575.2656,1205.6406 576.5781,1203.9844 Q577.9063,1202.3281 580.4063,1202.3281 Q581.1094,1202.3281 581.75,1202.4844 Q582.4063,1202.6406 582.9688,1202.9375 L582.9688,1205.6563 Q582.3438,1205.0781 581.75,1204.8125 Q581.1563,1204.5313 580.5313,1204.5313 Q579.1875,1204.5313 578.5,1205.6094 Q577.8125,1206.6719 577.8125,1208.7656 Q577.8125,1210.8594 578.5,1211.9375 Q579.1875,1213 580.5313,1213 Q581.1563,1213 581.75,1212.7344 Q582.3438,1212.4531 582.9688,1211.875 L582.9688,1214.5938 Z "/><text fill="#000000" font-family="sans-serif" font-size="12" lengthAdjust="spacingAndGlyphs" textLength="107" x="594" y="1213.1074">namespace_filter</text><line style="stroke: #A80036; stroke-width: 1.5;" x1="566" x2="703" y1="1224.9531" y2="1224.9531"/><line style="stroke: #A80036; stroke-width: 1.5;" x1="566" x2="703" y1="1232.9531" y2="1232.9531"/></a><!--MD5=[50a823d282f0d0a0713932d3b5318c3a]
class C_0000690341236618660423--><a href="structclanguml_1_1common_1_1model_1_1element__filter.html" target="_top" title="element_filter" xlink:actuate="onRequest" xlink:href="structclanguml_1_1common_1_1model_1_1element__filter.html" xlink:show="new" xlink:title="element_filter" xlink:type="simple"><rect fill="#FEFECE" filter="url(#f19hdtoghv1w75)" height="48" id="C_0000690341236618660423" style="stroke: #A80036; stroke-width: 1.5;" width="117" x="576" y="1109.9531"/><ellipse cx="591" cy="1125.9531" fill="#ADD1B2" rx="11" ry="11" style="stroke: #A80036; stroke-width: 1.0;"/><path d="M593.9688,1131.5938 Q593.3906,1131.8906 592.75,1132.0313 Q592.1094,1132.1875 591.4063,1132.1875 Q588.9063,1132.1875 587.5781,1130.5469 Q586.2656,1128.8906 586.2656,1125.7656 Q586.2656,1122.6406 587.5781,1120.9844 Q588.9063,1119.3281 591.4063,1119.3281 Q592.1094,1119.3281 592.75,1119.4844 Q593.4063,1119.6406 593.9688,1119.9375 L593.9688,1122.6563 Q593.3438,1122.0781 592.75,1121.8125 Q592.1563,1121.5313 591.5313,1121.5313 Q590.1875,1121.5313 589.5,1122.6094 Q588.8125,1123.6719 588.8125,1125.7656 Q588.8125,1127.8594 589.5,1128.9375 Q590.1875,1130 591.5313,1130 Q592.1563,1130 592.75,1129.7344 Q593.3438,1129.4531 593.9688,1128.875 L593.9688,1131.5938 Z "/><text fill="#000000" font-family="sans-serif" font-size="12" lengthAdjust="spacingAndGlyphs" textLength="85" x="605" y="1130.1074">element_filter</text><line style="stroke: #A80036; stroke-width: 1.5;" x1="577" x2="692" y1="1141.9531" y2="1141.9531"/><line style="stroke: #A80036; stroke-width: 1.5;" x1="577" x2="692" y1="1149.9531" y2="1149.9531"/></a><!--MD5=[97547c2450036638bcec6f72d4b27f74]
class C_0002051668456717902300--><a href="structclanguml_1_1common_1_1model_1_1element__type__filter.html" target="_top" title="element_type_filter" xlink:actuate="onRequest" xlink:href="structclanguml_1_1common_1_1model_1_1element__type__filter.html" xlink:show="new" xlink:title="element_type_filter" xlink:type="simple"><rect fill="#FEFECE" filter="url(#f19hdtoghv1w75)" height="48" id="C_0002051668456717902300" style="stroke: #A80036; stroke-width: 1.5;" width="150" x="559.5" y="1026.9531"/><ellipse cx="574.5" cy="1042.9531" fill="#ADD1B2" rx="11" ry="11" style="stroke: #A80036; stroke-width: 1.0;"/><path d="M577.4688,1048.5938 Q576.8906,1048.8906 576.25,1049.0313 Q575.6094,1049.1875 574.9063,1049.1875 Q572.4063,1049.1875 571.0781,1047.5469 Q569.7656,1045.8906 569.7656,1042.7656 Q569.7656,1039.6406 571.0781,1037.9844 Q572.4063,1036.3281 574.9063,1036.3281 Q575.6094,1036.3281 576.25,1036.4844 Q576.9063,1036.6406 577.4688,1036.9375 L577.4688,1039.6563 Q576.8438,1039.0781 576.25,1038.8125 Q575.6563,1038.5313 575.0313,1038.5313 Q573.6875,1038.5313 573,1039.6094 Q572.3125,1040.6719 572.3125,1042.7656 Q572.3125,1044.8594 573,1045.9375 Q573.6875,1047 575.0313,1047 Q575.6563,1047 576.25,1046.7344 Q576.8438,1046.4531 577.4688,1045.875 L577.4688,1048.5938 Z "/><text fill="#000000" font-family="sans-serif" font-size="12" lengthAdjust="spacingAndGlyphs" textLength="118" x="588.5" y="1047.1074">element_type_filter</text><line style="stroke: #A80036; stroke-width: 1.5;" x1="560.5" x2="708.5" y1="1058.9531" y2="1058.9531"/><line style="stroke: #A80036; stroke-width: 1.5;" x1="560.5" x2="708.5" y1="1066.9531" y2="1066.9531"/></a><!--MD5=[71d01f1e4df54f674dba9adf3e9cbaa4]
class C_0001897369211795036987--><a href="structclanguml_1_1common_1_1model_1_1method__type__filter.html" target="_top" title="method_type_filter" xlink:actuate="onRequest" xlink:href="structclanguml_1_1common_1_1model_1_1method__type__filter.html" xlink:show="new" xlink:title="method_type_filter" xlink:type="simple"><rect fill="#FEFECE" filter="url(#f19hdtoghv1w75)" height="48" id="C_0001897369211795036987" style="stroke: #A80036; stroke-width: 1.5;" width="147" x="1189" y="627.9531"/><ellipse cx="1204" cy="643.9531" fill="#ADD1B2" rx="11" ry="11" style="stroke: #A80036; stroke-width: 1.0;"/><path d="M1206.9688,649.5938 Q1206.3906,649.8906 1205.75,650.0313 Q1205.1094,650.1875 1204.4063,650.1875 Q1201.9063,650.1875 1200.5781,648.5469 Q1199.2656,646.8906 1199.2656,643.7656 Q1199.2656,640.6406 1200.5781,638.9844 Q1201.9063,637.3281 1204.4063,637.3281 Q1205.1094,637.3281 1205.75,637.4844 Q1206.4063,637.6406 1206.9688,637.9375 L1206.9688,640.6563 Q1206.3438,640.0781 1205.75,639.8125 Q1205.1563,639.5313 1204.5313,639.5313 Q1203.1875,639.5313 1202.5,640.6094 Q1201.8125,641.6719 1201.8125,643.7656 Q1201.8125,645.8594 1202.5,646.9375 Q1203.1875,648 1204.5313,648 Q1205.1563,648 1205.75,647.7344 Q1206.3438,647.4531 1206.9688,646.875 L1206.9688,649.5938 Z "/><text fill="#000000" font-family="sans-serif" font-size="12" lengthAdjust="spacingAndGlyphs" textLength="115" x="1218" y="648.1074">method_type_filter</text><line style="stroke: #A80036; stroke-width: 1.5;" x1="1190" x2="1335" y1="659.9531" y2="659.9531"/><line style="stroke: #A80036; stroke-width: 1.5;" x1="1190" x2="1335" y1="667.9531" y2="667.9531"/></a><!--MD5=[5bb9cbc546aa73898875d191298fd161]
class C_0001198341195117879139--><a href="structclanguml_1_1common_1_1model_1_1callee__filter.html" target="_top" title="callee_filter" xlink:actuate="onRequest" xlink:href="structclanguml_1_1common_1_1model_1_1callee__filter.html" xlink:show="new" xlink:title="callee_filter" xlink:type="simple"><rect fill="#FEFECE" filter="url(#f19hdtoghv1w75)" height="48" id="C_0001198341195117879139" style="stroke: #A80036; stroke-width: 1.5;" width="103" x="583" y="906.9531"/><ellipse cx="598" cy="922.9531" fill="#ADD1B2" rx="11" ry="11" style="stroke: #A80036; stroke-width: 1.0;"/><path d="M600.9688,928.5938 Q600.3906,928.8906 599.75,929.0313 Q599.1094,929.1875 598.4063,929.1875 Q595.9063,929.1875 594.5781,927.5469 Q593.2656,925.8906 593.2656,922.7656 Q593.2656,919.6406 594.5781,917.9844 Q595.9063,916.3281 598.4063,916.3281 Q599.1094,916.3281 599.75,916.4844 Q600.4063,916.6406 600.9688,916.9375 L600.9688,919.6563 Q600.3438,919.0781 599.75,918.8125 Q599.1563,918.5313 598.5313,918.5313 Q597.1875,918.5313 596.5,919.6094 Q595.8125,920.6719 595.8125,922.7656 Q595.8125,924.8594 596.5,925.9375 Q597.1875,927 598.5313,927 Q599.1563,927 599.75,926.7344 Q600.3438,926.4531 600.9688,925.875 L600.9688,928.5938 Z "/><text fill="#000000" font-family="sans-serif" font-size="12" lengthAdjust="spacingAndGlyphs" textLength="71" x="612" y="927.1074">callee_filter</text><line style="stroke: #A80036; stroke-width: 1.5;" x1="584" x2="685" y1="938.9531" y2="938.9531"/><line style="stroke: #A80036; stroke-width: 1.5;" x1="584" x2="685" y1="946.9531" y2="946.9531"/></a><!--MD5=[93944d09819381b622aaa2bef32f8341]
class C_0001389919526184251760--><a href="structclanguml_1_1common_1_1model_1_1subclass__filter.html" target="_top" title="subclass_filter" xlink:actuate="onRequest" xlink:href="structclanguml_1_1common_1_1model_1_1subclass__filter.html" xlink:show="new" xlink:title="subclass_filter" xlink:type="simple"><rect fill="#FEFECE" filter="url(#f19hdtoghv1w75)" height="48" id="C_0001389919526184251760" style="stroke: #A80036; stroke-width: 1.5;" width="121" x="574" y="823.9531"/><ellipse cx="589" cy="839.9531" fill="#ADD1B2" rx="11" ry="11" style="stroke: #A80036; stroke-width: 1.0;"/><path d="M591.9688,845.5938 Q591.3906,845.8906 590.75,846.0313 Q590.1094,846.1875 589.4063,846.1875 Q586.9063,846.1875 585.5781,844.5469 Q584.2656,842.8906 584.2656,839.7656 Q584.2656,836.6406 585.5781,834.9844 Q586.9063,833.3281 589.4063,833.3281 Q590.1094,833.3281 590.75,833.4844 Q591.4063,833.6406 591.9688,833.9375 L591.9688,836.6563 Q591.3438,836.0781 590.75,835.8125 Q590.1563,835.5313 589.5313,835.5313 Q588.1875,835.5313 587.5,836.6094 Q586.8125,837.6719 586.8125,839.7656 Q586.8125,841.8594 587.5,842.9375 Q588.1875,844 589.5313,844 Q590.1563,844 590.75,843.7344 Q591.3438,843.4531 591.9688,842.875 L591.9688,845.5938 Z "/><text fill="#000000" font-family="sans-serif" font-size="12" lengthAdjust="spacingAndGlyphs" textLength="89" x="603" y="844.1074">subclass_filter</text><line style="stroke: #A80036; stroke-width: 1.5;" x1="575" x2="694" y1="855.9531" y2="855.9531"/><line style="stroke: #A80036; stroke-width: 1.5;" x1="575" x2="694" y1="863.9531" y2="863.9531"/></a><!--MD5=[59291306c405f144f196302d19b0e086]
class C_0001773753487119877542--><a href="structclanguml_1_1common_1_1model_1_1parents__filter.html" target="_top" title="parents_filter" xlink:actuate="onRequest" xlink:href="structclanguml_1_1common_1_1model_1_1parents__filter.html" xlink:show="new" xlink:title="parents_filter" xlink:type="simple"><rect fill="#FEFECE" filter="url(#f19hdtoghv1w75)" height="48" id="C_0001773753487119877542" style="stroke: #A80036; stroke-width: 1.5;" width="115" x="577" y="740.9531"/><ellipse cx="592" cy="756.9531" fill="#ADD1B2" rx="11" ry="11" style="stroke: #A80036; stroke-width: 1.0;"/><path d="M594.9688,762.5938 Q594.3906,762.8906 593.75,763.0313 Q593.1094,763.1875 592.4063,763.1875 Q589.9063,763.1875 588.5781,761.5469 Q587.2656,759.8906 587.2656,756.7656 Q587.2656,753.6406 588.5781,751.9844 Q589.9063,750.3281 592.4063,750.3281 Q593.1094,750.3281 593.75,750.4844 Q594.4063,750.6406 594.9688,750.9375 L594.9688,753.6563 Q594.3438,753.0781 593.75,752.8125 Q593.1563,752.5313 592.5313,752.5313 Q591.1875,752.5313 590.5,753.6094 Q589.8125,754.6719 589.8125,756.7656 Q589.8125,758.8594 590.5,759.9375 Q591.1875,761 592.5313,761 Q593.1563,761 593.75,760.7344 Q594.3438,760.4531 594.9688,759.875 L594.9688,762.5938 Z "/><text fill="#000000" font-family="sans-serif" font-size="12" lengthAdjust="spacingAndGlyphs" textLength="83" x="606" y="761.1074">parents_filter</text><line style="stroke: #A80036; stroke-width: 1.5;" x1="578" x2="691" y1="772.9531" y2="772.9531"/><line style="stroke: #A80036; stroke-width: 1.5;" x1="578" x2="691" y1="780.9531" y2="780.9531"/></a><!--MD5=[8262c3c6e6c32d5ff4c6ddcd7ea3a612]
class C_0001497352705437766113--><a href="structclanguml_1_1common_1_1model_1_1edge__traversal__filter.html" target="_top" title="Common template for filters involving traversing relationship graph." xlink:actuate="onRequest" xlink:href="structclanguml_1_1common_1_1model_1_1edge__traversal__filter.html" xlink:show="new" xlink:title="Common template for filters involving traversing relationship graph." xlink:type="simple"><rect fill="#FEFECE" filter="url(#f19hdtoghv1w75)" height="48" id="C_0001497352705437766113" style="stroke: #A80036; stroke-width: 1.5;" width="707" x="281" y="574.9531"/><ellipse cx="296" cy="590.9531" fill="#ADD1B2" rx="11" ry="11" style="stroke: #A80036; stroke-width: 1.0;"/><path d="M298.9688,596.5938 Q298.3906,596.8906 297.75,597.0313 Q297.1094,597.1875 296.4063,597.1875 Q293.9063,597.1875 292.5781,595.5469 Q291.2656,593.8906 291.2656,590.7656 Q291.2656,587.6406 292.5781,585.9844 Q293.9063,584.3281 296.4063,584.3281 Q297.1094,584.3281 297.75,584.4844 Q298.4063,584.6406 298.9688,584.9375 L298.9688,587.6563 Q298.3438,587.0781 297.75,586.8125 Q297.1563,586.5313 296.5313,586.5313 Q295.1875,586.5313 294.5,587.6094 Q293.8125,588.6719 293.8125,590.7656 Q293.8125,592.8594 294.5,593.9375 Q295.1875,595 296.5313,595 Q297.1563,595 297.75,594.7344 Q298.3438,594.4531 298.9688,593.875 L298.9688,596.5938 Z "/><text fill="#000000" font-family="sans-serif" font-size="12" lengthAdjust="spacingAndGlyphs" textLength="127" x="310" y="595.1074">edge_traversal_filter</text><rect fill="#FFFFFF" height="15.9688" style="stroke: #000000; stroke-width: 1.0; stroke-dasharray: 2.0,2.0;" width="546" x="445" y="571.9531"/><text fill="#000000" font-family="sans-serif" font-size="12" font-style="italic" lengthAdjust="spacingAndGlyphs" textLength="544" x="446" y="584.0918">DiagramT,ElementT,ConfigEntryT=std::string,MatchOverrideT=common::model::element</text><line style="stroke: #A80036; stroke-width: 1.5;" x1="282" x2="987" y1="606.9531" y2="606.9531"/><line style="stroke: #A80036; stroke-width: 1.5;" x1="282" x2="987" y1="614.9531" y2="614.9531"/></a><!--MD5=[a4c9b97a7182ae70b67e10724bda717e]
class C_0001195713008101262477--><a href="structclanguml_1_1common_1_1model_1_1relationship__filter.html" target="_top" title="relationship_filter" xlink:actuate="onRequest" xlink:href="structclanguml_1_1common_1_1model_1_1relationship__filter.html" xlink:show="new" xlink:title="relationship_filter" xlink:type="simple"><rect fill="#FEFECE" filter="url(#f19hdtoghv1w75)" height="48" id="C_0001195713008101262477" style="stroke: #A80036; stroke-width: 1.5;" width="140" x="564.5" y="491.9531"/><ellipse cx="579.5" cy="507.9531" fill="#ADD1B2" rx="11" ry="11" style="stroke: #A80036; stroke-width: 1.0;"/><path d="M582.4688,513.5938 Q581.8906,513.8906 581.25,514.0313 Q580.6094,514.1875 579.9063,514.1875 Q577.4063,514.1875 576.0781,512.5469 Q574.7656,510.8906 574.7656,507.7656 Q574.7656,504.6406 576.0781,502.9844 Q577.4063,501.3281 579.9063,501.3281 Q580.6094,501.3281 581.25,501.4844 Q581.9063,501.6406 582.4688,501.9375 L582.4688,504.6563 Q581.8438,504.0781 581.25,503.8125 Q580.6563,503.5313 580.0313,503.5313 Q578.6875,503.5313 578,504.6094 Q577.3125,505.6719 577.3125,507.7656 Q577.3125,509.8594 578,510.9375 Q578.6875,512 580.0313,512 Q580.6563,512 581.25,511.7344 Q581.8438,511.4531 582.4688,510.875 L582.4688,513.5938 Z "/><text fill="#000000" font-family="sans-serif" font-size="12" lengthAdjust="spacingAndGlyphs" textLength="108" x="593.5" y="512.1074">relationship_filter</text><line style="stroke: #A80036; stroke-width: 1.5;" x1="565.5" x2="703.5" y1="523.9531" y2="523.9531"/><line style="stroke: #A80036; stroke-width: 1.5;" x1="565.5" x2="703.5" y1="531.9531" y2="531.9531"/></a><!--MD5=[6c09fa5ea90b219bff3c70efac9bebed]
class C_0001098184343448999590--><a href="structclanguml_1_1common_1_1model_1_1access__filter.html" target="_top" title="access_filter" xlink:actuate="onRequest" xlink:href="structclanguml_1_1common_1_1model_1_1access__filter.html" xlink:show="new" xlink:title="access_filter" xlink:type="simple"><rect fill="#FEFECE" filter="url(#f19hdtoghv1w75)" height="48" id="C_0001098184343448999590" style="stroke: #A80036; stroke-width: 1.5;" width="110" x="1207.5" y="205.9531"/><ellipse cx="1222.5" cy="221.9531" fill="#ADD1B2" rx="11" ry="11" style="stroke: #A80036; stroke-width: 1.0;"/><path d="M1225.4688,227.5938 Q1224.8906,227.8906 1224.25,228.0313 Q1223.6094,228.1875 1222.9063,228.1875 Q1220.4063,228.1875 1219.0781,226.5469 Q1217.7656,224.8906 1217.7656,221.7656 Q1217.7656,218.6406 1219.0781,216.9844 Q1220.4063,215.3281 1222.9063,215.3281 Q1223.6094,215.3281 1224.25,215.4844 Q1224.9063,215.6406 1225.4688,215.9375 L1225.4688,218.6563 Q1224.8438,218.0781 1224.25,217.8125 Q1223.6563,217.5313 1223.0313,217.5313 Q1221.6875,217.5313 1221,218.6094 Q1220.3125,219.6719 1220.3125,221.7656 Q1220.3125,223.8594 1221,224.9375 Q1221.6875,226 1223.0313,226 Q1223.6563,226 1224.25,225.7344 Q1224.8438,225.4531 1225.4688,224.875 L1225.4688,227.5938 Z "/><text fill="#000000" font-family="sans-serif" font-size="12" lengthAdjust="spacingAndGlyphs" textLength="78" x="1236.5" y="226.1074">access_filter</text><line style="stroke: #A80036; stroke-width: 1.5;" x1="1208.5" x2="1316.5" y1="237.9531" y2="237.9531"/><line style="stroke: #A80036; stroke-width: 1.5;" x1="1208.5" x2="1316.5" y1="245.9531" y2="245.9531"/></a><!--MD5=[99ac8d2cae89e3b0a3d5a4db7fc9126c]
class C_0002078668697238559556--><a href="structclanguml_1_1common_1_1model_1_1context__filter.html" target="_top" title="context_filter" xlink:actuate="onRequest" xlink:href="structclanguml_1_1common_1_1model_1_1context__filter.html" xlink:show="new" xlink:title="context_filter" xlink:type="simple"><rect fill="#FEFECE" filter="url(#f19hdtoghv1w75)" height="48" id="C_0002078668697238559556" style="stroke: #A80036; stroke-width: 1.5;" width="113" x="578" y="371.9531"/><ellipse cx="593" cy="387.9531" fill="#ADD1B2" rx="11" ry="11" style="stroke: #A80036; stroke-width: 1.0;"/><path d="M595.9688,393.5938 Q595.3906,393.8906 594.75,394.0313 Q594.1094,394.1875 593.4063,394.1875 Q590.9063,394.1875 589.5781,392.5469 Q588.2656,390.8906 588.2656,387.7656 Q588.2656,384.6406 589.5781,382.9844 Q590.9063,381.3281 593.4063,381.3281 Q594.1094,381.3281 594.75,381.4844 Q595.4063,381.6406 595.9688,381.9375 L595.9688,384.6563 Q595.3438,384.0781 594.75,383.8125 Q594.1563,383.5313 593.5313,383.5313 Q592.1875,383.5313 591.5,384.6094 Q590.8125,385.6719 590.8125,387.7656 Q590.8125,389.8594 591.5,390.9375 Q592.1875,392 593.5313,392 Q594.1563,392 594.75,391.7344 Q595.3438,391.4531 595.9688,390.875 L595.9688,393.5938 Z "/><text fill="#000000" font-family="sans-serif" font-size="12" lengthAdjust="spacingAndGlyphs" textLength="81" x="607" y="392.1074">context_filter</text><line style="stroke: #A80036; stroke-width: 1.5;" x1="579" x2="690" y1="403.9531" y2="403.9531"/><line style="stroke: #A80036; stroke-width: 1.5;" x1="579" x2="690" y1="411.9531" y2="411.9531"/></a><!--MD5=[ac53cd39b7f7f2f4a6ef560a1a5fdc85]
class C_0000831536458766184760--><a href="structclanguml_1_1common_1_1model_1_1paths__filter.html" target="_top" title="paths_filter" xlink:actuate="onRequest" xlink:href="structclanguml_1_1common_1_1model_1_1paths__filter.html" xlink:show="new" xlink:title="paths_filter" xlink:type="simple"><rect fill="#FEFECE" filter="url(#f19hdtoghv1w75)" height="48" id="C_0000831536458766184760" style="stroke: #A80036; stroke-width: 1.5;" width="102" x="583.5" y="288.9531"/><ellipse cx="598.5" cy="304.9531" fill="#ADD1B2" rx="11" ry="11" style="stroke: #A80036; stroke-width: 1.0;"/><path d="M601.4688,310.5938 Q600.8906,310.8906 600.25,311.0313 Q599.6094,311.1875 598.9063,311.1875 Q596.4063,311.1875 595.0781,309.5469 Q593.7656,307.8906 593.7656,304.7656 Q593.7656,301.6406 595.0781,299.9844 Q596.4063,298.3281 598.9063,298.3281 Q599.6094,298.3281 600.25,298.4844 Q600.9063,298.6406 601.4688,298.9375 L601.4688,301.6563 Q600.8438,301.0781 600.25,300.8125 Q599.6563,300.5313 599.0313,300.5313 Q597.6875,300.5313 597,301.6094 Q596.3125,302.6719 596.3125,304.7656 Q596.3125,306.8594 597,307.9375 Q597.6875,309 599.0313,309 Q599.6563,309 600.25,308.7344 Q600.8438,308.4531 601.4688,307.875 L601.4688,310.5938 Z "/><text fill="#000000" font-family="sans-serif" font-size="12" lengthAdjust="spacingAndGlyphs" textLength="70" x="612.5" y="309.1074">paths_filter</text><line style="stroke: #A80036; stroke-width: 1.5;" x1="584.5" x2="684.5" y1="320.9531" y2="320.9531"/><line style="stroke: #A80036; stroke-width: 1.5;" x1="584.5" x2="684.5" y1="328.9531" y2="328.9531"/></a><!--MD5=[098483563b8bdccb324cac50d59ab317]
class C_0001578839365087446026--><a href="structclanguml_1_1common_1_1model_1_1class__method__filter.html" target="_top" title="class_method_filter" xlink:actuate="onRequest" xlink:href="structclanguml_1_1common_1_1model_1_1class__method__filter.html" xlink:show="new" xlink:title="class_method_filter" xlink:type="simple"><rect fill="#FEFECE" filter="url(#f19hdtoghv1w75)" height="48" id="C_0001578839365087446026" style="stroke: #A80036; stroke-width: 1.5;" width="152" x="558.5" y="205.9531"/><ellipse cx="573.5" cy="221.9531" fill="#ADD1B2" rx="11" ry="11" style="stroke: #A80036; stroke-width: 1.0;"/><path d="M576.4688,227.5938 Q575.8906,227.8906 575.25,228.0313 Q574.6094,228.1875 573.9063,228.1875 Q571.4063,228.1875 570.0781,226.5469 Q568.7656,224.8906 568.7656,221.7656 Q568.7656,218.6406 570.0781,216.9844 Q571.4063,215.3281 573.9063,215.3281 Q574.6094,215.3281 575.25,215.4844 Q575.9063,215.6406 576.4688,215.9375 L576.4688,218.6563 Q575.8438,218.0781 575.25,217.8125 Q574.6563,217.5313 574.0313,217.5313 Q572.6875,217.5313 572,218.6094 Q571.3125,219.6719 571.3125,221.7656 Q571.3125,223.8594 572,224.9375 Q572.6875,226 574.0313,226 Q574.6563,226 575.25,225.7344 Q575.8438,225.4531 576.4688,224.875 L576.4688,227.5938 Z "/><text fill="#000000" font-family="sans-serif" font-size="12" lengthAdjust="spacingAndGlyphs" textLength="120" x="587.5" y="226.1074">class_method_filter</text><line style="stroke: #A80036; stroke-width: 1.5;" x1="559.5" x2="709.5" y1="237.9531" y2="237.9531"/><line style="stroke: #A80036; stroke-width: 1.5;" x1="559.5" x2="709.5" y1="245.9531" y2="245.9531"/></a><!--MD5=[16c495759bbba4bab8761f5a81ccb642]
class C_0000676683242499586467--><a href="structclanguml_1_1common_1_1model_1_1class__member__filter.html" target="_top" title="class_member_filter" xlink:actuate="onRequest" xlink:href="structclanguml_1_1common_1_1model_1_1class__member__filter.html" xlink:show="new" xlink:title="class_member_filter" xlink:type="simple"><rect fill="#FEFECE" filter="url(#f19hdtoghv1w75)" height="48" id="C_0000676683242499586467" style="stroke: #A80036; stroke-width: 1.5;" width="155" x="557" y="122.9531"/><ellipse cx="572" cy="138.9531" fill="#ADD1B2" rx="11" ry="11" style="stroke: #A80036; stroke-width: 1.0;"/><path d="M574.9688,144.5938 Q574.3906,144.8906 573.75,145.0313 Q573.1094,145.1875 572.4063,145.1875 Q569.9063,145.1875 568.5781,143.5469 Q567.2656,141.8906 567.2656,138.7656 Q567.2656,135.6406 568.5781,133.9844 Q569.9063,132.3281 572.4063,132.3281 Q573.1094,132.3281 573.75,132.4844 Q574.4063,132.6406 574.9688,132.9375 L574.9688,135.6563 Q574.3438,135.0781 573.75,134.8125 Q573.1563,134.5313 572.5313,134.5313 Q571.1875,134.5313 570.5,135.6094 Q569.8125,136.6719 569.8125,138.7656 Q569.8125,140.8594 570.5,141.9375 Q571.1875,143 572.5313,143 Q573.1563,143 573.75,142.7344 Q574.3438,142.4531 574.9688,141.875 L574.9688,144.5938 Z "/><text fill="#000000" font-family="sans-serif" font-size="12" lengthAdjust="spacingAndGlyphs" textLength="123" x="586" y="143.1074">class_member_filter</text><line style="stroke: #A80036; stroke-width: 1.5;" x1="558" x2="711" y1="154.9531" y2="154.9531"/><line style="stroke: #A80036; stroke-width: 1.5;" x1="558" x2="711" y1="162.9531" y2="162.9531"/></a><!--MD5=[831418144dcced3437ca2c7d6f720a6d]
reverse link C_0000605829206649563575 to C_0000469458052685692314--><path d="M571.45,682.6731 C467.67,683.8731 260.87,686.2631 165.21,687.3631 " fill="none" id="C_0000605829206649563575&lt;-C_0000469458052685692314" style="stroke: #A80036; stroke-width: 1.0;"/><polygon fill="#FFFFFF" points="584.49,682.5231,578.4421,678.5959,572.4909,682.6682,578.5388,686.5954,584.49,682.5231" style="stroke: #A80036; stroke-width: 1.0;"/><rect fill="none" height="6" style="stroke: #C82930; stroke-width: 1.0;" width="6" x="198" y="676.0195"/><text fill="#000000" font-family="sans-serif" font-size="13" lengthAdjust="spacingAndGlyphs" textLength="42" x="208" y="683.02">filters_</text><!--MD5=[ed31da81ed4d725db179a2248c5e61a9]
reverse link C_0000469458052685692314 to C_0000605829206649563575--><path d="M185.31,694.4531 C188.59,694.6431 191.83,694.8131 195,694.9531 C219.87,696.0331 226.11,695.3731 251,694.9531 C370.75,692.9231 511.49,687.3031 584.3,684.1631 " fill="none" id="C_0000469458052685692314&lt;-C_0000605829206649563575" style="stroke: #A80036; stroke-width: 1.0;"/><polygon fill="none" points="184.59,701.4231,165.13,693.0331,185.57,687.4531,184.59,701.4231" style="stroke: #A80036; stroke-width: 1.0;"/><!--MD5=[e0dc600e7c925328edcaabc3147d0ebd]
reverse link C_0000469458052685692314 to C_0001816240256470820189--><path d="M114.21,732.1131 C115.55,810.8331 126.95,978.3331 195,1097.9531 C266.48,1223.5931 460.31,1230.3431 564.71,1224.0231 " fill="none" id="C_0000469458052685692314&lt;-C_0001816240256470820189" style="stroke: #A80036; stroke-width: 1.0;"/><polygon fill="none" points="107.21,732.0131,114.06,711.9631,121.21,731.9031,107.21,732.0131" style="stroke: #A80036; stroke-width: 1.0;"/><!--MD5=[eb629725326211f0b3f68bd233fd5fbd]
reverse link C_0000469458052685692314 to C_0000690341236618660423--><path d="M113.83,732.2231 C114.92,803.8931 126.36,946.7831 195,1040.9531 C281.29,1159.3431 477.79,1153.9031 575.75,1142.7331 " fill="none" id="C_0000469458052685692314&lt;-C_0000690341236618660423" style="stroke: #A80036; stroke-width: 1.0;"/><polygon fill="none" points="106.83,732.0231,113.77,712.0031,120.83,731.9831,106.83,732.0231" style="stroke: #A80036; stroke-width: 1.0;"/><!--MD5=[fc75b97331daf477f1c24925190464b7]
reverse link C_0000469458052685692314 to C_0002051668456717902300--><path d="M119.78,732.2931 C129.96,809.7931 154.91,964.9931 195,999.9531 C295.81,1087.8431 462.93,1079.6131 559.12,1065.4631 " fill="none" id="C_0000469458052685692314&lt;-C_0002051668456717902300" style="stroke: #A80036; stroke-width: 1.0;"/><polygon fill="none" points="112.8,732.9531,117.25,712.2331,126.69,731.2031,112.8,732.9531" style="stroke: #A80036; stroke-width: 1.0;"/><!--MD5=[3d55ee30f24331634dd2104be9701174]
reverse link C_0000469458052685692314 to C_0001897369211795036987--><path d="M123.7,731.8831 C140.79,800.2331 184.82,928.6831 281,971.9531 C352.64,1004.1831 916.65,1004.8331 988,971.9531 C1125.06,908.7931 1218.96,739.3131 1250.15,676.1331 " fill="none" id="C_0000469458052685692314&lt;-C_0001897369211795036987" style="stroke: #A80036; stroke-width: 1.0;"/><polygon fill="none" points="116.78,733.0531,119.06,711.9831,130.42,729.8831,116.78,733.0531" style="stroke: #A80036; stroke-width: 1.0;"/><!--MD5=[6ad3a141d15ee041c076728b72e21550]
reverse link C_0000469458052685692314 to C_0001198341195117879139--><path d="M135.26,729.9831 C161.67,778.2431 212.25,855.0831 281,888.9531 C379.55,937.5031 511.76,938.8031 582.98,935.1231 " fill="none" id="C_0000469458052685692314&lt;-C_0001198341195117879139" style="stroke: #A80036; stroke-width: 1.0;"/><polygon fill="none" points="128.99,733.1131,125.88,712.1531,141.39,726.5931,128.99,733.1131" style="stroke: #A80036; stroke-width: 1.0;"/><!--MD5=[463c0ff6d6fa7400c8eeff270c9ffc56]
reverse link C_0000469458052685692314 to C_0001389919526184251760--><path d="M154.94,725.4731 C186.71,752.6131 233.42,787.6331 281,805.9531 C378.77,843.6031 502.14,849.7731 573.99,849.6631 " fill="none" id="C_0000469458052685692314&lt;-C_0001389919526184251760" style="stroke: #A80036; stroke-width: 1.0;"/><polygon fill="none" points="150.16,730.5831,139.76,712.1231,159.4,720.0731,150.16,730.5831" style="stroke: #A80036; stroke-width: 1.0;"/><!--MD5=[80cf7e8cb68da798134584cd4dd66cc2]
reverse link C_0000469458052685692314 to C_0001773753487119877542--><path d="M184.83,704.1831 C214.41,710.6231 249.27,717.7331 281,722.9531 C384.84,740.0231 506.98,753.0031 576.81,759.7631 " fill="none" id="C_0000469458052685692314&lt;-C_0001773753487119877542" style="stroke: #A80036; stroke-width: 1.0;"/><polygon fill="none" points="183.3,711.0131,165.29,699.8531,186.33,697.3431,183.3,711.0131" style="stroke: #A80036; stroke-width: 1.0;"/><!--MD5=[a21e920b32989dc283fcc6ee45205eec]
reverse link C_0000469458052685692314 to C_0001497352705437766113--><path d="M184.32,665.1131 C187.93,664.0231 191.5,662.9631 195,661.9531 C232.9,650.9931 242.21,647.1331 281,639.9531 C315.99,633.4731 353.12,627.8331 389.67,622.9831 " fill="none" id="C_0000469458052685692314&lt;-C_0001497352705437766113" style="stroke: #A80036; stroke-width: 1.0;"/><polygon fill="none" points="186.2,671.8531,165.02,671.1031,182.05,658.4931,186.2,671.8531" style="stroke: #A80036; stroke-width: 1.0;"/><!--MD5=[d86b4eed582c96e54383377f1609e355]
reverse link C_0000469458052685692314 to C_0001195713008101262477--><path d="M150.99,649.2931 C182.34,618.7131 230.39,577.8331 281,556.9531 C373.84,518.6631 491.36,512.5131 564.49,513.0931 " fill="none" id="C_0000469458052685692314&lt;-C_0001195713008101262477" style="stroke: #A80036; stroke-width: 1.0;"/><polygon fill="none" points="155.66,654.5131,136.59,663.7531,145.74,644.6431,155.66,654.5131" style="stroke: #A80036; stroke-width: 1.0;"/><!--MD5=[90c300d9132d751d9486c98f25931374]
reverse link C_0000469458052685692314 to C_0001098184343448999590--><path d="M133.08,645.7231 C158.26,594.3931 208.54,510.1631 281,473.9531 C368.3,430.3331 1077.41,502.5031 1159,448.9531 C1227.26,404.1531 1250.97,301.0131 1258.41,254.0431 " fill="none" id="C_0000469458052685692314&lt;-C_0001098184343448999590" style="stroke: #A80036; stroke-width: 1.0;"/><polygon fill="none" points="139.37,648.7931,124.53,663.9231,126.7,642.8431,139.37,648.7931" style="stroke: #A80036; stroke-width: 1.0;"/><!--MD5=[9b9ac0374d7c5a802db2f4ca855abc58]
reverse link C_0000469458052685692314 to C_0002078668697238559556--><path d="M115.71,643.6331 C119.81,588.3031 135.73,495.0931 195,446.9531 C305.66,357.0831 487,370.8831 577.89,385.1531 " fill="none" id="C_0000469458052685692314&lt;-C_0002078668697238559556" style="stroke: #A80036; stroke-width: 1.0;"/><polygon fill="none" points="122.69,644.2131,114.62,663.8031,108.71,643.4531,122.69,644.2131" style="stroke: #A80036; stroke-width: 1.0;"/><!--MD5=[febc1b53ac8f674dce50ad76e14fb2e9]
reverse link C_0000469458052685692314 to C_0000831536458766184760--><path d="M119.82,643.4131 C128.2,587.7631 148.6,491.5331 195,422.9531 C222.46,382.3631 235.79,372.8531 281,353.9531 C382.18,311.6531 513.08,308.3531 583.45,310.2731 " fill="none" id="C_0000469458052685692314&lt;-C_0000831536458766184760" style="stroke: #A80036; stroke-width: 1.0;"/><polygon fill="none" points="126.7,644.7331,117.04,663.5931,112.83,642.8231,126.7,644.7331" style="stroke: #A80036; stroke-width: 1.0;"/><!--MD5=[040530adfdbf3fcadab34db71820c65a]
reverse link C_0001578839365087446026 to C_0001098184343448999590--><path d="M723.85,229.9531 C855.42,229.9531 1098.93,229.9531 1207.19,229.9531 " fill="none" id="C_0001578839365087446026&lt;-C_0001098184343448999590" style="stroke: #A80036; stroke-width: 1.0;"/><polygon fill="#FFFFFF" points="710.7,229.9531,716.7,233.9531,722.7,229.9531,716.7,225.9531,710.7,229.9531" style="stroke: #A80036; stroke-width: 1.0;"/><rect fill="none" height="6" style="stroke: #C82930; stroke-width: 1.0;" width="6" x="1041.5" y="219.0195"/><text fill="#000000" font-family="sans-serif" font-size="13" lengthAdjust="spacingAndGlyphs" textLength="86" x="1051.5" y="226.02">access_filter_</text><!--MD5=[3583321d3f2437c5c453b4eec3fdc0a2]
reverse link C_0001578839365087446026 to C_0001897369211795036987--><path d="M724.03,221.1831 C799.34,217.9631 907.73,223.7131 988,270.9531 C1135.36,357.6931 1225,558.5031 1252.46,627.8731 " fill="none" id="C_0001578839365087446026&lt;-C_0001897369211795036987" style="stroke: #A80036; stroke-width: 1.0;"/><polygon fill="#FFFFFF" points="710.84,221.8531,717.0347,225.5444,722.8246,221.246,716.6299,217.5547,710.84,221.8531" style="stroke: #A80036; stroke-width: 1.0;"/><rect fill="none" height="6" style="stroke: #C82930; stroke-width: 1.0;" width="6" x="1021" y="281.0195"/><text fill="#000000" font-family="sans-serif" font-size="13" lengthAdjust="spacingAndGlyphs" textLength="127" x="1031" y="288.02">method_type_filter_</text><!--MD5=[02674959230259429249599681f565c1]
reverse link C_0000469458052685692314 to C_0001578839365087446026--><path d="M115.79,643.6831 C121.18,552.9031 148.2,347.7531 281,270.9531 C366.47,221.5231 483.06,217.9131 558.32,222.1231 " fill="none" id="C_0000469458052685692314&lt;-C_0001578839365087446026" style="stroke: #A80036; stroke-width: 1.0;"/><polygon fill="none" points="122.77,644.2631,114.84,663.9131,108.78,643.6031,122.77,644.2631" style="stroke: #A80036; stroke-width: 1.0;"/><!--MD5=[662d5fd0cd46bf6ab0bc3cbe15239abc]
reverse link C_0000676683242499586467 to C_0001098184343448999590--><path d="M725.25,153.3531 C829.92,161.6431 1007.88,178.2631 1159,204.9531 C1174.78,207.7431 1191.75,211.5431 1207.25,215.3431 " fill="none" id="C_0000676683242499586467&lt;-C_0001098184343448999590" style="stroke: #A80036; stroke-width: 1.0;"/><polygon fill="#FFFFFF" points="712.23,152.3431,717.8999,156.7987,724.1935,153.2786,718.5236,148.823,712.23,152.3431" style="stroke: #A80036; stroke-width: 1.0;"/><rect fill="none" height="6" style="stroke: #C82930; stroke-width: 1.0;" width="6" x="1041.5" y="175.0195"/><text fill="#000000" font-family="sans-serif" font-size="13" lengthAdjust="spacingAndGlyphs" textLength="86" x="1051.5" y="182.02">access_filter_</text><!--MD5=[8771eb87ef9e16d849c2809122d2d0ee]
reverse link C_0000469458052685692314 to C_0000676683242499586467--><path d="M118.73,643.4731 C126.69,572.1631 147.56,428.9031 195,316.9531 C221.89,253.5131 222.23,223.9231 281,187.9531 C364.81,136.6531 481.02,133.3631 556.73,138.1731 " fill="none" id="C_0000469458052685692314&lt;-C_0000676683242499586467" style="stroke: #A80036; stroke-width: 1.0;"/><polygon fill="none" points="125.67,644.4131,116.62,663.5731,111.75,642.9531,125.67,644.4131" style="stroke: #A80036; stroke-width: 1.0;"/><!--MD5=[957710984863710779abf18e0cc864fd]
@startuml
title Diagram filter visitor class hierarchy
left to right direction
package [common] as C_0000316605034920222648 {
package [model] as C_0000083721806430512831 {
class "filter_visitor" as C_0000469458052685692314
class C_0000469458052685692314 [[classclanguml_1_1common_1_1model_1_1filter__visitor.html{Base class for any diagram filter.}]] {
__
}
class "anyof_filter" as C_0000605829206649563575
class C_0000605829206649563575 [[structclanguml_1_1common_1_1model_1_1anyof__filter.html{anyof_filter}]] {
__
}
class "namespace_filter" as C_0001816240256470820189
class C_0001816240256470820189 [[structclanguml_1_1common_1_1model_1_1namespace__filter.html{namespace_filter}]] {
__
}
class "element_filter" as C_0000690341236618660423
class C_0000690341236618660423 [[structclanguml_1_1common_1_1model_1_1element__filter.html{element_filter}]] {
__
}
class "element_type_filter" as C_0002051668456717902300
class C_0002051668456717902300 [[structclanguml_1_1common_1_1model_1_1element__type__filter.html{element_type_filter}]] {
__
}
class "method_type_filter" as C_0001897369211795036987
class C_0001897369211795036987 [[structclanguml_1_1common_1_1model_1_1method__type__filter.html{method_type_filter}]] {
__
}
class "callee_filter" as C_0001198341195117879139
class C_0001198341195117879139 [[structclanguml_1_1common_1_1model_1_1callee__filter.html{callee_filter}]] {
__
}
class "subclass_filter" as C_0001389919526184251760
class C_0001389919526184251760 [[structclanguml_1_1common_1_1model_1_1subclass__filter.html{subclass_filter}]] {
__
}
class "parents_filter" as C_0001773753487119877542
class C_0001773753487119877542 [[structclanguml_1_1common_1_1model_1_1parents__filter.html{parents_filter}]] {
__
}
class "edge_traversal_filter<DiagramT,ElementT,ConfigEntryT=std::string,MatchOverrideT=common::model::element>" as C_0001497352705437766113
class C_0001497352705437766113 [[structclanguml_1_1common_1_1model_1_1edge__traversal__filter.html{Common template for filters involving traversing relationship graph.}]] {
__
}
class "relationship_filter" as C_0001195713008101262477
class C_0001195713008101262477 [[structclanguml_1_1common_1_1model_1_1relationship__filter.html{relationship_filter}]] {
__
}
class "access_filter" as C_0001098184343448999590
class C_0001098184343448999590 [[structclanguml_1_1common_1_1model_1_1access__filter.html{access_filter}]] {
__
}
class "context_filter" as C_0002078668697238559556
class C_0002078668697238559556 [[structclanguml_1_1common_1_1model_1_1context__filter.html{context_filter}]] {
__
}
class "paths_filter" as C_0000831536458766184760
class C_0000831536458766184760 [[structclanguml_1_1common_1_1model_1_1paths__filter.html{paths_filter}]] {
__
}
class "class_method_filter" as C_0001578839365087446026
class C_0001578839365087446026 [[structclanguml_1_1common_1_1model_1_1class__method__filter.html{class_method_filter}]] {
__
}
class "class_member_filter" as C_0000676683242499586467
class C_0000676683242499586467 [[structclanguml_1_1common_1_1model_1_1class__member__filter.html{class_member_filter}]] {
__
}
}
}
C_0000605829206649563575 o- - C_0000469458052685692314 : -filters_
C_0000469458052685692314 <|- - C_0000605829206649563575
C_0000469458052685692314 <|- - C_0001816240256470820189
C_0000469458052685692314 <|- - C_0000690341236618660423
C_0000469458052685692314 <|- - C_0002051668456717902300
C_0000469458052685692314 <|- - C_0001897369211795036987
C_0000469458052685692314 <|- - C_0001198341195117879139
C_0000469458052685692314 <|- - C_0001389919526184251760
C_0000469458052685692314 <|- - C_0001773753487119877542
C_0000469458052685692314 <|- - C_0001497352705437766113
C_0000469458052685692314 <|- - C_0001195713008101262477
C_0000469458052685692314 <|- - C_0001098184343448999590
C_0000469458052685692314 <|- - C_0002078668697238559556
C_0000469458052685692314 <|- - C_0000831536458766184760
C_0001578839365087446026 o- - C_0001098184343448999590 : -access_filter_
C_0001578839365087446026 o- - C_0001897369211795036987 : -method_type_filter_
C_0000469458052685692314 <|- - C_0001578839365087446026
C_0000676683242499586467 o- - C_0001098184343448999590 : -access_filter_
C_0000469458052685692314 <|- - C_0000676683242499586467

@enduml

PlantUML version 1.2020.02(Sun Mar 01 11:22:07 CET 2020)
(GPL source distribution)
Java Runtime: OpenJDK Runtime Environment
JVM: OpenJDK 64-Bit Server VM
Java Version: 11.0.20.1+1-post-Ubuntu-0ubuntu122.04
Operating System: Linux
Default Encoding: UTF-8
Language: en
Country: US
--></g></svg>