<?xml version="1.0" encoding="UTF-8" standalone="no"?><svg xmlns="http://www.w3.org/2000/svg" xmlns:xlink="http://www.w3.org/1999/xlink" contentScriptType="application/ecmascript" contentStyleType="text/css" height="1240px" preserveAspectRatio="none" style="width:2166px;height:1240px;" version="1.1" viewBox="0 0 2166 1240" width="2166px" zoomAndPan="magnify"><defs><filter height="300%" id="f1x7e1p1wevp5l" width="300%" x="-1" y="-1"><feGaussianBlur result="blurOut" stdDeviation="2.0"/><feColorMatrix in="blurOut" result="blurOut2" type="matrix" values="0 0 0 0 0 0 0 0 0 0 0 0 0 0 0 0 0 0 .4 0"/><feOffset dx="4.0" dy="4.0" in="blurOut2" result="blurOut3"/><feBlend in="SourceGraphic" in2="blurOut3" mode="normal"/></filter></defs><g><text fill="#000000" font-family="sans-serif" font-size="18" lengthAdjust="spacingAndGlyphs" textLength="390" x="888.75" y="26.708">Configuration file loading sequence diagram</text><rect fill="#FFFFFF" filter="url(#f1x7e1p1wevp5l)" height="1077.6641" style="stroke: #A80036; stroke-width: 1.0;" width="10" x="145.5" y="104.3828"/><rect fill="#FFFFFF" filter="url(#f1x7e1p1wevp5l)" height="25" style="stroke: #A80036; stroke-width: 1.0;" width="10" x="150.5" y="352.3125"/><rect fill="#FFFFFF" filter="url(#f1x7e1p1wevp5l)" height="28" style="stroke: #A80036; stroke-width: 1.0;" width="10" x="150.5" y="428.4453"/><rect fill="#FFFFFF" filter="url(#f1x7e1p1wevp5l)" height="28" style="stroke: #A80036; stroke-width: 1.0;" width="10" x="150.5" y="500.5781"/><rect fill="#FFFFFF" filter="url(#f1x7e1p1wevp5l)" height="25" style="stroke: #A80036; stroke-width: 1.0;" width="10" x="150.5" y="620.9766"/><rect fill="#FFFFFF" filter="url(#f1x7e1p1wevp5l)" height="14" style="stroke: #A80036; stroke-width: 1.0;" width="10" x="432" y="157.6484"/><rect fill="#FFFFFF" filter="url(#f1x7e1p1wevp5l)" height="14" style="stroke: #A80036; stroke-width: 1.0;" width="10" x="432" y="224.9141"/><rect fill="#FFFFFF" filter="url(#f1x7e1p1wevp5l)" height="14" style="stroke: #A80036; stroke-width: 1.0;" width="10" x="432" y="270.0469"/><rect fill="#FFFFFF" filter="url(#f1x7e1p1wevp5l)" height="14" style="stroke: #A80036; stroke-width: 1.0;" width="10" x="432" y="682.1094"/><rect fill="#FFFFFF" filter="url(#f1x7e1p1wevp5l)" height="14" style="stroke: #A80036; stroke-width: 1.0;" width="10" x="432" y="940.9063"/><rect fill="#FFFFFF" filter="url(#f1x7e1p1wevp5l)" height="392.1953" style="stroke: #A80036; stroke-width: 1.0;" width="10" x="667" y="739.2422"/><rect fill="#FFFFFF" filter="url(#f1x7e1p1wevp5l)" height="143.3984" style="stroke: #A80036; stroke-width: 1.0;" width="10" x="934" y="768.375"/><rect fill="#FFFFFF" filter="url(#f1x7e1p1wevp5l)" height="14" style="stroke: #A80036; stroke-width: 1.0;" width="10" x="1226" y="797.5078"/><rect fill="#FFFFFF" filter="url(#f1x7e1p1wevp5l)" height="14" style="stroke: #A80036; stroke-width: 1.0;" width="10" x="1564" y="840.6406"/><rect fill="#FFFFFF" filter="url(#f1x7e1p1wevp5l)" height="14" style="stroke: #A80036; stroke-width: 1.0;" width="10" x="1564" y="883.7734"/><rect fill="#FFFFFF" filter="url(#f1x7e1p1wevp5l)" height="14" style="stroke: #A80036; stroke-width: 1.0;" width="10" x="1933.5" y="1008.1719"/><rect fill="#FFFFFF" filter="url(#f1x7e1p1wevp5l)" height="30" style="stroke: #A80036; stroke-width: 1.0;" width="10" x="1933.5" y="1051.3047"/><rect fill="#FFFFFF" filter="url(#f1x7e1p1wevp5l)" height="14" style="stroke: #A80036; stroke-width: 1.0;" width="10" x="1933.5" y="1117.4375"/><rect fill="#FFFFFF" filter="url(#f1x7e1p1wevp5l)" height="1049.6641" style="stroke: #000000; stroke-width: 2.0;" width="2141.5" x="13" y="119.3828"/><rect fill="#FFFFFF" filter="url(#f1x7e1p1wevp5l)" height="105.3984" style="stroke: #000000; stroke-width: 2.0;" width="583" x="33" y="186.6484"/><rect fill="#FFFFFF" height="45.1328" style="stroke: none; stroke-width: 1.0;" width="583" x="33" y="246.9141"/><rect fill="#FFFFFF" filter="url(#f1x7e1p1wevp5l)" height="86.2656" style="stroke: #000000; stroke-width: 2.0;" width="235" x="33" y="306.0469"/><rect fill="#FFFFFF" filter="url(#f1x7e1p1wevp5l)" height="160.5313" style="stroke: #000000; stroke-width: 2.0;" width="603" x="23" y="550.5781"/><rect fill="#FFFFFF" filter="url(#f1x7e1p1wevp5l)" height="129.3984" style="stroke: #000000; stroke-width: 2.0;" width="583" x="33" y="574.7109"/><rect fill="#FFFFFF" filter="url(#f1x7e1p1wevp5l)" height="119.3984" style="stroke: #000000; stroke-width: 2.0;" width="1538.5" x="606" y="969.9063"/><rect fill="#FFFFFF" height="14.8047" style="stroke: none; stroke-width: 1.0;" width="2141.5" x="13" y="1139.4375"/><rect fill="#FFFFFF" height="14.8047" style="stroke: none; stroke-width: 1.0;" width="2141.5" x="13" y="1154.2422"/><line style="stroke: #A80036; stroke-width: 1.0; stroke-dasharray: 5.0,5.0;" x1="150" x2="150" y1="73.25" y2="1200.0469"/><line style="stroke: #A80036; stroke-width: 1.0; stroke-dasharray: 5.0,5.0;" x1="437" x2="437" y1="73.25" y2="1200.0469"/><line style="stroke: #A80036; stroke-width: 1.0; stroke-dasharray: 5.0,5.0;" x1="672" x2="672" y1="73.25" y2="1200.0469"/><line style="stroke: #A80036; stroke-width: 1.0; stroke-dasharray: 5.0,5.0;" x1="938.5" x2="938.5" y1="73.25" y2="1200.0469"/><line style="stroke: #A80036; stroke-width: 1.0; stroke-dasharray: 5.0,5.0;" x1="1230.5" x2="1230.5" y1="73.25" y2="1200.0469"/><line style="stroke: #A80036; stroke-width: 1.0; stroke-dasharray: 5.0,5.0;" x1="1568.5" x2="1568.5" y1="73.25" y2="1200.0469"/><line style="stroke: #A80036; stroke-width: 1.0; stroke-dasharray: 5.0,5.0;" x1="1938.5" x2="1938.5" y1="73.25" y2="1200.0469"/><rect fill="#FEFECE" filter="url(#f1x7e1p1wevp5l)" height="30.2969" style="stroke: #A80036; stroke-width: 1.5;" width="211" x="43" y="37.9531"/><text fill="#000000" font-family="sans-serif" font-size="14" lengthAdjust="spacingAndGlyphs" textLength="197" x="50" y="57.9482">src/config/yaml_decoders.cc</text><rect fill="#FEFECE" filter="url(#f1x7e1p1wevp5l)" height="30.2969" style="stroke: #A80036; stroke-width: 1.5;" width="211" x="43" y="1199.0469"/><text fill="#000000" font-family="sans-serif" font-size="14" lengthAdjust="spacingAndGlyphs" textLength="197" x="50" y="1219.042">src/config/yaml_decoders.cc</text><rect fill="#FEFECE" filter="url(#f1x7e1p1wevp5l)" height="30.2969" style="stroke: #A80036; stroke-width: 1.5;" width="334" x="268" y="37.9531"/><text fill="#000000" font-family="sans-serif" font-size="14" lengthAdjust="spacingAndGlyphs" textLength="320" x="275" y="57.9482">../../../../../../usr/include/yaml-cpp/node/parse.h</text><rect fill="#FEFECE" filter="url(#f1x7e1p1wevp5l)" height="30.2969" style="stroke: #A80036; stroke-width: 1.5;" width="334" x="268" y="1199.0469"/><text fill="#000000" font-family="sans-serif" font-size="14" lengthAdjust="spacingAndGlyphs" textLength="320" x="275" y="1219.042">../../../../../../usr/include/yaml-cpp/node/parse.h</text><a href="" target="_top" title="Represents entire configuration file" xlink:actuate="onRequest" xlink:href="" xlink:show="new" xlink:title="Represents entire configuration file" xlink:type="simple"><rect fill="#FEFECE" filter="url(#f1x7e1p1wevp5l)" height="30.2969" style="stroke: #A80036; stroke-width: 1.5;" width="108" x="616" y="37.9531"/><text fill="#000000" font-family="sans-serif" font-size="14" lengthAdjust="spacingAndGlyphs" textLength="94" x="623" y="57.9482">config::config</text><rect fill="#FEFECE" filter="url(#f1x7e1p1wevp5l)" height="30.2969" style="stroke: #A80036; stroke-width: 1.5;" width="108" x="616" y="1199.0469"/><text fill="#000000" font-family="sans-serif" font-size="14" lengthAdjust="spacingAndGlyphs" textLength="94" x="623" y="1219.042">config::config</text></a><rect fill="#FEFECE" filter="url(#f1x7e1p1wevp5l)" height="30.2969" style="stroke: #A80036; stroke-width: 1.5;" width="231" x="821.5" y="37.9531"/><text fill="#000000" font-family="sans-serif" font-size="14" lengthAdjust="spacingAndGlyphs" textLength="217" x="828.5" y="57.9482">src/config/diagram_templates.h</text><rect fill="#FEFECE" filter="url(#f1x7e1p1wevp5l)" height="30.2969" style="stroke: #A80036; stroke-width: 1.5;" width="231" x="821.5" y="1199.0469"/><text fill="#000000" font-family="sans-serif" font-size="14" lengthAdjust="spacingAndGlyphs" textLength="217" x="828.5" y="1219.042">src/config/diagram_templates.h</text><rect fill="#FEFECE" filter="url(#f1x7e1p1wevp5l)" height="30.2969" style="stroke: #A80036; stroke-width: 1.5;" width="325" x="1066.5" y="37.9531"/><text fill="#000000" font-family="sans-serif" font-size="14" lengthAdjust="spacingAndGlyphs" textLength="311" x="1073.5" y="57.9482">../../../../../../usr/include/yaml-cpp/node/emit.h</text><rect fill="#FEFECE" filter="url(#f1x7e1p1wevp5l)" height="30.2969" style="stroke: #A80036; stroke-width: 1.5;" width="325" x="1066.5" y="1199.0469"/><text fill="#000000" font-family="sans-serif" font-size="14" lengthAdjust="spacingAndGlyphs" textLength="311" x="1073.5" y="1219.042">../../../../../../usr/include/yaml-cpp/node/emit.h</text><rect fill="#FEFECE" filter="url(#f1x7e1p1wevp5l)" height="30.2969" style="stroke: #A80036; stroke-width: 1.5;" width="323" x="1405.5" y="37.9531"/><text fill="#000000" font-family="sans-serif" font-size="14" lengthAdjust="spacingAndGlyphs" textLength="309" x="1412.5" y="57.9482">../../../../../../usr/include/yaml-cpp/node/impl.h</text><rect fill="#FEFECE" filter="url(#f1x7e1p1wevp5l)" height="30.2969" style="stroke: #A80036; stroke-width: 1.5;" width="323" x="1405.5" y="1199.0469"/><text fill="#000000" font-family="sans-serif" font-size="14" lengthAdjust="spacingAndGlyphs" textLength="309" x="1412.5" y="1219.042">../../../../../../usr/include/yaml-cpp/node/impl.h</text><a href="" target="_top" title="option" xlink:actuate="onRequest" xlink:href="" xlink:show="new" xlink:title="option" xlink:type="simple"><rect fill="#FEFECE" filter="url(#f1x7e1p1wevp5l)" height="30.2969" style="stroke: #A80036; stroke-width: 1.5;" width="388" x="1742.5" y="37.9531"/><text fill="#000000" font-family="sans-serif" font-size="14" lengthAdjust="spacingAndGlyphs" textLength="374" x="1749.5" y="57.9482">config::option&lt;std::map&lt;std::basic_string&lt;char&gt;&gt;&gt;</text><rect fill="#FEFECE" filter="url(#f1x7e1p1wevp5l)" height="30.2969" style="stroke: #A80036; stroke-width: 1.5;" width="388" x="1742.5" y="1199.0469"/><text fill="#000000" font-family="sans-serif" font-size="14" lengthAdjust="spacingAndGlyphs" textLength="374" x="1749.5" y="1219.042">config::option&lt;std::map&lt;std::basic_string&lt;char&gt;&gt;&gt;</text></a><rect fill="#FFFFFF" filter="url(#f1x7e1p1wevp5l)" height="1077.6641" style="stroke: #A80036; stroke-width: 1.0;" width="10" x="145.5" y="104.3828"/><rect fill="#FFFFFF" filter="url(#f1x7e1p1wevp5l)" height="25" style="stroke: #A80036; stroke-width: 1.0;" width="10" x="150.5" y="352.3125"/><rect fill="#FFFFFF" filter="url(#f1x7e1p1wevp5l)" height="28" style="stroke: #A80036; stroke-width: 1.0;" width="10" x="150.5" y="428.4453"/><rect fill="#FFFFFF" filter="url(#f1x7e1p1wevp5l)" height="28" style="stroke: #A80036; stroke-width: 1.0;" width="10" x="150.5" y="500.5781"/><rect fill="#FFFFFF" filter="url(#f1x7e1p1wevp5l)" height="25" style="stroke: #A80036; stroke-width: 1.0;" width="10" x="150.5" y="620.9766"/><rect fill="#FFFFFF" filter="url(#f1x7e1p1wevp5l)" height="14" style="stroke: #A80036; stroke-width: 1.0;" width="10" x="432" y="157.6484"/><rect fill="#FFFFFF" filter="url(#f1x7e1p1wevp5l)" height="14" style="stroke: #A80036; stroke-width: 1.0;" width="10" x="432" y="224.9141"/><rect fill="#FFFFFF" filter="url(#f1x7e1p1wevp5l)" height="14" style="stroke: #A80036; stroke-width: 1.0;" width="10" x="432" y="270.0469"/><rect fill="#FFFFFF" filter="url(#f1x7e1p1wevp5l)" height="14" style="stroke: #A80036; stroke-width: 1.0;" width="10" x="432" y="682.1094"/><rect fill="#FFFFFF" filter="url(#f1x7e1p1wevp5l)" height="14" style="stroke: #A80036; stroke-width: 1.0;" width="10" x="432" y="940.9063"/><rect fill="#FFFFFF" filter="url(#f1x7e1p1wevp5l)" height="392.1953" style="stroke: #A80036; stroke-width: 1.0;" width="10" x="667" y="739.2422"/><rect fill="#FFFFFF" filter="url(#f1x7e1p1wevp5l)" height="143.3984" style="stroke: #A80036; stroke-width: 1.0;" width="10" x="934" y="768.375"/><rect fill="#FFFFFF" filter="url(#f1x7e1p1wevp5l)" height="14" style="stroke: #A80036; stroke-width: 1.0;" width="10" x="1226" y="797.5078"/><rect fill="#FFFFFF" filter="url(#f1x7e1p1wevp5l)" height="14" style="stroke: #A80036; stroke-width: 1.0;" width="10" x="1564" y="840.6406"/><rect fill="#FFFFFF" filter="url(#f1x7e1p1wevp5l)" height="14" style="stroke: #A80036; stroke-width: 1.0;" width="10" x="1564" y="883.7734"/><rect fill="#FFFFFF" filter="url(#f1x7e1p1wevp5l)" height="14" style="stroke: #A80036; stroke-width: 1.0;" width="10" x="1933.5" y="1008.1719"/><rect fill="#FFFFFF" filter="url(#f1x7e1p1wevp5l)" height="30" style="stroke: #A80036; stroke-width: 1.0;" width="10" x="1933.5" y="1051.3047"/><rect fill="#FFFFFF" filter="url(#f1x7e1p1wevp5l)" height="14" style="stroke: #A80036; stroke-width: 1.0;" width="10" x="1933.5" y="1117.4375"/><polygon fill="#A80036" points="133.5,100.3828,143.5,104.3828,133.5,108.3828,137.5,104.3828" style="stroke: #A80036; stroke-width: 1.0;"/><line style="stroke: #A80036; stroke-width: 1.0;" x1="3" x2="139.5" y1="104.3828" y2="104.3828"/><text fill="#000000" font-family="sans-serif" font-size="13" lengthAdjust="spacingAndGlyphs" textLength="37" x="10" y="99.3169">load()</text><path d="M13,119.3828 L78,119.3828 L78,126.3828 L68,136.3828 L13,136.3828 L13,119.3828 " fill="#EEEEEE" style="stroke: #000000; stroke-width: 1.0;"/><rect fill="none" height="1049.6641" style="stroke: #000000; stroke-width: 2.0;" width="2141.5" x="13" y="119.3828"/><text fill="#000000" font-family="sans-serif" font-size="13" font-weight="bold" lengthAdjust="spacingAndGlyphs" textLength="20" x="28" y="132.4497">try</text><a href="" target="_top" title="" xlink:actuate="onRequest" xlink:href="" xlink:show="new" xlink:title="" xlink:type="simple"><polygon fill="#A80036" points="420,153.6484,430,157.6484,420,161.6484,424,157.6484" style="stroke: #A80036; stroke-width: 1.0;"/><line style="stroke: #A80036; stroke-width: 1.0;" x1="155.5" x2="426" y1="157.6484" y2="157.6484"/><text fill="#000000" font-family="sans-serif" font-size="13" lengthAdjust="spacingAndGlyphs" textLength="41" x="162.5" y="152.5825">Load()</text></a><polygon fill="#A80036" points="166.5,167.6484,156.5,171.6484,166.5,175.6484,162.5,171.6484" style="stroke: #A80036; stroke-width: 1.0;"/><line style="stroke: #A80036; stroke-width: 1.0; stroke-dasharray: 2.0,2.0;" x1="160.5" x2="436" y1="171.6484" y2="171.6484"/><path d="M33,186.6484 L97,186.6484 L97,193.6484 L87,203.6484 L33,203.6484 L33,186.6484 " fill="#EEEEEE" style="stroke: #000000; stroke-width: 1.0;"/><rect fill="none" height="105.3984" style="stroke: #000000; stroke-width: 2.0;" width="583" x="33" y="186.6484"/><text fill="#000000" font-family="sans-serif" font-size="13" font-weight="bold" lengthAdjust="spacingAndGlyphs" textLength="19" x="48" y="199.7153">alt</text><a href="" target="_top" title="" xlink:actuate="onRequest" xlink:href="" xlink:show="new" xlink:title="" xlink:type="simple"><polygon fill="#A80036" points="420,220.9141,430,224.9141,420,228.9141,424,224.9141" style="stroke: #A80036; stroke-width: 1.0;"/><line style="stroke: #A80036; stroke-width: 1.0;" x1="155.5" x2="426" y1="224.9141" y2="224.9141"/><text fill="#000000" font-family="sans-serif" font-size="13" lengthAdjust="spacingAndGlyphs" textLength="41" x="162.5" y="219.8481">Load()</text></a><polygon fill="#A80036" points="166.5,234.9141,156.5,238.9141,166.5,242.9141,162.5,238.9141" style="stroke: #A80036; stroke-width: 1.0;"/><line style="stroke: #A80036; stroke-width: 1.0; stroke-dasharray: 2.0,2.0;" x1="160.5" x2="436" y1="238.9141" y2="238.9141"/><line style="stroke: #000000; stroke-width: 1.0; stroke-dasharray: 2.0,2.0;" x1="33" x2="616" y1="247.9141" y2="247.9141"/><a href="" target="_top" title="" xlink:actuate="onRequest" xlink:href="" xlink:show="new" xlink:title="" xlink:type="simple"><polygon fill="#A80036" points="420,266.0469,430,270.0469,420,274.0469,424,270.0469" style="stroke: #A80036; stroke-width: 1.0;"/><line style="stroke: #A80036; stroke-width: 1.0;" x1="155.5" x2="426" y1="270.0469" y2="270.0469"/><text fill="#000000" font-family="sans-serif" font-size="13" lengthAdjust="spacingAndGlyphs" textLength="62" x="162.5" y="264.981">LoadFile()</text></a><polygon fill="#A80036" points="166.5,280.0469,156.5,284.0469,166.5,288.0469,162.5,284.0469" style="stroke: #A80036; stroke-width: 1.0;"/><line style="stroke: #A80036; stroke-width: 1.0; stroke-dasharray: 2.0,2.0;" x1="160.5" x2="436" y1="284.0469" y2="284.0469"/><path d="M33,306.0469 L97,306.0469 L97,313.0469 L87,323.0469 L33,323.0469 L33,306.0469 " fill="#EEEEEE" style="stroke: #000000; stroke-width: 1.0;"/><rect fill="none" height="86.2656" style="stroke: #000000; stroke-width: 2.0;" width="235" x="33" y="306.0469"/><text fill="#000000" font-family="sans-serif" font-size="13" font-weight="bold" lengthAdjust="spacingAndGlyphs" textLength="19" x="48" y="319.1138">alt</text><a href="" target="_top" title="" xlink:actuate="onRequest" xlink:href="" xlink:show="new" xlink:title="" xlink:type="simple"><line style="stroke: #A80036; stroke-width: 1.0;" x1="155.5" x2="202.5" y1="339.3125" y2="339.3125"/><line style="stroke: #A80036; stroke-width: 1.0;" x1="202.5" x2="202.5" y1="339.3125" y2="352.3125"/><line style="stroke: #A80036; stroke-width: 1.0;" x1="161.5" x2="202.5" y1="352.3125" y2="352.3125"/><polygon fill="#A80036" points="171.5,348.3125,161.5,352.3125,171.5,356.3125,167.5,352.3125" style="stroke: #A80036; stroke-width: 1.0;"/><text fill="#000000" font-family="sans-serif" font-size="13" font-weight="bold" lengthAdjust="spacingAndGlyphs" textLength="6" x="167.5" y="334.2466">[</text><text fill="#000000" font-family="sans-serif" font-size="13" lengthAdjust="spacingAndGlyphs" textLength="62" x="173.5" y="334.2466">has_key()</text><text fill="#000000" font-family="sans-serif" font-size="13" font-weight="bold" lengthAdjust="spacingAndGlyphs" textLength="6" x="235.5" y="334.2466">]</text></a><line style="stroke: #A80036; stroke-width: 1.0; stroke-dasharray: 2.0,2.0;" x1="160.5" x2="202.5" y1="376.3125" y2="376.3125"/><line style="stroke: #A80036; stroke-width: 1.0; stroke-dasharray: 2.0,2.0;" x1="202.5" x2="202.5" y1="376.3125" y2="389.3125"/><line style="stroke: #A80036; stroke-width: 1.0; stroke-dasharray: 2.0,2.0;" x1="155.5" x2="202.5" y1="389.3125" y2="389.3125"/><polygon fill="#A80036" points="165.5,385.3125,155.5,389.3125,165.5,393.3125,161.5,389.3125" style="stroke: #A80036; stroke-width: 1.0;"/><a href="" target="_top" title="" xlink:actuate="onRequest" xlink:href="" xlink:show="new" xlink:title="" xlink:type="simple"><line style="stroke: #A80036; stroke-width: 1.0;" x1="160.5" x2="202.5" y1="420.4453" y2="420.4453"/><line style="stroke: #A80036; stroke-width: 1.0;" x1="202.5" x2="202.5" y1="420.4453" y2="433.4453"/><line style="stroke: #A80036; stroke-width: 1.0;" x1="161.5" x2="202.5" y1="433.4453" y2="433.4453"/><polygon fill="#A80036" points="171.5,429.4453,161.5,433.4453,171.5,437.4453,167.5,433.4453" style="stroke: #A80036; stroke-width: 1.0;"/><text fill="#000000" font-family="sans-serif" font-size="13" lengthAdjust="spacingAndGlyphs" textLength="139" x="167.5" y="415.3794">resolve_option_path()</text></a><a href="" target="_top" title="" xlink:actuate="onRequest" xlink:href="" xlink:show="new" xlink:title="" xlink:type="simple"><line style="stroke: #A80036; stroke-width: 1.0;" x1="160.5" x2="202.5" y1="492.5781" y2="492.5781"/><line style="stroke: #A80036; stroke-width: 1.0;" x1="202.5" x2="202.5" y1="492.5781" y2="505.5781"/><line style="stroke: #A80036; stroke-width: 1.0;" x1="161.5" x2="202.5" y1="505.5781" y2="505.5781"/><polygon fill="#A80036" points="171.5,501.5781,161.5,505.5781,171.5,509.5781,167.5,505.5781" style="stroke: #A80036; stroke-width: 1.0;"/><text fill="#000000" font-family="sans-serif" font-size="13" lengthAdjust="spacingAndGlyphs" textLength="139" x="167.5" y="487.5122">resolve_option_path()</text></a><path d="M23,550.5781 L100,550.5781 L100,557.5781 L90,567.5781 L23,567.5781 L23,550.5781 " fill="#EEEEEE" style="stroke: #000000; stroke-width: 1.0;"/><rect fill="none" height="160.5313" style="stroke: #000000; stroke-width: 2.0;" width="603" x="23" y="550.5781"/><text fill="#000000" font-family="sans-serif" font-size="13" font-weight="bold" lengthAdjust="spacingAndGlyphs" textLength="32" x="38" y="563.645">loop</text><path d="M33,574.7109 L97,574.7109 L97,581.7109 L87,591.7109 L33,591.7109 L33,574.7109 " fill="#EEEEEE" style="stroke: #000000; stroke-width: 1.0;"/><rect fill="none" height="129.3984" style="stroke: #000000; stroke-width: 2.0;" width="583" x="33" y="574.7109"/><text fill="#000000" font-family="sans-serif" font-size="13" font-weight="bold" lengthAdjust="spacingAndGlyphs" textLength="19" x="48" y="587.7778">alt</text><a href="" target="_top" title="" xlink:actuate="onRequest" xlink:href="" xlink:show="new" xlink:title="" xlink:type="simple"><line style="stroke: #A80036; stroke-width: 1.0;" x1="155.5" x2="202.5" y1="607.9766" y2="607.9766"/><line style="stroke: #A80036; stroke-width: 1.0;" x1="202.5" x2="202.5" y1="607.9766" y2="620.9766"/><line style="stroke: #A80036; stroke-width: 1.0;" x1="161.5" x2="202.5" y1="620.9766" y2="620.9766"/><polygon fill="#A80036" points="171.5,616.9766,161.5,620.9766,171.5,624.9766,167.5,620.9766" style="stroke: #A80036; stroke-width: 1.0;"/><text fill="#000000" font-family="sans-serif" font-size="13" font-weight="bold" lengthAdjust="spacingAndGlyphs" textLength="6" x="167.5" y="602.9106">[</text><text fill="#000000" font-family="sans-serif" font-size="13" lengthAdjust="spacingAndGlyphs" textLength="62" x="173.5" y="602.9106">has_key()</text><text fill="#000000" font-family="sans-serif" font-size="13" font-weight="bold" lengthAdjust="spacingAndGlyphs" textLength="6" x="235.5" y="602.9106">]</text></a><line style="stroke: #A80036; stroke-width: 1.0; stroke-dasharray: 2.0,2.0;" x1="160.5" x2="202.5" y1="644.9766" y2="644.9766"/><line style="stroke: #A80036; stroke-width: 1.0; stroke-dasharray: 2.0,2.0;" x1="202.5" x2="202.5" y1="644.9766" y2="657.9766"/><line style="stroke: #A80036; stroke-width: 1.0; stroke-dasharray: 2.0,2.0;" x1="155.5" x2="202.5" y1="657.9766" y2="657.9766"/><polygon fill="#A80036" points="165.5,653.9766,155.5,657.9766,165.5,661.9766,161.5,657.9766" style="stroke: #A80036; stroke-width: 1.0;"/><a href="" target="_top" title="" xlink:actuate="onRequest" xlink:href="" xlink:show="new" xlink:title="" xlink:type="simple"><polygon fill="#A80036" points="420,678.1094,430,682.1094,420,686.1094,424,682.1094" style="stroke: #A80036; stroke-width: 1.0;"/><line style="stroke: #A80036; stroke-width: 1.0;" x1="155.5" x2="426" y1="682.1094" y2="682.1094"/><text fill="#000000" font-family="sans-serif" font-size="13" lengthAdjust="spacingAndGlyphs" textLength="62" x="162.5" y="677.0435">LoadFile()</text></a><polygon fill="#A80036" points="166.5,692.1094,156.5,696.1094,166.5,700.1094,162.5,696.1094" style="stroke: #A80036; stroke-width: 1.0;"/><line style="stroke: #A80036; stroke-width: 1.0; stroke-dasharray: 2.0,2.0;" x1="160.5" x2="436" y1="696.1094" y2="696.1094"/><a href="" target="_top" title="" xlink:actuate="onRequest" xlink:href="" xlink:show="new" xlink:title="" xlink:type="simple"><polygon fill="#A80036" points="655,735.2422,665,739.2422,655,743.2422,659,739.2422" style="stroke: #A80036; stroke-width: 1.0;"/><line style="stroke: #A80036; stroke-width: 1.0;" x1="155.5" x2="661" y1="739.2422" y2="739.2422"/><text fill="#000000" font-family="sans-serif" font-size="13" lengthAdjust="spacingAndGlyphs" textLength="193" x="162.5" y="734.1763">initialize_diagram_templates()</text></a><a href="" target="_top" title="" xlink:actuate="onRequest" xlink:href="" xlink:show="new" xlink:title="" xlink:type="simple"><polygon fill="#A80036" points="922,764.375,932,768.375,922,772.375,926,768.375" style="stroke: #A80036; stroke-width: 1.0;"/><line style="stroke: #A80036; stroke-width: 1.0;" x1="677" x2="928" y1="768.375" y2="768.375"/><text fill="#000000" font-family="sans-serif" font-size="13" lengthAdjust="spacingAndGlyphs" textLength="238" x="684" y="763.3091">get_predefined_diagram_templates()</text></a><a href="" target="_top" title="" xlink:actuate="onRequest" xlink:href="" xlink:show="new" xlink:title="" xlink:type="simple"><polygon fill="#A80036" points="1214,793.5078,1224,797.5078,1214,801.5078,1218,797.5078" style="stroke: #A80036; stroke-width: 1.0;"/><line style="stroke: #A80036; stroke-width: 1.0;" x1="944" x2="1220" y1="797.5078" y2="797.5078"/><text fill="#000000" font-family="sans-serif" font-size="13" lengthAdjust="spacingAndGlyphs" textLength="87" x="951" y="792.4419">operator&lt;&lt;()</text></a><polygon fill="#A80036" points="955,807.5078,945,811.5078,955,815.5078,951,811.5078" style="stroke: #A80036; stroke-width: 1.0;"/><line style="stroke: #A80036; stroke-width: 1.0; stroke-dasharray: 2.0,2.0;" x1="949" x2="1230" y1="811.5078" y2="811.5078"/><a href="" target="_top" title="" xlink:actuate="onRequest" xlink:href="" xlink:show="new" xlink:title="" xlink:type="simple"><polygon fill="#A80036" points="1552,836.6406,1562,840.6406,1552,844.6406,1556,840.6406" style="stroke: #A80036; stroke-width: 1.0;"/><line style="stroke: #A80036; stroke-width: 1.0;" x1="944" x2="1558" y1="840.6406" y2="840.6406"/><text fill="#000000" font-family="sans-serif" font-size="13" lengthAdjust="spacingAndGlyphs" textLength="87" x="951" y="835.5747">operator==()</text></a><polygon fill="#A80036" points="955,850.6406,945,854.6406,955,858.6406,951,854.6406" style="stroke: #A80036; stroke-width: 1.0;"/><line style="stroke: #A80036; stroke-width: 1.0; stroke-dasharray: 2.0,2.0;" x1="949" x2="1568" y1="854.6406" y2="854.6406"/><a href="" target="_top" title="" xlink:actuate="onRequest" xlink:href="" xlink:show="new" xlink:title="" xlink:type="simple"><polygon fill="#A80036" points="1552,879.7734,1562,883.7734,1552,887.7734,1556,883.7734" style="stroke: #A80036; stroke-width: 1.0;"/><line style="stroke: #A80036; stroke-width: 1.0;" x1="944" x2="1558" y1="883.7734" y2="883.7734"/><text fill="#000000" font-family="sans-serif" font-size="13" lengthAdjust="spacingAndGlyphs" textLength="87" x="951" y="878.7075">operator==()</text></a><polygon fill="#A80036" points="955,893.7734,945,897.7734,955,901.7734,951,897.7734" style="stroke: #A80036; stroke-width: 1.0;"/><line style="stroke: #A80036; stroke-width: 1.0; stroke-dasharray: 2.0,2.0;" x1="949" x2="1568" y1="897.7734" y2="897.7734"/><polygon fill="#A80036" points="688,907.7734,678,911.7734,688,915.7734,684,911.7734" style="stroke: #A80036; stroke-width: 1.0;"/><line style="stroke: #A80036; stroke-width: 1.0; stroke-dasharray: 2.0,2.0;" x1="682" x2="938" y1="911.7734" y2="911.7734"/><a href="" target="_top" title="" xlink:actuate="onRequest" xlink:href="" xlink:show="new" xlink:title="" xlink:type="simple"><polygon fill="#A80036" points="453,936.9063,443,940.9063,453,944.9063,449,940.9063" style="stroke: #A80036; stroke-width: 1.0;"/><line style="stroke: #A80036; stroke-width: 1.0;" x1="447" x2="666" y1="940.9063" y2="940.9063"/><text fill="#000000" font-family="sans-serif" font-size="13" lengthAdjust="spacingAndGlyphs" textLength="41" x="459" y="935.8403">Load()</text></a><polygon fill="#A80036" points="655,950.9063,665,954.9063,655,958.9063,659,954.9063" style="stroke: #A80036; stroke-width: 1.0;"/><line style="stroke: #A80036; stroke-width: 1.0; stroke-dasharray: 2.0,2.0;" x1="437" x2="661" y1="954.9063" y2="954.9063"/><path d="M606,969.9063 L670,969.9063 L670,976.9063 L660,986.9063 L606,986.9063 L606,969.9063 " fill="#EEEEEE" style="stroke: #000000; stroke-width: 1.0;"/><rect fill="none" height="119.3984" style="stroke: #000000; stroke-width: 2.0;" width="1538.5" x="606" y="969.9063"/><text fill="#000000" font-family="sans-serif" font-size="13" font-weight="bold" lengthAdjust="spacingAndGlyphs" textLength="19" x="621" y="982.9731">alt</text><a href="" target="_top" title="" xlink:actuate="onRequest" xlink:href="" xlink:show="new" xlink:title="" xlink:type="simple"><polygon fill="#A80036" points="1921.5,1004.1719,1931.5,1008.1719,1921.5,1012.1719,1925.5,1008.1719" style="stroke: #A80036; stroke-width: 1.0;"/><line style="stroke: #A80036; stroke-width: 1.0;" x1="677" x2="1927.5" y1="1008.1719" y2="1008.1719"/><text fill="#000000" font-family="sans-serif" font-size="13" font-weight="bold" lengthAdjust="spacingAndGlyphs" textLength="6" x="684" y="1003.106">[</text><text fill="#000000" font-family="sans-serif" font-size="13" lengthAdjust="spacingAndGlyphs" textLength="135" x="690" y="1003.106">operator bool() const</text><text fill="#000000" font-family="sans-serif" font-size="13" font-weight="bold" lengthAdjust="spacingAndGlyphs" textLength="6" x="825" y="1003.106">]</text></a><polygon fill="#A80036" points="688,1018.1719,678,1022.1719,688,1026.1719,684,1022.1719" style="stroke: #A80036; stroke-width: 1.0;"/><line style="stroke: #A80036; stroke-width: 1.0; stroke-dasharray: 2.0,2.0;" x1="682" x2="1937.5" y1="1022.1719" y2="1022.1719"/><a href="" target="_top" title="" xlink:actuate="onRequest" xlink:href="" xlink:show="new" xlink:title="" xlink:type="simple"><polygon fill="#A80036" points="1921.5,1047.3047,1931.5,1051.3047,1921.5,1055.3047,1925.5,1051.3047" style="stroke: #A80036; stroke-width: 1.0;"/><line style="stroke: #A80036; stroke-width: 1.0;" x1="677" x2="1927.5" y1="1051.3047" y2="1051.3047"/><text fill="#000000" font-family="sans-serif" font-size="13" lengthAdjust="spacingAndGlyphs" textLength="30" x="684" y="1046.2388">set()</text></a><a href="" target="_top" title="" xlink:actuate="onRequest" xlink:href="" xlink:show="new" xlink:title="" xlink:type="simple"><polygon fill="#A80036" points="1921.5,1113.4375,1931.5,1117.4375,1921.5,1121.4375,1925.5,1117.4375" style="stroke: #A80036; stroke-width: 1.0;"/><line style="stroke: #A80036; stroke-width: 1.0;" x1="677" x2="1927.5" y1="1117.4375" y2="1117.4375"/><text fill="#000000" font-family="sans-serif" font-size="13" lengthAdjust="spacingAndGlyphs" textLength="75" x="684" y="1112.3716">operator()()</text></a><polygon fill="#A80036" points="683,1127.4375,673,1131.4375,683,1135.4375,679,1131.4375" style="stroke: #A80036; stroke-width: 1.0;"/><line style="stroke: #A80036; stroke-width: 1.0; stroke-dasharray: 2.0,2.0;" x1="677" x2="1937.5" y1="1131.4375" y2="1131.4375"/><line style="stroke: #000000; stroke-width: 1.0; stroke-dasharray: 2.0,2.0;" x1="13" x2="2154.5" y1="1140.4375" y2="1140.4375"/><text fill="#000000" font-family="sans-serif" font-size="11" font-weight="bold" lengthAdjust="spacingAndGlyphs" textLength="115" x="18" y="1150.6479">[YAML::BadFile &amp;]</text><line style="stroke: #000000; stroke-width: 1.0; stroke-dasharray: 2.0,2.0;" x1="13" x2="2154.5" y1="1155.2422" y2="1155.2422"/><text fill="#000000" font-family="sans-serif" font-size="11" font-weight="bold" lengthAdjust="spacingAndGlyphs" textLength="129" x="18" y="1165.4526">[YAML::Exception &amp;]</text><polygon fill="#A80036" points="14,1178.0469,4,1182.0469,14,1186.0469,10,1182.0469" style="stroke: #A80036; stroke-width: 1.0;"/><line style="stroke: #A80036; stroke-width: 1.0; stroke-dasharray: 2.0,2.0;" x1="8" x2="149.5" y1="1182.0469" y2="1182.0469"/><!--MD5=[318aedaa52d156488b3590cdcc28e236]
@startuml
title Configuration file loading sequence diagram
participant "src/config/yaml_decoders.cc" as C_0000013575284193954972
[-> C_0000013575284193954972 : load()
activate C_0000013575284193954972
group try
participant "../../../../../../usr/include/yaml-cpp/node/parse.h" as C_0001918194267413196394
C_0000013575284193954972 -> C_0001918194267413196394 [[{}]] : Load()
activate C_0001918194267413196394
C_0001918194267413196394 - -> C_0000013575284193954972
deactivate C_0001918194267413196394
alt
C_0000013575284193954972 -> C_0001918194267413196394 [[{}]] : Load()
activate C_0001918194267413196394
C_0001918194267413196394 - -> C_0000013575284193954972
deactivate C_0001918194267413196394
else
C_0000013575284193954972 -> C_0001918194267413196394 [[{}]] : LoadFile()
activate C_0001918194267413196394
C_0001918194267413196394 - -> C_0000013575284193954972
deactivate C_0001918194267413196394
end
alt
C_0000013575284193954972 -> C_0000013575284193954972 [[{}]] : **[**has_key()**]**
activate C_0000013575284193954972
C_0000013575284193954972 - -> C_0000013575284193954972
deactivate C_0000013575284193954972
end
C_0000013575284193954972 -> C_0000013575284193954972 [[{}]] : resolve_option_path()
activate C_0000013575284193954972
deactivate C_0000013575284193954972
C_0000013575284193954972 -> C_0000013575284193954972 [[{}]] : resolve_option_path()
activate C_0000013575284193954972
deactivate C_0000013575284193954972
loop
alt
C_0000013575284193954972 -> C_0000013575284193954972 [[{}]] : **[**has_key()**]**
activate C_0000013575284193954972
C_0000013575284193954972 - -> C_0000013575284193954972
deactivate C_0000013575284193954972
C_0000013575284193954972 -> C_0001918194267413196394 [[{}]] : LoadFile()
activate C_0001918194267413196394
C_0001918194267413196394 - -> C_0000013575284193954972
deactivate C_0001918194267413196394
end
end
participant "config::config" as C_0000893743909513410599 [[{Represents entire configuration file}]]
C_0000013575284193954972 -> C_0000893743909513410599 [[{}]] : initialize_diagram_templates()
activate C_0000893743909513410599
participant "src/config/diagram_templates.h" as C_0000929791224157323192
C_0000893743909513410599 -> C_0000929791224157323192 [[{}]] : get_predefined_diagram_templates()
activate C_0000929791224157323192
participant "../../../../../../usr/include/yaml-cpp/node/emit.h" as C_0001258038217785004615
C_0000929791224157323192 -> C_0001258038217785004615 [[{}]] : operator<<()
activate C_0001258038217785004615
C_0001258038217785004615 - -> C_0000929791224157323192
deactivate C_0001258038217785004615
participant "../../../../../../usr/include/yaml-cpp/node/impl.h" as C_0001650368202456897199
C_0000929791224157323192 -> C_0001650368202456897199 [[{}]] : operator==()
activate C_0001650368202456897199
C_0001650368202456897199 - -> C_0000929791224157323192
deactivate C_0001650368202456897199
C_0000929791224157323192 -> C_0001650368202456897199 [[{}]] : operator==()
activate C_0001650368202456897199
C_0001650368202456897199 - -> C_0000929791224157323192
deactivate C_0001650368202456897199
C_0000929791224157323192 - -> C_0000893743909513410599
deactivate C_0000929791224157323192
C_0000893743909513410599 -> C_0001918194267413196394 [[{}]] : Load()
activate C_0001918194267413196394
C_0001918194267413196394 - -> C_0000893743909513410599
deactivate C_0001918194267413196394
alt
participant "config::option<std::map<std::basic_string<char>>>" as C_0001794979654581748123 [[{option}]]
C_0000893743909513410599 -> C_0001794979654581748123 [[{}]] : **[**operator bool() const**]**
activate C_0001794979654581748123
C_0001794979654581748123 - -> C_0000893743909513410599
deactivate C_0001794979654581748123
C_0000893743909513410599 -> C_0001794979654581748123 [[{}]] : set()
activate C_0001794979654581748123
deactivate C_0001794979654581748123
end
C_0000893743909513410599 -> C_0001794979654581748123 [[{}]] : operator()()
activate C_0001794979654581748123
C_0001794979654581748123 - -> C_0000893743909513410599
deactivate C_0001794979654581748123
deactivate C_0000893743909513410599
else YAML::BadFile &
else YAML::Exception &
end
[<- - C_0000013575284193954972
deactivate C_0000013575284193954972

@enduml

PlantUML version 1.2020.02(Sun Mar 01 11:22:07 CET 2020)
(GPL source distribution)
Java Runtime: OpenJDK Runtime Environment
JVM: OpenJDK 64-Bit Server VM
Java Version: 11.0.20.1+1-post-Ubuntu-0ubuntu122.04
Operating System: Linux
Default Encoding: UTF-8
Language: en
Country: US
--></g></svg>