<?xml version="1.0" encoding="UTF-8" standalone="no"?><svg xmlns="http://www.w3.org/2000/svg" xmlns:xlink="http://www.w3.org/1999/xlink" contentScriptType="application/ecmascript" contentStyleType="text/css" height="411px" preserveAspectRatio="none" style="width:663px;height:411px;" version="1.1" viewBox="0 0 663 411" width="663px" zoomAndPan="magnify"><defs><filter height="300%" id="f1ixfquijqz5mk" width="300%" x="-1" y="-1"><feGaussianBlur result="blurOut" stdDeviation="2.0"/><feColorMatrix in="blurOut" result="blurOut2" type="matrix" values="0 0 0 0 0 0 0 0 0 0 0 0 0 0 0 0 0 0 .4 0"/><feOffset dx="4.0" dy="4.0" in="blurOut2" result="blurOut3"/><feBlend in="SourceGraphic" in2="blurOut3" mode="normal"/></filter></defs><g><text fill="#000000" font-family="sans-serif" font-size="18" lengthAdjust="spacingAndGlyphs" textLength="286" x="192.5" y="16.708">Package diagram class hierarchy</text><!--MD5=[b75d17d3ee67ca210c766132488de4b0]
class C_0001117102382624673118--><a href="classclanguml_1_1common_1_1model_1_1decorated__element.html" target="_top" title="Base class for decorated diagram elements" xlink:actuate="onRequest" xlink:href="classclanguml_1_1common_1_1model_1_1decorated__element.html" xlink:show="new" xlink:title="Base class for decorated diagram elements" xlink:type="simple"><rect fill="#FEFECE" filter="url(#f1ixfquijqz5mk)" height="48" id="C_0001117102382624673118" style="stroke: #A80036; stroke-width: 1.5;" width="261" x="6" y="28.9531"/><ellipse cx="21" cy="44.9531" fill="#ADD1B2" rx="11" ry="11" style="stroke: #A80036; stroke-width: 1.0;"/><path d="M23.9688,50.5938 Q23.3906,50.8906 22.75,51.0313 Q22.1094,51.1875 21.4063,51.1875 Q18.9063,51.1875 17.5781,49.5469 Q16.2656,47.8906 16.2656,44.7656 Q16.2656,41.6406 17.5781,39.9844 Q18.9063,38.3281 21.4063,38.3281 Q22.1094,38.3281 22.75,38.4844 Q23.4063,38.6406 23.9688,38.9375 L23.9688,41.6563 Q23.3438,41.0781 22.75,40.8125 Q22.1563,40.5313 21.5313,40.5313 Q20.1875,40.5313 19.5,41.6094 Q18.8125,42.6719 18.8125,44.7656 Q18.8125,46.8594 19.5,47.9375 Q20.1875,49 21.5313,49 Q22.1563,49 22.75,48.7344 Q23.3438,48.4531 23.9688,47.875 L23.9688,50.5938 Z "/><text fill="#000000" font-family="sans-serif" font-size="12" lengthAdjust="spacingAndGlyphs" textLength="229" x="35" y="49.1074">common::model::decorated_element</text><line style="stroke: #A80036; stroke-width: 1.5;" x1="7" x2="266" y1="60.9531" y2="60.9531"/><line style="stroke: #A80036; stroke-width: 1.5;" x1="7" x2="266" y1="68.9531" y2="68.9531"/></a><!--MD5=[39023b0134efb4261990e1927fe4a3ac]
class C_0002077846075979426940--><a href="classclanguml_1_1common_1_1model_1_1stylable__element.html" target="_top" title="Diagram elements to which style can be applied." xlink:actuate="onRequest" xlink:href="classclanguml_1_1common_1_1model_1_1stylable__element.html" xlink:show="new" xlink:title="Diagram elements to which style can be applied." xlink:type="simple"><rect fill="#FEFECE" filter="url(#f1ixfquijqz5mk)" height="48" id="C_0002077846075979426940" style="stroke: #A80036; stroke-width: 1.5;" width="244" x="408.5" y="244.9531"/><ellipse cx="423.5" cy="260.9531" fill="#ADD1B2" rx="11" ry="11" style="stroke: #A80036; stroke-width: 1.0;"/><path d="M426.4688,266.5938 Q425.8906,266.8906 425.25,267.0313 Q424.6094,267.1875 423.9063,267.1875 Q421.4063,267.1875 420.0781,265.5469 Q418.7656,263.8906 418.7656,260.7656 Q418.7656,257.6406 420.0781,255.9844 Q421.4063,254.3281 423.9063,254.3281 Q424.6094,254.3281 425.25,254.4844 Q425.9063,254.6406 426.4688,254.9375 L426.4688,257.6563 Q425.8438,257.0781 425.25,256.8125 Q424.6563,256.5313 424.0313,256.5313 Q422.6875,256.5313 422,257.6094 Q421.3125,258.6719 421.3125,260.7656 Q421.3125,262.8594 422,263.9375 Q422.6875,265 424.0313,265 Q424.6563,265 425.25,264.7344 Q425.8438,264.4531 426.4688,263.875 L426.4688,266.5938 Z "/><text fill="#000000" font-family="sans-serif" font-size="12" lengthAdjust="spacingAndGlyphs" textLength="212" x="437.5" y="265.1074">common::model::stylable_element</text><line style="stroke: #A80036; stroke-width: 1.5;" x1="409.5" x2="651.5" y1="276.9531" y2="276.9531"/><line style="stroke: #A80036; stroke-width: 1.5;" x1="409.5" x2="651.5" y1="284.9531" y2="284.9531"/></a><!--MD5=[f862e5f61ea976202ee196a1ef68e0c4]
class C_0000895261582183440230--><a href="classclanguml_1_1common_1_1model_1_1source__location.html" target="_top" title="Base class of all diagram elements that have source location." xlink:actuate="onRequest" xlink:href="classclanguml_1_1common_1_1model_1_1source__location.html" xlink:show="new" xlink:title="Base class of all diagram elements that have source location." xlink:type="simple"><rect fill="#FEFECE" filter="url(#f1ixfquijqz5mk)" height="48" id="C_0000895261582183440230" style="stroke: #A80036; stroke-width: 1.5;" width="238" x="302.5" y="28.9531"/><ellipse cx="317.5" cy="44.9531" fill="#ADD1B2" rx="11" ry="11" style="stroke: #A80036; stroke-width: 1.0;"/><path d="M320.4688,50.5938 Q319.8906,50.8906 319.25,51.0313 Q318.6094,51.1875 317.9063,51.1875 Q315.4063,51.1875 314.0781,49.5469 Q312.7656,47.8906 312.7656,44.7656 Q312.7656,41.6406 314.0781,39.9844 Q315.4063,38.3281 317.9063,38.3281 Q318.6094,38.3281 319.25,38.4844 Q319.9063,38.6406 320.4688,38.9375 L320.4688,41.6563 Q319.8438,41.0781 319.25,40.8125 Q318.6563,40.5313 318.0313,40.5313 Q316.6875,40.5313 316,41.6094 Q315.3125,42.6719 315.3125,44.7656 Q315.3125,46.8594 316,47.9375 Q316.6875,49 318.0313,49 Q318.6563,49 319.25,48.7344 Q319.8438,48.4531 320.4688,47.875 L320.4688,50.5938 Z "/><text fill="#000000" font-family="sans-serif" font-size="12" lengthAdjust="spacingAndGlyphs" textLength="206" x="331.5" y="49.1074">common::model::source_location</text><line style="stroke: #A80036; stroke-width: 1.5;" x1="303.5" x2="539.5" y1="60.9531" y2="60.9531"/><line style="stroke: #A80036; stroke-width: 1.5;" x1="303.5" x2="539.5" y1="68.9531" y2="68.9531"/></a><!--MD5=[c7954e9554acd525dcb4b1b7d8febda3]
class C_0001073500714379115414--><a href="classclanguml_1_1common_1_1model_1_1diagram__element.html" target="_top" title="Base class for standalone diagram elements." xlink:actuate="onRequest" xlink:href="classclanguml_1_1common_1_1model_1_1diagram__element.html" xlink:show="new" xlink:title="Base class for standalone diagram elements." xlink:type="simple"><rect fill="#FEFECE" filter="url(#f1ixfquijqz5mk)" height="48" id="C_0001073500714379115414" style="stroke: #A80036; stroke-width: 1.5;" width="247" x="155" y="136.9531"/><ellipse cx="170" cy="152.9531" fill="#ADD1B2" rx="11" ry="11" style="stroke: #A80036; stroke-width: 1.0;"/><path d="M172.9688,158.5938 Q172.3906,158.8906 171.75,159.0313 Q171.1094,159.1875 170.4063,159.1875 Q167.9063,159.1875 166.5781,157.5469 Q165.2656,155.8906 165.2656,152.7656 Q165.2656,149.6406 166.5781,147.9844 Q167.9063,146.3281 170.4063,146.3281 Q171.1094,146.3281 171.75,146.4844 Q172.4063,146.6406 172.9688,146.9375 L172.9688,149.6563 Q172.3438,149.0781 171.75,148.8125 Q171.1563,148.5313 170.5313,148.5313 Q169.1875,148.5313 168.5,149.6094 Q167.8125,150.6719 167.8125,152.7656 Q167.8125,154.8594 168.5,155.9375 Q169.1875,157 170.5313,157 Q171.1563,157 171.75,156.7344 Q172.3438,156.4531 172.9688,155.875 L172.9688,158.5938 Z "/><text fill="#000000" font-family="sans-serif" font-size="12" lengthAdjust="spacingAndGlyphs" textLength="215" x="184" y="157.1074">common::model::diagram_element</text><line style="stroke: #A80036; stroke-width: 1.5;" x1="156" x2="401" y1="168.9531" y2="168.9531"/><line style="stroke: #A80036; stroke-width: 1.5;" x1="156" x2="401" y1="176.9531" y2="176.9531"/></a><!--MD5=[61ee72164152887ec594509a8c6f7a5a]
class C_0002069520381434407937--><a href="classclanguml_1_1common_1_1model_1_1element.html" target="_top" title="Base class for any element qualified by namespace." xlink:actuate="onRequest" xlink:href="classclanguml_1_1common_1_1model_1_1element.html" xlink:show="new" xlink:title="Base class for any element qualified by namespace." xlink:type="simple"><rect fill="#FEFECE" filter="url(#f1ixfquijqz5mk)" height="48" id="C_0002069520381434407937" style="stroke: #A80036; stroke-width: 1.5;" width="190" x="183.5" y="244.9531"/><ellipse cx="198.5" cy="260.9531" fill="#ADD1B2" rx="11" ry="11" style="stroke: #A80036; stroke-width: 1.0;"/><path d="M201.4688,266.5938 Q200.8906,266.8906 200.25,267.0313 Q199.6094,267.1875 198.9063,267.1875 Q196.4063,267.1875 195.0781,265.5469 Q193.7656,263.8906 193.7656,260.7656 Q193.7656,257.6406 195.0781,255.9844 Q196.4063,254.3281 198.9063,254.3281 Q199.6094,254.3281 200.25,254.4844 Q200.9063,254.6406 201.4688,254.9375 L201.4688,257.6563 Q200.8438,257.0781 200.25,256.8125 Q199.6563,256.5313 199.0313,256.5313 Q197.6875,256.5313 197,257.6094 Q196.3125,258.6719 196.3125,260.7656 Q196.3125,262.8594 197,263.9375 Q197.6875,265 199.0313,265 Q199.6563,265 200.25,264.7344 Q200.8438,264.4531 201.4688,263.875 L201.4688,266.5938 Z "/><text fill="#000000" font-family="sans-serif" font-size="12" lengthAdjust="spacingAndGlyphs" textLength="158" x="212.5" y="265.1074">common::model::element</text><line style="stroke: #A80036; stroke-width: 1.5;" x1="184.5" x2="372.5" y1="276.9531" y2="276.9531"/><line style="stroke: #A80036; stroke-width: 1.5;" x1="184.5" x2="372.5" y1="284.9531" y2="284.9531"/></a><!--MD5=[41fe75f5c358e82f7c3b024ae1be5ac2]
class C_0002143286684830686854--><a href="classclanguml_1_1common_1_1model_1_1package.html" target="_top" title="Diagram element representing namespace or directory package" xlink:actuate="onRequest" xlink:href="classclanguml_1_1common_1_1model_1_1package.html" xlink:show="new" xlink:title="Diagram element representing namespace or directory package" xlink:type="simple"><rect fill="#FEFECE" filter="url(#f1ixfquijqz5mk)" height="48" id="C_0002143286684830686854" style="stroke: #A80036; stroke-width: 1.5;" width="193" x="308" y="352.9531"/><ellipse cx="323" cy="368.9531" fill="#ADD1B2" rx="11" ry="11" style="stroke: #A80036; stroke-width: 1.0;"/><path d="M325.9688,374.5938 Q325.3906,374.8906 324.75,375.0313 Q324.1094,375.1875 323.4063,375.1875 Q320.9063,375.1875 319.5781,373.5469 Q318.2656,371.8906 318.2656,368.7656 Q318.2656,365.6406 319.5781,363.9844 Q320.9063,362.3281 323.4063,362.3281 Q324.1094,362.3281 324.75,362.4844 Q325.4063,362.6406 325.9688,362.9375 L325.9688,365.6563 Q325.3438,365.0781 324.75,364.8125 Q324.1563,364.5313 323.5313,364.5313 Q322.1875,364.5313 321.5,365.6094 Q320.8125,366.6719 320.8125,368.7656 Q320.8125,370.8594 321.5,371.9375 Q322.1875,373 323.5313,373 Q324.1563,373 324.75,372.7344 Q325.3438,372.4531 325.9688,371.875 L325.9688,374.5938 Z "/><text fill="#000000" font-family="sans-serif" font-size="12" lengthAdjust="spacingAndGlyphs" textLength="161" x="337" y="373.1074">common::model::package</text><line style="stroke: #A80036; stroke-width: 1.5;" x1="309" x2="500" y1="384.9531" y2="384.9531"/><line style="stroke: #A80036; stroke-width: 1.5;" x1="309" x2="500" y1="392.9531" y2="392.9531"/></a><!--MD5=[51b77a83e925bfa56ce9003126dec6da]
reverse link C_0001117102382624673118 to C_0001073500714379115414--><path d="M183.61,89.1231 C204.54,104.7431 228.6,122.7031 247.26,136.6331 " fill="none" id="C_0001117102382624673118&lt;-C_0001073500714379115414" style="stroke: #A80036; stroke-width: 1.0;"/><polygon fill="none" points="179.15,94.5231,167.31,76.9531,187.53,83.3031,179.15,94.5231" style="stroke: #A80036; stroke-width: 1.0;"/><!--MD5=[ca2904572ba2305549e4f16921901e5a]
reverse link C_0000895261582183440230 to C_0001073500714379115414--><path d="M374.37,88.8931 C353.22,104.5631 328.84,122.6331 309.96,136.6331 " fill="none" id="C_0000895261582183440230&lt;-C_0001073500714379115414" style="stroke: #A80036; stroke-width: 1.0;"/><polygon fill="none" points="370.24,83.2431,390.47,76.9531,378.57,94.4831,370.24,83.2431" style="stroke: #A80036; stroke-width: 1.0;"/><!--MD5=[4f2a77547d39d73bea822e52b2f0976b]
reverse link C_0001073500714379115414 to C_0002069520381434407937--><path d="M278.5,204.9731 C278.5,218.5331 278.5,232.9931 278.5,244.6331 " fill="none" id="C_0001073500714379115414&lt;-C_0002069520381434407937" style="stroke: #A80036; stroke-width: 1.0;"/><polygon fill="none" points="271.5,204.9531,278.5,184.9531,285.5,204.9531,271.5,204.9531" style="stroke: #A80036; stroke-width: 1.0;"/><!--MD5=[3b5b148458d09c1202603fe4c86398e5]
reverse link C_0002069520381434407937 to C_0002143286684830686854--><path d="M321.42,306.0531 C339.72,321.4531 360.55,338.9831 376.78,352.6331 " fill="none" id="C_0002069520381434407937&lt;-C_0002143286684830686854" style="stroke: #A80036; stroke-width: 1.0;"/><polygon fill="none" points="316.64,311.1831,305.84,292.9531,325.65,300.4731,316.64,311.1831" style="stroke: #A80036; stroke-width: 1.0;"/><!--MD5=[8b57dc45e019868d19d5475e79e2f9cd]
reverse link C_0002077846075979426940 to C_0002143286684830686854--><path d="M487.58,306.0531 C469.28,321.4531 448.45,338.9831 432.22,352.6331 " fill="none" id="C_0002077846075979426940&lt;-C_0002143286684830686854" style="stroke: #A80036; stroke-width: 1.0;"/><polygon fill="none" points="483.35,300.4731,503.16,292.9531,492.36,311.1831,483.35,300.4731" style="stroke: #A80036; stroke-width: 1.0;"/><!--MD5=[00e3fefdd33c9c48218c7226e3b5ea24]
@startuml
title Package diagram class hierarchy
class "common::model::decorated_element" as C_0001117102382624673118
class C_0001117102382624673118 [[classclanguml_1_1common_1_1model_1_1decorated__element.html{Base class for decorated diagram elements}]] {
__
}
class "common::model::stylable_element" as C_0002077846075979426940
class C_0002077846075979426940 [[classclanguml_1_1common_1_1model_1_1stylable__element.html{Diagram elements to which style can be applied.}]] {
__
}
class "common::model::source_location" as C_0000895261582183440230
class C_0000895261582183440230 [[classclanguml_1_1common_1_1model_1_1source__location.html{Base class of all diagram elements that have source location.}]] {
__
}
class "common::model::diagram_element" as C_0001073500714379115414
class C_0001073500714379115414 [[classclanguml_1_1common_1_1model_1_1diagram__element.html{Base class for standalone diagram elements.}]] {
__
}
class "common::model::element" as C_0002069520381434407937
class C_0002069520381434407937 [[classclanguml_1_1common_1_1model_1_1element.html{Base class for any element qualified by namespace.}]] {
__
}
class "common::model::package" as C_0002143286684830686854
class C_0002143286684830686854 [[classclanguml_1_1common_1_1model_1_1package.html{Diagram element representing namespace or directory package}]] {
__
}
C_0001117102382624673118 <|- - C_0001073500714379115414
C_0000895261582183440230 <|- - C_0001073500714379115414
C_0001073500714379115414 <|- - C_0002069520381434407937
C_0002069520381434407937 <|- - C_0002143286684830686854
C_0002077846075979426940 <|- - C_0002143286684830686854

@enduml

PlantUML version 1.2020.02(Sun Mar 01 11:22:07 CET 2020)
(GPL source distribution)
Java Runtime: OpenJDK Runtime Environment
JVM: OpenJDK 64-Bit Server VM
Java Version: 11.0.20.1+1-post-Ubuntu-0ubuntu122.04
Operating System: Linux
Default Encoding: UTF-8
Language: en
Country: US
--></g></svg>