<?xml version="1.0" encoding="UTF-8" standalone="no"?><svg xmlns="http://www.w3.org/2000/svg" xmlns:xlink="http://www.w3.org/1999/xlink" contentScriptType="application/ecmascript" contentStyleType="text/css" height="303px" preserveAspectRatio="none" style="width:692px;height:303px;" version="1.1" viewBox="0 0 692 303" width="692px" zoomAndPan="magnify"><defs><filter height="300%" id="f1rvpnxdp9v4yo" width="300%" x="-1" y="-1"><feGaussianBlur result="blurOut" stdDeviation="2.0"/><feColorMatrix in="blurOut" result="blurOut2" type="matrix" values="0 0 0 0 0 0 0 0 0 0 0 0 0 0 0 0 0 0 .4 0"/><feOffset dx="4.0" dy="4.0" in="blurOut2" result="blurOut3"/><feBlend in="SourceGraphic" in2="blurOut3" mode="normal"/></filter></defs><g><text fill="#000000" font-family="sans-serif" font-size="18" lengthAdjust="spacingAndGlyphs" textLength="291" x="204.5" y="16.708">Source file model class hierarchy</text><!--MD5=[b75d17d3ee67ca210c766132488de4b0]
class C_0001117102382624673118--><a href="classclanguml_1_1common_1_1model_1_1decorated__element.html" target="_top" title="Base class for decorated diagram elements" xlink:actuate="onRequest" xlink:href="classclanguml_1_1common_1_1model_1_1decorated__element.html" xlink:show="new" xlink:title="Base class for decorated diagram elements" xlink:type="simple"><rect fill="#FEFECE" filter="url(#f1rvpnxdp9v4yo)" height="48" id="C_0001117102382624673118" style="stroke: #A80036; stroke-width: 1.5;" width="261" x="6" y="28.9531"/><ellipse cx="21" cy="44.9531" fill="#ADD1B2" rx="11" ry="11" style="stroke: #A80036; stroke-width: 1.0;"/><path d="M23.9688,50.5938 Q23.3906,50.8906 22.75,51.0313 Q22.1094,51.1875 21.4063,51.1875 Q18.9063,51.1875 17.5781,49.5469 Q16.2656,47.8906 16.2656,44.7656 Q16.2656,41.6406 17.5781,39.9844 Q18.9063,38.3281 21.4063,38.3281 Q22.1094,38.3281 22.75,38.4844 Q23.4063,38.6406 23.9688,38.9375 L23.9688,41.6563 Q23.3438,41.0781 22.75,40.8125 Q22.1563,40.5313 21.5313,40.5313 Q20.1875,40.5313 19.5,41.6094 Q18.8125,42.6719 18.8125,44.7656 Q18.8125,46.8594 19.5,47.9375 Q20.1875,49 21.5313,49 Q22.1563,49 22.75,48.7344 Q23.3438,48.4531 23.9688,47.875 L23.9688,50.5938 Z "/><text fill="#000000" font-family="sans-serif" font-size="12" lengthAdjust="spacingAndGlyphs" textLength="229" x="35" y="49.1074">common::model::decorated_element</text><line style="stroke: #A80036; stroke-width: 1.5;" x1="7" x2="266" y1="60.9531" y2="60.9531"/><line style="stroke: #A80036; stroke-width: 1.5;" x1="7" x2="266" y1="68.9531" y2="68.9531"/></a><!--MD5=[39023b0134efb4261990e1927fe4a3ac]
class C_0002077846075979426940--><a href="classclanguml_1_1common_1_1model_1_1stylable__element.html" target="_top" title="Diagram elements to which style can be applied." xlink:actuate="onRequest" xlink:href="classclanguml_1_1common_1_1model_1_1stylable__element.html" xlink:show="new" xlink:title="Diagram elements to which style can be applied." xlink:type="simple"><rect fill="#FEFECE" filter="url(#f1rvpnxdp9v4yo)" height="48" id="C_0002077846075979426940" style="stroke: #A80036; stroke-width: 1.5;" width="244" x="437.5" y="136.9531"/><ellipse cx="452.5" cy="152.9531" fill="#ADD1B2" rx="11" ry="11" style="stroke: #A80036; stroke-width: 1.0;"/><path d="M455.4688,158.5938 Q454.8906,158.8906 454.25,159.0313 Q453.6094,159.1875 452.9063,159.1875 Q450.4063,159.1875 449.0781,157.5469 Q447.7656,155.8906 447.7656,152.7656 Q447.7656,149.6406 449.0781,147.9844 Q450.4063,146.3281 452.9063,146.3281 Q453.6094,146.3281 454.25,146.4844 Q454.9063,146.6406 455.4688,146.9375 L455.4688,149.6563 Q454.8438,149.0781 454.25,148.8125 Q453.6563,148.5313 453.0313,148.5313 Q451.6875,148.5313 451,149.6094 Q450.3125,150.6719 450.3125,152.7656 Q450.3125,154.8594 451,155.9375 Q451.6875,157 453.0313,157 Q453.6563,157 454.25,156.7344 Q454.8438,156.4531 455.4688,155.875 L455.4688,158.5938 Z "/><text fill="#000000" font-family="sans-serif" font-size="12" lengthAdjust="spacingAndGlyphs" textLength="212" x="466.5" y="157.1074">common::model::stylable_element</text><line style="stroke: #A80036; stroke-width: 1.5;" x1="438.5" x2="680.5" y1="168.9531" y2="168.9531"/><line style="stroke: #A80036; stroke-width: 1.5;" x1="438.5" x2="680.5" y1="176.9531" y2="176.9531"/></a><!--MD5=[f862e5f61ea976202ee196a1ef68e0c4]
class C_0000895261582183440230--><a href="classclanguml_1_1common_1_1model_1_1source__location.html" target="_top" title="Base class of all diagram elements that have source location." xlink:actuate="onRequest" xlink:href="classclanguml_1_1common_1_1model_1_1source__location.html" xlink:show="new" xlink:title="Base class of all diagram elements that have source location." xlink:type="simple"><rect fill="#FEFECE" filter="url(#f1rvpnxdp9v4yo)" height="48" id="C_0000895261582183440230" style="stroke: #A80036; stroke-width: 1.5;" width="238" x="302.5" y="28.9531"/><ellipse cx="317.5" cy="44.9531" fill="#ADD1B2" rx="11" ry="11" style="stroke: #A80036; stroke-width: 1.0;"/><path d="M320.4688,50.5938 Q319.8906,50.8906 319.25,51.0313 Q318.6094,51.1875 317.9063,51.1875 Q315.4063,51.1875 314.0781,49.5469 Q312.7656,47.8906 312.7656,44.7656 Q312.7656,41.6406 314.0781,39.9844 Q315.4063,38.3281 317.9063,38.3281 Q318.6094,38.3281 319.25,38.4844 Q319.9063,38.6406 320.4688,38.9375 L320.4688,41.6563 Q319.8438,41.0781 319.25,40.8125 Q318.6563,40.5313 318.0313,40.5313 Q316.6875,40.5313 316,41.6094 Q315.3125,42.6719 315.3125,44.7656 Q315.3125,46.8594 316,47.9375 Q316.6875,49 318.0313,49 Q318.6563,49 319.25,48.7344 Q319.8438,48.4531 320.4688,47.875 L320.4688,50.5938 Z "/><text fill="#000000" font-family="sans-serif" font-size="12" lengthAdjust="spacingAndGlyphs" textLength="206" x="331.5" y="49.1074">common::model::source_location</text><line style="stroke: #A80036; stroke-width: 1.5;" x1="303.5" x2="539.5" y1="60.9531" y2="60.9531"/><line style="stroke: #A80036; stroke-width: 1.5;" x1="303.5" x2="539.5" y1="68.9531" y2="68.9531"/></a><!--MD5=[c7954e9554acd525dcb4b1b7d8febda3]
class C_0001073500714379115414--><a href="classclanguml_1_1common_1_1model_1_1diagram__element.html" target="_top" title="Base class for standalone diagram elements." xlink:actuate="onRequest" xlink:href="classclanguml_1_1common_1_1model_1_1diagram__element.html" xlink:show="new" xlink:title="Base class for standalone diagram elements." xlink:type="simple"><rect fill="#FEFECE" filter="url(#f1rvpnxdp9v4yo)" height="48" id="C_0001073500714379115414" style="stroke: #A80036; stroke-width: 1.5;" width="247" x="155" y="136.9531"/><ellipse cx="170" cy="152.9531" fill="#ADD1B2" rx="11" ry="11" style="stroke: #A80036; stroke-width: 1.0;"/><path d="M172.9688,158.5938 Q172.3906,158.8906 171.75,159.0313 Q171.1094,159.1875 170.4063,159.1875 Q167.9063,159.1875 166.5781,157.5469 Q165.2656,155.8906 165.2656,152.7656 Q165.2656,149.6406 166.5781,147.9844 Q167.9063,146.3281 170.4063,146.3281 Q171.1094,146.3281 171.75,146.4844 Q172.4063,146.6406 172.9688,146.9375 L172.9688,149.6563 Q172.3438,149.0781 171.75,148.8125 Q171.1563,148.5313 170.5313,148.5313 Q169.1875,148.5313 168.5,149.6094 Q167.8125,150.6719 167.8125,152.7656 Q167.8125,154.8594 168.5,155.9375 Q169.1875,157 170.5313,157 Q171.1563,157 171.75,156.7344 Q172.3438,156.4531 172.9688,155.875 L172.9688,158.5938 Z "/><text fill="#000000" font-family="sans-serif" font-size="12" lengthAdjust="spacingAndGlyphs" textLength="215" x="184" y="157.1074">common::model::diagram_element</text><line style="stroke: #A80036; stroke-width: 1.5;" x1="156" x2="401" y1="168.9531" y2="168.9531"/><line style="stroke: #A80036; stroke-width: 1.5;" x1="156" x2="401" y1="176.9531" y2="176.9531"/></a><!--MD5=[525da812764c4fe64f23950e964f77cd]
class C_0000785714713072053129--><a href="classclanguml_1_1common_1_1model_1_1source__file.html" target="_top" title="Diagram element representing some file or directory." xlink:actuate="onRequest" xlink:href="classclanguml_1_1common_1_1model_1_1source__file.html" xlink:show="new" xlink:title="Diagram element representing some file or directory." xlink:type="simple"><rect fill="#FEFECE" filter="url(#f1rvpnxdp9v4yo)" height="48" id="C_0000785714713072053129" style="stroke: #A80036; stroke-width: 1.5;" width="206" x="315.5" y="244.9531"/><ellipse cx="330.5" cy="260.9531" fill="#ADD1B2" rx="11" ry="11" style="stroke: #A80036; stroke-width: 1.0;"/><path d="M333.4688,266.5938 Q332.8906,266.8906 332.25,267.0313 Q331.6094,267.1875 330.9063,267.1875 Q328.4063,267.1875 327.0781,265.5469 Q325.7656,263.8906 325.7656,260.7656 Q325.7656,257.6406 327.0781,255.9844 Q328.4063,254.3281 330.9063,254.3281 Q331.6094,254.3281 332.25,254.4844 Q332.9063,254.6406 333.4688,254.9375 L333.4688,257.6563 Q332.8438,257.0781 332.25,256.8125 Q331.6563,256.5313 331.0313,256.5313 Q329.6875,256.5313 329,257.6094 Q328.3125,258.6719 328.3125,260.7656 Q328.3125,262.8594 329,263.9375 Q329.6875,265 331.0313,265 Q331.6563,265 332.25,264.7344 Q332.8438,264.4531 333.4688,263.875 L333.4688,266.5938 Z "/><text fill="#000000" font-family="sans-serif" font-size="12" lengthAdjust="spacingAndGlyphs" textLength="174" x="344.5" y="265.1074">common::model::source_file</text><line style="stroke: #A80036; stroke-width: 1.5;" x1="316.5" x2="520.5" y1="276.9531" y2="276.9531"/><line style="stroke: #A80036; stroke-width: 1.5;" x1="316.5" x2="520.5" y1="284.9531" y2="284.9531"/></a><!--MD5=[51b77a83e925bfa56ce9003126dec6da]
reverse link C_0001117102382624673118 to C_0001073500714379115414--><path d="M183.61,89.1231 C204.54,104.7431 228.6,122.7031 247.26,136.6331 " fill="none" id="C_0001117102382624673118&lt;-C_0001073500714379115414" style="stroke: #A80036; stroke-width: 1.0;"/><polygon fill="none" points="179.15,94.5231,167.31,76.9531,187.53,83.3031,179.15,94.5231" style="stroke: #A80036; stroke-width: 1.0;"/><!--MD5=[ca2904572ba2305549e4f16921901e5a]
reverse link C_0000895261582183440230 to C_0001073500714379115414--><path d="M374.37,88.8931 C353.22,104.5631 328.84,122.6331 309.96,136.6331 " fill="none" id="C_0000895261582183440230&lt;-C_0001073500714379115414" style="stroke: #A80036; stroke-width: 1.0;"/><polygon fill="none" points="370.24,83.2431,390.47,76.9531,378.57,94.4831,370.24,83.2431" style="stroke: #A80036; stroke-width: 1.0;"/><!--MD5=[5ecb1d83165a712adbd5650cef34b86b]
reverse link C_0001073500714379115414 to C_0000785714713072053129--><path d="M324.95,197.1231 C345.58,212.7431 369.3,230.7031 387.7,244.6331 " fill="none" id="C_0001073500714379115414&lt;-C_0000785714713072053129" style="stroke: #A80036; stroke-width: 1.0;"/><polygon fill="none" points="320.6,202.6031,308.88,184.9531,329.05,191.4431,320.6,202.6031" style="stroke: #A80036; stroke-width: 1.0;"/><!--MD5=[4f221eabf3421229e7e20303bd40a63c]
reverse link C_0002077846075979426940 to C_0000785714713072053129--><path d="M512.72,197.1231 C491.94,212.7431 468.05,230.7031 449.52,244.6331 " fill="none" id="C_0002077846075979426940&lt;-C_0000785714713072053129" style="stroke: #A80036; stroke-width: 1.0;"/><polygon fill="none" points="508.71,191.3731,528.91,184.9531,517.13,202.5631,508.71,191.3731" style="stroke: #A80036; stroke-width: 1.0;"/><!--MD5=[d93ba8b396befdad9d76db8cdb838916]
@startuml
title Source file model class hierarchy
class "common::model::decorated_element" as C_0001117102382624673118
class C_0001117102382624673118 [[classclanguml_1_1common_1_1model_1_1decorated__element.html{Base class for decorated diagram elements}]] {
__
}
class "common::model::stylable_element" as C_0002077846075979426940
class C_0002077846075979426940 [[classclanguml_1_1common_1_1model_1_1stylable__element.html{Diagram elements to which style can be applied.}]] {
__
}
class "common::model::source_location" as C_0000895261582183440230
class C_0000895261582183440230 [[classclanguml_1_1common_1_1model_1_1source__location.html{Base class of all diagram elements that have source location.}]] {
__
}
class "common::model::diagram_element" as C_0001073500714379115414
class C_0001073500714379115414 [[classclanguml_1_1common_1_1model_1_1diagram__element.html{Base class for standalone diagram elements.}]] {
__
}
class "common::model::source_file" as C_0000785714713072053129
class C_0000785714713072053129 [[classclanguml_1_1common_1_1model_1_1source__file.html{Diagram element representing some file or directory.}]] {
__
}
C_0001117102382624673118 <|- - C_0001073500714379115414
C_0000895261582183440230 <|- - C_0001073500714379115414
C_0001073500714379115414 <|- - C_0000785714713072053129
C_0002077846075979426940 <|- - C_0000785714713072053129

@enduml

PlantUML version 1.2020.02(Sun Mar 01 11:22:07 CET 2020)
(GPL source distribution)
Java Runtime: OpenJDK Runtime Environment
JVM: OpenJDK 64-Bit Server VM
Java Version: 11.0.20.1+1-post-Ubuntu-0ubuntu122.04
Operating System: Linux
Default Encoding: UTF-8
Language: en
Country: US
--></g></svg>