<?xml version="1.0" encoding="UTF-8" standalone="no"?><svg xmlns="http://www.w3.org/2000/svg" xmlns:xlink="http://www.w3.org/1999/xlink" contentScriptType="application/ecmascript" contentStyleType="text/css" height="796px" preserveAspectRatio="none" style="width:1270px;height:796px;" version="1.1" viewBox="0 0 1270 796" width="1270px" zoomAndPan="magnify"><defs><filter height="300%" id="f1tr5y5fwc5lye" width="300%" x="-1" y="-1"><feGaussianBlur result="blurOut" stdDeviation="2.0"/><feColorMatrix in="blurOut" result="blurOut2" type="matrix" values="0 0 0 0 0 0 0 0 0 0 0 0 0 0 0 0 0 0 .4 0"/><feOffset dx="4.0" dy="4.0" in="blurOut2" result="blurOut3"/><feBlend in="SourceGraphic" in2="blurOut3" mode="normal"/></filter></defs><g><text fill="#000000" font-family="sans-serif" font-size="18" lengthAdjust="spacingAndGlyphs" textLength="333" x="474.5" y="16.708">Source location model class hierarchy</text><!--MD5=[7ba9c127878a642fef3f451151dda753]
cluster C_0000316605034920222648--><polygon fill="#FFFFFF" filter="url(#f1tr5y5fwc5lye)" points="387,44.9531,460,44.9531,467,67.25,685,67.25,685,568.9531,387,568.9531,387,44.9531" style="stroke: #000000; stroke-width: 1.5;"/><line style="stroke: #000000; stroke-width: 1.5;" x1="387" x2="467" y1="67.25" y2="67.25"/><text fill="#000000" font-family="sans-serif" font-size="14" font-weight="bold" lengthAdjust="spacingAndGlyphs" textLength="67" x="391" y="59.9482">common</text><!--MD5=[f7110622f5be760311cd0491b75bf8f9]
cluster C_0000083721806430512831--><polygon fill="#FFFFFF" filter="url(#f1tr5y5fwc5lye)" points="411,87.9531,465,87.9531,472,110.25,661,110.25,661,544.9531,411,544.9531,411,87.9531" style="stroke: #000000; stroke-width: 1.5;"/><line style="stroke: #000000; stroke-width: 1.5;" x1="411" x2="472" y1="110.25" y2="110.25"/><text fill="#000000" font-family="sans-serif" font-size="14" font-weight="bold" lengthAdjust="spacingAndGlyphs" textLength="48" x="415" y="102.9482">model</text><!--MD5=[09e992b259734a9820adb2642bf347d2]
cluster C_0002240167036201725606--><polygon fill="#FFFFFF" filter="url(#f1tr5y5fwc5lye)" points="709,402.9531,825,402.9531,832,425.25,1248,425.25,1248,676.9531,709,676.9531,709,402.9531" style="stroke: #000000; stroke-width: 1.5;"/><line style="stroke: #000000; stroke-width: 1.5;" x1="709" x2="832" y1="425.25" y2="425.25"/><text fill="#000000" font-family="sans-serif" font-size="14" font-weight="bold" lengthAdjust="spacingAndGlyphs" textLength="110" x="713" y="417.9482">class_diagram</text><!--MD5=[5d123d1ba3dda692cf099252127394e7]
cluster C_0000897124234964432620--><polygon fill="#FFFFFF" filter="url(#f1tr5y5fwc5lye)" points="733,445.9531,787,445.9531,794,468.25,1224,468.25,1224,652.9531,733,652.9531,733,445.9531" style="stroke: #000000; stroke-width: 1.5;"/><line style="stroke: #000000; stroke-width: 1.5;" x1="733" x2="794" y1="468.25" y2="468.25"/><text fill="#000000" font-family="sans-serif" font-size="14" font-weight="bold" lengthAdjust="spacingAndGlyphs" textLength="48" x="737" y="460.9482">model</text><!--MD5=[2319765f5fef5e41f5b55adb85cd73ea]
cluster C_0001521862840957629236--><polygon fill="#FFFFFF" filter="url(#f1tr5y5fwc5lye)" points="22,402.9531,176,402.9531,183,425.25,363,425.25,363,784.9531,22,784.9531,22,402.9531" style="stroke: #000000; stroke-width: 1.5;"/><line style="stroke: #000000; stroke-width: 1.5;" x1="22" x2="183" y1="425.25" y2="425.25"/><text fill="#000000" font-family="sans-serif" font-size="14" font-weight="bold" lengthAdjust="spacingAndGlyphs" textLength="148" x="26" y="417.9482">sequence_diagram</text><!--MD5=[aff6d1ed1f9fc56ba8376cf20ecae299]
cluster C_0002206969880830639264--><polygon fill="#FFFFFF" filter="url(#f1tr5y5fwc5lye)" points="46,445.9531,100,445.9531,107,468.25,339,468.25,339,760.9531,46,760.9531,46,445.9531" style="stroke: #000000; stroke-width: 1.5;"/><line style="stroke: #000000; stroke-width: 1.5;" x1="46" x2="107" y1="468.25" y2="468.25"/><text fill="#000000" font-family="sans-serif" font-size="14" font-weight="bold" lengthAdjust="spacingAndGlyphs" textLength="48" x="50" y="460.9482">model</text><!--MD5=[f862e5f61ea976202ee196a1ef68e0c4]
class C_0000895261582183440230--><a href="classclanguml_1_1common_1_1model_1_1source__location.html" target="_top" title="Base class of all diagram elements that have source location." xlink:actuate="onRequest" xlink:href="classclanguml_1_1common_1_1model_1_1source__location.html" xlink:show="new" xlink:title="Base class of all diagram elements that have source location." xlink:type="simple"><rect fill="#FEFECE" filter="url(#f1tr5y5fwc5lye)" height="48" id="C_0000895261582183440230" style="stroke: #A80036; stroke-width: 1.5;" width="131" x="491.5" y="122.9531"/><ellipse cx="506.5" cy="138.9531" fill="#ADD1B2" rx="11" ry="11" style="stroke: #A80036; stroke-width: 1.0;"/><path d="M509.4688,144.5938 Q508.8906,144.8906 508.25,145.0313 Q507.6094,145.1875 506.9063,145.1875 Q504.4063,145.1875 503.0781,143.5469 Q501.7656,141.8906 501.7656,138.7656 Q501.7656,135.6406 503.0781,133.9844 Q504.4063,132.3281 506.9063,132.3281 Q507.6094,132.3281 508.25,132.4844 Q508.9063,132.6406 509.4688,132.9375 L509.4688,135.6563 Q508.8438,135.0781 508.25,134.8125 Q507.6563,134.5313 507.0313,134.5313 Q505.6875,134.5313 505,135.6094 Q504.3125,136.6719 504.3125,138.7656 Q504.3125,140.8594 505,141.9375 Q505.6875,143 507.0313,143 Q507.6563,143 508.25,142.7344 Q508.8438,142.4531 509.4688,141.875 L509.4688,144.5938 Z "/><text fill="#000000" font-family="sans-serif" font-size="12" lengthAdjust="spacingAndGlyphs" textLength="99" x="520.5" y="143.1074">source_location</text><line style="stroke: #A80036; stroke-width: 1.5;" x1="492.5" x2="621.5" y1="154.9531" y2="154.9531"/><line style="stroke: #A80036; stroke-width: 1.5;" x1="492.5" x2="621.5" y1="162.9531" y2="162.9531"/></a><!--MD5=[c7954e9554acd525dcb4b1b7d8febda3]
class C_0001073500714379115414--><a href="classclanguml_1_1common_1_1model_1_1diagram__element.html" target="_top" title="Base class for standalone diagram elements." xlink:actuate="onRequest" xlink:href="classclanguml_1_1common_1_1model_1_1diagram__element.html" xlink:show="new" xlink:title="Base class for standalone diagram elements." xlink:type="simple"><rect fill="#FEFECE" filter="url(#f1tr5y5fwc5lye)" height="48" id="C_0001073500714379115414" style="stroke: #A80036; stroke-width: 1.5;" width="140" x="466" y="230.9531"/><ellipse cx="481" cy="246.9531" fill="#ADD1B2" rx="11" ry="11" style="stroke: #A80036; stroke-width: 1.0;"/><path d="M483.9688,252.5938 Q483.3906,252.8906 482.75,253.0313 Q482.1094,253.1875 481.4063,253.1875 Q478.9063,253.1875 477.5781,251.5469 Q476.2656,249.8906 476.2656,246.7656 Q476.2656,243.6406 477.5781,241.9844 Q478.9063,240.3281 481.4063,240.3281 Q482.1094,240.3281 482.75,240.4844 Q483.4063,240.6406 483.9688,240.9375 L483.9688,243.6563 Q483.3438,243.0781 482.75,242.8125 Q482.1563,242.5313 481.5313,242.5313 Q480.1875,242.5313 479.5,243.6094 Q478.8125,244.6719 478.8125,246.7656 Q478.8125,248.8594 479.5,249.9375 Q480.1875,251 481.5313,251 Q482.1563,251 482.75,250.7344 Q483.3438,250.4531 483.9688,249.875 L483.9688,252.5938 Z "/><text fill="#000000" font-family="sans-serif" font-size="12" lengthAdjust="spacingAndGlyphs" textLength="108" x="495" y="251.1074">diagram_element</text><line style="stroke: #A80036; stroke-width: 1.5;" x1="467" x2="605" y1="262.9531" y2="262.9531"/><line style="stroke: #A80036; stroke-width: 1.5;" x1="467" x2="605" y1="270.9531" y2="270.9531"/></a><!--MD5=[61ee72164152887ec594509a8c6f7a5a]
class C_0002069520381434407937--><a href="classclanguml_1_1common_1_1model_1_1element.html" target="_top" title="Base class for any element qualified by namespace." xlink:actuate="onRequest" xlink:href="classclanguml_1_1common_1_1model_1_1element.html" xlink:show="new" xlink:title="Base class for any element qualified by namespace." xlink:type="simple"><rect fill="#FEFECE" filter="url(#f1tr5y5fwc5lye)" height="48" id="C_0002069520381434407937" style="stroke: #A80036; stroke-width: 1.5;" width="83" x="427.5" y="338.9531"/><ellipse cx="442.5" cy="354.9531" fill="#ADD1B2" rx="11" ry="11" style="stroke: #A80036; stroke-width: 1.0;"/><path d="M445.4688,360.5938 Q444.8906,360.8906 444.25,361.0313 Q443.6094,361.1875 442.9063,361.1875 Q440.4063,361.1875 439.0781,359.5469 Q437.7656,357.8906 437.7656,354.7656 Q437.7656,351.6406 439.0781,349.9844 Q440.4063,348.3281 442.9063,348.3281 Q443.6094,348.3281 444.25,348.4844 Q444.9063,348.6406 445.4688,348.9375 L445.4688,351.6563 Q444.8438,351.0781 444.25,350.8125 Q443.6563,350.5313 443.0313,350.5313 Q441.6875,350.5313 441,351.6094 Q440.3125,352.6719 440.3125,354.7656 Q440.3125,356.8594 441,357.9375 Q441.6875,359 443.0313,359 Q443.6563,359 444.25,358.7344 Q444.8438,358.4531 445.4688,357.875 L445.4688,360.5938 Z "/><text fill="#000000" font-family="sans-serif" font-size="12" lengthAdjust="spacingAndGlyphs" textLength="51" x="456.5" y="359.1074">element</text><line style="stroke: #A80036; stroke-width: 1.5;" x1="428.5" x2="509.5" y1="370.9531" y2="370.9531"/><line style="stroke: #A80036; stroke-width: 1.5;" x1="428.5" x2="509.5" y1="378.9531" y2="378.9531"/></a><!--MD5=[525da812764c4fe64f23950e964f77cd]
class C_0000785714713072053129--><a href="classclanguml_1_1common_1_1model_1_1source__file.html" target="_top" title="Diagram element representing some file or directory." xlink:actuate="onRequest" xlink:href="classclanguml_1_1common_1_1model_1_1source__file.html" xlink:show="new" xlink:title="Diagram element representing some file or directory." xlink:type="simple"><rect fill="#FEFECE" filter="url(#f1tr5y5fwc5lye)" height="48" id="C_0000785714713072053129" style="stroke: #A80036; stroke-width: 1.5;" width="99" x="545.5" y="338.9531"/><ellipse cx="560.5" cy="354.9531" fill="#ADD1B2" rx="11" ry="11" style="stroke: #A80036; stroke-width: 1.0;"/><path d="M563.4688,360.5938 Q562.8906,360.8906 562.25,361.0313 Q561.6094,361.1875 560.9063,361.1875 Q558.4063,361.1875 557.0781,359.5469 Q555.7656,357.8906 555.7656,354.7656 Q555.7656,351.6406 557.0781,349.9844 Q558.4063,348.3281 560.9063,348.3281 Q561.6094,348.3281 562.25,348.4844 Q562.9063,348.6406 563.4688,348.9375 L563.4688,351.6563 Q562.8438,351.0781 562.25,350.8125 Q561.6563,350.5313 561.0313,350.5313 Q559.6875,350.5313 559,351.6094 Q558.3125,352.6719 558.3125,354.7656 Q558.3125,356.8594 559,357.9375 Q559.6875,359 561.0313,359 Q561.6563,359 562.25,358.7344 Q562.8438,358.4531 563.4688,357.875 L563.4688,360.5938 Z "/><text fill="#000000" font-family="sans-serif" font-size="12" lengthAdjust="spacingAndGlyphs" textLength="67" x="574.5" y="359.1074">source_file</text><line style="stroke: #A80036; stroke-width: 1.5;" x1="546.5" x2="643.5" y1="370.9531" y2="370.9531"/><line style="stroke: #A80036; stroke-width: 1.5;" x1="546.5" x2="643.5" y1="378.9531" y2="378.9531"/></a><!--MD5=[41fe75f5c358e82f7c3b024ae1be5ac2]
class C_0002143286684830686854--><a href="classclanguml_1_1common_1_1model_1_1package.html" target="_top" title="Diagram element representing namespace or directory package" xlink:actuate="onRequest" xlink:href="classclanguml_1_1common_1_1model_1_1package.html" xlink:show="new" xlink:title="Diagram element representing namespace or directory package" xlink:type="simple"><rect fill="#FEFECE" filter="url(#f1tr5y5fwc5lye)" height="48" id="C_0002143286684830686854" style="stroke: #A80036; stroke-width: 1.5;" width="86" x="427" y="480.9531"/><ellipse cx="442" cy="496.9531" fill="#ADD1B2" rx="11" ry="11" style="stroke: #A80036; stroke-width: 1.0;"/><path d="M444.9688,502.5938 Q444.3906,502.8906 443.75,503.0313 Q443.1094,503.1875 442.4063,503.1875 Q439.9063,503.1875 438.5781,501.5469 Q437.2656,499.8906 437.2656,496.7656 Q437.2656,493.6406 438.5781,491.9844 Q439.9063,490.3281 442.4063,490.3281 Q443.1094,490.3281 443.75,490.4844 Q444.4063,490.6406 444.9688,490.9375 L444.9688,493.6563 Q444.3438,493.0781 443.75,492.8125 Q443.1563,492.5313 442.5313,492.5313 Q441.1875,492.5313 440.5,493.6094 Q439.8125,494.6719 439.8125,496.7656 Q439.8125,498.8594 440.5,499.9375 Q441.1875,501 442.5313,501 Q443.1563,501 443.75,500.7344 Q444.3438,500.4531 444.9688,499.875 L444.9688,502.5938 Z "/><text fill="#000000" font-family="sans-serif" font-size="12" lengthAdjust="spacingAndGlyphs" textLength="54" x="456" y="501.1074">package</text><line style="stroke: #A80036; stroke-width: 1.5;" x1="428" x2="512" y1="512.9531" y2="512.9531"/><line style="stroke: #A80036; stroke-width: 1.5;" x1="428" x2="512" y1="520.9531" y2="520.9531"/></a><!--MD5=[b486570858fa145169115e7c774ba114]
class C_0000605866861866358037--><a href="classclanguml_1_1class__diagram_1_1model_1_1class__element.html" target="_top" title="Base class for class elements (e.g. member or method)." xlink:actuate="onRequest" xlink:href="classclanguml_1_1class__diagram_1_1model_1_1class__element.html" xlink:show="new" xlink:title="Base class for class elements (e.g. member or method)." xlink:type="simple"><rect fill="#FEFECE" filter="url(#f1tr5y5fwc5lye)" height="48" id="C_0000605866861866358037" style="stroke: #A80036; stroke-width: 1.5;" width="121" x="1086.5" y="480.9531"/><ellipse cx="1101.5" cy="496.9531" fill="#ADD1B2" rx="11" ry="11" style="stroke: #A80036; stroke-width: 1.0;"/><path d="M1104.4688,502.5938 Q1103.8906,502.8906 1103.25,503.0313 Q1102.6094,503.1875 1101.9063,503.1875 Q1099.4063,503.1875 1098.0781,501.5469 Q1096.7656,499.8906 1096.7656,496.7656 Q1096.7656,493.6406 1098.0781,491.9844 Q1099.4063,490.3281 1101.9063,490.3281 Q1102.6094,490.3281 1103.25,490.4844 Q1103.9063,490.6406 1104.4688,490.9375 L1104.4688,493.6563 Q1103.8438,493.0781 1103.25,492.8125 Q1102.6563,492.5313 1102.0313,492.5313 Q1100.6875,492.5313 1100,493.6094 Q1099.3125,494.6719 1099.3125,496.7656 Q1099.3125,498.8594 1100,499.9375 Q1100.6875,501 1102.0313,501 Q1102.6563,501 1103.25,500.7344 Q1103.8438,500.4531 1104.4688,499.875 L1104.4688,502.5938 Z "/><text fill="#000000" font-family="sans-serif" font-size="12" lengthAdjust="spacingAndGlyphs" textLength="89" x="1115.5" y="501.1074">class_element</text><line style="stroke: #A80036; stroke-width: 1.5;" x1="1087.5" x2="1206.5" y1="512.9531" y2="512.9531"/><line style="stroke: #A80036; stroke-width: 1.5;" x1="1087.5" x2="1206.5" y1="520.9531" y2="520.9531"/></a><!--MD5=[a2b7048e31aebc0ffeb4eb6e2a1be8d2]
class C_0001796282762108527255--><a href="classclanguml_1_1class__diagram_1_1model_1_1class__member.html" target="_top" title="Class member model." xlink:actuate="onRequest" xlink:href="classclanguml_1_1class__diagram_1_1model_1_1class__member.html" xlink:show="new" xlink:title="Class member model." xlink:type="simple"><rect fill="#FEFECE" filter="url(#f1tr5y5fwc5lye)" height="48" id="C_0001796282762108527255" style="stroke: #A80036; stroke-width: 1.5;" width="121" x="932.5" y="588.9531"/><ellipse cx="947.5" cy="604.9531" fill="#ADD1B2" rx="11" ry="11" style="stroke: #A80036; stroke-width: 1.0;"/><path d="M950.4688,610.5938 Q949.8906,610.8906 949.25,611.0313 Q948.6094,611.1875 947.9063,611.1875 Q945.4063,611.1875 944.0781,609.5469 Q942.7656,607.8906 942.7656,604.7656 Q942.7656,601.6406 944.0781,599.9844 Q945.4063,598.3281 947.9063,598.3281 Q948.6094,598.3281 949.25,598.4844 Q949.9063,598.6406 950.4688,598.9375 L950.4688,601.6563 Q949.8438,601.0781 949.25,600.8125 Q948.6563,600.5313 948.0313,600.5313 Q946.6875,600.5313 946,601.6094 Q945.3125,602.6719 945.3125,604.7656 Q945.3125,606.8594 946,607.9375 Q946.6875,609 948.0313,609 Q948.6563,609 949.25,608.7344 Q949.8438,608.4531 950.4688,607.875 L950.4688,610.5938 Z "/><text fill="#000000" font-family="sans-serif" font-size="12" lengthAdjust="spacingAndGlyphs" textLength="89" x="961.5" y="609.1074">class_member</text><line style="stroke: #A80036; stroke-width: 1.5;" x1="933.5" x2="1052.5" y1="620.9531" y2="620.9531"/><line style="stroke: #A80036; stroke-width: 1.5;" x1="933.5" x2="1052.5" y1="628.9531" y2="628.9531"/></a><!--MD5=[3fbd1476055f798f732379619b702fab]
class C_0000204145716468348671--><a href="classclanguml_1_1class__diagram_1_1model_1_1class__method.html" target="_top" title="Class method model." xlink:actuate="onRequest" xlink:href="classclanguml_1_1class__diagram_1_1model_1_1class__method.html" xlink:show="new" xlink:title="Class method model." xlink:type="simple"><rect fill="#FEFECE" filter="url(#f1tr5y5fwc5lye)" height="48" id="C_0000204145716468348671" style="stroke: #A80036; stroke-width: 1.5;" width="118" x="1089" y="588.9531"/><ellipse cx="1104" cy="604.9531" fill="#ADD1B2" rx="11" ry="11" style="stroke: #A80036; stroke-width: 1.0;"/><path d="M1106.9688,610.5938 Q1106.3906,610.8906 1105.75,611.0313 Q1105.1094,611.1875 1104.4063,611.1875 Q1101.9063,611.1875 1100.5781,609.5469 Q1099.2656,607.8906 1099.2656,604.7656 Q1099.2656,601.6406 1100.5781,599.9844 Q1101.9063,598.3281 1104.4063,598.3281 Q1105.1094,598.3281 1105.75,598.4844 Q1106.4063,598.6406 1106.9688,598.9375 L1106.9688,601.6563 Q1106.3438,601.0781 1105.75,600.8125 Q1105.1563,600.5313 1104.5313,600.5313 Q1103.1875,600.5313 1102.5,601.6094 Q1101.8125,602.6719 1101.8125,604.7656 Q1101.8125,606.8594 1102.5,607.9375 Q1103.1875,609 1104.5313,609 Q1105.1563,609 1105.75,608.7344 Q1106.3438,608.4531 1106.9688,607.875 L1106.9688,610.5938 Z "/><text fill="#000000" font-family="sans-serif" font-size="12" lengthAdjust="spacingAndGlyphs" textLength="86" x="1118" y="609.1074">class_method</text><line style="stroke: #A80036; stroke-width: 1.5;" x1="1090" x2="1206" y1="620.9531" y2="620.9531"/><line style="stroke: #A80036; stroke-width: 1.5;" x1="1090" x2="1206" y1="628.9531" y2="628.9531"/></a><!--MD5=[ae47341ca1a22ddcd7d0b4ea2daf1996]
class C_0001292034357466653182--><a href="classclanguml_1_1class__diagram_1_1model_1_1class__.html" target="_top" title="Diagram element representing a class or class template." xlink:actuate="onRequest" xlink:href="classclanguml_1_1class__diagram_1_1model_1_1class__.html" xlink:show="new" xlink:title="Diagram element representing a class or class template." xlink:type="simple"><rect fill="#FEFECE" filter="url(#f1tr5y5fwc5lye)" height="48" id="C_0001292034357466653182" style="stroke: #A80036; stroke-width: 1.5;" width="70" x="981" y="480.9531"/><ellipse cx="996" cy="496.9531" fill="#ADD1B2" rx="11" ry="11" style="stroke: #A80036; stroke-width: 1.0;"/><path d="M998.9688,502.5938 Q998.3906,502.8906 997.75,503.0313 Q997.1094,503.1875 996.4063,503.1875 Q993.9063,503.1875 992.5781,501.5469 Q991.2656,499.8906 991.2656,496.7656 Q991.2656,493.6406 992.5781,491.9844 Q993.9063,490.3281 996.4063,490.3281 Q997.1094,490.3281 997.75,490.4844 Q998.4063,490.6406 998.9688,490.9375 L998.9688,493.6563 Q998.3438,493.0781 997.75,492.8125 Q997.1563,492.5313 996.5313,492.5313 Q995.1875,492.5313 994.5,493.6094 Q993.8125,494.6719 993.8125,496.7656 Q993.8125,498.8594 994.5,499.9375 Q995.1875,501 996.5313,501 Q997.1563,501 997.75,500.7344 Q998.3438,500.4531 998.9688,499.875 L998.9688,502.5938 Z "/><text fill="#000000" font-family="sans-serif" font-size="12" lengthAdjust="spacingAndGlyphs" textLength="38" x="1010" y="501.1074">class_</text><line style="stroke: #A80036; stroke-width: 1.5;" x1="982" x2="1050" y1="512.9531" y2="512.9531"/><line style="stroke: #A80036; stroke-width: 1.5;" x1="982" x2="1050" y1="520.9531" y2="520.9531"/></a><!--MD5=[ad7c1a05bec632e2a3018185b58507d2]
class C_0000724392977093650506--><a href="classclanguml_1_1class__diagram_1_1model_1_1enum__.html" target="_top" title="enum_" xlink:actuate="onRequest" xlink:href="classclanguml_1_1class__diagram_1_1model_1_1enum__.html" xlink:show="new" xlink:title="enum_" xlink:type="simple"><rect fill="#FEFECE" filter="url(#f1tr5y5fwc5lye)" height="48" id="C_0000724392977093650506" style="stroke: #A80036; stroke-width: 1.5;" width="73" x="872.5" y="480.9531"/><ellipse cx="887.5" cy="496.9531" fill="#ADD1B2" rx="11" ry="11" style="stroke: #A80036; stroke-width: 1.0;"/><path d="M890.4688,502.5938 Q889.8906,502.8906 889.25,503.0313 Q888.6094,503.1875 887.9063,503.1875 Q885.4063,503.1875 884.0781,501.5469 Q882.7656,499.8906 882.7656,496.7656 Q882.7656,493.6406 884.0781,491.9844 Q885.4063,490.3281 887.9063,490.3281 Q888.6094,490.3281 889.25,490.4844 Q889.9063,490.6406 890.4688,490.9375 L890.4688,493.6563 Q889.8438,493.0781 889.25,492.8125 Q888.6563,492.5313 888.0313,492.5313 Q886.6875,492.5313 886,493.6094 Q885.3125,494.6719 885.3125,496.7656 Q885.3125,498.8594 886,499.9375 Q886.6875,501 888.0313,501 Q888.6563,501 889.25,500.7344 Q889.8438,500.4531 890.4688,499.875 L890.4688,502.5938 Z "/><text fill="#000000" font-family="sans-serif" font-size="12" lengthAdjust="spacingAndGlyphs" textLength="41" x="901.5" y="501.1074">enum_</text><line style="stroke: #A80036; stroke-width: 1.5;" x1="873.5" x2="944.5" y1="512.9531" y2="512.9531"/><line style="stroke: #A80036; stroke-width: 1.5;" x1="873.5" x2="944.5" y1="520.9531" y2="520.9531"/></a><!--MD5=[dd3d40541e24383f89990969973b4760]
class C_0001374849051752224500--><a href="classclanguml_1_1class__diagram_1_1model_1_1concept__.html" target="_top" title="Model of C++ concept." xlink:actuate="onRequest" xlink:href="classclanguml_1_1class__diagram_1_1model_1_1concept__.html" xlink:show="new" xlink:title="Model of C++ concept." xlink:type="simple"><rect fill="#FEFECE" filter="url(#f1tr5y5fwc5lye)" height="48" id="C_0001374849051752224500" style="stroke: #A80036; stroke-width: 1.5;" width="89" x="748.5" y="480.9531"/><ellipse cx="763.5" cy="496.9531" fill="#ADD1B2" rx="11" ry="11" style="stroke: #A80036; stroke-width: 1.0;"/><path d="M766.4688,502.5938 Q765.8906,502.8906 765.25,503.0313 Q764.6094,503.1875 763.9063,503.1875 Q761.4063,503.1875 760.0781,501.5469 Q758.7656,499.8906 758.7656,496.7656 Q758.7656,493.6406 760.0781,491.9844 Q761.4063,490.3281 763.9063,490.3281 Q764.6094,490.3281 765.25,490.4844 Q765.9063,490.6406 766.4688,490.9375 L766.4688,493.6563 Q765.8438,493.0781 765.25,492.8125 Q764.6563,492.5313 764.0313,492.5313 Q762.6875,492.5313 762,493.6094 Q761.3125,494.6719 761.3125,496.7656 Q761.3125,498.8594 762,499.9375 Q762.6875,501 764.0313,501 Q764.6563,501 765.25,500.7344 Q765.8438,500.4531 766.4688,499.875 L766.4688,502.5938 Z "/><text fill="#000000" font-family="sans-serif" font-size="12" lengthAdjust="spacingAndGlyphs" textLength="57" x="777.5" y="501.1074">concept_</text><line style="stroke: #A80036; stroke-width: 1.5;" x1="749.5" x2="836.5" y1="512.9531" y2="512.9531"/><line style="stroke: #A80036; stroke-width: 1.5;" x1="749.5" x2="836.5" y1="520.9531" y2="520.9531"/></a><!--MD5=[505367997c2b7099e4ddff1763d1acb5]
class C_0001400215772842495226--><a href="structclanguml_1_1sequence__diagram_1_1model_1_1participant.html" target="_top" title="Base class for various types of sequence diagram participants" xlink:actuate="onRequest" xlink:href="structclanguml_1_1sequence__diagram_1_1model_1_1participant.html" xlink:show="new" xlink:title="Base class for various types of sequence diagram participants" xlink:type="simple"><rect fill="#FEFECE" filter="url(#f1tr5y5fwc5lye)" height="48" id="C_0001400215772842495226" style="stroke: #A80036; stroke-width: 1.5;" width="100" x="217" y="480.9531"/><ellipse cx="232" cy="496.9531" fill="#ADD1B2" rx="11" ry="11" style="stroke: #A80036; stroke-width: 1.0;"/><path d="M234.9688,502.5938 Q234.3906,502.8906 233.75,503.0313 Q233.1094,503.1875 232.4063,503.1875 Q229.9063,503.1875 228.5781,501.5469 Q227.2656,499.8906 227.2656,496.7656 Q227.2656,493.6406 228.5781,491.9844 Q229.9063,490.3281 232.4063,490.3281 Q233.1094,490.3281 233.75,490.4844 Q234.4063,490.6406 234.9688,490.9375 L234.9688,493.6563 Q234.3438,493.0781 233.75,492.8125 Q233.1563,492.5313 232.5313,492.5313 Q231.1875,492.5313 230.5,493.6094 Q229.8125,494.6719 229.8125,496.7656 Q229.8125,498.8594 230.5,499.9375 Q231.1875,501 232.5313,501 Q233.1563,501 233.75,500.7344 Q234.3438,500.4531 234.9688,499.875 L234.9688,502.5938 Z "/><text fill="#000000" font-family="sans-serif" font-size="12" lengthAdjust="spacingAndGlyphs" textLength="68" x="246" y="501.1074">participant</text><line style="stroke: #A80036; stroke-width: 1.5;" x1="218" x2="316" y1="512.9531" y2="512.9531"/><line style="stroke: #A80036; stroke-width: 1.5;" x1="218" x2="316" y1="520.9531" y2="520.9531"/></a><!--MD5=[b4d475f36669eac2ac4b1a7424da64db]
class C_0000885514871619471610--><a href="structclanguml_1_1sequence__diagram_1_1model_1_1class__.html" target="_top" title="Sequence diagram participant representing a class." xlink:actuate="onRequest" xlink:href="structclanguml_1_1sequence__diagram_1_1model_1_1class__.html" xlink:show="new" xlink:title="Sequence diagram participant representing a class." xlink:type="simple"><rect fill="#FEFECE" filter="url(#f1tr5y5fwc5lye)" height="48" id="C_0000885514871619471610" style="stroke: #A80036; stroke-width: 1.5;" width="70" x="109" y="588.9531"/><ellipse cx="124" cy="604.9531" fill="#ADD1B2" rx="11" ry="11" style="stroke: #A80036; stroke-width: 1.0;"/><path d="M126.9688,610.5938 Q126.3906,610.8906 125.75,611.0313 Q125.1094,611.1875 124.4063,611.1875 Q121.9063,611.1875 120.5781,609.5469 Q119.2656,607.8906 119.2656,604.7656 Q119.2656,601.6406 120.5781,599.9844 Q121.9063,598.3281 124.4063,598.3281 Q125.1094,598.3281 125.75,598.4844 Q126.4063,598.6406 126.9688,598.9375 L126.9688,601.6563 Q126.3438,601.0781 125.75,600.8125 Q125.1563,600.5313 124.5313,600.5313 Q123.1875,600.5313 122.5,601.6094 Q121.8125,602.6719 121.8125,604.7656 Q121.8125,606.8594 122.5,607.9375 Q123.1875,609 124.5313,609 Q125.1563,609 125.75,608.7344 Q126.3438,608.4531 126.9688,607.875 L126.9688,610.5938 Z "/><text fill="#000000" font-family="sans-serif" font-size="12" lengthAdjust="spacingAndGlyphs" textLength="38" x="138" y="609.1074">class_</text><line style="stroke: #A80036; stroke-width: 1.5;" x1="110" x2="178" y1="620.9531" y2="620.9531"/><line style="stroke: #A80036; stroke-width: 1.5;" x1="110" x2="178" y1="628.9531" y2="628.9531"/></a><!--MD5=[fea9086604aaaceeec1cf807579b2064]
class C_0000232638456031681828--><a href="structclanguml_1_1sequence__diagram_1_1model_1_1function.html" target="_top" title="Participant mode representing a free function." xlink:actuate="onRequest" xlink:href="structclanguml_1_1sequence__diagram_1_1model_1_1function.html" xlink:show="new" xlink:title="Participant mode representing a free function." xlink:type="simple"><rect fill="#FEFECE" filter="url(#f1tr5y5fwc5lye)" height="48" id="C_0000232638456031681828" style="stroke: #A80036; stroke-width: 1.5;" width="83" x="214.5" y="588.9531"/><ellipse cx="229.5" cy="604.9531" fill="#ADD1B2" rx="11" ry="11" style="stroke: #A80036; stroke-width: 1.0;"/><path d="M232.4688,610.5938 Q231.8906,610.8906 231.25,611.0313 Q230.6094,611.1875 229.9063,611.1875 Q227.4063,611.1875 226.0781,609.5469 Q224.7656,607.8906 224.7656,604.7656 Q224.7656,601.6406 226.0781,599.9844 Q227.4063,598.3281 229.9063,598.3281 Q230.6094,598.3281 231.25,598.4844 Q231.9063,598.6406 232.4688,598.9375 L232.4688,601.6563 Q231.8438,601.0781 231.25,600.8125 Q230.6563,600.5313 230.0313,600.5313 Q228.6875,600.5313 228,601.6094 Q227.3125,602.6719 227.3125,604.7656 Q227.3125,606.8594 228,607.9375 Q228.6875,609 230.0313,609 Q230.6563,609 231.25,608.7344 Q231.8438,608.4531 232.4688,607.875 L232.4688,610.5938 Z "/><text fill="#000000" font-family="sans-serif" font-size="12" lengthAdjust="spacingAndGlyphs" textLength="51" x="243.5" y="609.1074">function</text><line style="stroke: #A80036; stroke-width: 1.5;" x1="215.5" x2="296.5" y1="620.9531" y2="620.9531"/><line style="stroke: #A80036; stroke-width: 1.5;" x1="215.5" x2="296.5" y1="628.9531" y2="628.9531"/></a><!--MD5=[78f12b5739bf72f527e2506c0e981f4b]
class C_0000817665972547784504--><a href="structclanguml_1_1sequence__diagram_1_1model_1_1method.html" target="_top" title="Participant model representing a method" xlink:actuate="onRequest" xlink:href="structclanguml_1_1sequence__diagram_1_1model_1_1method.html" xlink:show="new" xlink:title="Participant model representing a method" xlink:type="simple"><rect fill="#FEFECE" filter="url(#f1tr5y5fwc5lye)" height="48" id="C_0000817665972547784504" style="stroke: #A80036; stroke-width: 1.5;" width="80" x="62" y="696.9531"/><ellipse cx="77" cy="712.9531" fill="#ADD1B2" rx="11" ry="11" style="stroke: #A80036; stroke-width: 1.0;"/><path d="M79.9688,718.5938 Q79.3906,718.8906 78.75,719.0313 Q78.1094,719.1875 77.4063,719.1875 Q74.9063,719.1875 73.5781,717.5469 Q72.2656,715.8906 72.2656,712.7656 Q72.2656,709.6406 73.5781,707.9844 Q74.9063,706.3281 77.4063,706.3281 Q78.1094,706.3281 78.75,706.4844 Q79.4063,706.6406 79.9688,706.9375 L79.9688,709.6563 Q79.3438,709.0781 78.75,708.8125 Q78.1563,708.5313 77.5313,708.5313 Q76.1875,708.5313 75.5,709.6094 Q74.8125,710.6719 74.8125,712.7656 Q74.8125,714.8594 75.5,715.9375 Q76.1875,717 77.5313,717 Q78.1563,717 78.75,716.7344 Q79.3438,716.4531 79.9688,715.875 L79.9688,718.5938 Z "/><text fill="#000000" font-family="sans-serif" font-size="12" lengthAdjust="spacingAndGlyphs" textLength="48" x="91" y="717.1074">method</text><line style="stroke: #A80036; stroke-width: 1.5;" x1="63" x2="141" y1="728.9531" y2="728.9531"/><line style="stroke: #A80036; stroke-width: 1.5;" x1="63" x2="141" y1="736.9531" y2="736.9531"/></a><!--MD5=[32d760b788d79d5e0bfcc0697e979e7d]
class C_0002280191967493310558--><a href="structclanguml_1_1sequence__diagram_1_1model_1_1function__template.html" target="_top" title="Participant model representing a function template." xlink:actuate="onRequest" xlink:href="structclanguml_1_1sequence__diagram_1_1model_1_1function__template.html" xlink:show="new" xlink:title="Participant model representing a function template." xlink:type="simple"><rect fill="#FEFECE" filter="url(#f1tr5y5fwc5lye)" height="48" id="C_0002280191967493310558" style="stroke: #A80036; stroke-width: 1.5;" width="145" x="177.5" y="696.9531"/><ellipse cx="192.5" cy="712.9531" fill="#ADD1B2" rx="11" ry="11" style="stroke: #A80036; stroke-width: 1.0;"/><path d="M195.4688,718.5938 Q194.8906,718.8906 194.25,719.0313 Q193.6094,719.1875 192.9063,719.1875 Q190.4063,719.1875 189.0781,717.5469 Q187.7656,715.8906 187.7656,712.7656 Q187.7656,709.6406 189.0781,707.9844 Q190.4063,706.3281 192.9063,706.3281 Q193.6094,706.3281 194.25,706.4844 Q194.9063,706.6406 195.4688,706.9375 L195.4688,709.6563 Q194.8438,709.0781 194.25,708.8125 Q193.6563,708.5313 193.0313,708.5313 Q191.6875,708.5313 191,709.6094 Q190.3125,710.6719 190.3125,712.7656 Q190.3125,714.8594 191,715.9375 Q191.6875,717 193.0313,717 Q193.6563,717 194.25,716.7344 Q194.8438,716.4531 195.4688,715.875 L195.4688,718.5938 Z "/><text fill="#000000" font-family="sans-serif" font-size="12" lengthAdjust="spacingAndGlyphs" textLength="113" x="206.5" y="717.1074">function_template</text><line style="stroke: #A80036; stroke-width: 1.5;" x1="178.5" x2="321.5" y1="728.9531" y2="728.9531"/><line style="stroke: #A80036; stroke-width: 1.5;" x1="178.5" x2="321.5" y1="736.9531" y2="736.9531"/></a><!--MD5=[d938ea8dcef347175d1d053a93bab664]
class C_0002228653068706235818--><a href="classclanguml_1_1sequence__diagram_1_1model_1_1message.html" target="_top" title="Model of a sequence diagram message." xlink:actuate="onRequest" xlink:href="classclanguml_1_1sequence__diagram_1_1model_1_1message.html" xlink:show="new" xlink:title="Model of a sequence diagram message." xlink:type="simple"><rect fill="#FEFECE" filter="url(#f1tr5y5fwc5lye)" height="48" id="C_0002228653068706235818" style="stroke: #A80036; stroke-width: 1.5;" width="89" x="92.5" y="480.9531"/><ellipse cx="107.5" cy="496.9531" fill="#ADD1B2" rx="11" ry="11" style="stroke: #A80036; stroke-width: 1.0;"/><path d="M110.4688,502.5938 Q109.8906,502.8906 109.25,503.0313 Q108.6094,503.1875 107.9063,503.1875 Q105.4063,503.1875 104.0781,501.5469 Q102.7656,499.8906 102.7656,496.7656 Q102.7656,493.6406 104.0781,491.9844 Q105.4063,490.3281 107.9063,490.3281 Q108.6094,490.3281 109.25,490.4844 Q109.9063,490.6406 110.4688,490.9375 L110.4688,493.6563 Q109.8438,493.0781 109.25,492.8125 Q108.6563,492.5313 108.0313,492.5313 Q106.6875,492.5313 106,493.6094 Q105.3125,494.6719 105.3125,496.7656 Q105.3125,498.8594 106,499.9375 Q106.6875,501 108.0313,501 Q108.6563,501 109.25,500.7344 Q109.8438,500.4531 110.4688,499.875 L110.4688,502.5938 Z "/><text fill="#000000" font-family="sans-serif" font-size="12" lengthAdjust="spacingAndGlyphs" textLength="57" x="121.5" y="501.1074">message</text><line style="stroke: #A80036; stroke-width: 1.5;" x1="93.5" x2="180.5" y1="512.9531" y2="512.9531"/><line style="stroke: #A80036; stroke-width: 1.5;" x1="93.5" x2="180.5" y1="520.9531" y2="520.9531"/></a><!--MD5=[ca2904572ba2305549e4f16921901e5a]
reverse link C_0000895261582183440230 to C_0001073500714379115414--><path d="M548.48,190.9731 C545.79,204.5331 542.93,218.9931 540.62,230.6331 " fill="none" id="C_0000895261582183440230&lt;-C_0001073500714379115414" style="stroke: #A80036; stroke-width: 1.0;"/><polygon fill="none" points="541.69,189.2131,552.44,170.9531,555.42,191.9331,541.69,189.2131" style="stroke: #A80036; stroke-width: 1.0;"/><!--MD5=[4f2a77547d39d73bea822e52b2f0976b]
reverse link C_0001073500714379115414 to C_0002069520381434407937--><path d="M510.63,296.0831 C501.55,310.4531 491.62,326.1631 483.74,338.6331 " fill="none" id="C_0001073500714379115414&lt;-C_0002069520381434407937" style="stroke: #A80036; stroke-width: 1.0;"/><polygon fill="none" points="504.86,292.1231,521.46,278.9531,516.69,299.6031,504.86,292.1231" style="stroke: #A80036; stroke-width: 1.0;"/><!--MD5=[5ecb1d83165a712adbd5650cef34b86b]
reverse link C_0001073500714379115414 to C_0000785714713072053129--><path d="M558.61,296.5631 C566.53,310.8031 575.15,326.3031 582.02,338.6331 " fill="none" id="C_0001073500714379115414&lt;-C_0000785714713072053129" style="stroke: #A80036; stroke-width: 1.0;"/><polygon fill="none" points="552.41,299.8331,548.8,278.9531,564.65,293.0231,552.41,299.8331" style="stroke: #A80036; stroke-width: 1.0;"/><!--MD5=[3b5b148458d09c1202603fe4c86398e5]
reverse link C_0002069520381434407937 to C_0002143286684830686854--><path d="M469.31,407.1531 C469.48,431.4531 469.69,460.8331 469.83,480.8031 " fill="none" id="C_0002069520381434407937&lt;-C_0002143286684830686854" style="stroke: #A80036; stroke-width: 1.0;"/><polygon fill="none" points="462.31,407.1231,469.17,387.0731,476.31,407.0231,462.31,407.1231" style="stroke: #A80036; stroke-width: 1.0;"/><!--MD5=[f0387d9954afcf30c87ff075e3f6770a]
reverse link C_0000895261582183440230 to C_0000605866861866358037--><path d="M641.96,174.2031 C750,210.6831 938.2,284.8731 1069,394.9531 C1098.02,419.3731 1121.71,456.8831 1135.09,480.9231 " fill="none" id="C_0000895261582183440230&lt;-C_0000605866861866358037" style="stroke: #A80036; stroke-width: 1.0;"/><polygon fill="none" points="639.53,180.7731,622.75,167.8331,643.93,167.4831,639.53,180.7731" style="stroke: #A80036; stroke-width: 1.0;"/><!--MD5=[d8e4acfe1535dd965012bd96698e8da6]
reverse link C_0000605866861866358037 to C_0001796282762108527255--><path d="M1110.71,543.2531 C1098.17,554.9331 1083.6,567.2831 1069,576.9531 C1062.58,581.2031 1055.56,585.1931 1048.47,588.8531 " fill="none" id="C_0000605866861866358037&lt;-C_0001796282762108527255" style="stroke: #A80036; stroke-width: 1.0;"/><polygon fill="none" points="1106.11,537.9631,1125.34,529.0631,1115.85,548.0131,1106.11,537.9631" style="stroke: #A80036; stroke-width: 1.0;"/><!--MD5=[319ad9cfab865c6a4b42924a2f265e34]
reverse link C_0000605866861866358037 to C_0000204145716468348671--><path d="M1147.41,548.9731 C1147.53,562.5331 1147.67,576.9931 1147.78,588.6331 " fill="none" id="C_0000605866861866358037&lt;-C_0000204145716468348671" style="stroke: #A80036; stroke-width: 1.0;"/><polygon fill="none" points="1140.41,549.0231,1147.22,528.9531,1154.41,548.8831,1140.41,549.0231" style="stroke: #A80036; stroke-width: 1.0;"/><!--MD5=[4018109609f1a98320137cbe86d3b254]
reverse link C_0002069520381434407937 to C_0001292034357466653182--><path d="M530.85,384.4431 C621.75,390.0231 944.54,383.1631 963,394.9531 C992.79,413.9831 1006.31,454.9731 1012.08,480.9131 " fill="none" id="C_0002069520381434407937&lt;-C_0001292034357466653182" style="stroke: #A80036; stroke-width: 1.0;"/><polygon fill="none" points="529.82,391.3731,510.68,382.2731,531.31,377.4531,529.82,391.3731" style="stroke: #A80036; stroke-width: 1.0;"/><!--MD5=[8c22089b7714b620a371fadcc922a5ed]
reverse link C_0002069520381434407937 to C_0000724392977093650506--><path d="M530.79,384.5131 C606.77,389.5431 841.35,386.2531 855,394.9531 C884.92,414.0331 898.82,455.0131 904.85,480.9331 " fill="none" id="C_0002069520381434407937&lt;-C_0000724392977093650506" style="stroke: #A80036; stroke-width: 1.0;"/><polygon fill="none" points="529.77,391.4331,510.68,382.2431,531.34,377.5231,529.77,391.4331" style="stroke: #A80036; stroke-width: 1.0;"/><!--MD5=[cf69ebad9c135069927ecc8912486131]
reverse link C_0002069520381434407937 to C_0001374849051752224500--><path d="M530.55,385.5431 C576.39,391.2031 637.11,385.5431 661,394.9531 C707.46,413.2531 749.79,454.4731 773.4,480.6531 " fill="none" id="C_0002069520381434407937&lt;-C_0001374849051752224500" style="stroke: #A80036; stroke-width: 1.0;"/><polygon fill="none" points="529.21,392.4131,510.72,382.0531,531.64,378.6231,529.21,392.4131" style="stroke: #A80036; stroke-width: 1.0;"/><!--MD5=[62dc895dac1d0c2011f0b281560d3968]
reverse link C_0002069520381434407937 to C_0001400215772842495226--><path d="M410.23,396.1431 C359.82,429.0031 320.24,460.1131 294.74,480.8731 " fill="none" id="C_0002069520381434407937&lt;-C_0001400215772842495226" style="stroke: #A80036; stroke-width: 1.0;"/><polygon fill="none" points="406.73,390.0731,427.35,385.1931,414.28,401.8631,406.73,390.0731" style="stroke: #A80036; stroke-width: 1.0;"/><!--MD5=[b33f1614e5f0bf4794b27e69905bc927]
reverse link C_0001400215772842495226 to C_0000885514871619471610--><path d="M233.66,544.1131 C223.09,555.2631 211.02,567.0931 199,576.9531 C192.87,581.9731 185.99,586.8731 179.21,591.3331 " fill="none" id="C_0001400215772842495226&lt;-C_0000885514871619471610" style="stroke: #A80036; stroke-width: 1.0;"/><polygon fill="none" points="228.77,539.0931,247.44,529.0731,239.09,548.5531,228.77,539.0931" style="stroke: #A80036; stroke-width: 1.0;"/><!--MD5=[cff630a429a41d6509e30ee5071e7c05]
reverse link C_0001400215772842495226 to C_0000232638456031681828--><path d="M262.54,548.9731 C261.13,562.5331 259.63,576.9931 258.42,588.6331 " fill="none" id="C_0001400215772842495226&lt;-C_0000232638456031681828" style="stroke: #A80036; stroke-width: 1.0;"/><polygon fill="none" points="255.59,548.1231,264.61,528.9531,269.51,549.5731,255.59,548.1231" style="stroke: #A80036; stroke-width: 1.0;"/><!--MD5=[aaa21626746a78046d7a511702c30bb7]
reverse link C_0000232638456031681828 to C_0000817665972547784504--><path d="M229.83,653.3331 C220.59,664.8331 209.39,676.5531 197,684.9531 C182.69,694.6531 176.27,691.0931 160,696.9531 C154.19,699.0431 148.09,701.3431 142.12,703.6531 " fill="none" id="C_0000232638456031681828&lt;-C_0000817665972547784504" style="stroke: #A80036; stroke-width: 1.0;"/><polygon fill="none" points="224.34,648.9831,241.85,637.0531,235.6,657.3031,224.34,648.9831" style="stroke: #A80036; stroke-width: 1.0;"/><!--MD5=[ed3960d209e9f24c5c41aa336e94c692]
reverse link C_0000232638456031681828 to C_0002280191967493310558--><path d="M253.56,656.9731 C252.8,670.5331 251.98,684.9931 251.32,696.6331 " fill="none" id="C_0000232638456031681828&lt;-C_0002280191967493310558" style="stroke: #A80036; stroke-width: 1.0;"/><polygon fill="none" points="246.58,656.5231,254.7,636.9531,260.56,657.3131,246.58,656.5231" style="stroke: #A80036; stroke-width: 1.0;"/><!--MD5=[a67a2b87f33292a603fe6541cbf2f274]
reverse link C_0001073500714379115414 to C_0002228653068706235818--><path d="M446.04,276.0231 C372.95,296.0531 270.74,332.9731 200,394.9531 C173.2,418.4331 154.99,456.2031 145.29,480.5431 " fill="none" id="C_0001073500714379115414&lt;-C_0002228653068706235818" style="stroke: #A80036; stroke-width: 1.0;"/><polygon fill="none" points="444.71,269.1331,465.83,270.8131,448.27,282.6731,444.71,269.1331" style="stroke: #A80036; stroke-width: 1.0;"/><!--MD5=[512864f446699aaaa6499281ea2d3f30]
@startuml
title Source location model class hierarchy
package [common] as C_0000316605034920222648 {
package [model] as C_0000083721806430512831 {
class "source_location" as C_0000895261582183440230
class C_0000895261582183440230 [[classclanguml_1_1common_1_1model_1_1source__location.html{Base class of all diagram elements that have source location.}]] {
__
}
class "diagram_element" as C_0001073500714379115414
class C_0001073500714379115414 [[classclanguml_1_1common_1_1model_1_1diagram__element.html{Base class for standalone diagram elements.}]] {
__
}
class "element" as C_0002069520381434407937
class C_0002069520381434407937 [[classclanguml_1_1common_1_1model_1_1element.html{Base class for any element qualified by namespace.}]] {
__
}
class "source_file" as C_0000785714713072053129
class C_0000785714713072053129 [[classclanguml_1_1common_1_1model_1_1source__file.html{Diagram element representing some file or directory.}]] {
__
}
class "package" as C_0002143286684830686854
class C_0002143286684830686854 [[classclanguml_1_1common_1_1model_1_1package.html{Diagram element representing namespace or directory package}]] {
__
}
}
}
package [class_diagram] as C_0002240167036201725606 {
package [model] as C_0000897124234964432620 {
class "class_element" as C_0000605866861866358037
class C_0000605866861866358037 [[classclanguml_1_1class__diagram_1_1model_1_1class__element.html{Base class for class elements (e.g. member or method).}]] {
__
}
class "class_member" as C_0001796282762108527255
class C_0001796282762108527255 [[classclanguml_1_1class__diagram_1_1model_1_1class__member.html{Class member model.}]] {
__
}
class "class_method" as C_0000204145716468348671
class C_0000204145716468348671 [[classclanguml_1_1class__diagram_1_1model_1_1class__method.html{Class method model.}]] {
__
}
class "class_" as C_0001292034357466653182
class C_0001292034357466653182 [[classclanguml_1_1class__diagram_1_1model_1_1class__.html{Diagram element representing a class or class template.}]] {
__
}
class "enum_" as C_0000724392977093650506
class C_0000724392977093650506 [[classclanguml_1_1class__diagram_1_1model_1_1enum__.html{enum_}]] {
__
}
class "concept_" as C_0001374849051752224500
class C_0001374849051752224500 [[classclanguml_1_1class__diagram_1_1model_1_1concept__.html{Model of C++ concept.}]] {
__
}
}
}
package [sequence_diagram] as C_0001521862840957629236 {
package [model] as C_0002206969880830639264 {
class "participant" as C_0001400215772842495226
class C_0001400215772842495226 [[structclanguml_1_1sequence__diagram_1_1model_1_1participant.html{Base class for various types of sequence diagram participants}]] {
__
}
class "class_" as C_0000885514871619471610
class C_0000885514871619471610 [[structclanguml_1_1sequence__diagram_1_1model_1_1class__.html{Sequence diagram participant representing a class.}]] {
__
}
class "function" as C_0000232638456031681828
class C_0000232638456031681828 [[structclanguml_1_1sequence__diagram_1_1model_1_1function.html{Participant mode representing a free function.}]] {
__
}
class "method" as C_0000817665972547784504
class C_0000817665972547784504 [[structclanguml_1_1sequence__diagram_1_1model_1_1method.html{Participant model representing a method}]] {
__
}
class "function_template" as C_0002280191967493310558
class C_0002280191967493310558 [[structclanguml_1_1sequence__diagram_1_1model_1_1function__template.html{Participant model representing a function template.}]] {
__
}
class "message" as C_0002228653068706235818
class C_0002228653068706235818 [[classclanguml_1_1sequence__diagram_1_1model_1_1message.html{Model of a sequence diagram message.}]] {
__
}
}
}
C_0000895261582183440230 <|- - C_0001073500714379115414
C_0001073500714379115414 <|- - C_0002069520381434407937
C_0001073500714379115414 <|- - C_0000785714713072053129
C_0002069520381434407937 <|- - C_0002143286684830686854
C_0000895261582183440230 <|- - C_0000605866861866358037
C_0000605866861866358037 <|- - C_0001796282762108527255
C_0000605866861866358037 <|- - C_0000204145716468348671
C_0002069520381434407937 <|- - C_0001292034357466653182
C_0002069520381434407937 <|- - C_0000724392977093650506
C_0002069520381434407937 <|- - C_0001374849051752224500
C_0002069520381434407937 <|- - C_0001400215772842495226
C_0001400215772842495226 <|- - C_0000885514871619471610
C_0001400215772842495226 <|- - C_0000232638456031681828
C_0000232638456031681828 <|- - C_0000817665972547784504
C_0000232638456031681828 <|- - C_0002280191967493310558
C_0001073500714379115414 <|- - C_0002228653068706235818

@enduml

PlantUML version 1.2020.02(Sun Mar 01 11:22:07 CET 2020)
(GPL source distribution)
Java Runtime: OpenJDK Runtime Environment
JVM: OpenJDK 64-Bit Server VM
Java Version: 11.0.20.1+1-post-Ubuntu-0ubuntu122.04
Operating System: Linux
Default Encoding: UTF-8
Language: en
Country: US
--></g></svg>