<?xml version="1.0" encoding="UTF-8" standalone="no"?><svg xmlns="http://www.w3.org/2000/svg" xmlns:xlink="http://www.w3.org/1999/xlink" contentScriptType="application/ecmascript" contentStyleType="text/css" height="580px" preserveAspectRatio="none" style="width:1257px;height:580px;" version="1.1" viewBox="0 0 1257 580" width="1257px" zoomAndPan="magnify"><defs><filter height="300%" id="ftz67wv2rjunm" width="300%" x="-1" y="-1"><feGaussianBlur result="blurOut" stdDeviation="2.0"/><feColorMatrix in="blurOut" result="blurOut2" type="matrix" values="0 0 0 0 0 0 0 0 0 0 0 0 0 0 0 0 0 0 .4 0"/><feOffset dx="4.0" dy="4.0" in="blurOut2" result="blurOut3"/><feBlend in="SourceGraphic" in2="blurOut3" mode="normal"/></filter></defs><g><text fill="#000000" font-family="sans-serif" font-size="18" lengthAdjust="spacingAndGlyphs" textLength="364" x="452.5" y="16.708">Stylable diagram element class hierarchy</text><!--MD5=[7ba9c127878a642fef3f451151dda753]
cluster C_0000316605034920222648--><polygon fill="#FFFFFF" filter="url(#ftz67wv2rjunm)" points="22,44.9531,95,44.9531,102,67.25,464,67.25,464,352.9531,22,352.9531,22,44.9531" style="stroke: #000000; stroke-width: 1.5;"/><line style="stroke: #000000; stroke-width: 1.5;" x1="22" x2="102" y1="67.25" y2="67.25"/><text fill="#000000" font-family="sans-serif" font-size="14" font-weight="bold" lengthAdjust="spacingAndGlyphs" textLength="67" x="26" y="59.9482">common</text><!--MD5=[f7110622f5be760311cd0491b75bf8f9]
cluster C_0000083721806430512831--><polygon fill="#FFFFFF" filter="url(#ftz67wv2rjunm)" points="46,87.9531,100,87.9531,107,110.25,440,110.25,440,328.9531,46,328.9531,46,87.9531" style="stroke: #000000; stroke-width: 1.5;"/><line style="stroke: #000000; stroke-width: 1.5;" x1="46" x2="107" y1="110.25" y2="110.25"/><text fill="#000000" font-family="sans-serif" font-size="14" font-weight="bold" lengthAdjust="spacingAndGlyphs" textLength="48" x="50" y="102.9482">model</text><!--MD5=[09e992b259734a9820adb2642bf347d2]
cluster C_0002240167036201725606--><polygon fill="#FFFFFF" filter="url(#ftz67wv2rjunm)" points="488,186.9531,604,186.9531,611,209.25,870,209.25,870,352.9531,488,352.9531,488,186.9531" style="stroke: #000000; stroke-width: 1.5;"/><line style="stroke: #000000; stroke-width: 1.5;" x1="488" x2="611" y1="209.25" y2="209.25"/><text fill="#000000" font-family="sans-serif" font-size="14" font-weight="bold" lengthAdjust="spacingAndGlyphs" textLength="110" x="492" y="201.9482">class_diagram</text><!--MD5=[5d123d1ba3dda692cf099252127394e7]
cluster C_0000897124234964432620--><polygon fill="#FFFFFF" filter="url(#ftz67wv2rjunm)" points="512,229.9531,566,229.9531,573,252.25,846,252.25,846,328.9531,512,328.9531,512,229.9531" style="stroke: #000000; stroke-width: 1.5;"/><line style="stroke: #000000; stroke-width: 1.5;" x1="512" x2="573" y1="252.25" y2="252.25"/><text fill="#000000" font-family="sans-serif" font-size="14" font-weight="bold" lengthAdjust="spacingAndGlyphs" textLength="48" x="516" y="244.9482">model</text><!--MD5=[2319765f5fef5e41f5b55adb85cd73ea]
cluster C_0001521862840957629236--><polygon fill="#FFFFFF" filter="url(#ftz67wv2rjunm)" points="894,186.9531,1048,186.9531,1055,209.25,1235,209.25,1235,568.9531,894,568.9531,894,186.9531" style="stroke: #000000; stroke-width: 1.5;"/><line style="stroke: #000000; stroke-width: 1.5;" x1="894" x2="1055" y1="209.25" y2="209.25"/><text fill="#000000" font-family="sans-serif" font-size="14" font-weight="bold" lengthAdjust="spacingAndGlyphs" textLength="148" x="898" y="201.9482">sequence_diagram</text><!--MD5=[aff6d1ed1f9fc56ba8376cf20ecae299]
cluster C_0002206969880830639264--><polygon fill="#FFFFFF" filter="url(#ftz67wv2rjunm)" points="918,229.9531,972,229.9531,979,252.25,1211,252.25,1211,544.9531,918,544.9531,918,229.9531" style="stroke: #000000; stroke-width: 1.5;"/><line style="stroke: #000000; stroke-width: 1.5;" x1="918" x2="979" y1="252.25" y2="252.25"/><text fill="#000000" font-family="sans-serif" font-size="14" font-weight="bold" lengthAdjust="spacingAndGlyphs" textLength="48" x="922" y="244.9482">model</text><!--MD5=[39023b0134efb4261990e1927fe4a3ac]
class C_0002077846075979426940--><a href="classclanguml_1_1common_1_1model_1_1stylable__element.html" target="_top" title="Diagram elements to which style can be applied." xlink:actuate="onRequest" xlink:href="classclanguml_1_1common_1_1model_1_1stylable__element.html" xlink:show="new" xlink:title="Diagram elements to which style can be applied." xlink:type="simple"><rect fill="#FEFECE" filter="url(#ftz67wv2rjunm)" height="48" id="C_0002077846075979426940" style="stroke: #A80036; stroke-width: 1.5;" width="137" x="286.5" y="122.9531"/><ellipse cx="301.5" cy="138.9531" fill="#ADD1B2" rx="11" ry="11" style="stroke: #A80036; stroke-width: 1.0;"/><path d="M304.4688,144.5938 Q303.8906,144.8906 303.25,145.0313 Q302.6094,145.1875 301.9063,145.1875 Q299.4063,145.1875 298.0781,143.5469 Q296.7656,141.8906 296.7656,138.7656 Q296.7656,135.6406 298.0781,133.9844 Q299.4063,132.3281 301.9063,132.3281 Q302.6094,132.3281 303.25,132.4844 Q303.9063,132.6406 304.4688,132.9375 L304.4688,135.6563 Q303.8438,135.0781 303.25,134.8125 Q302.6563,134.5313 302.0313,134.5313 Q300.6875,134.5313 300,135.6094 Q299.3125,136.6719 299.3125,138.7656 Q299.3125,140.8594 300,141.9375 Q300.6875,143 302.0313,143 Q302.6563,143 303.25,142.7344 Q303.8438,142.4531 304.4688,141.875 L304.4688,144.5938 Z "/><text fill="#000000" font-family="sans-serif" font-size="12" lengthAdjust="spacingAndGlyphs" textLength="105" x="315.5" y="143.1074">stylable_element</text><line style="stroke: #A80036; stroke-width: 1.5;" x1="287.5" x2="422.5" y1="154.9531" y2="154.9531"/><line style="stroke: #A80036; stroke-width: 1.5;" x1="287.5" x2="422.5" y1="162.9531" y2="162.9531"/></a><!--MD5=[e8deacb898fc3c022fd97c095b285f76]
class C_0002046336758797367926--><a href="classclanguml_1_1common_1_1model_1_1relationship.html" target="_top" title="Class representing any relationship other than inheritance" xlink:actuate="onRequest" xlink:href="classclanguml_1_1common_1_1model_1_1relationship.html" xlink:show="new" xlink:title="Class representing any relationship other than inheritance" xlink:type="simple"><rect fill="#FEFECE" filter="url(#ftz67wv2rjunm)" height="48" id="C_0002046336758797367926" style="stroke: #A80036; stroke-width: 1.5;" width="106" x="62" y="264.9531"/><ellipse cx="77" cy="280.9531" fill="#ADD1B2" rx="11" ry="11" style="stroke: #A80036; stroke-width: 1.0;"/><path d="M79.9688,286.5938 Q79.3906,286.8906 78.75,287.0313 Q78.1094,287.1875 77.4063,287.1875 Q74.9063,287.1875 73.5781,285.5469 Q72.2656,283.8906 72.2656,280.7656 Q72.2656,277.6406 73.5781,275.9844 Q74.9063,274.3281 77.4063,274.3281 Q78.1094,274.3281 78.75,274.4844 Q79.4063,274.6406 79.9688,274.9375 L79.9688,277.6563 Q79.3438,277.0781 78.75,276.8125 Q78.1563,276.5313 77.5313,276.5313 Q76.1875,276.5313 75.5,277.6094 Q74.8125,278.6719 74.8125,280.7656 Q74.8125,282.8594 75.5,283.9375 Q76.1875,285 77.5313,285 Q78.1563,285 78.75,284.7344 Q79.3438,284.4531 79.9688,283.875 L79.9688,286.5938 Z "/><text fill="#000000" font-family="sans-serif" font-size="12" lengthAdjust="spacingAndGlyphs" textLength="74" x="91" y="285.1074">relationship</text><line style="stroke: #A80036; stroke-width: 1.5;" x1="63" x2="167" y1="296.9531" y2="296.9531"/><line style="stroke: #A80036; stroke-width: 1.5;" x1="63" x2="167" y1="304.9531" y2="304.9531"/></a><!--MD5=[525da812764c4fe64f23950e964f77cd]
class C_0000785714713072053129--><a href="classclanguml_1_1common_1_1model_1_1source__file.html" target="_top" title="Diagram element representing some file or directory." xlink:actuate="onRequest" xlink:href="classclanguml_1_1common_1_1model_1_1source__file.html" xlink:show="new" xlink:title="Diagram element representing some file or directory." xlink:type="simple"><rect fill="#FEFECE" filter="url(#ftz67wv2rjunm)" height="48" id="C_0000785714713072053129" style="stroke: #A80036; stroke-width: 1.5;" width="99" x="203.5" y="264.9531"/><ellipse cx="218.5" cy="280.9531" fill="#ADD1B2" rx="11" ry="11" style="stroke: #A80036; stroke-width: 1.0;"/><path d="M221.4688,286.5938 Q220.8906,286.8906 220.25,287.0313 Q219.6094,287.1875 218.9063,287.1875 Q216.4063,287.1875 215.0781,285.5469 Q213.7656,283.8906 213.7656,280.7656 Q213.7656,277.6406 215.0781,275.9844 Q216.4063,274.3281 218.9063,274.3281 Q219.6094,274.3281 220.25,274.4844 Q220.9063,274.6406 221.4688,274.9375 L221.4688,277.6563 Q220.8438,277.0781 220.25,276.8125 Q219.6563,276.5313 219.0313,276.5313 Q217.6875,276.5313 217,277.6094 Q216.3125,278.6719 216.3125,280.7656 Q216.3125,282.8594 217,283.9375 Q217.6875,285 219.0313,285 Q219.6563,285 220.25,284.7344 Q220.8438,284.4531 221.4688,283.875 L221.4688,286.5938 Z "/><text fill="#000000" font-family="sans-serif" font-size="12" lengthAdjust="spacingAndGlyphs" textLength="67" x="232.5" y="285.1074">source_file</text><line style="stroke: #A80036; stroke-width: 1.5;" x1="204.5" x2="301.5" y1="296.9531" y2="296.9531"/><line style="stroke: #A80036; stroke-width: 1.5;" x1="204.5" x2="301.5" y1="304.9531" y2="304.9531"/></a><!--MD5=[41fe75f5c358e82f7c3b024ae1be5ac2]
class C_0002143286684830686854--><a href="classclanguml_1_1common_1_1model_1_1package.html" target="_top" title="Diagram element representing namespace or directory package" xlink:actuate="onRequest" xlink:href="classclanguml_1_1common_1_1model_1_1package.html" xlink:show="new" xlink:title="Diagram element representing namespace or directory package" xlink:type="simple"><rect fill="#FEFECE" filter="url(#ftz67wv2rjunm)" height="48" id="C_0002143286684830686854" style="stroke: #A80036; stroke-width: 1.5;" width="86" x="338" y="264.9531"/><ellipse cx="353" cy="280.9531" fill="#ADD1B2" rx="11" ry="11" style="stroke: #A80036; stroke-width: 1.0;"/><path d="M355.9688,286.5938 Q355.3906,286.8906 354.75,287.0313 Q354.1094,287.1875 353.4063,287.1875 Q350.9063,287.1875 349.5781,285.5469 Q348.2656,283.8906 348.2656,280.7656 Q348.2656,277.6406 349.5781,275.9844 Q350.9063,274.3281 353.4063,274.3281 Q354.1094,274.3281 354.75,274.4844 Q355.4063,274.6406 355.9688,274.9375 L355.9688,277.6563 Q355.3438,277.0781 354.75,276.8125 Q354.1563,276.5313 353.5313,276.5313 Q352.1875,276.5313 351.5,277.6094 Q350.8125,278.6719 350.8125,280.7656 Q350.8125,282.8594 351.5,283.9375 Q352.1875,285 353.5313,285 Q354.1563,285 354.75,284.7344 Q355.3438,284.4531 355.9688,283.875 L355.9688,286.5938 Z "/><text fill="#000000" font-family="sans-serif" font-size="12" lengthAdjust="spacingAndGlyphs" textLength="54" x="367" y="285.1074">package</text><line style="stroke: #A80036; stroke-width: 1.5;" x1="339" x2="423" y1="296.9531" y2="296.9531"/><line style="stroke: #A80036; stroke-width: 1.5;" x1="339" x2="423" y1="304.9531" y2="304.9531"/></a><!--MD5=[ae47341ca1a22ddcd7d0b4ea2daf1996]
class C_0001292034357466653182--><a href="classclanguml_1_1class__diagram_1_1model_1_1class__.html" target="_top" title="Diagram element representing a class or class template." xlink:actuate="onRequest" xlink:href="classclanguml_1_1class__diagram_1_1model_1_1class__.html" xlink:show="new" xlink:title="Diagram element representing a class or class template." xlink:type="simple"><rect fill="#FEFECE" filter="url(#ftz67wv2rjunm)" height="48" id="C_0001292034357466653182" style="stroke: #A80036; stroke-width: 1.5;" width="70" x="760" y="264.9531"/><ellipse cx="775" cy="280.9531" fill="#ADD1B2" rx="11" ry="11" style="stroke: #A80036; stroke-width: 1.0;"/><path d="M777.9688,286.5938 Q777.3906,286.8906 776.75,287.0313 Q776.1094,287.1875 775.4063,287.1875 Q772.9063,287.1875 771.5781,285.5469 Q770.2656,283.8906 770.2656,280.7656 Q770.2656,277.6406 771.5781,275.9844 Q772.9063,274.3281 775.4063,274.3281 Q776.1094,274.3281 776.75,274.4844 Q777.4063,274.6406 777.9688,274.9375 L777.9688,277.6563 Q777.3438,277.0781 776.75,276.8125 Q776.1563,276.5313 775.5313,276.5313 Q774.1875,276.5313 773.5,277.6094 Q772.8125,278.6719 772.8125,280.7656 Q772.8125,282.8594 773.5,283.9375 Q774.1875,285 775.5313,285 Q776.1563,285 776.75,284.7344 Q777.3438,284.4531 777.9688,283.875 L777.9688,286.5938 Z "/><text fill="#000000" font-family="sans-serif" font-size="12" lengthAdjust="spacingAndGlyphs" textLength="38" x="789" y="285.1074">class_</text><line style="stroke: #A80036; stroke-width: 1.5;" x1="761" x2="829" y1="296.9531" y2="296.9531"/><line style="stroke: #A80036; stroke-width: 1.5;" x1="761" x2="829" y1="304.9531" y2="304.9531"/></a><!--MD5=[ad7c1a05bec632e2a3018185b58507d2]
class C_0000724392977093650506--><a href="classclanguml_1_1class__diagram_1_1model_1_1enum__.html" target="_top" title="enum_" xlink:actuate="onRequest" xlink:href="classclanguml_1_1class__diagram_1_1model_1_1enum__.html" xlink:show="new" xlink:title="enum_" xlink:type="simple"><rect fill="#FEFECE" filter="url(#ftz67wv2rjunm)" height="48" id="C_0000724392977093650506" style="stroke: #A80036; stroke-width: 1.5;" width="73" x="651.5" y="264.9531"/><ellipse cx="666.5" cy="280.9531" fill="#ADD1B2" rx="11" ry="11" style="stroke: #A80036; stroke-width: 1.0;"/><path d="M669.4688,286.5938 Q668.8906,286.8906 668.25,287.0313 Q667.6094,287.1875 666.9063,287.1875 Q664.4063,287.1875 663.0781,285.5469 Q661.7656,283.8906 661.7656,280.7656 Q661.7656,277.6406 663.0781,275.9844 Q664.4063,274.3281 666.9063,274.3281 Q667.6094,274.3281 668.25,274.4844 Q668.9063,274.6406 669.4688,274.9375 L669.4688,277.6563 Q668.8438,277.0781 668.25,276.8125 Q667.6563,276.5313 667.0313,276.5313 Q665.6875,276.5313 665,277.6094 Q664.3125,278.6719 664.3125,280.7656 Q664.3125,282.8594 665,283.9375 Q665.6875,285 667.0313,285 Q667.6563,285 668.25,284.7344 Q668.8438,284.4531 669.4688,283.875 L669.4688,286.5938 Z "/><text fill="#000000" font-family="sans-serif" font-size="12" lengthAdjust="spacingAndGlyphs" textLength="41" x="680.5" y="285.1074">enum_</text><line style="stroke: #A80036; stroke-width: 1.5;" x1="652.5" x2="723.5" y1="296.9531" y2="296.9531"/><line style="stroke: #A80036; stroke-width: 1.5;" x1="652.5" x2="723.5" y1="304.9531" y2="304.9531"/></a><!--MD5=[dd3d40541e24383f89990969973b4760]
class C_0001374849051752224500--><a href="classclanguml_1_1class__diagram_1_1model_1_1concept__.html" target="_top" title="Model of C++ concept." xlink:actuate="onRequest" xlink:href="classclanguml_1_1class__diagram_1_1model_1_1concept__.html" xlink:show="new" xlink:title="Model of C++ concept." xlink:type="simple"><rect fill="#FEFECE" filter="url(#ftz67wv2rjunm)" height="48" id="C_0001374849051752224500" style="stroke: #A80036; stroke-width: 1.5;" width="89" x="527.5" y="264.9531"/><ellipse cx="542.5" cy="280.9531" fill="#ADD1B2" rx="11" ry="11" style="stroke: #A80036; stroke-width: 1.0;"/><path d="M545.4688,286.5938 Q544.8906,286.8906 544.25,287.0313 Q543.6094,287.1875 542.9063,287.1875 Q540.4063,287.1875 539.0781,285.5469 Q537.7656,283.8906 537.7656,280.7656 Q537.7656,277.6406 539.0781,275.9844 Q540.4063,274.3281 542.9063,274.3281 Q543.6094,274.3281 544.25,274.4844 Q544.9063,274.6406 545.4688,274.9375 L545.4688,277.6563 Q544.8438,277.0781 544.25,276.8125 Q543.6563,276.5313 543.0313,276.5313 Q541.6875,276.5313 541,277.6094 Q540.3125,278.6719 540.3125,280.7656 Q540.3125,282.8594 541,283.9375 Q541.6875,285 543.0313,285 Q543.6563,285 544.25,284.7344 Q544.8438,284.4531 545.4688,283.875 L545.4688,286.5938 Z "/><text fill="#000000" font-family="sans-serif" font-size="12" lengthAdjust="spacingAndGlyphs" textLength="57" x="556.5" y="285.1074">concept_</text><line style="stroke: #A80036; stroke-width: 1.5;" x1="528.5" x2="615.5" y1="296.9531" y2="296.9531"/><line style="stroke: #A80036; stroke-width: 1.5;" x1="528.5" x2="615.5" y1="304.9531" y2="304.9531"/></a><!--MD5=[505367997c2b7099e4ddff1763d1acb5]
class C_0001400215772842495226--><a href="structclanguml_1_1sequence__diagram_1_1model_1_1participant.html" target="_top" title="Base class for various types of sequence diagram participants" xlink:actuate="onRequest" xlink:href="structclanguml_1_1sequence__diagram_1_1model_1_1participant.html" xlink:show="new" xlink:title="Base class for various types of sequence diagram participants" xlink:type="simple"><rect fill="#FEFECE" filter="url(#ftz67wv2rjunm)" height="48" id="C_0001400215772842495226" style="stroke: #A80036; stroke-width: 1.5;" width="100" x="934" y="264.9531"/><ellipse cx="949" cy="280.9531" fill="#ADD1B2" rx="11" ry="11" style="stroke: #A80036; stroke-width: 1.0;"/><path d="M951.9688,286.5938 Q951.3906,286.8906 950.75,287.0313 Q950.1094,287.1875 949.4063,287.1875 Q946.9063,287.1875 945.5781,285.5469 Q944.2656,283.8906 944.2656,280.7656 Q944.2656,277.6406 945.5781,275.9844 Q946.9063,274.3281 949.4063,274.3281 Q950.1094,274.3281 950.75,274.4844 Q951.4063,274.6406 951.9688,274.9375 L951.9688,277.6563 Q951.3438,277.0781 950.75,276.8125 Q950.1563,276.5313 949.5313,276.5313 Q948.1875,276.5313 947.5,277.6094 Q946.8125,278.6719 946.8125,280.7656 Q946.8125,282.8594 947.5,283.9375 Q948.1875,285 949.5313,285 Q950.1563,285 950.75,284.7344 Q951.3438,284.4531 951.9688,283.875 L951.9688,286.5938 Z "/><text fill="#000000" font-family="sans-serif" font-size="12" lengthAdjust="spacingAndGlyphs" textLength="68" x="963" y="285.1074">participant</text><line style="stroke: #A80036; stroke-width: 1.5;" x1="935" x2="1033" y1="296.9531" y2="296.9531"/><line style="stroke: #A80036; stroke-width: 1.5;" x1="935" x2="1033" y1="304.9531" y2="304.9531"/></a><!--MD5=[b4d475f36669eac2ac4b1a7424da64db]
class C_0000885514871619471610--><a href="structclanguml_1_1sequence__diagram_1_1model_1_1class__.html" target="_top" title="Sequence diagram participant representing a class." xlink:actuate="onRequest" xlink:href="structclanguml_1_1sequence__diagram_1_1model_1_1class__.html" xlink:show="new" xlink:title="Sequence diagram participant representing a class." xlink:type="simple"><rect fill="#FEFECE" filter="url(#ftz67wv2rjunm)" height="48" id="C_0000885514871619471610" style="stroke: #A80036; stroke-width: 1.5;" width="70" x="941" y="372.9531"/><ellipse cx="956" cy="388.9531" fill="#ADD1B2" rx="11" ry="11" style="stroke: #A80036; stroke-width: 1.0;"/><path d="M958.9688,394.5938 Q958.3906,394.8906 957.75,395.0313 Q957.1094,395.1875 956.4063,395.1875 Q953.9063,395.1875 952.5781,393.5469 Q951.2656,391.8906 951.2656,388.7656 Q951.2656,385.6406 952.5781,383.9844 Q953.9063,382.3281 956.4063,382.3281 Q957.1094,382.3281 957.75,382.4844 Q958.4063,382.6406 958.9688,382.9375 L958.9688,385.6563 Q958.3438,385.0781 957.75,384.8125 Q957.1563,384.5313 956.5313,384.5313 Q955.1875,384.5313 954.5,385.6094 Q953.8125,386.6719 953.8125,388.7656 Q953.8125,390.8594 954.5,391.9375 Q955.1875,393 956.5313,393 Q957.1563,393 957.75,392.7344 Q958.3438,392.4531 958.9688,391.875 L958.9688,394.5938 Z "/><text fill="#000000" font-family="sans-serif" font-size="12" lengthAdjust="spacingAndGlyphs" textLength="38" x="970" y="393.1074">class_</text><line style="stroke: #A80036; stroke-width: 1.5;" x1="942" x2="1010" y1="404.9531" y2="404.9531"/><line style="stroke: #A80036; stroke-width: 1.5;" x1="942" x2="1010" y1="412.9531" y2="412.9531"/></a><!--MD5=[fea9086604aaaceeec1cf807579b2064]
class C_0000232638456031681828--><a href="structclanguml_1_1sequence__diagram_1_1model_1_1function.html" target="_top" title="Participant mode representing a free function." xlink:actuate="onRequest" xlink:href="structclanguml_1_1sequence__diagram_1_1model_1_1function.html" xlink:show="new" xlink:title="Participant mode representing a free function." xlink:type="simple"><rect fill="#FEFECE" filter="url(#ftz67wv2rjunm)" height="48" id="C_0000232638456031681828" style="stroke: #A80036; stroke-width: 1.5;" width="83" x="1046.5" y="372.9531"/><ellipse cx="1061.5" cy="388.9531" fill="#ADD1B2" rx="11" ry="11" style="stroke: #A80036; stroke-width: 1.0;"/><path d="M1064.4688,394.5938 Q1063.8906,394.8906 1063.25,395.0313 Q1062.6094,395.1875 1061.9063,395.1875 Q1059.4063,395.1875 1058.0781,393.5469 Q1056.7656,391.8906 1056.7656,388.7656 Q1056.7656,385.6406 1058.0781,383.9844 Q1059.4063,382.3281 1061.9063,382.3281 Q1062.6094,382.3281 1063.25,382.4844 Q1063.9063,382.6406 1064.4688,382.9375 L1064.4688,385.6563 Q1063.8438,385.0781 1063.25,384.8125 Q1062.6563,384.5313 1062.0313,384.5313 Q1060.6875,384.5313 1060,385.6094 Q1059.3125,386.6719 1059.3125,388.7656 Q1059.3125,390.8594 1060,391.9375 Q1060.6875,393 1062.0313,393 Q1062.6563,393 1063.25,392.7344 Q1063.8438,392.4531 1064.4688,391.875 L1064.4688,394.5938 Z "/><text fill="#000000" font-family="sans-serif" font-size="12" lengthAdjust="spacingAndGlyphs" textLength="51" x="1075.5" y="393.1074">function</text><line style="stroke: #A80036; stroke-width: 1.5;" x1="1047.5" x2="1128.5" y1="404.9531" y2="404.9531"/><line style="stroke: #A80036; stroke-width: 1.5;" x1="1047.5" x2="1128.5" y1="412.9531" y2="412.9531"/></a><!--MD5=[78f12b5739bf72f527e2506c0e981f4b]
class C_0000817665972547784504--><a href="structclanguml_1_1sequence__diagram_1_1model_1_1method.html" target="_top" title="Participant model representing a method" xlink:actuate="onRequest" xlink:href="structclanguml_1_1sequence__diagram_1_1model_1_1method.html" xlink:show="new" xlink:title="Participant model representing a method" xlink:type="simple"><rect fill="#FEFECE" filter="url(#ftz67wv2rjunm)" height="48" id="C_0000817665972547784504" style="stroke: #A80036; stroke-width: 1.5;" width="80" x="934" y="480.9531"/><ellipse cx="949" cy="496.9531" fill="#ADD1B2" rx="11" ry="11" style="stroke: #A80036; stroke-width: 1.0;"/><path d="M951.9688,502.5938 Q951.3906,502.8906 950.75,503.0313 Q950.1094,503.1875 949.4063,503.1875 Q946.9063,503.1875 945.5781,501.5469 Q944.2656,499.8906 944.2656,496.7656 Q944.2656,493.6406 945.5781,491.9844 Q946.9063,490.3281 949.4063,490.3281 Q950.1094,490.3281 950.75,490.4844 Q951.4063,490.6406 951.9688,490.9375 L951.9688,493.6563 Q951.3438,493.0781 950.75,492.8125 Q950.1563,492.5313 949.5313,492.5313 Q948.1875,492.5313 947.5,493.6094 Q946.8125,494.6719 946.8125,496.7656 Q946.8125,498.8594 947.5,499.9375 Q948.1875,501 949.5313,501 Q950.1563,501 950.75,500.7344 Q951.3438,500.4531 951.9688,499.875 L951.9688,502.5938 Z "/><text fill="#000000" font-family="sans-serif" font-size="12" lengthAdjust="spacingAndGlyphs" textLength="48" x="963" y="501.1074">method</text><line style="stroke: #A80036; stroke-width: 1.5;" x1="935" x2="1013" y1="512.9531" y2="512.9531"/><line style="stroke: #A80036; stroke-width: 1.5;" x1="935" x2="1013" y1="520.9531" y2="520.9531"/></a><!--MD5=[32d760b788d79d5e0bfcc0697e979e7d]
class C_0002280191967493310558--><a href="structclanguml_1_1sequence__diagram_1_1model_1_1function__template.html" target="_top" title="Participant model representing a function template." xlink:actuate="onRequest" xlink:href="structclanguml_1_1sequence__diagram_1_1model_1_1function__template.html" xlink:show="new" xlink:title="Participant model representing a function template." xlink:type="simple"><rect fill="#FEFECE" filter="url(#ftz67wv2rjunm)" height="48" id="C_0002280191967493310558" style="stroke: #A80036; stroke-width: 1.5;" width="145" x="1049.5" y="480.9531"/><ellipse cx="1064.5" cy="496.9531" fill="#ADD1B2" rx="11" ry="11" style="stroke: #A80036; stroke-width: 1.0;"/><path d="M1067.4688,502.5938 Q1066.8906,502.8906 1066.25,503.0313 Q1065.6094,503.1875 1064.9063,503.1875 Q1062.4063,503.1875 1061.0781,501.5469 Q1059.7656,499.8906 1059.7656,496.7656 Q1059.7656,493.6406 1061.0781,491.9844 Q1062.4063,490.3281 1064.9063,490.3281 Q1065.6094,490.3281 1066.25,490.4844 Q1066.9063,490.6406 1067.4688,490.9375 L1067.4688,493.6563 Q1066.8438,493.0781 1066.25,492.8125 Q1065.6563,492.5313 1065.0313,492.5313 Q1063.6875,492.5313 1063,493.6094 Q1062.3125,494.6719 1062.3125,496.7656 Q1062.3125,498.8594 1063,499.9375 Q1063.6875,501 1065.0313,501 Q1065.6563,501 1066.25,500.7344 Q1066.8438,500.4531 1067.4688,499.875 L1067.4688,502.5938 Z "/><text fill="#000000" font-family="sans-serif" font-size="12" lengthAdjust="spacingAndGlyphs" textLength="113" x="1078.5" y="501.1074">function_template</text><line style="stroke: #A80036; stroke-width: 1.5;" x1="1050.5" x2="1193.5" y1="512.9531" y2="512.9531"/><line style="stroke: #A80036; stroke-width: 1.5;" x1="1050.5" x2="1193.5" y1="520.9531" y2="520.9531"/></a><!--MD5=[9d476f3ed11f81b3c86253c8a660c2f2]
reverse link C_0002077846075979426940 to C_0002046336758797367926--><path d="M266.34,157.7931 C232.93,162.8231 199.69,169.8431 186,178.9531 C154.79,199.7331 134.21,239.3931 123.59,264.7131 " fill="none" id="C_0002077846075979426940&lt;-C_0002046336758797367926" style="stroke: #A80036; stroke-width: 1.0;"/><polygon fill="none" points="265.66,150.8231,286.44,154.9931,267.6,164.6831,265.66,150.8231" style="stroke: #A80036; stroke-width: 1.0;"/><!--MD5=[4f221eabf3421229e7e20303bd40a63c]
reverse link C_0002077846075979426940 to C_0000785714713072053129--><path d="M315.55,186.6231 C292.33,216.4431 275.72,245.0531 265.11,264.6031 " fill="none" id="C_0002077846075979426940&lt;-C_0000785714713072053129" style="stroke: #A80036; stroke-width: 1.0;"/><polygon fill="none" points="310.24,182.0531,328.3,170.9631,321.1,190.8931,310.24,182.0531" style="stroke: #A80036; stroke-width: 1.0;"/><!--MD5=[8b57dc45e019868d19d5475e79e2f9cd]
reverse link C_0002077846075979426940 to C_0002143286684830686854--><path d="M362.95,190.7831 C367.48,215.1531 372.97,244.7231 376.7,264.8031 " fill="none" id="C_0002077846075979426940&lt;-C_0002143286684830686854" style="stroke: #A80036; stroke-width: 1.0;"/><polygon fill="none" points="356.06,192.0131,359.29,171.0731,369.83,189.4531,356.06,192.0131" style="stroke: #A80036; stroke-width: 1.0;"/><!--MD5=[1de74a5a0bafa25219efbd6fc8924314]
reverse link C_0002077846075979426940 to C_0001292034357466653182--><path d="M443.66,150.4531 C550.28,154.1631 717.97,162.5431 742,178.9531 C771.02,198.7631 784.73,239.1131 790.76,264.7731 " fill="none" id="C_0002077846075979426940&lt;-C_0001292034357466653182" style="stroke: #A80036; stroke-width: 1.0;"/><polygon fill="none" points="443.3,157.4431,423.54,149.7831,443.76,143.4531,443.3,157.4431" style="stroke: #A80036; stroke-width: 1.0;"/><!--MD5=[51c9aec8324745136c18c88ab3ea6908]
reverse link C_0002077846075979426940 to C_0000724392977093650506--><path d="M443.56,148.7131 C513.48,150.9531 604.07,158.0031 634,178.9531 C662.89,199.1831 677.07,239.4031 683.43,264.9231 " fill="none" id="C_0002077846075979426940&lt;-C_0000724392977093650506" style="stroke: #A80036; stroke-width: 1.0;"/><polygon fill="none" points="443.34,155.7131,423.54,148.1831,443.72,141.7231,443.34,155.7131" style="stroke: #A80036; stroke-width: 1.0;"/><!--MD5=[306ac7020e3b65bfcf4fa2a5c5f508b9]
reverse link C_0002077846075979426940 to C_0001374849051752224500--><path d="M441.27,180.8531 C490.56,210.6631 526.65,243.1331 549.04,264.7831 " fill="none" id="C_0002077846075979426940&lt;-C_0001374849051752224500" style="stroke: #A80036; stroke-width: 1.0;"/><polygon fill="none" points="437.46,186.7431,423.67,170.6531,444.48,174.6231,437.46,186.7431" style="stroke: #A80036; stroke-width: 1.0;"/><!--MD5=[0cbd70298f55c4689e25f50e6b8f6293]
reverse link C_0002077846075979426940 to C_0001400215772842495226--><path d="M443.81,147.2631 C564.91,147.3831 774.94,151.7331 846,178.9531 C893.9,197.3031 938.36,238.5131 963.27,264.6731 " fill="none" id="C_0002077846075979426940&lt;-C_0001400215772842495226" style="stroke: #A80036; stroke-width: 1.0;"/><polygon fill="none" points="443.73,154.2631,423.73,147.2731,443.72,140.2631,443.73,154.2631" style="stroke: #A80036; stroke-width: 1.0;"/><!--MD5=[b33f1614e5f0bf4794b27e69905bc927]
reverse link C_0001400215772842495226 to C_0000885514871619471610--><path d="M980.75,332.9731 C979.73,346.5331 978.64,360.9931 977.76,372.6331 " fill="none" id="C_0001400215772842495226&lt;-C_0000885514871619471610" style="stroke: #A80036; stroke-width: 1.0;"/><polygon fill="none" points="973.78,332.3731,982.26,312.9531,987.74,333.4231,973.78,332.3731" style="stroke: #A80036; stroke-width: 1.0;"/><!--MD5=[cff630a429a41d6509e30ee5071e7c05]
reverse link C_0001400215772842495226 to C_0000232638456031681828--><path d="M1020.58,327.2331 C1035.4,342.3431 1052.07,359.3331 1065.12,372.6331 " fill="none" id="C_0001400215772842495226&lt;-C_0000232638456031681828" style="stroke: #A80036; stroke-width: 1.0;"/><polygon fill="none" points="1015.58,332.1331,1006.57,312.9531,1025.57,322.3231,1015.58,332.1331" style="stroke: #A80036; stroke-width: 1.0;"/><!--MD5=[aaa21626746a78046d7a511702c30bb7]
reverse link C_0000232638456031681828 to C_0000817665972547784504--><path d="M1048.41,434.7631 C1032.04,449.9931 1013.54,467.1931 999.08,480.6331 " fill="none" id="C_0000232638456031681828&lt;-C_0000817665972547784504" style="stroke: #A80036; stroke-width: 1.0;"/><polygon fill="none" points="1043.85,429.4431,1063.26,420.9531,1053.38,439.7031,1043.85,429.4431" style="stroke: #A80036; stroke-width: 1.0;"/><!--MD5=[ed3960d209e9f24c5c41aa336e94c692]
reverse link C_0000232638456031681828 to C_0002280191967493310558--><path d="M1101.49,440.0131 C1105.93,453.8431 1110.7,468.7131 1114.52,480.6331 " fill="none" id="C_0000232638456031681828&lt;-C_0002280191967493310558" style="stroke: #A80036; stroke-width: 1.0;"/><polygon fill="none" points="1094.82,442.1331,1095.38,420.9531,1108.15,437.8631,1094.82,442.1331" style="stroke: #A80036; stroke-width: 1.0;"/><!--MD5=[8033b5b559fc4c079e7c115f81190cf4]
@startuml
title Stylable diagram element class hierarchy
package [common] as C_0000316605034920222648 {
package [model] as C_0000083721806430512831 {
class "stylable_element" as C_0002077846075979426940
class C_0002077846075979426940 [[classclanguml_1_1common_1_1model_1_1stylable__element.html{Diagram elements to which style can be applied.}]] {
__
}
class "relationship" as C_0002046336758797367926
class C_0002046336758797367926 [[classclanguml_1_1common_1_1model_1_1relationship.html{Class representing any relationship other than inheritance}]] {
__
}
class "source_file" as C_0000785714713072053129
class C_0000785714713072053129 [[classclanguml_1_1common_1_1model_1_1source__file.html{Diagram element representing some file or directory.}]] {
__
}
class "package" as C_0002143286684830686854
class C_0002143286684830686854 [[classclanguml_1_1common_1_1model_1_1package.html{Diagram element representing namespace or directory package}]] {
__
}
}
}
package [class_diagram] as C_0002240167036201725606 {
package [model] as C_0000897124234964432620 {
class "class_" as C_0001292034357466653182
class C_0001292034357466653182 [[classclanguml_1_1class__diagram_1_1model_1_1class__.html{Diagram element representing a class or class template.}]] {
__
}
class "enum_" as C_0000724392977093650506
class C_0000724392977093650506 [[classclanguml_1_1class__diagram_1_1model_1_1enum__.html{enum_}]] {
__
}
class "concept_" as C_0001374849051752224500
class C_0001374849051752224500 [[classclanguml_1_1class__diagram_1_1model_1_1concept__.html{Model of C++ concept.}]] {
__
}
}
}
package [sequence_diagram] as C_0001521862840957629236 {
package [model] as C_0002206969880830639264 {
class "participant" as C_0001400215772842495226
class C_0001400215772842495226 [[structclanguml_1_1sequence__diagram_1_1model_1_1participant.html{Base class for various types of sequence diagram participants}]] {
__
}
class "class_" as C_0000885514871619471610
class C_0000885514871619471610 [[structclanguml_1_1sequence__diagram_1_1model_1_1class__.html{Sequence diagram participant representing a class.}]] {
__
}
class "function" as C_0000232638456031681828
class C_0000232638456031681828 [[structclanguml_1_1sequence__diagram_1_1model_1_1function.html{Participant mode representing a free function.}]] {
__
}
class "method" as C_0000817665972547784504
class C_0000817665972547784504 [[structclanguml_1_1sequence__diagram_1_1model_1_1method.html{Participant model representing a method}]] {
__
}
class "function_template" as C_0002280191967493310558
class C_0002280191967493310558 [[structclanguml_1_1sequence__diagram_1_1model_1_1function__template.html{Participant model representing a function template.}]] {
__
}
}
}
C_0002077846075979426940 <|- - C_0002046336758797367926
C_0002077846075979426940 <|- - C_0000785714713072053129
C_0002077846075979426940 <|- - C_0002143286684830686854
C_0002077846075979426940 <|- - C_0001292034357466653182
C_0002077846075979426940 <|- - C_0000724392977093650506
C_0002077846075979426940 <|- - C_0001374849051752224500
C_0002077846075979426940 <|- - C_0001400215772842495226
C_0001400215772842495226 <|- - C_0000885514871619471610
C_0001400215772842495226 <|- - C_0000232638456031681828
C_0000232638456031681828 <|- - C_0000817665972547784504
C_0000232638456031681828 <|- - C_0002280191967493310558

@enduml

PlantUML version 1.2020.02(Sun Mar 01 11:22:07 CET 2020)
(GPL source distribution)
Java Runtime: OpenJDK Runtime Environment
JVM: OpenJDK 64-Bit Server VM
Java Version: 11.0.20.1+1-post-Ubuntu-0ubuntu122.04
Operating System: Linux
Default Encoding: UTF-8
Language: en
Country: US
--></g></svg>