<?xml version="1.0" encoding="UTF-8" standalone="no"?><svg xmlns="http://www.w3.org/2000/svg" xmlns:xlink="http://www.w3.org/1999/xlink" contentScriptType="application/ecmascript" contentStyleType="text/css" height="562px" preserveAspectRatio="none" style="width:1124px;height:562px;" version="1.1" viewBox="0 0 1124 562" width="1124px" zoomAndPan="magnify"><defs><filter height="300%" id="f1s36z1wuu8f5k" width="300%" x="-1" y="-1"><feGaussianBlur result="blurOut" stdDeviation="2.0"/><feColorMatrix in="blurOut" result="blurOut2" type="matrix" values="0 0 0 0 0 0 0 0 0 0 0 0 0 0 0 0 0 0 .4 0"/><feOffset dx="4.0" dy="4.0" in="blurOut2" result="blurOut3"/><feBlend in="SourceGraphic" in2="blurOut3" mode="normal"/></filter></defs><g><text fill="#000000" font-family="sans-serif" font-size="18" lengthAdjust="spacingAndGlyphs" textLength="481" x="327.5" y="16.708">Template trait diagram element model class hierarchy</text><!--MD5=[7ba9c127878a642fef3f451151dda753]
cluster C_0000316605034920222648--><polygon fill="#FFFFFF" filter="url(#f1s36z1wuu8f5k)" points="22,44.9531,95,44.9531,102,67.25,425,67.25,425,399.9531,22,399.9531,22,44.9531" style="stroke: #000000; stroke-width: 1.5;"/><line style="stroke: #000000; stroke-width: 1.5;" x1="22" x2="102" y1="67.25" y2="67.25"/><text fill="#000000" font-family="sans-serif" font-size="14" font-weight="bold" lengthAdjust="spacingAndGlyphs" textLength="67" x="26" y="59.9482">common</text><!--MD5=[f7110622f5be760311cd0491b75bf8f9]
cluster C_0000083721806430512831--><polygon fill="#FFFFFF" filter="url(#f1s36z1wuu8f5k)" points="46,87.9531,100,87.9531,107,110.25,401,110.25,401,375.9531,46,375.9531,46,87.9531" style="stroke: #000000; stroke-width: 1.5;"/><line style="stroke: #000000; stroke-width: 1.5;" x1="46" x2="107" y1="110.25" y2="110.25"/><text fill="#000000" font-family="sans-serif" font-size="14" font-weight="bold" lengthAdjust="spacingAndGlyphs" textLength="48" x="50" y="102.9482">model</text><!--MD5=[09e992b259734a9820adb2642bf347d2]
cluster C_0002240167036201725606--><polygon fill="#FFFFFF" filter="url(#f1s36z1wuu8f5k)" points="449,233.9531,565,233.9531,572,256.25,723,256.25,723,550.9531,449,550.9531,449,233.9531" style="stroke: #000000; stroke-width: 1.5;"/><line style="stroke: #000000; stroke-width: 1.5;" x1="449" x2="572" y1="256.25" y2="256.25"/><text fill="#000000" font-family="sans-serif" font-size="14" font-weight="bold" lengthAdjust="spacingAndGlyphs" textLength="110" x="453" y="248.9482">class_diagram</text><!--MD5=[5d123d1ba3dda692cf099252127394e7]
cluster C_0000897124234964432620--><polygon fill="#FFFFFF" filter="url(#f1s36z1wuu8f5k)" points="473,276.9531,527,276.9531,534,299.25,699,299.25,699,526.9531,473,526.9531,473,276.9531" style="stroke: #000000; stroke-width: 1.5;"/><line style="stroke: #000000; stroke-width: 1.5;" x1="473" x2="534" y1="299.25" y2="299.25"/><text fill="#000000" font-family="sans-serif" font-size="14" font-weight="bold" lengthAdjust="spacingAndGlyphs" textLength="48" x="477" y="291.9482">model</text><!--MD5=[2319765f5fef5e41f5b55adb85cd73ea]
cluster C_0001521862840957629236--><polygon fill="#FFFFFF" filter="url(#f1s36z1wuu8f5k)" points="771,233.9531,925,233.9531,932,256.25,1102,256.25,1102,399.9531,771,399.9531,771,233.9531" style="stroke: #000000; stroke-width: 1.5;"/><line style="stroke: #000000; stroke-width: 1.5;" x1="771" x2="932" y1="256.25" y2="256.25"/><text fill="#000000" font-family="sans-serif" font-size="14" font-weight="bold" lengthAdjust="spacingAndGlyphs" textLength="148" x="775" y="248.9482">sequence_diagram</text><!--MD5=[aff6d1ed1f9fc56ba8376cf20ecae299]
cluster C_0002206969880830639264--><polygon fill="#FFFFFF" filter="url(#f1s36z1wuu8f5k)" points="795,276.9531,849,276.9531,856,299.25,1078,299.25,1078,375.9531,795,375.9531,795,276.9531" style="stroke: #000000; stroke-width: 1.5;"/><line style="stroke: #000000; stroke-width: 1.5;" x1="795" x2="856" y1="299.25" y2="299.25"/><text fill="#000000" font-family="sans-serif" font-size="14" font-weight="bold" lengthAdjust="spacingAndGlyphs" textLength="48" x="799" y="291.9482">model</text><!--MD5=[913c6f233a96408f73aaa4779df4a12a]
class C_0000178138562743079529--><a href="classclanguml_1_1common_1_1model_1_1template__parameter.html" target="_top" title="Represents template parameter, template arguments or concept         constraints" xlink:actuate="onRequest" xlink:href="classclanguml_1_1common_1_1model_1_1template__parameter.html" xlink:show="new" xlink:title="Represents template parameter, template arguments or concept         constraints" xlink:type="simple"><rect fill="#FEFECE" filter="url(#f1s36z1wuu8f5k)" height="48" id="C_0000178138562743079529" style="stroke: #A80036; stroke-width: 1.5;" width="160" x="62" y="311.9531"/><ellipse cx="77" cy="327.9531" fill="#ADD1B2" rx="11" ry="11" style="stroke: #A80036; stroke-width: 1.0;"/><path d="M79.9688,333.5938 Q79.3906,333.8906 78.75,334.0313 Q78.1094,334.1875 77.4063,334.1875 Q74.9063,334.1875 73.5781,332.5469 Q72.2656,330.8906 72.2656,327.7656 Q72.2656,324.6406 73.5781,322.9844 Q74.9063,321.3281 77.4063,321.3281 Q78.1094,321.3281 78.75,321.4844 Q79.4063,321.6406 79.9688,321.9375 L79.9688,324.6563 Q79.3438,324.0781 78.75,323.8125 Q78.1563,323.5313 77.5313,323.5313 Q76.1875,323.5313 75.5,324.6094 Q74.8125,325.6719 74.8125,327.7656 Q74.8125,329.8594 75.5,330.9375 Q76.1875,332 77.5313,332 Q78.1563,332 78.75,331.7344 Q79.3438,331.4531 79.9688,330.875 L79.9688,333.5938 Z "/><text fill="#000000" font-family="sans-serif" font-size="12" lengthAdjust="spacingAndGlyphs" textLength="128" x="91" y="332.1074">template_parameter</text><line style="stroke: #A80036; stroke-width: 1.5;" x1="63" x2="221" y1="343.9531" y2="343.9531"/><line style="stroke: #A80036; stroke-width: 1.5;" x1="63" x2="221" y1="351.9531" y2="351.9531"/></a><!--MD5=[2827fdd5558f2165e3e9bb4d89032bc9]
class C_0000464715462505216589--><a href="classclanguml_1_1common_1_1model_1_1template__trait.html" target="_top" title="Common interface for template diagram elements." xlink:actuate="onRequest" xlink:href="classclanguml_1_1common_1_1model_1_1template__trait.html" xlink:show="new" xlink:title="Common interface for template diagram elements." xlink:type="simple"><rect fill="#FEFECE" filter="url(#f1s36z1wuu8f5k)" height="48" id="C_0000464715462505216589" style="stroke: #A80036; stroke-width: 1.5;" width="120" x="265" y="122.9531"/><ellipse cx="280" cy="138.9531" fill="#ADD1B2" rx="11" ry="11" style="stroke: #A80036; stroke-width: 1.0;"/><path d="M282.9688,144.5938 Q282.3906,144.8906 281.75,145.0313 Q281.1094,145.1875 280.4063,145.1875 Q277.9063,145.1875 276.5781,143.5469 Q275.2656,141.8906 275.2656,138.7656 Q275.2656,135.6406 276.5781,133.9844 Q277.9063,132.3281 280.4063,132.3281 Q281.1094,132.3281 281.75,132.4844 Q282.4063,132.6406 282.9688,132.9375 L282.9688,135.6563 Q282.3438,135.0781 281.75,134.8125 Q281.1563,134.5313 280.5313,134.5313 Q279.1875,134.5313 278.5,135.6094 Q277.8125,136.6719 277.8125,138.7656 Q277.8125,140.8594 278.5,141.9375 Q279.1875,143 280.5313,143 Q281.1563,143 281.75,142.7344 Q282.3438,142.4531 282.9688,141.875 L282.9688,144.5938 Z "/><text fill="#000000" font-family="sans-serif" font-size="12" lengthAdjust="spacingAndGlyphs" textLength="88" x="294" y="143.1074">template_trait</text><line style="stroke: #A80036; stroke-width: 1.5;" x1="266" x2="384" y1="154.9531" y2="154.9531"/><line style="stroke: #A80036; stroke-width: 1.5;" x1="266" x2="384" y1="162.9531" y2="162.9531"/></a><!--MD5=[3fbd1476055f798f732379619b702fab]
class C_0000204145716468348671--><a href="classclanguml_1_1class__diagram_1_1model_1_1class__method.html" target="_top" title="Class method model." xlink:actuate="onRequest" xlink:href="classclanguml_1_1class__diagram_1_1model_1_1class__method.html" xlink:show="new" xlink:title="Class method model." xlink:type="simple"><rect fill="#FEFECE" filter="url(#f1s36z1wuu8f5k)" height="48" id="C_0000204145716468348671" style="stroke: #A80036; stroke-width: 1.5;" width="118" x="523" y="462.9531"/><ellipse cx="538" cy="478.9531" fill="#ADD1B2" rx="11" ry="11" style="stroke: #A80036; stroke-width: 1.0;"/><path d="M540.9688,484.5938 Q540.3906,484.8906 539.75,485.0313 Q539.1094,485.1875 538.4063,485.1875 Q535.9063,485.1875 534.5781,483.5469 Q533.2656,481.8906 533.2656,478.7656 Q533.2656,475.6406 534.5781,473.9844 Q535.9063,472.3281 538.4063,472.3281 Q539.1094,472.3281 539.75,472.4844 Q540.4063,472.6406 540.9688,472.9375 L540.9688,475.6563 Q540.3438,475.0781 539.75,474.8125 Q539.1563,474.5313 538.5313,474.5313 Q537.1875,474.5313 536.5,475.6094 Q535.8125,476.6719 535.8125,478.7656 Q535.8125,480.8594 536.5,481.9375 Q537.1875,483 538.5313,483 Q539.1563,483 539.75,482.7344 Q540.3438,482.4531 540.9688,481.875 L540.9688,484.5938 Z "/><text fill="#000000" font-family="sans-serif" font-size="12" lengthAdjust="spacingAndGlyphs" textLength="86" x="552" y="483.1074">class_method</text><line style="stroke: #A80036; stroke-width: 1.5;" x1="524" x2="640" y1="494.9531" y2="494.9531"/><line style="stroke: #A80036; stroke-width: 1.5;" x1="524" x2="640" y1="502.9531" y2="502.9531"/></a><!--MD5=[ae47341ca1a22ddcd7d0b4ea2daf1996]
class C_0001292034357466653182--><a href="classclanguml_1_1class__diagram_1_1model_1_1class__.html" target="_top" title="Diagram element representing a class or class template." xlink:actuate="onRequest" xlink:href="classclanguml_1_1class__diagram_1_1model_1_1class__.html" xlink:show="new" xlink:title="Diagram element representing a class or class template." xlink:type="simple"><rect fill="#FEFECE" filter="url(#f1s36z1wuu8f5k)" height="48" id="C_0001292034357466653182" style="stroke: #A80036; stroke-width: 1.5;" width="70" x="489" y="311.9531"/><ellipse cx="504" cy="327.9531" fill="#ADD1B2" rx="11" ry="11" style="stroke: #A80036; stroke-width: 1.0;"/><path d="M506.9688,333.5938 Q506.3906,333.8906 505.75,334.0313 Q505.1094,334.1875 504.4063,334.1875 Q501.9063,334.1875 500.5781,332.5469 Q499.2656,330.8906 499.2656,327.7656 Q499.2656,324.6406 500.5781,322.9844 Q501.9063,321.3281 504.4063,321.3281 Q505.1094,321.3281 505.75,321.4844 Q506.4063,321.6406 506.9688,321.9375 L506.9688,324.6563 Q506.3438,324.0781 505.75,323.8125 Q505.1563,323.5313 504.5313,323.5313 Q503.1875,323.5313 502.5,324.6094 Q501.8125,325.6719 501.8125,327.7656 Q501.8125,329.8594 502.5,330.9375 Q503.1875,332 504.5313,332 Q505.1563,332 505.75,331.7344 Q506.3438,331.4531 506.9688,330.875 L506.9688,333.5938 Z "/><text fill="#000000" font-family="sans-serif" font-size="12" lengthAdjust="spacingAndGlyphs" textLength="38" x="518" y="332.1074">class_</text><line style="stroke: #A80036; stroke-width: 1.5;" x1="490" x2="558" y1="343.9531" y2="343.9531"/><line style="stroke: #A80036; stroke-width: 1.5;" x1="490" x2="558" y1="351.9531" y2="351.9531"/></a><!--MD5=[dd3d40541e24383f89990969973b4760]
class C_0001374849051752224500--><a href="classclanguml_1_1class__diagram_1_1model_1_1concept__.html" target="_top" title="Model of C++ concept." xlink:actuate="onRequest" xlink:href="classclanguml_1_1class__diagram_1_1model_1_1concept__.html" xlink:show="new" xlink:title="Model of C++ concept." xlink:type="simple"><rect fill="#FEFECE" filter="url(#f1s36z1wuu8f5k)" height="48" id="C_0001374849051752224500" style="stroke: #A80036; stroke-width: 1.5;" width="89" x="594.5" y="311.9531"/><ellipse cx="609.5" cy="327.9531" fill="#ADD1B2" rx="11" ry="11" style="stroke: #A80036; stroke-width: 1.0;"/><path d="M612.4688,333.5938 Q611.8906,333.8906 611.25,334.0313 Q610.6094,334.1875 609.9063,334.1875 Q607.4063,334.1875 606.0781,332.5469 Q604.7656,330.8906 604.7656,327.7656 Q604.7656,324.6406 606.0781,322.9844 Q607.4063,321.3281 609.9063,321.3281 Q610.6094,321.3281 611.25,321.4844 Q611.9063,321.6406 612.4688,321.9375 L612.4688,324.6563 Q611.8438,324.0781 611.25,323.8125 Q610.6563,323.5313 610.0313,323.5313 Q608.6875,323.5313 608,324.6094 Q607.3125,325.6719 607.3125,327.7656 Q607.3125,329.8594 608,330.9375 Q608.6875,332 610.0313,332 Q610.6563,332 611.25,331.7344 Q611.8438,331.4531 612.4688,330.875 L612.4688,333.5938 Z "/><text fill="#000000" font-family="sans-serif" font-size="12" lengthAdjust="spacingAndGlyphs" textLength="57" x="623.5" y="332.1074">concept_</text><line style="stroke: #A80036; stroke-width: 1.5;" x1="595.5" x2="682.5" y1="343.9531" y2="343.9531"/><line style="stroke: #A80036; stroke-width: 1.5;" x1="595.5" x2="682.5" y1="351.9531" y2="351.9531"/></a><!--MD5=[b4d475f36669eac2ac4b1a7424da64db]
class C_0000885514871619471610--><a href="structclanguml_1_1sequence__diagram_1_1model_1_1class__.html" target="_top" title="Sequence diagram participant representing a class." xlink:actuate="onRequest" xlink:href="structclanguml_1_1sequence__diagram_1_1model_1_1class__.html" xlink:show="new" xlink:title="Sequence diagram participant representing a class." xlink:type="simple"><rect fill="#FEFECE" filter="url(#f1s36z1wuu8f5k)" height="48" id="C_0000885514871619471610" style="stroke: #A80036; stroke-width: 1.5;" width="70" x="811" y="311.9531"/><ellipse cx="826" cy="327.9531" fill="#ADD1B2" rx="11" ry="11" style="stroke: #A80036; stroke-width: 1.0;"/><path d="M828.9688,333.5938 Q828.3906,333.8906 827.75,334.0313 Q827.1094,334.1875 826.4063,334.1875 Q823.9063,334.1875 822.5781,332.5469 Q821.2656,330.8906 821.2656,327.7656 Q821.2656,324.6406 822.5781,322.9844 Q823.9063,321.3281 826.4063,321.3281 Q827.1094,321.3281 827.75,321.4844 Q828.4063,321.6406 828.9688,321.9375 L828.9688,324.6563 Q828.3438,324.0781 827.75,323.8125 Q827.1563,323.5313 826.5313,323.5313 Q825.1875,323.5313 824.5,324.6094 Q823.8125,325.6719 823.8125,327.7656 Q823.8125,329.8594 824.5,330.9375 Q825.1875,332 826.5313,332 Q827.1563,332 827.75,331.7344 Q828.3438,331.4531 828.9688,330.875 L828.9688,333.5938 Z "/><text fill="#000000" font-family="sans-serif" font-size="12" lengthAdjust="spacingAndGlyphs" textLength="38" x="840" y="332.1074">class_</text><line style="stroke: #A80036; stroke-width: 1.5;" x1="812" x2="880" y1="343.9531" y2="343.9531"/><line style="stroke: #A80036; stroke-width: 1.5;" x1="812" x2="880" y1="351.9531" y2="351.9531"/></a><!--MD5=[32d760b788d79d5e0bfcc0697e979e7d]
class C_0002280191967493310558--><a href="structclanguml_1_1sequence__diagram_1_1model_1_1function__template.html" target="_top" title="Participant model representing a function template." xlink:actuate="onRequest" xlink:href="structclanguml_1_1sequence__diagram_1_1model_1_1function__template.html" xlink:show="new" xlink:title="Participant model representing a function template." xlink:type="simple"><rect fill="#FEFECE" filter="url(#f1s36z1wuu8f5k)" height="48" id="C_0002280191967493310558" style="stroke: #A80036; stroke-width: 1.5;" width="145" x="916.5" y="311.9531"/><ellipse cx="931.5" cy="327.9531" fill="#ADD1B2" rx="11" ry="11" style="stroke: #A80036; stroke-width: 1.0;"/><path d="M934.4688,333.5938 Q933.8906,333.8906 933.25,334.0313 Q932.6094,334.1875 931.9063,334.1875 Q929.4063,334.1875 928.0781,332.5469 Q926.7656,330.8906 926.7656,327.7656 Q926.7656,324.6406 928.0781,322.9844 Q929.4063,321.3281 931.9063,321.3281 Q932.6094,321.3281 933.25,321.4844 Q933.9063,321.6406 934.4688,321.9375 L934.4688,324.6563 Q933.8438,324.0781 933.25,323.8125 Q932.6563,323.5313 932.0313,323.5313 Q930.6875,323.5313 930,324.6094 Q929.3125,325.6719 929.3125,327.7656 Q929.3125,329.8594 930,330.9375 Q930.6875,332 932.0313,332 Q932.6563,332 933.25,331.7344 Q933.8438,331.4531 934.4688,330.875 L934.4688,333.5938 Z "/><text fill="#000000" font-family="sans-serif" font-size="12" lengthAdjust="spacingAndGlyphs" textLength="113" x="945.5" y="332.1074">function_template</text><line style="stroke: #A80036; stroke-width: 1.5;" x1="917.5" x2="1060.5" y1="343.9531" y2="343.9531"/><line style="stroke: #A80036; stroke-width: 1.5;" x1="917.5" x2="1060.5" y1="351.9531" y2="351.9531"/></a><!--MD5=[8505caf16705ed6f5893bf86e39d9f72]
reverse link C_0000178138562743079529 to C_0000178138562743079529--><path d="M235.17,321.1831 C248.24,323.5931 257,328.5231 257,335.9531 C257,345.6631 242.06,351.0931 222.08,352.2231 " fill="none" id="C_0000178138562743079529&lt;-C_0000178138562743079529" style="stroke: #A80036; stroke-width: 1.0;"/><polygon fill="#FFFFFF" points="222.08,319.6831,227.5835,324.3427,234.0014,321.0546,228.4978,316.3951,222.08,319.6831" style="stroke: #A80036; stroke-width: 1.0;"/><rect fill="none" height="6" style="stroke: #C82930; stroke-width: 1.0;" width="6" x="265" y="333.5195"/><text fill="#000000" font-family="sans-serif" font-size="13" lengthAdjust="spacingAndGlyphs" textLength="121" x="275" y="340.52">template_params_</text><!--MD5=[1421a7cb66ca20c748d686120e75df1f]
reverse link C_0000464715462505216589 to C_0000178138562743079529--><path d="M292.9,180.7531 C256.1,218.3531 196.73,279.0331 164.52,311.9431 " fill="none" id="C_0000464715462505216589&lt;-C_0000178138562743079529" style="stroke: #A80036; stroke-width: 1.0;"/><polygon fill="#FFFFFF" points="302.19,171.2631,295.1336,172.7487,293.7909,179.8337,300.8473,178.3481,302.19,171.2631" style="stroke: #A80036; stroke-width: 1.0;"/><rect fill="none" height="6" style="stroke: #C82930; stroke-width: 1.0;" width="6" x="274" y="207.0195"/><text fill="#000000" font-family="sans-serif" font-size="13" lengthAdjust="spacingAndGlyphs" textLength="72" x="284" y="214.02">templates_</text><!--MD5=[a1db1d9650f85b3167a87ae281cd12a2]
reverse link C_0000464715462505216589 to C_0000204145716468348671--><path d="M405.35,153.0331 C504.49,161.1831 664.46,181.0631 701,225.9531 C752.06,288.6931 739.45,336.7831 701,407.9531 C687.79,432.4031 663.21,450.4231 639.8,462.9531 " fill="none" id="C_0000464715462505216589&lt;-C_0000204145716468348671" style="stroke: #A80036; stroke-width: 1.0;"/><polygon fill="none" points="404.58,160.0031,385.19,151.4731,405.67,146.0431,404.58,160.0031" style="stroke: #A80036; stroke-width: 1.0;"/><!--MD5=[5772835d8c5fc770ec72554e912856e1]
reverse link C_0001292034357466653182 to C_0000204145716468348671--><path d="M537.9,372.6731 C548.79,400.6431 563.62,438.7331 573,462.8331 " fill="none" id="C_0001292034357466653182&lt;-C_0000204145716468348671" style="stroke: #A80036; stroke-width: 1.0;"/><polygon fill="#FFFFFF" points="533.06,360.2331,531.5083,367.2753,537.4119,371.4162,538.9636,364.374,533.06,360.2331" style="stroke: #A80036; stroke-width: 1.0;"/><rect fill="none" height="6" style="stroke: #C82930; stroke-width: 1.0;" width="6" x="562" y="422.0195"/><text fill="#000000" font-family="sans-serif" font-size="13" lengthAdjust="spacingAndGlyphs" textLength="64" x="572" y="429.02">methods_</text><!--MD5=[37b81943733c6f0afb346b14cdc09a31]
reverse link C_0000464715462505216589 to C_0001292034357466653182--><path d="M364.6,185.1731 C404.82,222.9631 465.83,280.2931 499.51,311.9431 " fill="none" id="C_0000464715462505216589&lt;-C_0001292034357466653182" style="stroke: #A80036; stroke-width: 1.0;"/><polygon fill="none" points="359.58,190.0531,349.8,171.2631,369.17,179.8531,359.58,190.0531" style="stroke: #A80036; stroke-width: 1.0;"/><!--MD5=[c4287a760a24872c540bdd439fc98865]
reverse link C_0000464715462505216589 to C_0001374849051752224500--><path d="M405.09,157.2031 C458.55,166.8531 527.8,186.4231 577,225.9531 C604.83,248.3131 622.45,286.7631 631.52,311.5031 " fill="none" id="C_0000464715462505216589&lt;-C_0001374849051752224500" style="stroke: #A80036; stroke-width: 1.0;"/><polygon fill="none" points="403.69,164.0631,385.09,153.9131,405.96,150.2531,403.69,164.0631" style="stroke: #A80036; stroke-width: 1.0;"/><!--MD5=[419d091341342c34e8d2184e460395cb]
reverse link C_0000464715462505216589 to C_0000885514871619471610--><path d="M405.29,149.4631 C515.18,152.9131 705.39,164.1631 763,200.9531 C803.71,226.9531 827.74,280.7931 838.74,311.7331 " fill="none" id="C_0000464715462505216589&lt;-C_0000885514871619471610" style="stroke: #A80036; stroke-width: 1.0;"/><polygon fill="none" points="404.89,156.4631,385.1,148.8931,405.29,142.4631,404.89,156.4631" style="stroke: #A80036; stroke-width: 1.0;"/><!--MD5=[43850a4dbbd6500b965033dc7940cfc7]
reverse link C_0000464715462505216589 to C_0002280191967493310558--><path d="M405.22,150.7531 C543.21,156.8931 818.44,175.2631 899,225.9531 C933.27,247.5131 960.75,286.5631 975.96,311.6031 " fill="none" id="C_0000464715462505216589&lt;-C_0002280191967493310558" style="stroke: #A80036; stroke-width: 1.0;"/><polygon fill="none" points="404.79,157.7431,385.1,149.9031,405.38,143.7531,404.79,157.7431" style="stroke: #A80036; stroke-width: 1.0;"/><!--MD5=[c9b6795ecf42729a36c52048bcb72ec0]
@startuml
title Template trait diagram element model class hierarchy
package [common] as C_0000316605034920222648 {
package [model] as C_0000083721806430512831 {
class "template_parameter" as C_0000178138562743079529
class C_0000178138562743079529 [[classclanguml_1_1common_1_1model_1_1template__parameter.html{Represents template parameter, template arguments or concept         constraints}]] {
__
}
class "template_trait" as C_0000464715462505216589
class C_0000464715462505216589 [[classclanguml_1_1common_1_1model_1_1template__trait.html{Common interface for template diagram elements.}]] {
__
}
}
}
package [class_diagram] as C_0002240167036201725606 {
package [model] as C_0000897124234964432620 {
class "class_method" as C_0000204145716468348671
class C_0000204145716468348671 [[classclanguml_1_1class__diagram_1_1model_1_1class__method.html{Class method model.}]] {
__
}
class "class_" as C_0001292034357466653182
class C_0001292034357466653182 [[classclanguml_1_1class__diagram_1_1model_1_1class__.html{Diagram element representing a class or class template.}]] {
__
}
class "concept_" as C_0001374849051752224500
class C_0001374849051752224500 [[classclanguml_1_1class__diagram_1_1model_1_1concept__.html{Model of C++ concept.}]] {
__
}
}
}
package [sequence_diagram] as C_0001521862840957629236 {
package [model] as C_0002206969880830639264 {
class "class_" as C_0000885514871619471610
class C_0000885514871619471610 [[structclanguml_1_1sequence__diagram_1_1model_1_1class__.html{Sequence diagram participant representing a class.}]] {
__
}
class "function_template" as C_0002280191967493310558
class C_0002280191967493310558 [[structclanguml_1_1sequence__diagram_1_1model_1_1function__template.html{Participant model representing a function template.}]] {
__
}
}
}
C_0000178138562743079529 o- - C_0000178138562743079529 : -template_params_
C_0000464715462505216589 o- - C_0000178138562743079529 : -templates_
C_0000464715462505216589 <|- - C_0000204145716468348671
C_0001292034357466653182 o- - C_0000204145716468348671 : -methods_
C_0000464715462505216589 <|- - C_0001292034357466653182
C_0000464715462505216589 <|- - C_0001374849051752224500
C_0000464715462505216589 <|- - C_0000885514871619471610
C_0000464715462505216589 <|- - C_0002280191967493310558

@enduml

PlantUML version 1.2020.02(Sun Mar 01 11:22:07 CET 2020)
(GPL source distribution)
Java Runtime: OpenJDK Runtime Environment
JVM: OpenJDK 64-Bit Server VM
Java Version: 11.0.20.1+1-post-Ubuntu-0ubuntu122.04
Operating System: Linux
Default Encoding: UTF-8
Language: en
Country: US
--></g></svg>