<svg xmlns="http://www.w3.org/2000/svg" xmlns:xlink="http://www.w3.org/1999/xlink" contentStyleType="text/css" data-diagram-type="CLASS" height="423px" preserveAspectRatio="none" style="width:1936px;height:423px;background:#FFFFFF;" version="1.1" viewBox="0 0 1936 423" width="1936px" zoomAndPan="magnify"><title>'drobjectbase' class hierarchy</title><defs/><g><text fill="#000000" font-family="sans-serif" font-size="14" font-weight="bold" lengthAdjust="spacing" textLength="235.5869" x="843.2876" y="22.9951">'drobjectbase' class hierarchy</text><!--class C_0007589431571026341200--><g id="elem_C_0007589431571026341200"><rect codeLine="3" fill="#F1F1F1" height="48" id="C_0007589431571026341200" rx="2.5" ry="2.5" style="stroke:#181818;stroke-width:0.5;" width="128.2227" x="833" y="44.2969"/><ellipse cx="848" cy="60.2969" fill="#ADD1B2" rx="11" ry="11" style="stroke:#181818;stroke-width:1;"/><path d="M850.9688,65.9375 Q850.3906,66.2344 849.75,66.375 Q849.1094,66.5313 848.4063,66.5313 Q845.9063,66.5313 844.5781,64.8906 Q843.2656,63.2344 843.2656,60.1094 Q843.2656,56.9844 844.5781,55.3281 Q845.9063,53.6719 848.4063,53.6719 Q849.1094,53.6719 849.75,53.8281 Q850.4063,53.9844 850.9688,54.2813 L850.9688,57 Q850.3438,56.4219 849.75,56.1563 Q849.1563,55.875 848.5313,55.875 Q847.1875,55.875 846.5,56.9531 Q845.8125,58.0156 845.8125,60.1094 Q845.8125,62.2031 846.5,63.2813 Q847.1875,64.3438 848.5313,64.3438 Q849.1563,64.3438 849.75,64.0781 Q850.3438,63.7969 850.9688,63.2188 L850.9688,65.9375 Z " fill="#000000"/><text fill="#000000" font-family="sans-serif" font-size="14" lengthAdjust="spacing" textLength="96.2227" x="862" y="65.1436">DrObjectBase</text><line style="stroke:#181818;stroke-width:0.5;" x1="834" x2="960.2227" y1="76.2969" y2="76.2969"/><line style="stroke:#181818;stroke-width:0.5;" x1="834" x2="960.2227" y1="84.2969" y2="84.2969"/></g><!--class C_0007426810552443098638--><g id="elem_C_0007426810552443098638"><rect codeLine="7" fill="#F1F1F1" height="48" id="C_0007426810552443098638" rx="2.5" ry="2.5" style="stroke:#181818;stroke-width:0.5;" width="105.4619" x="844.5" y="152.2969"/><ellipse cx="859.5" cy="168.2969" fill="#ADD1B2" rx="11" ry="11" style="stroke:#181818;stroke-width:1;"/><path d="M862.4688,173.9375 Q861.8906,174.2344 861.25,174.375 Q860.6094,174.5313 859.9063,174.5313 Q857.4063,174.5313 856.0781,172.8906 Q854.7656,171.2344 854.7656,168.1094 Q854.7656,164.9844 856.0781,163.3281 Q857.4063,161.6719 859.9063,161.6719 Q860.6094,161.6719 861.25,161.8281 Q861.9063,161.9844 862.4688,162.2813 L862.4688,165 Q861.8438,164.4219 861.25,164.1563 Q860.6563,163.875 860.0313,163.875 Q858.6875,163.875 858,164.9531 Q857.3125,166.0156 857.3125,168.1094 Q857.3125,170.2031 858,171.2813 Q858.6875,172.3438 860.0313,172.3438 Q860.6563,172.3438 861.25,172.0781 Q861.8438,171.7969 862.4688,171.2188 L862.4688,173.9375 Z " fill="#000000"/><text fill="#000000" font-family="sans-serif" font-size="14" lengthAdjust="spacing" textLength="62.1318" x="873.5" y="173.1436">DrObject</text><rect fill="#FFFFFF" height="15.9688" style="stroke:#181818;stroke-width:1;stroke-dasharray:2.0,2.0;" width="9.3301" x="943.6318" y="149.2969"/><text fill="#000000" font-family="sans-serif" font-size="12" font-style="italic" lengthAdjust="spacing" textLength="7.3301" x="944.6318" y="161.4355">T</text><line style="stroke:#181818;stroke-width:0.5;" x1="845.5" x2="948.9619" y1="184.2969" y2="184.2969"/><line style="stroke:#181818;stroke-width:0.5;" x1="845.5" x2="948.9619" y1="192.2969" y2="192.2969"/></g><!--class C_0013299971319634221181--><g id="elem_C_0013299971319634221181"><rect codeLine="11" fill="#F1F1F1" height="48" id="C_0013299971319634221181" rx="2.5" ry="2.5" style="stroke:#181818;stroke-width:0.5;" width="177.127" x="239.5" y="152.2969"/><ellipse cx="254.5" cy="168.2969" fill="#ADD1B2" rx="11" ry="11" style="stroke:#181818;stroke-width:1;"/><path d="M257.4688,173.9375 Q256.8906,174.2344 256.25,174.375 Q255.6094,174.5313 254.9063,174.5313 Q252.4063,174.5313 251.0781,172.8906 Q249.7656,171.2344 249.7656,168.1094 Q249.7656,164.9844 251.0781,163.3281 Q252.4063,161.6719 254.9063,161.6719 Q255.6094,161.6719 256.25,161.8281 Q256.9063,161.9844 257.4688,162.2813 L257.4688,165 Q256.8438,164.4219 256.25,164.1563 Q255.6563,163.875 255.0313,163.875 Q253.6875,163.875 253,164.9531 Q252.3125,166.0156 252.3125,168.1094 Q252.3125,170.2031 253,171.2813 Q253.6875,172.3438 255.0313,172.3438 Q255.6563,172.3438 256.25,172.0781 Q256.8438,171.7969 257.4688,171.2188 L257.4688,173.9375 Z " fill="#000000"/><text fill="#000000" font-family="sans-serif" font-size="14" lengthAdjust="spacing" textLength="145.127" x="268.5" y="173.1436">HttpMiddlewareBase</text><line style="stroke:#181818;stroke-width:0.5;" x1="240.5" x2="415.627" y1="184.2969" y2="184.2969"/><line style="stroke:#181818;stroke-width:0.5;" x1="240.5" x2="415.627" y1="192.2969" y2="192.2969"/></g><!--class C_0002367562706761873028--><g id="elem_C_0002367562706761873028"><rect codeLine="15" fill="#F1F1F1" height="48" id="C_0002367562706761873028" rx="2.5" ry="2.5" style="stroke:#181818;stroke-width:0.5;" width="307.8232" x="174" y="260.2969"/><ellipse cx="189" cy="276.2969" fill="#ADD1B2" rx="11" ry="11" style="stroke:#181818;stroke-width:1;"/><path d="M191.9688,281.9375 Q191.3906,282.2344 190.75,282.375 Q190.1094,282.5313 189.4063,282.5313 Q186.9063,282.5313 185.5781,280.8906 Q184.2656,279.2344 184.2656,276.1094 Q184.2656,272.9844 185.5781,271.3281 Q186.9063,269.6719 189.4063,269.6719 Q190.1094,269.6719 190.75,269.8281 Q191.4063,269.9844 191.9688,270.2813 L191.9688,273 Q191.3438,272.4219 190.75,272.1563 Q190.1563,271.875 189.5313,271.875 Q188.1875,271.875 187.5,272.9531 Q186.8125,274.0156 186.8125,276.1094 Q186.8125,278.2031 187.5,279.2813 Q188.1875,280.3438 189.5313,280.3438 Q190.1563,280.3438 190.75,280.0781 Q191.3438,279.7969 191.9688,279.2188 L191.9688,281.9375 Z " fill="#000000"/><text fill="#000000" font-family="sans-serif" font-size="14" lengthAdjust="spacing" textLength="111.0361" x="203" y="281.1436">HttpMiddleware</text><rect fill="#FFFFFF" height="15.9688" style="stroke:#181818;stroke-width:1;stroke-dasharray:2.0,2.0;" width="162.7871" x="322.0361" y="257.2969"/><text fill="#000000" font-family="sans-serif" font-size="12" font-style="italic" lengthAdjust="spacing" textLength="160.7871" x="323.0361" y="269.4355">T,_Bool AutoCreation=true</text><line style="stroke:#181818;stroke-width:0.5;" x1="175" x2="480.8232" y1="292.2969" y2="292.2969"/><line style="stroke:#181818;stroke-width:0.5;" x1="175" x2="480.8232" y1="300.2969" y2="300.2969"/></g><!--class C_0010298798647119485959--><g id="elem_C_0010298798647119485959"><rect codeLine="19" fill="#F1F1F1" height="48" id="C_0010298798647119485959" rx="2.5" ry="2.5" style="stroke:#181818;stroke-width:0.5;" width="132.1738" x="7" y="260.2969"/><ellipse cx="22" cy="276.2969" fill="#ADD1B2" rx="11" ry="11" style="stroke:#181818;stroke-width:1;"/><path d="M24.9688,281.9375 Q24.3906,282.2344 23.75,282.375 Q23.1094,282.5313 22.4063,282.5313 Q19.9063,282.5313 18.5781,280.8906 Q17.2656,279.2344 17.2656,276.1094 Q17.2656,272.9844 18.5781,271.3281 Q19.9063,269.6719 22.4063,269.6719 Q23.1094,269.6719 23.75,269.8281 Q24.4063,269.9844 24.9688,270.2813 L24.9688,273 Q24.3438,272.4219 23.75,272.1563 Q23.1563,271.875 22.5313,271.875 Q21.1875,271.875 20.5,272.9531 Q19.8125,274.0156 19.8125,276.1094 Q19.8125,278.2031 20.5,279.2813 Q21.1875,280.3438 22.5313,280.3438 Q23.1563,280.3438 23.75,280.0781 Q24.3438,279.7969 24.9688,279.2188 L24.9688,281.9375 Z " fill="#000000"/><text fill="#000000" font-family="sans-serif" font-size="14" lengthAdjust="spacing" textLength="100.1738" x="36" y="281.1436">HttpFilterBase</text><line style="stroke:#181818;stroke-width:0.5;" x1="8" x2="138.1738" y1="292.2969" y2="292.2969"/><line style="stroke:#181818;stroke-width:0.5;" x1="8" x2="138.1738" y1="300.2969" y2="300.2969"/></g><!--class C_0011386542272247263448--><g id="elem_C_0011386542272247263448"><rect codeLine="23" fill="#F1F1F1" height="48" id="C_0011386542272247263448" rx="2.5" ry="2.5" style="stroke:#181818;stroke-width:0.5;" width="262.8701" x="252.5" y="368.2969"/><ellipse cx="267.5" cy="384.2969" fill="#ADD1B2" rx="11" ry="11" style="stroke:#181818;stroke-width:1;"/><path d="M270.4688,389.9375 Q269.8906,390.2344 269.25,390.375 Q268.6094,390.5313 267.9063,390.5313 Q265.4063,390.5313 264.0781,388.8906 Q262.7656,387.2344 262.7656,384.1094 Q262.7656,380.9844 264.0781,379.3281 Q265.4063,377.6719 267.9063,377.6719 Q268.6094,377.6719 269.25,377.8281 Q269.9063,377.9844 270.4688,378.2813 L270.4688,381 Q269.8438,380.4219 269.25,380.1563 Q268.6563,379.875 268.0313,379.875 Q266.6875,379.875 266,380.9531 Q265.3125,382.0156 265.3125,384.1094 Q265.3125,386.2031 266,387.2813 Q266.6875,388.3438 268.0313,388.3438 Q268.6563,388.3438 269.25,388.0781 Q269.8438,387.7969 270.4688,387.2188 L270.4688,389.9375 Z " fill="#000000"/><text fill="#000000" font-family="sans-serif" font-size="14" lengthAdjust="spacing" textLength="66.083" x="281.5" y="389.1436">HttpFilter</text><rect fill="#FFFFFF" height="15.9688" style="stroke:#181818;stroke-width:1;stroke-dasharray:2.0,2.0;" width="162.7871" x="355.583" y="365.2969"/><text fill="#000000" font-family="sans-serif" font-size="12" font-style="italic" lengthAdjust="spacing" textLength="160.7871" x="356.583" y="377.4355">T,_Bool AutoCreation=true</text><line style="stroke:#181818;stroke-width:0.5;" x1="253.5" x2="514.3701" y1="400.2969" y2="400.2969"/><line style="stroke:#181818;stroke-width:0.5;" x1="253.5" x2="514.3701" y1="408.2969" y2="408.2969"/></g><!--class C_0002292440546930414128--><g id="elem_C_0002292440546930414128"><rect codeLine="27" fill="#F1F1F1" height="48" id="C_0002292440546930414128" rx="2.5" ry="2.5" style="stroke:#181818;stroke-width:0.5;" width="148.8877" x="582.5" y="152.2969"/><ellipse cx="597.5" cy="168.2969" fill="#ADD1B2" rx="11" ry="11" style="stroke:#181818;stroke-width:1;"/><path d="M600.4688,173.9375 Q599.8906,174.2344 599.25,174.375 Q598.6094,174.5313 597.9063,174.5313 Q595.4063,174.5313 594.0781,172.8906 Q592.7656,171.2344 592.7656,168.1094 Q592.7656,164.9844 594.0781,163.3281 Q595.4063,161.6719 597.9063,161.6719 Q598.6094,161.6719 599.25,161.8281 Q599.9063,161.9844 600.4688,162.2813 L600.4688,165 Q599.8438,164.4219 599.25,164.1563 Q598.6563,163.875 598.0313,163.875 Q596.6875,163.875 596,164.9531 Q595.3125,166.0156 595.3125,168.1094 Q595.3125,170.2031 596,171.2813 Q596.6875,172.3438 598.0313,172.3438 Q598.6563,172.3438 599.25,172.0781 Q599.8438,171.7969 600.4688,171.2188 L600.4688,173.9375 Z " fill="#000000"/><text fill="#000000" font-family="sans-serif" font-size="14" lengthAdjust="spacing" textLength="116.8877" x="611.5" y="173.1436">DrTemplateBase</text><line style="stroke:#181818;stroke-width:0.5;" x1="583.5" x2="730.3877" y1="184.2969" y2="184.2969"/><line style="stroke:#181818;stroke-width:0.5;" x1="583.5" x2="730.3877" y1="192.2969" y2="192.2969"/></g><!--class C_0005847266675194305338--><g id="elem_C_0005847266675194305338"><rect codeLine="31" fill="#F1F1F1" height="48" id="C_0005847266675194305338" rx="2.5" ry="2.5" style="stroke:#181818;stroke-width:0.5;" width="126.127" x="517" y="260.2969"/><ellipse cx="532" cy="276.2969" fill="#ADD1B2" rx="11" ry="11" style="stroke:#181818;stroke-width:1;"/><path d="M534.9688,281.9375 Q534.3906,282.2344 533.75,282.375 Q533.1094,282.5313 532.4063,282.5313 Q529.9063,282.5313 528.5781,280.8906 Q527.2656,279.2344 527.2656,276.1094 Q527.2656,272.9844 528.5781,271.3281 Q529.9063,269.6719 532.4063,269.6719 Q533.1094,269.6719 533.75,269.8281 Q534.4063,269.9844 534.9688,270.2813 L534.9688,273 Q534.3438,272.4219 533.75,272.1563 Q533.1563,271.875 532.5313,271.875 Q531.1875,271.875 530.5,272.9531 Q529.8125,274.0156 529.8125,276.1094 Q529.8125,278.2031 530.5,279.2813 Q531.1875,280.3438 532.5313,280.3438 Q533.1563,280.3438 533.75,280.0781 Q534.3438,279.7969 534.9688,279.2188 L534.9688,281.9375 Z " fill="#000000"/><text fill="#000000" font-family="sans-serif" font-size="14" lengthAdjust="spacing" textLength="82.7969" x="546" y="281.1436">DrTemplate</text><rect fill="#FFFFFF" height="15.9688" style="stroke:#181818;stroke-width:1;stroke-dasharray:2.0,2.0;" width="9.3301" x="636.7969" y="257.2969"/><text fill="#000000" font-family="sans-serif" font-size="12" font-style="italic" lengthAdjust="spacing" textLength="7.3301" x="637.7969" y="269.4355">T</text><line style="stroke:#181818;stroke-width:0.5;" x1="518" x2="642.127" y1="292.2969" y2="292.2969"/><line style="stroke:#181818;stroke-width:0.5;" x1="518" x2="642.127" y1="300.2969" y2="300.2969"/></g><!--class C_0014129061647938356207--><g id="elem_C_0014129061647938356207"><rect codeLine="35" fill="#F1F1F1" height="48" id="C_0014129061647938356207" rx="2.5" ry="2.5" style="stroke:#181818;stroke-width:0.5;" width="108.9453" x="1026.5" y="152.2969"/><ellipse cx="1041.5" cy="168.2969" fill="#ADD1B2" rx="11" ry="11" style="stroke:#181818;stroke-width:1;"/><path d="M1044.4688,173.9375 Q1043.8906,174.2344 1043.25,174.375 Q1042.6094,174.5313 1041.9063,174.5313 Q1039.4063,174.5313 1038.0781,172.8906 Q1036.7656,171.2344 1036.7656,168.1094 Q1036.7656,164.9844 1038.0781,163.3281 Q1039.4063,161.6719 1041.9063,161.6719 Q1042.6094,161.6719 1043.25,161.8281 Q1043.9063,161.9844 1044.4688,162.2813 L1044.4688,165 Q1043.8438,164.4219 1043.25,164.1563 Q1042.6563,163.875 1042.0313,163.875 Q1040.6875,163.875 1040,164.9531 Q1039.3125,166.0156 1039.3125,168.1094 Q1039.3125,170.2031 1040,171.2813 Q1040.6875,172.3438 1042.0313,172.3438 Q1042.6563,172.3438 1043.25,172.0781 Q1043.8438,171.7969 1044.4688,171.2188 L1044.4688,173.9375 Z " fill="#000000"/><text fill="#000000" font-family="sans-serif" font-size="14" lengthAdjust="spacing" textLength="76.9453" x="1055.5" y="173.1436">PluginBase</text><line style="stroke:#181818;stroke-width:0.5;" x1="1027.5" x2="1134.4453" y1="184.2969" y2="184.2969"/><line style="stroke:#181818;stroke-width:0.5;" x1="1027.5" x2="1134.4453" y1="192.2969" y2="192.2969"/></g><!--class C_0000721967873531230181--><g id="elem_C_0000721967873531230181"><rect codeLine="39" fill="#F1F1F1" height="48" id="C_0000721967873531230181" rx="2.5" ry="2.5" style="stroke:#181818;stroke-width:0.5;" width="86.1846" x="1080" y="260.2969"/><ellipse cx="1095" cy="276.2969" fill="#ADD1B2" rx="11" ry="11" style="stroke:#181818;stroke-width:1;"/><path d="M1097.9688,281.9375 Q1097.3906,282.2344 1096.75,282.375 Q1096.1094,282.5313 1095.4063,282.5313 Q1092.9063,282.5313 1091.5781,280.8906 Q1090.2656,279.2344 1090.2656,276.1094 Q1090.2656,272.9844 1091.5781,271.3281 Q1092.9063,269.6719 1095.4063,269.6719 Q1096.1094,269.6719 1096.75,269.8281 Q1097.4063,269.9844 1097.9688,270.2813 L1097.9688,273 Q1097.3438,272.4219 1096.75,272.1563 Q1096.1563,271.875 1095.5313,271.875 Q1094.1875,271.875 1093.5,272.9531 Q1092.8125,274.0156 1092.8125,276.1094 Q1092.8125,278.2031 1093.5,279.2813 Q1094.1875,280.3438 1095.5313,280.3438 Q1096.1563,280.3438 1096.75,280.0781 Q1097.3438,279.7969 1097.9688,279.2188 L1097.9688,281.9375 Z " fill="#000000"/><text fill="#000000" font-family="sans-serif" font-size="14" lengthAdjust="spacing" textLength="42.8545" x="1109" y="281.1436">Plugin</text><rect fill="#FFFFFF" height="15.9688" style="stroke:#181818;stroke-width:1;stroke-dasharray:2.0,2.0;" width="9.3301" x="1159.8545" y="257.2969"/><text fill="#000000" font-family="sans-serif" font-size="12" font-style="italic" lengthAdjust="spacing" textLength="7.3301" x="1160.8545" y="269.4355">T</text><line style="stroke:#181818;stroke-width:0.5;" x1="1081" x2="1165.1846" y1="292.2969" y2="292.2969"/><line style="stroke:#181818;stroke-width:0.5;" x1="1081" x2="1165.1846" y1="300.2969" y2="300.2969"/></g><!--class C_0001028963305737097451--><g id="elem_C_0001028963305737097451"><rect codeLine="43" fill="#F1F1F1" height="48" id="C_0001028963305737097451" rx="2.5" ry="2.5" style="stroke:#181818;stroke-width:0.5;" width="213.46" x="1218.5" y="152.2969"/><ellipse cx="1233.5" cy="168.2969" fill="#ADD1B2" rx="11" ry="11" style="stroke:#181818;stroke-width:1;"/><path d="M1236.4688,173.9375 Q1235.8906,174.2344 1235.25,174.375 Q1234.6094,174.5313 1233.9063,174.5313 Q1231.4063,174.5313 1230.0781,172.8906 Q1228.7656,171.2344 1228.7656,168.1094 Q1228.7656,164.9844 1230.0781,163.3281 Q1231.4063,161.6719 1233.9063,161.6719 Q1234.6094,161.6719 1235.25,161.8281 Q1235.9063,161.9844 1236.4688,162.2813 L1236.4688,165 Q1235.8438,164.4219 1235.25,164.1563 Q1234.6563,163.875 1234.0313,163.875 Q1232.6875,163.875 1232,164.9531 Q1231.3125,166.0156 1231.3125,168.1094 Q1231.3125,170.2031 1232,171.2813 Q1232.6875,172.3438 1234.0313,172.3438 Q1234.6563,172.3438 1235.25,172.0781 Q1235.8438,171.7969 1236.4688,171.2188 L1236.4688,173.9375 Z " fill="#000000"/><text fill="#000000" font-family="sans-serif" font-size="14" lengthAdjust="spacing" textLength="181.46" x="1247.5" y="173.1436">HttpSimpleControllerBase</text><line style="stroke:#181818;stroke-width:0.5;" x1="1219.5" x2="1430.96" y1="184.2969" y2="184.2969"/><line style="stroke:#181818;stroke-width:0.5;" x1="1219.5" x2="1430.96" y1="192.2969" y2="192.2969"/></g><!--class C_0012920372365021821026--><g id="elem_C_0012920372365021821026"><rect codeLine="47" fill="#F1F1F1" height="48" id="C_0012920372365021821026" rx="2.5" ry="2.5" style="stroke:#181818;stroke-width:0.5;" width="213.9658" x="1556" y="152.2969"/><ellipse cx="1571" cy="168.2969" fill="#ADD1B2" rx="11" ry="11" style="stroke:#181818;stroke-width:1;"/><path d="M1573.9688,173.9375 Q1573.3906,174.2344 1572.75,174.375 Q1572.1094,174.5313 1571.4063,174.5313 Q1568.9063,174.5313 1567.5781,172.8906 Q1566.2656,171.2344 1566.2656,168.1094 Q1566.2656,164.9844 1567.5781,163.3281 Q1568.9063,161.6719 1571.4063,161.6719 Q1572.1094,161.6719 1572.75,161.8281 Q1573.4063,161.9844 1573.9688,162.2813 L1573.9688,165 Q1573.3438,164.4219 1572.75,164.1563 Q1572.1563,163.875 1571.5313,163.875 Q1570.1875,163.875 1569.5,164.9531 Q1568.8125,166.0156 1568.8125,168.1094 Q1568.8125,170.2031 1569.5,171.2813 Q1570.1875,172.3438 1571.5313,172.3438 Q1572.1563,172.3438 1572.75,172.0781 Q1573.3438,171.7969 1573.9688,171.2188 L1573.9688,173.9375 Z " fill="#000000"/><text fill="#000000" font-family="sans-serif" font-size="14" lengthAdjust="spacing" textLength="181.9658" x="1585" y="173.1436">WebSocketControllerBase</text><line style="stroke:#181818;stroke-width:0.5;" x1="1557" x2="1768.9658" y1="184.2969" y2="184.2969"/><line style="stroke:#181818;stroke-width:0.5;" x1="1557" x2="1768.9658" y1="192.2969" y2="192.2969"/></g><!--class C_0000182916779366679195--><g id="elem_C_0000182916779366679195"><rect codeLine="51" fill="#F1F1F1" height="48" id="C_0000182916779366679195" rx="2.5" ry="2.5" style="stroke:#181818;stroke-width:0.5;" width="296.3525" x="749" y="260.2969"/><ellipse cx="764" cy="276.2969" fill="#ADD1B2" rx="11" ry="11" style="stroke:#181818;stroke-width:1;"/><path d="M766.9688,281.9375 Q766.3906,282.2344 765.75,282.375 Q765.1094,282.5313 764.4063,282.5313 Q761.9063,282.5313 760.5781,280.8906 Q759.2656,279.2344 759.2656,276.1094 Q759.2656,272.9844 760.5781,271.3281 Q761.9063,269.6719 764.4063,269.6719 Q765.1094,269.6719 765.75,269.8281 Q766.4063,269.9844 766.9688,270.2813 L766.9688,273 Q766.3438,272.4219 765.75,272.1563 Q765.1563,271.875 764.5313,271.875 Q763.1875,271.875 762.5,272.9531 Q761.8125,274.0156 761.8125,276.1094 Q761.8125,278.2031 762.5,279.2813 Q763.1875,280.3438 764.5313,280.3438 Q765.1563,280.3438 765.75,280.0781 Q766.3438,279.7969 766.9688,279.2188 L766.9688,281.9375 Z " fill="#000000"/><text fill="#000000" font-family="sans-serif" font-size="14" lengthAdjust="spacing" textLength="99.5654" x="778" y="281.1436">HttpController</text><rect fill="#FFFFFF" height="15.9688" style="stroke:#181818;stroke-width:1;stroke-dasharray:2.0,2.0;" width="162.7871" x="885.5654" y="257.2969"/><text fill="#000000" font-family="sans-serif" font-size="12" font-style="italic" lengthAdjust="spacing" textLength="160.7871" x="886.5654" y="269.4355">T,_Bool AutoCreation=true</text><line style="stroke:#181818;stroke-width:0.5;" x1="750" x2="1044.3525" y1="292.2969" y2="292.2969"/><line style="stroke:#181818;stroke-width:0.5;" x1="750" x2="1044.3525" y1="300.2969" y2="300.2969"/></g><!--class C_0001846672343101501349--><g id="elem_C_0001846672343101501349"><rect codeLine="55" fill="#F1F1F1" height="48" id="C_0001846672343101501349" rx="2.5" ry="2.5" style="stroke:#181818;stroke-width:0.5;" width="344.1563" x="1201" y="260.2969"/><ellipse cx="1216" cy="276.2969" fill="#ADD1B2" rx="11" ry="11" style="stroke:#181818;stroke-width:1;"/><path d="M1218.9688,281.9375 Q1218.3906,282.2344 1217.75,282.375 Q1217.1094,282.5313 1216.4063,282.5313 Q1213.9063,282.5313 1212.5781,280.8906 Q1211.2656,279.2344 1211.2656,276.1094 Q1211.2656,272.9844 1212.5781,271.3281 Q1213.9063,269.6719 1216.4063,269.6719 Q1217.1094,269.6719 1217.75,269.8281 Q1218.4063,269.9844 1218.9688,270.2813 L1218.9688,273 Q1218.3438,272.4219 1217.75,272.1563 Q1217.1563,271.875 1216.5313,271.875 Q1215.1875,271.875 1214.5,272.9531 Q1213.8125,274.0156 1213.8125,276.1094 Q1213.8125,278.2031 1214.5,279.2813 Q1215.1875,280.3438 1216.5313,280.3438 Q1217.1563,280.3438 1217.75,280.0781 Q1218.3438,279.7969 1218.9688,279.2188 L1218.9688,281.9375 Z " fill="#000000"/><text fill="#000000" font-family="sans-serif" font-size="14" lengthAdjust="spacing" textLength="147.3691" x="1230" y="281.1436">HttpSimpleController</text><rect fill="#FFFFFF" height="15.9688" style="stroke:#181818;stroke-width:1;stroke-dasharray:2.0,2.0;" width="162.7871" x="1385.3691" y="257.2969"/><text fill="#000000" font-family="sans-serif" font-size="12" font-style="italic" lengthAdjust="spacing" textLength="160.7871" x="1386.3691" y="269.4355">T,_Bool AutoCreation=true</text><line style="stroke:#181818;stroke-width:0.5;" x1="1202" x2="1544.1563" y1="292.2969" y2="292.2969"/><line style="stroke:#181818;stroke-width:0.5;" x1="1202" x2="1544.1563" y1="300.2969" y2="300.2969"/></g><!--class C_0010455583987704007942--><g id="elem_C_0010455583987704007942"><rect codeLine="59" fill="#F1F1F1" height="48" id="C_0010455583987704007942" rx="2.5" ry="2.5" style="stroke:#181818;stroke-width:0.5;" width="344.6621" x="1580.5" y="260.2969"/><ellipse cx="1595.5" cy="276.2969" fill="#ADD1B2" rx="11" ry="11" style="stroke:#181818;stroke-width:1;"/><path d="M1598.4688,281.9375 Q1597.8906,282.2344 1597.25,282.375 Q1596.6094,282.5313 1595.9063,282.5313 Q1593.4063,282.5313 1592.0781,280.8906 Q1590.7656,279.2344 1590.7656,276.1094 Q1590.7656,272.9844 1592.0781,271.3281 Q1593.4063,269.6719 1595.9063,269.6719 Q1596.6094,269.6719 1597.25,269.8281 Q1597.9063,269.9844 1598.4688,270.2813 L1598.4688,273 Q1597.8438,272.4219 1597.25,272.1563 Q1596.6563,271.875 1596.0313,271.875 Q1594.6875,271.875 1594,272.9531 Q1593.3125,274.0156 1593.3125,276.1094 Q1593.3125,278.2031 1594,279.2813 Q1594.6875,280.3438 1596.0313,280.3438 Q1596.6563,280.3438 1597.25,280.0781 Q1597.8438,279.7969 1598.4688,279.2188 L1598.4688,281.9375 Z " fill="#000000"/><text fill="#000000" font-family="sans-serif" font-size="14" lengthAdjust="spacing" textLength="147.875" x="1609.5" y="281.1436">WebSocketController</text><rect fill="#FFFFFF" height="15.9688" style="stroke:#181818;stroke-width:1;stroke-dasharray:2.0,2.0;" width="162.7871" x="1765.375" y="257.2969"/><text fill="#000000" font-family="sans-serif" font-size="12" font-style="italic" lengthAdjust="spacing" textLength="160.7871" x="1766.375" y="269.4355">T,_Bool AutoCreation=true</text><line style="stroke:#181818;stroke-width:0.5;" x1="1581.5" x2="1924.1621" y1="292.2969" y2="292.2969"/><line style="stroke:#181818;stroke-width:0.5;" x1="1581.5" x2="1924.1621" y1="300.2969" y2="300.2969"/></g><!--reverse link C_0007589431571026341200 to C_0007426810552443098638--><g id="link_C_0007589431571026341200_C_0007426810552443098638"><path codeLine="62" d="M897,110.2969 C897,127.9569 897,134.2369 897,151.9769 " fill="transparent" id="C_0007589431571026341200-backto-C_0007426810552443098638" style="stroke:#181818;stroke-width:1;"/><polygon fill="transparent" points="897,92.2969,891,110.2969,903,110.2969,897,92.2969" style="stroke:#181818;stroke-width:1;"/></g><!--reverse link C_0007589431571026341200 to C_0013299971319634221181--><g id="link_C_0007589431571026341200_C_0013299971319634221181"><path codeLine="63" d="M815.1346,84.5441 C713.2746,103.5241 531.99,137.2969 416.59,158.7969 " fill="transparent" id="C_0007589431571026341200-backto-C_0013299971319634221181" style="stroke:#181818;stroke-width:1;"/><polygon fill="transparent" points="832.83,81.2469,814.0355,78.6457,816.2337,90.4426,832.83,81.2469" style="stroke:#181818;stroke-width:1;"/></g><!--reverse link C_0007426810552443098638 to C_0002367562706761873028--><g id="link_C_0007426810552443098638_C_0002367562706761873028"><path codeLine="64" d="M826.7946,190.3741 C738.1346,206.8941 574.18,237.4369 451.71,260.2469 " fill="transparent" id="C_0007426810552443098638-backto-C_0002367562706761873028" style="stroke:#181818;stroke-width:1;"/><polygon fill="transparent" points="844.49,187.0769,825.6955,184.4756,827.8936,196.2725,844.49,187.0769" style="stroke:#181818;stroke-width:1;"/></g><!--reverse link C_0013299971319634221181 to C_0002367562706761873028--><g id="link_C_0013299971319634221181_C_0002367562706761873028"><path codeLine="65" d="M328,218.2969 C328,235.9569 328,242.2369 328,259.9769 " fill="transparent" id="C_0013299971319634221181-backto-C_0002367562706761873028" style="stroke:#181818;stroke-width:1;"/><polygon fill="transparent" points="328,200.2969,322,218.2969,334,218.2969,328,200.2969" style="stroke:#181818;stroke-width:1;"/></g><!--reverse link C_0007589431571026341200 to C_0010298798647119485959--><g id="link_C_0007589431571026341200_C_0010298798647119485959"><path codeLine="66" d="M814.7553,73.3309 C667.9853,81.1209 330.46,103.6269 222,152.2969 C166.69,177.1169 117.01,229.7269 91.35,260.1869 " fill="transparent" id="C_0007589431571026341200-backto-C_0010298798647119485959" style="stroke:#181818;stroke-width:1;"/><polygon fill="transparent" points="832.73,72.3769,814.4373,67.3393,815.0733,79.3225,832.73,72.3769" style="stroke:#181818;stroke-width:1;"/></g><!--reverse link C_0013299971319634221181 to C_0010298798647119485959--><g id="link_C_0013299971319634221181_C_0010298798647119485959"><path codeLine="67" d="M256.0487,207.2058 C213.4187,224.9258 171.37,242.4069 128.66,260.1569 " fill="transparent" id="C_0013299971319634221181-backto-C_0010298798647119485959" style="stroke:#181818;stroke-width:1;"/><polygon fill="transparent" points="272.67,200.2969,253.7458,201.6654,258.3517,212.7463,272.67,200.2969" style="stroke:#181818;stroke-width:1;"/></g><!--reverse link C_0007426810552443098638 to C_0011386542272247263448--><g id="link_C_0007426810552443098638_C_0011386542272247263448"><path codeLine="68" d="M830.4388,208.0341 C797.0388,223.8341 768.83,238.1769 731,260.2969 C698.12,279.5269 694.41,291.9569 660,308.2969 C605.08,334.3769 540.12,354.3969 487.02,368.2369 " fill="transparent" id="C_0007426810552443098638-backto-C_0011386542272247263448" style="stroke:#181818;stroke-width:1;"/><polygon fill="transparent" points="846.71,200.3369,827.873,202.6103,833.0045,213.4578,846.71,200.3369" style="stroke:#181818;stroke-width:1;"/></g><!--reverse link C_0010298798647119485959 to C_0011386542272247263448--><g id="link_C_0010298798647119485959_C_0011386542272247263448"><path codeLine="69" d="M156.378,313.7125 C208.558,331.4925 263.93,350.3669 316.42,368.2669 " fill="transparent" id="C_0010298798647119485959-backto-C_0011386542272247263448" style="stroke:#181818;stroke-width:1;"/><polygon fill="transparent" points="139.34,307.9069,154.4428,319.3918,158.3132,308.0331,139.34,307.9069" style="stroke:#181818;stroke-width:1;"/></g><!--reverse link C_0007589431571026341200 to C_0002292440546930414128--><g id="link_C_0007589431571026341200_C_0002292440546930414128"><path codeLine="70" d="M828.4552,99.5708 C788.3452,117.2908 749.58,134.4069 709.39,152.1569 " fill="transparent" id="C_0007589431571026341200-backto-C_0002292440546930414128" style="stroke:#181818;stroke-width:1;"/><polygon fill="transparent" points="844.92,92.2969,826.0305,94.0825,830.8798,105.0591,844.92,92.2969" style="stroke:#181818;stroke-width:1;"/></g><!--reverse link C_0007426810552443098638 to C_0005847266675194305338--><g id="link_C_0007426810552443098638_C_0005847266675194305338"><path codeLine="71" d="M827.2296,200.6266 C771.9496,219.1166 702.14,242.4569 643.21,262.1669 " fill="transparent" id="C_0007426810552443098638-backto-C_0005847266675194305338" style="stroke:#181818;stroke-width:1;"/><polygon fill="transparent" points="844.3,194.9169,825.3263,194.9364,829.1328,206.3167,844.3,194.9169" style="stroke:#181818;stroke-width:1;"/></g><!--reverse link C_0002292440546930414128 to C_0005847266675194305338--><g id="link_C_0002292440546930414128_C_0005847266675194305338"><path codeLine="72" d="M629.7157,214.8634 C616.8957,232.5234 609.83,242.2369 596.94,259.9769 " fill="transparent" id="C_0002292440546930414128-backto-C_0005847266675194305338" style="stroke:#181818;stroke-width:1;"/><polygon fill="transparent" points="640.29,200.2969,624.8602,211.3386,634.5712,218.3882,640.29,200.2969" style="stroke:#181818;stroke-width:1;"/></g><!--reverse link C_0007589431571026341200 to C_0014129061647938356207--><g id="link_C_0007589431571026341200_C_0014129061647938356207"><path codeLine="73" d="M952.5258,101.2841 C983.2758,119.0041 1010.02,134.4069 1040.84,152.1569 " fill="transparent" id="C_0007589431571026341200-backto-C_0014129061647938356207" style="stroke:#181818;stroke-width:1;"/><polygon fill="transparent" points="936.93,92.2969,949.5301,106.4827,955.5216,96.0855,936.93,92.2969" style="stroke:#181818;stroke-width:1;"/></g><!--reverse link C_0014129061647938356207 to C_0000721967873531230181--><g id="link_C_0014129061647938356207_C_0000721967873531230181"><path codeLine="74" d="M1096.7427,217.0303 C1103.7427,234.6903 1106.73,242.2369 1113.76,259.9769 " fill="transparent" id="C_0014129061647938356207-backto-C_0000721967873531230181" style="stroke:#181818;stroke-width:1;"/><polygon fill="transparent" points="1090.11,200.2969,1091.1649,219.2412,1102.3205,214.8194,1090.11,200.2969" style="stroke:#181818;stroke-width:1;"/></g><!--reverse link C_0007426810552443098638 to C_0000721967873531230181--><g id="link_C_0007426810552443098638_C_0000721967873531230181"><path codeLine="75" d="M962.3366,207.9401 C1002.1866,226.6301 1041.58,245.1069 1079.78,263.0269 " fill="transparent" id="C_0007426810552443098638-backto-C_0000721967873531230181" style="stroke:#181818;stroke-width:1;"/><polygon fill="transparent" points="946.04,200.2969,959.7889,213.3724,964.8844,202.5079,946.04,200.2969" style="stroke:#181818;stroke-width:1;"/></g><!--reverse link C_0007589431571026341200 to C_0001028963305737097451--><g id="link_C_0007589431571026341200_C_0001028963305737097451"><path codeLine="76" d="M978.552,89.4947 C1050.372,107.2847 1150.01,131.9569 1231.92,152.2469 " fill="transparent" id="C_0007589431571026341200-backto-C_0001028963305737097451" style="stroke:#181818;stroke-width:1;"/><polygon fill="transparent" points="961.08,85.1669,977.1094,95.3187,979.9946,83.6707,961.08,85.1669" style="stroke:#181818;stroke-width:1;"/></g><!--reverse link C_0007589431571026341200 to C_0012920372365021821026--><g id="link_C_0007589431571026341200_C_0012920372365021821026"><path codeLine="77" d="M979.15,80.6649 C1110.78,98.8849 1394.23,138.1069 1555.86,160.4669 " fill="transparent" id="C_0007589431571026341200-backto-C_0012920372365021821026" style="stroke:#181818;stroke-width:1;"/><polygon fill="transparent" points="961.32,78.1969,978.3273,86.6082,979.9727,74.7215,961.32,78.1969" style="stroke:#181818;stroke-width:1;"/></g><!--reverse link C_0007426810552443098638 to C_0000182916779366679195--><g id="link_C_0007426810552443098638_C_0000182916779366679195"><path codeLine="78" d="M897,218.2969 C897,235.9569 897,242.2369 897,259.9769 " fill="transparent" id="C_0007426810552443098638-backto-C_0000182916779366679195" style="stroke:#181818;stroke-width:1;"/><polygon fill="transparent" points="897,200.2969,891,218.2969,903,218.2969,897,200.2969" style="stroke:#181818;stroke-width:1;"/></g><!--reverse link C_0007426810552443098638 to C_0001846672343101501349--><g id="link_C_0007426810552443098638_C_0001846672343101501349"><path codeLine="79" d="M967.3298,192.9586 C1044.1798,210.0686 1170.9,238.2969 1269.44,260.2369 " fill="transparent" id="C_0007426810552443098638-backto-C_0001846672343101501349" style="stroke:#181818;stroke-width:1;"/><polygon fill="transparent" points="949.76,189.0469,966.0259,198.8152,968.6337,187.102,949.76,189.0469" style="stroke:#181818;stroke-width:1;"/></g><!--reverse link C_0001028963305737097451 to C_0001846672343101501349--><g id="link_C_0001028963305737097451_C_0001846672343101501349"><path codeLine="80" d="M1342.8398,216.6965 C1350.8298,234.3565 1354.41,242.2369 1362.44,259.9769 " fill="transparent" id="C_0001028963305737097451-backto-C_0001846672343101501349" style="stroke:#181818;stroke-width:1;"/><polygon fill="transparent" points="1335.42,200.2969,1337.3732,219.1697,1348.3063,214.2232,1335.42,200.2969" style="stroke:#181818;stroke-width:1;"/></g><!--reverse link C_0007426810552443098638 to C_0010455583987704007942--><g id="link_C_0007426810552443098638_C_0010455583987704007942"><path codeLine="81" d="M967.1333,192.8579 C985.8333,196.7979 989.49,197.2469 1009,200.2969 C1253.68,238.5869 1316.95,232.0769 1563,260.2969 C1568.69,260.9469 1574.48,261.6169 1580.33,262.2969 " fill="transparent" id="C_0007426810552443098638-backto-C_0010455583987704007942" style="stroke:#181818;stroke-width:1;"/><polygon fill="transparent" points="949.52,189.1469,965.8963,198.729,968.3703,186.9868,949.52,189.1469" style="stroke:#181818;stroke-width:1;"/></g><!--reverse link C_0012920372365021821026 to C_0010455583987704007942--><g id="link_C_0012920372365021821026_C_0010455583987704007942"><path codeLine="82" d="M1694.1782,214.0198 C1709.1682,231.6798 1718.14,242.2369 1733.2,259.9769 " fill="transparent" id="C_0012920372365021821026-backto-C_0010455583987704007942" style="stroke:#181818;stroke-width:1;"/><polygon fill="transparent" points="1682.53,200.2969,1689.6039,217.9026,1698.7525,210.1371,1682.53,200.2969" style="stroke:#181818;stroke-width:1;"/></g><!--SRC=[ZPPDRzD048Rl-HLMBm6fYMRsmxih5IHQ11nQWTG0nyX9Let1ZIjdJOM0_ywaXTQRpCO-sgzdPkUTsKSEPQXyDburzUARNuP5iVNZR5aLssssBdrJDClrpz7ZyydRvkF3H-VqqKbMRBEBEG0ORPsIg0s2oAL20V0l82LdlqRp-UZFVjgpsUjELYLoYw2rK4g2ixcqKTP3UI_hXn3khihLglBtHUEZ8wCKpZc34XsTI0X4Yvtad7mq-TdiT7vUrrNsfWtrHUEBKDQRLw5fVQSX8NEZSs4WDpbQ8q543J4oK_DTMGNVnCs0SDQG0yeWEcMrqwxR32Cd4mzf157QN9CjHWXbTYDLtKOu-M3UCtzxLnKXdWe8uMYQe5Nk92YaLOaTEfIJYQDLqdPta9py9GCaQ1cl4YFlvVrKjJVb9dQToZl8aMnrqagQ79Yk2upC9eqE2aRGoXcQlfOe9CHhoSdC9AzBii1Vr9lGr5MrjooxTR2qrTIcaGQSKJegmSXx9RxwnNMz_Ev3eWBrBK0QMcSD0gtOtVgkCOpCDF6SVD3T8Yk4mzoGsRj1EdGwCkvG7c3SeCfe5MKKaWW7g0aToaL-7ihzVWwwXQ2qrbRItJQWQ3MS4j6jFvJ_5qvI-UptP9A6RtyOYzKahP-hSMHCShW_hEUG72xxgoN3ZlV6mZA9vVwmdhbn11qm00wGIUGE23i-08wSIMO-L-FWEA2tTDXH9pbE3kYDWz-GGpBy6X36mIU9yG5XnrUP8quIwSV3HkFtVaC_by6lilioh7S_d9kRINjRdMO_VBCbtcKmpQSu6bzUVhbwUlTvqMv2-_ZrqqjqKvnYzWBR1nLV_WK0]--></g></svg>