<svg xmlns="http://www.w3.org/2000/svg" xmlns:xlink="http://www.w3.org/1999/xlink" contentStyleType="text/css" data-diagram-type="CLASS" height="423px" preserveAspectRatio="none" style="width:1936px;height:423px;background:#FFFFFF;" version="1.1" viewBox="0 0 1936 423" width="1936px" zoomAndPan="magnify"><title>'drobjectbase' class hierarchy</title><defs/><g><text fill="#000000" font-family="sans-serif" font-size="14" font-weight="bold" lengthAdjust="spacing" textLength="235.5869" x="843.2988" y="22.9951">'drobjectbase' class hierarchy</text><!--class C_0007589431571026341200--><g id="elem_C_0007589431571026341200"><rect codeLine="3" fill="#F1F1F1" height="48" id="C_0007589431571026341200" rx="2.5" ry="2.5" style="stroke:#181818;stroke-width:0.5;" width="128.2227" x="516" y="44.2969"/><ellipse cx="531" cy="60.2969" fill="#ADD1B2" rx="11" ry="11" style="stroke:#181818;stroke-width:1;"/><path d="M533.9688,65.9375 Q533.3906,66.2344 532.75,66.375 Q532.1094,66.5313 531.4063,66.5313 Q528.9063,66.5313 527.5781,64.8906 Q526.2656,63.2344 526.2656,60.1094 Q526.2656,56.9844 527.5781,55.3281 Q528.9063,53.6719 531.4063,53.6719 Q532.1094,53.6719 532.75,53.8281 Q533.4063,53.9844 533.9688,54.2813 L533.9688,57 Q533.3438,56.4219 532.75,56.1563 Q532.1563,55.875 531.5313,55.875 Q530.1875,55.875 529.5,56.9531 Q528.8125,58.0156 528.8125,60.1094 Q528.8125,62.2031 529.5,63.2813 Q530.1875,64.3438 531.5313,64.3438 Q532.1563,64.3438 532.75,64.0781 Q533.3438,63.7969 533.9688,63.2188 L533.9688,65.9375 Z " fill="#000000"/><text fill="#000000" font-family="sans-serif" font-size="14" lengthAdjust="spacing" textLength="96.2227" x="545" y="65.1436">DrObjectBase</text><line style="stroke:#181818;stroke-width:0.5;" x1="517" x2="643.2227" y1="76.2969" y2="76.2969"/><line style="stroke:#181818;stroke-width:0.5;" x1="517" x2="643.2227" y1="84.2969" y2="84.2969"/></g><!--class C_0007426810552443098638--><g id="elem_C_0007426810552443098638"><rect codeLine="7" fill="#F1F1F1" height="48" id="C_0007426810552443098638" rx="2.5" ry="2.5" style="stroke:#181818;stroke-width:0.5;" width="105.4619" x="766.5" y="152.2969"/><ellipse cx="781.5" cy="168.2969" fill="#ADD1B2" rx="11" ry="11" style="stroke:#181818;stroke-width:1;"/><path d="M784.4688,173.9375 Q783.8906,174.2344 783.25,174.375 Q782.6094,174.5313 781.9063,174.5313 Q779.4063,174.5313 778.0781,172.8906 Q776.7656,171.2344 776.7656,168.1094 Q776.7656,164.9844 778.0781,163.3281 Q779.4063,161.6719 781.9063,161.6719 Q782.6094,161.6719 783.25,161.8281 Q783.9063,161.9844 784.4688,162.2813 L784.4688,165 Q783.8438,164.4219 783.25,164.1563 Q782.6563,163.875 782.0313,163.875 Q780.6875,163.875 780,164.9531 Q779.3125,166.0156 779.3125,168.1094 Q779.3125,170.2031 780,171.2813 Q780.6875,172.3438 782.0313,172.3438 Q782.6563,172.3438 783.25,172.0781 Q783.8438,171.7969 784.4688,171.2188 L784.4688,173.9375 Z " fill="#000000"/><text fill="#000000" font-family="sans-serif" font-size="14" lengthAdjust="spacing" textLength="62.1318" x="795.5" y="173.1436">DrObject</text><rect fill="#FFFFFF" height="15.9688" style="stroke:#181818;stroke-width:1;stroke-dasharray:2.0,2.0;" width="9.3301" x="865.6318" y="149.2969"/><text fill="#000000" font-family="sans-serif" font-size="12" font-style="italic" lengthAdjust="spacing" textLength="7.3301" x="866.6318" y="161.4355">T</text><line style="stroke:#181818;stroke-width:0.5;" x1="767.5" x2="870.9619" y1="184.2969" y2="184.2969"/><line style="stroke:#181818;stroke-width:0.5;" x1="767.5" x2="870.9619" y1="192.2969" y2="192.2969"/></g><!--class C_0013299971319634221181--><g id="elem_C_0013299971319634221181"><rect codeLine="11" fill="#F1F1F1" height="48" id="C_0013299971319634221181" rx="2.5" ry="2.5" style="stroke:#181818;stroke-width:0.5;" width="177.127" x="239.5" y="152.2969"/><ellipse cx="254.5" cy="168.2969" fill="#ADD1B2" rx="11" ry="11" style="stroke:#181818;stroke-width:1;"/><path d="M257.4688,173.9375 Q256.8906,174.2344 256.25,174.375 Q255.6094,174.5313 254.9063,174.5313 Q252.4063,174.5313 251.0781,172.8906 Q249.7656,171.2344 249.7656,168.1094 Q249.7656,164.9844 251.0781,163.3281 Q252.4063,161.6719 254.9063,161.6719 Q255.6094,161.6719 256.25,161.8281 Q256.9063,161.9844 257.4688,162.2813 L257.4688,165 Q256.8438,164.4219 256.25,164.1563 Q255.6563,163.875 255.0313,163.875 Q253.6875,163.875 253,164.9531 Q252.3125,166.0156 252.3125,168.1094 Q252.3125,170.2031 253,171.2813 Q253.6875,172.3438 255.0313,172.3438 Q255.6563,172.3438 256.25,172.0781 Q256.8438,171.7969 257.4688,171.2188 L257.4688,173.9375 Z " fill="#000000"/><text fill="#000000" font-family="sans-serif" font-size="14" lengthAdjust="spacing" textLength="145.127" x="268.5" y="173.1436">HttpMiddlewareBase</text><line style="stroke:#181818;stroke-width:0.5;" x1="240.5" x2="415.627" y1="184.2969" y2="184.2969"/><line style="stroke:#181818;stroke-width:0.5;" x1="240.5" x2="415.627" y1="192.2969" y2="192.2969"/></g><!--class C_0002367562706761873028--><g id="elem_C_0002367562706761873028"><rect codeLine="15" fill="#F1F1F1" height="48" id="C_0002367562706761873028" rx="2.5" ry="2.5" style="stroke:#181818;stroke-width:0.5;" width="307.8232" x="174" y="260.2969"/><ellipse cx="189" cy="276.2969" fill="#ADD1B2" rx="11" ry="11" style="stroke:#181818;stroke-width:1;"/><path d="M191.9688,281.9375 Q191.3906,282.2344 190.75,282.375 Q190.1094,282.5313 189.4063,282.5313 Q186.9063,282.5313 185.5781,280.8906 Q184.2656,279.2344 184.2656,276.1094 Q184.2656,272.9844 185.5781,271.3281 Q186.9063,269.6719 189.4063,269.6719 Q190.1094,269.6719 190.75,269.8281 Q191.4063,269.9844 191.9688,270.2813 L191.9688,273 Q191.3438,272.4219 190.75,272.1563 Q190.1563,271.875 189.5313,271.875 Q188.1875,271.875 187.5,272.9531 Q186.8125,274.0156 186.8125,276.1094 Q186.8125,278.2031 187.5,279.2813 Q188.1875,280.3438 189.5313,280.3438 Q190.1563,280.3438 190.75,280.0781 Q191.3438,279.7969 191.9688,279.2188 L191.9688,281.9375 Z " fill="#000000"/><text fill="#000000" font-family="sans-serif" font-size="14" lengthAdjust="spacing" textLength="111.0361" x="203" y="281.1436">HttpMiddleware</text><rect fill="#FFFFFF" height="15.9688" style="stroke:#181818;stroke-width:1;stroke-dasharray:2.0,2.0;" width="162.7871" x="322.0361" y="257.2969"/><text fill="#000000" font-family="sans-serif" font-size="12" font-style="italic" lengthAdjust="spacing" textLength="160.7871" x="323.0361" y="269.4355">T,_Bool AutoCreation=true</text><line style="stroke:#181818;stroke-width:0.5;" x1="175" x2="480.8232" y1="292.2969" y2="292.2969"/><line style="stroke:#181818;stroke-width:0.5;" x1="175" x2="480.8232" y1="300.2969" y2="300.2969"/></g><!--class C_0010298798647119485959--><g id="elem_C_0010298798647119485959"><rect codeLine="19" fill="#F1F1F1" height="48" id="C_0010298798647119485959" rx="2.5" ry="2.5" style="stroke:#181818;stroke-width:0.5;" width="132.1738" x="7" y="260.2969"/><ellipse cx="22" cy="276.2969" fill="#ADD1B2" rx="11" ry="11" style="stroke:#181818;stroke-width:1;"/><path d="M24.9688,281.9375 Q24.3906,282.2344 23.75,282.375 Q23.1094,282.5313 22.4063,282.5313 Q19.9063,282.5313 18.5781,280.8906 Q17.2656,279.2344 17.2656,276.1094 Q17.2656,272.9844 18.5781,271.3281 Q19.9063,269.6719 22.4063,269.6719 Q23.1094,269.6719 23.75,269.8281 Q24.4063,269.9844 24.9688,270.2813 L24.9688,273 Q24.3438,272.4219 23.75,272.1563 Q23.1563,271.875 22.5313,271.875 Q21.1875,271.875 20.5,272.9531 Q19.8125,274.0156 19.8125,276.1094 Q19.8125,278.2031 20.5,279.2813 Q21.1875,280.3438 22.5313,280.3438 Q23.1563,280.3438 23.75,280.0781 Q24.3438,279.7969 24.9688,279.2188 L24.9688,281.9375 Z " fill="#000000"/><text fill="#000000" font-family="sans-serif" font-size="14" lengthAdjust="spacing" textLength="100.1738" x="36" y="281.1436">HttpFilterBase</text><line style="stroke:#181818;stroke-width:0.5;" x1="8" x2="138.1738" y1="292.2969" y2="292.2969"/><line style="stroke:#181818;stroke-width:0.5;" x1="8" x2="138.1738" y1="300.2969" y2="300.2969"/></g><!--class C_0011386542272247263448--><g id="elem_C_0011386542272247263448"><rect codeLine="23" fill="#F1F1F1" height="48" id="C_0011386542272247263448" rx="2.5" ry="2.5" style="stroke:#181818;stroke-width:0.5;" width="262.8701" x="252.5" y="368.2969"/><ellipse cx="267.5" cy="384.2969" fill="#ADD1B2" rx="11" ry="11" style="stroke:#181818;stroke-width:1;"/><path d="M270.4688,389.9375 Q269.8906,390.2344 269.25,390.375 Q268.6094,390.5313 267.9063,390.5313 Q265.4063,390.5313 264.0781,388.8906 Q262.7656,387.2344 262.7656,384.1094 Q262.7656,380.9844 264.0781,379.3281 Q265.4063,377.6719 267.9063,377.6719 Q268.6094,377.6719 269.25,377.8281 Q269.9063,377.9844 270.4688,378.2813 L270.4688,381 Q269.8438,380.4219 269.25,380.1563 Q268.6563,379.875 268.0313,379.875 Q266.6875,379.875 266,380.9531 Q265.3125,382.0156 265.3125,384.1094 Q265.3125,386.2031 266,387.2813 Q266.6875,388.3438 268.0313,388.3438 Q268.6563,388.3438 269.25,388.0781 Q269.8438,387.7969 270.4688,387.2188 L270.4688,389.9375 Z " fill="#000000"/><text fill="#000000" font-family="sans-serif" font-size="14" lengthAdjust="spacing" textLength="66.083" x="281.5" y="389.1436">HttpFilter</text><rect fill="#FFFFFF" height="15.9688" style="stroke:#181818;stroke-width:1;stroke-dasharray:2.0,2.0;" width="162.7871" x="355.583" y="365.2969"/><text fill="#000000" font-family="sans-serif" font-size="12" font-style="italic" lengthAdjust="spacing" textLength="160.7871" x="356.583" y="377.4355">T,_Bool AutoCreation=true</text><line style="stroke:#181818;stroke-width:0.5;" x1="253.5" x2="514.3701" y1="400.2969" y2="400.2969"/><line style="stroke:#181818;stroke-width:0.5;" x1="253.5" x2="514.3701" y1="408.2969" y2="408.2969"/></g><!--class C_0002292440546930414128--><g id="elem_C_0002292440546930414128"><rect codeLine="27" fill="#F1F1F1" height="48" id="C_0002292440546930414128" rx="2.5" ry="2.5" style="stroke:#181818;stroke-width:0.5;" width="148.8877" x="505.5" y="152.2969"/><ellipse cx="520.5" cy="168.2969" fill="#ADD1B2" rx="11" ry="11" style="stroke:#181818;stroke-width:1;"/><path d="M523.4688,173.9375 Q522.8906,174.2344 522.25,174.375 Q521.6094,174.5313 520.9063,174.5313 Q518.4063,174.5313 517.0781,172.8906 Q515.7656,171.2344 515.7656,168.1094 Q515.7656,164.9844 517.0781,163.3281 Q518.4063,161.6719 520.9063,161.6719 Q521.6094,161.6719 522.25,161.8281 Q522.9063,161.9844 523.4688,162.2813 L523.4688,165 Q522.8438,164.4219 522.25,164.1563 Q521.6563,163.875 521.0313,163.875 Q519.6875,163.875 519,164.9531 Q518.3125,166.0156 518.3125,168.1094 Q518.3125,170.2031 519,171.2813 Q519.6875,172.3438 521.0313,172.3438 Q521.6563,172.3438 522.25,172.0781 Q522.8438,171.7969 523.4688,171.2188 L523.4688,173.9375 Z " fill="#000000"/><text fill="#000000" font-family="sans-serif" font-size="14" lengthAdjust="spacing" textLength="116.8877" x="534.5" y="173.1436">DrTemplateBase</text><line style="stroke:#181818;stroke-width:0.5;" x1="506.5" x2="653.3877" y1="184.2969" y2="184.2969"/><line style="stroke:#181818;stroke-width:0.5;" x1="506.5" x2="653.3877" y1="192.2969" y2="192.2969"/></g><!--class C_0005847266675194305338--><g id="elem_C_0005847266675194305338"><rect codeLine="31" fill="#F1F1F1" height="48" id="C_0005847266675194305338" rx="2.5" ry="2.5" style="stroke:#181818;stroke-width:0.5;" width="126.127" x="517" y="260.2969"/><ellipse cx="532" cy="276.2969" fill="#ADD1B2" rx="11" ry="11" style="stroke:#181818;stroke-width:1;"/><path d="M534.9688,281.9375 Q534.3906,282.2344 533.75,282.375 Q533.1094,282.5313 532.4063,282.5313 Q529.9063,282.5313 528.5781,280.8906 Q527.2656,279.2344 527.2656,276.1094 Q527.2656,272.9844 528.5781,271.3281 Q529.9063,269.6719 532.4063,269.6719 Q533.1094,269.6719 533.75,269.8281 Q534.4063,269.9844 534.9688,270.2813 L534.9688,273 Q534.3438,272.4219 533.75,272.1563 Q533.1563,271.875 532.5313,271.875 Q531.1875,271.875 530.5,272.9531 Q529.8125,274.0156 529.8125,276.1094 Q529.8125,278.2031 530.5,279.2813 Q531.1875,280.3438 532.5313,280.3438 Q533.1563,280.3438 533.75,280.0781 Q534.3438,279.7969 534.9688,279.2188 L534.9688,281.9375 Z " fill="#000000"/><text fill="#000000" font-family="sans-serif" font-size="14" lengthAdjust="spacing" textLength="82.7969" x="546" y="281.1436">DrTemplate</text><rect fill="#FFFFFF" height="15.9688" style="stroke:#181818;stroke-width:1;stroke-dasharray:2.0,2.0;" width="9.3301" x="636.7969" y="257.2969"/><text fill="#000000" font-family="sans-serif" font-size="12" font-style="italic" lengthAdjust="spacing" textLength="7.3301" x="637.7969" y="269.4355">T</text><line style="stroke:#181818;stroke-width:0.5;" x1="518" x2="642.127" y1="292.2969" y2="292.2969"/><line style="stroke:#181818;stroke-width:0.5;" x1="518" x2="642.127" y1="300.2969" y2="300.2969"/></g><!--class C_0014129061647938356207--><g id="elem_C_0014129061647938356207"><rect codeLine="35" fill="#F1F1F1" height="48" id="C_0014129061647938356207" rx="2.5" ry="2.5" style="stroke:#181818;stroke-width:0.5;" width="108.9453" x="1366.5" y="152.2969"/><ellipse cx="1381.5" cy="168.2969" fill="#ADD1B2" rx="11" ry="11" style="stroke:#181818;stroke-width:1;"/><path d="M1384.4688,173.9375 Q1383.8906,174.2344 1383.25,174.375 Q1382.6094,174.5313 1381.9063,174.5313 Q1379.4063,174.5313 1378.0781,172.8906 Q1376.7656,171.2344 1376.7656,168.1094 Q1376.7656,164.9844 1378.0781,163.3281 Q1379.4063,161.6719 1381.9063,161.6719 Q1382.6094,161.6719 1383.25,161.8281 Q1383.9063,161.9844 1384.4688,162.2813 L1384.4688,165 Q1383.8438,164.4219 1383.25,164.1563 Q1382.6563,163.875 1382.0313,163.875 Q1380.6875,163.875 1380,164.9531 Q1379.3125,166.0156 1379.3125,168.1094 Q1379.3125,170.2031 1380,171.2813 Q1380.6875,172.3438 1382.0313,172.3438 Q1382.6563,172.3438 1383.25,172.0781 Q1383.8438,171.7969 1384.4688,171.2188 L1384.4688,173.9375 Z " fill="#000000"/><text fill="#000000" font-family="sans-serif" font-size="14" lengthAdjust="spacing" textLength="76.9453" x="1395.5" y="173.1436">PluginBase</text><line style="stroke:#181818;stroke-width:0.5;" x1="1367.5" x2="1474.4453" y1="184.2969" y2="184.2969"/><line style="stroke:#181818;stroke-width:0.5;" x1="1367.5" x2="1474.4453" y1="192.2969" y2="192.2969"/></g><!--class C_0000721967873531230181--><g id="elem_C_0000721967873531230181"><rect codeLine="39" fill="#F1F1F1" height="48" id="C_0000721967873531230181" rx="2.5" ry="2.5" style="stroke:#181818;stroke-width:0.5;" width="86.1846" x="1839" y="260.2969"/><ellipse cx="1854" cy="276.2969" fill="#ADD1B2" rx="11" ry="11" style="stroke:#181818;stroke-width:1;"/><path d="M1856.9688,281.9375 Q1856.3906,282.2344 1855.75,282.375 Q1855.1094,282.5313 1854.4063,282.5313 Q1851.9063,282.5313 1850.5781,280.8906 Q1849.2656,279.2344 1849.2656,276.1094 Q1849.2656,272.9844 1850.5781,271.3281 Q1851.9063,269.6719 1854.4063,269.6719 Q1855.1094,269.6719 1855.75,269.8281 Q1856.4063,269.9844 1856.9688,270.2813 L1856.9688,273 Q1856.3438,272.4219 1855.75,272.1563 Q1855.1563,271.875 1854.5313,271.875 Q1853.1875,271.875 1852.5,272.9531 Q1851.8125,274.0156 1851.8125,276.1094 Q1851.8125,278.2031 1852.5,279.2813 Q1853.1875,280.3438 1854.5313,280.3438 Q1855.1563,280.3438 1855.75,280.0781 Q1856.3438,279.7969 1856.9688,279.2188 L1856.9688,281.9375 Z " fill="#000000"/><text fill="#000000" font-family="sans-serif" font-size="14" lengthAdjust="spacing" textLength="42.8545" x="1868" y="281.1436">Plugin</text><rect fill="#FFFFFF" height="15.9688" style="stroke:#181818;stroke-width:1;stroke-dasharray:2.0,2.0;" width="9.3301" x="1918.8545" y="257.2969"/><text fill="#000000" font-family="sans-serif" font-size="12" font-style="italic" lengthAdjust="spacing" textLength="7.3301" x="1919.8545" y="269.4355">T</text><line style="stroke:#181818;stroke-width:0.5;" x1="1840" x2="1924.1846" y1="292.2969" y2="292.2969"/><line style="stroke:#181818;stroke-width:0.5;" x1="1840" x2="1924.1846" y1="300.2969" y2="300.2969"/></g><!--class C_0000182916779366679195--><g id="elem_C_0000182916779366679195"><rect codeLine="43" fill="#F1F1F1" height="48" id="C_0000182916779366679195" rx="2.5" ry="2.5" style="stroke:#181818;stroke-width:0.5;" width="296.3525" x="749" y="260.2969"/><ellipse cx="764" cy="276.2969" fill="#ADD1B2" rx="11" ry="11" style="stroke:#181818;stroke-width:1;"/><path d="M766.9688,281.9375 Q766.3906,282.2344 765.75,282.375 Q765.1094,282.5313 764.4063,282.5313 Q761.9063,282.5313 760.5781,280.8906 Q759.2656,279.2344 759.2656,276.1094 Q759.2656,272.9844 760.5781,271.3281 Q761.9063,269.6719 764.4063,269.6719 Q765.1094,269.6719 765.75,269.8281 Q766.4063,269.9844 766.9688,270.2813 L766.9688,273 Q766.3438,272.4219 765.75,272.1563 Q765.1563,271.875 764.5313,271.875 Q763.1875,271.875 762.5,272.9531 Q761.8125,274.0156 761.8125,276.1094 Q761.8125,278.2031 762.5,279.2813 Q763.1875,280.3438 764.5313,280.3438 Q765.1563,280.3438 765.75,280.0781 Q766.3438,279.7969 766.9688,279.2188 L766.9688,281.9375 Z " fill="#000000"/><text fill="#000000" font-family="sans-serif" font-size="14" lengthAdjust="spacing" textLength="99.5654" x="778" y="281.1436">HttpController</text><rect fill="#FFFFFF" height="15.9688" style="stroke:#181818;stroke-width:1;stroke-dasharray:2.0,2.0;" width="162.7871" x="885.5654" y="257.2969"/><text fill="#000000" font-family="sans-serif" font-size="12" font-style="italic" lengthAdjust="spacing" textLength="160.7871" x="886.5654" y="269.4355">T,_Bool AutoCreation=true</text><line style="stroke:#181818;stroke-width:0.5;" x1="750" x2="1044.3525" y1="292.2969" y2="292.2969"/><line style="stroke:#181818;stroke-width:0.5;" x1="750" x2="1044.3525" y1="300.2969" y2="300.2969"/></g><!--class C_0001846672343101501349--><g id="elem_C_0001846672343101501349"><rect codeLine="47" fill="#F1F1F1" height="48" id="C_0001846672343101501349" rx="2.5" ry="2.5" style="stroke:#181818;stroke-width:0.5;" width="344.1563" x="1080" y="260.2969"/><ellipse cx="1095" cy="276.2969" fill="#ADD1B2" rx="11" ry="11" style="stroke:#181818;stroke-width:1;"/><path d="M1097.9688,281.9375 Q1097.3906,282.2344 1096.75,282.375 Q1096.1094,282.5313 1095.4063,282.5313 Q1092.9063,282.5313 1091.5781,280.8906 Q1090.2656,279.2344 1090.2656,276.1094 Q1090.2656,272.9844 1091.5781,271.3281 Q1092.9063,269.6719 1095.4063,269.6719 Q1096.1094,269.6719 1096.75,269.8281 Q1097.4063,269.9844 1097.9688,270.2813 L1097.9688,273 Q1097.3438,272.4219 1096.75,272.1563 Q1096.1563,271.875 1095.5313,271.875 Q1094.1875,271.875 1093.5,272.9531 Q1092.8125,274.0156 1092.8125,276.1094 Q1092.8125,278.2031 1093.5,279.2813 Q1094.1875,280.3438 1095.5313,280.3438 Q1096.1563,280.3438 1096.75,280.0781 Q1097.3438,279.7969 1097.9688,279.2188 L1097.9688,281.9375 Z " fill="#000000"/><text fill="#000000" font-family="sans-serif" font-size="14" lengthAdjust="spacing" textLength="147.3691" x="1109" y="281.1436">HttpSimpleController</text><rect fill="#FFFFFF" height="15.9688" style="stroke:#181818;stroke-width:1;stroke-dasharray:2.0,2.0;" width="162.7871" x="1264.3691" y="257.2969"/><text fill="#000000" font-family="sans-serif" font-size="12" font-style="italic" lengthAdjust="spacing" textLength="160.7871" x="1265.3691" y="269.4355">T,_Bool AutoCreation=true</text><line style="stroke:#181818;stroke-width:0.5;" x1="1081" x2="1423.1563" y1="292.2969" y2="292.2969"/><line style="stroke:#181818;stroke-width:0.5;" x1="1081" x2="1423.1563" y1="300.2969" y2="300.2969"/></g><!--class C_0010455583987704007942--><g id="elem_C_0010455583987704007942"><rect codeLine="51" fill="#F1F1F1" height="48" id="C_0010455583987704007942" rx="2.5" ry="2.5" style="stroke:#181818;stroke-width:0.5;" width="344.6621" x="1459.5" y="260.2969"/><ellipse cx="1474.5" cy="276.2969" fill="#ADD1B2" rx="11" ry="11" style="stroke:#181818;stroke-width:1;"/><path d="M1477.4688,281.9375 Q1476.8906,282.2344 1476.25,282.375 Q1475.6094,282.5313 1474.9063,282.5313 Q1472.4063,282.5313 1471.0781,280.8906 Q1469.7656,279.2344 1469.7656,276.1094 Q1469.7656,272.9844 1471.0781,271.3281 Q1472.4063,269.6719 1474.9063,269.6719 Q1475.6094,269.6719 1476.25,269.8281 Q1476.9063,269.9844 1477.4688,270.2813 L1477.4688,273 Q1476.8438,272.4219 1476.25,272.1563 Q1475.6563,271.875 1475.0313,271.875 Q1473.6875,271.875 1473,272.9531 Q1472.3125,274.0156 1472.3125,276.1094 Q1472.3125,278.2031 1473,279.2813 Q1473.6875,280.3438 1475.0313,280.3438 Q1475.6563,280.3438 1476.25,280.0781 Q1476.8438,279.7969 1477.4688,279.2188 L1477.4688,281.9375 Z " fill="#000000"/><text fill="#000000" font-family="sans-serif" font-size="14" lengthAdjust="spacing" textLength="147.875" x="1488.5" y="281.1436">WebSocketController</text><rect fill="#FFFFFF" height="15.9688" style="stroke:#181818;stroke-width:1;stroke-dasharray:2.0,2.0;" width="162.7871" x="1644.375" y="257.2969"/><text fill="#000000" font-family="sans-serif" font-size="12" font-style="italic" lengthAdjust="spacing" textLength="160.7871" x="1645.375" y="269.4355">T,_Bool AutoCreation=true</text><line style="stroke:#181818;stroke-width:0.5;" x1="1460.5" x2="1803.1621" y1="292.2969" y2="292.2969"/><line style="stroke:#181818;stroke-width:0.5;" x1="1460.5" x2="1803.1621" y1="300.2969" y2="300.2969"/></g><!--reverse link C_0007589431571026341200 to C_0007426810552443098638--><g id="link_C_0007589431571026341200_C_0007426810552443098638"><path codeLine="54" d="M648.314,99.5951 C688.264,117.3151 726.8,134.4069 766.83,152.1569 " fill="transparent" id="C_0007589431571026341200-backto-C_0007426810552443098638" style="stroke:#181818;stroke-width:1;"/><polygon fill="transparent" points="631.86,92.2969,645.8813,105.0798,650.7468,94.1105,631.86,92.2969" style="stroke:#181818;stroke-width:1;"/></g><!--reverse link C_0007589431571026341200 to C_0013299971319634221181--><g id="link_C_0007589431571026341200_C_0013299971319634221181"><path codeLine="55" d="M508.7285,99.277 C466.6085,116.997 425.21,134.4069 383.01,152.1569 " fill="transparent" id="C_0007589431571026341200-backto-C_0013299971319634221181" style="stroke:#181818;stroke-width:1;"/><polygon fill="transparent" points="525.32,92.2969,506.4018,93.7465,511.0552,104.8075,525.32,92.2969" style="stroke:#181818;stroke-width:1;"/></g><!--reverse link C_0007426810552443098638 to C_0002367562706761873028--><g id="link_C_0007426810552443098638_C_0002367562706761873028"><path codeLine="56" d="M748.8554,192.4354 C670.0654,209.4454 537.23,238.1269 434.78,260.2469 " fill="transparent" id="C_0007426810552443098638-backto-C_0002367562706761873028" style="stroke:#181818;stroke-width:1;"/><polygon fill="transparent" points="766.45,188.6369,747.5892,186.5705,750.1215,198.3003,766.45,188.6369" style="stroke:#181818;stroke-width:1;"/></g><!--reverse link C_0013299971319634221181 to C_0002367562706761873028--><g id="link_C_0013299971319634221181_C_0002367562706761873028"><path codeLine="57" d="M328,218.2969 C328,235.9569 328,242.2369 328,259.9769 " fill="transparent" id="C_0013299971319634221181-backto-C_0002367562706761873028" style="stroke:#181818;stroke-width:1;"/><polygon fill="transparent" points="328,200.2969,322,218.2969,334,218.2969,328,200.2969" style="stroke:#181818;stroke-width:1;"/></g><!--reverse link C_0007589431571026341200 to C_0010298798647119485959--><g id="link_C_0007589431571026341200_C_0010298798647119485959"><path codeLine="58" d="M498.0807,76.6097 C423.8407,84.8797 317.34,103.3269 222,152.2969 C168.54,179.7569 118.73,230.6469 92.43,260.2669 " fill="transparent" id="C_0007589431571026341200-backto-C_0010298798647119485959" style="stroke:#181818;stroke-width:1;"/><polygon fill="transparent" points="515.97,74.6169,497.4164,70.6466,498.7449,82.5728,515.97,74.6169" style="stroke:#181818;stroke-width:1;"/></g><!--reverse link C_0013299971319634221181 to C_0010298798647119485959--><g id="link_C_0013299971319634221181_C_0010298798647119485959"><path codeLine="59" d="M256.0487,207.2058 C213.4187,224.9258 171.37,242.4069 128.66,260.1569 " fill="transparent" id="C_0013299971319634221181-backto-C_0010298798647119485959" style="stroke:#181818;stroke-width:1;"/><polygon fill="transparent" points="272.67,200.2969,253.7458,201.6654,258.3517,212.7463,272.67,200.2969" style="stroke:#181818;stroke-width:1;"/></g><!--reverse link C_0007426810552443098638 to C_0011386542272247263448--><g id="link_C_0007426810552443098638_C_0011386542272247263448"><path codeLine="60" d="M784.2194,213.2521 C755.3094,242.3321 714.58,279.1469 660,308.2969 C609.14,335.4669 548.13,354.9969 496.42,368.2569 " fill="transparent" id="C_0007426810552443098638-backto-C_0011386542272247263448" style="stroke:#181818;stroke-width:1;"/><polygon fill="transparent" points="796.91,200.4869,779.9644,209.0219,788.4745,217.4822,796.91,200.4869" style="stroke:#181818;stroke-width:1;"/></g><!--reverse link C_0010298798647119485959 to C_0011386542272247263448--><g id="link_C_0010298798647119485959_C_0011386542272247263448"><path codeLine="61" d="M156.378,313.7125 C208.558,331.4925 263.93,350.3669 316.42,368.2669 " fill="transparent" id="C_0010298798647119485959-backto-C_0011386542272247263448" style="stroke:#181818;stroke-width:1;"/><polygon fill="transparent" points="139.34,307.9069,154.4428,319.3918,158.3132,308.0331,139.34,307.9069" style="stroke:#181818;stroke-width:1;"/></g><!--reverse link C_0007589431571026341200 to C_0002292440546930414128--><g id="link_C_0007589431571026341200_C_0002292440546930414128"><path codeLine="62" d="M580,110.2969 C580,127.9569 580,134.2369 580,151.9769 " fill="transparent" id="C_0007589431571026341200-backto-C_0002292440546930414128" style="stroke:#181818;stroke-width:1;"/><polygon fill="transparent" points="580,92.2969,574,110.2969,586,110.2969,580,92.2969" style="stroke:#181818;stroke-width:1;"/></g><!--reverse link C_0007426810552443098638 to C_0005847266675194305338--><g id="link_C_0007426810552443098638_C_0005847266675194305338"><path codeLine="63" d="M750.686,207.5951 C710.736,225.3151 672.2,242.4069 632.17,260.1569 " fill="transparent" id="C_0007426810552443098638-backto-C_0005847266675194305338" style="stroke:#181818;stroke-width:1;"/><polygon fill="transparent" points="767.14,200.2969,748.2532,202.1105,753.1187,213.0798,767.14,200.2969" style="stroke:#181818;stroke-width:1;"/></g><!--reverse link C_0002292440546930414128 to C_0005847266675194305338--><g id="link_C_0002292440546930414128_C_0005847266675194305338"><path codeLine="64" d="M580,218.2969 C580,235.9569 580,242.2369 580,259.9769 " fill="transparent" id="C_0002292440546930414128-backto-C_0005847266675194305338" style="stroke:#181818;stroke-width:1;"/><polygon fill="transparent" points="580,200.2969,574,218.2969,586,218.2969,580,200.2969" style="stroke:#181818;stroke-width:1;"/></g><!--reverse link C_0007589431571026341200 to C_0014129061647938356207--><g id="link_C_0007589431571026341200_C_0014129061647938356207"><path codeLine="65" d="M662.1088,79.6472 C821.9388,99.7872 1217.42,149.6369 1366.43,168.4169 " fill="transparent" id="C_0007589431571026341200-backto-C_0014129061647938356207" style="stroke:#181818;stroke-width:1;"/><polygon fill="transparent" points="644.25,77.3969,661.3587,85.6002,662.8589,73.6943,644.25,77.3969" style="stroke:#181818;stroke-width:1;"/></g><!--reverse link C_0014129061647938356207 to C_0000721967873531230181--><g id="link_C_0014129061647938356207_C_0000721967873531230181"><path codeLine="66" d="M1493.287,188.5838 C1571.077,201.2238 1700.22,224.6069 1822,260.2969 C1827.46,261.8969 1833.13,263.7769 1838.7,265.7469 " fill="transparent" id="C_0014129061647938356207-backto-C_0000721967873531230181" style="stroke:#181818;stroke-width:1;"/><polygon fill="transparent" points="1475.52,185.6969,1492.3247,194.5061,1494.2493,182.6615,1475.52,185.6969" style="stroke:#181818;stroke-width:1;"/></g><!--reverse link C_0007426810552443098638 to C_0000721967873531230181--><g id="link_C_0007426810552443098638_C_0000721967873531230181"><path codeLine="67" d="M889.6301,180.5323 C1069.1201,188.9723 1638.13,218.3469 1822,260.2969 C1827.55,261.5669 1833.27,263.2369 1838.87,265.1069 " fill="transparent" id="C_0007426810552443098638-backto-C_0000721967873531230181" style="stroke:#181818;stroke-width:1;"/><polygon fill="transparent" points="871.65,179.6869,889.3483,186.5257,889.912,174.539,871.65,179.6869" style="stroke:#181818;stroke-width:1;"/></g><!--reverse link C_0007426810552443098638 to C_0000182916779366679195--><g id="link_C_0007426810552443098638_C_0000182916779366679195"><path codeLine="68" d="M846.5909,214.7928 C859.5909,232.4528 866.79,242.2369 879.84,259.9769 " fill="transparent" id="C_0007426810552443098638-backto-C_0000182916779366679195" style="stroke:#181818;stroke-width:1;"/><polygon fill="transparent" points="835.92,200.2969,841.7589,218.3498,851.4228,211.2359,835.92,200.2969" style="stroke:#181818;stroke-width:1;"/></g><!--reverse link C_0007426810552443098638 to C_0001846672343101501349--><g id="link_C_0007426810552443098638_C_0001846672343101501349"><path codeLine="69" d="M889.1438,194.4667 C960.1438,211.8467 1070.26,238.8069 1157.94,260.2669 " fill="transparent" id="C_0007426810552443098638-backto-C_0001846672343101501349" style="stroke:#181818;stroke-width:1;"/><polygon fill="transparent" points="871.66,190.1869,887.7172,200.2946,890.5704,188.6388,871.66,190.1869" style="stroke:#181818;stroke-width:1;"/></g><!--reverse link C_0007426810552443098638 to C_0010455583987704007942--><g id="link_C_0007426810552443098638_C_0010455583987704007942"><path codeLine="70" d="M889.569,186.4939 C1006.389,201.7239 1273.53,236.5569 1459.48,260.8069 " fill="transparent" id="C_0007426810552443098638-backto-C_0010455583987704007942" style="stroke:#181818;stroke-width:1;"/><polygon fill="transparent" points="871.72,184.1669,888.7933,192.4435,890.3446,180.5442,871.72,184.1669" style="stroke:#181818;stroke-width:1;"/></g><!--SRC=[dLPDRzD04BtdLrYz1AGccjdlbG8I3G8EhK1gW6Fa9Al6uDgLiwP2qF_EfeNM6uzZbwFtxNozD_jad_dS9UDDLQw-kRLVfJitJjPvkjibsynLQRNU_XmzV9-yhJxUNpeBbqwIT9VCbm2WfR62ezG8J7613E1lG1US_1ejbwExmxIpnUj6Li6KGP2I2S716iLDbBKD7sJzuFtDHRRPvEushLpKCd9chTN8qOQE64Cqs4XEmKUJpnQdoxEop9CtjI_dbKjzLXQlV5Mxna2CAoqLqw2qGgCvi6WW0YPglijoxwfu663MwC20q8XM66cbRGv3m9s9Xmo2o8sIWHRDcD1xIKLp40fkwRrmrpTvwcDLW34Rr0GfbEKWCAnAp50RxamShP8q-qPKu3SGm47oU9K8-23lfxo-oegOzL3UWi90g-M61-L0DraWO39fr2Xe5bPE1_KbHyOXNaiA9fISbuMloZmVfcPerJ2BIeS-znnOj3AgsOQ9cfTPeDqzip8Q4J8o7im1K8PN9vfxIy47bR-wrMMv_kxyymeZ22cbuU5PQ121LIjOz63QyB_2dOOs-psPTFjMVnZfI9r6zrIDCfLE2-iFwscISfh-QfrXnsSZVQRJqVh3UdIZp6U009ItTBhLWB3Z0b2cqsatJzKeNnams_-64Ouo88ooWm5RGZtcqVYzAyA_YtURv3Rps_t_J74rgQ_pq-I7gtR14nAOgYcCnkVdNouUppwlwiBN3xSV3z5ESOh92wplKNpv1m00]--></g></svg>