<?xml version="1.0" encoding="UTF-8" standalone="no"?><svg xmlns="http://www.w3.org/2000/svg" xmlns:xlink="http://www.w3.org/1999/xlink" contentScriptType="application/ecmascript" contentStyleType="text/css" height="283px" preserveAspectRatio="none" style="width:1607px;height:283px;" version="1.1" viewBox="0 0 1607 283" width="1607px" zoomAndPan="magnify"><defs><filter height="300%" id="f1bitmemdarbrc" width="300%" x="-1" y="-1"><feGaussianBlur result="blurOut" stdDeviation="2.0"/><feColorMatrix in="blurOut" result="blurOut2" type="matrix" values="0 0 0 0 0 0 0 0 0 0 0 0 0 0 0 0 0 0 .4 0"/><feOffset dx="4.0" dy="4.0" in="blurOut2" result="blurOut3"/><feBlend in="SourceGraphic" in2="blurOut3" mode="normal"/></filter></defs><g><!--MD5=[8eebf9a1e7583d896264093ba06a947b]
class C_0000948678946378292650--><rect fill="#FEFECE" filter="url(#f1bitmemdarbrc)" height="48" id="C_0000948678946378292650" style="stroke: #A80036; stroke-width: 1.5;" width="117" x="492" y="8"/><ellipse cx="507" cy="24" fill="#ADD1B2" rx="11" ry="11" style="stroke: #A80036; stroke-width: 1.0;"/><path d="M509.9688,29.6406 Q509.3906,29.9375 508.75,30.0781 Q508.1094,30.2344 507.4063,30.2344 Q504.9063,30.2344 503.5781,28.5938 Q502.2656,26.9375 502.2656,23.8125 Q502.2656,20.6875 503.5781,19.0313 Q504.9063,17.375 507.4063,17.375 Q508.1094,17.375 508.75,17.5313 Q509.4063,17.6875 509.9688,17.9844 L509.9688,20.7031 Q509.3438,20.125 508.75,19.8594 Q508.1563,19.5781 507.5313,19.5781 Q506.1875,19.5781 505.5,20.6563 Q504.8125,21.7188 504.8125,23.8125 Q504.8125,25.9063 505.5,26.9844 Q506.1875,28.0469 507.5313,28.0469 Q508.1563,28.0469 508.75,27.7813 Q509.3438,27.5 509.9688,26.9219 L509.9688,29.6406 Z "/><text fill="#000000" font-family="sans-serif" font-size="12" lengthAdjust="spacingAndGlyphs" textLength="85" x="521" y="28.1543">DrObjectBase</text><line style="stroke: #A80036; stroke-width: 1.5;" x1="493" x2="608" y1="40" y2="40"/><line style="stroke: #A80036; stroke-width: 1.5;" x1="493" x2="608" y1="48" y2="48"/><!--MD5=[b0c1f3f200618879cd53f0ce80fa105e]
class C_0000928351319055387329--><rect fill="#FEFECE" filter="url(#f1bitmemdarbrc)" height="48" id="C_0000928351319055387329" style="stroke: #A80036; stroke-width: 1.5;" width="97" x="578" y="116"/><ellipse cx="593" cy="132" fill="#ADD1B2" rx="11" ry="11" style="stroke: #A80036; stroke-width: 1.0;"/><path d="M595.9688,137.6406 Q595.3906,137.9375 594.75,138.0781 Q594.1094,138.2344 593.4063,138.2344 Q590.9063,138.2344 589.5781,136.5938 Q588.2656,134.9375 588.2656,131.8125 Q588.2656,128.6875 589.5781,127.0313 Q590.9063,125.375 593.4063,125.375 Q594.1094,125.375 594.75,125.5313 Q595.4063,125.6875 595.9688,125.9844 L595.9688,128.7031 Q595.3438,128.125 594.75,127.8594 Q594.1563,127.5781 593.5313,127.5781 Q592.1875,127.5781 591.5,128.6563 Q590.8125,129.7188 590.8125,131.8125 Q590.8125,133.9063 591.5,134.9844 Q592.1875,136.0469 593.5313,136.0469 Q594.1563,136.0469 594.75,135.7813 Q595.3438,135.5 595.9688,134.9219 L595.9688,137.6406 Z "/><text fill="#000000" font-family="sans-serif" font-size="12" lengthAdjust="spacingAndGlyphs" textLength="54" x="607" y="136.1543">DrObject</text><rect fill="#FFFFFF" height="15.9688" style="stroke: #000000; stroke-width: 1.0; stroke-dasharray: 2.0,2.0;" width="9" x="669" y="113"/><text fill="#000000" font-family="sans-serif" font-size="12" font-style="italic" lengthAdjust="spacingAndGlyphs" textLength="7" x="670" y="125.1387">T</text><line style="stroke: #A80036; stroke-width: 1.5;" x1="579" x2="674" y1="148" y2="148"/><line style="stroke: #A80036; stroke-width: 1.5;" x1="579" x2="674" y1="156" y2="156"/><!--MD5=[af389aaa357f7fd8d419fbcd5c89a1b7]
class C_0001766132705992294525--><rect fill="#FEFECE" filter="url(#f1bitmemdarbrc)" height="48" id="C_0001766132705992294525" style="stroke: #A80036; stroke-width: 1.5;" width="99" x="58" y="116"/><ellipse cx="73" cy="132" fill="#A9DCDF" rx="11" ry="11" style="stroke: #A80036; stroke-width: 1.0;"/><path d="M73.1094,127.3438 L71.9531,132.4219 L74.2813,132.4219 L73.1094,127.3438 Z M71.625,125.1094 L74.6094,125.1094 L77.9688,137.5 L75.5156,137.5 L74.75,134.4375 L71.4688,134.4375 L70.7188,137.5 L68.2813,137.5 L71.625,125.1094 Z "/><text fill="#000000" font-family="sans-serif" font-size="12" font-style="italic" lengthAdjust="spacingAndGlyphs" textLength="67" x="87" y="136.1543">PluginBase</text><line style="stroke: #A80036; stroke-width: 1.5;" x1="59" x2="156" y1="148" y2="148"/><line style="stroke: #A80036; stroke-width: 1.5;" x1="59" x2="156" y1="156" y2="156"/><!--MD5=[b7bc1ee6f8f7fb96a1411bbc736b5faf]
class C_0000090245984191403772--><rect fill="#FEFECE" filter="url(#f1bitmemdarbrc)" height="48" id="C_0000090245984191403772" style="stroke: #A80036; stroke-width: 1.5;" width="81" x="6" y="224"/><ellipse cx="21" cy="240" fill="#ADD1B2" rx="11" ry="11" style="stroke: #A80036; stroke-width: 1.0;"/><path d="M23.9688,245.6406 Q23.3906,245.9375 22.75,246.0781 Q22.1094,246.2344 21.4063,246.2344 Q18.9063,246.2344 17.5781,244.5938 Q16.2656,242.9375 16.2656,239.8125 Q16.2656,236.6875 17.5781,235.0313 Q18.9063,233.375 21.4063,233.375 Q22.1094,233.375 22.75,233.5313 Q23.4063,233.6875 23.9688,233.9844 L23.9688,236.7031 Q23.3438,236.125 22.75,235.8594 Q22.1563,235.5781 21.5313,235.5781 Q20.1875,235.5781 19.5,236.6563 Q18.8125,237.7188 18.8125,239.8125 Q18.8125,241.9063 19.5,242.9844 Q20.1875,244.0469 21.5313,244.0469 Q22.1563,244.0469 22.75,243.7813 Q23.3438,243.5 23.9688,242.9219 L23.9688,245.6406 Z "/><text fill="#000000" font-family="sans-serif" font-size="12" lengthAdjust="spacingAndGlyphs" textLength="38" x="35" y="244.1543">Plugin</text><rect fill="#FFFFFF" height="15.9688" style="stroke: #000000; stroke-width: 1.0; stroke-dasharray: 2.0,2.0;" width="9" x="81" y="221"/><text fill="#000000" font-family="sans-serif" font-size="12" font-style="italic" lengthAdjust="spacingAndGlyphs" textLength="7" x="82" y="233.1387">T</text><line style="stroke: #A80036; stroke-width: 1.5;" x1="7" x2="86" y1="256" y2="256"/><line style="stroke: #A80036; stroke-width: 1.5;" x1="7" x2="86" y1="264" y2="264"/><!--MD5=[9bf5fe54c3ed9894f652b9eb750cad2d]
class C_0001287349830889935744--><rect fill="#FEFECE" filter="url(#f1bitmemdarbrc)" height="48" id="C_0001287349830889935744" style="stroke: #A80036; stroke-width: 1.5;" width="120" x="222.5" y="116"/><ellipse cx="237.5" cy="132" fill="#A9DCDF" rx="11" ry="11" style="stroke: #A80036; stroke-width: 1.0;"/><path d="M237.6094,127.3438 L236.4531,132.4219 L238.7813,132.4219 L237.6094,127.3438 Z M236.125,125.1094 L239.1094,125.1094 L242.4688,137.5 L240.0156,137.5 L239.25,134.4375 L235.9688,134.4375 L235.2188,137.5 L232.7813,137.5 L236.125,125.1094 Z "/><text fill="#000000" font-family="sans-serif" font-size="12" font-style="italic" lengthAdjust="spacingAndGlyphs" textLength="88" x="251.5" y="136.1543">HttpFilterBase</text><line style="stroke: #A80036; stroke-width: 1.5;" x1="223.5" x2="341.5" y1="148" y2="148"/><line style="stroke: #A80036; stroke-width: 1.5;" x1="223.5" x2="341.5" y1="156" y2="156"/><!--MD5=[bb608011fef661c1200cb664cf8b36c7]
class C_0001423317784030907931--><rect fill="#FEFECE" filter="url(#f1bitmemdarbrc)" height="48" id="C_0001423317784030907931" style="stroke: #A80036; stroke-width: 1.5;" width="260" x="122.5" y="224"/><ellipse cx="137.5" cy="240" fill="#ADD1B2" rx="11" ry="11" style="stroke: #A80036; stroke-width: 1.0;"/><path d="M140.4688,245.6406 Q139.8906,245.9375 139.25,246.0781 Q138.6094,246.2344 137.9063,246.2344 Q135.4063,246.2344 134.0781,244.5938 Q132.7656,242.9375 132.7656,239.8125 Q132.7656,236.6875 134.0781,235.0313 Q135.4063,233.375 137.9063,233.375 Q138.6094,233.375 139.25,233.5313 Q139.9063,233.6875 140.4688,233.9844 L140.4688,236.7031 Q139.8438,236.125 139.25,235.8594 Q138.6563,235.5781 138.0313,235.5781 Q136.6875,235.5781 136,236.6563 Q135.3125,237.7188 135.3125,239.8125 Q135.3125,241.9063 136,242.9844 Q136.6875,244.0469 138.0313,244.0469 Q138.6563,244.0469 139.25,243.7813 Q139.8438,243.5 140.4688,242.9219 L140.4688,245.6406 Z "/><text fill="#000000" font-family="sans-serif" font-size="12" lengthAdjust="spacingAndGlyphs" textLength="58" x="151.5" y="244.1543">HttpFilter</text><rect fill="#FFFFFF" height="15.9688" style="stroke: #000000; stroke-width: 1.0; stroke-dasharray: 2.0,2.0;" width="168" x="217.5" y="221"/><text fill="#000000" font-family="sans-serif" font-size="12" font-style="italic" lengthAdjust="spacingAndGlyphs" textLength="166" x="218.5" y="233.1387">T,_Bool AutoCreation=true</text><line style="stroke: #A80036; stroke-width: 1.5;" x1="123.5" x2="381.5" y1="256" y2="256"/><line style="stroke: #A80036; stroke-width: 1.5;" x1="123.5" x2="381.5" y1="264" y2="264"/><!--MD5=[809d3da1c1f078ff56a88654a5e0f5e4]
class C_0000286555068366301766--><rect fill="#FEFECE" filter="url(#f1bitmemdarbrc)" height="48" id="C_0000286555068366301766" style="stroke: #A80036; stroke-width: 1.5;" width="134" x="408.5" y="116"/><ellipse cx="423.5" cy="132" fill="#A9DCDF" rx="11" ry="11" style="stroke: #A80036; stroke-width: 1.0;"/><path d="M423.6094,127.3438 L422.4531,132.4219 L424.7813,132.4219 L423.6094,127.3438 Z M422.125,125.1094 L425.1094,125.1094 L428.4688,137.5 L426.0156,137.5 L425.25,134.4375 L421.9688,134.4375 L421.2188,137.5 L418.7813,137.5 L422.125,125.1094 Z "/><text fill="#000000" font-family="sans-serif" font-size="12" font-style="italic" lengthAdjust="spacingAndGlyphs" textLength="102" x="437.5" y="136.1543">DrTemplateBase</text><line style="stroke: #A80036; stroke-width: 1.5;" x1="409.5" x2="541.5" y1="148" y2="148"/><line style="stroke: #A80036; stroke-width: 1.5;" x1="409.5" x2="541.5" y1="156" y2="156"/><!--MD5=[33b7b282ab6f720ae4a080cb18304122]
class C_0000730908334399288167--><rect fill="#FEFECE" filter="url(#f1bitmemdarbrc)" height="48" id="C_0000730908334399288167" style="stroke: #A80036; stroke-width: 1.5;" width="115" x="418" y="224"/><ellipse cx="433" cy="240" fill="#ADD1B2" rx="11" ry="11" style="stroke: #A80036; stroke-width: 1.0;"/><path d="M435.9688,245.6406 Q435.3906,245.9375 434.75,246.0781 Q434.1094,246.2344 433.4063,246.2344 Q430.9063,246.2344 429.5781,244.5938 Q428.2656,242.9375 428.2656,239.8125 Q428.2656,236.6875 429.5781,235.0313 Q430.9063,233.375 433.4063,233.375 Q434.1094,233.375 434.75,233.5313 Q435.4063,233.6875 435.9688,233.9844 L435.9688,236.7031 Q435.3438,236.125 434.75,235.8594 Q434.1563,235.5781 433.5313,235.5781 Q432.1875,235.5781 431.5,236.6563 Q430.8125,237.7188 430.8125,239.8125 Q430.8125,241.9063 431.5,242.9844 Q432.1875,244.0469 433.5313,244.0469 Q434.1563,244.0469 434.75,243.7813 Q435.3438,243.5 435.9688,242.9219 L435.9688,245.6406 Z "/><text fill="#000000" font-family="sans-serif" font-size="12" lengthAdjust="spacingAndGlyphs" textLength="72" x="447" y="244.1543">DrTemplate</text><rect fill="#FFFFFF" height="15.9688" style="stroke: #000000; stroke-width: 1.0; stroke-dasharray: 2.0,2.0;" width="9" x="527" y="221"/><text fill="#000000" font-family="sans-serif" font-size="12" font-style="italic" lengthAdjust="spacingAndGlyphs" textLength="7" x="528" y="233.1387">T</text><line style="stroke: #A80036; stroke-width: 1.5;" x1="419" x2="532" y1="256" y2="256"/><line style="stroke: #A80036; stroke-width: 1.5;" x1="419" x2="532" y1="264" y2="264"/><!--MD5=[f72130e82529f7639e9da9568463cbda]
class C_0000128620413217137181--><rect fill="#FEFECE" filter="url(#f1bitmemdarbrc)" height="48" id="C_0000128620413217137181" style="stroke: #A80036; stroke-width: 1.5;" width="191" x="837" y="116"/><ellipse cx="852" cy="132" fill="#A9DCDF" rx="11" ry="11" style="stroke: #A80036; stroke-width: 1.0;"/><path d="M852.1094,127.3438 L850.9531,132.4219 L853.2813,132.4219 L852.1094,127.3438 Z M850.625,125.1094 L853.6094,125.1094 L856.9688,137.5 L854.5156,137.5 L853.75,134.4375 L850.4688,134.4375 L849.7188,137.5 L847.2813,137.5 L850.625,125.1094 Z "/><text fill="#000000" font-family="sans-serif" font-size="12" font-style="italic" lengthAdjust="spacingAndGlyphs" textLength="159" x="866" y="136.1543">HttpSimpleControllerBase</text><line style="stroke: #A80036; stroke-width: 1.5;" x1="838" x2="1027" y1="148" y2="148"/><line style="stroke: #A80036; stroke-width: 1.5;" x1="838" x2="1027" y1="156" y2="156"/><!--MD5=[84f484c7cb11330a7d20b8d589f331c9]
class C_0001615046545627727628--><rect fill="#FEFECE" filter="url(#f1bitmemdarbrc)" height="48" id="C_0001615046545627727628" style="stroke: #A80036; stroke-width: 1.5;" width="194" x="1196.5" y="116"/><ellipse cx="1211.5" cy="132" fill="#A9DCDF" rx="11" ry="11" style="stroke: #A80036; stroke-width: 1.0;"/><path d="M1211.6094,127.3438 L1210.4531,132.4219 L1212.7813,132.4219 L1211.6094,127.3438 Z M1210.125,125.1094 L1213.1094,125.1094 L1216.4688,137.5 L1214.0156,137.5 L1213.25,134.4375 L1209.9688,134.4375 L1209.2188,137.5 L1206.7813,137.5 L1210.125,125.1094 Z "/><text fill="#000000" font-family="sans-serif" font-size="12" font-style="italic" lengthAdjust="spacingAndGlyphs" textLength="162" x="1225.5" y="136.1543">WebSocketControllerBase</text><line style="stroke: #A80036; stroke-width: 1.5;" x1="1197.5" x2="1389.5" y1="148" y2="148"/><line style="stroke: #A80036; stroke-width: 1.5;" x1="1197.5" x2="1389.5" y1="156" y2="156"/><!--MD5=[749bc2afdfdeb82669f6d0a1a738f672]
class C_0000022864597420834899--><rect fill="#FEFECE" filter="url(#f1bitmemdarbrc)" height="48" id="C_0000022864597420834899" style="stroke: #A80036; stroke-width: 1.5;" width="290" x="568.5" y="224"/><ellipse cx="583.5" cy="240" fill="#ADD1B2" rx="11" ry="11" style="stroke: #A80036; stroke-width: 1.0;"/><path d="M586.4688,245.6406 Q585.8906,245.9375 585.25,246.0781 Q584.6094,246.2344 583.9063,246.2344 Q581.4063,246.2344 580.0781,244.5938 Q578.7656,242.9375 578.7656,239.8125 Q578.7656,236.6875 580.0781,235.0313 Q581.4063,233.375 583.9063,233.375 Q584.6094,233.375 585.25,233.5313 Q585.9063,233.6875 586.4688,233.9844 L586.4688,236.7031 Q585.8438,236.125 585.25,235.8594 Q584.6563,235.5781 584.0313,235.5781 Q582.6875,235.5781 582,236.6563 Q581.3125,237.7188 581.3125,239.8125 Q581.3125,241.9063 582,242.9844 Q582.6875,244.0469 584.0313,244.0469 Q584.6563,244.0469 585.25,243.7813 Q585.8438,243.5 586.4688,242.9219 L586.4688,245.6406 Z "/><text fill="#000000" font-family="sans-serif" font-size="12" lengthAdjust="spacingAndGlyphs" textLength="88" x="597.5" y="244.1543">HttpController</text><rect fill="#FFFFFF" height="15.9688" style="stroke: #000000; stroke-width: 1.0; stroke-dasharray: 2.0,2.0;" width="168" x="693.5" y="221"/><text fill="#000000" font-family="sans-serif" font-size="12" font-style="italic" lengthAdjust="spacingAndGlyphs" textLength="166" x="694.5" y="233.1387">T,_Bool AutoCreation=true</text><line style="stroke: #A80036; stroke-width: 1.5;" x1="569.5" x2="857.5" y1="256" y2="256"/><line style="stroke: #A80036; stroke-width: 1.5;" x1="569.5" x2="857.5" y1="264" y2="264"/><!--MD5=[289ab231adc1a02644bf0cb09edc94b2]
class C_0000230834042887687668--><rect fill="#FEFECE" filter="url(#f1bitmemdarbrc)" height="48" id="C_0000230834042887687668" style="stroke: #A80036; stroke-width: 1.5;" width="331" x="894" y="224"/><ellipse cx="909" cy="240" fill="#ADD1B2" rx="11" ry="11" style="stroke: #A80036; stroke-width: 1.0;"/><path d="M911.9688,245.6406 Q911.3906,245.9375 910.75,246.0781 Q910.1094,246.2344 909.4063,246.2344 Q906.9063,246.2344 905.5781,244.5938 Q904.2656,242.9375 904.2656,239.8125 Q904.2656,236.6875 905.5781,235.0313 Q906.9063,233.375 909.4063,233.375 Q910.1094,233.375 910.75,233.5313 Q911.4063,233.6875 911.9688,233.9844 L911.9688,236.7031 Q911.3438,236.125 910.75,235.8594 Q910.1563,235.5781 909.5313,235.5781 Q908.1875,235.5781 907.5,236.6563 Q906.8125,237.7188 906.8125,239.8125 Q906.8125,241.9063 907.5,242.9844 Q908.1875,244.0469 909.5313,244.0469 Q910.1563,244.0469 910.75,243.7813 Q911.3438,243.5 911.9688,242.9219 L911.9688,245.6406 Z "/><text fill="#000000" font-family="sans-serif" font-size="12" lengthAdjust="spacingAndGlyphs" textLength="129" x="923" y="244.1543">HttpSimpleController</text><rect fill="#FFFFFF" height="15.9688" style="stroke: #000000; stroke-width: 1.0; stroke-dasharray: 2.0,2.0;" width="168" x="1060" y="221"/><text fill="#000000" font-family="sans-serif" font-size="12" font-style="italic" lengthAdjust="spacingAndGlyphs" textLength="166" x="1061" y="233.1387">T,_Bool AutoCreation=true</text><line style="stroke: #A80036; stroke-width: 1.5;" x1="895" x2="1224" y1="256" y2="256"/><line style="stroke: #A80036; stroke-width: 1.5;" x1="895" x2="1224" y1="264" y2="264"/><!--MD5=[2148bbfa2d589c812ddc78fd9ac2771f]
class C_0001306947998463000992--><rect fill="#FEFECE" filter="url(#f1bitmemdarbrc)" height="48" id="C_0001306947998463000992" style="stroke: #A80036; stroke-width: 1.5;" width="333" x="1260" y="224"/><ellipse cx="1275" cy="240" fill="#ADD1B2" rx="11" ry="11" style="stroke: #A80036; stroke-width: 1.0;"/><path d="M1277.9688,245.6406 Q1277.3906,245.9375 1276.75,246.0781 Q1276.1094,246.2344 1275.4063,246.2344 Q1272.9063,246.2344 1271.5781,244.5938 Q1270.2656,242.9375 1270.2656,239.8125 Q1270.2656,236.6875 1271.5781,235.0313 Q1272.9063,233.375 1275.4063,233.375 Q1276.1094,233.375 1276.75,233.5313 Q1277.4063,233.6875 1277.9688,233.9844 L1277.9688,236.7031 Q1277.3438,236.125 1276.75,235.8594 Q1276.1563,235.5781 1275.5313,235.5781 Q1274.1875,235.5781 1273.5,236.6563 Q1272.8125,237.7188 1272.8125,239.8125 Q1272.8125,241.9063 1273.5,242.9844 Q1274.1875,244.0469 1275.5313,244.0469 Q1276.1563,244.0469 1276.75,243.7813 Q1277.3438,243.5 1277.9688,242.9219 L1277.9688,245.6406 Z "/><text fill="#000000" font-family="sans-serif" font-size="12" lengthAdjust="spacingAndGlyphs" textLength="131" x="1289" y="244.1543">WebSocketController</text><rect fill="#FFFFFF" height="15.9688" style="stroke: #000000; stroke-width: 1.0; stroke-dasharray: 2.0,2.0;" width="168" x="1428" y="221"/><text fill="#000000" font-family="sans-serif" font-size="12" font-style="italic" lengthAdjust="spacingAndGlyphs" textLength="166" x="1429" y="233.1387">T,_Bool AutoCreation=true</text><line style="stroke: #A80036; stroke-width: 1.5;" x1="1261" x2="1592" y1="256" y2="256"/><line style="stroke: #A80036; stroke-width: 1.5;" x1="1261" x2="1592" y1="264" y2="264"/><!--MD5=[8b87dbb05889aaa4030f7836e15230c6]
reverse link C_0000948678946378292650 to C_0000928351319055387329--><path d="M578.93,72.66 C589.32,87.15 600.74,103.07 609.78,115.68 " fill="none" id="C_0000948678946378292650&lt;-C_0000928351319055387329" style="stroke: #A80036; stroke-width: 1.0;"/><polygon fill="none" points="572.96,76.33,566.99,56,584.33,68.18,572.96,76.33" style="stroke: #A80036; stroke-width: 1.0;"/><!--MD5=[dadf83d07adcf840ce6a29c8409e4070]
reverse link C_0000948678946378292650 to C_0001766132705992294525--><path d="M472.06,51.77 C381.09,73.53 233.88,108.76 157.33,127.08 " fill="none" id="C_0000948678946378292650&lt;-C_0001766132705992294525" style="stroke: #A80036; stroke-width: 1.0;"/><polygon fill="none" points="470.59,44.92,491.67,47.08,473.85,58.54,470.59,44.92" style="stroke: #A80036; stroke-width: 1.0;"/><!--MD5=[4c7405d525f24e63a2fac75cb3c1b026]
reverse link C_0001766132705992294525 to C_0000090245984191403772--><path d="M84.13,181.61 C75.94,195.85 67.02,211.35 59.92,223.68 " fill="none" id="C_0001766132705992294525&lt;-C_0000090245984191403772" style="stroke: #A80036; stroke-width: 1.0;"/><polygon fill="none" points="78.22,177.84,94.26,164,90.36,184.83,78.22,177.84" style="stroke: #A80036; stroke-width: 1.0;"/><!--MD5=[a465e6d1a8ec232be538372436990450]
reverse link C_0000928351319055387329 to C_0000090245984191403772--><path d="M558.22,163.5 C357.18,208.43 295.84,174.26 104.5,224 C98.84,225.47 92.99,227.35 87.27,229.39 " fill="none" id="C_0000928351319055387329&lt;-C_0000090245984191403772" style="stroke: #A80036; stroke-width: 1.0;"/><polygon fill="none" points="556.73,156.66,577.8,158.98,559.89,170.3,556.73,156.66" style="stroke: #A80036; stroke-width: 1.0;"/><!--MD5=[af1953e88b81244f644938e052f6a539]
reverse link C_0000948678946378292650 to C_0001287349830889935744--><path d="M473.68,63.38 C431.47,80.08 379.93,100.47 341,115.86 " fill="none" id="C_0000948678946378292650&lt;-C_0001287349830889935744" style="stroke: #A80036; stroke-width: 1.0;"/><polygon fill="none" points="471.18,56.85,492.35,56,476.32,69.87,471.18,56.85" style="stroke: #A80036; stroke-width: 1.0;"/><!--MD5=[a80100698287dfeaa7d0a65956649d5d]
reverse link C_0000928351319055387329 to C_0001423317784030907931--><path d="M558.75,163.98 C475.94,189.16 400.88,209.26 343.97,223.98 " fill="none" id="C_0000928351319055387329&lt;-C_0001423317784030907931" style="stroke: #A80036; stroke-width: 1.0;"/><polygon fill="none" points="556.78,157.26,577.95,158.09,560.89,170.65,556.78,157.26" style="stroke: #A80036; stroke-width: 1.0;"/><!--MD5=[a5c3bc05f3c43458d5ea3249c86aa6d1]
reverse link C_0001287349830889935744 to C_0001423317784030907931--><path d="M270.46,183.54 C266.58,197.23 262.43,211.9 259.1,223.68 " fill="none" id="C_0001287349830889935744&lt;-C_0001423317784030907931" style="stroke: #A80036; stroke-width: 1.0;"/><polygon fill="none" points="263.81,181.34,275.99,164,277.28,185.15,263.81,181.34" style="stroke: #A80036; stroke-width: 1.0;"/><!--MD5=[e255ccbd859a31138760694afb291f39]
reverse link C_0000948678946378292650 to C_0000286555068366301766--><path d="M522.44,72.66 C512.19,87.15 500.92,103.07 492,115.68 " fill="none" id="C_0000948678946378292650&lt;-C_0000286555068366301766" style="stroke: #A80036; stroke-width: 1.0;"/><polygon fill="none" points="516.96,68.28,534.23,56,528.39,76.37,516.96,68.28" style="stroke: #A80036; stroke-width: 1.0;"/><!--MD5=[3d1d77076dc84274b00e631f6cf6abf6]
reverse link C_0000928351319055387329 to C_0000730908334399288167--><path d="M577.34,175.51 C554.77,191.35 528.61,209.71 508.46,223.86 " fill="none" id="C_0000928351319055387329&lt;-C_0000730908334399288167" style="stroke: #A80036; stroke-width: 1.0;"/><polygon fill="none" points="573.34,169.76,593.74,164,581.39,181.22,573.34,169.76" style="stroke: #A80036; stroke-width: 1.0;"/><!--MD5=[d304be30e2eef8812d130d007e843740]
reverse link C_0000286555068366301766 to C_0000730908334399288167--><path d="M475.5,184.02 C475.5,197.58 475.5,212.04 475.5,223.68 " fill="none" id="C_0000286555068366301766&lt;-C_0000730908334399288167" style="stroke: #A80036; stroke-width: 1.0;"/><polygon fill="none" points="468.5,184,475.5,164,482.5,184,468.5,184" style="stroke: #A80036; stroke-width: 1.0;"/><!--MD5=[36fc32e6ce5ca1d346794beaaf91f2d6]
reverse link C_0000948678946378292650 to C_0000128620413217137181--><path d="M628.81,54.73 C693.11,72.57 783.92,97.77 849.47,115.96 " fill="none" id="C_0000948678946378292650&lt;-C_0000128620413217137181" style="stroke: #A80036; stroke-width: 1.0;"/><polygon fill="none" points="626.75,61.42,609.35,49.33,630.49,47.93,626.75,61.42" style="stroke: #A80036; stroke-width: 1.0;"/><!--MD5=[f882c48129beea06b07e98465588f15e]
reverse link C_0000948678946378292650 to C_0001615046545627727628--><path d="M628.99,44.2 C765.76,63.71 1047.34,103.88 1196.25,125.13 " fill="none" id="C_0000948678946378292650&lt;-C_0001615046545627727628" style="stroke: #A80036; stroke-width: 1.0;"/><polygon fill="none" points="627.92,51.12,609.11,41.36,629.9,37.26,627.92,51.12" style="stroke: #A80036; stroke-width: 1.0;"/><!--MD5=[87b9edd673a73915ad55a9ae67d11406]
reverse link C_0000928351319055387329 to C_0000022864597420834899--><path d="M658.26,179.7 C670.37,194.45 683.78,210.79 694.36,223.68 " fill="none" id="C_0000928351319055387329&lt;-C_0000022864597420834899" style="stroke: #A80036; stroke-width: 1.0;"/><polygon fill="none" points="652.66,183.9,645.38,164,663.48,175.02,652.66,183.9" style="stroke: #A80036; stroke-width: 1.0;"/><!--MD5=[6a03239c5139754cb114790bf1d5b37a]
reverse link C_0000928351319055387329 to C_0000230834042887687668--><path d="M695.15,157.81 C768.07,175.66 883.85,204 965.28,223.93 " fill="none" id="C_0000928351319055387329&lt;-C_0000230834042887687668" style="stroke: #A80036; stroke-width: 1.0;"/><polygon fill="none" points="693.09,164.51,675.33,152.95,696.42,150.91,693.09,164.51" style="stroke: #A80036; stroke-width: 1.0;"/><!--MD5=[b4352ad481d11aebd4ce6b7144cf67c7]
reverse link C_0000128620413217137181 to C_0000230834042887687668--><path d="M975.48,176.87 C993.99,192.33 1015.12,209.96 1031.56,223.68 " fill="none" id="C_0000128620413217137181&lt;-C_0000230834042887687668" style="stroke: #A80036; stroke-width: 1.0;"/><polygon fill="none" points="970.93,182.19,960.06,164,979.9,171.44,970.93,182.19" style="stroke: #A80036; stroke-width: 1.0;"/><!--MD5=[6a8282b80a535f07d8570a728bb9dda4]
reverse link C_0000928351319055387329 to C_0001306947998463000992--><path d="M695.16,150.1 C819.5,166.57 1085.25,201.78 1259.83,224.92 " fill="none" id="C_0000928351319055387329&lt;-C_0001306947998463000992" style="stroke: #A80036; stroke-width: 1.0;"/><polygon fill="none" points="693.95,157,675.04,147.43,695.79,143.12,693.95,157" style="stroke: #A80036; stroke-width: 1.0;"/><!--MD5=[61b1aeb17bccd7fcd72bde1ec44cd72d]
reverse link C_0001615046545627727628 to C_0001306947998463000992--><path d="M1338.21,176.64 C1357.68,192.15 1379.94,209.89 1397.24,223.68 " fill="none" id="C_0001615046545627727628&lt;-C_0001306947998463000992" style="stroke: #A80036; stroke-width: 1.0;"/><polygon fill="none" points="1333.64,181.94,1322.36,164,1342.36,170.99,1333.64,181.94" style="stroke: #A80036; stroke-width: 1.0;"/><!--MD5=[e63f0df5c84a3dec0e9472522d63ea4b]
@startuml
class "DrObjectBase" as C_0000948678946378292650
class C_0000948678946378292650 {
}
class "DrObject<T>" as C_0000928351319055387329
class C_0000928351319055387329 {
}
abstract "PluginBase" as C_0001766132705992294525
abstract C_0001766132705992294525 {
}
class "Plugin<T>" as C_0000090245984191403772
class C_0000090245984191403772 {
}
abstract "HttpFilterBase" as C_0001287349830889935744
abstract C_0001287349830889935744 {
}
class "HttpFilter<T,_Bool AutoCreation=true>" as C_0001423317784030907931
class C_0001423317784030907931 {
}
abstract "DrTemplateBase" as C_0000286555068366301766
abstract C_0000286555068366301766 {
}
class "DrTemplate<T>" as C_0000730908334399288167
class C_0000730908334399288167 {
}
abstract "HttpSimpleControllerBase" as C_0000128620413217137181
abstract C_0000128620413217137181 {
}
abstract "WebSocketControllerBase" as C_0001615046545627727628
abstract C_0001615046545627727628 {
}
class "HttpController<T,_Bool AutoCreation=true>" as C_0000022864597420834899
class C_0000022864597420834899 {
}
class "HttpSimpleController<T,_Bool AutoCreation=true>" as C_0000230834042887687668
class C_0000230834042887687668 {
}
class "WebSocketController<T,_Bool AutoCreation=true>" as C_0001306947998463000992
class C_0001306947998463000992 {
}
C_0000948678946378292650 <|- - C_0000928351319055387329
C_0000948678946378292650 <|- - C_0001766132705992294525
C_0001766132705992294525 <|- - C_0000090245984191403772
C_0000928351319055387329 <|- - C_0000090245984191403772
C_0000948678946378292650 <|- - C_0001287349830889935744
C_0000928351319055387329 <|- - C_0001423317784030907931
C_0001287349830889935744 <|- - C_0001423317784030907931
C_0000948678946378292650 <|- - C_0000286555068366301766
C_0000928351319055387329 <|- - C_0000730908334399288167
C_0000286555068366301766 <|- - C_0000730908334399288167
C_0000948678946378292650 <|- - C_0000128620413217137181
C_0000948678946378292650 <|- - C_0001615046545627727628
C_0000928351319055387329 <|- - C_0000022864597420834899
C_0000928351319055387329 <|- - C_0000230834042887687668
C_0000128620413217137181 <|- - C_0000230834042887687668
C_0000928351319055387329 <|- - C_0001306947998463000992
C_0001615046545627727628 <|- - C_0001306947998463000992

@enduml

PlantUML version 1.2020.02(Sun Mar 01 11:22:07 CET 2020)
(GPL source distribution)
Java Runtime: OpenJDK Runtime Environment
JVM: OpenJDK 64-Bit Server VM
Java Version: 11.0.18+10-post-Ubuntu-0ubuntu122.04
Operating System: Linux
Default Encoding: UTF-8
Language: en
Country: US
--></g></svg>