<?xml version="1.0" encoding="UTF-8" standalone="no"?><svg xmlns="http://www.w3.org/2000/svg" xmlns:xlink="http://www.w3.org/1999/xlink" contentScriptType="application/ecmascript" contentStyleType="text/css" height="303px" preserveAspectRatio="none" style="width:1606px;height:303px;" version="1.1" viewBox="0 0 1606 303" width="1606px" zoomAndPan="magnify"><defs><filter height="300%" id="f8cmqa31ffajn" width="300%" x="-1" y="-1"><feGaussianBlur result="blurOut" stdDeviation="2.0"/><feColorMatrix in="blurOut" result="blurOut2" type="matrix" values="0 0 0 0 0 0 0 0 0 0 0 0 0 0 0 0 0 0 .4 0"/><feOffset dx="4.0" dy="4.0" in="blurOut2" result="blurOut3"/><feBlend in="SourceGraphic" in2="blurOut3" mode="normal"/></filter></defs><g><text fill="#000000" font-family="sans-serif" font-size="18" lengthAdjust="spacingAndGlyphs" textLength="257" x="677" y="16.708">'drobjectbase' class hierarchy</text><!--MD5=[8eebf9a1e7583d896264093ba06a947b]
class C_0000948678946378292650--><rect fill="#FEFECE" filter="url(#f8cmqa31ffajn)" height="48" id="C_0000948678946378292650" style="stroke: #A80036; stroke-width: 1.5;" width="117" x="520.5" y="28.9531"/><ellipse cx="535.5" cy="44.9531" fill="#ADD1B2" rx="11" ry="11" style="stroke: #A80036; stroke-width: 1.0;"/><path d="M538.4688,50.5938 Q537.8906,50.8906 537.25,51.0313 Q536.6094,51.1875 535.9063,51.1875 Q533.4063,51.1875 532.0781,49.5469 Q530.7656,47.8906 530.7656,44.7656 Q530.7656,41.6406 532.0781,39.9844 Q533.4063,38.3281 535.9063,38.3281 Q536.6094,38.3281 537.25,38.4844 Q537.9063,38.6406 538.4688,38.9375 L538.4688,41.6563 Q537.8438,41.0781 537.25,40.8125 Q536.6563,40.5313 536.0313,40.5313 Q534.6875,40.5313 534,41.6094 Q533.3125,42.6719 533.3125,44.7656 Q533.3125,46.8594 534,47.9375 Q534.6875,49 536.0313,49 Q536.6563,49 537.25,48.7344 Q537.8438,48.4531 538.4688,47.875 L538.4688,50.5938 Z "/><text fill="#000000" font-family="sans-serif" font-size="12" lengthAdjust="spacingAndGlyphs" textLength="85" x="549.5" y="49.1074">DrObjectBase</text><line style="stroke: #A80036; stroke-width: 1.5;" x1="521.5" x2="636.5" y1="60.9531" y2="60.9531"/><line style="stroke: #A80036; stroke-width: 1.5;" x1="521.5" x2="636.5" y1="68.9531" y2="68.9531"/><!--MD5=[b0c1f3f200618879cd53f0ce80fa105e]
class C_0000928351319055387329--><rect fill="#FEFECE" filter="url(#f8cmqa31ffajn)" height="48" id="C_0000928351319055387329" style="stroke: #A80036; stroke-width: 1.5;" width="97" x="597.5" y="136.9531"/><ellipse cx="612.5" cy="152.9531" fill="#ADD1B2" rx="11" ry="11" style="stroke: #A80036; stroke-width: 1.0;"/><path d="M615.4688,158.5938 Q614.8906,158.8906 614.25,159.0313 Q613.6094,159.1875 612.9063,159.1875 Q610.4063,159.1875 609.0781,157.5469 Q607.7656,155.8906 607.7656,152.7656 Q607.7656,149.6406 609.0781,147.9844 Q610.4063,146.3281 612.9063,146.3281 Q613.6094,146.3281 614.25,146.4844 Q614.9063,146.6406 615.4688,146.9375 L615.4688,149.6563 Q614.8438,149.0781 614.25,148.8125 Q613.6563,148.5313 613.0313,148.5313 Q611.6875,148.5313 611,149.6094 Q610.3125,150.6719 610.3125,152.7656 Q610.3125,154.8594 611,155.9375 Q611.6875,157 613.0313,157 Q613.6563,157 614.25,156.7344 Q614.8438,156.4531 615.4688,155.875 L615.4688,158.5938 Z "/><text fill="#000000" font-family="sans-serif" font-size="12" lengthAdjust="spacingAndGlyphs" textLength="54" x="626.5" y="157.1074">DrObject</text><rect fill="#FFFFFF" height="15.9688" style="stroke: #000000; stroke-width: 1.0; stroke-dasharray: 2.0,2.0;" width="9" x="688.5" y="133.9531"/><text fill="#000000" font-family="sans-serif" font-size="12" font-style="italic" lengthAdjust="spacingAndGlyphs" textLength="7" x="689.5" y="146.0918">T</text><line style="stroke: #A80036; stroke-width: 1.5;" x1="598.5" x2="693.5" y1="168.9531" y2="168.9531"/><line style="stroke: #A80036; stroke-width: 1.5;" x1="598.5" x2="693.5" y1="176.9531" y2="176.9531"/><!--MD5=[9bf5fe54c3ed9894f652b9eb750cad2d]
class C_0001287349830889935744--><rect fill="#FEFECE" filter="url(#f8cmqa31ffajn)" height="48" id="C_0001287349830889935744" style="stroke: #A80036; stroke-width: 1.5;" width="121" x="105.5" y="136.9531"/><ellipse cx="120.5" cy="152.9531" fill="#ADD1B2" rx="11" ry="11" style="stroke: #A80036; stroke-width: 1.0;"/><path d="M123.4688,158.5938 Q122.8906,158.8906 122.25,159.0313 Q121.6094,159.1875 120.9063,159.1875 Q118.4063,159.1875 117.0781,157.5469 Q115.7656,155.8906 115.7656,152.7656 Q115.7656,149.6406 117.0781,147.9844 Q118.4063,146.3281 120.9063,146.3281 Q121.6094,146.3281 122.25,146.4844 Q122.9063,146.6406 123.4688,146.9375 L123.4688,149.6563 Q122.8438,149.0781 122.25,148.8125 Q121.6563,148.5313 121.0313,148.5313 Q119.6875,148.5313 119,149.6094 Q118.3125,150.6719 118.3125,152.7656 Q118.3125,154.8594 119,155.9375 Q119.6875,157 121.0313,157 Q121.6563,157 122.25,156.7344 Q122.8438,156.4531 123.4688,155.875 L123.4688,158.5938 Z "/><text fill="#000000" font-family="sans-serif" font-size="12" lengthAdjust="spacingAndGlyphs" textLength="89" x="134.5" y="157.1074">HttpFilterBase</text><line style="stroke: #A80036; stroke-width: 1.5;" x1="106.5" x2="225.5" y1="168.9531" y2="168.9531"/><line style="stroke: #A80036; stroke-width: 1.5;" x1="106.5" x2="225.5" y1="176.9531" y2="176.9531"/><!--MD5=[bb608011fef661c1200cb664cf8b36c7]
class C_0001423317784030907931--><rect fill="#FEFECE" filter="url(#f8cmqa31ffajn)" height="48" id="C_0001423317784030907931" style="stroke: #A80036; stroke-width: 1.5;" width="260" x="6" y="244.9531"/><ellipse cx="21" cy="260.9531" fill="#ADD1B2" rx="11" ry="11" style="stroke: #A80036; stroke-width: 1.0;"/><path d="M23.9688,266.5938 Q23.3906,266.8906 22.75,267.0313 Q22.1094,267.1875 21.4063,267.1875 Q18.9063,267.1875 17.5781,265.5469 Q16.2656,263.8906 16.2656,260.7656 Q16.2656,257.6406 17.5781,255.9844 Q18.9063,254.3281 21.4063,254.3281 Q22.1094,254.3281 22.75,254.4844 Q23.4063,254.6406 23.9688,254.9375 L23.9688,257.6563 Q23.3438,257.0781 22.75,256.8125 Q22.1563,256.5313 21.5313,256.5313 Q20.1875,256.5313 19.5,257.6094 Q18.8125,258.6719 18.8125,260.7656 Q18.8125,262.8594 19.5,263.9375 Q20.1875,265 21.5313,265 Q22.1563,265 22.75,264.7344 Q23.3438,264.4531 23.9688,263.875 L23.9688,266.5938 Z "/><text fill="#000000" font-family="sans-serif" font-size="12" lengthAdjust="spacingAndGlyphs" textLength="58" x="35" y="265.1074">HttpFilter</text><rect fill="#FFFFFF" height="15.9688" style="stroke: #000000; stroke-width: 1.0; stroke-dasharray: 2.0,2.0;" width="168" x="101" y="241.9531"/><text fill="#000000" font-family="sans-serif" font-size="12" font-style="italic" lengthAdjust="spacingAndGlyphs" textLength="166" x="102" y="254.0918">T,_Bool AutoCreation=true</text><line style="stroke: #A80036; stroke-width: 1.5;" x1="7" x2="265" y1="276.9531" y2="276.9531"/><line style="stroke: #A80036; stroke-width: 1.5;" x1="7" x2="265" y1="284.9531" y2="284.9531"/><!--MD5=[809d3da1c1f078ff56a88654a5e0f5e4]
class C_0000286555068366301766--><rect fill="#FEFECE" filter="url(#f8cmqa31ffajn)" height="48" id="C_0000286555068366301766" style="stroke: #A80036; stroke-width: 1.5;" width="135" x="291.5" y="136.9531"/><ellipse cx="306.5" cy="152.9531" fill="#ADD1B2" rx="11" ry="11" style="stroke: #A80036; stroke-width: 1.0;"/><path d="M309.4688,158.5938 Q308.8906,158.8906 308.25,159.0313 Q307.6094,159.1875 306.9063,159.1875 Q304.4063,159.1875 303.0781,157.5469 Q301.7656,155.8906 301.7656,152.7656 Q301.7656,149.6406 303.0781,147.9844 Q304.4063,146.3281 306.9063,146.3281 Q307.6094,146.3281 308.25,146.4844 Q308.9063,146.6406 309.4688,146.9375 L309.4688,149.6563 Q308.8438,149.0781 308.25,148.8125 Q307.6563,148.5313 307.0313,148.5313 Q305.6875,148.5313 305,149.6094 Q304.3125,150.6719 304.3125,152.7656 Q304.3125,154.8594 305,155.9375 Q305.6875,157 307.0313,157 Q307.6563,157 308.25,156.7344 Q308.8438,156.4531 309.4688,155.875 L309.4688,158.5938 Z "/><text fill="#000000" font-family="sans-serif" font-size="12" lengthAdjust="spacingAndGlyphs" textLength="103" x="320.5" y="157.1074">DrTemplateBase</text><line style="stroke: #A80036; stroke-width: 1.5;" x1="292.5" x2="425.5" y1="168.9531" y2="168.9531"/><line style="stroke: #A80036; stroke-width: 1.5;" x1="292.5" x2="425.5" y1="176.9531" y2="176.9531"/><!--MD5=[33b7b282ab6f720ae4a080cb18304122]
class C_0000730908334399288167--><rect fill="#FEFECE" filter="url(#f8cmqa31ffajn)" height="48" id="C_0000730908334399288167" style="stroke: #A80036; stroke-width: 1.5;" width="115" x="301.5" y="244.9531"/><ellipse cx="316.5" cy="260.9531" fill="#ADD1B2" rx="11" ry="11" style="stroke: #A80036; stroke-width: 1.0;"/><path d="M319.4688,266.5938 Q318.8906,266.8906 318.25,267.0313 Q317.6094,267.1875 316.9063,267.1875 Q314.4063,267.1875 313.0781,265.5469 Q311.7656,263.8906 311.7656,260.7656 Q311.7656,257.6406 313.0781,255.9844 Q314.4063,254.3281 316.9063,254.3281 Q317.6094,254.3281 318.25,254.4844 Q318.9063,254.6406 319.4688,254.9375 L319.4688,257.6563 Q318.8438,257.0781 318.25,256.8125 Q317.6563,256.5313 317.0313,256.5313 Q315.6875,256.5313 315,257.6094 Q314.3125,258.6719 314.3125,260.7656 Q314.3125,262.8594 315,263.9375 Q315.6875,265 317.0313,265 Q317.6563,265 318.25,264.7344 Q318.8438,264.4531 319.4688,263.875 L319.4688,266.5938 Z "/><text fill="#000000" font-family="sans-serif" font-size="12" lengthAdjust="spacingAndGlyphs" textLength="72" x="330.5" y="265.1074">DrTemplate</text><rect fill="#FFFFFF" height="15.9688" style="stroke: #000000; stroke-width: 1.0; stroke-dasharray: 2.0,2.0;" width="9" x="410.5" y="241.9531"/><text fill="#000000" font-family="sans-serif" font-size="12" font-style="italic" lengthAdjust="spacingAndGlyphs" textLength="7" x="411.5" y="254.0918">T</text><line style="stroke: #A80036; stroke-width: 1.5;" x1="302.5" x2="415.5" y1="276.9531" y2="276.9531"/><line style="stroke: #A80036; stroke-width: 1.5;" x1="302.5" x2="415.5" y1="284.9531" y2="284.9531"/><!--MD5=[af389aaa357f7fd8d419fbcd5c89a1b7]
class C_0001766132705992294525--><rect fill="#FEFECE" filter="url(#f8cmqa31ffajn)" height="48" id="C_0001766132705992294525" style="stroke: #A80036; stroke-width: 1.5;" width="101" x="461.5" y="136.9531"/><ellipse cx="476.5" cy="152.9531" fill="#ADD1B2" rx="11" ry="11" style="stroke: #A80036; stroke-width: 1.0;"/><path d="M479.4688,158.5938 Q478.8906,158.8906 478.25,159.0313 Q477.6094,159.1875 476.9063,159.1875 Q474.4063,159.1875 473.0781,157.5469 Q471.7656,155.8906 471.7656,152.7656 Q471.7656,149.6406 473.0781,147.9844 Q474.4063,146.3281 476.9063,146.3281 Q477.6094,146.3281 478.25,146.4844 Q478.9063,146.6406 479.4688,146.9375 L479.4688,149.6563 Q478.8438,149.0781 478.25,148.8125 Q477.6563,148.5313 477.0313,148.5313 Q475.6875,148.5313 475,149.6094 Q474.3125,150.6719 474.3125,152.7656 Q474.3125,154.8594 475,155.9375 Q475.6875,157 477.0313,157 Q477.6563,157 478.25,156.7344 Q478.8438,156.4531 479.4688,155.875 L479.4688,158.5938 Z "/><text fill="#000000" font-family="sans-serif" font-size="12" lengthAdjust="spacingAndGlyphs" textLength="69" x="490.5" y="157.1074">PluginBase</text><line style="stroke: #A80036; stroke-width: 1.5;" x1="462.5" x2="561.5" y1="168.9531" y2="168.9531"/><line style="stroke: #A80036; stroke-width: 1.5;" x1="462.5" x2="561.5" y1="176.9531" y2="176.9531"/><!--MD5=[b7bc1ee6f8f7fb96a1411bbc736b5faf]
class C_0000090245984191403772--><rect fill="#FEFECE" filter="url(#f8cmqa31ffajn)" height="48" id="C_0000090245984191403772" style="stroke: #A80036; stroke-width: 1.5;" width="81" x="451.5" y="244.9531"/><ellipse cx="466.5" cy="260.9531" fill="#ADD1B2" rx="11" ry="11" style="stroke: #A80036; stroke-width: 1.0;"/><path d="M469.4688,266.5938 Q468.8906,266.8906 468.25,267.0313 Q467.6094,267.1875 466.9063,267.1875 Q464.4063,267.1875 463.0781,265.5469 Q461.7656,263.8906 461.7656,260.7656 Q461.7656,257.6406 463.0781,255.9844 Q464.4063,254.3281 466.9063,254.3281 Q467.6094,254.3281 468.25,254.4844 Q468.9063,254.6406 469.4688,254.9375 L469.4688,257.6563 Q468.8438,257.0781 468.25,256.8125 Q467.6563,256.5313 467.0313,256.5313 Q465.6875,256.5313 465,257.6094 Q464.3125,258.6719 464.3125,260.7656 Q464.3125,262.8594 465,263.9375 Q465.6875,265 467.0313,265 Q467.6563,265 468.25,264.7344 Q468.8438,264.4531 469.4688,263.875 L469.4688,266.5938 Z "/><text fill="#000000" font-family="sans-serif" font-size="12" lengthAdjust="spacingAndGlyphs" textLength="38" x="480.5" y="265.1074">Plugin</text><rect fill="#FFFFFF" height="15.9688" style="stroke: #000000; stroke-width: 1.0; stroke-dasharray: 2.0,2.0;" width="9" x="526.5" y="241.9531"/><text fill="#000000" font-family="sans-serif" font-size="12" font-style="italic" lengthAdjust="spacingAndGlyphs" textLength="7" x="527.5" y="254.0918">T</text><line style="stroke: #A80036; stroke-width: 1.5;" x1="452.5" x2="531.5" y1="276.9531" y2="276.9531"/><line style="stroke: #A80036; stroke-width: 1.5;" x1="452.5" x2="531.5" y1="284.9531" y2="284.9531"/><!--MD5=[f72130e82529f7639e9da9568463cbda]
class C_0000128620413217137181--><rect fill="#FEFECE" filter="url(#f8cmqa31ffajn)" height="48" id="C_0000128620413217137181" style="stroke: #A80036; stroke-width: 1.5;" width="192" x="846" y="136.9531"/><ellipse cx="861" cy="152.9531" fill="#ADD1B2" rx="11" ry="11" style="stroke: #A80036; stroke-width: 1.0;"/><path d="M863.9688,158.5938 Q863.3906,158.8906 862.75,159.0313 Q862.1094,159.1875 861.4063,159.1875 Q858.9063,159.1875 857.5781,157.5469 Q856.2656,155.8906 856.2656,152.7656 Q856.2656,149.6406 857.5781,147.9844 Q858.9063,146.3281 861.4063,146.3281 Q862.1094,146.3281 862.75,146.4844 Q863.4063,146.6406 863.9688,146.9375 L863.9688,149.6563 Q863.3438,149.0781 862.75,148.8125 Q862.1563,148.5313 861.5313,148.5313 Q860.1875,148.5313 859.5,149.6094 Q858.8125,150.6719 858.8125,152.7656 Q858.8125,154.8594 859.5,155.9375 Q860.1875,157 861.5313,157 Q862.1563,157 862.75,156.7344 Q863.3438,156.4531 863.9688,155.875 L863.9688,158.5938 Z "/><text fill="#000000" font-family="sans-serif" font-size="12" lengthAdjust="spacingAndGlyphs" textLength="160" x="875" y="157.1074">HttpSimpleControllerBase</text><line style="stroke: #A80036; stroke-width: 1.5;" x1="847" x2="1037" y1="168.9531" y2="168.9531"/><line style="stroke: #A80036; stroke-width: 1.5;" x1="847" x2="1037" y1="176.9531" y2="176.9531"/><!--MD5=[84f484c7cb11330a7d20b8d589f331c9]
class C_0001615046545627727628--><rect fill="#FEFECE" filter="url(#f8cmqa31ffajn)" height="48" id="C_0001615046545627727628" style="stroke: #A80036; stroke-width: 1.5;" width="194" x="1201" y="136.9531"/><ellipse cx="1216" cy="152.9531" fill="#ADD1B2" rx="11" ry="11" style="stroke: #A80036; stroke-width: 1.0;"/><path d="M1218.9688,158.5938 Q1218.3906,158.8906 1217.75,159.0313 Q1217.1094,159.1875 1216.4063,159.1875 Q1213.9063,159.1875 1212.5781,157.5469 Q1211.2656,155.8906 1211.2656,152.7656 Q1211.2656,149.6406 1212.5781,147.9844 Q1213.9063,146.3281 1216.4063,146.3281 Q1217.1094,146.3281 1217.75,146.4844 Q1218.4063,146.6406 1218.9688,146.9375 L1218.9688,149.6563 Q1218.3438,149.0781 1217.75,148.8125 Q1217.1563,148.5313 1216.5313,148.5313 Q1215.1875,148.5313 1214.5,149.6094 Q1213.8125,150.6719 1213.8125,152.7656 Q1213.8125,154.8594 1214.5,155.9375 Q1215.1875,157 1216.5313,157 Q1217.1563,157 1217.75,156.7344 Q1218.3438,156.4531 1218.9688,155.875 L1218.9688,158.5938 Z "/><text fill="#000000" font-family="sans-serif" font-size="12" lengthAdjust="spacingAndGlyphs" textLength="162" x="1230" y="157.1074">WebSocketControllerBase</text><line style="stroke: #A80036; stroke-width: 1.5;" x1="1202" x2="1394" y1="168.9531" y2="168.9531"/><line style="stroke: #A80036; stroke-width: 1.5;" x1="1202" x2="1394" y1="176.9531" y2="176.9531"/><!--MD5=[749bc2afdfdeb82669f6d0a1a738f672]
class C_0000022864597420834899--><rect fill="#FEFECE" filter="url(#f8cmqa31ffajn)" height="48" id="C_0000022864597420834899" style="stroke: #A80036; stroke-width: 1.5;" width="290" x="568" y="244.9531"/><ellipse cx="583" cy="260.9531" fill="#ADD1B2" rx="11" ry="11" style="stroke: #A80036; stroke-width: 1.0;"/><path d="M585.9688,266.5938 Q585.3906,266.8906 584.75,267.0313 Q584.1094,267.1875 583.4063,267.1875 Q580.9063,267.1875 579.5781,265.5469 Q578.2656,263.8906 578.2656,260.7656 Q578.2656,257.6406 579.5781,255.9844 Q580.9063,254.3281 583.4063,254.3281 Q584.1094,254.3281 584.75,254.4844 Q585.4063,254.6406 585.9688,254.9375 L585.9688,257.6563 Q585.3438,257.0781 584.75,256.8125 Q584.1563,256.5313 583.5313,256.5313 Q582.1875,256.5313 581.5,257.6094 Q580.8125,258.6719 580.8125,260.7656 Q580.8125,262.8594 581.5,263.9375 Q582.1875,265 583.5313,265 Q584.1563,265 584.75,264.7344 Q585.3438,264.4531 585.9688,263.875 L585.9688,266.5938 Z "/><text fill="#000000" font-family="sans-serif" font-size="12" lengthAdjust="spacingAndGlyphs" textLength="88" x="597" y="265.1074">HttpController</text><rect fill="#FFFFFF" height="15.9688" style="stroke: #000000; stroke-width: 1.0; stroke-dasharray: 2.0,2.0;" width="168" x="693" y="241.9531"/><text fill="#000000" font-family="sans-serif" font-size="12" font-style="italic" lengthAdjust="spacingAndGlyphs" textLength="166" x="694" y="254.0918">T,_Bool AutoCreation=true</text><line style="stroke: #A80036; stroke-width: 1.5;" x1="569" x2="857" y1="276.9531" y2="276.9531"/><line style="stroke: #A80036; stroke-width: 1.5;" x1="569" x2="857" y1="284.9531" y2="284.9531"/><!--MD5=[289ab231adc1a02644bf0cb09edc94b2]
class C_0000230834042887687668--><rect fill="#FEFECE" filter="url(#f8cmqa31ffajn)" height="48" id="C_0000230834042887687668" style="stroke: #A80036; stroke-width: 1.5;" width="331" x="893.5" y="244.9531"/><ellipse cx="908.5" cy="260.9531" fill="#ADD1B2" rx="11" ry="11" style="stroke: #A80036; stroke-width: 1.0;"/><path d="M911.4688,266.5938 Q910.8906,266.8906 910.25,267.0313 Q909.6094,267.1875 908.9063,267.1875 Q906.4063,267.1875 905.0781,265.5469 Q903.7656,263.8906 903.7656,260.7656 Q903.7656,257.6406 905.0781,255.9844 Q906.4063,254.3281 908.9063,254.3281 Q909.6094,254.3281 910.25,254.4844 Q910.9063,254.6406 911.4688,254.9375 L911.4688,257.6563 Q910.8438,257.0781 910.25,256.8125 Q909.6563,256.5313 909.0313,256.5313 Q907.6875,256.5313 907,257.6094 Q906.3125,258.6719 906.3125,260.7656 Q906.3125,262.8594 907,263.9375 Q907.6875,265 909.0313,265 Q909.6563,265 910.25,264.7344 Q910.8438,264.4531 911.4688,263.875 L911.4688,266.5938 Z "/><text fill="#000000" font-family="sans-serif" font-size="12" lengthAdjust="spacingAndGlyphs" textLength="129" x="922.5" y="265.1074">HttpSimpleController</text><rect fill="#FFFFFF" height="15.9688" style="stroke: #000000; stroke-width: 1.0; stroke-dasharray: 2.0,2.0;" width="168" x="1059.5" y="241.9531"/><text fill="#000000" font-family="sans-serif" font-size="12" font-style="italic" lengthAdjust="spacingAndGlyphs" textLength="166" x="1060.5" y="254.0918">T,_Bool AutoCreation=true</text><line style="stroke: #A80036; stroke-width: 1.5;" x1="894.5" x2="1223.5" y1="276.9531" y2="276.9531"/><line style="stroke: #A80036; stroke-width: 1.5;" x1="894.5" x2="1223.5" y1="284.9531" y2="284.9531"/><!--MD5=[2148bbfa2d589c812ddc78fd9ac2771f]
class C_0001306947998463000992--><rect fill="#FEFECE" filter="url(#f8cmqa31ffajn)" height="48" id="C_0001306947998463000992" style="stroke: #A80036; stroke-width: 1.5;" width="333" x="1259.5" y="244.9531"/><ellipse cx="1274.5" cy="260.9531" fill="#ADD1B2" rx="11" ry="11" style="stroke: #A80036; stroke-width: 1.0;"/><path d="M1277.4688,266.5938 Q1276.8906,266.8906 1276.25,267.0313 Q1275.6094,267.1875 1274.9063,267.1875 Q1272.4063,267.1875 1271.0781,265.5469 Q1269.7656,263.8906 1269.7656,260.7656 Q1269.7656,257.6406 1271.0781,255.9844 Q1272.4063,254.3281 1274.9063,254.3281 Q1275.6094,254.3281 1276.25,254.4844 Q1276.9063,254.6406 1277.4688,254.9375 L1277.4688,257.6563 Q1276.8438,257.0781 1276.25,256.8125 Q1275.6563,256.5313 1275.0313,256.5313 Q1273.6875,256.5313 1273,257.6094 Q1272.3125,258.6719 1272.3125,260.7656 Q1272.3125,262.8594 1273,263.9375 Q1273.6875,265 1275.0313,265 Q1275.6563,265 1276.25,264.7344 Q1276.8438,264.4531 1277.4688,263.875 L1277.4688,266.5938 Z "/><text fill="#000000" font-family="sans-serif" font-size="12" lengthAdjust="spacingAndGlyphs" textLength="131" x="1288.5" y="265.1074">WebSocketController</text><rect fill="#FFFFFF" height="15.9688" style="stroke: #000000; stroke-width: 1.0; stroke-dasharray: 2.0,2.0;" width="168" x="1427.5" y="241.9531"/><text fill="#000000" font-family="sans-serif" font-size="12" font-style="italic" lengthAdjust="spacingAndGlyphs" textLength="166" x="1428.5" y="254.0918">T,_Bool AutoCreation=true</text><line style="stroke: #A80036; stroke-width: 1.5;" x1="1260.5" x2="1591.5" y1="276.9531" y2="276.9531"/><line style="stroke: #A80036; stroke-width: 1.5;" x1="1260.5" x2="1591.5" y1="284.9531" y2="284.9531"/><!--MD5=[8b87dbb05889aaa4030f7836e15230c6]
reverse link C_0000948678946378292650 to C_0000928351319055387329--><path d="M604.37,94.0831 C613.45,108.4531 623.38,124.1631 631.26,136.6331 " fill="none" id="C_0000948678946378292650&lt;-C_0000928351319055387329" style="stroke: #A80036; stroke-width: 1.0;"/><polygon fill="none" points="598.31,97.6031,593.54,76.9531,610.14,90.1231,598.31,97.6031" style="stroke: #A80036; stroke-width: 1.0;"/><!--MD5=[af1953e88b81244f644938e052f6a539]
reverse link C_0000948678946378292650 to C_0001287349830889935744--><path d="M500.72,74.0431 C421.02,94.5031 299.16,125.7731 226.55,144.4131 " fill="none" id="C_0000948678946378292650&lt;-C_0001287349830889935744" style="stroke: #A80036; stroke-width: 1.0;"/><polygon fill="none" points="499.15,67.2231,520.27,69.0231,502.63,80.7831,499.15,67.2231" style="stroke: #A80036; stroke-width: 1.0;"/><!--MD5=[a80100698287dfeaa7d0a65956649d5d]
reverse link C_0000928351319055387329 to C_0001423317784030907931--><path d="M577.87,184.8931 C498.84,204.5631 366.5,228.4431 266.17,245.8531 " fill="none" id="C_0000928351319055387329&lt;-C_0001423317784030907931" style="stroke: #A80036; stroke-width: 1.0;"/><polygon fill="none" points="576.12,178.1231,597.24,179.8631,579.64,191.6731,576.12,178.1231" style="stroke: #A80036; stroke-width: 1.0;"/><!--MD5=[a5c3bc05f3c43458d5ea3249c86aa6d1]
reverse link C_0001287349830889935744 to C_0001423317784030907931--><path d="M153.96,204.4931 C150.08,218.1831 145.93,232.8531 142.6,244.6331 " fill="none" id="C_0001287349830889935744&lt;-C_0001423317784030907931" style="stroke: #A80036; stroke-width: 1.0;"/><polygon fill="none" points="147.31,202.2931,159.49,184.9531,160.78,206.1031,147.31,202.2931" style="stroke: #A80036; stroke-width: 1.0;"/><!--MD5=[e255ccbd859a31138760694afb291f39]
reverse link C_0000948678946378292650 to C_0000286555068366301766--><path d="M513.12,85.6931 C479.01,102.1331 438.11,121.8331 407.02,136.8131 " fill="none" id="C_0000948678946378292650&lt;-C_0000286555068366301766" style="stroke: #A80036; stroke-width: 1.0;"/><polygon fill="none" points="510.21,79.3331,531.26,76.9531,516.28,91.9431,510.21,79.3331" style="stroke: #A80036; stroke-width: 1.0;"/><!--MD5=[3d1d77076dc84274b00e631f6cf6abf6]
reverse link C_0000928351319055387329 to C_0000730908334399288167--><path d="M578.36,186.9331 C529.16,205.1031 463.27,229.4431 416.59,246.6831 " fill="none" id="C_0000928351319055387329&lt;-C_0000730908334399288167" style="stroke: #A80036; stroke-width: 1.0;"/><polygon fill="none" points="576.13,180.2931,597.31,179.9331,580.98,193.4331,576.13,180.2931" style="stroke: #A80036; stroke-width: 1.0;"/><!--MD5=[d304be30e2eef8812d130d007e843740]
reverse link C_0000286555068366301766 to C_0000730908334399288167--><path d="M359,204.9731 C359,218.5331 359,232.9931 359,244.6331 " fill="none" id="C_0000286555068366301766&lt;-C_0000730908334399288167" style="stroke: #A80036; stroke-width: 1.0;"/><polygon fill="none" points="352,204.9531,359,184.9531,366,204.9531,352,204.9531" style="stroke: #A80036; stroke-width: 1.0;"/><!--MD5=[dadf83d07adcf840ce6a29c8409e4070]
reverse link C_0000948678946378292650 to C_0001766132705992294525--><path d="M553.63,94.0831 C544.55,108.4531 534.62,124.1631 526.74,136.6331 " fill="none" id="C_0000948678946378292650&lt;-C_0001766132705992294525" style="stroke: #A80036; stroke-width: 1.0;"/><polygon fill="none" points="547.86,90.1231,564.46,76.9531,559.69,97.6031,547.86,90.1231" style="stroke: #A80036; stroke-width: 1.0;"/><!--MD5=[4c7405d525f24e63a2fac75cb3c1b026]
reverse link C_0001766132705992294525 to C_0000090245984191403772--><path d="M503.88,204.9731 C501.32,218.5331 498.6,232.9931 496.4,244.6331 " fill="none" id="C_0001766132705992294525&lt;-C_0000090245984191403772" style="stroke: #A80036; stroke-width: 1.0;"/><polygon fill="none" points="497.07,203.3131,507.66,184.9531,510.83,205.9031,497.07,203.3131" style="stroke: #A80036; stroke-width: 1.0;"/><!--MD5=[a465e6d1a8ec232be538372436990450]
reverse link C_0000928351319055387329 to C_0000090245984191403772--><path d="M595.86,196.4631 C572.84,212.3031 546.17,230.6631 525.62,244.8131 " fill="none" id="C_0000928351319055387329&lt;-C_0000090245984191403772" style="stroke: #A80036; stroke-width: 1.0;"/><polygon fill="none" points="592.14,190.5231,612.58,184.9531,600.08,202.0631,592.14,190.5231" style="stroke: #A80036; stroke-width: 1.0;"/><!--MD5=[36fc32e6ce5ca1d346794beaaf91f2d6]
reverse link C_0000948678946378292650 to C_0000128620413217137181--><path d="M657,76.7331 C717.82,94.4931 801.94,119.0531 863.02,136.8931 " fill="none" id="C_0000948678946378292650&lt;-C_0000128620413217137181" style="stroke: #A80036; stroke-width: 1.0;"/><polygon fill="none" points="654.96,83.4231,637.73,71.1031,658.89,69.9931,654.96,83.4231" style="stroke: #A80036; stroke-width: 1.0;"/><!--MD5=[f882c48129beea06b07e98465588f15e]
reverse link C_0000948678946378292650 to C_0001615046545627727628--><path d="M657.58,65.5331 C789.93,85.0531 1056.92,124.4131 1200.82,145.6231 " fill="none" id="C_0000948678946378292650&lt;-C_0001615046545627727628" style="stroke: #A80036; stroke-width: 1.0;"/><polygon fill="none" points="656.3,72.4231,637.53,62.5831,658.34,58.5731,656.3,72.4231" style="stroke: #A80036; stroke-width: 1.0;"/><!--MD5=[87b9edd673a73915ad55a9ae67d11406]
reverse link C_0000928351319055387329 to C_0000022864597420834899--><path d="M671.37,202.0831 C680.45,216.4531 690.38,232.1631 698.26,244.6331 " fill="none" id="C_0000928351319055387329&lt;-C_0000022864597420834899" style="stroke: #A80036; stroke-width: 1.0;"/><polygon fill="none" points="665.31,205.6031,660.54,184.9531,677.14,198.1231,665.31,205.6031" style="stroke: #A80036; stroke-width: 1.0;"/><!--MD5=[6a03239c5139754cb114790bf1d5b37a]
reverse link C_0000928351319055387329 to C_0000230834042887687668--><path d="M714.03,179.4131 C783.76,197.3131 892.56,225.2331 969.3,244.9331 " fill="none" id="C_0000928351319055387329&lt;-C_0000230834042887687668" style="stroke: #A80036; stroke-width: 1.0;"/><polygon fill="none" points="712.22,186.1731,694.59,174.4231,715.7,172.6131,712.22,186.1731" style="stroke: #A80036; stroke-width: 1.0;"/><!--MD5=[b4352ad481d11aebd4ce6b7144cf67c7]
reverse link C_0000128620413217137181 to C_0000230834042887687668--><path d="M982.37,198.5231 C999.24,213.8131 1018.35,231.1231 1033.26,244.6331 " fill="none" id="C_0000128620413217137181&lt;-C_0000230834042887687668" style="stroke: #A80036; stroke-width: 1.0;"/><polygon fill="none" points="977.51,203.5731,967.39,184.9531,986.91,193.1931,977.51,203.5731" style="stroke: #A80036; stroke-width: 1.0;"/><!--MD5=[6a8282b80a535f07d8570a728bb9dda4]
reverse link C_0000928351319055387329 to C_0001306947998463000992--><path d="M714.76,171.2931 C835.79,187.7431 1090.08,222.3031 1259.48,245.3231 " fill="none" id="C_0000928351319055387329&lt;-C_0001306947998463000992" style="stroke: #A80036; stroke-width: 1.0;"/><polygon fill="none" points="713.67,178.2131,694.79,168.5831,715.55,164.3431,713.67,178.2131" style="stroke: #A80036; stroke-width: 1.0;"/><!--MD5=[61b1aeb17bccd7fcd72bde1ec44cd72d]
reverse link C_0001615046545627727628 to C_0001306947998463000992--><path d="M1341.31,197.8231 C1359.98,213.2831 1381.27,230.9131 1397.84,244.6331 " fill="none" id="C_0001615046545627727628&lt;-C_0001306947998463000992" style="stroke: #A80036; stroke-width: 1.0;"/><polygon fill="none" points="1336.71,203.1031,1325.77,184.9531,1345.64,192.3231,1336.71,203.1031" style="stroke: #A80036; stroke-width: 1.0;"/><!--MD5=[a44307edeb4e1c866472b4139b17dab0]
@startuml
title 'drobjectbase' class hierarchy
class "DrObjectBase" as C_0000948678946378292650
class C_0000948678946378292650 {
__
}
class "DrObject<T>" as C_0000928351319055387329
class C_0000928351319055387329 {
__
}
class "HttpFilterBase" as C_0001287349830889935744
class C_0001287349830889935744 {
__
}
class "HttpFilter<T,_Bool AutoCreation=true>" as C_0001423317784030907931
class C_0001423317784030907931 {
__
}
class "DrTemplateBase" as C_0000286555068366301766
class C_0000286555068366301766 {
__
}
class "DrTemplate<T>" as C_0000730908334399288167
class C_0000730908334399288167 {
__
}
class "PluginBase" as C_0001766132705992294525
class C_0001766132705992294525 {
__
}
class "Plugin<T>" as C_0000090245984191403772
class C_0000090245984191403772 {
__
}
class "HttpSimpleControllerBase" as C_0000128620413217137181
class C_0000128620413217137181 {
__
}
class "WebSocketControllerBase" as C_0001615046545627727628
class C_0001615046545627727628 {
__
}
class "HttpController<T,_Bool AutoCreation=true>" as C_0000022864597420834899
class C_0000022864597420834899 {
__
}
class "HttpSimpleController<T,_Bool AutoCreation=true>" as C_0000230834042887687668
class C_0000230834042887687668 {
__
}
class "WebSocketController<T,_Bool AutoCreation=true>" as C_0001306947998463000992
class C_0001306947998463000992 {
__
}
C_0000948678946378292650 <|- - C_0000928351319055387329
C_0000948678946378292650 <|- - C_0001287349830889935744
C_0000928351319055387329 <|- - C_0001423317784030907931
C_0001287349830889935744 <|- - C_0001423317784030907931
C_0000948678946378292650 <|- - C_0000286555068366301766
C_0000928351319055387329 <|- - C_0000730908334399288167
C_0000286555068366301766 <|- - C_0000730908334399288167
C_0000948678946378292650 <|- - C_0001766132705992294525
C_0001766132705992294525 <|- - C_0000090245984191403772
C_0000928351319055387329 <|- - C_0000090245984191403772
C_0000948678946378292650 <|- - C_0000128620413217137181
C_0000948678946378292650 <|- - C_0001615046545627727628
C_0000928351319055387329 <|- - C_0000022864597420834899
C_0000928351319055387329 <|- - C_0000230834042887687668
C_0000128620413217137181 <|- - C_0000230834042887687668
C_0000928351319055387329 <|- - C_0001306947998463000992
C_0001615046545627727628 <|- - C_0001306947998463000992

@enduml

PlantUML version 1.2020.02(Sun Mar 01 11:22:07 CET 2020)
(GPL source distribution)
Java Runtime: OpenJDK Runtime Environment
JVM: OpenJDK 64-Bit Server VM
Java Version: 11.0.20.1+1-post-Ubuntu-0ubuntu122.04
Operating System: Linux
Default Encoding: UTF-8
Language: en
Country: US
--></g></svg>