<?xml version="1.0" encoding="UTF-8" standalone="no"?><svg xmlns="http://www.w3.org/2000/svg" xmlns:xlink="http://www.w3.org/1999/xlink" contentScriptType="application/ecmascript" contentStyleType="text/css" height="283px" preserveAspectRatio="none" style="width:1321px;height:283px;" version="1.1" viewBox="0 0 1321 283" width="1321px" zoomAndPan="magnify"><defs><filter height="300%" id="fwcdevbzlzu68" width="300%" x="-1" y="-1"><feGaussianBlur result="blurOut" stdDeviation="2.0"/><feColorMatrix in="blurOut" result="blurOut2" type="matrix" values="0 0 0 0 0 0 0 0 0 0 0 0 0 0 0 0 0 0 .4 0"/><feOffset dx="4.0" dy="4.0" in="blurOut2" result="blurOut3"/><feBlend in="SourceGraphic" in2="blurOut3" mode="normal"/></filter></defs><g><!--MD5=[1dbbf3e582f8d487bcff7565ec2dd2b8]
class C_0000000137--><rect fill="#FEFECE" filter="url(#fwcdevbzlzu68)" height="48" id="C_0000000137" style="stroke: #A80036; stroke-width: 1.5;" width="248" x="655.5" y="224"/><ellipse cx="670.5" cy="240" fill="#ADD1B2" rx="11" ry="11" style="stroke: #A80036; stroke-width: 1.0;"/><path d="M673.4688,245.6406 Q672.8906,245.9375 672.25,246.0781 Q671.6094,246.2344 670.9063,246.2344 Q668.4063,246.2344 667.0781,244.5938 Q665.7656,242.9375 665.7656,239.8125 Q665.7656,236.6875 667.0781,235.0313 Q668.4063,233.375 670.9063,233.375 Q671.6094,233.375 672.25,233.5313 Q672.9063,233.6875 673.4688,233.9844 L673.4688,236.7031 Q672.8438,236.125 672.25,235.8594 Q671.6563,235.5781 671.0313,235.5781 Q669.6875,235.5781 669,236.6563 Q668.3125,237.7188 668.3125,239.8125 Q668.3125,241.9063 669,242.9844 Q669.6875,244.0469 671.0313,244.0469 Q671.6563,244.0469 672.25,243.7813 Q672.8438,243.5 673.4688,242.9219 L673.4688,245.6406 Z "/><text fill="#000000" font-family="sans-serif" font-size="12" lengthAdjust="spacingAndGlyphs" textLength="88" x="684.5" y="244.1543">HttpController</text><rect fill="#FFFFFF" height="15.9688" style="stroke: #000000; stroke-width: 1.0; stroke-dasharray: 2.0,2.0;" width="126" x="780.5" y="221"/><text fill="#000000" font-family="sans-serif" font-size="12" font-style="italic" lengthAdjust="spacingAndGlyphs" textLength="124" x="781.5" y="233.1387">T,bool AutoCreation</text><line style="stroke: #A80036; stroke-width: 1.5;" x1="656.5" x2="902.5" y1="256" y2="256"/><line style="stroke: #A80036; stroke-width: 1.5;" x1="656.5" x2="902.5" y1="264" y2="264"/><!--MD5=[a1f917d9e7869119853fbca3c864b5c2]
class C_0000000226--><rect fill="#FEFECE" filter="url(#fwcdevbzlzu68)" height="48" id="C_0000000226" style="stroke: #A80036; stroke-width: 1.5;" width="191" x="165" y="116"/><ellipse cx="180" cy="132" fill="#A9DCDF" rx="11" ry="11" style="stroke: #A80036; stroke-width: 1.0;"/><path d="M180.1094,127.3438 L178.9531,132.4219 L181.2813,132.4219 L180.1094,127.3438 Z M178.625,125.1094 L181.6094,125.1094 L184.9688,137.5 L182.5156,137.5 L181.75,134.4375 L178.4688,134.4375 L177.7188,137.5 L175.2813,137.5 L178.625,125.1094 Z "/><text fill="#000000" font-family="sans-serif" font-size="12" font-style="italic" lengthAdjust="spacingAndGlyphs" textLength="159" x="194" y="136.1543">HttpSimpleControllerBase</text><line style="stroke: #A80036; stroke-width: 1.5;" x1="166" x2="355" y1="148" y2="148"/><line style="stroke: #A80036; stroke-width: 1.5;" x1="166" x2="355" y1="156" y2="156"/><!--MD5=[67348c11550f58d47e1683d55577277a]
class C_0000000232--><rect fill="#FEFECE" filter="url(#fwcdevbzlzu68)" height="48" id="C_0000000232" style="stroke: #A80036; stroke-width: 1.5;" width="289" x="6" y="224"/><ellipse cx="21" cy="240" fill="#ADD1B2" rx="11" ry="11" style="stroke: #A80036; stroke-width: 1.0;"/><path d="M23.9688,245.6406 Q23.3906,245.9375 22.75,246.0781 Q22.1094,246.2344 21.4063,246.2344 Q18.9063,246.2344 17.5781,244.5938 Q16.2656,242.9375 16.2656,239.8125 Q16.2656,236.6875 17.5781,235.0313 Q18.9063,233.375 21.4063,233.375 Q22.1094,233.375 22.75,233.5313 Q23.4063,233.6875 23.9688,233.9844 L23.9688,236.7031 Q23.3438,236.125 22.75,235.8594 Q22.1563,235.5781 21.5313,235.5781 Q20.1875,235.5781 19.5,236.6563 Q18.8125,237.7188 18.8125,239.8125 Q18.8125,241.9063 19.5,242.9844 Q20.1875,244.0469 21.5313,244.0469 Q22.1563,244.0469 22.75,243.7813 Q23.3438,243.5 23.9688,242.9219 L23.9688,245.6406 Z "/><text fill="#000000" font-family="sans-serif" font-size="12" lengthAdjust="spacingAndGlyphs" textLength="129" x="35" y="244.1543">HttpSimpleController</text><rect fill="#FFFFFF" height="15.9688" style="stroke: #000000; stroke-width: 1.0; stroke-dasharray: 2.0,2.0;" width="126" x="172" y="221"/><text fill="#000000" font-family="sans-serif" font-size="12" font-style="italic" lengthAdjust="spacingAndGlyphs" textLength="124" x="173" y="233.1387">T,bool AutoCreation</text><line style="stroke: #A80036; stroke-width: 1.5;" x1="7" x2="294" y1="256" y2="256"/><line style="stroke: #A80036; stroke-width: 1.5;" x1="7" x2="294" y1="264" y2="264"/><!--MD5=[cdaf57e89f624d6f41258fa0e41f2b4d]
class C_0000000375--><rect fill="#FEFECE" filter="url(#fwcdevbzlzu68)" height="48" id="C_0000000375" style="stroke: #A80036; stroke-width: 1.5;" width="115" x="1192" y="224"/><ellipse cx="1207" cy="240" fill="#ADD1B2" rx="11" ry="11" style="stroke: #A80036; stroke-width: 1.0;"/><path d="M1209.9688,245.6406 Q1209.3906,245.9375 1208.75,246.0781 Q1208.1094,246.2344 1207.4063,246.2344 Q1204.9063,246.2344 1203.5781,244.5938 Q1202.2656,242.9375 1202.2656,239.8125 Q1202.2656,236.6875 1203.5781,235.0313 Q1204.9063,233.375 1207.4063,233.375 Q1208.1094,233.375 1208.75,233.5313 Q1209.4063,233.6875 1209.9688,233.9844 L1209.9688,236.7031 Q1209.3438,236.125 1208.75,235.8594 Q1208.1563,235.5781 1207.5313,235.5781 Q1206.1875,235.5781 1205.5,236.6563 Q1204.8125,237.7188 1204.8125,239.8125 Q1204.8125,241.9063 1205.5,242.9844 Q1206.1875,244.0469 1207.5313,244.0469 Q1208.1563,244.0469 1208.75,243.7813 Q1209.3438,243.5 1209.9688,242.9219 L1209.9688,245.6406 Z "/><text fill="#000000" font-family="sans-serif" font-size="12" lengthAdjust="spacingAndGlyphs" textLength="72" x="1221" y="244.1543">DrTemplate</text><rect fill="#FFFFFF" height="15.9688" style="stroke: #000000; stroke-width: 1.0; stroke-dasharray: 2.0,2.0;" width="9" x="1301" y="221"/><text fill="#000000" font-family="sans-serif" font-size="12" font-style="italic" lengthAdjust="spacingAndGlyphs" textLength="7" x="1302" y="233.1387">T</text><line style="stroke: #A80036; stroke-width: 1.5;" x1="1193" x2="1306" y1="256" y2="256"/><line style="stroke: #A80036; stroke-width: 1.5;" x1="1193" x2="1306" y1="264" y2="264"/><!--MD5=[fc6ea200b2796d5e0ba94a62f77701ed]
class C_0000000380--><rect fill="#FEFECE" filter="url(#fwcdevbzlzu68)" height="48" id="C_0000000380" style="stroke: #A80036; stroke-width: 1.5;" width="117" x="721" y="8"/><ellipse cx="736" cy="24" fill="#ADD1B2" rx="11" ry="11" style="stroke: #A80036; stroke-width: 1.0;"/><path d="M738.9688,29.6406 Q738.3906,29.9375 737.75,30.0781 Q737.1094,30.2344 736.4063,30.2344 Q733.9063,30.2344 732.5781,28.5938 Q731.2656,26.9375 731.2656,23.8125 Q731.2656,20.6875 732.5781,19.0313 Q733.9063,17.375 736.4063,17.375 Q737.1094,17.375 737.75,17.5313 Q738.4063,17.6875 738.9688,17.9844 L738.9688,20.7031 Q738.3438,20.125 737.75,19.8594 Q737.1563,19.5781 736.5313,19.5781 Q735.1875,19.5781 734.5,20.6563 Q733.8125,21.7188 733.8125,23.8125 Q733.8125,25.9063 734.5,26.9844 Q735.1875,28.0469 736.5313,28.0469 Q737.1563,28.0469 737.75,27.7813 Q738.3438,27.5 738.9688,26.9219 L738.9688,29.6406 Z "/><text fill="#000000" font-family="sans-serif" font-size="12" lengthAdjust="spacingAndGlyphs" textLength="85" x="750" y="28.1543">DrObjectBase</text><line style="stroke: #A80036; stroke-width: 1.5;" x1="722" x2="837" y1="40" y2="40"/><line style="stroke: #A80036; stroke-width: 1.5;" x1="722" x2="837" y1="48" y2="48"/><!--MD5=[e63342b31b50495ce53cb57465fbf637]
class C_0000000384--><rect fill="#FEFECE" filter="url(#fwcdevbzlzu68)" height="48" id="C_0000000384" style="stroke: #A80036; stroke-width: 1.5;" width="97" x="731" y="116"/><ellipse cx="746" cy="132" fill="#ADD1B2" rx="11" ry="11" style="stroke: #A80036; stroke-width: 1.0;"/><path d="M748.9688,137.6406 Q748.3906,137.9375 747.75,138.0781 Q747.1094,138.2344 746.4063,138.2344 Q743.9063,138.2344 742.5781,136.5938 Q741.2656,134.9375 741.2656,131.8125 Q741.2656,128.6875 742.5781,127.0313 Q743.9063,125.375 746.4063,125.375 Q747.1094,125.375 747.75,125.5313 Q748.4063,125.6875 748.9688,125.9844 L748.9688,128.7031 Q748.3438,128.125 747.75,127.8594 Q747.1563,127.5781 746.5313,127.5781 Q745.1875,127.5781 744.5,128.6563 Q743.8125,129.7188 743.8125,131.8125 Q743.8125,133.9063 744.5,134.9844 Q745.1875,136.0469 746.5313,136.0469 Q747.1563,136.0469 747.75,135.7813 Q748.3438,135.5 748.9688,134.9219 L748.9688,137.6406 Z "/><text fill="#000000" font-family="sans-serif" font-size="12" lengthAdjust="spacingAndGlyphs" textLength="54" x="760" y="136.1543">DrObject</text><rect fill="#FFFFFF" height="15.9688" style="stroke: #000000; stroke-width: 1.0; stroke-dasharray: 2.0,2.0;" width="9" x="822" y="113"/><text fill="#000000" font-family="sans-serif" font-size="12" font-style="italic" lengthAdjust="spacingAndGlyphs" textLength="7" x="823" y="125.1387">T</text><line style="stroke: #A80036; stroke-width: 1.5;" x1="732" x2="827" y1="148" y2="148"/><line style="stroke: #A80036; stroke-width: 1.5;" x1="732" x2="827" y1="156" y2="156"/><!--MD5=[fcf362384209d042d024a045b0b44cef]
class C_0000000401--><rect fill="#FEFECE" filter="url(#fwcdevbzlzu68)" height="48" id="C_0000000401" style="stroke: #A80036; stroke-width: 1.5;" width="194" x="439.5" y="116"/><ellipse cx="454.5" cy="132" fill="#A9DCDF" rx="11" ry="11" style="stroke: #A80036; stroke-width: 1.0;"/><path d="M454.6094,127.3438 L453.4531,132.4219 L455.7813,132.4219 L454.6094,127.3438 Z M453.125,125.1094 L456.1094,125.1094 L459.4688,137.5 L457.0156,137.5 L456.25,134.4375 L452.9688,134.4375 L452.2188,137.5 L449.7813,137.5 L453.125,125.1094 Z "/><text fill="#000000" font-family="sans-serif" font-size="12" font-style="italic" lengthAdjust="spacingAndGlyphs" textLength="162" x="468.5" y="136.1543">WebSocketControllerBase</text><line style="stroke: #A80036; stroke-width: 1.5;" x1="440.5" x2="632.5" y1="148" y2="148"/><line style="stroke: #A80036; stroke-width: 1.5;" x1="440.5" x2="632.5" y1="156" y2="156"/><!--MD5=[040e2053f78f98da604d5c0974d69777]
class C_0000000417--><rect fill="#FEFECE" filter="url(#fwcdevbzlzu68)" height="48" id="C_0000000417" style="stroke: #A80036; stroke-width: 1.5;" width="291" x="330" y="224"/><ellipse cx="345" cy="240" fill="#ADD1B2" rx="11" ry="11" style="stroke: #A80036; stroke-width: 1.0;"/><path d="M347.9688,245.6406 Q347.3906,245.9375 346.75,246.0781 Q346.1094,246.2344 345.4063,246.2344 Q342.9063,246.2344 341.5781,244.5938 Q340.2656,242.9375 340.2656,239.8125 Q340.2656,236.6875 341.5781,235.0313 Q342.9063,233.375 345.4063,233.375 Q346.1094,233.375 346.75,233.5313 Q347.4063,233.6875 347.9688,233.9844 L347.9688,236.7031 Q347.3438,236.125 346.75,235.8594 Q346.1563,235.5781 345.5313,235.5781 Q344.1875,235.5781 343.5,236.6563 Q342.8125,237.7188 342.8125,239.8125 Q342.8125,241.9063 343.5,242.9844 Q344.1875,244.0469 345.5313,244.0469 Q346.1563,244.0469 346.75,243.7813 Q347.3438,243.5 347.9688,242.9219 L347.9688,245.6406 Z "/><text fill="#000000" font-family="sans-serif" font-size="12" lengthAdjust="spacingAndGlyphs" textLength="131" x="359" y="244.1543">WebSocketController</text><rect fill="#FFFFFF" height="15.9688" style="stroke: #000000; stroke-width: 1.0; stroke-dasharray: 2.0,2.0;" width="126" x="498" y="221"/><text fill="#000000" font-family="sans-serif" font-size="12" font-style="italic" lengthAdjust="spacingAndGlyphs" textLength="124" x="499" y="233.1387">T,bool AutoCreation</text><line style="stroke: #A80036; stroke-width: 1.5;" x1="331" x2="620" y1="256" y2="256"/><line style="stroke: #A80036; stroke-width: 1.5;" x1="331" x2="620" y1="264" y2="264"/><!--MD5=[f3d937a5bfb69d4894d18a7fdbde33e3]
class C_0000000455--><rect fill="#FEFECE" filter="url(#fwcdevbzlzu68)" height="48" id="C_0000000455" style="stroke: #A80036; stroke-width: 1.5;" width="120" x="925.5" y="116"/><ellipse cx="940.5" cy="132" fill="#A9DCDF" rx="11" ry="11" style="stroke: #A80036; stroke-width: 1.0;"/><path d="M940.6094,127.3438 L939.4531,132.4219 L941.7813,132.4219 L940.6094,127.3438 Z M939.125,125.1094 L942.1094,125.1094 L945.4688,137.5 L943.0156,137.5 L942.25,134.4375 L938.9688,134.4375 L938.2188,137.5 L935.7813,137.5 L939.125,125.1094 Z "/><text fill="#000000" font-family="sans-serif" font-size="12" font-style="italic" lengthAdjust="spacingAndGlyphs" textLength="88" x="954.5" y="136.1543">HttpFilterBase</text><line style="stroke: #A80036; stroke-width: 1.5;" x1="926.5" x2="1044.5" y1="148" y2="148"/><line style="stroke: #A80036; stroke-width: 1.5;" x1="926.5" x2="1044.5" y1="156" y2="156"/><!--MD5=[d7e5fa1f4b9e04d8bc1eb8f7ca9a681e]
class C_0000000467--><rect fill="#FEFECE" filter="url(#fwcdevbzlzu68)" height="48" id="C_0000000467" style="stroke: #A80036; stroke-width: 1.5;" width="218" x="938.5" y="224"/><ellipse cx="953.5" cy="240" fill="#ADD1B2" rx="11" ry="11" style="stroke: #A80036; stroke-width: 1.0;"/><path d="M956.4688,245.6406 Q955.8906,245.9375 955.25,246.0781 Q954.6094,246.2344 953.9063,246.2344 Q951.4063,246.2344 950.0781,244.5938 Q948.7656,242.9375 948.7656,239.8125 Q948.7656,236.6875 950.0781,235.0313 Q951.4063,233.375 953.9063,233.375 Q954.6094,233.375 955.25,233.5313 Q955.9063,233.6875 956.4688,233.9844 L956.4688,236.7031 Q955.8438,236.125 955.25,235.8594 Q954.6563,235.5781 954.0313,235.5781 Q952.6875,235.5781 952,236.6563 Q951.3125,237.7188 951.3125,239.8125 Q951.3125,241.9063 952,242.9844 Q952.6875,244.0469 954.0313,244.0469 Q954.6563,244.0469 955.25,243.7813 Q955.8438,243.5 956.4688,242.9219 L956.4688,245.6406 Z "/><text fill="#000000" font-family="sans-serif" font-size="12" lengthAdjust="spacingAndGlyphs" textLength="58" x="967.5" y="244.1543">HttpFilter</text><rect fill="#FFFFFF" height="15.9688" style="stroke: #000000; stroke-width: 1.0; stroke-dasharray: 2.0,2.0;" width="126" x="1033.5" y="221"/><text fill="#000000" font-family="sans-serif" font-size="12" font-style="italic" lengthAdjust="spacingAndGlyphs" textLength="124" x="1034.5" y="233.1387">T,bool AutoCreation</text><line style="stroke: #A80036; stroke-width: 1.5;" x1="939.5" x2="1155.5" y1="256" y2="256"/><line style="stroke: #A80036; stroke-width: 1.5;" x1="939.5" x2="1155.5" y1="264" y2="264"/><!--MD5=[f590865fa28947cd8577b8ec715df3db]
class C_0000000525--><rect fill="#FEFECE" filter="url(#fwcdevbzlzu68)" height="48" id="C_0000000525" style="stroke: #A80036; stroke-width: 1.5;" width="134" x="1131.5" y="116"/><ellipse cx="1146.5" cy="132" fill="#A9DCDF" rx="11" ry="11" style="stroke: #A80036; stroke-width: 1.0;"/><path d="M1146.6094,127.3438 L1145.4531,132.4219 L1147.7813,132.4219 L1146.6094,127.3438 Z M1145.125,125.1094 L1148.1094,125.1094 L1151.4688,137.5 L1149.0156,137.5 L1148.25,134.4375 L1144.9688,134.4375 L1144.2188,137.5 L1141.7813,137.5 L1145.125,125.1094 Z "/><text fill="#000000" font-family="sans-serif" font-size="12" font-style="italic" lengthAdjust="spacingAndGlyphs" textLength="102" x="1160.5" y="136.1543">DrTemplateBase</text><line style="stroke: #A80036; stroke-width: 1.5;" x1="1132.5" x2="1264.5" y1="148" y2="148"/><line style="stroke: #A80036; stroke-width: 1.5;" x1="1132.5" x2="1264.5" y1="156" y2="156"/><!--MD5=[9f88bb396637837797e042cd451ecbb5]
reverse link C_0000000384 to C_0000000137--><path d="M779.5,184.02 C779.5,197.58 779.5,212.04 779.5,223.68 " fill="none" id="C_0000000384&lt;-C_0000000137" style="stroke: #A80036; stroke-width: 1.0;"/><polygon fill="none" points="772.5,184,779.5,164,786.5,184,772.5,184" style="stroke: #A80036; stroke-width: 1.0;"/><!--MD5=[0f9b1e4779c3bcda6211fbd5e46c176f]
reverse link C_0000000380 to C_0000000226--><path d="M701.12,49.01 C608.79,67.87 455.44,99.19 356.18,119.46 " fill="none" id="C_0000000380&lt;-C_0000000226" style="stroke: #A80036; stroke-width: 1.0;"/><polygon fill="none" points="699.98,42.1,720.97,44.95,702.78,55.81,699.98,42.1" style="stroke: #A80036; stroke-width: 1.0;"/><!--MD5=[b5ebb0ed4a8a19f3c855beb2c59a4f41]
reverse link C_0000000384 to C_0000000232--><path d="M710.9,153.39 C691.39,156.87 670.11,160.62 650.5,164 C529.64,184.81 392.17,207.56 292.01,223.97 " fill="none" id="C_0000000384&lt;-C_0000000232" style="stroke: #A80036; stroke-width: 1.0;"/><polygon fill="none" points="709.9,146.45,730.83,149.82,712.37,160.24,709.9,146.45" style="stroke: #A80036; stroke-width: 1.0;"/><!--MD5=[1a823fcaba4f228c7d24437bd67e9690]
reverse link C_0000000226 to C_0000000232--><path d="M221.81,178.28 C206.13,193.39 188.51,210.38 174.7,223.68 " fill="none" id="C_0000000226&lt;-C_0000000232" style="stroke: #A80036; stroke-width: 1.0;"/><polygon fill="none" points="217.37,172.84,236.63,164,227.09,182.92,217.37,172.84" style="stroke: #A80036; stroke-width: 1.0;"/><!--MD5=[98d2fc737cc4bca4ad386d47c8b1891e]
reverse link C_0000000384 to C_0000000375--><path d="M848.02,153.45 C927.14,168.27 1060.98,194.73 1174.5,224 C1180.17,225.46 1186.05,227.08 1191.91,228.77 " fill="none" id="C_0000000384&lt;-C_0000000375" style="stroke: #A80036; stroke-width: 1.0;"/><polygon fill="none" points="846.55,160.29,828.17,149.76,849.11,146.53,846.55,160.29" style="stroke: #A80036; stroke-width: 1.0;"/><!--MD5=[aeeec79e90d7c99b8bba323a1d3da954]
reverse link C_0000000525 to C_0000000375--><path d="M1218.27,182.09 C1225.06,196.2 1232.41,211.48 1238.28,223.68 " fill="none" id="C_0000000525&lt;-C_0000000375" style="stroke: #A80036; stroke-width: 1.0;"/><polygon fill="none" points="1211.93,185.06,1209.57,164,1224.55,178.99,1211.93,185.06" style="stroke: #A80036; stroke-width: 1.0;"/><!--MD5=[00803f44d31c76fe4adc23f2b8fd5e0e]
reverse link C_0000000380 to C_0000000384--><path d="M779.5,76.02 C779.5,89.58 779.5,104.04 779.5,115.68 " fill="none" id="C_0000000380&lt;-C_0000000384" style="stroke: #A80036; stroke-width: 1.0;"/><polygon fill="none" points="772.5,76,779.5,56,786.5,76,772.5,76" style="stroke: #A80036; stroke-width: 1.0;"/><!--MD5=[0030a5ac0707884044bed6642402df37]
reverse link C_0000000380 to C_0000000401--><path d="M708.29,64.06 C670.31,80.63 624.36,100.67 589.54,115.86 " fill="none" id="C_0000000380&lt;-C_0000000401" style="stroke: #A80036; stroke-width: 1.0;"/><polygon fill="none" points="705.64,57.58,726.77,56,711.24,70.41,705.64,57.58" style="stroke: #A80036; stroke-width: 1.0;"/><!--MD5=[cfeb45f53328cac155b82bf4df5ba1a1]
reverse link C_0000000384 to C_0000000417--><path d="M711.85,164.59 C661.11,182.28 592.04,206.37 541.67,223.93 " fill="none" id="C_0000000384&lt;-C_0000000417" style="stroke: #A80036; stroke-width: 1.0;"/><polygon fill="none" points="709.8,157.89,730.99,157.91,714.41,171.11,709.8,157.89" style="stroke: #A80036; stroke-width: 1.0;"/><!--MD5=[822d6fb39459914354d34780ad182ef3]
reverse link C_0000000401 to C_0000000417--><path d="M513.13,181.61 C504.94,195.85 496.02,211.35 488.92,223.68 " fill="none" id="C_0000000401&lt;-C_0000000417" style="stroke: #A80036; stroke-width: 1.0;"/><polygon fill="none" points="507.22,177.84,523.26,164,519.36,184.83,507.22,177.84" style="stroke: #A80036; stroke-width: 1.0;"/><!--MD5=[662523b5009c056d8059beece34bba86]
reverse link C_0000000380 to C_0000000455--><path d="M842.08,65.2 C873.84,81.54 911.69,101.02 940.53,115.86 " fill="none" id="C_0000000380&lt;-C_0000000455" style="stroke: #A80036; stroke-width: 1.0;"/><polygon fill="none" points="838.78,71.38,824.2,56,845.19,58.93,838.78,71.38" style="stroke: #A80036; stroke-width: 1.0;"/><!--MD5=[3ba9a4f75b1153970a340916daa74141]
reverse link C_0000000384 to C_0000000467--><path d="M846.85,167.64 C890.64,184.96 947.16,207.31 989.05,223.88 " fill="none" id="C_0000000384&lt;-C_0000000467" style="stroke: #A80036; stroke-width: 1.0;"/><polygon fill="none" points="844.06,174.06,828.03,160.2,849.21,161.04,844.06,174.06" style="stroke: #A80036; stroke-width: 1.0;"/><!--MD5=[8539664cc2a98c08776f4cf794360823]
reverse link C_0000000455 to C_0000000467--><path d="M1009.25,181.61 C1017.58,195.85 1026.65,211.35 1033.86,223.68 " fill="none" id="C_0000000455&lt;-C_0000000467" style="stroke: #A80036; stroke-width: 1.0;"/><polygon fill="none" points="1003.01,184.8,998.95,164,1015.09,177.73,1003.01,184.8" style="stroke: #A80036; stroke-width: 1.0;"/><!--MD5=[0b060fe6ca9d7868c6d182fdad1c6cc6]
reverse link C_0000000380 to C_0000000525--><path d="M857.76,52.8 C936.49,72.71 1056.6,103.1 1131.19,121.97 " fill="none" id="C_0000000380&lt;-C_0000000525" style="stroke: #A80036; stroke-width: 1.0;"/><polygon fill="none" points="855.87,59.54,838.2,47.85,859.31,45.97,855.87,59.54" style="stroke: #A80036; stroke-width: 1.0;"/><!--MD5=[37bd7bace7f780bf9ba1e80554184f95]
@startuml
class "HttpController<T,bool AutoCreation>" as C_0000000137
class C_0000000137 {
}
abstract "HttpSimpleControllerBase" as C_0000000226
abstract C_0000000226 {
}
class "HttpSimpleController<T,bool AutoCreation>" as C_0000000232
class C_0000000232 {
}
class "DrTemplate<T>" as C_0000000375
class C_0000000375 {
}
class "DrObjectBase" as C_0000000380
class C_0000000380 {
}
class "DrObject<T>" as C_0000000384
class C_0000000384 {
}
abstract "WebSocketControllerBase" as C_0000000401
abstract C_0000000401 {
}
class "WebSocketController<T,bool AutoCreation>" as C_0000000417
class C_0000000417 {
}
abstract "HttpFilterBase" as C_0000000455
abstract C_0000000455 {
}
class "HttpFilter<T,bool AutoCreation>" as C_0000000467
class C_0000000467 {
}
abstract "DrTemplateBase" as C_0000000525
abstract C_0000000525 {
}
C_0000000384 <|- - C_0000000137
C_0000000380 <|- - C_0000000226
C_0000000384 <|- - C_0000000232
C_0000000226 <|- - C_0000000232
C_0000000384 <|- - C_0000000375
C_0000000525 <|- - C_0000000375
C_0000000380 <|- - C_0000000384
C_0000000380 <|- - C_0000000401
C_0000000384 <|- - C_0000000417
C_0000000401 <|- - C_0000000417
C_0000000380 <|- - C_0000000455
C_0000000384 <|- - C_0000000467
C_0000000455 <|- - C_0000000467
C_0000000380 <|- - C_0000000525
@enduml

PlantUML version 1.2020.02(Sun Mar 01 11:22:07 CET 2020)
(GPL source distribution)
Java Runtime: OpenJDK Runtime Environment
JVM: OpenJDK 64-Bit Server VM
Java Version: 11.0.15+10-Ubuntu-0ubuntu0.21.10.1
Operating System: Linux
Default Encoding: UTF-8
Language: en
Country: US
--></g></svg>