<?xml version="1.0" encoding="UTF-8" standalone="no"?><svg xmlns="http://www.w3.org/2000/svg" xmlns:xlink="http://www.w3.org/1999/xlink" contentScriptType="application/ecmascript" contentStyleType="text/css" height="283px" preserveAspectRatio="none" style="width:1462px;height:283px;" version="1.1" viewBox="0 0 1462 283" width="1462px" zoomAndPan="magnify"><defs><filter height="300%" id="fnxrajog27awu" width="300%" x="-1" y="-1"><feGaussianBlur result="blurOut" stdDeviation="2.0"/><feColorMatrix in="blurOut" result="blurOut2" type="matrix" values="0 0 0 0 0 0 0 0 0 0 0 0 0 0 0 0 0 0 .4 0"/><feOffset dx="4.0" dy="4.0" in="blurOut2" result="blurOut3"/><feBlend in="SourceGraphic" in2="blurOut3" mode="normal"/></filter></defs><g><!--MD5=[8eebf9a1e7583d896264093ba06a947b]
class C_0000948678946378292650--><rect fill="#FEFECE" filter="url(#fnxrajog27awu)" height="48" id="C_0000948678946378292650" style="stroke: #A80036; stroke-width: 1.5;" width="117" x="482.5" y="8"/><ellipse cx="497.5" cy="24" fill="#ADD1B2" rx="11" ry="11" style="stroke: #A80036; stroke-width: 1.0;"/><path d="M500.4688,29.6406 Q499.8906,29.9375 499.25,30.0781 Q498.6094,30.2344 497.9063,30.2344 Q495.4063,30.2344 494.0781,28.5938 Q492.7656,26.9375 492.7656,23.8125 Q492.7656,20.6875 494.0781,19.0313 Q495.4063,17.375 497.9063,17.375 Q498.6094,17.375 499.25,17.5313 Q499.9063,17.6875 500.4688,17.9844 L500.4688,20.7031 Q499.8438,20.125 499.25,19.8594 Q498.6563,19.5781 498.0313,19.5781 Q496.6875,19.5781 496,20.6563 Q495.3125,21.7188 495.3125,23.8125 Q495.3125,25.9063 496,26.9844 Q496.6875,28.0469 498.0313,28.0469 Q498.6563,28.0469 499.25,27.7813 Q499.8438,27.5 500.4688,26.9219 L500.4688,29.6406 Z "/><text fill="#000000" font-family="sans-serif" font-size="12" lengthAdjust="spacingAndGlyphs" textLength="85" x="511.5" y="28.1543">DrObjectBase</text><line style="stroke: #A80036; stroke-width: 1.5;" x1="483.5" x2="598.5" y1="40" y2="40"/><line style="stroke: #A80036; stroke-width: 1.5;" x1="483.5" x2="598.5" y1="48" y2="48"/><!--MD5=[b0c1f3f200618879cd53f0ce80fa105e]
class C_0000928351319055387329--><rect fill="#FEFECE" filter="url(#fnxrajog27awu)" height="48" id="C_0000928351319055387329" style="stroke: #A80036; stroke-width: 1.5;" width="97" x="559.5" y="116"/><ellipse cx="574.5" cy="132" fill="#ADD1B2" rx="11" ry="11" style="stroke: #A80036; stroke-width: 1.0;"/><path d="M577.4688,137.6406 Q576.8906,137.9375 576.25,138.0781 Q575.6094,138.2344 574.9063,138.2344 Q572.4063,138.2344 571.0781,136.5938 Q569.7656,134.9375 569.7656,131.8125 Q569.7656,128.6875 571.0781,127.0313 Q572.4063,125.375 574.9063,125.375 Q575.6094,125.375 576.25,125.5313 Q576.9063,125.6875 577.4688,125.9844 L577.4688,128.7031 Q576.8438,128.125 576.25,127.8594 Q575.6563,127.5781 575.0313,127.5781 Q573.6875,127.5781 573,128.6563 Q572.3125,129.7188 572.3125,131.8125 Q572.3125,133.9063 573,134.9844 Q573.6875,136.0469 575.0313,136.0469 Q575.6563,136.0469 576.25,135.7813 Q576.8438,135.5 577.4688,134.9219 L577.4688,137.6406 Z "/><text fill="#000000" font-family="sans-serif" font-size="12" lengthAdjust="spacingAndGlyphs" textLength="54" x="588.5" y="136.1543">DrObject</text><rect fill="#FFFFFF" height="15.9688" style="stroke: #000000; stroke-width: 1.0; stroke-dasharray: 2.0,2.0;" width="9" x="650.5" y="113"/><text fill="#000000" font-family="sans-serif" font-size="12" font-style="italic" lengthAdjust="spacingAndGlyphs" textLength="7" x="651.5" y="125.1387">T</text><line style="stroke: #A80036; stroke-width: 1.5;" x1="560.5" x2="655.5" y1="148" y2="148"/><line style="stroke: #A80036; stroke-width: 1.5;" x1="560.5" x2="655.5" y1="156" y2="156"/><!--MD5=[9bf5fe54c3ed9894f652b9eb750cad2d]
class C_0001287349830889935744--><rect fill="#FEFECE" filter="url(#fnxrajog27awu)" height="48" id="C_0001287349830889935744" style="stroke: #A80036; stroke-width: 1.5;" width="120" x="80" y="116"/><ellipse cx="95" cy="132" fill="#A9DCDF" rx="11" ry="11" style="stroke: #A80036; stroke-width: 1.0;"/><path d="M95.1094,127.3438 L93.9531,132.4219 L96.2813,132.4219 L95.1094,127.3438 Z M93.625,125.1094 L96.6094,125.1094 L99.9688,137.5 L97.5156,137.5 L96.75,134.4375 L93.4688,134.4375 L92.7188,137.5 L90.2813,137.5 L93.625,125.1094 Z "/><text fill="#000000" font-family="sans-serif" font-size="12" font-style="italic" lengthAdjust="spacingAndGlyphs" textLength="88" x="109" y="136.1543">HttpFilterBase</text><line style="stroke: #A80036; stroke-width: 1.5;" x1="81" x2="199" y1="148" y2="148"/><line style="stroke: #A80036; stroke-width: 1.5;" x1="81" x2="199" y1="156" y2="156"/><!--MD5=[ac9812467f8c28fdfa3c150e91ab1c15]
class C_0000031631007973654078--><rect fill="#FEFECE" filter="url(#fnxrajog27awu)" height="48" id="C_0000031631007973654078" style="stroke: #A80036; stroke-width: 1.5;" width="224" x="6" y="224"/><ellipse cx="21" cy="240" fill="#ADD1B2" rx="11" ry="11" style="stroke: #A80036; stroke-width: 1.0;"/><path d="M23.9688,245.6406 Q23.3906,245.9375 22.75,246.0781 Q22.1094,246.2344 21.4063,246.2344 Q18.9063,246.2344 17.5781,244.5938 Q16.2656,242.9375 16.2656,239.8125 Q16.2656,236.6875 17.5781,235.0313 Q18.9063,233.375 21.4063,233.375 Q22.1094,233.375 22.75,233.5313 Q23.4063,233.6875 23.9688,233.9844 L23.9688,236.7031 Q23.3438,236.125 22.75,235.8594 Q22.1563,235.5781 21.5313,235.5781 Q20.1875,235.5781 19.5,236.6563 Q18.8125,237.7188 18.8125,239.8125 Q18.8125,241.9063 19.5,242.9844 Q20.1875,244.0469 21.5313,244.0469 Q22.1563,244.0469 22.75,243.7813 Q23.3438,243.5 23.9688,242.9219 L23.9688,245.6406 Z "/><text fill="#000000" font-family="sans-serif" font-size="12" lengthAdjust="spacingAndGlyphs" textLength="58" x="35" y="244.1543">HttpFilter</text><rect fill="#FFFFFF" height="15.9688" style="stroke: #000000; stroke-width: 1.0; stroke-dasharray: 2.0,2.0;" width="132" x="101" y="221"/><text fill="#000000" font-family="sans-serif" font-size="12" font-style="italic" lengthAdjust="spacingAndGlyphs" textLength="130" x="102" y="233.1387">T,_Bool AutoCreation</text><line style="stroke: #A80036; stroke-width: 1.5;" x1="7" x2="229" y1="256" y2="256"/><line style="stroke: #A80036; stroke-width: 1.5;" x1="7" x2="229" y1="264" y2="264"/><!--MD5=[809d3da1c1f078ff56a88654a5e0f5e4]
class C_0000286555068366301766--><rect fill="#FEFECE" filter="url(#fnxrajog27awu)" height="48" id="C_0000286555068366301766" style="stroke: #A80036; stroke-width: 1.5;" width="134" x="256" y="116"/><ellipse cx="271" cy="132" fill="#A9DCDF" rx="11" ry="11" style="stroke: #A80036; stroke-width: 1.0;"/><path d="M271.1094,127.3438 L269.9531,132.4219 L272.2813,132.4219 L271.1094,127.3438 Z M269.625,125.1094 L272.6094,125.1094 L275.9688,137.5 L273.5156,137.5 L272.75,134.4375 L269.4688,134.4375 L268.7188,137.5 L266.2813,137.5 L269.625,125.1094 Z "/><text fill="#000000" font-family="sans-serif" font-size="12" font-style="italic" lengthAdjust="spacingAndGlyphs" textLength="102" x="285" y="136.1543">DrTemplateBase</text><line style="stroke: #A80036; stroke-width: 1.5;" x1="257" x2="389" y1="148" y2="148"/><line style="stroke: #A80036; stroke-width: 1.5;" x1="257" x2="389" y1="156" y2="156"/><!--MD5=[33b7b282ab6f720ae4a080cb18304122]
class C_0000730908334399288167--><rect fill="#FEFECE" filter="url(#fnxrajog27awu)" height="48" id="C_0000730908334399288167" style="stroke: #A80036; stroke-width: 1.5;" width="115" x="265.5" y="224"/><ellipse cx="280.5" cy="240" fill="#ADD1B2" rx="11" ry="11" style="stroke: #A80036; stroke-width: 1.0;"/><path d="M283.4688,245.6406 Q282.8906,245.9375 282.25,246.0781 Q281.6094,246.2344 280.9063,246.2344 Q278.4063,246.2344 277.0781,244.5938 Q275.7656,242.9375 275.7656,239.8125 Q275.7656,236.6875 277.0781,235.0313 Q278.4063,233.375 280.9063,233.375 Q281.6094,233.375 282.25,233.5313 Q282.9063,233.6875 283.4688,233.9844 L283.4688,236.7031 Q282.8438,236.125 282.25,235.8594 Q281.6563,235.5781 281.0313,235.5781 Q279.6875,235.5781 279,236.6563 Q278.3125,237.7188 278.3125,239.8125 Q278.3125,241.9063 279,242.9844 Q279.6875,244.0469 281.0313,244.0469 Q281.6563,244.0469 282.25,243.7813 Q282.8438,243.5 283.4688,242.9219 L283.4688,245.6406 Z "/><text fill="#000000" font-family="sans-serif" font-size="12" lengthAdjust="spacingAndGlyphs" textLength="72" x="294.5" y="244.1543">DrTemplate</text><rect fill="#FFFFFF" height="15.9688" style="stroke: #000000; stroke-width: 1.0; stroke-dasharray: 2.0,2.0;" width="9" x="374.5" y="221"/><text fill="#000000" font-family="sans-serif" font-size="12" font-style="italic" lengthAdjust="spacingAndGlyphs" textLength="7" x="375.5" y="233.1387">T</text><line style="stroke: #A80036; stroke-width: 1.5;" x1="266.5" x2="379.5" y1="256" y2="256"/><line style="stroke: #A80036; stroke-width: 1.5;" x1="266.5" x2="379.5" y1="264" y2="264"/><!--MD5=[af389aaa357f7fd8d419fbcd5c89a1b7]
class C_0001766132705992294525--><rect fill="#FEFECE" filter="url(#fnxrajog27awu)" height="48" id="C_0001766132705992294525" style="stroke: #A80036; stroke-width: 1.5;" width="99" x="425.5" y="116"/><ellipse cx="440.5" cy="132" fill="#A9DCDF" rx="11" ry="11" style="stroke: #A80036; stroke-width: 1.0;"/><path d="M440.6094,127.3438 L439.4531,132.4219 L441.7813,132.4219 L440.6094,127.3438 Z M439.125,125.1094 L442.1094,125.1094 L445.4688,137.5 L443.0156,137.5 L442.25,134.4375 L438.9688,134.4375 L438.2188,137.5 L435.7813,137.5 L439.125,125.1094 Z "/><text fill="#000000" font-family="sans-serif" font-size="12" font-style="italic" lengthAdjust="spacingAndGlyphs" textLength="67" x="454.5" y="136.1543">PluginBase</text><line style="stroke: #A80036; stroke-width: 1.5;" x1="426.5" x2="523.5" y1="148" y2="148"/><line style="stroke: #A80036; stroke-width: 1.5;" x1="426.5" x2="523.5" y1="156" y2="156"/><!--MD5=[b7bc1ee6f8f7fb96a1411bbc736b5faf]
class C_0000090245984191403772--><rect fill="#FEFECE" filter="url(#fnxrajog27awu)" height="48" id="C_0000090245984191403772" style="stroke: #A80036; stroke-width: 1.5;" width="81" x="415.5" y="224"/><ellipse cx="430.5" cy="240" fill="#ADD1B2" rx="11" ry="11" style="stroke: #A80036; stroke-width: 1.0;"/><path d="M433.4688,245.6406 Q432.8906,245.9375 432.25,246.0781 Q431.6094,246.2344 430.9063,246.2344 Q428.4063,246.2344 427.0781,244.5938 Q425.7656,242.9375 425.7656,239.8125 Q425.7656,236.6875 427.0781,235.0313 Q428.4063,233.375 430.9063,233.375 Q431.6094,233.375 432.25,233.5313 Q432.9063,233.6875 433.4688,233.9844 L433.4688,236.7031 Q432.8438,236.125 432.25,235.8594 Q431.6563,235.5781 431.0313,235.5781 Q429.6875,235.5781 429,236.6563 Q428.3125,237.7188 428.3125,239.8125 Q428.3125,241.9063 429,242.9844 Q429.6875,244.0469 431.0313,244.0469 Q431.6563,244.0469 432.25,243.7813 Q432.8438,243.5 433.4688,242.9219 L433.4688,245.6406 Z "/><text fill="#000000" font-family="sans-serif" font-size="12" lengthAdjust="spacingAndGlyphs" textLength="38" x="444.5" y="244.1543">Plugin</text><rect fill="#FFFFFF" height="15.9688" style="stroke: #000000; stroke-width: 1.0; stroke-dasharray: 2.0,2.0;" width="9" x="490.5" y="221"/><text fill="#000000" font-family="sans-serif" font-size="12" font-style="italic" lengthAdjust="spacingAndGlyphs" textLength="7" x="491.5" y="233.1387">T</text><line style="stroke: #A80036; stroke-width: 1.5;" x1="416.5" x2="495.5" y1="256" y2="256"/><line style="stroke: #A80036; stroke-width: 1.5;" x1="416.5" x2="495.5" y1="264" y2="264"/><!--MD5=[f72130e82529f7639e9da9568463cbda]
class C_0000128620413217137181--><rect fill="#FEFECE" filter="url(#fnxrajog27awu)" height="48" id="C_0000128620413217137181" style="stroke: #A80036; stroke-width: 1.5;" width="191" x="782.5" y="116"/><ellipse cx="797.5" cy="132" fill="#A9DCDF" rx="11" ry="11" style="stroke: #A80036; stroke-width: 1.0;"/><path d="M797.6094,127.3438 L796.4531,132.4219 L798.7813,132.4219 L797.6094,127.3438 Z M796.125,125.1094 L799.1094,125.1094 L802.4688,137.5 L800.0156,137.5 L799.25,134.4375 L795.9688,134.4375 L795.2188,137.5 L792.7813,137.5 L796.125,125.1094 Z "/><text fill="#000000" font-family="sans-serif" font-size="12" font-style="italic" lengthAdjust="spacingAndGlyphs" textLength="159" x="811.5" y="136.1543">HttpSimpleControllerBase</text><line style="stroke: #A80036; stroke-width: 1.5;" x1="783.5" x2="972.5" y1="148" y2="148"/><line style="stroke: #A80036; stroke-width: 1.5;" x1="783.5" x2="972.5" y1="156" y2="156"/><!--MD5=[84f484c7cb11330a7d20b8d589f331c9]
class C_0001615046545627727628--><rect fill="#FEFECE" filter="url(#fnxrajog27awu)" height="48" id="C_0001615046545627727628" style="stroke: #A80036; stroke-width: 1.5;" width="194" x="1106" y="116"/><ellipse cx="1121" cy="132" fill="#A9DCDF" rx="11" ry="11" style="stroke: #A80036; stroke-width: 1.0;"/><path d="M1121.1094,127.3438 L1119.9531,132.4219 L1122.2813,132.4219 L1121.1094,127.3438 Z M1119.625,125.1094 L1122.6094,125.1094 L1125.9688,137.5 L1123.5156,137.5 L1122.75,134.4375 L1119.4688,134.4375 L1118.7188,137.5 L1116.2813,137.5 L1119.625,125.1094 Z "/><text fill="#000000" font-family="sans-serif" font-size="12" font-style="italic" lengthAdjust="spacingAndGlyphs" textLength="162" x="1135" y="136.1543">WebSocketControllerBase</text><line style="stroke: #A80036; stroke-width: 1.5;" x1="1107" x2="1299" y1="148" y2="148"/><line style="stroke: #A80036; stroke-width: 1.5;" x1="1107" x2="1299" y1="156" y2="156"/><!--MD5=[dbb9920e96232023c94fae4b62d7d1d2]
class C_0001833788982003182044--><rect fill="#FEFECE" filter="url(#fnxrajog27awu)" height="48" id="C_0001833788982003182044" style="stroke: #A80036; stroke-width: 1.5;" width="295" x="821.5" y="224"/><ellipse cx="836.5" cy="240" fill="#ADD1B2" rx="11" ry="11" style="stroke: #A80036; stroke-width: 1.0;"/><path d="M839.4688,245.6406 Q838.8906,245.9375 838.25,246.0781 Q837.6094,246.2344 836.9063,246.2344 Q834.4063,246.2344 833.0781,244.5938 Q831.7656,242.9375 831.7656,239.8125 Q831.7656,236.6875 833.0781,235.0313 Q834.4063,233.375 836.9063,233.375 Q837.6094,233.375 838.25,233.5313 Q838.9063,233.6875 839.4688,233.9844 L839.4688,236.7031 Q838.8438,236.125 838.25,235.8594 Q837.6563,235.5781 837.0313,235.5781 Q835.6875,235.5781 835,236.6563 Q834.3125,237.7188 834.3125,239.8125 Q834.3125,241.9063 835,242.9844 Q835.6875,244.0469 837.0313,244.0469 Q837.6563,244.0469 838.25,243.7813 Q838.8438,243.5 839.4688,242.9219 L839.4688,245.6406 Z "/><text fill="#000000" font-family="sans-serif" font-size="12" lengthAdjust="spacingAndGlyphs" textLength="129" x="850.5" y="244.1543">HttpSimpleController</text><rect fill="#FFFFFF" height="15.9688" style="stroke: #000000; stroke-width: 1.0; stroke-dasharray: 2.0,2.0;" width="132" x="987.5" y="221"/><text fill="#000000" font-family="sans-serif" font-size="12" font-style="italic" lengthAdjust="spacingAndGlyphs" textLength="130" x="988.5" y="233.1387">T,_Bool AutoCreation</text><line style="stroke: #A80036; stroke-width: 1.5;" x1="822.5" x2="1115.5" y1="256" y2="256"/><line style="stroke: #A80036; stroke-width: 1.5;" x1="822.5" x2="1115.5" y1="264" y2="264"/><!--MD5=[665af763991f2a49afa92958838890ac]
class C_0001995789392269599386--><rect fill="#FEFECE" filter="url(#fnxrajog27awu)" height="48" id="C_0001995789392269599386" style="stroke: #A80036; stroke-width: 1.5;" width="254" x="532" y="224"/><ellipse cx="547" cy="240" fill="#ADD1B2" rx="11" ry="11" style="stroke: #A80036; stroke-width: 1.0;"/><path d="M549.9688,245.6406 Q549.3906,245.9375 548.75,246.0781 Q548.1094,246.2344 547.4063,246.2344 Q544.9063,246.2344 543.5781,244.5938 Q542.2656,242.9375 542.2656,239.8125 Q542.2656,236.6875 543.5781,235.0313 Q544.9063,233.375 547.4063,233.375 Q548.1094,233.375 548.75,233.5313 Q549.4063,233.6875 549.9688,233.9844 L549.9688,236.7031 Q549.3438,236.125 548.75,235.8594 Q548.1563,235.5781 547.5313,235.5781 Q546.1875,235.5781 545.5,236.6563 Q544.8125,237.7188 544.8125,239.8125 Q544.8125,241.9063 545.5,242.9844 Q546.1875,244.0469 547.5313,244.0469 Q548.1563,244.0469 548.75,243.7813 Q549.3438,243.5 549.9688,242.9219 L549.9688,245.6406 Z "/><text fill="#000000" font-family="sans-serif" font-size="12" lengthAdjust="spacingAndGlyphs" textLength="88" x="561" y="244.1543">HttpController</text><rect fill="#FFFFFF" height="15.9688" style="stroke: #000000; stroke-width: 1.0; stroke-dasharray: 2.0,2.0;" width="132" x="657" y="221"/><text fill="#000000" font-family="sans-serif" font-size="12" font-style="italic" lengthAdjust="spacingAndGlyphs" textLength="130" x="658" y="233.1387">T,_Bool AutoCreation</text><line style="stroke: #A80036; stroke-width: 1.5;" x1="533" x2="785" y1="256" y2="256"/><line style="stroke: #A80036; stroke-width: 1.5;" x1="533" x2="785" y1="264" y2="264"/><!--MD5=[26c75a3baa42063e24cff47900d872d0]
class C_0000806111021869891832--><rect fill="#FEFECE" filter="url(#fnxrajog27awu)" height="48" id="C_0000806111021869891832" style="stroke: #A80036; stroke-width: 1.5;" width="297" x="1151.5" y="224"/><ellipse cx="1166.5" cy="240" fill="#ADD1B2" rx="11" ry="11" style="stroke: #A80036; stroke-width: 1.0;"/><path d="M1169.4688,245.6406 Q1168.8906,245.9375 1168.25,246.0781 Q1167.6094,246.2344 1166.9063,246.2344 Q1164.4063,246.2344 1163.0781,244.5938 Q1161.7656,242.9375 1161.7656,239.8125 Q1161.7656,236.6875 1163.0781,235.0313 Q1164.4063,233.375 1166.9063,233.375 Q1167.6094,233.375 1168.25,233.5313 Q1168.9063,233.6875 1169.4688,233.9844 L1169.4688,236.7031 Q1168.8438,236.125 1168.25,235.8594 Q1167.6563,235.5781 1167.0313,235.5781 Q1165.6875,235.5781 1165,236.6563 Q1164.3125,237.7188 1164.3125,239.8125 Q1164.3125,241.9063 1165,242.9844 Q1165.6875,244.0469 1167.0313,244.0469 Q1167.6563,244.0469 1168.25,243.7813 Q1168.8438,243.5 1169.4688,242.9219 L1169.4688,245.6406 Z "/><text fill="#000000" font-family="sans-serif" font-size="12" lengthAdjust="spacingAndGlyphs" textLength="131" x="1180.5" y="244.1543">WebSocketController</text><rect fill="#FFFFFF" height="15.9688" style="stroke: #000000; stroke-width: 1.0; stroke-dasharray: 2.0,2.0;" width="132" x="1319.5" y="221"/><text fill="#000000" font-family="sans-serif" font-size="12" font-style="italic" lengthAdjust="spacingAndGlyphs" textLength="130" x="1320.5" y="233.1387">T,_Bool AutoCreation</text><line style="stroke: #A80036; stroke-width: 1.5;" x1="1152.5" x2="1447.5" y1="256" y2="256"/><line style="stroke: #A80036; stroke-width: 1.5;" x1="1152.5" x2="1447.5" y1="264" y2="264"/><!--MD5=[8b87dbb05889aaa4030f7836e15230c6]
reverse link C_0000948678946378292650 to C_0000928351319055387329--><path d="M566.37,73.13 C575.45,87.5 585.38,103.21 593.26,115.68 " fill="none" id="C_0000948678946378292650&lt;-C_0000928351319055387329" style="stroke: #A80036; stroke-width: 1.0;"/><polygon fill="none" points="560.31,76.65,555.54,56,572.14,69.17,560.31,76.65" style="stroke: #A80036; stroke-width: 1.0;"/><!--MD5=[af1953e88b81244f644938e052f6a539]
reverse link C_0000948678946378292650 to C_0001287349830889935744--><path d="M462.64,53.71 C385.75,74.04 270.15,104.6 200.21,123.08 " fill="none" id="C_0000948678946378292650&lt;-C_0001287349830889935744" style="stroke: #A80036; stroke-width: 1.0;"/><polygon fill="none" points="461.14,46.87,482.26,48.53,464.71,60.41,461.14,46.87" style="stroke: #A80036; stroke-width: 1.0;"/><!--MD5=[3137b5c878137675c9974844b82893e1]
reverse link C_0000928351319055387329 to C_0000031631007973654078--><path d="M539.66,164.03 C460.63,184.06 326.77,209.29 230.19,226.9 " fill="none" id="C_0000928351319055387329&lt;-C_0000031631007973654078" style="stroke: #A80036; stroke-width: 1.0;"/><polygon fill="none" points="538.1,157.2,559.23,158.86,541.68,170.74,538.1,157.2" style="stroke: #A80036; stroke-width: 1.0;"/><!--MD5=[f96a3b5281a3c3d24b390b6cfbeb9bf7]
reverse link C_0001287349830889935744 to C_0000031631007973654078--><path d="M131.07,184.02 C128.26,197.58 125.26,212.04 122.84,223.68 " fill="none" id="C_0001287349830889935744&lt;-C_0000031631007973654078" style="stroke: #A80036; stroke-width: 1.0;"/><polygon fill="none" points="124.31,182.16,135.23,164,138.02,185.01,124.31,182.16" style="stroke: #A80036; stroke-width: 1.0;"/><!--MD5=[e255ccbd859a31138760694afb291f39]
reverse link C_0000948678946378292650 to C_0000286555068366301766--><path d="M475.25,64.97 C441.54,81.36 401.25,100.95 370.59,115.86 " fill="none" id="C_0000948678946378292650&lt;-C_0000286555068366301766" style="stroke: #A80036; stroke-width: 1.0;"/><polygon fill="none" points="472.65,58.45,493.7,56,478.77,71.04,472.65,58.45" style="stroke: #A80036; stroke-width: 1.0;"/><!--MD5=[3d1d77076dc84274b00e631f6cf6abf6]
reverse link C_0000928351319055387329 to C_0000730908334399288167--><path d="M540.56,166.08 C491.87,184.19 426.81,208.39 380.56,225.59 " fill="none" id="C_0000928351319055387329&lt;-C_0000730908334399288167" style="stroke: #A80036; stroke-width: 1.0;"/><polygon fill="none" points="538.14,159.51,559.33,159.1,543.03,172.63,538.14,159.51" style="stroke: #A80036; stroke-width: 1.0;"/><!--MD5=[d304be30e2eef8812d130d007e843740]
reverse link C_0000286555068366301766 to C_0000730908334399288167--><path d="M323,184.02 C323,197.58 323,212.04 323,223.68 " fill="none" id="C_0000286555068366301766&lt;-C_0000730908334399288167" style="stroke: #A80036; stroke-width: 1.0;"/><polygon fill="none" points="316,184,323,164,330,184,316,184" style="stroke: #A80036; stroke-width: 1.0;"/><!--MD5=[dadf83d07adcf840ce6a29c8409e4070]
reverse link C_0000948678946378292650 to C_0001766132705992294525--><path d="M516.01,73.13 C507.07,87.5 497.29,103.21 489.52,115.68 " fill="none" id="C_0000948678946378292650&lt;-C_0001766132705992294525" style="stroke: #A80036; stroke-width: 1.0;"/><polygon fill="none" points="510.17,69.28,526.68,56,522.05,76.68,510.17,69.28" style="stroke: #A80036; stroke-width: 1.0;"/><!--MD5=[4c7405d525f24e63a2fac75cb3c1b026]
reverse link C_0001766132705992294525 to C_0000090245984191403772--><path d="M467.29,184.02 C464.86,197.58 462.27,212.04 460.18,223.68 " fill="none" id="C_0001766132705992294525&lt;-C_0000090245984191403772" style="stroke: #A80036; stroke-width: 1.0;"/><polygon fill="none" points="460.46,182.45,470.88,164,474.24,184.92,460.46,182.45" style="stroke: #A80036; stroke-width: 1.0;"/><!--MD5=[a465e6d1a8ec232be538372436990450]
reverse link C_0000928351319055387329 to C_0000090245984191403772--><path d="M558.51,175.51 C535.79,191.35 509.47,209.71 489.18,223.86 " fill="none" id="C_0000928351319055387329&lt;-C_0000090245984191403772" style="stroke: #A80036; stroke-width: 1.0;"/><polygon fill="none" points="554.61,169.7,575.02,164,562.62,181.18,554.61,169.7" style="stroke: #A80036; stroke-width: 1.0;"/><!--MD5=[36fc32e6ce5ca1d346794beaaf91f2d6]
reverse link C_0000948678946378292650 to C_0000128620413217137181--><path d="M619.01,57.54 C674.97,75.14 749.84,98.69 804.69,115.94 " fill="none" id="C_0000948678946378292650&lt;-C_0000128620413217137181" style="stroke: #A80036; stroke-width: 1.0;"/><polygon fill="none" points="616.68,64.14,599.7,51.46,620.88,50.79,616.68,64.14" style="stroke: #A80036; stroke-width: 1.0;"/><!--MD5=[f882c48129beea06b07e98465588f15e]
reverse link C_0000948678946378292650 to C_0001615046545627727628--><path d="M619.66,45.6 C741.1,65.04 973.95,102.32 1105.77,123.43 " fill="none" id="C_0000948678946378292650&lt;-C_0001615046545627727628" style="stroke: #A80036; stroke-width: 1.0;"/><polygon fill="none" points="618.39,52.48,599.75,42.41,620.6,38.66,618.39,52.48" style="stroke: #A80036; stroke-width: 1.0;"/><!--MD5=[71f368ec4fb72f3016782ec9257a17ad]
reverse link C_0000928351319055387329 to C_0001833788982003182044--><path d="M676.19,161.02 C737.15,178.92 826.47,205.15 890.41,223.92 " fill="none" id="C_0000928351319055387329&lt;-C_0001833788982003182044" style="stroke: #A80036; stroke-width: 1.0;"/><polygon fill="none" points="673.9,167.65,656.69,155.3,677.85,154.21,673.9,167.65" style="stroke: #A80036; stroke-width: 1.0;"/><!--MD5=[e795776a6a02b3b75fef798db9b944a5]
reverse link C_0000128620413217137181 to C_0001833788982003182044--><path d="M910.82,179.23 C923.58,194.1 937.8,210.65 948.98,223.68 " fill="none" id="C_0000128620413217137181&lt;-C_0001833788982003182044" style="stroke: #A80036; stroke-width: 1.0;"/><polygon fill="none" points="905.46,183.74,897.75,164,916.08,174.62,905.46,183.74" style="stroke: #A80036; stroke-width: 1.0;"/><!--MD5=[a9c31c9cee7ecf5ea82691444f2e2671]
reverse link C_0000928351319055387329 to C_0001995789392269599386--><path d="M627.77,182.09 C634.56,196.2 641.91,211.48 647.78,223.68 " fill="none" id="C_0000928351319055387329&lt;-C_0001995789392269599386" style="stroke: #A80036; stroke-width: 1.0;"/><polygon fill="none" points="621.43,185.06,619.07,164,634.05,178.99,621.43,185.06" style="stroke: #A80036; stroke-width: 1.0;"/><!--MD5=[2a9592ed58a46aa5674276232c95505e]
reverse link C_0000928351319055387329 to C_0000806111021869891832--><path d="M676.5,151.49 C786.36,168.32 1004.48,201.73 1151.34,224.23 " fill="none" id="C_0000928351319055387329&lt;-C_0000806111021869891832" style="stroke: #A80036; stroke-width: 1.0;"/><polygon fill="none" points="675.37,158.4,656.66,148.45,677.49,144.56,675.37,158.4" style="stroke: #A80036; stroke-width: 1.0;"/><!--MD5=[bf127f0dbb767169629dbcbfa3338e58]
reverse link C_0001615046545627727628 to C_0000806111021869891832--><path d="M1237.98,179.23 C1251.59,194.1 1266.74,210.65 1278.66,223.68 " fill="none" id="C_0001615046545627727628&lt;-C_0000806111021869891832" style="stroke: #A80036; stroke-width: 1.0;"/><polygon fill="none" points="1232.39,183.48,1224.05,164,1242.71,174.03,1232.39,183.48" style="stroke: #A80036; stroke-width: 1.0;"/><!--MD5=[d6ed757dcc2a524483cd827e115165d8]
@startuml
class "DrObjectBase" as C_0000948678946378292650
class C_0000948678946378292650 {
}
class "DrObject<T>" as C_0000928351319055387329
class C_0000928351319055387329 {
}
abstract "HttpFilterBase" as C_0001287349830889935744
abstract C_0001287349830889935744 {
}
class "HttpFilter<T,_Bool AutoCreation>" as C_0000031631007973654078
class C_0000031631007973654078 {
}
abstract "DrTemplateBase" as C_0000286555068366301766
abstract C_0000286555068366301766 {
}
class "DrTemplate<T>" as C_0000730908334399288167
class C_0000730908334399288167 {
}
abstract "PluginBase" as C_0001766132705992294525
abstract C_0001766132705992294525 {
}
class "Plugin<T>" as C_0000090245984191403772
class C_0000090245984191403772 {
}
abstract "HttpSimpleControllerBase" as C_0000128620413217137181
abstract C_0000128620413217137181 {
}
abstract "WebSocketControllerBase" as C_0001615046545627727628
abstract C_0001615046545627727628 {
}
class "HttpSimpleController<T,_Bool AutoCreation>" as C_0001833788982003182044
class C_0001833788982003182044 {
}
class "HttpController<T,_Bool AutoCreation>" as C_0001995789392269599386
class C_0001995789392269599386 {
}
class "WebSocketController<T,_Bool AutoCreation>" as C_0000806111021869891832
class C_0000806111021869891832 {
}
C_0000948678946378292650 <|- - C_0000928351319055387329
C_0000948678946378292650 <|- - C_0001287349830889935744
C_0000928351319055387329 <|- - C_0000031631007973654078
C_0001287349830889935744 <|- - C_0000031631007973654078
C_0000948678946378292650 <|- - C_0000286555068366301766
C_0000928351319055387329 <|- - C_0000730908334399288167
C_0000286555068366301766 <|- - C_0000730908334399288167
C_0000948678946378292650 <|- - C_0001766132705992294525
C_0001766132705992294525 <|- - C_0000090245984191403772
C_0000928351319055387329 <|- - C_0000090245984191403772
C_0000948678946378292650 <|- - C_0000128620413217137181
C_0000948678946378292650 <|- - C_0001615046545627727628
C_0000928351319055387329 <|- - C_0001833788982003182044
C_0000128620413217137181 <|- - C_0001833788982003182044
C_0000928351319055387329 <|- - C_0001995789392269599386
C_0000928351319055387329 <|- - C_0000806111021869891832
C_0001615046545627727628 <|- - C_0000806111021869891832
@enduml

PlantUML version 1.2020.02(Sun Mar 01 11:22:07 CET 2020)
(GPL source distribution)
Java Runtime: OpenJDK Runtime Environment
JVM: OpenJDK 64-Bit Server VM
Java Version: 11.0.16+8-post-Ubuntu-0ubuntu122.04
Operating System: Linux
Default Encoding: UTF-8
Language: en
Country: US
--></g></svg>