<?xml version="1.0" encoding="UTF-8" standalone="no"?><svg xmlns="http://www.w3.org/2000/svg" xmlns:xlink="http://www.w3.org/1999/xlink" contentScriptType="application/ecmascript" contentStyleType="text/css" height="283px" preserveAspectRatio="none" style="width:1606px;height:283px;" version="1.1" viewBox="0 0 1606 283" width="1606px" zoomAndPan="magnify"><defs><filter height="300%" id="f1hxv7qah2ywp8" width="300%" x="-1" y="-1"><feGaussianBlur result="blurOut" stdDeviation="2.0"/><feColorMatrix in="blurOut" result="blurOut2" type="matrix" values="0 0 0 0 0 0 0 0 0 0 0 0 0 0 0 0 0 0 .4 0"/><feOffset dx="4.0" dy="4.0" in="blurOut2" result="blurOut3"/><feBlend in="SourceGraphic" in2="blurOut3" mode="normal"/></filter></defs><g><!--MD5=[8eebf9a1e7583d896264093ba06a947b]
class C_0000948678946378292650--><rect fill="#FEFECE" filter="url(#f1hxv7qah2ywp8)" height="48" id="C_0000948678946378292650" style="stroke: #A80036; stroke-width: 1.5;" width="117" x="518.5" y="8"/><ellipse cx="533.5" cy="24" fill="#ADD1B2" rx="11" ry="11" style="stroke: #A80036; stroke-width: 1.0;"/><path d="M536.4688,29.6406 Q535.8906,29.9375 535.25,30.0781 Q534.6094,30.2344 533.9063,30.2344 Q531.4063,30.2344 530.0781,28.5938 Q528.7656,26.9375 528.7656,23.8125 Q528.7656,20.6875 530.0781,19.0313 Q531.4063,17.375 533.9063,17.375 Q534.6094,17.375 535.25,17.5313 Q535.9063,17.6875 536.4688,17.9844 L536.4688,20.7031 Q535.8438,20.125 535.25,19.8594 Q534.6563,19.5781 534.0313,19.5781 Q532.6875,19.5781 532,20.6563 Q531.3125,21.7188 531.3125,23.8125 Q531.3125,25.9063 532,26.9844 Q532.6875,28.0469 534.0313,28.0469 Q534.6563,28.0469 535.25,27.7813 Q535.8438,27.5 536.4688,26.9219 L536.4688,29.6406 Z "/><text fill="#000000" font-family="sans-serif" font-size="12" lengthAdjust="spacingAndGlyphs" textLength="85" x="547.5" y="28.1543">DrObjectBase</text><line style="stroke: #A80036; stroke-width: 1.5;" x1="519.5" x2="634.5" y1="40" y2="40"/><line style="stroke: #A80036; stroke-width: 1.5;" x1="519.5" x2="634.5" y1="48" y2="48"/><!--MD5=[b0c1f3f200618879cd53f0ce80fa105e]
class C_0000928351319055387329--><rect fill="#FEFECE" filter="url(#f1hxv7qah2ywp8)" height="48" id="C_0000928351319055387329" style="stroke: #A80036; stroke-width: 1.5;" width="97" x="595.5" y="116"/><ellipse cx="610.5" cy="132" fill="#ADD1B2" rx="11" ry="11" style="stroke: #A80036; stroke-width: 1.0;"/><path d="M613.4688,137.6406 Q612.8906,137.9375 612.25,138.0781 Q611.6094,138.2344 610.9063,138.2344 Q608.4063,138.2344 607.0781,136.5938 Q605.7656,134.9375 605.7656,131.8125 Q605.7656,128.6875 607.0781,127.0313 Q608.4063,125.375 610.9063,125.375 Q611.6094,125.375 612.25,125.5313 Q612.9063,125.6875 613.4688,125.9844 L613.4688,128.7031 Q612.8438,128.125 612.25,127.8594 Q611.6563,127.5781 611.0313,127.5781 Q609.6875,127.5781 609,128.6563 Q608.3125,129.7188 608.3125,131.8125 Q608.3125,133.9063 609,134.9844 Q609.6875,136.0469 611.0313,136.0469 Q611.6563,136.0469 612.25,135.7813 Q612.8438,135.5 613.4688,134.9219 L613.4688,137.6406 Z "/><text fill="#000000" font-family="sans-serif" font-size="12" lengthAdjust="spacingAndGlyphs" textLength="54" x="624.5" y="136.1543">DrObject</text><rect fill="#FFFFFF" height="15.9688" style="stroke: #000000; stroke-width: 1.0; stroke-dasharray: 2.0,2.0;" width="9" x="686.5" y="113"/><text fill="#000000" font-family="sans-serif" font-size="12" font-style="italic" lengthAdjust="spacingAndGlyphs" textLength="7" x="687.5" y="125.1387">T</text><line style="stroke: #A80036; stroke-width: 1.5;" x1="596.5" x2="691.5" y1="148" y2="148"/><line style="stroke: #A80036; stroke-width: 1.5;" x1="596.5" x2="691.5" y1="156" y2="156"/><!--MD5=[9bf5fe54c3ed9894f652b9eb750cad2d]
class C_0001287349830889935744--><rect fill="#FEFECE" filter="url(#f1hxv7qah2ywp8)" height="48" id="C_0001287349830889935744" style="stroke: #A80036; stroke-width: 1.5;" width="120" x="107" y="116"/><ellipse cx="122" cy="132" fill="#A9DCDF" rx="11" ry="11" style="stroke: #A80036; stroke-width: 1.0;"/><path d="M122.1094,127.3438 L120.9531,132.4219 L123.2813,132.4219 L122.1094,127.3438 Z M120.625,125.1094 L123.6094,125.1094 L126.9688,137.5 L124.5156,137.5 L123.75,134.4375 L120.4688,134.4375 L119.7188,137.5 L117.2813,137.5 L120.625,125.1094 Z "/><text fill="#000000" font-family="sans-serif" font-size="12" font-style="italic" lengthAdjust="spacingAndGlyphs" textLength="88" x="136" y="136.1543">HttpFilterBase</text><line style="stroke: #A80036; stroke-width: 1.5;" x1="108" x2="226" y1="148" y2="148"/><line style="stroke: #A80036; stroke-width: 1.5;" x1="108" x2="226" y1="156" y2="156"/><!--MD5=[bb608011fef661c1200cb664cf8b36c7]
class C_0001423317784030907931--><rect fill="#FEFECE" filter="url(#f1hxv7qah2ywp8)" height="48" id="C_0001423317784030907931" style="stroke: #A80036; stroke-width: 1.5;" width="260" x="6" y="224"/><ellipse cx="21" cy="240" fill="#ADD1B2" rx="11" ry="11" style="stroke: #A80036; stroke-width: 1.0;"/><path d="M23.9688,245.6406 Q23.3906,245.9375 22.75,246.0781 Q22.1094,246.2344 21.4063,246.2344 Q18.9063,246.2344 17.5781,244.5938 Q16.2656,242.9375 16.2656,239.8125 Q16.2656,236.6875 17.5781,235.0313 Q18.9063,233.375 21.4063,233.375 Q22.1094,233.375 22.75,233.5313 Q23.4063,233.6875 23.9688,233.9844 L23.9688,236.7031 Q23.3438,236.125 22.75,235.8594 Q22.1563,235.5781 21.5313,235.5781 Q20.1875,235.5781 19.5,236.6563 Q18.8125,237.7188 18.8125,239.8125 Q18.8125,241.9063 19.5,242.9844 Q20.1875,244.0469 21.5313,244.0469 Q22.1563,244.0469 22.75,243.7813 Q23.3438,243.5 23.9688,242.9219 L23.9688,245.6406 Z "/><text fill="#000000" font-family="sans-serif" font-size="12" lengthAdjust="spacingAndGlyphs" textLength="58" x="35" y="244.1543">HttpFilter</text><rect fill="#FFFFFF" height="15.9688" style="stroke: #000000; stroke-width: 1.0; stroke-dasharray: 2.0,2.0;" width="168" x="101" y="221"/><text fill="#000000" font-family="sans-serif" font-size="12" font-style="italic" lengthAdjust="spacingAndGlyphs" textLength="166" x="102" y="233.1387">T,_Bool AutoCreation=true</text><line style="stroke: #A80036; stroke-width: 1.5;" x1="7" x2="265" y1="256" y2="256"/><line style="stroke: #A80036; stroke-width: 1.5;" x1="7" x2="265" y1="264" y2="264"/><!--MD5=[809d3da1c1f078ff56a88654a5e0f5e4]
class C_0000286555068366301766--><rect fill="#FEFECE" filter="url(#f1hxv7qah2ywp8)" height="48" id="C_0000286555068366301766" style="stroke: #A80036; stroke-width: 1.5;" width="134" x="292" y="116"/><ellipse cx="307" cy="132" fill="#A9DCDF" rx="11" ry="11" style="stroke: #A80036; stroke-width: 1.0;"/><path d="M307.1094,127.3438 L305.9531,132.4219 L308.2813,132.4219 L307.1094,127.3438 Z M305.625,125.1094 L308.6094,125.1094 L311.9688,137.5 L309.5156,137.5 L308.75,134.4375 L305.4688,134.4375 L304.7188,137.5 L302.2813,137.5 L305.625,125.1094 Z "/><text fill="#000000" font-family="sans-serif" font-size="12" font-style="italic" lengthAdjust="spacingAndGlyphs" textLength="102" x="321" y="136.1543">DrTemplateBase</text><line style="stroke: #A80036; stroke-width: 1.5;" x1="293" x2="425" y1="148" y2="148"/><line style="stroke: #A80036; stroke-width: 1.5;" x1="293" x2="425" y1="156" y2="156"/><!--MD5=[33b7b282ab6f720ae4a080cb18304122]
class C_0000730908334399288167--><rect fill="#FEFECE" filter="url(#f1hxv7qah2ywp8)" height="48" id="C_0000730908334399288167" style="stroke: #A80036; stroke-width: 1.5;" width="115" x="301.5" y="224"/><ellipse cx="316.5" cy="240" fill="#ADD1B2" rx="11" ry="11" style="stroke: #A80036; stroke-width: 1.0;"/><path d="M319.4688,245.6406 Q318.8906,245.9375 318.25,246.0781 Q317.6094,246.2344 316.9063,246.2344 Q314.4063,246.2344 313.0781,244.5938 Q311.7656,242.9375 311.7656,239.8125 Q311.7656,236.6875 313.0781,235.0313 Q314.4063,233.375 316.9063,233.375 Q317.6094,233.375 318.25,233.5313 Q318.9063,233.6875 319.4688,233.9844 L319.4688,236.7031 Q318.8438,236.125 318.25,235.8594 Q317.6563,235.5781 317.0313,235.5781 Q315.6875,235.5781 315,236.6563 Q314.3125,237.7188 314.3125,239.8125 Q314.3125,241.9063 315,242.9844 Q315.6875,244.0469 317.0313,244.0469 Q317.6563,244.0469 318.25,243.7813 Q318.8438,243.5 319.4688,242.9219 L319.4688,245.6406 Z "/><text fill="#000000" font-family="sans-serif" font-size="12" lengthAdjust="spacingAndGlyphs" textLength="72" x="330.5" y="244.1543">DrTemplate</text><rect fill="#FFFFFF" height="15.9688" style="stroke: #000000; stroke-width: 1.0; stroke-dasharray: 2.0,2.0;" width="9" x="410.5" y="221"/><text fill="#000000" font-family="sans-serif" font-size="12" font-style="italic" lengthAdjust="spacingAndGlyphs" textLength="7" x="411.5" y="233.1387">T</text><line style="stroke: #A80036; stroke-width: 1.5;" x1="302.5" x2="415.5" y1="256" y2="256"/><line style="stroke: #A80036; stroke-width: 1.5;" x1="302.5" x2="415.5" y1="264" y2="264"/><!--MD5=[af389aaa357f7fd8d419fbcd5c89a1b7]
class C_0001766132705992294525--><rect fill="#FEFECE" filter="url(#f1hxv7qah2ywp8)" height="48" id="C_0001766132705992294525" style="stroke: #A80036; stroke-width: 1.5;" width="99" x="461.5" y="116"/><ellipse cx="476.5" cy="132" fill="#A9DCDF" rx="11" ry="11" style="stroke: #A80036; stroke-width: 1.0;"/><path d="M476.6094,127.3438 L475.4531,132.4219 L477.7813,132.4219 L476.6094,127.3438 Z M475.125,125.1094 L478.1094,125.1094 L481.4688,137.5 L479.0156,137.5 L478.25,134.4375 L474.9688,134.4375 L474.2188,137.5 L471.7813,137.5 L475.125,125.1094 Z "/><text fill="#000000" font-family="sans-serif" font-size="12" font-style="italic" lengthAdjust="spacingAndGlyphs" textLength="67" x="490.5" y="136.1543">PluginBase</text><line style="stroke: #A80036; stroke-width: 1.5;" x1="462.5" x2="559.5" y1="148" y2="148"/><line style="stroke: #A80036; stroke-width: 1.5;" x1="462.5" x2="559.5" y1="156" y2="156"/><!--MD5=[b7bc1ee6f8f7fb96a1411bbc736b5faf]
class C_0000090245984191403772--><rect fill="#FEFECE" filter="url(#f1hxv7qah2ywp8)" height="48" id="C_0000090245984191403772" style="stroke: #A80036; stroke-width: 1.5;" width="81" x="451.5" y="224"/><ellipse cx="466.5" cy="240" fill="#ADD1B2" rx="11" ry="11" style="stroke: #A80036; stroke-width: 1.0;"/><path d="M469.4688,245.6406 Q468.8906,245.9375 468.25,246.0781 Q467.6094,246.2344 466.9063,246.2344 Q464.4063,246.2344 463.0781,244.5938 Q461.7656,242.9375 461.7656,239.8125 Q461.7656,236.6875 463.0781,235.0313 Q464.4063,233.375 466.9063,233.375 Q467.6094,233.375 468.25,233.5313 Q468.9063,233.6875 469.4688,233.9844 L469.4688,236.7031 Q468.8438,236.125 468.25,235.8594 Q467.6563,235.5781 467.0313,235.5781 Q465.6875,235.5781 465,236.6563 Q464.3125,237.7188 464.3125,239.8125 Q464.3125,241.9063 465,242.9844 Q465.6875,244.0469 467.0313,244.0469 Q467.6563,244.0469 468.25,243.7813 Q468.8438,243.5 469.4688,242.9219 L469.4688,245.6406 Z "/><text fill="#000000" font-family="sans-serif" font-size="12" lengthAdjust="spacingAndGlyphs" textLength="38" x="480.5" y="244.1543">Plugin</text><rect fill="#FFFFFF" height="15.9688" style="stroke: #000000; stroke-width: 1.0; stroke-dasharray: 2.0,2.0;" width="9" x="526.5" y="221"/><text fill="#000000" font-family="sans-serif" font-size="12" font-style="italic" lengthAdjust="spacingAndGlyphs" textLength="7" x="527.5" y="233.1387">T</text><line style="stroke: #A80036; stroke-width: 1.5;" x1="452.5" x2="531.5" y1="256" y2="256"/><line style="stroke: #A80036; stroke-width: 1.5;" x1="452.5" x2="531.5" y1="264" y2="264"/><!--MD5=[f72130e82529f7639e9da9568463cbda]
class C_0000128620413217137181--><rect fill="#FEFECE" filter="url(#f1hxv7qah2ywp8)" height="48" id="C_0000128620413217137181" style="stroke: #A80036; stroke-width: 1.5;" width="191" x="845.5" y="116"/><ellipse cx="860.5" cy="132" fill="#A9DCDF" rx="11" ry="11" style="stroke: #A80036; stroke-width: 1.0;"/><path d="M860.6094,127.3438 L859.4531,132.4219 L861.7813,132.4219 L860.6094,127.3438 Z M859.125,125.1094 L862.1094,125.1094 L865.4688,137.5 L863.0156,137.5 L862.25,134.4375 L858.9688,134.4375 L858.2188,137.5 L855.7813,137.5 L859.125,125.1094 Z "/><text fill="#000000" font-family="sans-serif" font-size="12" font-style="italic" lengthAdjust="spacingAndGlyphs" textLength="159" x="874.5" y="136.1543">HttpSimpleControllerBase</text><line style="stroke: #A80036; stroke-width: 1.5;" x1="846.5" x2="1035.5" y1="148" y2="148"/><line style="stroke: #A80036; stroke-width: 1.5;" x1="846.5" x2="1035.5" y1="156" y2="156"/><!--MD5=[84f484c7cb11330a7d20b8d589f331c9]
class C_0001615046545627727628--><rect fill="#FEFECE" filter="url(#f1hxv7qah2ywp8)" height="48" id="C_0001615046545627727628" style="stroke: #A80036; stroke-width: 1.5;" width="194" x="1200" y="116"/><ellipse cx="1215" cy="132" fill="#A9DCDF" rx="11" ry="11" style="stroke: #A80036; stroke-width: 1.0;"/><path d="M1215.1094,127.3438 L1213.9531,132.4219 L1216.2813,132.4219 L1215.1094,127.3438 Z M1213.625,125.1094 L1216.6094,125.1094 L1219.9688,137.5 L1217.5156,137.5 L1216.75,134.4375 L1213.4688,134.4375 L1212.7188,137.5 L1210.2813,137.5 L1213.625,125.1094 Z "/><text fill="#000000" font-family="sans-serif" font-size="12" font-style="italic" lengthAdjust="spacingAndGlyphs" textLength="162" x="1229" y="136.1543">WebSocketControllerBase</text><line style="stroke: #A80036; stroke-width: 1.5;" x1="1201" x2="1393" y1="148" y2="148"/><line style="stroke: #A80036; stroke-width: 1.5;" x1="1201" x2="1393" y1="156" y2="156"/><!--MD5=[749bc2afdfdeb82669f6d0a1a738f672]
class C_0000022864597420834899--><rect fill="#FEFECE" filter="url(#f1hxv7qah2ywp8)" height="48" id="C_0000022864597420834899" style="stroke: #A80036; stroke-width: 1.5;" width="290" x="568" y="224"/><ellipse cx="583" cy="240" fill="#ADD1B2" rx="11" ry="11" style="stroke: #A80036; stroke-width: 1.0;"/><path d="M585.9688,245.6406 Q585.3906,245.9375 584.75,246.0781 Q584.1094,246.2344 583.4063,246.2344 Q580.9063,246.2344 579.5781,244.5938 Q578.2656,242.9375 578.2656,239.8125 Q578.2656,236.6875 579.5781,235.0313 Q580.9063,233.375 583.4063,233.375 Q584.1094,233.375 584.75,233.5313 Q585.4063,233.6875 585.9688,233.9844 L585.9688,236.7031 Q585.3438,236.125 584.75,235.8594 Q584.1563,235.5781 583.5313,235.5781 Q582.1875,235.5781 581.5,236.6563 Q580.8125,237.7188 580.8125,239.8125 Q580.8125,241.9063 581.5,242.9844 Q582.1875,244.0469 583.5313,244.0469 Q584.1563,244.0469 584.75,243.7813 Q585.3438,243.5 585.9688,242.9219 L585.9688,245.6406 Z "/><text fill="#000000" font-family="sans-serif" font-size="12" lengthAdjust="spacingAndGlyphs" textLength="88" x="597" y="244.1543">HttpController</text><rect fill="#FFFFFF" height="15.9688" style="stroke: #000000; stroke-width: 1.0; stroke-dasharray: 2.0,2.0;" width="168" x="693" y="221"/><text fill="#000000" font-family="sans-serif" font-size="12" font-style="italic" lengthAdjust="spacingAndGlyphs" textLength="166" x="694" y="233.1387">T,_Bool AutoCreation=true</text><line style="stroke: #A80036; stroke-width: 1.5;" x1="569" x2="857" y1="256" y2="256"/><line style="stroke: #A80036; stroke-width: 1.5;" x1="569" x2="857" y1="264" y2="264"/><!--MD5=[289ab231adc1a02644bf0cb09edc94b2]
class C_0000230834042887687668--><rect fill="#FEFECE" filter="url(#f1hxv7qah2ywp8)" height="48" id="C_0000230834042887687668" style="stroke: #A80036; stroke-width: 1.5;" width="331" x="893.5" y="224"/><ellipse cx="908.5" cy="240" fill="#ADD1B2" rx="11" ry="11" style="stroke: #A80036; stroke-width: 1.0;"/><path d="M911.4688,245.6406 Q910.8906,245.9375 910.25,246.0781 Q909.6094,246.2344 908.9063,246.2344 Q906.4063,246.2344 905.0781,244.5938 Q903.7656,242.9375 903.7656,239.8125 Q903.7656,236.6875 905.0781,235.0313 Q906.4063,233.375 908.9063,233.375 Q909.6094,233.375 910.25,233.5313 Q910.9063,233.6875 911.4688,233.9844 L911.4688,236.7031 Q910.8438,236.125 910.25,235.8594 Q909.6563,235.5781 909.0313,235.5781 Q907.6875,235.5781 907,236.6563 Q906.3125,237.7188 906.3125,239.8125 Q906.3125,241.9063 907,242.9844 Q907.6875,244.0469 909.0313,244.0469 Q909.6563,244.0469 910.25,243.7813 Q910.8438,243.5 911.4688,242.9219 L911.4688,245.6406 Z "/><text fill="#000000" font-family="sans-serif" font-size="12" lengthAdjust="spacingAndGlyphs" textLength="129" x="922.5" y="244.1543">HttpSimpleController</text><rect fill="#FFFFFF" height="15.9688" style="stroke: #000000; stroke-width: 1.0; stroke-dasharray: 2.0,2.0;" width="168" x="1059.5" y="221"/><text fill="#000000" font-family="sans-serif" font-size="12" font-style="italic" lengthAdjust="spacingAndGlyphs" textLength="166" x="1060.5" y="233.1387">T,_Bool AutoCreation=true</text><line style="stroke: #A80036; stroke-width: 1.5;" x1="894.5" x2="1223.5" y1="256" y2="256"/><line style="stroke: #A80036; stroke-width: 1.5;" x1="894.5" x2="1223.5" y1="264" y2="264"/><!--MD5=[2148bbfa2d589c812ddc78fd9ac2771f]
class C_0001306947998463000992--><rect fill="#FEFECE" filter="url(#f1hxv7qah2ywp8)" height="48" id="C_0001306947998463000992" style="stroke: #A80036; stroke-width: 1.5;" width="333" x="1259.5" y="224"/><ellipse cx="1274.5" cy="240" fill="#ADD1B2" rx="11" ry="11" style="stroke: #A80036; stroke-width: 1.0;"/><path d="M1277.4688,245.6406 Q1276.8906,245.9375 1276.25,246.0781 Q1275.6094,246.2344 1274.9063,246.2344 Q1272.4063,246.2344 1271.0781,244.5938 Q1269.7656,242.9375 1269.7656,239.8125 Q1269.7656,236.6875 1271.0781,235.0313 Q1272.4063,233.375 1274.9063,233.375 Q1275.6094,233.375 1276.25,233.5313 Q1276.9063,233.6875 1277.4688,233.9844 L1277.4688,236.7031 Q1276.8438,236.125 1276.25,235.8594 Q1275.6563,235.5781 1275.0313,235.5781 Q1273.6875,235.5781 1273,236.6563 Q1272.3125,237.7188 1272.3125,239.8125 Q1272.3125,241.9063 1273,242.9844 Q1273.6875,244.0469 1275.0313,244.0469 Q1275.6563,244.0469 1276.25,243.7813 Q1276.8438,243.5 1277.4688,242.9219 L1277.4688,245.6406 Z "/><text fill="#000000" font-family="sans-serif" font-size="12" lengthAdjust="spacingAndGlyphs" textLength="131" x="1288.5" y="244.1543">WebSocketController</text><rect fill="#FFFFFF" height="15.9688" style="stroke: #000000; stroke-width: 1.0; stroke-dasharray: 2.0,2.0;" width="168" x="1427.5" y="221"/><text fill="#000000" font-family="sans-serif" font-size="12" font-style="italic" lengthAdjust="spacingAndGlyphs" textLength="166" x="1428.5" y="233.1387">T,_Bool AutoCreation=true</text><line style="stroke: #A80036; stroke-width: 1.5;" x1="1260.5" x2="1591.5" y1="256" y2="256"/><line style="stroke: #A80036; stroke-width: 1.5;" x1="1260.5" x2="1591.5" y1="264" y2="264"/><!--MD5=[8b87dbb05889aaa4030f7836e15230c6]
reverse link C_0000948678946378292650 to C_0000928351319055387329--><path d="M602.37,73.13 C611.45,87.5 621.38,103.21 629.26,115.68 " fill="none" id="C_0000948678946378292650&lt;-C_0000928351319055387329" style="stroke: #A80036; stroke-width: 1.0;"/><polygon fill="none" points="596.31,76.65,591.54,56,608.14,69.17,596.31,76.65" style="stroke: #A80036; stroke-width: 1.0;"/><!--MD5=[af1953e88b81244f644938e052f6a539]
reverse link C_0000948678946378292650 to C_0001287349830889935744--><path d="M498.86,53.2 C419.81,73.64 299.28,104.8 227.3,123.41 " fill="none" id="C_0000948678946378292650&lt;-C_0001287349830889935744" style="stroke: #A80036; stroke-width: 1.0;"/><polygon fill="none" points="497.14,46.42,518.26,48.19,500.65,59.97,497.14,46.42" style="stroke: #A80036; stroke-width: 1.0;"/><!--MD5=[a80100698287dfeaa7d0a65956649d5d]
reverse link C_0000928351319055387329 to C_0001423317784030907931--><path d="M575.71,163.99 C497.08,183.58 365.84,207.39 266.11,224.79 " fill="none" id="C_0000928351319055387329&lt;-C_0001423317784030907931" style="stroke: #A80036; stroke-width: 1.0;"/><polygon fill="none" points="574.12,157.17,595.24,158.91,577.64,170.72,574.12,157.17" style="stroke: #A80036; stroke-width: 1.0;"/><!--MD5=[a5c3bc05f3c43458d5ea3249c86aa6d1]
reverse link C_0001287349830889935744 to C_0001423317784030907931--><path d="M154.56,183.54 C150.55,197.23 146.27,211.9 142.82,223.68 " fill="none" id="C_0001287349830889935744&lt;-C_0001423317784030907931" style="stroke: #A80036; stroke-width: 1.0;"/><polygon fill="none" points="147.94,181.23,160.27,164,161.38,185.16,147.94,181.23" style="stroke: #A80036; stroke-width: 1.0;"/><!--MD5=[e255ccbd859a31138760694afb291f39]
reverse link C_0000948678946378292650 to C_0000286555068366301766--><path d="M511.25,64.97 C477.54,81.36 437.25,100.95 406.59,115.86 " fill="none" id="C_0000948678946378292650&lt;-C_0000286555068366301766" style="stroke: #A80036; stroke-width: 1.0;"/><polygon fill="none" points="508.65,58.45,529.7,56,514.77,71.04,508.65,58.45" style="stroke: #A80036; stroke-width: 1.0;"/><!--MD5=[3d1d77076dc84274b00e631f6cf6abf6]
reverse link C_0000928351319055387329 to C_0000730908334399288167--><path d="M576.56,166.08 C527.87,184.19 462.81,208.39 416.56,225.59 " fill="none" id="C_0000928351319055387329&lt;-C_0000730908334399288167" style="stroke: #A80036; stroke-width: 1.0;"/><polygon fill="none" points="574.14,159.51,595.33,159.1,579.03,172.63,574.14,159.51" style="stroke: #A80036; stroke-width: 1.0;"/><!--MD5=[d304be30e2eef8812d130d007e843740]
reverse link C_0000286555068366301766 to C_0000730908334399288167--><path d="M359,184.02 C359,197.58 359,212.04 359,223.68 " fill="none" id="C_0000286555068366301766&lt;-C_0000730908334399288167" style="stroke: #A80036; stroke-width: 1.0;"/><polygon fill="none" points="352,184,359,164,366,184,352,184" style="stroke: #A80036; stroke-width: 1.0;"/><!--MD5=[dadf83d07adcf840ce6a29c8409e4070]
reverse link C_0000948678946378292650 to C_0001766132705992294525--><path d="M552.01,73.13 C543.07,87.5 533.29,103.21 525.52,115.68 " fill="none" id="C_0000948678946378292650&lt;-C_0001766132705992294525" style="stroke: #A80036; stroke-width: 1.0;"/><polygon fill="none" points="546.17,69.28,562.68,56,558.05,76.68,546.17,69.28" style="stroke: #A80036; stroke-width: 1.0;"/><!--MD5=[4c7405d525f24e63a2fac75cb3c1b026]
reverse link C_0001766132705992294525 to C_0000090245984191403772--><path d="M503.29,184.02 C500.86,197.58 498.27,212.04 496.18,223.68 " fill="none" id="C_0001766132705992294525&lt;-C_0000090245984191403772" style="stroke: #A80036; stroke-width: 1.0;"/><polygon fill="none" points="496.46,182.45,506.88,164,510.24,184.92,496.46,182.45" style="stroke: #A80036; stroke-width: 1.0;"/><!--MD5=[a465e6d1a8ec232be538372436990450]
reverse link C_0000928351319055387329 to C_0000090245984191403772--><path d="M594.51,175.51 C571.79,191.35 545.47,209.71 525.18,223.86 " fill="none" id="C_0000928351319055387329&lt;-C_0000090245984191403772" style="stroke: #A80036; stroke-width: 1.0;"/><polygon fill="none" points="590.61,169.7,611.02,164,598.62,181.18,590.61,169.7" style="stroke: #A80036; stroke-width: 1.0;"/><!--MD5=[36fc32e6ce5ca1d346794beaaf91f2d6]
reverse link C_0000948678946378292650 to C_0000128620413217137181--><path d="M655.21,55.78 C716.2,73.54 800.56,98.1 861.8,115.94 " fill="none" id="C_0000948678946378292650&lt;-C_0000128620413217137181" style="stroke: #A80036; stroke-width: 1.0;"/><polygon fill="none" points="653.13,62.46,635.89,50.15,657.05,49.02,653.13,62.46" style="stroke: #A80036; stroke-width: 1.0;"/><!--MD5=[f882c48129beea06b07e98465588f15e]
reverse link C_0000948678946378292650 to C_0001615046545627727628--><path d="M655.7,44.59 C788.34,64.11 1055.97,103.51 1200,124.72 " fill="none" id="C_0000948678946378292650&lt;-C_0001615046545627727628" style="stroke: #A80036; stroke-width: 1.0;"/><polygon fill="none" points="654.38,51.47,635.62,41.63,656.42,37.62,654.38,51.47" style="stroke: #A80036; stroke-width: 1.0;"/><!--MD5=[87b9edd673a73915ad55a9ae67d11406]
reverse link C_0000928351319055387329 to C_0000022864597420834899--><path d="M670.12,181.13 C679.48,195.5 689.7,211.21 697.82,223.68 " fill="none" id="C_0000928351319055387329&lt;-C_0000022864597420834899" style="stroke: #A80036; stroke-width: 1.0;"/><polygon fill="none" points="664.02,184.58,658.97,164,675.75,176.94,664.02,184.58" style="stroke: #A80036; stroke-width: 1.0;"/><!--MD5=[6a03239c5139754cb114790bf1d5b37a]
reverse link C_0000928351319055387329 to C_0000230834042887687668--><path d="M712.36,158.46 C782.43,176.36 891.76,204.28 968.87,223.98 " fill="none" id="C_0000928351319055387329&lt;-C_0000230834042887687668" style="stroke: #A80036; stroke-width: 1.0;"/><polygon fill="none" points="710.47,165.2,692.83,153.47,713.94,151.64,710.47,165.2" style="stroke: #A80036; stroke-width: 1.0;"/><!--MD5=[b4352ad481d11aebd4ce6b7144cf67c7]
reverse link C_0000128620413217137181 to C_0000230834042887687668--><path d="M981.71,177.57 C998.73,192.86 1018,210.17 1033.04,223.68 " fill="none" id="C_0000128620413217137181&lt;-C_0000230834042887687668" style="stroke: #A80036; stroke-width: 1.0;"/><polygon fill="none" points="976.8,182.57,966.6,164,986.16,172.16,976.8,182.57" style="stroke: #A80036; stroke-width: 1.0;"/><!--MD5=[6a8282b80a535f07d8570a728bb9dda4]
reverse link C_0000928351319055387329 to C_0001306947998463000992--><path d="M712.62,150.3 C833.9,166.74 1089.32,201.36 1259.29,224.4 " fill="none" id="C_0000928351319055387329&lt;-C_0001306947998463000992" style="stroke: #A80036; stroke-width: 1.0;"/><polygon fill="none" points="711.5,157.21,692.62,147.59,713.38,143.34,711.5,157.21" style="stroke: #A80036; stroke-width: 1.0;"/><!--MD5=[61b1aeb17bccd7fcd72bde1ec44cd72d]
reverse link C_0001615046545627727628 to C_0001306947998463000992--><path d="M1340.65,176.87 C1359.46,192.33 1380.92,209.96 1397.62,223.68 " fill="none" id="C_0001615046545627727628&lt;-C_0001306947998463000992" style="stroke: #A80036; stroke-width: 1.0;"/><polygon fill="none" points="1336,182.11,1324.99,164,1344.89,171.29,1336,182.11" style="stroke: #A80036; stroke-width: 1.0;"/><!--MD5=[de0bebdfbab8a6830c9537e2f141b751]
@startuml
class "DrObjectBase" as C_0000948678946378292650
class C_0000948678946378292650 {
}
class "DrObject<T>" as C_0000928351319055387329
class C_0000928351319055387329 {
}
abstract "HttpFilterBase" as C_0001287349830889935744
abstract C_0001287349830889935744 {
}
class "HttpFilter<T,_Bool AutoCreation=true>" as C_0001423317784030907931
class C_0001423317784030907931 {
}
abstract "DrTemplateBase" as C_0000286555068366301766
abstract C_0000286555068366301766 {
}
class "DrTemplate<T>" as C_0000730908334399288167
class C_0000730908334399288167 {
}
abstract "PluginBase" as C_0001766132705992294525
abstract C_0001766132705992294525 {
}
class "Plugin<T>" as C_0000090245984191403772
class C_0000090245984191403772 {
}
abstract "HttpSimpleControllerBase" as C_0000128620413217137181
abstract C_0000128620413217137181 {
}
abstract "WebSocketControllerBase" as C_0001615046545627727628
abstract C_0001615046545627727628 {
}
class "HttpController<T,_Bool AutoCreation=true>" as C_0000022864597420834899
class C_0000022864597420834899 {
}
class "HttpSimpleController<T,_Bool AutoCreation=true>" as C_0000230834042887687668
class C_0000230834042887687668 {
}
class "WebSocketController<T,_Bool AutoCreation=true>" as C_0001306947998463000992
class C_0001306947998463000992 {
}
C_0000948678946378292650 <|- - C_0000928351319055387329
C_0000948678946378292650 <|- - C_0001287349830889935744
C_0000928351319055387329 <|- - C_0001423317784030907931
C_0001287349830889935744 <|- - C_0001423317784030907931
C_0000948678946378292650 <|- - C_0000286555068366301766
C_0000928351319055387329 <|- - C_0000730908334399288167
C_0000286555068366301766 <|- - C_0000730908334399288167
C_0000948678946378292650 <|- - C_0001766132705992294525
C_0001766132705992294525 <|- - C_0000090245984191403772
C_0000928351319055387329 <|- - C_0000090245984191403772
C_0000948678946378292650 <|- - C_0000128620413217137181
C_0000948678946378292650 <|- - C_0001615046545627727628
C_0000928351319055387329 <|- - C_0000022864597420834899
C_0000928351319055387329 <|- - C_0000230834042887687668
C_0000128620413217137181 <|- - C_0000230834042887687668
C_0000928351319055387329 <|- - C_0001306947998463000992
C_0001615046545627727628 <|- - C_0001306947998463000992

@enduml

PlantUML version 1.2020.02(Sun Mar 01 11:22:07 CET 2020)
(GPL source distribution)
Java Runtime: OpenJDK Runtime Environment
JVM: OpenJDK 64-Bit Server VM
Java Version: 11.0.18+10-post-Ubuntu-0ubuntu122.04
Operating System: Linux
Default Encoding: UTF-8
Language: en
Country: US
--></g></svg>