<svg xmlns="http://www.w3.org/2000/svg" xmlns:xlink="http://www.w3.org/1999/xlink" contentStyleType="text/css" data-diagram-type="CLASS" height="487px" preserveAspectRatio="none" style="width:814px;height:487px;background:#FFFFFF;" version="1.1" viewBox="0 0 814 487" width="814px" zoomAndPan="magnify"><title>Godot Node2D class context</title><defs/><g><text fill="#000000" font-family="sans-serif" font-size="14" font-weight="bold" lengthAdjust="spacing" textLength="223.2822" x="288.6616" y="22.9951">Godot Node2D class context</text><!--class C_0000426476222404906215--><a href="https://github.com/godotengine/godot/blob/de2f0f147c5b7eff2d0f6dbc35042a4173fd59be/core/math/vector2.h#L39" target="_top" title="Vector2" xlink:actuate="onRequest" xlink:href="https://github.com/godotengine/godot/blob/de2f0f147c5b7eff2d0f6dbc35042a4173fd59be/core/math/vector2.h#L39" xlink:show="new" xlink:title="Vector2" xlink:type="simple"><g id="elem_C_0000426476222404906215"><rect codeLine="4" fill="#F1F1F1" height="48" id="C_0000426476222404906215" rx="2.5" ry="2.5" style="stroke:#181818;stroke-width:0.5;" width="86.6055" x="721" y="120.2969"/><ellipse cx="736" cy="136.2969" fill="#ADD1B2" rx="11" ry="11" style="stroke:#181818;stroke-width:1;"/><path d="M738.9688,141.9375 Q738.3906,142.2344 737.75,142.375 Q737.1094,142.5313 736.4063,142.5313 Q733.9063,142.5313 732.5781,140.8906 Q731.2656,139.2344 731.2656,136.1094 Q731.2656,132.9844 732.5781,131.3281 Q733.9063,129.6719 736.4063,129.6719 Q737.1094,129.6719 737.75,129.8281 Q738.4063,129.9844 738.9688,130.2813 L738.9688,133 Q738.3438,132.4219 737.75,132.1563 Q737.1563,131.875 736.5313,131.875 Q735.1875,131.875 734.5,132.9531 Q733.8125,134.0156 733.8125,136.1094 Q733.8125,138.2031 734.5,139.2813 Q735.1875,140.3438 736.5313,140.3438 Q737.1563,140.3438 737.75,140.0781 Q738.3438,139.7969 738.9688,139.2188 L738.9688,141.9375 Z " fill="#000000"/><text fill="#000000" font-family="sans-serif" font-size="14" lengthAdjust="spacing" textLength="54.6055" x="750" y="141.1436">Vector2</text><line style="stroke:#181818;stroke-width:0.5;" x1="722" x2="806.6055" y1="152.2969" y2="152.2969"/><line style="stroke:#181818;stroke-width:0.5;" x1="722" x2="806.6055" y1="160.2969" y2="160.2969"/></g></a><!--class C_0010369105973531238437--><a href="https://github.com/godotengine/godot/blob/de2f0f147c5b7eff2d0f6dbc35042a4173fd59be/core/math/transform_2d.h#L37" target="_top" title="Transform2D" xlink:actuate="onRequest" xlink:href="https://github.com/godotengine/godot/blob/de2f0f147c5b7eff2d0f6dbc35042a4173fd59be/core/math/transform_2d.h#L37" xlink:show="new" xlink:title="Transform2D" xlink:type="simple"><g id="elem_C_0010369105973531238437"><rect codeLine="8" fill="#F1F1F1" height="48" id="C_0010369105973531238437" rx="2.5" ry="2.5" style="stroke:#181818;stroke-width:0.5;" width="123.6289" x="463" y="44.2969"/><ellipse cx="478" cy="60.2969" fill="#ADD1B2" rx="11" ry="11" style="stroke:#181818;stroke-width:1;"/><path d="M480.9688,65.9375 Q480.3906,66.2344 479.75,66.375 Q479.1094,66.5313 478.4063,66.5313 Q475.9063,66.5313 474.5781,64.8906 Q473.2656,63.2344 473.2656,60.1094 Q473.2656,56.9844 474.5781,55.3281 Q475.9063,53.6719 478.4063,53.6719 Q479.1094,53.6719 479.75,53.8281 Q480.4063,53.9844 480.9688,54.2813 L480.9688,57 Q480.3438,56.4219 479.75,56.1563 Q479.1563,55.875 478.5313,55.875 Q477.1875,55.875 476.5,56.9531 Q475.8125,58.0156 475.8125,60.1094 Q475.8125,62.2031 476.5,63.2813 Q477.1875,64.3438 478.5313,64.3438 Q479.1563,64.3438 479.75,64.0781 Q480.3438,63.7969 480.9688,63.2188 L480.9688,65.9375 Z " fill="#000000"/><text fill="#000000" font-family="sans-serif" font-size="14" lengthAdjust="spacing" textLength="91.6289" x="492" y="65.1436">Transform2D</text><line style="stroke:#181818;stroke-width:0.5;" x1="464" x2="585.6289" y1="76.2969" y2="76.2969"/><line style="stroke:#181818;stroke-width:0.5;" x1="464" x2="585.6289" y1="84.2969" y2="84.2969"/></g></a><!--class C_0014865595237146273550--><a href="https://github.com/godotengine/godot/blob/de2f0f147c5b7eff2d0f6dbc35042a4173fd59be/core/string_name.h#L45" target="_top" title="StringName" xlink:actuate="onRequest" xlink:href="https://github.com/godotengine/godot/blob/de2f0f147c5b7eff2d0f6dbc35042a4173fd59be/core/string_name.h#L45" xlink:show="new" xlink:title="StringName" xlink:type="simple"><g id="elem_C_0014865595237146273550"><rect codeLine="12" fill="#F1F1F1" height="48" id="C_0014865595237146273550" rx="2.5" ry="2.5" style="stroke:#181818;stroke-width:0.5;" width="115.084" x="467.5" y="317.2969"/><ellipse cx="482.5" cy="333.2969" fill="#ADD1B2" rx="11" ry="11" style="stroke:#181818;stroke-width:1;"/><path d="M485.4688,338.9375 Q484.8906,339.2344 484.25,339.375 Q483.6094,339.5313 482.9063,339.5313 Q480.4063,339.5313 479.0781,337.8906 Q477.7656,336.2344 477.7656,333.1094 Q477.7656,329.9844 479.0781,328.3281 Q480.4063,326.6719 482.9063,326.6719 Q483.6094,326.6719 484.25,326.8281 Q484.9063,326.9844 485.4688,327.2813 L485.4688,330 Q484.8438,329.4219 484.25,329.1563 Q483.6563,328.875 483.0313,328.875 Q481.6875,328.875 481,329.9531 Q480.3125,331.0156 480.3125,333.1094 Q480.3125,335.2031 481,336.2813 Q481.6875,337.3438 483.0313,337.3438 Q483.6563,337.3438 484.25,337.0781 Q484.8438,336.7969 485.4688,336.2188 L485.4688,338.9375 Z " fill="#000000"/><text fill="#000000" font-family="sans-serif" font-size="14" lengthAdjust="spacing" textLength="83.084" x="496.5" y="338.1436">StringName</text><line style="stroke:#181818;stroke-width:0.5;" x1="468.5" x2="581.584" y1="349.2969" y2="349.2969"/><line style="stroke:#181818;stroke-width:0.5;" x1="468.5" x2="581.584" y1="357.2969" y2="357.2969"/></g></a><!--class C_0000836515410371175686--><a href="https://github.com/godotengine/godot/blob/de2f0f147c5b7eff2d0f6dbc35042a4173fd59be/core/class_db.h#L90" target="_top" title="ClassDB" xlink:actuate="onRequest" xlink:href="https://github.com/godotengine/godot/blob/de2f0f147c5b7eff2d0f6dbc35042a4173fd59be/core/class_db.h#L90" xlink:show="new" xlink:title="ClassDB" xlink:type="simple"><g id="elem_C_0000836515410371175686"><rect codeLine="16" fill="#F1F1F1" height="48" id="C_0000836515410371175686" rx="2.5" ry="2.5" style="stroke:#181818;stroke-width:0.5;" width="89.2168" x="480.5" y="432.2969"/><ellipse cx="495.5" cy="448.2969" fill="#ADD1B2" rx="11" ry="11" style="stroke:#181818;stroke-width:1;"/><path d="M498.4688,453.9375 Q497.8906,454.2344 497.25,454.375 Q496.6094,454.5313 495.9063,454.5313 Q493.4063,454.5313 492.0781,452.8906 Q490.7656,451.2344 490.7656,448.1094 Q490.7656,444.9844 492.0781,443.3281 Q493.4063,441.6719 495.9063,441.6719 Q496.6094,441.6719 497.25,441.8281 Q497.9063,441.9844 498.4688,442.2813 L498.4688,445 Q497.8438,444.4219 497.25,444.1563 Q496.6563,443.875 496.0313,443.875 Q494.6875,443.875 494,444.9531 Q493.3125,446.0156 493.3125,448.1094 Q493.3125,450.2031 494,451.2813 Q494.6875,452.3438 496.0313,452.3438 Q496.6563,452.3438 497.25,452.0781 Q497.8438,451.7969 498.4688,451.2188 L498.4688,453.9375 Z " fill="#000000"/><text fill="#000000" font-family="sans-serif" font-size="14" lengthAdjust="spacing" textLength="57.2168" x="509.5" y="453.1436">ClassDB</text><line style="stroke:#181818;stroke-width:0.5;" x1="481.5" x2="568.7168" y1="464.2969" y2="464.2969"/><line style="stroke:#181818;stroke-width:0.5;" x1="481.5" x2="568.7168" y1="472.2969" y2="472.2969"/></g></a><!--class C_0016595068827916527164--><a href="https://github.com/godotengine/godot/blob/de2f0f147c5b7eff2d0f6dbc35042a4173fd59be/scene/2d/canvas_item.h#L162" target="_top" title="CanvasItem" xlink:actuate="onRequest" xlink:href="https://github.com/godotengine/godot/blob/de2f0f147c5b7eff2d0f6dbc35042a4173fd59be/scene/2d/canvas_item.h#L162" xlink:show="new" xlink:title="CanvasItem" xlink:type="simple"><g id="elem_C_0016595068827916527164"><rect codeLine="20" fill="#F1F1F1" height="48" id="C_0016595068827916527164" rx="2.5" ry="2.5" style="stroke:#181818;stroke-width:0.5;" width="115.2549" x="7" y="313.2969"/><ellipse cx="22" cy="329.2969" fill="#ADD1B2" rx="11" ry="11" style="stroke:#181818;stroke-width:1;"/><path d="M24.9688,334.9375 Q24.3906,335.2344 23.75,335.375 Q23.1094,335.5313 22.4063,335.5313 Q19.9063,335.5313 18.5781,333.8906 Q17.2656,332.2344 17.2656,329.1094 Q17.2656,325.9844 18.5781,324.3281 Q19.9063,322.6719 22.4063,322.6719 Q23.1094,322.6719 23.75,322.8281 Q24.4063,322.9844 24.9688,323.2813 L24.9688,326 Q24.3438,325.4219 23.75,325.1563 Q23.1563,324.875 22.5313,324.875 Q21.1875,324.875 20.5,325.9531 Q19.8125,327.0156 19.8125,329.1094 Q19.8125,331.2031 20.5,332.2813 Q21.1875,333.3438 22.5313,333.3438 Q23.1563,333.3438 23.75,333.0781 Q24.3438,332.7969 24.9688,332.2188 L24.9688,334.9375 Z " fill="#000000"/><text fill="#000000" font-family="sans-serif" font-size="14" lengthAdjust="spacing" textLength="83.2549" x="36" y="334.1436">CanvasItem</text><line style="stroke:#181818;stroke-width:0.5;" x1="8" x2="121.2549" y1="345.2969" y2="345.2969"/><line style="stroke:#181818;stroke-width:0.5;" x1="8" x2="121.2549" y1="353.2969" y2="353.2969"/></g></a><!--class C_0018314906832388846072--><a href="https://github.com/godotengine/godot/blob/de2f0f147c5b7eff2d0f6dbc35042a4173fd59be/scene/2d/node_2d.h#L36" target="_top" title="Node2D" xlink:actuate="onRequest" xlink:href="https://github.com/godotengine/godot/blob/de2f0f147c5b7eff2d0f6dbc35042a4173fd59be/scene/2d/node_2d.h#L36" xlink:show="new" xlink:title="Node2D" xlink:type="simple"><g id="elem_C_0018314906832388846072"><rect codeLine="24" fill="#F1F1F1" height="48" id="C_0018314906832388846072" rx="2.5" ry="2.5" style="stroke:#181818;stroke-width:0.5;" width="88.2256" x="201" y="227.2969"/><ellipse cx="216" cy="243.2969" fill="#ADD1B2" rx="11" ry="11" style="stroke:#181818;stroke-width:1;"/><path d="M218.9688,248.9375 Q218.3906,249.2344 217.75,249.375 Q217.1094,249.5313 216.4063,249.5313 Q213.9063,249.5313 212.5781,247.8906 Q211.2656,246.2344 211.2656,243.1094 Q211.2656,239.9844 212.5781,238.3281 Q213.9063,236.6719 216.4063,236.6719 Q217.1094,236.6719 217.75,236.8281 Q218.4063,236.9844 218.9688,237.2813 L218.9688,240 Q218.3438,239.4219 217.75,239.1563 Q217.1563,238.875 216.5313,238.875 Q215.1875,238.875 214.5,239.9531 Q213.8125,241.0156 213.8125,243.1094 Q213.8125,245.2031 214.5,246.2813 Q215.1875,247.3438 216.5313,247.3438 Q217.1563,247.3438 217.75,247.0781 Q218.3438,246.7969 218.9688,246.2188 L218.9688,248.9375 Z " fill="#000000"/><text fill="#000000" font-family="sans-serif" font-size="14" lengthAdjust="spacing" textLength="56.2256" x="230" y="248.1436">Node2D</text><line style="stroke:#181818;stroke-width:0.5;" x1="202" x2="288.2256" y1="259.2969" y2="259.2969"/><line style="stroke:#181818;stroke-width:0.5;" x1="202" x2="288.2256" y1="267.2969" y2="267.2969"/></g></a><!--reverse link C_0010369105973531238437 to C_0000426476222404906215--><a href="https://github.com/godotengine/godot/blob/de2f0f147c5b7eff2d0f6dbc35042a4173fd59be/core/math/transform_2d.h#L49" target="_top" title="elements" xlink:actuate="onRequest" xlink:href="https://github.com/godotengine/godot/blob/de2f0f147c5b7eff2d0f6dbc35042a4173fd59be/core/math/transform_2d.h#L49" xlink:show="new" xlink:title="elements" xlink:type="simple"><path codeLine="27" d="M598.8548,89.4984 C630.0148,98.7384 656.9,107.0269 691,118.2969 C700.65,121.4869 710.96,125.0769 720.69,128.5469 " fill="transparent" id="C_0010369105973531238437-backto-C_0000426476222404906215" style="stroke:#181818;stroke-width:1;"/><polygon fill="transparent" points="587.35,86.0869,591.9652,91.6276,598.8548,89.4984,594.2396,83.9577,587.35,86.0869" style="stroke:#181818;stroke-width:1;"/><ellipse cx="623" cy="88.3633" fill="transparent" rx="3" ry="3" style="stroke:#038048;stroke-width:1;"/><text fill="#000000" font-family="sans-serif" font-size="13" lengthAdjust="spacing" textLength="60.3789" x="630" y="92.3638">elements</text><text fill="#000000" font-family="sans-serif" font-size="13" lengthAdjust="spacing" textLength="8.271" x="704.8266" y="139.2584">3</text></a><!--reverse link C_0016595068827916527164 to C_0014865595237146273550--><a href="https://github.com/godotengine/godot/blob/de2f0f147c5b7eff2d0f6dbc35042a4173fd59be/core/object.h#L268" target="_top" title="_class_name" xlink:actuate="onRequest" xlink:href="https://github.com/godotengine/godot/blob/de2f0f147c5b7eff2d0f6dbc35042a4173fd59be/core/object.h#L268" xlink:show="new" xlink:title="_class_name" xlink:type="simple"><path codeLine="28" d="M133.8435,350.3873 C206.1535,362.9273 323.33,377.9369 433,364.2969 C444.16,362.9069 455.91,360.5969 467.13,357.9669 " fill="transparent" id="C_0016595068827916527164-backto-C_0014865595237146273550" style="stroke:#181818;stroke-width:1;"/><polygon fill="transparent" points="122.02,348.3369,127.2483,353.3033,133.8435,350.3873,128.6152,345.4209,122.02,348.3369" style="stroke:#181818;stroke-width:1;"/><rect fill="transparent" height="6" style="stroke:#C82930;stroke-width:1;" width="6" x="200" y="346.3633"/><text fill="#000000" font-family="sans-serif" font-size="13" lengthAdjust="spacing" textLength="82.1387" x="210" y="353.3638">_class_name</text></a><!--reverse link C_0016595068827916527164 to C_0010369105973531238437--><a href="https://github.com/godotengine/godot/blob/de2f0f147c5b7eff2d0f6dbc35042a4173fd59be/scene/2d/canvas_item.h#L209" target="_top" title="global_transform" xlink:actuate="onRequest" xlink:href="https://github.com/godotengine/godot/blob/de2f0f147c5b7eff2d0f6dbc35042a4173fd59be/scene/2d/canvas_item.h#L209" xlink:show="new" xlink:title="global_transform" xlink:type="simple"><path codeLine="29" d="M86.3137,302.7307 C121.5937,246.0807 212.07,116.8469 337,68.2969 C376.94,52.7769 425.41,53.2569 463,57.3669 " fill="transparent" id="C_0016595068827916527164-backto-C_0010369105973531238437" style="stroke:#181818;stroke-width:1;"/><polygon fill="transparent" points="79.97,312.9169,86.5372,309.9383,86.3137,302.7307,79.7464,305.7092,79.97,312.9169" style="stroke:#181818;stroke-width:1;"/><rect fill="transparent" height="6" style="stroke:#C82930;stroke-width:1;" width="6" x="186" y="72.3633"/><text fill="#000000" font-family="sans-serif" font-size="13" lengthAdjust="spacing" textLength="110.1064" x="196" y="79.3638">global_transform</text></a><!--reverse link C_0016595068827916527164 to C_0000836515410371175686--><g id="link_C_0016595068827916527164_C_0000836515410371175686"><path codeLine="30" d="M114.3477,364.1371 C136.0277,375.2671 157.64,385.0669 183,393.2969 C286.79,426.9669 414.55,444.5469 480.31,451.9369 " fill="transparent" id="C_0016595068827916527164-backto-C_0000836515410371175686" style="stroke:#181818;stroke-width:1;stroke-dasharray:7.0,7.0;"/><polygon fill="#181818" points="109.01,361.3969,115.1897,369.0657,113.4581,363.6804,118.8434,361.9488,109.01,361.3969" style="stroke:#181818;stroke-width:1;"/><ellipse cx="217.5" cy="385.3633" fill="transparent" rx="3" ry="3" style="stroke:#038048;stroke-width:1;"/><text fill="#000000" font-family="sans-serif" font-size="13" lengthAdjust="spacing" textLength="53.9297" x="224.5" y="389.3638">&#171;friend&#187;</text></g><!--reverse link C_0018314906832388846072 to C_0014865595237146273550--><a href="https://github.com/godotengine/godot/blob/de2f0f147c5b7eff2d0f6dbc35042a4173fd59be/core/object.h#L268" target="_top" title="_class_name" xlink:actuate="onRequest" xlink:href="https://github.com/godotengine/godot/blob/de2f0f147c5b7eff2d0f6dbc35042a4173fd59be/core/object.h#L268" xlink:show="new" xlink:title="_class_name" xlink:type="simple"><path codeLine="31" d="M300.63,268.1662 C338.59,279.9562 383.83,294.1669 433,310.2969 C444.1,313.9369 455.94,317.9069 467.27,321.7469 " fill="transparent" id="C_0018314906832388846072-backto-C_0014865595237146273550" style="stroke:#181818;stroke-width:1;"/><polygon fill="transparent" points="289.17,264.6069,293.7135,270.2065,300.63,268.1662,296.0864,262.5666,289.17,264.6069" style="stroke:#181818;stroke-width:1;"/><rect fill="transparent" height="6" style="stroke:#C82930;stroke-width:1;" width="6" x="340" y="269.3633"/><text fill="#000000" font-family="sans-serif" font-size="13" lengthAdjust="spacing" textLength="82.1387" x="350" y="276.3638">_class_name</text></a><!--reverse link C_0018314906832388846072 to C_0000426476222404906215--><a href="https://github.com/godotengine/godot/blob/de2f0f147c5b7eff2d0f6dbc35042a4173fd59be/scene/2d/node_2d.h#L39" target="_top" title="pos" xlink:actuate="onRequest" xlink:href="https://github.com/godotengine/godot/blob/de2f0f147c5b7eff2d0f6dbc35042a4173fd59be/scene/2d/node_2d.h#L39" xlink:show="new" xlink:title="pos" xlink:type="simple"><path codeLine="32" d="M297.0702,221.6524 C312.4302,213.5024 319.78,210.7169 337,205.2969 C472.91,162.4969 642.72,149.6169 720.72,145.8269 " fill="transparent" id="C_0018314906832388846072-backto-C_0000426476222404906215" style="stroke:#181818;stroke-width:1;"/><polygon fill="transparent" points="286.47,227.2769,293.6449,227.9981,297.0702,221.6524,289.8953,220.9312,286.47,227.2769" style="stroke:#181818;stroke-width:1;"/><rect fill="transparent" height="6" style="stroke:#C82930;stroke-width:1;" width="6" x="510" y="146.3633"/><text fill="#000000" font-family="sans-serif" font-size="13" lengthAdjust="spacing" textLength="22.9785" x="520" y="153.3638">pos</text></a><!--reverse link C_0018314906832388846072 to C_0000426476222404906215--><a href="https://github.com/godotengine/godot/blob/de2f0f147c5b7eff2d0f6dbc35042a4173fd59be/scene/2d/node_2d.h#L41" target="_top" title="_scale" xlink:actuate="onRequest" xlink:href="https://github.com/godotengine/godot/blob/de2f0f147c5b7eff2d0f6dbc35042a4173fd59be/scene/2d/node_2d.h#L41" xlink:show="new" xlink:title="_scale" xlink:type="simple"><path codeLine="33" d="M301.1436,245.7963 C366.2736,238.9163 481.31,224.8069 587,200.2969 C633.51,189.5169 685.45,172.3969 720.87,159.9269 " fill="transparent" id="C_0018314906832388846072-backto-C_0000426476222404906215-1" style="stroke:#181818;stroke-width:1;"/><polygon fill="transparent" points="289.21,247.0569,295.597,250.4044,301.1436,245.7963,294.7566,242.4487,289.21,247.0569" style="stroke:#181818;stroke-width:1;"/><rect fill="transparent" height="6" style="stroke:#C82930;stroke-width:1;" width="6" x="501.5" y="189.3633"/><text fill="#000000" font-family="sans-serif" font-size="13" lengthAdjust="spacing" textLength="39.9966" x="511.5" y="196.3638">_scale</text></a><!--reverse link C_0018314906832388846072 to C_0010369105973531238437--><a href="https://github.com/godotengine/godot/blob/de2f0f147c5b7eff2d0f6dbc35042a4173fd59be/scene/2d/node_2d.h#L45" target="_top" title="_mat" xlink:actuate="onRequest" xlink:href="https://github.com/godotengine/godot/blob/de2f0f147c5b7eff2d0f6dbc35042a4173fd59be/scene/2d/node_2d.h#L45" xlink:show="new" xlink:title="_mat" xlink:type="simple"><path codeLine="34" d="M262.7295,216.5407 C277.2595,188.1007 299.68,151.9769 337,125.2969 C357.36,110.7369 416.34,94.0369 462.67,82.4869 " fill="transparent" id="C_0018314906832388846072-backto-C_0010369105973531238437" style="stroke:#181818;stroke-width:1;"/><polygon fill="transparent" points="257.27,227.2269,263.5618,223.7037,262.7295,216.5407,256.4377,220.064,257.27,227.2269" style="stroke:#181818;stroke-width:1;"/><rect fill="transparent" height="6" style="stroke:#C82930;stroke-width:1;" width="6" x="365" y="81.3633"/><text fill="#000000" font-family="sans-serif" font-size="13" lengthAdjust="spacing" textLength="32.2271" x="375" y="88.3638">_mat</text></a><!--reverse link C_0018314906832388846072 to C_0000836515410371175686--><g id="link_C_0018314906832388846072_C_0000836515410371175686"><path codeLine="35" d="M273.9909,279.5009 C291.8009,296.9909 312.88,316.5769 337,335.2969 C384.66,372.2769 443.67,409.1169 482.51,432.2569 " fill="transparent" id="C_0018314906832388846072-backto-C_0000836515410371175686" style="stroke:#181818;stroke-width:1;stroke-dasharray:7.0,7.0;"/><polygon fill="#181818" points="269.71,275.2969,273.3287,284.4568,273.2774,278.8002,278.9341,278.7489,269.71,275.2969" style="stroke:#181818;stroke-width:1;"/><ellipse cx="357.5" cy="327.3633" fill="transparent" rx="3" ry="3" style="stroke:#038048;stroke-width:1;"/><text fill="#000000" font-family="sans-serif" font-size="13" lengthAdjust="spacing" textLength="53.9297" x="364.5" y="331.3638">&#171;friend&#187;</text></g><!--reverse link C_0016595068827916527164 to C_0018314906832388846072--><g id="link_C_0016595068827916527164_C_0018314906832388846072"><path codeLine="36" d="M131.9153,305.3026 C158.7253,292.3826 175.17,284.4569 200.84,272.0969 " fill="transparent" id="C_0016595068827916527164-backto-C_0018314906832388846072" style="stroke:#181818;stroke-width:1;"/><polygon fill="transparent" points="115.7,313.1169,134.5201,310.7077,129.3105,299.8975,115.7,313.1169" style="stroke:#181818;stroke-width:1;"/></g><!--SRC=[rPRDRvim68Vl_1LMTkYcBU1lGrNri5Qg9dMzREkbgX0VXZ21NO7JJQBztsT2FbW3KtT8k-KIunV8ys3_tc0AKqfmeLDjm9LE9Ju7IHar3KYqClAdSKgP6M0qg8jyOK1Qr38nXLPEVzRisXxg6iz0r82p4DeFnPmAZZ6ca0QGOyJMvqwLmStDmfYxvjZpyi8ibh6RwChBEoIfyaB9Vkp5fOuzIvZ1356Hi5Z8BCCfp7WQ9uJPEqSK2PAbB8Ybb-XQUbLa5jvzZ-WktboIe5q3FzxUWjO9G-TnO_ArZbIJwRh2vriR10aF46I188mWJ7nAnC1ch7ne6xF1376wKXBjW7nVwukf2vLVHPNSML6VCnOmJ0IY75ju1eTM8-K3MZKhm51Pmiw7idQ7lAzprdsTVnpiDvzmXXYrQo4G4epx_BVzjby-eClgXyCqxaG2sAvXHomYTHyrduoiTel2xIE7tFUn2EmO2yJfS556oeSHQH9fhyIfbwmWmy9ITZw8utR7lU_KTu-TZqzG5t2Vs5puFkLGuA7FIFd0Fie2RaB3snvte34PQ3sVWncPlLh_Uffu6hIob9LKfkdmZy7xpQ4pkLCwXrV8jew_stRRGMFkjs4V3xKEzZ6O3sQUmVvYtNOg0XW6RMxl59NXTb7M9a-dftLEN7UwDTd5F3d9waAgzFJKcGpA_xASVs9_kIYDTe2WlTFh_Cpjw5_dfQWDcoGgjuzwTV2C7VBoeHbIipQqFMp3R8VJn7-RYz5iFMoqn_vzdACBYrX7HgRWXnNltdHLFbzMvGTmB-l6ljO2w78NEaUNbzUVjtFVugKoo_xixIGANEGYy1OjLrNqxXS0]--></g></svg>