<svg xmlns="http://www.w3.org/2000/svg" xmlns:xlink="http://www.w3.org/1999/xlink" contentStyleType="text/css" data-diagram-type="CLASS" height="487px" preserveAspectRatio="none" style="width:4687px;height:487px;background:#FFFFFF;" version="1.1" viewBox="0 0 4687 487" width="4687px" zoomAndPan="magnify"><title>'poly' class diagram</title><defs/><g><text fill="#000000" font-family="sans-serif" font-size="14" font-weight="bold" lengthAdjust="spacing" textLength="156.3242" x="2258.5317" y="22.9951">'poly' class diagram</text><!--class C_0017501201129880878205--><a href="https://github.com/skypjack/entt/blob/4a2d1a8541228a90e02a873dba6a980506c42c03/src/entt/poly/fwd.hpp#L17" target="_top" title="basic_poly" xlink:actuate="onRequest" xlink:href="https://github.com/skypjack/entt/blob/4a2d1a8541228a90e02a873dba6a980506c42c03/src/entt/poly/fwd.hpp#L17" xlink:show="new" xlink:title="basic_poly" xlink:type="simple"><g id="elem_C_0017501201129880878205"><rect codeLine="3" fill="#F1F1F1" height="48" id="C_0017501201129880878205" rx="2.5" ry="2.5" style="stroke:#181818;stroke-width:0.5;" width="158.6025" x="204.5" y="177.2969"/><ellipse cx="219.5" cy="193.2969" fill="#ADD1B2" rx="11" ry="11" style="stroke:#181818;stroke-width:1;"/><path d="M222.4688,198.9375 Q221.8906,199.2344 221.25,199.375 Q220.6094,199.5313 219.9063,199.5313 Q217.4063,199.5313 216.0781,197.8906 Q214.7656,196.2344 214.7656,193.1094 Q214.7656,189.9844 216.0781,188.3281 Q217.4063,186.6719 219.9063,186.6719 Q220.6094,186.6719 221.25,186.8281 Q221.9063,186.9844 222.4688,187.2813 L222.4688,190 Q221.8438,189.4219 221.25,189.1563 Q220.6563,188.875 220.0313,188.875 Q218.6875,188.875 218,189.9531 Q217.3125,191.0156 217.3125,193.1094 Q217.3125,195.2031 218,196.2813 Q218.6875,197.3438 220.0313,197.3438 Q220.6563,197.3438 221.25,197.0781 Q221.8438,196.7969 222.4688,196.2188 L222.4688,198.9375 Z " fill="#000000"/><text fill="#000000" font-family="sans-serif" font-size="14" lengthAdjust="spacing" textLength="72.9736" x="233.5" y="198.1436">basic_poly</text><rect fill="#FFFFFF" height="15.9688" style="stroke:#181818;stroke-width:1;stroke-dasharray:2.0,2.0;" width="51.6289" x="314.4736" y="174.2969"/><text fill="#000000" font-family="sans-serif" font-size="12" font-style="italic" lengthAdjust="spacing" textLength="49.6289" x="315.4736" y="186.4355">Concept</text><line style="stroke:#181818;stroke-width:0.5;" x1="205.5" x2="362.1025" y1="209.2969" y2="209.2969"/><line style="stroke:#181818;stroke-width:0.5;" x1="205.5" x2="362.1025" y1="217.2969" y2="217.2969"/></g></a><!--class C_0003687135513869351241--><a href="https://github.com/skypjack/entt/blob/4a2d1a8541228a90e02a873dba6a980506c42c03/src/entt/poly/poly.hpp#L17" target="_top" title="poly_inspector" xlink:actuate="onRequest" xlink:href="https://github.com/skypjack/entt/blob/4a2d1a8541228a90e02a873dba6a980506c42c03/src/entt/poly/poly.hpp#L17" xlink:show="new" xlink:title="poly_inspector" xlink:type="simple"><g id="elem_C_0003687135513869351241"><rect codeLine="7" fill="#F1F1F1" height="96.8906" id="C_0003687135513869351241" rx="2.5" ry="2.5" style="stroke:#181818;stroke-width:0.5;" width="552.5996" x="398.5" y="152.7969"/><ellipse cx="619.7041" cy="168.7969" fill="#ADD1B2" rx="11" ry="11" style="stroke:#181818;stroke-width:1;"/><path d="M622.6729,174.4375 Q622.0947,174.7344 621.4541,174.875 Q620.8135,175.0313 620.1104,175.0313 Q617.6104,175.0313 616.2822,173.3906 Q614.9697,171.7344 614.9697,168.6094 Q614.9697,165.4844 616.2822,163.8281 Q617.6104,162.1719 620.1104,162.1719 Q620.8135,162.1719 621.4541,162.3281 Q622.1104,162.4844 622.6729,162.7813 L622.6729,165.5 Q622.0479,164.9219 621.4541,164.6563 Q620.8604,164.375 620.2354,164.375 Q618.8916,164.375 618.2041,165.4531 Q617.5166,166.5156 617.5166,168.6094 Q617.5166,170.7031 618.2041,171.7813 Q618.8916,172.8438 620.2354,172.8438 Q620.8604,172.8438 621.4541,172.5781 Q622.0479,172.2969 622.6729,171.7188 L622.6729,174.4375 Z " fill="#000000"/><text fill="#000000" font-family="sans-serif" font-size="14" lengthAdjust="spacing" textLength="101.6914" x="640.2041" y="173.6436">poly_inspector</text><line style="stroke:#181818;stroke-width:0.5;" x1="399.5" x2="950.0996" y1="184.7969" y2="184.7969"/><ellipse cx="409.5" cy="198.4453" fill="#84BE84" rx="3" ry="3" style="stroke:#038048;stroke-width:1;"/><text fill="#000000" font-family="sans-serif" font-size="14" lengthAdjust="spacing" textLength="526.5996" x="418.5" y="201.792">invoke&lt;std::size_t Member,Args...&gt;(Args &amp;&amp;... args) const : poly_inspector</text><ellipse cx="409.5" cy="214.7422" fill="#84BE84" rx="3" ry="3" style="stroke:#038048;stroke-width:1;"/><text fill="#000000" font-family="sans-serif" font-size="14" lengthAdjust="spacing" textLength="484.2305" x="418.5" y="218.0889">invoke&lt;std::size_t Member,Args...&gt;(Args &amp;&amp;... args) : poly_inspector</text><ellipse cx="409.5" cy="231.0391" fill="#84BE84" rx="3" ry="3" style="stroke:#038048;stroke-width:1;"/><text fill="#000000" font-family="sans-serif" font-size="14" lengthAdjust="spacing" textLength="414.4287" x="418.5" y="234.3857">operator type-parameter-0-0 &amp;&amp;&lt;Type&gt;() const : Type &amp;&amp;</text><line style="stroke:#181818;stroke-width:0.5;" x1="399.5" x2="950.0996" y1="241.6875" y2="241.6875"/></g></a><!--class C_0000212399863066908165--><a href="https://github.com/skypjack/entt/blob/4a2d1a8541228a90e02a873dba6a980506c42c03/src/entt/poly/poly.hpp#L67" target="_top" title="value_list" xlink:actuate="onRequest" xlink:href="https://github.com/skypjack/entt/blob/4a2d1a8541228a90e02a873dba6a980506c42c03/src/entt/poly/poly.hpp#L67" xlink:show="new" xlink:title="value_list" xlink:type="simple"><g id="elem_C_0000212399863066908165"><rect codeLine="14" fill="#F1F1F1" height="48" id="C_0000212399863066908165" rx="2.5" ry="2.5" style="stroke:#181818;stroke-width:0.5;" width="174.5938" x="1531.5" y="432.2969"/><ellipse cx="1546.5" cy="448.2969" fill="#ADD1B2" rx="11" ry="11" style="stroke:#181818;stroke-width:1;"/><path d="M1549.4688,453.9375 Q1548.8906,454.2344 1548.25,454.375 Q1547.6094,454.5313 1546.9063,454.5313 Q1544.4063,454.5313 1543.0781,452.8906 Q1541.7656,451.2344 1541.7656,448.1094 Q1541.7656,444.9844 1543.0781,443.3281 Q1544.4063,441.6719 1546.9063,441.6719 Q1547.6094,441.6719 1548.25,441.8281 Q1548.9063,441.9844 1549.4688,442.2813 L1549.4688,445 Q1548.8438,444.4219 1548.25,444.1563 Q1547.6563,443.875 1547.0313,443.875 Q1545.6875,443.875 1545,444.9531 Q1544.3125,446.0156 1544.3125,448.1094 Q1544.3125,450.2031 1545,451.2813 Q1545.6875,452.3438 1547.0313,452.3438 Q1547.6563,452.3438 1548.25,452.0781 Q1548.8438,451.7969 1549.4688,451.2188 L1549.4688,453.9375 Z " fill="#000000"/><text fill="#000000" font-family="sans-serif" font-size="14" lengthAdjust="spacing" textLength="65.8027" x="1560.5" y="453.1436">value_list</text><rect fill="#FFFFFF" height="15.9688" style="stroke:#181818;stroke-width:1;stroke-dasharray:2.0,2.0;" width="74.791" x="1634.3027" y="429.2969"/><text fill="#000000" font-family="sans-serif" font-size="12" font-style="italic" lengthAdjust="spacing" textLength="72.791" x="1635.3027" y="441.4355">Candidate...</text><line style="stroke:#181818;stroke-width:0.5;" x1="1532.5" x2="1705.0938" y1="464.2969" y2="464.2969"/><line style="stroke:#181818;stroke-width:0.5;" x1="1532.5" x2="1705.0938" y1="472.2969" y2="472.2969"/></g></a><!--class C_0012016157750554058343--><a href="https://github.com/skypjack/entt/blob/4a2d1a8541228a90e02a873dba6a980506c42c03/src/entt/poly/poly.hpp#L71" target="_top" title="type_list" xlink:actuate="onRequest" xlink:href="https://github.com/skypjack/entt/blob/4a2d1a8541228a90e02a873dba6a980506c42c03/src/entt/poly/poly.hpp#L71" xlink:show="new" xlink:title="type_list" xlink:type="simple"><g id="elem_C_0012016157750554058343"><rect codeLine="18" fill="#F1F1F1" height="48" id="C_0012016157750554058343" rx="2.5" ry="2.5" style="stroke:#181818;stroke-width:0.5;" width="134.9912" x="1741.5" y="432.2969"/><ellipse cx="1756.5" cy="448.2969" fill="#ADD1B2" rx="11" ry="11" style="stroke:#181818;stroke-width:1;"/><path d="M1759.4688,453.9375 Q1758.8906,454.2344 1758.25,454.375 Q1757.6094,454.5313 1756.9063,454.5313 Q1754.4063,454.5313 1753.0781,452.8906 Q1751.7656,451.2344 1751.7656,448.1094 Q1751.7656,444.9844 1753.0781,443.3281 Q1754.4063,441.6719 1756.9063,441.6719 Q1757.6094,441.6719 1758.25,441.8281 Q1758.9063,441.9844 1759.4688,442.2813 L1759.4688,445 Q1758.8438,444.4219 1758.25,444.1563 Q1757.6563,443.875 1757.0313,443.875 Q1755.6875,443.875 1755,444.9531 Q1754.3125,446.0156 1754.3125,448.1094 Q1754.3125,450.2031 1755,451.2813 Q1755.6875,452.3438 1757.0313,452.3438 Q1757.6563,452.3438 1758.25,452.0781 Q1758.8438,451.7969 1759.4688,451.2188 L1759.4688,453.9375 Z " fill="#000000"/><text fill="#000000" font-family="sans-serif" font-size="14" lengthAdjust="spacing" textLength="58.8369" x="1770.5" y="453.1436">type_list</text><rect fill="#FFFFFF" height="15.9688" style="stroke:#181818;stroke-width:1;stroke-dasharray:2.0,2.0;" width="42.1543" x="1837.3369" y="429.2969"/><text fill="#000000" font-family="sans-serif" font-size="12" font-style="italic" lengthAdjust="spacing" textLength="40.1543" x="1838.3369" y="441.4355">Func...</text><line style="stroke:#181818;stroke-width:0.5;" x1="1742.5" x2="1875.4912" y1="464.2969" y2="464.2969"/><line style="stroke:#181818;stroke-width:0.5;" x1="1742.5" x2="1875.4912" y1="472.2969" y2="472.2969"/></g></a><!--class C_0004749599840194619350--><a href="https://github.com/skypjack/entt/blob/4a2d1a8541228a90e02a873dba6a980506c42c03/src/entt/poly/poly.hpp#L47" target="_top" title="poly_vtable" xlink:actuate="onRequest" xlink:href="https://github.com/skypjack/entt/blob/4a2d1a8541228a90e02a873dba6a980506c42c03/src/entt/poly/poly.hpp#L47" xlink:show="new" xlink:title="poly_vtable" xlink:type="simple"><g id="elem_C_0004749599840194619350"><rect codeLine="22" fill="#F1F1F1" height="210.9688" id="C_0004749599840194619350" rx="2.5" ry="2.5" style="stroke:#181818;stroke-width:0.5;" width="1455.292" x="986.5" y="95.7969"/><ellipse cx="1548.748" cy="111.7969" fill="#ADD1B2" rx="11" ry="11" style="stroke:#181818;stroke-width:1;"/><path d="M1551.7168,117.4375 Q1551.1387,117.7344 1550.498,117.875 Q1549.8574,118.0313 1549.1543,118.0313 Q1546.6543,118.0313 1545.3262,116.3906 Q1544.0137,114.7344 1544.0137,111.6094 Q1544.0137,108.4844 1545.3262,106.8281 Q1546.6543,105.1719 1549.1543,105.1719 Q1549.8574,105.1719 1550.498,105.3281 Q1551.1543,105.4844 1551.7168,105.7813 L1551.7168,108.5 Q1551.0918,107.9219 1550.498,107.6563 Q1549.9043,107.375 1549.2793,107.375 Q1547.9355,107.375 1547.248,108.4531 Q1546.5605,109.5156 1546.5605,111.6094 Q1546.5605,113.7031 1547.248,114.7813 Q1547.9355,115.8438 1549.2793,115.8438 Q1549.9043,115.8438 1550.498,115.5781 Q1551.0918,115.2969 1551.7168,114.7188 L1551.7168,117.4375 Z " fill="#000000"/><text fill="#000000" font-family="sans-serif" font-size="14" lengthAdjust="spacing" textLength="80.3701" x="1569.248" y="116.6436">poly_vtable</text><rect fill="#FFFFFF" height="15.9688" style="stroke:#181818;stroke-width:1;stroke-dasharray:2.0,2.0;" width="239.9258" x="2204.8662" y="92.7969"/><text fill="#000000" font-family="sans-serif" font-size="12" font-style="italic" lengthAdjust="spacing" textLength="237.9258" x="2205.8662" y="104.9355">Concept,std::size_t Len,std::size_t Align</text><line style="stroke:#181818;stroke-width:0.5;" x1="987.5" x2="2440.792" y1="127.7969" y2="127.7969"/><rect fill="#F24D5C" height="6" style="stroke:#C82930;stroke-width:1;" width="6" x="994.5" y="138.4453"/><text fill="#000000" font-family="sans-serif" font-size="14" lengthAdjust="spacing" text-decoration="underline" textLength="562.9189" x="1006.5" y="144.792">fill_vtable&lt;Type,auto... Index&gt;(std::index_sequence&lt;Index...&gt;) noexcept : auto</text><rect fill="#F24D5C" height="6" style="stroke:#C82930;stroke-width:1;" width="6" x="994.5" y="154.7422"/><text fill="#000000" font-family="sans-serif" font-size="14" lengthAdjust="spacing" text-decoration="underline" textLength="714.4854" x="1006.5" y="161.0889">fill_vtable_entry&lt;Type,auto Candidate,Ret,Any,Args...&gt;(Ret (*&amp;)(Any &amp;,Args...) entry) noexcept : void</text><ellipse cx="997.5" cy="174.0391" fill="#84BE84" rx="3" ry="3" style="stroke:#038048;stroke-width:1;"/><text fill="#000000" font-family="sans-serif" font-size="14" lengthAdjust="spacing" text-decoration="underline" textLength="242.3955" x="1006.5" y="177.3857">instance&lt;Type&gt;() noexcept : type</text><rect fill="#F24D5C" height="6" style="stroke:#C82930;stroke-width:1;" width="6" x="994.5" y="187.3359"/><text fill="#000000" font-family="sans-serif" font-size="14" lengthAdjust="spacing" text-decoration="underline" textLength="880.8311" x="1006.5" y="193.6826">make_vtable&lt;auto... Candidate&gt;(value_list&lt;Candidate...&gt;) noexcept : decltype(std::make_tuple(vtable_entry(Candidate)...))</text><rect fill="#F24D5C" height="6" style="stroke:#C82930;stroke-width:1;" width="6" x="994.5" y="203.6328"/><text fill="#000000" font-family="sans-serif" font-size="14" lengthAdjust="spacing" text-decoration="underline" textLength="488.5645" x="1006.5" y="209.9795">make_vtable&lt;Func...&gt;(type_list&lt;Func...&gt;) constexpr noexcept : auto</text><rect fill="#F24D5C" height="6" style="stroke:#C82930;stroke-width:1;" width="6" x="994.5" y="219.9297"/><text fill="#000000" font-family="sans-serif" font-size="14" lengthAdjust="spacing" text-decoration="underline" textLength="1429.292" x="1006.5" y="226.2764">vtable_entry&lt;Ret,Clazz,Args...&gt;(Ret (*)(Clazz &amp;,Args...)) : std::enable_if_t&lt;std::is_base_of_v&lt;std::remove_const_t&lt;Clazz&gt;, inspector&gt;, Ret (*)(constness_as_t&lt;basic_any&lt;Len, Align&gt;, Clazz&gt; &amp;, Args...)&gt;</text><rect fill="#F24D5C" height="6" style="stroke:#C82930;stroke-width:1;" width="6" x="994.5" y="236.2266"/><text fill="#000000" font-family="sans-serif" font-size="14" lengthAdjust="spacing" text-decoration="underline" textLength="641.375" x="1006.5" y="242.5732">vtable_entry&lt;Ret,Args...&gt;(Ret (*)(Args...)) : Ret (*)(const basic_any&lt;Len, Align&gt; &amp;, Args...)</text><rect fill="#F24D5C" height="6" style="stroke:#C82930;stroke-width:1;" width="6" x="994.5" y="252.5234"/><text fill="#000000" font-family="sans-serif" font-size="14" lengthAdjust="spacing" text-decoration="underline" textLength="1078.8066" x="1006.5" y="258.8701">vtable_entry&lt;Ret,Clazz,Args...&gt;(Ret (Clazz::*)(Args...)) : std::enable_if_t&lt;std::is_base_of_v&lt;Clazz, inspector&gt;, Ret (*)(basic_any&lt;Len, Align&gt; &amp;, Args...)&gt;</text><rect fill="#F24D5C" height="6" style="stroke:#C82930;stroke-width:1;" width="6" x="994.5" y="268.8203"/><text fill="#000000" font-family="sans-serif" font-size="14" lengthAdjust="spacing" text-decoration="underline" textLength="1163.5449" x="1006.5" y="275.167">vtable_entry&lt;Ret,Clazz,Args...&gt;(Ret (Clazz::*)(Args...) const) : std::enable_if_t&lt;std::is_base_of_v&lt;Clazz, inspector&gt;, Ret (*)(const basic_any&lt;Len, Align&gt; &amp;, Args...)&gt;</text><line style="stroke:#181818;stroke-width:0.5;" x1="987.5" x2="2440.792" y1="282.4688" y2="282.4688"/></g><a href="https://github.com/skypjack/entt/blob/4a2d1a8541228a90e02a873dba6a980506c42c03/src/entt/poly/poly.hpp#L100" target="_top" title="is_mono_v" xlink:actuate="onRequest" xlink:href="https://github.com/skypjack/entt/blob/4a2d1a8541228a90e02a873dba6a980506c42c03/src/entt/poly/poly.hpp#L100" xlink:show="new" xlink:title="is_mono_v" xlink:type="simple"><rect fill="#F1F1F1" height="10" style="stroke:transparent;stroke-width:1;" width="20" x="992.5" y="291.1172"/><rect fill="transparent" height="6" style="stroke:#C82930;stroke-width:1;" width="6" x="994.5" y="293.1172"/></a></a><a href="https://github.com/skypjack/entt/blob/4a2d1a8541228a90e02a873dba6a980506c42c03/src/entt/poly/poly.hpp#L100" target="_top" title="is_mono_v" xlink:actuate="onRequest" xlink:href="https://github.com/skypjack/entt/blob/4a2d1a8541228a90e02a873dba6a980506c42c03/src/entt/poly/poly.hpp#L100" xlink:show="new" xlink:title="is_mono_v" xlink:type="simple"><text fill="#000000" font-family="sans-serif" font-size="14" lengthAdjust="spacing" text-decoration="underline" textLength="159.0039" x="1006.5" y="299.4639">is_mono_v : const bool</text></a><!--class C_0014071038703701003895--><a href="https://github.com/skypjack/entt/blob/4a2d1a8541228a90e02a873dba6a980506c42c03/src/entt/poly/poly.hpp#L129" target="_top" title="poly_base" xlink:actuate="onRequest" xlink:href="https://github.com/skypjack/entt/blob/4a2d1a8541228a90e02a873dba6a980506c42c03/src/entt/poly/poly.hpp#L129" xlink:show="new" xlink:title="poly_base" xlink:type="simple"><g id="elem_C_0014071038703701003895"><rect codeLine="36" fill="#F1F1F1" height="80.5938" id="C_0014071038703701003895" rx="2.5" ry="2.5" style="stroke:#181818;stroke-width:0.5;" width="772.1563" x="2477" y="160.7969"/><ellipse cx="2809.3213" cy="176.7969" fill="#ADD1B2" rx="11" ry="11" style="stroke:#181818;stroke-width:1;"/><path d="M2812.29,182.4375 Q2811.7119,182.7344 2811.0713,182.875 Q2810.4307,183.0313 2809.7275,183.0313 Q2807.2275,183.0313 2805.8994,181.3906 Q2804.5869,179.7344 2804.5869,176.6094 Q2804.5869,173.4844 2805.8994,171.8281 Q2807.2275,170.1719 2809.7275,170.1719 Q2810.4307,170.1719 2811.0713,170.3281 Q2811.7275,170.4844 2812.29,170.7813 L2812.29,173.5 Q2811.665,172.9219 2811.0713,172.6563 Q2810.4775,172.375 2809.8525,172.375 Q2808.5088,172.375 2807.8213,173.4531 Q2807.1338,174.5156 2807.1338,176.6094 Q2807.1338,178.7031 2807.8213,179.7813 Q2808.5088,180.8438 2809.8525,180.8438 Q2810.4775,180.8438 2811.0713,180.5781 Q2811.665,180.2969 2812.29,179.7188 L2812.29,182.4375 Z " fill="#000000"/><text fill="#000000" font-family="sans-serif" font-size="14" lengthAdjust="spacing" textLength="70" x="2829.8213" y="181.6436">poly_base</text><rect fill="#FFFFFF" height="15.9688" style="stroke:#181818;stroke-width:1;stroke-dasharray:2.0,2.0;" width="27.0137" x="3225.1426" y="157.7969"/><text fill="#000000" font-family="sans-serif" font-size="12" font-style="italic" lengthAdjust="spacing" textLength="25.0137" x="3226.1426" y="169.9355">Poly</text><line style="stroke:#181818;stroke-width:0.5;" x1="2478" x2="3248.1563" y1="192.7969" y2="192.7969"/><ellipse cx="2488" cy="206.4453" fill="#84BE84" rx="3" ry="3" style="stroke:#038048;stroke-width:1;"/><text fill="#000000" font-family="sans-serif" font-size="14" lengthAdjust="spacing" textLength="746.1563" x="2497" y="209.792">invoke&lt;std::size_t Member,Args...&gt;(const poly_base&lt;Poly&gt; &amp; self, Args &amp;&amp;... args) const : decltype(auto)</text><ellipse cx="2488" cy="222.7422" fill="#84BE84" rx="3" ry="3" style="stroke:#038048;stroke-width:1;"/><text fill="#000000" font-family="sans-serif" font-size="14" lengthAdjust="spacing" textLength="661.418" x="2497" y="226.0889">invoke&lt;std::size_t Member,Args...&gt;(poly_base&lt;Poly&gt; &amp; self, Args &amp;&amp;... args) : decltype(auto)</text><line style="stroke:#181818;stroke-width:0.5;" x1="2478" x2="3248.1563" y1="233.3906" y2="233.3906"/></g></a><!--class C_0001101813056811770428--><a href="https://github.com/skypjack/entt/blob/4a2d1a8541228a90e02a873dba6a980506c42c03/src/entt/poly/poly.hpp#L305" target="_top" title="basic_any" xlink:actuate="onRequest" xlink:href="https://github.com/skypjack/entt/blob/4a2d1a8541228a90e02a873dba6a980506c42c03/src/entt/poly/poly.hpp#L305" xlink:show="new" xlink:title="basic_any" xlink:type="simple"><g id="elem_C_0001101813056811770428"><rect codeLine="42" fill="#F1F1F1" height="48" id="C_0001101813056811770428" rx="2.5" ry="2.5" style="stroke:#181818;stroke-width:0.5;" width="160.6719" x="3899.5" y="432.2969"/><ellipse cx="3914.5" cy="448.2969" fill="#ADD1B2" rx="11" ry="11" style="stroke:#181818;stroke-width:1;"/><path d="M3917.4688,453.9375 Q3916.8906,454.2344 3916.25,454.375 Q3915.6094,454.5313 3914.9063,454.5313 Q3912.4063,454.5313 3911.0781,452.8906 Q3909.7656,451.2344 3909.7656,448.1094 Q3909.7656,444.9844 3911.0781,443.3281 Q3912.4063,441.6719 3914.9063,441.6719 Q3915.6094,441.6719 3916.25,441.8281 Q3916.9063,441.9844 3917.4688,442.2813 L3917.4688,445 Q3916.8438,444.4219 3916.25,444.1563 Q3915.6563,443.875 3915.0313,443.875 Q3913.6875,443.875 3913,444.9531 Q3912.3125,446.0156 3912.3125,448.1094 Q3912.3125,450.2031 3913,451.2813 Q3913.6875,452.3438 3915.0313,452.3438 Q3915.6563,452.3438 3916.25,452.0781 Q3916.8438,451.7969 3917.4688,451.2188 L3917.4688,453.9375 Z " fill="#000000"/><text fill="#000000" font-family="sans-serif" font-size="14" lengthAdjust="spacing" textLength="69.084" x="3928.5" y="453.1436">basic_any</text><rect fill="#FFFFFF" height="15.9688" style="stroke:#181818;stroke-width:1;stroke-dasharray:2.0,2.0;" width="57.5879" x="4005.584" y="429.2969"/><text fill="#000000" font-family="sans-serif" font-size="12" font-style="italic" lengthAdjust="spacing" textLength="55.5879" x="4006.584" y="441.4355">Len,Align</text><line style="stroke:#181818;stroke-width:0.5;" x1="3900.5" x2="4059.1719" y1="464.2969" y2="464.2969"/><line style="stroke:#181818;stroke-width:0.5;" x1="3900.5" x2="4059.1719" y1="472.2969" y2="472.2969"/></g></a><!--class C_0016308479569936640596--><a href="https://github.com/skypjack/entt/blob/4a2d1a8541228a90e02a873dba6a980506c42c03/src/entt/poly/poly.hpp#L193" target="_top" title="basic_poly" xlink:actuate="onRequest" xlink:href="https://github.com/skypjack/entt/blob/4a2d1a8541228a90e02a873dba6a980506c42c03/src/entt/poly/poly.hpp#L193" xlink:show="new" xlink:title="basic_poly" xlink:type="simple"><g id="elem_C_0016308479569936640596"><rect codeLine="46" fill="#F1F1F1" height="308.4531" id="C_0016308479569936640596" rx="2.5" ry="2.5" style="stroke:#181818;stroke-width:0.5;" width="1392.3877" x="3284" y="47.2969"/><ellipse cx="3703.3574" cy="63.2969" fill="#ADD1B2" rx="11" ry="11" style="stroke:#181818;stroke-width:1;"/><path d="M3706.3262,68.9375 Q3705.748,69.2344 3705.1074,69.375 Q3704.4668,69.5313 3703.7637,69.5313 Q3701.2637,69.5313 3699.9355,67.8906 Q3698.623,66.2344 3698.623,63.1094 Q3698.623,59.9844 3699.9355,58.3281 Q3701.2637,56.6719 3703.7637,56.6719 Q3704.4668,56.6719 3705.1074,56.8281 Q3705.7637,56.9844 3706.3262,57.2813 L3706.3262,60 Q3705.7012,59.4219 3705.1074,59.1563 Q3704.5137,58.875 3703.8887,58.875 Q3702.5449,58.875 3701.8574,59.9531 Q3701.1699,61.0156 3701.1699,63.1094 Q3701.1699,65.2031 3701.8574,66.2813 Q3702.5449,67.3438 3703.8887,67.3438 Q3704.5137,67.3438 3705.1074,67.0781 Q3705.7012,66.7969 3706.3262,66.2188 L3706.3262,68.9375 Z " fill="#000000"/><text fill="#000000" font-family="sans-serif" font-size="14" lengthAdjust="spacing" textLength="72.9736" x="3723.8574" y="68.1436">basic_poly</text><rect fill="#FFFFFF" height="15.9688" style="stroke:#181818;stroke-width:1;stroke-dasharray:2.0,2.0;" width="470.1992" x="4209.1885" y="44.2969"/><text fill="#000000" font-family="sans-serif" font-size="12" font-style="italic" lengthAdjust="spacing" textLength="468.1992" x="4210.1885" y="56.4355">Concept,std::size_t Len=sizeof(double[2]),std::size_t Align=alignof(double[2])</text><line style="stroke:#181818;stroke-width:0.5;" x1="3285" x2="4675.3877" y1="79.2969" y2="79.2969"/></g><a href="https://github.com/skypjack/entt/blob/4a2d1a8541228a90e02a873dba6a980506c42c03/src/entt/poly/poly.hpp#L203" target="_top" title="basic_poly" xlink:actuate="onRequest" xlink:href="https://github.com/skypjack/entt/blob/4a2d1a8541228a90e02a873dba6a980506c42c03/src/entt/poly/poly.hpp#L203" xlink:show="new" xlink:title="basic_poly" xlink:type="simple"><rect fill="#F1F1F1" height="10" style="stroke:transparent;stroke-width:1;" width="20" x="3290" y="87.9453"/><ellipse cx="3295" cy="92.9453" fill="#84BE84" rx="3" ry="3" style="stroke:#038048;stroke-width:1;"/></a></a><a href="https://github.com/skypjack/entt/blob/4a2d1a8541228a90e02a873dba6a980506c42c03/src/entt/poly/poly.hpp#L203" target="_top" title="basic_poly" xlink:actuate="onRequest" xlink:href="https://github.com/skypjack/entt/blob/4a2d1a8541228a90e02a873dba6a980506c42c03/src/entt/poly/poly.hpp#L203" xlink:show="new" xlink:title="basic_poly" xlink:type="simple"><text fill="#000000" font-family="sans-serif" font-size="14" lengthAdjust="spacing" textLength="266.5059" x="3304" y="96.292">basic_poly() noexcept = default : void</text></a><ellipse cx="3295" cy="109.2422" fill="#84BE84" rx="3" ry="3" style="stroke:#038048;stroke-width:1;"/><text fill="#000000" font-family="sans-serif" font-size="14" lengthAdjust="spacing" textLength="546.3623" x="3304" y="112.5889">basic_poly&lt;Type,Args...&gt;(std::in_place_type_t&lt;Type&gt;, Args &amp;&amp;... args) : void</text><ellipse cx="3295" cy="125.5391" fill="#84BE84" rx="3" ry="3" style="stroke:#038048;stroke-width:1;"/><text fill="#000000" font-family="sans-serif" font-size="14" lengthAdjust="spacing" textLength="1366.3877" x="3304" y="128.8857">basic_poly&lt;Type,typename=std::enable_if_t&lt;!std::is_same_v&lt;std::remove_cv_t&lt;std::remove_reference_t&lt;Type&gt;&gt;, basic_poly&lt;type-parameter-0-0, Len, &gt;&gt;&gt;&gt;(Type &amp;&amp; value) noexcept : void</text><line style="stroke:#181818;stroke-width:1;stroke-dasharray:1.0,2.0;" x1="3285" x2="4675.3877" y1="136.1875" y2="136.1875"/><a href="https://github.com/skypjack/entt/blob/4a2d1a8541228a90e02a873dba6a980506c42c03/src/entt/poly/poly.hpp#L276" target="_top" title="operator-&gt;" xlink:actuate="onRequest" xlink:href="https://github.com/skypjack/entt/blob/4a2d1a8541228a90e02a873dba6a980506c42c03/src/entt/poly/poly.hpp#L276" xlink:show="new" xlink:title="operator-&gt;" xlink:type="simple"><rect fill="#F1F1F1" height="10" style="stroke:transparent;stroke-width:1;" width="20" x="3290" y="144.8359"/><ellipse cx="3295" cy="149.8359" fill="#84BE84" rx="3" ry="3" style="stroke:#038048;stroke-width:1;"/></a><a href="https://github.com/skypjack/entt/blob/4a2d1a8541228a90e02a873dba6a980506c42c03/src/entt/poly/poly.hpp#L276" target="_top" title="operator-&gt;" xlink:actuate="onRequest" xlink:href="https://github.com/skypjack/entt/blob/4a2d1a8541228a90e02a873dba6a980506c42c03/src/entt/poly/poly.hpp#L276" xlink:show="new" xlink:title="operator-&gt;" xlink:type="simple"><text fill="#000000" font-family="sans-serif" font-size="14" lengthAdjust="spacing" textLength="276.5547" x="3304" y="153.1826">operator-&gt;() noexcept : concept_type *</text></a><a href="https://github.com/skypjack/entt/blob/4a2d1a8541228a90e02a873dba6a980506c42c03/src/entt/poly/poly.hpp#L281" target="_top" title="operator-&gt;" xlink:actuate="onRequest" xlink:href="https://github.com/skypjack/entt/blob/4a2d1a8541228a90e02a873dba6a980506c42c03/src/entt/poly/poly.hpp#L281" xlink:show="new" xlink:title="operator-&gt;" xlink:type="simple"><rect fill="#F1F1F1" height="10" style="stroke:transparent;stroke-width:1;" width="20" x="3290" y="161.1328"/><ellipse cx="3295" cy="166.1328" fill="#84BE84" rx="3" ry="3" style="stroke:#038048;stroke-width:1;"/></a><a href="https://github.com/skypjack/entt/blob/4a2d1a8541228a90e02a873dba6a980506c42c03/src/entt/poly/poly.hpp#L281" target="_top" title="operator-&gt;" xlink:actuate="onRequest" xlink:href="https://github.com/skypjack/entt/blob/4a2d1a8541228a90e02a873dba6a980506c42c03/src/entt/poly/poly.hpp#L281" xlink:show="new" xlink:title="operator-&gt;" xlink:type="simple"><text fill="#000000" font-family="sans-serif" font-size="14" lengthAdjust="spacing" textLength="361.293" x="3304" y="169.4795">operator-&gt;() const noexcept : const concept_type *</text></a><line style="stroke:#181818;stroke-width:1;stroke-dasharray:1.0,2.0;" x1="3285" x2="4675.3877" y1="176.7813" y2="176.7813"/><a href="https://github.com/skypjack/entt/blob/4a2d1a8541228a90e02a873dba6a980506c42c03/src/entt/poly/poly.hpp#L289" target="_top" title="as_ref" xlink:actuate="onRequest" xlink:href="https://github.com/skypjack/entt/blob/4a2d1a8541228a90e02a873dba6a980506c42c03/src/entt/poly/poly.hpp#L289" xlink:show="new" xlink:title="as_ref" xlink:type="simple"><rect fill="#F1F1F1" height="10" style="stroke:transparent;stroke-width:1;" width="20" x="3290" y="185.4297"/><ellipse cx="3295" cy="190.4297" fill="#84BE84" rx="3" ry="3" style="stroke:#038048;stroke-width:1;"/></a><a href="https://github.com/skypjack/entt/blob/4a2d1a8541228a90e02a873dba6a980506c42c03/src/entt/poly/poly.hpp#L289" target="_top" title="as_ref" xlink:actuate="onRequest" xlink:href="https://github.com/skypjack/entt/blob/4a2d1a8541228a90e02a873dba6a980506c42c03/src/entt/poly/poly.hpp#L289" xlink:show="new" xlink:title="as_ref" xlink:type="simple"><text fill="#000000" font-family="sans-serif" font-size="14" lengthAdjust="spacing" textLength="404.9609" x="3304" y="193.7764">as_ref() noexcept : basic_poly&lt;type-parameter-0-0,Len,&gt;</text></a><a href="https://github.com/skypjack/entt/blob/4a2d1a8541228a90e02a873dba6a980506c42c03/src/entt/poly/poly.hpp#L297" target="_top" title="as_ref" xlink:actuate="onRequest" xlink:href="https://github.com/skypjack/entt/blob/4a2d1a8541228a90e02a873dba6a980506c42c03/src/entt/poly/poly.hpp#L297" xlink:show="new" xlink:title="as_ref" xlink:type="simple"><rect fill="#F1F1F1" height="10" style="stroke:transparent;stroke-width:1;" width="20" x="3290" y="201.7266"/><ellipse cx="3295" cy="206.7266" fill="#84BE84" rx="3" ry="3" style="stroke:#038048;stroke-width:1;"/></a><a href="https://github.com/skypjack/entt/blob/4a2d1a8541228a90e02a873dba6a980506c42c03/src/entt/poly/poly.hpp#L297" target="_top" title="as_ref" xlink:actuate="onRequest" xlink:href="https://github.com/skypjack/entt/blob/4a2d1a8541228a90e02a873dba6a980506c42c03/src/entt/poly/poly.hpp#L297" xlink:show="new" xlink:title="as_ref" xlink:type="simple"><text fill="#000000" font-family="sans-serif" font-size="14" lengthAdjust="spacing" textLength="447.3301" x="3304" y="210.0732">as_ref() const noexcept : basic_poly&lt;type-parameter-0-0,Len,&gt;</text></a><a href="https://github.com/skypjack/entt/blob/4a2d1a8541228a90e02a873dba6a980506c42c03/src/entt/poly/poly.hpp#L237" target="_top" title="data" xlink:actuate="onRequest" xlink:href="https://github.com/skypjack/entt/blob/4a2d1a8541228a90e02a873dba6a980506c42c03/src/entt/poly/poly.hpp#L237" xlink:show="new" xlink:title="data" xlink:type="simple"><rect fill="#F1F1F1" height="10" style="stroke:transparent;stroke-width:1;" width="20" x="3290" y="218.0234"/><ellipse cx="3295" cy="223.0234" fill="#84BE84" rx="3" ry="3" style="stroke:#038048;stroke-width:1;"/></a><a href="https://github.com/skypjack/entt/blob/4a2d1a8541228a90e02a873dba6a980506c42c03/src/entt/poly/poly.hpp#L237" target="_top" title="data" xlink:actuate="onRequest" xlink:href="https://github.com/skypjack/entt/blob/4a2d1a8541228a90e02a873dba6a980506c42c03/src/entt/poly/poly.hpp#L237" xlink:show="new" xlink:title="data" xlink:type="simple"><text fill="#000000" font-family="sans-serif" font-size="14" lengthAdjust="spacing" textLength="251.3643" x="3304" y="226.3701">data() const noexcept : const void *</text></a><a href="https://github.com/skypjack/entt/blob/4a2d1a8541228a90e02a873dba6a980506c42c03/src/entt/poly/poly.hpp#L242" target="_top" title="data" xlink:actuate="onRequest" xlink:href="https://github.com/skypjack/entt/blob/4a2d1a8541228a90e02a873dba6a980506c42c03/src/entt/poly/poly.hpp#L242" xlink:show="new" xlink:title="data" xlink:type="simple"><rect fill="#F1F1F1" height="10" style="stroke:transparent;stroke-width:1;" width="20" x="3290" y="234.3203"/><ellipse cx="3295" cy="239.3203" fill="#84BE84" rx="3" ry="3" style="stroke:#038048;stroke-width:1;"/></a><a href="https://github.com/skypjack/entt/blob/4a2d1a8541228a90e02a873dba6a980506c42c03/src/entt/poly/poly.hpp#L242" target="_top" title="data" xlink:actuate="onRequest" xlink:href="https://github.com/skypjack/entt/blob/4a2d1a8541228a90e02a873dba6a980506c42c03/src/entt/poly/poly.hpp#L242" xlink:show="new" xlink:title="data" xlink:type="simple"><text fill="#000000" font-family="sans-serif" font-size="14" lengthAdjust="spacing" textLength="166.626" x="3304" y="242.667">data() noexcept : void *</text></a><ellipse cx="3295" cy="255.6172" fill="#84BE84" rx="3" ry="3" style="stroke:#038048;stroke-width:1;"/><text fill="#000000" font-family="sans-serif" font-size="14" lengthAdjust="spacing" textLength="327.3115" x="3304" y="258.9639">emplace&lt;Type,Args...&gt;(Args &amp;&amp;... args) : void</text><a href="https://github.com/skypjack/entt/blob/4a2d1a8541228a90e02a873dba6a980506c42c03/src/entt/poly/poly.hpp#L268" target="_top" title="operator bool" xlink:actuate="onRequest" xlink:href="https://github.com/skypjack/entt/blob/4a2d1a8541228a90e02a873dba6a980506c42c03/src/entt/poly/poly.hpp#L268" xlink:show="new" xlink:title="operator bool" xlink:type="simple"><rect fill="#F1F1F1" height="10" style="stroke:transparent;stroke-width:1;" width="20" x="3290" y="266.9141"/><ellipse cx="3295" cy="271.9141" fill="#84BE84" rx="3" ry="3" style="stroke:#038048;stroke-width:1;"/></a><a href="https://github.com/skypjack/entt/blob/4a2d1a8541228a90e02a873dba6a980506c42c03/src/entt/poly/poly.hpp#L268" target="_top" title="operator bool" xlink:actuate="onRequest" xlink:href="https://github.com/skypjack/entt/blob/4a2d1a8541228a90e02a873dba6a980506c42c03/src/entt/poly/poly.hpp#L268" xlink:show="new" xlink:title="operator bool" xlink:type="simple"><text fill="#000000" font-family="sans-serif" font-size="14" lengthAdjust="spacing" textLength="260.8594" x="3304" y="275.2607">operator bool() const noexcept : bool</text></a><a href="https://github.com/skypjack/entt/blob/4a2d1a8541228a90e02a873dba6a980506c42c03/src/entt/poly/poly.hpp#L259" target="_top" title="reset" xlink:actuate="onRequest" xlink:href="https://github.com/skypjack/entt/blob/4a2d1a8541228a90e02a873dba6a980506c42c03/src/entt/poly/poly.hpp#L259" xlink:show="new" xlink:title="reset" xlink:type="simple"><rect fill="#F1F1F1" height="10" style="stroke:transparent;stroke-width:1;" width="20" x="3290" y="283.2109"/><ellipse cx="3295" cy="288.2109" fill="#84BE84" rx="3" ry="3" style="stroke:#038048;stroke-width:1;"/></a><a href="https://github.com/skypjack/entt/blob/4a2d1a8541228a90e02a873dba6a980506c42c03/src/entt/poly/poly.hpp#L259" target="_top" title="reset" xlink:actuate="onRequest" xlink:href="https://github.com/skypjack/entt/blob/4a2d1a8541228a90e02a873dba6a980506c42c03/src/entt/poly/poly.hpp#L259" xlink:show="new" xlink:title="reset" xlink:type="simple"><text fill="#000000" font-family="sans-serif" font-size="14" lengthAdjust="spacing" textLength="89.9336" x="3304" y="291.5576">reset() : void</text></a><a href="https://github.com/skypjack/entt/blob/4a2d1a8541228a90e02a873dba6a980506c42c03/src/entt/poly/poly.hpp#L229" target="_top" title="type" xlink:actuate="onRequest" xlink:href="https://github.com/skypjack/entt/blob/4a2d1a8541228a90e02a873dba6a980506c42c03/src/entt/poly/poly.hpp#L229" xlink:show="new" xlink:title="type" xlink:type="simple"><rect fill="#F1F1F1" height="10" style="stroke:transparent;stroke-width:1;" width="20" x="3290" y="299.5078"/><ellipse cx="3295" cy="304.5078" fill="#84BE84" rx="3" ry="3" style="stroke:#038048;stroke-width:1;"/></a><a href="https://github.com/skypjack/entt/blob/4a2d1a8541228a90e02a873dba6a980506c42c03/src/entt/poly/poly.hpp#L229" target="_top" title="type" xlink:actuate="onRequest" xlink:href="https://github.com/skypjack/entt/blob/4a2d1a8541228a90e02a873dba6a980506c42c03/src/entt/poly/poly.hpp#L229" xlink:show="new" xlink:title="type" xlink:type="simple"><text fill="#000000" font-family="sans-serif" font-size="14" lengthAdjust="spacing" textLength="289.9258" x="3304" y="307.8545">type() const noexcept : const type_info &amp;</text></a><line style="stroke:#181818;stroke-width:0.5;" x1="3285" x2="4675.3877" y1="315.1563" y2="315.1563"/><a href="https://github.com/skypjack/entt/blob/4a2d1a8541228a90e02a873dba6a980506c42c03/src/entt/poly/poly.hpp#L305" target="_top" title="storage" xlink:actuate="onRequest" xlink:href="https://github.com/skypjack/entt/blob/4a2d1a8541228a90e02a873dba6a980506c42c03/src/entt/poly/poly.hpp#L305" xlink:show="new" xlink:title="storage" xlink:type="simple"><rect fill="#F1F1F1" height="10" style="stroke:transparent;stroke-width:1;" width="20" x="3290" y="323.8047"/><rect fill="transparent" height="6" style="stroke:#C82930;stroke-width:1;" width="6" x="3292" y="325.8047"/></a><a href="https://github.com/skypjack/entt/blob/4a2d1a8541228a90e02a873dba6a980506c42c03/src/entt/poly/poly.hpp#L305" target="_top" title="storage" xlink:actuate="onRequest" xlink:href="https://github.com/skypjack/entt/blob/4a2d1a8541228a90e02a873dba6a980506c42c03/src/entt/poly/poly.hpp#L305" xlink:show="new" xlink:title="storage" xlink:type="simple"><text fill="#000000" font-family="sans-serif" font-size="14" lengthAdjust="spacing" textLength="224.1982" x="3304" y="332.1514">storage : basic_any&lt;Len,Align&gt;</text></a><a href="https://github.com/skypjack/entt/blob/4a2d1a8541228a90e02a873dba6a980506c42c03/src/entt/poly/poly.hpp#L306" target="_top" title="vtable" xlink:actuate="onRequest" xlink:href="https://github.com/skypjack/entt/blob/4a2d1a8541228a90e02a873dba6a980506c42c03/src/entt/poly/poly.hpp#L306" xlink:show="new" xlink:title="vtable" xlink:type="simple"><rect fill="#F1F1F1" height="10" style="stroke:transparent;stroke-width:1;" width="20" x="3290" y="340.1016"/><rect fill="transparent" height="6" style="stroke:#C82930;stroke-width:1;" width="6" x="3292" y="342.1016"/></a><a href="https://github.com/skypjack/entt/blob/4a2d1a8541228a90e02a873dba6a980506c42c03/src/entt/poly/poly.hpp#L306" target="_top" title="vtable" xlink:actuate="onRequest" xlink:href="https://github.com/skypjack/entt/blob/4a2d1a8541228a90e02a873dba6a980506c42c03/src/entt/poly/poly.hpp#L306" xlink:show="new" xlink:title="vtable" xlink:type="simple"><text fill="#000000" font-family="sans-serif" font-size="14" lengthAdjust="spacing" textLength="139.3779" x="3304" y="348.4482">vtable : vtable_type</text></a><!--class C_0002433144032423111964--><a href="https://github.com/skypjack/entt/blob/4a2d1a8541228a90e02a873dba6a980506c42c03/src/entt/poly/fwd.hpp#L10" target="_top" title="basic_poly" xlink:actuate="onRequest" xlink:href="https://github.com/skypjack/entt/blob/4a2d1a8541228a90e02a873dba6a980506c42c03/src/entt/poly/fwd.hpp#L10" xlink:show="new" xlink:title="basic_poly" xlink:type="simple"><g id="elem_C_0002433144032423111964"><rect codeLine="67" fill="#F1F1F1" height="48" id="C_0002433144032423111964" rx="2.5" ry="2.5" style="stroke:#181818;stroke-width:0.5;" width="554.4678" x="7" y="432.2969"/><ellipse cx="22" cy="448.2969" fill="#ADD1B2" rx="11" ry="11" style="stroke:#181818;stroke-width:1;"/><path d="M24.9688,453.9375 Q24.3906,454.2344 23.75,454.375 Q23.1094,454.5313 22.4063,454.5313 Q19.9063,454.5313 18.5781,452.8906 Q17.2656,451.2344 17.2656,448.1094 Q17.2656,444.9844 18.5781,443.3281 Q19.9063,441.6719 22.4063,441.6719 Q23.1094,441.6719 23.75,441.8281 Q24.4063,441.9844 24.9688,442.2813 L24.9688,445 Q24.3438,444.4219 23.75,444.1563 Q23.1563,443.875 22.5313,443.875 Q21.1875,443.875 20.5,444.9531 Q19.8125,446.0156 19.8125,448.1094 Q19.8125,450.2031 20.5,451.2813 Q21.1875,452.3438 22.5313,452.3438 Q23.1563,452.3438 23.75,452.0781 Q24.3438,451.7969 24.9688,451.2188 L24.9688,453.9375 Z " fill="#000000"/><text fill="#000000" font-family="sans-serif" font-size="14" lengthAdjust="spacing" textLength="72.9736" x="36" y="453.1436">basic_poly</text><rect fill="#FFFFFF" height="15.9688" style="stroke:#181818;stroke-width:1;stroke-dasharray:2.0,2.0;" width="447.4941" x="116.9736" y="429.2969"/><text fill="#000000" font-family="sans-serif" font-size="12" font-style="italic" lengthAdjust="spacing" textLength="445.4941" x="117.9736" y="441.4355">typename,std::size_t Len=sizeof(double[2]),std::size_t=alignof(double[2])</text><line style="stroke:#181818;stroke-width:0.5;" x1="8" x2="560.4678" y1="464.2969" y2="464.2969"/><line style="stroke:#181818;stroke-width:0.5;" x1="8" x2="560.4678" y1="472.2969" y2="472.2969"/></g></a><!--link C_0017501201129880878205 to C_0002433144032423111964--><g id="link_C_0017501201129880878205_C_0002433144032423111964"><path codeLine="70" d="M284,225.6469 C284,273.8469 284,365.8569 284,414.0069 " fill="transparent" id="C_0017501201129880878205-to-C_0002433144032423111964" style="stroke:#181818;stroke-width:1;stroke-dasharray:7.0,7.0;"/><polygon fill="transparent" points="284,432.0069,290,414.0069,278,414.0069,284,432.0069" style="stroke:#181818;stroke-width:1;"/></g><!--link C_0004749599840194619350 to C_0000212399863066908165--><a href="https://github.com/skypjack/entt/blob/4a2d1a8541228a90e02a873dba6a980506c42c03/src/entt/poly/poly.hpp#L67" target="_top" title="" xlink:actuate="onRequest" xlink:href="https://github.com/skypjack/entt/blob/4a2d1a8541228a90e02a873dba6a980506c42c03/src/entt/poly/poly.hpp#L67" xlink:show="new" xlink:title="" xlink:type="simple"><path codeLine="71" d="M1674.67,307.0269 C1657.27,353.3869 1640.4585,398.1395 1629.7685,426.6195 " fill="transparent" id="C_0004749599840194619350-to-C_0000212399863066908165" style="stroke:#181818;stroke-width:1;stroke-dasharray:7.0,7.0;"/><polygon fill="#181818" points="1627.66,432.2369,1634.5676,425.2165,1629.4171,427.5558,1627.0778,422.4052,1627.66,432.2369" style="stroke:#181818;stroke-width:1;"/></a><!--link C_0004749599840194619350 to C_0012016157750554058343--><a href="https://github.com/skypjack/entt/blob/4a2d1a8541228a90e02a873dba6a980506c42c03/src/entt/poly/poly.hpp#L71" target="_top" title="" xlink:actuate="onRequest" xlink:href="https://github.com/skypjack/entt/blob/4a2d1a8541228a90e02a873dba6a980506c42c03/src/entt/poly/poly.hpp#L71" xlink:show="new" xlink:title="" xlink:type="simple"><path codeLine="72" d="M1753.33,307.0269 C1770.73,353.3869 1787.5415,398.1395 1798.2315,426.6195 " fill="transparent" id="C_0004749599840194619350-to-C_0012016157750554058343" style="stroke:#181818;stroke-width:1;stroke-dasharray:7.0,7.0;"/><polygon fill="#181818" points="1800.34,432.2369,1800.9222,422.4052,1798.5829,427.5558,1793.4324,425.2165,1800.34,432.2369" style="stroke:#181818;stroke-width:1;"/></a><!--reverse link C_0016308479569936640596 to C_0001101813056811770428--><a href="https://github.com/skypjack/entt/blob/4a2d1a8541228a90e02a873dba6a980506c42c03/src/entt/poly/poly.hpp#L305" target="_top" title="storage" xlink:actuate="onRequest" xlink:href="https://github.com/skypjack/entt/blob/4a2d1a8541228a90e02a873dba6a980506c42c03/src/entt/poly/poly.hpp#L305" xlink:show="new" xlink:title="storage" xlink:type="simple"><path codeLine="73" d="M3980,367.3069 C3980,397.4869 3980,413.5569 3980,432.2269 " fill="transparent" id="C_0016308479569936640596-backto-C_0001101813056811770428" style="stroke:#181818;stroke-width:1;"/><polygon fill="transparent" points="3980,355.3069,3976,361.3069,3980,367.3069,3984,361.3069,3980,355.3069" style="stroke:#181818;stroke-width:1;"/><rect fill="transparent" height="6" style="stroke:#C82930;stroke-width:1;" width="6" x="3983" y="391.3633"/><text fill="#000000" font-family="sans-serif" font-size="13" lengthAdjust="spacing" textLength="49.3848" x="3993" y="398.3638">storage</text></a><!--SRC=[pLbjRwis5FxUN-7TIIsvDo4sxrHffAhIfaczqZHj-r95o25Eoag0WPFRbFM_xnW70e7qzkvgjFqG6HlEUSwh7xiyu2535qaSxYwG7z8iGuk0hbAwFfDF7-Oq2tnFl32vYIEV9Npw0T4CtNWO4zl4HCE4QAxZOCTsD6pklpkrZExkxZbFiilnU1Nm-yrSzUFrE7lO9NzH_s7C8ix7yp2UZmsgBGXrJ8DecaDTpB167LjVpAb5NGURsF8DpSVwE4jz-Pd0E5v-MQZtIVBZBR7p0_JdsGpbPvvtzboQ9MQz8CeIvlCuhIp2kkNOH3TDeZkMgvj4CqZDegxb_ziYyLEPr8GjpVeKHDluWKqolhYyp88dvd7qcQtdB1rUfwjCLTMf8WRe_1p6YC9mWFmuoZYwH4s1_qrMMqgSi9J22F5TmaO9XNnYdAKZFCBmvUHtc9qg1n3Y6UOR0ThISCEyCCZuv8P6Ys11EHFg3w726j5qrtKi7LkMYnrYrPElQxc_K5bsVZ2WdNt2BTAsdpQHtp1B58n5J1jgnpGDR3gweTThgcEvFxDiabVGJzJKbjDvoCfUCQmdqYsB6i_NOR2AQW4rRCCr8M869gvX4QWlN0zent9_bXlxsfFcITlpZ5CU-Czej0p2iBHS9FEGRdWi2kINQC4UfqfXTI36NiR-tZ3mpQHO4g4Ve2XcZy9RK0hYmsx17i1ATmVng2gBuM-C3w-ZtQ54OG8f7yy72ioYyt9-W0eH3NtRE5WSz47vmr2WAqkqzgg8V0tQcZwmqkRIt0hIL3bLlmsH2-Q7GgnqK26HRvAGANMJbUhxWJ1YS093MKbAkxZsdOOz9kaBlcwuMRZq9gHFJyTE7IZ5TCsheW4M-5bK20YM7fSDDCWys8EO5o-zhPn9sJhUCg-00syLegP3LBLE69TgYdSYbcKUpU1LkPdHQ3SHPRIldI6I4W0DAk5CNpAfPKpTY8PcrAcmhkXRNLVCNLuUANs5vwImJYTz5UJq-r7AvFb-hAzqwrJqr0DeaBwEezZRWlwzX3WEeV7rnZempYiGqFXcHmrVs3xv5KQrFSp0Di6wOsFTnl2zxhWDNjYnt2EBqjoy0lvw1YLzVsGnEaSP2vSoU9tygkfmejaCNgNfrJfQqkkRSJFFZhTQGZ1nY8vDoo74jh6XEVMjjcEvlm21shn2tsOPxGF9CScu4iDugIpY3LJgdJORj6d75HM_ZPTg-GkSqJ5irxHSLxSie5ckLS_VZkKUyzVLMoURJuU9-fvz1Gcof9kmtEXxx1eQFa8vguEKBARA-3qzyfAG-X0XiNzpoK0wixxWB2rfuhC8pXbNhIxzGzccCrW-tectPHlVJwHioL91q4e8WA6cgdsW6HQy5atXJzaVP511VjeyIrKFHwFH4RloPIuNrgEFVKRAjl83A1cf1aZPoffGOUBj03la6B1mBB0aY5tJgIy7JiHjsYjmDvSefPShn2qFlpFShjt03LISdiwBej7qcW-wdGj83N17fTSl84Eh0MBhegqTjRoJRQswEX4qhpCt-gL_ckNa3KpIgfHbZ2k3DzXOJ3Slb4iS1VivcOl5LX94onX8L8yGWM4ApGL2e2wZ37n7Lwmgx2Ohwn6Pe5PxC0Mu_P58H56UZOfctYSUAwzkL6QT7A_Srh-DvBr8xx1cw3en3An3fUg44DSowkotOxc_QslSVMrzyZvTLV-PdhRgvCKPzA3tSKqADduTvPlVUfOeEwb_F1gzasFJeRQXfCksStPsyJEBH0Td2_G5G8X_z4IhqMOT3j6MfLaGHmYhbahEBcvl__nSpVqntqHy8z-k9ech4fKWXMoALJBu5m00]--></g></svg>