<svg xmlns="http://www.w3.org/2000/svg" xmlns:xlink="http://www.w3.org/1999/xlink" contentStyleType="text/css" data-diagram-type="CLASS" height="854px" preserveAspectRatio="none" style="width:5746px;height:854px;background:#FFFFFF;" version="1.1" viewBox="0 0 5746 854" width="5746px" zoomAndPan="magnify"><title>std::vector context class diagram</title><defs/><g><text fill="#000000" font-family="sans-serif" font-size="14" font-weight="bold" lengthAdjust="spacing" textLength="265.2344" x="2733.4487" y="22.9951">std::vector context class diagram</text><!--class C_0016384363037466094568--><g id="elem_C_0016384363037466094568"><rect codeLine="3" fill="#F1F1F1" height="48" id="C_0016384363037466094568" rx="2.5" ry="2.5" style="stroke:#181818;stroke-width:0.5;" width="501.8037" x="742.5" y="303.2969"/><ellipse cx="757.5" cy="319.2969" fill="#ADD1B2" rx="11" ry="11" style="stroke:#181818;stroke-width:1;"/><path d="M760.4688,324.9375 Q759.8906,325.2344 759.25,325.375 Q758.6094,325.5313 757.9063,325.5313 Q755.4063,325.5313 754.0781,323.8906 Q752.7656,322.2344 752.7656,319.1094 Q752.7656,315.9844 754.0781,314.3281 Q755.4063,312.6719 757.9063,312.6719 Q758.6094,312.6719 759.25,312.8281 Q759.9063,312.9844 760.4688,313.2813 L760.4688,316 Q759.8438,315.4219 759.25,315.1563 Q758.6563,314.875 758.0313,314.875 Q756.6875,314.875 756,315.9531 Q755.3125,317.0156 755.3125,319.1094 Q755.3125,321.2031 756,322.2813 Q756.6875,323.3438 758.0313,323.3438 Q758.6563,323.3438 759.25,323.0781 Q759.8438,322.7969 760.4688,322.2188 L760.4688,324.9375 Z " fill="#000000"/><text fill="#000000" font-family="sans-serif" font-size="14" lengthAdjust="spacing" textLength="52.1377" x="771.5" y="324.1436">iterator</text><rect fill="#FFFFFF" height="15.9688" style="stroke:#181818;stroke-width:1;stroke-dasharray:2.0,2.0;" width="415.666" x="831.6377" y="300.2969"/><text fill="#000000" font-family="sans-serif" font-size="12" font-style="italic" lengthAdjust="spacing" textLength="413.666" x="832.6377" y="312.4355">_Category,_Tp,_Distance=ptrdiff_t,_Pointer=_Tp *,_Reference=_Tp &amp;</text><line style="stroke:#181818;stroke-width:0.5;" x1="743.5" x2="1243.3037" y1="335.2969" y2="335.2969"/><line style="stroke:#181818;stroke-width:0.5;" x1="743.5" x2="1243.3037" y1="343.2969" y2="343.2969"/></g><!--class C_0014172594989642843197--><g id="elem_C_0014172594989642843197"><rect codeLine="7" fill="#F1F1F1" height="48" id="C_0014172594989642843197" rx="2.5" ry="2.5" style="stroke:#181818;stroke-width:0.5;" width="174.6289" x="2480" y="175.2969"/><ellipse cx="2495" cy="191.2969" fill="#ADD1B2" rx="11" ry="11" style="stroke:#181818;stroke-width:1;"/><path d="M2497.9688,196.9375 Q2497.3906,197.2344 2496.75,197.375 Q2496.1094,197.5313 2495.4063,197.5313 Q2492.9063,197.5313 2491.5781,195.8906 Q2490.2656,194.2344 2490.2656,191.1094 Q2490.2656,187.9844 2491.5781,186.3281 Q2492.9063,184.6719 2495.4063,184.6719 Q2496.1094,184.6719 2496.75,184.8281 Q2497.4063,184.9844 2497.9688,185.2813 L2497.9688,188 Q2497.3438,187.4219 2496.75,187.1563 Q2496.1563,186.875 2495.5313,186.875 Q2494.1875,186.875 2493.5,187.9531 Q2492.8125,189.0156 2492.8125,191.1094 Q2492.8125,193.2031 2493.5,194.2813 Q2494.1875,195.3438 2495.5313,195.3438 Q2496.1563,195.3438 2496.75,195.0781 Q2497.3438,194.7969 2497.9688,194.2188 L2497.9688,196.9375 Z " fill="#000000"/><text fill="#000000" font-family="sans-serif" font-size="14" lengthAdjust="spacing" textLength="112.0684" x="2509" y="196.1436">reverse_iterator</text><rect fill="#FFFFFF" height="15.9688" style="stroke:#181818;stroke-width:1;stroke-dasharray:2.0,2.0;" width="28.5605" x="2629.0684" y="172.2969"/><text fill="#000000" font-family="sans-serif" font-size="12" font-style="italic" lengthAdjust="spacing" textLength="26.5605" x="2630.0684" y="184.4355">_Iter</text><line style="stroke:#181818;stroke-width:0.5;" x1="2481" x2="2653.6289" y1="207.2969" y2="207.2969"/><line style="stroke:#181818;stroke-width:0.5;" x1="2481" x2="2653.6289" y1="215.2969" y2="215.2969"/></g><!--class C_0012471832686357493722--><g id="elem_C_0012471832686357493722"><rect codeLine="11" fill="#F1F1F1" height="48" id="C_0012471832686357493722" rx="2.5" ry="2.5" style="stroke:#181818;stroke-width:0.5;" width="1595.5146" x="849.5" y="175.2969"/><ellipse cx="864.5" cy="191.2969" fill="#ADD1B2" rx="11" ry="11" style="stroke:#181818;stroke-width:1;"/><path d="M867.4688,196.9375 Q866.8906,197.2344 866.25,197.375 Q865.6094,197.5313 864.9063,197.5313 Q862.4063,197.5313 861.0781,195.8906 Q859.7656,194.2344 859.7656,191.1094 Q859.7656,187.9844 861.0781,186.3281 Q862.4063,184.6719 864.9063,184.6719 Q865.6094,184.6719 866.25,184.8281 Q866.9063,184.9844 867.4688,185.2813 L867.4688,188 Q866.8438,187.4219 866.25,187.1563 Q865.6563,186.875 865.0313,186.875 Q863.6875,186.875 863,187.9531 Q862.3125,189.0156 862.3125,191.1094 Q862.3125,193.2031 863,194.2813 Q863.6875,195.3438 865.0313,195.3438 Q865.6563,195.3438 866.25,195.0781 Q866.8438,194.7969 867.4688,194.2188 L867.4688,196.9375 Z " fill="#000000"/><text fill="#000000" font-family="sans-serif" font-size="14" lengthAdjust="spacing" textLength="52.1377" x="878.5" y="196.1436">iterator</text><rect fill="#FFFFFF" height="15.9688" style="stroke:#181818;stroke-width:1;stroke-dasharray:2.0,2.0;" width="1509.377" x="938.6377" y="172.2969"/><text fill="#000000" font-family="sans-serif" font-size="12" font-style="italic" lengthAdjust="spacing" textLength="1507.377" x="939.6377" y="184.4355">typename iterator_traits&lt;_Iterator&gt;::iterator_category,typename iterator_traits&lt;_Iterator&gt;::value_type,typename iterator_traits&lt;_Iterator&gt;::difference_type,typename iterator_traits&lt;_Iterator&gt;::pointer,typename iterator_traits&lt;_Iterator&gt;::reference</text><line style="stroke:#181818;stroke-width:0.5;" x1="850.5" x2="2444.0146" y1="207.2969" y2="207.2969"/><line style="stroke:#181818;stroke-width:0.5;" x1="850.5" x2="2444.0146" y1="215.2969" y2="215.2969"/></g><!--class C_0003742820890603540341--><g id="elem_C_0003742820890603540341"><rect codeLine="15" fill="#F1F1F1" height="48" id="C_0003742820890603540341" rx="2.5" ry="2.5" style="stroke:#181818;stroke-width:0.5;" width="198.9629" x="2468" y="303.2969"/><ellipse cx="2483" cy="319.2969" fill="#ADD1B2" rx="11" ry="11" style="stroke:#181818;stroke-width:1;"/><path d="M2485.9688,324.9375 Q2485.3906,325.2344 2484.75,325.375 Q2484.1094,325.5313 2483.4063,325.5313 Q2480.9063,325.5313 2479.5781,323.8906 Q2478.2656,322.2344 2478.2656,319.1094 Q2478.2656,315.9844 2479.5781,314.3281 Q2480.9063,312.6719 2483.4063,312.6719 Q2484.1094,312.6719 2484.75,312.8281 Q2485.4063,312.9844 2485.9688,313.2813 L2485.9688,316 Q2485.3438,315.4219 2484.75,315.1563 Q2484.1563,314.875 2483.5313,314.875 Q2482.1875,314.875 2481.5,315.9531 Q2480.8125,317.0156 2480.8125,319.1094 Q2480.8125,321.2031 2481.5,322.2813 Q2482.1875,323.3438 2483.5313,323.3438 Q2484.1563,323.3438 2484.75,323.0781 Q2485.3438,322.7969 2485.9688,322.2188 L2485.9688,324.9375 Z " fill="#000000"/><text fill="#000000" font-family="sans-serif" font-size="14" lengthAdjust="spacing" textLength="112.0684" x="2497" y="324.1436">reverse_iterator</text><rect fill="#FFFFFF" height="15.9688" style="stroke:#181818;stroke-width:1;stroke-dasharray:2.0,2.0;" width="52.8945" x="2617.0684" y="300.2969"/><text fill="#000000" font-family="sans-serif" font-size="12" font-style="italic" lengthAdjust="spacing" textLength="50.8945" x="2618.0684" y="312.4355">_Iterator</text><line style="stroke:#181818;stroke-width:0.5;" x1="2469" x2="2665.9629" y1="335.2969" y2="335.2969"/><line style="stroke:#181818;stroke-width:0.5;" x1="2469" x2="2665.9629" y1="343.2969" y2="343.2969"/></g><!--class C_0014653995113384390955--><g id="elem_C_0014653995113384390955"><rect codeLine="19" fill="#F1F1F1" height="48" id="C_0014653995113384390955" rx="2.5" ry="2.5" style="stroke:#181818;stroke-width:0.5;" width="320.9189" x="3664" y="175.2969"/><ellipse cx="3679" cy="191.2969" fill="#ADD1B2" rx="11" ry="11" style="stroke:#181818;stroke-width:1;"/><path d="M3681.9688,196.9375 Q3681.3906,197.2344 3680.75,197.375 Q3680.1094,197.5313 3679.4063,197.5313 Q3676.9063,197.5313 3675.5781,195.8906 Q3674.2656,194.2344 3674.2656,191.1094 Q3674.2656,187.9844 3675.5781,186.3281 Q3676.9063,184.6719 3679.4063,184.6719 Q3680.1094,184.6719 3680.75,184.8281 Q3681.4063,184.9844 3681.9688,185.2813 L3681.9688,188 Q3681.3438,187.4219 3680.75,187.1563 Q3680.1563,186.875 3679.5313,186.875 Q3678.1875,186.875 3677.5,187.9531 Q3676.8125,189.0156 3676.8125,191.1094 Q3676.8125,193.2031 3677.5,194.2813 Q3678.1875,195.3438 3679.5313,195.3438 Q3680.1563,195.3438 3680.75,195.0781 Q3681.3438,194.7969 3681.9688,194.2188 L3681.9688,196.9375 Z " fill="#000000"/><text fill="#000000" font-family="sans-serif" font-size="14" lengthAdjust="spacing" textLength="52.1377" x="3693" y="196.1436">iterator</text><rect fill="#FFFFFF" height="15.9688" style="stroke:#181818;stroke-width:1;stroke-dasharray:2.0,2.0;" width="234.7813" x="3753.1377" y="172.2969"/><text fill="#000000" font-family="sans-serif" font-size="12" font-style="italic" lengthAdjust="spacing" textLength="232.7813" x="3754.1377" y="184.4355">output_iterator_tag,void,void,void,void</text><line style="stroke:#181818;stroke-width:0.5;" x1="3665" x2="3983.9189" y1="207.2969" y2="207.2969"/><line style="stroke:#181818;stroke-width:0.5;" x1="3665" x2="3983.9189" y1="215.2969" y2="215.2969"/></g><!--class C_0018446524956631938981--><g id="elem_C_0018446524956631938981"><rect codeLine="23" fill="#F1F1F1" height="48" id="C_0018446524956631938981" rx="2.5" ry="2.5" style="stroke:#181818;stroke-width:0.5;" width="239.9639" x="3365.5" y="303.2969"/><ellipse cx="3380.5" cy="319.2969" fill="#ADD1B2" rx="11" ry="11" style="stroke:#181818;stroke-width:1;"/><path d="M3383.4688,324.9375 Q3382.8906,325.2344 3382.25,325.375 Q3381.6094,325.5313 3380.9063,325.5313 Q3378.4063,325.5313 3377.0781,323.8906 Q3375.7656,322.2344 3375.7656,319.1094 Q3375.7656,315.9844 3377.0781,314.3281 Q3378.4063,312.6719 3380.9063,312.6719 Q3381.6094,312.6719 3382.25,312.8281 Q3382.9063,312.9844 3383.4688,313.2813 L3383.4688,316 Q3382.8438,315.4219 3382.25,315.1563 Q3381.6563,314.875 3381.0313,314.875 Q3379.6875,314.875 3379,315.9531 Q3378.3125,317.0156 3378.3125,319.1094 Q3378.3125,321.2031 3379,322.2813 Q3379.6875,323.3438 3381.0313,323.3438 Q3381.6563,323.3438 3382.25,323.0781 Q3382.8438,322.7969 3383.4688,322.2188 L3383.4688,324.9375 Z " fill="#000000"/><text fill="#000000" font-family="sans-serif" font-size="14" lengthAdjust="spacing" textLength="139.3232" x="3394.5" y="324.1436">back_insert_iterator</text><rect fill="#FFFFFF" height="15.9688" style="stroke:#181818;stroke-width:1;stroke-dasharray:2.0,2.0;" width="66.6406" x="3541.8232" y="300.2969"/><text fill="#000000" font-family="sans-serif" font-size="12" font-style="italic" lengthAdjust="spacing" textLength="64.6406" x="3542.8232" y="312.4355">_Container</text><line style="stroke:#181818;stroke-width:0.5;" x1="3366.5" x2="3604.4639" y1="335.2969" y2="335.2969"/><line style="stroke:#181818;stroke-width:0.5;" x1="3366.5" x2="3604.4639" y1="343.2969" y2="343.2969"/></g><!--class C_0009870417718487041983--><g id="elem_C_0009870417718487041983"><rect codeLine="27" fill="#F1F1F1" height="48" id="C_0009870417718487041983" rx="2.5" ry="2.5" style="stroke:#181818;stroke-width:0.5;" width="240.3057" x="3704.5" y="303.2969"/><ellipse cx="3719.5" cy="319.2969" fill="#ADD1B2" rx="11" ry="11" style="stroke:#181818;stroke-width:1;"/><path d="M3722.4688,324.9375 Q3721.8906,325.2344 3721.25,325.375 Q3720.6094,325.5313 3719.9063,325.5313 Q3717.4063,325.5313 3716.0781,323.8906 Q3714.7656,322.2344 3714.7656,319.1094 Q3714.7656,315.9844 3716.0781,314.3281 Q3717.4063,312.6719 3719.9063,312.6719 Q3720.6094,312.6719 3721.25,312.8281 Q3721.9063,312.9844 3722.4688,313.2813 L3722.4688,316 Q3721.8438,315.4219 3721.25,315.1563 Q3720.6563,314.875 3720.0313,314.875 Q3718.6875,314.875 3718,315.9531 Q3717.3125,317.0156 3717.3125,319.1094 Q3717.3125,321.2031 3718,322.2813 Q3718.6875,323.3438 3720.0313,323.3438 Q3720.6563,323.3438 3721.25,323.0781 Q3721.8438,322.7969 3722.4688,322.2188 L3722.4688,324.9375 Z " fill="#000000"/><text fill="#000000" font-family="sans-serif" font-size="14" lengthAdjust="spacing" textLength="139.665" x="3733.5" y="324.1436">front_insert_iterator</text><rect fill="#FFFFFF" height="15.9688" style="stroke:#181818;stroke-width:1;stroke-dasharray:2.0,2.0;" width="66.6406" x="3881.165" y="300.2969"/><text fill="#000000" font-family="sans-serif" font-size="12" font-style="italic" lengthAdjust="spacing" textLength="64.6406" x="3882.165" y="312.4355">_Container</text><line style="stroke:#181818;stroke-width:0.5;" x1="3705.5" x2="3943.8057" y1="335.2969" y2="335.2969"/><line style="stroke:#181818;stroke-width:0.5;" x1="3705.5" x2="3943.8057" y1="343.2969" y2="343.2969"/></g><!--class C_0003857731205391224987--><g id="elem_C_0003857731205391224987"><rect codeLine="31" fill="#F1F1F1" height="48" id="C_0003857731205391224987" rx="2.5" ry="2.5" style="stroke:#181818;stroke-width:0.5;" width="199.6934" x="3979.5" y="303.2969"/><ellipse cx="3994.5" cy="319.2969" fill="#ADD1B2" rx="11" ry="11" style="stroke:#181818;stroke-width:1;"/><path d="M3997.4688,324.9375 Q3996.8906,325.2344 3996.25,325.375 Q3995.6094,325.5313 3994.9063,325.5313 Q3992.4063,325.5313 3991.0781,323.8906 Q3989.7656,322.2344 3989.7656,319.1094 Q3989.7656,315.9844 3991.0781,314.3281 Q3992.4063,312.6719 3994.9063,312.6719 Q3995.6094,312.6719 3996.25,312.8281 Q3996.9063,312.9844 3997.4688,313.2813 L3997.4688,316 Q3996.8438,315.4219 3996.25,315.1563 Q3995.6563,314.875 3995.0313,314.875 Q3993.6875,314.875 3993,315.9531 Q3992.3125,317.0156 3992.3125,319.1094 Q3992.3125,321.2031 3993,322.2813 Q3993.6875,323.3438 3995.0313,323.3438 Q3995.6563,323.3438 3996.25,323.0781 Q3996.8438,322.7969 3997.4688,322.2188 L3997.4688,324.9375 Z " fill="#000000"/><text fill="#000000" font-family="sans-serif" font-size="14" lengthAdjust="spacing" textLength="99.0527" x="4008.5" y="324.1436">insert_iterator</text><rect fill="#FFFFFF" height="15.9688" style="stroke:#181818;stroke-width:1;stroke-dasharray:2.0,2.0;" width="66.6406" x="4115.5527" y="300.2969"/><text fill="#000000" font-family="sans-serif" font-size="12" font-style="italic" lengthAdjust="spacing" textLength="64.6406" x="4116.5527" y="312.4355">_Container</text><line style="stroke:#181818;stroke-width:0.5;" x1="3980.5" x2="4178.1934" y1="335.2969" y2="335.2969"/><line style="stroke:#181818;stroke-width:0.5;" x1="3980.5" x2="4178.1934" y1="343.2969" y2="343.2969"/></g><!--class C_0000997856561152181668--><g id="elem_C_0000997856561152181668"><rect codeLine="35" fill="#F1F1F1" height="48" id="C_0000997856561152181668" rx="2.5" ry="2.5" style="stroke:#181818;stroke-width:0.5;" width="188.6494" x="3962" y="625.2969"/><ellipse cx="3977" cy="641.2969" fill="#ADD1B2" rx="11" ry="11" style="stroke:#181818;stroke-width:1;"/><path d="M3979.9688,646.9375 Q3979.3906,647.2344 3978.75,647.375 Q3978.1094,647.5313 3977.4063,647.5313 Q3974.9063,647.5313 3973.5781,645.8906 Q3972.2656,644.2344 3972.2656,641.1094 Q3972.2656,637.9844 3973.5781,636.3281 Q3974.9063,634.6719 3977.4063,634.6719 Q3978.1094,634.6719 3978.75,634.8281 Q3979.4063,634.9844 3979.9688,635.2813 L3979.9688,638 Q3979.3438,637.4219 3978.75,637.1563 Q3978.1563,636.875 3977.5313,636.875 Q3976.1875,636.875 3975.5,637.9531 Q3974.8125,639.0156 3974.8125,641.1094 Q3974.8125,643.2031 3975.5,644.2813 Q3976.1875,645.3438 3977.5313,645.3438 Q3978.1563,645.3438 3978.75,645.0781 Q3979.3438,644.7969 3979.9688,644.2188 L3979.9688,646.9375 Z " fill="#000000"/><text fill="#000000" font-family="sans-serif" font-size="14" lengthAdjust="spacing" textLength="93.0713" x="3991" y="646.1436">_Vector_base</text><rect fill="#FFFFFF" height="15.9688" style="stroke:#181818;stroke-width:1;stroke-dasharray:2.0,2.0;" width="61.5781" x="4092.0713" y="622.2969"/><text fill="#000000" font-family="sans-serif" font-size="12" font-style="italic" lengthAdjust="spacing" textLength="59.5781" x="4093.0713" y="634.4355">_Tp,_Alloc</text><line style="stroke:#181818;stroke-width:0.5;" x1="3963" x2="4149.6494" y1="657.2969" y2="657.2969"/><line style="stroke:#181818;stroke-width:0.5;" x1="3963" x2="4149.6494" y1="665.2969" y2="665.2969"/></g><!--class C_0018039370053612920865--><g id="elem_C_0018039370053612920865"><rect codeLine="39" fill="#F1F1F1" height="48" id="C_0018039370053612920865" rx="2.5" ry="2.5" style="stroke:#181818;stroke-width:0.5;" width="263.041" x="3925" y="439.7969"/><ellipse cx="3940" cy="455.7969" fill="#ADD1B2" rx="11" ry="11" style="stroke:#181818;stroke-width:1;"/><path d="M3942.9688,461.4375 Q3942.3906,461.7344 3941.75,461.875 Q3941.1094,462.0313 3940.4063,462.0313 Q3937.9063,462.0313 3936.5781,460.3906 Q3935.2656,458.7344 3935.2656,455.6094 Q3935.2656,452.4844 3936.5781,450.8281 Q3937.9063,449.1719 3940.4063,449.1719 Q3941.1094,449.1719 3941.75,449.3281 Q3942.4063,449.4844 3942.9688,449.7813 L3942.9688,452.5 Q3942.3438,451.9219 3941.75,451.6563 Q3941.1563,451.375 3940.5313,451.375 Q3939.1875,451.375 3938.5,452.4531 Q3937.8125,453.5156 3937.8125,455.6094 Q3937.8125,457.7031 3938.5,458.7813 Q3939.1875,459.8438 3940.5313,459.8438 Q3941.1563,459.8438 3941.75,459.5781 Q3942.3438,459.2969 3942.9688,458.7188 L3942.9688,461.4375 Z " fill="#000000"/><text fill="#000000" font-family="sans-serif" font-size="14" lengthAdjust="spacing" textLength="231.041" x="3954" y="460.6436">_Vector_base::_Vector_impl_data</text><line style="stroke:#181818;stroke-width:0.5;" x1="3926" x2="4187.041" y1="471.7969" y2="471.7969"/><line style="stroke:#181818;stroke-width:0.5;" x1="3926" x2="4187.041" y1="479.7969" y2="479.7969"/></g><!--class C_0018207793148199959866--><g id="elem_C_0018207793148199959866"><rect codeLine="43" fill="#F1F1F1" height="48" id="C_0018207793148199959866" rx="2.5" ry="2.5" style="stroke:#181818;stroke-width:0.5;" width="224.5068" x="3962" y="799.2969"/><ellipse cx="3977" cy="815.2969" fill="#ADD1B2" rx="11" ry="11" style="stroke:#181818;stroke-width:1;"/><path d="M3979.9688,820.9375 Q3979.3906,821.2344 3978.75,821.375 Q3978.1094,821.5313 3977.4063,821.5313 Q3974.9063,821.5313 3973.5781,819.8906 Q3972.2656,818.2344 3972.2656,815.1094 Q3972.2656,811.9844 3973.5781,810.3281 Q3974.9063,808.6719 3977.4063,808.6719 Q3978.1094,808.6719 3978.75,808.8281 Q3979.4063,808.9844 3979.9688,809.2813 L3979.9688,812 Q3979.3438,811.4219 3978.75,811.1563 Q3978.1563,810.875 3977.5313,810.875 Q3976.1875,810.875 3975.5,811.9531 Q3974.8125,813.0156 3974.8125,815.1094 Q3974.8125,817.2031 3975.5,818.2813 Q3976.1875,819.3438 3977.5313,819.3438 Q3978.1563,819.3438 3978.75,819.0781 Q3979.3438,818.7969 3979.9688,818.2188 L3979.9688,820.9375 Z " fill="#000000"/><text fill="#000000" font-family="sans-serif" font-size="14" lengthAdjust="spacing" textLength="192.5068" x="3991" y="820.1436">_Vector_base::_Vector_impl</text><line style="stroke:#181818;stroke-width:0.5;" x1="3963" x2="4185.5068" y1="831.2969" y2="831.2969"/><line style="stroke:#181818;stroke-width:0.5;" x1="3963" x2="4185.5068" y1="839.2969" y2="839.2969"/></g><!--class C_0007946380561791240729--><g id="elem_C_0007946380561791240729"><rect codeLine="47" fill="#F1F1F1" height="48" id="C_0007946380561791240729" rx="2.5" ry="2.5" style="stroke:#181818;stroke-width:0.5;" width="529.4727" x="1511" y="47.2969"/><ellipse cx="1526" cy="63.2969" fill="#ADD1B2" rx="11" ry="11" style="stroke:#181818;stroke-width:1;"/><path d="M1528.9688,68.9375 Q1528.3906,69.2344 1527.75,69.375 Q1527.1094,69.5313 1526.4063,69.5313 Q1523.9063,69.5313 1522.5781,67.8906 Q1521.2656,66.2344 1521.2656,63.1094 Q1521.2656,59.9844 1522.5781,58.3281 Q1523.9063,56.6719 1526.4063,56.6719 Q1527.1094,56.6719 1527.75,56.8281 Q1528.4063,56.9844 1528.9688,57.2813 L1528.9688,60 Q1528.3438,59.4219 1527.75,59.1563 Q1527.1563,58.875 1526.5313,58.875 Q1525.1875,58.875 1524.5,59.9531 Q1523.8125,61.0156 1523.8125,63.1094 Q1523.8125,65.2031 1524.5,66.2813 Q1525.1875,67.3438 1526.5313,67.3438 Q1527.1563,67.3438 1527.75,67.0781 Q1528.3438,66.7969 1528.9688,66.2188 L1528.9688,68.9375 Z " fill="#000000"/><text fill="#000000" font-family="sans-serif" font-size="14" lengthAdjust="spacing" textLength="112.0684" x="1540" y="68.1436">reverse_iterator</text><rect fill="#FFFFFF" height="15.9688" style="stroke:#181818;stroke-width:1;stroke-dasharray:2.0,2.0;" width="383.4043" x="1660.0684" y="44.2969"/><text fill="#000000" font-family="sans-serif" font-size="12" font-style="italic" lengthAdjust="spacing" text-decoration="underline" textLength="57.7148" x="1661.0684" y="56.4355">gnu_cxx::</text><text fill="#000000" font-family="sans-serif" font-size="12" font-style="italic" lengthAdjust="spacing" textLength="323.6895" x="1718.7832" y="56.4355">normal_iterator&lt;vector::pointer,vector&lt;_Tp,_Alloc&gt;&gt;</text><line style="stroke:#181818;stroke-width:0.5;" x1="1512" x2="2039.4727" y1="79.2969" y2="79.2969"/><line style="stroke:#181818;stroke-width:0.5;" x1="1512" x2="2039.4727" y1="87.2969" y2="87.2969"/></g><!--class C_0011328800956802955955--><g id="elem_C_0011328800956802955955"><rect codeLine="51" fill="#F1F1F1" height="48" id="C_0011328800956802955955" rx="2.5" ry="2.5" style="stroke:#181818;stroke-width:0.5;" width="567.9746" x="2075.5" y="47.2969"/><ellipse cx="2090.5" cy="63.2969" fill="#ADD1B2" rx="11" ry="11" style="stroke:#181818;stroke-width:1;"/><path d="M2093.4688,68.9375 Q2092.8906,69.2344 2092.25,69.375 Q2091.6094,69.5313 2090.9063,69.5313 Q2088.4063,69.5313 2087.0781,67.8906 Q2085.7656,66.2344 2085.7656,63.1094 Q2085.7656,59.9844 2087.0781,58.3281 Q2088.4063,56.6719 2090.9063,56.6719 Q2091.6094,56.6719 2092.25,56.8281 Q2092.9063,56.9844 2093.4688,57.2813 L2093.4688,60 Q2092.8438,59.4219 2092.25,59.1563 Q2091.6563,58.875 2091.0313,58.875 Q2089.6875,58.875 2089,59.9531 Q2088.3125,61.0156 2088.3125,63.1094 Q2088.3125,65.2031 2089,66.2813 Q2089.6875,67.3438 2091.0313,67.3438 Q2091.6563,67.3438 2092.25,67.0781 Q2092.8438,66.7969 2093.4688,66.2188 L2093.4688,68.9375 Z " fill="#000000"/><text fill="#000000" font-family="sans-serif" font-size="14" lengthAdjust="spacing" textLength="112.0684" x="2104.5" y="68.1436">reverse_iterator</text><rect fill="#FFFFFF" height="15.9688" style="stroke:#181818;stroke-width:1;stroke-dasharray:2.0,2.0;" width="421.9063" x="2224.5684" y="44.2969"/><text fill="#000000" font-family="sans-serif" font-size="12" font-style="italic" lengthAdjust="spacing" text-decoration="underline" textLength="57.7148" x="2225.5684" y="56.4355">gnu_cxx::</text><text fill="#000000" font-family="sans-serif" font-size="12" font-style="italic" lengthAdjust="spacing" textLength="362.1914" x="2283.2832" y="56.4355">normal_iterator&lt;vector::const_pointer,vector&lt;_Tp,_Alloc&gt;&gt;</text><line style="stroke:#181818;stroke-width:0.5;" x1="2076.5" x2="2642.4746" y1="79.2969" y2="79.2969"/><line style="stroke:#181818;stroke-width:0.5;" x1="2076.5" x2="2642.4746" y1="87.2969" y2="87.2969"/></g><!--class C_0005805017087195686008--><g id="elem_C_0005805017087195686008"><rect codeLine="55" fill="#F1F1F1" height="48" id="C_0005805017087195686008" rx="2.5" ry="2.5" style="stroke:#181818;stroke-width:0.5;" width="243.3906" x="4606" y="799.2969"/><ellipse cx="4621" cy="815.2969" fill="#ADD1B2" rx="11" ry="11" style="stroke:#181818;stroke-width:1;"/><path d="M4623.9688,820.9375 Q4623.3906,821.2344 4622.75,821.375 Q4622.1094,821.5313 4621.4063,821.5313 Q4618.9063,821.5313 4617.5781,819.8906 Q4616.2656,818.2344 4616.2656,815.1094 Q4616.2656,811.9844 4617.5781,810.3281 Q4618.9063,808.6719 4621.4063,808.6719 Q4622.1094,808.6719 4622.75,808.8281 Q4623.4063,808.9844 4623.9688,809.2813 L4623.9688,812 Q4623.3438,811.4219 4622.75,811.1563 Q4622.1563,810.875 4621.5313,810.875 Q4620.1875,810.875 4619.5,811.9531 Q4618.8125,813.0156 4618.8125,815.1094 Q4618.8125,817.2031 4619.5,818.2813 Q4620.1875,819.3438 4621.5313,819.3438 Q4622.1563,819.3438 4622.75,819.0781 Q4623.3438,818.7969 4623.9688,818.2188 L4623.9688,820.9375 Z " fill="#000000"/><text fill="#000000" font-family="sans-serif" font-size="14" lengthAdjust="spacing" textLength="44.4063" x="4635" y="820.1436">vector</text><rect fill="#FFFFFF" height="15.9688" style="stroke:#181818;stroke-width:1;stroke-dasharray:2.0,2.0;" width="164.9844" x="4687.4063" y="796.2969"/><text fill="#000000" font-family="sans-serif" font-size="12" font-style="italic" lengthAdjust="spacing" textLength="162.9844" x="4688.4063" y="808.4355">_Tp,_Alloc=allocator&lt;_Tp&gt;</text><line style="stroke:#181818;stroke-width:0.5;" x1="4607" x2="4848.3906" y1="831.2969" y2="831.2969"/><line style="stroke:#181818;stroke-width:0.5;" x1="4607" x2="4848.3906" y1="839.2969" y2="839.2969"/></g><!--class C_0011374935455579958805--><g id="elem_C_0011374935455579958805"><rect codeLine="59" fill="#F1F1F1" height="48" id="C_0011374935455579958805" rx="2.5" ry="2.5" style="stroke:#181818;stroke-width:0.5;" width="214.7109" x="4284" y="625.2969"/><ellipse cx="4299" cy="641.2969" fill="#ADD1B2" rx="11" ry="11" style="stroke:#181818;stroke-width:1;"/><path d="M4301.9688,646.9375 Q4301.3906,647.2344 4300.75,647.375 Q4300.1094,647.5313 4299.4063,647.5313 Q4296.9063,647.5313 4295.5781,645.8906 Q4294.2656,644.2344 4294.2656,641.1094 Q4294.2656,637.9844 4295.5781,636.3281 Q4296.9063,634.6719 4299.4063,634.6719 Q4300.1094,634.6719 4300.75,634.8281 Q4301.4063,634.9844 4301.9688,635.2813 L4301.9688,638 Q4301.3438,637.4219 4300.75,637.1563 Q4300.1563,636.875 4299.5313,636.875 Q4298.1875,636.875 4297.5,637.9531 Q4296.8125,639.0156 4296.8125,641.1094 Q4296.8125,643.2031 4297.5,644.2813 Q4298.1875,645.3438 4299.5313,645.3438 Q4300.1563,645.3438 4300.75,645.0781 Q4301.3438,644.7969 4301.9688,644.2188 L4301.9688,646.9375 Z " fill="#000000"/><text fill="#000000" font-family="sans-serif" font-size="14" lengthAdjust="spacing" textLength="182.7109" x="4313" y="646.1436">vector::_Temporary_value</text><line style="stroke:#181818;stroke-width:0.5;" x1="4285" x2="4497.7109" y1="657.2969" y2="657.2969"/><line style="stroke:#181818;stroke-width:0.5;" x1="4285" x2="4497.7109" y1="665.2969" y2="665.2969"/></g><!--class C_0003028152696443724275--><g id="elem_C_0003028152696443724275"><rect codeLine="63" fill="#F1F1F1" height="48" id="C_0003028152696443724275" rx="2.5" ry="2.5" style="stroke:#181818;stroke-width:0.5;" width="285.9209" x="4257.5" y="799.2969"/><ellipse cx="4272.5" cy="815.2969" fill="#ADD1B2" rx="11" ry="11" style="stroke:#181818;stroke-width:1;"/><path d="M4275.4688,820.9375 Q4274.8906,821.2344 4274.25,821.375 Q4273.6094,821.5313 4272.9063,821.5313 Q4270.4063,821.5313 4269.0781,819.8906 Q4267.7656,818.2344 4267.7656,815.1094 Q4267.7656,811.9844 4269.0781,810.3281 Q4270.4063,808.6719 4272.9063,808.6719 Q4273.6094,808.6719 4274.25,808.8281 Q4274.9063,808.9844 4275.4688,809.2813 L4275.4688,812 Q4274.8438,811.4219 4274.25,811.1563 Q4273.6563,810.875 4273.0313,810.875 Q4271.6875,810.875 4271,811.9531 Q4270.3125,813.0156 4270.3125,815.1094 Q4270.3125,817.2031 4271,818.2813 Q4271.6875,819.3438 4273.0313,819.3438 Q4273.6563,819.3438 4274.25,819.0781 Q4274.8438,818.7969 4275.4688,818.2188 L4275.4688,820.9375 Z " fill="#000000"/><text fill="#000000" font-family="sans-serif" font-size="14" lengthAdjust="spacing" textLength="253.9209" x="4286.5" y="820.1436">vector::_Temporary_value::_Storage</text><line style="stroke:#181818;stroke-width:0.5;" x1="4258.5" x2="4542.4209" y1="831.2969" y2="831.2969"/><line style="stroke:#181818;stroke-width:0.5;" x1="4258.5" x2="4542.4209" y1="839.2969" y2="839.2969"/></g><!--class C_0009918787256737058051--><g id="elem_C_0009918787256737058051"><rect codeLine="67" fill="#F1F1F1" height="48" id="C_0009918787256737058051" rx="2.5" ry="2.5" style="stroke:#181818;stroke-width:0.5;" width="139.9844" x="4976.5" y="625.2969"/><ellipse cx="4991.5" cy="641.2969" fill="#ADD1B2" rx="11" ry="11" style="stroke:#181818;stroke-width:1;"/><path d="M4994.4688,646.9375 Q4993.8906,647.2344 4993.25,647.375 Q4992.6094,647.5313 4991.9063,647.5313 Q4989.4063,647.5313 4988.0781,645.8906 Q4986.7656,644.2344 4986.7656,641.1094 Q4986.7656,637.9844 4988.0781,636.3281 Q4989.4063,634.6719 4991.9063,634.6719 Q4992.6094,634.6719 4993.25,634.8281 Q4993.9063,634.9844 4994.4688,635.2813 L4994.4688,638 Q4993.8438,637.4219 4993.25,637.1563 Q4992.6563,636.875 4992.0313,636.875 Q4990.6875,636.875 4990,637.9531 Q4989.3125,639.0156 4989.3125,641.1094 Q4989.3125,643.2031 4990,644.2813 Q4990.6875,645.3438 4992.0313,645.3438 Q4992.6563,645.3438 4993.25,645.0781 Q4993.8438,644.7969 4994.4688,644.2188 L4994.4688,646.9375 Z " fill="#000000"/><text fill="#000000" font-family="sans-serif" font-size="14" lengthAdjust="spacing" textLength="44.4063" x="5005.5" y="646.1436">vector</text><rect fill="#FFFFFF" height="15.9688" style="stroke:#181818;stroke-width:1;stroke-dasharray:2.0,2.0;" width="61.5781" x="5057.9063" y="622.2969"/><text fill="#000000" font-family="sans-serif" font-size="12" font-style="italic" lengthAdjust="spacing" textLength="59.5781" x="5058.9063" y="634.4355">_Tp,_Alloc</text><line style="stroke:#181818;stroke-width:0.5;" x1="4977.5" x2="5115.4844" y1="657.2969" y2="657.2969"/><line style="stroke:#181818;stroke-width:0.5;" x1="4977.5" x2="5115.4844" y1="665.2969" y2="665.2969"/></g><!--class C_0015444170014271291982--><g id="elem_C_0015444170014271291982"><rect codeLine="71" fill="#F1F1F1" height="48" id="C_0015444170014271291982" rx="2.5" ry="2.5" style="stroke:#181818;stroke-width:0.5;" width="286.9287" x="7" y="175.2969"/><ellipse cx="22" cy="191.2969" fill="#ADD1B2" rx="11" ry="11" style="stroke:#181818;stroke-width:1;"/><path d="M24.9688,196.9375 Q24.3906,197.2344 23.75,197.375 Q23.1094,197.5313 22.4063,197.5313 Q19.9063,197.5313 18.5781,195.8906 Q17.2656,194.2344 17.2656,191.1094 Q17.2656,187.9844 18.5781,186.3281 Q19.9063,184.6719 22.4063,184.6719 Q23.1094,184.6719 23.75,184.8281 Q24.4063,184.9844 24.9688,185.2813 L24.9688,188 Q24.3438,187.4219 23.75,187.1563 Q23.1563,186.875 22.5313,186.875 Q21.1875,186.875 20.5,187.9531 Q19.8125,189.0156 19.8125,191.1094 Q19.8125,193.2031 20.5,194.2813 Q21.1875,195.3438 22.5313,195.3438 Q23.1563,195.3438 23.75,195.0781 Q24.3438,194.7969 24.9688,194.2188 L24.9688,196.9375 Z " fill="#000000"/><text fill="#000000" font-family="sans-serif" font-size="14" lengthAdjust="spacing" textLength="52.1377" x="36" y="196.1436">iterator</text><rect fill="#FFFFFF" height="15.9688" style="stroke:#181818;stroke-width:1;stroke-dasharray:2.0,2.0;" width="200.791" x="96.1377" y="172.2969"/><text fill="#000000" font-family="sans-serif" font-size="12" font-style="italic" lengthAdjust="spacing" textLength="198.791" x="97.1377" y="184.4355">random_access_iterator_tag,bool</text><line style="stroke:#181818;stroke-width:0.5;" x1="8" x2="292.9287" y1="207.2969" y2="207.2969"/><line style="stroke:#181818;stroke-width:0.5;" x1="8" x2="292.9287" y1="215.2969" y2="215.2969"/></g><!--class C_0015581221495297226107--><g id="elem_C_0015581221495297226107"><rect codeLine="75" fill="#F1F1F1" height="48" id="C_0015581221495297226107" rx="2.5" ry="2.5" style="stroke:#181818;stroke-width:0.5;" width="157.4941" x="288" y="303.2969"/><ellipse cx="303" cy="319.2969" fill="#ADD1B2" rx="11" ry="11" style="stroke:#181818;stroke-width:1;"/><path d="M305.9688,324.9375 Q305.3906,325.2344 304.75,325.375 Q304.1094,325.5313 303.4063,325.5313 Q300.9063,325.5313 299.5781,323.8906 Q298.2656,322.2344 298.2656,319.1094 Q298.2656,315.9844 299.5781,314.3281 Q300.9063,312.6719 303.4063,312.6719 Q304.1094,312.6719 304.75,312.8281 Q305.4063,312.9844 305.9688,313.2813 L305.9688,316 Q305.3438,315.4219 304.75,315.1563 Q304.1563,314.875 303.5313,314.875 Q302.1875,314.875 301.5,315.9531 Q300.8125,317.0156 300.8125,319.1094 Q300.8125,321.2031 301.5,322.2813 Q302.1875,323.3438 303.5313,323.3438 Q304.1563,323.3438 304.75,323.0781 Q305.3438,322.7969 305.9688,322.2188 L305.9688,324.9375 Z " fill="#000000"/><text fill="#000000" font-family="sans-serif" font-size="14" lengthAdjust="spacing" textLength="125.4941" x="317" y="324.1436">_Bit_iterator_base</text><line style="stroke:#181818;stroke-width:0.5;" x1="289" x2="444.4941" y1="335.2969" y2="335.2969"/><line style="stroke:#181818;stroke-width:0.5;" x1="289" x2="444.4941" y1="343.2969" y2="343.2969"/></g><!--class C_0018068942244072229765--><g id="elem_C_0018068942244072229765"><rect codeLine="79" fill="#F1F1F1" height="48" id="C_0018068942244072229765" rx="2.5" ry="2.5" style="stroke:#181818;stroke-width:0.5;" width="117.1211" x="3357" y="439.7969"/><ellipse cx="3372" cy="455.7969" fill="#ADD1B2" rx="11" ry="11" style="stroke:#181818;stroke-width:1;"/><path d="M3374.9688,461.4375 Q3374.3906,461.7344 3373.75,461.875 Q3373.1094,462.0313 3372.4063,462.0313 Q3369.9063,462.0313 3368.5781,460.3906 Q3367.2656,458.7344 3367.2656,455.6094 Q3367.2656,452.4844 3368.5781,450.8281 Q3369.9063,449.1719 3372.4063,449.1719 Q3373.1094,449.1719 3373.75,449.3281 Q3374.4063,449.4844 3374.9688,449.7813 L3374.9688,452.5 Q3374.3438,451.9219 3373.75,451.6563 Q3373.1563,451.375 3372.5313,451.375 Q3371.1875,451.375 3370.5,452.4531 Q3369.8125,453.5156 3369.8125,455.6094 Q3369.8125,457.7031 3370.5,458.7813 Q3371.1875,459.8438 3372.5313,459.8438 Q3373.1563,459.8438 3373.75,459.5781 Q3374.3438,459.2969 3374.9688,458.7188 L3374.9688,461.4375 Z " fill="#000000"/><text fill="#000000" font-family="sans-serif" font-size="14" lengthAdjust="spacing" textLength="85.1211" x="3386" y="460.6436">_Bit_iterator</text><line style="stroke:#181818;stroke-width:0.5;" x1="3358" x2="3473.1211" y1="471.7969" y2="471.7969"/><line style="stroke:#181818;stroke-width:0.5;" x1="3358" x2="3473.1211" y1="479.7969" y2="479.7969"/></g><!--class C_0015730135622629662599--><g id="elem_C_0015730135622629662599"><rect codeLine="83" fill="#F1F1F1" height="48" id="C_0015730135622629662599" rx="2.5" ry="2.5" style="stroke:#181818;stroke-width:0.5;" width="162.04" x="285.5" y="439.7969"/><ellipse cx="300.5" cy="455.7969" fill="#ADD1B2" rx="11" ry="11" style="stroke:#181818;stroke-width:1;"/><path d="M303.4688,461.4375 Q302.8906,461.7344 302.25,461.875 Q301.6094,462.0313 300.9063,462.0313 Q298.4063,462.0313 297.0781,460.3906 Q295.7656,458.7344 295.7656,455.6094 Q295.7656,452.4844 297.0781,450.8281 Q298.4063,449.1719 300.9063,449.1719 Q301.6094,449.1719 302.25,449.3281 Q302.9063,449.4844 303.4688,449.7813 L303.4688,452.5 Q302.8438,451.9219 302.25,451.6563 Q301.6563,451.375 301.0313,451.375 Q299.6875,451.375 299,452.4531 Q298.3125,453.5156 298.3125,455.6094 Q298.3125,457.7031 299,458.7813 Q299.6875,459.8438 301.0313,459.8438 Q301.6563,459.8438 302.25,459.5781 Q302.8438,459.2969 303.4688,458.7188 L303.4688,461.4375 Z " fill="#000000"/><text fill="#000000" font-family="sans-serif" font-size="14" lengthAdjust="spacing" textLength="130.04" x="314.5" y="460.6436">_Bit_const_iterator</text><line style="stroke:#181818;stroke-width:0.5;" x1="286.5" x2="446.54" y1="471.7969" y2="471.7969"/><line style="stroke:#181818;stroke-width:0.5;" x1="286.5" x2="446.54" y1="479.7969" y2="479.7969"/></g><!--class C_0012020207555608092007--><g id="elem_C_0012020207555608092007"><rect codeLine="87" fill="#F1F1F1" height="48" id="C_0012020207555608092007" rx="2.5" ry="2.5" style="stroke:#181818;stroke-width:0.5;" width="172.2002" x="5289.5" y="439.7969"/><ellipse cx="5304.5" cy="455.7969" fill="#ADD1B2" rx="11" ry="11" style="stroke:#181818;stroke-width:1;"/><path d="M5307.4688,461.4375 Q5306.8906,461.7344 5306.25,461.875 Q5305.6094,462.0313 5304.9063,462.0313 Q5302.4063,462.0313 5301.0781,460.3906 Q5299.7656,458.7344 5299.7656,455.6094 Q5299.7656,452.4844 5301.0781,450.8281 Q5302.4063,449.1719 5304.9063,449.1719 Q5305.6094,449.1719 5306.25,449.3281 Q5306.9063,449.4844 5307.4688,449.7813 L5307.4688,452.5 Q5306.8438,451.9219 5306.25,451.6563 Q5305.6563,451.375 5305.0313,451.375 Q5303.6875,451.375 5303,452.4531 Q5302.3125,453.5156 5302.3125,455.6094 Q5302.3125,457.7031 5303,458.7813 Q5303.6875,459.8438 5305.0313,459.8438 Q5305.6563,459.8438 5306.25,459.5781 Q5306.8438,459.2969 5307.4688,458.7188 L5307.4688,461.4375 Z " fill="#000000"/><text fill="#000000" font-family="sans-serif" font-size="14" lengthAdjust="spacing" textLength="101.3838" x="5318.5" y="460.6436">_Bvector_base</text><rect fill="#FFFFFF" height="15.9688" style="stroke:#181818;stroke-width:1;stroke-dasharray:2.0,2.0;" width="36.8164" x="5427.8838" y="436.7969"/><text fill="#000000" font-family="sans-serif" font-size="12" font-style="italic" lengthAdjust="spacing" textLength="34.8164" x="5428.8838" y="448.9355">_Alloc</text><line style="stroke:#181818;stroke-width:0.5;" x1="5290.5" x2="5460.7002" y1="471.7969" y2="471.7969"/><line style="stroke:#181818;stroke-width:0.5;" x1="5290.5" x2="5460.7002" y1="479.7969" y2="479.7969"/></g><!--class C_0003860519816965633390--><g id="elem_C_0003860519816965633390"><rect codeLine="91" fill="#F1F1F1" height="48" id="C_0003860519816965633390" rx="2.5" ry="2.5" style="stroke:#181818;stroke-width:0.5;" width="279.666" x="4214.5" y="303.2969"/><ellipse cx="4229.5" cy="319.2969" fill="#ADD1B2" rx="11" ry="11" style="stroke:#181818;stroke-width:1;"/><path d="M4232.4688,324.9375 Q4231.8906,325.2344 4231.25,325.375 Q4230.6094,325.5313 4229.9063,325.5313 Q4227.4063,325.5313 4226.0781,323.8906 Q4224.7656,322.2344 4224.7656,319.1094 Q4224.7656,315.9844 4226.0781,314.3281 Q4227.4063,312.6719 4229.9063,312.6719 Q4230.6094,312.6719 4231.25,312.8281 Q4231.9063,312.9844 4232.4688,313.2813 L4232.4688,316 Q4231.8438,315.4219 4231.25,315.1563 Q4230.6563,314.875 4230.0313,314.875 Q4228.6875,314.875 4228,315.9531 Q4227.3125,317.0156 4227.3125,319.1094 Q4227.3125,321.2031 4228,322.2813 Q4228.6875,323.3438 4230.0313,323.3438 Q4230.6563,323.3438 4231.25,323.0781 Q4231.8438,322.7969 4232.4688,322.2188 L4232.4688,324.9375 Z " fill="#000000"/><text fill="#000000" font-family="sans-serif" font-size="14" lengthAdjust="spacing" textLength="247.666" x="4243.5" y="324.1436">_Bvector_base::_Bvector_impl_data</text><line style="stroke:#181818;stroke-width:0.5;" x1="4215.5" x2="4493.166" y1="335.2969" y2="335.2969"/><line style="stroke:#181818;stroke-width:0.5;" x1="4215.5" x2="4493.166" y1="343.2969" y2="343.2969"/></g><!--class C_0010744634881075136595--><g id="elem_C_0010744634881075136595"><rect codeLine="95" fill="#F1F1F1" height="48" id="C_0010744634881075136595" rx="2.5" ry="2.5" style="stroke:#181818;stroke-width:0.5;" width="241.1318" x="5498" y="625.2969"/><ellipse cx="5513" cy="641.2969" fill="#ADD1B2" rx="11" ry="11" style="stroke:#181818;stroke-width:1;"/><path d="M5515.9688,646.9375 Q5515.3906,647.2344 5514.75,647.375 Q5514.1094,647.5313 5513.4063,647.5313 Q5510.9063,647.5313 5509.5781,645.8906 Q5508.2656,644.2344 5508.2656,641.1094 Q5508.2656,637.9844 5509.5781,636.3281 Q5510.9063,634.6719 5513.4063,634.6719 Q5514.1094,634.6719 5514.75,634.8281 Q5515.4063,634.9844 5515.9688,635.2813 L5515.9688,638 Q5515.3438,637.4219 5514.75,637.1563 Q5514.1563,636.875 5513.5313,636.875 Q5512.1875,636.875 5511.5,637.9531 Q5510.8125,639.0156 5510.8125,641.1094 Q5510.8125,643.2031 5511.5,644.2813 Q5512.1875,645.3438 5513.5313,645.3438 Q5514.1563,645.3438 5514.75,645.0781 Q5515.3438,644.7969 5515.9688,644.2188 L5515.9688,646.9375 Z " fill="#000000"/><text fill="#000000" font-family="sans-serif" font-size="14" lengthAdjust="spacing" textLength="209.1318" x="5527" y="646.1436">_Bvector_base::_Bvector_impl</text><line style="stroke:#181818;stroke-width:0.5;" x1="5499" x2="5738.1318" y1="657.2969" y2="657.2969"/><line style="stroke:#181818;stroke-width:0.5;" x1="5499" x2="5738.1318" y1="665.2969" y2="665.2969"/></g><!--class C_0016172396674571732333--><g id="elem_C_0016172396674571732333"><rect codeLine="99" fill="#F1F1F1" height="48" id="C_0016172396674571732333" rx="2.5" ry="2.5" style="stroke:#181818;stroke-width:0.5;" width="192.7578" x="2679" y="47.2969"/><ellipse cx="2694" cy="63.2969" fill="#ADD1B2" rx="11" ry="11" style="stroke:#181818;stroke-width:1;"/><path d="M2696.9688,68.9375 Q2696.3906,69.2344 2695.75,69.375 Q2695.1094,69.5313 2694.4063,69.5313 Q2691.9063,69.5313 2690.5781,67.8906 Q2689.2656,66.2344 2689.2656,63.1094 Q2689.2656,59.9844 2690.5781,58.3281 Q2691.9063,56.6719 2694.4063,56.6719 Q2695.1094,56.6719 2695.75,56.8281 Q2696.4063,56.9844 2696.9688,57.2813 L2696.9688,60 Q2696.3438,59.4219 2695.75,59.1563 Q2695.1563,58.875 2694.5313,58.875 Q2693.1875,58.875 2692.5,59.9531 Q2691.8125,61.0156 2691.8125,63.1094 Q2691.8125,65.2031 2692.5,66.2813 Q2693.1875,67.3438 2694.5313,67.3438 Q2695.1563,67.3438 2695.75,67.0781 Q2696.3438,66.7969 2696.9688,66.2188 L2696.9688,68.9375 Z " fill="#000000"/><text fill="#000000" font-family="sans-serif" font-size="14" lengthAdjust="spacing" textLength="112.0684" x="2708" y="68.1436">reverse_iterator</text><rect fill="#FFFFFF" height="15.9688" style="stroke:#181818;stroke-width:1;stroke-dasharray:2.0,2.0;" width="46.6895" x="2828.0684" y="44.2969"/><text fill="#000000" font-family="sans-serif" font-size="12" font-style="italic" lengthAdjust="spacing" textLength="44.6895" x="2829.0684" y="56.4355">iterator</text><line style="stroke:#181818;stroke-width:0.5;" x1="2680" x2="2870.7578" y1="79.2969" y2="79.2969"/><line style="stroke:#181818;stroke-width:0.5;" x1="2680" x2="2870.7578" y1="87.2969" y2="87.2969"/></g><!--class C_0006440291576529819714--><g id="elem_C_0006440291576529819714"><rect codeLine="103" fill="#F1F1F1" height="48" id="C_0006440291576529819714" rx="2.5" ry="2.5" style="stroke:#181818;stroke-width:0.5;" width="231.2598" x="2907" y="47.2969"/><ellipse cx="2922" cy="63.2969" fill="#ADD1B2" rx="11" ry="11" style="stroke:#181818;stroke-width:1;"/><path d="M2924.9688,68.9375 Q2924.3906,69.2344 2923.75,69.375 Q2923.1094,69.5313 2922.4063,69.5313 Q2919.9063,69.5313 2918.5781,67.8906 Q2917.2656,66.2344 2917.2656,63.1094 Q2917.2656,59.9844 2918.5781,58.3281 Q2919.9063,56.6719 2922.4063,56.6719 Q2923.1094,56.6719 2923.75,56.8281 Q2924.4063,56.9844 2924.9688,57.2813 L2924.9688,60 Q2924.3438,59.4219 2923.75,59.1563 Q2923.1563,58.875 2922.5313,58.875 Q2921.1875,58.875 2920.5,59.9531 Q2919.8125,61.0156 2919.8125,63.1094 Q2919.8125,65.2031 2920.5,66.2813 Q2921.1875,67.3438 2922.5313,67.3438 Q2923.1563,67.3438 2923.75,67.0781 Q2924.3438,66.7969 2924.9688,66.2188 L2924.9688,68.9375 Z " fill="#000000"/><text fill="#000000" font-family="sans-serif" font-size="14" lengthAdjust="spacing" textLength="112.0684" x="2936" y="68.1436">reverse_iterator</text><rect fill="#FFFFFF" height="15.9688" style="stroke:#181818;stroke-width:1;stroke-dasharray:2.0,2.0;" width="85.1914" x="3056.0684" y="44.2969"/><text fill="#000000" font-family="sans-serif" font-size="12" font-style="italic" lengthAdjust="spacing" textLength="83.1914" x="3057.0684" y="56.4355">const_iterator</text><line style="stroke:#181818;stroke-width:0.5;" x1="2908" x2="3137.2598" y1="79.2969" y2="79.2969"/><line style="stroke:#181818;stroke-width:0.5;" x1="2908" x2="3137.2598" y1="87.2969" y2="87.2969"/></g><!--class C_0002261458041236941641--><g id="elem_C_0002261458041236941641"><rect codeLine="107" fill="#F1F1F1" height="48" id="C_0002261458041236941641" rx="2.5" ry="2.5" style="stroke:#181818;stroke-width:0.5;" width="144.6719" x="4796" y="625.2969"/><ellipse cx="4811" cy="641.2969" fill="#ADD1B2" rx="11" ry="11" style="stroke:#181818;stroke-width:1;"/><path d="M4813.9688,646.9375 Q4813.3906,647.2344 4812.75,647.375 Q4812.1094,647.5313 4811.4063,647.5313 Q4808.9063,647.5313 4807.5781,645.8906 Q4806.2656,644.2344 4806.2656,641.1094 Q4806.2656,637.9844 4807.5781,636.3281 Q4808.9063,634.6719 4811.4063,634.6719 Q4812.1094,634.6719 4812.75,634.8281 Q4813.4063,634.9844 4813.9688,635.2813 L4813.9688,638 Q4813.3438,637.4219 4812.75,637.1563 Q4812.1563,636.875 4811.5313,636.875 Q4810.1875,636.875 4809.5,637.9531 Q4808.8125,639.0156 4808.8125,641.1094 Q4808.8125,643.2031 4809.5,644.2813 Q4810.1875,645.3438 4811.5313,645.3438 Q4812.1563,645.3438 4812.75,645.0781 Q4813.3438,644.7969 4813.9688,644.2188 L4813.9688,646.9375 Z " fill="#000000"/><text fill="#000000" font-family="sans-serif" font-size="14" lengthAdjust="spacing" textLength="44.4063" x="4825" y="646.1436">vector</text><rect fill="#FFFFFF" height="15.9688" style="stroke:#181818;stroke-width:1;stroke-dasharray:2.0,2.0;" width="66.2656" x="4877.4063" y="622.2969"/><text fill="#000000" font-family="sans-serif" font-size="12" font-style="italic" lengthAdjust="spacing" textLength="64.2656" x="4878.4063" y="634.4355">bool,_Alloc</text><line style="stroke:#181818;stroke-width:0.5;" x1="4797" x2="4939.6719" y1="657.2969" y2="657.2969"/><line style="stroke:#181818;stroke-width:0.5;" x1="4797" x2="4939.6719" y1="665.2969" y2="665.2969"/></g><!--class C_0009937165181912686464--><g id="elem_C_0009937165181912686464"><rect codeLine="111" fill="#F1F1F1" height="48" id="C_0009937165181912686464" rx="2.5" ry="2.5" style="stroke:#181818;stroke-width:0.5;" width="311.3594" x="5152" y="625.2969"/><ellipse cx="5167" cy="641.2969" fill="#ADD1B2" rx="11" ry="11" style="stroke:#181818;stroke-width:1;"/><path d="M5169.9688,646.9375 Q5169.3906,647.2344 5168.75,647.375 Q5168.1094,647.5313 5167.4063,647.5313 Q5164.9063,647.5313 5163.5781,645.8906 Q5162.2656,644.2344 5162.2656,641.1094 Q5162.2656,637.9844 5163.5781,636.3281 Q5164.9063,634.6719 5167.4063,634.6719 Q5168.1094,634.6719 5168.75,634.8281 Q5169.4063,634.9844 5169.9688,635.2813 L5169.9688,638 Q5169.3438,637.4219 5168.75,637.1563 Q5168.1563,636.875 5167.5313,636.875 Q5166.1875,636.875 5165.5,637.9531 Q5164.8125,639.0156 5164.8125,641.1094 Q5164.8125,643.2031 5165.5,644.2813 Q5166.1875,645.3438 5167.5313,645.3438 Q5168.1563,645.3438 5168.75,645.0781 Q5169.3438,644.7969 5169.9688,644.2188 L5169.9688,646.9375 Z " fill="#000000"/><text fill="#000000" font-family="sans-serif" font-size="14" lengthAdjust="spacing" textLength="44.4063" x="5181" y="646.1436">vector</text><rect fill="#FFFFFF" height="15.9688" style="stroke:#181818;stroke-width:1;stroke-dasharray:2.0,2.0;" width="232.9531" x="5233.4063" y="622.2969"/><text fill="#000000" font-family="sans-serif" font-size="12" font-style="italic" lengthAdjust="spacing" textLength="230.9531" x="5234.4063" y="634.4355">_Tp,pmr::polymorphic_allocator&lt;_Tp&gt;</text><line style="stroke:#181818;stroke-width:0.5;" x1="5153" x2="5462.3594" y1="657.2969" y2="657.2969"/><line style="stroke:#181818;stroke-width:0.5;" x1="5153" x2="5462.3594" y1="665.2969" y2="665.2969"/></g><g id="elem_GMN61"><path d="M329,179.2969 L329,219.5625 A0,0 0 0 0 329,219.5625 L631.59,219.5625 L916.25,303.2269 L639.59,219.5625 L814.458,219.5625 A0,0 0 0 0 814.458,219.5625 L814.458,189.2969 L804.458,179.2969 L329,179.2969 A0,0 0 0 0 329,179.2969 " fill="#FEFFDD" style="stroke:#181818;stroke-width:0.5;"/><path d="M804.458,179.2969 L804.458,189.2969 L814.458,189.2969 L804.458,179.2969 " fill="#FEFFDD" style="stroke:#181818;stroke-width:0.5;"/><text fill="#000000" font-family="sans-serif" font-size="13" lengthAdjust="spacing" textLength="456.1934" x="343.2646" y="196.3638">This class does nothing but define nested typedefs.  %Iterator classes</text><text fill="#000000" font-family="sans-serif" font-size="13" lengthAdjust="spacing" textLength="159.4404" x="335" y="211.4966">can inherit from this cl...</text></g><g id="elem_GMN64"><path d="M2690.5,163.7969 L2690.5,234.3281 A0,0 0 0 0 2690.5,234.3281 L2829.73,234.3281 L2634.73,303.2169 L2837.73,234.3281 L3178.332,234.3281 A0,0 0 0 0 3178.332,234.3281 L3178.332,173.7969 L3168.332,163.7969 L2690.5,163.7969 A0,0 0 0 0 2690.5,163.7969 " fill="#FEFFDD" style="stroke:#181818;stroke-width:0.5;"/><path d="M3168.332,163.7969 L3168.332,173.7969 L3178.332,173.7969 L3168.332,163.7969 " fill="#FEFFDD" style="stroke:#181818;stroke-width:0.5;"/><text fill="#000000" font-family="sans-serif" font-size="13" lengthAdjust="spacing" textLength="157.6377" x="2713.0293" y="180.8638">24.4.1 Reverse iterators</text><text fill="#000000" font-family="sans-serif" font-size="13" lengthAdjust="spacing" textLength="4.1323" x="2696.5" y="195.9966">&#160;</text><text fill="#000000" font-family="sans-serif" font-size="13" lengthAdjust="spacing" textLength="458.5674" x="2704.7646" y="211.1294">Bidirectional and random access iterators have corresponding reverse</text><text fill="#000000" font-family="sans-serif" font-size="13" lengthAdjust="spacing" textLength="12.397" x="2696.5" y="226.2622">...</text></g><g id="elem_GMN67"><path d="M3214,156.2969 L3214,241.9609 A0,0 0 0 0 3214,241.9609 L3438.99,241.9609 L3473.67,303.0069 L3446.99,241.9609 L3628.8149,241.9609 A0,0 0 0 0 3628.8149,241.9609 L3628.8149,166.2969 L3618.8149,156.2969 L3214,156.2969 A0,0 0 0 0 3214,156.2969 " fill="#FEFFDD" style="stroke:#181818;stroke-width:0.5;"/><path d="M3618.8149,156.2969 L3618.8149,166.2969 L3628.8149,166.2969 L3618.8149,156.2969 " fill="#FEFFDD" style="stroke:#181818;stroke-width:0.5;"/><text fill="#000000" font-family="sans-serif" font-size="13" lengthAdjust="spacing" textLength="199.6592" x="3228.2646" y="173.3638">24.4.2.2.1 back_insert_iterator</text><text fill="#000000" font-family="sans-serif" font-size="13" lengthAdjust="spacing" textLength="4.1323" x="3220" y="188.4966">&#160;</text><text fill="#000000" font-family="sans-serif" font-size="13" lengthAdjust="spacing" textLength="4.1323" x="3220" y="203.6294">&#160;</text><text fill="#000000" font-family="sans-serif" font-size="13" lengthAdjust="spacing" textLength="4.1323" x="3220" y="218.7622">&#160;</text><text fill="#000000" font-family="sans-serif" font-size="13" lengthAdjust="spacing" textLength="393.8149" x="3220" y="233.895">These are output iterators, constructed from a container-o...</text></g><g id="elem_GMN70"><path d="M4020.5,179.2969 L4020.5,219.5625 A0,0 0 0 0 4020.5,219.5625 L4169.93,219.5625 L3899.92,303.2269 L4177.93,219.5625 L4452.5234,219.5625 A0,0 0 0 0 4452.5234,219.5625 L4452.5234,189.2969 L4442.5234,179.2969 L4020.5,179.2969 A0,0 0 0 0 4020.5,179.2969 " fill="#FEFFDD" style="stroke:#181818;stroke-width:0.5;"/><path d="M4442.5234,179.2969 L4442.5234,189.2969 L4452.5234,189.2969 L4442.5234,179.2969 " fill="#FEFFDD" style="stroke:#181818;stroke-width:0.5;"/><text fill="#000000" font-family="sans-serif" font-size="13" lengthAdjust="spacing" textLength="402.7588" x="4034.7646" y="196.3638">These are output iterators, constructed from a container-of-T.</text><text fill="#000000" font-family="sans-serif" font-size="13" lengthAdjust="spacing" textLength="212.1387" x="4026.5" y="211.4966">Assigning a T to the iterator pr...</text></g><g id="elem_GMN73"><path d="M4487.5,179.2969 L4487.5,219.5625 A0,0 0 0 0 4487.5,219.5625 L4605.07,219.5625 L4179.68,306.0669 L4613.07,219.5625 L4919.5234,219.5625 A0,0 0 0 0 4919.5234,219.5625 L4919.5234,189.2969 L4909.5234,179.2969 L4487.5,179.2969 A0,0 0 0 0 4487.5,179.2969 " fill="#FEFFDD" style="stroke:#181818;stroke-width:0.5;"/><path d="M4909.5234,179.2969 L4909.5234,189.2969 L4919.5234,189.2969 L4909.5234,179.2969 " fill="#FEFFDD" style="stroke:#181818;stroke-width:0.5;"/><text fill="#000000" font-family="sans-serif" font-size="13" lengthAdjust="spacing" textLength="402.7588" x="4501.7646" y="196.3638">These are output iterators, constructed from a container-of-T.</text><text fill="#000000" font-family="sans-serif" font-size="13" lengthAdjust="spacing" textLength="210.3931" x="4493.5" y="211.4966">Assigning a T to the iterator in...</text></g><g id="elem_GMN76"><path d="M3509,451.2969 L3509,476.4297 A0,0 0 0 0 3509,476.4297 L3718.1,476.4297 L4011.68,625.2569 L3726.1,476.4297 L3889.7915,476.4297 A0,0 0 0 0 3889.7915,476.4297 L3889.7915,461.2969 L3879.7915,451.2969 L3509,451.2969 A0,0 0 0 0 3509,451.2969 " fill="#FEFFDD" style="stroke:#181818;stroke-width:0.5;"/><path d="M3879.7915,451.2969 L3879.7915,461.2969 L3889.7915,461.2969 L3879.7915,451.2969 " fill="#FEFFDD" style="stroke:#181818;stroke-width:0.5;"/><text fill="#000000" font-family="sans-serif" font-size="13" lengthAdjust="spacing" textLength="359.7915" x="3515" y="468.3638">See bits/stl_deque.h's _Deque_base for an explanation.</text></g><g id="elem_GMN79"><path d="M4534,576.2969 L4534,722.4922 A0,0 0 0 0 4534,722.4922 L4677.2,722.4922 L4716.66,798.9969 L4685.2,722.4922 L4760.6641,722.4922 A0,0 0 0 0 4760.6641,722.4922 L4760.6641,586.2969 L4750.6641,576.2969 L4534,576.2969 A0,0 0 0 0 4534,576.2969 " fill="#FEFFDD" style="stroke:#181818;stroke-width:0.5;"/><path d="M4750.6641,576.2969 L4750.6641,586.2969 L4760.6641,586.2969 L4750.6641,576.2969 " fill="#FEFFDD" style="stroke:#181818;stroke-width:0.5;"/><text fill="#000000" font-family="sans-serif" font-size="13" lengthAdjust="spacing" textLength="185.0024" x="4556.5293" y="593.3638">Meets the requirements of a</text><text fill="#000000" font-family="sans-serif" font-size="13" lengthAdjust="spacing" textLength="61.5977" x="4540" y="608.4966">container</text><text fill="#000000" font-family="sans-serif" font-size="13" lengthAdjust="spacing" textLength="16.231" x="4540" y="623.6294">, a</text><text fill="#000000" font-family="sans-serif" font-size="13" lengthAdjust="spacing" textLength="8.2646" x="4540" y="638.7622">&#160;&#160;</text><text fill="#000000" font-family="sans-serif" font-size="13" lengthAdjust="spacing" textLength="130.3555" x="4540" y="653.895">reversible container</text><text fill="#000000" font-family="sans-serif" font-size="13" lengthAdjust="spacing" textLength="44.8208" x="4540" y="669.0278">, and a</text><text fill="#000000" font-family="sans-serif" font-size="13" lengthAdjust="spacing" textLength="8.2646" x="4540" y="684.1606">&#160;&#160;</text><text fill="#000000" font-family="sans-serif" font-size="13" lengthAdjust="spacing" textLength="62.645" x="4540" y="699.2935">sequence</text><text fill="#000000" font-family="sans-serif" font-size="13" lengthAdjust="spacing" textLength="71.6143" x="4540" y="714.4263">, includin...</text></g><g id="elem_GMN82"><path d="M4223,443.7969 L4223,484.0625 A0,0 0 0 0 4223,484.0625 L4432.24,484.0625 L4397.78,625.2669 L4440.24,484.0625 L4659.981,484.0625 A0,0 0 0 0 4659.981,484.0625 L4659.981,453.7969 L4649.981,443.7969 L4223,443.7969 A0,0 0 0 0 4223,443.7969 " fill="#FEFFDD" style="stroke:#181818;stroke-width:0.5;"/><path d="M4649.981,443.7969 L4649.981,453.7969 L4659.981,453.7969 L4649.981,443.7969 " fill="#FEFFDD" style="stroke:#181818;stroke-width:0.5;"/><text fill="#000000" font-family="sans-serif" font-size="13" lengthAdjust="spacing" textLength="403.584" x="4241.397" y="460.8638">A value_type object constructed with _Alloc_traits::construct()</text><text fill="#000000" font-family="sans-serif" font-size="13" lengthAdjust="spacing" textLength="220.3018" x="4229" y="475.9966">and destroyed with _Alloc_traits...</text></g><g id="elem_GMN85"><path d="M4695,428.2969 L4695,498.8281 A0,0 0 0 0 4695,498.8281 L4871.81,498.8281 L4869.63,625.2569 L4879.81,498.8281 L5060.4302,498.8281 A0,0 0 0 0 5060.4302,498.8281 L5060.4302,438.2969 L5050.4302,428.2969 L4695,428.2969 A0,0 0 0 0 4695,428.2969 " fill="#FEFFDD" style="stroke:#181818;stroke-width:0.5;"/><path d="M5050.4302,428.2969 L5050.4302,438.2969 L5060.4302,438.2969 L5050.4302,428.2969 " fill="#FEFFDD" style="stroke:#181818;stroke-width:0.5;"/><text fill="#000000" font-family="sans-serif" font-size="13" lengthAdjust="spacing" textLength="106.6724" x="4717.5293" y="445.3638">Note that vector</text><text fill="#000000" font-family="sans-serif" font-size="13" lengthAdjust="spacing" textLength="38.6636" x="4701" y="460.4966">&lt;bool</text><text fill="#000000" font-family="sans-serif" font-size="13" lengthAdjust="spacing" textLength="344.4302" x="4701" y="475.6294">&gt; does not actually meet the requirements for being</text><text fill="#000000" font-family="sans-serif" font-size="13" lengthAdjust="spacing" textLength="132.7993" x="4709.2646" y="490.7622">a container.  This i...</text></g><!--link C_0014172594989642843197 to C_0003742820890603540341--><g id="link_C_0014172594989642843197_C_0003742820890603540341"><path codeLine="114" d="M2567.5,223.4069 C2567.5,245.9969 2567.5,262.2169 2567.5,284.9069 " fill="transparent" id="C_0014172594989642843197-to-C_0003742820890603540341" style="stroke:#181818;stroke-width:1;stroke-dasharray:7.0,7.0;"/><polygon fill="transparent" points="2567.5,302.9069,2573.5,284.9069,2561.5,284.9069,2567.5,302.9069" style="stroke:#181818;stroke-width:1;"/></g><!--link C_0012471832686357493722 to C_0016384363037466094568--><g id="link_C_0012471832686357493722_C_0016384363037466094568"><path codeLine="115" d="M1527.93,223.3369 C1410.07,246.0369 1248.6549,277.1414 1130.7849,299.8514 " fill="transparent" id="C_0012471832686357493722-to-C_0016384363037466094568" style="stroke:#181818;stroke-width:1;stroke-dasharray:7.0,7.0;"/><polygon fill="transparent" points="1113.11,303.2569,1131.9201,305.7431,1129.6498,293.9598,1113.11,303.2569" style="stroke:#181818;stroke-width:1;"/></g><!--reverse link C_0012471832686357493722 to C_0003742820890603540341--><g id="link_C_0012471832686357493722_C_0003742820890603540341"><path codeLine="116" d="M1833.2735,225.7395 C2024.0435,251.8695 2311.26,291.2069 2467.77,312.6369 " fill="transparent" id="C_0012471832686357493722-backto-C_0003742820890603540341" style="stroke:#181818;stroke-width:1;"/><polygon fill="transparent" points="1815.44,223.2969,1832.4593,231.684,1834.0877,219.7951,1815.44,223.2969" style="stroke:#181818;stroke-width:1;"/></g><!--link C_0014653995113384390955 to C_0016384363037466094568--><g id="link_C_0014653995113384390955_C_0016384363037466094568"><path codeLine="117" d="M3742.27,223.3269 C3712.36,230.7369 3678.13,238.1069 3646.5,242.2969 C3413.02,273.2269 1878.5261,307.9505 1262.6061,320.8305 " fill="transparent" id="C_0014653995113384390955-to-C_0016384363037466094568" style="stroke:#181818;stroke-width:1;stroke-dasharray:7.0,7.0;"/><polygon fill="transparent" points="1244.61,321.2069,1262.7315,326.8292,1262.4806,314.8319,1244.61,321.2069" style="stroke:#181818;stroke-width:1;"/></g><!--reverse link C_0014653995113384390955 to C_0018446524956631938981--><g id="link_C_0014653995113384390955_C_0018446524956631938981"><path codeLine="118" d="M3745.4479,229.6783 C3684.3779,252.3783 3608.6,280.5369 3547.57,303.2269 " fill="transparent" id="C_0014653995113384390955-backto-C_0018446524956631938981" style="stroke:#181818;stroke-width:1;"/><polygon fill="transparent" points="3762.32,223.4069,3743.3574,224.0543,3747.5383,235.3024,3762.32,223.4069" style="stroke:#181818;stroke-width:1;"/></g><!--reverse link C_0014653995113384390955 to C_0009870417718487041983--><g id="link_C_0014653995113384390955_C_0009870417718487041983"><path codeLine="119" d="M3824.5,241.4069 C3824.5,263.9969 3824.5,280.2169 3824.5,302.9069 " fill="transparent" id="C_0014653995113384390955-backto-C_0009870417718487041983" style="stroke:#181818;stroke-width:1;"/><polygon fill="transparent" points="3824.5,223.4069,3818.5,241.4069,3830.5,241.4069,3824.5,223.4069" style="stroke:#181818;stroke-width:1;"/></g><!--reverse link C_0014653995113384390955 to C_0003857731205391224987--><g id="link_C_0014653995113384390955_C_0003857731205391224987"><path codeLine="120" d="M3887.4082,231.3792 C3933.2782,254.0392 3986.68,280.4369 4032.59,303.1169 " fill="transparent" id="C_0014653995113384390955-backto-C_0003857731205391224987" style="stroke:#181818;stroke-width:1;"/><polygon fill="transparent" points="3871.27,223.4069,3884.7508,236.7586,3890.0657,225.9998,3871.27,223.4069" style="stroke:#181818;stroke-width:1;"/></g><!--reverse link C_0000997856561152181668 to C_0018207793148199959866--><g id="link_C_0000997856561152181668_C_0018207793148199959866"><path codeLine="121" d="M4041.3654,684.7374 C4031.6854,709.0774 4024.9,737.0069 4035.5,769.2969 C4039.03,780.0469 4045.66,790.4069 4052.47,799.0669 " fill="transparent" id="C_0000997856561152181668-backto-C_0018207793148199959866" style="stroke:#181818;stroke-width:1;"/><polygon fill="transparent" points="4045.8,673.5869,4039.8659,677.684,4041.3654,684.7374,4047.2996,680.6403,4045.8,673.5869" style="stroke:#181818;stroke-width:1;"/><ellipse cx="4041.5" cy="761.3633" fill="transparent" rx="3" ry="3" style="stroke:#038048;stroke-width:1;"/><text fill="#000000" font-family="sans-serif" font-size="13" lengthAdjust="spacing" textLength="52.3555" x="4048.5" y="765.3638">_M_impl</text></g><!--link C_0018207793148199959866 to C_0000997856561152181668--><g id="link_C_0018207793148199959866_C_0000997856561152181668"><path codeLine="123" d="M4093.24,799.1069 C4101.77,785.8369 4109.22,768.6269 4105.5,752.2969 C4098.96,723.5669 4091.4342,707.2412 4079.5542,687.2512 " fill="transparent" id="C_0018207793148199959866-to-C_0000997856561152181668" style="stroke:#181818;stroke-width:1;"/><ellipse cx="4075.4671" cy="680.3741" fill="#FFFFFF" rx="8" ry="8" style="stroke:#181818;stroke-width:1;"/><line style="stroke:#181818;stroke-width:1;" x1="4079.5542" x2="4071.38" y1="687.2512" y2="673.4969"/><line style="stroke:#181818;stroke-width:1;" x1="4068.5899" x2="4082.3443" y1="684.4612" y2="676.287"/></g><!--link C_0018039370053612920865 to C_0000997856561152181668--><g id="link_C_0018039370053612920865_C_0000997856561152181668"><path codeLine="122" d="M4056.5,488.0369 C4056.5,523.3369 4056.5,574.0569 4056.5,609.2469 " fill="transparent" id="C_0018039370053612920865-to-C_0000997856561152181668" style="stroke:#181818;stroke-width:1;"/><ellipse cx="4056.5" cy="617.2469" fill="#FFFFFF" rx="8" ry="8" style="stroke:#181818;stroke-width:1;"/><line style="stroke:#181818;stroke-width:1;" x1="4056.5" x2="4056.5" y1="609.2469" y2="625.2469"/><line style="stroke:#181818;stroke-width:1;" x1="4064.5" x2="4048.5" y1="617.2469" y2="617.2469"/></g><!--link C_0007946380561791240729 to C_0014172594989642843197--><g id="link_C_0007946380561791240729_C_0014172594989642843197"><path codeLine="124" d="M2019.72,95.3069 C2182.76,111.9669 2381.72,135.1869 2463.5,156.2969 C2481.79,161.0169 2484.5349,161.2731 2501.5249,168.3531 " fill="transparent" id="C_0007946380561791240729-to-C_0014172594989642843197" style="stroke:#181818;stroke-width:1;stroke-dasharray:7.0,7.0;"/><polygon fill="transparent" points="2518.14,175.2769,2503.8328,162.8147,2499.217,173.8915,2518.14,175.2769" style="stroke:#181818;stroke-width:1;"/></g><!--link C_0011328800956802955955 to C_0014172594989642843197--><g id="link_C_0011328800956802955955_C_0014172594989642843197"><path codeLine="125" d="M2397.65,95.4069 C2435.06,118.0669 2476.3933,143.1125 2513.8433,165.7925 " fill="transparent" id="C_0011328800956802955955-to-C_0014172594989642843197" style="stroke:#181818;stroke-width:1;stroke-dasharray:7.0,7.0;"/><polygon fill="transparent" points="2529.24,175.1169,2516.9515,160.6603,2510.7352,170.9248,2529.24,175.1169" style="stroke:#181818;stroke-width:1;"/></g><!--reverse link C_0000997856561152181668 to C_0005805017087195686008--><g id="link_C_0000997856561152181668_C_0005805017087195686008"><path codeLine="126" d="M4131.3463,679.664 C4173.0463,695.434 4214.11,709.3969 4266.5,722.2969 C4351.64,743.2669 4375.65,734.4469 4461.5,752.2969 C4525.08,765.5169 4596.18,784.4469 4648.87,799.2869 " fill="transparent" id="C_0000997856561152181668-backto-C_0005805017087195686008" style="stroke:#181818;stroke-width:1;"/><polygon fill="transparent" points="4114.51,673.2969,4129.2239,685.2761,4133.4686,674.0519,4114.51,673.2969" style="stroke:#181818;stroke-width:1;"/></g><!--link C_0011374935455579958805 to C_0005805017087195686008--><g id="link_C_0011374935455579958805_C_0005805017087195686008"><path codeLine="127" d="M4429.63,673.3169 C4454.16,687.8669 4486.88,706.7769 4516.5,722.2969 C4570,750.3269 4618.1332,772.9881 4661.2032,792.5581 " fill="transparent" id="C_0011374935455579958805-to-C_0005805017087195686008" style="stroke:#181818;stroke-width:1;"/><ellipse cx="4668.4866" cy="795.8675" fill="#FFFFFF" rx="8" ry="8" style="stroke:#181818;stroke-width:1;"/><line style="stroke:#181818;stroke-width:1;" x1="4661.2032" x2="4675.77" y1="792.5581" y2="799.1769"/><line style="stroke:#181818;stroke-width:1;" x1="4671.796" x2="4665.1772" y1="788.5841" y2="803.1509"/></g><!--reverse link C_0011374935455579958805 to C_0003028152696443724275--><g id="link_C_0011374935455579958805_C_0003028152696443724275"><path codeLine="128" d="M4393.3398,685.4803 C4395.0698,718.4003 4397.57,766.3269 4399.29,799.1969 " fill="transparent" id="C_0011374935455579958805-backto-C_0003028152696443724275" style="stroke:#181818;stroke-width:1;"/><polygon fill="transparent" points="4392.71,673.4969,4389.0304,679.6985,4393.3398,685.4803,4397.0194,679.2787,4392.71,673.4969" style="stroke:#181818;stroke-width:1;"/><rect fill="transparent" height="6" style="stroke:#C82930;stroke-width:1;" width="6" x="4400.5" y="758.3633"/><text fill="#000000" font-family="sans-serif" font-size="13" lengthAdjust="spacing" textLength="73.6011" x="4410.5" y="765.3638">_M_storage</text></g><!--link C_0003028152696443724275 to C_0011374935455579958805--><g id="link_C_0003028152696443724275_C_0011374935455579958805"><path codeLine="129" d="M4465.46,799.2569 C4485.66,787.9369 4500.75,772.3469 4492.5,752.2969 C4479.04,719.5669 4462.1118,701.5354 4438.4118,683.2654 " fill="transparent" id="C_0003028152696443724275-to-C_0011374935455579958805" style="stroke:#181818;stroke-width:1;"/><ellipse cx="4432.0759" cy="678.3811" fill="#FFFFFF" rx="8" ry="8" style="stroke:#181818;stroke-width:1;"/><line style="stroke:#181818;stroke-width:1;" x1="4438.4118" x2="4425.74" y1="683.2654" y2="673.4969"/><line style="stroke:#181818;stroke-width:1;" x1="4427.1916" x2="4436.9602" y1="684.7171" y2="672.0452"/></g><!--link C_0009918787256737058051 to C_0005805017087195686008--><g id="link_C_0009918787256737058051_C_0005805017087195686008"><path codeLine="130" d="M5022.1,673.3869 C5005.17,688.5969 4981.6,708.2269 4958.5,722.2969 C4905.88,754.3569 4858.0001,775.1066 4810.4601,792.9666 " fill="transparent" id="C_0009918787256737058051-to-C_0005805017087195686008" style="stroke:#181818;stroke-width:1;stroke-dasharray:7.0,7.0;"/><polygon fill="transparent" points="4793.61,799.2969,4812.5702,798.5833,4808.35,787.3498,4793.61,799.2969" style="stroke:#181818;stroke-width:1;"/></g><!--link C_0015444170014271291982 to C_0016384363037466094568--><g id="link_C_0015444170014271291982_C_0016384363037466094568"><path codeLine="131" d="M230.28,223.3469 C256.04,230.1869 284.83,237.1969 311.5,242.2969 C453.14,269.3669 595.1717,287.6963 724.5417,301.5063 " fill="transparent" id="C_0015444170014271291982-to-C_0016384363037466094568" style="stroke:#181818;stroke-width:1;stroke-dasharray:7.0,7.0;"/><polygon fill="transparent" points="742.44,303.4169,725.1786,295.5402,723.9048,307.4724,742.44,303.4169" style="stroke:#181818;stroke-width:1;"/></g><!--reverse link C_0015444170014271291982 to C_0015581221495297226107--><g id="link_C_0015444170014271291982_C_0015581221495297226107"><path codeLine="132" d="M205.6685,232.4758 C244.5185,255.1358 287.88,280.4369 326.77,303.1169 " fill="transparent" id="C_0015444170014271291982-backto-C_0015581221495297226107" style="stroke:#181818;stroke-width:1;"/><polygon fill="transparent" points="190.12,223.4069,202.6455,237.6586,208.6914,227.293,190.12,223.4069" style="stroke:#181818;stroke-width:1;"/></g><!--reverse link C_0015581221495297226107 to C_0018068942244072229765--><g id="link_C_0015581221495297226107_C_0018068942244072229765"><path codeLine="133" d="M463.2174,335.0942 C535.9274,340.1042 628.99,346.2069 725.5,351.2969 C1780.39,406.9469 3069.21,451.2369 3356.79,460.8569 " fill="transparent" id="C_0015581221495297226107-backto-C_0018068942244072229765" style="stroke:#181818;stroke-width:1;"/><polygon fill="transparent" points="445.26,333.8569,462.805,341.08,463.6299,329.1084,445.26,333.8569" style="stroke:#181818;stroke-width:1;"/></g><!--reverse link C_0015581221495297226107 to C_0015730135622629662599--><g id="link_C_0015581221495297226107_C_0015730135622629662599"><path codeLine="134" d="M366.5,369.4169 C366.5,394.0569 366.5,414.8369 366.5,439.5269 " fill="transparent" id="C_0015581221495297226107-backto-C_0015730135622629662599" style="stroke:#181818;stroke-width:1;"/><polygon fill="transparent" points="366.5,351.4169,360.5,369.4169,372.5,369.4169,366.5,351.4169" style="stroke:#181818;stroke-width:1;"/></g><!--reverse link C_0012020207555608092007 to C_0010744634881075136595--><g id="link_C_0012020207555608092007_C_0010744634881075136595"><path codeLine="135" d="M5415.8559,495.269 C5462.5959,530.569 5541.38,590.0569 5587.97,625.2469 " fill="transparent" id="C_0012020207555608092007-backto-C_0010744634881075136595" style="stroke:#181818;stroke-width:1;"/><polygon fill="transparent" points="5406.28,488.0369,5408.6572,494.8449,5415.8559,495.269,5413.4786,488.461,5406.28,488.0369" style="stroke:#181818;stroke-width:1;"/><polygon fill="transparent" points="5487.5,533.3633,5491.5,537.3633,5487.5,541.3633,5483.5,537.3633" style="stroke:#B38D22;stroke-width:1;"/><text fill="#000000" font-family="sans-serif" font-size="13" lengthAdjust="spacing" textLength="52.3555" x="5494.5" y="542.3638">_M_impl</text></g><!--link C_0010744634881075136595 to C_0012020207555608092007--><g id="link_C_0010744634881075136595_C_0012020207555608092007"><path codeLine="139" d="M5574.12,625.2369 C5539.43,606.2369 5490.83,577.4369 5452.5,546.2969 C5430.9,528.7469 5419.8161,517.512 5405.0561,500.302 " fill="transparent" id="C_0010744634881075136595-to-C_0012020207555608092007" style="stroke:#181818;stroke-width:1;"/><ellipse cx="5399.8481" cy="494.2294" fill="#FFFFFF" rx="8" ry="8" style="stroke:#181818;stroke-width:1;"/><line style="stroke:#181818;stroke-width:1;" x1="5405.0561" x2="5394.64" y1="500.302" y2="488.1569"/><line style="stroke:#181818;stroke-width:1;" x1="5393.7755" x2="5405.9206" y1="499.4375" y2="489.0214"/></g><!--link C_0003860519816965633390 to C_0012020207555608092007--><g id="link_C_0003860519816965633390_C_0012020207555608092007"><path codeLine="136" d="M4494.59,346.7469 C4709.18,375.0169 5097.037,426.1172 5273.457,449.3572 " fill="transparent" id="C_0003860519816965633390-to-C_0012020207555608092007" style="stroke:#181818;stroke-width:1;"/><ellipse cx="5281.3885" cy="450.4021" fill="#FFFFFF" rx="8" ry="8" style="stroke:#181818;stroke-width:1;"/><line style="stroke:#181818;stroke-width:1;" x1="5273.457" x2="5289.32" y1="449.3572" y2="451.4469"/><line style="stroke:#181818;stroke-width:1;" x1="5282.4333" x2="5280.3437" y1="442.4706" y2="458.3335"/></g><!--reverse link C_0003860519816965633390 to C_0018068942244072229765--><g id="link_C_0003860519816965633390_C_0018068942244072229765"><path codeLine="137" d="M4202.2582,350.685 C4196.6382,351.445 4202.96,350.5869 4197.5,351.2969 C4016.07,375.0069 3970.42,378.6569 3788.5,398.2969 C3656.59,412.5369 3619.6,393.7569 3491.5,428.2969 C3481.01,431.1269 3470.14,435.2569 3460.02,439.6869 " fill="transparent" id="C_0003860519816965633390-backto-C_0018068942244072229765" style="stroke:#181818;stroke-width:1;"/><polygon fill="transparent" points="4214.15,349.0769,4207.6681,345.917,4202.2582,350.685,4208.7402,353.8449,4214.15,349.0769" style="stroke:#181818;stroke-width:1;"/><ellipse cx="3950.5" cy="390.3633" fill="transparent" rx="3" ry="3" style="stroke:#038048;stroke-width:1;"/><text fill="#000000" font-family="sans-serif" font-size="13" lengthAdjust="spacing" textLength="54.4946" x="3957.5" y="394.3638">_M_start</text></g><!--reverse link C_0003860519816965633390 to C_0018068942244072229765--><g id="link_C_0003860519816965633390_C_0018068942244072229765"><path codeLine="138" d="M4202.2813,350.8416 C4196.6413,351.5016 4202.98,350.7269 4197.5,351.2969 C3980.48,373.7969 3923.62,351.3469 3707.5,381.2969 C3610.18,394.7869 3584.75,397.3769 3491.5,428.2969 C3481.87,431.4869 3471.83,435.5169 3462.31,439.6769 " fill="transparent" id="C_0003860519816965633390-backto-C_0018068942244072229765-1" style="stroke:#181818;stroke-width:1;"/><polygon fill="transparent" points="4214.2,349.4469,4207.7758,346.1714,4202.2813,350.8416,4208.7056,354.1171,4214.2,349.4469" style="stroke:#181818;stroke-width:1;"/><ellipse cx="3713.5" cy="390.3633" fill="transparent" rx="3" ry="3" style="stroke:#038048;stroke-width:1;"/><text fill="#000000" font-family="sans-serif" font-size="13" lengthAdjust="spacing" textLength="59.2681" x="3720.5" y="394.3638">_M_finish</text></g><!--link C_0016172396674571732333 to C_0014172594989642843197--><g id="link_C_0016172396674571732333_C_0014172594989642843197"><path codeLine="140" d="M2737.35,95.4069 C2699.94,118.0669 2658.6067,143.1125 2621.1567,165.7925 " fill="transparent" id="C_0016172396674571732333-to-C_0014172594989642843197" style="stroke:#181818;stroke-width:1;stroke-dasharray:7.0,7.0;"/><polygon fill="transparent" points="2605.76,175.1169,2624.2648,170.9248,2618.0485,160.6603,2605.76,175.1169" style="stroke:#181818;stroke-width:1;"/></g><!--link C_0006440291576529819714 to C_0014172594989642843197--><g id="link_C_0006440291576529819714_C_0014172594989642843197"><path codeLine="141" d="M2909.01,95.3669 C2840.21,110.3969 2751.03,131.7369 2673.5,156.2969 C2656.33,161.7369 2654.6833,161.9336 2638.1533,168.5436 " fill="transparent" id="C_0006440291576529819714-to-C_0014172594989642843197" style="stroke:#181818;stroke-width:1;stroke-dasharray:7.0,7.0;"/><polygon fill="transparent" points="2621.44,175.2269,2640.381,174.1147,2635.9255,162.9725,2621.44,175.2269" style="stroke:#181818;stroke-width:1;"/></g><!--link C_0002261458041236941641 to C_0005805017087195686008--><g id="link_C_0002261458041236941641_C_0005805017087195686008"><path codeLine="142" d="M4849.48,673.4969 C4822.5,706.4169 4784.79,752.4053 4757.85,785.2753 " fill="transparent" id="C_0002261458041236941641-to-C_0005805017087195686008" style="stroke:#181818;stroke-width:1;stroke-dasharray:7.0,7.0;"/><polygon fill="transparent" points="4746.44,799.1969,4762.4906,789.0786,4753.2095,781.4719,4746.44,799.1969" style="stroke:#181818;stroke-width:1;"/></g><!--reverse link C_0012020207555608092007 to C_0002261458041236941641--><g id="link_C_0012020207555608092007_C_0002261458041236941641"><path codeLine="143" d="M5271.6437,480.4167 C5184.8637,495.4367 5066.57,522.4969 4959.5,576.2969 C4934.3,588.9569 4909.45,609.3069 4892.1,625.1469 " fill="transparent" id="C_0012020207555608092007-backto-C_0002261458041236941641" style="stroke:#181818;stroke-width:1;"/><polygon fill="transparent" points="5289.38,477.3469,5270.6204,474.5046,5272.667,486.3288,5289.38,477.3469" style="stroke:#181818;stroke-width:1;"/></g><!--link C_0009937165181912686464 to C_0005805017087195686008--><g id="link_C_0009937165181912686464_C_0005805017087195686008"><path codeLine="144" d="M5257.93,673.3169 C5223.75,688.5869 5176.99,708.3269 5134.5,722.2969 C5037.04,754.3369 4941.0612,777.6126 4858.6912,795.4726 " fill="transparent" id="C_0009937165181912686464-to-C_0005805017087195686008" style="stroke:#181818;stroke-width:1;stroke-dasharray:7.0,7.0;"/><polygon fill="transparent" points="4841.1,799.2869,4859.9626,801.3364,4857.4198,789.6089,4841.1,799.2869" style="stroke:#181818;stroke-width:1;"/></g><!--SRC=[lLXjRzis4FwkNq5isDgkjaTA52aQRO2-0CE0TXZQh5y5MgPjRhRaINIMODr_tr6oPSgYOdKRbY21pUEzy5wUEz9eirMeCilv_4vbfYXHLkH6tHkKRMLLeQMMwrBkWkRRLzgeKiAk5-aRQTIwA1ycwUr-ahxLbP5vfbxkJRdKgrLg9kdFXGP9vKlOWBwRf1_KIfNAxh4BtzvyXMI5tgGO4nObD68HZZXb30iQi-IeRuYC_WpIDFZhP5MfxbHPgVHitO_moT502GzZGKKY60r16X7SrU0XNsXe9Pk7lShbJg7JIcfAgKtLgBGBD_DvIyjEJXh5TYUt1vNQhUFsMqStBlq2fdqJbN6RorFC75-6b9Ca2bd2efXJ4V4mT7tf8O-ALgsnrMA37IOXJWHcE8efZYXnjFZ8Gn4h3cP_CEdvc78zkIlqykAVcoqiZeI82ObivWaiuhYJBNtoXUw5p7vBTLwfqZYdV0E59NNUISo4WhIGYfWnoBee4ObxJ1_vGjMg1AcZT66HS0oP3k6XzIUHHAvBFUHBbuxH4YKnvn49CJY9X61xmZk1wvCljAIVQXnA5x9IBsfmURNT5fcZ0Wl1avZ5Z90u90bX7RpmaHzHCP-VlkdTVfikfP5EU7046Op1M4P20Vd6EfdW8O_Mv2W9CUSY8ZGX0l9A98nrbFJ9LmigNUU7DBk_1vLfNfGxkJqJ6vW_0q7ptVNqZUDhBYZWBmPdSeWNnJmKhgyzvF_4E6X2bKb7cGXr62O9H1tw0WwX62_ArKE-CB4d_gMq_-LnqNL736V5XEE44okGOTn9FG_PgmkEVgjs-wAKvKDQmxvx70kRCOtZc4EymVQBu_J88rN0oaSWoBLogXM72LG9WyP70QffoEDEjVR9rtpd0euW2K-WjJ8ELM9zqy5m3ta8mqkPBujTAhDCLLKNoXT5iNMI8QOKGCoYTCYX9W75Ejt9GxwisDVQQHQsRXtXSGAOHG2FGm5zZH7S6ICyvCU4kp334a413Mq1XS1y2JCziazkKpDzwJ6FC8bY1XQ5WZ6OT4J7wZwv9_tEXUIBC0EMsryE2SbmWW46krxna1-J3rbw-je7P6WV3D84sY2aPCoY2Dfljxlqo5-WwtmapA7nHZH9u5DC8WQWuHx9Gxw6UhetuX30p302ZtCQSyAZ4CpjZBrzyZKbtGnmAX7A5x0FGWtJ17X7S49Tjtd8_ZAtnTQlSvlg5EgNaZ1YWXBMdTKyv64GsU_grhHzs1NbVgEpT12A1RHUmc9eyD1v06iferrqwP5FMWTd_jdiyytm-3authPitflC8DkBpzFf5Ms-KNE4DXzRgyqxSrvdyuwF8zXyy-3Wc5QqDdg6dZbwdhwl2pKOdBwcq-V3C-AWvAjStZdd70ZVzN9mzhZEvdNDsQE-6MHmD6YFzaLSHHizpm0mHrE8GzMC4i7WjfDcxq0pE02SIt3GO5yF7r4KFhPpKVXQ-s1JTsh9qxb7iFbQyc2pR8l2rtRcw6ktABmTi8s4hrCFSXMFdF5OYvMHfVbN4bOwrzKc63pULTEzRN94YVbQtWWsNoyRaRA-i9uBsjS_1tlOuzeGGdbX53B57XMhuOg0VUXsewlJAr-XAikuqVaQBGu6BHL4Hg5SLKOjaNqhWfLgXj0tfxUQXbDL82gJETBvHfNQe5LPx91f9Czciq3bozgYMcFzSscVj_lPZI6TqHb17vefftsdgWAWljPBNSBKe8jSRX7S3b1pHK3D5U6y6MtadK9PKPQgsXVvqXxmE3S5FljwtlDrozQw47u9yZttM2Fjt-r6WUsoLAXvXpfRDa7rk5OUCklYsc-oVdojNrIcHT-wdkTyBRc9x3zLkfhUpa34gwhIwzpwIg9RK0aHFGS0xSiHjldw_lzWcyv7sEPhytRZHwNGGflg-yh0nKFzVb2ppPCAfM_jn_h6W5QW0z9TtU-tCfSs_tmvxjKwKA_elLAcgazHWXv8wvtAOG7O90hQymSJ96rEDSch5rk5EZImeQPNrjOyKx2cysnxM8xnYBT7suslqFbH6XMBNw7aEb7wGviDQYu4n_VZuzkDfJzz5jHsBG55okB1kzsF4VsVdZTze6at_bHlt4Y3cbj5K5zQWfiMum0Yp05k5Gze1uxl-zr6UA4Wlq2Sat-p8s3gdiL143pvGUKs0Kz716pCrzF3RZj1TRIA7E4Pcv7WoRjtdzwtQxyi3havDBlRHI9c143bAJdKLFBiRm00]--></g></svg>