<svg xmlns="http://www.w3.org/2000/svg" xmlns:xlink="http://www.w3.org/1999/xlink" contentStyleType="text/css" data-diagram-type="SEQUENCE" height="1618px" preserveAspectRatio="none" style="width:4488px;height:1618px;background:#FFFFFF;" version="1.1" viewBox="0 0 4488 1618" width="4488px" zoomAndPan="magnify"><title>std::list emplace() sequence diagram</title><defs/><g><text fill="#000000" font-family="sans-serif" font-size="14" font-weight="bold" lengthAdjust="spacing" textLength="294.7314" x="2096.1055" y="27.9951">std::list emplace() sequence diagram</text><g><title>clanguml_examples::list::emplace()</title><rect fill="#FFFFFF" height="1481.9844" style="stroke:#181818;stroke-width:1;" width="10" x="131.6978" y="83.5938"/></g><g><title>std::list&lt;int,std::allocator&lt;int&gt;&gt;</title><rect fill="#FFFFFF" height="30" style="stroke:#181818;stroke-width:1;" width="10" x="396.2236" y="104.7266"/></g><g><title>std::list&lt;int,std::allocator&lt;int&gt;&gt;</title><rect fill="#FFFFFF" height="73.1328" style="stroke:#181818;stroke-width:1;" width="10" x="396.2236" y="163.8594"/></g><g><title>std::list&lt;int,std::allocator&lt;int&gt;&gt;</title><rect fill="#FFFFFF" height="1240.3203" style="stroke:#181818;stroke-width:1;" width="10" x="396.2236" y="325.2578"/></g><g><title>std::list&lt;int,std::allocator&lt;int&gt;&gt;</title><rect fill="#FFFFFF" height="902.5234" style="stroke:#181818;stroke-width:1;" width="10" x="401.2236" y="362.3906"/></g><g><title>std::_List_iterator&lt;int&gt;</title><rect fill="#FFFFFF" height="30" style="stroke:#181818;stroke-width:1;" width="10" x="694.0913" y="192.9922"/></g><g><title>std::_List_iterator&lt;int&gt;</title><rect fill="#FFFFFF" height="30" style="stroke:#181818;stroke-width:1;" width="10" x="694.0913" y="1330.1797"/></g><g><title>std::_List_iterator&lt;int&gt;</title><rect fill="#FFFFFF" height="30" style="stroke:#181818;stroke-width:1;" width="10" x="694.0913" y="1521.5781"/></g><g><title>std::_List_const_iterator&lt;int&gt;</title><rect fill="#FFFFFF" height="30" style="stroke:#181818;stroke-width:1;" width="10" x="991.959" y="266.125"/></g><g><title>std::_List_const_iterator&lt;int&gt;</title><rect fill="#FFFFFF" height="73.1328" style="stroke:#181818;stroke-width:1;" width="10" x="991.959" y="1301.0469"/></g><g><title>std::_List_base&lt;int,std::allocator&lt;int&gt;&gt;</title><rect fill="#FFFFFF" height="445.3281" style="stroke:#181818;stroke-width:1;" width="10" x="1261.6016" y="396.5234"/></g><g><title>std::_List_base&lt;int,std::allocator&lt;int&gt;&gt;</title><rect fill="#FFFFFF" height="14" style="stroke:#181818;stroke-width:1;" width="10" x="1261.6016" y="870.9844"/></g><g><title>std::_List_base&lt;int,std::allocator&lt;int&gt;&gt;</title><rect fill="#FFFFFF" height="30" style="stroke:#181818;stroke-width:1;" width="10" x="1261.6016" y="1462.4453"/></g><g><title>std::allocator_traits&lt;std::allocator&lt;std::_List_node&lt;int&gt;&gt;&gt;</title><rect fill="#FFFFFF" height="402.1953" style="stroke:#181818;stroke-width:1;" width="10" x="1637.5088" y="425.6563"/></g><g><title>std::allocator_traits&lt;std::allocator&lt;std::_List_node&lt;int&gt;&gt;&gt;</title><rect fill="#FFFFFF" height="59.1328" style="stroke:#181818;stroke-width:1;" width="10" x="1637.5088" y="1142.6484"/></g><g><title>std::__new_allocator&lt;std::_List_node&lt;int&gt;&gt;</title><rect fill="#FFFFFF" height="359.0625" style="stroke:#181818;stroke-width:1;" width="10" x="2027.8159" y="454.7891"/></g><g><title>std::__new_allocator&lt;std::_List_node&lt;int&gt;&gt;</title><rect fill="#FFFFFF" height="25" style="stroke:#181818;stroke-width:1;" width="10" x="2032.8159" y="516.0547"/></g><g><title>std::__new_allocator&lt;std::_List_node&lt;int&gt;&gt;</title><rect fill="#FFFFFF" height="30" style="stroke:#181818;stroke-width:1;" width="10" x="2027.8159" y="1171.7813"/></g><g><title>std::__throw_bad_array_new_length()</title><rect fill="#FFFFFF" height="30" style="stroke:#181818;stroke-width:1;" width="10" x="2338.2007" y="666.7188"/></g><g><title>std::__throw_bad_alloc()</title><rect fill="#FFFFFF" height="30" style="stroke:#181818;stroke-width:1;" width="10" x="2577.2832" y="717.7188"/></g><g><title>std::__allocated_ptr&lt;std::allocator&lt;std::_List_node&lt;int&gt;&gt;&gt;</title><rect fill="#FFFFFF" height="44" style="stroke:#181818;stroke-width:1;" width="10" x="2896.6948" y="914.1172"/></g><g><title>std::__allocated_ptr&lt;std::allocator&lt;std::_List_node&lt;int&gt;&gt;&gt;</title><rect fill="#FFFFFF" height="14" style="stroke:#181818;stroke-width:1;" width="10" x="2896.6948" y="1230.9141"/></g><g><title>std::__addressof&lt;std::allocator&lt;std::_List_node&lt;int&gt;&gt;&gt;(std::allocator&lt;std::_List_node&lt;int&gt;&gt; &amp;)</title><rect fill="#FFFFFF" height="30" style="stroke:#181818;stroke-width:1;" width="10" x="3475.1714" y="928.1172"/></g><g><title>std::_List_node&lt;int&gt;</title><rect fill="#FFFFFF" height="126.2656" style="stroke:#181818;stroke-width:1;" width="10" x="3915.9175" y="987.25"/></g><g><title>__gnu_cxx::__aligned_membuf&lt;int&gt;</title><rect fill="#FFFFFF" height="83.1328" style="stroke:#181818;stroke-width:1;" width="10" x="4126.1523" y="1016.3828"/></g><g><title>__gnu_cxx::__aligned_membuf&lt;int&gt;</title><rect fill="#FFFFFF" height="25" style="stroke:#181818;stroke-width:1;" width="10" x="4131.1523" y="1053.5156"/></g><g><title>std::__detail::_List_node_base</title><rect fill="#FFFFFF" height="30" style="stroke:#181818;stroke-width:1;" width="10" x="4367.1079" y="1403.3125"/></g><rect fill="transparent" height="285.9297" style="stroke:#000000;stroke-width:1.5;" width="833.9043" x="1849.9463" y="469.7891"/><rect fill="transparent" height="61.1328" style="stroke:#000000;stroke-width:1.5;" width="630.7695" x="1859.9463" y="643.5859"/><rect fill="transparent" height="31.1328" style="stroke:#000000;stroke-width:1.5;" width="790.6143" x="1415.0713" y="769.7188"/><g><title>clanguml_examples::list::emplace()</title><rect fill="transparent" height="1509.9844" width="8" x="132.6978" y="73.5938"/><line style="stroke:#181818;stroke-width:0.5;stroke-dasharray:5.0,5.0;" x1="136" x2="136" y1="73.5938" y2="1583.5781"/></g><g><title>std::list&lt;int,std::allocator&lt;int&gt;&gt;</title><rect fill="transparent" height="1509.9844" width="8" x="397.2236" y="73.5938"/><line style="stroke:#181818;stroke-width:0.5;stroke-dasharray:5.0,5.0;" x1="400.3955" x2="400.3955" y1="73.5938" y2="1583.5781"/></g><g><title>std::_List_iterator&lt;int&gt;</title><rect fill="transparent" height="1509.9844" width="8" x="695.0913" y="73.5938"/><line style="stroke:#181818;stroke-width:0.5;stroke-dasharray:5.0,5.0;" x1="698.3779" x2="698.3779" y1="73.5938" y2="1583.5781"/></g><g><title>std::_List_const_iterator&lt;int&gt;</title><rect fill="transparent" height="1509.9844" width="8" x="992.959" y="73.5938"/><line style="stroke:#181818;stroke-width:0.5;stroke-dasharray:5.0,5.0;" x1="996.7861" x2="996.7861" y1="73.5938" y2="1583.5781"/></g><g><title>std::_List_base&lt;int,std::allocator&lt;int&gt;&gt;</title><rect fill="transparent" height="1509.9844" width="8" x="1262.6016" y="73.5938"/><line style="stroke:#181818;stroke-width:0.5;stroke-dasharray:5.0,5.0;" x1="1266.1318" x2="1266.1318" y1="73.5938" y2="1583.5781"/></g><g><title>std::allocator_traits&lt;std::allocator&lt;std::_List_node&lt;int&gt;&gt;&gt;</title><rect fill="transparent" height="1509.9844" width="8" x="1638.5088" y="73.5938"/><line style="stroke:#181818;stroke-width:0.5;stroke-dasharray:5.0,5.0;" x1="1642.0713" x2="1642.0713" y1="73.5938" y2="1583.5781"/></g><g><title>std::__new_allocator&lt;std::_List_node&lt;int&gt;&gt;</title><rect fill="transparent" height="1509.9844" width="8" x="2028.8159" y="73.5938"/><line style="stroke:#181818;stroke-width:0.5;stroke-dasharray:5.0,5.0;" x1="2031.9463" x2="2031.9463" y1="73.5938" y2="1583.5781"/></g><g><title>std::__throw_bad_array_new_length()</title><rect fill="transparent" height="1509.9844" width="8" x="2339.2007" y="73.5938"/><line style="stroke:#181818;stroke-width:0.5;stroke-dasharray:5.0,5.0;" x1="2342.6855" x2="2342.6855" y1="73.5938" y2="1583.5781"/></g><g><title>std::__throw_bad_alloc()</title><rect fill="transparent" height="1509.9844" width="8" x="2578.2832" y="73.5938"/><line style="stroke:#181818;stroke-width:0.5;stroke-dasharray:5.0,5.0;" x1="2581.7158" x2="2581.7158" y1="73.5938" y2="1583.5781"/></g><g><title>std::__allocated_ptr&lt;std::allocator&lt;std::_List_node&lt;int&gt;&gt;&gt;</title><rect fill="transparent" height="1509.9844" width="8" x="2897.6948" y="73.5938"/><line style="stroke:#181818;stroke-width:0.5;stroke-dasharray:5.0,5.0;" x1="2900.8506" x2="2900.8506" y1="73.5938" y2="1583.5781"/></g><g><title>std::__addressof&lt;std::allocator&lt;std::_List_node&lt;int&gt;&gt;&gt;(std::allocator&lt;std::_List_node&lt;int&gt;&gt; &amp;)</title><rect fill="transparent" height="1509.9844" width="8" x="3476.1714" y="73.5938"/><line style="stroke:#181818;stroke-width:0.5;stroke-dasharray:5.0,5.0;" x1="3479.5391" x2="3479.5391" y1="73.5938" y2="1583.5781"/></g><g><title>std::_List_node&lt;int&gt;</title><rect fill="transparent" height="1509.9844" width="8" x="3916.9175" y="73.5938"/><line style="stroke:#181818;stroke-width:0.5;stroke-dasharray:5.0,5.0;" x1="3920.8037" x2="3920.8037" y1="73.5938" y2="1583.5781"/></g><g><title>__gnu_cxx::__aligned_membuf&lt;int&gt;</title><rect fill="transparent" height="1509.9844" width="8" x="4127.1523" y="73.5938"/><line style="stroke:#181818;stroke-width:0.5;stroke-dasharray:5.0,5.0;" x1="4131.0313" x2="4131.0313" y1="73.5938" y2="1583.5781"/></g><g><title>std::__detail::_List_node_base</title><rect fill="transparent" height="1509.9844" width="8" x="4368.1079" y="73.5938"/><line style="stroke:#181818;stroke-width:0.5;stroke-dasharray:5.0,5.0;" x1="4371.2734" x2="4371.2734" y1="73.5938" y2="1583.5781"/></g><a href="" target="_top" title="emplace" xlink:actuate="onRequest" xlink:href="" xlink:show="new" xlink:title="emplace" xlink:type="simple"><rect fill="#E2E2F0" height="30.2969" rx="2.5" ry="2.5" style="stroke:#181818;stroke-width:0.5;" width="263.3955" x="5" y="42.2969"/><text fill="#000000" font-family="sans-serif" font-size="14" lengthAdjust="spacing" textLength="249.3955" x="12" y="62.292">clanguml_examples::list::emplace()</text><rect fill="#E2E2F0" height="30.2969" rx="2.5" ry="2.5" style="stroke:#181818;stroke-width:0.5;" width="263.3955" x="5" y="1582.5781"/><text fill="#000000" font-family="sans-serif" font-size="14" lengthAdjust="spacing" textLength="249.3955" x="12" y="1602.5732">clanguml_examples::list::emplace()</text></a><rect fill="#E2E2F0" height="30.2969" rx="2.5" ry="2.5" style="stroke:#181818;stroke-width:0.5;" width="245.6563" x="278.3955" y="42.2969"/><text fill="#000000" font-family="sans-serif" font-size="14" lengthAdjust="spacing" textLength="231.6563" x="285.3955" y="62.292">std::list&lt;int,std::allocator&lt;int&gt;&gt;</text><rect fill="#E2E2F0" height="30.2969" rx="2.5" ry="2.5" style="stroke:#181818;stroke-width:0.5;" width="245.6563" x="278.3955" y="1582.5781"/><text fill="#000000" font-family="sans-serif" font-size="14" lengthAdjust="spacing" textLength="231.6563" x="285.3955" y="1602.5732">std::list&lt;int,std::allocator&lt;int&gt;&gt;</text><rect fill="#E2E2F0" height="30.2969" rx="2.5" ry="2.5" style="stroke:#181818;stroke-width:0.5;" width="177.4268" x="610.3779" y="42.2969"/><text fill="#000000" font-family="sans-serif" font-size="14" lengthAdjust="spacing" textLength="163.4268" x="617.3779" y="62.292">std::_List_iterator&lt;int&gt;</text><rect fill="#E2E2F0" height="30.2969" rx="2.5" ry="2.5" style="stroke:#181818;stroke-width:0.5;" width="177.4268" x="610.3779" y="1582.5781"/><text fill="#000000" font-family="sans-serif" font-size="14" lengthAdjust="spacing" textLength="163.4268" x="617.3779" y="1602.5732">std::_List_iterator&lt;int&gt;</text><rect fill="#E2E2F0" height="30.2969" rx="2.5" ry="2.5" style="stroke:#181818;stroke-width:0.5;" width="222.3457" x="885.7861" y="42.2969"/><text fill="#000000" font-family="sans-serif" font-size="14" lengthAdjust="spacing" textLength="208.3457" x="892.7861" y="62.292">std::_List_const_iterator&lt;int&gt;</text><rect fill="#E2E2F0" height="30.2969" rx="2.5" ry="2.5" style="stroke:#181818;stroke-width:0.5;" width="222.3457" x="885.7861" y="1582.5781"/><text fill="#000000" font-family="sans-serif" font-size="14" lengthAdjust="spacing" textLength="208.3457" x="892.7861" y="1602.5732">std::_List_const_iterator&lt;int&gt;</text><rect fill="#E2E2F0" height="30.2969" rx="2.5" ry="2.5" style="stroke:#181818;stroke-width:0.5;" width="296.9395" x="1118.1318" y="42.2969"/><text fill="#000000" font-family="sans-serif" font-size="14" lengthAdjust="spacing" textLength="282.9395" x="1125.1318" y="62.292">std::_List_base&lt;int,std::allocator&lt;int&gt;&gt;</text><rect fill="#E2E2F0" height="30.2969" rx="2.5" ry="2.5" style="stroke:#181818;stroke-width:0.5;" width="296.9395" x="1118.1318" y="1582.5781"/><text fill="#000000" font-family="sans-serif" font-size="14" lengthAdjust="spacing" textLength="282.9395" x="1125.1318" y="1602.5732">std::_List_base&lt;int,std::allocator&lt;int&gt;&gt;</text><rect fill="#E2E2F0" height="30.2969" rx="2.5" ry="2.5" style="stroke:#181818;stroke-width:0.5;" width="434.875" x="1425.0713" y="42.2969"/><text fill="#000000" font-family="sans-serif" font-size="14" lengthAdjust="spacing" textLength="420.875" x="1432.0713" y="62.292">std::allocator_traits&lt;std::allocator&lt;std::_List_node&lt;int&gt;&gt;&gt;</text><rect fill="#E2E2F0" height="30.2969" rx="2.5" ry="2.5" style="stroke:#181818;stroke-width:0.5;" width="434.875" x="1425.0713" y="1582.5781"/><text fill="#000000" font-family="sans-serif" font-size="14" lengthAdjust="spacing" textLength="420.875" x="1432.0713" y="1602.5732">std::allocator_traits&lt;std::allocator&lt;std::_List_node&lt;int&gt;&gt;&gt;</text><rect fill="#E2E2F0" height="30.2969" rx="2.5" ry="2.5" style="stroke:#181818;stroke-width:0.5;" width="325.7393" x="1869.9463" y="42.2969"/><text fill="#000000" font-family="sans-serif" font-size="14" lengthAdjust="spacing" textLength="311.7393" x="1876.9463" y="62.292">std::__new_allocator&lt;std::_List_node&lt;int&gt;&gt;</text><rect fill="#E2E2F0" height="30.2969" rx="2.5" ry="2.5" style="stroke:#181818;stroke-width:0.5;" width="325.7393" x="1869.9463" y="1582.5781"/><text fill="#000000" font-family="sans-serif" font-size="14" lengthAdjust="spacing" textLength="311.7393" x="1876.9463" y="1602.5732">std::__new_allocator&lt;std::_List_node&lt;int&gt;&gt;</text><rect fill="#E2E2F0" height="30.2969" rx="2.5" ry="2.5" style="stroke:#181818;stroke-width:0.5;" width="275.0303" x="2205.6855" y="42.2969"/><text fill="#000000" font-family="sans-serif" font-size="14" lengthAdjust="spacing" textLength="261.0303" x="2212.6855" y="62.292">std::__throw_bad_array_new_length()</text><rect fill="#E2E2F0" height="30.2969" rx="2.5" ry="2.5" style="stroke:#181818;stroke-width:0.5;" width="275.0303" x="2205.6855" y="1582.5781"/><text fill="#000000" font-family="sans-serif" font-size="14" lengthAdjust="spacing" textLength="261.0303" x="2212.6855" y="1602.5732">std::__throw_bad_array_new_length()</text><rect fill="#E2E2F0" height="30.2969" rx="2.5" ry="2.5" style="stroke:#181818;stroke-width:0.5;" width="183.1348" x="2490.7158" y="42.2969"/><text fill="#000000" font-family="sans-serif" font-size="14" lengthAdjust="spacing" textLength="169.1348" x="2497.7158" y="62.292">std::__throw_bad_alloc()</text><rect fill="#E2E2F0" height="30.2969" rx="2.5" ry="2.5" style="stroke:#181818;stroke-width:0.5;" width="183.1348" x="2490.7158" y="1582.5781"/><text fill="#000000" font-family="sans-serif" font-size="14" lengthAdjust="spacing" textLength="169.1348" x="2497.7158" y="1602.5732">std::__throw_bad_alloc()</text><rect fill="#E2E2F0" height="30.2969" rx="2.5" ry="2.5" style="stroke:#181818;stroke-width:0.5;" width="435.6885" x="2683.8506" y="42.2969"/><text fill="#000000" font-family="sans-serif" font-size="14" lengthAdjust="spacing" textLength="421.6885" x="2690.8506" y="62.292">std::__allocated_ptr&lt;std::allocator&lt;std::_List_node&lt;int&gt;&gt;&gt;</text><rect fill="#E2E2F0" height="30.2969" rx="2.5" ry="2.5" style="stroke:#181818;stroke-width:0.5;" width="435.6885" x="2683.8506" y="1582.5781"/><text fill="#000000" font-family="sans-serif" font-size="14" lengthAdjust="spacing" textLength="421.6885" x="2690.8506" y="1602.5732">std::__allocated_ptr&lt;std::allocator&lt;std::_List_node&lt;int&gt;&gt;&gt;</text><rect fill="#E2E2F0" height="30.2969" rx="2.5" ry="2.5" style="stroke:#181818;stroke-width:0.5;" width="701.2646" x="3129.5391" y="42.2969"/><text fill="#000000" font-family="sans-serif" font-size="14" lengthAdjust="spacing" textLength="687.2646" x="3136.5391" y="62.292">std::__addressof&lt;std::allocator&lt;std::_List_node&lt;int&gt;&gt;&gt;(std::allocator&lt;std::_List_node&lt;int&gt;&gt; &amp;)</text><rect fill="#E2E2F0" height="30.2969" rx="2.5" ry="2.5" style="stroke:#181818;stroke-width:0.5;" width="701.2646" x="3129.5391" y="1582.5781"/><text fill="#000000" font-family="sans-serif" font-size="14" lengthAdjust="spacing" textLength="687.2646" x="3136.5391" y="1602.5732">std::__addressof&lt;std::allocator&lt;std::_List_node&lt;int&gt;&gt;&gt;(std::allocator&lt;std::_List_node&lt;int&gt;&gt; &amp;)</text><rect fill="#E2E2F0" height="30.2969" rx="2.5" ry="2.5" style="stroke:#181818;stroke-width:0.5;" width="160.2275" x="3840.8037" y="42.2969"/><text fill="#000000" font-family="sans-serif" font-size="14" lengthAdjust="spacing" textLength="146.2275" x="3847.8037" y="62.292">std::_List_node&lt;int&gt;</text><rect fill="#E2E2F0" height="30.2969" rx="2.5" ry="2.5" style="stroke:#181818;stroke-width:0.5;" width="160.2275" x="3840.8037" y="1582.5781"/><text fill="#000000" font-family="sans-serif" font-size="14" lengthAdjust="spacing" textLength="146.2275" x="3847.8037" y="1602.5732">std::_List_node&lt;int&gt;</text><rect fill="#E2E2F0" height="30.2969" rx="2.5" ry="2.5" style="stroke:#181818;stroke-width:0.5;" width="240.2422" x="4011.0313" y="42.2969"/><text fill="#000000" font-family="sans-serif" font-size="14" lengthAdjust="spacing" text-decoration="underline" textLength="67.334" x="4018.0313" y="62.292">gnu_cxx::</text><text fill="#000000" font-family="sans-serif" font-size="14" lengthAdjust="spacing" textLength="158.9082" x="4085.3652" y="62.292">aligned_membuf&lt;int&gt;</text><rect fill="#E2E2F0" height="30.2969" rx="2.5" ry="2.5" style="stroke:#181818;stroke-width:0.5;" width="240.2422" x="4011.0313" y="1582.5781"/><text fill="#000000" font-family="sans-serif" font-size="14" lengthAdjust="spacing" text-decoration="underline" textLength="67.334" x="4018.0313" y="1602.5732">gnu_cxx::</text><text fill="#000000" font-family="sans-serif" font-size="14" lengthAdjust="spacing" textLength="158.9082" x="4085.3652" y="1602.5732">aligned_membuf&lt;int&gt;</text><rect fill="#E2E2F0" height="30.2969" rx="2.5" ry="2.5" style="stroke:#181818;stroke-width:0.5;" width="221.6689" x="4261.2734" y="42.2969"/><text fill="#000000" font-family="sans-serif" font-size="14" lengthAdjust="spacing" textLength="207.6689" x="4268.2734" y="62.292">std::__detail::_List_node_base</text><rect fill="#E2E2F0" height="30.2969" rx="2.5" ry="2.5" style="stroke:#181818;stroke-width:0.5;" width="221.6689" x="4261.2734" y="1582.5781"/><text fill="#000000" font-family="sans-serif" font-size="14" lengthAdjust="spacing" textLength="207.6689" x="4268.2734" y="1602.5732">std::__detail::_List_node_base</text><g><title>clanguml_examples::list::emplace()</title><rect fill="#FFFFFF" height="1481.9844" style="stroke:#181818;stroke-width:1;" width="10" x="131.6978" y="83.5938"/></g><g><title>std::list&lt;int,std::allocator&lt;int&gt;&gt;</title><rect fill="#FFFFFF" height="30" style="stroke:#181818;stroke-width:1;" width="10" x="396.2236" y="104.7266"/></g><g><title>std::list&lt;int,std::allocator&lt;int&gt;&gt;</title><rect fill="#FFFFFF" height="73.1328" style="stroke:#181818;stroke-width:1;" width="10" x="396.2236" y="163.8594"/></g><g><title>std::list&lt;int,std::allocator&lt;int&gt;&gt;</title><rect fill="#FFFFFF" height="1240.3203" style="stroke:#181818;stroke-width:1;" width="10" x="396.2236" y="325.2578"/></g><g><title>std::list&lt;int,std::allocator&lt;int&gt;&gt;</title><rect fill="#FFFFFF" height="902.5234" style="stroke:#181818;stroke-width:1;" width="10" x="401.2236" y="362.3906"/></g><g><title>std::_List_iterator&lt;int&gt;</title><rect fill="#FFFFFF" height="30" style="stroke:#181818;stroke-width:1;" width="10" x="694.0913" y="192.9922"/></g><g><title>std::_List_iterator&lt;int&gt;</title><rect fill="#FFFFFF" height="30" style="stroke:#181818;stroke-width:1;" width="10" x="694.0913" y="1330.1797"/></g><g><title>std::_List_iterator&lt;int&gt;</title><rect fill="#FFFFFF" height="30" style="stroke:#181818;stroke-width:1;" width="10" x="694.0913" y="1521.5781"/></g><g><title>std::_List_const_iterator&lt;int&gt;</title><rect fill="#FFFFFF" height="30" style="stroke:#181818;stroke-width:1;" width="10" x="991.959" y="266.125"/></g><g><title>std::_List_const_iterator&lt;int&gt;</title><rect fill="#FFFFFF" height="73.1328" style="stroke:#181818;stroke-width:1;" width="10" x="991.959" y="1301.0469"/></g><g><title>std::_List_base&lt;int,std::allocator&lt;int&gt;&gt;</title><rect fill="#FFFFFF" height="445.3281" style="stroke:#181818;stroke-width:1;" width="10" x="1261.6016" y="396.5234"/></g><g><title>std::_List_base&lt;int,std::allocator&lt;int&gt;&gt;</title><rect fill="#FFFFFF" height="14" style="stroke:#181818;stroke-width:1;" width="10" x="1261.6016" y="870.9844"/></g><g><title>std::_List_base&lt;int,std::allocator&lt;int&gt;&gt;</title><rect fill="#FFFFFF" height="30" style="stroke:#181818;stroke-width:1;" width="10" x="1261.6016" y="1462.4453"/></g><g><title>std::allocator_traits&lt;std::allocator&lt;std::_List_node&lt;int&gt;&gt;&gt;</title><rect fill="#FFFFFF" height="402.1953" style="stroke:#181818;stroke-width:1;" width="10" x="1637.5088" y="425.6563"/></g><g><title>std::allocator_traits&lt;std::allocator&lt;std::_List_node&lt;int&gt;&gt;&gt;</title><rect fill="#FFFFFF" height="59.1328" style="stroke:#181818;stroke-width:1;" width="10" x="1637.5088" y="1142.6484"/></g><g><title>std::__new_allocator&lt;std::_List_node&lt;int&gt;&gt;</title><rect fill="#FFFFFF" height="359.0625" style="stroke:#181818;stroke-width:1;" width="10" x="2027.8159" y="454.7891"/></g><g><title>std::__new_allocator&lt;std::_List_node&lt;int&gt;&gt;</title><rect fill="#FFFFFF" height="25" style="stroke:#181818;stroke-width:1;" width="10" x="2032.8159" y="516.0547"/></g><g><title>std::__new_allocator&lt;std::_List_node&lt;int&gt;&gt;</title><rect fill="#FFFFFF" height="30" style="stroke:#181818;stroke-width:1;" width="10" x="2027.8159" y="1171.7813"/></g><g><title>std::__throw_bad_array_new_length()</title><rect fill="#FFFFFF" height="30" style="stroke:#181818;stroke-width:1;" width="10" x="2338.2007" y="666.7188"/></g><g><title>std::__throw_bad_alloc()</title><rect fill="#FFFFFF" height="30" style="stroke:#181818;stroke-width:1;" width="10" x="2577.2832" y="717.7188"/></g><g><title>std::__allocated_ptr&lt;std::allocator&lt;std::_List_node&lt;int&gt;&gt;&gt;</title><rect fill="#FFFFFF" height="44" style="stroke:#181818;stroke-width:1;" width="10" x="2896.6948" y="914.1172"/></g><g><title>std::__allocated_ptr&lt;std::allocator&lt;std::_List_node&lt;int&gt;&gt;&gt;</title><rect fill="#FFFFFF" height="14" style="stroke:#181818;stroke-width:1;" width="10" x="2896.6948" y="1230.9141"/></g><g><title>std::__addressof&lt;std::allocator&lt;std::_List_node&lt;int&gt;&gt;&gt;(std::allocator&lt;std::_List_node&lt;int&gt;&gt; &amp;)</title><rect fill="#FFFFFF" height="30" style="stroke:#181818;stroke-width:1;" width="10" x="3475.1714" y="928.1172"/></g><g><title>std::_List_node&lt;int&gt;</title><rect fill="#FFFFFF" height="126.2656" style="stroke:#181818;stroke-width:1;" width="10" x="3915.9175" y="987.25"/></g><g><title>__gnu_cxx::__aligned_membuf&lt;int&gt;</title><rect fill="#FFFFFF" height="83.1328" style="stroke:#181818;stroke-width:1;" width="10" x="4126.1523" y="1016.3828"/></g><g><title>__gnu_cxx::__aligned_membuf&lt;int&gt;</title><rect fill="#FFFFFF" height="25" style="stroke:#181818;stroke-width:1;" width="10" x="4131.1523" y="1053.5156"/></g><g><title>std::__detail::_List_node_base</title><rect fill="#FFFFFF" height="30" style="stroke:#181818;stroke-width:1;" width="10" x="4367.1079" y="1403.3125"/></g><a href="" target="_top" title="" xlink:actuate="onRequest" xlink:href="" xlink:show="new" xlink:title="" xlink:type="simple"><polygon fill="#181818" points="384.2236,100.7266,394.2236,104.7266,384.2236,108.7266,388.2236,104.7266" style="stroke:#181818;stroke-width:1;"/><line style="stroke:#181818;stroke-width:1;" x1="141.6978" x2="390.2236" y1="104.7266" y2="104.7266"/><text fill="#000000" font-family="sans-serif" font-size="13" lengthAdjust="spacing" textLength="29.2373" x="148.6978" y="99.6606">list()</text></a><a href="" target="_top" title="" xlink:actuate="onRequest" xlink:href="" xlink:show="new" xlink:title="" xlink:type="simple"><polygon fill="#181818" points="384.2236,159.8594,394.2236,163.8594,384.2236,167.8594,388.2236,163.8594" style="stroke:#181818;stroke-width:1;"/><line style="stroke:#181818;stroke-width:1;" x1="141.6978" x2="390.2236" y1="163.8594" y2="163.8594"/><text fill="#000000" font-family="sans-serif" font-size="13" lengthAdjust="spacing" textLength="34.6328" x="148.6978" y="158.7935">end()</text></a><polygon fill="#181818" points="682.0913,188.9922,692.0913,192.9922,682.0913,196.9922,686.0913,192.9922" style="stroke:#181818;stroke-width:1;"/><line style="stroke:#181818;stroke-width:1;" x1="406.2236" x2="688.0913" y1="192.9922" y2="192.9922"/><text fill="#000000" font-family="sans-serif" font-size="13" lengthAdjust="spacing" textLength="268.8677" x="413.2236" y="187.9263">_List_iterator(__detail::_List_node_base *)</text><polygon fill="#181818" points="152.6978,232.9922,142.6978,236.9922,152.6978,240.9922,148.6978,236.9922" style="stroke:#181818;stroke-width:1;"/><line style="stroke:#181818;stroke-width:1;stroke-dasharray:2.0,2.0;" x1="146.6978" x2="400.2236" y1="236.9922" y2="236.9922"/><a href="" target="_top" title="" xlink:actuate="onRequest" xlink:href="" xlink:show="new" xlink:title="" xlink:type="simple"><polygon fill="#181818" points="979.959,262.125,989.959,266.125,979.959,270.125,983.959,266.125" style="stroke:#181818;stroke-width:1;"/><line style="stroke:#181818;stroke-width:1;" x1="141.6978" x2="985.959" y1="266.125" y2="266.125"/><text fill="#000000" font-family="sans-serif" font-size="13" lengthAdjust="spacing" textLength="238.0181" x="148.6978" y="261.0591">_List_const_iterator(const iterator &amp;)</text></a><a href="" target="_top" title="" xlink:actuate="onRequest" xlink:href="" xlink:show="new" xlink:title="" xlink:type="simple"><polygon fill="#181818" points="384.2236,321.2578,394.2236,325.2578,384.2236,329.2578,388.2236,325.2578" style="stroke:#181818;stroke-width:1;"/><line style="stroke:#181818;stroke-width:1;" x1="141.6978" x2="390.2236" y1="325.2578" y2="325.2578"/><text fill="#000000" font-family="sans-serif" font-size="13" lengthAdjust="spacing" textLength="201.3921" x="148.6978" y="320.1919">emplace(const_iterator,int &amp;&amp;)</text></a><line style="stroke:#181818;stroke-width:1;" x1="406.2236" x2="453.2236" y1="349.3906" y2="349.3906"/><line style="stroke:#181818;stroke-width:1;" x1="453.2236" x2="453.2236" y1="349.3906" y2="362.3906"/><line style="stroke:#181818;stroke-width:1;" x1="412.2236" x2="453.2236" y1="362.3906" y2="362.3906"/><polygon fill="#181818" points="422.2236,358.3906,412.2236,362.3906,422.2236,366.3906,418.2236,362.3906" style="stroke:#181818;stroke-width:1;"/><text fill="#000000" font-family="sans-serif" font-size="13" lengthAdjust="spacing" textLength="156.2095" x="418.2236" y="344.3247">_M_create_node(int &amp;&amp;)</text><polygon fill="#181818" points="1249.6016,392.5234,1259.6016,396.5234,1249.6016,400.5234,1253.6016,396.5234" style="stroke:#181818;stroke-width:1;"/><line style="stroke:#181818;stroke-width:1;" x1="411.2236" x2="1255.6016" y1="396.5234" y2="396.5234"/><text fill="#000000" font-family="sans-serif" font-size="13" lengthAdjust="spacing" textLength="94.6499" x="418.2236" y="391.4575">_M_get_node()</text><polygon fill="#181818" points="1625.5088,421.6563,1635.5088,425.6563,1625.5088,429.6563,1629.5088,425.6563" style="stroke:#181818;stroke-width:1;"/><line style="stroke:#181818;stroke-width:1;" x1="1271.6016" x2="1631.5088" y1="425.6563" y2="425.6563"/><text fill="#000000" font-family="sans-serif" font-size="13" lengthAdjust="spacing" text-decoration="underline" textLength="232.8384" x="1278.6016" y="420.5903">allocate(allocator_type &amp;,size_type)</text><polygon fill="#181818" points="2015.8159,450.7891,2025.8159,454.7891,2015.8159,458.7891,2019.8159,454.7891" style="stroke:#181818;stroke-width:1;"/><line style="stroke:#181818;stroke-width:1;" x1="1647.5088" x2="2021.8159" y1="454.7891" y2="454.7891"/><text fill="#000000" font-family="sans-serif" font-size="13" lengthAdjust="spacing" textLength="203.8613" x="1654.5088" y="449.7231">allocate(size_type,const void *)</text><path d="M1849.9463,469.7891 L1914.3892,469.7891 L1914.3892,476.9219 L1904.3892,486.9219 L1849.9463,486.9219 L1849.9463,469.7891 " fill="#EEEEEE" style="stroke:#000000;stroke-width:1.5;"/><rect fill="transparent" height="285.9297" style="stroke:#000000;stroke-width:1.5;" width="833.9043" x="1849.9463" y="469.7891"/><text fill="#000000" font-family="sans-serif" font-size="13" font-weight="bold" lengthAdjust="spacing" textLength="19.4429" x="1864.9463" y="482.856">alt</text><line style="stroke:#181818;stroke-width:1;" x1="2037.8159" x2="2084.8159" y1="503.0547" y2="503.0547"/><line style="stroke:#181818;stroke-width:1;" x1="2084.8159" x2="2084.8159" y1="503.0547" y2="516.0547"/><line style="stroke:#181818;stroke-width:1;" x1="2043.8159" x2="2084.8159" y1="516.0547" y2="516.0547"/><polygon fill="#181818" points="2053.8159,512.0547,2043.8159,516.0547,2053.8159,520.0547,2049.8159,516.0547" style="stroke:#181818;stroke-width:1;"/><text fill="#000000" font-family="sans-serif" font-size="13" font-weight="bold" lengthAdjust="spacing" textLength="5.9414" x="2049.8159" y="497.9888">[</text><text fill="#000000" font-family="sans-serif" font-size="13" lengthAdjust="spacing" textLength="133.7324" x="2055.7573" y="497.9888">_M_max_size() const</text><text fill="#000000" font-family="sans-serif" font-size="13" font-weight="bold" lengthAdjust="spacing" textLength="5.9414" x="2189.4897" y="497.9888">]</text><line style="stroke:#181818;stroke-width:1;stroke-dasharray:2.0,2.0;" x1="2042.8159" x2="2084.8159" y1="540.0547" y2="540.0547"/><line style="stroke:#181818;stroke-width:1;stroke-dasharray:2.0,2.0;" x1="2084.8159" x2="2084.8159" y1="540.0547" y2="553.0547"/><line style="stroke:#181818;stroke-width:1;stroke-dasharray:2.0,2.0;" x1="2037.8159" x2="2084.8159" y1="553.0547" y2="553.0547"/><polygon fill="#181818" points="2047.8159,549.0547,2037.8159,553.0547,2047.8159,557.0547,2043.8159,553.0547" style="stroke:#181818;stroke-width:1;"/><path d="M1911,561.0547 L1911,631.0547 L2154,631.0547 L2154,571.0547 L2144,561.0547 L1911,561.0547 " fill="#FEFFDD" style="stroke:#181818;stroke-width:0.5;"/><path d="M2144,561.0547 L2144,571.0547 L2154,571.0547 L2144,561.0547 " fill="#FEFFDD" style="stroke:#181818;stroke-width:0.5;"/><text fill="#000000" font-family="sans-serif" font-size="13" lengthAdjust="spacing" textLength="222.2188" x="1917" y="578.1216">_GLIBCXX_RESOLVE_LIB_DEFECTS</text><text fill="#000000" font-family="sans-serif" font-size="13" lengthAdjust="spacing" textLength="158.1138" x="1917" y="593.2544">3190. allocator::allocate</text><text fill="#000000" font-family="sans-serif" font-size="13" lengthAdjust="spacing" textLength="180.9971" x="1917" y="608.3872">sometimes returns too little</text><text fill="#000000" font-family="sans-serif" font-size="13" lengthAdjust="spacing" textLength="49.3848" x="1917" y="623.52">storage</text><path d="M1859.9463,643.5859 L1924.3892,643.5859 L1924.3892,650.7188 L1914.3892,660.7188 L1859.9463,660.7188 L1859.9463,643.5859 " fill="#EEEEEE" style="stroke:#000000;stroke-width:1.5;"/><rect fill="transparent" height="61.1328" style="stroke:#000000;stroke-width:1.5;" width="630.7695" x="1859.9463" y="643.5859"/><text fill="#000000" font-family="sans-serif" font-size="13" font-weight="bold" lengthAdjust="spacing" textLength="19.4429" x="1874.9463" y="656.6528">alt</text><polygon fill="#181818" points="2326.2007,662.7188,2336.2007,666.7188,2326.2007,670.7188,2330.2007,666.7188" style="stroke:#181818;stroke-width:1;"/><line style="stroke:#181818;stroke-width:1;" x1="2037.8159" x2="2332.2007" y1="666.7188" y2="666.7188"/><polygon fill="#181818" points="2565.2832,713.7188,2575.2832,717.7188,2565.2832,721.7188,2569.2832,717.7188" style="stroke:#181818;stroke-width:1;"/><line style="stroke:#181818;stroke-width:1;" x1="2037.8159" x2="2571.2832" y1="717.7188" y2="717.7188"/><path d="M1415.0713,769.7188 L1479.5142,769.7188 L1479.5142,776.8516 L1469.5142,786.8516 L1415.0713,786.8516 L1415.0713,769.7188 " fill="#EEEEEE" style="stroke:#000000;stroke-width:1.5;"/><rect fill="transparent" height="31.1328" style="stroke:#000000;stroke-width:1.5;" width="790.6143" x="1415.0713" y="769.7188"/><text fill="#000000" font-family="sans-serif" font-size="13" font-weight="bold" lengthAdjust="spacing" textLength="19.4429" x="1430.0713" y="782.7856">alt</text><polygon fill="#181818" points="1658.5088,788.8516,1648.5088,792.8516,1658.5088,796.8516,1654.5088,792.8516" style="stroke:#181818;stroke-width:1;"/><line style="stroke:#181818;stroke-width:1;stroke-dasharray:2.0,2.0;" x1="1652.5088" x2="2026.8159" y1="792.8516" y2="792.8516"/><polygon fill="#181818" points="1658.5088,809.8516,1648.5088,813.8516,1658.5088,817.8516,1654.5088,813.8516" style="stroke:#181818;stroke-width:1;"/><line style="stroke:#181818;stroke-width:1;stroke-dasharray:2.0,2.0;" x1="1652.5088" x2="2031.8159" y1="813.8516" y2="813.8516"/><polygon fill="#181818" points="1282.6016,823.8516,1272.6016,827.8516,1282.6016,831.8516,1278.6016,827.8516" style="stroke:#181818;stroke-width:1;"/><line style="stroke:#181818;stroke-width:1;stroke-dasharray:2.0,2.0;" x1="1276.6016" x2="1641.5088" y1="827.8516" y2="827.8516"/><polygon fill="#181818" points="422.2236,837.8516,412.2236,841.8516,422.2236,845.8516,418.2236,841.8516" style="stroke:#181818;stroke-width:1;"/><line style="stroke:#181818;stroke-width:1;stroke-dasharray:2.0,2.0;" x1="416.2236" x2="1265.6016" y1="841.8516" y2="841.8516"/><polygon fill="#181818" points="1249.6016,866.9844,1259.6016,870.9844,1249.6016,874.9844,1253.6016,870.9844" style="stroke:#181818;stroke-width:1;"/><line style="stroke:#181818;stroke-width:1;" x1="411.2236" x2="1255.6016" y1="870.9844" y2="870.9844"/><text fill="#000000" font-family="sans-serif" font-size="13" lengthAdjust="spacing" textLength="159.2881" x="418.2236" y="865.9185">_M_get_Node_allocator()</text><polygon fill="#181818" points="422.2236,880.9844,412.2236,884.9844,422.2236,888.9844,418.2236,884.9844" style="stroke:#181818;stroke-width:1;"/><line style="stroke:#181818;stroke-width:1;stroke-dasharray:2.0,2.0;" x1="416.2236" x2="1265.6016" y1="884.9844" y2="884.9844"/><polygon fill="#181818" points="2884.6948,910.1172,2894.6948,914.1172,2884.6948,918.1172,2888.6948,914.1172" style="stroke:#181818;stroke-width:1;"/><line style="stroke:#181818;stroke-width:1;" x1="411.2236" x2="2890.6948" y1="914.1172" y2="914.1172"/><text fill="#000000" font-family="sans-serif" font-size="13" lengthAdjust="spacing" textLength="415.9429" x="418.2236" y="909.0513">__allocated_ptr(std::allocator&lt;std::_List_node&lt;int&gt;&gt; &amp;,pointer)</text><polygon fill="#181818" points="3463.1714,924.1172,3473.1714,928.1172,3463.1714,932.1172,3467.1714,928.1172" style="stroke:#181818;stroke-width:1;"/><line style="stroke:#181818;stroke-width:1;" x1="2906.6948" x2="3469.1714" y1="928.1172" y2="928.1172"/><polygon fill="#181818" points="3903.9175,983.25,3913.9175,987.25,3903.9175,991.25,3907.9175,987.25" style="stroke:#181818;stroke-width:1;"/><line style="stroke:#181818;stroke-width:1;" x1="411.2236" x2="3909.9175" y1="987.25" y2="987.25"/><text fill="#000000" font-family="sans-serif" font-size="13" lengthAdjust="spacing" textLength="72.3252" x="418.2236" y="982.1841">_M_valptr()</text><polygon fill="#181818" points="4114.1523,1012.3828,4124.1523,1016.3828,4114.1523,1020.3828,4118.1523,1016.3828" style="stroke:#181818;stroke-width:1;"/><line style="stroke:#181818;stroke-width:1;" x1="3925.9175" x2="4120.1523" y1="1016.3828" y2="1016.3828"/><text fill="#000000" font-family="sans-serif" font-size="13" lengthAdjust="spacing" textLength="53.0537" x="3932.9175" y="1011.3169">_M_ptr()</text><line style="stroke:#181818;stroke-width:1;" x1="4136.1523" x2="4183.1523" y1="1040.5156" y2="1040.5156"/><line style="stroke:#181818;stroke-width:1;" x1="4183.1523" x2="4183.1523" y1="1040.5156" y2="1053.5156"/><line style="stroke:#181818;stroke-width:1;" x1="4142.1523" x2="4183.1523" y1="1053.5156" y2="1053.5156"/><polygon fill="#181818" points="4152.1523,1049.5156,4142.1523,1053.5156,4152.1523,1057.5156,4148.1523,1053.5156" style="stroke:#181818;stroke-width:1;"/><text fill="#000000" font-family="sans-serif" font-size="13" lengthAdjust="spacing" textLength="64.1748" x="4148.1523" y="1035.4497">_M_addr()</text><line style="stroke:#181818;stroke-width:1;stroke-dasharray:2.0,2.0;" x1="4141.1523" x2="4183.1523" y1="1077.5156" y2="1077.5156"/><line style="stroke:#181818;stroke-width:1;stroke-dasharray:2.0,2.0;" x1="4183.1523" x2="4183.1523" y1="1077.5156" y2="1090.5156"/><line style="stroke:#181818;stroke-width:1;stroke-dasharray:2.0,2.0;" x1="4136.1523" x2="4183.1523" y1="1090.5156" y2="1090.5156"/><polygon fill="#181818" points="4146.1523,1086.5156,4136.1523,1090.5156,4146.1523,1094.5156,4142.1523,1090.5156" style="stroke:#181818;stroke-width:1;"/><polygon fill="#181818" points="3936.9175,1095.5156,3926.9175,1099.5156,3936.9175,1103.5156,3932.9175,1099.5156" style="stroke:#181818;stroke-width:1;"/><line style="stroke:#181818;stroke-width:1;stroke-dasharray:2.0,2.0;" x1="3930.9175" x2="4130.1523" y1="1099.5156" y2="1099.5156"/><polygon fill="#181818" points="422.2236,1109.5156,412.2236,1113.5156,422.2236,1117.5156,418.2236,1113.5156" style="stroke:#181818;stroke-width:1;"/><line style="stroke:#181818;stroke-width:1;stroke-dasharray:2.0,2.0;" x1="416.2236" x2="3919.9175" y1="1113.5156" y2="1113.5156"/><polygon fill="#181818" points="1625.5088,1138.6484,1635.5088,1142.6484,1625.5088,1146.6484,1629.5088,1142.6484" style="stroke:#181818;stroke-width:1;"/><line style="stroke:#181818;stroke-width:1;" x1="411.2236" x2="1631.5088" y1="1142.6484" y2="1142.6484"/><text fill="#000000" font-family="sans-serif" font-size="13" lengthAdjust="spacing" text-decoration="underline" textLength="254.8457" x="418.2236" y="1137.5825">construct(allocator_type &amp;,int *,int &amp;&amp;)</text><polygon fill="#181818" points="2015.8159,1167.7813,2025.8159,1171.7813,2015.8159,1175.7813,2019.8159,1171.7813" style="stroke:#181818;stroke-width:1;"/><line style="stroke:#181818;stroke-width:1;" x1="1647.5088" x2="2021.8159" y1="1171.7813" y2="1171.7813"/><text fill="#000000" font-family="sans-serif" font-size="13" lengthAdjust="spacing" textLength="144.2505" x="1654.5088" y="1166.7153">construct(int *,int &amp;&amp;)</text><polygon fill="#181818" points="2884.6948,1226.9141,2894.6948,1230.9141,2884.6948,1234.9141,2888.6948,1230.9141" style="stroke:#181818;stroke-width:1;"/><line style="stroke:#181818;stroke-width:1;" x1="411.2236" x2="2890.6948" y1="1230.9141" y2="1230.9141"/><text fill="#000000" font-family="sans-serif" font-size="13" lengthAdjust="spacing" textLength="159.8213" x="418.2236" y="1225.8481">operator=(std::nullptr_t)</text><polygon fill="#181818" points="422.2236,1240.9141,412.2236,1244.9141,422.2236,1248.9141,418.2236,1244.9141" style="stroke:#181818;stroke-width:1;"/><line style="stroke:#181818;stroke-width:1;stroke-dasharray:2.0,2.0;" x1="416.2236" x2="2900.6948" y1="1244.9141" y2="1244.9141"/><line style="stroke:#181818;stroke-width:1;stroke-dasharray:2.0,2.0;" x1="411.2236" x2="453.2236" y1="1263.9141" y2="1263.9141"/><line style="stroke:#181818;stroke-width:1;stroke-dasharray:2.0,2.0;" x1="453.2236" x2="453.2236" y1="1263.9141" y2="1276.9141"/><line style="stroke:#181818;stroke-width:1;stroke-dasharray:2.0,2.0;" x1="406.2236" x2="453.2236" y1="1276.9141" y2="1276.9141"/><polygon fill="#181818" points="416.2236,1272.9141,406.2236,1276.9141,416.2236,1280.9141,412.2236,1276.9141" style="stroke:#181818;stroke-width:1;"/><polygon fill="#181818" points="979.959,1297.0469,989.959,1301.0469,979.959,1305.0469,983.959,1301.0469" style="stroke:#181818;stroke-width:1;"/><line style="stroke:#181818;stroke-width:1;" x1="406.2236" x2="985.959" y1="1301.0469" y2="1301.0469"/><text fill="#000000" font-family="sans-serif" font-size="13" lengthAdjust="spacing" textLength="142.397" x="413.2236" y="1295.981">_M_const_cast() const</text><polygon fill="#181818" points="715.0913,1326.1797,705.0913,1330.1797,715.0913,1334.1797,711.0913,1330.1797" style="stroke:#181818;stroke-width:1;"/><line style="stroke:#181818;stroke-width:1;" x1="709.0913" x2="990.959" y1="1330.1797" y2="1330.1797"/><text fill="#000000" font-family="sans-serif" font-size="13" lengthAdjust="spacing" textLength="268.8677" x="721.0913" y="1325.1138">_List_iterator(__detail::_List_node_base *)</text><polygon fill="#181818" points="417.2236,1370.1797,407.2236,1374.1797,417.2236,1378.1797,413.2236,1374.1797" style="stroke:#181818;stroke-width:1;"/><line style="stroke:#181818;stroke-width:1;stroke-dasharray:2.0,2.0;" x1="411.2236" x2="995.959" y1="1374.1797" y2="1374.1797"/><polygon fill="#181818" points="4355.1079,1399.3125,4365.1079,1403.3125,4355.1079,1407.3125,4359.1079,1403.3125" style="stroke:#181818;stroke-width:1;"/><line style="stroke:#181818;stroke-width:1;" x1="406.2236" x2="4361.1079" y1="1403.3125" y2="1403.3125"/><text fill="#000000" font-family="sans-serif" font-size="13" lengthAdjust="spacing" textLength="217.5342" x="413.2236" y="1398.2466">_M_hook(_List_node_base *const)</text><polygon fill="#181818" points="1249.6016,1458.4453,1259.6016,1462.4453,1249.6016,1466.4453,1253.6016,1462.4453" style="stroke:#181818;stroke-width:1;"/><line style="stroke:#181818;stroke-width:1;" x1="406.2236" x2="1255.6016" y1="1462.4453" y2="1462.4453"/><text fill="#000000" font-family="sans-serif" font-size="13" lengthAdjust="spacing" textLength="121.8687" x="413.2236" y="1457.3794">_M_inc_size(size_t)</text><polygon fill="#181818" points="682.0913,1517.5781,692.0913,1521.5781,682.0913,1525.5781,686.0913,1521.5781" style="stroke:#181818;stroke-width:1;"/><line style="stroke:#181818;stroke-width:1;" x1="406.2236" x2="688.0913" y1="1521.5781" y2="1521.5781"/><text fill="#000000" font-family="sans-serif" font-size="13" lengthAdjust="spacing" textLength="268.8677" x="413.2236" y="1516.5122">_List_iterator(__detail::_List_node_base *)</text><polygon fill="#181818" points="147.6978,1561.5781,137.6978,1565.5781,147.6978,1569.5781,143.6978,1565.5781" style="stroke:#181818;stroke-width:1;"/><line style="stroke:#181818;stroke-width:1;stroke-dasharray:2.0,2.0;" x1="141.6978" x2="400.2236" y1="1565.5781" y2="1565.5781"/><!--SRC=[vLZVRzis47xNNq7q8NMCD215_MBGvM5TLXH8Ds3TYW91G30IwmYJ9K-YadJ3_lUTf5YsfPCbknqmO4-s9DxTzzqTxuuqiKaqAKnqSP74XI5wkKfKg6UdfD1_b3eDDObYjSZLqbgftCHXl5Af8I_2HAMBSfb8_QH0H1UD_CL5g-05KGLv8obbdkrnJuZ02pmk7DTp0eVStFprlFBlsrjBXIP-K4OFhjyrti9z7QVch7vIIPA5ocHvzUhoScFSze90U0vruIUWDlEePmsYUdKvA5GX1gZaWbI6PwSTp9YPI8-l-JeeEeqc8UbxJru32naRdRTEs_ZCzGLpAEM-xLBV5OpQpq0nC6kWY10WtBKpapBIHiN96a2QHLhUgKAJUPS71gBhqSE0hf5Y-JKbLaDU3BDqs9UWdJ7XS-4or_Dj3kR6Wuu8ROAE6PtLZsJzI4wwtiHWT3aV1NL_VZuNWrsmP-0XSd8o9N57imxx1YvwByDSW-OwmMRJxGs5k4hHyM930zjcD72vxxd24JONr1sbW0ar51QwsI3TBOwQwIDlKKgJgzWKhplOj-XLLXekMsIOwpAVKmTs5MK1zHbhue42NfD1X2eoyjcidcsX-hBIvEIiYF_KzVzJAJiyCGH8X6Ig7-K8hmqjp_Mv4_ZKvKm8q4bjsng4lgQ5206jbbJBuQpPXmzP7FKg6cfP9SOQjB3V-dn-Cvz3cYpLawm0GC-khS_dj_Fv1DF3PlVOxHODT4sQmTViGUV3I-JRwtVVl_dqIVvozU7dwuzN4Xxb3rS_NhtvzOC5w-WvQIFQ9gssYcofJRpK1ScrAVEq82RBe2CRc6Ai0jQgXRQWAv8AGkrSB5_CVPuzmfwEfCfpzQNEdqId2tE_FRRuJBWqS0JpcE2kRJksFnegJ0X2rQaycEPkCSRM0B4nFfMZjabma8K6oG8kVC4XkpaT9u48zKbWchiai3KLYVrPlwUMrDB7IKv9tE4wiATOzpGVLZZtTBAUvc_VNtwg1h1sfqtgDFyU5Iotrri_aYkJ7zp21E0Gr1PW3qON4N0-xYz4QAU5rKXcKv10Trjby4_dNRzYm53sKPJheiW-JsC-4TNfbeSuSnpNzbqte0wWuU8vLp4lj1xg2_Ng0wgvjrEch9dcgbsIcm88mok4smcunwZZsRxjE-DJ9IBKR9a7bLJ1xuwIc94TZ58kqbA6JqzDIiUB5D9egPTtvUTTlE2ImACk76IWXWGCq35c3MBQ1AGdrE15m0vQGBMCMgWoz2jDxB61PCmHcj7uJDMCE_w0KdTK2WuEqlM8bvUXwK_IrJ5dlZvSJHgcZvnxDnXsJ4wOEQSquQdjz8WYdgsQ4-XtJQ5CowJQpj9CAS_3LV6GjdTOHpeaouuwFcCN3StnkJwnXwgwwchYRKszB41K_YVlY52WXtWSSm7Mn0VeR6e-fnwpULKNe0-wZktm2HcE23MXky-otsSzrzKnxEOvPhYRiKU16vmvupHi3glDaNdAlFajXk3_mUraBpiHFTRBjpgjoEg8FCRcdjJN-A_APN96uBXUn5bAwBbtpgoNrzSVtxVlVhihKrCsgzkNJ9opSqPchAo_ijD_0000]--></g></svg>