<svg xmlns="http://www.w3.org/2000/svg" xmlns:xlink="http://www.w3.org/1999/xlink" contentStyleType="text/css" data-diagram-type="CLASS" height="559px" preserveAspectRatio="none" style="width:3634px;height:559px;background:#FFFFFF;" version="1.1" viewBox="0 0 3634 559" width="3634px" zoomAndPan="magnify"><title>std::list context class diagram</title><defs/><g><text fill="#000000" font-family="sans-serif" font-size="14" font-weight="bold" lengthAdjust="spacing" textLength="239.7227" x="1690.2014" y="22.9951">std::list context class diagram</text><!--class C_0001780373788828611506--><g id="elem_C_0001780373788828611506"><rect codeLine="3" fill="#F1F1F1" height="48" id="C_0001780373788828611506" rx="2.5" ry="2.5" style="stroke:#181818;stroke-width:0.5;" width="278.9102" x="2821.5" y="504.2969"/><ellipse cx="2836.5" cy="520.2969" fill="#ADD1B2" rx="11" ry="11" style="stroke:#181818;stroke-width:1;"/><path d="M2839.4688,525.9375 Q2838.8906,526.2344 2838.25,526.375 Q2837.6094,526.5313 2836.9063,526.5313 Q2834.4063,526.5313 2833.0781,524.8906 Q2831.7656,523.2344 2831.7656,520.1094 Q2831.7656,516.9844 2833.0781,515.3281 Q2834.4063,513.6719 2836.9063,513.6719 Q2837.6094,513.6719 2838.25,513.8281 Q2838.9063,513.9844 2839.4688,514.2813 L2839.4688,517 Q2838.8438,516.4219 2838.25,516.1563 Q2837.6563,515.875 2837.0313,515.875 Q2835.6875,515.875 2835,516.9531 Q2834.3125,518.0156 2834.3125,520.1094 Q2834.3125,522.2031 2835,523.2813 Q2835.6875,524.3438 2837.0313,524.3438 Q2837.6563,524.3438 2838.25,524.0781 Q2838.8438,523.7969 2839.4688,523.2188 L2839.4688,525.9375 Z " fill="#000000"/><text fill="#000000" font-family="sans-serif" font-size="14" lengthAdjust="spacing" textLength="221.9629" x="2850.5" y="525.1436">::__gnu_cxx::__aligned_membuf</text><rect fill="#FFFFFF" height="15.9688" style="stroke:#181818;stroke-width:1;stroke-dasharray:2.0,2.0;" width="22.9473" x="3080.4629" y="501.2969"/><text fill="#000000" font-family="sans-serif" font-size="12" font-style="italic" lengthAdjust="spacing" textLength="20.9473" x="3081.4629" y="513.4355">_Tp</text><line style="stroke:#181818;stroke-width:0.5;" x1="2822.5" x2="3099.4102" y1="536.2969" y2="536.2969"/><line style="stroke:#181818;stroke-width:0.5;" x1="2822.5" x2="3099.4102" y1="544.2969" y2="544.2969"/></g><!--class C_0000363944907545484744--><g id="elem_C_0000363944907545484744"><rect codeLine="7" fill="#F1F1F1" height="48" id="C_0000363944907545484744" rx="2.5" ry="2.5" style="stroke:#181818;stroke-width:0.5;" width="296.7422" x="2812.5" y="330.2969"/><ellipse cx="2827.5" cy="346.2969" fill="#ADD1B2" rx="11" ry="11" style="stroke:#181818;stroke-width:1;"/><path d="M2830.4688,351.9375 Q2829.8906,352.2344 2829.25,352.375 Q2828.6094,352.5313 2827.9063,352.5313 Q2825.4063,352.5313 2824.0781,350.8906 Q2822.7656,349.2344 2822.7656,346.1094 Q2822.7656,342.9844 2824.0781,341.3281 Q2825.4063,339.6719 2827.9063,339.6719 Q2828.6094,339.6719 2829.25,339.8281 Q2829.9063,339.9844 2830.4688,340.2813 L2830.4688,343 Q2829.8438,342.4219 2829.25,342.1563 Q2828.6563,341.875 2828.0313,341.875 Q2826.6875,341.875 2826,342.9531 Q2825.3125,344.0156 2825.3125,346.1094 Q2825.3125,348.2031 2826,349.2813 Q2826.6875,350.3438 2828.0313,350.3438 Q2828.6563,350.3438 2829.25,350.0781 Q2829.8438,349.7969 2830.4688,349.2188 L2830.4688,351.9375 Z " fill="#000000"/><text fill="#000000" font-family="sans-serif" font-size="14" lengthAdjust="spacing" textLength="264.7422" x="2841.5" y="351.1436">::__gnu_cxx::__aligned_membuf::_Tp2</text><line style="stroke:#181818;stroke-width:0.5;" x1="2813.5" x2="3108.2422" y1="362.2969" y2="362.2969"/><line style="stroke:#181818;stroke-width:0.5;" x1="2813.5" x2="3108.2422" y1="370.2969" y2="370.2969"/></g><!--class C_0003061237274580542436--><g id="elem_C_0003061237274580542436"><rect codeLine="11" fill="#F1F1F1" height="48" id="C_0003061237274580542436" rx="2.5" ry="2.5" style="stroke:#181818;stroke-width:0.5;" width="208.5654" x="1571.5" y="156.2969"/><ellipse cx="1586.5" cy="172.2969" fill="#ADD1B2" rx="11" ry="11" style="stroke:#181818;stroke-width:1;"/><path d="M1589.4688,177.9375 Q1588.8906,178.2344 1588.25,178.375 Q1587.6094,178.5313 1586.9063,178.5313 Q1584.4063,178.5313 1583.0781,176.8906 Q1581.7656,175.2344 1581.7656,172.1094 Q1581.7656,168.9844 1583.0781,167.3281 Q1584.4063,165.6719 1586.9063,165.6719 Q1587.6094,165.6719 1588.25,165.8281 Q1588.9063,165.9844 1589.4688,166.2813 L1589.4688,169 Q1588.8438,168.4219 1588.25,168.1563 Q1587.6563,167.875 1587.0313,167.875 Q1585.6875,167.875 1585,168.9531 Q1584.3125,170.0156 1584.3125,172.1094 Q1584.3125,174.2031 1585,175.2813 Q1585.6875,176.3438 1587.0313,176.3438 Q1587.6563,176.3438 1588.25,176.0781 Q1588.8438,175.7969 1589.4688,175.2188 L1589.4688,177.9375 Z " fill="#000000"/><text fill="#000000" font-family="sans-serif" font-size="14" lengthAdjust="spacing" textLength="176.5654" x="1600.5" y="177.1436">__detail::_List_node_base</text><line style="stroke:#181818;stroke-width:0.5;" x1="1572.5" x2="1779.0654" y1="188.2969" y2="188.2969"/><line style="stroke:#181818;stroke-width:0.5;" x1="1572.5" x2="1779.0654" y1="196.2969" y2="196.2969"/></g><!--class C_0000986537528964488307--><g id="elem_C_0000986537528964488307"><rect codeLine="15" fill="#F1F1F1" height="48" id="C_0000986537528964488307" rx="2.5" ry="2.5" style="stroke:#181818;stroke-width:0.5;" width="224.5137" x="1030.5" y="330.2969"/><ellipse cx="1045.5" cy="346.2969" fill="#ADD1B2" rx="11" ry="11" style="stroke:#181818;stroke-width:1;"/><path d="M1048.4688,351.9375 Q1047.8906,352.2344 1047.25,352.375 Q1046.6094,352.5313 1045.9063,352.5313 Q1043.4063,352.5313 1042.0781,350.8906 Q1040.7656,349.2344 1040.7656,346.1094 Q1040.7656,342.9844 1042.0781,341.3281 Q1043.4063,339.6719 1045.9063,339.6719 Q1046.6094,339.6719 1047.25,339.8281 Q1047.9063,339.9844 1048.4688,340.2813 L1048.4688,343 Q1047.8438,342.4219 1047.25,342.1563 Q1046.6563,341.875 1046.0313,341.875 Q1044.6875,341.875 1044,342.9531 Q1043.3125,344.0156 1043.3125,346.1094 Q1043.3125,348.2031 1044,349.2813 Q1044.6875,350.3438 1046.0313,350.3438 Q1046.6563,350.3438 1047.25,350.0781 Q1047.8438,349.7969 1048.4688,349.2188 L1048.4688,351.9375 Z " fill="#000000"/><text fill="#000000" font-family="sans-serif" font-size="14" lengthAdjust="spacing" textLength="192.5137" x="1059.5" y="351.1436">__detail::_List_node_header</text><line style="stroke:#181818;stroke-width:0.5;" x1="1031.5" x2="1254.0137" y1="362.2969" y2="362.2969"/><line style="stroke:#181818;stroke-width:0.5;" x1="1031.5" x2="1254.0137" y1="370.2969" y2="370.2969"/></g><!--class C_0004159494573713602284--><g id="elem_C_0004159494573713602284"><rect codeLine="19" fill="#F1F1F1" height="48" id="C_0004159494573713602284" rx="2.5" ry="2.5" style="stroke:#181818;stroke-width:0.5;" width="182.3223" x="2299" y="330.2969"/><ellipse cx="2314" cy="346.2969" fill="#ADD1B2" rx="11" ry="11" style="stroke:#181818;stroke-width:1;"/><path d="M2316.9688,351.9375 Q2316.3906,352.2344 2315.75,352.375 Q2315.1094,352.5313 2314.4063,352.5313 Q2311.9063,352.5313 2310.5781,350.8906 Q2309.2656,349.2344 2309.2656,346.1094 Q2309.2656,342.9844 2310.5781,341.3281 Q2311.9063,339.6719 2314.4063,339.6719 Q2315.1094,339.6719 2315.75,339.8281 Q2316.4063,339.9844 2316.9688,340.2813 L2316.9688,343 Q2316.3438,342.4219 2315.75,342.1563 Q2315.1563,341.875 2314.5313,341.875 Q2313.1875,341.875 2312.5,342.9531 Q2311.8125,344.0156 2311.8125,346.1094 Q2311.8125,348.2031 2312.5,349.2813 Q2313.1875,350.3438 2314.5313,350.3438 Q2315.1563,350.3438 2315.75,350.0781 Q2316.3438,349.7969 2316.9688,349.2188 L2316.9688,351.9375 Z " fill="#000000"/><text fill="#000000" font-family="sans-serif" font-size="14" lengthAdjust="spacing" textLength="150.3223" x="2328" y="351.1436">__detail::_Scratch_list</text><line style="stroke:#181818;stroke-width:0.5;" x1="2300" x2="2480.3223" y1="362.2969" y2="362.2969"/><line style="stroke:#181818;stroke-width:0.5;" x1="2300" x2="2480.3223" y1="370.2969" y2="370.2969"/></g><!--class C_0006153939857710835498--><g id="elem_C_0006153939857710835498"><rect codeLine="23" fill="#F1F1F1" height="48" id="C_0006153939857710835498" rx="2.5" ry="2.5" style="stroke:#181818;stroke-width:0.5;" width="323.7256" x="2006" y="156.2969"/><ellipse cx="2021" cy="172.2969" fill="#ADD1B2" rx="11" ry="11" style="stroke:#181818;stroke-width:1;"/><path d="M2023.9688,177.9375 Q2023.3906,178.2344 2022.75,178.375 Q2022.1094,178.5313 2021.4063,178.5313 Q2018.9063,178.5313 2017.5781,176.8906 Q2016.2656,175.2344 2016.2656,172.1094 Q2016.2656,168.9844 2017.5781,167.3281 Q2018.9063,165.6719 2021.4063,165.6719 Q2022.1094,165.6719 2022.75,165.8281 Q2023.4063,165.9844 2023.9688,166.2813 L2023.9688,169 Q2023.3438,168.4219 2022.75,168.1563 Q2022.1563,167.875 2021.5313,167.875 Q2020.1875,167.875 2019.5,168.9531 Q2018.8125,170.0156 2018.8125,172.1094 Q2018.8125,174.2031 2019.5,175.2813 Q2020.1875,176.3438 2021.5313,176.3438 Q2022.1563,176.3438 2022.75,176.0781 Q2023.3438,175.7969 2023.9688,175.2188 L2023.9688,177.9375 Z " fill="#000000"/><text fill="#000000" font-family="sans-serif" font-size="14" lengthAdjust="spacing" textLength="223.665" x="2035" y="177.1436">__detail::_Scratch_list::_Ptr_cmp</text><rect fill="#FFFFFF" height="15.9688" style="stroke:#181818;stroke-width:1;stroke-dasharray:2.0,2.0;" width="66.0605" x="2266.665" y="153.2969"/><text fill="#000000" font-family="sans-serif" font-size="12" font-style="italic" lengthAdjust="spacing" textLength="64.0605" x="2267.665" y="165.4355">_Iter,_Cmp</text><line style="stroke:#181818;stroke-width:0.5;" x1="2007" x2="2328.7256" y1="188.2969" y2="188.2969"/><line style="stroke:#181818;stroke-width:0.5;" x1="2007" x2="2328.7256" y1="196.2969" y2="196.2969"/></g><!--class C_0002765096334040588708--><g id="elem_C_0002765096334040588708"><rect codeLine="27" fill="#F1F1F1" height="48" id="C_0002765096334040588708" rx="2.5" ry="2.5" style="stroke:#181818;stroke-width:0.5;" width="315.4346" x="2423.5" y="47.2969"/><ellipse cx="2438.5" cy="63.2969" fill="#ADD1B2" rx="11" ry="11" style="stroke:#181818;stroke-width:1;"/><path d="M2441.4688,68.9375 Q2440.8906,69.2344 2440.25,69.375 Q2439.6094,69.5313 2438.9063,69.5313 Q2436.4063,69.5313 2435.0781,67.8906 Q2433.7656,66.2344 2433.7656,63.1094 Q2433.7656,59.9844 2435.0781,58.3281 Q2436.4063,56.6719 2438.9063,56.6719 Q2439.6094,56.6719 2440.25,56.8281 Q2440.9063,56.9844 2441.4688,57.2813 L2441.4688,60 Q2440.8438,59.4219 2440.25,59.1563 Q2439.6563,58.875 2439.0313,58.875 Q2437.6875,58.875 2437,59.9531 Q2436.3125,61.0156 2436.3125,63.1094 Q2436.3125,65.2031 2437,66.2813 Q2437.6875,67.3438 2439.0313,67.3438 Q2439.6563,67.3438 2440.25,67.0781 Q2440.8438,66.7969 2441.4688,66.2188 L2441.4688,68.9375 Z " fill="#000000"/><text fill="#000000" font-family="sans-serif" font-size="14" lengthAdjust="spacing" textLength="223.665" x="2452.5" y="68.1436">__detail::_Scratch_list::_Ptr_cmp</text><rect fill="#FFFFFF" height="15.9688" style="stroke:#181818;stroke-width:1;stroke-dasharray:2.0,2.0;" width="57.7695" x="2684.165" y="44.2969"/><text fill="#000000" font-family="sans-serif" font-size="12" font-style="italic" lengthAdjust="spacing" textLength="55.7695" x="2685.165" y="56.4355">_Iter,void</text><line style="stroke:#181818;stroke-width:0.5;" x1="2424.5" x2="2737.9346" y1="79.2969" y2="79.2969"/><line style="stroke:#181818;stroke-width:0.5;" x1="2424.5" x2="2737.9346" y1="87.2969" y2="87.2969"/></g><!--class C_0016581430309674106927--><g id="elem_C_0016581430309674106927"><rect codeLine="31" fill="#F1F1F1" height="48" id="C_0016581430309674106927" rx="2.5" ry="2.5" style="stroke:#181818;stroke-width:0.5;" width="130.3584" x="1614" y="330.2969"/><ellipse cx="1629" cy="346.2969" fill="#ADD1B2" rx="11" ry="11" style="stroke:#181818;stroke-width:1;"/><path d="M1631.9688,351.9375 Q1631.3906,352.2344 1630.75,352.375 Q1630.1094,352.5313 1629.4063,352.5313 Q1626.9063,352.5313 1625.5781,350.8906 Q1624.2656,349.2344 1624.2656,346.1094 Q1624.2656,342.9844 1625.5781,341.3281 Q1626.9063,339.6719 1629.4063,339.6719 Q1630.1094,339.6719 1630.75,339.8281 Q1631.4063,339.9844 1631.9688,340.2813 L1631.9688,343 Q1631.3438,342.4219 1630.75,342.1563 Q1630.1563,341.875 1629.5313,341.875 Q1628.1875,341.875 1627.5,342.9531 Q1626.8125,344.0156 1626.8125,346.1094 Q1626.8125,348.2031 1627.5,349.2813 Q1628.1875,350.3438 1629.5313,350.3438 Q1630.1563,350.3438 1630.75,350.0781 Q1631.3438,349.7969 1631.9688,349.2188 L1631.9688,351.9375 Z " fill="#000000"/><text fill="#000000" font-family="sans-serif" font-size="14" lengthAdjust="spacing" textLength="73.4111" x="1643" y="351.1436">_List_node</text><rect fill="#FFFFFF" height="15.9688" style="stroke:#181818;stroke-width:1;stroke-dasharray:2.0,2.0;" width="22.9473" x="1724.4111" y="327.2969"/><text fill="#000000" font-family="sans-serif" font-size="12" font-style="italic" lengthAdjust="spacing" textLength="20.9473" x="1725.4111" y="339.4355">_Tp</text><line style="stroke:#181818;stroke-width:0.5;" x1="1615" x2="1743.3584" y1="362.2969" y2="362.2969"/><line style="stroke:#181818;stroke-width:0.5;" x1="1615" x2="1743.3584" y1="370.2969" y2="370.2969"/></g><!--class C_0010079646352454332341--><g id="elem_C_0010079646352454332341"><rect codeLine="35" fill="#F1F1F1" height="48" id="C_0010079646352454332341" rx="2.5" ry="2.5" style="stroke:#181818;stroke-width:0.5;" width="147.5576" x="253" y="504.2969"/><ellipse cx="268" cy="520.2969" fill="#ADD1B2" rx="11" ry="11" style="stroke:#181818;stroke-width:1;"/><path d="M270.9688,525.9375 Q270.3906,526.2344 269.75,526.375 Q269.1094,526.5313 268.4063,526.5313 Q265.9063,526.5313 264.5781,524.8906 Q263.2656,523.2344 263.2656,520.1094 Q263.2656,516.9844 264.5781,515.3281 Q265.9063,513.6719 268.4063,513.6719 Q269.1094,513.6719 269.75,513.8281 Q270.4063,513.9844 270.9688,514.2813 L270.9688,517 Q270.3438,516.4219 269.75,516.1563 Q269.1563,515.875 268.5313,515.875 Q267.1875,515.875 266.5,516.9531 Q265.8125,518.0156 265.8125,520.1094 Q265.8125,522.2031 266.5,523.2813 Q267.1875,524.3438 268.5313,524.3438 Q269.1563,524.3438 269.75,524.0781 Q270.3438,523.7969 270.9688,523.2188 L270.9688,525.9375 Z " fill="#000000"/><text fill="#000000" font-family="sans-serif" font-size="14" lengthAdjust="spacing" textLength="90.6104" x="282" y="525.1436">_List_iterator</text><rect fill="#FFFFFF" height="15.9688" style="stroke:#181818;stroke-width:1;stroke-dasharray:2.0,2.0;" width="22.9473" x="380.6104" y="501.2969"/><text fill="#000000" font-family="sans-serif" font-size="12" font-style="italic" lengthAdjust="spacing" textLength="20.9473" x="381.6104" y="513.4355">_Tp</text><line style="stroke:#181818;stroke-width:0.5;" x1="254" x2="399.5576" y1="536.2969" y2="536.2969"/><line style="stroke:#181818;stroke-width:0.5;" x1="254" x2="399.5576" y1="544.2969" y2="544.2969"/></g><!--class C_0017268439787651424876--><g id="elem_C_0017268439787651424876"><rect codeLine="39" fill="#F1F1F1" height="48" id="C_0017268439787651424876" rx="2.5" ry="2.5" style="stroke:#181818;stroke-width:0.5;" width="167.4238" x="828.5" y="330.2969"/><ellipse cx="843.5" cy="346.2969" fill="#ADD1B2" rx="11" ry="11" style="stroke:#181818;stroke-width:1;"/><path d="M846.4688,351.9375 Q845.8906,352.2344 845.25,352.375 Q844.6094,352.5313 843.9063,352.5313 Q841.4063,352.5313 840.0781,350.8906 Q838.7656,349.2344 838.7656,346.1094 Q838.7656,342.9844 840.0781,341.3281 Q841.4063,339.6719 843.9063,339.6719 Q844.6094,339.6719 845.25,339.8281 Q845.9063,339.9844 846.4688,340.2813 L846.4688,343 Q845.8438,342.4219 845.25,342.1563 Q844.6563,341.875 844.0313,341.875 Q842.6875,341.875 842,342.9531 Q841.3125,344.0156 841.3125,346.1094 Q841.3125,348.2031 842,349.2813 Q842.6875,350.3438 844.0313,350.3438 Q844.6563,350.3438 845.25,350.0781 Q845.8438,349.7969 846.4688,349.2188 L846.4688,351.9375 Z " fill="#000000"/><text fill="#000000" font-family="sans-serif" font-size="14" lengthAdjust="spacing" textLength="71.8457" x="857.5" y="351.1436">_List_base</text><rect fill="#FFFFFF" height="15.9688" style="stroke:#181818;stroke-width:1;stroke-dasharray:2.0,2.0;" width="61.5781" x="937.3457" y="327.2969"/><text fill="#000000" font-family="sans-serif" font-size="12" font-style="italic" lengthAdjust="spacing" textLength="59.5781" x="938.3457" y="339.4355">_Tp,_Alloc</text><line style="stroke:#181818;stroke-width:0.5;" x1="829.5" x2="994.9238" y1="362.2969" y2="362.2969"/><line style="stroke:#181818;stroke-width:0.5;" x1="829.5" x2="994.9238" y1="370.2969" y2="370.2969"/></g><!--class C_0009730025766701730813--><g id="elem_C_0009730025766701730813"><rect codeLine="43" fill="#F1F1F1" height="48" id="C_0009730025766701730813" rx="2.5" ry="2.5" style="stroke:#181818;stroke-width:0.5;" width="182.0557" x="894" y="156.2969"/><ellipse cx="909" cy="172.2969" fill="#ADD1B2" rx="11" ry="11" style="stroke:#181818;stroke-width:1;"/><path d="M911.9688,177.9375 Q911.3906,178.2344 910.75,178.375 Q910.1094,178.5313 909.4063,178.5313 Q906.9063,178.5313 905.5781,176.8906 Q904.2656,175.2344 904.2656,172.1094 Q904.2656,168.9844 905.5781,167.3281 Q906.9063,165.6719 909.4063,165.6719 Q910.1094,165.6719 910.75,165.8281 Q911.4063,165.9844 911.9688,166.2813 L911.9688,169 Q911.3438,168.4219 910.75,168.1563 Q910.1563,167.875 909.5313,167.875 Q908.1875,167.875 907.5,168.9531 Q906.8125,170.0156 906.8125,172.1094 Q906.8125,174.2031 907.5,175.2813 Q908.1875,176.3438 909.5313,176.3438 Q910.1563,176.3438 910.75,176.0781 Q911.3438,175.7969 911.9688,175.2188 L911.9688,177.9375 Z " fill="#000000"/><text fill="#000000" font-family="sans-serif" font-size="14" lengthAdjust="spacing" textLength="150.0557" x="923" y="177.1436">_List_base::_List_impl</text><line style="stroke:#181818;stroke-width:0.5;" x1="895" x2="1075.0557" y1="188.2969" y2="188.2969"/><line style="stroke:#181818;stroke-width:0.5;" x1="895" x2="1075.0557" y1="196.2969" y2="196.2969"/></g><!--class C_0015609426756015090359--><g id="elem_C_0015609426756015090359"><rect codeLine="47" fill="#F1F1F1" height="48" id="C_0015609426756015090359" rx="2.5" ry="2.5" style="stroke:#181818;stroke-width:0.5;" width="219.5469" x="639" y="504.2969"/><ellipse cx="654" cy="520.2969" fill="#ADD1B2" rx="11" ry="11" style="stroke:#181818;stroke-width:1;"/><path d="M656.9688,525.9375 Q656.3906,526.2344 655.75,526.375 Q655.1094,526.5313 654.4063,526.5313 Q651.9063,526.5313 650.5781,524.8906 Q649.2656,523.2344 649.2656,520.1094 Q649.2656,516.9844 650.5781,515.3281 Q651.9063,513.6719 654.4063,513.6719 Q655.1094,513.6719 655.75,513.8281 Q656.4063,513.9844 656.9688,514.2813 L656.9688,517 Q656.3438,516.4219 655.75,516.1563 Q655.1563,515.875 654.5313,515.875 Q653.1875,515.875 652.5,516.9531 Q651.8125,518.0156 651.8125,520.1094 Q651.8125,522.2031 652.5,523.2813 Q653.1875,524.3438 654.5313,524.3438 Q655.1563,524.3438 655.75,524.0781 Q656.3438,523.7969 656.9688,523.2188 L656.9688,525.9375 Z " fill="#000000"/><text fill="#000000" font-family="sans-serif" font-size="14" lengthAdjust="spacing" textLength="20.5625" x="668" y="525.1436">list</text><rect fill="#FFFFFF" height="15.9688" style="stroke:#181818;stroke-width:1;stroke-dasharray:2.0,2.0;" width="164.9844" x="696.5625" y="501.2969"/><text fill="#000000" font-family="sans-serif" font-size="12" font-style="italic" lengthAdjust="spacing" textLength="162.9844" x="697.5625" y="513.4355">_Tp,_Alloc=allocator&lt;_Tp&gt;</text><line style="stroke:#181818;stroke-width:0.5;" x1="640" x2="857.5469" y1="536.2969" y2="536.2969"/><line style="stroke:#181818;stroke-width:0.5;" x1="640" x2="857.5469" y1="544.2969" y2="544.2969"/></g><!--class C_0008831140152225074072--><g id="elem_C_0008831140152225074072"><rect codeLine="51" fill="#F1F1F1" height="48" id="C_0008831140152225074072" rx="2.5" ry="2.5" style="stroke:#181818;stroke-width:0.5;" width="174.6387" x="239.5" y="330.2969"/><ellipse cx="254.5" cy="346.2969" fill="#ADD1B2" rx="11" ry="11" style="stroke:#181818;stroke-width:1;"/><path d="M257.4688,351.9375 Q256.8906,352.2344 256.25,352.375 Q255.6094,352.5313 254.9063,352.5313 Q252.4063,352.5313 251.0781,350.8906 Q249.7656,349.2344 249.7656,346.1094 Q249.7656,342.9844 251.0781,341.3281 Q252.4063,339.6719 254.9063,339.6719 Q255.6094,339.6719 256.25,339.8281 Q256.9063,339.9844 257.4688,340.2813 L257.4688,343 Q256.8438,342.4219 256.25,342.1563 Q255.6563,341.875 255.0313,341.875 Q253.6875,341.875 253,342.9531 Q252.3125,344.0156 252.3125,346.1094 Q252.3125,348.2031 253,349.2813 Q253.6875,350.3438 255.0313,350.3438 Q255.6563,350.3438 256.25,350.0781 Q256.8438,349.7969 257.4688,349.2188 L257.4688,351.9375 Z " fill="#000000"/><text fill="#000000" font-family="sans-serif" font-size="14" lengthAdjust="spacing" textLength="142.6387" x="268.5" y="351.1436">list::_Finalize_merge</text><line style="stroke:#181818;stroke-width:0.5;" x1="240.5" x2="413.1387" y1="362.2969" y2="362.2969"/><line style="stroke:#181818;stroke-width:0.5;" x1="240.5" x2="413.1387" y1="370.2969" y2="370.2969"/></g><!--class C_0005440126081384335850--><g id="elem_C_0005440126081384335850"><rect codeLine="55" fill="#F1F1F1" height="48" id="C_0005440126081384335850" rx="2.5" ry="2.5" style="stroke:#181818;stroke-width:0.5;" width="287.5156" x="1291" y="330.2969"/><ellipse cx="1306" cy="346.2969" fill="#ADD1B2" rx="11" ry="11" style="stroke:#181818;stroke-width:1;"/><path d="M1308.9688,351.9375 Q1308.3906,352.2344 1307.75,352.375 Q1307.1094,352.5313 1306.4063,352.5313 Q1303.9063,352.5313 1302.5781,350.8906 Q1301.2656,349.2344 1301.2656,346.1094 Q1301.2656,342.9844 1302.5781,341.3281 Q1303.9063,339.6719 1306.4063,339.6719 Q1307.1094,339.6719 1307.75,339.8281 Q1308.4063,339.9844 1308.9688,340.2813 L1308.9688,343 Q1308.3438,342.4219 1307.75,342.1563 Q1307.1563,341.875 1306.5313,341.875 Q1305.1875,341.875 1304.5,342.9531 Q1303.8125,344.0156 1303.8125,346.1094 Q1303.8125,348.2031 1304.5,349.2813 Q1305.1875,350.3438 1306.5313,350.3438 Q1307.1563,350.3438 1307.75,350.0781 Q1308.3438,349.7969 1308.9688,349.2188 L1308.9688,351.9375 Z " fill="#000000"/><text fill="#000000" font-family="sans-serif" font-size="14" lengthAdjust="spacing" textLength="20.5625" x="1320" y="351.1436">list</text><rect fill="#FFFFFF" height="15.9688" style="stroke:#181818;stroke-width:1;stroke-dasharray:2.0,2.0;" width="232.9531" x="1348.5625" y="327.2969"/><text fill="#000000" font-family="sans-serif" font-size="12" font-style="italic" lengthAdjust="spacing" textLength="230.9531" x="1349.5625" y="339.4355">_Tp,pmr::polymorphic_allocator&lt;_Tp&gt;</text><line style="stroke:#181818;stroke-width:0.5;" x1="1292" x2="1577.5156" y1="362.2969" y2="362.2969"/><line style="stroke:#181818;stroke-width:0.5;" x1="1292" x2="1577.5156" y1="370.2969" y2="370.2969"/></g><g id="elem_GMN34"><path d="M3145,334.2969 L3145,374.5625 A0,0 0 0 0 3145,374.5625 L3334.89,374.5625 L3018.1,504.1869 L3342.89,374.5625 L3627.1255,374.5625 A0,0 0 0 0 3627.1255,374.5625 L3627.1255,344.2969 L3617.1255,334.2969 L3145,334.2969 A0,0 0 0 0 3145,334.2969 " fill="#FEFFDD" style="stroke:#181818;stroke-width:0.5;"/><path d="M3617.1255,334.2969 L3617.1255,344.2969 L3627.1255,344.2969 L3617.1255,334.2969 " fill="#FEFFDD" style="stroke:#181818;stroke-width:0.5;"/><text fill="#000000" font-family="sans-serif" font-size="13" lengthAdjust="spacing" textLength="448.7285" x="3163.397" y="351.3638">A utility type containing a POD object that can hold an object of type</text><text fill="#000000" font-family="sans-serif" font-size="13" lengthAdjust="spacing" textLength="164.1694" x="3151" y="366.4966">_Tp initialized via place...</text></g><g id="elem_GMN37"><path d="M2785,160.2969 L2785,200.5625 A0,0 0 0 0 2785,200.5625 L3022.8,200.5625 L2971,330.0469 L3030.8,200.5625 L3284.7783,200.5625 A0,0 0 0 0 3284.7783,200.5625 L3284.7783,170.2969 L3274.7783,160.2969 L2785,160.2969 A0,0 0 0 0 2785,160.2969 " fill="#FEFFDD" style="stroke:#181818;stroke-width:0.5;"/><path d="M3274.7783,160.2969 L3274.7783,170.2969 L3284.7783,170.2969 L3274.7783,160.2969 " fill="#FEFFDD" style="stroke:#181818;stroke-width:0.5;"/><text fill="#000000" font-family="sans-serif" font-size="13" lengthAdjust="spacing" textLength="466.3813" x="2803.397" y="177.3638">Target macro ADJUST_FIELD_ALIGN can produce different alignment for</text><text fill="#000000" font-family="sans-serif" font-size="13" lengthAdjust="spacing" textLength="215.5791" x="2791" y="192.4966">types when used as class mem...</text></g><g id="elem_GMN40"><path d="M1547.5,58.7969 L1547.5,83.9297 A0,0 0 0 0 1547.5,83.9297 L1672,83.9297 L1676,156.1269 L1680,83.9297 L1804.3408,83.9297 A0,0 0 0 0 1804.3408,83.9297 L1804.3408,68.7969 L1794.3408,58.7969 L1547.5,58.7969 A0,0 0 0 0 1547.5,58.7969 " fill="#FEFFDD" style="stroke:#181818;stroke-width:0.5;"/><path d="M1794.3408,58.7969 L1794.3408,68.7969 L1804.3408,68.7969 L1794.3408,58.7969 " fill="#FEFFDD" style="stroke:#181818;stroke-width:0.5;"/><text fill="#000000" font-family="sans-serif" font-size="13" lengthAdjust="spacing" textLength="235.8408" x="1553.5" y="75.8638">Common part of a node in the %list.</text></g><g id="elem_GMN43"><path d="M1111.5,167.7969 L1111.5,192.9297 A0,0 0 0 0 1111.5,192.9297 L1189.37,192.9297 L1150.27,330.1569 L1197.37,192.9297 L1282.895,192.9297 A0,0 0 0 0 1282.895,192.9297 L1282.895,177.7969 L1272.895,167.7969 L1111.5,167.7969 A0,0 0 0 0 1111.5,167.7969 " fill="#FEFFDD" style="stroke:#181818;stroke-width:0.5;"/><path d="M1272.895,167.7969 L1272.895,177.7969 L1282.895,177.7969 L1272.895,167.7969 " fill="#FEFFDD" style="stroke:#181818;stroke-width:0.5;"/><text fill="#000000" font-family="sans-serif" font-size="13" lengthAdjust="spacing" textLength="150.395" x="1117.5" y="184.8638">The %list node header.</text></g><g id="elem_GMN46"><path d="M2365,167.7969 L2365,192.9297 A0,0 0 0 0 2365,192.9297 L2509.13,192.9297 L2407.76,330.1569 L2517.13,192.9297 L2678.6587,192.9297 A0,0 0 0 0 2678.6587,192.9297 L2678.6587,177.7969 L2668.6587,167.7969 L2365,167.7969 A0,0 0 0 0 2365,167.7969 " fill="#FEFFDD" style="stroke:#181818;stroke-width:0.5;"/><path d="M2668.6587,167.7969 L2668.6587,177.7969 L2678.6587,177.7969 L2668.6587,167.7969 " fill="#FEFFDD" style="stroke:#181818;stroke-width:0.5;"/><text fill="#000000" font-family="sans-serif" font-size="13" lengthAdjust="spacing" textLength="292.6587" x="2371" y="184.8638">Used by list::sort to hold nodes being sorted.</text></g><g id="elem_GMN49"><path d="M1336,167.7969 L1336,192.9297 L1536.0293,192.9297 L1536.0293,177.7969 L1526.0293,167.7969 L1336,167.7969 " fill="#FEFFDD" style="stroke:#181818;stroke-width:0.5;"/><path d="M1526.0293,167.7969 L1526.0293,177.7969 L1536.0293,177.7969 L1526.0293,167.7969 " fill="#FEFFDD" style="stroke:#181818;stroke-width:1;"/><text fill="#000000" font-family="sans-serif" font-size="13" lengthAdjust="spacing" textLength="179.0293" x="1342" y="184.8638">An actual node in the %list.</text></g><g id="elem_GMN52"><path d="M477.5,167.7969 L477.5,192.9297 L858.2915,192.9297 L858.2915,177.7969 L848.2915,167.7969 L477.5,167.7969 " fill="#FEFFDD" style="stroke:#181818;stroke-width:0.5;"/><path d="M848.2915,167.7969 L848.2915,177.7969 L858.2915,177.7969 L848.2915,167.7969 " fill="#FEFFDD" style="stroke:#181818;stroke-width:1;"/><text fill="#000000" font-family="sans-serif" font-size="13" lengthAdjust="spacing" textLength="359.7915" x="483.5" y="184.8638">See bits/stl_deque.h's _Deque_base for an explanation.</text></g><g id="elem_GMN55"><path d="M566.5,281.2969 L566.5,427.4922 A0,0 0 0 0 566.5,427.4922 L705.06,427.4922 L739.65,503.9969 L713.06,427.4922 L793.1641,427.4922 A0,0 0 0 0 793.1641,427.4922 L793.1641,291.2969 L783.1641,281.2969 L566.5,281.2969 A0,0 0 0 0 566.5,281.2969 " fill="#FEFFDD" style="stroke:#181818;stroke-width:0.5;"/><path d="M783.1641,281.2969 L783.1641,291.2969 L793.1641,291.2969 L783.1641,281.2969 " fill="#FEFFDD" style="stroke:#181818;stroke-width:0.5;"/><text fill="#000000" font-family="sans-serif" font-size="13" lengthAdjust="spacing" textLength="185.0024" x="589.0293" y="298.3638">Meets the requirements of a</text><text fill="#000000" font-family="sans-serif" font-size="13" lengthAdjust="spacing" textLength="61.5977" x="572.5" y="313.4966">container</text><text fill="#000000" font-family="sans-serif" font-size="13" lengthAdjust="spacing" textLength="16.231" x="572.5" y="328.6294">, a</text><text fill="#000000" font-family="sans-serif" font-size="13" lengthAdjust="spacing" textLength="8.2646" x="572.5" y="343.7622">&#160;&#160;</text><text fill="#000000" font-family="sans-serif" font-size="13" lengthAdjust="spacing" textLength="130.3555" x="572.5" y="358.895">reversible container</text><text fill="#000000" font-family="sans-serif" font-size="13" lengthAdjust="spacing" textLength="44.8208" x="572.5" y="374.0278">, and a</text><text fill="#000000" font-family="sans-serif" font-size="13" lengthAdjust="spacing" textLength="8.2646" x="572.5" y="389.1606">&#160;&#160;</text><text fill="#000000" font-family="sans-serif" font-size="13" lengthAdjust="spacing" textLength="62.645" x="572.5" y="404.2935">sequence</text><text fill="#000000" font-family="sans-serif" font-size="13" lengthAdjust="spacing" textLength="71.6143" x="572.5" y="419.4263">, includin...</text></g><g id="elem_GMN58"><path d="M6,167.7969 L6,192.9297 A0,0 0 0 0 6,192.9297 L226.92,192.9297 L313.14,330.1569 L234.92,192.9297 L442.2129,192.9297 A0,0 0 0 0 442.2129,192.9297 L442.2129,177.7969 L432.2129,167.7969 L6,167.7969 A0,0 0 0 0 6,167.7969 " fill="#FEFFDD" style="stroke:#181818;stroke-width:0.5;"/><path d="M432.2129,167.7969 L432.2129,177.7969 L442.2129,177.7969 L432.2129,167.7969 " fill="#FEFFDD" style="stroke:#181818;stroke-width:0.5;"/><text fill="#000000" font-family="sans-serif" font-size="13" lengthAdjust="spacing" textLength="326.3965" x="12" y="184.8638">Update _M_size members after merging (some of)</text><text fill="#000000" font-family="sans-serif" font-size="13" lengthAdjust="spacing" text-decoration="underline" textLength="48.2993" x="342.5288" y="184.8638">src into</text><text fill="#000000" font-family="sans-serif" font-size="13" lengthAdjust="spacing" textLength="32.2524" x="394.9604" y="184.8638">dest.</text></g><!--link C_0000363944907545484744 to C_0001780373788828611506--><g id="link_C_0000363944907545484744_C_0001780373788828611506"><path codeLine="58" d="M2961,378.4969 C2961,411.4169 2961,455.3269 2961,488.1969 " fill="transparent" id="C_0000363944907545484744-to-C_0001780373788828611506" style="stroke:#181818;stroke-width:1;"/><ellipse cx="2961" cy="496.1969" fill="#FFFFFF" rx="8" ry="8" style="stroke:#181818;stroke-width:1;"/><line style="stroke:#181818;stroke-width:1;" x1="2961" x2="2961" y1="488.1969" y2="504.1969"/><line style="stroke:#181818;stroke-width:1;" x1="2969" x2="2953" y1="496.1969" y2="496.1969"/></g><!--link C_0003061237274580542436 to C_0003061237274580542436--><g id="link_C_0003061237274580542436_C_0003061237274580542436"><path codeLine="59" d="M1780.64,175.4569 C1801.02,176.0169 1815.5,177.6369 1815.5,180.2969 C1815.5,182.9569 1807.0177,184.4121 1786.6377,184.9721 " fill="transparent" id="C_0003061237274580542436-to-C_0003061237274580542436" style="stroke:#181818;stroke-width:1;"/><polygon fill="#181818" points="1780.64,185.1369,1789.7465,188.8882,1785.6381,184.9995,1789.5267,180.8912,1780.64,185.1369" style="stroke:#181818;stroke-width:1;"/><ellipse cx="1826.5" cy="180.8633" fill="transparent" rx="3" ry="3" style="stroke:#038048;stroke-width:1;"/><text fill="#000000" font-family="sans-serif" font-size="13" lengthAdjust="spacing" textLength="53.2441" x="1833.5" y="184.8638">_M_next</text></g><!--link C_0003061237274580542436 to C_0003061237274580542436--><g id="link_C_0003061237274580542436_C_0003061237274580542436"><path codeLine="60" d="M1780.57,170.4869 C1837.6,169.0769 1892.5,172.3469 1892.5,180.2969 C1892.5,188.2469 1843.5982,191.6652 1786.5682,190.2552 " fill="transparent" id="C_0003061237274580542436-to-C_0003061237274580542436-1" style="stroke:#181818;stroke-width:1;"/><polygon fill="#181818" points="1780.57,190.1069,1789.4684,194.3281,1785.5685,190.2305,1789.6661,186.3305,1780.57,190.1069" style="stroke:#181818;stroke-width:1;"/><ellipse cx="1903.5" cy="180.8633" fill="transparent" rx="3" ry="3" style="stroke:#038048;stroke-width:1;"/><text fill="#000000" font-family="sans-serif" font-size="13" lengthAdjust="spacing" textLength="53.5044" x="1910.5" y="184.8638">_M_prev</text></g><!--reverse link C_0003061237274580542436 to C_0000986537528964488307--><g id="link_C_0003061237274580542436_C_0000986537528964488307"><path codeLine="61" d="M1553.5608,207.9513 C1453.1108,230.3313 1326.67,260.1969 1273,281.2969 C1239.62,294.4169 1204.17,314.5169 1178.73,330.1469 " fill="transparent" id="C_0003061237274580542436-backto-C_0000986537528964488307" style="stroke:#181818;stroke-width:1;"/><polygon fill="transparent" points="1571.13,204.0369,1552.256,202.0948,1554.8656,213.8077,1571.13,204.0369" style="stroke:#181818;stroke-width:1;"/></g><!--reverse link C_0003061237274580542436 to C_0004159494573713602284--><g id="link_C_0003061237274580542436_C_0004159494573713602284"><path codeLine="62" d="M1789.0496,208.5318 C1927.1796,241.8018 2163.4,298.7069 2298.96,331.3669 " fill="transparent" id="C_0003061237274580542436-backto-C_0004159494573713602284" style="stroke:#181818;stroke-width:1;"/><polygon fill="transparent" points="1771.55,204.3169,1787.6446,214.365,1790.4545,202.6986,1771.55,204.3169" style="stroke:#181818;stroke-width:1;"/></g><!--link C_0006153939857710835498 to C_0004159494573713602284--><g id="link_C_0006153939857710835498_C_0004159494573713602284"><path codeLine="63" d="M2197.94,204.4969 C2240.43,237.4169 2305.1126,287.5268 2347.5326,320.3968 " fill="transparent" id="C_0006153939857710835498-to-C_0004159494573713602284" style="stroke:#181818;stroke-width:1;"/><ellipse cx="2353.8563" cy="325.2968" fill="#FFFFFF" rx="8" ry="8" style="stroke:#181818;stroke-width:1;"/><line style="stroke:#181818;stroke-width:1;" x1="2347.5326" x2="2360.18" y1="320.3968" y2="330.1969"/><line style="stroke:#181818;stroke-width:1;" x1="2358.7563" x2="2348.9562" y1="318.9731" y2="331.6205"/></g><!--link C_0002765096334040588708 to C_0004159494573713602284--><g id="link_C_0002765096334040588708_C_0004159494573713602284"><path codeLine="64" d="M2631.61,95.3169 C2655.8,109.2369 2682.4,129.5169 2696,156.2969 C2705.66,175.3169 2707.31,186.2069 2696,204.2969 C2649.32,278.9469 2568.7966,313.1178 2496.6966,332.0278 " fill="transparent" id="C_0002765096334040588708-to-C_0004159494573713602284" style="stroke:#181818;stroke-width:1;"/><ellipse cx="2488.9583" cy="334.0573" fill="#FFFFFF" rx="8" ry="8" style="stroke:#181818;stroke-width:1;"/><line style="stroke:#181818;stroke-width:1;" x1="2496.6966" x2="2481.22" y1="332.0278" y2="336.0869"/><line style="stroke:#181818;stroke-width:1;" x1="2490.9878" x2="2486.9287" y1="341.7956" y2="326.319"/></g><!--link C_0002765096334040588708 to C_0006153939857710835498--><g id="link_C_0002765096334040588708_C_0006153939857710835498"><path codeLine="65" d="M2492.15,95.3169 C2422.68,113.3169 2343.9946,133.7022 2274.4846,151.7122 " fill="transparent" id="C_0002765096334040588708-to-C_0006153939857710835498" style="stroke:#181818;stroke-width:1;stroke-dasharray:7.0,7.0;"/><polygon fill="transparent" points="2257.06,156.2269,2275.9895,157.5204,2272.9797,145.904,2257.06,156.2269" style="stroke:#181818;stroke-width:1;"/></g><!--reverse link C_0016581430309674106927 to C_0001780373788828611506--><g id="link_C_0016581430309674106927_C_0001780373788828611506"><path codeLine="66" d="M1756.2335,365.6624 C1955.4135,392.3824 2546.26,471.6569 2821.37,508.5669 " fill="transparent" id="C_0016581430309674106927-backto-C_0001780373788828611506" style="stroke:#181818;stroke-width:1;"/><polygon fill="transparent" points="1744.34,364.0669,1749.7549,368.8291,1756.2335,365.6624,1750.8186,360.9001,1744.34,364.0669" style="stroke:#181818;stroke-width:1;"/><ellipse cx="2553" cy="466.3633" fill="transparent" rx="3" ry="3" style="stroke:#038048;stroke-width:1;"/><text fill="#000000" font-family="sans-serif" font-size="13" lengthAdjust="spacing" textLength="73.6011" x="2560" y="470.3638">_M_storage</text></g><!--reverse link C_0003061237274580542436 to C_0016581430309674106927--><g id="link_C_0003061237274580542436_C_0016581430309674106927"><path codeLine="67" d="M1676.7171,222.4941 C1677.2971,255.4141 1678.02,297.3269 1678.6,330.1969 " fill="transparent" id="C_0003061237274580542436-backto-C_0016581430309674106927" style="stroke:#181818;stroke-width:1;"/><polygon fill="transparent" points="1676.4,204.4969,1670.718,222.5998,1682.7162,222.3884,1676.4,204.4969" style="stroke:#181818;stroke-width:1;"/></g><!--link C_0010079646352454332341 to C_0010079646352454332341--><g id="link_C_0010079646352454332341_C_0010079646352454332341"><path codeLine="68" d="M401.13,516.7669 C420.95,517.3969 436,521.2469 436,528.2969 C436,535.3469 438.9409,538.625 419.1209,539.255 " fill="transparent" id="C_0010079646352454332341-to-C_0010079646352454332341" style="stroke:#181818;stroke-width:1;stroke-dasharray:7.0,7.0;"/><polygon fill="transparent" points="401.13,539.8269,419.3115,545.252,418.9303,533.258,401.13,539.8269" style="stroke:#181818;stroke-width:1;"/></g><!--reverse link C_0017268439787651424876 to C_0009730025766701730813--><g id="link_C_0017268439787651424876_C_0009730025766701730813"><path codeLine="69" d="M926.4981,319.1505 C940.4481,286.2805 961.18,237.4169 975.15,204.4969 " fill="transparent" id="C_0017268439787651424876-backto-C_0009730025766701730813" style="stroke:#181818;stroke-width:1;"/><polygon fill="transparent" points="921.81,330.1969,927.8362,326.2364,926.4981,319.1505,920.4719,323.111,921.81,330.1969" style="stroke:#181818;stroke-width:1;"/><polygon fill="transparent" points="968,238.3633,972,242.3633,968,246.3633,964,242.3633" style="stroke:#B38D22;stroke-width:1;"/><text fill="#000000" font-family="sans-serif" font-size="13" lengthAdjust="spacing" textLength="52.3555" x="975" y="247.3638">_M_impl</text></g><!--link C_0009730025766701730813 to C_0017268439787651424876--><g id="link_C_0009730025766701730813_C_0017268439787651424876"><path codeLine="70" d="M967.69,204.4869 C961.53,213.4669 954.9,224.0569 950,234.2969 C934.74,266.1869 927.404,290.188 921.254,314.698 " fill="transparent" id="C_0009730025766701730813-to-C_0017268439787651424876" style="stroke:#181818;stroke-width:1;"/><ellipse cx="919.307" cy="322.4574" fill="#FFFFFF" rx="8" ry="8" style="stroke:#181818;stroke-width:1;"/><line style="stroke:#181818;stroke-width:1;" x1="921.254" x2="917.36" y1="314.698" y2="330.2169"/><line style="stroke:#181818;stroke-width:1;" x1="927.0664" x2="911.5475" y1="324.4044" y2="320.5104"/></g><!--reverse link C_0009730025766701730813 to C_0000986537528964488307--><g id="link_C_0009730025766701730813_C_0000986537528964488307"><path codeLine="71" d="M1015.8541,212.981 C1024.7941,222.221 1026.78,224.3869 1036,234.2969 C1066.66,267.2569 1101.36,306.1569 1122.71,330.2769 " fill="transparent" id="C_0009730025766701730813-backto-C_0000986537528964488307" style="stroke:#181818;stroke-width:1;"/><polygon fill="transparent" points="1007.51,204.3569,1008.8074,211.4503,1015.8541,212.981,1014.5568,205.8876,1007.51,204.3569" style="stroke:#181818;stroke-width:1;"/><ellipse cx="1057" cy="243.3633" fill="transparent" rx="3" ry="3" style="stroke:#038048;stroke-width:1;"/><text fill="#000000" font-family="sans-serif" font-size="13" lengthAdjust="spacing" textLength="56.6592" x="1064" y="247.3638">_M_node</text></g><!--reverse link C_0017268439787651424876 to C_0015609426756015090359--><g id="link_C_0017268439787651424876_C_0015609426756015090359"><path codeLine="72" d="M877.638,391.5615 C846.438,424.4815 802.04,471.3269 770.89,504.1969 " fill="transparent" id="C_0017268439787651424876-backto-C_0015609426756015090359" style="stroke:#181818;stroke-width:1;"/><polygon fill="transparent" points="890.02,378.4969,873.2831,387.4342,881.9928,395.6889,890.02,378.4969" style="stroke:#181818;stroke-width:1;"/></g><!--link C_0008831140152225074072 to C_0015609426756015090359--><g id="link_C_0008831140152225074072_C_0015609426756015090359"><path codeLine="73" d="M383.47,378.3169 C464.22,411.2269 596.9635,465.3276 677.7035,498.2376 " fill="transparent" id="C_0008831140152225074072-to-C_0015609426756015090359" style="stroke:#181818;stroke-width:1;"/><ellipse cx="685.1118" cy="501.2572" fill="#FFFFFF" rx="8" ry="8" style="stroke:#181818;stroke-width:1;"/><line style="stroke:#181818;stroke-width:1;" x1="677.7035" x2="692.52" y1="498.2376" y2="504.2769"/><line style="stroke:#181818;stroke-width:1;" x1="688.1314" x2="682.0921" y1="493.849" y2="508.6655"/></g><!--link C_0008831140152225074072 to C_0010079646352454332341--><g id="link_C_0008831140152225074072_C_0010079646352454332341"><path codeLine="74" d="M327,378.4969 C327,411.4169 327,465.3269 327,498.1969 " fill="transparent" id="C_0008831140152225074072-to-C_0010079646352454332341" style="stroke:#181818;stroke-width:1;"/><polygon fill="#181818" points="327,504.1969,331,495.1969,327,499.1969,323,495.1969,327,504.1969" style="stroke:#181818;stroke-width:1;"/><ellipse cx="333" cy="466.3633" fill="transparent" rx="3" ry="3" style="stroke:#038048;stroke-width:1;"/><text fill="#000000" font-family="sans-serif" font-size="13" lengthAdjust="spacing" textLength="53.2441" x="340" y="470.3638">_M_next</text></g><!--link C_0005440126081384335850 to C_0015609426756015090359--><g id="link_C_0005440126081384335850_C_0015609426756015090359"><path codeLine="75" d="M1390.69,378.3169 C1358.72,394.0969 1314.12,414.4269 1273,427.2969 C1133.35,471.0169 984.3085,496.3778 877.0085,511.2978 " fill="transparent" id="C_0005440126081384335850-to-C_0015609426756015090359" style="stroke:#181818;stroke-width:1;stroke-dasharray:7.0,7.0;"/><polygon fill="transparent" points="859.18,513.7769,877.8348,517.2407,876.1821,505.355,859.18,513.7769" style="stroke:#181818;stroke-width:1;"/></g><!--link GMN49 to C_0016581430309674106927--><g id="link_GMN49_C_0016581430309674106927"><path d="M1456.88,192.9369 C1488.08,210.6569 1548.32,246.0569 1596,281.2969 C1616.56,296.4969 1638.33,315.5069 1654.42,330.1769 " fill="transparent" id="GMN49-C_0016581430309674106927" style="stroke:#181818;stroke-width:1;stroke-dasharray:7.0,7.0;"/></g><!--link GMN52 to C_0017268439787651424876--><g id="link_GMN52_C_0017268439787651424876"><path d="M684.77,192.9469 C711.51,211.5469 765.46,249.1469 811,281.2969 C834.04,297.5669 859.95,316.0369 879.76,330.1969 " fill="transparent" id="GMN52-C_0017268439787651424876" style="stroke:#181818;stroke-width:1;stroke-dasharray:7.0,7.0;"/></g><!--SRC=[fLPTRzis57tNho0w36dHsAD4IfICB42Gh4K6fokGPAy4BT4s1qdK92fDjkw_zrAERIKX5wzxCMLUyfxxUNYDCgL4dIbcir9r1kMwDl8Urb9q7IgKMBMY2ZR_tincdA_gdkVtz_PJb6fLou9NibhqonD-qvo-GQ93vnnZ7B8K4qPOcgPHceHXZ9D7DJun-ZlWFFZd833OkMcYFHec2SaepJ2BQKnJoYWTepd4pz0uBwGHgWJ5SuW3htKX-K9qSez1S196X4MCnYcEQKJ94uySuaCmrb8KiXrvagL9J5WSfLb2QPeIp9vuybBiHxdEMs7oDRUPtIFGCCveHcE8VaWI74NfarWvn8SXmD_FfkLvrPpmIoFROtvUZIiY2MEIaIoD6GjnIcAQfMDSX_WxSU-qAaQu4KjYd2M4K4nndAOCFy5rY9_ZxhBrjCR394v3IY3pMS9eY9Ci6kVA9NPgLc2qCBfzfXrZ1ZbEI1n1pH8I4HgEjJl4JkssYAtcOtvMbZeV0R0eIId9M0eH2A5WOHq3ECHUW6r9gwefzv7F687unYn96AWZE0t9EF8EyJC0czwHxJyB-xiBrSYLEC4PZH86Ar19XacSZLrnY1r8uCG7LGFH_2M1PjhLgFUXqSAGmkKeYcBCA6RHs1E7sET9KxMpMQFBXqgtpLhbtESJS0XeZ18R5iW3YTCOZp4TuYscb_Cca_T-TlQos6HowgUu6NhFhtWDRyR_Kj2qyiwluEJhPEAdnmEkkJZFopgxA7blkJZZ-svDfrzF_VJefH6zTSprZcuYsa59YPKy83fE7lDopCvY9q5vcMDdiQlhP-W7iDYIH-0ziuslaxQyj_I_5CwsTe7O_NRle-JY66_txwpzZxVyeNtHQIu2s2V7XOiGghMHoEW6wQMV2U0SEaEzKQKo3yWyD7AO2uMgLRr20dt-xGBfnHyoDyYi1GoBeaPhNHO8riTzK6_l1GX83S4zemPUBT2T4gWfHIwdqsaWwsAmQ41yQPjhghC7RmIGiq6Lo5kDpYv-lRs-uHykVvbVyBFvvSTFWprDgui-bp32BfUobRL1mmHPsQ-bReF1l0vzMSiQzHqO1hIxOLUOC0-mpJKDseFdkgeqm8js2890jhmW0X0fYNwqpy3hRZiuRd1xgs6ZSpCvlghDHKVsuArrUl60DYzVfy5UepTfjEexj90ssrOWY-SeBYGdZGobL2EHcrwKhyV2eTNLxlRWjPHeeKptKsTA60p_xELqVTGXVc4_Xw74vjcMfBo7Wgk5KRe-0C_JEEXAIjCDbhU0e5ffIwdRv3XuR0_P1iT8mF40dZFPTcfHxbfd8mFqGTvPA-jSmfwgyx8lL7r0qRd6a26NJI7Wg6LzQ39RmGj0Hs89aoMoeupDvDjELn9KlKESTsqEk91lErE_I4CG14SVPMsdKgYHBygiRMlKgqbVbSTeS0nA74-JQHWSpUU_N-tsRXTzRVhDwTrcc4t3QOZUXlqW3Tzz0m00]--></g></svg>