<svg xmlns="http://www.w3.org/2000/svg" xmlns:xlink="http://www.w3.org/1999/xlink" contentStyleType="text/css" data-diagram-type="CLASS" height="2301px" preserveAspectRatio="none" style="width:4061px;height:2301px;background:#FFFFFF;" version="1.1" viewBox="0 0 4061 2301" width="4061px" zoomAndPan="magnify"><title>std::map context class diagram</title><defs/><g><text fill="#000000" font-family="sans-serif" font-size="14" font-weight="bold" lengthAdjust="spacing" textLength="249.1563" x="1899.2251" y="22.9951">std::map context class diagram</text><!--class C_0009583224762676263256--><g id="elem_C_0009583224762676263256"><rect codeLine="4" fill="#F1F1F1" height="48" id="C_0009583224762676263256" rx="2.5" ry="2.5" style="stroke:#181818;stroke-width:0.5;" width="264.4941" x="1207" y="535.7969"/><ellipse cx="1222" cy="551.7969" fill="#ADD1B2" rx="11" ry="11" style="stroke:#181818;stroke-width:1;"/><path d="M1224.9688,557.4375 Q1224.3906,557.7344 1223.75,557.875 Q1223.1094,558.0313 1222.4063,558.0313 Q1219.9063,558.0313 1218.5781,556.3906 Q1217.2656,554.7344 1217.2656,551.6094 Q1217.2656,548.4844 1218.5781,546.8281 Q1219.9063,545.1719 1222.4063,545.1719 Q1223.1094,545.1719 1223.75,545.3281 Q1224.4063,545.4844 1224.9688,545.7813 L1224.9688,548.5 Q1224.3438,547.9219 1223.75,547.6563 Q1223.1563,547.375 1222.5313,547.375 Q1221.1875,547.375 1220.5,548.4531 Q1219.8125,549.5156 1219.8125,551.6094 Q1219.8125,553.7031 1220.5,554.7813 Q1221.1875,555.8438 1222.5313,555.8438 Q1223.1563,555.8438 1223.75,555.5781 Q1224.3438,555.2969 1224.9688,554.7188 L1224.9688,557.4375 Z " fill="#000000"/><text fill="#000000" font-family="sans-serif" font-size="14" lengthAdjust="spacing" textLength="108.459" x="1236" y="556.6436">binary_function</text><rect fill="#FFFFFF" height="15.9688" style="stroke:#181818;stroke-width:1;stroke-dasharray:2.0,2.0;" width="122.0352" x="1352.459" y="532.7969"/><text fill="#000000" font-family="sans-serif" font-size="12" font-style="italic" lengthAdjust="spacing" textLength="120.0352" x="1353.459" y="544.9355">_Arg1,_Arg2,_Result</text><line style="stroke:#181818;stroke-width:0.5;" x1="1208" x2="1470.4941" y1="567.7969" y2="567.7969"/><line style="stroke:#181818;stroke-width:0.5;" x1="1208" x2="1470.4941" y1="575.7969" y2="575.7969"/></g><!--class C_0001906998976845593827--><g id="elem_C_0001906998976845593827"><rect codeLine="8" fill="#F1F1F1" height="48" id="C_0001906998976845593827" rx="2.5" ry="2.5" style="stroke:#181818;stroke-width:0.5;" width="219.6172" x="778" y="777.7969"/><ellipse cx="793" cy="793.7969" fill="#ADD1B2" rx="11" ry="11" style="stroke:#181818;stroke-width:1;"/><path d="M795.9688,799.4375 Q795.3906,799.7344 794.75,799.875 Q794.1094,800.0313 793.4063,800.0313 Q790.9063,800.0313 789.5781,798.3906 Q788.2656,796.7344 788.2656,793.6094 Q788.2656,790.4844 789.5781,788.8281 Q790.9063,787.1719 793.4063,787.1719 Q794.1094,787.1719 794.75,787.3281 Q795.4063,787.4844 795.9688,787.7813 L795.9688,790.5 Q795.3438,789.9219 794.75,789.6563 Q794.1563,789.375 793.5313,789.375 Q792.1875,789.375 791.5,790.4531 Q790.8125,791.5156 790.8125,793.6094 Q790.8125,795.7031 791.5,796.7813 Q792.1875,797.8438 793.5313,797.8438 Q794.1563,797.8438 794.75,797.5781 Q795.3438,797.2969 795.9688,796.7188 L795.9688,799.4375 Z " fill="#000000"/><text fill="#000000" font-family="sans-serif" font-size="14" lengthAdjust="spacing" textLength="108.459" x="807" y="798.6436">binary_function</text><rect fill="#FFFFFF" height="15.9688" style="stroke:#181818;stroke-width:1;stroke-dasharray:2.0,2.0;" width="77.1582" x="923.459" y="774.7969"/><text fill="#000000" font-family="sans-serif" font-size="12" font-style="italic" lengthAdjust="spacing" textLength="75.1582" x="924.459" y="786.9355">_Tp,_Tp,bool</text><line style="stroke:#181818;stroke-width:0.5;" x1="779" x2="996.6172" y1="809.7969" y2="809.7969"/><line style="stroke:#181818;stroke-width:0.5;" x1="779" x2="996.6172" y1="817.7969" y2="817.7969"/></g><!--class C_0005819947583752498517--><g id="elem_C_0005819947583752498517"><rect codeLine="12" fill="#F1F1F1" height="48" id="C_0005819947583752498517" rx="2.5" ry="2.5" style="stroke:#181818;stroke-width:0.5;" width="152.293" x="1263" y="679.7969"/><ellipse cx="1278" cy="695.7969" fill="#ADD1B2" rx="11" ry="11" style="stroke:#181818;stroke-width:1;"/><path d="M1280.9688,701.4375 Q1280.3906,701.7344 1279.75,701.875 Q1279.1094,702.0313 1278.4063,702.0313 Q1275.9063,702.0313 1274.5781,700.3906 Q1273.2656,698.7344 1273.2656,695.6094 Q1273.2656,692.4844 1274.5781,690.8281 Q1275.9063,689.1719 1278.4063,689.1719 Q1279.1094,689.1719 1279.75,689.3281 Q1280.4063,689.4844 1280.9688,689.7813 L1280.9688,692.5 Q1280.3438,691.9219 1279.75,691.6563 Q1279.1563,691.375 1278.5313,691.375 Q1277.1875,691.375 1276.5,692.4531 Q1275.8125,693.5156 1275.8125,695.6094 Q1275.8125,697.7031 1276.5,698.7813 Q1277.1875,699.8438 1278.5313,699.8438 Q1279.1563,699.8438 1279.75,699.5781 Q1280.3438,699.2969 1280.9688,698.7188 L1280.9688,701.4375 Z " fill="#000000"/><text fill="#000000" font-family="sans-serif" font-size="14" lengthAdjust="spacing" textLength="59.8965" x="1292" y="700.6436">equal_to</text><rect fill="#FFFFFF" height="15.9688" style="stroke:#181818;stroke-width:1;stroke-dasharray:2.0,2.0;" width="58.3965" x="1359.8965" y="676.7969"/><text fill="#000000" font-family="sans-serif" font-size="12" font-style="italic" lengthAdjust="spacing" textLength="56.3965" x="1360.8965" y="688.9355">_Tp=void</text><line style="stroke:#181818;stroke-width:0.5;" x1="1264" x2="1414.293" y1="711.7969" y2="711.7969"/><line style="stroke:#181818;stroke-width:0.5;" x1="1264" x2="1414.293" y1="719.7969" y2="719.7969"/></g><!--class C_0004088953224300771248--><g id="elem_C_0004088953224300771248"><rect codeLine="16" fill="#F1F1F1" height="48" id="C_0004088953224300771248" rx="2.5" ry="2.5" style="stroke:#181818;stroke-width:0.5;" width="182.2207" x="1248" y="823.7969"/><ellipse cx="1263" cy="839.7969" fill="#ADD1B2" rx="11" ry="11" style="stroke:#181818;stroke-width:1;"/><path d="M1265.9688,845.4375 Q1265.3906,845.7344 1264.75,845.875 Q1264.1094,846.0313 1263.4063,846.0313 Q1260.9063,846.0313 1259.5781,844.3906 Q1258.2656,842.7344 1258.2656,839.6094 Q1258.2656,836.4844 1259.5781,834.8281 Q1260.9063,833.1719 1263.4063,833.1719 Q1264.1094,833.1719 1264.75,833.3281 Q1265.4063,833.4844 1265.9688,833.7813 L1265.9688,836.5 Q1265.3438,835.9219 1264.75,835.6563 Q1264.1563,835.375 1263.5313,835.375 Q1262.1875,835.375 1261.5,836.4531 Q1260.8125,837.5156 1260.8125,839.6094 Q1260.8125,841.7031 1261.5,842.7813 Q1262.1875,843.8438 1263.5313,843.8438 Q1264.1563,843.8438 1264.75,843.5781 Q1265.3438,843.2969 1265.9688,842.7188 L1265.9688,845.4375 Z " fill="#000000"/><text fill="#000000" font-family="sans-serif" font-size="14" lengthAdjust="spacing" textLength="89.8242" x="1277" y="844.6436">not_equal_to</text><rect fill="#FFFFFF" height="15.9688" style="stroke:#181818;stroke-width:1;stroke-dasharray:2.0,2.0;" width="58.3965" x="1374.8242" y="820.7969"/><text fill="#000000" font-family="sans-serif" font-size="12" font-style="italic" lengthAdjust="spacing" textLength="56.3965" x="1375.8242" y="832.9355">_Tp=void</text><line style="stroke:#181818;stroke-width:0.5;" x1="1249" x2="1429.2207" y1="855.7969" y2="855.7969"/><line style="stroke:#181818;stroke-width:0.5;" x1="1249" x2="1429.2207" y1="863.7969" y2="863.7969"/></g><!--class C_0001698641695689253648--><g id="elem_C_0001698641695689253648"><rect codeLine="20" fill="#F1F1F1" height="48" id="C_0001698641695689253648" rx="2.5" ry="2.5" style="stroke:#181818;stroke-width:0.5;" width="144.0898" x="1267" y="967.7969"/><ellipse cx="1282" cy="983.7969" fill="#ADD1B2" rx="11" ry="11" style="stroke:#181818;stroke-width:1;"/><path d="M1284.9688,989.4375 Q1284.3906,989.7344 1283.75,989.875 Q1283.1094,990.0313 1282.4063,990.0313 Q1279.9063,990.0313 1278.5781,988.3906 Q1277.2656,986.7344 1277.2656,983.6094 Q1277.2656,980.4844 1278.5781,978.8281 Q1279.9063,977.1719 1282.4063,977.1719 Q1283.1094,977.1719 1283.75,977.3281 Q1284.4063,977.4844 1284.9688,977.7813 L1284.9688,980.5 Q1284.3438,979.9219 1283.75,979.6563 Q1283.1563,979.375 1282.5313,979.375 Q1281.1875,979.375 1280.5,980.4531 Q1279.8125,981.5156 1279.8125,983.6094 Q1279.8125,985.7031 1280.5,986.7813 Q1281.1875,987.8438 1282.5313,987.8438 Q1283.1563,987.8438 1283.75,987.5781 Q1284.3438,987.2969 1284.9688,986.7188 L1284.9688,989.4375 Z " fill="#000000"/><text fill="#000000" font-family="sans-serif" font-size="14" lengthAdjust="spacing" textLength="51.6934" x="1296" y="988.6436">greater</text><rect fill="#FFFFFF" height="15.9688" style="stroke:#181818;stroke-width:1;stroke-dasharray:2.0,2.0;" width="58.3965" x="1355.6934" y="964.7969"/><text fill="#000000" font-family="sans-serif" font-size="12" font-style="italic" lengthAdjust="spacing" textLength="56.3965" x="1356.6934" y="976.9355">_Tp=void</text><line style="stroke:#181818;stroke-width:0.5;" x1="1268" x2="1410.0898" y1="999.7969" y2="999.7969"/><line style="stroke:#181818;stroke-width:0.5;" x1="1268" x2="1410.0898" y1="1007.7969" y2="1007.7969"/></g><!--class C_0017625547811729843273--><g id="elem_C_0017625547811729843273"><rect codeLine="24" fill="#F1F1F1" height="48" id="C_0017625547811729843273" rx="2.5" ry="2.5" style="stroke:#181818;stroke-width:0.5;" width="119.4873" x="1279.5" y="1111.7969"/><ellipse cx="1294.5" cy="1127.7969" fill="#ADD1B2" rx="11" ry="11" style="stroke:#181818;stroke-width:1;"/><path d="M1297.4688,1133.4375 Q1296.8906,1133.7344 1296.25,1133.875 Q1295.6094,1134.0313 1294.9063,1134.0313 Q1292.4063,1134.0313 1291.0781,1132.3906 Q1289.7656,1130.7344 1289.7656,1127.6094 Q1289.7656,1124.4844 1291.0781,1122.8281 Q1292.4063,1121.1719 1294.9063,1121.1719 Q1295.6094,1121.1719 1296.25,1121.3281 Q1296.9063,1121.4844 1297.4688,1121.7813 L1297.4688,1124.5 Q1296.8438,1123.9219 1296.25,1123.6563 Q1295.6563,1123.375 1295.0313,1123.375 Q1293.6875,1123.375 1293,1124.4531 Q1292.3125,1125.5156 1292.3125,1127.6094 Q1292.3125,1129.7031 1293,1130.7813 Q1293.6875,1131.8438 1295.0313,1131.8438 Q1295.6563,1131.8438 1296.25,1131.5781 Q1296.8438,1131.2969 1297.4688,1130.7188 L1297.4688,1133.4375 Z " fill="#000000"/><text fill="#000000" font-family="sans-serif" font-size="14" lengthAdjust="spacing" textLength="27.0908" x="1308.5" y="1132.6436">less</text><rect fill="#FFFFFF" height="15.9688" style="stroke:#181818;stroke-width:1;stroke-dasharray:2.0,2.0;" width="58.3965" x="1343.5908" y="1108.7969"/><text fill="#000000" font-family="sans-serif" font-size="12" font-style="italic" lengthAdjust="spacing" textLength="56.3965" x="1344.5908" y="1120.9355">_Tp=void</text><line style="stroke:#181818;stroke-width:0.5;" x1="1280.5" x2="1397.9873" y1="1143.7969" y2="1143.7969"/><line style="stroke:#181818;stroke-width:0.5;" x1="1280.5" x2="1397.9873" y1="1151.7969" y2="1151.7969"/></g><!--class C_0016809506695079101711--><g id="elem_C_0016809506695079101711"><rect codeLine="28" fill="#F1F1F1" height="48" id="C_0016809506695079101711" rx="2.5" ry="2.5" style="stroke:#181818;stroke-width:0.5;" width="189.9316" x="1244" y="1255.7969"/><ellipse cx="1259" cy="1271.7969" fill="#ADD1B2" rx="11" ry="11" style="stroke:#181818;stroke-width:1;"/><path d="M1261.9688,1277.4375 Q1261.3906,1277.7344 1260.75,1277.875 Q1260.1094,1278.0313 1259.4063,1278.0313 Q1256.9063,1278.0313 1255.5781,1276.3906 Q1254.2656,1274.7344 1254.2656,1271.6094 Q1254.2656,1268.4844 1255.5781,1266.8281 Q1256.9063,1265.1719 1259.4063,1265.1719 Q1260.1094,1265.1719 1260.75,1265.3281 Q1261.4063,1265.4844 1261.9688,1265.7813 L1261.9688,1268.5 Q1261.3438,1267.9219 1260.75,1267.6563 Q1260.1563,1267.375 1259.5313,1267.375 Q1258.1875,1267.375 1257.5,1268.4531 Q1256.8125,1269.5156 1256.8125,1271.6094 Q1256.8125,1273.7031 1257.5,1274.7813 Q1258.1875,1275.8438 1259.5313,1275.8438 Q1260.1563,1275.8438 1260.75,1275.5781 Q1261.3438,1275.2969 1261.9688,1274.7188 L1261.9688,1277.4375 Z " fill="#000000"/><text fill="#000000" font-family="sans-serif" font-size="14" lengthAdjust="spacing" textLength="97.5352" x="1273" y="1276.6436">greater_equal</text><rect fill="#FFFFFF" height="15.9688" style="stroke:#181818;stroke-width:1;stroke-dasharray:2.0,2.0;" width="58.3965" x="1378.5352" y="1252.7969"/><text fill="#000000" font-family="sans-serif" font-size="12" font-style="italic" lengthAdjust="spacing" textLength="56.3965" x="1379.5352" y="1264.9355">_Tp=void</text><line style="stroke:#181818;stroke-width:0.5;" x1="1245" x2="1432.9316" y1="1287.7969" y2="1287.7969"/><line style="stroke:#181818;stroke-width:0.5;" x1="1245" x2="1432.9316" y1="1295.7969" y2="1295.7969"/></g><!--class C_0016061750655888038828--><g id="elem_C_0016061750655888038828"><rect codeLine="32" fill="#F1F1F1" height="48" id="C_0016061750655888038828" rx="2.5" ry="2.5" style="stroke:#181818;stroke-width:0.5;" width="165.3291" x="1256.5" y="103.7969"/><ellipse cx="1271.5" cy="119.7969" fill="#ADD1B2" rx="11" ry="11" style="stroke:#181818;stroke-width:1;"/><path d="M1274.4688,125.4375 Q1273.8906,125.7344 1273.25,125.875 Q1272.6094,126.0313 1271.9063,126.0313 Q1269.4063,126.0313 1268.0781,124.3906 Q1266.7656,122.7344 1266.7656,119.6094 Q1266.7656,116.4844 1268.0781,114.8281 Q1269.4063,113.1719 1271.9063,113.1719 Q1272.6094,113.1719 1273.25,113.3281 Q1273.9063,113.4844 1274.4688,113.7813 L1274.4688,116.5 Q1273.8438,115.9219 1273.25,115.6563 Q1272.6563,115.375 1272.0313,115.375 Q1270.6875,115.375 1270,116.4531 Q1269.3125,117.5156 1269.3125,119.6094 Q1269.3125,121.7031 1270,122.7813 Q1270.6875,123.8438 1272.0313,123.8438 Q1272.6563,123.8438 1273.25,123.5781 Q1273.8438,123.2969 1274.4688,122.7188 L1274.4688,125.4375 Z " fill="#000000"/><text fill="#000000" font-family="sans-serif" font-size="14" lengthAdjust="spacing" textLength="72.9326" x="1285.5" y="124.6436">less_equal</text><rect fill="#FFFFFF" height="15.9688" style="stroke:#181818;stroke-width:1;stroke-dasharray:2.0,2.0;" width="58.3965" x="1366.4326" y="100.7969"/><text fill="#000000" font-family="sans-serif" font-size="12" font-style="italic" lengthAdjust="spacing" textLength="56.3965" x="1367.4326" y="112.9355">_Tp=void</text><line style="stroke:#181818;stroke-width:0.5;" x1="1257.5" x2="1420.8291" y1="135.7969" y2="135.7969"/><line style="stroke:#181818;stroke-width:0.5;" x1="1257.5" x2="1420.8291" y1="143.7969" y2="143.7969"/></g><!--class C_0014703748170233212531--><g id="elem_C_0014703748170233212531"><rect codeLine="36" fill="#F1F1F1" height="48" id="C_0014703748170233212531" rx="2.5" ry="2.5" style="stroke:#181818;stroke-width:0.5;" width="239.2461" x="242.5" y="819.7969"/><ellipse cx="257.5" cy="835.7969" fill="#ADD1B2" rx="11" ry="11" style="stroke:#181818;stroke-width:1;"/><path d="M260.4688,841.4375 Q259.8906,841.7344 259.25,841.875 Q258.6094,842.0313 257.9063,842.0313 Q255.4063,842.0313 254.0781,840.3906 Q252.7656,838.7344 252.7656,835.6094 Q252.7656,832.4844 254.0781,830.8281 Q255.4063,829.1719 257.9063,829.1719 Q258.6094,829.1719 259.25,829.3281 Q259.9063,829.4844 260.4688,829.7813 L260.4688,832.5 Q259.8438,831.9219 259.25,831.6563 Q258.6563,831.375 258.0313,831.375 Q256.6875,831.375 256,832.4531 Q255.3125,833.5156 255.3125,835.6094 Q255.3125,837.7031 256,838.7813 Q256.6875,839.8438 258.0313,839.8438 Q258.6563,839.8438 259.25,839.5781 Q259.8438,839.2969 260.4688,838.7188 L260.4688,841.4375 Z " fill="#000000"/><text fill="#000000" font-family="sans-serif" font-size="14" lengthAdjust="spacing" textLength="108.459" x="271.5" y="840.6436">binary_function</text><rect fill="#FFFFFF" height="15.9688" style="stroke:#181818;stroke-width:1;stroke-dasharray:2.0,2.0;" width="96.7871" x="387.959" y="816.7969"/><text fill="#000000" font-family="sans-serif" font-size="12" font-style="italic" lengthAdjust="spacing" textLength="94.7871" x="388.959" y="828.9355">_Tp *,_Tp *,bool</text><line style="stroke:#181818;stroke-width:0.5;" x1="243.5" x2="480.7461" y1="851.7969" y2="851.7969"/><line style="stroke:#181818;stroke-width:0.5;" x1="243.5" x2="480.7461" y1="859.7969" y2="859.7969"/></g><!--class C_0004413300066190592573--><g id="elem_C_0004413300066190592573"><rect codeLine="40" fill="#F1F1F1" height="48" id="C_0004413300066190592573" rx="2.5" ry="2.5" style="stroke:#181818;stroke-width:0.5;" width="171.1328" x="1253.5" y="247.7969"/><ellipse cx="1268.5" cy="263.7969" fill="#ADD1B2" rx="11" ry="11" style="stroke:#181818;stroke-width:1;"/><path d="M1271.4688,269.4375 Q1270.8906,269.7344 1270.25,269.875 Q1269.6094,270.0313 1268.9063,270.0313 Q1266.4063,270.0313 1265.0781,268.3906 Q1263.7656,266.7344 1263.7656,263.6094 Q1263.7656,260.4844 1265.0781,258.8281 Q1266.4063,257.1719 1268.9063,257.1719 Q1269.6094,257.1719 1270.25,257.3281 Q1270.9063,257.4844 1271.4688,257.7813 L1271.4688,260.5 Q1270.8438,259.9219 1270.25,259.6563 Q1269.6563,259.375 1269.0313,259.375 Q1267.6875,259.375 1267,260.4531 Q1266.3125,261.5156 1266.3125,263.6094 Q1266.3125,265.7031 1267,266.7813 Q1267.6875,267.8438 1269.0313,267.8438 Q1269.6563,267.8438 1270.25,267.5781 Q1270.8438,267.2969 1271.4688,266.7188 L1271.4688,269.4375 Z " fill="#000000"/><text fill="#000000" font-family="sans-serif" font-size="14" lengthAdjust="spacing" textLength="78.7363" x="1282.5" y="268.6436">logical_and</text><rect fill="#FFFFFF" height="15.9688" style="stroke:#181818;stroke-width:1;stroke-dasharray:2.0,2.0;" width="58.3965" x="1369.2363" y="244.7969"/><text fill="#000000" font-family="sans-serif" font-size="12" font-style="italic" lengthAdjust="spacing" textLength="56.3965" x="1370.2363" y="256.9355">_Tp=void</text><line style="stroke:#181818;stroke-width:0.5;" x1="1254.5" x2="1423.6328" y1="279.7969" y2="279.7969"/><line style="stroke:#181818;stroke-width:0.5;" x1="1254.5" x2="1423.6328" y1="287.7969" y2="287.7969"/></g><!--class C_0000261527948690069145--><g id="elem_C_0000261527948690069145"><rect codeLine="44" fill="#F1F1F1" height="48" id="C_0000261527948690069145" rx="2.5" ry="2.5" style="stroke:#181818;stroke-width:0.5;" width="159.1152" x="1259.5" y="391.7969"/><ellipse cx="1274.5" cy="407.7969" fill="#ADD1B2" rx="11" ry="11" style="stroke:#181818;stroke-width:1;"/><path d="M1277.4688,413.4375 Q1276.8906,413.7344 1276.25,413.875 Q1275.6094,414.0313 1274.9063,414.0313 Q1272.4063,414.0313 1271.0781,412.3906 Q1269.7656,410.7344 1269.7656,407.6094 Q1269.7656,404.4844 1271.0781,402.8281 Q1272.4063,401.1719 1274.9063,401.1719 Q1275.6094,401.1719 1276.25,401.3281 Q1276.9063,401.4844 1277.4688,401.7813 L1277.4688,404.5 Q1276.8438,403.9219 1276.25,403.6563 Q1275.6563,403.375 1275.0313,403.375 Q1273.6875,403.375 1273,404.4531 Q1272.3125,405.5156 1272.3125,407.6094 Q1272.3125,409.7031 1273,410.7813 Q1273.6875,411.8438 1275.0313,411.8438 Q1275.6563,411.8438 1276.25,411.5781 Q1276.8438,411.2969 1277.4688,410.7188 L1277.4688,413.4375 Z " fill="#000000"/><text fill="#000000" font-family="sans-serif" font-size="14" lengthAdjust="spacing" textLength="66.7188" x="1288.5" y="412.6436">logical_or</text><rect fill="#FFFFFF" height="15.9688" style="stroke:#181818;stroke-width:1;stroke-dasharray:2.0,2.0;" width="58.3965" x="1363.2188" y="388.7969"/><text fill="#000000" font-family="sans-serif" font-size="12" font-style="italic" lengthAdjust="spacing" textLength="56.3965" x="1364.2188" y="400.9355">_Tp=void</text><line style="stroke:#181818;stroke-width:0.5;" x1="1260.5" x2="1417.6152" y1="423.7969" y2="423.7969"/><line style="stroke:#181818;stroke-width:0.5;" x1="1260.5" x2="1417.6152" y1="431.7969" y2="431.7969"/></g><!--class C_0007311719642430294892--><g id="elem_C_0007311719642430294892"><rect codeLine="48" fill="#F1F1F1" height="48" id="C_0007311719642430294892" rx="2.5" ry="2.5" style="stroke:#181818;stroke-width:0.5;" width="709.9297" x="7" y="736.7969"/><ellipse cx="22" cy="752.7969" fill="#ADD1B2" rx="11" ry="11" style="stroke:#181818;stroke-width:1;"/><path d="M24.9688,758.4375 Q24.3906,758.7344 23.75,758.875 Q23.1094,759.0313 22.4063,759.0313 Q19.9063,759.0313 18.5781,757.3906 Q17.2656,755.7344 17.2656,752.6094 Q17.2656,749.4844 18.5781,747.8281 Q19.9063,746.1719 22.4063,746.1719 Q23.1094,746.1719 23.75,746.3281 Q24.4063,746.4844 24.9688,746.7813 L24.9688,749.5 Q24.3438,748.9219 23.75,748.6563 Q23.1563,748.375 22.5313,748.375 Q21.1875,748.375 20.5,749.4531 Q19.8125,750.5156 19.8125,752.6094 Q19.8125,754.7031 20.5,755.7813 Q21.1875,756.8438 22.5313,756.8438 Q23.1563,756.8438 23.75,756.5781 Q24.3438,756.2969 24.9688,755.7188 L24.9688,758.4375 Z " fill="#000000"/><text fill="#000000" font-family="sans-serif" font-size="14" lengthAdjust="spacing" textLength="108.459" x="36" y="757.6436">binary_function</text><rect fill="#FFFFFF" height="15.9688" style="stroke:#181818;stroke-width:1;stroke-dasharray:2.0,2.0;" width="567.4707" x="152.459" y="733.7969"/><text fill="#000000" font-family="sans-serif" font-size="12" font-style="italic" lengthAdjust="spacing" textLength="565.4707" x="153.459" y="745.9355">typename _Predicate::first_argument_type,typename _Predicate::second_argument_type,bool</text><line style="stroke:#181818;stroke-width:0.5;" x1="8" x2="715.9297" y1="768.7969" y2="768.7969"/><line style="stroke:#181818;stroke-width:0.5;" x1="8" x2="715.9297" y1="776.7969" y2="776.7969"/></g><!--class C_0013916464534772332265--><g id="elem_C_0013916464534772332265"><rect codeLine="52" fill="#F1F1F1" height="48" id="C_0013916464534772332265" rx="2.5" ry="2.5" style="stroke:#181818;stroke-width:0.5;" width="344.6504" x="2739" y="1703.7969"/><ellipse cx="2754" cy="1719.7969" fill="#ADD1B2" rx="11" ry="11" style="stroke:#181818;stroke-width:1;"/><path d="M2756.9688,1725.4375 Q2756.3906,1725.7344 2755.75,1725.875 Q2755.1094,1726.0313 2754.4063,1726.0313 Q2751.9063,1726.0313 2750.5781,1724.3906 Q2749.2656,1722.7344 2749.2656,1719.6094 Q2749.2656,1716.4844 2750.5781,1714.8281 Q2751.9063,1713.1719 2754.4063,1713.1719 Q2755.1094,1713.1719 2755.75,1713.3281 Q2756.4063,1713.4844 2756.9688,1713.7813 L2756.9688,1716.5 Q2756.3438,1715.9219 2755.75,1715.6563 Q2755.1563,1715.375 2754.5313,1715.375 Q2753.1875,1715.375 2752.5,1716.4531 Q2751.8125,1717.5156 2751.8125,1719.6094 Q2751.8125,1721.7031 2752.5,1722.7813 Q2753.1875,1723.8438 2754.5313,1723.8438 Q2755.1563,1723.8438 2755.75,1723.5781 Q2756.3438,1723.2969 2756.9688,1722.7188 L2756.9688,1725.4375 Z " fill="#000000"/><text fill="#000000" font-family="sans-serif" font-size="14" lengthAdjust="spacing" textLength="61.0859" x="2768" y="1724.6436">_Rb_tree</text><rect fill="#FFFFFF" height="15.9688" style="stroke:#181818;stroke-width:1;stroke-dasharray:2.0,2.0;" width="249.5645" x="2837.0859" y="1700.7969"/><text fill="#000000" font-family="sans-serif" font-size="12" font-style="italic" lengthAdjust="spacing" textLength="247.5645" x="2838.0859" y="1712.9355">_Key,_Val,_KeyOfValue,_Compare2,_Alloc</text><line style="stroke:#181818;stroke-width:0.5;" x1="2740" x2="3082.6504" y1="1735.7969" y2="1735.7969"/><line style="stroke:#181818;stroke-width:0.5;" x1="2740" x2="3082.6504" y1="1743.7969" y2="1743.7969"/></g><!--class C_0000835102953787614701--><g id="elem_C_0000835102953787614701"><rect codeLine="56" fill="#F1F1F1" height="48" id="C_0000835102953787614701" rx="2.5" ry="2.5" style="stroke:#181818;stroke-width:0.5;" width="265.6064" x="3785" y="2019.7969"/><ellipse cx="3800" cy="2035.7969" fill="#ADD1B2" rx="11" ry="11" style="stroke:#181818;stroke-width:1;"/><path d="M3802.9688,2041.4375 Q3802.3906,2041.7344 3801.75,2041.875 Q3801.1094,2042.0313 3800.4063,2042.0313 Q3797.9063,2042.0313 3796.5781,2040.3906 Q3795.2656,2038.7344 3795.2656,2035.6094 Q3795.2656,2032.4844 3796.5781,2030.8281 Q3797.9063,2029.1719 3800.4063,2029.1719 Q3801.1094,2029.1719 3801.75,2029.3281 Q3802.4063,2029.4844 3802.9688,2029.7813 L3802.9688,2032.5 Q3802.3438,2031.9219 3801.75,2031.6563 Q3801.1563,2031.375 3800.5313,2031.375 Q3799.1875,2031.375 3798.5,2032.4531 Q3797.8125,2033.5156 3797.8125,2035.6094 Q3797.8125,2037.7031 3798.5,2038.7813 Q3799.1875,2039.8438 3800.5313,2039.8438 Q3801.1563,2039.8438 3801.75,2039.5781 Q3802.3438,2039.2969 3802.9688,2038.7188 L3802.9688,2041.4375 Z " fill="#000000"/><text fill="#000000" font-family="sans-serif" font-size="14" lengthAdjust="spacing" textLength="168.9092" x="3814" y="2040.6436">_Rb_tree::_Rb_tree_impl</text><rect fill="#FFFFFF" height="15.9688" style="stroke:#181818;stroke-width:1;stroke-dasharray:2.0,2.0;" width="62.6973" x="3990.9092" y="2016.7969"/><text fill="#000000" font-family="sans-serif" font-size="12" font-style="italic" lengthAdjust="spacing" textLength="60.6973" x="3991.9092" y="2028.9355">_Compare</text><line style="stroke:#181818;stroke-width:0.5;" x1="3786" x2="4049.6064" y1="2051.7969" y2="2051.7969"/><line style="stroke:#181818;stroke-width:0.5;" x1="3786" x2="4049.6064" y1="2059.7969" y2="2059.7969"/></g><!--class C_0002792771039014577438--><g id="elem_C_0002792771039014577438"><rect codeLine="60" fill="#F1F1F1" height="48" id="C_0002792771039014577438" rx="2.5" ry="2.5" style="stroke:#181818;stroke-width:0.5;" width="444.3711" x="3215" y="2019.7969"/><ellipse cx="3230" cy="2035.7969" fill="#ADD1B2" rx="11" ry="11" style="stroke:#181818;stroke-width:1;"/><path d="M3232.9688,2041.4375 Q3232.3906,2041.7344 3231.75,2041.875 Q3231.1094,2042.0313 3230.4063,2042.0313 Q3227.9063,2042.0313 3226.5781,2040.3906 Q3225.2656,2038.7344 3225.2656,2035.6094 Q3225.2656,2032.4844 3226.5781,2030.8281 Q3227.9063,2029.1719 3230.4063,2029.1719 Q3231.1094,2029.1719 3231.75,2029.3281 Q3232.4063,2029.4844 3232.9688,2029.7813 L3232.9688,2032.5 Q3232.3438,2031.9219 3231.75,2031.6563 Q3231.1563,2031.375 3230.5313,2031.375 Q3229.1875,2031.375 3228.5,2032.4531 Q3227.8125,2033.5156 3227.8125,2035.6094 Q3227.8125,2037.7031 3228.5,2038.7813 Q3229.1875,2039.8438 3230.5313,2039.8438 Q3231.1563,2039.8438 3231.75,2039.5781 Q3232.3438,2039.2969 3232.9688,2038.7188 L3232.9688,2041.4375 Z " fill="#000000"/><text fill="#000000" font-family="sans-serif" font-size="14" lengthAdjust="spacing" textLength="61.0859" x="3244" y="2040.6436">_Rb_tree</text><rect fill="#FFFFFF" height="15.9688" style="stroke:#181818;stroke-width:1;stroke-dasharray:2.0,2.0;" width="349.2852" x="3313.0859" y="2016.7969"/><text fill="#000000" font-family="sans-serif" font-size="12" font-style="italic" lengthAdjust="spacing" textLength="347.2852" x="3314.0859" y="2028.9355">_Key,_Val,_KeyOfValue,_Compare,_Alloc=allocator&lt;_Val&gt;</text><line style="stroke:#181818;stroke-width:0.5;" x1="3216" x2="3658.3711" y1="2051.7969" y2="2051.7969"/><line style="stroke:#181818;stroke-width:0.5;" x1="3216" x2="3658.3711" y1="2059.7969" y2="2059.7969"/></g><!--class C_0015617614989422225774--><g id="elem_C_0015617614989422225774"><rect codeLine="64" fill="#F1F1F1" height="48" id="C_0015617614989422225774" rx="2.5" ry="2.5" style="stroke:#181818;stroke-width:0.5;" width="255.5215" x="2783.5" y="1861.7969"/><ellipse cx="2798.5" cy="1877.7969" fill="#ADD1B2" rx="11" ry="11" style="stroke:#181818;stroke-width:1;"/><path d="M2801.4688,1883.4375 Q2800.8906,1883.7344 2800.25,1883.875 Q2799.6094,1884.0313 2798.9063,1884.0313 Q2796.4063,1884.0313 2795.0781,1882.3906 Q2793.7656,1880.7344 2793.7656,1877.6094 Q2793.7656,1874.4844 2795.0781,1872.8281 Q2796.4063,1871.1719 2798.9063,1871.1719 Q2799.6094,1871.1719 2800.25,1871.3281 Q2800.9063,1871.4844 2801.4688,1871.7813 L2801.4688,1874.5 Q2800.8438,1873.9219 2800.25,1873.6563 Q2799.6563,1873.375 2799.0313,1873.375 Q2797.6875,1873.375 2797,1874.4531 Q2796.3125,1875.5156 2796.3125,1877.6094 Q2796.3125,1879.7031 2797,1880.7813 Q2797.6875,1881.8438 2799.0313,1881.8438 Q2799.6563,1881.8438 2800.25,1881.5781 Q2800.8438,1881.2969 2801.4688,1880.7188 L2801.4688,1883.4375 Z " fill="#000000"/><text fill="#000000" font-family="sans-serif" font-size="14" lengthAdjust="spacing" textLength="223.5215" x="2812.5" y="1882.6436">_Rb_tree::_Reuse_or_alloc_node</text><line style="stroke:#181818;stroke-width:0.5;" x1="2784.5" x2="3038.0215" y1="1893.7969" y2="1893.7969"/><line style="stroke:#181818;stroke-width:0.5;" x1="2784.5" x2="3038.0215" y1="1901.7969" y2="1901.7969"/></g><!--class C_0011400188904545266026--><g id="elem_C_0011400188904545266026"><rect codeLine="68" fill="#F1F1F1" height="48" id="C_0011400188904545266026" rx="2.5" ry="2.5" style="stroke:#181818;stroke-width:0.5;" width="185.0771" x="2819" y="2019.7969"/><ellipse cx="2834" cy="2035.7969" fill="#ADD1B2" rx="11" ry="11" style="stroke:#181818;stroke-width:1;"/><path d="M2836.9688,2041.4375 Q2836.3906,2041.7344 2835.75,2041.875 Q2835.1094,2042.0313 2834.4063,2042.0313 Q2831.9063,2042.0313 2830.5781,2040.3906 Q2829.2656,2038.7344 2829.2656,2035.6094 Q2829.2656,2032.4844 2830.5781,2030.8281 Q2831.9063,2029.1719 2834.4063,2029.1719 Q2835.1094,2029.1719 2835.75,2029.3281 Q2836.4063,2029.4844 2836.9688,2029.7813 L2836.9688,2032.5 Q2836.3438,2031.9219 2835.75,2031.6563 Q2835.1563,2031.375 2834.5313,2031.375 Q2833.1875,2031.375 2832.5,2032.4531 Q2831.8125,2033.5156 2831.8125,2035.6094 Q2831.8125,2037.7031 2832.5,2038.7813 Q2833.1875,2039.8438 2834.5313,2039.8438 Q2835.1563,2039.8438 2835.75,2039.5781 Q2836.3438,2039.2969 2836.9688,2038.7188 L2836.9688,2041.4375 Z " fill="#000000"/><text fill="#000000" font-family="sans-serif" font-size="14" lengthAdjust="spacing" textLength="153.0771" x="2848" y="2040.6436">_Rb_tree::_Alloc_node</text><line style="stroke:#181818;stroke-width:0.5;" x1="2820" x2="3003.0771" y1="2051.7969" y2="2051.7969"/><line style="stroke:#181818;stroke-width:0.5;" x1="2820" x2="3003.0771" y1="2059.7969" y2="2059.7969"/></g><!--class C_0002795575896817403525--><g id="elem_C_0002795575896817403525"><rect codeLine="72" fill="#F1F1F1" height="48" id="C_0002795575896817403525" rx="2.5" ry="2.5" style="stroke:#181818;stroke-width:0.5;" width="485.0928" x="2669" y="2246.7969"/><ellipse cx="2684" cy="2262.7969" fill="#ADD1B2" rx="11" ry="11" style="stroke:#181818;stroke-width:1;"/><path d="M2686.9688,2268.4375 Q2686.3906,2268.7344 2685.75,2268.875 Q2685.1094,2269.0313 2684.4063,2269.0313 Q2681.9063,2269.0313 2680.5781,2267.3906 Q2679.2656,2265.7344 2679.2656,2262.6094 Q2679.2656,2259.4844 2680.5781,2257.8281 Q2681.9063,2256.1719 2684.4063,2256.1719 Q2685.1094,2256.1719 2685.75,2256.3281 Q2686.4063,2256.4844 2686.9688,2256.7813 L2686.9688,2259.5 Q2686.3438,2258.9219 2685.75,2258.6563 Q2685.1563,2258.375 2684.5313,2258.375 Q2683.1875,2258.375 2682.5,2259.4531 Q2681.8125,2260.5156 2681.8125,2262.6094 Q2681.8125,2264.7031 2682.5,2265.7813 Q2683.1875,2266.8438 2684.5313,2266.8438 Q2685.1563,2266.8438 2685.75,2266.5781 Q2686.3438,2266.2969 2686.9688,2265.7188 L2686.9688,2268.4375 Z " fill="#000000"/><text fill="#000000" font-family="sans-serif" font-size="14" lengthAdjust="spacing" textLength="168.9092" x="2698" y="2267.6436">_Rb_tree::_Rb_tree_impl</text><rect fill="#FFFFFF" height="15.9688" style="stroke:#181818;stroke-width:1;stroke-dasharray:2.0,2.0;" width="282.1836" x="2874.9092" y="2243.7969"/><text fill="#000000" font-family="sans-serif" font-size="12" font-style="italic" lengthAdjust="spacing" textLength="280.1836" x="2875.9092" y="2255.9355">_Key_compare,_Bool=__is_pod(_Key_compare)</text><line style="stroke:#181818;stroke-width:0.5;" x1="2670" x2="3153.0928" y1="2278.7969" y2="2278.7969"/><line style="stroke:#181818;stroke-width:0.5;" x1="2670" x2="3153.0928" y1="2286.7969" y2="2286.7969"/></g><!--class C_0004125478248778121511--><g id="elem_C_0004125478248778121511"><rect codeLine="76" fill="#F1F1F1" height="48" id="C_0004125478248778121511" rx="2.5" ry="2.5" style="stroke:#181818;stroke-width:0.5;" width="183.9629" x="2819.5" y="2163.7969"/><ellipse cx="2834.5" cy="2179.7969" fill="#ADD1B2" rx="11" ry="11" style="stroke:#181818;stroke-width:1;"/><path d="M2837.4688,2185.4375 Q2836.8906,2185.7344 2836.25,2185.875 Q2835.6094,2186.0313 2834.9063,2186.0313 Q2832.4063,2186.0313 2831.0781,2184.3906 Q2829.7656,2182.7344 2829.7656,2179.6094 Q2829.7656,2176.4844 2831.0781,2174.8281 Q2832.4063,2173.1719 2834.9063,2173.1719 Q2835.6094,2173.1719 2836.25,2173.3281 Q2836.9063,2173.4844 2837.4688,2173.7813 L2837.4688,2176.5 Q2836.8438,2175.9219 2836.25,2175.6563 Q2835.6563,2175.375 2835.0313,2175.375 Q2833.6875,2175.375 2833,2176.4531 Q2832.3125,2177.5156 2832.3125,2179.6094 Q2832.3125,2181.7031 2833,2182.7813 Q2833.6875,2183.8438 2835.0313,2183.8438 Q2835.6563,2183.8438 2836.25,2183.5781 Q2836.8438,2183.2969 2837.4688,2182.7188 L2837.4688,2185.4375 Z " fill="#000000"/><text fill="#000000" font-family="sans-serif" font-size="14" lengthAdjust="spacing" textLength="151.9629" x="2848.5" y="2184.6436">_Rb_tree::_Auto_node</text><line style="stroke:#181818;stroke-width:0.5;" x1="2820.5" x2="3002.4629" y1="2195.7969" y2="2195.7969"/><line style="stroke:#181818;stroke-width:0.5;" x1="2820.5" x2="3002.4629" y1="2203.7969" y2="2203.7969"/></g><!--class C_0010543423047955878282--><g id="elem_C_0010543423047955878282"><rect codeLine="80" fill="#F1F1F1" height="48" id="C_0010543423047955878282" rx="2.5" ry="2.5" style="stroke:#181818;stroke-width:0.5;" width="266.0645" x="2032" y="1734.7969"/><ellipse cx="2047" cy="1750.7969" fill="#ADD1B2" rx="11" ry="11" style="stroke:#181818;stroke-width:1;"/><path d="M2049.9688,1756.4375 Q2049.3906,1756.7344 2048.75,1756.875 Q2048.1094,1757.0313 2047.4063,1757.0313 Q2044.9063,1757.0313 2043.5781,1755.3906 Q2042.2656,1753.7344 2042.2656,1750.6094 Q2042.2656,1747.4844 2043.5781,1745.8281 Q2044.9063,1744.1719 2047.4063,1744.1719 Q2048.1094,1744.1719 2048.75,1744.3281 Q2049.4063,1744.4844 2049.9688,1744.7813 L2049.9688,1747.5 Q2049.3438,1746.9219 2048.75,1746.6563 Q2048.1563,1746.375 2047.5313,1746.375 Q2046.1875,1746.375 2045.5,1747.4531 Q2044.8125,1748.5156 2044.8125,1750.6094 Q2044.8125,1752.7031 2045.5,1753.7813 Q2046.1875,1754.8438 2047.5313,1754.8438 Q2048.1563,1754.8438 2048.75,1754.5781 Q2049.3438,1754.2969 2049.9688,1753.7188 L2049.9688,1756.4375 Z " fill="#000000"/><text fill="#000000" font-family="sans-serif" font-size="14" lengthAdjust="spacing" textLength="61.0859" x="2061" y="1755.6436">_Rb_tree</text><rect fill="#FFFFFF" height="15.9688" style="stroke:#181818;stroke-width:1;stroke-dasharray:2.0,2.0;" width="170.9785" x="2130.0859" y="1731.7969"/><text fill="#000000" font-family="sans-serif" font-size="12" font-style="italic" lengthAdjust="spacing" textLength="168.9785" x="2131.0859" y="1743.9355">_Key,_Val,_Sel,_Cmp1,_Alloc</text><line style="stroke:#181818;stroke-width:0.5;" x1="2033" x2="2297.0645" y1="1766.7969" y2="1766.7969"/><line style="stroke:#181818;stroke-width:0.5;" x1="2033" x2="2297.0645" y1="1774.7969" y2="1774.7969"/></g><!--class C_0006682815439280437833--><g id="elem_C_0006682815439280437833"><rect codeLine="84" fill="#F1F1F1" height="48" id="C_0006682815439280437833" rx="2.5" ry="2.5" style="stroke:#181818;stroke-width:0.5;" width="266.0645" x="2032" y="1817.7969"/><ellipse cx="2047" cy="1833.7969" fill="#ADD1B2" rx="11" ry="11" style="stroke:#181818;stroke-width:1;"/><path d="M2049.9688,1839.4375 Q2049.3906,1839.7344 2048.75,1839.875 Q2048.1094,1840.0313 2047.4063,1840.0313 Q2044.9063,1840.0313 2043.5781,1838.3906 Q2042.2656,1836.7344 2042.2656,1833.6094 Q2042.2656,1830.4844 2043.5781,1828.8281 Q2044.9063,1827.1719 2047.4063,1827.1719 Q2048.1094,1827.1719 2048.75,1827.3281 Q2049.4063,1827.4844 2049.9688,1827.7813 L2049.9688,1830.5 Q2049.3438,1829.9219 2048.75,1829.6563 Q2048.1563,1829.375 2047.5313,1829.375 Q2046.1875,1829.375 2045.5,1830.4531 Q2044.8125,1831.5156 2044.8125,1833.6094 Q2044.8125,1835.7031 2045.5,1836.7813 Q2046.1875,1837.8438 2047.5313,1837.8438 Q2048.1563,1837.8438 2048.75,1837.5781 Q2049.3438,1837.2969 2049.9688,1836.7188 L2049.9688,1839.4375 Z " fill="#000000"/><text fill="#000000" font-family="sans-serif" font-size="14" lengthAdjust="spacing" textLength="61.0859" x="2061" y="1838.6436">_Rb_tree</text><rect fill="#FFFFFF" height="15.9688" style="stroke:#181818;stroke-width:1;stroke-dasharray:2.0,2.0;" width="170.9785" x="2130.0859" y="1814.7969"/><text fill="#000000" font-family="sans-serif" font-size="12" font-style="italic" lengthAdjust="spacing" textLength="168.9785" x="2131.0859" y="1826.9355">_Key,_Val,_Sel,_Cmp2,_Alloc</text><line style="stroke:#181818;stroke-width:0.5;" x1="2033" x2="2297.0645" y1="1849.7969" y2="1849.7969"/><line style="stroke:#181818;stroke-width:0.5;" x1="2033" x2="2297.0645" y1="1857.7969" y2="1857.7969"/></g><!--class C_0015235694265660149602--><g id="elem_C_0015235694265660149602"><rect codeLine="88" fill="#F1F1F1" height="48" id="C_0015235694265660149602" rx="2.5" ry="2.5" style="stroke:#181818;stroke-width:0.5;" width="203.9844" x="786" y="1755.7969"/><ellipse cx="801" cy="1771.7969" fill="#ADD1B2" rx="11" ry="11" style="stroke:#181818;stroke-width:1;"/><path d="M803.9688,1777.4375 Q803.3906,1777.7344 802.75,1777.875 Q802.1094,1778.0313 801.4063,1778.0313 Q798.9063,1778.0313 797.5781,1776.3906 Q796.2656,1774.7344 796.2656,1771.6094 Q796.2656,1768.4844 797.5781,1766.8281 Q798.9063,1765.1719 801.4063,1765.1719 Q802.1094,1765.1719 802.75,1765.3281 Q803.4063,1765.4844 803.9688,1765.7813 L803.9688,1768.5 Q803.3438,1767.9219 802.75,1767.6563 Q802.1563,1767.375 801.5313,1767.375 Q800.1875,1767.375 799.5,1768.4531 Q798.8125,1769.5156 798.8125,1771.6094 Q798.8125,1773.7031 799.5,1774.7813 Q800.1875,1775.8438 801.5313,1775.8438 Q802.1563,1775.8438 802.75,1775.5781 Q803.3438,1775.2969 803.9688,1774.7188 L803.9688,1777.4375 Z " fill="#000000"/><text fill="#000000" font-family="sans-serif" font-size="14" lengthAdjust="spacing" textLength="31.1035" x="815" y="1776.6436">map</text><rect fill="#FFFFFF" height="15.9688" style="stroke:#181818;stroke-width:1;stroke-dasharray:2.0,2.0;" width="138.8809" x="854.1035" y="1752.7969"/><text fill="#000000" font-family="sans-serif" font-size="12" font-style="italic" lengthAdjust="spacing" textLength="136.8809" x="855.1035" y="1764.9355">_Key,_Tp,_Cmp2,_Alloc</text><line style="stroke:#181818;stroke-width:0.5;" x1="787" x2="988.9844" y1="1787.7969" y2="1787.7969"/><line style="stroke:#181818;stroke-width:0.5;" x1="787" x2="988.9844" y1="1795.7969" y2="1795.7969"/></g><!--class C_0013894242623239472501--><g id="elem_C_0013894242623239472501"><rect codeLine="92" fill="#F1F1F1" height="48" id="C_0013894242623239472501" rx="2.5" ry="2.5" style="stroke:#181818;stroke-width:0.5;" width="794.0762" x="1768" y="1651.7969"/><ellipse cx="1783" cy="1667.7969" fill="#ADD1B2" rx="11" ry="11" style="stroke:#181818;stroke-width:1;"/><path d="M1785.9688,1673.4375 Q1785.3906,1673.7344 1784.75,1673.875 Q1784.1094,1674.0313 1783.4063,1674.0313 Q1780.9063,1674.0313 1779.5781,1672.3906 Q1778.2656,1670.7344 1778.2656,1667.6094 Q1778.2656,1664.4844 1779.5781,1662.8281 Q1780.9063,1661.1719 1783.4063,1661.1719 Q1784.1094,1661.1719 1784.75,1661.3281 Q1785.4063,1661.4844 1785.9688,1661.7813 L1785.9688,1664.5 Q1785.3438,1663.9219 1784.75,1663.6563 Q1784.1563,1663.375 1783.5313,1663.375 Q1782.1875,1663.375 1781.5,1664.4531 Q1780.8125,1665.5156 1780.8125,1667.6094 Q1780.8125,1669.7031 1781.5,1670.7813 Q1782.1875,1671.8438 1783.5313,1671.8438 Q1784.1563,1671.8438 1784.75,1671.5781 Q1785.3438,1671.2969 1785.9688,1670.7188 L1785.9688,1673.4375 Z " fill="#000000"/><text fill="#000000" font-family="sans-serif" font-size="14" lengthAdjust="spacing" textLength="61.0859" x="1797" y="1672.6436">_Rb_tree</text><rect fill="#FFFFFF" height="15.9688" style="stroke:#181818;stroke-width:1;stroke-dasharray:2.0,2.0;" width="698.9902" x="1866.0859" y="1648.7969"/><text fill="#000000" font-family="sans-serif" font-size="12" font-style="italic" lengthAdjust="spacing" textLength="696.9902" x="1867.0859" y="1660.9355">map::key_type,pair&lt;_Key const,_Tp&gt;,_Select1st&lt;pair&lt;_Key const,_Tp&gt;&gt;,map::key_compare,map::_Pair_alloc_type</text><line style="stroke:#181818;stroke-width:0.5;" x1="1769" x2="2561.0762" y1="1683.7969" y2="1683.7969"/><line style="stroke:#181818;stroke-width:0.5;" x1="1769" x2="2561.0762" y1="1691.7969" y2="1691.7969"/></g><!--class C_0015937781856508569918--><g id="elem_C_0015937781856508569918"><rect codeLine="96" fill="#F1F1F1" height="48" id="C_0015937781856508569918" rx="2.5" ry="2.5" style="stroke:#181818;stroke-width:0.5;" width="524.1523" x="1077" y="1755.7969"/><ellipse cx="1092" cy="1771.7969" fill="#ADD1B2" rx="11" ry="11" style="stroke:#181818;stroke-width:1;"/><path d="M1094.9688,1777.4375 Q1094.3906,1777.7344 1093.75,1777.875 Q1093.1094,1778.0313 1092.4063,1778.0313 Q1089.9063,1778.0313 1088.5781,1776.3906 Q1087.2656,1774.7344 1087.2656,1771.6094 Q1087.2656,1768.4844 1088.5781,1766.8281 Q1089.9063,1765.1719 1092.4063,1765.1719 Q1093.1094,1765.1719 1093.75,1765.3281 Q1094.4063,1765.4844 1094.9688,1765.7813 L1094.9688,1768.5 Q1094.3438,1767.9219 1093.75,1767.6563 Q1093.1563,1767.375 1092.5313,1767.375 Q1091.1875,1767.375 1090.5,1768.4531 Q1089.8125,1769.5156 1089.8125,1771.6094 Q1089.8125,1773.7031 1090.5,1774.7813 Q1091.1875,1775.8438 1092.5313,1775.8438 Q1093.1563,1775.8438 1093.75,1775.5781 Q1094.3438,1775.2969 1094.9688,1774.7188 L1094.9688,1777.4375 Z " fill="#000000"/><text fill="#000000" font-family="sans-serif" font-size="14" lengthAdjust="spacing" textLength="31.1035" x="1106" y="1776.6436">map</text><rect fill="#FFFFFF" height="15.9688" style="stroke:#181818;stroke-width:1;stroke-dasharray:2.0,2.0;" width="459.0488" x="1145.1035" y="1752.7969"/><text fill="#000000" font-family="sans-serif" font-size="12" font-style="italic" lengthAdjust="spacing" textLength="457.0488" x="1146.1035" y="1764.9355">_Key,_Tp,_Compare=less&lt;_Key&gt;,_Alloc=allocator&lt;pair&lt;const _Key, _Tp&gt;&gt;</text><line style="stroke:#181818;stroke-width:0.5;" x1="1078" x2="1600.1523" y1="1787.7969" y2="1787.7969"/><line style="stroke:#181818;stroke-width:0.5;" x1="1078" x2="1600.1523" y1="1795.7969" y2="1795.7969"/></g><!--class C_0000866953055675511964--><g id="elem_C_0000866953055675511964"><rect codeLine="100" fill="#F1F1F1" height="48" id="C_0000866953055675511964" rx="2.5" ry="2.5" style="stroke:#181818;stroke-width:0.5;" width="443.2813" x="140.5" y="1505.7969"/><ellipse cx="155.5" cy="1521.7969" fill="#ADD1B2" rx="11" ry="11" style="stroke:#181818;stroke-width:1;"/><path d="M158.4688,1527.4375 Q157.8906,1527.7344 157.25,1527.875 Q156.6094,1528.0313 155.9063,1528.0313 Q153.4063,1528.0313 152.0781,1526.3906 Q150.7656,1524.7344 150.7656,1521.6094 Q150.7656,1518.4844 152.0781,1516.8281 Q153.4063,1515.1719 155.9063,1515.1719 Q156.6094,1515.1719 157.25,1515.3281 Q157.9063,1515.4844 158.4688,1515.7813 L158.4688,1518.5 Q157.8438,1517.9219 157.25,1517.6563 Q156.6563,1517.375 156.0313,1517.375 Q154.6875,1517.375 154,1518.4531 Q153.3125,1519.5156 153.3125,1521.6094 Q153.3125,1523.7031 154,1524.7813 Q154.6875,1525.8438 156.0313,1525.8438 Q156.6563,1525.8438 157.25,1525.5781 Q157.8438,1525.2969 158.4688,1524.7188 L158.4688,1527.4375 Z " fill="#000000"/><text fill="#000000" font-family="sans-serif" font-size="14" lengthAdjust="spacing" textLength="108.459" x="169.5" y="1526.6436">binary_function</text><rect fill="#FFFFFF" height="15.9688" style="stroke:#181818;stroke-width:1;stroke-dasharray:2.0,2.0;" width="300.8223" x="285.959" y="1502.7969"/><text fill="#000000" font-family="sans-serif" font-size="12" font-style="italic" lengthAdjust="spacing" textLength="298.8223" x="286.959" y="1514.9355">pair&lt;_Key const,_Tp&gt;,pair&lt;_Key const,_Tp&gt;,bool</text><line style="stroke:#181818;stroke-width:0.5;" x1="141.5" x2="582.7813" y1="1537.7969" y2="1537.7969"/><line style="stroke:#181818;stroke-width:0.5;" x1="141.5" x2="582.7813" y1="1545.7969" y2="1545.7969"/></g><!--class C_0014510487773565290867--><g id="elem_C_0014510487773565290867"><rect codeLine="104" fill="#F1F1F1" height="48" id="C_0014510487773565290867" rx="2.5" ry="2.5" style="stroke:#181818;stroke-width:0.5;" width="179.5127" x="798" y="1630.7969"/><ellipse cx="813" cy="1646.7969" fill="#ADD1B2" rx="11" ry="11" style="stroke:#181818;stroke-width:1;"/><path d="M815.9688,1652.4375 Q815.3906,1652.7344 814.75,1652.875 Q814.1094,1653.0313 813.4063,1653.0313 Q810.9063,1653.0313 809.5781,1651.3906 Q808.2656,1649.7344 808.2656,1646.6094 Q808.2656,1643.4844 809.5781,1641.8281 Q810.9063,1640.1719 813.4063,1640.1719 Q814.1094,1640.1719 814.75,1640.3281 Q815.4063,1640.4844 815.9688,1640.7813 L815.9688,1643.5 Q815.3438,1642.9219 814.75,1642.6563 Q814.1563,1642.375 813.5313,1642.375 Q812.1875,1642.375 811.5,1643.4531 Q810.8125,1644.5156 810.8125,1646.6094 Q810.8125,1648.7031 811.5,1649.7813 Q812.1875,1650.8438 813.5313,1650.8438 Q814.1563,1650.8438 814.75,1650.5781 Q815.3438,1650.2969 815.9688,1649.7188 L815.9688,1652.4375 Z " fill="#000000"/><text fill="#000000" font-family="sans-serif" font-size="14" lengthAdjust="spacing" textLength="147.5127" x="827" y="1651.6436">map::value_compare</text><line style="stroke:#181818;stroke-width:0.5;" x1="799" x2="976.5127" y1="1662.7969" y2="1662.7969"/><line style="stroke:#181818;stroke-width:0.5;" x1="799" x2="976.5127" y1="1670.7969" y2="1670.7969"/></g><!--class C_0016373827787893331873--><g id="elem_C_0016373827787893331873"><rect codeLine="108" fill="#F1F1F1" height="48" id="C_0016373827787893331873" rx="2.5" ry="2.5" style="stroke:#181818;stroke-width:0.5;" width="207.9336" x="258" y="1838.7969"/><ellipse cx="273" cy="1854.7969" fill="#ADD1B2" rx="11" ry="11" style="stroke:#181818;stroke-width:1;"/><path d="M275.9688,1860.4375 Q275.3906,1860.7344 274.75,1860.875 Q274.1094,1861.0313 273.4063,1861.0313 Q270.9063,1861.0313 269.5781,1859.3906 Q268.2656,1857.7344 268.2656,1854.6094 Q268.2656,1851.4844 269.5781,1849.8281 Q270.9063,1848.1719 273.4063,1848.1719 Q274.1094,1848.1719 274.75,1848.3281 Q275.4063,1848.4844 275.9688,1848.7813 L275.9688,1851.5 Q275.3438,1850.9219 274.75,1850.6563 Q274.1563,1850.375 273.5313,1850.375 Q272.1875,1850.375 271.5,1851.4531 Q270.8125,1852.5156 270.8125,1854.6094 Q270.8125,1856.7031 271.5,1857.7813 Q272.1875,1858.8438 273.5313,1858.8438 Q274.1563,1858.8438 274.75,1858.5781 Q275.3438,1858.2969 275.9688,1857.7188 L275.9688,1860.4375 Z " fill="#000000"/><text fill="#000000" font-family="sans-serif" font-size="14" lengthAdjust="spacing" textLength="31.1035" x="287" y="1859.6436">map</text><rect fill="#FFFFFF" height="15.9688" style="stroke:#181818;stroke-width:1;stroke-dasharray:2.0,2.0;" width="142.8301" x="326.1035" y="1835.7969"/><text fill="#000000" font-family="sans-serif" font-size="12" font-style="italic" lengthAdjust="spacing" textLength="140.8301" x="327.1035" y="1847.9355">_Key,_Val,_Cmp1,_Alloc</text><line style="stroke:#181818;stroke-width:0.5;" x1="259" x2="464.9336" y1="1870.7969" y2="1870.7969"/><line style="stroke:#181818;stroke-width:0.5;" x1="259" x2="464.9336" y1="1878.7969" y2="1878.7969"/></g><!--class C_0013101789567079497534--><g id="elem_C_0013101789567079497534"><rect codeLine="112" fill="#F1F1F1" height="48" id="C_0013101789567079497534" rx="2.5" ry="2.5" style="stroke:#181818;stroke-width:0.5;" width="207.9336" x="258" y="1672.7969"/><ellipse cx="273" cy="1688.7969" fill="#ADD1B2" rx="11" ry="11" style="stroke:#181818;stroke-width:1;"/><path d="M275.9688,1694.4375 Q275.3906,1694.7344 274.75,1694.875 Q274.1094,1695.0313 273.4063,1695.0313 Q270.9063,1695.0313 269.5781,1693.3906 Q268.2656,1691.7344 268.2656,1688.6094 Q268.2656,1685.4844 269.5781,1683.8281 Q270.9063,1682.1719 273.4063,1682.1719 Q274.1094,1682.1719 274.75,1682.3281 Q275.4063,1682.4844 275.9688,1682.7813 L275.9688,1685.5 Q275.3438,1684.9219 274.75,1684.6563 Q274.1563,1684.375 273.5313,1684.375 Q272.1875,1684.375 271.5,1685.4531 Q270.8125,1686.5156 270.8125,1688.6094 Q270.8125,1690.7031 271.5,1691.7813 Q272.1875,1692.8438 273.5313,1692.8438 Q274.1563,1692.8438 274.75,1692.5781 Q275.3438,1692.2969 275.9688,1691.7188 L275.9688,1694.4375 Z " fill="#000000"/><text fill="#000000" font-family="sans-serif" font-size="14" lengthAdjust="spacing" textLength="31.1035" x="287" y="1693.6436">map</text><rect fill="#FFFFFF" height="15.9688" style="stroke:#181818;stroke-width:1;stroke-dasharray:2.0,2.0;" width="142.8301" x="326.1035" y="1669.7969"/><text fill="#000000" font-family="sans-serif" font-size="12" font-style="italic" lengthAdjust="spacing" textLength="140.8301" x="327.1035" y="1681.9355">_Key,_Val,_Cmp2,_Alloc</text><line style="stroke:#181818;stroke-width:0.5;" x1="259" x2="464.9336" y1="1704.7969" y2="1704.7969"/><line style="stroke:#181818;stroke-width:0.5;" x1="259" x2="464.9336" y1="1712.7969" y2="1712.7969"/></g><!--class C_0001090897514726089586--><g id="elem_C_0001090897514726089586"><rect codeLine="116" fill="#F1F1F1" height="48" id="C_0001090897514726089586" rx="2.5" ry="2.5" style="stroke:#181818;stroke-width:0.5;" width="886.0801" x="1722" y="1526.7969"/><ellipse cx="1737" cy="1542.7969" fill="#ADD1B2" rx="11" ry="11" style="stroke:#181818;stroke-width:1;"/><path d="M1739.9688,1548.4375 Q1739.3906,1548.7344 1738.75,1548.875 Q1738.1094,1549.0313 1737.4063,1549.0313 Q1734.9063,1549.0313 1733.5781,1547.3906 Q1732.2656,1545.7344 1732.2656,1542.6094 Q1732.2656,1539.4844 1733.5781,1537.8281 Q1734.9063,1536.1719 1737.4063,1536.1719 Q1738.1094,1536.1719 1738.75,1536.3281 Q1739.4063,1536.4844 1739.9688,1536.7813 L1739.9688,1539.5 Q1739.3438,1538.9219 1738.75,1538.6563 Q1738.1563,1538.375 1737.5313,1538.375 Q1736.1875,1538.375 1735.5,1539.4531 Q1734.8125,1540.5156 1734.8125,1542.6094 Q1734.8125,1544.7031 1735.5,1545.7813 Q1736.1875,1546.8438 1737.5313,1546.8438 Q1738.1563,1546.8438 1738.75,1546.5781 Q1739.3438,1546.2969 1739.9688,1545.7188 L1739.9688,1548.4375 Z " fill="#000000"/><text fill="#000000" font-family="sans-serif" font-size="14" lengthAdjust="spacing" textLength="61.0859" x="1751" y="1547.6436">_Rb_tree</text><rect fill="#FFFFFF" height="15.9688" style="stroke:#181818;stroke-width:1;stroke-dasharray:2.0,2.0;" width="790.9941" x="1820.0859" y="1523.7969"/><text fill="#000000" font-family="sans-serif" font-size="12" font-style="italic" lengthAdjust="spacing" textLength="788.9941" x="1821.0859" y="1535.9355">multimap::key_type,pair&lt;_Key const,_Tp&gt;,_Select1st&lt;pair&lt;_Key const,_Tp&gt;&gt;,multimap::key_compare,multimap::_Pair_alloc_type</text><line style="stroke:#181818;stroke-width:0.5;" x1="1723" x2="2607.0801" y1="1558.7969" y2="1558.7969"/><line style="stroke:#181818;stroke-width:0.5;" x1="1723" x2="2607.0801" y1="1566.7969" y2="1566.7969"/></g><!--class C_0008109501906190460155--><g id="elem_C_0008109501906190460155"><rect codeLine="120" fill="#F1F1F1" height="48" id="C_0008109501906190460155" rx="2.5" ry="2.5" style="stroke:#181818;stroke-width:0.5;" width="559.9316" x="1059" y="1505.7969"/><ellipse cx="1074" cy="1521.7969" fill="#ADD1B2" rx="11" ry="11" style="stroke:#181818;stroke-width:1;"/><path d="M1076.9688,1527.4375 Q1076.3906,1527.7344 1075.75,1527.875 Q1075.1094,1528.0313 1074.4063,1528.0313 Q1071.9063,1528.0313 1070.5781,1526.3906 Q1069.2656,1524.7344 1069.2656,1521.6094 Q1069.2656,1518.4844 1070.5781,1516.8281 Q1071.9063,1515.1719 1074.4063,1515.1719 Q1075.1094,1515.1719 1075.75,1515.3281 Q1076.4063,1515.4844 1076.9688,1515.7813 L1076.9688,1518.5 Q1076.3438,1517.9219 1075.75,1517.6563 Q1075.1563,1517.375 1074.5313,1517.375 Q1073.1875,1517.375 1072.5,1518.4531 Q1071.8125,1519.5156 1071.8125,1521.6094 Q1071.8125,1523.7031 1072.5,1524.7813 Q1073.1875,1525.8438 1074.5313,1525.8438 Q1075.1563,1525.8438 1075.75,1525.5781 Q1076.3438,1525.2969 1076.9688,1524.7188 L1076.9688,1527.4375 Z " fill="#000000"/><text fill="#000000" font-family="sans-serif" font-size="14" lengthAdjust="spacing" textLength="66.8828" x="1088" y="1526.6436">multimap</text><rect fill="#FFFFFF" height="15.9688" style="stroke:#181818;stroke-width:1;stroke-dasharray:2.0,2.0;" width="459.0488" x="1162.8828" y="1502.7969"/><text fill="#000000" font-family="sans-serif" font-size="12" font-style="italic" lengthAdjust="spacing" textLength="457.0488" x="1163.8828" y="1514.9355">_Key,_Tp,_Compare=less&lt;_Key&gt;,_Alloc=allocator&lt;pair&lt;const _Key, _Tp&gt;&gt;</text><line style="stroke:#181818;stroke-width:0.5;" x1="1060" x2="1617.9316" y1="1537.7969" y2="1537.7969"/><line style="stroke:#181818;stroke-width:0.5;" x1="1060" x2="1617.9316" y1="1545.7969" y2="1545.7969"/></g><!--class C_0002334092490773708849--><g id="elem_C_0002334092490773708849"><rect codeLine="124" fill="#F1F1F1" height="48" id="C_0002334092490773708849" rx="2.5" ry="2.5" style="stroke:#181818;stroke-width:0.5;" width="215.292" x="780.5" y="1505.7969"/><ellipse cx="795.5" cy="1521.7969" fill="#ADD1B2" rx="11" ry="11" style="stroke:#181818;stroke-width:1;"/><path d="M798.4688,1527.4375 Q797.8906,1527.7344 797.25,1527.875 Q796.6094,1528.0313 795.9063,1528.0313 Q793.4063,1528.0313 792.0781,1526.3906 Q790.7656,1524.7344 790.7656,1521.6094 Q790.7656,1518.4844 792.0781,1516.8281 Q793.4063,1515.1719 795.9063,1515.1719 Q796.6094,1515.1719 797.25,1515.3281 Q797.9063,1515.4844 798.4688,1515.7813 L798.4688,1518.5 Q797.8438,1517.9219 797.25,1517.6563 Q796.6563,1517.375 796.0313,1517.375 Q794.6875,1517.375 794,1518.4531 Q793.3125,1519.5156 793.3125,1521.6094 Q793.3125,1523.7031 794,1524.7813 Q794.6875,1525.8438 796.0313,1525.8438 Q796.6563,1525.8438 797.25,1525.5781 Q797.8438,1525.2969 798.4688,1524.7188 L798.4688,1527.4375 Z " fill="#000000"/><text fill="#000000" font-family="sans-serif" font-size="14" lengthAdjust="spacing" textLength="183.292" x="809.5" y="1526.6436">multimap::value_compare</text><line style="stroke:#181818;stroke-width:0.5;" x1="781.5" x2="994.792" y1="1537.7969" y2="1537.7969"/><line style="stroke:#181818;stroke-width:0.5;" x1="781.5" x2="994.792" y1="1545.7969" y2="1545.7969"/></g><!--class C_0002099648825473310360--><g id="elem_C_0002099648825473310360"><rect codeLine="128" fill="#F1F1F1" height="48" id="C_0002099648825473310360" rx="2.5" ry="2.5" style="stroke:#181818;stroke-width:0.5;" width="479.5566" x="122" y="1755.7969"/><ellipse cx="137" cy="1771.7969" fill="#ADD1B2" rx="11" ry="11" style="stroke:#181818;stroke-width:1;"/><path d="M139.9688,1777.4375 Q139.3906,1777.7344 138.75,1777.875 Q138.1094,1778.0313 137.4063,1778.0313 Q134.9063,1778.0313 133.5781,1776.3906 Q132.2656,1774.7344 132.2656,1771.6094 Q132.2656,1768.4844 133.5781,1766.8281 Q134.9063,1765.1719 137.4063,1765.1719 Q138.1094,1765.1719 138.75,1765.3281 Q139.4063,1765.4844 139.9688,1765.7813 L139.9688,1768.5 Q139.3438,1767.9219 138.75,1767.6563 Q138.1563,1767.375 137.5313,1767.375 Q136.1875,1767.375 135.5,1768.4531 Q134.8125,1769.5156 134.8125,1771.6094 Q134.8125,1773.7031 135.5,1774.7813 Q136.1875,1775.8438 137.5313,1775.8438 Q138.1563,1775.8438 138.75,1775.5781 Q139.3438,1775.2969 139.9688,1774.7188 L139.9688,1777.4375 Z " fill="#000000"/><text fill="#000000" font-family="sans-serif" font-size="14" lengthAdjust="spacing" textLength="31.1035" x="151" y="1776.6436">map</text><rect fill="#FFFFFF" height="15.9688" style="stroke:#181818;stroke-width:1;stroke-dasharray:2.0,2.0;" width="414.4531" x="190.1035" y="1752.7969"/><text fill="#000000" font-family="sans-serif" font-size="12" font-style="italic" lengthAdjust="spacing" textLength="412.4531" x="191.1035" y="1764.9355">_Key,_Tp,_Cmp,pmr::polymorphic_allocator&lt;pair&lt;_Key const,_Tp&gt;&gt;</text><line style="stroke:#181818;stroke-width:0.5;" x1="123" x2="600.5566" y1="1787.7969" y2="1787.7969"/><line style="stroke:#181818;stroke-width:0.5;" x1="123" x2="600.5566" y1="1795.7969" y2="1795.7969"/></g><g id="elem_GMN66"><path d="M1154,475.2969 L1154,500.4297 A0,0 0 0 0 1154,500.4297 L1335,500.4297 L1339,535.6069 L1343,500.4297 L1523.9688,500.4297 A0,0 0 0 0 1523.9688,500.4297 L1523.9688,485.2969 L1513.9688,475.2969 L1154,475.2969 A0,0 0 0 0 1154,475.2969 " fill="#FEFFDD" style="stroke:#181818;stroke-width:0.5;"/><path d="M1513.9688,475.2969 L1513.9688,485.2969 L1523.9688,485.2969 L1513.9688,475.2969 " fill="#FEFFDD" style="stroke:#181818;stroke-width:0.5;"/><text fill="#000000" font-family="sans-serif" font-size="13" lengthAdjust="spacing" textLength="348.9688" x="1160" y="492.3638">Helper for defining adaptable binary function objects.</text></g><g id="elem_GMN69"><path d="M1294,619.2969 L1294,644.4297 A0,0 0 0 0 1294,644.4297 L1335,644.4297 L1339,679.6069 L1343,644.4297 L1383.5991,644.4297 A0,0 0 0 0 1383.5991,644.4297 L1383.5991,629.2969 L1373.5991,619.2969 L1294,619.2969 A0,0 0 0 0 1294,619.2969 " fill="#FEFFDD" style="stroke:#181818;stroke-width:0.5;"/><path d="M1373.5991,619.2969 L1373.5991,629.2969 L1383.5991,629.2969 L1373.5991,619.2969 " fill="#FEFFDD" style="stroke:#181818;stroke-width:0.5;"/><text fill="#000000" font-family="sans-serif" font-size="13" lengthAdjust="spacing" textLength="68.5991" x="1300" y="636.3638">One of the</text></g><g id="elem_GMN72"><path d="M1294,763.2969 L1294,788.4297 A0,0 0 0 0 1294,788.4297 L1335,788.4297 L1339,823.6069 L1343,788.4297 L1383.5991,788.4297 A0,0 0 0 0 1383.5991,788.4297 L1383.5991,773.2969 L1373.5991,763.2969 L1294,763.2969 A0,0 0 0 0 1294,763.2969 " fill="#FEFFDD" style="stroke:#181818;stroke-width:0.5;"/><path d="M1373.5991,763.2969 L1373.5991,773.2969 L1383.5991,773.2969 L1373.5991,763.2969 " fill="#FEFFDD" style="stroke:#181818;stroke-width:0.5;"/><text fill="#000000" font-family="sans-serif" font-size="13" lengthAdjust="spacing" textLength="68.5991" x="1300" y="780.3638">One of the</text></g><g id="elem_GMN75"><path d="M1294,907.2969 L1294,932.4297 A0,0 0 0 0 1294,932.4297 L1335,932.4297 L1339,967.6069 L1343,932.4297 L1383.5991,932.4297 A0,0 0 0 0 1383.5991,932.4297 L1383.5991,917.2969 L1373.5991,907.2969 L1294,907.2969 A0,0 0 0 0 1294,907.2969 " fill="#FEFFDD" style="stroke:#181818;stroke-width:0.5;"/><path d="M1373.5991,907.2969 L1373.5991,917.2969 L1383.5991,917.2969 L1373.5991,907.2969 " fill="#FEFFDD" style="stroke:#181818;stroke-width:0.5;"/><text fill="#000000" font-family="sans-serif" font-size="13" lengthAdjust="spacing" textLength="68.5991" x="1300" y="924.3638">One of the</text></g><g id="elem_GMN78"><path d="M1294,1051.2969 L1294,1076.4297 A0,0 0 0 0 1294,1076.4297 L1335,1076.4297 L1339,1111.6069 L1343,1076.4297 L1383.5991,1076.4297 A0,0 0 0 0 1383.5991,1076.4297 L1383.5991,1061.2969 L1373.5991,1051.2969 L1294,1051.2969 A0,0 0 0 0 1294,1051.2969 " fill="#FEFFDD" style="stroke:#181818;stroke-width:0.5;"/><path d="M1373.5991,1051.2969 L1373.5991,1061.2969 L1383.5991,1061.2969 L1373.5991,1051.2969 " fill="#FEFFDD" style="stroke:#181818;stroke-width:0.5;"/><text fill="#000000" font-family="sans-serif" font-size="13" lengthAdjust="spacing" textLength="68.5991" x="1300" y="1068.3638">One of the</text></g><g id="elem_GMN81"><path d="M1294,1195.2969 L1294,1220.4297 A0,0 0 0 0 1294,1220.4297 L1335,1220.4297 L1339,1255.6069 L1343,1220.4297 L1383.5991,1220.4297 A0,0 0 0 0 1383.5991,1220.4297 L1383.5991,1205.2969 L1373.5991,1195.2969 L1294,1195.2969 A0,0 0 0 0 1294,1195.2969 " fill="#FEFFDD" style="stroke:#181818;stroke-width:0.5;"/><path d="M1373.5991,1195.2969 L1373.5991,1205.2969 L1383.5991,1205.2969 L1373.5991,1195.2969 " fill="#FEFFDD" style="stroke:#181818;stroke-width:0.5;"/><text fill="#000000" font-family="sans-serif" font-size="13" lengthAdjust="spacing" textLength="68.5991" x="1300" y="1212.3638">One of the</text></g><g id="elem_GMN84"><path d="M1294,43.2969 L1294,68.4297 A0,0 0 0 0 1294,68.4297 L1335,68.4297 L1339,103.6069 L1343,68.4297 L1383.5991,68.4297 A0,0 0 0 0 1383.5991,68.4297 L1383.5991,53.2969 L1373.5991,43.2969 L1294,43.2969 A0,0 0 0 0 1294,43.2969 " fill="#FEFFDD" style="stroke:#181818;stroke-width:0.5;"/><path d="M1373.5991,43.2969 L1373.5991,53.2969 L1383.5991,53.2969 L1373.5991,43.2969 " fill="#FEFFDD" style="stroke:#181818;stroke-width:0.5;"/><text fill="#000000" font-family="sans-serif" font-size="13" lengthAdjust="spacing" textLength="68.5991" x="1300" y="60.3638">One of the</text></g><g id="elem_GMN87"><path d="M1294,187.2969 L1294,212.4297 A0,0 0 0 0 1294,212.4297 L1335,212.4297 L1339,247.6069 L1343,212.4297 L1383.5991,212.4297 A0,0 0 0 0 1383.5991,212.4297 L1383.5991,197.2969 L1373.5991,187.2969 L1294,187.2969 A0,0 0 0 0 1294,187.2969 " fill="#FEFFDD" style="stroke:#181818;stroke-width:0.5;"/><path d="M1373.5991,187.2969 L1373.5991,197.2969 L1383.5991,197.2969 L1373.5991,187.2969 " fill="#FEFFDD" style="stroke:#181818;stroke-width:0.5;"/><text fill="#000000" font-family="sans-serif" font-size="13" lengthAdjust="spacing" textLength="68.5991" x="1300" y="204.3638">One of the</text></g><g id="elem_GMN90"><path d="M1294,331.2969 L1294,356.4297 A0,0 0 0 0 1294,356.4297 L1335,356.4297 L1339,391.6069 L1343,356.4297 L1383.5991,356.4297 A0,0 0 0 0 1383.5991,356.4297 L1383.5991,341.2969 L1373.5991,331.2969 L1294,331.2969 A0,0 0 0 0 1294,331.2969 " fill="#FEFFDD" style="stroke:#181818;stroke-width:0.5;"/><path d="M1373.5991,331.2969 L1373.5991,341.2969 L1383.5991,341.2969 L1373.5991,331.2969 " fill="#FEFFDD" style="stroke:#181818;stroke-width:0.5;"/><text fill="#000000" font-family="sans-serif" font-size="13" lengthAdjust="spacing" textLength="68.5991" x="1300" y="348.3638">One of the</text></g><g id="elem_GMN93"><path d="M2672.5,1786.7969 L2672.5,1827.0625 A0,0 0 0 0 2672.5,1827.0625 L2907.5,1827.0625 L2911.5,1861.7269 L2915.5,1827.0625 L3150.5566,1827.0625 A0,0 0 0 0 3150.5566,1827.0625 L3150.5566,1796.7969 L3140.5566,1786.7969 L2672.5,1786.7969 A0,0 0 0 0 2672.5,1786.7969 " fill="#FEFFDD" style="stroke:#181818;stroke-width:0.5;"/><path d="M3140.5566,1786.7969 L3140.5566,1796.7969 L3150.5566,1796.7969 L3140.5566,1786.7969 " fill="#FEFFDD" style="stroke:#181818;stroke-width:0.5;"/><text fill="#000000" font-family="sans-serif" font-size="13" lengthAdjust="spacing" textLength="444.6597" x="2690.897" y="1803.8638">Functor recycling a pool of nodes and using allocation once the pool</text><text fill="#000000" font-family="sans-serif" font-size="13" lengthAdjust="spacing" textLength="60.3535" x="2678.5" y="1818.9966">is empty.</text></g><g id="elem_GMN96"><path d="M2673,1944.7969 L2673,1985.0625 A0,0 0 0 0 2673,1985.0625 L2907.5,1985.0625 L2911.5,2019.7269 L2915.5,1985.0625 L3150.4346,1985.0625 A0,0 0 0 0 3150.4346,1985.0625 L3150.4346,1954.7969 L3140.4346,1944.7969 L2673,1944.7969 A0,0 0 0 0 2673,1944.7969 " fill="#FEFFDD" style="stroke:#181818;stroke-width:0.5;"/><path d="M3140.4346,1944.7969 L3140.4346,1954.7969 L3150.4346,1954.7969 L3140.4346,1944.7969 " fill="#FEFFDD" style="stroke:#181818;stroke-width:0.5;"/><text fill="#000000" font-family="sans-serif" font-size="13" lengthAdjust="spacing" textLength="444.0376" x="2691.397" y="1961.8638">Functor similar to the previous one but without any pool of nodes to</text><text fill="#000000" font-family="sans-serif" font-size="13" lengthAdjust="spacing" textLength="51.0732" x="2679" y="1976.9966">recycle.</text></g><g id="elem_GMN99"><path d="M2831,2103.2969 L2831,2128.4297 A0,0 0 0 0 2831,2128.4297 L2907.5,2128.4297 L2911.5,2163.6069 L2915.5,2128.4297 L2991.8579,2128.4297 A0,0 0 0 0 2991.8579,2128.4297 L2991.8579,2113.2969 L2981.8579,2103.2969 L2831,2103.2969 A0,0 0 0 0 2831,2103.2969 " fill="#FEFFDD" style="stroke:#181818;stroke-width:0.5;"/><path d="M2981.8579,2103.2969 L2981.8579,2113.2969 L2991.8579,2113.2969 L2981.8579,2103.2969 " fill="#FEFFDD" style="stroke:#181818;stroke-width:0.5;"/><text fill="#000000" font-family="sans-serif" font-size="13" lengthAdjust="spacing" textLength="139.8579" x="2837" y="2120.3638">An RAII _Node handle</text></g><g id="elem_GMN102"><path d="M1225.5,1589.2969 L1225.5,1720.3594 A0,0 0 0 0 1225.5,1720.3594 L1335,1720.3594 L1339,1755.3869 L1343,1720.3594 L1452.1641,1720.3594 A0,0 0 0 0 1452.1641,1720.3594 L1452.1641,1599.2969 L1442.1641,1589.2969 L1225.5,1589.2969 A0,0 0 0 0 1225.5,1589.2969 " fill="#FEFFDD" style="stroke:#181818;stroke-width:0.5;"/><path d="M1442.1641,1589.2969 L1442.1641,1599.2969 L1452.1641,1599.2969 L1442.1641,1589.2969 " fill="#FEFFDD" style="stroke:#181818;stroke-width:0.5;"/><text fill="#000000" font-family="sans-serif" font-size="13" lengthAdjust="spacing" textLength="185.0024" x="1248.0293" y="1606.3638">Meets the requirements of a</text><text fill="#000000" font-family="sans-serif" font-size="13" lengthAdjust="spacing" textLength="61.5977" x="1231.5" y="1621.4966">container</text><text fill="#000000" font-family="sans-serif" font-size="13" lengthAdjust="spacing" textLength="16.231" x="1231.5" y="1636.6294">, a</text><text fill="#000000" font-family="sans-serif" font-size="13" lengthAdjust="spacing" textLength="8.2646" x="1231.5" y="1651.7622">&#160;&#160;</text><text fill="#000000" font-family="sans-serif" font-size="13" lengthAdjust="spacing" textLength="130.3555" x="1231.5" y="1666.895">reversible container</text><text fill="#000000" font-family="sans-serif" font-size="13" lengthAdjust="spacing" textLength="53.0601" x="1231.5" y="1682.0278">, and an</text><text fill="#000000" font-family="sans-serif" font-size="13" lengthAdjust="spacing" textLength="8.2646" x="1231.5" y="1697.1606">&#160;&#160;</text><text fill="#000000" font-family="sans-serif" font-size="13" lengthAdjust="spacing" textLength="129.1367" x="1231.5" y="1712.2935">associative contai...</text></g><g id="elem_GMN105"><path d="M1225.5,1339.2969 L1225.5,1470.3594 A0,0 0 0 0 1225.5,1470.3594 L1335,1470.3594 L1339,1505.3869 L1343,1470.3594 L1452.1641,1470.3594 A0,0 0 0 0 1452.1641,1470.3594 L1452.1641,1349.2969 L1442.1641,1339.2969 L1225.5,1339.2969 A0,0 0 0 0 1225.5,1339.2969 " fill="#FEFFDD" style="stroke:#181818;stroke-width:0.5;"/><path d="M1442.1641,1339.2969 L1442.1641,1349.2969 L1452.1641,1349.2969 L1442.1641,1339.2969 " fill="#FEFFDD" style="stroke:#181818;stroke-width:0.5;"/><text fill="#000000" font-family="sans-serif" font-size="13" lengthAdjust="spacing" textLength="185.0024" x="1248.0293" y="1356.3638">Meets the requirements of a</text><text fill="#000000" font-family="sans-serif" font-size="13" lengthAdjust="spacing" textLength="61.5977" x="1231.5" y="1371.4966">container</text><text fill="#000000" font-family="sans-serif" font-size="13" lengthAdjust="spacing" textLength="16.231" x="1231.5" y="1386.6294">, a</text><text fill="#000000" font-family="sans-serif" font-size="13" lengthAdjust="spacing" textLength="8.2646" x="1231.5" y="1401.7622">&#160;&#160;</text><text fill="#000000" font-family="sans-serif" font-size="13" lengthAdjust="spacing" textLength="130.3555" x="1231.5" y="1416.895">reversible container</text><text fill="#000000" font-family="sans-serif" font-size="13" lengthAdjust="spacing" textLength="53.0601" x="1231.5" y="1432.0278">, and an</text><text fill="#000000" font-family="sans-serif" font-size="13" lengthAdjust="spacing" textLength="8.2646" x="1231.5" y="1447.1606">&#160;&#160;</text><text fill="#000000" font-family="sans-serif" font-size="13" lengthAdjust="spacing" textLength="129.1367" x="1231.5" y="1462.2935">associative contai...</text></g><!--link C_0001906998976845593827 to C_0009583224762676263256--><g id="link_C_0001906998976845593827_C_0009583224762676263256"><path codeLine="131" d="M901.79,777.5069 C926.05,734.1469 983.14,644.0169 1059,601.7969 C1103.51,577.0269 1140.0038,567.2818 1188.8938,562.2718 " fill="transparent" id="C_0001906998976845593827-to-C_0009583224762676263256" style="stroke:#181818;stroke-width:1;stroke-dasharray:7.0,7.0;"/><polygon fill="transparent" points="1206.8,560.4369,1188.2821,556.3031,1189.5054,568.2406,1206.8,560.4369" style="stroke:#181818;stroke-width:1;"/></g><!--reverse link C_0001906998976845593827 to C_0005819947583752498517--><g id="link_C_0001906998976845593827_C_0005819947583752498517"><path codeLine="132" d="M970.2369,771.8334 C1001.7369,760.7934 1023.48,754.2569 1059,745.7969 C1127.14,729.5669 1206.21,718.3669 1262.74,711.6369 " fill="transparent" id="C_0001906998976845593827-backto-C_0005819947583752498517" style="stroke:#181818;stroke-width:1;"/><polygon fill="transparent" points="953.25,777.7869,972.2214,777.4957,968.2524,766.1711,953.25,777.7869" style="stroke:#181818;stroke-width:1;"/></g><!--reverse link C_0001906998976845593827 to C_0004088953224300771248--><g id="link_C_0001906998976845593827_C_0004088953224300771248"><path codeLine="133" d="M1016.1662,814.8224 C1092.7462,822.6724 1175.96,831.1969 1247.92,838.5669 " fill="transparent" id="C_0001906998976845593827-backto-C_0004088953224300771248" style="stroke:#181818;stroke-width:1;"/><polygon fill="transparent" points="998.26,812.9869,1015.5543,820.7911,1016.778,808.8537,998.26,812.9869" style="stroke:#181818;stroke-width:1;"/></g><!--reverse link C_0001906998976845593827 to C_0001698641695689253648--><g id="link_C_0001906998976845593827_C_0001698641695689253648"><path codeLine="134" d="M920.3472,839.6009 C949.3572,873.4309 995.42,920.4169 1059,949.7969 C1125.14,980.3569 1208.62,989.5869 1266.95,991.9569 " fill="transparent" id="C_0001906998976845593827-backto-C_0001698641695689253648" style="stroke:#181818;stroke-width:1;"/><polygon fill="transparent" points="908.63,825.9369,915.7926,843.5067,924.9019,835.6952,908.63,825.9369" style="stroke:#181818;stroke-width:1;"/></g><!--reverse link C_0001906998976845593827 to C_0017625547811729843273--><g id="link_C_0001906998976845593827_C_0017625547811729843273"><path codeLine="135" d="M900.211,843.3011 C916.471,900.5111 960.73,1027.0669 1059,1093.7969 C1124.65,1138.3769 1218.94,1143.3469 1279.33,1140.9969 " fill="transparent" id="C_0001906998976845593827-backto-C_0017625547811729843273" style="stroke:#181818;stroke-width:1;"/><polygon fill="transparent" points="895.29,825.9869,894.4396,844.9415,905.9824,841.6608,895.29,825.9869" style="stroke:#181818;stroke-width:1;"/></g><!--reverse link C_0001906998976845593827 to C_0016809506695079101711--><g id="link_C_0001906998976845593827_C_0016809506695079101711"><path codeLine="136" d="M891.7281,843.8956 C897.3881,918.6956 924.13,1130.0169 1059,1237.7969 C1110.47,1278.9269 1184.87,1288.4269 1243.9,1288.1869 " fill="transparent" id="C_0001906998976845593827-backto-C_0016809506695079101711" style="stroke:#181818;stroke-width:1;"/><polygon fill="transparent" points="890.37,825.9469,885.7453,844.3483,897.711,843.4428,890.37,825.9469" style="stroke:#181818;stroke-width:1;"/></g><!--reverse link C_0001906998976845593827 to C_0016061750655888038828--><g id="link_C_0001906998976845593827_C_0016061750655888038828"><path codeLine="137" d="M894.2761,759.7026 C907.7861,654.1926 964.38,254.2569 1059,169.7969 C1112.08,122.4169 1194.74,115.2869 1256.33,117.9769 " fill="transparent" id="C_0001906998976845593827-backto-C_0016061750655888038828" style="stroke:#181818;stroke-width:1;"/><polygon fill="transparent" points="891.99,777.5569,900.2276,760.4647,888.3247,758.9406,891.99,777.5569" style="stroke:#181818;stroke-width:1;"/></g><!--link C_0014703748170233212531 to C_0001906998976845593827--><g id="link_C_0014703748170233212531_C_0001906998976845593827"><path codeLine="138" d="M481.58,834.2969 C570.49,827.1669 673.3076,818.9254 759.8676,811.9854 " fill="transparent" id="C_0014703748170233212531-to-C_0001906998976845593827" style="stroke:#181818;stroke-width:1;stroke-dasharray:7.0,7.0;"/><polygon fill="transparent" points="777.81,810.5469,759.3881,806.0046,760.3471,817.9662,777.81,810.5469" style="stroke:#181818;stroke-width:1;"/></g><!--reverse link C_0001906998976845593827 to C_0004413300066190592573--><g id="link_C_0001906998976845593827_C_0004413300066190592573"><path codeLine="139" d="M889.771,759.7341 C892.051,679.4541 910.54,436.9469 1059,313.7969 C1112.63,269.3069 1192.8,261.2969 1253.46,262.9569 " fill="transparent" id="C_0001906998976845593827-backto-C_0004413300066190592573" style="stroke:#181818;stroke-width:1;"/><polygon fill="transparent" points="889.26,777.7269,895.7686,759.9045,883.7734,759.5638,889.26,777.7269" style="stroke:#181818;stroke-width:1;"/></g><!--reverse link C_0001906998976845593827 to C_0000261527948690069145--><g id="link_C_0001906998976845593827_C_0000261527948690069145"><path codeLine="140" d="M896.4218,760.0636 C908.5718,696.1536 947.63,539.1069 1059,457.7969 C1116.66,415.6969 1199.1,407.9269 1259.41,409.0369 " fill="transparent" id="C_0001906998976845593827-backto-C_0000261527948690069145" style="stroke:#181818;stroke-width:1;"/><polygon fill="transparent" points="893.06,777.7469,902.3162,761.1842,890.5274,758.943,893.06,777.7469" style="stroke:#181818;stroke-width:1;"/></g><!--link C_0007311719642430294892 to C_0001906998976845593827--><g id="link_C_0007311719642430294892_C_0001906998976845593827"><path codeLine="141" d="M670.09,784.8269 C708.51,787.8269 727.6445,789.3372 759.9545,791.8572 " fill="transparent" id="C_0007311719642430294892-to-C_0001906998976845593827" style="stroke:#181818;stroke-width:1;stroke-dasharray:7.0,7.0;"/><polygon fill="transparent" points="777.9,793.2569,760.421,785.8754,759.4879,797.8391,777.9,793.2569" style="stroke:#181818;stroke-width:1;"/></g><!--link C_0013916464534772332265 to C_0002792771039014577438--><g id="link_C_0013916464534772332265_C_0002792771039014577438"><path codeLine="142" d="M3084.25,1743.6869 C3108.44,1749.6769 3132.39,1757.8069 3154,1768.7969 C3276.21,1830.9569 3369.5077,1949.7897 3408.7577,2004.7397 " fill="transparent" id="C_0013916464534772332265-to-C_0002792771039014577438" style="stroke:#181818;stroke-width:1;stroke-dasharray:7.0,7.0;"/><polygon fill="transparent" points="3419.22,2019.3869,3413.6401,2001.2522,3403.8753,2008.2271,3419.22,2019.3869" style="stroke:#181818;stroke-width:1;"/></g><!--reverse link C_0002792771039014577438 to C_0000835102953787614701--><g id="link_C_0002792771039014577438_C_0000835102953787614701"><path codeLine="143" d="M3671.27,2043.7969 C3714.17,2043.7969 3745.85,2043.7969 3784.77,2043.7969 " fill="transparent" id="C_0002792771039014577438-backto-C_0000835102953787614701" style="stroke:#181818;stroke-width:1;"/><polygon fill="transparent" points="3659.27,2043.7969,3665.27,2047.7969,3671.27,2043.7969,3665.27,2039.7969,3659.27,2043.7969" style="stroke:#181818;stroke-width:1;"/><polygon fill="transparent" points="3695,2030.8633,3699,2034.8633,3695,2038.8633,3691,2034.8633" style="stroke:#B38D22;stroke-width:1;"/><text fill="#000000" font-family="sans-serif" font-size="13" lengthAdjust="spacing" textLength="52.3555" x="3702" y="2039.8638">_M_impl</text></g><!--link C_0015617614989422225774 to C_0002792771039014577438--><g id="link_C_0015617614989422225774_C_0002792771039014577438"><path codeLine="144" d="M3039.65,1902.5669 C3076.88,1908.9169 3117.41,1917.2269 3154,1927.7969 C3238.3,1952.1469 3317.1873,1986.7536 3372.5373,2012.9436 " fill="transparent" id="C_0015617614989422225774-to-C_0002792771039014577438" style="stroke:#181818;stroke-width:1;"/><ellipse cx="3379.7687" cy="2016.3652" fill="#FFFFFF" rx="8" ry="8" style="stroke:#181818;stroke-width:1;"/><line style="stroke:#181818;stroke-width:1;" x1="3372.5373" x2="3387" y1="2012.9436" y2="2019.7869"/><line style="stroke:#181818;stroke-width:1;" x1="3383.1903" x2="3376.347" y1="2009.1339" y2="2023.5966"/></g><!--link C_0011400188904545266026 to C_0002792771039014577438--><g id="link_C_0011400188904545266026_C_0002792771039014577438"><path codeLine="145" d="M3004.29,2043.7969 C3062.71,2043.7969 3125.05,2043.7969 3198.94,2043.7969 " fill="transparent" id="C_0011400188904545266026-to-C_0002792771039014577438" style="stroke:#181818;stroke-width:1;"/><ellipse cx="3206.94" cy="2043.7969" fill="#FFFFFF" rx="8" ry="8" style="stroke:#181818;stroke-width:1;"/><line style="stroke:#181818;stroke-width:1;" x1="3198.94" x2="3214.94" y1="2043.7969" y2="2043.7969"/><line style="stroke:#181818;stroke-width:1;" x1="3206.94" x2="3206.94" y1="2035.7969" y2="2051.7969"/></g><!--link C_0002795575896817403525 to C_0002792771039014577438--><g id="link_C_0002795575896817403525_C_0002792771039014577438"><path codeLine="146" d="M3100.84,2246.7269 C3119.09,2242.0469 3137.09,2236.4669 3154,2229.7969 C3256.3,2189.4569 3347.7675,2118.7165 3395.9575,2078.2465 " fill="transparent" id="C_0002795575896817403525-to-C_0002792771039014577438" style="stroke:#181818;stroke-width:1;"/><ellipse cx="3402.0838" cy="2073.1017" fill="#FFFFFF" rx="8" ry="8" style="stroke:#181818;stroke-width:1;"/><line style="stroke:#181818;stroke-width:1;" x1="3395.9575" x2="3408.21" y1="2078.2465" y2="2067.9569"/><line style="stroke:#181818;stroke-width:1;" x1="3396.9389" x2="3407.2286" y1="2066.9755" y2="2079.2279"/></g><!--link C_0004125478248778121511 to C_0002792771039014577438--><g id="link_C_0004125478248778121511_C_0002792771039014577438"><path codeLine="147" d="M3003.63,2175.7969 C3049.2,2168.8269 3104.95,2158.8269 3154,2145.7969 C3233.63,2124.6469 3307.7451,2096.6853 3364.0551,2073.8253 " fill="transparent" id="C_0004125478248778121511-to-C_0002792771039014577438" style="stroke:#181818;stroke-width:1;"/><ellipse cx="3371.4675" cy="2070.8161" fill="#FFFFFF" rx="8" ry="8" style="stroke:#181818;stroke-width:1;"/><line style="stroke:#181818;stroke-width:1;" x1="3364.0551" x2="3378.88" y1="2073.8253" y2="2067.8069"/><line style="stroke:#181818;stroke-width:1;" x1="3368.4583" x2="3374.4768" y1="2063.4036" y2="2078.2286"/></g><!--link C_0010543423047955878282 to C_0013916464534772332265--><g id="link_C_0010543423047955878282_C_0013916464534772332265"><path codeLine="148" d="M2298.24,1753.2869 C2421.09,1748.1769 2586.7456,1741.2751 2720.8656,1735.6951 " fill="transparent" id="C_0010543423047955878282-to-C_0013916464534772332265" style="stroke:#181818;stroke-width:1;stroke-dasharray:7.0,7.0;"/><polygon fill="transparent" points="2738.85,1734.9469,2720.6161,1729.7003,2721.115,1741.6899,2738.85,1734.9469" style="stroke:#181818;stroke-width:1;"/></g><!--link C_0006682815439280437833 to C_0013916464534772332265--><g id="link_C_0006682815439280437833_C_0013916464534772332265"><path codeLine="149" d="M2298.48,1842.0769 C2387.56,1839.1569 2506.77,1829.1769 2608,1799.7969 C2637.21,1791.3169 2640.12,1778.3369 2669,1768.7969 C2691.21,1761.4569 2697.4107,1759.1068 2721.1107,1754.0868 " fill="transparent" id="C_0006682815439280437833-to-C_0013916464534772332265" style="stroke:#181818;stroke-width:1;stroke-dasharray:7.0,7.0;"/><polygon fill="transparent" points="2738.72,1750.3569,2719.8674,1748.217,2722.354,1759.9565,2738.72,1750.3569" style="stroke:#181818;stroke-width:1;"/></g><!--link C_0015235694265660149602 to C_0015937781856508569918--><g id="link_C_0015235694265660149602_C_0015937781856508569918"><path codeLine="150" d="M990.04,1779.7969 C1016.42,1779.7969 1028.1,1779.7969 1058.71,1779.7969 " fill="transparent" id="C_0015235694265660149602-to-C_0015937781856508569918" style="stroke:#181818;stroke-width:1;stroke-dasharray:7.0,7.0;"/><polygon fill="transparent" points="1076.71,1779.7969,1058.71,1773.7969,1058.71,1785.7969,1076.71,1779.7969" style="stroke:#181818;stroke-width:1;"/></g><!--link C_0013894242623239472501 to C_0013916464534772332265--><g id="link_C_0013894242623239472501_C_0013916464534772332265"><path codeLine="151" d="M2509.65,1699.7969 C2589.12,1705.3469 2652.3836,1709.7741 2720.7536,1714.5441 " fill="transparent" id="C_0013894242623239472501-to-C_0013916464534772332265" style="stroke:#181818;stroke-width:1;stroke-dasharray:7.0,7.0;"/><polygon fill="transparent" points="2738.71,1715.7969,2721.1712,1708.5587,2720.3361,1720.5296,2738.71,1715.7969" style="stroke:#181818;stroke-width:1;"/></g><!--reverse link C_0015937781856508569918 to C_0013894242623239472501--><g id="link_C_0015937781856508569918_C_0013894242623239472501"><path codeLine="152" d="M1521.0217,1753.95 C1557.3217,1748.39 1583.55,1744.0769 1619,1737.7969 C1665,1729.6469 1675.78,1723.6269 1722,1716.7969 C1765.93,1710.2969 1812.48,1704.6469 1858.24,1699.7969 " fill="transparent" id="C_0015937781856508569918-backto-C_0013894242623239472501" style="stroke:#181818;stroke-width:1;"/><polygon fill="transparent" points="1509.16,1755.7669,1515.6964,1758.8123,1521.0217,1753.95,1514.4852,1750.9046,1509.16,1755.7669" style="stroke:#181818;stroke-width:1;"/><rect fill="transparent" height="6" style="stroke:#C82930;stroke-width:1;" width="6" x="1652" y="1711.8633"/><text fill="#000000" font-family="sans-serif" font-size="13" lengthAdjust="spacing" textLength="29.3135" x="1662" y="1718.8638">_M_t</text></g><!--link C_0000866953055675511964 to C_0001906998976845593827--><g id="link_C_0000866953055675511964_C_0001906998976845593827"><path codeLine="153" d="M380.43,1505.5769 C460.17,1394.7969 779.115,951.6863 858.985,840.7163 " fill="transparent" id="C_0000866953055675511964-to-C_0001906998976845593827" style="stroke:#181818;stroke-width:1;stroke-dasharray:7.0,7.0;"/><polygon fill="transparent" points="869.5,826.1069,854.1152,837.2113,863.8548,844.2213,869.5,826.1069" style="stroke:#181818;stroke-width:1;"/></g><!--link C_0014510487773565290867 to C_0015937781856508569918--><g id="link_C_0014510487773565290867_C_0015937781856508569918"><path codeLine="154" d="M929.46,1678.9369 C963.02,1697.8669 1012.59,1723.3469 1059,1737.7969 C1081.8,1744.8969 1090.3495,1747.6356 1114.6495,1752.5656 " fill="transparent" id="C_0014510487773565290867-to-C_0015937781856508569918" style="stroke:#181818;stroke-width:1;"/><ellipse cx="1122.4897" cy="1754.1562" fill="#FFFFFF" rx="8" ry="8" style="stroke:#181818;stroke-width:1;"/><line style="stroke:#181818;stroke-width:1;" x1="1114.6495" x2="1130.33" y1="1752.5656" y2="1755.7469"/><line style="stroke:#181818;stroke-width:1;" x1="1124.0804" x2="1120.8991" y1="1746.316" y2="1761.9965"/></g><!--reverse link C_0000866953055675511964 to C_0014510487773565290867--><g id="link_C_0000866953055675511964_C_0014510487773565290867"><path codeLine="155" d="M481.2289,1558.0028 C577.9989,1581.0828 705.29,1611.4469 797.95,1633.5569 " fill="transparent" id="C_0000866953055675511964-backto-C_0014510487773565290867" style="stroke:#181818;stroke-width:1;"/><polygon fill="transparent" points="463.72,1553.8269,479.8369,1563.8391,482.6209,1552.1665,463.72,1553.8269" style="stroke:#181818;stroke-width:1;"/></g><!--link C_0016373827787893331873 to C_0015235694265660149602--><g id="link_C_0016373827787893331873_C_0015235694265660149602"><path codeLine="156" d="M466.1,1853.8169 C536.98,1846.8569 633.08,1835.8369 717,1820.7969 C742.85,1816.1669 753.1428,1814.2017 778.6128,1808.0517 " fill="transparent" id="C_0016373827787893331873-to-C_0015235694265660149602" style="stroke:#181818;stroke-width:1;stroke-dasharray:7.0,7.0;"/><polygon fill="transparent" points="796.11,1803.8269,777.2046,1802.2194,780.0211,1813.8841,796.11,1803.8269" style="stroke:#181818;stroke-width:1;"/></g><!--link C_0013101789567079497534 to C_0015235694265660149602--><g id="link_C_0013101789567079497534_C_0015235694265660149602"><path codeLine="157" d="M466.13,1705.2569 C537.03,1711.9269 633.13,1722.6469 717,1737.7969 C743.78,1742.6369 755.1435,1744.8769 781.3235,1751.3969 " fill="transparent" id="C_0013101789567079497534-to-C_0015235694265660149602" style="stroke:#181818;stroke-width:1;stroke-dasharray:7.0,7.0;"/><polygon fill="transparent" points="798.79,1755.7469,782.7735,1745.5748,779.8735,1757.2191,798.79,1755.7469" style="stroke:#181818;stroke-width:1;"/></g><!--link C_0001090897514726089586 to C_0013916464534772332265--><g id="link_C_0001090897514726089586_C_0013916464534772332265"><path codeLine="158" d="M2317.81,1574.8369 C2403.53,1589.5269 2512.33,1610.0369 2608,1633.7969 C2688.99,1653.9169 2763.2031,1677.4568 2824.1031,1697.9868 " fill="transparent" id="C_0001090897514726089586-to-C_0013916464534772332265" style="stroke:#181818;stroke-width:1;stroke-dasharray:7.0,7.0;"/><polygon fill="transparent" points="2841.16,1703.7369,2826.0198,1692.3012,2822.1864,1703.6725,2841.16,1703.7369" style="stroke:#181818;stroke-width:1;"/></g><!--reverse link C_0008109501906190460155 to C_0001090897514726089586--><g id="link_C_0008109501906190460155_C_0001090897514726089586"><path codeLine="159" d="M1631.2562,1537.2198 C1664.5162,1538.0598 1687.07,1538.6469 1721.91,1539.5269 " fill="transparent" id="C_0008109501906190460155-backto-C_0001090897514726089586" style="stroke:#181818;stroke-width:1;"/><polygon fill="transparent" points="1619.26,1536.9169,1625.1571,1541.0671,1631.2562,1537.2198,1625.3591,1533.0696,1619.26,1536.9169" style="stroke:#181818;stroke-width:1;"/><rect fill="transparent" height="6" style="stroke:#C82930;stroke-width:1;" width="6" x="1652" y="1527.8633"/><text fill="#000000" font-family="sans-serif" font-size="13" lengthAdjust="spacing" textLength="29.3135" x="1662" y="1534.8638">_M_t</text></g><!--link C_0002334092490773708849 to C_0008109501906190460155--><g id="link_C_0002334092490773708849_C_0008109501906190460155"><path codeLine="160" d="M995.69,1529.7969 C1015.4,1529.7969 1020.8,1529.7969 1042.96,1529.7969 " fill="transparent" id="C_0002334092490773708849-to-C_0008109501906190460155" style="stroke:#181818;stroke-width:1;"/><ellipse cx="1050.96" cy="1529.7969" fill="#FFFFFF" rx="8" ry="8" style="stroke:#181818;stroke-width:1;"/><line style="stroke:#181818;stroke-width:1;" x1="1042.96" x2="1058.96" y1="1529.7969" y2="1529.7969"/><line style="stroke:#181818;stroke-width:1;" x1="1050.96" x2="1050.96" y1="1521.7969" y2="1537.7969"/></g><!--reverse link C_0000866953055675511964 to C_0002334092490773708849--><g id="link_C_0000866953055675511964_C_0002334092490773708849"><path codeLine="161" d="M601.7,1529.7969 C669.81,1529.7969 723.74,1529.7969 780.44,1529.7969 " fill="transparent" id="C_0000866953055675511964-backto-C_0002334092490773708849" style="stroke:#181818;stroke-width:1;"/><polygon fill="transparent" points="583.7,1529.7969,601.7,1535.7969,601.7,1523.7969,583.7,1529.7969" style="stroke:#181818;stroke-width:1;"/></g><!--link C_0002099648825473310360 to C_0015235694265660149602--><g id="link_C_0002099648825473310360_C_0015235694265660149602"><path codeLine="162" d="M602.38,1779.7969 C666.98,1779.7969 715.42,1779.7969 767.84,1779.7969 " fill="transparent" id="C_0002099648825473310360-to-C_0015235694265660149602" style="stroke:#181818;stroke-width:1;stroke-dasharray:7.0,7.0;"/><polygon fill="transparent" points="785.84,1779.7969,767.84,1773.7969,767.84,1785.7969,785.84,1779.7969" style="stroke:#181818;stroke-width:1;"/></g><!--SRC=[nLbjRzis4FwkNq5q7zfkZY6-aqOI82kmjLYx5jtMhu9YCuusML8bEbkmxh_lACUE99ziPoYm0bOD7VdSyNWlppa-yxaZZL_CPgkq8lEoyEulJ-PvsZHaaQNBEbr5kRlnn9UapfQt7jxMRkwpieWsgvvTPqLQtoStww9zVPvSrKiw2KysIJwwPftxosSaRSYh98vZAmrdJ6Z5LFXm9jK3q9YO_1qbIVJFgBfVgqduN9Tbtj53RQoiDLOh8wIqt33TrOE81thSvtMQ9xuC2YxkocpH0PU6MYiqsAeb4zP8sWD7n0FmelJ98GKYDiRAu0aUnrfJ9anN0I8UA5ZMBlMknh2fiaO9U4fbB9DSzR4HyG0xTqs305EuC2c5DfHgPetWJFCEC2R6ZTvu1jEW30H8hC2sM5iAa9HsDI1YnFG3yB6Y6W2aDCR4t1XcUl3xukEnIRwTR9xz-AH2nrmBGtNCE6SK7Dqx2Y8U7gLSPdC8eBHOe14aA8VW06z0g4kuoDvbOE8H_18DefWfAfcsmYWBA9OAsOL7n4TSvUyhLwGhHv8FjLk0PkzcivkiRdoIrilroXK-2MicwCB6GUbQ35OEAeBc47dKAX6oXe5fbdLDHiG3avEFrucldJjFVdBta-HJca_2j_Sty6tj9ichSbMbjOEgTvNdvRnpsTnI9PIGN6WTxfEfhhSmyOZgsMpxBSbM5GJnWyxkpHWkAHn0Scsq2e54UpUpB_vlntmuvKKQdgaFOG8BBZkMmFqpA4unjn3FKcl1UuK64HyujLit3c8nQTKbHRbmZ-wLa9Tm52ZdWi6_WDLrBo8ULtI5u5C13wYuiP12CgKWkhluYFZKwmE_9lEjFx-7UBr8agn9gdBneYjxsVUgbD1Rh8Bg868kcHnuTIW-SDYrB_jdZGNK6YZIq54qb6f6PQ_4Ok8JmkSN1uzNguhkfqOi1HUCnoBORG3PTBCI4pz1ttugGi4330gebfbOG1BmNbr4n0Dzm9CUL0NYWIg1qiUbWcXJ4g818Wz2eXUG- -AnGu6ssUmFY8IsebLfLhVA0rDhV33XiZqjC3BQ-7DCVZdPOMmZhNsHV8353-aKmBlbAcGAcCSuuy1ZcEoL44nys4SRjHSRtW2lB_ThHsjvQpHfDvBMzAvBBGyHPwIICJoifRtUZ8YFD1pKb-ZBGH-9JM0OF9PIQGdn3osZNs3tnFlUcStkGZ7TtaY75a1n3hcb8K8aim2cUxHWNppg-ZOJyAHJN0V62nt0MCuvDNscXeYFQi6wNg1Wm5EL1Zech8R-rWkZVV5e5i0CaNsLLEW1xV9XztOyAQ0KWRl1IcYPJC4tQNg32o8U-kn1orVEZDZGm7h3G0CV0GL5zXe28XunR2me0mKLiOL91cODhc7s4BRNSlR5nshcf5hLirbLvlUhigvkitaoEF3mvheDCBQGKy2-eH51SCPSnJrhziLRQqOdl-dqo-NuU3gwxVpBsTduG7Z2DcpCEs4RDi4TtuREPoTimuQkKxOXmzJeQFDu0TZSVeedaN7dX6tO63Cw3Hmt4cNoZzimGZnAXSkTZGXZdv5ladSjXun6AUxPsNU7rQB4zUWkb64UtuKHn-CMOlHlvqzqh1fbSSUteRpiSHl6G4Rvq2dQ4CgolNGKSqREuD9zD4epJWXGZ41ihs7qXAYonqp7ECieZ-Zu4o79eyJW-3Qq0vyGArX_tEKUXjcx1gptxS8Qwyp7_Ocssz7MTjWnX92Yz8xuiYBbpNYBWtNajSihLvERiYOBTvCLMR4awIAjV7gTExAXpsHBdqbv_JimhMOQkMBHwcWnC7rORmmBtnSkhF6tRe2nXu2roQSXO1tpIGXeytmQ0jP7duY0jDI329WlaKRvD5zYFVE85RWjwEysOU4F8SWW36itlv_dRHoI2eQmi37yMj6G51IicrQouOrjI1Pp5zItQoEIDSIjAdy_FUPMxEUThXbDjihoj0v_0cdHQtUNbUi6z45Qh3tvC_Et9VoV5lS3CtqPFHp2dP0es4ylOU5LGJvUlNb3afy1bDp2sVFJNOoKzB3mdNE-QOzJky_hh7RXPzCcR4j95FuCb6Q5gwC9IM5v12TsTPE5Ej2JWGrf4HO0-oxd6Lp3tNR5T3eTiH4vELOe_oyheoXw_gE3hQbtY_Pkmv_3YkNPUfLFIAi1OYsUgYcDdhzz- -dTxjrlr-l2hpUhTo-fdT8f9I_ekfNIb_y2]--></g></svg>