<?xml version="1.0" encoding="UTF-8" standalone="no"?><svg xmlns="http://www.w3.org/2000/svg" xmlns:xlink="http://www.w3.org/1999/xlink" contentScriptType="application/ecmascript" contentStyleType="text/css" height="676px" preserveAspectRatio="none" style="width:945px;height:676px;" version="1.1" viewBox="0 0 945 676" width="945px" zoomAndPan="magnify"><defs><filter height="300%" id="fw4etx2v9rrr0" width="300%" x="-1" y="-1"><feGaussianBlur result="blurOut" stdDeviation="2.0"/><feColorMatrix in="blurOut" result="blurOut2" type="matrix" values="0 0 0 0 0 0 0 0 0 0 0 0 0 0 0 0 0 0 .4 0"/><feOffset dx="4.0" dy="4.0" in="blurOut2" result="blurOut3"/><feBlend in="SourceGraphic" in2="blurOut3" mode="normal"/></filter></defs><g><text fill="#000000" font-family="sans-serif" font-size="18" lengthAdjust="spacingAndGlyphs" textLength="251" x="351" y="16.708">Godot Node2D class context</text><!--MD5=[8fa627e1efcccdd4a5cadae89d2de99a]
class C_0000053309527800613276--><a href="https://github.com/godotengine/godot/blob/faf3f883d1a25ec8a2b7a31ecc9e3363613b2478/./core/math/vector2.h#L39" target="_top" title="Vector2" xlink:actuate="onRequest" xlink:href="https://github.com/godotengine/godot/blob/faf3f883d1a25ec8a2b7a31ecc9e3363613b2478/./core/math/vector2.h#L39" xlink:show="new" xlink:title="Vector2" xlink:type="simple"><rect fill="#FEFECE" filter="url(#fw4etx2v9rrr0)" height="48" id="C_0000053309527800613276" style="stroke: #A80036; stroke-width: 1.5;" width="81" x="841.5" y="74.2331"/><ellipse cx="856.5" cy="90.2331" fill="#ADD1B2" rx="11" ry="11" style="stroke: #A80036; stroke-width: 1.0;"/><path d="M859.4688,95.8737 Q858.8906,96.1706 858.25,96.3112 Q857.6094,96.4675 856.9063,96.4675 Q854.4063,96.4675 853.0781,94.8269 Q851.7656,93.1706 851.7656,90.0456 Q851.7656,86.9206 853.0781,85.2644 Q854.4063,83.6081 856.9063,83.6081 Q857.6094,83.6081 858.25,83.7644 Q858.9063,83.9206 859.4688,84.2175 L859.4688,86.9362 Q858.8438,86.3581 858.25,86.0925 Q857.6563,85.8112 857.0313,85.8112 Q855.6875,85.8112 855,86.8894 Q854.3125,87.9519 854.3125,90.0456 Q854.3125,92.1394 855,93.2175 Q855.6875,94.28 857.0313,94.28 Q857.6563,94.28 858.25,94.0144 Q858.8438,93.7331 859.4688,93.155 L859.4688,95.8737 Z "/><text fill="#000000" font-family="sans-serif" font-size="12" lengthAdjust="spacingAndGlyphs" textLength="49" x="870.5" y="94.3874">Vector2</text><line style="stroke: #A80036; stroke-width: 1.5;" x1="842.5" x2="921.5" y1="106.2331" y2="106.2331"/><line style="stroke: #A80036; stroke-width: 1.5;" x1="842.5" x2="921.5" y1="114.2331" y2="114.2331"/></a><!--MD5=[ab7e3a949030d623a36ad5df74e79d00]
class C_0001296138246691404804--><a href="https://github.com/godotengine/godot/blob/faf3f883d1a25ec8a2b7a31ecc9e3363613b2478/./core/math/transform_2d.h#L37" target="_top" title="Transform2D" xlink:actuate="onRequest" xlink:href="https://github.com/godotengine/godot/blob/faf3f883d1a25ec8a2b7a31ecc9e3363613b2478/./core/math/transform_2d.h#L37" xlink:show="new" xlink:title="Transform2D" xlink:type="simple"><rect fill="#FEFECE" filter="url(#fw4etx2v9rrr0)" height="48" id="C_0001296138246691404804" style="stroke: #A80036; stroke-width: 1.5;" width="112" x="473.5" y="74.2331"/><ellipse cx="488.5" cy="90.2331" fill="#ADD1B2" rx="11" ry="11" style="stroke: #A80036; stroke-width: 1.0;"/><path d="M491.4688,95.8737 Q490.8906,96.1706 490.25,96.3112 Q489.6094,96.4675 488.9063,96.4675 Q486.4063,96.4675 485.0781,94.8269 Q483.7656,93.1706 483.7656,90.0456 Q483.7656,86.9206 485.0781,85.2644 Q486.4063,83.6081 488.9063,83.6081 Q489.6094,83.6081 490.25,83.7644 Q490.9063,83.9206 491.4688,84.2175 L491.4688,86.9362 Q490.8438,86.3581 490.25,86.0925 Q489.6563,85.8112 489.0313,85.8112 Q487.6875,85.8112 487,86.8894 Q486.3125,87.9519 486.3125,90.0456 Q486.3125,92.1394 487,93.2175 Q487.6875,94.28 489.0313,94.28 Q489.6563,94.28 490.25,94.0144 Q490.8438,93.7331 491.4688,93.155 L491.4688,95.8737 Z "/><text fill="#000000" font-family="sans-serif" font-size="12" lengthAdjust="spacingAndGlyphs" textLength="80" x="502.5" y="94.3874">Transform2D</text><line style="stroke: #A80036; stroke-width: 1.5;" x1="474.5" x2="584.5" y1="106.2331" y2="106.2331"/><line style="stroke: #A80036; stroke-width: 1.5;" x1="474.5" x2="584.5" y1="114.2331" y2="114.2331"/></a><!--MD5=[bdf481e0258441d9ea4c4f618bd16c94]
class C_0001858199404643284193--><a href="https://github.com/godotengine/godot/blob/faf3f883d1a25ec8a2b7a31ecc9e3363613b2478/./core/string_name.h#L44" target="_top" title="StringName" xlink:actuate="onRequest" xlink:href="https://github.com/godotengine/godot/blob/faf3f883d1a25ec8a2b7a31ecc9e3363613b2478/./core/string_name.h#L44" xlink:show="new" xlink:title="StringName" xlink:type="simple"><rect fill="#FEFECE" filter="url(#fw4etx2v9rrr0)" height="48" id="C_0001858199404643284193" style="stroke: #A80036; stroke-width: 1.5;" width="105" x="829.5" y="422.2331"/><ellipse cx="844.5" cy="438.2331" fill="#ADD1B2" rx="11" ry="11" style="stroke: #A80036; stroke-width: 1.0;"/><path d="M847.4688,443.8738 Q846.8906,444.1706 846.25,444.3113 Q845.6094,444.4675 844.9063,444.4675 Q842.4063,444.4675 841.0781,442.8269 Q839.7656,441.1706 839.7656,438.0456 Q839.7656,434.9206 841.0781,433.2644 Q842.4063,431.6081 844.9063,431.6081 Q845.6094,431.6081 846.25,431.7644 Q846.9063,431.9206 847.4688,432.2175 L847.4688,434.9363 Q846.8438,434.3581 846.25,434.0925 Q845.6563,433.8113 845.0313,433.8113 Q843.6875,433.8113 843,434.8894 Q842.3125,435.9519 842.3125,438.0456 Q842.3125,440.1394 843,441.2175 Q843.6875,442.28 845.0313,442.28 Q845.6563,442.28 846.25,442.0144 Q846.8438,441.7331 847.4688,441.155 L847.4688,443.8738 Z "/><text fill="#000000" font-family="sans-serif" font-size="12" lengthAdjust="spacingAndGlyphs" textLength="73" x="858.5" y="442.3874">StringName</text><line style="stroke: #A80036; stroke-width: 1.5;" x1="830.5" x2="933.5" y1="454.2331" y2="454.2331"/><line style="stroke: #A80036; stroke-width: 1.5;" x1="830.5" x2="933.5" y1="462.2331" y2="462.2331"/></a><!--MD5=[cefc1761acd014682fb46e6592f2db8a]
class C_0000104564426296396960--><a href="https://github.com/godotengine/godot/blob/faf3f883d1a25ec8a2b7a31ecc9e3363613b2478/./core/class_db.h#L94" target="_top" title="ClassDB" xlink:actuate="onRequest" xlink:href="https://github.com/godotengine/godot/blob/faf3f883d1a25ec8a2b7a31ecc9e3363613b2478/./core/class_db.h#L94" xlink:show="new" xlink:title="ClassDB" xlink:type="simple"><rect fill="#FEFECE" filter="url(#fw4etx2v9rrr0)" height="48" id="C_0000104564426296396960" style="stroke: #A80036; stroke-width: 1.5;" width="82" x="488.5" y="422.2331"/><ellipse cx="503.5" cy="438.2331" fill="#ADD1B2" rx="11" ry="11" style="stroke: #A80036; stroke-width: 1.0;"/><path d="M506.4688,443.8738 Q505.8906,444.1706 505.25,444.3113 Q504.6094,444.4675 503.9063,444.4675 Q501.4063,444.4675 500.0781,442.8269 Q498.7656,441.1706 498.7656,438.0456 Q498.7656,434.9206 500.0781,433.2644 Q501.4063,431.6081 503.9063,431.6081 Q504.6094,431.6081 505.25,431.7644 Q505.9063,431.9206 506.4688,432.2175 L506.4688,434.9363 Q505.8438,434.3581 505.25,434.0925 Q504.6563,433.8113 504.0313,433.8113 Q502.6875,433.8113 502,434.8894 Q501.3125,435.9519 501.3125,438.0456 Q501.3125,440.1394 502,441.2175 Q502.6875,442.28 504.0313,442.28 Q504.6563,442.28 505.25,442.0144 Q505.8438,441.7331 506.4688,441.155 L506.4688,443.8738 Z "/><text fill="#000000" font-family="sans-serif" font-size="12" lengthAdjust="spacingAndGlyphs" textLength="50" x="517.5" y="442.3874">ClassDB</text><line style="stroke: #A80036; stroke-width: 1.5;" x1="489.5" x2="569.5" y1="454.2331" y2="454.2331"/><line style="stroke: #A80036; stroke-width: 1.5;" x1="489.5" x2="569.5" y1="462.2331" y2="462.2331"/></a><!--MD5=[eb192d77dba9a1188ad367651d748528]
class C_0002074383603489565895--><a href="https://github.com/godotengine/godot/blob/faf3f883d1a25ec8a2b7a31ecc9e3363613b2478/./scene/2d/canvas_item.h#L165" target="_top" title="CanvasItem" xlink:actuate="onRequest" xlink:href="https://github.com/godotengine/godot/blob/faf3f883d1a25ec8a2b7a31ecc9e3363613b2478/./scene/2d/canvas_item.h#L165" xlink:show="new" xlink:title="CanvasItem" xlink:type="simple"><rect fill="#FEFECE" filter="url(#fw4etx2v9rrr0)" height="48" id="C_0002074383603489565895" style="stroke: #A80036; stroke-width: 1.5;" width="104" x="29.5" y="271.2331"/><ellipse cx="44.5" cy="287.2331" fill="#ADD1B2" rx="11" ry="11" style="stroke: #A80036; stroke-width: 1.0;"/><path d="M47.4688,292.8738 Q46.8906,293.1706 46.25,293.3113 Q45.6094,293.4675 44.9063,293.4675 Q42.4063,293.4675 41.0781,291.8269 Q39.7656,290.1706 39.7656,287.0456 Q39.7656,283.9206 41.0781,282.2644 Q42.4063,280.6081 44.9063,280.6081 Q45.6094,280.6081 46.25,280.7644 Q46.9063,280.9206 47.4688,281.2175 L47.4688,283.9363 Q46.8438,283.3581 46.25,283.0925 Q45.6563,282.8113 45.0313,282.8113 Q43.6875,282.8113 43,283.8894 Q42.3125,284.9519 42.3125,287.0456 Q42.3125,289.1394 43,290.2175 Q43.6875,291.28 45.0313,291.28 Q45.6563,291.28 46.25,291.0144 Q46.8438,290.7331 47.4688,290.155 L47.4688,292.8738 Z "/><text fill="#000000" font-family="sans-serif" font-size="12" lengthAdjust="spacingAndGlyphs" textLength="72" x="58.5" y="291.3874">CanvasItem</text><line style="stroke: #A80036; stroke-width: 1.5;" x1="30.5" x2="132.5" y1="303.2331" y2="303.2331"/><line style="stroke: #A80036; stroke-width: 1.5;" x1="30.5" x2="132.5" y1="311.2331" y2="311.2331"/></a><!--MD5=[6819c02738426d8b4a0c51cbdd89c521]
class C_0002289363354048605759--><a href="https://github.com/godotengine/godot/blob/faf3f883d1a25ec8a2b7a31ecc9e3363613b2478/scene/2d/node_2d.h#L36" target="_top" title="Node2D" xlink:actuate="onRequest" xlink:href="https://github.com/godotengine/godot/blob/faf3f883d1a25ec8a2b7a31ecc9e3363613b2478/scene/2d/node_2d.h#L36" xlink:show="new" xlink:title="Node2D" xlink:type="simple"><rect fill="#FEFECE" filter="url(#fw4etx2v9rrr0)" height="48" id="C_0002289363354048605759" style="stroke: #A80036; stroke-width: 1.5;" width="82" x="214.5" y="177.2331"/><ellipse cx="229.5" cy="193.2331" fill="#ADD1B2" rx="11" ry="11" style="stroke: #A80036; stroke-width: 1.0;"/><path d="M232.4688,198.8737 Q231.8906,199.1706 231.25,199.3112 Q230.6094,199.4675 229.9063,199.4675 Q227.4063,199.4675 226.0781,197.8269 Q224.7656,196.1706 224.7656,193.0456 Q224.7656,189.9206 226.0781,188.2644 Q227.4063,186.6081 229.9063,186.6081 Q230.6094,186.6081 231.25,186.7644 Q231.9063,186.9206 232.4688,187.2175 L232.4688,189.9362 Q231.8438,189.3581 231.25,189.0925 Q230.6563,188.8112 230.0313,188.8112 Q228.6875,188.8112 228,189.8894 Q227.3125,190.9519 227.3125,193.0456 Q227.3125,195.1394 228,196.2175 Q228.6875,197.28 230.0313,197.28 Q230.6563,197.28 231.25,197.0144 Q231.8438,196.7331 232.4688,196.155 L232.4688,198.8737 Z "/><text fill="#000000" font-family="sans-serif" font-size="12" lengthAdjust="spacingAndGlyphs" textLength="50" x="243.5" y="197.3874">Node2D</text><line style="stroke: #A80036; stroke-width: 1.5;" x1="215.5" x2="295.5" y1="209.2331" y2="209.2331"/><line style="stroke: #A80036; stroke-width: 1.5;" x1="215.5" x2="295.5" y1="217.2331" y2="217.2331"/></a><!--MD5=[ef8688b7a9f08943ee9e274fdcea5f32]
reverse link C_0001296138246691404804 to C_0000053309527800613276--><path d="M598.66,98.2331 C670.88,98.2331 782.46,98.2331 841.4,98.2331 " fill="none" id="C_0001296138246691404804&lt;-C_0000053309527800613276" style="stroke: #A80036; stroke-width: 1.0;"/><polygon fill="#FFFFFF" points="585.65,98.2331,591.65,102.2331,597.65,98.2331,591.65,94.2331,585.65,98.2331" style="stroke: #A80036; stroke-width: 1.0;"/><ellipse cx="676.5" cy="90.2995" fill="none" rx="3" ry="3" style="stroke: #038048; stroke-width: 1.0;"/><text fill="#000000" font-family="sans-serif" font-size="13" lengthAdjust="spacingAndGlyphs" textLength="60" x="683.5" y="94.3">elements</text><!--MD5=[1259c5a3a05eb23b6b415165781cedc4]
link C_0000104564426296396960 to C_0001858199404643284193--><path d="M534.13,470.4031 C541.51,509.8531 562.32,587.0231 615.5,620.2331 C684.87,663.5531 730.49,664.1131 799.5,620.2331 C849.74,588.2931 869.54,516.3131 876.93,475.6431 " fill="none" id="C_0000104564426296396960-&gt;C_0001858199404643284193" style="stroke: #A80036; stroke-width: 1.0;"/><polygon fill="#A80036" points="877.85,470.3631,872.3631,478.542,876.9909,475.2888,880.2441,479.9166,877.85,470.3631" style="stroke: #A80036; stroke-width: 1.0;"/><ellipse cx="683" cy="612.2995" fill="none" rx="3" ry="3" style="stroke: #038048; stroke-width: 1.0;"/><text fill="#000000" font-family="sans-serif" font-size="13" lengthAdjust="spacingAndGlyphs" textLength="47" x="690" y="616.3">classes</text><!--MD5=[1259c5a3a05eb23b6b415165781cedc4]
link C_0000104564426296396960 to C_0001858199404643284193--><path d="M570.87,435.8931 C584.9,432.7731 600.8,429.7731 615.5,428.2331 C696.83,419.7231 718.2,419.3631 799.5,428.2331 C807.49,429.1131 815.85,430.4531 824.04,432.0131 " fill="none" id="C_0000104564426296396960-&gt;C_0001858199404643284193-1" style="stroke: #A80036; stroke-width: 1.0;"/><polygon fill="#A80036" points="829.11,433.0131,821.0597,427.3393,824.2055,432.0408,819.504,435.1866,829.11,433.0131" style="stroke: #A80036; stroke-width: 1.0;"/><ellipse cx="621.5" cy="413.2995" fill="none" rx="3" ry="3" style="stroke: #038048; stroke-width: 1.0;"/><text fill="#000000" font-family="sans-serif" font-size="13" lengthAdjust="spacingAndGlyphs" textLength="170" x="628.5" y="417.3">resource_base_extensions</text><!--MD5=[1259c5a3a05eb23b6b415165781cedc4]
link C_0000104564426296396960 to C_0001858199404643284193--><path d="M570.67,450.2231 C584.82,451.4531 600.85,452.6331 615.5,453.2331 C697.21,456.5931 717.8,456.7431 799.5,453.2331 C807.49,452.8931 815.91,452.3631 824.18,451.7431 " fill="none" id="C_0000104564426296396960-&gt;C_0001858199404643284193-2" style="stroke: #A80036; stroke-width: 1.0;"/><polygon fill="#A80036" points="829.31,451.3531,820.0283,448.0592,824.3249,451.7388,820.6453,456.0354,829.31,451.3531" style="stroke: #A80036; stroke-width: 1.0;"/><ellipse cx="655" cy="445.2995" fill="none" rx="3" ry="3" style="stroke: #038048; stroke-width: 1.0;"/><text fill="#000000" font-family="sans-serif" font-size="13" lengthAdjust="spacingAndGlyphs" textLength="103" x="662" y="449.3">compat_classes</text><!--MD5=[1259c5a3a05eb23b6b415165781cedc4]
link C_0000104564426296396960 to C_0001858199404643284193--><path d="M570.62,465.9231 C584.49,471.7331 600.36,477.3231 615.5,480.2331 C695.8,495.7031 719.31,496.2931 799.5,480.2331 C808.72,478.3931 818.19,475.4831 827.28,472.1231 " fill="none" id="C_0000104564426296396960-&gt;C_0001858199404643284193-3" style="stroke: #A80036; stroke-width: 1.0;"/><polygon fill="#A80036" points="831.99,470.3231,822.155,469.8004,827.3196,472.1084,825.0115,477.273,831.99,470.3231" style="stroke: #A80036; stroke-width: 1.0;"/><ellipse cx="660.5" cy="472.2995" fill="none" rx="3" ry="3" style="stroke: #038048; stroke-width: 1.0;"/><text fill="#000000" font-family="sans-serif" font-size="13" lengthAdjust="spacingAndGlyphs" textLength="92" x="667.5" y="476.3">default_values</text><!--MD5=[1259c5a3a05eb23b6b415165781cedc4]
link C_0000104564426296396960 to C_0001858199404643284193--><path d="M551.19,470.4131 C566.92,486.8231 590.13,507.1331 615.5,516.2331 C692.47,543.8531 722.82,544.6531 799.5,516.2331 C822.23,507.8131 842.89,489.9031 857.72,474.3031 " fill="none" id="C_0000104564426296396960-&gt;C_0001858199404643284193-4" style="stroke: #A80036; stroke-width: 1.0;"/><polygon fill="#A80036" points="861.37,470.3931,852.3044,474.2421,857.9579,474.0479,858.1521,479.7014,861.37,470.3931" style="stroke: #A80036; stroke-width: 1.0;"/><ellipse cx="634" cy="508.2995" fill="none" rx="3" ry="3" style="stroke: #038048; stroke-width: 1.0;"/><text fill="#000000" font-family="sans-serif" font-size="13" lengthAdjust="spacingAndGlyphs" textLength="145" x="641" y="512.3">default_values_cached</text><!--MD5=[208c0dda235c298627a059cb6fd90643]
reverse link C_0002074383603489565895 to C_0001858199404643284193--><path d="M146.31,312.6131 C199.48,326.4431 277.4,345.2631 346.5,356.2331 C546.11,387.9531 607.59,332.8131 799.5,396.2331 C817.15,402.0731 834.96,412.3731 849.41,422.1131 " fill="none" id="C_0002074383603489565895&lt;-C_0001858199404643284193" style="stroke: #A80036; stroke-width: 1.0;"/><polygon fill="#FFFFFF" points="133.68,309.2931,138.4678,314.6854,145.2868,312.3399,140.499,306.9476,133.68,309.2931" style="stroke: #A80036; stroke-width: 1.0;"/><rect fill="none" height="6" style="stroke: #C82930; stroke-width: 1.0;" width="6" x="349.5" y="345.2995"/><text fill="#000000" font-family="sans-serif" font-size="13" lengthAdjust="spacingAndGlyphs" textLength="83" x="359.5" y="352.3">_class_name</text><!--MD5=[afd1aea1ec5cee6a64d7dc349dc64f1b]
reverse link C_0002074383603489565895 to C_0001296138246691404804--><path d="M104.61,259.9031 C124.91,229.8331 157.41,187.1931 194.5,159.2331 C253.32,114.9131 274.39,108.2131 346.5,93.2331 C388.71,84.4731 400.41,91.9731 443.5,93.2331 C453.1,93.5231 463.31,93.9831 473.2,94.5131 " fill="none" id="C_0002074383603489565895&lt;-C_0001296138246691404804" style="stroke: #A80036; stroke-width: 1.0;"/><polygon fill="#FFFFFF" points="97.19,271.1431,103.8319,268.3352,103.7946,261.1242,97.1526,263.9321,97.19,271.1431" style="stroke: #A80036; stroke-width: 1.0;"/><rect fill="none" height="6" style="stroke: #C82930; stroke-width: 1.0;" width="6" x="197.5" y="89.2995"/><text fill="#000000" font-family="sans-serif" font-size="13" lengthAdjust="spacingAndGlyphs" textLength="108" x="207.5" y="96.3">global_transform</text><!--MD5=[a3df4fe4f220f4afa7c7fc465542181b]
link C_0002074383603489565895 to C_0002074383603489565895--><path d="M67.78,270.9931 C63.31,253.5831 67.89,236.2331 81.5,236.2331 C93.73,236.2331 98.66,250.2431 96.3,265.7131 " fill="none" id="C_0002074383603489565895-&gt;C_0002074383603489565895" style="stroke: #A80036; stroke-width: 1.0;"/><polygon fill="#A80036" points="95.22,270.9931,100.9389,262.9747,96.2198,266.0941,93.1004,261.375,95.22,270.9931" style="stroke: #A80036; stroke-width: 1.0;"/><rect fill="none" height="6" style="stroke: #C82930; stroke-width: 1.0;" width="6" x="14" y="220.2995"/><text fill="#000000" font-family="sans-serif" font-size="13" lengthAdjust="spacingAndGlyphs" textLength="127" x="24" y="227.3">current_item_drawn</text><!--MD5=[5b551e6b697c4ae3c6c9e93874a3a897]
reverse link C_0002074383603489565895 to C_0000104564426296396960--><path d="M104.17,323.4331 C124.48,347.2431 157.25,379.4331 194.5,392.2331 C296.71,427.3531 424.54,439.8931 488.36,444.1631 " fill="none" id="C_0002074383603489565895&lt;-C_0000104564426296396960" style="stroke: #A80036; stroke-width: 1.0; stroke-dasharray: 7.0,7.0;"/><polygon fill="#A80036" points="100.77,319.3931,103.4934,328.858,103.985,323.2225,109.6204,323.714,100.77,319.3931" style="stroke: #A80036; stroke-width: 1.0;"/><ellipse cx="228.5" cy="384.2995" fill="none" rx="3" ry="3" style="stroke: #038048; stroke-width: 1.0;"/><text fill="#000000" font-family="sans-serif" font-size="13" lengthAdjust="spacingAndGlyphs" textLength="52" x="235.5" y="388.3">«friend»</text><!--MD5=[3dc2ca534d90f0fcfb562c5d6ae1ec53]
reverse link C_0002289363354048605759 to C_0001858199404643284193--><path d="M309.78,200.5331 C413.38,201.6931 645.31,216.9931 799.5,323.2331 C835.15,347.8031 859.25,393.5331 871.51,421.7831 " fill="none" id="C_0002289363354048605759&lt;-C_0001858199404643284193" style="stroke: #A80036; stroke-width: 1.0;"/><polygon fill="#FFFFFF" points="296.62,200.4531,302.5979,204.486,308.6198,200.5191,302.6419,196.4862,296.62,200.4531" style="stroke: #A80036; stroke-width: 1.0;"/><rect fill="none" height="6" style="stroke: #C82930; stroke-width: 1.0;" width="6" x="484" y="202.2995"/><text fill="#000000" font-family="sans-serif" font-size="13" lengthAdjust="spacingAndGlyphs" textLength="83" x="494" y="209.3">_class_name</text><!--MD5=[e1c81cfbaff1c53a4f32d17cf37c9056]
reverse link C_0002289363354048605759 to C_0000053309527800613276--><path d="M277.85,165.9431 C293.95,142.1631 318.07,111.8531 346.5,93.2331 C395.68,61.0331 415.3,64.5431 473.5,56.2331 C617.13,35.7431 656.98,46.0531 799.5,73.2331 C813.31,75.8731 828.1,79.9931 841.23,84.1331 " fill="none" id="C_0002289363354048605759&lt;-C_0000053309527800613276" style="stroke: #A80036; stroke-width: 1.0;"/><polygon fill="#FFFFFF" points="270.61,177.0131,277.2408,174.1789,277.1749,166.9681,270.5441,169.8023,270.61,177.0131" style="stroke: #A80036; stroke-width: 1.0;"/><rect fill="none" height="6" style="stroke: #C82930; stroke-width: 1.0;" width="6" x="514" y="35.2995"/><text fill="#000000" font-family="sans-serif" font-size="13" lengthAdjust="spacingAndGlyphs" textLength="23" x="524" y="42.3">pos</text><!--MD5=[e1c81cfbaff1c53a4f32d17cf37c9056]
reverse link C_0002289363354048605759 to C_0000053309527800613276--><path d="M309.77,194.9131 C374.96,186.9531 488.61,172.3631 585.5,156.2331 C677.56,140.9231 784.9,118.7631 841.46,106.7531 " fill="none" id="C_0002289363354048605759&lt;-C_0000053309527800613276-1" style="stroke: #A80036; stroke-width: 1.0;"/><polygon fill="#FFFFFF" points="296.62,196.5131,303.0592,199.7591,308.5321,195.0636,302.0929,191.8177,296.62,196.5131" style="stroke: #A80036; stroke-width: 1.0;"/><rect fill="none" height="6" style="stroke: #C82930; stroke-width: 1.0;" width="6" x="505.5" y="145.2995"/><text fill="#000000" font-family="sans-serif" font-size="13" lengthAdjust="spacingAndGlyphs" textLength="40" x="515.5" y="152.3">_scale</text><!--MD5=[eca0b1c865317536e8e6656357133ac0]
reverse link C_0002289363354048605759 to C_0001296138246691404804--><path d="M303.92,170.1631 C317.32,162.2631 332.16,154.3031 346.5,148.2331 C387.69,130.8131 436.7,117.7531 473.48,109.3631 " fill="none" id="C_0002289363354048605759&lt;-C_0001296138246691404804" style="stroke: #A80036; stroke-width: 1.0;"/><polygon fill="#FFFFFF" points="292.57,177.0331,299.7745,177.3408,302.8295,170.8088,295.625,170.5011,292.57,177.0331" style="stroke: #A80036; stroke-width: 1.0;"/><rect fill="none" height="6" style="stroke: #C82930; stroke-width: 1.0;" width="6" x="374.5" y="107.2995"/><text fill="#000000" font-family="sans-serif" font-size="13" lengthAdjust="spacingAndGlyphs" textLength="33" x="384.5" y="114.3">_mat</text><!--MD5=[814e220375a0bfd12a745b29dfae6f13]
reverse link C_0002289363354048605759 to C_0000104564426296396960--><path d="M277.69,229.4531 C294.43,250.0831 319.41,277.4431 346.5,295.2331 C384.93,320.4831 406.75,303.5931 443.5,331.2331 C476.04,355.7131 501.77,396.0231 516.06,421.8331 " fill="none" id="C_0002289363354048605759&lt;-C_0000104564426296396960" style="stroke: #A80036; stroke-width: 1.0; stroke-dasharray: 7.0,7.0;"/><polygon fill="#A80036" points="274.45,225.4231,276.9615,234.9464,277.5787,229.3233,283.2018,229.9405,274.45,225.4231" style="stroke: #A80036; stroke-width: 1.0;"/><ellipse cx="368" cy="287.2995" fill="none" rx="3" ry="3" style="stroke: #038048; stroke-width: 1.0;"/><text fill="#000000" font-family="sans-serif" font-size="13" lengthAdjust="spacingAndGlyphs" textLength="52" x="375" y="291.3">«friend»</text><!--MD5=[53255873fd636afdcc2a0189ef9318cd]
reverse link C_0002074383603489565895 to C_0002289363354048605759--><path d="M144.41,261.4031 C167.74,248.6531 193.65,234.4931 214.47,223.1131 " fill="none" id="C_0002074383603489565895&lt;-C_0002289363354048605759" style="stroke: #A80036; stroke-width: 1.0;"/><polygon fill="none" points="147.7,267.5831,126.79,271.0331,140.99,255.2931,147.7,267.5831" style="stroke: #A80036; stroke-width: 1.0;"/><!--MD5=[43aef256df5a59e607b323efb99542ed]
@startuml
title Godot Node2D class context
left to right direction
class "Vector2" as C_0000053309527800613276
class C_0000053309527800613276 [[https://github.com/godotengine/godot/blob/faf3f883d1a25ec8a2b7a31ecc9e3363613b2478/./core/math/vector2.h#L39{Vector2}]] {
__
}
class "Transform2D" as C_0001296138246691404804
class C_0001296138246691404804 [[https://github.com/godotengine/godot/blob/faf3f883d1a25ec8a2b7a31ecc9e3363613b2478/./core/math/transform_2d.h#L37{Transform2D}]] {
__
}
class "StringName" as C_0001858199404643284193
class C_0001858199404643284193 [[https://github.com/godotengine/godot/blob/faf3f883d1a25ec8a2b7a31ecc9e3363613b2478/./core/string_name.h#L44{StringName}]] {
__
}
class "ClassDB" as C_0000104564426296396960
class C_0000104564426296396960 [[https://github.com/godotengine/godot/blob/faf3f883d1a25ec8a2b7a31ecc9e3363613b2478/./core/class_db.h#L94{ClassDB}]] {
__
}
class "CanvasItem" as C_0002074383603489565895
class C_0002074383603489565895 [[https://github.com/godotengine/godot/blob/faf3f883d1a25ec8a2b7a31ecc9e3363613b2478/./scene/2d/canvas_item.h#L165{CanvasItem}]] {
__
}
class "Node2D" as C_0002289363354048605759
class C_0002289363354048605759 [[https://github.com/godotengine/godot/blob/faf3f883d1a25ec8a2b7a31ecc9e3363613b2478/scene/2d/node_2d.h#L36{Node2D}]] {
__
}
C_0001296138246691404804 o- - C_0000053309527800613276 : +elements
C_0000104564426296396960 - -> C_0001858199404643284193 : +classes
C_0000104564426296396960 - -> C_0001858199404643284193 : +resource_base_extensions
C_0000104564426296396960 - -> C_0001858199404643284193 : +compat_classes
C_0000104564426296396960 - -> C_0001858199404643284193 : +default_values
C_0000104564426296396960 - -> C_0001858199404643284193 : +default_values_cached
C_0002074383603489565895 o- - C_0001858199404643284193 : -_class_name
C_0002074383603489565895 o- - C_0001296138246691404804 : -global_transform
C_0002074383603489565895 - -> C_0002074383603489565895 : -current_item_drawn
C_0002074383603489565895 <.. C_0000104564426296396960 : +<<friend>>
C_0002289363354048605759 o- - C_0001858199404643284193 : -_class_name
C_0002289363354048605759 o- - C_0000053309527800613276 : -pos
C_0002289363354048605759 o- - C_0000053309527800613276 : -_scale
C_0002289363354048605759 o- - C_0001296138246691404804 : -_mat
C_0002289363354048605759 <.. C_0000104564426296396960 : +<<friend>>
C_0002074383603489565895 <|- - C_0002289363354048605759

@enduml

PlantUML version 1.2020.02(Sun Mar 01 11:22:07 CET 2020)
(GPL source distribution)
Java Runtime: OpenJDK Runtime Environment
JVM: OpenJDK 64-Bit Server VM
Java Version: 11.0.19+7-post-Ubuntu-0ubuntu122.04.1
Operating System: Linux
Default Encoding: UTF-8
Language: en
Country: US
--></g></svg>