<?xml version="1.0" encoding="UTF-8" standalone="no"?><svg xmlns="http://www.w3.org/2000/svg" xmlns:xlink="http://www.w3.org/1999/xlink" contentScriptType="application/ecmascript" contentStyleType="text/css" height="1049px" preserveAspectRatio="none" style="width:1201px;height:1049px;" version="1.1" viewBox="0 0 1201 1049" width="1201px" zoomAndPan="magnify"><defs><filter height="300%" id="f1j0y3f2he3o3j" width="300%" x="-1" y="-1"><feGaussianBlur result="blurOut" stdDeviation="2.0"/><feColorMatrix in="blurOut" result="blurOut2" type="matrix" values="0 0 0 0 0 0 0 0 0 0 0 0 0 0 0 0 0 0 .4 0"/><feOffset dx="4.0" dy="4.0" in="blurOut2" result="blurOut3"/><feBlend in="SourceGraphic" in2="blurOut3" mode="normal"/></filter></defs><g><text fill="#000000" font-family="sans-serif" font-size="18" lengthAdjust="spacingAndGlyphs" textLength="251" x="478.5" y="16.708">Godot Node2D class context</text><!--MD5=[5a779d11372386480685e002af2832e5]
class C_0000945411446247634027--><a href="https://github.com/godotengine/godot/blob/faf3f883d1a25ec8a2b7a31ecc9e3363613b2478/./core/ustring.h#L126" target="_top" title="String" xlink:actuate="onRequest" xlink:href="https://github.com/godotengine/godot/blob/faf3f883d1a25ec8a2b7a31ecc9e3363613b2478/./core/ustring.h#L126" xlink:show="new" xlink:title="String" xlink:type="simple"><rect fill="#FEFECE" filter="url(#f1j0y3f2he3o3j)" height="48" id="C_0000945411446247634027" style="stroke: #A80036; stroke-width: 1.5;" width="69" x="476.5" y="90.9531"/><ellipse cx="491.5" cy="106.9531" fill="#ADD1B2" rx="11" ry="11" style="stroke: #A80036; stroke-width: 1.0;"/><path d="M494.4688,112.5938 Q493.8906,112.8906 493.25,113.0313 Q492.6094,113.1875 491.9063,113.1875 Q489.4063,113.1875 488.0781,111.5469 Q486.7656,109.8906 486.7656,106.7656 Q486.7656,103.6406 488.0781,101.9844 Q489.4063,100.3281 491.9063,100.3281 Q492.6094,100.3281 493.25,100.4844 Q493.9063,100.6406 494.4688,100.9375 L494.4688,103.6563 Q493.8438,103.0781 493.25,102.8125 Q492.6563,102.5313 492.0313,102.5313 Q490.6875,102.5313 490,103.6094 Q489.3125,104.6719 489.3125,106.7656 Q489.3125,108.8594 490,109.9375 Q490.6875,111 492.0313,111 Q492.6563,111 493.25,110.7344 Q493.8438,110.4531 494.4688,109.875 L494.4688,112.5938 Z "/><text fill="#000000" font-family="sans-serif" font-size="12" lengthAdjust="spacingAndGlyphs" textLength="37" x="505.5" y="111.1074">String</text><line style="stroke: #A80036; stroke-width: 1.5;" x1="477.5" x2="544.5" y1="122.9531" y2="122.9531"/><line style="stroke: #A80036; stroke-width: 1.5;" x1="477.5" x2="544.5" y1="130.9531" y2="130.9531"/></a><!--MD5=[8fa627e1efcccdd4a5cadae89d2de99a]
class C_0000053309527800613276--><a href="https://github.com/godotengine/godot/blob/faf3f883d1a25ec8a2b7a31ecc9e3363613b2478/./core/math/vector2.h#L39" target="_top" title="Vector2" xlink:actuate="onRequest" xlink:href="https://github.com/godotengine/godot/blob/faf3f883d1a25ec8a2b7a31ecc9e3363613b2478/./core/math/vector2.h#L39" xlink:show="new" xlink:title="Vector2" xlink:type="simple"><rect fill="#FEFECE" filter="url(#f1j0y3f2he3o3j)" height="48" id="C_0000053309527800613276" style="stroke: #A80036; stroke-width: 1.5;" width="81" x="1097" y="838.9531"/><ellipse cx="1112" cy="854.9531" fill="#ADD1B2" rx="11" ry="11" style="stroke: #A80036; stroke-width: 1.0;"/><path d="M1114.9688,860.5938 Q1114.3906,860.8906 1113.75,861.0313 Q1113.1094,861.1875 1112.4063,861.1875 Q1109.9063,861.1875 1108.5781,859.5469 Q1107.2656,857.8906 1107.2656,854.7656 Q1107.2656,851.6406 1108.5781,849.9844 Q1109.9063,848.3281 1112.4063,848.3281 Q1113.1094,848.3281 1113.75,848.4844 Q1114.4063,848.6406 1114.9688,848.9375 L1114.9688,851.6563 Q1114.3438,851.0781 1113.75,850.8125 Q1113.1563,850.5313 1112.5313,850.5313 Q1111.1875,850.5313 1110.5,851.6094 Q1109.8125,852.6719 1109.8125,854.7656 Q1109.8125,856.8594 1110.5,857.9375 Q1111.1875,859 1112.5313,859 Q1113.1563,859 1113.75,858.7344 Q1114.3438,858.4531 1114.9688,857.875 L1114.9688,860.5938 Z "/><text fill="#000000" font-family="sans-serif" font-size="12" lengthAdjust="spacingAndGlyphs" textLength="49" x="1126" y="859.1074">Vector2</text><line style="stroke: #A80036; stroke-width: 1.5;" x1="1098" x2="1177" y1="870.9531" y2="870.9531"/><line style="stroke: #A80036; stroke-width: 1.5;" x1="1098" x2="1177" y1="878.9531" y2="878.9531"/></a><!--MD5=[95596f2698764ec5ce873d557d6d762a]
class C_0000300688871447362916--><a href="https://github.com/godotengine/godot/blob/faf3f883d1a25ec8a2b7a31ecc9e3363613b2478/./core/math/rect2.h#L38" target="_top" title="Rect2" xlink:actuate="onRequest" xlink:href="https://github.com/godotengine/godot/blob/faf3f883d1a25ec8a2b7a31ecc9e3363613b2478/./core/math/rect2.h#L38" xlink:show="new" xlink:title="Rect2" xlink:type="simple"><rect fill="#FEFECE" filter="url(#f1j0y3f2he3o3j)" height="48" id="C_0000300688871447362916" style="stroke: #A80036; stroke-width: 1.5;" width="68" x="751" y="820.9531"/><ellipse cx="766" cy="836.9531" fill="#ADD1B2" rx="11" ry="11" style="stroke: #A80036; stroke-width: 1.0;"/><path d="M768.9688,842.5938 Q768.3906,842.8906 767.75,843.0313 Q767.1094,843.1875 766.4063,843.1875 Q763.9063,843.1875 762.5781,841.5469 Q761.2656,839.8906 761.2656,836.7656 Q761.2656,833.6406 762.5781,831.9844 Q763.9063,830.3281 766.4063,830.3281 Q767.1094,830.3281 767.75,830.4844 Q768.4063,830.6406 768.9688,830.9375 L768.9688,833.6563 Q768.3438,833.0781 767.75,832.8125 Q767.1563,832.5313 766.5313,832.5313 Q765.1875,832.5313 764.5,833.6094 Q763.8125,834.6719 763.8125,836.7656 Q763.8125,838.8594 764.5,839.9375 Q765.1875,841 766.5313,841 Q767.1563,841 767.75,840.7344 Q768.3438,840.4531 768.9688,839.875 L768.9688,842.5938 Z "/><text fill="#000000" font-family="sans-serif" font-size="12" lengthAdjust="spacingAndGlyphs" textLength="36" x="780" y="841.1074">Rect2</text><line style="stroke: #A80036; stroke-width: 1.5;" x1="752" x2="818" y1="852.9531" y2="852.9531"/><line style="stroke: #A80036; stroke-width: 1.5;" x1="752" x2="818" y1="860.9531" y2="860.9531"/></a><!--MD5=[ab7e3a949030d623a36ad5df74e79d00]
class C_0001296138246691404804--><a href="https://github.com/godotengine/godot/blob/faf3f883d1a25ec8a2b7a31ecc9e3363613b2478/./core/math/transform_2d.h#L37" target="_top" title="Transform2D" xlink:actuate="onRequest" xlink:href="https://github.com/godotengine/godot/blob/faf3f883d1a25ec8a2b7a31ecc9e3363613b2478/./core/math/transform_2d.h#L37" xlink:show="new" xlink:title="Transform2D" xlink:type="simple"><rect fill="#FEFECE" filter="url(#f1j0y3f2he3o3j)" height="48" id="C_0001296138246691404804" style="stroke: #A80036; stroke-width: 1.5;" width="112" x="729" y="990.9531"/><ellipse cx="744" cy="1006.9531" fill="#ADD1B2" rx="11" ry="11" style="stroke: #A80036; stroke-width: 1.0;"/><path d="M746.9688,1012.5938 Q746.3906,1012.8906 745.75,1013.0313 Q745.1094,1013.1875 744.4063,1013.1875 Q741.9063,1013.1875 740.5781,1011.5469 Q739.2656,1009.8906 739.2656,1006.7656 Q739.2656,1003.6406 740.5781,1001.9844 Q741.9063,1000.3281 744.4063,1000.3281 Q745.1094,1000.3281 745.75,1000.4844 Q746.4063,1000.6406 746.9688,1000.9375 L746.9688,1003.6563 Q746.3438,1003.0781 745.75,1002.8125 Q745.1563,1002.5313 744.5313,1002.5313 Q743.1875,1002.5313 742.5,1003.6094 Q741.8125,1004.6719 741.8125,1006.7656 Q741.8125,1008.8594 742.5,1009.9375 Q743.1875,1011 744.5313,1011 Q745.1563,1011 745.75,1010.7344 Q746.3438,1010.4531 746.9688,1009.875 L746.9688,1012.5938 Z "/><text fill="#000000" font-family="sans-serif" font-size="12" lengthAdjust="spacingAndGlyphs" textLength="80" x="758" y="1011.1074">Transform2D</text><line style="stroke: #A80036; stroke-width: 1.5;" x1="730" x2="840" y1="1022.9531" y2="1022.9531"/><line style="stroke: #A80036; stroke-width: 1.5;" x1="730" x2="840" y1="1030.9531" y2="1030.9531"/></a><!--MD5=[c9ab0454be9bc9dd8cd0824f6bdde71d]
class C_0001299121424291583786--><a href="https://github.com/godotengine/godot/blob/faf3f883d1a25ec8a2b7a31ecc9e3363613b2478/./core/dictionary.h#L42" target="_top" title="Dictionary" xlink:actuate="onRequest" xlink:href="https://github.com/godotengine/godot/blob/faf3f883d1a25ec8a2b7a31ecc9e3363613b2478/./core/dictionary.h#L42" xlink:show="new" xlink:title="Dictionary" xlink:type="simple"><rect fill="#FEFECE" filter="url(#f1j0y3f2he3o3j)" height="48" id="C_0001299121424291583786" style="stroke: #A80036; stroke-width: 1.5;" width="94" x="26" y="634.9531"/><ellipse cx="41" cy="650.9531" fill="#ADD1B2" rx="11" ry="11" style="stroke: #A80036; stroke-width: 1.0;"/><path d="M43.9688,656.5938 Q43.3906,656.8906 42.75,657.0313 Q42.1094,657.1875 41.4063,657.1875 Q38.9063,657.1875 37.5781,655.5469 Q36.2656,653.8906 36.2656,650.7656 Q36.2656,647.6406 37.5781,645.9844 Q38.9063,644.3281 41.4063,644.3281 Q42.1094,644.3281 42.75,644.4844 Q43.4063,644.6406 43.9688,644.9375 L43.9688,647.6563 Q43.3438,647.0781 42.75,646.8125 Q42.1563,646.5313 41.5313,646.5313 Q40.1875,646.5313 39.5,647.6094 Q38.8125,648.6719 38.8125,650.7656 Q38.8125,652.8594 39.5,653.9375 Q40.1875,655 41.5313,655 Q42.1563,655 42.75,654.7344 Q43.3438,654.4531 43.9688,653.875 L43.9688,656.5938 Z "/><text fill="#000000" font-family="sans-serif" font-size="12" lengthAdjust="spacingAndGlyphs" textLength="62" x="55" y="655.1074">Dictionary</text><line style="stroke: #A80036; stroke-width: 1.5;" x1="27" x2="119" y1="666.9531" y2="666.9531"/><line style="stroke: #A80036; stroke-width: 1.5;" x1="27" x2="119" y1="674.9531" y2="674.9531"/></a><!--MD5=[bdf481e0258441d9ea4c4f618bd16c94]
class C_0001858199404643284193--><a href="https://github.com/godotengine/godot/blob/faf3f883d1a25ec8a2b7a31ecc9e3363613b2478/./core/string_name.h#L44" target="_top" title="StringName" xlink:actuate="onRequest" xlink:href="https://github.com/godotengine/godot/blob/faf3f883d1a25ec8a2b7a31ecc9e3363613b2478/./core/string_name.h#L44" xlink:show="new" xlink:title="StringName" xlink:type="simple"><rect fill="#FEFECE" filter="url(#f1j0y3f2he3o3j)" height="48" id="C_0001858199404643284193" style="stroke: #A80036; stroke-width: 1.5;" width="105" x="1085" y="419.9531"/><ellipse cx="1100" cy="435.9531" fill="#ADD1B2" rx="11" ry="11" style="stroke: #A80036; stroke-width: 1.0;"/><path d="M1102.9688,441.5938 Q1102.3906,441.8906 1101.75,442.0313 Q1101.1094,442.1875 1100.4063,442.1875 Q1097.9063,442.1875 1096.5781,440.5469 Q1095.2656,438.8906 1095.2656,435.7656 Q1095.2656,432.6406 1096.5781,430.9844 Q1097.9063,429.3281 1100.4063,429.3281 Q1101.1094,429.3281 1101.75,429.4844 Q1102.4063,429.6406 1102.9688,429.9375 L1102.9688,432.6563 Q1102.3438,432.0781 1101.75,431.8125 Q1101.1563,431.5313 1100.5313,431.5313 Q1099.1875,431.5313 1098.5,432.6094 Q1097.8125,433.6719 1097.8125,435.7656 Q1097.8125,437.8594 1098.5,438.9375 Q1099.1875,440 1100.5313,440 Q1101.1563,440 1101.75,439.7344 Q1102.3438,439.4531 1102.9688,438.875 L1102.9688,441.5938 Z "/><text fill="#000000" font-family="sans-serif" font-size="12" lengthAdjust="spacingAndGlyphs" textLength="73" x="1114" y="440.1074">StringName</text><line style="stroke: #A80036; stroke-width: 1.5;" x1="1086" x2="1189" y1="451.9531" y2="451.9531"/><line style="stroke: #A80036; stroke-width: 1.5;" x1="1086" x2="1189" y1="459.9531" y2="459.9531"/></a><!--MD5=[a4093d4f9ea5ea0f34ea630196a7906a]
class C_0000788782266645010446--><rect fill="#FEFECE" filter="url(#f1j0y3f2he3o3j)" height="48" id="C_0000788782266645010446" style="stroke: #A80036; stroke-width: 1.5;" width="134" x="6" y="717.9531"/><ellipse cx="21" cy="733.9531" fill="#ADD1B2" rx="11" ry="11" style="stroke: #A80036; stroke-width: 1.0;"/><path d="M23.9688,739.5938 Q23.3906,739.8906 22.75,740.0313 Q22.1094,740.1875 21.4063,740.1875 Q18.9063,740.1875 17.5781,738.5469 Q16.2656,736.8906 16.2656,733.7656 Q16.2656,730.6406 17.5781,728.9844 Q18.9063,727.3281 21.4063,727.3281 Q22.1094,727.3281 22.75,727.4844 Q23.4063,727.6406 23.9688,727.9375 L23.9688,730.6563 Q23.3438,730.0781 22.75,729.8125 Q22.1563,729.5313 21.5313,729.5313 Q20.1875,729.5313 19.5,730.6094 Q18.8125,731.6719 18.8125,733.7656 Q18.8125,735.8594 19.5,736.9375 Q20.1875,738 21.5313,738 Q22.1563,738 22.75,737.7344 Q23.3438,737.4531 23.9688,736.875 L23.9688,739.5938 Z "/><text fill="#000000" font-family="sans-serif" font-size="12" lengthAdjust="spacingAndGlyphs" textLength="21" x="35" y="738.1074">List</text><rect fill="#FFFFFF" height="15.9688" style="stroke: #000000; stroke-width: 1.0; stroke-dasharray: 2.0,2.0;" width="79" x="64" y="714.9531"/><text fill="#000000" font-family="sans-serif" font-size="12" font-style="italic" lengthAdjust="spacingAndGlyphs" textLength="77" x="65" y="727.0918">PropertyInfo</text><line style="stroke: #A80036; stroke-width: 1.5;" x1="7" x2="139" y1="749.9531" y2="749.9531"/><line style="stroke: #A80036; stroke-width: 1.5;" x1="7" x2="139" y1="757.9531" y2="757.9531"/><!--MD5=[81164fdf4de04db55f7d70df92bbb983]
class C_0000210234563198599367--><a href="https://github.com/godotengine/godot/blob/faf3f883d1a25ec8a2b7a31ecc9e3363613b2478/./core/variant.h#L93" target="_top" title="Variant" xlink:actuate="onRequest" xlink:href="https://github.com/godotengine/godot/blob/faf3f883d1a25ec8a2b7a31ecc9e3363613b2478/./core/variant.h#L93" xlink:show="new" xlink:title="Variant" xlink:type="simple"><rect fill="#FEFECE" filter="url(#f1j0y3f2he3o3j)" height="48" id="C_0000210234563198599367" style="stroke: #A80036; stroke-width: 1.5;" width="77" x="1099" y="207.9531"/><ellipse cx="1114" cy="223.9531" fill="#ADD1B2" rx="11" ry="11" style="stroke: #A80036; stroke-width: 1.0;"/><path d="M1116.9688,229.5938 Q1116.3906,229.8906 1115.75,230.0313 Q1115.1094,230.1875 1114.4063,230.1875 Q1111.9063,230.1875 1110.5781,228.5469 Q1109.2656,226.8906 1109.2656,223.7656 Q1109.2656,220.6406 1110.5781,218.9844 Q1111.9063,217.3281 1114.4063,217.3281 Q1115.1094,217.3281 1115.75,217.4844 Q1116.4063,217.6406 1116.9688,217.9375 L1116.9688,220.6563 Q1116.3438,220.0781 1115.75,219.8125 Q1115.1563,219.5313 1114.5313,219.5313 Q1113.1875,219.5313 1112.5,220.6094 Q1111.8125,221.6719 1111.8125,223.7656 Q1111.8125,225.8594 1112.5,226.9375 Q1113.1875,228 1114.5313,228 Q1115.1563,228 1115.75,227.7344 Q1116.3438,227.4531 1116.9688,226.875 L1116.9688,229.5938 Z "/><text fill="#000000" font-family="sans-serif" font-size="12" lengthAdjust="spacingAndGlyphs" textLength="45" x="1128" y="228.1074">Variant</text><line style="stroke: #A80036; stroke-width: 1.5;" x1="1100" x2="1175" y1="239.9531" y2="239.9531"/><line style="stroke: #A80036; stroke-width: 1.5;" x1="1100" x2="1175" y1="247.9531" y2="247.9531"/></a><!--MD5=[48c1d650122612d88514dc7f32d5a165]
class C_0002153970433534458832--><a href="https://github.com/godotengine/godot/blob/faf3f883d1a25ec8a2b7a31ecc9e3363613b2478/./core/object.h#L144" target="_top" title="PropertyInfo" xlink:actuate="onRequest" xlink:href="https://github.com/godotengine/godot/blob/faf3f883d1a25ec8a2b7a31ecc9e3363613b2478/./core/object.h#L144" xlink:show="new" xlink:title="PropertyInfo" xlink:type="simple"><rect fill="#FEFECE" filter="url(#f1j0y3f2he3o3j)" height="48" id="C_0002153970433534458832" style="stroke: #A80036; stroke-width: 1.5;" width="108" x="201" y="109.9531"/><ellipse cx="216" cy="125.9531" fill="#ADD1B2" rx="11" ry="11" style="stroke: #A80036; stroke-width: 1.0;"/><path d="M218.9688,131.5938 Q218.3906,131.8906 217.75,132.0313 Q217.1094,132.1875 216.4063,132.1875 Q213.9063,132.1875 212.5781,130.5469 Q211.2656,128.8906 211.2656,125.7656 Q211.2656,122.6406 212.5781,120.9844 Q213.9063,119.3281 216.4063,119.3281 Q217.1094,119.3281 217.75,119.4844 Q218.4063,119.6406 218.9688,119.9375 L218.9688,122.6563 Q218.3438,122.0781 217.75,121.8125 Q217.1563,121.5313 216.5313,121.5313 Q215.1875,121.5313 214.5,122.6094 Q213.8125,123.6719 213.8125,125.7656 Q213.8125,127.8594 214.5,128.9375 Q215.1875,130 216.5313,130 Q217.1563,130 217.75,129.7344 Q218.3438,129.4531 218.9688,128.875 L218.9688,131.5938 Z "/><text fill="#000000" font-family="sans-serif" font-size="12" lengthAdjust="spacingAndGlyphs" textLength="76" x="230" y="130.1074">PropertyInfo</text><line style="stroke: #A80036; stroke-width: 1.5;" x1="202" x2="308" y1="141.9531" y2="141.9531"/><line style="stroke: #A80036; stroke-width: 1.5;" x1="202" x2="308" y1="149.9531" y2="149.9531"/></a><!--MD5=[e19ea3ddc80c91fbe5870b7030365a5f]
class C_0002063845175027013341--><rect fill="#FEFECE" filter="url(#f1j0y3f2he3o3j)" height="48" id="C_0002063845175027013341" style="stroke: #A80036; stroke-width: 1.5;" width="94" x="208" y="634.9531"/><ellipse cx="223" cy="650.9531" fill="#ADD1B2" rx="11" ry="11" style="stroke: #A80036; stroke-width: 1.0;"/><path d="M225.9688,656.5938 Q225.3906,656.8906 224.75,657.0313 Q224.1094,657.1875 223.4063,657.1875 Q220.9063,657.1875 219.5781,655.5469 Q218.2656,653.8906 218.2656,650.7656 Q218.2656,647.6406 219.5781,645.9844 Q220.9063,644.3281 223.4063,644.3281 Q224.1094,644.3281 224.75,644.4844 Q225.4063,644.6406 225.9688,644.9375 L225.9688,647.6563 Q225.3438,647.0781 224.75,646.8125 Q224.1563,646.5313 223.5313,646.5313 Q222.1875,646.5313 221.5,647.6094 Q220.8125,648.6719 220.8125,650.7656 Q220.8125,652.8594 221.5,653.9375 Q222.1875,655 223.5313,655 Q224.1563,655 224.75,654.7344 Q225.3438,654.4531 225.9688,653.875 L225.9688,656.5938 Z "/><text fill="#000000" font-family="sans-serif" font-size="12" lengthAdjust="spacingAndGlyphs" textLength="21" x="237" y="655.1074">List</text><rect fill="#FFFFFF" height="15.9688" style="stroke: #000000; stroke-width: 1.0; stroke-dasharray: 2.0,2.0;" width="39" x="266" y="631.9531"/><text fill="#000000" font-family="sans-serif" font-size="12" font-style="italic" lengthAdjust="spacingAndGlyphs" textLength="37" x="267" y="644.0918">String</text><line style="stroke: #A80036; stroke-width: 1.5;" x1="209" x2="301" y1="666.9531" y2="666.9531"/><line style="stroke: #A80036; stroke-width: 1.5;" x1="209" x2="301" y1="674.9531" y2="674.9531"/><!--MD5=[cefc1761acd014682fb46e6592f2db8a]
class C_0000104564426296396960--><a href="https://github.com/godotengine/godot/blob/faf3f883d1a25ec8a2b7a31ecc9e3363613b2478/./core/class_db.h#L94" target="_top" title="ClassDB" xlink:actuate="onRequest" xlink:href="https://github.com/godotengine/godot/blob/faf3f883d1a25ec8a2b7a31ecc9e3363613b2478/./core/class_db.h#L94" xlink:show="new" xlink:title="ClassDB" xlink:type="simple"><rect fill="#FEFECE" filter="url(#f1j0y3f2he3o3j)" height="48" id="C_0000104564426296396960" style="stroke: #A80036; stroke-width: 1.5;" width="82" x="744" y="419.9531"/><ellipse cx="759" cy="435.9531" fill="#ADD1B2" rx="11" ry="11" style="stroke: #A80036; stroke-width: 1.0;"/><path d="M761.9688,441.5938 Q761.3906,441.8906 760.75,442.0313 Q760.1094,442.1875 759.4063,442.1875 Q756.9063,442.1875 755.5781,440.5469 Q754.2656,438.8906 754.2656,435.7656 Q754.2656,432.6406 755.5781,430.9844 Q756.9063,429.3281 759.4063,429.3281 Q760.1094,429.3281 760.75,429.4844 Q761.4063,429.6406 761.9688,429.9375 L761.9688,432.6563 Q761.3438,432.0781 760.75,431.8125 Q760.1563,431.5313 759.5313,431.5313 Q758.1875,431.5313 757.5,432.6094 Q756.8125,433.6719 756.8125,435.7656 Q756.8125,437.8594 757.5,438.9375 Q758.1875,440 759.5313,440 Q760.1563,440 760.75,439.7344 Q761.3438,439.4531 761.9688,438.875 L761.9688,441.5938 Z "/><text fill="#000000" font-family="sans-serif" font-size="12" lengthAdjust="spacingAndGlyphs" textLength="50" x="773" y="440.1074">ClassDB</text><line style="stroke: #A80036; stroke-width: 1.5;" x1="745" x2="825" y1="451.9531" y2="451.9531"/><line style="stroke: #A80036; stroke-width: 1.5;" x1="745" x2="825" y1="459.9531" y2="459.9531"/></a><!--MD5=[dd2998d45ec54ba5be719aa7e503205b]
class C_0000218299049716973303--><a href="https://github.com/godotengine/godot/blob/faf3f883d1a25ec8a2b7a31ecc9e3363613b2478/./scene/main/node.h#L44" target="_top" title="Node" xlink:actuate="onRequest" xlink:href="https://github.com/godotengine/godot/blob/faf3f883d1a25ec8a2b7a31ecc9e3363613b2478/./scene/main/node.h#L44" xlink:show="new" xlink:title="Node" xlink:type="simple"><rect fill="#FEFECE" filter="url(#f1j0y3f2he3o3j)" height="48" id="C_0000218299049716973303" style="stroke: #A80036; stroke-width: 1.5;" width="65" x="40.5" y="411.9531"/><ellipse cx="55.5" cy="427.9531" fill="#ADD1B2" rx="11" ry="11" style="stroke: #A80036; stroke-width: 1.0;"/><path d="M58.4688,433.5938 Q57.8906,433.8906 57.25,434.0313 Q56.6094,434.1875 55.9063,434.1875 Q53.4063,434.1875 52.0781,432.5469 Q50.7656,430.8906 50.7656,427.7656 Q50.7656,424.6406 52.0781,422.9844 Q53.4063,421.3281 55.9063,421.3281 Q56.6094,421.3281 57.25,421.4844 Q57.9063,421.6406 58.4688,421.9375 L58.4688,424.6563 Q57.8438,424.0781 57.25,423.8125 Q56.6563,423.5313 56.0313,423.5313 Q54.6875,423.5313 54,424.6094 Q53.3125,425.6719 53.3125,427.7656 Q53.3125,429.8594 54,430.9375 Q54.6875,432 56.0313,432 Q56.6563,432 57.25,431.7344 Q57.8438,431.4531 58.4688,430.875 L58.4688,433.5938 Z "/><text fill="#000000" font-family="sans-serif" font-size="12" lengthAdjust="spacingAndGlyphs" textLength="33" x="69.5" y="432.1074">Node</text><line style="stroke: #A80036; stroke-width: 1.5;" x1="41.5" x2="104.5" y1="443.9531" y2="443.9531"/><line style="stroke: #A80036; stroke-width: 1.5;" x1="41.5" x2="104.5" y1="451.9531" y2="451.9531"/></a><!--MD5=[eb192d77dba9a1188ad367651d748528]
class C_0002074383603489565895--><a href="https://github.com/godotengine/godot/blob/faf3f883d1a25ec8a2b7a31ecc9e3363613b2478/./scene/2d/canvas_item.h#L165" target="_top" title="CanvasItem" xlink:actuate="onRequest" xlink:href="https://github.com/godotengine/godot/blob/faf3f883d1a25ec8a2b7a31ecc9e3363613b2478/./scene/2d/canvas_item.h#L165" xlink:show="new" xlink:title="CanvasItem" xlink:type="simple"><rect fill="#FEFECE" filter="url(#f1j0y3f2he3o3j)" height="48" id="C_0002074383603489565895" style="stroke: #A80036; stroke-width: 1.5;" width="104" x="203" y="551.9531"/><ellipse cx="218" cy="567.9531" fill="#A9DCDF" rx="11" ry="11" style="stroke: #A80036; stroke-width: 1.0;"/><path d="M218.1094,563.2969 L216.9531,568.375 L219.2813,568.375 L218.1094,563.2969 Z M216.625,561.0625 L219.6094,561.0625 L222.9688,573.4531 L220.5156,573.4531 L219.75,570.3906 L216.4688,570.3906 L215.7188,573.4531 L213.2813,573.4531 L216.625,561.0625 Z "/><text fill="#000000" font-family="sans-serif" font-size="12" font-style="italic" lengthAdjust="spacingAndGlyphs" textLength="72" x="232" y="572.1074">CanvasItem</text><line style="stroke: #A80036; stroke-width: 1.5;" x1="204" x2="306" y1="583.9531" y2="583.9531"/><line style="stroke: #A80036; stroke-width: 1.5;" x1="204" x2="306" y1="591.9531" y2="591.9531"/></a><!--MD5=[6819c02738426d8b4a0c51cbdd89c521]
class C_0002289363354048605759--><a href="https://github.com/godotengine/godot/blob/faf3f883d1a25ec8a2b7a31ecc9e3363613b2478/scene/2d/node_2d.h#L36" target="_top" title="Node2D" xlink:actuate="onRequest" xlink:href="https://github.com/godotengine/godot/blob/faf3f883d1a25ec8a2b7a31ecc9e3363613b2478/scene/2d/node_2d.h#L36" xlink:show="new" xlink:title="Node2D" xlink:type="simple"><rect fill="#FEFECE" filter="url(#f1j0y3f2he3o3j)" height="48" id="C_0002289363354048605759" style="stroke: #A80036; stroke-width: 1.5;" width="82" x="470" y="705.9531"/><ellipse cx="485" cy="721.9531" fill="#ADD1B2" rx="11" ry="11" style="stroke: #A80036; stroke-width: 1.0;"/><path d="M487.9688,727.5938 Q487.3906,727.8906 486.75,728.0313 Q486.1094,728.1875 485.4063,728.1875 Q482.9063,728.1875 481.5781,726.5469 Q480.2656,724.8906 480.2656,721.7656 Q480.2656,718.6406 481.5781,716.9844 Q482.9063,715.3281 485.4063,715.3281 Q486.1094,715.3281 486.75,715.4844 Q487.4063,715.6406 487.9688,715.9375 L487.9688,718.6563 Q487.3438,718.0781 486.75,717.8125 Q486.1563,717.5313 485.5313,717.5313 Q484.1875,717.5313 483.5,718.6094 Q482.8125,719.6719 482.8125,721.7656 Q482.8125,723.8594 483.5,724.9375 Q484.1875,726 485.5313,726 Q486.1563,726 486.75,725.7344 Q487.3438,725.4531 487.9688,724.875 L487.9688,727.5938 Z "/><text fill="#000000" font-family="sans-serif" font-size="12" lengthAdjust="spacingAndGlyphs" textLength="50" x="499" y="726.1074">Node2D</text><line style="stroke: #A80036; stroke-width: 1.5;" x1="471" x2="551" y1="737.9531" y2="737.9531"/><line style="stroke: #A80036; stroke-width: 1.5;" x1="471" x2="551" y1="745.9531" y2="745.9531"/></a><!--MD5=[4c9c7e9fa624d339c5be6a15aac515e8]
link C_0000945411446247634027 to C_0000945411446247634027--><path d="M489.25,90.7131 C482.17,73.3031 489.42,55.9531 511,55.9531 C530.56,55.9531 538.35,70.2031 534.36,85.8331 " fill="none" id="C_0000945411446247634027-&gt;C_0000945411446247634027" style="stroke: #A80036; stroke-width: 1.0;"/><polygon fill="#A80036" points="532.75,90.7131,539.3776,83.4279,534.3226,85.9669,531.7836,80.9118,532.75,90.7131" style="stroke: #A80036; stroke-width: 1.0;"/><ellipse cx="411" cy="43.0195" fill="none" rx="3" ry="3" style="stroke: #038048; stroke-width: 1.0;"/><text fill="#000000" font-family="sans-serif" font-size="13" lengthAdjust="spacingAndGlyphs" textLength="198" x="418" y="47.02">invalid_node_name_characters</text><!--MD5=[9629988d9e1ee9f80b3cd7e331e1c307]
reverse link C_0000300688871447362916 to C_0000053309527800613276--><path d="M832.41,841.9031 C886.15,839.0831 977.27,836.4731 1055,844.9531 C1068.83,846.4631 1083.75,849.3731 1096.99,852.4131 " fill="none" id="C_0000300688871447362916&lt;-C_0000053309527800613276" style="stroke: #A80036; stroke-width: 1.0;"/><polygon fill="#FFFFFF" points="819.26,842.6431,825.4746,846.3007,831.2412,841.9709,825.0265,838.3133,819.26,842.6431" style="stroke: #A80036; stroke-width: 1.0;"/><ellipse cx="937" cy="832.0195" fill="none" rx="3" ry="3" style="stroke: #038048; stroke-width: 1.0;"/><text fill="#000000" font-family="sans-serif" font-size="13" lengthAdjust="spacingAndGlyphs" textLength="50" x="944" y="836.02">position</text><!--MD5=[9629988d9e1ee9f80b3cd7e331e1c307]
reverse link C_0000300688871447362916 to C_0000053309527800613276--><path d="M831.63,860.9731 C844.23,864.6831 858.01,868.0831 871,869.9531 C950.41,881.3931 1044.53,874.0431 1096.67,868.1631 " fill="none" id="C_0000300688871447362916&lt;-C_0000053309527800613276-1" style="stroke: #A80036; stroke-width: 1.0;"/><polygon fill="#FFFFFF" points="819.02,857.0531,823.563,862.6533,830.4796,860.6136,825.9366,855.0135,819.02,857.0531" style="stroke: #A80036; stroke-width: 1.0;"/><ellipse cx="949.5" cy="862.0195" fill="none" rx="3" ry="3" style="stroke: #038048; stroke-width: 1.0;"/><text fill="#000000" font-family="sans-serif" font-size="13" lengthAdjust="spacingAndGlyphs" textLength="25" x="956.5" y="866.02">size</text><!--MD5=[ef8688b7a9f08943ee9e274fdcea5f32]
reverse link C_0001296138246691404804 to C_0000053309527800613276--><path d="M854.47,1014.8131 C911.76,1011.8331 993.75,1000.6331 1055,963.9531 C1085.93,945.4331 1110.03,910.6031 1123.76,887.0931 " fill="none" id="C_0001296138246691404804&lt;-C_0000053309527800613276" style="stroke: #A80036; stroke-width: 1.0;"/><polygon fill="#FFFFFF" points="841.18,1015.3831,847.3459,1019.1223,853.169,1014.8687,847.003,1011.1296,841.18,1015.3831" style="stroke: #A80036; stroke-width: 1.0;"/><ellipse cx="932" cy="956.0195" fill="none" rx="3" ry="3" style="stroke: #038048; stroke-width: 1.0;"/><text fill="#000000" font-family="sans-serif" font-size="13" lengthAdjust="spacingAndGlyphs" textLength="60" x="939" y="960.02">elements</text><!--MD5=[d934a0270b0ad177cfb5d143cb8bbb45]
reverse link C_0002153970433534458832 to C_0000945411446247634027--><path d="M322.34,118.2931 C327.95,117.3531 333.56,116.5531 339,115.9531 C386.51,110.7231 441.9,111.6731 476.46,113.1031 " fill="none" id="C_0002153970433534458832&lt;-C_0000945411446247634027" style="stroke: #A80036; stroke-width: 1.0;"/><polygon fill="#FFFFFF" points="309.31,120.6831,315.9358,123.529,321.1111,118.5075,314.4854,115.6616,309.31,120.6831" style="stroke: #A80036; stroke-width: 1.0;"/><ellipse cx="360" cy="105.0195" fill="none" rx="3" ry="3" style="stroke: #038048; stroke-width: 1.0;"/><text fill="#000000" font-family="sans-serif" font-size="13" lengthAdjust="spacingAndGlyphs" textLength="37" x="367" y="109.02">name</text><!--MD5=[d934a0270b0ad177cfb5d143cb8bbb45]
reverse link C_0002153970433534458832 to C_0000945411446247634027--><path d="M322.37,142.2831 C352.32,144.6331 388.07,145.4731 420,140.9531 C439,138.2631 459.61,132.5331 476.3,127.1331 " fill="none" id="C_0002153970433534458832&lt;-C_0000945411446247634027-1" style="stroke: #A80036; stroke-width: 1.0;"/><polygon fill="#FFFFFF" points="309.05,141.1131,314.6753,145.6248,321.0036,142.1675,315.3782,137.6558,309.05,141.1131" style="stroke: #A80036; stroke-width: 1.0;"/><ellipse cx="345" cy="133.0195" fill="none" rx="3" ry="3" style="stroke: #038048; stroke-width: 1.0;"/><text fill="#000000" font-family="sans-serif" font-size="13" lengthAdjust="spacingAndGlyphs" textLength="67" x="352" y="137.02">hint_string</text><!--MD5=[f7e72b70e63c22ae83a0fc14835e215b]
reverse link C_0002153970433534458832 to C_0001858199404643284193--><path d="M322.41,149.8131 C328.01,150.9531 333.59,152.0131 339,152.9531 C654.75,207.6731 801.08,42.4631 1055,237.9531 C1085.02,261.0631 1117.1,370.5931 1130.29,419.8531 " fill="none" id="C_0002153970433534458832&lt;-C_0001858199404643284193" style="stroke: #A80036; stroke-width: 1.0;"/><polygon fill="#FFFFFF" points="309.41,147.0631,314.4482,152.2222,321.1482,149.5559,316.11,144.3967,309.41,147.0631" style="stroke: #A80036; stroke-width: 1.0;"/><ellipse cx="611.5" cy="138.0195" fill="none" rx="3" ry="3" style="stroke: #038048; stroke-width: 1.0;"/><text fill="#000000" font-family="sans-serif" font-size="13" lengthAdjust="spacingAndGlyphs" textLength="76" x="618.5" y="142.02">class_name</text><!--MD5=[1259c5a3a05eb23b6b415165781cedc4]
link C_0000104564426296396960 to C_0001858199404643284193--><path d="M826.37,433.6031 C840.4,430.4931 856.3,427.4931 871,425.9531 C952.33,417.4331 973.7,417.0831 1055,425.9531 C1062.99,426.8231 1071.35,428.1631 1079.54,429.7331 " fill="none" id="C_0000104564426296396960-&gt;C_0001858199404643284193" style="stroke: #A80036; stroke-width: 1.0;"/><polygon fill="#A80036" points="1084.61,430.7331,1076.5597,425.0593,1079.7055,429.7608,1075.004,432.9066,1084.61,430.7331" style="stroke: #A80036; stroke-width: 1.0;"/><ellipse cx="938.5" cy="412.0195" fill="none" rx="3" ry="3" style="stroke: #038048; stroke-width: 1.0;"/><text fill="#000000" font-family="sans-serif" font-size="13" lengthAdjust="spacingAndGlyphs" textLength="47" x="945.5" y="416.02">classes</text><!--MD5=[1259c5a3a05eb23b6b415165781cedc4]
link C_0000104564426296396960 to C_0001858199404643284193--><path d="M826.17,447.9431 C840.32,449.1631 856.35,450.3531 871,450.9531 C952.71,454.3131 973.3,454.4531 1055,450.9531 C1062.99,450.6131 1071.41,450.0831 1079.68,449.4631 " fill="none" id="C_0000104564426296396960-&gt;C_0001858199404643284193-1" style="stroke: #A80036; stroke-width: 1.0;"/><polygon fill="#A80036" points="1084.81,449.0631,1075.5283,445.7692,1079.8249,449.4488,1076.1453,453.7454,1084.81,449.0631" style="stroke: #A80036; stroke-width: 1.0;"/><ellipse cx="877" cy="443.0195" fill="none" rx="3" ry="3" style="stroke: #038048; stroke-width: 1.0;"/><text fill="#000000" font-family="sans-serif" font-size="13" lengthAdjust="spacingAndGlyphs" textLength="170" x="884" y="447.02">resource_base_extensions</text><!--MD5=[1259c5a3a05eb23b6b415165781cedc4]
link C_0000104564426296396960 to C_0001858199404643284193--><path d="M826.06,464.2131 C839.93,470.1931 855.81,475.9531 871,478.9531 C951.22,494.8231 974.9,495.4231 1055,478.9531 C1064.85,476.9231 1074.98,473.6531 1084.61,469.9131 " fill="none" id="C_0000104564426296396960-&gt;C_0001858199404643284193-2" style="stroke: #A80036; stroke-width: 1.0;"/><polygon fill="#A80036" points="1089.29,468.0331,1079.4468,467.6983,1084.6546,469.9073,1082.4456,475.1151,1089.29,468.0331" style="stroke: #A80036; stroke-width: 1.0;"/><ellipse cx="910.5" cy="471.0195" fill="none" rx="3" ry="3" style="stroke: #038048; stroke-width: 1.0;"/><text fill="#000000" font-family="sans-serif" font-size="13" lengthAdjust="spacingAndGlyphs" textLength="103" x="917.5" y="475.02">compat_classes</text><!--MD5=[1259c5a3a05eb23b6b415165781cedc4]
link C_0000104564426296396960 to C_0001858199404643284193--><path d="M805.49,468.0531 C821.12,485.3431 844.73,507.2231 871,516.9531 C947.68,545.3631 978.62,546.1631 1055,516.9531 C1078.55,507.9431 1099.59,488.6531 1114.4,472.1631 " fill="none" id="C_0000104564426296396960-&gt;C_0001858199404643284193-3" style="stroke: #A80036; stroke-width: 1.0;"/><polygon fill="#A80036" points="1118.02,468.0331,1109.0676,472.1386,1114.7133,471.7836,1115.0683,477.4293,1118.02,468.0331" style="stroke: #A80036; stroke-width: 1.0;"/><ellipse cx="916" cy="509.0195" fill="none" rx="3" ry="3" style="stroke: #038048; stroke-width: 1.0;"/><text fill="#000000" font-family="sans-serif" font-size="13" lengthAdjust="spacingAndGlyphs" textLength="92" x="923" y="513.02">default_values</text><!--MD5=[1259c5a3a05eb23b6b415165781cedc4]
link C_0000104564426296396960 to C_0001858199404643284193--><path d="M818.53,419.8231 C833.67,410.0631 852.41,399.9331 871,394.9531 C950,373.8131 976.2,373.0931 1055,394.9531 C1071.15,399.4331 1087.31,408.0631 1100.93,416.8531 " fill="none" id="C_0000104564426296396960-&gt;C_0001858199404643284193-4" style="stroke: #A80036; stroke-width: 1.0;"/><polygon fill="#A80036" points="1105.45,419.8331,1100.1474,411.5336,1101.2788,417.0761,1095.7362,418.2075,1105.45,419.8331" style="stroke: #A80036; stroke-width: 1.0;"/><ellipse cx="889.5" cy="371.0195" fill="none" rx="3" ry="3" style="stroke: #038048; stroke-width: 1.0;"/><text fill="#000000" font-family="sans-serif" font-size="13" lengthAdjust="spacingAndGlyphs" textLength="145" x="896.5" y="375.02">default_values_cached</text><!--MD5=[ba964ffb66bb1329413fe3c100b0ab0b]
link C_0000104564426296396960 to C_0000210234563198599367--><path d="M804.5,419.7131 C820.45,400.0431 844.98,372.6231 871,353.9531 C942.62,302.5731 1039.33,264.7331 1094.07,245.7331 " fill="none" id="C_0000104564426296396960-&gt;C_0000210234563198599367" style="stroke: #A80036; stroke-width: 1.0;"/><polygon fill="#A80036" points="1098.91,244.0631,1089.098,243.2119,1094.1825,245.6913,1091.7031,250.7758,1098.91,244.0631" style="stroke: #A80036; stroke-width: 1.0;"/><ellipse cx="916" cy="255.0195" fill="none" rx="3" ry="3" style="stroke: #038048; stroke-width: 1.0;"/><text fill="#000000" font-family="sans-serif" font-size="13" lengthAdjust="spacingAndGlyphs" textLength="92" x="923" y="259.02">default_values</text><!--MD5=[b642425c83424b61917059e5da81b445]
reverse link C_0000218299049716973303 to C_0001858199404643284193--><path d="M95.81,400.9231 C125.72,357.7231 183.82,289.9531 254,289.9531 C254,289.9531 254,289.9531 786,289.9531 C908.89,289.9531 949.23,291.3731 1055,353.9531 C1082.76,370.3731 1106.45,399.3131 1121.02,419.9431 " fill="none" id="C_0000218299049716973303&lt;-C_0001858199404643284193" style="stroke: #A80036; stroke-width: 1.0;"/><polygon fill="#FFFFFF" points="88.48,411.8431,95.144,409.0879,95.1638,401.8768,88.4998,404.632,88.48,411.8431" style="stroke: #A80036; stroke-width: 1.0;"/><rect fill="none" height="6" style="stroke: #C82930; stroke-width: 1.0;" width="6" x="465.5" y="279.0195"/><text fill="#000000" font-family="sans-serif" font-size="13" lengthAdjust="spacingAndGlyphs" textLength="83" x="475.5" y="286.02">_class_name</text><!--MD5=[b604a94a8074bade127c96b8a1da6977]
reverse link C_0000218299049716973303 to C_0000104564426296396960--><path d="M111.13,436.3731 C232.61,437.7431 617.66,442.0831 743.66,443.5031 " fill="none" id="C_0000218299049716973303&lt;-C_0000104564426296396960" style="stroke: #A80036; stroke-width: 1.0; stroke-dasharray: 7.0,7.0;"/><polygon fill="#A80036" points="105.89,436.3131,114.8437,440.4157,110.8897,436.3703,114.9351,432.4162,105.89,436.3131" style="stroke: #A80036; stroke-width: 1.0;"/><ellipse cx="352.5" cy="431.0195" fill="none" rx="3" ry="3" style="stroke: #038048; stroke-width: 1.0;"/><text fill="#000000" font-family="sans-serif" font-size="13" lengthAdjust="spacingAndGlyphs" textLength="52" x="359.5" y="435.02">«friend»</text><!--MD5=[208c0dda235c298627a059cb6fd90643]
reverse link C_0002074383603489565895 to C_0001858199404643284193--><path d="M320.38,590.8131 C462.19,620.0131 808.49,671.8131 1055,546.9531 C1088.16,530.1631 1112.13,492.9931 1125.18,468.2031 " fill="none" id="C_0002074383603489565895&lt;-C_0001858199404643284193" style="stroke: #A80036; stroke-width: 1.0;"/><polygon fill="#FFFFFF" points="307.3,588.0631,312.3493,593.2114,319.0436,590.5306,313.9943,585.3823,307.3,588.0631" style="stroke: #A80036; stroke-width: 1.0;"/><rect fill="none" height="6" style="stroke: #C82930; stroke-width: 1.0;" width="6" x="605" y="615.0195"/><text fill="#000000" font-family="sans-serif" font-size="13" lengthAdjust="spacingAndGlyphs" textLength="83" x="615" y="622.02">_class_name</text><!--MD5=[dc8a101c766364166eef2161871b3f09]
reverse link C_0002074383603489565895 to C_0000945411446247634027--><path d="M273.48,539.7031 C289.89,506.0731 315.36,454.7431 339,410.9531 C394.25,308.5931 465.14,189.4631 495.33,139.2431 " fill="none" id="C_0002074383603489565895&lt;-C_0000945411446247634027" style="stroke: #A80036; stroke-width: 1.0;"/><polygon fill="#FFFFFF" points="267.66,551.6831,273.8766,548.0288,272.8943,540.8849,266.6777,544.5392,267.66,551.6831" style="stroke: #A80036; stroke-width: 1.0;"/><rect fill="none" height="6" style="stroke: #C82930; stroke-width: 1.0;" width="6" x="357" y="262.0195"/><text fill="#000000" font-family="sans-serif" font-size="13" lengthAdjust="spacingAndGlyphs" textLength="37" x="367" y="269.02">group</text><!--MD5=[afd1aea1ec5cee6a64d7dc349dc64f1b]
reverse link C_0002074383603489565895 to C_0001296138246691404804--><path d="M301.78,608.9531 C304.35,611.5331 306.78,614.2031 309,616.9531 C328.46,641.1031 322.3,653.8231 339,679.9531 C437.55,834.2231 440.34,911.0531 602,996.9531 C640.83,1017.5831 690.92,1021.1631 728.72,1020.1031 " fill="none" id="C_0002074383603489565895&lt;-C_0001296138246691404804" style="stroke: #A80036; stroke-width: 1.0;"/><polygon fill="#FFFFFF" points="292.01,600.0731,293.7579,607.0692,300.8881,608.1465,299.1402,601.1505,292.01,600.0731" style="stroke: #A80036; stroke-width: 1.0;"/><rect fill="none" height="6" style="stroke: #C82930; stroke-width: 1.0;" width="6" x="453" y="859.0195"/><text fill="#000000" font-family="sans-serif" font-size="13" lengthAdjust="spacingAndGlyphs" textLength="108" x="463" y="866.02">global_transform</text><!--MD5=[a3df4fe4f220f4afa7c7fc465542181b]
link C_0002074383603489565895 to C_0002074383603489565895--><path d="M240.95,551.7131 C236.37,534.3031 241.05,516.9531 255,516.9531 C267.53,516.9531 272.58,530.9531 270.16,546.4231 " fill="none" id="C_0002074383603489565895-&gt;C_0002074383603489565895" style="stroke: #A80036; stroke-width: 1.0;"/><polygon fill="#A80036" points="269.05,551.7131,274.7959,543.7141,270.0663,546.8175,266.9629,542.0879,269.05,551.7131" style="stroke: #A80036; stroke-width: 1.0;"/><rect fill="none" height="6" style="stroke: #C82930; stroke-width: 1.0;" width="6" x="187.5" y="501.0195"/><text fill="#000000" font-family="sans-serif" font-size="13" lengthAdjust="spacingAndGlyphs" textLength="127" x="197.5" y="508.02">current_item_drawn</text><!--MD5=[5b551e6b697c4ae3c6c9e93874a3a897]
reverse link C_0002074383603489565895 to C_0000104564426296396960--><path d="M312.12,561.9231 C419.31,535.1231 650.79,477.2531 743.95,453.9631 " fill="none" id="C_0002074383603489565895&lt;-C_0000104564426296396960" style="stroke: #A80036; stroke-width: 1.0; stroke-dasharray: 7.0,7.0;"/><polygon fill="#A80036" points="307.11,563.1731,316.8114,564.8709,311.9607,561.9604,314.8711,557.1097,307.11,563.1731" style="stroke: #A80036; stroke-width: 1.0;"/><ellipse cx="484" cy="492.0195" fill="none" rx="3" ry="3" style="stroke: #038048; stroke-width: 1.0;"/><text fill="#000000" font-family="sans-serif" font-size="13" lengthAdjust="spacingAndGlyphs" textLength="52" x="491" y="496.02">«friend»</text><!--MD5=[844861f4e9e16f97a73f767c2da5e8f0]
reverse link C_0000218299049716973303 to C_0002074383603489565895--><path d="M120.75,472.3131 C152.91,497.3231 194.72,529.8431 222.86,551.7331 " fill="none" id="C_0000218299049716973303&lt;-C_0002074383603489565895" style="stroke: #A80036; stroke-width: 1.0;"/><polygon fill="none" points="116.43,477.8231,104.94,460.0231,125.03,466.7731,116.43,477.8231" style="stroke: #A80036; stroke-width: 1.0;"/><!--MD5=[3dc2ca534d90f0fcfb562c5d6ae1ec53]
reverse link C_0002289363354048605759 to C_0001858199404643284193--><path d="M565.56,727.7931 C687.23,721.8731 979.71,701.6631 1055,641.9531 C1110.19,598.1831 1128.33,510.7231 1134.03,468.2331 " fill="none" id="C_0002289363354048605759&lt;-C_0001858199404643284193" style="stroke: #A80036; stroke-width: 1.0;"/><polygon fill="#FFFFFF" points="552.28,728.4131,558.4623,732.1251,564.2666,727.8461,558.0843,724.1341,552.28,728.4131" style="stroke: #A80036; stroke-width: 1.0;"/><rect fill="none" height="6" style="stroke: #C82930; stroke-width: 1.0;" width="6" x="739.5" y="693.0195"/><text fill="#000000" font-family="sans-serif" font-size="13" lengthAdjust="spacingAndGlyphs" textLength="83" x="749.5" y="700.02">_class_name</text><!--MD5=[e1c81cfbaff1c53a4f32d17cf37c9056]
reverse link C_0002289363354048605759 to C_0000053309527800613276--><path d="M565.29,731.6931 C664.48,736.3531 882.97,753.3731 1055,814.9531 C1071.39,820.8231 1088.18,830.0531 1102.23,838.8731 " fill="none" id="C_0002289363354048605759&lt;-C_0000053309527800613276" style="stroke: #A80036; stroke-width: 1.0;"/><polygon fill="#FFFFFF" points="552.1,731.1131,557.9184,735.373,564.0884,731.6407,558.27,727.3808,552.1,731.1131" style="stroke: #A80036; stroke-width: 1.0;"/><rect fill="none" height="6" style="stroke: #C82930; stroke-width: 1.0;" width="6" x="769.5" y="735.0195"/><text fill="#000000" font-family="sans-serif" font-size="13" lengthAdjust="spacingAndGlyphs" textLength="23" x="779.5" y="742.02">pos</text><!--MD5=[e1c81cfbaff1c53a4f32d17cf37c9056]
reverse link C_0002289363354048605759 to C_0000053309527800613276--><path d="M540.64,764.0731 C578.61,806.3531 650.09,876.2231 729,903.9531 C857.8,949.2131 1022.62,903.5231 1096.98,877.8431 " fill="none" id="C_0002289363354048605759&lt;-C_0000053309527800613276-1" style="stroke: #A80036; stroke-width: 1.0;"/><polygon fill="#FFFFFF" points="531.95,754.2131,532.9166,761.3592,539.8847,763.2154,538.9181,756.0694,531.95,754.2131" style="stroke: #A80036; stroke-width: 1.0;"/><rect fill="none" height="6" style="stroke: #C82930; stroke-width: 1.0;" width="6" x="761" y="893.0195"/><text fill="#000000" font-family="sans-serif" font-size="13" lengthAdjust="spacingAndGlyphs" textLength="40" x="771" y="900.02">_scale</text><!--MD5=[eca0b1c865317536e8e6656357133ac0]
reverse link C_0002289363354048605759 to C_0001296138246691404804--><path d="M516,767.2131 C523.53,818.8731 544.65,911.7531 602,963.9531 C620.63,980.9031 682.35,995.8631 728.79,1005.1231 " fill="none" id="C_0002289363354048605759&lt;-C_0001296138246691404804" style="stroke: #A80036; stroke-width: 1.0;"/><polygon fill="#FFFFFF" points="514.25,754.1131,511.0832,760.5917,515.8455,766.0066,519.0122,759.528,514.25,754.1131" style="stroke: #A80036; stroke-width: 1.0;"/><rect fill="none" height="6" style="stroke: #C82930; stroke-width: 1.0;" width="6" x="630" y="953.0195"/><text fill="#000000" font-family="sans-serif" font-size="13" lengthAdjust="spacingAndGlyphs" textLength="33" x="640" y="960.02">_mat</text><!--MD5=[814e220375a0bfd12a745b29dfae6f13]
reverse link C_0002289363354048605759 to C_0000104564426296396960--><path d="M556.88,709.3431 C571.22,702.9331 587.2,695.9831 602,689.9531 C644.59,672.6031 666.01,685.9931 699,653.9531 C752.61,601.8931 773.46,511.4331 780.65,468.2531 " fill="none" id="C_0002289363354048605759&lt;-C_0000104564426296396960" style="stroke: #A80036; stroke-width: 1.0; stroke-dasharray: 7.0,7.0;"/><polygon fill="#A80036" points="552.09,711.4931,561.9388,711.4732,556.6549,709.4532,558.6749,704.1693,552.09,711.4931" style="stroke: #A80036; stroke-width: 1.0;"/><ellipse cx="623.5" cy="646.0195" fill="none" rx="3" ry="3" style="stroke: #038048; stroke-width: 1.0;"/><text fill="#000000" font-family="sans-serif" font-size="13" lengthAdjust="spacingAndGlyphs" textLength="52" x="630.5" y="650.02">«friend»</text><!--MD5=[53255873fd636afdcc2a0189ef9318cd]
reverse link C_0002074383603489565895 to C_0002289363354048605759--><path d="M312.98,610.5031 C360.82,639.5031 427.93,680.1931 470.17,705.8031 " fill="none" id="C_0002074383603489565895&lt;-C_0002289363354048605759" style="stroke: #A80036; stroke-width: 1.0;"/><polygon fill="none" points="309.16,616.3731,295.69,600.0131,316.42,604.4031,309.16,616.3731" style="stroke: #A80036; stroke-width: 1.0;"/><!--MD5=[81e721de2d1eb555ff841326008d6e3a]
link C_0001299121424291583786 to C_0000788782266645010446--><!--MD5=[f75099137f58b7131bb9ee0e6a9c92cd]
link C_0001299121424291583786 to C_0002063845175027013341--><!--MD5=[1ed74b76ba30da34503735d8a850ed73]
@startuml
title Godot Node2D class context
left to right direction
class "String" as C_0000945411446247634027
class C_0000945411446247634027 [[https://github.com/godotengine/godot/blob/faf3f883d1a25ec8a2b7a31ecc9e3363613b2478/./core/ustring.h#L126{String}]] {
}
class "Vector2" as C_0000053309527800613276
class C_0000053309527800613276 [[https://github.com/godotengine/godot/blob/faf3f883d1a25ec8a2b7a31ecc9e3363613b2478/./core/math/vector2.h#L39{Vector2}]] {
}
class "Rect2" as C_0000300688871447362916
class C_0000300688871447362916 [[https://github.com/godotengine/godot/blob/faf3f883d1a25ec8a2b7a31ecc9e3363613b2478/./core/math/rect2.h#L38{Rect2}]] {
}
class "Transform2D" as C_0001296138246691404804
class C_0001296138246691404804 [[https://github.com/godotengine/godot/blob/faf3f883d1a25ec8a2b7a31ecc9e3363613b2478/./core/math/transform_2d.h#L37{Transform2D}]] {
}
class "Dictionary" as C_0001299121424291583786
class C_0001299121424291583786 [[https://github.com/godotengine/godot/blob/faf3f883d1a25ec8a2b7a31ecc9e3363613b2478/./core/dictionary.h#L42{Dictionary}]] {
}
class "StringName" as C_0001858199404643284193
class C_0001858199404643284193 [[https://github.com/godotengine/godot/blob/faf3f883d1a25ec8a2b7a31ecc9e3363613b2478/./core/string_name.h#L44{StringName}]] {
}
class "List<PropertyInfo>" as C_0000788782266645010446
class C_0000788782266645010446 {
}
class "Variant" as C_0000210234563198599367
class C_0000210234563198599367 [[https://github.com/godotengine/godot/blob/faf3f883d1a25ec8a2b7a31ecc9e3363613b2478/./core/variant.h#L93{Variant}]] {
}
class "PropertyInfo" as C_0002153970433534458832
class C_0002153970433534458832 [[https://github.com/godotengine/godot/blob/faf3f883d1a25ec8a2b7a31ecc9e3363613b2478/./core/object.h#L144{PropertyInfo}]] {
}
class "List<String>" as C_0002063845175027013341
class C_0002063845175027013341 {
}
class "ClassDB" as C_0000104564426296396960
class C_0000104564426296396960 [[https://github.com/godotengine/godot/blob/faf3f883d1a25ec8a2b7a31ecc9e3363613b2478/./core/class_db.h#L94{ClassDB}]] {
}
class "Node" as C_0000218299049716973303
class C_0000218299049716973303 [[https://github.com/godotengine/godot/blob/faf3f883d1a25ec8a2b7a31ecc9e3363613b2478/./scene/main/node.h#L44{Node}]] {
}
abstract "CanvasItem" as C_0002074383603489565895
abstract C_0002074383603489565895 [[https://github.com/godotengine/godot/blob/faf3f883d1a25ec8a2b7a31ecc9e3363613b2478/./scene/2d/canvas_item.h#L165{CanvasItem}]] {
}
class "Node2D" as C_0002289363354048605759
class C_0002289363354048605759 [[https://github.com/godotengine/godot/blob/faf3f883d1a25ec8a2b7a31ecc9e3363613b2478/scene/2d/node_2d.h#L36{Node2D}]] {
}
C_0000945411446247634027 - -> C_0000945411446247634027 : +invalid_node_name_characters
C_0000300688871447362916 o- - C_0000053309527800613276 : +position
C_0000300688871447362916 o- - C_0000053309527800613276 : +size
C_0001296138246691404804 o- - C_0000053309527800613276 : +elements
C_0002153970433534458832 o- - C_0000945411446247634027 : +name
C_0002153970433534458832 o- - C_0001858199404643284193 : +class_name
C_0002153970433534458832 o- - C_0000945411446247634027 : +hint_string
C_0000104564426296396960 - -> C_0001858199404643284193 : +classes
C_0000104564426296396960 - -> C_0001858199404643284193 : +resource_base_extensions
C_0000104564426296396960 - -> C_0001858199404643284193 : +compat_classes
C_0000104564426296396960 - -> C_0001858199404643284193 : +default_values
C_0000104564426296396960 - -> C_0000210234563198599367 : +default_values
C_0000104564426296396960 - -> C_0001858199404643284193 : +default_values_cached
C_0000218299049716973303 o- - C_0001858199404643284193 : -_class_name
C_0000218299049716973303 <.. C_0000104564426296396960 : +<<friend>>
C_0002074383603489565895 o- - C_0001858199404643284193 : -_class_name
C_0002074383603489565895 o- - C_0000945411446247634027 : -group
C_0002074383603489565895 o- - C_0001296138246691404804 : -global_transform
C_0002074383603489565895 - -> C_0002074383603489565895 : -current_item_drawn
C_0002074383603489565895 <.. C_0000104564426296396960 : +<<friend>>
C_0000218299049716973303 <|- - C_0002074383603489565895
C_0002289363354048605759 o- - C_0001858199404643284193 : -_class_name
C_0002289363354048605759 o- - C_0000053309527800613276 : -pos
C_0002289363354048605759 o- - C_0000053309527800613276 : -_scale
C_0002289363354048605759 o- - C_0001296138246691404804 : -_mat
C_0002289363354048605759 <.. C_0000104564426296396960 : +<<friend>>
C_0002074383603489565895 <|- - C_0002289363354048605759
@enduml

PlantUML version 1.2020.02(Sun Mar 01 11:22:07 CET 2020)
(GPL source distribution)
Java Runtime: OpenJDK Runtime Environment
JVM: OpenJDK 64-Bit Server VM
Java Version: 11.0.16+8-post-Ubuntu-0ubuntu122.04
Operating System: Linux
Default Encoding: UTF-8
Language: en
Country: US
--></g></svg>