<svg xmlns="http://www.w3.org/2000/svg" xmlns:xlink="http://www.w3.org/1999/xlink" contentStyleType="text/css" data-diagram-type="CLASS" height="366px" preserveAspectRatio="none" style="width:595px;height:366px;background:#FFFFFF;" version="1.1" viewBox="0 0 595 366" width="595px" zoomAndPan="magnify"><title>App::Branding context</title><defs/><g><text fill="#000000" font-family="sans-serif" font-size="14" font-weight="bold" lengthAdjust="spacing" textLength="178.541" x="201.2295" y="22.9951">App::Branding context</text><!--cluster C_0018282610363821501524--><g id="cluster_C_0018282610363821501524"><path d="M8.5,43.2969 L40.3779,43.2969 A3.75,3.75 0 0 1 42.8779,45.7969 L49.8779,65.5938 L585.5,65.5938 A2.5,2.5 0 0 1 588,68.0938 L588,245.7969 A2.5,2.5 0 0 1 585.5,248.2969 L8.5,248.2969 A2.5,2.5 0 0 1 6,245.7969 L6,45.7969 A2.5,2.5 0 0 1 8.5,43.2969 " fill="transparent" style="stroke:#000000;stroke-width:1.5;"/><line style="stroke:#000000;stroke-width:1.5;" x1="6" x2="49.8779" y1="65.5938" y2="65.5938"/><text fill="#000000" font-family="sans-serif" font-size="14" font-weight="bold" lengthAdjust="spacing" textLength="30.8779" x="10" y="58.292">App</text></g><!--class C_0000801230206616357594--><a href="https://github.com/FreeCAD/FreeCAD/blob/2fcc5317fe3aee96ca73475986a577719fc78e20/src/App/Branding.h#L38" target="_top" title="Branding" xlink:actuate="onRequest" xlink:href="https://github.com/FreeCAD/FreeCAD/blob/2fcc5317fe3aee96ca73475986a577719fc78e20/src/App/Branding.h#L38" xlink:show="new" xlink:title="Branding" xlink:type="simple"><g id="elem_C_0000801230206616357594"><rect codeLine="4" fill="#F1F1F1" height="153.7813" id="C_0000801230206616357594" rx="2.5" ry="2.5" style="stroke:#181818;stroke-width:0.5;" width="550.3643" x="22" y="78.2969"/><ellipse cx="261.2578" cy="94.2969" fill="#ADD1B2" rx="11" ry="11" style="stroke:#181818;stroke-width:1;"/><path d="M264.2266,99.9375 Q263.6484,100.2344 263.0078,100.375 Q262.3672,100.5313 261.6641,100.5313 Q259.1641,100.5313 257.8359,98.8906 Q256.5234,97.2344 256.5234,94.1094 Q256.5234,90.9844 257.8359,89.3281 Q259.1641,87.6719 261.6641,87.6719 Q262.3672,87.6719 263.0078,87.8281 Q263.6641,87.9844 264.2266,88.2813 L264.2266,91 Q263.6016,90.4219 263.0078,90.1563 Q262.4141,89.875 261.7891,89.875 Q260.4453,89.875 259.7578,90.9531 Q259.0703,92.0156 259.0703,94.1094 Q259.0703,96.2031 259.7578,97.2813 Q260.4453,98.3438 261.7891,98.3438 Q262.4141,98.3438 263.0078,98.0781 Q263.6016,97.7969 264.2266,97.2188 L264.2266,99.9375 Z " fill="#000000"/><text fill="#000000" font-family="sans-serif" font-size="14" lengthAdjust="spacing" textLength="63.3486" x="281.7578" y="99.1436">Branding</text><line style="stroke:#181818;stroke-width:0.5;" x1="23" x2="571.3643" y1="110.2969" y2="110.2969"/></g><a href="https://github.com/FreeCAD/FreeCAD/blob/2fcc5317fe3aee96ca73475986a577719fc78e20/src/App/Branding.h#L42" target="_top" title="Branding" xlink:actuate="onRequest" xlink:href="https://github.com/FreeCAD/FreeCAD/blob/2fcc5317fe3aee96ca73475986a577719fc78e20/src/App/Branding.h#L42" xlink:show="new" xlink:title="Branding" xlink:type="simple"><rect fill="#F1F1F1" height="10" style="stroke:transparent;stroke-width:1;" width="20" x="28" y="118.9453"/><ellipse cx="33" cy="123.9453" fill="#84BE84" rx="3" ry="3" style="stroke:#038048;stroke-width:1;"/></a></a><a href="https://github.com/FreeCAD/FreeCAD/blob/2fcc5317fe3aee96ca73475986a577719fc78e20/src/App/Branding.h#L42" target="_top" title="Branding" xlink:actuate="onRequest" xlink:href="https://github.com/FreeCAD/FreeCAD/blob/2fcc5317fe3aee96ca73475986a577719fc78e20/src/App/Branding.h#L42" xlink:show="new" xlink:title="Branding" xlink:type="simple"><text fill="#000000" font-family="sans-serif" font-size="14" lengthAdjust="spacing" textLength="117.5166" x="42" y="127.292">Branding() : void</text></a><line style="stroke:#181818;stroke-width:1;stroke-dasharray:1.0,2.0;" x1="23" x2="571.3643" y1="134.5938" y2="134.5938"/><a href="https://github.com/FreeCAD/FreeCAD/blob/2fcc5317fe3aee96ca73475986a577719fc78e20/src/App/Branding.h#L49" target="_top" title="evaluateXML" xlink:actuate="onRequest" xlink:href="https://github.com/FreeCAD/FreeCAD/blob/2fcc5317fe3aee96ca73475986a577719fc78e20/src/App/Branding.h#L49" xlink:show="new" xlink:title="evaluateXML" xlink:type="simple"><rect fill="#F1F1F1" height="10" style="stroke:transparent;stroke-width:1;" width="20" x="28" y="143.2422"/><rect fill="#F24D5C" height="6" style="stroke:#C82930;stroke-width:1;" width="6" x="30" y="145.2422"/></a><a href="https://github.com/FreeCAD/FreeCAD/blob/2fcc5317fe3aee96ca73475986a577719fc78e20/src/App/Branding.h#L49" target="_top" title="evaluateXML" xlink:actuate="onRequest" xlink:href="https://github.com/FreeCAD/FreeCAD/blob/2fcc5317fe3aee96ca73475986a577719fc78e20/src/App/Branding.h#L49" xlink:show="new" xlink:title="evaluateXML" xlink:type="simple"><text fill="#000000" font-family="sans-serif" font-size="14" lengthAdjust="spacing" textLength="524.3643" x="42" y="151.5889">evaluateXML(QIODevice * device, QDomDocument &amp; xmlDocument) : bool</text></a><a href="https://github.com/FreeCAD/FreeCAD/blob/2fcc5317fe3aee96ca73475986a577719fc78e20/src/App/Branding.h#L45" target="_top" title="getUserDefines" xlink:actuate="onRequest" xlink:href="https://github.com/FreeCAD/FreeCAD/blob/2fcc5317fe3aee96ca73475986a577719fc78e20/src/App/Branding.h#L45" xlink:show="new" xlink:title="getUserDefines" xlink:type="simple"><rect fill="#F1F1F1" height="10" style="stroke:transparent;stroke-width:1;" width="20" x="28" y="159.5391"/><ellipse cx="33" cy="164.5391" fill="#84BE84" rx="3" ry="3" style="stroke:#038048;stroke-width:1;"/></a><a href="https://github.com/FreeCAD/FreeCAD/blob/2fcc5317fe3aee96ca73475986a577719fc78e20/src/App/Branding.h#L45" target="_top" title="getUserDefines" xlink:actuate="onRequest" xlink:href="https://github.com/FreeCAD/FreeCAD/blob/2fcc5317fe3aee96ca73475986a577719fc78e20/src/App/Branding.h#L45" xlink:show="new" xlink:title="getUserDefines" xlink:type="simple"><text fill="#000000" font-family="sans-serif" font-size="14" lengthAdjust="spacing" textLength="246.8389" x="42" y="167.8857">getUserDefines() const : XmlConfig</text></a><a href="https://github.com/FreeCAD/FreeCAD/blob/2fcc5317fe3aee96ca73475986a577719fc78e20/src/App/Branding.h#L44" target="_top" title="readFile" xlink:actuate="onRequest" xlink:href="https://github.com/FreeCAD/FreeCAD/blob/2fcc5317fe3aee96ca73475986a577719fc78e20/src/App/Branding.h#L44" xlink:show="new" xlink:title="readFile" xlink:type="simple"><rect fill="#F1F1F1" height="10" style="stroke:transparent;stroke-width:1;" width="20" x="28" y="175.8359"/><ellipse cx="33" cy="180.8359" fill="#84BE84" rx="3" ry="3" style="stroke:#038048;stroke-width:1;"/></a><a href="https://github.com/FreeCAD/FreeCAD/blob/2fcc5317fe3aee96ca73475986a577719fc78e20/src/App/Branding.h#L44" target="_top" title="readFile" xlink:actuate="onRequest" xlink:href="https://github.com/FreeCAD/FreeCAD/blob/2fcc5317fe3aee96ca73475986a577719fc78e20/src/App/Branding.h#L44" xlink:show="new" xlink:title="readFile" xlink:type="simple"><text fill="#000000" font-family="sans-serif" font-size="14" lengthAdjust="spacing" textLength="239.5176" x="42" y="184.1826">readFile(const QString &amp; fn) : bool</text></a><line style="stroke:#181818;stroke-width:0.5;" x1="23" x2="571.3643" y1="191.4844" y2="191.4844"/><a href="https://github.com/FreeCAD/FreeCAD/blob/2fcc5317fe3aee96ca73475986a577719fc78e20/src/App/Branding.h#L50" target="_top" title="domDocument" xlink:actuate="onRequest" xlink:href="https://github.com/FreeCAD/FreeCAD/blob/2fcc5317fe3aee96ca73475986a577719fc78e20/src/App/Branding.h#L50" xlink:show="new" xlink:title="domDocument" xlink:type="simple"><rect fill="#F1F1F1" height="10" style="stroke:transparent;stroke-width:1;" width="20" x="28" y="200.1328"/><rect fill="transparent" height="6" style="stroke:#C82930;stroke-width:1;" width="6" x="30" y="202.1328"/></a><a href="https://github.com/FreeCAD/FreeCAD/blob/2fcc5317fe3aee96ca73475986a577719fc78e20/src/App/Branding.h#L50" target="_top" title="domDocument" xlink:actuate="onRequest" xlink:href="https://github.com/FreeCAD/FreeCAD/blob/2fcc5317fe3aee96ca73475986a577719fc78e20/src/App/Branding.h#L50" xlink:show="new" xlink:title="domDocument" xlink:type="simple"><text fill="#000000" font-family="sans-serif" font-size="14" lengthAdjust="spacing" textLength="233.7686" x="42" y="208.4795">domDocument : QDomDocument</text></a><a href="https://github.com/FreeCAD/FreeCAD/blob/2fcc5317fe3aee96ca73475986a577719fc78e20/src/App/Branding.h#L48" target="_top" title="filter" xlink:actuate="onRequest" xlink:href="https://github.com/FreeCAD/FreeCAD/blob/2fcc5317fe3aee96ca73475986a577719fc78e20/src/App/Branding.h#L48" xlink:show="new" xlink:title="filter" xlink:type="simple"><rect fill="#F1F1F1" height="10" style="stroke:transparent;stroke-width:1;" width="20" x="28" y="216.4297"/><rect fill="transparent" height="6" style="stroke:#C82930;stroke-width:1;" width="6" x="30" y="218.4297"/></a><a href="https://github.com/FreeCAD/FreeCAD/blob/2fcc5317fe3aee96ca73475986a577719fc78e20/src/App/Branding.h#L48" target="_top" title="filter" xlink:actuate="onRequest" xlink:href="https://github.com/FreeCAD/FreeCAD/blob/2fcc5317fe3aee96ca73475986a577719fc78e20/src/App/Branding.h#L48" xlink:show="new" xlink:title="filter" xlink:type="simple"><text fill="#000000" font-family="sans-serif" font-size="14" lengthAdjust="spacing" textLength="197.6543" x="42" y="224.7764">filter : QVector&lt;std::string&gt;</text></a><!--class C_0007236040574352529538--><a href="https://github.com/FreeCAD/FreeCAD/blob/2fcc5317fe3aee96ca73475986a577719fc78e20/src/App/Branding.h#L48" target="_top" title="QList" xlink:actuate="onRequest" xlink:href="https://github.com/FreeCAD/FreeCAD/blob/2fcc5317fe3aee96ca73475986a577719fc78e20/src/App/Branding.h#L48" xlink:show="new" xlink:title="QList" xlink:type="simple"><g id="elem_C_0007236040574352529538"><rect codeLine="16" fill="#F1F1F1" height="48" id="C_0007236040574352529538" rx="2.5" ry="2.5" style="stroke:#181818;stroke-width:0.5;" width="132.5996" x="230.5" y="311.2969"/><ellipse cx="245.5" cy="327.2969" fill="#ADD1B2" rx="11" ry="11" style="stroke:#181818;stroke-width:1;"/><path d="M248.4688,332.9375 Q247.8906,333.2344 247.25,333.375 Q246.6094,333.5313 245.9063,333.5313 Q243.4063,333.5313 242.0781,331.8906 Q240.7656,330.2344 240.7656,327.1094 Q240.7656,323.9844 242.0781,322.3281 Q243.4063,320.6719 245.9063,320.6719 Q246.6094,320.6719 247.25,320.8281 Q247.9063,320.9844 248.4688,321.2813 L248.4688,324 Q247.8438,323.4219 247.25,323.1563 Q246.6563,322.875 246.0313,322.875 Q244.6875,322.875 244,323.9531 Q243.3125,325.0156 243.3125,327.1094 Q243.3125,329.2031 244,330.2813 Q244.6875,331.3438 246.0313,331.3438 Q246.6563,331.3438 247.25,331.0781 Q247.8438,330.7969 248.4688,330.2188 L248.4688,332.9375 Z " fill="#000000"/><text fill="#000000" font-family="sans-serif" font-size="14" lengthAdjust="spacing" textLength="35.4922" x="259.5" y="332.1436">QList</text><rect fill="#FFFFFF" height="15.9688" style="stroke:#181818;stroke-width:1;stroke-dasharray:2.0,2.0;" width="63.1074" x="302.9922" y="308.2969"/><text fill="#000000" font-family="sans-serif" font-size="12" font-style="italic" lengthAdjust="spacing" textLength="61.1074" x="303.9922" y="320.4355">std::string</text><line style="stroke:#181818;stroke-width:0.5;" x1="231.5" x2="362.0996" y1="343.2969" y2="343.2969"/><line style="stroke:#181818;stroke-width:0.5;" x1="231.5" x2="362.0996" y1="351.2969" y2="351.2969"/></g></a><!--reverse link C_0000801230206616357594 to C_0007236040574352529538--><a href="https://github.com/FreeCAD/FreeCAD/blob/2fcc5317fe3aee96ca73475986a577719fc78e20/src/App/Branding.h#L48" target="_top" title="filter" xlink:actuate="onRequest" xlink:href="https://github.com/FreeCAD/FreeCAD/blob/2fcc5317fe3aee96ca73475986a577719fc78e20/src/App/Branding.h#L48" xlink:show="new" xlink:title="filter" xlink:type="simple"><path codeLine="19" d="M297,244.2969 C297,272.6469 297,290.7969 297,310.8969 " fill="transparent" id="C_0000801230206616357594-backto-C_0007236040574352529538" style="stroke:#181818;stroke-width:1;"/><polygon fill="transparent" points="297,232.2969,293,238.2969,297,244.2969,301,238.2969,297,232.2969" style="stroke:#181818;stroke-width:1;"/><rect fill="transparent" height="6" style="stroke:#C82930;stroke-width:1;" width="6" x="300" y="270.3633"/><text fill="#000000" font-family="sans-serif" font-size="13" lengthAdjust="spacing" textLength="30.2402" x="310" y="277.3638">filter</text></a><!--SRC=[pPHlQzim4CRV-rE83jfqhMr9jloFCUWIEWOf8uoMGWZ1aS-EcMq5IquB9jzzYXDd2QnlpV0B-tI7_BldZaVbgW3qiDb4qRSwhfAyoX0NbO9tPMnY_ZlE0CrrUe5YYSPBZ4b00-eHx7XEG0d3X54NjGOlOYdHLN_7LL-ESO09TJ35daSyX_aiT8_57wNHVBvMQYCZsyvojMvM5XUb_LW3Z1ycf_Ug42kRffmpX_WfE350wF7OTrnzH-35pFTz4gRS3u1YMzRSrbtOFP-r_ZHrWhOFTuk5xk6k3qUtA49RaISQPHWMbvwpB0pBCapOnaKJAtXzcevcFtvEO9jpG9zHqdtSezb4b1F1cn8gXQxHUrdqqHv_9KGn77xOdj5s7Tnbe9ubr1D8ymgabbIlbLIQxBKing9AysmuFDPUqXm8QuYJnxo0qO5izalL-_M_Hcarl89ks-DqSCkbOIPdyuqknpqK5iFj6KL7PgPveQ3U4xq0LwB-8bKIHR8Jx-jmWWNj0QI3skddQ46pQIxL1TDVC_Afus4NCzzr66KqP4vmRaR_IAFXskd03qwafxypFlH7OPh_0-z9VhqAnwKmZ9llK46jVI11R_h_IAjRPMPJ5lTe2xNCHOMmvLd4k9bENvvEPy-hfbBDeVfqI4ABM0IDIDDboUqV]--></g></svg>