<svg xmlns="http://www.w3.org/2000/svg" xmlns:xlink="http://www.w3.org/1999/xlink" contentStyleType="text/css" data-diagram-type="CLASS" height="386px" preserveAspectRatio="none" style="width:531px;height:386px;background:#FFFFFF;" version="1.1" viewBox="0 0 531 386" width="531px" zoomAndPan="magnify"><title>App::Path context</title><defs/><g><text fill="#000000" font-family="sans-serif" font-size="14" font-weight="bold" lengthAdjust="spacing" textLength="143.1104" x="186.9448" y="22.9951">App::Path context</text><!--cluster C_0009971158671206323968--><g id="cluster_C_0009971158671206323968"><path d="M152.5,280.2969 L178.5469,280.2969 A3.75,3.75 0 0 1 181.0469,282.7969 L188.0469,302.5938 L377.5,302.5938 A2.5,2.5 0 0 1 380,305.0938 L380,376.7969 A2.5,2.5 0 0 1 377.5,379.2969 L152.5,379.2969 A2.5,2.5 0 0 1 150,376.7969 L150,282.7969 A2.5,2.5 0 0 1 152.5,280.2969 " fill="transparent" style="stroke:#000000;stroke-width:1.5;"/><line style="stroke:#000000;stroke-width:1.5;" x1="150" x2="188.0469" y1="302.5938" y2="302.5938"/><text fill="#000000" font-family="sans-serif" font-size="14" font-weight="bold" lengthAdjust="spacing" textLength="25.0469" x="154" y="295.292">std</text></g><!--cluster C_0018282610363821501524--><g id="cluster_C_0018282610363821501524"><path d="M8.5,43.2969 L40.3779,43.2969 A3.75,3.75 0 0 1 42.8779,45.7969 L49.8779,65.5938 L521.5,65.5938 A2.5,2.5 0 0 1 524,68.0938 L524,228.7969 A2.5,2.5 0 0 1 521.5,231.2969 L8.5,231.2969 A2.5,2.5 0 0 1 6,228.7969 L6,45.7969 A2.5,2.5 0 0 1 8.5,43.2969 " fill="transparent" style="stroke:#000000;stroke-width:1.5;"/><line style="stroke:#000000;stroke-width:1.5;" x1="6" x2="49.8779" y1="65.5938" y2="65.5938"/><text fill="#000000" font-family="sans-serif" font-size="14" font-weight="bold" lengthAdjust="spacing" textLength="30.8779" x="10" y="58.292">App</text></g><!--class C_0005879659813076243898--><a href="https://github.com/FreeCAD/FreeCAD/blob/2fcc5317fe3aee96ca73475986a577719fc78e20/src/App/Path.h#L44" target="_top" title="vector" xlink:actuate="onRequest" xlink:href="https://github.com/FreeCAD/FreeCAD/blob/2fcc5317fe3aee96ca73475986a577719fc78e20/src/App/Path.h#L44" xlink:show="new" xlink:title="vector" xlink:type="simple"><g id="elem_C_0005879659813076243898"><rect codeLine="4" fill="#F1F1F1" height="48" id="C_0005879659813076243898" rx="2.5" ry="2.5" style="stroke:#181818;stroke-width:0.5;" width="196.5918" x="166.5" y="315.2969"/><ellipse cx="181.5" cy="331.2969" fill="#ADD1B2" rx="11" ry="11" style="stroke:#181818;stroke-width:1;"/><path d="M184.4688,336.9375 Q183.8906,337.2344 183.25,337.375 Q182.6094,337.5313 181.9063,337.5313 Q179.4063,337.5313 178.0781,335.8906 Q176.7656,334.2344 176.7656,331.1094 Q176.7656,327.9844 178.0781,326.3281 Q179.4063,324.6719 181.9063,324.6719 Q182.6094,324.6719 183.25,324.8281 Q183.9063,324.9844 184.4688,325.2813 L184.4688,328 Q183.8438,327.4219 183.25,327.1563 Q182.6563,326.875 182.0313,326.875 Q180.6875,326.875 180,327.9531 Q179.3125,329.0156 179.3125,331.1094 Q179.3125,333.2031 180,334.2813 Q180.6875,335.3438 182.0313,335.3438 Q182.6563,335.3438 183.25,335.0781 Q183.8438,334.7969 184.4688,334.2188 L184.4688,336.9375 Z " fill="#000000"/><text fill="#000000" font-family="sans-serif" font-size="14" lengthAdjust="spacing" textLength="44.4063" x="195.5" y="336.1436">vector</text><rect fill="#FFFFFF" height="15.9688" style="stroke:#181818;stroke-width:1;stroke-dasharray:2.0,2.0;" width="118.1855" x="247.9063" y="312.2969"/><text fill="#000000" font-family="sans-serif" font-size="12" font-style="italic" lengthAdjust="spacing" textLength="116.1855" x="248.9063" y="324.4355">Base::Persistence *</text><line style="stroke:#181818;stroke-width:0.5;" x1="167.5" x2="362.0918" y1="347.2969" y2="347.2969"/><line style="stroke:#181818;stroke-width:0.5;" x1="167.5" x2="362.0918" y1="355.2969" y2="355.2969"/></g></a><!--class C_0012882979932666026326--><a href="https://github.com/FreeCAD/FreeCAD/blob/2fcc5317fe3aee96ca73475986a577719fc78e20/src/App/Path.h#L36" target="_top" title="Path" xlink:actuate="onRequest" xlink:href="https://github.com/FreeCAD/FreeCAD/blob/2fcc5317fe3aee96ca73475986a577719fc78e20/src/App/Path.h#L36" xlink:show="new" xlink:title="Path" xlink:type="simple"><g id="elem_C_0012882979932666026326"><rect codeLine="10" fill="#F1F1F1" height="137.4844" id="C_0012882979932666026326" rx="2.5" ry="2.5" style="stroke:#181818;stroke-width:0.5;" width="485.3408" x="22.5" y="78.2969"/><ellipse cx="245.2285" cy="94.2969" fill="#ADD1B2" rx="11" ry="11" style="stroke:#181818;stroke-width:1;"/><path d="M248.1973,99.9375 Q247.6191,100.2344 246.9785,100.375 Q246.3379,100.5313 245.6348,100.5313 Q243.1348,100.5313 241.8066,98.8906 Q240.4941,97.2344 240.4941,94.1094 Q240.4941,90.9844 241.8066,89.3281 Q243.1348,87.6719 245.6348,87.6719 Q246.3379,87.6719 246.9785,87.8281 Q247.6348,87.9844 248.1973,88.2813 L248.1973,91 Q247.5723,90.4219 246.9785,90.1563 Q246.3848,89.875 245.7598,89.875 Q244.416,89.875 243.7285,90.9531 Q243.041,92.0156 243.041,94.1094 Q243.041,96.2031 243.7285,97.2813 Q244.416,98.3438 245.7598,98.3438 Q246.3848,98.3438 246.9785,98.0781 Q247.5723,97.7969 248.1973,97.2188 L248.1973,99.9375 Z " fill="#000000"/><text fill="#000000" font-family="sans-serif" font-size="14" lengthAdjust="spacing" textLength="31.3838" x="265.7285" y="99.1436">Path</text><line style="stroke:#181818;stroke-width:0.5;" x1="23.5" x2="506.8408" y1="110.2969" y2="110.2969"/></g><a href="https://github.com/FreeCAD/FreeCAD/blob/2fcc5317fe3aee96ca73475986a577719fc78e20/src/App/Path.h#L43" target="_top" title="Path" xlink:actuate="onRequest" xlink:href="https://github.com/FreeCAD/FreeCAD/blob/2fcc5317fe3aee96ca73475986a577719fc78e20/src/App/Path.h#L43" xlink:show="new" xlink:title="Path" xlink:type="simple"><rect fill="#F1F1F1" height="10" style="stroke:transparent;stroke-width:1;" width="20" x="28.5" y="118.9453"/><ellipse cx="33.5" cy="123.9453" fill="#84BE84" rx="3" ry="3" style="stroke:#038048;stroke-width:1;"/></a></a><a href="https://github.com/FreeCAD/FreeCAD/blob/2fcc5317fe3aee96ca73475986a577719fc78e20/src/App/Path.h#L43" target="_top" title="Path" xlink:actuate="onRequest" xlink:href="https://github.com/FreeCAD/FreeCAD/blob/2fcc5317fe3aee96ca73475986a577719fc78e20/src/App/Path.h#L43" xlink:show="new" xlink:title="Path" xlink:type="simple"><text fill="#000000" font-family="sans-serif" font-size="14" lengthAdjust="spacing" textLength="155.4424" x="42.5" y="127.292">Path() = default : void</text></a><a href="https://github.com/FreeCAD/FreeCAD/blob/2fcc5317fe3aee96ca73475986a577719fc78e20/src/App/Path.h#L44" target="_top" title="Path" xlink:actuate="onRequest" xlink:href="https://github.com/FreeCAD/FreeCAD/blob/2fcc5317fe3aee96ca73475986a577719fc78e20/src/App/Path.h#L44" xlink:show="new" xlink:title="Path" xlink:type="simple"><rect fill="#F1F1F1" height="10" style="stroke:transparent;stroke-width:1;" width="20" x="28.5" y="135.2422"/><ellipse cx="33.5" cy="140.2422" fill="#84BE84" rx="3" ry="3" style="stroke:#038048;stroke-width:1;"/></a><a href="https://github.com/FreeCAD/FreeCAD/blob/2fcc5317fe3aee96ca73475986a577719fc78e20/src/App/Path.h#L44" target="_top" title="Path" xlink:actuate="onRequest" xlink:href="https://github.com/FreeCAD/FreeCAD/blob/2fcc5317fe3aee96ca73475986a577719fc78e20/src/App/Path.h#L44" xlink:show="new" xlink:title="Path" xlink:type="simple"><text fill="#000000" font-family="sans-serif" font-size="14" lengthAdjust="spacing" textLength="459.3408" x="42.5" y="143.5889">Path(const std::vector&lt;Base::Persistence *&gt; &amp; PathVector) : void</text></a><a href="https://github.com/FreeCAD/FreeCAD/blob/2fcc5317fe3aee96ca73475986a577719fc78e20/src/App/Path.h#L46" target="_top" title="~Path" xlink:actuate="onRequest" xlink:href="https://github.com/FreeCAD/FreeCAD/blob/2fcc5317fe3aee96ca73475986a577719fc78e20/src/App/Path.h#L46" xlink:show="new" xlink:title="~Path" xlink:type="simple"><rect fill="#F1F1F1" height="10" style="stroke:transparent;stroke-width:1;" width="20" x="28.5" y="151.5391"/><ellipse cx="33.5" cy="156.5391" fill="#84BE84" rx="3" ry="3" style="stroke:#038048;stroke-width:1;"/></a><a href="https://github.com/FreeCAD/FreeCAD/blob/2fcc5317fe3aee96ca73475986a577719fc78e20/src/App/Path.h#L46" target="_top" title="~Path" xlink:actuate="onRequest" xlink:href="https://github.com/FreeCAD/FreeCAD/blob/2fcc5317fe3aee96ca73475986a577719fc78e20/src/App/Path.h#L46" xlink:show="new" xlink:title="~Path" xlink:type="simple"><text fill="#000000" font-family="sans-serif" font-size="14" lengthAdjust="spacing" textLength="167.1729" x="42.5" y="159.8857">~Path() = default : void</text></a><line style="stroke:#181818;stroke-width:1;stroke-dasharray:1.0,2.0;" x1="23.5" x2="506.8408" y1="167.1875" y2="167.1875"/><a href="https://github.com/FreeCAD/FreeCAD/blob/2fcc5317fe3aee96ca73475986a577719fc78e20/src/App/Path.h#L48" target="_top" title="getVector" xlink:actuate="onRequest" xlink:href="https://github.com/FreeCAD/FreeCAD/blob/2fcc5317fe3aee96ca73475986a577719fc78e20/src/App/Path.h#L48" xlink:show="new" xlink:title="getVector" xlink:type="simple"><rect fill="#F1F1F1" height="10" style="stroke:transparent;stroke-width:1;" width="20" x="28.5" y="175.8359"/><ellipse cx="33.5" cy="180.8359" fill="#84BE84" rx="3" ry="3" style="stroke:#038048;stroke-width:1;"/></a><a href="https://github.com/FreeCAD/FreeCAD/blob/2fcc5317fe3aee96ca73475986a577719fc78e20/src/App/Path.h#L48" target="_top" title="getVector" xlink:actuate="onRequest" xlink:href="https://github.com/FreeCAD/FreeCAD/blob/2fcc5317fe3aee96ca73475986a577719fc78e20/src/App/Path.h#L48" xlink:show="new" xlink:title="getVector" xlink:type="simple"><text fill="#000000" font-family="sans-serif" font-size="14" lengthAdjust="spacing" textLength="427.8545" x="42.5" y="184.1826">getVector() const : const std::vector&lt;Base::Persistence *&gt; &amp;</text></a><line style="stroke:#181818;stroke-width:0.5;" x1="23.5" x2="506.8408" y1="191.4844" y2="191.4844"/><a href="https://github.com/FreeCAD/FreeCAD/blob/2fcc5317fe3aee96ca73475986a577719fc78e20/src/App/Path.h#L39" target="_top" title="_PathVector" xlink:actuate="onRequest" xlink:href="https://github.com/FreeCAD/FreeCAD/blob/2fcc5317fe3aee96ca73475986a577719fc78e20/src/App/Path.h#L39" xlink:show="new" xlink:title="_PathVector" xlink:type="simple"><rect fill="#F1F1F1" height="10" style="stroke:transparent;stroke-width:1;" width="20" x="28.5" y="200.1328"/><polygon fill="transparent" points="33.5,200.1328,37.5,204.1328,33.5,208.1328,29.5,204.1328" style="stroke:#B38D22;stroke-width:1;"/></a><a href="https://github.com/FreeCAD/FreeCAD/blob/2fcc5317fe3aee96ca73475986a577719fc78e20/src/App/Path.h#L39" target="_top" title="_PathVector" xlink:actuate="onRequest" xlink:href="https://github.com/FreeCAD/FreeCAD/blob/2fcc5317fe3aee96ca73475986a577719fc78e20/src/App/Path.h#L39" xlink:show="new" xlink:title="_PathVector" xlink:type="simple"><text fill="#000000" font-family="sans-serif" font-size="14" lengthAdjust="spacing" textLength="332.2197" x="42.5" y="208.4795">_PathVector : std::vector&lt;Base::Persistence *&gt;</text></a><!--reverse link C_0012882979932666026326 to C_0005879659813076243898--><a href="https://github.com/FreeCAD/FreeCAD/blob/2fcc5317fe3aee96ca73475986a577719fc78e20/src/App/Path.h#L39" target="_top" title="_PathVector" xlink:actuate="onRequest" xlink:href="https://github.com/FreeCAD/FreeCAD/blob/2fcc5317fe3aee96ca73475986a577719fc78e20/src/App/Path.h#L39" xlink:show="new" xlink:title="_PathVector" xlink:type="simple"><path codeLine="20" d="M265,227.4969 C265,262.3569 265,290.6069 265,315.2569 " fill="transparent" id="C_0012882979932666026326-backto-C_0005879659813076243898" style="stroke:#181818;stroke-width:1;"/><polygon fill="transparent" points="265,215.4969,261,221.4969,265,227.4969,269,221.4969,265,215.4969" style="stroke:#181818;stroke-width:1;"/><polygon fill="transparent" points="271,251.3633,275,255.3633,271,259.3633,267,255.3633" style="stroke:#B38D22;stroke-width:1;"/><text fill="#000000" font-family="sans-serif" font-size="13" lengthAdjust="spacing" textLength="78.0762" x="278" y="260.3638">_PathVector</text></a><!--SRC=[nPHTQzim58Rl_IiEBQnDkzZwiFLXka7NiTsai9lr9eIWA4fYwjh1ahE2QN_xvBXr0rkxNRduma8wFZplOqakSxc1o-qsJNyejm5T5ixSks2hzArQ6vXQjvo1id0rHmX9oJ5E1EEO84O9bKn04-XSMGj7EwDTMLryKTRuPgQocNMcq0REFX_r7HB19Kkam1HnHc8gf7Zw_hLbc4utpcrj6aNhp6tgHQZBk-XRPSpLvTV-lSZBHKHMMYSKyvMXoXZ9jE8qvhuTKmdd7CkLvi8G5DbAHpvpr4OEDyUJE6uw-eVPp0UQpuC7__GEV6dl00iY2CE8CYe8JX1EIFpYe6tOXyL422Avb9GmnX3nnjX1sByj3n6MigOTTb7Fs-7f23x1qgnKdJj8OLTcImyoW7RwJ39x0l7RpphmUovDtzXEy07QwfjznMXGulY0-F5TtR7ciKS9m-1yRLmdn1Dr6bFuRvs348kcPznJ-sDsF7_vaPxtdwH3S5BP753jITlRuDKZMux7xtfv_S7hHHvw3OAJxwOmbN9c2R-ozfBFLR4UrtVvHzYrVii2KCX279nC9ZVN_TpFHLsukglk9x4CSOZX5DVxLJpw3G00]--></g></svg>