<svg xmlns="http://www.w3.org/2000/svg" xmlns:xlink="http://www.w3.org/1999/xlink" contentStyleType="text/css" data-diagram-type="CLASS" height="2307px" preserveAspectRatio="none" style="width:381px;height:2307px;background:#FFFFFF;" version="1.1" viewBox="0 0 381 2307" width="381px" zoomAndPan="magnify"><title>NodeItem class hierarchy</title><defs/><g><text fill="#000000" font-family="sans-serif" font-size="14" font-weight="bold" lengthAdjust="spacing" textLength="200.7031" x="83.1484" y="22.9951">NodeItem class hierarchy</text><!--cluster C_0005614219575140048477--><g id="cluster_C_0005614219575140048477"><path d="M8.5,43.2969 L47.4463,43.2969 A3.75,3.75 0 0 1 49.9463,45.7969 L56.9463,65.5938 L371.5,65.5938 A2.5,2.5 0 0 1 374,68.0938 L374,2297.7969 A2.5,2.5 0 0 1 371.5,2300.2969 L8.5,2300.2969 A2.5,2.5 0 0 1 6,2297.7969 L6,45.7969 A2.5,2.5 0 0 1 8.5,43.2969 " fill="transparent" style="stroke:#000000;stroke-width:1.5;"/><line style="stroke:#000000;stroke-width:1.5;" x1="6" x2="56.9463" y1="65.5938" y2="65.5938"/><text fill="#000000" font-family="sans-serif" font-size="14" font-weight="bold" lengthAdjust="spacing" textLength="37.9463" x="10" y="58.292">Base</text></g><!--class C_0003142896263797232786--><a href="https://github.com/FreeCAD/FreeCAD/blob/2fcc5317fe3aee96ca73475986a577719fc78e20/src/Base/Builder3D.h#L240" target="_top" title="NodeItem" xlink:actuate="onRequest" xlink:href="https://github.com/FreeCAD/FreeCAD/blob/2fcc5317fe3aee96ca73475986a577719fc78e20/src/Base/Builder3D.h#L240" xlink:show="new" xlink:title="NodeItem" xlink:type="simple"><g id="elem_C_0003142896263797232786"><rect codeLine="5" fill="#F1F1F1" height="48" id="C_0003142896263797232786" rx="2.5" ry="2.5" style="stroke:#181818;stroke-width:0.5;" width="100.4072" x="22" y="1157.2969"/><ellipse cx="37" cy="1173.2969" fill="#ADD1B2" rx="11" ry="11" style="stroke:#181818;stroke-width:1;"/><path d="M39.9688,1178.9375 Q39.3906,1179.2344 38.75,1179.375 Q38.1094,1179.5313 37.4063,1179.5313 Q34.9063,1179.5313 33.5781,1177.8906 Q32.2656,1176.2344 32.2656,1173.1094 Q32.2656,1169.9844 33.5781,1168.3281 Q34.9063,1166.6719 37.4063,1166.6719 Q38.1094,1166.6719 38.75,1166.8281 Q39.4063,1166.9844 39.9688,1167.2813 L39.9688,1170 Q39.3438,1169.4219 38.75,1169.1563 Q38.1563,1168.875 37.5313,1168.875 Q36.1875,1168.875 35.5,1169.9531 Q34.8125,1171.0156 34.8125,1173.1094 Q34.8125,1175.2031 35.5,1176.2813 Q36.1875,1177.3438 37.5313,1177.3438 Q38.1563,1177.3438 38.75,1177.0781 Q39.3438,1176.7969 39.9688,1176.2188 L39.9688,1178.9375 Z " fill="#000000"/><text fill="#000000" font-family="sans-serif" font-size="14" lengthAdjust="spacing" textLength="68.4072" x="51" y="1178.1436">NodeItem</text><line style="stroke:#181818;stroke-width:0.5;" x1="23" x2="121.4072" y1="1189.2969" y2="1189.2969"/><line style="stroke:#181818;stroke-width:0.5;" x1="23" x2="121.4072" y1="1197.2969" y2="1197.2969"/></g></a><!--class C_0007224731687989273775--><a href="https://github.com/FreeCAD/FreeCAD/blob/2fcc5317fe3aee96ca73475986a577719fc78e20/src/Base/Builder3D.h#L257" target="_top" title="LabelItem" xlink:actuate="onRequest" xlink:href="https://github.com/FreeCAD/FreeCAD/blob/2fcc5317fe3aee96ca73475986a577719fc78e20/src/Base/Builder3D.h#L257" xlink:show="new" xlink:title="LabelItem" xlink:type="simple"><g id="elem_C_0007224731687989273775"><rect codeLine="9" fill="#F1F1F1" height="48" id="C_0007224731687989273775" rx="2.5" ry="2.5" style="stroke:#181818;stroke-width:0.5;" width="101.6377" x="219" y="2236.2969"/><ellipse cx="234" cy="2252.2969" fill="#ADD1B2" rx="11" ry="11" style="stroke:#181818;stroke-width:1;"/><path d="M236.9688,2257.9375 Q236.3906,2258.2344 235.75,2258.375 Q235.1094,2258.5313 234.4063,2258.5313 Q231.9063,2258.5313 230.5781,2256.8906 Q229.2656,2255.2344 229.2656,2252.1094 Q229.2656,2248.9844 230.5781,2247.3281 Q231.9063,2245.6719 234.4063,2245.6719 Q235.1094,2245.6719 235.75,2245.8281 Q236.4063,2245.9844 236.9688,2246.2813 L236.9688,2249 Q236.3438,2248.4219 235.75,2248.1563 Q235.1563,2247.875 234.5313,2247.875 Q233.1875,2247.875 232.5,2248.9531 Q231.8125,2250.0156 231.8125,2252.1094 Q231.8125,2254.2031 232.5,2255.2813 Q233.1875,2256.3438 234.5313,2256.3438 Q235.1563,2256.3438 235.75,2256.0781 Q236.3438,2255.7969 236.9688,2255.2188 L236.9688,2257.9375 Z " fill="#000000"/><text fill="#000000" font-family="sans-serif" font-size="14" lengthAdjust="spacing" textLength="69.6377" x="248" y="2257.1436">LabelItem</text><line style="stroke:#181818;stroke-width:0.5;" x1="220" x2="319.6377" y1="2268.2969" y2="2268.2969"/><line style="stroke:#181818;stroke-width:0.5;" x1="220" x2="319.6377" y1="2276.2969" y2="2276.2969"/></g></a><!--class C_0017513990263993922464--><a href="https://github.com/FreeCAD/FreeCAD/blob/2fcc5317fe3aee96ca73475986a577719fc78e20/src/Base/Builder3D.h#L270" target="_top" title="InfoItem" xlink:actuate="onRequest" xlink:href="https://github.com/FreeCAD/FreeCAD/blob/2fcc5317fe3aee96ca73475986a577719fc78e20/src/Base/Builder3D.h#L270" xlink:show="new" xlink:title="InfoItem" xlink:type="simple"><g id="elem_C_0017513990263993922464"><rect codeLine="13" fill="#F1F1F1" height="48" id="C_0017513990263993922464" rx="2.5" ry="2.5" style="stroke:#181818;stroke-width:0.5;" width="90.3652" x="225" y="2153.2969"/><ellipse cx="240" cy="2169.2969" fill="#ADD1B2" rx="11" ry="11" style="stroke:#181818;stroke-width:1;"/><path d="M242.9688,2174.9375 Q242.3906,2175.2344 241.75,2175.375 Q241.1094,2175.5313 240.4063,2175.5313 Q237.9063,2175.5313 236.5781,2173.8906 Q235.2656,2172.2344 235.2656,2169.1094 Q235.2656,2165.9844 236.5781,2164.3281 Q237.9063,2162.6719 240.4063,2162.6719 Q241.1094,2162.6719 241.75,2162.8281 Q242.4063,2162.9844 242.9688,2163.2813 L242.9688,2166 Q242.3438,2165.4219 241.75,2165.1563 Q241.1563,2164.875 240.5313,2164.875 Q239.1875,2164.875 238.5,2165.9531 Q237.8125,2167.0156 237.8125,2169.1094 Q237.8125,2171.2031 238.5,2172.2813 Q239.1875,2173.3438 240.5313,2173.3438 Q241.1563,2173.3438 241.75,2173.0781 Q242.3438,2172.7969 242.9688,2172.2188 L242.9688,2174.9375 Z " fill="#000000"/><text fill="#000000" font-family="sans-serif" font-size="14" lengthAdjust="spacing" textLength="58.3652" x="254" y="2174.1436">InfoItem</text><line style="stroke:#181818;stroke-width:0.5;" x1="226" x2="314.3652" y1="2185.2969" y2="2185.2969"/><line style="stroke:#181818;stroke-width:0.5;" x1="226" x2="314.3652" y1="2193.2969" y2="2193.2969"/></g></a><!--class C_0006648564482688350559--><a href="https://github.com/FreeCAD/FreeCAD/blob/2fcc5317fe3aee96ca73475986a577719fc78e20/src/Base/Builder3D.h#L283" target="_top" title="BaseColorItem" xlink:actuate="onRequest" xlink:href="https://github.com/FreeCAD/FreeCAD/blob/2fcc5317fe3aee96ca73475986a577719fc78e20/src/Base/Builder3D.h#L283" xlink:show="new" xlink:title="BaseColorItem" xlink:type="simple"><g id="elem_C_0006648564482688350559"><rect codeLine="17" fill="#F1F1F1" height="48" id="C_0006648564482688350559" rx="2.5" ry="2.5" style="stroke:#181818;stroke-width:0.5;" width="134.5117" x="202.5" y="2070.2969"/><ellipse cx="217.5" cy="2086.2969" fill="#ADD1B2" rx="11" ry="11" style="stroke:#181818;stroke-width:1;"/><path d="M220.4688,2091.9375 Q219.8906,2092.2344 219.25,2092.375 Q218.6094,2092.5313 217.9063,2092.5313 Q215.4063,2092.5313 214.0781,2090.8906 Q212.7656,2089.2344 212.7656,2086.1094 Q212.7656,2082.9844 214.0781,2081.3281 Q215.4063,2079.6719 217.9063,2079.6719 Q218.6094,2079.6719 219.25,2079.8281 Q219.9063,2079.9844 220.4688,2080.2813 L220.4688,2083 Q219.8438,2082.4219 219.25,2082.1563 Q218.6563,2081.875 218.0313,2081.875 Q216.6875,2081.875 216,2082.9531 Q215.3125,2084.0156 215.3125,2086.1094 Q215.3125,2088.2031 216,2089.2813 Q216.6875,2090.3438 218.0313,2090.3438 Q218.6563,2090.3438 219.25,2090.0781 Q219.8438,2089.7969 220.4688,2089.2188 L220.4688,2091.9375 Z " fill="#000000"/><text fill="#000000" font-family="sans-serif" font-size="14" lengthAdjust="spacing" textLength="102.5117" x="231.5" y="2091.1436">BaseColorItem</text><line style="stroke:#181818;stroke-width:0.5;" x1="203.5" x2="336.0117" y1="2102.2969" y2="2102.2969"/><line style="stroke:#181818;stroke-width:0.5;" x1="203.5" x2="336.0117" y1="2110.2969" y2="2110.2969"/></g></a><!--class C_0012806518239958755114--><a href="https://github.com/FreeCAD/FreeCAD/blob/2fcc5317fe3aee96ca73475986a577719fc78e20/src/Base/Builder3D.h#L293" target="_top" title="PointItem" xlink:actuate="onRequest" xlink:href="https://github.com/FreeCAD/FreeCAD/blob/2fcc5317fe3aee96ca73475986a577719fc78e20/src/Base/Builder3D.h#L293" xlink:show="new" xlink:title="PointItem" xlink:type="simple"><g id="elem_C_0012806518239958755114"><rect codeLine="21" fill="#F1F1F1" height="48" id="C_0012806518239958755114" rx="2.5" ry="2.5" style="stroke:#181818;stroke-width:0.5;" width="99.1289" x="220.5" y="1987.2969"/><ellipse cx="235.5" cy="2003.2969" fill="#ADD1B2" rx="11" ry="11" style="stroke:#181818;stroke-width:1;"/><path d="M238.4688,2008.9375 Q237.8906,2009.2344 237.25,2009.375 Q236.6094,2009.5313 235.9063,2009.5313 Q233.4063,2009.5313 232.0781,2007.8906 Q230.7656,2006.2344 230.7656,2003.1094 Q230.7656,1999.9844 232.0781,1998.3281 Q233.4063,1996.6719 235.9063,1996.6719 Q236.6094,1996.6719 237.25,1996.8281 Q237.9063,1996.9844 238.4688,1997.2813 L238.4688,2000 Q237.8438,1999.4219 237.25,1999.1563 Q236.6563,1998.875 236.0313,1998.875 Q234.6875,1998.875 234,1999.9531 Q233.3125,2001.0156 233.3125,2003.1094 Q233.3125,2005.2031 234,2006.2813 Q234.6875,2007.3438 236.0313,2007.3438 Q236.6563,2007.3438 237.25,2007.0781 Q237.8438,2006.7969 238.4688,2006.2188 L238.4688,2008.9375 Z " fill="#000000"/><text fill="#000000" font-family="sans-serif" font-size="14" lengthAdjust="spacing" textLength="67.1289" x="249.5" y="2008.1436">PointItem</text><line style="stroke:#181818;stroke-width:0.5;" x1="221.5" x2="318.6289" y1="2019.2969" y2="2019.2969"/><line style="stroke:#181818;stroke-width:0.5;" x1="221.5" x2="318.6289" y1="2027.2969" y2="2027.2969"/></g></a><!--class C_0010821140433555204062--><a href="https://github.com/FreeCAD/FreeCAD/blob/2fcc5317fe3aee96ca73475986a577719fc78e20/src/Base/Builder3D.h#L307" target="_top" title="LineItem" xlink:actuate="onRequest" xlink:href="https://github.com/FreeCAD/FreeCAD/blob/2fcc5317fe3aee96ca73475986a577719fc78e20/src/Base/Builder3D.h#L307" xlink:show="new" xlink:title="LineItem" xlink:type="simple"><g id="elem_C_0010821140433555204062"><rect codeLine="25" fill="#F1F1F1" height="48" id="C_0010821140433555204062" rx="2.5" ry="2.5" style="stroke:#181818;stroke-width:0.5;" width="93.0449" x="223.5" y="1904.2969"/><ellipse cx="238.5" cy="1920.2969" fill="#ADD1B2" rx="11" ry="11" style="stroke:#181818;stroke-width:1;"/><path d="M241.4688,1925.9375 Q240.8906,1926.2344 240.25,1926.375 Q239.6094,1926.5313 238.9063,1926.5313 Q236.4063,1926.5313 235.0781,1924.8906 Q233.7656,1923.2344 233.7656,1920.1094 Q233.7656,1916.9844 235.0781,1915.3281 Q236.4063,1913.6719 238.9063,1913.6719 Q239.6094,1913.6719 240.25,1913.8281 Q240.9063,1913.9844 241.4688,1914.2813 L241.4688,1917 Q240.8438,1916.4219 240.25,1916.1563 Q239.6563,1915.875 239.0313,1915.875 Q237.6875,1915.875 237,1916.9531 Q236.3125,1918.0156 236.3125,1920.1094 Q236.3125,1922.2031 237,1923.2813 Q237.6875,1924.3438 239.0313,1924.3438 Q239.6563,1924.3438 240.25,1924.0781 Q240.8438,1923.7969 241.4688,1923.2188 L241.4688,1925.9375 Z " fill="#000000"/><text fill="#000000" font-family="sans-serif" font-size="14" lengthAdjust="spacing" textLength="61.0449" x="252.5" y="1925.1436">LineItem</text><line style="stroke:#181818;stroke-width:0.5;" x1="224.5" x2="315.5449" y1="1936.2969" y2="1936.2969"/><line style="stroke:#181818;stroke-width:0.5;" x1="224.5" x2="315.5449" y1="1944.2969" y2="1944.2969"/></g></a><!--class C_0008362166361714123324--><a href="https://github.com/FreeCAD/FreeCAD/blob/2fcc5317fe3aee96ca73475986a577719fc78e20/src/Base/Builder3D.h#L321" target="_top" title="MultiLineItem" xlink:actuate="onRequest" xlink:href="https://github.com/FreeCAD/FreeCAD/blob/2fcc5317fe3aee96ca73475986a577719fc78e20/src/Base/Builder3D.h#L321" xlink:show="new" xlink:title="MultiLineItem" xlink:type="simple"><g id="elem_C_0008362166361714123324"><rect codeLine="29" fill="#F1F1F1" height="48" id="C_0008362166361714123324" rx="2.5" ry="2.5" style="stroke:#181818;stroke-width:0.5;" width="127.2656" x="206.5" y="1821.2969"/><ellipse cx="221.5" cy="1837.2969" fill="#ADD1B2" rx="11" ry="11" style="stroke:#181818;stroke-width:1;"/><path d="M224.4688,1842.9375 Q223.8906,1843.2344 223.25,1843.375 Q222.6094,1843.5313 221.9063,1843.5313 Q219.4063,1843.5313 218.0781,1841.8906 Q216.7656,1840.2344 216.7656,1837.1094 Q216.7656,1833.9844 218.0781,1832.3281 Q219.4063,1830.6719 221.9063,1830.6719 Q222.6094,1830.6719 223.25,1830.8281 Q223.9063,1830.9844 224.4688,1831.2813 L224.4688,1834 Q223.8438,1833.4219 223.25,1833.1563 Q222.6563,1832.875 222.0313,1832.875 Q220.6875,1832.875 220,1833.9531 Q219.3125,1835.0156 219.3125,1837.1094 Q219.3125,1839.2031 220,1840.2813 Q220.6875,1841.3438 222.0313,1841.3438 Q222.6563,1841.3438 223.25,1841.0781 Q223.8438,1840.7969 224.4688,1840.2188 L224.4688,1842.9375 Z " fill="#000000"/><text fill="#000000" font-family="sans-serif" font-size="14" lengthAdjust="spacing" textLength="95.2656" x="235.5" y="1842.1436">MultiLineItem</text><line style="stroke:#181818;stroke-width:0.5;" x1="207.5" x2="332.7656" y1="1853.2969" y2="1853.2969"/><line style="stroke:#181818;stroke-width:0.5;" x1="207.5" x2="332.7656" y1="1861.2969" y2="1861.2969"/></g></a><!--class C_0016563370239511058960--><a href="https://github.com/FreeCAD/FreeCAD/blob/2fcc5317fe3aee96ca73475986a577719fc78e20/src/Base/Builder3D.h#L337" target="_top" title="ArrowItem" xlink:actuate="onRequest" xlink:href="https://github.com/FreeCAD/FreeCAD/blob/2fcc5317fe3aee96ca73475986a577719fc78e20/src/Base/Builder3D.h#L337" xlink:show="new" xlink:title="ArrowItem" xlink:type="simple"><g id="elem_C_0016563370239511058960"><rect codeLine="33" fill="#F1F1F1" height="48" id="C_0016563370239511058960" rx="2.5" ry="2.5" style="stroke:#181818;stroke-width:0.5;" width="104.9736" x="217.5" y="1738.2969"/><ellipse cx="232.5" cy="1754.2969" fill="#ADD1B2" rx="11" ry="11" style="stroke:#181818;stroke-width:1;"/><path d="M235.4688,1759.9375 Q234.8906,1760.2344 234.25,1760.375 Q233.6094,1760.5313 232.9063,1760.5313 Q230.4063,1760.5313 229.0781,1758.8906 Q227.7656,1757.2344 227.7656,1754.1094 Q227.7656,1750.9844 229.0781,1749.3281 Q230.4063,1747.6719 232.9063,1747.6719 Q233.6094,1747.6719 234.25,1747.8281 Q234.9063,1747.9844 235.4688,1748.2813 L235.4688,1751 Q234.8438,1750.4219 234.25,1750.1563 Q233.6563,1749.875 233.0313,1749.875 Q231.6875,1749.875 231,1750.9531 Q230.3125,1752.0156 230.3125,1754.1094 Q230.3125,1756.2031 231,1757.2813 Q231.6875,1758.3438 233.0313,1758.3438 Q233.6563,1758.3438 234.25,1758.0781 Q234.8438,1757.7969 235.4688,1757.2188 L235.4688,1759.9375 Z " fill="#000000"/><text fill="#000000" font-family="sans-serif" font-size="14" lengthAdjust="spacing" textLength="72.9736" x="246.5" y="1759.1436">ArrowItem</text><line style="stroke:#181818;stroke-width:0.5;" x1="218.5" x2="321.4736" y1="1770.2969" y2="1770.2969"/><line style="stroke:#181818;stroke-width:0.5;" x1="218.5" x2="321.4736" y1="1778.2969" y2="1778.2969"/></g></a><!--class C_0004229591888014686384--><a href="https://github.com/FreeCAD/FreeCAD/blob/2fcc5317fe3aee96ca73475986a577719fc78e20/src/Base/Builder3D.h#L351" target="_top" title="BoundingBoxItem" xlink:actuate="onRequest" xlink:href="https://github.com/FreeCAD/FreeCAD/blob/2fcc5317fe3aee96ca73475986a577719fc78e20/src/Base/Builder3D.h#L351" xlink:show="new" xlink:title="BoundingBoxItem" xlink:type="simple"><g id="elem_C_0004229591888014686384"><rect codeLine="37" fill="#F1F1F1" height="48" id="C_0004229591888014686384" rx="2.5" ry="2.5" style="stroke:#181818;stroke-width:0.5;" width="156.7764" x="191.5" y="1655.2969"/><ellipse cx="206.5" cy="1671.2969" fill="#ADD1B2" rx="11" ry="11" style="stroke:#181818;stroke-width:1;"/><path d="M209.4688,1676.9375 Q208.8906,1677.2344 208.25,1677.375 Q207.6094,1677.5313 206.9063,1677.5313 Q204.4063,1677.5313 203.0781,1675.8906 Q201.7656,1674.2344 201.7656,1671.1094 Q201.7656,1667.9844 203.0781,1666.3281 Q204.4063,1664.6719 206.9063,1664.6719 Q207.6094,1664.6719 208.25,1664.8281 Q208.9063,1664.9844 209.4688,1665.2813 L209.4688,1668 Q208.8438,1667.4219 208.25,1667.1563 Q207.6563,1666.875 207.0313,1666.875 Q205.6875,1666.875 205,1667.9531 Q204.3125,1669.0156 204.3125,1671.1094 Q204.3125,1673.2031 205,1674.2813 Q205.6875,1675.3438 207.0313,1675.3438 Q207.6563,1675.3438 208.25,1675.0781 Q208.8438,1674.7969 209.4688,1674.2188 L209.4688,1676.9375 Z " fill="#000000"/><text fill="#000000" font-family="sans-serif" font-size="14" lengthAdjust="spacing" textLength="124.7764" x="220.5" y="1676.1436">BoundingBoxItem</text><line style="stroke:#181818;stroke-width:0.5;" x1="192.5" x2="347.2764" y1="1687.2969" y2="1687.2969"/><line style="stroke:#181818;stroke-width:0.5;" x1="192.5" x2="347.2764" y1="1695.2969" y2="1695.2969"/></g></a><!--class C_0003770821643484466971--><a href="https://github.com/FreeCAD/FreeCAD/blob/2fcc5317fe3aee96ca73475986a577719fc78e20/src/Base/Builder3D.h#L370" target="_top" title="MaterialItem" xlink:actuate="onRequest" xlink:href="https://github.com/FreeCAD/FreeCAD/blob/2fcc5317fe3aee96ca73475986a577719fc78e20/src/Base/Builder3D.h#L370" xlink:show="new" xlink:title="MaterialItem" xlink:type="simple"><g id="elem_C_0003770821643484466971"><rect codeLine="41" fill="#F1F1F1" height="48" id="C_0003770821643484466971" rx="2.5" ry="2.5" style="stroke:#181818;stroke-width:0.5;" width="120.7441" x="209.5" y="1572.2969"/><ellipse cx="224.5" cy="1588.2969" fill="#ADD1B2" rx="11" ry="11" style="stroke:#181818;stroke-width:1;"/><path d="M227.4688,1593.9375 Q226.8906,1594.2344 226.25,1594.375 Q225.6094,1594.5313 224.9063,1594.5313 Q222.4063,1594.5313 221.0781,1592.8906 Q219.7656,1591.2344 219.7656,1588.1094 Q219.7656,1584.9844 221.0781,1583.3281 Q222.4063,1581.6719 224.9063,1581.6719 Q225.6094,1581.6719 226.25,1581.8281 Q226.9063,1581.9844 227.4688,1582.2813 L227.4688,1585 Q226.8438,1584.4219 226.25,1584.1563 Q225.6563,1583.875 225.0313,1583.875 Q223.6875,1583.875 223,1584.9531 Q222.3125,1586.0156 222.3125,1588.1094 Q222.3125,1590.2031 223,1591.2813 Q223.6875,1592.3438 225.0313,1592.3438 Q225.6563,1592.3438 226.25,1592.0781 Q226.8438,1591.7969 227.4688,1591.2188 L227.4688,1593.9375 Z " fill="#000000"/><text fill="#000000" font-family="sans-serif" font-size="14" lengthAdjust="spacing" textLength="88.7441" x="238.5" y="1593.1436">MaterialItem</text><line style="stroke:#181818;stroke-width:0.5;" x1="210.5" x2="329.2441" y1="1604.2969" y2="1604.2969"/><line style="stroke:#181818;stroke-width:0.5;" x1="210.5" x2="329.2441" y1="1612.2969" y2="1612.2969"/></g></a><!--class C_0007381822741748470515--><a href="https://github.com/FreeCAD/FreeCAD/blob/2fcc5317fe3aee96ca73475986a577719fc78e20/src/Base/Builder3D.h#L403" target="_top" title="MaterialBindingItem" xlink:actuate="onRequest" xlink:href="https://github.com/FreeCAD/FreeCAD/blob/2fcc5317fe3aee96ca73475986a577719fc78e20/src/Base/Builder3D.h#L403" xlink:show="new" xlink:title="MaterialBindingItem" xlink:type="simple"><g id="elem_C_0007381822741748470515"><rect codeLine="45" fill="#F1F1F1" height="48" id="C_0007381822741748470515" rx="2.5" ry="2.5" style="stroke:#181818;stroke-width:0.5;" width="173.6475" x="183" y="1489.2969"/><ellipse cx="198" cy="1505.2969" fill="#ADD1B2" rx="11" ry="11" style="stroke:#181818;stroke-width:1;"/><path d="M200.9688,1510.9375 Q200.3906,1511.2344 199.75,1511.375 Q199.1094,1511.5313 198.4063,1511.5313 Q195.9063,1511.5313 194.5781,1509.8906 Q193.2656,1508.2344 193.2656,1505.1094 Q193.2656,1501.9844 194.5781,1500.3281 Q195.9063,1498.6719 198.4063,1498.6719 Q199.1094,1498.6719 199.75,1498.8281 Q200.4063,1498.9844 200.9688,1499.2813 L200.9688,1502 Q200.3438,1501.4219 199.75,1501.1563 Q199.1563,1500.875 198.5313,1500.875 Q197.1875,1500.875 196.5,1501.9531 Q195.8125,1503.0156 195.8125,1505.1094 Q195.8125,1507.2031 196.5,1508.2813 Q197.1875,1509.3438 198.5313,1509.3438 Q199.1563,1509.3438 199.75,1509.0781 Q200.3438,1508.7969 200.9688,1508.2188 L200.9688,1510.9375 Z " fill="#000000"/><text fill="#000000" font-family="sans-serif" font-size="14" lengthAdjust="spacing" textLength="141.6475" x="212" y="1510.1436">MaterialBindingItem</text><line style="stroke:#181818;stroke-width:0.5;" x1="184" x2="355.6475" y1="1521.2969" y2="1521.2969"/><line style="stroke:#181818;stroke-width:0.5;" x1="184" x2="355.6475" y1="1529.2969" y2="1529.2969"/></g></a><!--class C_0009846323258690831919--><a href="https://github.com/FreeCAD/FreeCAD/blob/2fcc5317fe3aee96ca73475986a577719fc78e20/src/Base/Builder3D.h#L418" target="_top" title="DrawStyleItem" xlink:actuate="onRequest" xlink:href="https://github.com/FreeCAD/FreeCAD/blob/2fcc5317fe3aee96ca73475986a577719fc78e20/src/Base/Builder3D.h#L418" xlink:show="new" xlink:title="DrawStyleItem" xlink:type="simple"><g id="elem_C_0009846323258690831919"><rect codeLine="49" fill="#F1F1F1" height="48" id="C_0009846323258690831919" rx="2.5" ry="2.5" style="stroke:#181818;stroke-width:0.5;" width="135.5986" x="202" y="1406.2969"/><ellipse cx="217" cy="1422.2969" fill="#ADD1B2" rx="11" ry="11" style="stroke:#181818;stroke-width:1;"/><path d="M219.9688,1427.9375 Q219.3906,1428.2344 218.75,1428.375 Q218.1094,1428.5313 217.4063,1428.5313 Q214.9063,1428.5313 213.5781,1426.8906 Q212.2656,1425.2344 212.2656,1422.1094 Q212.2656,1418.9844 213.5781,1417.3281 Q214.9063,1415.6719 217.4063,1415.6719 Q218.1094,1415.6719 218.75,1415.8281 Q219.4063,1415.9844 219.9688,1416.2813 L219.9688,1419 Q219.3438,1418.4219 218.75,1418.1563 Q218.1563,1417.875 217.5313,1417.875 Q216.1875,1417.875 215.5,1418.9531 Q214.8125,1420.0156 214.8125,1422.1094 Q214.8125,1424.2031 215.5,1425.2813 Q216.1875,1426.3438 217.5313,1426.3438 Q218.1563,1426.3438 218.75,1426.0781 Q219.3438,1425.7969 219.9688,1425.2188 L219.9688,1427.9375 Z " fill="#000000"/><text fill="#000000" font-family="sans-serif" font-size="14" lengthAdjust="spacing" textLength="103.5986" x="231" y="1427.1436">DrawStyleItem</text><line style="stroke:#181818;stroke-width:0.5;" x1="203" x2="336.5986" y1="1438.2969" y2="1438.2969"/><line style="stroke:#181818;stroke-width:0.5;" x1="203" x2="336.5986" y1="1446.2969" y2="1446.2969"/></g></a><!--class C_0006308139742991240946--><a href="https://github.com/FreeCAD/FreeCAD/blob/2fcc5317fe3aee96ca73475986a577719fc78e20/src/Base/Builder3D.h#L433" target="_top" title="ShapeHintsItem" xlink:actuate="onRequest" xlink:href="https://github.com/FreeCAD/FreeCAD/blob/2fcc5317fe3aee96ca73475986a577719fc78e20/src/Base/Builder3D.h#L433" xlink:show="new" xlink:title="ShapeHintsItem" xlink:type="simple"><g id="elem_C_0006308139742991240946"><rect codeLine="53" fill="#F1F1F1" height="48" id="C_0006308139742991240946" rx="2.5" ry="2.5" style="stroke:#181818;stroke-width:0.5;" width="143.7813" x="198" y="1323.2969"/><ellipse cx="213" cy="1339.2969" fill="#ADD1B2" rx="11" ry="11" style="stroke:#181818;stroke-width:1;"/><path d="M215.9688,1344.9375 Q215.3906,1345.2344 214.75,1345.375 Q214.1094,1345.5313 213.4063,1345.5313 Q210.9063,1345.5313 209.5781,1343.8906 Q208.2656,1342.2344 208.2656,1339.1094 Q208.2656,1335.9844 209.5781,1334.3281 Q210.9063,1332.6719 213.4063,1332.6719 Q214.1094,1332.6719 214.75,1332.8281 Q215.4063,1332.9844 215.9688,1333.2813 L215.9688,1336 Q215.3438,1335.4219 214.75,1335.1563 Q214.1563,1334.875 213.5313,1334.875 Q212.1875,1334.875 211.5,1335.9531 Q210.8125,1337.0156 210.8125,1339.1094 Q210.8125,1341.2031 211.5,1342.2813 Q212.1875,1343.3438 213.5313,1343.3438 Q214.1563,1343.3438 214.75,1343.0781 Q215.3438,1342.7969 215.9688,1342.2188 L215.9688,1344.9375 Z " fill="#000000"/><text fill="#000000" font-family="sans-serif" font-size="14" lengthAdjust="spacing" textLength="111.7813" x="227" y="1344.1436">ShapeHintsItem</text><line style="stroke:#181818;stroke-width:0.5;" x1="199" x2="340.7813" y1="1355.2969" y2="1355.2969"/><line style="stroke:#181818;stroke-width:0.5;" x1="199" x2="340.7813" y1="1363.2969" y2="1363.2969"/></g></a><!--class C_0009401210480385110890--><a href="https://github.com/FreeCAD/FreeCAD/blob/2fcc5317fe3aee96ca73475986a577719fc78e20/src/Base/Builder3D.h#L450" target="_top" title="PolygonOffsetItem" xlink:actuate="onRequest" xlink:href="https://github.com/FreeCAD/FreeCAD/blob/2fcc5317fe3aee96ca73475986a577719fc78e20/src/Base/Builder3D.h#L450" xlink:show="new" xlink:title="PolygonOffsetItem" xlink:type="simple"><g id="elem_C_0009401210480385110890"><rect codeLine="57" fill="#F1F1F1" height="48" id="C_0009401210480385110890" rx="2.5" ry="2.5" style="stroke:#181818;stroke-width:0.5;" width="161.6504" x="189" y="1240.2969"/><ellipse cx="204" cy="1256.2969" fill="#ADD1B2" rx="11" ry="11" style="stroke:#181818;stroke-width:1;"/><path d="M206.9688,1261.9375 Q206.3906,1262.2344 205.75,1262.375 Q205.1094,1262.5313 204.4063,1262.5313 Q201.9063,1262.5313 200.5781,1260.8906 Q199.2656,1259.2344 199.2656,1256.1094 Q199.2656,1252.9844 200.5781,1251.3281 Q201.9063,1249.6719 204.4063,1249.6719 Q205.1094,1249.6719 205.75,1249.8281 Q206.4063,1249.9844 206.9688,1250.2813 L206.9688,1253 Q206.3438,1252.4219 205.75,1252.1563 Q205.1563,1251.875 204.5313,1251.875 Q203.1875,1251.875 202.5,1252.9531 Q201.8125,1254.0156 201.8125,1256.1094 Q201.8125,1258.2031 202.5,1259.2813 Q203.1875,1260.3438 204.5313,1260.3438 Q205.1563,1260.3438 205.75,1260.0781 Q206.3438,1259.7969 206.9688,1259.2188 L206.9688,1261.9375 Z " fill="#000000"/><text fill="#000000" font-family="sans-serif" font-size="14" lengthAdjust="spacing" textLength="129.6504" x="218" y="1261.1436">PolygonOffsetItem</text><line style="stroke:#181818;stroke-width:0.5;" x1="190" x2="349.6504" y1="1272.2969" y2="1272.2969"/><line style="stroke:#181818;stroke-width:0.5;" x1="190" x2="349.6504" y1="1280.2969" y2="1280.2969"/></g></a><!--class C_0017424363913360464021--><a href="https://github.com/FreeCAD/FreeCAD/blob/2fcc5317fe3aee96ca73475986a577719fc78e20/src/Base/Builder3D.h#L463" target="_top" title="Coordinate3Item" xlink:actuate="onRequest" xlink:href="https://github.com/FreeCAD/FreeCAD/blob/2fcc5317fe3aee96ca73475986a577719fc78e20/src/Base/Builder3D.h#L463" xlink:show="new" xlink:title="Coordinate3Item" xlink:type="simple"><g id="elem_C_0017424363913360464021"><rect codeLine="61" fill="#F1F1F1" height="48" id="C_0017424363913360464021" rx="2.5" ry="2.5" style="stroke:#181818;stroke-width:0.5;" width="149.7695" x="195" y="1157.2969"/><ellipse cx="210" cy="1173.2969" fill="#ADD1B2" rx="11" ry="11" style="stroke:#181818;stroke-width:1;"/><path d="M212.9688,1178.9375 Q212.3906,1179.2344 211.75,1179.375 Q211.1094,1179.5313 210.4063,1179.5313 Q207.9063,1179.5313 206.5781,1177.8906 Q205.2656,1176.2344 205.2656,1173.1094 Q205.2656,1169.9844 206.5781,1168.3281 Q207.9063,1166.6719 210.4063,1166.6719 Q211.1094,1166.6719 211.75,1166.8281 Q212.4063,1166.9844 212.9688,1167.2813 L212.9688,1170 Q212.3438,1169.4219 211.75,1169.1563 Q211.1563,1168.875 210.5313,1168.875 Q209.1875,1168.875 208.5,1169.9531 Q207.8125,1171.0156 207.8125,1173.1094 Q207.8125,1175.2031 208.5,1176.2813 Q209.1875,1177.3438 210.5313,1177.3438 Q211.1563,1177.3438 211.75,1177.0781 Q212.3438,1176.7969 212.9688,1176.2188 L212.9688,1178.9375 Z " fill="#000000"/><text fill="#000000" font-family="sans-serif" font-size="14" lengthAdjust="spacing" textLength="117.7695" x="224" y="1178.1436">Coordinate3Item</text><line style="stroke:#181818;stroke-width:0.5;" x1="196" x2="343.7695" y1="1189.2969" y2="1189.2969"/><line style="stroke:#181818;stroke-width:0.5;" x1="196" x2="343.7695" y1="1197.2969" y2="1197.2969"/></g></a><!--class C_0007236662082819544631--><a href="https://github.com/FreeCAD/FreeCAD/blob/2fcc5317fe3aee96ca73475986a577719fc78e20/src/Base/Builder3D.h#L478" target="_top" title="PointSetItem" xlink:actuate="onRequest" xlink:href="https://github.com/FreeCAD/FreeCAD/blob/2fcc5317fe3aee96ca73475986a577719fc78e20/src/Base/Builder3D.h#L478" xlink:show="new" xlink:title="PointSetItem" xlink:type="simple"><g id="elem_C_0007236662082819544631"><rect codeLine="65" fill="#F1F1F1" height="48" id="C_0007236662082819544631" rx="2.5" ry="2.5" style="stroke:#181818;stroke-width:0.5;" width="122.1182" x="209" y="1074.2969"/><ellipse cx="224" cy="1090.2969" fill="#ADD1B2" rx="11" ry="11" style="stroke:#181818;stroke-width:1;"/><path d="M226.9688,1095.9375 Q226.3906,1096.2344 225.75,1096.375 Q225.1094,1096.5313 224.4063,1096.5313 Q221.9063,1096.5313 220.5781,1094.8906 Q219.2656,1093.2344 219.2656,1090.1094 Q219.2656,1086.9844 220.5781,1085.3281 Q221.9063,1083.6719 224.4063,1083.6719 Q225.1094,1083.6719 225.75,1083.8281 Q226.4063,1083.9844 226.9688,1084.2813 L226.9688,1087 Q226.3438,1086.4219 225.75,1086.1563 Q225.1563,1085.875 224.5313,1085.875 Q223.1875,1085.875 222.5,1086.9531 Q221.8125,1088.0156 221.8125,1090.1094 Q221.8125,1092.2031 222.5,1093.2813 Q223.1875,1094.3438 224.5313,1094.3438 Q225.1563,1094.3438 225.75,1094.0781 Q226.3438,1093.7969 226.9688,1093.2188 L226.9688,1095.9375 Z " fill="#000000"/><text fill="#000000" font-family="sans-serif" font-size="14" lengthAdjust="spacing" textLength="90.1182" x="238" y="1095.1436">PointSetItem</text><line style="stroke:#181818;stroke-width:0.5;" x1="210" x2="330.1182" y1="1106.2969" y2="1106.2969"/><line style="stroke:#181818;stroke-width:0.5;" x1="210" x2="330.1182" y1="1114.2969" y2="1114.2969"/></g></a><!--class C_0009282498347772441127--><a href="https://github.com/FreeCAD/FreeCAD/blob/2fcc5317fe3aee96ca73475986a577719fc78e20/src/Base/Builder3D.h#L487" target="_top" title="LineSetItem" xlink:actuate="onRequest" xlink:href="https://github.com/FreeCAD/FreeCAD/blob/2fcc5317fe3aee96ca73475986a577719fc78e20/src/Base/Builder3D.h#L487" xlink:show="new" xlink:title="LineSetItem" xlink:type="simple"><g id="elem_C_0009282498347772441127"><rect codeLine="69" fill="#F1F1F1" height="48" id="C_0009282498347772441127" rx="2.5" ry="2.5" style="stroke:#181818;stroke-width:0.5;" width="116.0342" x="212" y="991.2969"/><ellipse cx="227" cy="1007.2969" fill="#ADD1B2" rx="11" ry="11" style="stroke:#181818;stroke-width:1;"/><path d="M229.9688,1012.9375 Q229.3906,1013.2344 228.75,1013.375 Q228.1094,1013.5313 227.4063,1013.5313 Q224.9063,1013.5313 223.5781,1011.8906 Q222.2656,1010.2344 222.2656,1007.1094 Q222.2656,1003.9844 223.5781,1002.3281 Q224.9063,1000.6719 227.4063,1000.6719 Q228.1094,1000.6719 228.75,1000.8281 Q229.4063,1000.9844 229.9688,1001.2813 L229.9688,1004 Q229.3438,1003.4219 228.75,1003.1563 Q228.1563,1002.875 227.5313,1002.875 Q226.1875,1002.875 225.5,1003.9531 Q224.8125,1005.0156 224.8125,1007.1094 Q224.8125,1009.2031 225.5,1010.2813 Q226.1875,1011.3438 227.5313,1011.3438 Q228.1563,1011.3438 228.75,1011.0781 Q229.3438,1010.7969 229.9688,1010.2188 L229.9688,1012.9375 Z " fill="#000000"/><text fill="#000000" font-family="sans-serif" font-size="14" lengthAdjust="spacing" textLength="84.0342" x="241" y="1012.1436">LineSetItem</text><line style="stroke:#181818;stroke-width:0.5;" x1="213" x2="327.0342" y1="1023.2969" y2="1023.2969"/><line style="stroke:#181818;stroke-width:0.5;" x1="213" x2="327.0342" y1="1031.2969" y2="1031.2969"/></g></a><!--class C_0004165658604788210492--><a href="https://github.com/FreeCAD/FreeCAD/blob/2fcc5317fe3aee96ca73475986a577719fc78e20/src/Base/Builder3D.h#L496" target="_top" title="FaceSetItem" xlink:actuate="onRequest" xlink:href="https://github.com/FreeCAD/FreeCAD/blob/2fcc5317fe3aee96ca73475986a577719fc78e20/src/Base/Builder3D.h#L496" xlink:show="new" xlink:title="FaceSetItem" xlink:type="simple"><g id="elem_C_0004165658604788210492"><rect codeLine="73" fill="#F1F1F1" height="48" id="C_0004165658604788210492" rx="2.5" ry="2.5" style="stroke:#181818;stroke-width:0.5;" width="119.8008" x="210" y="908.2969"/><ellipse cx="225" cy="924.2969" fill="#ADD1B2" rx="11" ry="11" style="stroke:#181818;stroke-width:1;"/><path d="M227.9688,929.9375 Q227.3906,930.2344 226.75,930.375 Q226.1094,930.5313 225.4063,930.5313 Q222.9063,930.5313 221.5781,928.8906 Q220.2656,927.2344 220.2656,924.1094 Q220.2656,920.9844 221.5781,919.3281 Q222.9063,917.6719 225.4063,917.6719 Q226.1094,917.6719 226.75,917.8281 Q227.4063,917.9844 227.9688,918.2813 L227.9688,921 Q227.3438,920.4219 226.75,920.1563 Q226.1563,919.875 225.5313,919.875 Q224.1875,919.875 223.5,920.9531 Q222.8125,922.0156 222.8125,924.1094 Q222.8125,926.2031 223.5,927.2813 Q224.1875,928.3438 225.5313,928.3438 Q226.1563,928.3438 226.75,928.0781 Q227.3438,927.7969 227.9688,927.2188 L227.9688,929.9375 Z " fill="#000000"/><text fill="#000000" font-family="sans-serif" font-size="14" lengthAdjust="spacing" textLength="87.8008" x="239" y="929.1436">FaceSetItem</text><line style="stroke:#181818;stroke-width:0.5;" x1="211" x2="328.8008" y1="940.2969" y2="940.2969"/><line style="stroke:#181818;stroke-width:0.5;" x1="211" x2="328.8008" y1="948.2969" y2="948.2969"/></g></a><!--class C_0004814078650981951908--><a href="https://github.com/FreeCAD/FreeCAD/blob/2fcc5317fe3aee96ca73475986a577719fc78e20/src/Base/Builder3D.h#L509" target="_top" title="IndexedLineSetItem" xlink:actuate="onRequest" xlink:href="https://github.com/FreeCAD/FreeCAD/blob/2fcc5317fe3aee96ca73475986a577719fc78e20/src/Base/Builder3D.h#L509" xlink:show="new" xlink:title="IndexedLineSetItem" xlink:type="simple"><g id="elem_C_0004814078650981951908"><rect codeLine="77" fill="#F1F1F1" height="48" id="C_0004814078650981951908" rx="2.5" ry="2.5" style="stroke:#181818;stroke-width:0.5;" width="172.3213" x="184" y="825.2969"/><ellipse cx="199" cy="841.2969" fill="#ADD1B2" rx="11" ry="11" style="stroke:#181818;stroke-width:1;"/><path d="M201.9688,846.9375 Q201.3906,847.2344 200.75,847.375 Q200.1094,847.5313 199.4063,847.5313 Q196.9063,847.5313 195.5781,845.8906 Q194.2656,844.2344 194.2656,841.1094 Q194.2656,837.9844 195.5781,836.3281 Q196.9063,834.6719 199.4063,834.6719 Q200.1094,834.6719 200.75,834.8281 Q201.4063,834.9844 201.9688,835.2813 L201.9688,838 Q201.3438,837.4219 200.75,837.1563 Q200.1563,836.875 199.5313,836.875 Q198.1875,836.875 197.5,837.9531 Q196.8125,839.0156 196.8125,841.1094 Q196.8125,843.2031 197.5,844.2813 Q198.1875,845.3438 199.5313,845.3438 Q200.1563,845.3438 200.75,845.0781 Q201.3438,844.7969 201.9688,844.2188 L201.9688,846.9375 Z " fill="#000000"/><text fill="#000000" font-family="sans-serif" font-size="14" lengthAdjust="spacing" textLength="140.3213" x="213" y="846.1436">IndexedLineSetItem</text><line style="stroke:#181818;stroke-width:0.5;" x1="185" x2="355.3213" y1="857.2969" y2="857.2969"/><line style="stroke:#181818;stroke-width:0.5;" x1="185" x2="355.3213" y1="865.2969" y2="865.2969"/></g></a><!--class C_0008415487316637387662--><a href="https://github.com/FreeCAD/FreeCAD/blob/2fcc5317fe3aee96ca73475986a577719fc78e20/src/Base/Builder3D.h#L522" target="_top" title="IndexedFaceSetItem" xlink:actuate="onRequest" xlink:href="https://github.com/FreeCAD/FreeCAD/blob/2fcc5317fe3aee96ca73475986a577719fc78e20/src/Base/Builder3D.h#L522" xlink:show="new" xlink:title="IndexedFaceSetItem" xlink:type="simple"><g id="elem_C_0008415487316637387662"><rect codeLine="81" fill="#F1F1F1" height="48" id="C_0008415487316637387662" rx="2.5" ry="2.5" style="stroke:#181818;stroke-width:0.5;" width="176.0879" x="182" y="742.2969"/><ellipse cx="197" cy="758.2969" fill="#ADD1B2" rx="11" ry="11" style="stroke:#181818;stroke-width:1;"/><path d="M199.9688,763.9375 Q199.3906,764.2344 198.75,764.375 Q198.1094,764.5313 197.4063,764.5313 Q194.9063,764.5313 193.5781,762.8906 Q192.2656,761.2344 192.2656,758.1094 Q192.2656,754.9844 193.5781,753.3281 Q194.9063,751.6719 197.4063,751.6719 Q198.1094,751.6719 198.75,751.8281 Q199.4063,751.9844 199.9688,752.2813 L199.9688,755 Q199.3438,754.4219 198.75,754.1563 Q198.1563,753.875 197.5313,753.875 Q196.1875,753.875 195.5,754.9531 Q194.8125,756.0156 194.8125,758.1094 Q194.8125,760.2031 195.5,761.2813 Q196.1875,762.3438 197.5313,762.3438 Q198.1563,762.3438 198.75,762.0781 Q199.3438,761.7969 199.9688,761.2188 L199.9688,763.9375 Z " fill="#000000"/><text fill="#000000" font-family="sans-serif" font-size="14" lengthAdjust="spacing" textLength="144.0879" x="211" y="763.1436">IndexedFaceSetItem</text><line style="stroke:#181818;stroke-width:0.5;" x1="183" x2="357.0879" y1="774.2969" y2="774.2969"/><line style="stroke:#181818;stroke-width:0.5;" x1="183" x2="357.0879" y1="782.2969" y2="782.2969"/></g></a><!--class C_0015634186810409027727--><a href="https://github.com/FreeCAD/FreeCAD/blob/2fcc5317fe3aee96ca73475986a577719fc78e20/src/Base/Builder3D.h#L535" target="_top" title="NormalItem" xlink:actuate="onRequest" xlink:href="https://github.com/FreeCAD/FreeCAD/blob/2fcc5317fe3aee96ca73475986a577719fc78e20/src/Base/Builder3D.h#L535" xlink:show="new" xlink:title="NormalItem" xlink:type="simple"><g id="elem_C_0015634186810409027727"><rect codeLine="85" fill="#F1F1F1" height="48" id="C_0015634186810409027727" rx="2.5" ry="2.5" style="stroke:#181818;stroke-width:0.5;" width="114.7695" x="212.5" y="659.2969"/><ellipse cx="227.5" cy="675.2969" fill="#ADD1B2" rx="11" ry="11" style="stroke:#181818;stroke-width:1;"/><path d="M230.4688,680.9375 Q229.8906,681.2344 229.25,681.375 Q228.6094,681.5313 227.9063,681.5313 Q225.4063,681.5313 224.0781,679.8906 Q222.7656,678.2344 222.7656,675.1094 Q222.7656,671.9844 224.0781,670.3281 Q225.4063,668.6719 227.9063,668.6719 Q228.6094,668.6719 229.25,668.8281 Q229.9063,668.9844 230.4688,669.2813 L230.4688,672 Q229.8438,671.4219 229.25,671.1563 Q228.6563,670.875 228.0313,670.875 Q226.6875,670.875 226,671.9531 Q225.3125,673.0156 225.3125,675.1094 Q225.3125,677.2031 226,678.2813 Q226.6875,679.3438 228.0313,679.3438 Q228.6563,679.3438 229.25,679.0781 Q229.8438,678.7969 230.4688,678.2188 L230.4688,680.9375 Z " fill="#000000"/><text fill="#000000" font-family="sans-serif" font-size="14" lengthAdjust="spacing" textLength="82.7695" x="241.5" y="680.1436">NormalItem</text><line style="stroke:#181818;stroke-width:0.5;" x1="213.5" x2="326.2695" y1="691.2969" y2="691.2969"/><line style="stroke:#181818;stroke-width:0.5;" x1="213.5" x2="326.2695" y1="699.2969" y2="699.2969"/></g></a><!--class C_0008991352168833495969--><a href="https://github.com/FreeCAD/FreeCAD/blob/2fcc5317fe3aee96ca73475986a577719fc78e20/src/Base/Builder3D.h#L550" target="_top" title="NormalBindingItem" xlink:actuate="onRequest" xlink:href="https://github.com/FreeCAD/FreeCAD/blob/2fcc5317fe3aee96ca73475986a577719fc78e20/src/Base/Builder3D.h#L550" xlink:show="new" xlink:title="NormalBindingItem" xlink:type="simple"><g id="elem_C_0008991352168833495969"><rect codeLine="89" fill="#F1F1F1" height="48" id="C_0008991352168833495969" rx="2.5" ry="2.5" style="stroke:#181818;stroke-width:0.5;" width="167.6729" x="186" y="576.2969"/><ellipse cx="201" cy="592.2969" fill="#ADD1B2" rx="11" ry="11" style="stroke:#181818;stroke-width:1;"/><path d="M203.9688,597.9375 Q203.3906,598.2344 202.75,598.375 Q202.1094,598.5313 201.4063,598.5313 Q198.9063,598.5313 197.5781,596.8906 Q196.2656,595.2344 196.2656,592.1094 Q196.2656,588.9844 197.5781,587.3281 Q198.9063,585.6719 201.4063,585.6719 Q202.1094,585.6719 202.75,585.8281 Q203.4063,585.9844 203.9688,586.2813 L203.9688,589 Q203.3438,588.4219 202.75,588.1563 Q202.1563,587.875 201.5313,587.875 Q200.1875,587.875 199.5,588.9531 Q198.8125,590.0156 198.8125,592.1094 Q198.8125,594.2031 199.5,595.2813 Q200.1875,596.3438 201.5313,596.3438 Q202.1563,596.3438 202.75,596.0781 Q203.3438,595.7969 203.9688,595.2188 L203.9688,597.9375 Z " fill="#000000"/><text fill="#000000" font-family="sans-serif" font-size="14" lengthAdjust="spacing" textLength="135.6729" x="215" y="597.1436">NormalBindingItem</text><line style="stroke:#181818;stroke-width:0.5;" x1="187" x2="352.6729" y1="608.2969" y2="608.2969"/><line style="stroke:#181818;stroke-width:0.5;" x1="187" x2="352.6729" y1="616.2969" y2="616.2969"/></g></a><!--class C_0001606703663220004622--><a href="https://github.com/FreeCAD/FreeCAD/blob/2fcc5317fe3aee96ca73475986a577719fc78e20/src/Base/Builder3D.h#L564" target="_top" title="CylinderItem" xlink:actuate="onRequest" xlink:href="https://github.com/FreeCAD/FreeCAD/blob/2fcc5317fe3aee96ca73475986a577719fc78e20/src/Base/Builder3D.h#L564" xlink:show="new" xlink:title="CylinderItem" xlink:type="simple"><g id="elem_C_0001606703663220004622"><rect codeLine="93" fill="#F1F1F1" height="48" id="C_0001606703663220004622" rx="2.5" ry="2.5" style="stroke:#181818;stroke-width:0.5;" width="121.8379" x="209" y="493.2969"/><ellipse cx="224" cy="509.2969" fill="#ADD1B2" rx="11" ry="11" style="stroke:#181818;stroke-width:1;"/><path d="M226.9688,514.9375 Q226.3906,515.2344 225.75,515.375 Q225.1094,515.5313 224.4063,515.5313 Q221.9063,515.5313 220.5781,513.8906 Q219.2656,512.2344 219.2656,509.1094 Q219.2656,505.9844 220.5781,504.3281 Q221.9063,502.6719 224.4063,502.6719 Q225.1094,502.6719 225.75,502.8281 Q226.4063,502.9844 226.9688,503.2813 L226.9688,506 Q226.3438,505.4219 225.75,505.1563 Q225.1563,504.875 224.5313,504.875 Q223.1875,504.875 222.5,505.9531 Q221.8125,507.0156 221.8125,509.1094 Q221.8125,511.2031 222.5,512.2813 Q223.1875,513.3438 224.5313,513.3438 Q225.1563,513.3438 225.75,513.0781 Q226.3438,512.7969 226.9688,512.2188 L226.9688,514.9375 Z " fill="#000000"/><text fill="#000000" font-family="sans-serif" font-size="14" lengthAdjust="spacing" textLength="89.8379" x="238" y="514.1436">CylinderItem</text><line style="stroke:#181818;stroke-width:0.5;" x1="210" x2="329.8379" y1="525.2969" y2="525.2969"/><line style="stroke:#181818;stroke-width:0.5;" x1="210" x2="329.8379" y1="533.2969" y2="533.2969"/></g></a><!--class C_0011239105593547930431--><a href="https://github.com/FreeCAD/FreeCAD/blob/2fcc5317fe3aee96ca73475986a577719fc78e20/src/Base/Builder3D.h#L579" target="_top" title="ConeItem" xlink:actuate="onRequest" xlink:href="https://github.com/FreeCAD/FreeCAD/blob/2fcc5317fe3aee96ca73475986a577719fc78e20/src/Base/Builder3D.h#L579" xlink:show="new" xlink:title="ConeItem" xlink:type="simple"><g id="elem_C_0011239105593547930431"><rect codeLine="97" fill="#F1F1F1" height="48" id="C_0011239105593547930431" rx="2.5" ry="2.5" style="stroke:#181818;stroke-width:0.5;" width="99.6963" x="220" y="410.2969"/><ellipse cx="235" cy="426.2969" fill="#ADD1B2" rx="11" ry="11" style="stroke:#181818;stroke-width:1;"/><path d="M237.9688,431.9375 Q237.3906,432.2344 236.75,432.375 Q236.1094,432.5313 235.4063,432.5313 Q232.9063,432.5313 231.5781,430.8906 Q230.2656,429.2344 230.2656,426.1094 Q230.2656,422.9844 231.5781,421.3281 Q232.9063,419.6719 235.4063,419.6719 Q236.1094,419.6719 236.75,419.8281 Q237.4063,419.9844 237.9688,420.2813 L237.9688,423 Q237.3438,422.4219 236.75,422.1563 Q236.1563,421.875 235.5313,421.875 Q234.1875,421.875 233.5,422.9531 Q232.8125,424.0156 232.8125,426.1094 Q232.8125,428.2031 233.5,429.2813 Q234.1875,430.3438 235.5313,430.3438 Q236.1563,430.3438 236.75,430.0781 Q237.3438,429.7969 237.9688,429.2188 L237.9688,431.9375 Z " fill="#000000"/><text fill="#000000" font-family="sans-serif" font-size="14" lengthAdjust="spacing" textLength="67.6963" x="249" y="431.1436">ConeItem</text><line style="stroke:#181818;stroke-width:0.5;" x1="221" x2="318.6963" y1="442.2969" y2="442.2969"/><line style="stroke:#181818;stroke-width:0.5;" x1="221" x2="318.6963" y1="450.2969" y2="450.2969"/></g></a><!--class C_0005790599249456555514--><a href="https://github.com/FreeCAD/FreeCAD/blob/2fcc5317fe3aee96ca73475986a577719fc78e20/src/Base/Builder3D.h#L594" target="_top" title="SphereItem" xlink:actuate="onRequest" xlink:href="https://github.com/FreeCAD/FreeCAD/blob/2fcc5317fe3aee96ca73475986a577719fc78e20/src/Base/Builder3D.h#L594" xlink:show="new" xlink:title="SphereItem" xlink:type="simple"><g id="elem_C_0005790599249456555514"><rect codeLine="101" fill="#F1F1F1" height="48" id="C_0005790599249456555514" rx="2.5" ry="2.5" style="stroke:#181818;stroke-width:0.5;" width="113.498" x="213.5" y="327.2969"/><ellipse cx="228.5" cy="343.2969" fill="#ADD1B2" rx="11" ry="11" style="stroke:#181818;stroke-width:1;"/><path d="M231.4688,348.9375 Q230.8906,349.2344 230.25,349.375 Q229.6094,349.5313 228.9063,349.5313 Q226.4063,349.5313 225.0781,347.8906 Q223.7656,346.2344 223.7656,343.1094 Q223.7656,339.9844 225.0781,338.3281 Q226.4063,336.6719 228.9063,336.6719 Q229.6094,336.6719 230.25,336.8281 Q230.9063,336.9844 231.4688,337.2813 L231.4688,340 Q230.8438,339.4219 230.25,339.1563 Q229.6563,338.875 229.0313,338.875 Q227.6875,338.875 227,339.9531 Q226.3125,341.0156 226.3125,343.1094 Q226.3125,345.2031 227,346.2813 Q227.6875,347.3438 229.0313,347.3438 Q229.6563,347.3438 230.25,347.0781 Q230.8438,346.7969 231.4688,346.2188 L231.4688,348.9375 Z " fill="#000000"/><text fill="#000000" font-family="sans-serif" font-size="14" lengthAdjust="spacing" textLength="81.498" x="242.5" y="348.1436">SphereItem</text><line style="stroke:#181818;stroke-width:0.5;" x1="214.5" x2="325.998" y1="359.2969" y2="359.2969"/><line style="stroke:#181818;stroke-width:0.5;" x1="214.5" x2="325.998" y1="367.2969" y2="367.2969"/></g></a><!--class C_0005721591084170041597--><a href="https://github.com/FreeCAD/FreeCAD/blob/2fcc5317fe3aee96ca73475986a577719fc78e20/src/Base/Builder3D.h#L607" target="_top" title="NurbsSurfaceItem" xlink:actuate="onRequest" xlink:href="https://github.com/FreeCAD/FreeCAD/blob/2fcc5317fe3aee96ca73475986a577719fc78e20/src/Base/Builder3D.h#L607" xlink:show="new" xlink:title="NurbsSurfaceItem" xlink:type="simple"><g id="elem_C_0005721591084170041597"><rect codeLine="105" fill="#F1F1F1" height="48" id="C_0005721591084170041597" rx="2.5" ry="2.5" style="stroke:#181818;stroke-width:0.5;" width="158.4854" x="191" y="244.2969"/><ellipse cx="206" cy="260.2969" fill="#ADD1B2" rx="11" ry="11" style="stroke:#181818;stroke-width:1;"/><path d="M208.9688,265.9375 Q208.3906,266.2344 207.75,266.375 Q207.1094,266.5313 206.4063,266.5313 Q203.9063,266.5313 202.5781,264.8906 Q201.2656,263.2344 201.2656,260.1094 Q201.2656,256.9844 202.5781,255.3281 Q203.9063,253.6719 206.4063,253.6719 Q207.1094,253.6719 207.75,253.8281 Q208.4063,253.9844 208.9688,254.2813 L208.9688,257 Q208.3438,256.4219 207.75,256.1563 Q207.1563,255.875 206.5313,255.875 Q205.1875,255.875 204.5,256.9531 Q203.8125,258.0156 203.8125,260.1094 Q203.8125,262.2031 204.5,263.2813 Q205.1875,264.3438 206.5313,264.3438 Q207.1563,264.3438 207.75,264.0781 Q208.3438,263.7969 208.9688,263.2188 L208.9688,265.9375 Z " fill="#000000"/><text fill="#000000" font-family="sans-serif" font-size="14" lengthAdjust="spacing" textLength="126.4854" x="220" y="265.1436">NurbsSurfaceItem</text><line style="stroke:#181818;stroke-width:0.5;" x1="192" x2="348.4854" y1="276.2969" y2="276.2969"/><line style="stroke:#181818;stroke-width:0.5;" x1="192" x2="348.4854" y1="284.2969" y2="284.2969"/></g></a><!--class C_0008348468305738718882--><a href="https://github.com/FreeCAD/FreeCAD/blob/2fcc5317fe3aee96ca73475986a577719fc78e20/src/Base/Builder3D.h#L624" target="_top" title="Text2Item" xlink:actuate="onRequest" xlink:href="https://github.com/FreeCAD/FreeCAD/blob/2fcc5317fe3aee96ca73475986a577719fc78e20/src/Base/Builder3D.h#L624" xlink:show="new" xlink:title="Text2Item" xlink:type="simple"><g id="elem_C_0008348468305738718882"><rect codeLine="109" fill="#F1F1F1" height="48" id="C_0008348468305738718882" rx="2.5" ry="2.5" style="stroke:#181818;stroke-width:0.5;" width="103.7158" x="218" y="161.2969"/><ellipse cx="233" cy="177.2969" fill="#ADD1B2" rx="11" ry="11" style="stroke:#181818;stroke-width:1;"/><path d="M235.9688,182.9375 Q235.3906,183.2344 234.75,183.375 Q234.1094,183.5313 233.4063,183.5313 Q230.9063,183.5313 229.5781,181.8906 Q228.2656,180.2344 228.2656,177.1094 Q228.2656,173.9844 229.5781,172.3281 Q230.9063,170.6719 233.4063,170.6719 Q234.1094,170.6719 234.75,170.8281 Q235.4063,170.9844 235.9688,171.2813 L235.9688,174 Q235.3438,173.4219 234.75,173.1563 Q234.1563,172.875 233.5313,172.875 Q232.1875,172.875 231.5,173.9531 Q230.8125,175.0156 230.8125,177.1094 Q230.8125,179.2031 231.5,180.2813 Q232.1875,181.3438 233.5313,181.3438 Q234.1563,181.3438 234.75,181.0781 Q235.3438,180.7969 235.9688,180.2188 L235.9688,182.9375 Z " fill="#000000"/><text fill="#000000" font-family="sans-serif" font-size="14" lengthAdjust="spacing" textLength="71.7158" x="247" y="182.1436">Text2Item</text><line style="stroke:#181818;stroke-width:0.5;" x1="219" x2="320.7158" y1="193.2969" y2="193.2969"/><line style="stroke:#181818;stroke-width:0.5;" x1="219" x2="320.7158" y1="201.2969" y2="201.2969"/></g></a><!--class C_0012603732557138332090--><a href="https://github.com/FreeCAD/FreeCAD/blob/2fcc5317fe3aee96ca73475986a577719fc78e20/src/Base/Builder3D.h#L637" target="_top" title="TransformItem" xlink:actuate="onRequest" xlink:href="https://github.com/FreeCAD/FreeCAD/blob/2fcc5317fe3aee96ca73475986a577719fc78e20/src/Base/Builder3D.h#L637" xlink:show="new" xlink:title="TransformItem" xlink:type="simple"><g id="elem_C_0012603732557138332090"><rect codeLine="113" fill="#F1F1F1" height="48" id="C_0012603732557138332090" rx="2.5" ry="2.5" style="stroke:#181818;stroke-width:0.5;" width="135.8105" x="202" y="78.2969"/><ellipse cx="217" cy="94.2969" fill="#ADD1B2" rx="11" ry="11" style="stroke:#181818;stroke-width:1;"/><path d="M219.9688,99.9375 Q219.3906,100.2344 218.75,100.375 Q218.1094,100.5313 217.4063,100.5313 Q214.9063,100.5313 213.5781,98.8906 Q212.2656,97.2344 212.2656,94.1094 Q212.2656,90.9844 213.5781,89.3281 Q214.9063,87.6719 217.4063,87.6719 Q218.1094,87.6719 218.75,87.8281 Q219.4063,87.9844 219.9688,88.2813 L219.9688,91 Q219.3438,90.4219 218.75,90.1563 Q218.1563,89.875 217.5313,89.875 Q216.1875,89.875 215.5,90.9531 Q214.8125,92.0156 214.8125,94.1094 Q214.8125,96.2031 215.5,97.2813 Q216.1875,98.3438 217.5313,98.3438 Q218.1563,98.3438 218.75,98.0781 Q219.3438,97.7969 219.9688,97.2188 L219.9688,99.9375 Z " fill="#000000"/><text fill="#000000" font-family="sans-serif" font-size="14" lengthAdjust="spacing" textLength="103.8105" x="231" y="99.1436">TransformItem</text><line style="stroke:#181818;stroke-width:0.5;" x1="203" x2="336.8105" y1="110.2969" y2="110.2969"/><line style="stroke:#181818;stroke-width:0.5;" x1="203" x2="336.8105" y1="118.2969" y2="118.2969"/></g></a><!--reverse link C_0003142896263797232786 to C_0007224731687989273775--><g id="link_C_0003142896263797232786_C_0007224731687989273775"><path codeLine="117" d="M75.0206,1223.5958 C82.2006,1371.8658 121.73,2132.5969 182,2218.2969 C190.88,2230.9169 204.61,2239.8969 218.56,2246.2069 " fill="transparent" id="C_0003142896263797232786-backto-C_0007224731687989273775" style="stroke:#181818;stroke-width:1;"/><polygon fill="transparent" points="74.15,1205.6169,69.0277,1223.886,81.0136,1223.3056,74.15,1205.6169" style="stroke:#181818;stroke-width:1;"/></g><!--reverse link C_0003142896263797232786 to C_0017513990263993922464--><g id="link_C_0003142896263797232786_C_0017513990263993922464"><path codeLine="118" d="M72.5254,1223.6961 C71.3054,1357.0861 71.5,1979.6569 182,2135.2969 C192.29,2149.7969 208.98,2159.4869 225,2165.8669 " fill="transparent" id="C_0003142896263797232786-backto-C_0017513990263993922464" style="stroke:#181818;stroke-width:1;"/><polygon fill="transparent" points="72.69,1205.6969,66.5256,1223.6412,78.5251,1223.751,72.69,1205.6969" style="stroke:#181818;stroke-width:1;"/></g><!--reverse link C_0003142896263797232786 to C_0006648564482688350559--><g id="link_C_0003142896263797232786_C_0006648564482688350559"><path codeLine="119" d="M73.0471,1223.6268 C73.4471,1349.8168 80.78,1911.3369 182,2052.2969 C187.38,2059.7869 194.46,2065.9969 202.27,2071.1369 " fill="transparent" id="C_0003142896263797232786-backto-C_0006648564482688350559" style="stroke:#181818;stroke-width:1;"/><polygon fill="transparent" points="72.99,1205.6269,67.0471,1223.6458,79.047,1223.6078,72.99,1205.6269" style="stroke:#181818;stroke-width:1;"/></g><!--reverse link C_0003142896263797232786 to C_0012806518239958755114--><g id="link_C_0003142896263797232786_C_0012806518239958755114"><path codeLine="120" d="M73.6741,1223.624 C75.8141,1342.444 90.05,1842.9869 182,1969.2969 C191.38,1982.1769 205.78,1991.2869 220.18,1997.6369 " fill="transparent" id="C_0003142896263797232786-backto-C_0012806518239958755114" style="stroke:#181818;stroke-width:1;"/><polygon fill="transparent" points="73.35,1205.6269,67.6751,1223.732,79.6732,1223.5159,73.35,1205.6269" style="stroke:#181818;stroke-width:1;"/></g><!--reverse link C_0003142896263797232786 to C_0010821140433555204062--><g id="link_C_0003142896263797232786_C_0010821140433555204062"><path codeLine="121" d="M74.4431,1223.605 C78.4731,1334.605 99.29,1774.5569 182,1886.2969 C192.18,1900.0469 208.06,1909.5069 223.48,1915.9169 " fill="transparent" id="C_0003142896263797232786-backto-C_0010821140433555204062" style="stroke:#181818;stroke-width:1;"/><polygon fill="transparent" points="73.79,1205.6169,68.447,1223.8227,80.4391,1223.3873,73.79,1205.6169" style="stroke:#181818;stroke-width:1;"/></g><!--reverse link C_0003142896263797232786 to C_0008362166361714123324--><g id="link_C_0003142896263797232786_C_0008362166361714123324"><path codeLine="122" d="M75.3958,1223.4353 C81.4758,1325.9353 108.45,1705.9969 182,1803.2969 C188.37,1811.7269 196.88,1818.5469 206.08,1824.0469 " fill="transparent" id="C_0003142896263797232786-backto-C_0008362166361714123324" style="stroke:#181818;stroke-width:1;"/><polygon fill="transparent" points="74.33,1205.4669,69.4064,1223.7906,81.3853,1223.08,74.33,1205.4669" style="stroke:#181818;stroke-width:1;"/></g><!--reverse link C_0003142896263797232786 to C_0016563370239511058960--><g id="link_C_0003142896263797232786_C_0016563370239511058960"><path codeLine="123" d="M76.6384,1223.2858 C84.9784,1316.8358 117.59,1637.3569 182,1720.2969 C191.05,1731.9569 204.16,1740.5569 217.47,1746.8369 " fill="transparent" id="C_0003142896263797232786-backto-C_0016563370239511058960" style="stroke:#181818;stroke-width:1;"/><polygon fill="transparent" points="75.04,1205.3569,70.6621,1223.8186,82.6147,1222.753,75.04,1205.3569" style="stroke:#181818;stroke-width:1;"/></g><!--reverse link C_0003142896263797232786 to C_0004229591888014686384--><g id="link_C_0003142896263797232786_C_0004229591888014686384"><path codeLine="124" d="M78.316,1223.1773 C89.216,1307.1873 126.68,1568.5869 182,1637.2969 C187.68,1644.3469 194.83,1650.2969 202.59,1655.2969 " fill="transparent" id="C_0003142896263797232786-backto-C_0004229591888014686384" style="stroke:#181818;stroke-width:1;"/><polygon fill="transparent" points="76,1205.3269,72.3659,1223.9493,84.2661,1222.4052,76,1205.3269" style="stroke:#181818;stroke-width:1;"/></g><!--reverse link C_0003142896263797232786 to C_0003770821643484466971--><g id="link_C_0003142896263797232786_C_0003770821643484466971"><path codeLine="125" d="M74.2714,1223.3316 C76.9214,1287.6116 91.75,1447.7269 182,1554.2969 C189.37,1562.9969 198.96,1570.0469 209.08,1575.6969 " fill="transparent" id="C_0003142896263797232786-backto-C_0003770821643484466971" style="stroke:#181818;stroke-width:1;"/><polygon fill="transparent" points="73.53,1205.3469,68.2765,1223.5787,80.2663,1223.0845,73.53,1205.3469" style="stroke:#181818;stroke-width:1;"/></g><!--reverse link C_0003142896263797232786 to C_0007381822741748470515--><g id="link_C_0003142896263797232786_C_0007381822741748470515"><path codeLine="126" d="M78.5126,1223.2735 C86.2926,1277.3635 109.44,1391.8769 182,1471.2969 C188.34,1478.2269 196.06,1484.1369 204.27,1489.1469 " fill="transparent" id="C_0003142896263797232786-backto-C_0007381822741748470515" style="stroke:#181818;stroke-width:1;"/><polygon fill="transparent" points="75.95,1205.4569,72.5738,1224.1277,84.4515,1222.4193,75.95,1205.4569" style="stroke:#181818;stroke-width:1;"/></g><!--reverse link C_0003142896263797232786 to C_0009846323258690831919--><g id="link_C_0003142896263797232786_C_0009846323258690831919"><path codeLine="127" d="M85.6511,1222.5925 C99.1911,1264.6925 126.78,1334.9769 182,1388.2969 C189.12,1395.1669 197.58,1401.1069 206.38,1406.1769 " fill="transparent" id="C_0003142896263797232786-backto-C_0009846323258690831919" style="stroke:#181818;stroke-width:1;"/><polygon fill="transparent" points="80.14,1205.4569,79.9392,1224.4295,91.3629,1220.7554,80.14,1205.4569" style="stroke:#181818;stroke-width:1;"/></g><!--reverse link C_0003142896263797232786 to C_0006308139742991240946--><g id="link_C_0003142896263797232786_C_0006308139742991240946"><path codeLine="128" d="M100.0883,1219.9223 C119.6583,1246.9823 143.89,1276.3369 182,1305.2969 C190.68,1311.8969 200.56,1317.8469 210.47,1323.0569 " fill="transparent" id="C_0003142896263797232786-backto-C_0006308139742991240946" style="stroke:#181818;stroke-width:1;"/><polygon fill="transparent" points="89.54,1205.3369,95.2265,1223.4384,104.9501,1216.4062,89.54,1205.3369" style="stroke:#181818;stroke-width:1;"/></g><!--reverse link C_0003142896263797232786 to C_0009401210480385110890--><g id="link_C_0003142896263797232786_C_0009401210480385110890"><path codeLine="129" d="M138.7849,1209.1563 C166.1049,1220.7263 183.66,1228.1569 212.13,1240.2169 " fill="transparent" id="C_0003142896263797232786-backto-C_0009401210480385110890" style="stroke:#181818;stroke-width:1;"/><polygon fill="transparent" points="122.21,1202.1369,136.4451,1214.6813,141.1247,1203.6314,122.21,1202.1369" style="stroke:#181818;stroke-width:1;"/></g><!--reverse link C_0003142896263797232786 to C_0017424363913360464021--><g id="link_C_0003142896263797232786_C_0017424363913360464021"><path codeLine="130" d="M140.21,1181.2969 C162.2,1181.2969 170.61,1181.2969 194.92,1181.2969 " fill="transparent" id="C_0003142896263797232786-backto-C_0017424363913360464021" style="stroke:#181818;stroke-width:1;"/><polygon fill="transparent" points="122.21,1181.2969,140.21,1187.2969,140.21,1175.2969,122.21,1181.2969" style="stroke:#181818;stroke-width:1;"/></g><!--reverse link C_0003142896263797232786 to C_0007236662082819544631--><g id="link_C_0003142896263797232786_C_0007236662082819544631"><path codeLine="131" d="M138.7849,1153.4374 C166.1049,1141.8674 183.66,1134.4369 212.13,1122.3769 " fill="transparent" id="C_0003142896263797232786-backto-C_0007236662082819544631" style="stroke:#181818;stroke-width:1;"/><polygon fill="transparent" points="122.21,1160.4569,141.1247,1158.9624,136.4451,1147.9125,122.21,1160.4569" style="stroke:#181818;stroke-width:1;"/></g><!--reverse link C_0003142896263797232786 to C_0009282498347772441127--><g id="link_C_0003142896263797232786_C_0009282498347772441127"><path codeLine="132" d="M99.8986,1142.3299 C119.3886,1114.9899 143.63,1085.2869 182,1056.2969 C191.06,1049.4569 201.44,1043.3469 211.81,1038.0769 " fill="transparent" id="C_0003142896263797232786-backto-C_0009282498347772441127" style="stroke:#181818;stroke-width:1;"/><polygon fill="transparent" points="89.45,1156.9869,104.7842,1145.8128,95.0129,1138.847,89.45,1156.9869" style="stroke:#181818;stroke-width:1;"/></g><!--reverse link C_0003142896263797232786 to C_0004165658604788210492--><g id="link_C_0003142896263797232786_C_0004165658604788210492"><path codeLine="133" d="M85.4891,1139.8051 C98.8991,1097.4151 126.37,1026.6169 182,973.2969 C190.08,965.5569 199.88,959.0569 209.96,953.6869 " fill="transparent" id="C_0003142896263797232786-backto-C_0004165658604788210492" style="stroke:#181818;stroke-width:1;"/><polygon fill="transparent" points="80.06,1156.9669,91.2097,1141.6148,79.7685,1137.9954,80.06,1156.9669" style="stroke:#181818;stroke-width:1;"/></g><!--reverse link C_0003142896263797232786 to C_0004814078650981951908--><g id="link_C_0003142896263797232786_C_0004814078650981951908"><path codeLine="134" d="M78.3678,1139.181 C85.9878,1084.801 108.9,969.6569 182,890.2969 C188,883.7869 195.24,878.2169 202.95,873.4769 " fill="transparent" id="C_0003142896263797232786-backto-C_0004814078650981951908" style="stroke:#181818;stroke-width:1;"/><polygon fill="transparent" points="75.87,1157.0069,84.3098,1140.0136,72.4259,1138.3484,75.87,1157.0069" style="stroke:#181818;stroke-width:1;"/></g><!--reverse link C_0003142896263797232786 to C_0008415487316637387662--><g id="link_C_0003142896263797232786_C_0008415487316637387662"><path codeLine="135" d="M74.1454,1139.1499 C76.6054,1074.5899 91.06,913.7369 182,807.2969 C187.64,800.6969 194.58,795.0869 202.05,790.3369 " fill="transparent" id="C_0003142896263797232786-backto-C_0008415487316637387662" style="stroke:#181818;stroke-width:1;"/><polygon fill="transparent" points="73.46,1157.1369,80.141,1139.3784,68.1497,1138.9215,73.46,1157.1369" style="stroke:#181818;stroke-width:1;"/></g><!--reverse link C_0003142896263797232786 to C_0015634186810409027727--><g id="link_C_0003142896263797232786_C_0015634186810409027727"><path codeLine="136" d="M78.2587,1139.343 C89.0587,1055.093 126.26,792.9069 182,724.2969 C190,714.4469 200.92,706.8369 212.32,700.9969 " fill="transparent" id="C_0003142896263797232786-backto-C_0015634186810409027727" style="stroke:#181818;stroke-width:1;"/><polygon fill="transparent" points="75.97,1157.1969,84.21,1140.1059,72.3074,1138.5801,75.97,1157.1969" style="stroke:#181818;stroke-width:1;"/></g><!--reverse link C_0003142896263797232786 to C_0008991352168833495969--><g id="link_C_0003142896263797232786_C_0008991352168833495969"><path codeLine="137" d="M76.5853,1139.2459 C84.8253,1045.4559 117.1,724.0969 182,641.2969 C187.15,634.7269 193.61,629.1569 200.66,624.4469 " fill="transparent" id="C_0003142896263797232786-backto-C_0008991352168833495969" style="stroke:#181818;stroke-width:1;"/><polygon fill="transparent" points="75.01,1157.1769,82.5623,1139.7711,70.6084,1138.7208,75.01,1157.1769" style="stroke:#181818;stroke-width:1;"/></g><!--reverse link C_0003142896263797232786 to C_0001606703663220004622--><g id="link_C_0003142896263797232786_C_0001606703663220004622"><path codeLine="138" d="M75.3441,1139.1072 C81.3141,1036.3572 107.9,655.4069 182,558.2969 C188.99,549.1369 198.53,541.9369 208.74,536.3069 " fill="transparent" id="C_0003142896263797232786-backto-C_0001606703663220004622" style="stroke:#181818;stroke-width:1;"/><polygon fill="transparent" points="74.3,1157.0769,81.334,1139.4552,69.3542,1138.7592,74.3,1157.0769" style="stroke:#181818;stroke-width:1;"/></g><!--reverse link C_0003142896263797232786 to C_0011239105593547930431--><g id="link_C_0003142896263797232786_C_0011239105593547930431"><path codeLine="139" d="M74.3795,1139.3079 C78.2495,1028.7179 98.57,586.9369 182,475.2969 C191.4,462.7269 205.62,453.8569 219.86,447.6669 " fill="transparent" id="C_0003142896263797232786-backto-C_0011239105593547930431" style="stroke:#181818;stroke-width:1;"/><polygon fill="transparent" points="73.75,1157.2969,80.3758,1139.5177,68.3832,1139.098,73.75,1157.2969" style="stroke:#181818;stroke-width:1;"/></g><!--reverse link C_0003142896263797232786 to C_0005790599249456555514--><g id="link_C_0003142896263797232786_C_0005790599249456555514"><path codeLine="140" d="M73.6239,1138.9194 C75.6339,1019.8694 89.36,518.3369 182,392.2969 C189.91,381.5369 201.37,373.4969 213.4,367.5269 " fill="transparent" id="C_0003142896263797232786-backto-C_0005790599249456555514" style="stroke:#181818;stroke-width:1;"/><polygon fill="transparent" points="73.32,1156.9169,79.623,1139.0207,67.6247,1138.8182,73.32,1156.9169" style="stroke:#181818;stroke-width:1;"/></g><!--reverse link C_0003142896263797232786 to C_0005721591084170041597--><g id="link_C_0003142896263797232786_C_0005721591084170041597"><path codeLine="141" d="M72.997,1138.9269 C73.257,1012.5069 80.01,449.9469 182,309.2969 C186.8,302.6769 192.95,297.0869 199.76,292.3769 " fill="transparent" id="C_0003142896263797232786-backto-C_0005721591084170041597" style="stroke:#181818;stroke-width:1;"/><polygon fill="transparent" points="72.96,1156.9269,78.997,1138.9393,66.997,1138.9146,72.96,1156.9269" style="stroke:#181818;stroke-width:1;"/></g><!--reverse link C_0003142896263797232786 to C_0008348468305738718882--><g id="link_C_0003142896263797232786_C_0008348468305738718882"><path codeLine="142" d="M72.4841,1139.2878 C71.1141,1006.6278 70.54,381.7469 182,226.2969 C190.76,214.0869 204.11,205.3869 217.74,199.2569 " fill="transparent" id="C_0003142896263797232786-backto-C_0008348468305738718882" style="stroke:#181818;stroke-width:1;"/><polygon fill="transparent" points="72.67,1157.2869,78.4838,1139.2259,66.4844,1139.3498,72.67,1157.2869" style="stroke:#181818;stroke-width:1;"/></g><!--reverse link C_0003142896263797232786 to C_0012603732557138332090--><g id="link_C_0003142896263797232786_C_0012603732557138332090"><path codeLine="143" d="M74.9999,1138.9674 C82.0999,990.5074 121.28,228.7969 182,143.2969 C187.22,135.9469 194.11,129.8669 201.73,124.8669 " fill="transparent" id="C_0003142896263797232786-backto-C_0012603732557138332090" style="stroke:#181818;stroke-width:1;"/><polygon fill="transparent" points="74.14,1156.9469,80.993,1139.254,69.0067,1138.6808,74.14,1156.9469" style="stroke:#181818;stroke-width:1;"/></g><!--SRC=[lLbDRnit4BthLopIGrgWbaWEFujUOWTf0pXf0RUz68QnbYXhKLbhh5Qr3TR_lRDnh8ZB4SeJTJ6WjnJVso5dtepxfb_xwdExy1zxVrVDr_LsMwqQtzNTVFKqMVjbN_LjrJMtgxvQD9sVzqsxcTpNyx_hMrzTdjPRVrNLs-hicZ6cD9U2EsKKbun9AusfmkJbHz-yRl9c_pZWqzPfeS4u8q0Ogxy-V0okBYzNVN-__MaskstwrUvcEc_lPXywxy_UlT__lLctDpEndCyLSBFqK7llzBms88roLjVA6CFTScwi5sosxUQpGSRiTDUi5xw3zzFLT-T2il3A-Fdg2cLSNq-UNxMSrpT-7OinGaW3N5lZh1C6Z567OWYue1XbmfvogkRZPjb6OZW649nZ-EgT0uVKjJmGGy45nHWMNXcdMeRdpzfrsyNHqLfQfQMqGbiBYYdb3gD3m0K5MGWHxLJLxsspwUCG2SkqubPW29GrId4UXOY02ofo4FQKYTlJRE9Cm9aLI9190AMKO99fSIY6WCk90OQNvolZLCkdtRfl4a7CWXPSQz3SSCa5W3YC3WKN52HuY6YdgjvrNViGXqWh3M0O7YWyIqnXOcQ78IBWWeh0X3rb8YUqkysYsToUjeznbAGGJZbkhMLSQgl1Hb4Yu8AQ50yZuiJfgtlVDVMe565n6MwCbe0bM6hj38_gQWeNb8NP-v3rSKsdpHVjeoeB5fEQC9ARmLumnUCgcyBbf4a6WI2VAdpVrGyN_TDwb3ESbHhGvoYh7MO8xdXKemYue3PkGqGxLNMngk_zhvZqjwFI2yoYNJ1IECVHLZaPkJm2BYWB8CIygTgxVhfjDxyjbrlVZo8ciT1oDBeCx93sh6DHn5Aue3J5Ga8zLNVMjXsUL3osCBA0KaX0WyS1D4E3nmIFB60A5zIc8Oo87_5C5-EGOIEXjHQO02qsAfZ-WCSsFO4BoZ8s7BAcdLCYoGahfBEuap52Iiw5YKvX2XUKP5_Cqr557-fvgaWETWBp7CCtOeSRv4HKbrEue2Admm5fgfjQ-4U_84CbBTfOx6CLPdCyNnmJUIGiXSi9mqr3olseFZ9mLdA58OV1ss8jDZhoyHHSK9yG8UMUwllSTdSZHyNHt685r1RF6iE-5o_IuHMZu8AwG8Lld8_f8TsKnP8B2gqWDhqWqUlgo74GS45PYeM4Eb6_djO8-r6xppNJXc4g1o66UwL5T0u9kA0mBSCXQwecZ_jZR14T7wOIeAHnW9rmL8m9kA0Uuy8hOy8LtgzyDpAwk88fvx0gISpZ-8b65nHSK8sJuHjduZRjkfljnQvROWePgn8SkyKXoPcXHYbdObK9N4wLPYQCcQVQ_l2FlHZFCR2FqXQGFkRheHME4teA5nGbPDXJ9jHqzMQxn0mocfjfR82nYrA60wOrmIBFJi455O494Uq3LS-JeqFnd_yzEJa-XFx_PUIuDsCtQgYQiHirkSnOHiq8CqXIaxYCtQXnLyPkr4GfOnariSa9Dp4DoLX63HfomaqqyZcx4Kropfaa-i-i6v3sTpaaYHug9zn4evApZ6W3SeuouQuptYHbNdDs8ynXnZBAUcMGf1nEncwKbSXQbjRgh5oILiESX4UKdCdRN_p6TtNl5zK3LfNXNw-RsvFTtVh7wX_VRPjsKx6fdhB9s_Fplpxjl_lpPhVfTozFxx_aRigdlFgUxxwW_8V_0000]--></g></svg>