<svg xmlns="http://www.w3.org/2000/svg" xmlns:xlink="http://www.w3.org/1999/xlink" contentStyleType="text/css" data-diagram-type="CLASS" height="603px" preserveAspectRatio="none" style="width:1678px;height:603px;background:#FFFFFF;" version="1.1" viewBox="0 0 1678 603" width="1678px" zoomAndPan="magnify"><title>Directory structure package diagram</title><defs/><g><text fill="#000000" font-family="sans-serif" font-size="14" font-weight="bold" lengthAdjust="spacing" textLength="292.6055" x="686.1573" y="22.9951">Directory structure package diagram</text><!--cluster C_0012552770846824538855--><g id="cluster_C_0012552770846824538855"><path d="M1396.88,492.2969 L1429.7423,492.2969 A3.75,3.75 0 0 1 1432.2423,494.7969 L1439.2423,514.5938 L1509.88,514.5938 A2.5,2.5 0 0 1 1512.38,517.0938 L1512.38,593.7969 A2.5,2.5 0 0 1 1509.88,596.2969 L1396.88,596.2969 A2.5,2.5 0 0 1 1394.38,593.7969 L1394.38,494.7969 A2.5,2.5 0 0 1 1396.88,492.2969 " fill="transparent" style="stroke:#000000;stroke-width:1.5;"/><line style="stroke:#000000;stroke-width:1.5;" x1="1394.38" x2="1439.2423" y1="514.5938" y2="514.5938"/><text fill="#000000" font-family="sans-serif" font-size="14" font-weight="bold" lengthAdjust="spacing" textLength="31.8623" x="1398.38" y="507.292">CXX</text></g><!--cluster C_0018282610363821501524--><a href="https://github.com/FreeCAD/FreeCAD/blob/2fcc5317fe3aee96ca73475986a577719fc78e20/src/App/StringHasher.h#L77" target="_top" title="App" xlink:actuate="onRequest" xlink:href="https://github.com/FreeCAD/FreeCAD/blob/2fcc5317fe3aee96ca73475986a577719fc78e20/src/App/StringHasher.h#L77" xlink:show="new" xlink:title="App" xlink:type="simple"><path d="M1267.88,241.4369 L1299.7579,241.4369 A3.75,3.75 0 0 1 1302.2579,243.9369 L1309.2579,263.7338 L1386.88,263.7338 A2.5,2.5 0 0 1 1389.38,266.2338 L1389.38,457.7969 A2.5,2.5 0 0 1 1386.88,460.2969 L1267.88,460.2969 A2.5,2.5 0 0 1 1265.38,457.7969 L1265.38,243.9369 A2.5,2.5 0 0 1 1267.88,241.4369 " fill="transparent" style="stroke:#000000;stroke-width:1.5;"/><line style="stroke:#000000;stroke-width:1.5;" x1="1265.38" x2="1309.2579" y1="263.7338" y2="263.7338"/><text fill="#000000" font-family="sans-serif" font-size="14" font-weight="bold" lengthAdjust="spacing" textLength="30.8779" x="1269.38" y="256.432">App</text></a><!--cluster C_0002504077655750104390--><a href="https://github.com/FreeCAD/FreeCAD/blob/2fcc5317fe3aee96ca73475986a577719fc78e20/src/Gui/Namespace.h#L30" target="_top" title="Gui" xlink:actuate="onRequest" xlink:href="https://github.com/FreeCAD/FreeCAD/blob/2fcc5317fe3aee96ca73475986a577719fc78e20/src/Gui/Namespace.h#L30" xlink:show="new" xlink:title="Gui" xlink:type="simple"><path d="M153.88,43.2969 L181.1368,43.2969 A3.75,3.75 0 0 1 183.6368,45.7969 L190.6368,65.5938 L1222.88,65.5938 A2.5,2.5 0 0 1 1225.38,68.0938 L1225.38,340.7969 A2.5,2.5 0 0 1 1222.88,343.2969 L153.88,343.2969 A2.5,2.5 0 0 1 151.38,340.7969 L151.38,45.7969 A2.5,2.5 0 0 1 153.88,43.2969 " fill="transparent" style="stroke:#000000;stroke-width:1.5;"/><line style="stroke:#000000;stroke-width:1.5;" x1="151.38" x2="190.6368" y1="65.5938" y2="65.5938"/><text fill="#000000" font-family="sans-serif" font-size="14" font-weight="bold" lengthAdjust="spacing" textLength="26.2568" x="155.38" y="58.292">Gui</text></a><!--cluster C_0005380253198368622884--><a href="https://github.com/FreeCAD/FreeCAD/blob/2fcc5317fe3aee96ca73475986a577719fc78e20/src/Gui/Quarter/QuarterWidget.h#L61" target="_top" title="Quarter" xlink:actuate="onRequest" xlink:href="https://github.com/FreeCAD/FreeCAD/blob/2fcc5317fe3aee96ca73475986a577719fc78e20/src/Gui/Quarter/QuarterWidget.h#L61" xlink:show="new" xlink:title="Quarter" xlink:type="simple"><path d="M502.88,94.2969 L565.1915,94.2969 A3.75,3.75 0 0 1 567.6915,96.7969 L574.6915,116.5938 L663.88,116.5938 A2.5,2.5 0 0 1 666.38,119.0938 L666.38,308.7969 A2.5,2.5 0 0 1 663.88,311.2969 L502.88,311.2969 A2.5,2.5 0 0 1 500.38,308.7969 L500.38,96.7969 A2.5,2.5 0 0 1 502.88,94.2969 " fill="transparent" style="stroke:#000000;stroke-width:1.5;"/><line style="stroke:#000000;stroke-width:1.5;" x1="500.38" x2="574.6915" y1="116.5938" y2="116.5938"/><text fill="#000000" font-family="sans-serif" font-size="14" font-weight="bold" lengthAdjust="spacing" textLength="61.3115" x="504.38" y="109.292">Quarter</text></a><!--cluster C_0010447957676976165864--><g id="cluster_C_0010447957676976165864"><path d="M692.88,207.2969 L737.3224,207.2969 A3.75,3.75 0 0 1 739.8224,209.7969 L746.8224,229.5938 L833.88,229.5938 A2.5,2.5 0 0 1 836.38,232.0938 L836.38,308.7969 A2.5,2.5 0 0 1 833.88,311.2969 L692.88,311.2969 A2.5,2.5 0 0 1 690.38,308.7969 L690.38,209.7969 A2.5,2.5 0 0 1 692.88,207.2969 " fill="transparent" style="stroke:#000000;stroke-width:1.5;"/><line style="stroke:#000000;stroke-width:1.5;" x1="690.38" x2="746.8224" y1="229.5938" y2="229.5938"/><text fill="#000000" font-family="sans-serif" font-size="14" font-weight="bold" lengthAdjust="spacing" textLength="43.4424" x="694.38" y="222.292">QSint</text></g><a href="https://github.com/FreeCAD/FreeCAD/blob/2fcc5317fe3aee96ca73475986a577719fc78e20/src/Base/Bitmask.h#L50" target="_top" title="Base" xlink:actuate="onRequest" xlink:href="https://github.com/FreeCAD/FreeCAD/blob/2fcc5317fe3aee96ca73475986a577719fc78e20/src/Base/Bitmask.h#L50" xlink:show="new" xlink:title="Base" xlink:type="simple"><path d="M71.88,242.2969 L110.8263,242.2969 A3.75,3.75 0 0 1 113.3263,244.7969 L120.3263,264.5938 L124.8263,264.5938 A2.5,2.5 0 0 1 127.3263,267.0938 L127.3263,292.3906 A2.5,2.5 0 0 1 124.8263,294.8906 L71.88,294.8906 A2.5,2.5 0 0 1 69.38,292.3906 L69.38,244.7969 A2.5,2.5 0 0 1 71.88,242.2969 " fill="#F1F1F1" style="stroke:#181818;stroke-width:0.5;"/><line style="stroke:#181818;stroke-width:0.5;" x1="69.38" x2="120.3263" y1="264.5938" y2="264.5938"/><text fill="#000000" font-family="sans-serif" font-size="14" font-weight="bold" lengthAdjust="spacing" textLength="37.9463" x="73.38" y="257.292">Base</text></a><a href="https://github.com/FreeCAD/FreeCAD/blob/2fcc5317fe3aee96ca73475986a577719fc78e20/src/CXX/Python3/IndirectPythonInterface.hxx#L46" target="_top" title="Python3" xlink:actuate="onRequest" xlink:href="https://github.com/FreeCAD/FreeCAD/blob/2fcc5317fe3aee96ca73475986a577719fc78e20/src/CXX/Python3/IndirectPythonInterface.hxx#L46" xlink:show="new" xlink:title="Python3" xlink:type="simple"><path d="M1413.38,527.2969 L1479.7521,527.2969 A3.75,3.75 0 0 1 1482.2521,529.7969 L1489.2521,549.5938 L1493.7521,549.5938 A2.5,2.5 0 0 1 1496.2521,552.0938 L1496.2521,577.3906 A2.5,2.5 0 0 1 1493.7521,579.8906 L1413.38,579.8906 A2.5,2.5 0 0 1 1410.88,577.3906 L1410.88,529.7969 A2.5,2.5 0 0 1 1413.38,527.2969 " fill="#F1F1F1" style="stroke:#181818;stroke-width:0.5;"/><line style="stroke:#181818;stroke-width:0.5;" x1="1410.88" x2="1489.2521" y1="549.5938" y2="549.5938"/><text fill="#000000" font-family="sans-serif" font-size="14" font-weight="bold" lengthAdjust="spacing" textLength="65.3721" x="1414.88" y="542.292">Python3</text></a><a href="https://github.com/FreeCAD/FreeCAD/blob/2fcc5317fe3aee96ca73475986a577719fc78e20/src/App/private/DocumentP.h#L61" target="_top" title="private" xlink:actuate="onRequest" xlink:href="https://github.com/FreeCAD/FreeCAD/blob/2fcc5317fe3aee96ca73475986a577719fc78e20/src/App/private/DocumentP.h#L61" xlink:show="new" xlink:title="private" xlink:type="simple"><path d="M1291.88,383.2969 L1349.3654,383.2969 A3.75,3.75 0 0 1 1351.8654,385.7969 L1358.8654,405.5938 L1363.3654,405.5938 A2.5,2.5 0 0 1 1365.8654,408.0938 L1365.8654,433.3906 A2.5,2.5 0 0 1 1363.3654,435.8906 L1291.88,435.8906 A2.5,2.5 0 0 1 1289.38,433.3906 L1289.38,385.7969 A2.5,2.5 0 0 1 1291.88,383.2969 " fill="#F1F1F1" style="stroke:#181818;stroke-width:0.5;"/><line style="stroke:#181818;stroke-width:0.5;" x1="1289.38" x2="1358.8654" y1="405.5938" y2="405.5938"/><text fill="#000000" font-family="sans-serif" font-size="14" font-weight="bold" lengthAdjust="spacing" textLength="56.4854" x="1293.38" y="398.292">private</text></a><a href="https://github.com/FreeCAD/FreeCAD/blob/2fcc5317fe3aee96ca73475986a577719fc78e20/src/zipios++/fcollexceptions.h#L16" target="_top" title="zipios++" xlink:actuate="onRequest" xlink:href="https://github.com/FreeCAD/FreeCAD/blob/2fcc5317fe3aee96ca73475986a577719fc78e20/src/zipios++/fcollexceptions.h#L16" xlink:show="new" xlink:title="zipios++" xlink:type="simple"><path d="M56.38,383.2969 L126.5597,383.2969 A3.75,3.75 0 0 1 129.0597,385.7969 L136.0597,405.5938 L140.5597,405.5938 A2.5,2.5 0 0 1 143.0597,408.0938 L143.0597,433.3906 A2.5,2.5 0 0 1 140.5597,435.8906 L56.38,435.8906 A2.5,2.5 0 0 1 53.88,433.3906 L53.88,385.7969 A2.5,2.5 0 0 1 56.38,383.2969 " fill="#F1F1F1" style="stroke:#181818;stroke-width:0.5;"/><line style="stroke:#181818;stroke-width:0.5;" x1="53.88" x2="136.0597" y1="405.5938" y2="405.5938"/><text fill="#000000" font-family="sans-serif" font-size="14" font-weight="bold" lengthAdjust="spacing" textLength="69.1797" x="57.88" y="398.292">zipios++</text></a><a href="https://github.com/FreeCAD/FreeCAD/blob/2fcc5317fe3aee96ca73475986a577719fc78e20/src/Gui/TaskView/TaskWatcher.h#L39" target="_top" title="TaskView" xlink:actuate="onRequest" xlink:href="https://github.com/FreeCAD/FreeCAD/blob/2fcc5317fe3aee96ca73475986a577719fc78e20/src/Gui/TaskView/TaskWatcher.h#L39" xlink:show="new" xlink:title="TaskView" xlink:type="simple"><path d="M688.38,129.2969 L764.0831,129.2969 A3.75,3.75 0 0 1 766.5831,131.7969 L773.5831,151.5938 L778.0831,151.5938 A2.5,2.5 0 0 1 780.5831,154.0938 L780.5831,179.3906 A2.5,2.5 0 0 1 778.0831,181.8906 L688.38,181.8906 A2.5,2.5 0 0 1 685.88,179.3906 L685.88,131.7969 A2.5,2.5 0 0 1 688.38,129.2969 " fill="#F1F1F1" style="stroke:#181818;stroke-width:0.5;"/><line style="stroke:#181818;stroke-width:0.5;" x1="685.88" x2="773.5831" y1="151.5938" y2="151.5938"/><text fill="#000000" font-family="sans-serif" font-size="14" font-weight="bold" lengthAdjust="spacing" textLength="74.7031" x="689.88" y="144.292">TaskView</text></a><a href="https://github.com/FreeCAD/FreeCAD/blob/2fcc5317fe3aee96ca73475986a577719fc78e20/src/Gui/Inventor/SoAutoZoomTranslation.h#L33" target="_top" title="Inventor" xlink:actuate="onRequest" xlink:href="https://github.com/FreeCAD/FreeCAD/blob/2fcc5317fe3aee96ca73475986a577719fc78e20/src/Gui/Inventor/SoAutoZoomTranslation.h#L33" xlink:show="new" xlink:title="Inventor" xlink:type="simple"><path d="M818.38,129.2969 L886.3585,129.2969 A3.75,3.75 0 0 1 888.8585,131.7969 L895.8585,151.5938 L900.3585,151.5938 A2.5,2.5 0 0 1 902.8585,154.0938 L902.8585,179.3906 A2.5,2.5 0 0 1 900.3585,181.8906 L818.38,181.8906 A2.5,2.5 0 0 1 815.88,179.3906 L815.88,131.7969 A2.5,2.5 0 0 1 818.38,129.2969 " fill="#F1F1F1" style="stroke:#181818;stroke-width:0.5;"/><line style="stroke:#181818;stroke-width:0.5;" x1="815.88" x2="895.8585" y1="151.5938" y2="151.5938"/><text fill="#000000" font-family="sans-serif" font-size="14" font-weight="bold" lengthAdjust="spacing" textLength="66.9785" x="819.88" y="144.292">Inventor</text></a><a href="https://github.com/FreeCAD/FreeCAD/blob/2fcc5317fe3aee96ca73475986a577719fc78e20/src/Gui/Quarter/devices/InputDevice.h#L47" target="_top" title="devices" xlink:actuate="onRequest" xlink:href="https://github.com/FreeCAD/FreeCAD/blob/2fcc5317fe3aee96ca73475986a577719fc78e20/src/Gui/Quarter/devices/InputDevice.h#L47" xlink:show="new" xlink:title="devices" xlink:type="simple"><path d="M545.88,242.2969 L606.4484,242.2969 A3.75,3.75 0 0 1 608.9484,244.7969 L615.9484,264.5938 L620.4484,264.5938 A2.5,2.5 0 0 1 622.9484,267.0938 L622.9484,292.3906 A2.5,2.5 0 0 1 620.4484,294.8906 L545.88,294.8906 A2.5,2.5 0 0 1 543.38,292.3906 L543.38,244.7969 A2.5,2.5 0 0 1 545.88,242.2969 " fill="#F1F1F1" style="stroke:#181818;stroke-width:0.5;"/><line style="stroke:#181818;stroke-width:0.5;" x1="543.38" x2="615.9484" y1="264.5938" y2="264.5938"/><text fill="#000000" font-family="sans-serif" font-size="14" font-weight="bold" lengthAdjust="spacing" textLength="59.5684" x="547.38" y="257.292">devices</text></a><a href="https://github.com/FreeCAD/FreeCAD/blob/2fcc5317fe3aee96ca73475986a577719fc78e20/src/Gui/Quarter/eventhandlers/EventFilter.h#L46" target="_top" title="eventhandlers" xlink:actuate="onRequest" xlink:href="https://github.com/FreeCAD/FreeCAD/blob/2fcc5317fe3aee96ca73475986a577719fc78e20/src/Gui/Quarter/eventhandlers/EventFilter.h#L46" xlink:show="new" xlink:title="eventhandlers" xlink:type="simple"><path d="M518.88,129.2969 L633.589,129.2969 A3.75,3.75 0 0 1 636.089,131.7969 L643.089,151.5938 L647.589,151.5938 A2.5,2.5 0 0 1 650.089,154.0938 L650.089,179.3906 A2.5,2.5 0 0 1 647.589,181.8906 L518.88,181.8906 A2.5,2.5 0 0 1 516.38,179.3906 L516.38,131.7969 A2.5,2.5 0 0 1 518.88,129.2969 " fill="#F1F1F1" style="stroke:#181818;stroke-width:0.5;"/><line style="stroke:#181818;stroke-width:0.5;" x1="516.38" x2="643.089" y1="151.5938" y2="151.5938"/><text fill="#000000" font-family="sans-serif" font-size="14" font-weight="bold" lengthAdjust="spacing" textLength="113.709" x="520.38" y="144.292">eventhandlers</text></a><a href="https://github.com/FreeCAD/FreeCAD/blob/2fcc5317fe3aee96ca73475986a577719fc78e20/src/Gui/QSint/actionpanel/actionlabel.h#L68" target="_top" title="actionpanel" xlink:actuate="onRequest" xlink:href="https://github.com/FreeCAD/FreeCAD/blob/2fcc5317fe3aee96ca73475986a577719fc78e20/src/Gui/QSint/actionpanel/actionlabel.h#L68" xlink:show="new" xlink:title="actionpanel" xlink:type="simple"><path d="M709.38,242.2969 L802.9318,242.2969 A3.75,3.75 0 0 1 805.4318,244.7969 L812.4318,264.5938 L816.9318,264.5938 A2.5,2.5 0 0 1 819.4318,267.0938 L819.4318,292.3906 A2.5,2.5 0 0 1 816.9318,294.8906 L709.38,294.8906 A2.5,2.5 0 0 1 706.88,292.3906 L706.88,244.7969 A2.5,2.5 0 0 1 709.38,242.2969 " fill="#F1F1F1" style="stroke:#181818;stroke-width:0.5;"/><line style="stroke:#181818;stroke-width:0.5;" x1="706.88" x2="812.4318" y1="264.5938" y2="264.5938"/><text fill="#000000" font-family="sans-serif" font-size="14" font-weight="bold" lengthAdjust="spacing" textLength="92.5518" x="710.88" y="257.292">actionpanel</text></a><a href="https://github.com/FreeCAD/FreeCAD/blob/2fcc5317fe3aee96ca73475986a577719fc78e20/src/Gui/propertyeditor/PropertyItem.h#L89" target="_top" title="propertyeditor" xlink:actuate="onRequest" xlink:href="https://github.com/FreeCAD/FreeCAD/blob/2fcc5317fe3aee96ca73475986a577719fc78e20/src/Gui/propertyeditor/PropertyItem.h#L89" xlink:show="new" xlink:title="propertyeditor" xlink:type="simple"><path d="M940.88,129.2969 L1058.1935,129.2969 A3.75,3.75 0 0 1 1060.6935,131.7969 L1067.6935,151.5938 L1072.1935,151.5938 A2.5,2.5 0 0 1 1074.6935,154.0938 L1074.6935,179.3906 A2.5,2.5 0 0 1 1072.1935,181.8906 L940.88,181.8906 A2.5,2.5 0 0 1 938.38,179.3906 L938.38,131.7969 A2.5,2.5 0 0 1 940.88,129.2969 " fill="#F1F1F1" style="stroke:#181818;stroke-width:0.5;"/><line style="stroke:#181818;stroke-width:0.5;" x1="938.38" x2="1067.6935" y1="151.5938" y2="151.5938"/><text fill="#000000" font-family="sans-serif" font-size="14" font-weight="bold" lengthAdjust="spacing" textLength="116.3135" x="942.38" y="144.292">propertyeditor</text></a><a href="https://github.com/FreeCAD/FreeCAD/blob/2fcc5317fe3aee96ca73475986a577719fc78e20/src/Gui/PreferencePages/DlgSettings3DViewImp.h#L41" target="_top" title="PreferencePages" xlink:actuate="onRequest" xlink:href="https://github.com/FreeCAD/FreeCAD/blob/2fcc5317fe3aee96ca73475986a577719fc78e20/src/Gui/PreferencePages/DlgSettings3DViewImp.h#L41" xlink:show="new" xlink:title="PreferencePages" xlink:type="simple"><path d="M196.88,129.2969 L331.8439,129.2969 A3.75,3.75 0 0 1 334.3439,131.7969 L341.3439,151.5938 L345.8439,151.5938 A2.5,2.5 0 0 1 348.3439,154.0938 L348.3439,179.3906 A2.5,2.5 0 0 1 345.8439,181.8906 L196.88,181.8906 A2.5,2.5 0 0 1 194.38,179.3906 L194.38,131.7969 A2.5,2.5 0 0 1 196.88,129.2969 " fill="#F1F1F1" style="stroke:#181818;stroke-width:0.5;"/><line style="stroke:#181818;stroke-width:0.5;" x1="194.38" x2="341.3439" y1="151.5938" y2="151.5938"/><text fill="#000000" font-family="sans-serif" font-size="14" font-weight="bold" lengthAdjust="spacing" textLength="133.9639" x="198.38" y="144.292">PreferencePages</text></a><a href="https://github.com/FreeCAD/FreeCAD/blob/2fcc5317fe3aee96ca73475986a577719fc78e20/src/Gui/Language/Translator.h#L50" target="_top" title="Language" xlink:actuate="onRequest" xlink:href="https://github.com/FreeCAD/FreeCAD/blob/2fcc5317fe3aee96ca73475986a577719fc78e20/src/Gui/Language/Translator.h#L50" xlink:show="new" xlink:title="Language" xlink:type="simple"><path d="M386.38,129.2969 L464.6671,129.2969 A3.75,3.75 0 0 1 467.1671,131.7969 L474.1671,151.5938 L478.6671,151.5938 A2.5,2.5 0 0 1 481.1671,154.0938 L481.1671,179.3906 A2.5,2.5 0 0 1 478.6671,181.8906 L386.38,181.8906 A2.5,2.5 0 0 1 383.88,179.3906 L383.88,131.7969 A2.5,2.5 0 0 1 386.38,129.2969 " fill="#F1F1F1" style="stroke:#181818;stroke-width:0.5;"/><line style="stroke:#181818;stroke-width:0.5;" x1="383.88" x2="474.1671" y1="151.5938" y2="151.5938"/><text fill="#000000" font-family="sans-serif" font-size="14" font-weight="bold" lengthAdjust="spacing" textLength="77.2871" x="387.88" y="144.292">Language</text></a><a href="https://github.com/FreeCAD/FreeCAD/blob/2fcc5317fe3aee96ca73475986a577719fc78e20/src/Gui/DAGView/DAGRectItem.h#L37" target="_top" title="DAGView" xlink:actuate="onRequest" xlink:href="https://github.com/FreeCAD/FreeCAD/blob/2fcc5317fe3aee96ca73475986a577719fc78e20/src/Gui/DAGView/DAGRectItem.h#L37" xlink:show="new" xlink:title="DAGView" xlink:type="simple"><path d="M1111.88,129.2969 L1184.8898,129.2969 A3.75,3.75 0 0 1 1187.3898,131.7969 L1194.3898,151.5938 L1198.8898,151.5938 A2.5,2.5 0 0 1 1201.3898,154.0938 L1201.3898,179.3906 A2.5,2.5 0 0 1 1198.8898,181.8906 L1111.88,181.8906 A2.5,2.5 0 0 1 1109.38,179.3906 L1109.38,131.7969 A2.5,2.5 0 0 1 1111.88,129.2969 " fill="#F1F1F1" style="stroke:#181818;stroke-width:0.5;"/><line style="stroke:#181818;stroke-width:0.5;" x1="1109.38" x2="1194.3898" y1="151.5938" y2="151.5938"/><text fill="#000000" font-family="sans-serif" font-size="14" font-weight="bold" lengthAdjust="spacing" textLength="72.0098" x="1113.38" y="144.292">DAGView</text></a><a href="https://github.com/FreeCAD/FreeCAD/blob/2fcc5317fe3aee96ca73475986a577719fc78e20/src/Main/FreeCADGuiPy.cpp#L61" target="_top" title="Main" xlink:actuate="onRequest" xlink:href="https://github.com/FreeCAD/FreeCAD/blob/2fcc5317fe3aee96ca73475986a577719fc78e20/src/Main/FreeCADGuiPy.cpp#L61" xlink:show="new" xlink:title="Main" xlink:type="simple"><path d="M68.88,129.2969 L108.0245,129.2969 A3.75,3.75 0 0 1 110.5245,131.7969 L117.5245,151.5938 L122.0245,151.5938 A2.5,2.5 0 0 1 124.5245,154.0938 L124.5245,179.3906 A2.5,2.5 0 0 1 122.0245,181.8906 L68.88,181.8906 A2.5,2.5 0 0 1 66.38,179.3906 L66.38,131.7969 A2.5,2.5 0 0 1 68.88,129.2969 " fill="#F1F1F1" style="stroke:#181818;stroke-width:0.5;"/><line style="stroke:#181818;stroke-width:0.5;" x1="66.38" x2="117.5245" y1="151.5938" y2="151.5938"/><text fill="#000000" font-family="sans-serif" font-size="14" font-weight="bold" lengthAdjust="spacing" textLength="38.1445" x="70.38" y="144.292">Main</text></a><!--link C_0005614219575140048477 to C_0017926030292468339268--><a href="https://github.com/FreeCAD/FreeCAD/blob/2fcc5317fe3aee96ca73475986a577719fc78e20/src/Base/Reader.h#L253" target="_top" title="" xlink:actuate="onRequest" xlink:href="https://github.com/FreeCAD/FreeCAD/blob/2fcc5317fe3aee96ca73475986a577719fc78e20/src/Base/Reader.h#L253" xlink:show="new" xlink:title="" xlink:type="simple"><path codeLine="40" d="M98.38,295.6169 C98.38,320.5869 98.38,352.1969 98.38,377.1169 " fill="transparent" id="C_0005614219575140048477-to-C_0017926030292468339268" style="stroke:#181818;stroke-width:1;stroke-dasharray:7.0,7.0;"/><polygon fill="#181818" points="98.38,383.1169,102.38,374.1169,98.38,378.1169,94.38,374.1169,98.38,383.1169" style="stroke:#181818;stroke-width:1;"/></a><!--link C_0005614219575140048477 to C_0008172255052158954565--><a href="https://github.com/FreeCAD/FreeCAD/blob/2fcc5317fe3aee96ca73475986a577719fc78e20/src/Base/SmartPtrPy.h#L64" target="_top" title="" xlink:actuate="onRequest" xlink:href="https://github.com/FreeCAD/FreeCAD/blob/2fcc5317fe3aee96ca73475986a577719fc78e20/src/Base/SmartPtrPy.h#L64" xlink:show="new" xlink:title="" xlink:type="simple"><path codeLine="41" d="M127.59,276.4969 C193.83,291.6469 360.51,329.5269 500.38,359.2969 C851.28,433.9769 1270.3927,516.8496 1404.6927,543.2496 " fill="transparent" id="C_0005614219575140048477-to-C_0008172255052158954565" style="stroke:#181818;stroke-width:1;stroke-dasharray:7.0,7.0;"/><polygon fill="#181818" points="1410.58,544.4069,1402.5205,538.746,1405.6739,543.4425,1400.9775,546.5958,1410.58,544.4069" style="stroke:#181818;stroke-width:1;"/></a><!--link C_0005614219575140048477 to C_0018282610363821501524--><a href="https://github.com/FreeCAD/FreeCAD/blob/2fcc5317fe3aee96ca73475986a577719fc78e20/src/Base/SmartPtrPy.h#L64" target="_top" title="" xlink:actuate="onRequest" xlink:href="https://github.com/FreeCAD/FreeCAD/blob/2fcc5317fe3aee96ca73475986a577719fc78e20/src/Base/SmartPtrPy.h#L64" xlink:show="new" xlink:title="" xlink:type="simple"><path codeLine="42" d="M127.62,261.4369 C195.56,244.7569 369.61,204.4669 517.88,190.7969 C584.49,184.6569 752.23,185.1169 818.88,190.7969 C918.595,199.2919 1029.2925,218.0869 1116.4737,235.0981 C1160.0644,243.6038 1197.7759,251.6634 1225.2961,257.7667 C1239.0562,260.8184 1250.2684,263.3809 1258.3937,265.2655 C1260.4251,265.7367 1262.2635,266.1655 1263.9005,266.5489 C1264.3098,266.6448 1258.8653,265.3663 1259.2493,265.4565 " fill="transparent" id="C_0005614219575140048477-to-C_0018282610363821501524" style="stroke:#181818;stroke-width:1;stroke-dasharray:7.0,7.0;"/><polygon fill="#181818" points="1265.0904,266.828,1257.2431,260.8766,1260.2228,265.6851,1255.4144,268.6648,1265.0904,266.828" style="stroke:#181818;stroke-width:1;"/></a><!--link C_0018282610363821501524 to C_0005614219575140048477--><a href="https://github.com/FreeCAD/FreeCAD/blob/2fcc5317fe3aee96ca73475986a577719fc78e20/src/App/StringHasher.h#L316" target="_top" title="" xlink:actuate="onRequest" xlink:href="https://github.com/FreeCAD/FreeCAD/blob/2fcc5317fe3aee96ca73475986a577719fc78e20/src/App/StringHasher.h#L316" xlink:show="new" xlink:title="" xlink:type="simple"><path codeLine="44" d="M1265.0904,266.828 C1264.7065,266.7378 1264.3098,266.6448 1263.9005,266.5489 C1262.2635,266.1655 1260.4251,265.7367 1258.3937,265.2655 C1250.2684,263.3809 1239.0562,260.8184 1225.2961,257.7667 C1197.7759,251.6634 1160.0644,243.6038 1116.4737,235.0981 C1029.2925,218.0869 918.595,199.2919 818.88,190.7969 C752.23,185.1169 584.49,184.6569 517.88,190.7969 C369.61,204.4669 201.387,243.3263 133.447,260.0063 " fill="transparent" id="C_0018282610363821501524-to-C_0005614219575140048477" style="stroke:#181818;stroke-width:1;stroke-dasharray:7.0,7.0;"/><polygon fill="#181818" points="127.62,261.4369,137.3142,263.1756,132.4758,260.2447,135.4067,255.4064,127.62,261.4369" style="stroke:#181818;stroke-width:1;"/></a><!--link C_0005614219575140048477 to C_0002504077655750104390--><a href="https://github.com/FreeCAD/FreeCAD/blob/2fcc5317fe3aee96ca73475986a577719fc78e20/src/Base/Rotation.h#L45" target="_top" title="" xlink:actuate="onRequest" xlink:href="https://github.com/FreeCAD/FreeCAD/blob/2fcc5317fe3aee96ca73475986a577719fc78e20/src/Base/Rotation.h#L45" xlink:show="new" xlink:title="" xlink:type="simple"><path codeLine="43" d="M124.08,242.1269 C129.685,234.0219 135.4325,224.7106 140.7227,215.2845 C143.3677,210.5715 145.8985,205.8297 148.2399,201.1957 C148.8253,200.0372 149.3988,198.8854 149.9593,197.7425 C150.2396,197.171 150.5166,196.6018 150.7902,196.035 C150.927,195.7516 148.4716,200.8804 148.6067,200.5983 " fill="transparent" id="C_0005614219575140048477-to-C_0002504077655750104390" style="stroke:#181818;stroke-width:1;stroke-dasharray:7.0,7.0;"/><polygon fill="#181818" points="151.198,195.1868,143.7033,201.5765,149.0386,199.6964,150.9187,205.0317,151.198,195.1868" style="stroke:#181818;stroke-width:1;"/></a><!--link C_0002504077655750104390 to C_0005614219575140048477--><a href="https://github.com/FreeCAD/FreeCAD/blob/2fcc5317fe3aee96ca73475986a577719fc78e20/src/Gui/NavigationStyle.h#L70" target="_top" title="" xlink:actuate="onRequest" xlink:href="https://github.com/FreeCAD/FreeCAD/blob/2fcc5317fe3aee96ca73475986a577719fc78e20/src/Gui/NavigationStyle.h#L70" xlink:show="new" xlink:title="" xlink:type="simple"><path codeLine="51" d="M151.2017,161.5454 C150.9247,161.8029 150.6443,162.0699 150.3609,162.346 C149.2271,163.4504 148.0436,164.7011 146.8198,166.0811 C141.9247,171.6009 136.3844,179.1888 130.7988,187.7531 C119.6275,204.8819 110.5771,220.3761 103.8421,236.5861 " fill="transparent" id="C_0002504077655750104390-to-C_0005614219575140048477" style="stroke:#181818;stroke-width:1;stroke-dasharray:7.0,7.0;"/><polygon fill="#181818" points="101.54,242.1269,108.687,235.3504,103.4584,237.5096,101.2993,232.281,101.54,242.1269" style="stroke:#181818;stroke-width:1;"/></a><!--link C_0018282610363821501524 to C_0008172255052158954565--><a href="https://github.com/FreeCAD/FreeCAD/blob/2fcc5317fe3aee96ca73475986a577719fc78e20/src/App/StringIDPyImp.cpp#L52" target="_top" title="" xlink:actuate="onRequest" xlink:href="https://github.com/FreeCAD/FreeCAD/blob/2fcc5317fe3aee96ca73475986a577719fc78e20/src/App/StringIDPyImp.cpp#L52" xlink:show="new" xlink:title="" xlink:type="simple"><path codeLine="45" d="M1389.3931,379.6325 C1389.9104,380.4756 1390.4242,381.3224 1390.9347,382.1729 C1391.9557,383.8738 1392.9632,385.5891 1393.9573,387.3172 C1397.9336,394.2296 1401.6953,401.3463 1405.2469,408.5639 C1412.35,422.9991 1418.6125,437.8375 1424.07,452.2506 C1434.985,481.0769 1441.207,502.3855 1445.967,521.1805 " fill="transparent" id="C_0018282610363821501524-to-C_0008172255052158954565" style="stroke:#181818;stroke-width:1;stroke-dasharray:7.0,7.0;"/><polygon fill="#181818" points="1447.44,526.9969,1449.108,517.2903,1446.2125,522.1499,1441.3529,519.2544,1447.44,526.9969" style="stroke:#181818;stroke-width:1;"/></a><!--link C_0018282610363821501524 to C_0010178325092448727234--><a href="https://github.com/FreeCAD/FreeCAD/blob/2fcc5317fe3aee96ca73475986a577719fc78e20/src/App/Document.h#L604" target="_top" title="" xlink:actuate="onRequest" xlink:href="https://github.com/FreeCAD/FreeCAD/blob/2fcc5317fe3aee96ca73475986a577719fc78e20/src/App/Document.h#L604" xlink:show="new" xlink:title="" xlink:type="simple"><path codeLine="46" d="M1273.42,269.8969 C1274.6,272.9269 1299.9379,338.1438 1315.2079,377.4638 " fill="transparent" id="C_0018282610363821501524-to-C_0010178325092448727234" style="stroke:#181818;stroke-width:1;stroke-dasharray:7.0,7.0;"/><polygon fill="#181818" points="1317.38,383.0569,1317.8506,373.2193,1315.5699,378.396,1310.3932,376.1154,1317.38,383.0569" style="stroke:#181818;stroke-width:1;"/></a><!--link C_0018282610363821501524 to C_0017926030292468339268--><a href="https://github.com/FreeCAD/FreeCAD/blob/2fcc5317fe3aee96ca73475986a577719fc78e20/src/App/MergeDocuments.h#L58" target="_top" title="" xlink:actuate="onRequest" xlink:href="https://github.com/FreeCAD/FreeCAD/blob/2fcc5317fe3aee96ca73475986a577719fc78e20/src/App/MergeDocuments.h#L58" xlink:show="new" xlink:title="" xlink:type="simple"><path codeLine="47" d="M1265.2384,271.8938 C1264.8595,271.9906 1264.468,272.0906 1264.064,272.1936 C1263.256,272.3998 1262.3981,272.6182 1261.4915,272.8487 C1254.2385,274.6921 1243.8629,277.3021 1230.9077,280.4892 C1204.9972,286.8634 1168.7681,295.5463 1126.5637,305.0231 C1042.155,323.9769 933.845,346.1069 836.38,359.2969 C575.19,394.6369 264.4283,404.9828 149.0983,407.7528 " fill="transparent" id="C_0018282610363821501524-to-C_0017926030292468339268" style="stroke:#181818;stroke-width:1;stroke-dasharray:7.0,7.0;"/><polygon fill="#181818" points="143.1,407.8969,152.1934,411.6796,148.0986,407.7768,152.0014,403.6819,143.1,407.8969" style="stroke:#181818;stroke-width:1;"/></a><!--link C_0018282610363821501524 to C_0002504077655750104390--><a href="https://github.com/FreeCAD/FreeCAD/blob/2fcc5317fe3aee96ca73475986a577719fc78e20/src/App/DocumentObject.h#L272" target="_top" title="" xlink:actuate="onRequest" xlink:href="https://github.com/FreeCAD/FreeCAD/blob/2fcc5317fe3aee96ca73475986a577719fc78e20/src/App/DocumentObject.h#L272" xlink:show="new" xlink:title="" xlink:type="simple"><path codeLine="48" d="M1264.9742,264.6452 C1264.7704,264.5939 1264.5635,264.542 1264.3534,264.4896 C1263.5131,264.2798 1262.6226,264.0611 1261.683,263.8338 C1259.8037,263.3791 1257.728,262.8899 1255.4648,262.3685 C1250.9382,261.3258 1245.6614,260.1545 1239.7052,258.8741 C1236.7271,258.2339 1233.5791,257.5664 1230.2702,256.8741 C1229.443,256.701 1228.6057,256.5264 1227.7584,256.3503 C1227.3348,256.2622 1226.9088,256.1737 1226.4802,256.0849 C1226.2659,256.0405 1226.051,255.996 1225.8355,255.9514 C1225.7278,255.9291 1231.4956,257.1218 1231.3875,257.0995 " fill="transparent" id="C_0018282610363821501524-to-C_0002504077655750104390" style="stroke:#181818;stroke-width:1;stroke-dasharray:7.0,7.0;"/><polygon fill="#181818" points="1225.5118,255.8844,1233.5153,261.6241,1230.4082,256.8969,1235.1354,253.7898,1225.5118,255.8844" style="stroke:#181818;stroke-width:1;"/></a><!--link C_0002504077655750104390 to C_0018282610363821501524--><a href="https://github.com/FreeCAD/FreeCAD/blob/2fcc5317fe3aee96ca73475986a577719fc78e20/src/Gui/SelectionObject.h#L53" target="_top" title="" xlink:actuate="onRequest" xlink:href="https://github.com/FreeCAD/FreeCAD/blob/2fcc5317fe3aee96ca73475986a577719fc78e20/src/Gui/SelectionObject.h#L53" xlink:show="new" xlink:title="" xlink:type="simple"><path codeLine="52" d="M1225.7125,260.117 C1226.1385,260.1933 1226.5621,260.2691 1226.9833,260.3444 C1228.6681,260.6457 1230.3141,260.9396 1231.9202,261.2257 C1235.1325,261.7978 1238.1854,262.3388 1241.071,262.8461 C1246.842,263.8608 1251.9433,264.7408 1256.3097,265.4659 C1258.493,265.8284 1260.4925,266.1523 1262.3002,266.4349 C1263.204,266.5762 1264.0599,266.7072 1264.8668,266.8275 C1264.9677,266.8426 1265.0678,266.8575 1265.1671,266.8722 C1265.2168,266.8795 1259.3305,266.0108 1259.3798,266.0181 " fill="transparent" id="C_0002504077655750104390-to-C_0018282610363821501524" style="stroke:#181818;stroke-width:1;stroke-dasharray:7.0,7.0;"/><polygon fill="#181818" points="1265.3155,266.8941,1256.996,261.6229,1260.3691,266.1641,1255.8279,269.5372,1265.3155,266.8941" style="stroke:#181818;stroke-width:1;"/></a><!--link C_0010178325092448727234 to C_0008172255052158954565--><a href="https://github.com/FreeCAD/FreeCAD/blob/2fcc5317fe3aee96ca73475986a577719fc78e20/src/App/private/DocumentP.h#L74" target="_top" title="" xlink:actuate="onRequest" xlink:href="https://github.com/FreeCAD/FreeCAD/blob/2fcc5317fe3aee96ca73475986a577719fc78e20/src/App/private/DocumentP.h#L74" xlink:show="new" xlink:title="" xlink:type="simple"><path codeLine="49" d="M1350.2,436.5169 C1373.03,462.2469 1403.9785,497.1183 1426.7485,522.7883 " fill="transparent" id="C_0010178325092448727234-to-C_0008172255052158954565" style="stroke:#181818;stroke-width:1;stroke-dasharray:7.0,7.0;"/><polygon fill="#181818" points="1430.73,527.2769,1427.7501,517.8896,1427.4121,523.5364,1421.7653,523.1983,1430.73,527.2769" style="stroke:#181818;stroke-width:1;"/></a><!--link C_0010178325092448727234 to C_0005614219575140048477--><a href="https://github.com/FreeCAD/FreeCAD/blob/2fcc5317fe3aee96ca73475986a577719fc78e20/src/App/private/DocumentP.h#L85" target="_top" title="" xlink:actuate="onRequest" xlink:href="https://github.com/FreeCAD/FreeCAD/blob/2fcc5317fe3aee96ca73475986a577719fc78e20/src/App/private/DocumentP.h#L85" xlink:show="new" xlink:title="" xlink:type="simple"><path codeLine="50" d="M1289.03,405.6169 C1194.95,397.9369 945.15,378.1669 736.38,367.2969 C631.57,361.8469 604.49,372.5369 500.38,359.2969 C358.88,341.3069 199.5533,298.6305 133.5733,279.9605 " fill="transparent" id="C_0010178325092448727234-to-C_0005614219575140048477" style="stroke:#181818;stroke-width:1;stroke-dasharray:7.0,7.0;"/><polygon fill="#181818" points="127.8,278.3269,135.3709,284.6262,132.6111,279.6882,137.5491,276.9285,127.8,278.3269" style="stroke:#181818;stroke-width:1;"/></a><!--link C_0002504077655750104390 to C_0008172255052158954565--><a href="https://github.com/FreeCAD/FreeCAD/blob/2fcc5317fe3aee96ca73475986a577719fc78e20/src/Gui/SelectionFilter.h#L139" target="_top" title="" xlink:actuate="onRequest" xlink:href="https://github.com/FreeCAD/FreeCAD/blob/2fcc5317fe3aee96ca73475986a577719fc78e20/src/Gui/SelectionFilter.h#L139" xlink:show="new" xlink:title="" xlink:type="simple"><path codeLine="53" d="M1228.8769,183.3135 C1230.508,183.3442 1232.1302,183.3758 1233.7433,183.4083 C1246.648,183.6685 1258.972,183.9863 1270.651,184.3673 C1294.0091,185.1293 1314.7876,186.1445 1332.4737,187.4586 C1367.8459,190.0867 1390.8487,193.9106 1397.38,199.2969 C1496.13,280.7469 1473.3627,454.1186 1460.2627,521.0386 " fill="transparent" id="C_0002504077655750104390-to-C_0008172255052158954565" style="stroke:#181818;stroke-width:1;stroke-dasharray:7.0,7.0;"/><polygon fill="#181818" points="1459.11,526.9269,1464.7645,518.863,1460.0705,522.02,1456.9135,517.3261,1459.11,526.9269" style="stroke:#181818;stroke-width:1;"/></a><!--link C_0002504077655750104390 to C_0017926030292468339268--><a href="https://github.com/FreeCAD/FreeCAD/blob/2fcc5317fe3aee96ca73475986a577719fc78e20/src/Gui/MergeDocuments.h#L57" target="_top" title="" xlink:actuate="onRequest" xlink:href="https://github.com/FreeCAD/FreeCAD/blob/2fcc5317fe3aee96ca73475986a577719fc78e20/src/Gui/MergeDocuments.h#L57" xlink:show="new" xlink:title="" xlink:type="simple"><path codeLine="54" d="M151.3139,172.2317 C151.2838,172.2746 151.2536,172.3175 151.2233,172.3604 C150.981,172.7035 150.7335,173.0457 150.4808,173.3862 C149.9755,174.0672 149.4495,174.7414 148.9031,175.4023 C146.7175,178.0463 144.205,180.4794 141.38,182.2969 C107.14,204.3169 77.36,167.9569 51.38,199.2969 C6,254.0469 25.02,293.2469 51.38,359.2969 C54.89,368.0969 56.7402,371.8189 63.2002,378.8489 " fill="transparent" id="C_0002504077655750104390-to-C_0017926030292468339268" style="stroke:#181818;stroke-width:1;stroke-dasharray:7.0,7.0;"/><polygon fill="#181818" points="67.26,383.2669,64.1157,373.9334,63.8769,379.5852,58.2251,379.3464,67.26,383.2669" style="stroke:#181818;stroke-width:1;"/></a><!--link C_0008021777784014620389 to C_0004798223921107973867--><a href="https://github.com/FreeCAD/FreeCAD/blob/2fcc5317fe3aee96ca73475986a577719fc78e20/src/Gui/TaskView/TaskView.h#L60" target="_top" title="" xlink:actuate="onRequest" xlink:href="https://github.com/FreeCAD/FreeCAD/blob/2fcc5317fe3aee96ca73475986a577719fc78e20/src/Gui/TaskView/TaskView.h#L60" xlink:show="new" xlink:title="" xlink:type="simple"><path codeLine="55" d="M740.34,182.5369 C745.18,200.4769 750.0539,218.4949 754.8939,236.3949 " fill="transparent" id="C_0008021777784014620389-to-C_0004798223921107973867" style="stroke:#181818;stroke-width:1;stroke-dasharray:7.0,7.0;"/><polygon fill="#181818" points="756.46,242.1869,757.9722,232.4548,755.1549,237.3602,750.2495,234.5429,756.46,242.1869" style="stroke:#181818;stroke-width:1;"/></a><!--link C_0008021777784014620389 to C_0005614219575140048477--><a href="https://github.com/FreeCAD/FreeCAD/blob/2fcc5317fe3aee96ca73475986a577719fc78e20/src/Gui/TaskView/TaskView.h#L150" target="_top" title="" xlink:actuate="onRequest" xlink:href="https://github.com/FreeCAD/FreeCAD/blob/2fcc5317fe3aee96ca73475986a577719fc78e20/src/Gui/TaskView/TaskView.h#L150" xlink:show="new" xlink:title="" xlink:type="simple"><path codeLine="56" d="M685.55,176.7269 C679.18,178.8669 672.68,180.8069 666.38,182.2969 C594.22,199.4069 573.86,189.2869 500.38,199.2969 C360.08,218.4169 199.5328,248.3375 133.4228,261.0075 " fill="transparent" id="C_0008021777784014620389-to-C_0005614219575140048477" style="stroke:#181818;stroke-width:1;stroke-dasharray:7.0,7.0;"/><polygon fill="#181818" points="127.53,262.1369,137.122,264.3714,132.4406,261.1958,135.6162,256.5143,127.53,262.1369" style="stroke:#181818;stroke-width:1;"/></a><!--link C_0008021777784014620389 to C_0018282610363821501524--><a href="https://github.com/FreeCAD/FreeCAD/blob/2fcc5317fe3aee96ca73475986a577719fc78e20/src/Gui/TaskView/TaskView.h#L185" target="_top" title="" xlink:actuate="onRequest" xlink:href="https://github.com/FreeCAD/FreeCAD/blob/2fcc5317fe3aee96ca73475986a577719fc78e20/src/Gui/TaskView/TaskView.h#L185" xlink:show="new" xlink:title="" xlink:type="simple"><path codeLine="57" d="M780.94,176.6769 C786.76,178.7469 792.66,180.6769 798.38,182.2969 C900.765,211.2919 1018.4675,232.5619 1111.0912,246.6356 C1157.4031,253.6725 1197.4453,258.9103 1226.1683,262.4152 C1240.5298,264.1676 1252.0614,265.4868 1260.1321,266.381 C1261.141,266.4927 1262.0957,266.5979 1262.9952,266.6964 C1263.4449,266.7456 1263.8808,266.7932 1264.3027,266.8392 C1264.5137,266.8621 1258.7562,266.237 1258.9601,266.2591 " fill="transparent" id="C_0008021777784014620389-to-C_0018282610363821501524" style="stroke:#181818;stroke-width:1;stroke-dasharray:7.0,7.0;"/><polygon fill="#181818" points="1264.9251,266.9069,1256.4095,261.9587,1259.9543,266.3671,1255.5459,269.9119,1264.9251,266.9069" style="stroke:#181818;stroke-width:1;"/></a><!--link C_0008021777784014620389 to C_0008172255052158954565--><a href="https://github.com/FreeCAD/FreeCAD/blob/2fcc5317fe3aee96ca73475986a577719fc78e20/src/Gui/TaskView/TaskDialogPython.h#L43" target="_top" title="" xlink:actuate="onRequest" xlink:href="https://github.com/FreeCAD/FreeCAD/blob/2fcc5317fe3aee96ca73475986a577719fc78e20/src/Gui/TaskView/TaskDialogPython.h#L43" xlink:show="new" xlink:title="" xlink:type="simple"><path codeLine="58" d="M781.08,177.6669 C786.83,179.5369 792.68,181.1469 798.38,182.2969 C837.44,190.1669 1487.54,170.7869 1515.38,199.2969 C1601.39,287.3769 1556.5,360.2569 1515.38,476.2969 C1508.58,495.4769 1498.8311,508.9861 1485.9311,522.6361 " fill="transparent" id="C_0008021777784014620389-to-C_0008172255052158954565" style="stroke:#181818;stroke-width:1;stroke-dasharray:7.0,7.0;"/><polygon fill="#181818" points="1481.81,526.9969,1490.8989,523.2032,1485.2443,523.3629,1485.0846,517.7083,1481.81,526.9969" style="stroke:#181818;stroke-width:1;"/></a><!--link C_0018153050769026308712 to C_0010172465430447091983--><a href="https://github.com/FreeCAD/FreeCAD/blob/2fcc5317fe3aee96ca73475986a577719fc78e20/src/Gui/Quarter/eventhandlers/EventFilter.h#L53" target="_top" title="" xlink:actuate="onRequest" xlink:href="https://github.com/FreeCAD/FreeCAD/blob/2fcc5317fe3aee96ca73475986a577719fc78e20/src/Gui/Quarter/eventhandlers/EventFilter.h#L53" xlink:show="new" xlink:title="" xlink:type="simple"><path codeLine="59" d="M583.38,182.5369 C583.38,200.4769 583.38,218.2869 583.38,236.1869 " fill="transparent" id="C_0018153050769026308712-to-C_0010172465430447091983" style="stroke:#181818;stroke-width:1;stroke-dasharray:7.0,7.0;"/><polygon fill="#181818" points="583.38,242.1869,587.38,233.1869,583.38,237.1869,579.38,233.1869,583.38,242.1869" style="stroke:#181818;stroke-width:1;"/></a><!--link C_0005100577855875982328 to C_0005614219575140048477--><a href="https://github.com/FreeCAD/FreeCAD/blob/2fcc5317fe3aee96ca73475986a577719fc78e20/src/Gui/propertyeditor/PropertyItem.h#L89" target="_top" title="" xlink:actuate="onRequest" xlink:href="https://github.com/FreeCAD/FreeCAD/blob/2fcc5317fe3aee96ca73475986a577719fc78e20/src/Gui/propertyeditor/PropertyItem.h#L89" xlink:show="new" xlink:title="" xlink:type="simple"><path codeLine="60" d="M938.2,178.6669 C932.22,180.0869 926.22,181.3269 920.38,182.2969 C736.08,212.8669 686.18,179.7869 500.38,199.2969 C359.56,214.0869 199.2803,246.3361 133.3303,260.2761 " fill="transparent" id="C_0005100577855875982328-to-C_0005614219575140048477" style="stroke:#181818;stroke-width:1;stroke-dasharray:7.0,7.0;"/><polygon fill="#181818" points="127.46,261.5169,137.0927,263.5692,132.3519,260.4829,135.4382,255.7421,127.46,261.5169" style="stroke:#181818;stroke-width:1;"/></a><!--link C_0005100577855875982328 to C_0018282610363821501524--><a href="https://github.com/FreeCAD/FreeCAD/blob/2fcc5317fe3aee96ca73475986a577719fc78e20/src/Gui/propertyeditor/PropertyItem.h#L216" target="_top" title="" xlink:actuate="onRequest" xlink:href="https://github.com/FreeCAD/FreeCAD/blob/2fcc5317fe3aee96ca73475986a577719fc78e20/src/Gui/propertyeditor/PropertyItem.h#L216" xlink:show="new" xlink:title="" xlink:type="simple"><path codeLine="61" d="M1067.97,182.4069 C1106.78,198.5369 1157.1475,219.4744 1198.2937,236.5794 C1218.8669,245.1319 1237.1347,252.7263 1250.4998,258.2825 C1253.8411,259.6716 1256.876,260.9332 1259.5639,262.0507 C1260.9078,262.6094 1262.165,263.132 1263.3304,263.6165 C1263.913,263.8587 1258.9325,261.7882 1259.4686,262.0111 " fill="transparent" id="C_0005100577855875982328-to-C_0018282610363821501524" style="stroke:#181818;stroke-width:1;stroke-dasharray:7.0,7.0;"/><polygon fill="#181818" points="1265.0089,264.3143,1258.2339,257.1659,1260.392,262.3949,1255.1629,264.553,1265.0089,264.3143" style="stroke:#181818;stroke-width:1;"/></a><!--link C_0005100577855875982328 to C_0008172255052158954565--><a href="https://github.com/FreeCAD/FreeCAD/blob/2fcc5317fe3aee96ca73475986a577719fc78e20/src/Gui/propertyeditor/PropertyItem.h#L207" target="_top" title="" xlink:actuate="onRequest" xlink:href="https://github.com/FreeCAD/FreeCAD/blob/2fcc5317fe3aee96ca73475986a577719fc78e20/src/Gui/propertyeditor/PropertyItem.h#L207" xlink:show="new" xlink:title="" xlink:type="simple"><path codeLine="62" d="M1074.55,178.7069 C1080.54,180.1169 1086.54,181.3469 1092.38,182.2969 C1119.48,186.7069 1567.3,179.5469 1586.38,199.2969 C1671.92,287.8369 1648.02,369.7269 1586.38,476.2969 C1567.11,509.6169 1532.8668,527.6687 1501.7668,538.8387 " fill="transparent" id="C_0005100577855875982328-to-C_0008172255052158954565" style="stroke:#181818;stroke-width:1;stroke-dasharray:7.0,7.0;"/><polygon fill="#181818" points="1496.12,540.8669,1505.9423,541.5892,1500.8257,539.1768,1503.2381,534.0601,1496.12,540.8669" style="stroke:#181818;stroke-width:1;"/></a><!--link C_0018258800731671578684 to C_0005614219575140048477--><a href="https://github.com/FreeCAD/FreeCAD/blob/2fcc5317fe3aee96ca73475986a577719fc78e20/src/Gui/PreferencePages/DlgSettingsUI.cpp#L191" target="_top" title="" xlink:actuate="onRequest" xlink:href="https://github.com/FreeCAD/FreeCAD/blob/2fcc5317fe3aee96ca73475986a577719fc78e20/src/Gui/PreferencePages/DlgSettingsUI.cpp#L191" xlink:show="new" xlink:title="" xlink:type="simple"><path codeLine="63" d="M231.26,182.5369 C199.51,202.9069 160.99,227.6268 132.53,245.8868 " fill="transparent" id="C_0018258800731671578684-to-C_0005614219575140048477" style="stroke:#181818;stroke-width:1;stroke-dasharray:7.0,7.0;"/><polygon fill="#181818" points="127.48,249.1269,137.215,247.6334,131.6883,246.4268,132.8949,240.9002,127.48,249.1269" style="stroke:#181818;stroke-width:1;"/></a><!--link C_0002246293680730342513 to C_0018282610363821501524--><a href="https://github.com/FreeCAD/FreeCAD/blob/2fcc5317fe3aee96ca73475986a577719fc78e20/src/Gui/DAGView/DAGModelGraph.h#L236" target="_top" title="" xlink:actuate="onRequest" xlink:href="https://github.com/FreeCAD/FreeCAD/blob/2fcc5317fe3aee96ca73475986a577719fc78e20/src/Gui/DAGView/DAGModelGraph.h#L236" xlink:show="new" xlink:title="" xlink:type="simple"><path codeLine="64" d="M1182.75,182.5369 C1199.635,198.4219 1221.425,218.9219 1239.4075,235.8394 C1248.3987,244.2981 1256.4381,251.8613 1262.4366,257.5041 C1263.1864,258.2094 1263.9043,258.8848 1264.5882,259.5281 C1264.7592,259.6889 1264.928,259.8478 1265.0947,260.0046 C1265.178,260.083 1260.8906,256.0498 1260.9728,256.1272 " fill="transparent" id="C_0002246293680730342513-to-C_0018282610363821501524" style="stroke:#181818;stroke-width:1;stroke-dasharray:7.0,7.0;"/><polygon fill="#181818" points="1265.3431,260.2383,1261.5284,251.1582,1261.7012,256.8124,1256.047,256.9852,1265.3431,260.2383" style="stroke:#181818;stroke-width:1;"/></a><!--link C_0014972771322587909173 to C_0005614219575140048477--><a href="https://github.com/FreeCAD/FreeCAD/blob/2fcc5317fe3aee96ca73475986a577719fc78e20/src/Main/MainGui.cpp#L94" target="_top" title="" xlink:actuate="onRequest" xlink:href="https://github.com/FreeCAD/FreeCAD/blob/2fcc5317fe3aee96ca73475986a577719fc78e20/src/Main/MainGui.cpp#L94" xlink:show="new" xlink:title="" xlink:type="simple"><path codeLine="65" d="M96.08,182.5369 C96.56,200.4769 97.0358,218.2891 97.5258,236.1891 " fill="transparent" id="C_0014972771322587909173-to-C_0005614219575140048477" style="stroke:#181818;stroke-width:1;stroke-dasharray:7.0,7.0;"/><polygon fill="#181818" points="97.69,242.1869,101.4422,233.0808,97.5532,237.1887,93.4452,233.2997,97.69,242.1869" style="stroke:#181818;stroke-width:1;"/></a><!--SRC=[nPXRRzis583VyoiCzA4RkbcyN_Om8AtNp43IkNLlM54CZCpOMcL9aEYqcT3_lYDPikHOImmCaXyIYo9jVZmyTnUuq8ucGMfz5wTteyob6zzjKZjAZF_5BEre4PXbQjPdzVZJSvFPpoEJZLxyXH3Y0ZE2DPSSCuIOObAEFdrQEPTaltZUCd2hpVNOZzVUozJQ5-UJtUTr65zxvCRtESNonb9ZhHQ-aPH9hfKmN4g9zOqlbIN8orBVApRsdWTkRR8luzMJIuxoujNtpvz7-Tdt1l35nuyxFamu9r8YnOGYZ5EbE8VLkxMpExUA8zgSHs59u3k84yoLvemBtjTvWDEhzlUcqQAyW-ru6ZcRtXZVZbVVlZsvP2AlrjLdRPtsF4cQqogYYC282gg07s5EM5_qiAytTsaGBNytsSgcnOr8cSFhBUGEC4c3M-CQbS48IqK9HvemfYIHXFOAMUtlJM9_ixQHcnMa0kVL-mwH_XCaGPmzUzOWIqq4eeW0ib2KmaZrXLnlxjtuSHZQRxvDN117MK6DHLvF7sZznIPej1Yaov2KWeDTWi0PrQWlNjZNUsNMDajAVNroIL4Ex-ufmLkmsVU1_TeoD4Gm_9XK364c2A9AzubO0vGF7uppAvMbEg-d3aGwZMv1N-AqWSO48Gq-JojmB0mpBKYVq3M0Du_FDox-CuxNRrCJPQ4fLAB4ftczw03_zSQau4TQlfg2q050AogK84GfrYTzjN_z-I5OBAshZAzwTqzB5lOsy6ssvoh0uZYZY369T44-17750V9FDcvI3Wfk9lDgva3MjhY3bOaMeKrR_0fpYZYIGYCYA58Iao7uzsYytuhHoo1qMus7QB8tt-40Ny-3oBLk0OGF4Lx0CQJ0WYl1shTc_48R4nFPiD4r-8OY13mbnaXgIPMGlPwy8FPQ9DLpQAvjMEgSobkp7MTEqZYngRkpYs3Fv3c6Ft1JdAi2W52Y-Zp8FeOtguPJPzV5CPJEzrSSQE8ijJSsjP5lPp1kwoBXIY4aAHOISwb4lzP_ZyERXCkvTGxoXOnE2dSxNIUbEkBytjA38rsQQBc1ftOyHaf3K0RBWdYCbKQz-eKQmAkzRvnM2MWzSy0yER_OZtS471dHu7ZX1X1bXEDUaQlzYyyta5VM-aDbNirqcC2L2Q96nan3RYOnXNHOWRmrbhq15nlNNmVusTtOJv8oJXGpDUb_rXlZyQ-3fsbbCVB6ciNMgK9OpO7pSSOX2uoISRw6c31pAGYrS8FiECmXAud_WJbaehkzyTZjSY_6Tv2Tujf13bWZTrLbuF2F11rGDnlGwMHsLyI2qkGvEGvrw2AoBXvBvKJiICW1_L41UMNJfQr9ouAHgoDlVa0xQelpZ-k_8JYL3bIsRhxhSa-bf9tj0ycEX1tOz3jXLUEdEk_v5B3Rhi5ji2ozwTpTXMM59T5ng4E6fm9rRaDRLW-DmhO3_eDI7L1Vzr2RYWzJVQHO1tHO1Mk7mv8DQLU7Q2VLWUlBlVPHyR0D14V23cnOdR1W9SVH3crRtRHjf_MWR0SshptQIM32UBdjpPSP8Ms5suxMJpjxEKLVwy6-q5u5qz7qE9KsFzuHEGfxQBL-19kqalA7nJsmWZ_6ZMGxfJniAPrAJHxeDxsRReiBh74h3dRqOqwbAwrcpLMyiE55Qf9LAMtQAjsw6ZAda7RPhId-0VfMi7gR3fyzlR2HJI41NOo-meuZFpJHykVDElnfT0iU1vAI4HgBCJfxUddv_chtxjtr9dARxUhTIwp7U8n7F-1DEOj__1S0]--></g></svg>