<svg xmlns="http://www.w3.org/2000/svg" xmlns:xlink="http://www.w3.org/1999/xlink" contentStyleType="text/css" data-diagram-type="CLASS" height="754px" preserveAspectRatio="none" style="width:4205px;height:754px;background:#FFFFFF;" version="1.1" viewBox="0 0 4205 754" width="4205px" zoomAndPan="magnify"><title>ui/platform_window class diagram</title><defs/><g><text fill="#000000" font-family="sans-serif" font-size="14" font-weight="bold" lengthAdjust="spacing" textLength="269.5" x="1960.75" y="22.9951">ui/platform_window class diagram</text><!--cluster C_0010501953460611170695--><g id="cluster_C_0010501953460611170695"><path d="M8.5,43.2969 L24.2656,43.2969 A3.75,3.75 0 0 1 26.7656,45.7969 L33.7656,65.5938 L4195.5,65.5938 A2.5,2.5 0 0 1 4198,68.0938 L4198,744.7969 A2.5,2.5 0 0 1 4195.5,747.2969 L8.5,747.2969 A2.5,2.5 0 0 1 6,744.7969 L6,45.7969 A2.5,2.5 0 0 1 8.5,43.2969 " fill="transparent" style="stroke:#000000;stroke-width:1.5;"/><line style="stroke:#000000;stroke-width:1.5;" x1="6" x2="33.7656" y1="65.5938" y2="65.5938"/><text fill="#000000" font-family="sans-serif" font-size="14" font-weight="bold" lengthAdjust="spacing" textLength="14.7656" x="10" y="58.292">ui</text></g><!--cluster C_0013050205497352612465--><g id="cluster_C_0013050205497352612465"><path d="M2504.5,277.2969 L2542.7969,277.2969 A3.75,3.75 0 0 1 2545.2969,279.7969 L2552.2969,299.5938 L3930.5,299.5938 A2.5,2.5 0 0 1 3933,302.0938 L3933,720.7969 A2.5,2.5 0 0 1 3930.5,723.2969 L2504.5,723.2969 A2.5,2.5 0 0 1 2502,720.7969 L2502,279.7969 A2.5,2.5 0 0 1 2504.5,277.2969 " fill="transparent" style="stroke:#000000;stroke-width:1.5;"/><line style="stroke:#000000;stroke-width:1.5;" x1="2502" x2="2552.2969" y1="299.5938" y2="299.5938"/><text fill="#000000" font-family="sans-serif" font-size="14" font-weight="bold" lengthAdjust="spacing" textLength="37.2969" x="2506" y="292.292">base</text></g><!--cluster C_0004008188106029357805--><g id="cluster_C_0004008188106029357805"><path d="M32.5,86.2969 L168.9336,86.2969 A3.75,3.75 0 0 1 171.4336,88.7969 L178.4336,108.5938 L2475.5,108.5938 A2.5,2.5 0 0 1 2478,111.0938 L2478,484.7969 A2.5,2.5 0 0 1 2475.5,487.2969 L32.5,487.2969 A2.5,2.5 0 0 1 30,484.7969 L30,88.7969 A2.5,2.5 0 0 1 32.5,86.2969 " fill="transparent" style="stroke:#000000;stroke-width:1.5;"/><line style="stroke:#000000;stroke-width:1.5;" x1="30" x2="178.4336" y1="108.5938" y2="108.5938"/><text fill="#000000" font-family="sans-serif" font-size="14" font-weight="bold" lengthAdjust="spacing" textLength="135.4336" x="34" y="101.292">platform_window</text></g><!--cluster C_0001100326116271766907--><g id="cluster_C_0001100326116271766907"><path d="M1399.5,129.2969 L1486.2295,129.2969 A3.75,3.75 0 0 1 1488.7295,131.7969 L1495.7295,151.5938 L2451.5,151.5938 A2.5,2.5 0 0 1 2454,154.0938 L2454,225.7969 A2.5,2.5 0 0 1 2451.5,228.2969 L1399.5,228.2969 A2.5,2.5 0 0 1 1397,225.7969 L1397,131.7969 A2.5,2.5 0 0 1 1399.5,129.2969 " fill="transparent" style="stroke:#000000;stroke-width:1.5;"/><line style="stroke:#000000;stroke-width:1.5;" x1="1397" x2="1495.7295" y1="151.5938" y2="151.5938"/><text fill="#000000" font-family="sans-serif" font-size="14" font-weight="bold" lengthAdjust="spacing" textLength="85.7295" x="1401" y="144.292">extensions</text></g><!--cluster C_0015226450671194891852--><g id="cluster_C_0015226450671194891852"><path d="M56.5,129.2969 L85.0215,129.2969 A3.75,3.75 0 0 1 87.5215,131.7969 L94.5215,151.5938 L870.5,151.5938 A2.5,2.5 0 0 1 873,154.0938 L873,373.7969 A2.5,2.5 0 0 1 870.5,376.2969 L56.5,376.2969 A2.5,2.5 0 0 1 54,373.7969 L54,131.7969 A2.5,2.5 0 0 1 56.5,129.2969 " fill="transparent" style="stroke:#000000;stroke-width:1.5;"/><line style="stroke:#000000;stroke-width:1.5;" x1="54" x2="94.5215" y1="151.5938" y2="151.5938"/><text fill="#000000" font-family="sans-serif" font-size="14" font-weight="bold" lengthAdjust="spacing" textLength="27.5215" x="58" y="144.292">wm</text></g><!--cluster C_0013966902263389298428--><g id="cluster_C_0013966902263389298428"><path d="M3959.5,277.2969 L3985.6426,277.2969 A3.75,3.75 0 0 1 3988.1426,279.7969 L3995.1426,299.5938 L4171.5,299.5938 A2.5,2.5 0 0 1 4174,302.0938 L4174,373.7969 A2.5,2.5 0 0 1 4171.5,376.2969 L3959.5,376.2969 A2.5,2.5 0 0 1 3957,373.7969 L3957,279.7969 A2.5,2.5 0 0 1 3959.5,277.2969 " fill="transparent" style="stroke:#000000;stroke-width:1.5;"/><line style="stroke:#000000;stroke-width:1.5;" x1="3957" x2="3995.1426" y1="299.5938" y2="299.5938"/><text fill="#000000" font-family="sans-serif" font-size="14" font-weight="bold" lengthAdjust="spacing" textLength="25.1426" x="3961" y="292.292">gfx</text></g><!--class C_0003617341143175913478--><a href="" target="_top" title="OwnedWindowAnchor" xlink:actuate="onRequest" xlink:href="" xlink:show="new" xlink:title="OwnedWindowAnchor" xlink:type="simple"><g id="elem_C_0003617341143175913478"><rect codeLine="5" fill="#F1F1F1" height="48" id="C_0003617341143175913478" rx="2.5" ry="2.5" style="stroke:#181818;stroke-width:0.5;" width="185.6924" x="3532" y="312.2969"/><ellipse cx="3547" cy="328.2969" fill="#ADD1B2" rx="11" ry="11" style="stroke:#181818;stroke-width:1;"/><path d="M3549.9688,333.9375 Q3549.3906,334.2344 3548.75,334.375 Q3548.1094,334.5313 3547.4063,334.5313 Q3544.9063,334.5313 3543.5781,332.8906 Q3542.2656,331.2344 3542.2656,328.1094 Q3542.2656,324.9844 3543.5781,323.3281 Q3544.9063,321.6719 3547.4063,321.6719 Q3548.1094,321.6719 3548.75,321.8281 Q3549.4063,321.9844 3549.9688,322.2813 L3549.9688,325 Q3549.3438,324.4219 3548.75,324.1563 Q3548.1563,323.875 3547.5313,323.875 Q3546.1875,323.875 3545.5,324.9531 Q3544.8125,326.0156 3544.8125,328.1094 Q3544.8125,330.2031 3545.5,331.2813 Q3546.1875,332.3438 3547.5313,332.3438 Q3548.1563,332.3438 3548.75,332.0781 Q3549.3438,331.7969 3549.9688,331.2188 L3549.9688,333.9375 Z " fill="#000000"/><text fill="#000000" font-family="sans-serif" font-size="14" lengthAdjust="spacing" textLength="153.6924" x="3561" y="333.1436">OwnedWindowAnchor</text><line style="stroke:#181818;stroke-width:0.5;" x1="3533" x2="3716.6924" y1="344.2969" y2="344.2969"/><line style="stroke:#181818;stroke-width:0.5;" x1="3533" x2="3716.6924" y1="352.2969" y2="352.2969"/></g></a><!--class C_0014438071014349296623--><a href="" target="_top" title="WindowTiledEdges" xlink:actuate="onRequest" xlink:href="" xlink:show="new" xlink:title="WindowTiledEdges" xlink:type="simple"><g id="elem_C_0014438071014349296623"><rect codeLine="9" fill="#F1F1F1" height="48" id="C_0014438071014349296623" rx="2.5" ry="2.5" style="stroke:#181818;stroke-width:0.5;" width="163.8652" x="3753" y="312.2969"/><ellipse cx="3768" cy="328.2969" fill="#ADD1B2" rx="11" ry="11" style="stroke:#181818;stroke-width:1;"/><path d="M3770.9688,333.9375 Q3770.3906,334.2344 3769.75,334.375 Q3769.1094,334.5313 3768.4063,334.5313 Q3765.9063,334.5313 3764.5781,332.8906 Q3763.2656,331.2344 3763.2656,328.1094 Q3763.2656,324.9844 3764.5781,323.3281 Q3765.9063,321.6719 3768.4063,321.6719 Q3769.1094,321.6719 3769.75,321.8281 Q3770.4063,321.9844 3770.9688,322.2813 L3770.9688,325 Q3770.3438,324.4219 3769.75,324.1563 Q3769.1563,323.875 3768.5313,323.875 Q3767.1875,323.875 3766.5,324.9531 Q3765.8125,326.0156 3765.8125,328.1094 Q3765.8125,330.2031 3766.5,331.2813 Q3767.1875,332.3438 3768.5313,332.3438 Q3769.1563,332.3438 3769.75,332.0781 Q3770.3438,331.7969 3770.9688,331.2188 L3770.9688,333.9375 Z " fill="#000000"/><text fill="#000000" font-family="sans-serif" font-size="14" lengthAdjust="spacing" textLength="131.8652" x="3782" y="333.1436">WindowTiledEdges</text><line style="stroke:#181818;stroke-width:0.5;" x1="3754" x2="3915.8652" y1="344.2969" y2="344.2969"/><line style="stroke:#181818;stroke-width:0.5;" x1="3754" x2="3915.8652" y1="352.2969" y2="352.2969"/></g></a><!--class C_0003560248179536117537--><a href="" target="_top" title="ClassProperty" xlink:actuate="onRequest" xlink:href="" xlink:show="new" xlink:title="ClassProperty" xlink:type="simple"><g id="elem_C_0003560248179536117537"><rect codeLine="13" fill="#F1F1F1" height="48" id="C_0003560248179536117537" rx="2.5" ry="2.5" style="stroke:#181818;stroke-width:0.5;" width="139.9561" x="2546" y="659.2969"/><ellipse cx="2561" cy="675.2969" fill="#ADD1B2" rx="11" ry="11" style="stroke:#181818;stroke-width:1;"/><path d="M2563.9688,680.9375 Q2563.3906,681.2344 2562.75,681.375 Q2562.1094,681.5313 2561.4063,681.5313 Q2558.9063,681.5313 2557.5781,679.8906 Q2556.2656,678.2344 2556.2656,675.1094 Q2556.2656,671.9844 2557.5781,670.3281 Q2558.9063,668.6719 2561.4063,668.6719 Q2562.1094,668.6719 2562.75,668.8281 Q2563.4063,668.9844 2563.9688,669.2813 L2563.9688,672 Q2563.3438,671.4219 2562.75,671.1563 Q2562.1563,670.875 2561.5313,670.875 Q2560.1875,670.875 2559.5,671.9531 Q2558.8125,673.0156 2558.8125,675.1094 Q2558.8125,677.2031 2559.5,678.2813 Q2560.1875,679.3438 2561.5313,679.3438 Q2562.1563,679.3438 2562.75,679.0781 Q2563.3438,678.7969 2563.9688,678.2188 L2563.9688,680.9375 Z " fill="#000000"/><text fill="#000000" font-family="sans-serif" font-size="14" lengthAdjust="spacing" textLength="96.626" x="2575" y="680.1436">ClassProperty</text><rect fill="#FFFFFF" height="15.9688" style="stroke:#181818;stroke-width:1;stroke-dasharray:2.0,2.0;" width="9.3301" x="2679.626" y="656.2969"/><text fill="#000000" font-family="sans-serif" font-size="12" font-style="italic" lengthAdjust="spacing" textLength="7.3301" x="2680.626" y="668.4355">T</text><line style="stroke:#181818;stroke-width:0.5;" x1="2547" x2="2684.9561" y1="691.2969" y2="691.2969"/><line style="stroke:#181818;stroke-width:0.5;" x1="2547" x2="2684.9561" y1="699.2969" y2="699.2969"/></g></a><!--class C_0014123125489500529321--><a href="" target="_top" title="PropertyHandler" xlink:actuate="onRequest" xlink:href="" xlink:show="new" xlink:title="PropertyHandler" xlink:type="simple"><g id="elem_C_0014123125489500529321"><rect codeLine="17" fill="#F1F1F1" height="48" id="C_0014123125489500529321" rx="2.5" ry="2.5" style="stroke:#181818;stroke-width:0.5;" width="146.9189" x="2524.5" y="423.2969"/><ellipse cx="2539.5" cy="439.2969" fill="#ADD1B2" rx="11" ry="11" style="stroke:#181818;stroke-width:1;"/><path d="M2542.4688,444.9375 Q2541.8906,445.2344 2541.25,445.375 Q2540.6094,445.5313 2539.9063,445.5313 Q2537.4063,445.5313 2536.0781,443.8906 Q2534.7656,442.2344 2534.7656,439.1094 Q2534.7656,435.9844 2536.0781,434.3281 Q2537.4063,432.6719 2539.9063,432.6719 Q2540.6094,432.6719 2541.25,432.8281 Q2541.9063,432.9844 2542.4688,433.2813 L2542.4688,436 Q2541.8438,435.4219 2541.25,435.1563 Q2540.6563,434.875 2540.0313,434.875 Q2538.6875,434.875 2538,435.9531 Q2537.3125,437.0156 2537.3125,439.1094 Q2537.3125,441.2031 2538,442.2813 Q2538.6875,443.3438 2540.0313,443.3438 Q2540.6563,443.3438 2541.25,443.0781 Q2541.8438,442.7969 2542.4688,442.2188 L2542.4688,444.9375 Z " fill="#000000"/><text fill="#000000" font-family="sans-serif" font-size="14" lengthAdjust="spacing" textLength="114.9189" x="2553.5" y="444.1436">PropertyHandler</text><line style="stroke:#181818;stroke-width:0.5;" x1="2525.5" x2="2670.4189" y1="455.2969" y2="455.2969"/><line style="stroke:#181818;stroke-width:0.5;" x1="2525.5" x2="2670.4189" y1="463.2969" y2="463.2969"/></g></a><!--class C_0002029433289759059245--><a href="" target="_top" title="PropertyHandler::Value" xlink:actuate="onRequest" xlink:href="" xlink:show="new" xlink:title="PropertyHandler::Value" xlink:type="simple"><g id="elem_C_0002029433289759059245"><rect codeLine="21" fill="#F1F1F1" height="48" id="C_0002029433289759059245" rx="2.5" ry="2.5" style="stroke:#181818;stroke-width:0.5;" width="195.8848" x="2518" y="312.2969"/><ellipse cx="2533" cy="328.2969" fill="#ADD1B2" rx="11" ry="11" style="stroke:#181818;stroke-width:1;"/><path d="M2535.9688,333.9375 Q2535.3906,334.2344 2534.75,334.375 Q2534.1094,334.5313 2533.4063,334.5313 Q2530.9063,334.5313 2529.5781,332.8906 Q2528.2656,331.2344 2528.2656,328.1094 Q2528.2656,324.9844 2529.5781,323.3281 Q2530.9063,321.6719 2533.4063,321.6719 Q2534.1094,321.6719 2534.75,321.8281 Q2535.4063,321.9844 2535.9688,322.2813 L2535.9688,325 Q2535.3438,324.4219 2534.75,324.1563 Q2534.1563,323.875 2533.5313,323.875 Q2532.1875,323.875 2531.5,324.9531 Q2530.8125,326.0156 2530.8125,328.1094 Q2530.8125,330.2031 2531.5,331.2813 Q2532.1875,332.3438 2533.5313,332.3438 Q2534.1563,332.3438 2534.75,332.0781 Q2535.3438,331.7969 2535.9688,331.2188 L2535.9688,333.9375 Z " fill="#000000"/><text fill="#000000" font-family="sans-serif" font-size="14" lengthAdjust="spacing" textLength="163.8848" x="2547" y="333.1436">PropertyHandler::Value</text><line style="stroke:#181818;stroke-width:0.5;" x1="2519" x2="2712.8848" y1="344.2969" y2="344.2969"/><line style="stroke:#181818;stroke-width:0.5;" x1="2519" x2="2712.8848" y1="352.2969" y2="352.2969"/></g></a><!--class C_0008442087935316007712--><a href="" target="_top" title="ClassPropertyCaster" xlink:actuate="onRequest" xlink:href="" xlink:show="new" xlink:title="ClassPropertyCaster" xlink:type="simple"><g id="elem_C_0008442087935316007712"><rect codeLine="25" fill="#F1F1F1" height="48" id="C_0008442087935316007712" rx="2.5" ry="2.5" style="stroke:#181818;stroke-width:0.5;" width="185.4629" x="3066.5" y="423.2969"/><ellipse cx="3081.5" cy="439.2969" fill="#ADD1B2" rx="11" ry="11" style="stroke:#181818;stroke-width:1;"/><path d="M3084.4688,444.9375 Q3083.8906,445.2344 3083.25,445.375 Q3082.6094,445.5313 3081.9063,445.5313 Q3079.4063,445.5313 3078.0781,443.8906 Q3076.7656,442.2344 3076.7656,439.1094 Q3076.7656,435.9844 3078.0781,434.3281 Q3079.4063,432.6719 3081.9063,432.6719 Q3082.6094,432.6719 3083.25,432.8281 Q3083.9063,432.9844 3084.4688,433.2813 L3084.4688,436 Q3083.8438,435.4219 3083.25,435.1563 Q3082.6563,434.875 3082.0313,434.875 Q3080.6875,434.875 3080,435.9531 Q3079.3125,437.0156 3079.3125,439.1094 Q3079.3125,441.2031 3080,442.2813 Q3080.6875,443.3438 3082.0313,443.3438 Q3082.6563,443.3438 3083.25,443.0781 Q3083.8438,442.7969 3084.4688,442.2188 L3084.4688,444.9375 Z " fill="#000000"/><text fill="#000000" font-family="sans-serif" font-size="14" lengthAdjust="spacing" textLength="142.1328" x="3095.5" y="444.1436">ClassPropertyCaster</text><rect fill="#FFFFFF" height="15.9688" style="stroke:#181818;stroke-width:1;stroke-dasharray:2.0,2.0;" width="9.3301" x="3245.6328" y="420.2969"/><text fill="#000000" font-family="sans-serif" font-size="12" font-style="italic" lengthAdjust="spacing" textLength="7.3301" x="3246.6328" y="432.4355">T</text><line style="stroke:#181818;stroke-width:0.5;" x1="3067.5" x2="3250.9629" y1="455.2969" y2="455.2969"/><line style="stroke:#181818;stroke-width:0.5;" x1="3067.5" x2="3250.9629" y1="463.2969" y2="463.2969"/></g></a><!--class C_0013409359212391051007--><a href="" target="_top" title="ClassPropertyCaster" xlink:actuate="onRequest" xlink:href="" xlink:show="new" xlink:title="ClassPropertyCaster" xlink:type="simple"><g id="elem_C_0013409359212391051007"><rect codeLine="29" fill="#F1F1F1" height="48" id="C_0013409359212391051007" rx="2.5" ry="2.5" style="stroke:#181818;stroke-width:0.5;" width="195.2773" x="3061.5" y="312.2969"/><ellipse cx="3076.5" cy="328.2969" fill="#ADD1B2" rx="11" ry="11" style="stroke:#181818;stroke-width:1;"/><path d="M3079.4688,333.9375 Q3078.8906,334.2344 3078.25,334.375 Q3077.6094,334.5313 3076.9063,334.5313 Q3074.4063,334.5313 3073.0781,332.8906 Q3071.7656,331.2344 3071.7656,328.1094 Q3071.7656,324.9844 3073.0781,323.3281 Q3074.4063,321.6719 3076.9063,321.6719 Q3077.6094,321.6719 3078.25,321.8281 Q3078.9063,321.9844 3079.4688,322.2813 L3079.4688,325 Q3078.8438,324.4219 3078.25,324.1563 Q3077.6563,323.875 3077.0313,323.875 Q3075.6875,323.875 3075,324.9531 Q3074.3125,326.0156 3074.3125,328.1094 Q3074.3125,330.2031 3075,331.2813 Q3075.6875,332.3438 3077.0313,332.3438 Q3077.6563,332.3438 3078.25,332.0781 Q3078.8438,331.7969 3079.4688,331.2188 L3079.4688,333.9375 Z " fill="#000000"/><text fill="#000000" font-family="sans-serif" font-size="14" lengthAdjust="spacing" textLength="142.1328" x="3090.5" y="333.1436">ClassPropertyCaster</text><rect fill="#FFFFFF" height="15.9688" style="stroke:#181818;stroke-width:1;stroke-dasharray:2.0,2.0;" width="19.1445" x="3240.6328" y="309.2969"/><text fill="#000000" font-family="sans-serif" font-size="12" font-style="italic" lengthAdjust="spacing" textLength="17.1445" x="3241.6328" y="321.4355">T *</text><line style="stroke:#181818;stroke-width:0.5;" x1="3062.5" x2="3255.7773" y1="344.2969" y2="344.2969"/><line style="stroke:#181818;stroke-width:0.5;" x1="3062.5" x2="3255.7773" y1="352.2969" y2="352.2969"/></g></a><!--class C_0009921427787891976245--><a href="" target="_top" title="ClassPropertyCaster" xlink:actuate="onRequest" xlink:href="" xlink:show="new" xlink:title="ClassPropertyCaster" xlink:type="simple"><g id="elem_C_0009921427787891976245"><rect codeLine="33" fill="#F1F1F1" height="48" id="C_0009921427787891976245" rx="2.5" ry="2.5" style="stroke:#181818;stroke-width:0.5;" width="276.5762" x="2749.5" y="312.2969"/><ellipse cx="2764.5" cy="328.2969" fill="#ADD1B2" rx="11" ry="11" style="stroke:#181818;stroke-width:1;"/><path d="M2767.4688,333.9375 Q2766.8906,334.2344 2766.25,334.375 Q2765.6094,334.5313 2764.9063,334.5313 Q2762.4063,334.5313 2761.0781,332.8906 Q2759.7656,331.2344 2759.7656,328.1094 Q2759.7656,324.9844 2761.0781,323.3281 Q2762.4063,321.6719 2764.9063,321.6719 Q2765.6094,321.6719 2766.25,321.8281 Q2766.9063,321.9844 2767.4688,322.2813 L2767.4688,325 Q2766.8438,324.4219 2766.25,324.1563 Q2765.6563,323.875 2765.0313,323.875 Q2763.6875,323.875 2763,324.9531 Q2762.3125,326.0156 2762.3125,328.1094 Q2762.3125,330.2031 2763,331.2813 Q2763.6875,332.3438 2765.0313,332.3438 Q2765.6563,332.3438 2766.25,332.0781 Q2766.8438,331.7969 2767.4688,331.2188 L2767.4688,333.9375 Z " fill="#000000"/><text fill="#000000" font-family="sans-serif" font-size="14" lengthAdjust="spacing" textLength="142.1328" x="2778.5" y="333.1436">ClassPropertyCaster</text><rect fill="#FFFFFF" height="15.9688" style="stroke:#181818;stroke-width:1;stroke-dasharray:2.0,2.0;" width="100.4434" x="2928.6328" y="309.2969"/><text fill="#000000" font-family="sans-serif" font-size="12" font-style="italic" lengthAdjust="spacing" textLength="98.4434" x="2929.6328" y="321.4355">base::TimeDelta</text><line style="stroke:#181818;stroke-width:0.5;" x1="2750.5" x2="3025.0762" y1="344.2969" y2="344.2969"/><line style="stroke:#181818;stroke-width:0.5;" x1="2750.5" x2="3025.0762" y1="352.2969" y2="352.2969"/></g></a><!--class C_0001432030145703948330--><a href="" target="_top" title="ClassPropertyCaster" xlink:actuate="onRequest" xlink:href="" xlink:show="new" xlink:title="ClassPropertyCaster" xlink:type="simple"><g id="elem_C_0001432030145703948330"><rect codeLine="37" fill="#F1F1F1" height="48" id="C_0001432030145703948330" rx="2.5" ry="2.5" style="stroke:#181818;stroke-width:0.5;" width="205.0918" x="3291.5" y="312.2969"/><ellipse cx="3306.5" cy="328.2969" fill="#ADD1B2" rx="11" ry="11" style="stroke:#181818;stroke-width:1;"/><path d="M3309.4688,333.9375 Q3308.8906,334.2344 3308.25,334.375 Q3307.6094,334.5313 3306.9063,334.5313 Q3304.4063,334.5313 3303.0781,332.8906 Q3301.7656,331.2344 3301.7656,328.1094 Q3301.7656,324.9844 3303.0781,323.3281 Q3304.4063,321.6719 3306.9063,321.6719 Q3307.6094,321.6719 3308.25,321.8281 Q3308.9063,321.9844 3309.4688,322.2813 L3309.4688,325 Q3308.8438,324.4219 3308.25,324.1563 Q3307.6563,323.875 3307.0313,323.875 Q3305.6875,323.875 3305,324.9531 Q3304.3125,326.0156 3304.3125,328.1094 Q3304.3125,330.2031 3305,331.2813 Q3305.6875,332.3438 3307.0313,332.3438 Q3307.6563,332.3438 3308.25,332.0781 Q3308.8438,331.7969 3309.4688,331.2188 L3309.4688,333.9375 Z " fill="#000000"/><text fill="#000000" font-family="sans-serif" font-size="14" lengthAdjust="spacing" textLength="142.1328" x="3320.5" y="333.1436">ClassPropertyCaster</text><rect fill="#FFFFFF" height="15.9688" style="stroke:#181818;stroke-width:1;stroke-dasharray:2.0,2.0;" width="28.959" x="3470.6328" y="309.2969"/><text fill="#000000" font-family="sans-serif" font-size="12" font-style="italic" lengthAdjust="spacing" textLength="26.959" x="3471.6328" y="321.4355">float</text><line style="stroke:#181818;stroke-width:0.5;" x1="3292.5" x2="3495.5918" y1="344.2969" y2="344.2969"/><line style="stroke:#181818;stroke-width:0.5;" x1="3292.5" x2="3495.5918" y1="352.2969" y2="352.2969"/></g></a><!--class C_0010720617258079439186--><a href="" target="_top" title="PropertyHelper" xlink:actuate="onRequest" xlink:href="" xlink:show="new" xlink:title="PropertyHelper" xlink:type="simple"><g id="elem_C_0010720617258079439186"><rect codeLine="41" fill="#F1F1F1" height="48" id="C_0010720617258079439186" rx="2.5" ry="2.5" style="stroke:#181818;stroke-width:0.5;" width="138.0801" x="2570" y="550.2969"/><ellipse cx="2585" cy="566.2969" fill="#ADD1B2" rx="11" ry="11" style="stroke:#181818;stroke-width:1;"/><path d="M2587.9688,571.9375 Q2587.3906,572.2344 2586.75,572.375 Q2586.1094,572.5313 2585.4063,572.5313 Q2582.9063,572.5313 2581.5781,570.8906 Q2580.2656,569.2344 2580.2656,566.1094 Q2580.2656,562.9844 2581.5781,561.3281 Q2582.9063,559.6719 2585.4063,559.6719 Q2586.1094,559.6719 2586.75,559.8281 Q2587.4063,559.9844 2587.9688,560.2813 L2587.9688,563 Q2587.3438,562.4219 2586.75,562.1563 Q2586.1563,561.875 2585.5313,561.875 Q2584.1875,561.875 2583.5,562.9531 Q2582.8125,564.0156 2582.8125,566.1094 Q2582.8125,568.2031 2583.5,569.2813 Q2584.1875,570.3438 2585.5313,570.3438 Q2586.1563,570.3438 2586.75,570.0781 Q2587.3438,569.7969 2587.9688,569.2188 L2587.9688,571.9375 Z " fill="#000000"/><text fill="#000000" font-family="sans-serif" font-size="14" lengthAdjust="spacing" textLength="106.0801" x="2599" y="571.1436">PropertyHelper</text><line style="stroke:#181818;stroke-width:0.5;" x1="2571" x2="2707.0801" y1="582.2969" y2="582.2969"/><line style="stroke:#181818;stroke-width:0.5;" x1="2571" x2="2707.0801" y1="590.2969" y2="590.2969"/></g></a><!--class C_0007048084360952612282--><a href="" target="_top" title="PlatformWindowInitProperties" xlink:actuate="onRequest" xlink:href="" xlink:show="new" xlink:title="PlatformWindowInitProperties" xlink:type="simple"><g id="elem_C_0007048084360952612282"><rect codeLine="47" fill="#F1F1F1" height="48" id="C_0007048084360952612282" rx="2.5" ry="2.5" style="stroke:#181818;stroke-width:0.5;" width="240.4824" x="1138" y="164.2969"/><ellipse cx="1153" cy="180.2969" fill="#ADD1B2" rx="11" ry="11" style="stroke:#181818;stroke-width:1;"/><path d="M1155.9688,185.9375 Q1155.3906,186.2344 1154.75,186.375 Q1154.1094,186.5313 1153.4063,186.5313 Q1150.9063,186.5313 1149.5781,184.8906 Q1148.2656,183.2344 1148.2656,180.1094 Q1148.2656,176.9844 1149.5781,175.3281 Q1150.9063,173.6719 1153.4063,173.6719 Q1154.1094,173.6719 1154.75,173.8281 Q1155.4063,173.9844 1155.9688,174.2813 L1155.9688,177 Q1155.3438,176.4219 1154.75,176.1563 Q1154.1563,175.875 1153.5313,175.875 Q1152.1875,175.875 1151.5,176.9531 Q1150.8125,178.0156 1150.8125,180.1094 Q1150.8125,182.2031 1151.5,183.2813 Q1152.1875,184.3438 1153.5313,184.3438 Q1154.1563,184.3438 1154.75,184.0781 Q1155.3438,183.7969 1155.9688,183.2188 L1155.9688,185.9375 Z " fill="#000000"/><text fill="#000000" font-family="sans-serif" font-size="14" lengthAdjust="spacing" textLength="208.4824" x="1167" y="185.1436">PlatformWindowInitProperties</text><line style="stroke:#181818;stroke-width:0.5;" x1="1139" x2="1377.4824" y1="196.2969" y2="196.2969"/><line style="stroke:#181818;stroke-width:0.5;" x1="1139" x2="1377.4824" y1="204.2969" y2="204.2969"/></g></a><!--class C_0000339074417896446261--><a href="" target="_top" title="WorkspaceExtensionDelegate" xlink:actuate="onRequest" xlink:href="" xlink:show="new" xlink:title="WorkspaceExtensionDelegate" xlink:type="simple"><g id="elem_C_0000339074417896446261"><rect codeLine="51" fill="#F1F1F1" height="48" id="C_0000339074417896446261" rx="2.5" ry="2.5" style="stroke:#181818;stroke-width:0.5;" width="241.5352" x="1768" y="312.2969"/><ellipse cx="1783" cy="328.2969" fill="#ADD1B2" rx="11" ry="11" style="stroke:#181818;stroke-width:1;"/><path d="M1785.9688,333.9375 Q1785.3906,334.2344 1784.75,334.375 Q1784.1094,334.5313 1783.4063,334.5313 Q1780.9063,334.5313 1779.5781,332.8906 Q1778.2656,331.2344 1778.2656,328.1094 Q1778.2656,324.9844 1779.5781,323.3281 Q1780.9063,321.6719 1783.4063,321.6719 Q1784.1094,321.6719 1784.75,321.8281 Q1785.4063,321.9844 1785.9688,322.2813 L1785.9688,325 Q1785.3438,324.4219 1784.75,324.1563 Q1784.1563,323.875 1783.5313,323.875 Q1782.1875,323.875 1781.5,324.9531 Q1780.8125,326.0156 1780.8125,328.1094 Q1780.8125,330.2031 1781.5,331.2813 Q1782.1875,332.3438 1783.5313,332.3438 Q1784.1563,332.3438 1784.75,332.0781 Q1785.3438,331.7969 1785.9688,331.2188 L1785.9688,333.9375 Z " fill="#000000"/><text fill="#000000" font-family="sans-serif" font-size="14" lengthAdjust="spacing" textLength="209.5352" x="1797" y="333.1436">WorkspaceExtensionDelegate</text><line style="stroke:#181818;stroke-width:0.5;" x1="1769" x2="2008.5352" y1="344.2969" y2="344.2969"/><line style="stroke:#181818;stroke-width:0.5;" x1="1769" x2="2008.5352" y1="352.2969" y2="352.2969"/></g></a><!--class C_0005456790814334145396--><a href="" target="_top" title="X11ExtensionDelegate" xlink:actuate="onRequest" xlink:href="" xlink:show="new" xlink:title="X11ExtensionDelegate" xlink:type="simple"><g id="elem_C_0005456790814334145396"><rect codeLine="55" fill="#F1F1F1" height="48" id="C_0005456790814334145396" rx="2.5" ry="2.5" style="stroke:#181818;stroke-width:0.5;" width="191.5986" x="1541" y="312.2969"/><ellipse cx="1556" cy="328.2969" fill="#ADD1B2" rx="11" ry="11" style="stroke:#181818;stroke-width:1;"/><path d="M1558.9688,333.9375 Q1558.3906,334.2344 1557.75,334.375 Q1557.1094,334.5313 1556.4063,334.5313 Q1553.9063,334.5313 1552.5781,332.8906 Q1551.2656,331.2344 1551.2656,328.1094 Q1551.2656,324.9844 1552.5781,323.3281 Q1553.9063,321.6719 1556.4063,321.6719 Q1557.1094,321.6719 1557.75,321.8281 Q1558.4063,321.9844 1558.9688,322.2813 L1558.9688,325 Q1558.3438,324.4219 1557.75,324.1563 Q1557.1563,323.875 1556.5313,323.875 Q1555.1875,323.875 1554.5,324.9531 Q1553.8125,326.0156 1553.8125,328.1094 Q1553.8125,330.2031 1554.5,331.2813 Q1555.1875,332.3438 1556.5313,332.3438 Q1557.1563,332.3438 1557.75,332.0781 Q1558.3438,331.7969 1558.9688,331.2188 L1558.9688,333.9375 Z " fill="#000000"/><text fill="#000000" font-family="sans-serif" font-size="14" lengthAdjust="spacing" textLength="159.5986" x="1570" y="333.1436">X11ExtensionDelegate</text><line style="stroke:#181818;stroke-width:0.5;" x1="1542" x2="1731.5986" y1="344.2969" y2="344.2969"/><line style="stroke:#181818;stroke-width:0.5;" x1="1542" x2="1731.5986" y1="352.2969" y2="352.2969"/></g></a><!--class C_0017737036712140491157--><a href="" target="_top" title="PlatformCursor" xlink:actuate="onRequest" xlink:href="" xlink:show="new" xlink:title="PlatformCursor" xlink:type="simple"><g id="elem_C_0017737036712140491157"><rect codeLine="59" fill="#F1F1F1" height="48" id="C_0017737036712140491157" rx="2.5" ry="2.5" style="stroke:#181818;stroke-width:0.5;" width="137.3076" x="2050.5" y="423.2969"/><ellipse cx="2065.5" cy="439.2969" fill="#ADD1B2" rx="11" ry="11" style="stroke:#181818;stroke-width:1;"/><path d="M2068.4688,444.9375 Q2067.8906,445.2344 2067.25,445.375 Q2066.6094,445.5313 2065.9063,445.5313 Q2063.4063,445.5313 2062.0781,443.8906 Q2060.7656,442.2344 2060.7656,439.1094 Q2060.7656,435.9844 2062.0781,434.3281 Q2063.4063,432.6719 2065.9063,432.6719 Q2066.6094,432.6719 2067.25,432.8281 Q2067.9063,432.9844 2068.4688,433.2813 L2068.4688,436 Q2067.8438,435.4219 2067.25,435.1563 Q2066.6563,434.875 2066.0313,434.875 Q2064.6875,434.875 2064,435.9531 Q2063.3125,437.0156 2063.3125,439.1094 Q2063.3125,441.2031 2064,442.2813 Q2064.6875,443.3438 2066.0313,443.3438 Q2066.6563,443.3438 2067.25,443.0781 Q2067.8438,442.7969 2068.4688,442.2188 L2068.4688,444.9375 Z " fill="#000000"/><text fill="#000000" font-family="sans-serif" font-size="14" lengthAdjust="spacing" textLength="105.3076" x="2079.5" y="444.1436">PlatformCursor</text><line style="stroke:#181818;stroke-width:0.5;" x1="2051.5" x2="2186.8076" y1="455.2969" y2="455.2969"/><line style="stroke:#181818;stroke-width:0.5;" x1="2051.5" x2="2186.8076" y1="463.2969" y2="463.2969"/></g></a><!--class C_0004133948817376201184--><a href="" target="_top" title="PlatformWindowDelegate" xlink:actuate="onRequest" xlink:href="" xlink:show="new" xlink:title="PlatformWindowDelegate" xlink:type="simple"><g id="elem_C_0004133948817376201184"><rect codeLine="111" fill="#F1F1F1" height="48" id="C_0004133948817376201184" rx="2.5" ry="2.5" style="stroke:#181818;stroke-width:0.5;" width="210.2607" x="893" y="164.2969"/><ellipse cx="908" cy="180.2969" fill="#ADD1B2" rx="11" ry="11" style="stroke:#181818;stroke-width:1;"/><path d="M910.9688,185.9375 Q910.3906,186.2344 909.75,186.375 Q909.1094,186.5313 908.4063,186.5313 Q905.9063,186.5313 904.5781,184.8906 Q903.2656,183.2344 903.2656,180.1094 Q903.2656,176.9844 904.5781,175.3281 Q905.9063,173.6719 908.4063,173.6719 Q909.1094,173.6719 909.75,173.8281 Q910.4063,173.9844 910.9688,174.2813 L910.9688,177 Q910.3438,176.4219 909.75,176.1563 Q909.1563,175.875 908.5313,175.875 Q907.1875,175.875 906.5,176.9531 Q905.8125,178.0156 905.8125,180.1094 Q905.8125,182.2031 906.5,183.2813 Q907.1875,184.3438 908.5313,184.3438 Q909.1563,184.3438 909.75,184.0781 Q910.3438,183.7969 910.9688,183.2188 L910.9688,185.9375 Z " fill="#000000"/><text fill="#000000" font-family="sans-serif" font-size="14" lengthAdjust="spacing" textLength="178.2607" x="922" y="185.1436">PlatformWindowDelegate</text><line style="stroke:#181818;stroke-width:0.5;" x1="894" x2="1102.2607" y1="196.2969" y2="196.2969"/><line style="stroke:#181818;stroke-width:0.5;" x1="894" x2="1102.2607" y1="204.2969" y2="204.2969"/></g></a><!--class C_0001578780003290312319--><a href="" target="_top" title="PlatformWindowDelegate::BoundsChange" xlink:actuate="onRequest" xlink:href="" xlink:show="new" xlink:title="PlatformWindowDelegate::BoundsChange" xlink:type="simple"><g id="elem_C_0001578780003290312319"><rect codeLine="115" fill="#F1F1F1" height="48" id="C_0001578780003290312319" rx="2.5" ry="2.5" style="stroke:#181818;stroke-width:0.5;" width="325.3916" x="888.5" y="312.2969"/><ellipse cx="903.5" cy="328.2969" fill="#ADD1B2" rx="11" ry="11" style="stroke:#181818;stroke-width:1;"/><path d="M906.4688,333.9375 Q905.8906,334.2344 905.25,334.375 Q904.6094,334.5313 903.9063,334.5313 Q901.4063,334.5313 900.0781,332.8906 Q898.7656,331.2344 898.7656,328.1094 Q898.7656,324.9844 900.0781,323.3281 Q901.4063,321.6719 903.9063,321.6719 Q904.6094,321.6719 905.25,321.8281 Q905.9063,321.9844 906.4688,322.2813 L906.4688,325 Q905.8438,324.4219 905.25,324.1563 Q904.6563,323.875 904.0313,323.875 Q902.6875,323.875 902,324.9531 Q901.3125,326.0156 901.3125,328.1094 Q901.3125,330.2031 902,331.2813 Q902.6875,332.3438 904.0313,332.3438 Q904.6563,332.3438 905.25,332.0781 Q905.8438,331.7969 906.4688,331.2188 L906.4688,333.9375 Z " fill="#000000"/><text fill="#000000" font-family="sans-serif" font-size="14" lengthAdjust="spacing" textLength="293.3916" x="917.5" y="333.1436">PlatformWindowDelegate::BoundsChange</text><line style="stroke:#181818;stroke-width:0.5;" x1="889.5" x2="1212.8916" y1="344.2969" y2="344.2969"/><line style="stroke:#181818;stroke-width:0.5;" x1="889.5" x2="1212.8916" y1="352.2969" y2="352.2969"/></g></a><!--class C_0004818591307195361075--><a href="" target="_top" title="PlatformWindowDelegate::State" xlink:actuate="onRequest" xlink:href="" xlink:show="new" xlink:title="PlatformWindowDelegate::State" xlink:type="simple"><g id="elem_C_0004818591307195361075"><rect codeLine="119" fill="#F1F1F1" height="48" id="C_0004818591307195361075" rx="2.5" ry="2.5" style="stroke:#181818;stroke-width:0.5;" width="256.752" x="1248.5" y="312.2969"/><ellipse cx="1263.5" cy="328.2969" fill="#ADD1B2" rx="11" ry="11" style="stroke:#181818;stroke-width:1;"/><path d="M1266.4688,333.9375 Q1265.8906,334.2344 1265.25,334.375 Q1264.6094,334.5313 1263.9063,334.5313 Q1261.4063,334.5313 1260.0781,332.8906 Q1258.7656,331.2344 1258.7656,328.1094 Q1258.7656,324.9844 1260.0781,323.3281 Q1261.4063,321.6719 1263.9063,321.6719 Q1264.6094,321.6719 1265.25,321.8281 Q1265.9063,321.9844 1266.4688,322.2813 L1266.4688,325 Q1265.8438,324.4219 1265.25,324.1563 Q1264.6563,323.875 1264.0313,323.875 Q1262.6875,323.875 1262,324.9531 Q1261.3125,326.0156 1261.3125,328.1094 Q1261.3125,330.2031 1262,331.2813 Q1262.6875,332.3438 1264.0313,332.3438 Q1264.6563,332.3438 1265.25,332.0781 Q1265.8438,331.7969 1266.4688,331.2188 L1266.4688,333.9375 Z " fill="#000000"/><text fill="#000000" font-family="sans-serif" font-size="14" lengthAdjust="spacing" textLength="224.752" x="1277.5" y="333.1436">PlatformWindowDelegate::State</text><line style="stroke:#181818;stroke-width:0.5;" x1="1249.5" x2="1504.252" y1="344.2969" y2="344.2969"/><line style="stroke:#181818;stroke-width:0.5;" x1="1249.5" x2="1504.252" y1="352.2969" y2="352.2969"/></g></a><!--class C_0014641466677610233161--><a href="" target="_top" title="PlatformWindow" xlink:actuate="onRequest" xlink:href="" xlink:show="new" xlink:title="PlatformWindow" xlink:type="simple"><g id="elem_C_0014641466677610233161"><rect codeLine="123" fill="#F1F1F1" height="48" id="C_0014641466677610233161" rx="2.5" ry="2.5" style="stroke:#181818;stroke-width:0.5;" width="146.7959" x="2045.5" y="312.2969"/><ellipse cx="2060.5" cy="328.2969" fill="#ADD1B2" rx="11" ry="11" style="stroke:#181818;stroke-width:1;"/><path d="M2063.4688,333.9375 Q2062.8906,334.2344 2062.25,334.375 Q2061.6094,334.5313 2060.9063,334.5313 Q2058.4063,334.5313 2057.0781,332.8906 Q2055.7656,331.2344 2055.7656,328.1094 Q2055.7656,324.9844 2057.0781,323.3281 Q2058.4063,321.6719 2060.9063,321.6719 Q2061.6094,321.6719 2062.25,321.8281 Q2062.9063,321.9844 2063.4688,322.2813 L2063.4688,325 Q2062.8438,324.4219 2062.25,324.1563 Q2061.6563,323.875 2061.0313,323.875 Q2059.6875,323.875 2059,324.9531 Q2058.3125,326.0156 2058.3125,328.1094 Q2058.3125,330.2031 2059,331.2813 Q2059.6875,332.3438 2061.0313,332.3438 Q2061.6563,332.3438 2062.25,332.0781 Q2062.8438,331.7969 2063.4688,331.2188 L2063.4688,333.9375 Z " fill="#000000"/><text fill="#000000" font-family="sans-serif" font-size="14" lengthAdjust="spacing" textLength="114.7959" x="2074.5" y="333.1436">PlatformWindow</text><line style="stroke:#181818;stroke-width:0.5;" x1="2046.5" x2="2191.2959" y1="344.2969" y2="344.2969"/><line style="stroke:#181818;stroke-width:0.5;" x1="2046.5" x2="2191.2959" y1="352.2969" y2="352.2969"/></g></a><!--class C_0001098074681709332547--><a href="" target="_top" title="X11Extension" xlink:actuate="onRequest" xlink:href="" xlink:show="new" xlink:title="X11Extension" xlink:type="simple"><g id="elem_C_0001098074681709332547"><rect codeLine="64" fill="#F1F1F1" height="48" id="C_0001098074681709332547" rx="2.5" ry="2.5" style="stroke:#181818;stroke-width:0.5;" width="128.1338" x="1413" y="164.2969"/><ellipse cx="1428" cy="180.2969" fill="#ADD1B2" rx="11" ry="11" style="stroke:#181818;stroke-width:1;"/><path d="M1430.9688,185.9375 Q1430.3906,186.2344 1429.75,186.375 Q1429.1094,186.5313 1428.4063,186.5313 Q1425.9063,186.5313 1424.5781,184.8906 Q1423.2656,183.2344 1423.2656,180.1094 Q1423.2656,176.9844 1424.5781,175.3281 Q1425.9063,173.6719 1428.4063,173.6719 Q1429.1094,173.6719 1429.75,173.8281 Q1430.4063,173.9844 1430.9688,174.2813 L1430.9688,177 Q1430.3438,176.4219 1429.75,176.1563 Q1429.1563,175.875 1428.5313,175.875 Q1427.1875,175.875 1426.5,176.9531 Q1425.8125,178.0156 1425.8125,180.1094 Q1425.8125,182.2031 1426.5,183.2813 Q1427.1875,184.3438 1428.5313,184.3438 Q1429.1563,184.3438 1429.75,184.0781 Q1430.3438,183.7969 1430.9688,183.2188 L1430.9688,185.9375 Z " fill="#000000"/><text fill="#000000" font-family="sans-serif" font-size="14" lengthAdjust="spacing" textLength="96.1338" x="1442" y="185.1436">X11Extension</text><line style="stroke:#181818;stroke-width:0.5;" x1="1414" x2="1540.1338" y1="196.2969" y2="196.2969"/><line style="stroke:#181818;stroke-width:0.5;" x1="1414" x2="1540.1338" y1="204.2969" y2="204.2969"/></g></a><!--class C_0007331596878444806860--><a href="" target="_top" title="WaylandExtension" xlink:actuate="onRequest" xlink:href="" xlink:show="new" xlink:title="WaylandExtension" xlink:type="simple"><g id="elem_C_0007331596878444806860"><rect codeLine="68" fill="#F1F1F1" height="48" id="C_0007331596878444806860" rx="2.5" ry="2.5" style="stroke:#181818;stroke-width:0.5;" width="161.6641" x="2020" y="164.2969"/><ellipse cx="2035" cy="180.2969" fill="#ADD1B2" rx="11" ry="11" style="stroke:#181818;stroke-width:1;"/><path d="M2037.9688,185.9375 Q2037.3906,186.2344 2036.75,186.375 Q2036.1094,186.5313 2035.4063,186.5313 Q2032.9063,186.5313 2031.5781,184.8906 Q2030.2656,183.2344 2030.2656,180.1094 Q2030.2656,176.9844 2031.5781,175.3281 Q2032.9063,173.6719 2035.4063,173.6719 Q2036.1094,173.6719 2036.75,173.8281 Q2037.4063,173.9844 2037.9688,174.2813 L2037.9688,177 Q2037.3438,176.4219 2036.75,176.1563 Q2036.1563,175.875 2035.5313,175.875 Q2034.1875,175.875 2033.5,176.9531 Q2032.8125,178.0156 2032.8125,180.1094 Q2032.8125,182.2031 2033.5,183.2813 Q2034.1875,184.3438 2035.5313,184.3438 Q2036.1563,184.3438 2036.75,184.0781 Q2037.3438,183.7969 2037.9688,183.2188 L2037.9688,185.9375 Z " fill="#000000"/><text fill="#000000" font-family="sans-serif" font-size="14" lengthAdjust="spacing" textLength="129.6641" x="2049" y="185.1436">WaylandExtension</text><line style="stroke:#181818;stroke-width:0.5;" x1="2021" x2="2180.6641" y1="196.2969" y2="196.2969"/><line style="stroke:#181818;stroke-width:0.5;" x1="2021" x2="2180.6641" y1="204.2969" y2="204.2969"/></g></a><!--class C_0006049113229815869742--><a href="" target="_top" title="WaylandToplevelExtension" xlink:actuate="onRequest" xlink:href="" xlink:show="new" xlink:title="WaylandToplevelExtension" xlink:type="simple"><g id="elem_C_0006049113229815869742"><rect codeLine="72" fill="#F1F1F1" height="48" id="C_0006049113229815869742" rx="2.5" ry="2.5" style="stroke:#181818;stroke-width:0.5;" width="220.959" x="2217.5" y="164.2969"/><ellipse cx="2232.5" cy="180.2969" fill="#ADD1B2" rx="11" ry="11" style="stroke:#181818;stroke-width:1;"/><path d="M2235.4688,185.9375 Q2234.8906,186.2344 2234.25,186.375 Q2233.6094,186.5313 2232.9063,186.5313 Q2230.4063,186.5313 2229.0781,184.8906 Q2227.7656,183.2344 2227.7656,180.1094 Q2227.7656,176.9844 2229.0781,175.3281 Q2230.4063,173.6719 2232.9063,173.6719 Q2233.6094,173.6719 2234.25,173.8281 Q2234.9063,173.9844 2235.4688,174.2813 L2235.4688,177 Q2234.8438,176.4219 2234.25,176.1563 Q2233.6563,175.875 2233.0313,175.875 Q2231.6875,175.875 2231,176.9531 Q2230.3125,178.0156 2230.3125,180.1094 Q2230.3125,182.2031 2231,183.2813 Q2231.6875,184.3438 2233.0313,184.3438 Q2233.6563,184.3438 2234.25,184.0781 Q2234.8438,183.7969 2235.4688,183.2188 L2235.4688,185.9375 Z " fill="#000000"/><text fill="#000000" font-family="sans-serif" font-size="14" lengthAdjust="spacing" textLength="188.959" x="2246.5" y="185.1436">WaylandToplevelExtension</text><line style="stroke:#181818;stroke-width:0.5;" x1="2218.5" x2="2437.459" y1="196.2969" y2="196.2969"/><line style="stroke:#181818;stroke-width:0.5;" x1="2218.5" x2="2437.459" y1="204.2969" y2="204.2969"/></g></a><!--class C_0016482784505912265703--><a href="" target="_top" title="WorkspaceExtension" xlink:actuate="onRequest" xlink:href="" xlink:show="new" xlink:title="WorkspaceExtension" xlink:type="simple"><g id="elem_C_0016482784505912265703"><rect codeLine="76" fill="#F1F1F1" height="48" id="C_0016482784505912265703" rx="2.5" ry="2.5" style="stroke:#181818;stroke-width:0.5;" width="178.0703" x="1807" y="164.2969"/><ellipse cx="1822" cy="180.2969" fill="#ADD1B2" rx="11" ry="11" style="stroke:#181818;stroke-width:1;"/><path d="M1824.9688,185.9375 Q1824.3906,186.2344 1823.75,186.375 Q1823.1094,186.5313 1822.4063,186.5313 Q1819.9063,186.5313 1818.5781,184.8906 Q1817.2656,183.2344 1817.2656,180.1094 Q1817.2656,176.9844 1818.5781,175.3281 Q1819.9063,173.6719 1822.4063,173.6719 Q1823.1094,173.6719 1823.75,173.8281 Q1824.4063,173.9844 1824.9688,174.2813 L1824.9688,177 Q1824.3438,176.4219 1823.75,176.1563 Q1823.1563,175.875 1822.5313,175.875 Q1821.1875,175.875 1820.5,176.9531 Q1819.8125,178.0156 1819.8125,180.1094 Q1819.8125,182.2031 1820.5,183.2813 Q1821.1875,184.3438 1822.5313,184.3438 Q1823.1563,184.3438 1823.75,184.0781 Q1824.3438,183.7969 1824.9688,183.2188 L1824.9688,185.9375 Z " fill="#000000"/><text fill="#000000" font-family="sans-serif" font-size="14" lengthAdjust="spacing" textLength="146.0703" x="1836" y="185.1436">WorkspaceExtension</text><line style="stroke:#181818;stroke-width:0.5;" x1="1808" x2="1984.0703" y1="196.2969" y2="196.2969"/><line style="stroke:#181818;stroke-width:0.5;" x1="1808" x2="1984.0703" y1="204.2969" y2="204.2969"/></g></a><!--class C_0015456905396135118800--><a href="" target="_top" title="SystemModalExtension" xlink:actuate="onRequest" xlink:href="" xlink:show="new" xlink:title="SystemModalExtension" xlink:type="simple"><g id="elem_C_0015456905396135118800"><rect codeLine="80" fill="#F1F1F1" height="48" id="C_0015456905396135118800" rx="2.5" ry="2.5" style="stroke:#181818;stroke-width:0.5;" width="194.9346" x="1576.5" y="164.2969"/><ellipse cx="1591.5" cy="180.2969" fill="#ADD1B2" rx="11" ry="11" style="stroke:#181818;stroke-width:1;"/><path d="M1594.4688,185.9375 Q1593.8906,186.2344 1593.25,186.375 Q1592.6094,186.5313 1591.9063,186.5313 Q1589.4063,186.5313 1588.0781,184.8906 Q1586.7656,183.2344 1586.7656,180.1094 Q1586.7656,176.9844 1588.0781,175.3281 Q1589.4063,173.6719 1591.9063,173.6719 Q1592.6094,173.6719 1593.25,173.8281 Q1593.9063,173.9844 1594.4688,174.2813 L1594.4688,177 Q1593.8438,176.4219 1593.25,176.1563 Q1592.6563,175.875 1592.0313,175.875 Q1590.6875,175.875 1590,176.9531 Q1589.3125,178.0156 1589.3125,180.1094 Q1589.3125,182.2031 1590,183.2813 Q1590.6875,184.3438 1592.0313,184.3438 Q1592.6563,184.3438 1593.25,184.0781 Q1593.8438,183.7969 1594.4688,183.2188 L1594.4688,185.9375 Z " fill="#000000"/><text fill="#000000" font-family="sans-serif" font-size="14" lengthAdjust="spacing" textLength="162.9346" x="1605.5" y="185.1436">SystemModalExtension</text><line style="stroke:#181818;stroke-width:0.5;" x1="1577.5" x2="1770.4346" y1="196.2969" y2="196.2969"/><line style="stroke:#181818;stroke-width:0.5;" x1="1577.5" x2="1770.4346" y1="204.2969" y2="204.2969"/></g></a><!--class C_0001225466000195998693--><a href="" target="_top" title="WmDropHandler" xlink:actuate="onRequest" xlink:href="" xlink:show="new" xlink:title="WmDropHandler" xlink:type="simple"><g id="elem_C_0001225466000195998693"><rect codeLine="86" fill="#F1F1F1" height="48" id="C_0001225466000195998693" rx="2.5" ry="2.5" style="stroke:#181818;stroke-width:0.5;" width="148.5938" x="708.5" y="164.2969"/><ellipse cx="723.5" cy="180.2969" fill="#ADD1B2" rx="11" ry="11" style="stroke:#181818;stroke-width:1;"/><path d="M726.4688,185.9375 Q725.8906,186.2344 725.25,186.375 Q724.6094,186.5313 723.9063,186.5313 Q721.4063,186.5313 720.0781,184.8906 Q718.7656,183.2344 718.7656,180.1094 Q718.7656,176.9844 720.0781,175.3281 Q721.4063,173.6719 723.9063,173.6719 Q724.6094,173.6719 725.25,173.8281 Q725.9063,173.9844 726.4688,174.2813 L726.4688,177 Q725.8438,176.4219 725.25,176.1563 Q724.6563,175.875 724.0313,175.875 Q722.6875,175.875 722,176.9531 Q721.3125,178.0156 721.3125,180.1094 Q721.3125,182.2031 722,183.2813 Q722.6875,184.3438 724.0313,184.3438 Q724.6563,184.3438 725.25,184.0781 Q725.8438,183.7969 726.4688,183.2188 L726.4688,185.9375 Z " fill="#000000"/><text fill="#000000" font-family="sans-serif" font-size="14" lengthAdjust="spacing" textLength="116.5938" x="737.5" y="185.1436">WmDropHandler</text><line style="stroke:#181818;stroke-width:0.5;" x1="709.5" x2="856.0938" y1="196.2969" y2="196.2969"/><line style="stroke:#181818;stroke-width:0.5;" x1="709.5" x2="856.0938" y1="204.2969" y2="204.2969"/></g></a><!--class C_0017409058273796566520--><a href="" target="_top" title="OSExchangeData" xlink:actuate="onRequest" xlink:href="" xlink:show="new" xlink:title="OSExchangeData" xlink:type="simple"><g id="elem_C_0017409058273796566520"><rect codeLine="90" fill="#F1F1F1" height="48" id="C_0017409058273796566520" rx="2.5" ry="2.5" style="stroke:#181818;stroke-width:0.5;" width="153.9873" x="699" y="312.2969"/><ellipse cx="714" cy="328.2969" fill="#ADD1B2" rx="11" ry="11" style="stroke:#181818;stroke-width:1;"/><path d="M716.9688,333.9375 Q716.3906,334.2344 715.75,334.375 Q715.1094,334.5313 714.4063,334.5313 Q711.9063,334.5313 710.5781,332.8906 Q709.2656,331.2344 709.2656,328.1094 Q709.2656,324.9844 710.5781,323.3281 Q711.9063,321.6719 714.4063,321.6719 Q715.1094,321.6719 715.75,321.8281 Q716.4063,321.9844 716.9688,322.2813 L716.9688,325 Q716.3438,324.4219 715.75,324.1563 Q715.1563,323.875 714.5313,323.875 Q713.1875,323.875 712.5,324.9531 Q711.8125,326.0156 711.8125,328.1094 Q711.8125,330.2031 712.5,331.2813 Q713.1875,332.3438 714.5313,332.3438 Q715.1563,332.3438 715.75,332.0781 Q716.3438,331.7969 716.9688,331.2188 L716.9688,333.9375 Z " fill="#000000"/><text fill="#000000" font-family="sans-serif" font-size="14" lengthAdjust="spacing" textLength="121.9873" x="728" y="333.1436">OSExchangeData</text><line style="stroke:#181818;stroke-width:0.5;" x1="700" x2="851.9873" y1="344.2969" y2="344.2969"/><line style="stroke:#181818;stroke-width:0.5;" x1="700" x2="851.9873" y1="352.2969" y2="352.2969"/></g></a><!--class C_0012845443564248847245--><a href="" target="_top" title="WmDragHandler" xlink:actuate="onRequest" xlink:href="" xlink:show="new" xlink:title="WmDragHandler" xlink:type="simple"><g id="elem_C_0012845443564248847245"><rect codeLine="94" fill="#F1F1F1" height="48" id="C_0012845443564248847245" rx="2.5" ry="2.5" style="stroke:#181818;stroke-width:0.5;" width="148.6074" x="524.5" y="164.2969"/><ellipse cx="539.5" cy="180.2969" fill="#ADD1B2" rx="11" ry="11" style="stroke:#181818;stroke-width:1;"/><path d="M542.4688,185.9375 Q541.8906,186.2344 541.25,186.375 Q540.6094,186.5313 539.9063,186.5313 Q537.4063,186.5313 536.0781,184.8906 Q534.7656,183.2344 534.7656,180.1094 Q534.7656,176.9844 536.0781,175.3281 Q537.4063,173.6719 539.9063,173.6719 Q540.6094,173.6719 541.25,173.8281 Q541.9063,173.9844 542.4688,174.2813 L542.4688,177 Q541.8438,176.4219 541.25,176.1563 Q540.6563,175.875 540.0313,175.875 Q538.6875,175.875 538,176.9531 Q537.3125,178.0156 537.3125,180.1094 Q537.3125,182.2031 538,183.2813 Q538.6875,184.3438 540.0313,184.3438 Q540.6563,184.3438 541.25,184.0781 Q541.8438,183.7969 542.4688,183.2188 L542.4688,185.9375 Z " fill="#000000"/><text fill="#000000" font-family="sans-serif" font-size="14" lengthAdjust="spacing" textLength="116.6074" x="553.5" y="185.1436">WmDragHandler</text><line style="stroke:#181818;stroke-width:0.5;" x1="525.5" x2="672.1074" y1="196.2969" y2="196.2969"/><line style="stroke:#181818;stroke-width:0.5;" x1="525.5" x2="672.1074" y1="204.2969" y2="204.2969"/></g></a><!--class C_0005650634185539144408--><a href="" target="_top" title="WmDragHandler::LocationDelegate" xlink:actuate="onRequest" xlink:href="" xlink:show="new" xlink:title="WmDragHandler::LocationDelegate" xlink:type="simple"><g id="elem_C_0005650634185539144408"><rect codeLine="98" fill="#F1F1F1" height="48" id="C_0005650634185539144408" rx="2.5" ry="2.5" style="stroke:#181818;stroke-width:0.5;" width="280.9648" x="382.5" y="312.2969"/><ellipse cx="397.5" cy="328.2969" fill="#ADD1B2" rx="11" ry="11" style="stroke:#181818;stroke-width:1;"/><path d="M400.4688,333.9375 Q399.8906,334.2344 399.25,334.375 Q398.6094,334.5313 397.9063,334.5313 Q395.4063,334.5313 394.0781,332.8906 Q392.7656,331.2344 392.7656,328.1094 Q392.7656,324.9844 394.0781,323.3281 Q395.4063,321.6719 397.9063,321.6719 Q398.6094,321.6719 399.25,321.8281 Q399.9063,321.9844 400.4688,322.2813 L400.4688,325 Q399.8438,324.4219 399.25,324.1563 Q398.6563,323.875 398.0313,323.875 Q396.6875,323.875 396,324.9531 Q395.3125,326.0156 395.3125,328.1094 Q395.3125,330.2031 396,331.2813 Q396.6875,332.3438 398.0313,332.3438 Q398.6563,332.3438 399.25,332.0781 Q399.8438,331.7969 400.4688,331.2188 L400.4688,333.9375 Z " fill="#000000"/><text fill="#000000" font-family="sans-serif" font-size="14" lengthAdjust="spacing" textLength="248.9648" x="411.5" y="333.1436">WmDragHandler::LocationDelegate</text><line style="stroke:#181818;stroke-width:0.5;" x1="383.5" x2="662.4648" y1="344.2969" y2="344.2969"/><line style="stroke:#181818;stroke-width:0.5;" x1="383.5" x2="662.4648" y1="352.2969" y2="352.2969"/></g></a><!--class C_0012988365670002417045--><a href="" target="_top" title="WmMoveResizeHandler" xlink:actuate="onRequest" xlink:href="" xlink:show="new" xlink:title="WmMoveResizeHandler" xlink:type="simple"><g id="elem_C_0012988365670002417045"><rect codeLine="102" fill="#F1F1F1" height="48" id="C_0012988365670002417045" rx="2.5" ry="2.5" style="stroke:#181818;stroke-width:0.5;" width="197.6348" x="291" y="164.2969"/><ellipse cx="306" cy="180.2969" fill="#ADD1B2" rx="11" ry="11" style="stroke:#181818;stroke-width:1;"/><path d="M308.9688,185.9375 Q308.3906,186.2344 307.75,186.375 Q307.1094,186.5313 306.4063,186.5313 Q303.9063,186.5313 302.5781,184.8906 Q301.2656,183.2344 301.2656,180.1094 Q301.2656,176.9844 302.5781,175.3281 Q303.9063,173.6719 306.4063,173.6719 Q307.1094,173.6719 307.75,173.8281 Q308.4063,173.9844 308.9688,174.2813 L308.9688,177 Q308.3438,176.4219 307.75,176.1563 Q307.1563,175.875 306.5313,175.875 Q305.1875,175.875 304.5,176.9531 Q303.8125,178.0156 303.8125,180.1094 Q303.8125,182.2031 304.5,183.2813 Q305.1875,184.3438 306.5313,184.3438 Q307.1563,184.3438 307.75,184.0781 Q308.3438,183.7969 308.9688,183.2188 L308.9688,185.9375 Z " fill="#000000"/><text fill="#000000" font-family="sans-serif" font-size="14" lengthAdjust="spacing" textLength="165.6348" x="320" y="185.1436">WmMoveResizeHandler</text><line style="stroke:#181818;stroke-width:0.5;" x1="292" x2="487.6348" y1="196.2969" y2="196.2969"/><line style="stroke:#181818;stroke-width:0.5;" x1="292" x2="487.6348" y1="204.2969" y2="204.2969"/></g></a><!--class C_0003258735484316157543--><a href="" target="_top" title="WmMoveLoopHandler" xlink:actuate="onRequest" xlink:href="" xlink:show="new" xlink:title="WmMoveLoopHandler" xlink:type="simple"><g id="elem_C_0003258735484316157543"><rect codeLine="106" fill="#F1F1F1" height="48" id="C_0003258735484316157543" rx="2.5" ry="2.5" style="stroke:#181818;stroke-width:0.5;" width="185.9658" x="70" y="164.2969"/><ellipse cx="85" cy="180.2969" fill="#ADD1B2" rx="11" ry="11" style="stroke:#181818;stroke-width:1;"/><path d="M87.9688,185.9375 Q87.3906,186.2344 86.75,186.375 Q86.1094,186.5313 85.4063,186.5313 Q82.9063,186.5313 81.5781,184.8906 Q80.2656,183.2344 80.2656,180.1094 Q80.2656,176.9844 81.5781,175.3281 Q82.9063,173.6719 85.4063,173.6719 Q86.1094,173.6719 86.75,173.8281 Q87.4063,173.9844 87.9688,174.2813 L87.9688,177 Q87.3438,176.4219 86.75,176.1563 Q86.1563,175.875 85.5313,175.875 Q84.1875,175.875 83.5,176.9531 Q82.8125,178.0156 82.8125,180.1094 Q82.8125,182.2031 83.5,183.2813 Q84.1875,184.3438 85.5313,184.3438 Q86.1563,184.3438 86.75,184.0781 Q87.3438,183.7969 87.9688,183.2188 L87.9688,185.9375 Z " fill="#000000"/><text fill="#000000" font-family="sans-serif" font-size="14" lengthAdjust="spacing" textLength="153.9658" x="99" y="185.1436">WmMoveLoopHandler</text><line style="stroke:#181818;stroke-width:0.5;" x1="71" x2="254.9658" y1="196.2969" y2="196.2969"/><line style="stroke:#181818;stroke-width:0.5;" x1="71" x2="254.9658" y1="204.2969" y2="204.2969"/></g></a><!--class C_0001560354530899298516--><a href="" target="_top" title="Event" xlink:actuate="onRequest" xlink:href="" xlink:show="new" xlink:title="Event" xlink:type="simple"><g id="elem_C_0001560354530899298516"><rect codeLine="129" fill="#F1F1F1" height="48" id="C_0001560354530899298516" rx="2.5" ry="2.5" style="stroke:#181818;stroke-width:0.5;" width="72.1064" x="4086" y="312.2969"/><ellipse cx="4101" cy="328.2969" fill="#ADD1B2" rx="11" ry="11" style="stroke:#181818;stroke-width:1;"/><path d="M4103.9688,333.9375 Q4103.3906,334.2344 4102.75,334.375 Q4102.1094,334.5313 4101.4063,334.5313 Q4098.9063,334.5313 4097.5781,332.8906 Q4096.2656,331.2344 4096.2656,328.1094 Q4096.2656,324.9844 4097.5781,323.3281 Q4098.9063,321.6719 4101.4063,321.6719 Q4102.1094,321.6719 4102.75,321.8281 Q4103.4063,321.9844 4103.9688,322.2813 L4103.9688,325 Q4103.3438,324.4219 4102.75,324.1563 Q4102.1563,323.875 4101.5313,323.875 Q4100.1875,323.875 4099.5,324.9531 Q4098.8125,326.0156 4098.8125,328.1094 Q4098.8125,330.2031 4099.5,331.2813 Q4100.1875,332.3438 4101.5313,332.3438 Q4102.1563,332.3438 4102.75,332.0781 Q4103.3438,331.7969 4103.9688,331.2188 L4103.9688,333.9375 Z " fill="#000000"/><text fill="#000000" font-family="sans-serif" font-size="14" lengthAdjust="spacing" textLength="40.1064" x="4115" y="333.1436">Event</text><line style="stroke:#181818;stroke-width:0.5;" x1="4087" x2="4157.1064" y1="344.2969" y2="344.2969"/><line style="stroke:#181818;stroke-width:0.5;" x1="4087" x2="4157.1064" y1="352.2969" y2="352.2969"/></g></a><!--class C_0009501811314072780178--><a href="" target="_top" title="Cursor" xlink:actuate="onRequest" xlink:href="" xlink:show="new" xlink:title="Cursor" xlink:type="simple"><g id="elem_C_0009501811314072780178"><rect codeLine="133" fill="#F1F1F1" height="48" id="C_0009501811314072780178" rx="2.5" ry="2.5" style="stroke:#181818;stroke-width:0.5;" width="78.0195" x="3973" y="312.2969"/><ellipse cx="3988" cy="328.2969" fill="#ADD1B2" rx="11" ry="11" style="stroke:#181818;stroke-width:1;"/><path d="M3990.9688,333.9375 Q3990.3906,334.2344 3989.75,334.375 Q3989.1094,334.5313 3988.4063,334.5313 Q3985.9063,334.5313 3984.5781,332.8906 Q3983.2656,331.2344 3983.2656,328.1094 Q3983.2656,324.9844 3984.5781,323.3281 Q3985.9063,321.6719 3988.4063,321.6719 Q3989.1094,321.6719 3989.75,321.8281 Q3990.4063,321.9844 3990.9688,322.2813 L3990.9688,325 Q3990.3438,324.4219 3989.75,324.1563 Q3989.1563,323.875 3988.5313,323.875 Q3987.1875,323.875 3986.5,324.9531 Q3985.8125,326.0156 3985.8125,328.1094 Q3985.8125,330.2031 3986.5,331.2813 Q3987.1875,332.3438 3988.5313,332.3438 Q3989.1563,332.3438 3989.75,332.0781 Q3990.3438,331.7969 3990.9688,331.2188 L3990.9688,333.9375 Z " fill="#000000"/><text fill="#000000" font-family="sans-serif" font-size="14" lengthAdjust="spacing" textLength="46.0195" x="4002" y="333.1436">Cursor</text><line style="stroke:#181818;stroke-width:0.5;" x1="3974" x2="4050.0195" y1="344.2969" y2="344.2969"/><line style="stroke:#181818;stroke-width:0.5;" x1="3974" x2="4050.0195" y1="352.2969" y2="352.2969"/></g></a><!--link C_0014123125489500529321 to C_0003560248179536117537--><a href="" target="_top" title="" xlink:actuate="onRequest" xlink:href="" xlink:show="new" xlink:title="" xlink:type="simple"><path codeLine="138" d="M2582.19,471.3069 C2563.91,500.8569 2538.13,553.6769 2553,598.2969 C2560.72,621.4669 2573.5621,638.9772 2587.9221,654.6172 " fill="transparent" id="C_0014123125489500529321-to-C_0003560248179536117537" style="stroke:#181818;stroke-width:1;stroke-dasharray:7.0,7.0;"/><polygon fill="#181818" points="2591.98,659.0369,2588.8395,649.7021,2588.5984,655.3538,2582.9467,655.1127,2591.98,659.0369" style="stroke:#181818;stroke-width:1;"/></a><!--reverse link C_0014123125489500529321 to C_0010720617258079439186--><g id="link_C_0014123125489500529321_C_0010720617258079439186"><path codeLine="139" d="M2607.4892,477.2183 C2614.8492,499.6683 2624.07,527.7969 2631.43,550.2069 " fill="transparent" id="C_0014123125489500529321-backto-C_0010720617258079439186" style="stroke:#181818;stroke-width:1;stroke-dasharray:7.0,7.0;"/><polygon fill="#181818" points="2605.62,471.5169,2604.6228,481.3151,2607.1776,476.2681,2612.2247,478.8229,2605.62,471.5169" style="stroke:#181818;stroke-width:1;"/><ellipse cx="2626" cy="512.3633" fill="transparent" rx="3" ry="3" style="stroke:#038048;stroke-width:1;"/><text fill="#000000" font-family="sans-serif" font-size="13" lengthAdjust="spacing" textLength="53.9297" x="2633" y="516.3638">&#171;friend&#187;</text></g><!--link C_0010720617258079439186 to C_0014123125489500529321--><a href="" target="_top" title="" xlink:actuate="onRequest" xlink:href="" xlink:show="new" xlink:title="" xlink:type="simple"><path codeLine="144" d="M2622.87,550.2469 C2617.32,541.2769 2611.6,530.6669 2608,520.2969 C2602.54,504.5569 2600.53,491.8884 2599.4,477.5084 " fill="transparent" id="C_0010720617258079439186-to-C_0014123125489500529321" style="stroke:#181818;stroke-width:1;stroke-dasharray:7.0,7.0;"/><polygon fill="#181818" points="2598.93,471.5269,2595.6474,480.8126,2599.3217,476.5115,2603.6228,480.1859,2598.93,471.5269" style="stroke:#181818;stroke-width:1;"/></a><!--link C_0002029433289759059245 to C_0014123125489500529321--><g id="link_C_0002029433289759059245_C_0014123125489500529321"><path codeLine="140" d="M2612.18,360.4169 C2609.13,378.9069 2607.4824,388.9416 2604.4224,407.4316 " fill="transparent" id="C_0002029433289759059245-to-C_0014123125489500529321" style="stroke:#181818;stroke-width:1;"/><ellipse cx="2603.1162" cy="415.3242" fill="#FFFFFF" rx="8" ry="8" style="stroke:#181818;stroke-width:1;"/><line style="stroke:#181818;stroke-width:1;" x1="2604.4224" x2="2601.81" y1="407.4316" y2="423.2169"/><line style="stroke:#181818;stroke-width:1;" x1="2611.0088" x2="2595.2235" y1="416.6304" y2="414.018"/></g><!--link C_0013409359212391051007 to C_0008442087935316007712--><g id="link_C_0013409359212391051007_C_0008442087935316007712"><path codeLine="141" d="M3159,360.4169 C3159,378.9069 3159,386.7269 3159,405.2169 " fill="transparent" id="C_0013409359212391051007-to-C_0008442087935316007712" style="stroke:#181818;stroke-width:1;stroke-dasharray:7.0,7.0;"/><polygon fill="transparent" points="3159,423.2169,3165,405.2169,3153,405.2169,3159,423.2169" style="stroke:#181818;stroke-width:1;"/></g><!--link C_0009921427787891976245 to C_0008442087935316007712--><g id="link_C_0009921427787891976245_C_0008442087935316007712"><path codeLine="142" d="M2945.47,360.4169 C2991.46,378.9069 3038.9402,398.0099 3084.9102,416.4999 " fill="transparent" id="C_0009921427787891976245-to-C_0008442087935316007712" style="stroke:#181818;stroke-width:1;stroke-dasharray:7.0,7.0;"/><polygon fill="transparent" points="3101.61,423.2169,3087.1492,410.9333,3082.6712,422.0665,3101.61,423.2169" style="stroke:#181818;stroke-width:1;"/></g><!--link C_0001432030145703948330 to C_0008442087935316007712--><g id="link_C_0001432030145703948330_C_0008442087935316007712"><path codeLine="143" d="M3344.16,360.4169 C3304.28,378.9069 3264.9587,397.1524 3225.0987,415.6424 " fill="transparent" id="C_0001432030145703948330-to-C_0008442087935316007712" style="stroke:#181818;stroke-width:1;stroke-dasharray:7.0,7.0;"/><polygon fill="transparent" points="3208.77,423.2169,3227.6236,421.0853,3222.5739,410.1995,3208.77,423.2169" style="stroke:#181818;stroke-width:1;"/></g><!--link C_0010720617258079439186 to C_0003560248179536117537--><a href="" target="_top" title="" xlink:actuate="onRequest" xlink:href="" xlink:show="new" xlink:title="" xlink:type="simple"><path codeLine="145" d="M2634.01,598.5169 C2630.15,616.4569 2626.1021,635.3211 2622.2421,653.2611 " fill="transparent" id="C_0010720617258079439186-to-C_0003560248179536117537" style="stroke:#181818;stroke-width:1;stroke-dasharray:7.0,7.0;"/><polygon fill="#181818" points="2620.98,659.1269,2626.7836,651.1696,2622.0317,654.2387,2618.9626,649.4868,2620.98,659.1269" style="stroke:#181818;stroke-width:1;"/></a><!--reverse link C_0007048084360952612282 to C_0000339074417896446261--><a href="" target="_top" title="workspace_extension_delegate" xlink:actuate="onRequest" xlink:href="" xlink:show="new" xlink:title="workspace_extension_delegate" xlink:type="simple"><path codeLine="146" d="M1331.019,216.2633 C1354.929,224.6133 1371.35,229.6569 1397,236.2969 C1456.92,251.8069 1472.47,254.5869 1534,261.2969 C1581.97,266.5269 1704.15,257.7569 1751,269.2969 C1786.97,278.1569 1824.72,296.9569 1851.62,312.2369 " fill="transparent" id="C_0007048084360952612282-backto-C_0000339074417896446261" style="stroke:#181818;stroke-width:1;"/><polygon fill="transparent" points="1319.69,212.3069,1324.0357,218.0614,1331.019,216.2633,1326.6733,210.5087,1319.69,212.3069" style="stroke:#181818;stroke-width:1;"/><ellipse cx="1540" cy="253.3633" fill="transparent" rx="3" ry="3" style="stroke:#038048;stroke-width:1;"/><text fill="#000000" font-family="sans-serif" font-size="13" lengthAdjust="spacing" textLength="203.3726" x="1547" y="257.3638">workspace_extension_delegate</text></a><!--reverse link C_0007048084360952612282 to C_0005456790814334145396--><a href="" target="_top" title="x11_extension_delegate" xlink:actuate="onRequest" xlink:href="" xlink:show="new" xlink:title="x11_extension_delegate" xlink:type="simple"><path codeLine="147" d="M1228.5906,221.9775 C1216.5606,237.4375 1213.9,247.8369 1227,261.2969 C1238.47,273.0869 1507.17,264.8169 1523,269.2969 C1553.81,278.0169 1585.01,296.9369 1606.97,312.2969 " fill="transparent" id="C_0007048084360952612282-backto-C_0005456790814334145396" style="stroke:#181818;stroke-width:1;"/><polygon fill="transparent" points="1235.96,212.5069,1229.1184,214.7857,1228.5906,221.9775,1235.4322,219.6986,1235.96,212.5069" style="stroke:#181818;stroke-width:1;"/><ellipse cx="1233" cy="253.3633" fill="transparent" rx="3" ry="3" style="stroke:#038048;stroke-width:1;"/><text fill="#000000" font-family="sans-serif" font-size="13" lengthAdjust="spacing" textLength="158.0122" x="1240" y="257.3638">x11_extension_delegate</text></a><!--link C_0001098074681709332547 to C_0005456790814334145396--><a href="" target="_top" title="" xlink:actuate="onRequest" xlink:href="" xlink:show="new" xlink:title="" xlink:type="simple"><path codeLine="148" d="M1509.76,212.5169 C1524.19,221.5369 1541.76,230.9669 1559,236.2969 C1569.76,239.6169 1652.36,236.0269 1660,244.2969 C1677.03,262.7269 1668.3187,286.761 1656.2187,307.091 " fill="transparent" id="C_0001098074681709332547-to-C_0005456790814334145396" style="stroke:#181818;stroke-width:1;stroke-dasharray:7.0,7.0;"/><polygon fill="#181818" points="1653.15,312.2469,1661.1903,306.5588,1655.7072,307.9503,1654.3158,302.4673,1653.15,312.2469" style="stroke:#181818;stroke-width:1;"/></a><!--link C_0001098074681709332547 to C_0014641466677610233161--><a href="" target="_top" title="" xlink:actuate="onRequest" xlink:href="" xlink:show="new" xlink:title="" xlink:type="simple"><path codeLine="149" d="M1509.35,212.3469 C1523.84,221.4569 1541.57,230.9969 1559,236.2969 C1607.59,251.0769 1622.39,239.9769 1673,244.2969 C1748.22,250.7169 1766.7,255.8969 1842,261.2969 C1883.27,264.2569 1988.93,255.6869 2028,269.2969 C2053.62,278.2169 2073.7512,292.9356 2090.9112,308.1556 " fill="transparent" id="C_0001098074681709332547-to-C_0014641466677610233161" style="stroke:#181818;stroke-width:1;stroke-dasharray:7.0,7.0;"/><polygon fill="#181818" points="2095.4,312.1369,2091.321,303.1724,2091.6593,308.8191,2086.0126,309.1574,2095.4,312.1369" style="stroke:#181818;stroke-width:1;"/></a><!--link C_0007331596878444806860 to C_0014641466677610233161--><a href="" target="_top" title="" xlink:actuate="onRequest" xlink:href="" xlink:show="new" xlink:title="" xlink:type="simple"><path codeLine="150" d="M2103.85,212.4269 C2107.22,239.7669 2112.0668,279.0218 2115.4268,306.3118 " fill="transparent" id="C_0007331596878444806860-to-C_0014641466677610233161" style="stroke:#181818;stroke-width:1;stroke-dasharray:7.0,7.0;"/><polygon fill="#181818" points="2116.16,312.2669,2119.0302,302.8455,2115.549,307.3043,2111.0902,303.8231,2116.16,312.2669" style="stroke:#181818;stroke-width:1;"/></a><!--link C_0006049113229815869742 to C_0014641466677610233161--><a href="" target="_top" title="" xlink:actuate="onRequest" xlink:href="" xlink:show="new" xlink:title="" xlink:type="simple"><path codeLine="151" d="M2294.88,212.4269 C2255.75,239.7669 2195.9489,281.5411 2156.8789,308.8311 " fill="transparent" id="C_0006049113229815869742-to-C_0014641466677610233161" style="stroke:#181818;stroke-width:1;stroke-dasharray:7.0,7.0;"/><polygon fill="#181818" points="2151.96,312.2669,2161.6288,310.3924,2156.0591,309.4037,2157.0478,303.8339,2151.96,312.2669" style="stroke:#181818;stroke-width:1;"/></a><!--link C_0016482784505912265703 to C_0000339074417896446261--><a href="" target="_top" title="" xlink:actuate="onRequest" xlink:href="" xlink:show="new" xlink:title="" xlink:type="simple"><path codeLine="152" d="M1894.89,212.4269 C1893.58,239.7669 1891.6977,278.9838 1890.3877,306.2738 " fill="transparent" id="C_0016482784505912265703-to-C_0000339074417896446261" style="stroke:#181818;stroke-width:1;stroke-dasharray:7.0,7.0;"/><polygon fill="#181818" points="1890.1,312.2669,1894.5269,303.469,1890.3397,307.2726,1886.5361,303.0854,1890.1,312.2669" style="stroke:#181818;stroke-width:1;"/></a><!--link C_0016482784505912265703 to C_0014641466677610233161--><a href="" target="_top" title="" xlink:actuate="onRequest" xlink:href="" xlink:show="new" xlink:title="" xlink:type="simple"><path codeLine="153" d="M1936.1,212.4369 C1962.54,227.9769 1997.75,249.2069 2028,269.2969 C2048.49,282.8969 2066.0338,295.5186 2083.4638,308.4686 " fill="transparent" id="C_0016482784505912265703-to-C_0014641466677610233161" style="stroke:#181818;stroke-width:1;stroke-dasharray:7.0,7.0;"/><polygon fill="#181818" points="2088.28,312.0469,2083.4412,303.4686,2084.2665,309.065,2078.6702,309.8902,2088.28,312.0469" style="stroke:#181818;stroke-width:1;"/></a><!--link C_0015456905396135118800 to C_0014641466677610233161--><a href="" target="_top" title="" xlink:actuate="onRequest" xlink:href="" xlink:show="new" xlink:title="" xlink:type="simple"><path codeLine="154" d="M1723.04,212.2969 C1743.37,221.0069 1767.43,230.2569 1790,236.2969 C1802.9,239.7469 2015.62,264.3169 2028,269.2969 C2052.8,279.2769 2072.5624,293.5745 2089.8124,308.3445 " fill="transparent" id="C_0015456905396135118800-to-C_0014641466677610233161" style="stroke:#181818;stroke-width:1;stroke-dasharray:7.0,7.0;"/><polygon fill="#181818" points="2094.37,312.2469,2090.1352,303.3549,2090.572,308.9949,2084.932,309.4317,2094.37,312.2469" style="stroke:#181818;stroke-width:1;"/></a><!--link C_0001225466000195998693 to C_0017409058273796566520--><a href="" target="_top" title="" xlink:actuate="onRequest" xlink:href="" xlink:show="new" xlink:title="" xlink:type="simple"><path codeLine="155" d="M781.89,212.4269 C780.58,239.7669 778.6977,278.9838 777.3877,306.2738 " fill="transparent" id="C_0001225466000195998693-to-C_0017409058273796566520" style="stroke:#181818;stroke-width:1;stroke-dasharray:7.0,7.0;"/><polygon fill="#181818" points="777.1,312.2669,781.5269,303.469,777.3397,307.2726,773.5361,303.0854,777.1,312.2669" style="stroke:#181818;stroke-width:1;"/></a><!--link C_0012845443564248847245 to C_0017409058273796566520--><a href="" target="_top" title="" xlink:actuate="onRequest" xlink:href="" xlink:show="new" xlink:title="" xlink:type="simple"><path codeLine="156" d="M627.05,212.4269 C660.19,239.7669 710.3711,281.1593 743.4611,308.4493 " fill="transparent" id="C_0012845443564248847245-to-C_0017409058273796566520" style="stroke:#181818;stroke-width:1;stroke-dasharray:7.0,7.0;"/><polygon fill="#181818" points="748.09,312.2669,743.6917,303.4547,744.2326,309.0856,738.6017,309.6265,748.09,312.2669" style="stroke:#181818;stroke-width:1;"/></a><!--link C_0012845443564248847245 to C_0009501811314072780178--><a href="" target="_top" title="" xlink:actuate="onRequest" xlink:href="" xlink:show="new" xlink:title="" xlink:type="simple"><path codeLine="157" d="M634.61,212.4269 C651.07,221.7969 671.31,231.5069 691,236.2969 C715.12,242.1569 2453.18,243.9269 2478,244.2969 C2777.17,248.7469 2851.84,255.9869 3151,261.2969 C3172.72,261.6869 3912.62,261.7869 3933,269.2969 C3956.48,277.9469 3973.7691,292.5253 3988.3691,307.9053 " fill="transparent" id="C_0012845443564248847245-to-C_0009501811314072780178" style="stroke:#181818;stroke-width:1;stroke-dasharray:7.0,7.0;"/><polygon fill="#181818" points="3992.5,312.2569,3989.2047,302.9756,3989.0576,308.6306,3983.4027,308.4835,3992.5,312.2569" style="stroke:#181818;stroke-width:1;"/></a><!--link C_0012845443564248847245 to C_0005650634185539144408--><a href="" target="_top" title="" xlink:actuate="onRequest" xlink:href="" xlink:show="new" xlink:title="" xlink:type="simple"><path codeLine="158" d="M577.35,212.4269 C558.93,239.7669 537.4662,279.3439 527.4562,306.6339 " fill="transparent" id="C_0012845443564248847245-to-C_0005650634185539144408" style="stroke:#181818;stroke-width:1;stroke-dasharray:7.0,7.0;"/><polygon fill="#181818" points="525.39,312.2669,532.2446,305.1948,527.1118,307.5727,524.734,302.4399,525.39,312.2669" style="stroke:#181818;stroke-width:1;"/></a><!--link C_0005650634185539144408 to C_0012845443564248847245--><g id="link_C_0005650634185539144408_C_0012845443564248847245"><path codeLine="159" d="M545.15,312.2669 C563.8,284.9769 581.9412,254.8285 591.7412,227.4885 " fill="transparent" id="C_0005650634185539144408-to-C_0012845443564248847245" style="stroke:#181818;stroke-width:1;"/><ellipse cx="594.4406" cy="219.9577" fill="#FFFFFF" rx="8" ry="8" style="stroke:#181818;stroke-width:1;"/><line style="stroke:#181818;stroke-width:1;" x1="591.7412" x2="597.14" y1="227.4885" y2="212.4269"/><line style="stroke:#181818;stroke-width:1;" x1="586.9098" x2="601.9714" y1="217.2583" y2="222.6571"/></g><!--link C_0004133948817376201184 to C_0001578780003290312319--><a href="" target="_top" title="" xlink:actuate="onRequest" xlink:href="" xlink:show="new" xlink:title="" xlink:type="simple"><path codeLine="160" d="M996.79,212.4269 C1002.52,239.7669 1016.1843,279.6471 1030.2943,306.9371 " fill="transparent" id="C_0004133948817376201184-to-C_0001578780003290312319" style="stroke:#181818;stroke-width:1;stroke-dasharray:7.0,7.0;"/><polygon fill="#181818" points="1033.05,312.2669,1032.4696,302.4351,1030.7536,307.8254,1025.3633,306.1094,1033.05,312.2669" style="stroke:#181818;stroke-width:1;"/></a><!--link C_0001578780003290312319 to C_0004133948817376201184--><g id="link_C_0001578780003290312319_C_0004133948817376201184"><path codeLine="165" d="M1052.8,312.2669 C1047.34,284.9769 1038.38,253.9319 1024.02,226.5919 " fill="transparent" id="C_0001578780003290312319-to-C_0004133948817376201184" style="stroke:#181818;stroke-width:1;"/><ellipse cx="1020.3" cy="219.5094" fill="#FFFFFF" rx="8" ry="8" style="stroke:#181818;stroke-width:1;"/><line style="stroke:#181818;stroke-width:1;" x1="1024.02" x2="1016.58" y1="226.5919" y2="212.4269"/><line style="stroke:#181818;stroke-width:1;" x1="1013.2175" x2="1027.3825" y1="223.2294" y2="215.7894"/></g><!--link C_0004133948817376201184 to C_0001560354530899298516--><a href="" target="_top" title="" xlink:actuate="onRequest" xlink:href="" xlink:show="new" xlink:title="" xlink:type="simple"><path codeLine="161" d="M1045.79,212.3469 C1067.83,221.7569 1094.68,231.5369 1120,236.2969 C1175.66,246.7569 3102.37,243.4069 3159,244.2969 C3260.14,245.8869 3978.4,224.3169 4069,269.2969 C4087.3,278.3769 4098.285,291.8988 4107.305,307.0788 " fill="transparent" id="C_0004133948817376201184-to-C_0001560354530899298516" style="stroke:#181818;stroke-width:1;stroke-dasharray:7.0,7.0;"/><polygon fill="#181818" points="4110.37,312.2369,4109.2113,302.4564,4107.8159,307.9385,4102.3338,306.543,4110.37,312.2369" style="stroke:#181818;stroke-width:1;"/></a><!--link C_0004133948817376201184 to C_0014438071014349296623--><a href="" target="_top" title="" xlink:actuate="onRequest" xlink:href="" xlink:show="new" xlink:title="" xlink:type="simple"><path codeLine="162" d="M1045.79,212.3369 C1067.84,221.7369 1094.68,231.5169 1120,236.2969 C1161,244.0369 2580.28,243.7169 2622,244.2969 C2745.8,246.0169 3617.91,232.0969 3736,269.2969 C3763.58,277.9869 3785.9628,293.1116 3804.7828,308.4816 " fill="transparent" id="C_0004133948817376201184-to-C_0014438071014349296623" style="stroke:#181818;stroke-width:1;stroke-dasharray:7.0,7.0;"/><polygon fill="#181818" points="3809.43,312.2769,3804.9894,303.4859,3805.5574,309.1142,3799.9291,309.6821,3809.43,312.2769" style="stroke:#181818;stroke-width:1;"/></a><!--link C_0004133948817376201184 to C_0004818591307195361075--><a href="" target="_top" title="" xlink:actuate="onRequest" xlink:href="" xlink:show="new" xlink:title="" xlink:type="simple"><path codeLine="163" d="M1039.07,212.3469 C1058.43,220.2969 1081.62,229.0169 1103,236.2969 C1151.72,252.8969 1165.77,251.3269 1214,269.2969 C1247.88,281.9269 1279.5117,296.3224 1310.0717,309.8224 " fill="transparent" id="C_0004133948817376201184-to-C_0004818591307195361075" style="stroke:#181818;stroke-width:1;stroke-dasharray:7.0,7.0;"/><polygon fill="#181818" points="1315.56,312.2469,1308.9438,304.9512,1310.9864,310.2265,1305.7112,312.269,1315.56,312.2469" style="stroke:#181818;stroke-width:1;"/></a><!--link C_0004818591307195361075 to C_0004133948817376201184--><g id="link_C_0004818591307195361075_C_0004133948817376201184"><path codeLine="166" d="M1345.98,312.2469 C1320,298.7469 1282.88,281.9269 1249,269.2969 C1200.77,251.3269 1186.72,252.8969 1138,236.2969 C1116.62,229.0169 1108.4302,225.8642 1087.0102,217.9142 " fill="transparent" id="C_0004818591307195361075-to-C_0004133948817376201184" style="stroke:#181818;stroke-width:1;"/><ellipse cx="1079.5101" cy="215.1305" fill="#FFFFFF" rx="8" ry="8" style="stroke:#181818;stroke-width:1;"/><line style="stroke:#181818;stroke-width:1;" x1="1087.0102" x2="1072.01" y1="217.9142" y2="212.3469"/><line style="stroke:#181818;stroke-width:1;" x1="1076.7264" x2="1082.2937" y1="222.6306" y2="207.6304"/></g><!--link C_0004133948817376201184 to C_0003617341143175913478--><a href="" target="_top" title="" xlink:actuate="onRequest" xlink:href="" xlink:show="new" xlink:title="" xlink:type="simple"><path codeLine="164" d="M1046.1,212.3669 C1068.09,221.7269 1094.81,231.4469 1120,236.2969 C1154.86,243.0069 1723.5,243.8169 1759,244.2969 C1954,246.9069 3326.33,216.2769 3514,269.2969 C3544.21,277.8269 3569.7072,293.2521 3591.0272,308.6621 " fill="transparent" id="C_0004133948817376201184-to-C_0003617341143175913478" style="stroke:#181818;stroke-width:1;stroke-dasharray:7.0,7.0;"/><polygon fill="#181818" points="3595.89,312.1769,3590.9391,303.6629,3591.8377,309.2479,3586.2527,310.1465,3595.89,312.1769" style="stroke:#181818;stroke-width:1;"/></a><!--link C_0014641466677610233161 to C_0017737036712140491157--><a href="" target="_top" title="" xlink:actuate="onRequest" xlink:href="" xlink:show="new" xlink:title="" xlink:type="simple"><path codeLine="167" d="M2119,360.4169 C2119,378.9069 2119,398.7269 2119,417.2169 " fill="transparent" id="C_0014641466677610233161-to-C_0017737036712140491157" style="stroke:#181818;stroke-width:1;stroke-dasharray:7.0,7.0;"/><polygon fill="#181818" points="2119,423.2169,2123,414.2169,2119,418.2169,2115,414.2169,2119,423.2169" style="stroke:#181818;stroke-width:1;"/></a><!--reverse link C_0014123125489500529321 to C_0014641466677610233161--><g id="link_C_0014123125489500529321_C_0014641466677610233161"><path codeLine="168" d="M2506.8786,425.5635 C2416.7786,405.0635 2282.62,374.5269 2192.53,354.0269 " fill="transparent" id="C_0014123125489500529321-backto-C_0014641466677610233161" style="stroke:#181818;stroke-width:1;"/><polygon fill="transparent" points="2524.43,429.5569,2508.2097,419.713,2505.5474,431.414,2524.43,429.5569" style="stroke:#181818;stroke-width:1;"/></g><!--SRC=[hLXjRzis4FwUNo7qIxTryNXyfn44sD9W6v2YnPgr0ueYK6F65IfBWIqdwTh-zvtaMAAieosWGpuuyF7k8O_7vvvpbLMvJzRPBxTvMjsKoyNLVLRCollaEazNgsIMfVDbkZYwJQy_fNEVl5jdxvDqbPnTCGPCCN1AICqq01YcdKg-T4i_f2lVBHQucZCbdH6AQ-1IruitA4zUtXT-zhO1_hMu_bWkdspzcD1WX0IG0eno8AInZrunS_BktPT1m6_ltoFSrTNHjotcndgPvNvsFflxLGi9KWhB3E0_GZhkjEOYWAJCDUHkl27YMVtnQbdU-cNr-UJoD3YaqenB2mRJYRaqIfZU8OVc6h4NRmYtjVoH5hFSBuFp0HV0bRHECQQu4nnwvnkQQxITS0VnfjCtQRxstI4vuquAmQt3csBASQd2Gn9c0lOnwe7adgMhoYzxARPIScQD4qg0PimOu24wOHwaU1Dr97JoKmUEPSamikEOMOVF1X0Wp3XX_Yxm-kLDfvVPmZ_tUPK6MN088hanrbW7pkYTEo3CtxMHcxnCgm0Udmnd0Z-KOS99AmGBuGdpQFYsJdn-6nOxCnpfoN25RnRhou7LOUe9Sw_gccW1shUEttOOiwKw9h6Sm5fW-6hnNerb0TMzUlJQqCMVHLOzOcK11J73fCMQ59gvXYsvxLKhOMvslISsGO3byjCAJ-FF7ofVhBAom6hnyxGAtYmJmZ4Z9M11Q2arWeNx8CmD5KOZ3tVn3y0UV2MLDWxJYSmWiIw42s-FCjVuL4oYOXwpTRPUheAE0yO8B3-D302IIGUWUe-LC8UvtqGBqDfwyTijhRfI0Nph0hC6cXimMcCskr89Zn6y8UQmLgN6Te2i8P2eUxs2CE-cX2Y5z7EE_4gW6I50EOs482NMdBQwzs89SrC0E_6YY9VbRUxlV4uWwoQvWdDdGLdjZEmz0S8S80_YZYd_hWIqj1oFfB0DuUFIDHs59K2OwR8Vehx-ZFIrU57EKkBCKDSpzZuiOn0Aa4DOc6tANEDICMdAkbzqWapXpl48MCY0L8l4ftXNUcyNpv4vTfK3mzCggNNzdrFEOTf5h_Q6vYOlOR1XIbw-Fd-u_fWMS_yyhTBW7M9NP0epBOpJIcl5UyaWp8towqKZhXqtayu7ceZZTQAmKrgYqBBIz1iZPTwUh0rs06iwlIYlqugcEOqNWGnc5Luk2ap9UYANC0_GX-6f_Rmex_nVVfNzwuSPSDOAJAIfjHWoEjl9mD2ysSCWP0pteYGg2WdAuaGWiPc1HYfLibTHXBb33GBsoftijCEaIn2ro42Y5AXqa8gj3A49yx377kuk_NNJwM_bkfYjpfeA3HwMgZLNSs37H2t0NUzX3StnlVGnnk_iTTLF3sgOUgB2KQSPEvZfIKN2l6zBJV13Umb658tjN6jj34RcehxyteWoD0_1QGgStpm4GwchMouIeH0MHpahkUquyFpE5rLuHHe7CTGOpBfwhGBTlwA1kTvI4uGGottDWJAEWSLsXfB2O6j1TkiH065kXF6krgZ_eZFSP7AwTvp4E77dayaaBfYdoREJavjbvelPwUbHT9exFduM7q2ZWz1aylKqFi95nvOHRjIuSTYDpC0sjx7XkStjFkT35qFA_lBuUAyMlz-AagjMVrxD0jR2kzktP0HmH8G_0CGXQUDHLC6sAOg0jIdQvnoZZIw_X9eTxKm9qh7EfA9ipnovsL7E1v4fJJdwp9JWQvqZ0gr5fZJL_-8SeyjnpX6nrPwPihVCHid8g9fe8IFjlOKyu4msdb7EiTyono579C0uvyWFjrrf4JdPffcKRj4j7VGYoxohH7hUtzyjlpwI8obaZfx-xWk_HCAR9VTPzR7-hRsO7wyN-S_9dL_Mb9YmYPx0qTEBYpSlsk_-_h0kglLcTVibk0bC8Fa1reqLVlmF]--></g></svg>