<?xml version="1.0" encoding="UTF-8" standalone="no"?><svg xmlns="http://www.w3.org/2000/svg" xmlns:xlink="http://www.w3.org/1999/xlink" contentScriptType="application/ecmascript" contentStyleType="text/css" height="1312px" preserveAspectRatio="none" style="width:400px;height:1312px;" version="1.1" viewBox="0 0 400 1312" width="400px" zoomAndPan="magnify"><defs><filter height="300%" id="f1tougul87pe9k" width="300%" x="-1" y="-1"><feGaussianBlur result="blurOut" stdDeviation="2.0"/><feColorMatrix in="blurOut" result="blurOut2" type="matrix" values="0 0 0 0 0 0 0 0 0 0 0 0 0 0 0 0 0 0 .4 0"/><feOffset dx="4.0" dy="4.0" in="blurOut2" result="blurOut3"/><feBlend in="SourceGraphic" in2="blurOut3" mode="normal"/></filter></defs><g><!--MD5=[4c12a51903926c4184eed03e07bdd7c6]
class C_0001585653041236922459--><a href="https://github.com/foonathan/cppast/blob/f00df6675d87c6983033d270728c57a55cd3db22/include/cppast/cpp_type.hpp#L44" target="_top" title="cpp_type" xlink:actuate="onRequest" xlink:href="https://github.com/foonathan/cppast/blob/f00df6675d87c6983033d270728c57a55cd3db22/include/cppast/cpp_type.hpp#L44" xlink:show="new" xlink:title="cpp_type" xlink:type="simple"><rect fill="#FEFECE" filter="url(#f1tougul87pe9k)" height="48" id="C_0001585653041236922459" style="stroke: #A80036; stroke-width: 1.5;" width="88" x="6" y="631"/><ellipse cx="21" cy="647" fill="#ADD1B2" rx="11" ry="11" style="stroke: #A80036; stroke-width: 1.0;"/><path d="M23.9688,652.6406 Q23.3906,652.9375 22.75,653.0781 Q22.1094,653.2344 21.4063,653.2344 Q18.9063,653.2344 17.5781,651.5938 Q16.2656,649.9375 16.2656,646.8125 Q16.2656,643.6875 17.5781,642.0313 Q18.9063,640.375 21.4063,640.375 Q22.1094,640.375 22.75,640.5313 Q23.4063,640.6875 23.9688,640.9844 L23.9688,643.7031 Q23.3438,643.125 22.75,642.8594 Q22.1563,642.5781 21.5313,642.5781 Q20.1875,642.5781 19.5,643.6563 Q18.8125,644.7188 18.8125,646.8125 Q18.8125,648.9063 19.5,649.9844 Q20.1875,651.0469 21.5313,651.0469 Q22.1563,651.0469 22.75,650.7813 Q23.3438,650.5 23.9688,649.9219 L23.9688,652.6406 Z "/><text fill="#000000" font-family="sans-serif" font-size="12" lengthAdjust="spacingAndGlyphs" textLength="56" x="35" y="651.1543">cpp_type</text><line style="stroke: #A80036; stroke-width: 1.5;" x1="7" x2="93" y1="663" y2="663"/><line style="stroke: #A80036; stroke-width: 1.5;" x1="7" x2="93" y1="671" y2="671"/></a><!--MD5=[82b0838a3236b96b7f948dc3458b0935]
class C_0000601730303705395408--><a href="https://github.com/foonathan/cppast/blob/f00df6675d87c6983033d270728c57a55cd3db22/include/cppast/cpp_type.hpp#L95" target="_top" title="cpp_unexposed_type" xlink:actuate="onRequest" xlink:href="https://github.com/foonathan/cppast/blob/f00df6675d87c6983033d270728c57a55cd3db22/include/cppast/cpp_type.hpp#L95" xlink:show="new" xlink:title="cpp_unexposed_type" xlink:type="simple"><rect fill="#FEFECE" filter="url(#f1tougul87pe9k)" height="48" id="C_0000601730303705395408" style="stroke: #A80036; stroke-width: 1.5;" width="163" x="190" y="8"/><ellipse cx="205" cy="24" fill="#ADD1B2" rx="11" ry="11" style="stroke: #A80036; stroke-width: 1.0;"/><path d="M207.9688,29.6406 Q207.3906,29.9375 206.75,30.0781 Q206.1094,30.2344 205.4063,30.2344 Q202.9063,30.2344 201.5781,28.5938 Q200.2656,26.9375 200.2656,23.8125 Q200.2656,20.6875 201.5781,19.0313 Q202.9063,17.375 205.4063,17.375 Q206.1094,17.375 206.75,17.5313 Q207.4063,17.6875 207.9688,17.9844 L207.9688,20.7031 Q207.3438,20.125 206.75,19.8594 Q206.1563,19.5781 205.5313,19.5781 Q204.1875,19.5781 203.5,20.6563 Q202.8125,21.7188 202.8125,23.8125 Q202.8125,25.9063 203.5,26.9844 Q204.1875,28.0469 205.5313,28.0469 Q206.1563,28.0469 206.75,27.7813 Q207.3438,27.5 207.9688,26.9219 L207.9688,29.6406 Z "/><text fill="#000000" font-family="sans-serif" font-size="12" lengthAdjust="spacingAndGlyphs" textLength="131" x="219" y="28.1543">cpp_unexposed_type</text><line style="stroke: #A80036; stroke-width: 1.5;" x1="191" x2="352" y1="40" y2="40"/><line style="stroke: #A80036; stroke-width: 1.5;" x1="191" x2="352" y1="48" y2="48"/></a><!--MD5=[c09bf787f24beebf3072924c9a534b6b]
class C_0002035785082080260407--><a href="https://github.com/foonathan/cppast/blob/f00df6675d87c6983033d270728c57a55cd3db22/include/cppast/cpp_type.hpp#L161" target="_top" title="cpp_builtin_type" xlink:actuate="onRequest" xlink:href="https://github.com/foonathan/cppast/blob/f00df6675d87c6983033d270728c57a55cd3db22/include/cppast/cpp_type.hpp#L161" xlink:show="new" xlink:title="cpp_builtin_type" xlink:type="simple"><rect fill="#FEFECE" filter="url(#f1tougul87pe9k)" height="48" id="C_0002035785082080260407" style="stroke: #A80036; stroke-width: 1.5;" width="132" x="205.5" y="91"/><ellipse cx="220.5" cy="107" fill="#ADD1B2" rx="11" ry="11" style="stroke: #A80036; stroke-width: 1.0;"/><path d="M223.4688,112.6406 Q222.8906,112.9375 222.25,113.0781 Q221.6094,113.2344 220.9063,113.2344 Q218.4063,113.2344 217.0781,111.5938 Q215.7656,109.9375 215.7656,106.8125 Q215.7656,103.6875 217.0781,102.0313 Q218.4063,100.375 220.9063,100.375 Q221.6094,100.375 222.25,100.5313 Q222.9063,100.6875 223.4688,100.9844 L223.4688,103.7031 Q222.8438,103.125 222.25,102.8594 Q221.6563,102.5781 221.0313,102.5781 Q219.6875,102.5781 219,103.6563 Q218.3125,104.7188 218.3125,106.8125 Q218.3125,108.9063 219,109.9844 Q219.6875,111.0469 221.0313,111.0469 Q221.6563,111.0469 222.25,110.7813 Q222.8438,110.5 223.4688,109.9219 L223.4688,112.6406 Z "/><text fill="#000000" font-family="sans-serif" font-size="12" lengthAdjust="spacingAndGlyphs" textLength="100" x="234.5" y="111.1543">cpp_builtin_type</text><line style="stroke: #A80036; stroke-width: 1.5;" x1="206.5" x2="336.5" y1="123" y2="123"/><line style="stroke: #A80036; stroke-width: 1.5;" x1="206.5" x2="336.5" y1="131" y2="131"/></a><!--MD5=[ee8712500b86f8ca8438663d14d7bccd]
class C_0002166954434825938188--><a href="https://github.com/foonathan/cppast/blob/f00df6675d87c6983033d270728c57a55cd3db22/include/cppast/cpp_type.hpp#L202" target="_top" title="cpp_user_defined_type" xlink:actuate="onRequest" xlink:href="https://github.com/foonathan/cppast/blob/f00df6675d87c6983033d270728c57a55cd3db22/include/cppast/cpp_type.hpp#L202" xlink:show="new" xlink:title="cpp_user_defined_type" xlink:type="simple"><rect fill="#FEFECE" filter="url(#f1tougul87pe9k)" height="48" id="C_0002166954434825938188" style="stroke: #A80036; stroke-width: 1.5;" width="175" x="184" y="174"/><ellipse cx="199" cy="190" fill="#ADD1B2" rx="11" ry="11" style="stroke: #A80036; stroke-width: 1.0;"/><path d="M201.9688,195.6406 Q201.3906,195.9375 200.75,196.0781 Q200.1094,196.2344 199.4063,196.2344 Q196.9063,196.2344 195.5781,194.5938 Q194.2656,192.9375 194.2656,189.8125 Q194.2656,186.6875 195.5781,185.0313 Q196.9063,183.375 199.4063,183.375 Q200.1094,183.375 200.75,183.5313 Q201.4063,183.6875 201.9688,183.9844 L201.9688,186.7031 Q201.3438,186.125 200.75,185.8594 Q200.1563,185.5781 199.5313,185.5781 Q198.1875,185.5781 197.5,186.6563 Q196.8125,187.7188 196.8125,189.8125 Q196.8125,191.9063 197.5,192.9844 Q198.1875,194.0469 199.5313,194.0469 Q200.1563,194.0469 200.75,193.7813 Q201.3438,193.5 201.9688,192.9219 L201.9688,195.6406 Z "/><text fill="#000000" font-family="sans-serif" font-size="12" lengthAdjust="spacingAndGlyphs" textLength="143" x="213" y="194.1543">cpp_user_defined_type</text><line style="stroke: #A80036; stroke-width: 1.5;" x1="185" x2="358" y1="206" y2="206"/><line style="stroke: #A80036; stroke-width: 1.5;" x1="185" x2="358" y1="214" y2="214"/></a><!--MD5=[fbe4d91723a2079c4dc1e323ea158a67]
class C_0001809003368459807767--><a href="https://github.com/foonathan/cppast/blob/f00df6675d87c6983033d270728c57a55cd3db22/include/cppast/cpp_type.hpp#L230" target="_top" title="cpp_auto_type" xlink:actuate="onRequest" xlink:href="https://github.com/foonathan/cppast/blob/f00df6675d87c6983033d270728c57a55cd3db22/include/cppast/cpp_type.hpp#L230" xlink:show="new" xlink:title="cpp_auto_type" xlink:type="simple"><rect fill="#FEFECE" filter="url(#f1tougul87pe9k)" height="48" id="C_0001809003368459807767" style="stroke: #A80036; stroke-width: 1.5;" width="123" x="210" y="257"/><ellipse cx="225" cy="273" fill="#ADD1B2" rx="11" ry="11" style="stroke: #A80036; stroke-width: 1.0;"/><path d="M227.9688,278.6406 Q227.3906,278.9375 226.75,279.0781 Q226.1094,279.2344 225.4063,279.2344 Q222.9063,279.2344 221.5781,277.5938 Q220.2656,275.9375 220.2656,272.8125 Q220.2656,269.6875 221.5781,268.0313 Q222.9063,266.375 225.4063,266.375 Q226.1094,266.375 226.75,266.5313 Q227.4063,266.6875 227.9688,266.9844 L227.9688,269.7031 Q227.3438,269.125 226.75,268.8594 Q226.1563,268.5781 225.5313,268.5781 Q224.1875,268.5781 223.5,269.6563 Q222.8125,270.7188 222.8125,272.8125 Q222.8125,274.9063 223.5,275.9844 Q224.1875,277.0469 225.5313,277.0469 Q226.1563,277.0469 226.75,276.7813 Q227.3438,276.5 227.9688,275.9219 L227.9688,278.6406 Z "/><text fill="#000000" font-family="sans-serif" font-size="12" lengthAdjust="spacingAndGlyphs" textLength="91" x="239" y="277.1543">cpp_auto_type</text><line style="stroke: #A80036; stroke-width: 1.5;" x1="211" x2="332" y1="289" y2="289"/><line style="stroke: #A80036; stroke-width: 1.5;" x1="211" x2="332" y1="297" y2="297"/></a><!--MD5=[56b8da8b7bb18d514c35c9af45c1e9d7]
class C_0000507998479194737071--><a href="https://github.com/foonathan/cppast/blob/f00df6675d87c6983033d270728c57a55cd3db22/include/cppast/cpp_type.hpp#L249" target="_top" title="cpp_dependent_type" xlink:actuate="onRequest" xlink:href="https://github.com/foonathan/cppast/blob/f00df6675d87c6983033d270728c57a55cd3db22/include/cppast/cpp_type.hpp#L249" xlink:show="new" xlink:title="cpp_dependent_type" xlink:type="simple"><rect fill="#FEFECE" filter="url(#f1tougul87pe9k)" height="48" id="C_0000507998479194737071" style="stroke: #A80036; stroke-width: 1.5;" width="163" x="190" y="340"/><ellipse cx="205" cy="356" fill="#ADD1B2" rx="11" ry="11" style="stroke: #A80036; stroke-width: 1.0;"/><path d="M207.9688,361.6406 Q207.3906,361.9375 206.75,362.0781 Q206.1094,362.2344 205.4063,362.2344 Q202.9063,362.2344 201.5781,360.5938 Q200.2656,358.9375 200.2656,355.8125 Q200.2656,352.6875 201.5781,351.0313 Q202.9063,349.375 205.4063,349.375 Q206.1094,349.375 206.75,349.5313 Q207.4063,349.6875 207.9688,349.9844 L207.9688,352.7031 Q207.3438,352.125 206.75,351.8594 Q206.1563,351.5781 205.5313,351.5781 Q204.1875,351.5781 203.5,352.6563 Q202.8125,353.7188 202.8125,355.8125 Q202.8125,357.9063 203.5,358.9844 Q204.1875,360.0469 205.5313,360.0469 Q206.1563,360.0469 206.75,359.7813 Q207.3438,359.5 207.9688,358.9219 L207.9688,361.6406 Z "/><text fill="#000000" font-family="sans-serif" font-size="12" lengthAdjust="spacingAndGlyphs" textLength="131" x="219" y="360.1543">cpp_dependent_type</text><line style="stroke: #A80036; stroke-width: 1.5;" x1="191" x2="352" y1="372" y2="372"/><line style="stroke: #A80036; stroke-width: 1.5;" x1="191" x2="352" y1="380" y2="380"/></a><!--MD5=[490e8eada6517dc89cb1c388ece35bcf]
class C_0000342846994454958214--><a href="https://github.com/foonathan/cppast/blob/f00df6675d87c6983033d270728c57a55cd3db22/include/cppast/cpp_type.hpp#L311" target="_top" title="cpp_cv_qualified_type" xlink:actuate="onRequest" xlink:href="https://github.com/foonathan/cppast/blob/f00df6675d87c6983033d270728c57a55cd3db22/include/cppast/cpp_type.hpp#L311" xlink:show="new" xlink:title="cpp_cv_qualified_type" xlink:type="simple"><rect fill="#FEFECE" filter="url(#f1tougul87pe9k)" height="48" id="C_0000342846994454958214" style="stroke: #A80036; stroke-width: 1.5;" width="166" x="188.5" y="423"/><ellipse cx="203.5" cy="439" fill="#ADD1B2" rx="11" ry="11" style="stroke: #A80036; stroke-width: 1.0;"/><path d="M206.4688,444.6406 Q205.8906,444.9375 205.25,445.0781 Q204.6094,445.2344 203.9063,445.2344 Q201.4063,445.2344 200.0781,443.5938 Q198.7656,441.9375 198.7656,438.8125 Q198.7656,435.6875 200.0781,434.0313 Q201.4063,432.375 203.9063,432.375 Q204.6094,432.375 205.25,432.5313 Q205.9063,432.6875 206.4688,432.9844 L206.4688,435.7031 Q205.8438,435.125 205.25,434.8594 Q204.6563,434.5781 204.0313,434.5781 Q202.6875,434.5781 202,435.6563 Q201.3125,436.7188 201.3125,438.8125 Q201.3125,440.9063 202,441.9844 Q202.6875,443.0469 204.0313,443.0469 Q204.6563,443.0469 205.25,442.7813 Q205.8438,442.5 206.4688,441.9219 L206.4688,444.6406 Z "/><text fill="#000000" font-family="sans-serif" font-size="12" lengthAdjust="spacingAndGlyphs" textLength="134" x="217.5" y="443.1543">cpp_cv_qualified_type</text><line style="stroke: #A80036; stroke-width: 1.5;" x1="189.5" x2="353.5" y1="455" y2="455"/><line style="stroke: #A80036; stroke-width: 1.5;" x1="189.5" x2="353.5" y1="463" y2="463"/></a><!--MD5=[1faf603e281fc68731c9eee739036f90]
class C_0000861535705589766807--><a href="https://github.com/foonathan/cppast/blob/f00df6675d87c6983033d270728c57a55cd3db22/include/cppast/cpp_type.hpp#L359" target="_top" title="cpp_pointer_type" xlink:actuate="onRequest" xlink:href="https://github.com/foonathan/cppast/blob/f00df6675d87c6983033d270728c57a55cd3db22/include/cppast/cpp_type.hpp#L359" xlink:show="new" xlink:title="cpp_pointer_type" xlink:type="simple"><rect fill="#FEFECE" filter="url(#f1tougul87pe9k)" height="48" id="C_0000861535705589766807" style="stroke: #A80036; stroke-width: 1.5;" width="139" x="202" y="506"/><ellipse cx="217" cy="522" fill="#ADD1B2" rx="11" ry="11" style="stroke: #A80036; stroke-width: 1.0;"/><path d="M219.9688,527.6406 Q219.3906,527.9375 218.75,528.0781 Q218.1094,528.2344 217.4063,528.2344 Q214.9063,528.2344 213.5781,526.5938 Q212.2656,524.9375 212.2656,521.8125 Q212.2656,518.6875 213.5781,517.0313 Q214.9063,515.375 217.4063,515.375 Q218.1094,515.375 218.75,515.5313 Q219.4063,515.6875 219.9688,515.9844 L219.9688,518.7031 Q219.3438,518.125 218.75,517.8594 Q218.1563,517.5781 217.5313,517.5781 Q216.1875,517.5781 215.5,518.6563 Q214.8125,519.7188 214.8125,521.8125 Q214.8125,523.9063 215.5,524.9844 Q216.1875,526.0469 217.5313,526.0469 Q218.1563,526.0469 218.75,525.7813 Q219.3438,525.5 219.9688,524.9219 L219.9688,527.6406 Z "/><text fill="#000000" font-family="sans-serif" font-size="12" lengthAdjust="spacingAndGlyphs" textLength="107" x="231" y="526.1543">cpp_pointer_type</text><line style="stroke: #A80036; stroke-width: 1.5;" x1="203" x2="340" y1="538" y2="538"/><line style="stroke: #A80036; stroke-width: 1.5;" x1="203" x2="340" y1="546" y2="546"/></a><!--MD5=[0dee96e1b8e5b58df9dff51c24d47c43]
class C_0000600573949475383075--><a href="https://github.com/foonathan/cppast/blob/f00df6675d87c6983033d270728c57a55cd3db22/include/cppast/cpp_type.hpp#L394" target="_top" title="cpp_reference_type" xlink:actuate="onRequest" xlink:href="https://github.com/foonathan/cppast/blob/f00df6675d87c6983033d270728c57a55cd3db22/include/cppast/cpp_type.hpp#L394" xlink:show="new" xlink:title="cpp_reference_type" xlink:type="simple"><rect fill="#FEFECE" filter="url(#f1tougul87pe9k)" height="48" id="C_0000600573949475383075" style="stroke: #A80036; stroke-width: 1.5;" width="155" x="194" y="589"/><ellipse cx="209" cy="605" fill="#ADD1B2" rx="11" ry="11" style="stroke: #A80036; stroke-width: 1.0;"/><path d="M211.9688,610.6406 Q211.3906,610.9375 210.75,611.0781 Q210.1094,611.2344 209.4063,611.2344 Q206.9063,611.2344 205.5781,609.5938 Q204.2656,607.9375 204.2656,604.8125 Q204.2656,601.6875 205.5781,600.0313 Q206.9063,598.375 209.4063,598.375 Q210.1094,598.375 210.75,598.5313 Q211.4063,598.6875 211.9688,598.9844 L211.9688,601.7031 Q211.3438,601.125 210.75,600.8594 Q210.1563,600.5781 209.5313,600.5781 Q208.1875,600.5781 207.5,601.6563 Q206.8125,602.7188 206.8125,604.8125 Q206.8125,606.9063 207.5,607.9844 Q208.1875,609.0469 209.5313,609.0469 Q210.1563,609.0469 210.75,608.7813 Q211.3438,608.5 211.9688,607.9219 L211.9688,610.6406 Z "/><text fill="#000000" font-family="sans-serif" font-size="12" lengthAdjust="spacingAndGlyphs" textLength="123" x="223" y="609.1543">cpp_reference_type</text><line style="stroke: #A80036; stroke-width: 1.5;" x1="195" x2="348" y1="621" y2="621"/><line style="stroke: #A80036; stroke-width: 1.5;" x1="195" x2="348" y1="629" y2="629"/></a><!--MD5=[9a4780fff7da2a5e9248a50ad89b0fdc]
class C_0002158322113857881673--><a href="https://github.com/foonathan/cppast/blob/f00df6675d87c6983033d270728c57a55cd3db22/include/cppast/cpp_template_parameter.hpp#L106" target="_top" title="cpp_template_parameter_type" xlink:actuate="onRequest" xlink:href="https://github.com/foonathan/cppast/blob/f00df6675d87c6983033d270728c57a55cd3db22/include/cppast/cpp_template_parameter.hpp#L106" xlink:show="new" xlink:title="cpp_template_parameter_type" xlink:type="simple"><rect fill="#FEFECE" filter="url(#f1tougul87pe9k)" height="48" id="C_0002158322113857881673" style="stroke: #A80036; stroke-width: 1.5;" width="222" x="160.5" y="672"/><ellipse cx="175.5" cy="688" fill="#ADD1B2" rx="11" ry="11" style="stroke: #A80036; stroke-width: 1.0;"/><path d="M178.4688,693.6406 Q177.8906,693.9375 177.25,694.0781 Q176.6094,694.2344 175.9063,694.2344 Q173.4063,694.2344 172.0781,692.5938 Q170.7656,690.9375 170.7656,687.8125 Q170.7656,684.6875 172.0781,683.0313 Q173.4063,681.375 175.9063,681.375 Q176.6094,681.375 177.25,681.5313 Q177.9063,681.6875 178.4688,681.9844 L178.4688,684.7031 Q177.8438,684.125 177.25,683.8594 Q176.6563,683.5781 176.0313,683.5781 Q174.6875,683.5781 174,684.6563 Q173.3125,685.7188 173.3125,687.8125 Q173.3125,689.9063 174,690.9844 Q174.6875,692.0469 176.0313,692.0469 Q176.6563,692.0469 177.25,691.7813 Q177.8438,691.5 178.4688,690.9219 L178.4688,693.6406 Z "/><text fill="#000000" font-family="sans-serif" font-size="12" lengthAdjust="spacingAndGlyphs" textLength="190" x="189.5" y="692.1543">cpp_template_parameter_type</text><line style="stroke: #A80036; stroke-width: 1.5;" x1="161.5" x2="381.5" y1="704" y2="704"/><line style="stroke: #A80036; stroke-width: 1.5;" x1="161.5" x2="381.5" y1="712" y2="712"/></a><!--MD5=[dff4e56684c07f855648fc3236fc910f]
class C_0000026248340214462662--><a href="https://github.com/foonathan/cppast/blob/f00df6675d87c6983033d270728c57a55cd3db22/include/cppast/cppast_fwd.hpp#L27" target="_top" title="cpp_decltype_auto_type" xlink:actuate="onRequest" xlink:href="https://github.com/foonathan/cppast/blob/f00df6675d87c6983033d270728c57a55cd3db22/include/cppast/cppast_fwd.hpp#L27" xlink:show="new" xlink:title="cpp_decltype_auto_type" xlink:type="simple"><rect fill="#FEFECE" filter="url(#f1tougul87pe9k)" height="48" id="C_0000026248340214462662" style="stroke: #A80036; stroke-width: 1.5;" width="182" x="180.5" y="755"/><ellipse cx="195.5" cy="771" fill="#ADD1B2" rx="11" ry="11" style="stroke: #A80036; stroke-width: 1.0;"/><path d="M198.4688,776.6406 Q197.8906,776.9375 197.25,777.0781 Q196.6094,777.2344 195.9063,777.2344 Q193.4063,777.2344 192.0781,775.5938 Q190.7656,773.9375 190.7656,770.8125 Q190.7656,767.6875 192.0781,766.0313 Q193.4063,764.375 195.9063,764.375 Q196.6094,764.375 197.25,764.5313 Q197.9063,764.6875 198.4688,764.9844 L198.4688,767.7031 Q197.8438,767.125 197.25,766.8594 Q196.6563,766.5781 196.0313,766.5781 Q194.6875,766.5781 194,767.6563 Q193.3125,768.7188 193.3125,770.8125 Q193.3125,772.9063 194,773.9844 Q194.6875,775.0469 196.0313,775.0469 Q196.6563,775.0469 197.25,774.7813 Q197.8438,774.5 198.4688,773.9219 L198.4688,776.6406 Z "/><text fill="#000000" font-family="sans-serif" font-size="12" lengthAdjust="spacingAndGlyphs" textLength="150" x="209.5" y="775.1543">cpp_decltype_auto_type</text><line style="stroke: #A80036; stroke-width: 1.5;" x1="181.5" x2="361.5" y1="787" y2="787"/><line style="stroke: #A80036; stroke-width: 1.5;" x1="181.5" x2="361.5" y1="795" y2="795"/></a><!--MD5=[e0f3ab009905de610d265d3e58fc7fe2]
class C_0000603633382993980808--><a href="https://github.com/foonathan/cppast/blob/f00df6675d87c6983033d270728c57a55cd3db22/include/cppast/cppast_fwd.hpp#L53" target="_top" title="cpp_member_object_type" xlink:actuate="onRequest" xlink:href="https://github.com/foonathan/cppast/blob/f00df6675d87c6983033d270728c57a55cd3db22/include/cppast/cppast_fwd.hpp#L53" xlink:show="new" xlink:title="cpp_member_object_type" xlink:type="simple"><rect fill="#FEFECE" filter="url(#f1tougul87pe9k)" height="48" id="C_0000603633382993980808" style="stroke: #A80036; stroke-width: 1.5;" width="190" x="176.5" y="838"/><ellipse cx="191.5" cy="854" fill="#ADD1B2" rx="11" ry="11" style="stroke: #A80036; stroke-width: 1.0;"/><path d="M194.4688,859.6406 Q193.8906,859.9375 193.25,860.0781 Q192.6094,860.2344 191.9063,860.2344 Q189.4063,860.2344 188.0781,858.5938 Q186.7656,856.9375 186.7656,853.8125 Q186.7656,850.6875 188.0781,849.0313 Q189.4063,847.375 191.9063,847.375 Q192.6094,847.375 193.25,847.5313 Q193.9063,847.6875 194.4688,847.9844 L194.4688,850.7031 Q193.8438,850.125 193.25,849.8594 Q192.6563,849.5781 192.0313,849.5781 Q190.6875,849.5781 190,850.6563 Q189.3125,851.7188 189.3125,853.8125 Q189.3125,855.9063 190,856.9844 Q190.6875,858.0469 192.0313,858.0469 Q192.6563,858.0469 193.25,857.7813 Q193.8438,857.5 194.4688,856.9219 L194.4688,859.6406 Z "/><text fill="#000000" font-family="sans-serif" font-size="12" lengthAdjust="spacingAndGlyphs" textLength="158" x="205.5" y="858.1543">cpp_member_object_type</text><line style="stroke: #A80036; stroke-width: 1.5;" x1="177.5" x2="365.5" y1="870" y2="870"/><line style="stroke: #A80036; stroke-width: 1.5;" x1="177.5" x2="365.5" y1="878" y2="878"/></a><!--MD5=[3c36395395de29fca0dcea3f9c4005f8]
class C_0001009421424714355715--><a href="https://github.com/foonathan/cppast/blob/f00df6675d87c6983033d270728c57a55cd3db22/include/cppast/cppast_fwd.hpp#L63" target="_top" title="cpp_template_instantiation_type" xlink:actuate="onRequest" xlink:href="https://github.com/foonathan/cppast/blob/f00df6675d87c6983033d270728c57a55cd3db22/include/cppast/cppast_fwd.hpp#L63" xlink:show="new" xlink:title="cpp_template_instantiation_type" xlink:type="simple"><rect fill="#FEFECE" filter="url(#f1tougul87pe9k)" height="48" id="C_0001009421424714355715" style="stroke: #A80036; stroke-width: 1.5;" width="235" x="154" y="921"/><ellipse cx="169" cy="937" fill="#ADD1B2" rx="11" ry="11" style="stroke: #A80036; stroke-width: 1.0;"/><path d="M171.9688,942.6406 Q171.3906,942.9375 170.75,943.0781 Q170.1094,943.2344 169.4063,943.2344 Q166.9063,943.2344 165.5781,941.5938 Q164.2656,939.9375 164.2656,936.8125 Q164.2656,933.6875 165.5781,932.0313 Q166.9063,930.375 169.4063,930.375 Q170.1094,930.375 170.75,930.5313 Q171.4063,930.6875 171.9688,930.9844 L171.9688,933.7031 Q171.3438,933.125 170.75,932.8594 Q170.1563,932.5781 169.5313,932.5781 Q168.1875,932.5781 167.5,933.6563 Q166.8125,934.7188 166.8125,936.8125 Q166.8125,938.9063 167.5,939.9844 Q168.1875,941.0469 169.5313,941.0469 Q170.1563,941.0469 170.75,940.7813 Q171.3438,940.5 171.9688,939.9219 L171.9688,942.6406 Z "/><text fill="#000000" font-family="sans-serif" font-size="12" lengthAdjust="spacingAndGlyphs" textLength="203" x="183" y="941.1543">cpp_template_instantiation_type</text><line style="stroke: #A80036; stroke-width: 1.5;" x1="155" x2="388" y1="953" y2="953"/><line style="stroke: #A80036; stroke-width: 1.5;" x1="155" x2="388" y1="961" y2="961"/></a><!--MD5=[7f94a7ca03d3c5d47e2118c25dd7c93b]
class C_0001184982835175222056--><a href="https://github.com/foonathan/cppast/blob/f00df6675d87c6983033d270728c57a55cd3db22/include/cppast/cppast_fwd.hpp#L28" target="_top" title="cpp_decltype_type" xlink:actuate="onRequest" xlink:href="https://github.com/foonathan/cppast/blob/f00df6675d87c6983033d270728c57a55cd3db22/include/cppast/cppast_fwd.hpp#L28" xlink:show="new" xlink:title="cpp_decltype_type" xlink:type="simple"><rect fill="#FEFECE" filter="url(#f1tougul87pe9k)" height="48" id="C_0001184982835175222056" style="stroke: #A80036; stroke-width: 1.5;" width="147" x="198" y="1004"/><ellipse cx="213" cy="1020" fill="#ADD1B2" rx="11" ry="11" style="stroke: #A80036; stroke-width: 1.0;"/><path d="M215.9688,1025.6406 Q215.3906,1025.9375 214.75,1026.0781 Q214.1094,1026.2344 213.4063,1026.2344 Q210.9063,1026.2344 209.5781,1024.5938 Q208.2656,1022.9375 208.2656,1019.8125 Q208.2656,1016.6875 209.5781,1015.0313 Q210.9063,1013.375 213.4063,1013.375 Q214.1094,1013.375 214.75,1013.5313 Q215.4063,1013.6875 215.9688,1013.9844 L215.9688,1016.7031 Q215.3438,1016.125 214.75,1015.8594 Q214.1563,1015.5781 213.5313,1015.5781 Q212.1875,1015.5781 211.5,1016.6563 Q210.8125,1017.7188 210.8125,1019.8125 Q210.8125,1021.9063 211.5,1022.9844 Q212.1875,1024.0469 213.5313,1024.0469 Q214.1563,1024.0469 214.75,1023.7813 Q215.3438,1023.5 215.9688,1022.9219 L215.9688,1025.6406 Z "/><text fill="#000000" font-family="sans-serif" font-size="12" lengthAdjust="spacingAndGlyphs" textLength="115" x="227" y="1024.1543">cpp_decltype_type</text><line style="stroke: #A80036; stroke-width: 1.5;" x1="199" x2="344" y1="1036" y2="1036"/><line style="stroke: #A80036; stroke-width: 1.5;" x1="199" x2="344" y1="1044" y2="1044"/></a><!--MD5=[ba91e7eb372c2690592443eff40482c3]
class C_0001347498727659770075--><a href="https://github.com/foonathan/cppast/blob/f00df6675d87c6983033d270728c57a55cd3db22/include/cppast/cppast_fwd.hpp#L14" target="_top" title="cpp_array_type" xlink:actuate="onRequest" xlink:href="https://github.com/foonathan/cppast/blob/f00df6675d87c6983033d270728c57a55cd3db22/include/cppast/cppast_fwd.hpp#L14" xlink:show="new" xlink:title="cpp_array_type" xlink:type="simple"><rect fill="#FEFECE" filter="url(#f1tougul87pe9k)" height="48" id="C_0001347498727659770075" style="stroke: #A80036; stroke-width: 1.5;" width="126" x="208.5" y="1087"/><ellipse cx="223.5" cy="1103" fill="#ADD1B2" rx="11" ry="11" style="stroke: #A80036; stroke-width: 1.0;"/><path d="M226.4688,1108.6406 Q225.8906,1108.9375 225.25,1109.0781 Q224.6094,1109.2344 223.9063,1109.2344 Q221.4063,1109.2344 220.0781,1107.5938 Q218.7656,1105.9375 218.7656,1102.8125 Q218.7656,1099.6875 220.0781,1098.0313 Q221.4063,1096.375 223.9063,1096.375 Q224.6094,1096.375 225.25,1096.5313 Q225.9063,1096.6875 226.4688,1096.9844 L226.4688,1099.7031 Q225.8438,1099.125 225.25,1098.8594 Q224.6563,1098.5781 224.0313,1098.5781 Q222.6875,1098.5781 222,1099.6563 Q221.3125,1100.7188 221.3125,1102.8125 Q221.3125,1104.9063 222,1105.9844 Q222.6875,1107.0469 224.0313,1107.0469 Q224.6563,1107.0469 225.25,1106.7813 Q225.8438,1106.5 226.4688,1105.9219 L226.4688,1108.6406 Z "/><text fill="#000000" font-family="sans-serif" font-size="12" lengthAdjust="spacingAndGlyphs" textLength="94" x="237.5" y="1107.1543">cpp_array_type</text><line style="stroke: #A80036; stroke-width: 1.5;" x1="209.5" x2="333.5" y1="1119" y2="1119"/><line style="stroke: #A80036; stroke-width: 1.5;" x1="209.5" x2="333.5" y1="1127" y2="1127"/></a><!--MD5=[e748fe9d58eeb0f0484e1acf3ea5e239]
class C_0001455852309215570565--><a href="https://github.com/foonathan/cppast/blob/f00df6675d87c6983033d270728c57a55cd3db22/include/cppast/cppast_fwd.hpp#L44" target="_top" title="cpp_function_type" xlink:actuate="onRequest" xlink:href="https://github.com/foonathan/cppast/blob/f00df6675d87c6983033d270728c57a55cd3db22/include/cppast/cppast_fwd.hpp#L44" xlink:show="new" xlink:title="cpp_function_type" xlink:type="simple"><rect fill="#FEFECE" filter="url(#f1tougul87pe9k)" height="48" id="C_0001455852309215570565" style="stroke: #A80036; stroke-width: 1.5;" width="145" x="199" y="1170"/><ellipse cx="214" cy="1186" fill="#ADD1B2" rx="11" ry="11" style="stroke: #A80036; stroke-width: 1.0;"/><path d="M216.9688,1191.6406 Q216.3906,1191.9375 215.75,1192.0781 Q215.1094,1192.2344 214.4063,1192.2344 Q211.9063,1192.2344 210.5781,1190.5938 Q209.2656,1188.9375 209.2656,1185.8125 Q209.2656,1182.6875 210.5781,1181.0313 Q211.9063,1179.375 214.4063,1179.375 Q215.1094,1179.375 215.75,1179.5313 Q216.4063,1179.6875 216.9688,1179.9844 L216.9688,1182.7031 Q216.3438,1182.125 215.75,1181.8594 Q215.1563,1181.5781 214.5313,1181.5781 Q213.1875,1181.5781 212.5,1182.6563 Q211.8125,1183.7188 211.8125,1185.8125 Q211.8125,1187.9063 212.5,1188.9844 Q213.1875,1190.0469 214.5313,1190.0469 Q215.1563,1190.0469 215.75,1189.7813 Q216.3438,1189.5 216.9688,1188.9219 L216.9688,1191.6406 Z "/><text fill="#000000" font-family="sans-serif" font-size="12" lengthAdjust="spacingAndGlyphs" textLength="113" x="228" y="1190.1543">cpp_function_type</text><line style="stroke: #A80036; stroke-width: 1.5;" x1="200" x2="343" y1="1202" y2="1202"/><line style="stroke: #A80036; stroke-width: 1.5;" x1="200" x2="343" y1="1210" y2="1210"/></a><!--MD5=[8c468cce721aea8218f9b8bb00390d46]
class C_0001956941679276907326--><a href="https://github.com/foonathan/cppast/blob/f00df6675d87c6983033d270728c57a55cd3db22/include/cppast/cppast_fwd.hpp#L52" target="_top" title="cpp_member_function_type" xlink:actuate="onRequest" xlink:href="https://github.com/foonathan/cppast/blob/f00df6675d87c6983033d270728c57a55cd3db22/include/cppast/cppast_fwd.hpp#L52" xlink:show="new" xlink:title="cpp_member_function_type" xlink:type="simple"><rect fill="#FEFECE" filter="url(#f1tougul87pe9k)" height="48" id="C_0001956941679276907326" style="stroke: #A80036; stroke-width: 1.5;" width="202" x="170.5" y="1253"/><ellipse cx="185.5" cy="1269" fill="#ADD1B2" rx="11" ry="11" style="stroke: #A80036; stroke-width: 1.0;"/><path d="M188.4688,1274.6406 Q187.8906,1274.9375 187.25,1275.0781 Q186.6094,1275.2344 185.9063,1275.2344 Q183.4063,1275.2344 182.0781,1273.5938 Q180.7656,1271.9375 180.7656,1268.8125 Q180.7656,1265.6875 182.0781,1264.0313 Q183.4063,1262.375 185.9063,1262.375 Q186.6094,1262.375 187.25,1262.5313 Q187.9063,1262.6875 188.4688,1262.9844 L188.4688,1265.7031 Q187.8438,1265.125 187.25,1264.8594 Q186.6563,1264.5781 186.0313,1264.5781 Q184.6875,1264.5781 184,1265.6563 Q183.3125,1266.7188 183.3125,1268.8125 Q183.3125,1270.9063 184,1271.9844 Q184.6875,1273.0469 186.0313,1273.0469 Q186.6563,1273.0469 187.25,1272.7813 Q187.8438,1272.5 188.4688,1271.9219 L188.4688,1274.6406 Z "/><text fill="#000000" font-family="sans-serif" font-size="12" lengthAdjust="spacingAndGlyphs" textLength="170" x="199.5" y="1273.1543">cpp_member_function_type</text><line style="stroke: #A80036; stroke-width: 1.5;" x1="171.5" x2="371.5" y1="1285" y2="1285"/><line style="stroke: #A80036; stroke-width: 1.5;" x1="171.5" x2="371.5" y1="1293" y2="1293"/></a><!--MD5=[c63d697c0722dde2e63cc809be72ef8b]
reverse link C_0001585653041236922459 to C_0000601730303705395408--><path d="M53.17,610.79 C59.98,489.39 84.77,154.56 154,73 C163.5,61.8 176.26,53.66 189.86,47.74 " fill="none" id="C_0001585653041236922459&lt;-C_0000601730303705395408" style="stroke: #A80036; stroke-width: 1.0;"/><polygon fill="none" points="60.16,611.26,52.1,630.86,46.18,610.52,60.16,611.26" style="stroke: #A80036; stroke-width: 1.0;"/><!--MD5=[6c8cd20a5882a9e25736fa85d321f899]
reverse link C_0001585653041236922459 to C_0002035785082080260407--><path d="M54.62,610.68 C64.36,501.61 94.52,224.09 154,156 C167.19,140.9 186.28,131.36 205.21,125.34 " fill="none" id="C_0001585653041236922459&lt;-C_0002035785082080260407" style="stroke: #A80036; stroke-width: 1.0;"/><polygon fill="none" points="61.58,611.38,52.89,630.7,47.63,610.17,61.58,611.38" style="stroke: #A80036; stroke-width: 1.0;"/><!--MD5=[3310dcb1289869f4557c5a5830013aea]
reverse link C_0001585653041236922459 to C_0002166954434825938188--><path d="M56.55,611.13 C69.43,515.8 104.1,293.92 154,239 C162.29,229.88 172.73,222.78 183.95,217.27 " fill="none" id="C_0001585653041236922459&lt;-C_0002166954434825938188" style="stroke: #A80036; stroke-width: 1.0;"/><polygon fill="none" points="63.49,612.05,53.94,630.96,49.61,610.22,63.49,612.05" style="stroke: #A80036; stroke-width: 1.0;"/><!--MD5=[38e8f06f3e7c20aec88f504486c484aa]
reverse link C_0001585653041236922459 to C_0001809003368459807767--><path d="M52.5,610.44 C57.25,539.95 76.57,402.46 154,322 C168.79,306.63 189.69,297.01 209.7,291 " fill="none" id="C_0001585653041236922459&lt;-C_0001809003368459807767" style="stroke: #A80036; stroke-width: 1.0;"/><polygon fill="none" points="59.47,611.22,51.41,630.82,45.48,610.47,59.47,611.22" style="stroke: #A80036; stroke-width: 1.0;"/><!--MD5=[143fba09575ece185ea311ff9ae93080]
reverse link C_0001585653041236922459 to C_0000507998479194737071--><path d="M57.88,610.86 C68.75,555.45 95.08,460.91 154,405 C164.19,395.33 176.79,387.93 189.9,382.26 " fill="none" id="C_0001585653041236922459&lt;-C_0000507998479194737071" style="stroke: #A80036; stroke-width: 1.0;"/><polygon fill="none" points="64.74,612.23,54.32,630.68,50.96,609.75,64.74,612.23" style="stroke: #A80036; stroke-width: 1.0;"/><!--MD5=[d30abf94f13e3d0534ead8e8054eb3d1]
reverse link C_0001585653041236922459 to C_0000342846994454958214--><path d="M67.48,612.47 C84.07,574.85 113.08,520.97 154,488 C164.18,479.79 176.13,473.17 188.42,467.84 " fill="none" id="C_0001585653041236922459&lt;-C_0000342846994454958214" style="stroke: #A80036; stroke-width: 1.0;"/><polygon fill="none" points="73.92,615.21,59.74,630.96,61.01,609.8,73.92,615.21" style="stroke: #A80036; stroke-width: 1.0;"/><!--MD5=[662aca28d61e295ab991be0c19b1c533]
reverse link C_0001585653041236922459 to C_0000861535705589766807--><path d="M90.54,617.32 C108.79,601.41 131.39,583.68 154,571 C168.87,562.66 185.73,555.55 201.93,549.7 " fill="none" id="C_0001585653041236922459&lt;-C_0000861535705589766807" style="stroke: #A80036; stroke-width: 1.0;"/><polygon fill="none" points="94.98,622.74,75.43,630.93,85.61,612.34,94.98,622.74" style="stroke: #A80036; stroke-width: 1.0;"/><!--MD5=[156332e2a2012227aae759be0134bcac]
reverse link C_0001585653041236922459 to C_0000600573949475383075--><path d="M113.93,642.96 C138.81,638.2 167.63,632.68 193.72,627.69 " fill="none" id="C_0001585653041236922459&lt;-C_0000600573949475383075" style="stroke: #A80036; stroke-width: 1.0;"/><polygon fill="none" points="115.06,649.87,94.1,646.75,112.43,636.12,115.06,649.87" style="stroke: #A80036; stroke-width: 1.0;"/><!--MD5=[d0bb1772b4286dcc9ddc27f08349bc5d]
reverse link C_0001585653041236922459 to C_0002158322113857881673--><path d="M113.9,666.75 C128.41,669.46 144.26,672.42 160.12,675.38 " fill="none" id="C_0001585653041236922459&lt;-C_0002158322113857881673" style="stroke: #A80036; stroke-width: 1.0;"/><polygon fill="none" points="112.48,673.6,94.1,663.05,115.05,659.84,112.48,673.6" style="stroke: #A80036; stroke-width: 1.0;"/><!--MD5=[4c314e63c4848aef2fcdeb05538e9208]
reverse link C_0001585653041236922459 to C_0000026248340214462662--><path d="M91.47,692.29 C109.62,707.63 131.89,724.65 154,737 C166.01,743.71 179.3,749.69 192.48,754.88 " fill="none" id="C_0001585653041236922459&lt;-C_0000026248340214462662" style="stroke: #A80036; stroke-width: 1.0;"/><polygon fill="none" points="86.86,697.56,76.39,679.14,96.06,687.01,86.86,697.56" style="stroke: #A80036; stroke-width: 1.0;"/><!--MD5=[936733e413184087273d009e68de9a89]
reverse link C_0001585653041236922459 to C_0000603633382993980808--><path d="M67.92,697.51 C84.68,734.6 113.68,787.43 154,820 C162.7,827.02 172.67,832.93 183.04,837.88 " fill="none" id="C_0001585653041236922459&lt;-C_0000603633382993980808" style="stroke: #A80036; stroke-width: 1.0;"/><polygon fill="none" points="61.43,700.14,59.98,679,74.3,694.62,61.43,700.14" style="stroke: #A80036; stroke-width: 1.0;"/><!--MD5=[95b628777811e2a1f77323277f1cb566]
reverse link C_0001585653041236922459 to C_0001009421424714355715--><path d="M58.12,699.09 C69.22,754.03 95.75,847.46 154,903 C161.47,910.12 170.23,916.05 179.54,920.98 " fill="none" id="C_0001585653041236922459&lt;-C_0001009421424714355715" style="stroke: #A80036; stroke-width: 1.0;"/><polygon fill="none" points="51.18,700.03,54.42,679.09,64.94,697.49,51.18,700.03" style="stroke: #A80036; stroke-width: 1.0;"/><!--MD5=[758c3cfe787fea22001b9f6e27336e97]
reverse link C_0001585653041236922459 to C_0001184982835175222056--><path d="M52.69,699.74 C57.71,769.88 77.42,905.95 154,986 C165.89,998.43 181.73,1007.19 197.88,1013.36 " fill="none" id="C_0001585653041236922459&lt;-C_0001184982835175222056" style="stroke: #A80036; stroke-width: 1.0;"/><polygon fill="none" points="45.68,699.81,51.52,679.44,59.66,699.01,45.68,699.81" style="stroke: #A80036; stroke-width: 1.0;"/><!--MD5=[ddc0fb8f1cabdd1cc70bcbc5233395d4]
reverse link C_0001585653041236922459 to C_0001347498727659770075--><path d="M56.7,699.27 C69.76,794.43 104.61,1014.29 154,1069 C168.12,1084.64 188.5,1094.46 208.28,1100.63 " fill="none" id="C_0001585653041236922459&lt;-C_0001347498727659770075" style="stroke: #A80036; stroke-width: 1.0;"/><polygon fill="none" points="49.72,699.94,54.01,679.18,63.6,698.08,49.72,699.94" style="stroke: #A80036; stroke-width: 1.0;"/><!--MD5=[895e797b9e935156f2fffa3e66d42570]
reverse link C_0001585653041236922459 to C_0001455852309215570565--><path d="M54.67,699.12 C64.54,807.69 94.98,1083.97 154,1152 C165.69,1165.48 182.05,1174.63 198.82,1180.85 " fill="none" id="C_0001585653041236922459&lt;-C_0001455852309215570565" style="stroke: #A80036; stroke-width: 1.0;"/><polygon fill="none" points="47.7,699.72,52.92,679.19,61.64,698.5,47.7,699.72" style="stroke: #A80036; stroke-width: 1.0;"/><!--MD5=[9e64ba0534608e3ae070c63d79b7c528]
reverse link C_0001585653041236922459 to C_0001956941679276907326--><path d="M53.22,699.04 C60.18,819.94 85.29,1153.47 154,1235 C159.96,1242.07 167.2,1247.95 175.13,1252.84 " fill="none" id="C_0001585653041236922459&lt;-C_0001956941679276907326" style="stroke: #A80036; stroke-width: 1.0;"/><polygon fill="none" points="46.23,699.4,52.13,679.04,60.21,698.63,46.23,699.4" style="stroke: #A80036; stroke-width: 1.0;"/><!--MD5=[2d6d26e722ee0842a02fd354a3011370]
@startuml
left to right direction
class "cpp_type" as C_0001585653041236922459
class C_0001585653041236922459 [[https://github.com/foonathan/cppast/blob/f00df6675d87c6983033d270728c57a55cd3db22/include/cppast/cpp_type.hpp#L44{cpp_type}]] {
__
}
class "cpp_unexposed_type" as C_0000601730303705395408
class C_0000601730303705395408 [[https://github.com/foonathan/cppast/blob/f00df6675d87c6983033d270728c57a55cd3db22/include/cppast/cpp_type.hpp#L95{cpp_unexposed_type}]] {
__
}
class "cpp_builtin_type" as C_0002035785082080260407
class C_0002035785082080260407 [[https://github.com/foonathan/cppast/blob/f00df6675d87c6983033d270728c57a55cd3db22/include/cppast/cpp_type.hpp#L161{cpp_builtin_type}]] {
__
}
class "cpp_user_defined_type" as C_0002166954434825938188
class C_0002166954434825938188 [[https://github.com/foonathan/cppast/blob/f00df6675d87c6983033d270728c57a55cd3db22/include/cppast/cpp_type.hpp#L202{cpp_user_defined_type}]] {
__
}
class "cpp_auto_type" as C_0001809003368459807767
class C_0001809003368459807767 [[https://github.com/foonathan/cppast/blob/f00df6675d87c6983033d270728c57a55cd3db22/include/cppast/cpp_type.hpp#L230{cpp_auto_type}]] {
__
}
class "cpp_dependent_type" as C_0000507998479194737071
class C_0000507998479194737071 [[https://github.com/foonathan/cppast/blob/f00df6675d87c6983033d270728c57a55cd3db22/include/cppast/cpp_type.hpp#L249{cpp_dependent_type}]] {
__
}
class "cpp_cv_qualified_type" as C_0000342846994454958214
class C_0000342846994454958214 [[https://github.com/foonathan/cppast/blob/f00df6675d87c6983033d270728c57a55cd3db22/include/cppast/cpp_type.hpp#L311{cpp_cv_qualified_type}]] {
__
}
class "cpp_pointer_type" as C_0000861535705589766807
class C_0000861535705589766807 [[https://github.com/foonathan/cppast/blob/f00df6675d87c6983033d270728c57a55cd3db22/include/cppast/cpp_type.hpp#L359{cpp_pointer_type}]] {
__
}
class "cpp_reference_type" as C_0000600573949475383075
class C_0000600573949475383075 [[https://github.com/foonathan/cppast/blob/f00df6675d87c6983033d270728c57a55cd3db22/include/cppast/cpp_type.hpp#L394{cpp_reference_type}]] {
__
}
class "cpp_template_parameter_type" as C_0002158322113857881673
class C_0002158322113857881673 [[https://github.com/foonathan/cppast/blob/f00df6675d87c6983033d270728c57a55cd3db22/include/cppast/cpp_template_parameter.hpp#L106{cpp_template_parameter_type}]] {
__
}
class "cpp_decltype_auto_type" as C_0000026248340214462662
class C_0000026248340214462662 [[https://github.com/foonathan/cppast/blob/f00df6675d87c6983033d270728c57a55cd3db22/include/cppast/cppast_fwd.hpp#L27{cpp_decltype_auto_type}]] {
__
}
class "cpp_member_object_type" as C_0000603633382993980808
class C_0000603633382993980808 [[https://github.com/foonathan/cppast/blob/f00df6675d87c6983033d270728c57a55cd3db22/include/cppast/cppast_fwd.hpp#L53{cpp_member_object_type}]] {
__
}
class "cpp_template_instantiation_type" as C_0001009421424714355715
class C_0001009421424714355715 [[https://github.com/foonathan/cppast/blob/f00df6675d87c6983033d270728c57a55cd3db22/include/cppast/cppast_fwd.hpp#L63{cpp_template_instantiation_type}]] {
__
}
class "cpp_decltype_type" as C_0001184982835175222056
class C_0001184982835175222056 [[https://github.com/foonathan/cppast/blob/f00df6675d87c6983033d270728c57a55cd3db22/include/cppast/cppast_fwd.hpp#L28{cpp_decltype_type}]] {
__
}
class "cpp_array_type" as C_0001347498727659770075
class C_0001347498727659770075 [[https://github.com/foonathan/cppast/blob/f00df6675d87c6983033d270728c57a55cd3db22/include/cppast/cppast_fwd.hpp#L14{cpp_array_type}]] {
__
}
class "cpp_function_type" as C_0001455852309215570565
class C_0001455852309215570565 [[https://github.com/foonathan/cppast/blob/f00df6675d87c6983033d270728c57a55cd3db22/include/cppast/cppast_fwd.hpp#L44{cpp_function_type}]] {
__
}
class "cpp_member_function_type" as C_0001956941679276907326
class C_0001956941679276907326 [[https://github.com/foonathan/cppast/blob/f00df6675d87c6983033d270728c57a55cd3db22/include/cppast/cppast_fwd.hpp#L52{cpp_member_function_type}]] {
__
}
C_0001585653041236922459 <|- - C_0000601730303705395408
C_0001585653041236922459 <|- - C_0002035785082080260407
C_0001585653041236922459 <|- - C_0002166954434825938188
C_0001585653041236922459 <|- - C_0001809003368459807767
C_0001585653041236922459 <|- - C_0000507998479194737071
C_0001585653041236922459 <|- - C_0000342846994454958214
C_0001585653041236922459 <|- - C_0000861535705589766807
C_0001585653041236922459 <|- - C_0000600573949475383075
C_0001585653041236922459 <|- - C_0002158322113857881673
C_0001585653041236922459 <|- - C_0000026248340214462662
C_0001585653041236922459 <|- - C_0000603633382993980808
C_0001585653041236922459 <|- - C_0001009421424714355715
C_0001585653041236922459 <|- - C_0001184982835175222056
C_0001585653041236922459 <|- - C_0001347498727659770075
C_0001585653041236922459 <|- - C_0001455852309215570565
C_0001585653041236922459 <|- - C_0001956941679276907326

@enduml

PlantUML version 1.2020.02(Sun Mar 01 11:22:07 CET 2020)
(GPL source distribution)
Java Runtime: OpenJDK Runtime Environment
JVM: OpenJDK 64-Bit Server VM
Java Version: 11.0.19+7-post-Ubuntu-0ubuntu122.04.1
Operating System: Linux
Default Encoding: UTF-8
Language: en
Country: US
--></g></svg>