<?xml version="1.0" encoding="UTF-8" standalone="no"?><svg xmlns="http://www.w3.org/2000/svg" xmlns:xlink="http://www.w3.org/1999/xlink" contentScriptType="application/ecmascript" contentStyleType="text/css" height="816px" preserveAspectRatio="none" style="width:1480px;height:816px;" version="1.1" viewBox="0 0 1480 816" width="1480px" zoomAndPan="magnify"><defs><filter height="300%" id="f1aue0kfokq67c" width="300%" x="-1" y="-1"><feGaussianBlur result="blurOut" stdDeviation="2.0"/><feColorMatrix in="blurOut" result="blurOut2" type="matrix" values="0 0 0 0 0 0 0 0 0 0 0 0 0 0 0 0 0 0 .4 0"/><feOffset dx="4.0" dy="4.0" in="blurOut2" result="blurOut3"/><feBlend in="SourceGraphic" in2="blurOut3" mode="normal"/></filter></defs><g><!--MD5=[beff0c4640d168cedf062bb151026421]
class C_0000000003--><a href="https://github.com/foonathan/cppast/blob/19cbc378f8a6b3fe7d04b309784a3a0920de9e75/include/cppast/cpp_type.hpp#L17" target="_top" title="The kinds of a [cppast::cpp_type]()." xlink:actuate="onRequest" xlink:href="https://github.com/foonathan/cppast/blob/19cbc378f8a6b3fe7d04b309784a3a0920de9e75/include/cppast/cpp_type.hpp#L17" xlink:show="new" xlink:title="The kinds of a [cppast::cpp_type]()." xlink:type="simple"><rect fill="#FEFECE" filter="url(#f1aue0kfokq67c)" height="252.875" id="C_0000000003" style="stroke: #A80036; stroke-width: 1.5;" width="148" x="767.5" y="8"/><ellipse cx="795.1" cy="24" fill="#EB937F" rx="11" ry="11" style="stroke: #A80036; stroke-width: 1.0;"/><path d="M799.2094,30 L791.4906,30 L791.4906,17.6094 L799.2094,17.6094 L799.2094,19.7656 L793.9438,19.7656 L793.9438,22.4375 L798.7094,22.4375 L798.7094,24.5938 L793.9438,24.5938 L793.9438,27.8438 L799.2094,27.8438 L799.2094,30 Z "/><text fill="#000000" font-family="sans-serif" font-size="12" lengthAdjust="spacingAndGlyphs" textLength="88" x="811.9" y="28.1543">cpp_type_kind</text><line style="stroke: #A80036; stroke-width: 1.5;" x1="768.5" x2="914.5" y1="40" y2="40"/><text fill="#000000" font-family="sans-serif" font-size="11" lengthAdjust="spacingAndGlyphs" textLength="44" x="773.5" y="54.2104">builtin_t</text><text fill="#000000" font-family="sans-serif" font-size="11" lengthAdjust="spacingAndGlyphs" textLength="84" x="773.5" y="67.0151">user_defined_t</text><text fill="#000000" font-family="sans-serif" font-size="11" lengthAdjust="spacingAndGlyphs" textLength="35" x="773.5" y="79.8198">auto_t</text><text fill="#000000" font-family="sans-serif" font-size="11" lengthAdjust="spacingAndGlyphs" textLength="57" x="773.5" y="92.6245">decltype_t</text><text fill="#000000" font-family="sans-serif" font-size="11" lengthAdjust="spacingAndGlyphs" textLength="88" x="773.5" y="105.4292">decltype_auto_t</text><text fill="#000000" font-family="sans-serif" font-size="11" lengthAdjust="spacingAndGlyphs" textLength="76" x="773.5" y="118.2339">cv_qualified_t</text><text fill="#000000" font-family="sans-serif" font-size="11" lengthAdjust="spacingAndGlyphs" textLength="50" x="773.5" y="131.0386">pointer_t</text><text fill="#000000" font-family="sans-serif" font-size="11" lengthAdjust="spacingAndGlyphs" textLength="65" x="773.5" y="143.8433">reference_t</text><text fill="#000000" font-family="sans-serif" font-size="11" lengthAdjust="spacingAndGlyphs" textLength="40" x="773.5" y="156.6479">array_t</text><text fill="#000000" font-family="sans-serif" font-size="11" lengthAdjust="spacingAndGlyphs" textLength="55" x="773.5" y="169.4526">function_t</text><text fill="#000000" font-family="sans-serif" font-size="11" lengthAdjust="spacingAndGlyphs" textLength="109" x="773.5" y="182.2573">member_function_t</text><text fill="#000000" font-family="sans-serif" font-size="11" lengthAdjust="spacingAndGlyphs" textLength="98" x="773.5" y="195.062">member_object_t</text><text fill="#000000" font-family="sans-serif" font-size="11" lengthAdjust="spacingAndGlyphs" textLength="126" x="773.5" y="207.8667">template_parameter_t</text><text fill="#000000" font-family="sans-serif" font-size="11" lengthAdjust="spacingAndGlyphs" textLength="136" x="773.5" y="220.6714">template_instantiation_t</text><text fill="#000000" font-family="sans-serif" font-size="11" lengthAdjust="spacingAndGlyphs" textLength="70" x="773.5" y="233.4761">dependent_t</text><text fill="#000000" font-family="sans-serif" font-size="11" lengthAdjust="spacingAndGlyphs" textLength="72" x="773.5" y="246.2808">unexposed_t</text><line style="stroke: #A80036; stroke-width: 1.5;" x1="768.5" x2="914.5" y1="252.875" y2="252.875"/></a><!--MD5=[818353795a49a6973a503ac8115e4dab]
class C_0000000007--><a href="https://github.com/foonathan/cppast/blob/19cbc378f8a6b3fe7d04b309784a3a0920de9e75/include/cppast/cpp_type.hpp#L44" target="_top" title="Base class for all C++ types." xlink:actuate="onRequest" xlink:href="https://github.com/foonathan/cppast/blob/19cbc378f8a6b3fe7d04b309784a3a0920de9e75/include/cppast/cpp_type.hpp#L44" xlink:show="new" xlink:title="Base class for all C++ types." xlink:type="simple"><rect fill="#FEFECE" filter="url(#f1aue0kfokq67c)" height="48" id="C_0000000007" style="stroke: #A80036; stroke-width: 1.5;" width="89" x="951" y="110.5"/><ellipse cx="966" cy="126.5" fill="#A9DCDF" rx="11" ry="11" style="stroke: #A80036; stroke-width: 1.0;"/><path d="M966.1094,121.8438 L964.9531,126.9219 L967.2813,126.9219 L966.1094,121.8438 Z M964.625,119.6094 L967.6094,119.6094 L970.9688,132 L968.5156,132 L967.75,128.9375 L964.4688,128.9375 L963.7188,132 L961.2813,132 L964.625,119.6094 Z "/><text fill="#000000" font-family="sans-serif" font-size="12" font-style="italic" lengthAdjust="spacingAndGlyphs" textLength="57" x="980" y="130.6543">cpp_type</text><line style="stroke: #A80036; stroke-width: 1.5;" x1="952" x2="1039" y1="142.5" y2="142.5"/><line style="stroke: #A80036; stroke-width: 1.5;" x1="952" x2="1039" y1="150.5" y2="150.5"/></a><!--MD5=[f9adcaaea32b87b4363a1941c80885e6]
class C_0000000019--><a href="https://github.com/foonathan/cppast/blob/19cbc378f8a6b3fe7d04b309784a3a0920de9e75/include/cppast/cpp_type.hpp#L95" target="_top" title="An unexposed [cppast::cpp_type](). This is one where no further information besides a name is available." xlink:actuate="onRequest" xlink:href="https://github.com/foonathan/cppast/blob/19cbc378f8a6b3fe7d04b309784a3a0920de9e75/include/cppast/cpp_type.hpp#L95" xlink:show="new" xlink:title="An unexposed [cppast::cpp_type](). This is one where no further information besides a name is available." xlink:type="simple"><rect fill="#FEFECE" filter="url(#f1aue0kfokq67c)" height="48" id="C_0000000019" style="stroke: #A80036; stroke-width: 1.5;" width="163" x="6" y="338"/><ellipse cx="21" cy="354" fill="#ADD1B2" rx="11" ry="11" style="stroke: #A80036; stroke-width: 1.0;"/><path d="M23.9688,359.6406 Q23.3906,359.9375 22.75,360.0781 Q22.1094,360.2344 21.4063,360.2344 Q18.9063,360.2344 17.5781,358.5938 Q16.2656,356.9375 16.2656,353.8125 Q16.2656,350.6875 17.5781,349.0313 Q18.9063,347.375 21.4063,347.375 Q22.1094,347.375 22.75,347.5313 Q23.4063,347.6875 23.9688,347.9844 L23.9688,350.7031 Q23.3438,350.125 22.75,349.8594 Q22.1563,349.5781 21.5313,349.5781 Q20.1875,349.5781 19.5,350.6563 Q18.8125,351.7188 18.8125,353.8125 Q18.8125,355.9063 19.5,356.9844 Q20.1875,358.0469 21.5313,358.0469 Q22.1563,358.0469 22.75,357.7813 Q23.3438,357.5 23.9688,356.9219 L23.9688,359.6406 Z "/><text fill="#000000" font-family="sans-serif" font-size="12" lengthAdjust="spacingAndGlyphs" textLength="131" x="35" y="358.1543">cpp_unexposed_type</text><line style="stroke: #A80036; stroke-width: 1.5;" x1="7" x2="168" y1="370" y2="370"/><line style="stroke: #A80036; stroke-width: 1.5;" x1="7" x2="168" y1="378" y2="378"/></a><!--MD5=[8447778bb04d7edc6eb68a2c4932b879]
class C_0000000023--><a href="https://github.com/foonathan/cppast/blob/19cbc378f8a6b3fe7d04b309784a3a0920de9e75/include/cppast/cpp_type.hpp#L122" target="_top" title="The C++ builtin types." xlink:actuate="onRequest" xlink:href="https://github.com/foonathan/cppast/blob/19cbc378f8a6b3fe7d04b309784a3a0920de9e75/include/cppast/cpp_type.hpp#L122" xlink:show="new" xlink:title="The C++ builtin types." xlink:type="simple"><rect fill="#FEFECE" filter="url(#f1aue0kfokq67c)" height="342.5078" id="C_0000000023" style="stroke: #A80036; stroke-width: 1.5;" width="164" x="130.5" y="463"/><ellipse cx="145.5" cy="479" fill="#EB937F" rx="11" ry="11" style="stroke: #A80036; stroke-width: 1.0;"/><path d="M149.6094,485 L141.8906,485 L141.8906,472.6094 L149.6094,472.6094 L149.6094,474.7656 L144.3438,474.7656 L144.3438,477.4375 L149.1094,477.4375 L149.1094,479.5938 L144.3438,479.5938 L144.3438,482.8438 L149.6094,482.8438 L149.6094,485 Z "/><text fill="#000000" font-family="sans-serif" font-size="12" lengthAdjust="spacingAndGlyphs" textLength="132" x="159.5" y="483.1543">cpp_builtin_type_kind</text><line style="stroke: #A80036; stroke-width: 1.5;" x1="131.5" x2="293.5" y1="495" y2="495"/><text fill="#000000" font-family="sans-serif" font-size="11" lengthAdjust="spacingAndGlyphs" textLength="49" x="136.5" y="509.2104">cpp_void</text><text fill="#000000" font-family="sans-serif" font-size="11" lengthAdjust="spacingAndGlyphs" textLength="50" x="136.5" y="522.0151">cpp_bool</text><text fill="#000000" font-family="sans-serif" font-size="11" lengthAdjust="spacingAndGlyphs" textLength="58" x="136.5" y="534.8198">cpp_uchar</text><text fill="#000000" font-family="sans-serif" font-size="11" lengthAdjust="spacingAndGlyphs" textLength="63" x="136.5" y="547.6245">cpp_ushort</text><text fill="#000000" font-family="sans-serif" font-size="11" lengthAdjust="spacingAndGlyphs" textLength="47" x="136.5" y="560.4292">cpp_uint</text><text fill="#000000" font-family="sans-serif" font-size="11" lengthAdjust="spacingAndGlyphs" textLength="57" x="136.5" y="573.2339">cpp_ulong</text><text fill="#000000" font-family="sans-serif" font-size="11" lengthAdjust="spacingAndGlyphs" textLength="81" x="136.5" y="586.0386">cpp_ulonglong</text><text fill="#000000" font-family="sans-serif" font-size="11" lengthAdjust="spacingAndGlyphs" textLength="68" x="136.5" y="598.8433">cpp_uint128</text><text fill="#000000" font-family="sans-serif" font-size="11" lengthAdjust="spacingAndGlyphs" textLength="58" x="136.5" y="611.6479">cpp_schar</text><text fill="#000000" font-family="sans-serif" font-size="11" lengthAdjust="spacingAndGlyphs" textLength="56" x="136.5" y="624.4526">cpp_short</text><text fill="#000000" font-family="sans-serif" font-size="11" lengthAdjust="spacingAndGlyphs" textLength="40" x="136.5" y="637.2573">cpp_int</text><text fill="#000000" font-family="sans-serif" font-size="11" lengthAdjust="spacingAndGlyphs" textLength="50" x="136.5" y="650.062">cpp_long</text><text fill="#000000" font-family="sans-serif" font-size="11" lengthAdjust="spacingAndGlyphs" textLength="74" x="136.5" y="662.8667">cpp_longlong</text><text fill="#000000" font-family="sans-serif" font-size="11" lengthAdjust="spacingAndGlyphs" textLength="61" x="136.5" y="675.6714">cpp_int128</text><text fill="#000000" font-family="sans-serif" font-size="11" lengthAdjust="spacingAndGlyphs" textLength="51" x="136.5" y="688.4761">cpp_float</text><text fill="#000000" font-family="sans-serif" font-size="11" lengthAdjust="spacingAndGlyphs" textLength="64" x="136.5" y="701.2808">cpp_double</text><text fill="#000000" font-family="sans-serif" font-size="11" lengthAdjust="spacingAndGlyphs" textLength="88" x="136.5" y="714.0854">cpp_longdouble</text><text fill="#000000" font-family="sans-serif" font-size="11" lengthAdjust="spacingAndGlyphs" textLength="72" x="136.5" y="726.8901">cpp_float128</text><text fill="#000000" font-family="sans-serif" font-size="11" lengthAdjust="spacingAndGlyphs" textLength="51" x="136.5" y="739.6948">cpp_char</text><text fill="#000000" font-family="sans-serif" font-size="11" lengthAdjust="spacingAndGlyphs" textLength="60" x="136.5" y="752.4995">cpp_wchar</text><text fill="#000000" font-family="sans-serif" font-size="11" lengthAdjust="spacingAndGlyphs" textLength="65" x="136.5" y="765.3042">cpp_char16</text><text fill="#000000" font-family="sans-serif" font-size="11" lengthAdjust="spacingAndGlyphs" textLength="65" x="136.5" y="778.1089">cpp_char32</text><text fill="#000000" font-family="sans-serif" font-size="11" lengthAdjust="spacingAndGlyphs" textLength="62" x="136.5" y="790.9136">cpp_nullptr</text><line style="stroke: #A80036; stroke-width: 1.5;" x1="131.5" x2="293.5" y1="797.5078" y2="797.5078"/></a><!--MD5=[1bd8d061b59c0a8912de08e764be36d6]
class C_0000000027--><a href="https://github.com/foonathan/cppast/blob/19cbc378f8a6b3fe7d04b309784a3a0920de9e75/include/cppast/cpp_type.hpp#L161" target="_top" title="A builtin [cppast::cpp_type](). This is one where there is no associated [cppast::cpp_entity]()." xlink:actuate="onRequest" xlink:href="https://github.com/foonathan/cppast/blob/19cbc378f8a6b3fe7d04b309784a3a0920de9e75/include/cppast/cpp_type.hpp#L161" xlink:show="new" xlink:title="A builtin [cppast::cpp_type](). This is one where there is no associated [cppast::cpp_entity]()." xlink:type="simple"><rect fill="#FEFECE" filter="url(#f1aue0kfokq67c)" height="48" id="C_0000000027" style="stroke: #A80036; stroke-width: 1.5;" width="132" x="204.5" y="338"/><ellipse cx="219.5" cy="354" fill="#ADD1B2" rx="11" ry="11" style="stroke: #A80036; stroke-width: 1.0;"/><path d="M222.4688,359.6406 Q221.8906,359.9375 221.25,360.0781 Q220.6094,360.2344 219.9063,360.2344 Q217.4063,360.2344 216.0781,358.5938 Q214.7656,356.9375 214.7656,353.8125 Q214.7656,350.6875 216.0781,349.0313 Q217.4063,347.375 219.9063,347.375 Q220.6094,347.375 221.25,347.5313 Q221.9063,347.6875 222.4688,347.9844 L222.4688,350.7031 Q221.8438,350.125 221.25,349.8594 Q220.6563,349.5781 220.0313,349.5781 Q218.6875,349.5781 218,350.6563 Q217.3125,351.7188 217.3125,353.8125 Q217.3125,355.9063 218,356.9844 Q218.6875,358.0469 220.0313,358.0469 Q220.6563,358.0469 221.25,357.7813 Q221.8438,357.5 222.4688,356.9219 L222.4688,359.6406 Z "/><text fill="#000000" font-family="sans-serif" font-size="12" lengthAdjust="spacingAndGlyphs" textLength="100" x="233.5" y="358.1543">cpp_builtin_type</text><line style="stroke: #A80036; stroke-width: 1.5;" x1="205.5" x2="335.5" y1="370" y2="370"/><line style="stroke: #A80036; stroke-width: 1.5;" x1="205.5" x2="335.5" y1="378" y2="378"/></a><!--MD5=[4b85799aaed965322344b72821bbf2e9]
class C_0000000039--><rect fill="#FEFECE" filter="url(#f1aue0kfokq67c)" height="48" id="C_0000000039" style="stroke: #A80036; stroke-width: 1.5;" width="420" x="329.5" y="610.5"/><ellipse cx="344.5" cy="626.5" fill="#ADD1B2" rx="11" ry="11" style="stroke: #A80036; stroke-width: 1.0;"/><path d="M347.4688,632.1406 Q346.8906,632.4375 346.25,632.5781 Q345.6094,632.7344 344.9063,632.7344 Q342.4063,632.7344 341.0781,631.0938 Q339.7656,629.4375 339.7656,626.3125 Q339.7656,623.1875 341.0781,621.5313 Q342.4063,619.875 344.9063,619.875 Q345.6094,619.875 346.25,620.0313 Q346.9063,620.1875 347.4688,620.4844 L347.4688,623.2031 Q346.8438,622.625 346.25,622.3594 Q345.6563,622.0781 345.0313,622.0781 Q343.6875,622.0781 343,623.1563 Q342.3125,624.2188 342.3125,626.3125 Q342.3125,628.4063 343,629.4844 Q343.6875,630.5469 345.0313,630.5469 Q345.6563,630.5469 346.25,630.2813 Q346.8438,630 347.4688,629.4219 L347.4688,632.1406 Z "/><text fill="#000000" font-family="sans-serif" font-size="12" lengthAdjust="spacingAndGlyphs" textLength="126" x="358.5" y="630.6543">basic_cpp_entity_ref</text><rect fill="#FFFFFF" height="15.9688" style="stroke: #000000; stroke-width: 1.0; stroke-dasharray: 2.0,2.0;" width="260" x="492.5" y="607.5"/><text fill="#000000" font-family="sans-serif" font-size="12" font-style="italic" lengthAdjust="spacingAndGlyphs" textLength="258" x="493.5" y="619.6387">cpp_entity,detail::cpp_type_ref_predicate</text><line style="stroke: #A80036; stroke-width: 1.5;" x1="330.5" x2="748.5" y1="642.5" y2="642.5"/><line style="stroke: #A80036; stroke-width: 1.5;" x1="330.5" x2="748.5" y1="650.5" y2="650.5"/><!--MD5=[7f8ea93ab5eb3ff4b7268c847dbf9418]
class C_0000000036--><a href="https://github.com/foonathan/cppast/blob/19cbc378f8a6b3fe7d04b309784a3a0920de9e75/include/cppast/cpp_type.hpp#L202" target="_top" title="A user-defined [cppast::cpp_type](). It has an associated [cppast::cpp_entity]()." xlink:actuate="onRequest" xlink:href="https://github.com/foonathan/cppast/blob/19cbc378f8a6b3fe7d04b309784a3a0920de9e75/include/cppast/cpp_type.hpp#L202" xlink:show="new" xlink:title="A user-defined [cppast::cpp_type](). It has an associated [cppast::cpp_entity]()." xlink:type="simple"><rect fill="#FEFECE" filter="url(#f1aue0kfokq67c)" height="48" id="C_0000000036" style="stroke: #A80036; stroke-width: 1.5;" width="175" x="372" y="338"/><ellipse cx="387" cy="354" fill="#ADD1B2" rx="11" ry="11" style="stroke: #A80036; stroke-width: 1.0;"/><path d="M389.9688,359.6406 Q389.3906,359.9375 388.75,360.0781 Q388.1094,360.2344 387.4063,360.2344 Q384.9063,360.2344 383.5781,358.5938 Q382.2656,356.9375 382.2656,353.8125 Q382.2656,350.6875 383.5781,349.0313 Q384.9063,347.375 387.4063,347.375 Q388.1094,347.375 388.75,347.5313 Q389.4063,347.6875 389.9688,347.9844 L389.9688,350.7031 Q389.3438,350.125 388.75,349.8594 Q388.1563,349.5781 387.5313,349.5781 Q386.1875,349.5781 385.5,350.6563 Q384.8125,351.7188 384.8125,353.8125 Q384.8125,355.9063 385.5,356.9844 Q386.1875,358.0469 387.5313,358.0469 Q388.1563,358.0469 388.75,357.7813 Q389.3438,357.5 389.9688,356.9219 L389.9688,359.6406 Z "/><text fill="#000000" font-family="sans-serif" font-size="12" lengthAdjust="spacingAndGlyphs" textLength="143" x="401" y="358.1543">cpp_user_defined_type</text><line style="stroke: #A80036; stroke-width: 1.5;" x1="373" x2="546" y1="370" y2="370"/><line style="stroke: #A80036; stroke-width: 1.5;" x1="373" x2="546" y1="378" y2="378"/></a><!--MD5=[531da34c930bd145c0fb4d43bbb1d8da]
class C_0000000069--><a href="https://github.com/foonathan/cppast/blob/19cbc378f8a6b3fe7d04b309784a3a0920de9e75/include/cppast/cpp_type.hpp#L230" target="_top" title="A [cppast::cpp_type]() that isn't given but deduced by `auto`." xlink:actuate="onRequest" xlink:href="https://github.com/foonathan/cppast/blob/19cbc378f8a6b3fe7d04b309784a3a0920de9e75/include/cppast/cpp_type.hpp#L230" xlink:show="new" xlink:title="A [cppast::cpp_type]() that isn't given but deduced by `auto`." xlink:type="simple"><rect fill="#FEFECE" filter="url(#f1aue0kfokq67c)" height="48" id="C_0000000069" style="stroke: #A80036; stroke-width: 1.5;" width="123" x="582" y="338"/><ellipse cx="597" cy="354" fill="#ADD1B2" rx="11" ry="11" style="stroke: #A80036; stroke-width: 1.0;"/><path d="M599.9688,359.6406 Q599.3906,359.9375 598.75,360.0781 Q598.1094,360.2344 597.4063,360.2344 Q594.9063,360.2344 593.5781,358.5938 Q592.2656,356.9375 592.2656,353.8125 Q592.2656,350.6875 593.5781,349.0313 Q594.9063,347.375 597.4063,347.375 Q598.1094,347.375 598.75,347.5313 Q599.4063,347.6875 599.9688,347.9844 L599.9688,350.7031 Q599.3438,350.125 598.75,349.8594 Q598.1563,349.5781 597.5313,349.5781 Q596.1875,349.5781 595.5,350.6563 Q594.8125,351.7188 594.8125,353.8125 Q594.8125,355.9063 595.5,356.9844 Q596.1875,358.0469 597.5313,358.0469 Q598.1563,358.0469 598.75,357.7813 Q599.3438,357.5 599.9688,356.9219 L599.9688,359.6406 Z "/><text fill="#000000" font-family="sans-serif" font-size="12" lengthAdjust="spacingAndGlyphs" textLength="91" x="611" y="358.1543">cpp_auto_type</text><line style="stroke: #A80036; stroke-width: 1.5;" x1="583" x2="704" y1="370" y2="370"/><line style="stroke: #A80036; stroke-width: 1.5;" x1="583" x2="704" y1="378" y2="378"/></a><!--MD5=[555b25aa12d53462f58eba69dea5affc]
class C_0000000077--><a href="https://github.com/foonathan/cppast/blob/19cbc378f8a6b3fe7d04b309784a3a0920de9e75/include/cppast/cpp_type.hpp#L249" target="_top" title="A [cppast::cpp_type]() that depends on another type." xlink:actuate="onRequest" xlink:href="https://github.com/foonathan/cppast/blob/19cbc378f8a6b3fe7d04b309784a3a0920de9e75/include/cppast/cpp_type.hpp#L249" xlink:show="new" xlink:title="A [cppast::cpp_type]() that depends on another type." xlink:type="simple"><rect fill="#FEFECE" filter="url(#f1aue0kfokq67c)" height="48" id="C_0000000077" style="stroke: #A80036; stroke-width: 1.5;" width="163" x="740" y="338"/><ellipse cx="755" cy="354" fill="#ADD1B2" rx="11" ry="11" style="stroke: #A80036; stroke-width: 1.0;"/><path d="M757.9688,359.6406 Q757.3906,359.9375 756.75,360.0781 Q756.1094,360.2344 755.4063,360.2344 Q752.9063,360.2344 751.5781,358.5938 Q750.2656,356.9375 750.2656,353.8125 Q750.2656,350.6875 751.5781,349.0313 Q752.9063,347.375 755.4063,347.375 Q756.1094,347.375 756.75,347.5313 Q757.4063,347.6875 757.9688,347.9844 L757.9688,350.7031 Q757.3438,350.125 756.75,349.8594 Q756.1563,349.5781 755.5313,349.5781 Q754.1875,349.5781 753.5,350.6563 Q752.8125,351.7188 752.8125,353.8125 Q752.8125,355.9063 753.5,356.9844 Q754.1875,358.0469 755.5313,358.0469 Q756.1563,358.0469 756.75,357.7813 Q757.3438,357.5 757.9688,356.9219 L757.9688,359.6406 Z "/><text fill="#000000" font-family="sans-serif" font-size="12" lengthAdjust="spacingAndGlyphs" textLength="131" x="769" y="358.1543">cpp_dependent_type</text><line style="stroke: #A80036; stroke-width: 1.5;" x1="741" x2="902" y1="370" y2="370"/><line style="stroke: #A80036; stroke-width: 1.5;" x1="741" x2="902" y1="378" y2="378"/></a><!--MD5=[2c83df7566423ec6eef14cdcbfd95db9]
class C_0000000116--><a href="https://github.com/foonathan/cppast/blob/19cbc378f8a6b3fe7d04b309784a3a0920de9e75/include/cppast/cpp_type.hpp#L290" target="_top" title="The kinds of C++ cv qualifiers." xlink:actuate="onRequest" xlink:href="https://github.com/foonathan/cppast/blob/19cbc378f8a6b3fe7d04b309784a3a0920de9e75/include/cppast/cpp_type.hpp#L290" xlink:show="new" xlink:title="The kinds of C++ cv qualifiers." xlink:type="simple"><rect fill="#FEFECE" filter="url(#f1aue0kfokq67c)" height="99.2188" id="C_0000000116" style="stroke: #A80036; stroke-width: 1.5;" width="133" x="955" y="585"/><ellipse cx="996.55" cy="601" fill="#EB937F" rx="11" ry="11" style="stroke: #A80036; stroke-width: 1.0;"/><path d="M1000.6594,607 L992.9406,607 L992.9406,594.6094 L1000.6594,594.6094 L1000.6594,596.7656 L995.3938,596.7656 L995.3938,599.4375 L1000.1594,599.4375 L1000.1594,601.5938 L995.3938,601.5938 L995.3938,604.8438 L1000.6594,604.8438 L1000.6594,607 Z "/><text fill="#000000" font-family="sans-serif" font-size="12" lengthAdjust="spacingAndGlyphs" textLength="42" x="1016.45" y="605.1543">cpp_cv</text><line style="stroke: #A80036; stroke-width: 1.5;" x1="956" x2="1087" y1="617" y2="617"/><text fill="#000000" font-family="sans-serif" font-size="11" lengthAdjust="spacingAndGlyphs" textLength="72" x="961" y="631.2104">cpp_cv_none</text><text fill="#000000" font-family="sans-serif" font-size="11" lengthAdjust="spacingAndGlyphs" textLength="75" x="961" y="644.0151">cpp_cv_const</text><text fill="#000000" font-family="sans-serif" font-size="11" lengthAdjust="spacingAndGlyphs" textLength="84" x="961" y="656.8198">cpp_cv_volatile</text><text fill="#000000" font-family="sans-serif" font-size="11" lengthAdjust="spacingAndGlyphs" textLength="121" x="961" y="669.6245">cpp_cv_const_volatile</text><line style="stroke: #A80036; stroke-width: 1.5;" x1="956" x2="1087" y1="676.2188" y2="676.2188"/></a><!--MD5=[ab698daf0814dbfc0497cc887f7e2e0b]
class C_0000000120--><a href="https://github.com/foonathan/cppast/blob/19cbc378f8a6b3fe7d04b309784a3a0920de9e75/include/cppast/cpp_type.hpp#L311" target="_top" title="A [cppast::cpp_cv]() qualified [cppast::cpp_type]()." xlink:actuate="onRequest" xlink:href="https://github.com/foonathan/cppast/blob/19cbc378f8a6b3fe7d04b309784a3a0920de9e75/include/cppast/cpp_type.hpp#L311" xlink:show="new" xlink:title="A [cppast::cpp_cv]() qualified [cppast::cpp_type]()." xlink:type="simple"><rect fill="#FEFECE" filter="url(#f1aue0kfokq67c)" height="48" id="C_0000000120" style="stroke: #A80036; stroke-width: 1.5;" width="166" x="938.5" y="338"/><ellipse cx="953.5" cy="354" fill="#ADD1B2" rx="11" ry="11" style="stroke: #A80036; stroke-width: 1.0;"/><path d="M956.4688,359.6406 Q955.8906,359.9375 955.25,360.0781 Q954.6094,360.2344 953.9063,360.2344 Q951.4063,360.2344 950.0781,358.5938 Q948.7656,356.9375 948.7656,353.8125 Q948.7656,350.6875 950.0781,349.0313 Q951.4063,347.375 953.9063,347.375 Q954.6094,347.375 955.25,347.5313 Q955.9063,347.6875 956.4688,347.9844 L956.4688,350.7031 Q955.8438,350.125 955.25,349.8594 Q954.6563,349.5781 954.0313,349.5781 Q952.6875,349.5781 952,350.6563 Q951.3125,351.7188 951.3125,353.8125 Q951.3125,355.9063 952,356.9844 Q952.6875,358.0469 954.0313,358.0469 Q954.6563,358.0469 955.25,357.7813 Q955.8438,357.5 956.4688,356.9219 L956.4688,359.6406 Z "/><text fill="#000000" font-family="sans-serif" font-size="12" lengthAdjust="spacingAndGlyphs" textLength="134" x="967.5" y="358.1543">cpp_cv_qualified_type</text><line style="stroke: #A80036; stroke-width: 1.5;" x1="939.5" x2="1103.5" y1="370" y2="370"/><line style="stroke: #A80036; stroke-width: 1.5;" x1="939.5" x2="1103.5" y1="378" y2="378"/></a><!--MD5=[e0db72544c71ee2ad517a923a67e69f5]
class C_0000000138--><a href="https://github.com/foonathan/cppast/blob/19cbc378f8a6b3fe7d04b309784a3a0920de9e75/include/cppast/cpp_type.hpp#L359" target="_top" title="A pointer to a [cppast::cpp_type]()." xlink:actuate="onRequest" xlink:href="https://github.com/foonathan/cppast/blob/19cbc378f8a6b3fe7d04b309784a3a0920de9e75/include/cppast/cpp_type.hpp#L359" xlink:show="new" xlink:title="A pointer to a [cppast::cpp_type]()." xlink:type="simple"><rect fill="#FEFECE" filter="url(#f1aue0kfokq67c)" height="48" id="C_0000000138" style="stroke: #A80036; stroke-width: 1.5;" width="139" x="1140" y="338"/><ellipse cx="1155" cy="354" fill="#ADD1B2" rx="11" ry="11" style="stroke: #A80036; stroke-width: 1.0;"/><path d="M1157.9688,359.6406 Q1157.3906,359.9375 1156.75,360.0781 Q1156.1094,360.2344 1155.4063,360.2344 Q1152.9063,360.2344 1151.5781,358.5938 Q1150.2656,356.9375 1150.2656,353.8125 Q1150.2656,350.6875 1151.5781,349.0313 Q1152.9063,347.375 1155.4063,347.375 Q1156.1094,347.375 1156.75,347.5313 Q1157.4063,347.6875 1157.9688,347.9844 L1157.9688,350.7031 Q1157.3438,350.125 1156.75,349.8594 Q1156.1563,349.5781 1155.5313,349.5781 Q1154.1875,349.5781 1153.5,350.6563 Q1152.8125,351.7188 1152.8125,353.8125 Q1152.8125,355.9063 1153.5,356.9844 Q1154.1875,358.0469 1155.5313,358.0469 Q1156.1563,358.0469 1156.75,357.7813 Q1157.3438,357.5 1157.9688,356.9219 L1157.9688,359.6406 Z "/><text fill="#000000" font-family="sans-serif" font-size="12" lengthAdjust="spacingAndGlyphs" textLength="107" x="1169" y="358.1543">cpp_pointer_type</text><line style="stroke: #A80036; stroke-width: 1.5;" x1="1141" x2="1278" y1="370" y2="370"/><line style="stroke: #A80036; stroke-width: 1.5;" x1="1141" x2="1278" y1="378" y2="378"/></a><!--MD5=[dc2a4a27e7ee8bf811686727983bf6a0]
class C_0000000152--><a href="https://github.com/foonathan/cppast/blob/19cbc378f8a6b3fe7d04b309784a3a0920de9e75/include/cppast/cpp_type.hpp#L386" target="_top" title="The kinds of C++ references." xlink:actuate="onRequest" xlink:href="https://github.com/foonathan/cppast/blob/19cbc378f8a6b3fe7d04b309784a3a0920de9e75/include/cppast/cpp_type.hpp#L386" xlink:show="new" xlink:title="The kinds of C++ references." xlink:type="simple"><rect fill="#FEFECE" filter="url(#f1aue0kfokq67c)" height="86.4141" id="C_0000000152" style="stroke: #A80036; stroke-width: 1.5;" width="122" x="1330.5" y="591.5"/><ellipse cx="1345.5" cy="607.5" fill="#EB937F" rx="11" ry="11" style="stroke: #A80036; stroke-width: 1.0;"/><path d="M1349.6094,613.5 L1341.8906,613.5 L1341.8906,601.1094 L1349.6094,601.1094 L1349.6094,603.2656 L1344.3438,603.2656 L1344.3438,605.9375 L1349.1094,605.9375 L1349.1094,608.0938 L1344.3438,608.0938 L1344.3438,611.3438 L1349.6094,611.3438 L1349.6094,613.5 Z "/><text fill="#000000" font-family="sans-serif" font-size="12" lengthAdjust="spacingAndGlyphs" textLength="90" x="1359.5" y="611.6543">cpp_reference</text><line style="stroke: #A80036; stroke-width: 1.5;" x1="1331.5" x2="1451.5" y1="623.5" y2="623.5"/><text fill="#000000" font-family="sans-serif" font-size="11" lengthAdjust="spacingAndGlyphs" textLength="76" x="1336.5" y="637.7104">cpp_ref_none</text><text fill="#000000" font-family="sans-serif" font-size="11" lengthAdjust="spacingAndGlyphs" textLength="81" x="1336.5" y="650.5151">cpp_ref_lvalue</text><text fill="#000000" font-family="sans-serif" font-size="11" lengthAdjust="spacingAndGlyphs" textLength="83" x="1336.5" y="663.3198">cpp_ref_rvalue</text><line style="stroke: #A80036; stroke-width: 1.5;" x1="1331.5" x2="1451.5" y1="669.9141" y2="669.9141"/></a><!--MD5=[6f4d13123aade0f1cee5a1937e6c088e]
class C_0000000156--><a href="https://github.com/foonathan/cppast/blob/19cbc378f8a6b3fe7d04b309784a3a0920de9e75/include/cppast/cpp_type.hpp#L394" target="_top" title="A reference to a [cppast::cpp_type]()." xlink:actuate="onRequest" xlink:href="https://github.com/foonathan/cppast/blob/19cbc378f8a6b3fe7d04b309784a3a0920de9e75/include/cppast/cpp_type.hpp#L394" xlink:show="new" xlink:title="A reference to a [cppast::cpp_type]()." xlink:type="simple"><rect fill="#FEFECE" filter="url(#f1aue0kfokq67c)" height="48" id="C_0000000156" style="stroke: #A80036; stroke-width: 1.5;" width="155" x="1314" y="338"/><ellipse cx="1329" cy="354" fill="#ADD1B2" rx="11" ry="11" style="stroke: #A80036; stroke-width: 1.0;"/><path d="M1331.9688,359.6406 Q1331.3906,359.9375 1330.75,360.0781 Q1330.1094,360.2344 1329.4063,360.2344 Q1326.9063,360.2344 1325.5781,358.5938 Q1324.2656,356.9375 1324.2656,353.8125 Q1324.2656,350.6875 1325.5781,349.0313 Q1326.9063,347.375 1329.4063,347.375 Q1330.1094,347.375 1330.75,347.5313 Q1331.4063,347.6875 1331.9688,347.9844 L1331.9688,350.7031 Q1331.3438,350.125 1330.75,349.8594 Q1330.1563,349.5781 1329.5313,349.5781 Q1328.1875,349.5781 1327.5,350.6563 Q1326.8125,351.7188 1326.8125,353.8125 Q1326.8125,355.9063 1327.5,356.9844 Q1328.1875,358.0469 1329.5313,358.0469 Q1330.1563,358.0469 1330.75,357.7813 Q1331.3438,357.5 1331.9688,356.9219 L1331.9688,359.6406 Z "/><text fill="#000000" font-family="sans-serif" font-size="12" lengthAdjust="spacingAndGlyphs" textLength="123" x="1343" y="358.1543">cpp_reference_type</text><line style="stroke: #A80036; stroke-width: 1.5;" x1="1315" x2="1468" y1="370" y2="370"/><line style="stroke: #A80036; stroke-width: 1.5;" x1="1315" x2="1468" y1="378" y2="378"/></a><!--MD5=[4f76c9392e70a5de8a8490b0481883c2]
reverse link C_0000000007 to C_0000000019--><path d="M985.69,178.06 C976.79,206.45 960.62,241.94 932.5,261 C868.25,304.56 661.72,283.11 584.5,291 C407.3,309.1 361.96,307.35 186.5,338 C180.85,338.99 175.04,340.09 169.2,341.27 " fill="none" id="C_0000000007&lt;-C_0000000019" style="stroke: #A80036; stroke-width: 1.0;"/><polygon fill="none" points="979,175.98,991.06,158.55,992.5,179.69,979,175.98" style="stroke: #A80036; stroke-width: 1.0;"/><!--MD5=[453bfefd047f6b707757e8610c467066]
link C_0000000027 to C_0000000023--><path d="M251.11,386.15 C244.75,394.96 238.34,405.44 234.5,416 C229.68,429.26 225.79,443.26 222.67,457.5 " fill="none" id="C_0000000027-&gt;C_0000000023" style="stroke: #A80036; stroke-width: 1.0; stroke-dasharray: 7.0,7.0;"/><polygon fill="#A80036" points="221.56,462.76,227.3459,454.7898,222.6008,457.8695,219.5211,453.1245,221.56,462.76" style="stroke: #A80036; stroke-width: 1.0;"/><!--MD5=[008c27c2f2005f53144b2e7ef0c5e6d4]
reverse link C_0000000027 to C_0000000023--><path d="M262.79,398.97 C259.04,416.46 254.23,438.89 249.08,462.91 " fill="none" id="C_0000000027&lt;-C_0000000023" style="stroke: #A80036; stroke-width: 1.0;"/><polygon fill="#FFFFFF" points="265.55,386.06,260.3801,391.0871,263.032,397.7929,268.202,392.7657,265.55,386.06" style="stroke: #A80036; stroke-width: 1.0;"/><rect fill="none" height="6" style="stroke: #C82930; stroke-width: 1.0;" width="6" x="261.5" y="422.0664"/><text fill="#000000" font-family="sans-serif" font-size="13" lengthAdjust="spacingAndGlyphs" textLength="33" x="271.5" y="429.0669">kind_</text><!--MD5=[d2dd8086e570c8d0f5307ea0d8beb2f0]
reverse link C_0000000007 to C_0000000027--><path d="M985.33,177.9 C976.29,206.06 960.09,241.35 932.5,261 C931.68,261.59 355.49,337.8 354.5,338 C348.72,339.17 342.75,340.52 336.79,341.96 " fill="none" id="C_0000000007&lt;-C_0000000027" style="stroke: #A80036; stroke-width: 1.0;"/><polygon fill="none" points="978.63,175.88,990.82,158.55,992.1,179.71,978.63,175.88" style="stroke: #A80036; stroke-width: 1.0;"/><!--MD5=[4e6d8c7c6fa54e3f925f9a771f38695a]
reverse link C_0000000036 to C_0000000039--><path d="M470.02,398.56 C486.69,454.93 518.72,563.23 532.7,610.5 " fill="none" id="C_0000000036&lt;-C_0000000039" style="stroke: #A80036; stroke-width: 1.0;"/><polygon fill="#FFFFFF" points="466.32,386.06,464.1845,392.9476,469.721,397.568,471.8565,390.6803,466.32,386.06" style="stroke: #A80036; stroke-width: 1.0;"/><rect fill="none" height="6" style="stroke: #C82930; stroke-width: 1.0;" width="6" x="482.5" y="422.0664"/><text fill="#000000" font-family="sans-serif" font-size="13" lengthAdjust="spacingAndGlyphs" textLength="43" x="492.5" y="429.0669">entity_</text><!--MD5=[96d49928567fbec2ab75948522e2966d]
reverse link C_0000000007 to C_0000000036--><path d="M984.49,178.4 C975.17,206.09 958.98,240.62 932.5,261 C924.22,267.37 574.71,335.81 564.5,338 C558.84,339.21 553.02,340.47 547.14,341.74 " fill="none" id="C_0000000007&lt;-C_0000000036" style="stroke: #A80036; stroke-width: 1.0;"/><polygon fill="none" points="977.88,176.05,990.34,158.91,991.29,180.08,977.88,176.05" style="stroke: #A80036; stroke-width: 1.0;"/><!--MD5=[14a09676050f75158c1db0638054197a]
reverse link C_0000000007 to C_0000000069--><path d="M983.45,177.82 C973.73,204.97 957.49,239.11 932.5,261 C923.61,268.78 787.37,314.09 705.16,340.97 " fill="none" id="C_0000000007&lt;-C_0000000069" style="stroke: #A80036; stroke-width: 1.0;"/><polygon fill="none" points="976.81,175.59,989.65,158.73,990.12,179.92,976.81,175.59" style="stroke: #A80036; stroke-width: 1.0;"/><!--MD5=[f9cf753b07ea729a9c67f837793a6265]
link C_0000000077 to C_0000000007--><path d="M854.38,337.98 C868.62,323.5 884.83,304.98 901.5,291 C921.07,274.6 933.22,279.8 950.5,261 C976.75,232.44 994.7,190.91 1000.22,163.56 " fill="none" id="C_0000000077-&gt;C_0000000007" style="stroke: #A80036; stroke-width: 1.0; stroke-dasharray: 7.0,7.0;"/><polygon fill="#A80036" points="1001.1,158.62,995.59,166.7833,1000.227,163.5432,1003.4671,168.1802,1001.1,158.62" style="stroke: #A80036; stroke-width: 1.0;"/><!--MD5=[b099ba76401aecb155a0d8552cfea41b]
reverse link C_0000000077 to C_0000000007--><path d="M863.41,329.57 C885.84,311.3 912.82,286.82 932.5,261 C957.18,228.62 976.47,185.08 986.9,158.72 " fill="none" id="C_0000000077&lt;-C_0000000007" style="stroke: #A80036; stroke-width: 1.0;"/><polygon fill="#FFFFFF" points="853.15,337.77,860.3348,337.1552,862.5307,330.2865,855.3459,330.9014,853.15,337.77" style="stroke: #A80036; stroke-width: 1.0;"/><rect fill="none" height="6" style="stroke: #C82930; stroke-width: 1.0;" width="6" x="908.5" y="297.0664"/><text fill="#000000" font-family="sans-serif" font-size="13" lengthAdjust="spacingAndGlyphs" textLength="71" x="918.5" y="304.0669">dependee_</text><!--MD5=[8b17591e67dbc16c7b62a187f4e46246]
reverse link C_0000000007 to C_0000000077--><path d="M967.1,176.67 C954.15,203.03 937.83,236.71 915.5,261 C898.22,279.8 886.07,274.6 866.5,291 C849.83,304.98 833.62,323.5 824.4,337.98 " fill="none" id="C_0000000007&lt;-C_0000000077" style="stroke: #A80036; stroke-width: 1.0;"/><polygon fill="none" points="960.93,173.35,976.17,158.62,973.44,179.64,960.93,173.35" style="stroke: #A80036; stroke-width: 1.0;"/><!--MD5=[4261ee773e9f4498c93743482c73e1c6]
link C_0000000120 to C_0000000007--><path d="M1027.43,337.84 C1028.92,296.22 1019.09,208.9 1008.08,163.8 " fill="none" id="C_0000000120-&gt;C_0000000007" style="stroke: #A80036; stroke-width: 1.0; stroke-dasharray: 7.0,7.0;"/><polygon fill="#A80036" points="1006.8,158.78,1005.1359,168.4873,1008.0295,163.6265,1012.8903,166.5201,1006.8,158.78" style="stroke: #A80036; stroke-width: 1.0;"/><!--MD5=[bd08212ad3b6ec17909f6f7bc39aecb8]
reverse link C_0000000120 to C_0000000007--><path d="M1029.21,325.1 C1030.16,319.4 1030.98,313.56 1031.5,308 C1036.57,253.78 1017.19,191.56 1004.9,158.68 " fill="none" id="C_0000000120&lt;-C_0000000007" style="stroke: #A80036; stroke-width: 1.0;"/><polygon fill="#FFFFFF" points="1026.82,337.91,1031.8481,332.7411,1029.0107,326.1117,1023.9826,331.2806,1026.82,337.91" style="stroke: #A80036; stroke-width: 1.0;"/><rect fill="none" height="6" style="stroke: #C82930; stroke-width: 1.0;" width="6" x="1035.5" y="297.0664"/><text fill="#000000" font-family="sans-serif" font-size="13" lengthAdjust="spacingAndGlyphs" textLength="35" x="1045.5" y="304.0669">type_</text><!--MD5=[473ae43f4b105e952bd49d1a3b4e9295]
reverse link C_0000000007 to C_0000000120--><path d="M990.21,179.06 C991.81,226.48 1001.08,300.53 1010.71,337.84 " fill="none" id="C_0000000007&lt;-C_0000000120" style="stroke: #A80036; stroke-width: 1.0;"/><polygon fill="none" points="983.2,178.84,990.05,158.78,997.2,178.73,983.2,178.84" style="stroke: #A80036; stroke-width: 1.0;"/><!--MD5=[a63f79e7c45c0de5106300443d0f0e22]
link C_0000000120 to C_0000000116--><path d="M1017.77,386.15 C1016.46,395.41 1015.15,406.18 1014.5,416 C1010.84,471.72 1013.74,535.6 1016.84,579.65 " fill="none" id="C_0000000120-&gt;C_0000000116" style="stroke: #A80036; stroke-width: 1.0; stroke-dasharray: 7.0,7.0;"/><polygon fill="#A80036" points="1017.2,584.65,1020.5467,575.3872,1016.8427,579.6628,1012.5672,575.9588,1017.2,584.65" style="stroke: #A80036; stroke-width: 1.0;"/><!--MD5=[8b371118ec872b0bf6212c7ce010616a]
reverse link C_0000000120 to C_0000000116--><path d="M1021.5,399.08 C1021.5,446.86 1021.5,531.32 1021.5,584.74 " fill="none" id="C_0000000120&lt;-C_0000000116" style="stroke: #A80036; stroke-width: 1.0;"/><polygon fill="#FFFFFF" points="1021.5,386.06,1017.5,392.06,1021.5,398.06,1025.5,392.06,1021.5,386.06" style="stroke: #A80036; stroke-width: 1.0;"/><rect fill="none" height="6" style="stroke: #C82930; stroke-width: 1.0;" width="6" x="1024.5" y="422.0664"/><text fill="#000000" font-family="sans-serif" font-size="13" lengthAdjust="spacingAndGlyphs" textLength="21" x="1034.5" y="429.0669">cv_</text><!--MD5=[83d471b4283c6af09901f1ba5210eddf]
link C_0000000138 to C_0000000007--><path d="M1196.12,337.84 C1162.51,295.71 1078.27,206.77 1029.91,162.18 " fill="none" id="C_0000000138-&gt;C_0000000007" style="stroke: #A80036; stroke-width: 1.0; stroke-dasharray: 7.0,7.0;"/><polygon fill="#A80036" points="1026.21,158.78,1030.151,167.806,1029.8993,162.1547,1035.5506,161.9031,1026.21,158.78" style="stroke: #A80036; stroke-width: 1.0;"/><!--MD5=[0c7cb0c2261ffbe04cdd597bfe1d473f]
reverse link C_0000000138 to C_0000000007--><path d="M1207.24,324.86 C1205.26,313.39 1201.73,301.08 1195.5,291 C1157.69,229.83 1086.6,183.37 1040.16,157.78 " fill="none" id="C_0000000138&lt;-C_0000000007" style="stroke: #A80036; stroke-width: 1.0;"/><polygon fill="#FFFFFF" points="1208.91,337.76,1212.1059,331.2958,1207.3681,325.8595,1204.1722,332.3237,1208.91,337.76" style="stroke: #A80036; stroke-width: 1.0;"/><rect fill="none" height="6" style="stroke: #C82930; stroke-width: 1.0;" width="6" x="1205.5" y="297.0664"/><text fill="#000000" font-family="sans-serif" font-size="13" lengthAdjust="spacingAndGlyphs" textLength="55" x="1215.5" y="304.0669">pointee_</text><!--MD5=[6016e7fad25ed668306ed6580e69db64]
reverse link C_0000000007 to C_0000000138--><path d="M1022.44,174.33 C1062.81,221.41 1137.28,299.26 1179.41,337.84 " fill="none" id="C_0000000007&lt;-C_0000000138" style="stroke: #A80036; stroke-width: 1.0;"/><polygon fill="none" points="1016.91,178.62,1009.46,158.78,1027.65,169.65,1016.91,178.62" style="stroke: #A80036; stroke-width: 1.0;"/><!--MD5=[f4e18843350003ee0500c9e1b3d068a2]
link C_0000000156 to C_0000000007--><path d="M1371.15,337.77 C1351.7,323.88 1323.22,306.06 1297.5,291 C1210.51,240.06 1106.04,184.18 1045.07,155.28 " fill="none" id="C_0000000156-&gt;C_0000000007" style="stroke: #A80036; stroke-width: 1.0; stroke-dasharray: 7.0,7.0;"/><polygon fill="#A80036" points="1040.39,153.08,1046.8245,160.5364,1044.9125,155.2124,1050.2364,153.3004,1040.39,153.08" style="stroke: #A80036; stroke-width: 1.0;"/><!--MD5=[5a11df9728312407823db87c7bbabac8]
reverse link C_0000000156 to C_0000000007--><path d="M1392.08,324.59 C1390.59,312.81 1387.06,300.39 1379.5,291 C1293.23,183.86 1121.54,150.01 1040.21,139.75 " fill="none" id="C_0000000156&lt;-C_0000000007" style="stroke: #A80036; stroke-width: 1.0;"/><polygon fill="#FFFFFF" points="1392.99,337.89,1396.5651,331.6275,1392.1594,325.9188,1388.5843,332.1813,1392.99,337.89" style="stroke: #A80036; stroke-width: 1.0;"/><rect fill="none" height="6" style="stroke: #C82930; stroke-width: 1.0;" width="6" x="1390.5" y="297.0664"/><text fill="#000000" font-family="sans-serif" font-size="13" lengthAdjust="spacingAndGlyphs" textLength="53" x="1400.5" y="304.0669">referee_</text><!--MD5=[47996b9c1c9b8caf6b1f2fddfb9eed6a]
reverse link C_0000000007 to C_0000000156--><path d="M1045.28,168.67 C1099.47,199.47 1187.49,247.07 1262.5,291 C1288.32,306.12 1316.92,324.02 1341.01,337.93 " fill="none" id="C_0000000007&lt;-C_0000000156" style="stroke: #A80036; stroke-width: 1.0;"/><polygon fill="none" points="1041.78,174.73,1027.93,158.7,1048.76,162.59,1041.78,174.73" style="stroke: #A80036; stroke-width: 1.0;"/><!--MD5=[69c20852cc0cde16bb824430c49548f5]
link C_0000000156 to C_0000000152--><path d="M1387.77,386.15 C1386.46,395.41 1385.15,406.18 1384.5,416 C1380.65,474.62 1384.06,542.28 1387.33,586.37 " fill="none" id="C_0000000156-&gt;C_0000000152" style="stroke: #A80036; stroke-width: 1.0; stroke-dasharray: 7.0,7.0;"/><polygon fill="#A80036" points="1387.71,591.36,1391.0303,582.0877,1387.3385,586.3738,1383.0524,582.682,1387.71,591.36" style="stroke: #A80036; stroke-width: 1.0;"/><!--MD5=[24f9eb8d824789f6967ce3cd7a8a56f2]
reverse link C_0000000156 to C_0000000152--><path d="M1391.5,399.29 C1391.5,449.11 1391.5,538.49 1391.5,591.25 " fill="none" id="C_0000000156&lt;-C_0000000152" style="stroke: #A80036; stroke-width: 1.0;"/><polygon fill="#FFFFFF" points="1391.5,386.06,1387.5,392.06,1391.5,398.06,1395.5,392.06,1391.5,386.06" style="stroke: #A80036; stroke-width: 1.0;"/><rect fill="none" height="6" style="stroke: #C82930; stroke-width: 1.0;" width="6" x="1394.5" y="422.0664"/><text fill="#000000" font-family="sans-serif" font-size="13" lengthAdjust="spacingAndGlyphs" textLength="24" x="1404.5" y="429.0669">ref_</text><!--MD5=[8a364cd720bd373d481029248a3f9da4]
@startuml
enum "cpp_type_kind" as C_0000000003
enum C_0000000003 [[https://github.com/foonathan/cppast/blob/19cbc378f8a6b3fe7d04b309784a3a0920de9e75/include/cppast/cpp_type.hpp#L17{The kinds of a [cppast::cpp_type]().}]] {
builtin_t
user_defined_t
auto_t
decltype_t
decltype_auto_t
cv_qualified_t
pointer_t
reference_t
array_t
function_t
member_function_t
member_object_t
template_parameter_t
template_instantiation_t
dependent_t
unexposed_t
}
abstract "cpp_type" as C_0000000007
abstract C_0000000007 [[https://github.com/foonathan/cppast/blob/19cbc378f8a6b3fe7d04b309784a3a0920de9e75/include/cppast/cpp_type.hpp#L44{Base class for all C++ types.}]] {
}
class "cpp_unexposed_type" as C_0000000019
class C_0000000019 [[https://github.com/foonathan/cppast/blob/19cbc378f8a6b3fe7d04b309784a3a0920de9e75/include/cppast/cpp_type.hpp#L95{An unexposed [cppast::cpp_type](). This is one where no further information besides a name is available.}]] {
}
enum "cpp_builtin_type_kind" as C_0000000023
enum C_0000000023 [[https://github.com/foonathan/cppast/blob/19cbc378f8a6b3fe7d04b309784a3a0920de9e75/include/cppast/cpp_type.hpp#L122{The C++ builtin types.}]] {
cpp_void
cpp_bool
cpp_uchar
cpp_ushort
cpp_uint
cpp_ulong
cpp_ulonglong
cpp_uint128
cpp_schar
cpp_short
cpp_int
cpp_long
cpp_longlong
cpp_int128
cpp_float
cpp_double
cpp_longdouble
cpp_float128
cpp_char
cpp_wchar
cpp_char16
cpp_char32
cpp_nullptr
}
class "cpp_builtin_type" as C_0000000027
class C_0000000027 [[https://github.com/foonathan/cppast/blob/19cbc378f8a6b3fe7d04b309784a3a0920de9e75/include/cppast/cpp_type.hpp#L161{A builtin [cppast::cpp_type](). This is one where there is no associated [cppast::cpp_entity]().}]] {
}
class "basic_cpp_entity_ref<cpp_entity,detail::cpp_type_ref_predicate>" as C_0000000039
class C_0000000039 {
}
class "cpp_user_defined_type" as C_0000000036
class C_0000000036 [[https://github.com/foonathan/cppast/blob/19cbc378f8a6b3fe7d04b309784a3a0920de9e75/include/cppast/cpp_type.hpp#L202{A user-defined [cppast::cpp_type](). It has an associated [cppast::cpp_entity]().}]] {
}
class "cpp_auto_type" as C_0000000069
class C_0000000069 [[https://github.com/foonathan/cppast/blob/19cbc378f8a6b3fe7d04b309784a3a0920de9e75/include/cppast/cpp_type.hpp#L230{A [cppast::cpp_type]() that isn't given but deduced by `auto`.}]] {
}
class "cpp_dependent_type" as C_0000000077
class C_0000000077 [[https://github.com/foonathan/cppast/blob/19cbc378f8a6b3fe7d04b309784a3a0920de9e75/include/cppast/cpp_type.hpp#L249{A [cppast::cpp_type]() that depends on another type.}]] {
}
enum "cpp_cv" as C_0000000116
enum C_0000000116 [[https://github.com/foonathan/cppast/blob/19cbc378f8a6b3fe7d04b309784a3a0920de9e75/include/cppast/cpp_type.hpp#L290{The kinds of C++ cv qualifiers.}]] {
cpp_cv_none
cpp_cv_const
cpp_cv_volatile
cpp_cv_const_volatile
}
class "cpp_cv_qualified_type" as C_0000000120
class C_0000000120 [[https://github.com/foonathan/cppast/blob/19cbc378f8a6b3fe7d04b309784a3a0920de9e75/include/cppast/cpp_type.hpp#L311{A [cppast::cpp_cv]() qualified [cppast::cpp_type]().}]] {
}
class "cpp_pointer_type" as C_0000000138
class C_0000000138 [[https://github.com/foonathan/cppast/blob/19cbc378f8a6b3fe7d04b309784a3a0920de9e75/include/cppast/cpp_type.hpp#L359{A pointer to a [cppast::cpp_type]().}]] {
}
enum "cpp_reference" as C_0000000152
enum C_0000000152 [[https://github.com/foonathan/cppast/blob/19cbc378f8a6b3fe7d04b309784a3a0920de9e75/include/cppast/cpp_type.hpp#L386{The kinds of C++ references.}]] {
cpp_ref_none
cpp_ref_lvalue
cpp_ref_rvalue
}
class "cpp_reference_type" as C_0000000156
class C_0000000156 [[https://github.com/foonathan/cppast/blob/19cbc378f8a6b3fe7d04b309784a3a0920de9e75/include/cppast/cpp_type.hpp#L394{A reference to a [cppast::cpp_type]().}]] {
}
C_0000000007 <|- - C_0000000019
C_0000000027 ..> C_0000000023
C_0000000027 o- - C_0000000023 : -kind_
C_0000000007 <|- - C_0000000027
C_0000000036 o- - C_0000000039 : -entity_
C_0000000007 <|- - C_0000000036
C_0000000007 <|- - C_0000000069
C_0000000077 ..> C_0000000007
C_0000000077 o- - C_0000000007 : -dependee_
C_0000000007 <|- - C_0000000077
C_0000000120 ..> C_0000000007
C_0000000120 ..> C_0000000116
C_0000000120 o- - C_0000000007 : -type_
C_0000000120 o- - C_0000000116 : -cv_
C_0000000007 <|- - C_0000000120
C_0000000138 ..> C_0000000007
C_0000000138 o- - C_0000000007 : -pointee_
C_0000000007 <|- - C_0000000138
C_0000000156 ..> C_0000000007
C_0000000156 ..> C_0000000152
C_0000000156 o- - C_0000000007 : -referee_
C_0000000156 o- - C_0000000152 : -ref_
C_0000000007 <|- - C_0000000156
@enduml

PlantUML version 1.2020.02(Sun Mar 01 11:22:07 CET 2020)
(GPL source distribution)
Java Runtime: OpenJDK Runtime Environment
JVM: OpenJDK 64-Bit Server VM
Java Version: 11.0.15+10-Ubuntu-0ubuntu0.21.10.1
Operating System: Linux
Default Encoding: UTF-8
Language: en
Country: US
--></g></svg>