<?xml version="1.0" encoding="UTF-8" standalone="no"?><svg xmlns="http://www.w3.org/2000/svg" xmlns:xlink="http://www.w3.org/1999/xlink" contentScriptType="application/ecmascript" contentStyleType="text/css" height="971px" preserveAspectRatio="none" style="width:881px;height:971px;" version="1.1" viewBox="0 0 881 971" width="881px" zoomAndPan="magnify"><defs><filter height="300%" id="fhrzpgguzpo0e" width="300%" x="-1" y="-1"><feGaussianBlur result="blurOut" stdDeviation="2.0"/><feColorMatrix in="blurOut" result="blurOut2" type="matrix" values="0 0 0 0 0 0 0 0 0 0 0 0 0 0 0 0 0 0 .4 0"/><feOffset dx="4.0" dy="4.0" in="blurOut2" result="blurOut3"/><feBlend in="SourceGraphic" in2="blurOut3" mode="normal"/></filter></defs><g><!--MD5=[2e375d1b00f6fc270fb14cf7f93f607e]
class C_0000000176--><a href="https://github.com/foonathan/cppast/blob/19cbc378f8a6b3fe7d04b309784a3a0920de9e75/include/cppast/cpp_entity.hpp#L22" target="_top" title="The name of a scope. It is a combination of a name and optional template parameters." xlink:actuate="onRequest" xlink:href="https://github.com/foonathan/cppast/blob/19cbc378f8a6b3fe7d04b309784a3a0920de9e75/include/cppast/cpp_entity.hpp#L22" xlink:show="new" xlink:title="The name of a scope. It is a combination of a name and optional template parameters." xlink:type="simple"><rect fill="#FEFECE" filter="url(#fhrzpgguzpo0e)" height="48" id="C_0000000176" style="stroke: #A80036; stroke-width: 1.5;" width="140" x="48" y="648"/><ellipse cx="63" cy="664" fill="#ADD1B2" rx="11" ry="11" style="stroke: #A80036; stroke-width: 1.0;"/><path d="M65.9688,669.6406 Q65.3906,669.9375 64.75,670.0781 Q64.1094,670.2344 63.4063,670.2344 Q60.9063,670.2344 59.5781,668.5938 Q58.2656,666.9375 58.2656,663.8125 Q58.2656,660.6875 59.5781,659.0313 Q60.9063,657.375 63.4063,657.375 Q64.1094,657.375 64.75,657.5313 Q65.4063,657.6875 65.9688,657.9844 L65.9688,660.7031 Q65.3438,660.125 64.75,659.8594 Q64.1563,659.5781 63.5313,659.5781 Q62.1875,659.5781 61.5,660.6563 Q60.8125,661.7188 60.8125,663.8125 Q60.8125,665.9063 61.5,666.9844 Q62.1875,668.0469 63.5313,668.0469 Q64.1563,668.0469 64.75,667.7813 Q65.3438,667.5 65.9688,666.9219 L65.9688,669.6406 Z "/><text fill="#000000" font-family="sans-serif" font-size="12" lengthAdjust="spacingAndGlyphs" textLength="108" x="77" y="668.1543">cpp_scope_name</text><line style="stroke: #A80036; stroke-width: 1.5;" x1="49" x2="187" y1="680" y2="680"/><line style="stroke: #A80036; stroke-width: 1.5;" x1="49" x2="187" y1="688" y2="688"/></a><!--MD5=[cf295b530a4fefc129655c34795ddb61]
class C_0000000186--><a href="https://github.com/foonathan/cppast/blob/19cbc378f8a6b3fe7d04b309784a3a0920de9e75/include/cppast/cpp_entity.hpp#L47" target="_top" title="The base class for all entities in the C++ AST." xlink:actuate="onRequest" xlink:href="https://github.com/foonathan/cppast/blob/19cbc378f8a6b3fe7d04b309784a3a0920de9e75/include/cppast/cpp_entity.hpp#L47" xlink:show="new" xlink:title="The base class for all entities in the C++ AST." xlink:type="simple"><rect fill="#FEFECE" filter="url(#fhrzpgguzpo0e)" height="48" id="C_0000000186" style="stroke: #A80036; stroke-width: 1.5;" width="97" x="414.5" y="677"/><ellipse cx="429.5" cy="693" fill="#A9DCDF" rx="11" ry="11" style="stroke: #A80036; stroke-width: 1.0;"/><path d="M429.6094,688.3438 L428.4531,693.4219 L430.7813,693.4219 L429.6094,688.3438 Z M428.125,686.1094 L431.1094,686.1094 L434.4688,698.5 L432.0156,698.5 L431.25,695.4375 L427.9688,695.4375 L427.2188,698.5 L424.7813,698.5 L428.125,686.1094 Z "/><text fill="#000000" font-family="sans-serif" font-size="12" font-style="italic" lengthAdjust="spacingAndGlyphs" textLength="65" x="443.5" y="697.1543">cpp_entity</text><line style="stroke: #A80036; stroke-width: 1.5;" x1="415.5" x2="510.5" y1="709" y2="709"/><line style="stroke: #A80036; stroke-width: 1.5;" x1="415.5" x2="510.5" y1="717" y2="717"/></a><!--MD5=[92a7be24723580040e565313b61ca633]
class C_0000000204--><a href="https://github.com/foonathan/cppast/blob/19cbc378f8a6b3fe7d04b309784a3a0920de9e75/include/cppast/cpp_entity.hpp#L187" target="_top" title="A [cppast::cpp_entity]() that isn't exposed directly. The only information available is the raw source code." xlink:actuate="onRequest" xlink:href="https://github.com/foonathan/cppast/blob/19cbc378f8a6b3fe7d04b309784a3a0920de9e75/include/cppast/cpp_entity.hpp#L187" xlink:show="new" xlink:title="A [cppast::cpp_entity]() that isn't exposed directly. The only information available is the raw source code." xlink:type="simple"><rect fill="#FEFECE" filter="url(#fhrzpgguzpo0e)" height="48" id="C_0000000204" style="stroke: #A80036; stroke-width: 1.5;" width="171" x="699" y="677"/><ellipse cx="714" cy="693" fill="#ADD1B2" rx="11" ry="11" style="stroke: #A80036; stroke-width: 1.0;"/><path d="M716.9688,698.6406 Q716.3906,698.9375 715.75,699.0781 Q715.1094,699.2344 714.4063,699.2344 Q711.9063,699.2344 710.5781,697.5938 Q709.2656,695.9375 709.2656,692.8125 Q709.2656,689.6875 710.5781,688.0313 Q711.9063,686.375 714.4063,686.375 Q715.1094,686.375 715.75,686.5313 Q716.4063,686.6875 716.9688,686.9844 L716.9688,689.7031 Q716.3438,689.125 715.75,688.8594 Q715.1563,688.5781 714.5313,688.5781 Q713.1875,688.5781 712.5,689.6563 Q711.8125,690.7188 711.8125,692.8125 Q711.8125,694.9063 712.5,695.9844 Q713.1875,697.0469 714.5313,697.0469 Q715.1563,697.0469 715.75,696.7813 Q716.3438,696.5 716.9688,695.9219 L716.9688,698.6406 Z "/><text fill="#000000" font-family="sans-serif" font-size="12" lengthAdjust="spacingAndGlyphs" textLength="139" x="728" y="697.1543">cpp_unexposed_entity</text><line style="stroke: #A80036; stroke-width: 1.5;" x1="700" x2="869" y1="709" y2="709"/><line style="stroke: #A80036; stroke-width: 1.5;" x1="700" x2="869" y1="717" y2="717"/></a><!--MD5=[4ec174012454b35711359f7e6a5e858d]
class C_0000000219--><a href="https://github.com/foonathan/cppast/blob/19cbc378f8a6b3fe7d04b309784a3a0920de9e75/include/cppast/cpp_entity_container.hpp#L15" target="_top" title="cpp_entity_container" xlink:actuate="onRequest" xlink:href="https://github.com/foonathan/cppast/blob/19cbc378f8a6b3fe7d04b309784a3a0920de9e75/include/cppast/cpp_entity_container.hpp#L15" xlink:show="new" xlink:title="cpp_entity_container" xlink:type="simple"><rect fill="#FEFECE" filter="url(#fhrzpgguzpo0e)" height="48" id="C_0000000219" style="stroke: #A80036; stroke-width: 1.5;" width="224" x="6" y="565"/><ellipse cx="21" cy="581" fill="#ADD1B2" rx="11" ry="11" style="stroke: #A80036; stroke-width: 1.0;"/><path d="M23.9688,586.6406 Q23.3906,586.9375 22.75,587.0781 Q22.1094,587.2344 21.4063,587.2344 Q18.9063,587.2344 17.5781,585.5938 Q16.2656,583.9375 16.2656,580.8125 Q16.2656,577.6875 17.5781,576.0313 Q18.9063,574.375 21.4063,574.375 Q22.1094,574.375 22.75,574.5313 Q23.4063,574.6875 23.9688,574.9844 L23.9688,577.7031 Q23.3438,577.125 22.75,576.8594 Q22.1563,576.5781 21.5313,576.5781 Q20.1875,576.5781 19.5,577.6563 Q18.8125,578.7188 18.8125,580.8125 Q18.8125,582.9063 19.5,583.9844 Q20.1875,585.0469 21.5313,585.0469 Q22.1563,585.0469 22.75,584.7813 Q23.3438,584.5 23.9688,583.9219 L23.9688,586.6406 Z "/><text fill="#000000" font-family="sans-serif" font-size="12" lengthAdjust="spacingAndGlyphs" textLength="130" x="35" y="585.1543">cpp_entity_container</text><rect fill="#FFFFFF" height="15.9688" style="stroke: #000000; stroke-width: 1.0; stroke-dasharray: 2.0,2.0;" width="60" x="173" y="562"/><text fill="#000000" font-family="sans-serif" font-size="12" font-style="italic" lengthAdjust="spacingAndGlyphs" textLength="58" x="174" y="574.1387">Derived,T</text><line style="stroke: #A80036; stroke-width: 1.5;" x1="7" x2="229" y1="597" y2="597"/><line style="stroke: #A80036; stroke-width: 1.5;" x1="7" x2="229" y1="605" y2="605"/></a><!--MD5=[7a67464c529391ac392a902141ea7226]
class C_0000000229--><a href="https://github.com/foonathan/cppast/blob/19cbc378f8a6b3fe7d04b309784a3a0920de9e75/include/cppast/cpp_entity_index.hpp#L38" target="_top" title="A [ts::strong_typedef]() representing the unique id of a [cppast::cpp_entity](). It is comparable for equality." xlink:actuate="onRequest" xlink:href="https://github.com/foonathan/cppast/blob/19cbc378f8a6b3fe7d04b309784a3a0920de9e75/include/cppast/cpp_entity_index.hpp#L38" xlink:show="new" xlink:title="A [ts::strong_typedef]() representing the unique id of a [cppast::cpp_entity](). It is comparable for equality." xlink:type="simple"><rect fill="#FEFECE" filter="url(#fhrzpgguzpo0e)" height="48" id="C_0000000229" style="stroke: #A80036; stroke-width: 1.5;" width="113" x="728" y="855"/><ellipse cx="743" cy="871" fill="#ADD1B2" rx="11" ry="11" style="stroke: #A80036; stroke-width: 1.0;"/><path d="M745.9688,876.6406 Q745.3906,876.9375 744.75,877.0781 Q744.1094,877.2344 743.4063,877.2344 Q740.9063,877.2344 739.5781,875.5938 Q738.2656,873.9375 738.2656,870.8125 Q738.2656,867.6875 739.5781,866.0313 Q740.9063,864.375 743.4063,864.375 Q744.1094,864.375 744.75,864.5313 Q745.4063,864.6875 745.9688,864.9844 L745.9688,867.7031 Q745.3438,867.125 744.75,866.8594 Q744.1563,866.5781 743.5313,866.5781 Q742.1875,866.5781 741.5,867.6563 Q740.8125,868.7188 740.8125,870.8125 Q740.8125,872.9063 741.5,873.9844 Q742.1875,875.0469 743.5313,875.0469 Q744.1563,875.0469 744.75,874.7813 Q745.3438,874.5 745.9688,873.9219 L745.9688,876.6406 Z "/><text fill="#000000" font-family="sans-serif" font-size="12" lengthAdjust="spacingAndGlyphs" textLength="81" x="757" y="875.1543">cpp_entity_id</text><line style="stroke: #A80036; stroke-width: 1.5;" x1="729" x2="840" y1="887" y2="887"/><line style="stroke: #A80036; stroke-width: 1.5;" x1="729" x2="840" y1="895" y2="895"/></a><!--MD5=[ea35dd5432bd1a9025e7ab5139ed02e4]
class C_0000000233--><a href="https://github.com/foonathan/cppast/blob/19cbc378f8a6b3fe7d04b309784a3a0920de9e75/include/cppast/cpp_entity_index.hpp#L58" target="_top" title="An index of all [cppast::cpp_entity]() objects created. It maps [cppast::cpp_entity_id]() to references to the [cppast::cpp_entity]() objects." xlink:actuate="onRequest" xlink:href="https://github.com/foonathan/cppast/blob/19cbc378f8a6b3fe7d04b309784a3a0920de9e75/include/cppast/cpp_entity_index.hpp#L58" xlink:show="new" xlink:title="An index of all [cppast::cpp_entity]() objects created. It maps [cppast::cpp_entity_id]() to references to the [cppast::cpp_entity]() objects." xlink:type="simple"><rect fill="#FEFECE" filter="url(#fhrzpgguzpo0e)" height="48" id="C_0000000233" style="stroke: #A80036; stroke-width: 1.5;" width="135" x="395.5" y="814"/><ellipse cx="410.5" cy="830" fill="#ADD1B2" rx="11" ry="11" style="stroke: #A80036; stroke-width: 1.0;"/><path d="M413.4688,835.6406 Q412.8906,835.9375 412.25,836.0781 Q411.6094,836.2344 410.9063,836.2344 Q408.4063,836.2344 407.0781,834.5938 Q405.7656,832.9375 405.7656,829.8125 Q405.7656,826.6875 407.0781,825.0313 Q408.4063,823.375 410.9063,823.375 Q411.6094,823.375 412.25,823.5313 Q412.9063,823.6875 413.4688,823.9844 L413.4688,826.7031 Q412.8438,826.125 412.25,825.8594 Q411.6563,825.5781 411.0313,825.5781 Q409.6875,825.5781 409,826.6563 Q408.3125,827.7188 408.3125,829.8125 Q408.3125,831.9063 409,832.9844 Q409.6875,834.0469 411.0313,834.0469 Q411.6563,834.0469 412.25,833.7813 Q412.8438,833.5 413.4688,832.9219 L413.4688,835.6406 Z "/><text fill="#000000" font-family="sans-serif" font-size="12" lengthAdjust="spacingAndGlyphs" textLength="103" x="424.5" y="834.1543">cpp_entity_index</text><line style="stroke: #A80036; stroke-width: 1.5;" x1="396.5" x2="529.5" y1="846" y2="846"/><line style="stroke: #A80036; stroke-width: 1.5;" x1="396.5" x2="529.5" y1="854" y2="854"/></a><!--MD5=[a662c9678bc137329127fe4bbe04fe1a]
class C_0000000260--><a href="https://github.com/foonathan/cppast/blob/19cbc378f8a6b3fe7d04b309784a3a0920de9e75/include/cppast/cpp_entity_index.hpp#L62" target="_top" title="Exception thrown on duplicate entity definition." xlink:actuate="onRequest" xlink:href="https://github.com/foonathan/cppast/blob/19cbc378f8a6b3fe7d04b309784a3a0920de9e75/include/cppast/cpp_entity_index.hpp#L62" xlink:show="new" xlink:title="Exception thrown on duplicate entity definition." xlink:type="simple"><rect fill="#FEFECE" filter="url(#fhrzpgguzpo0e)" height="48" id="C_0000000260" style="stroke: #A80036; stroke-width: 1.5;" width="191" x="22.5" y="814"/><ellipse cx="37.5" cy="830" fill="#ADD1B2" rx="11" ry="11" style="stroke: #A80036; stroke-width: 1.0;"/><path d="M40.4688,835.6406 Q39.8906,835.9375 39.25,836.0781 Q38.6094,836.2344 37.9063,836.2344 Q35.4063,836.2344 34.0781,834.5938 Q32.7656,832.9375 32.7656,829.8125 Q32.7656,826.6875 34.0781,825.0313 Q35.4063,823.375 37.9063,823.375 Q38.6094,823.375 39.25,823.5313 Q39.9063,823.6875 40.4688,823.9844 L40.4688,826.7031 Q39.8438,826.125 39.25,825.8594 Q38.6563,825.5781 38.0313,825.5781 Q36.6875,825.5781 36,826.6563 Q35.3125,827.7188 35.3125,829.8125 Q35.3125,831.9063 36,832.9844 Q36.6875,834.0469 38.0313,834.0469 Q38.6563,834.0469 39.25,833.7813 Q39.8438,833.5 40.4688,832.9219 L40.4688,835.6406 Z "/><text fill="#000000" font-family="sans-serif" font-size="12" lengthAdjust="spacingAndGlyphs" textLength="159" x="51.5" y="834.1543">duplicate_definition_error</text><line style="stroke: #A80036; stroke-width: 1.5;" x1="23.5" x2="212.5" y1="846" y2="846"/><line style="stroke: #A80036; stroke-width: 1.5;" x1="23.5" x2="212.5" y1="854" y2="854"/></a><!--MD5=[53119661c16b18ef89ea7dd8bb7f280f]
class C_0000000264--><a href="https://github.com/foonathan/cppast/blob/19cbc378f8a6b3fe7d04b309784a3a0920de9e75/include/cppast/cpp_entity_index.hpp#L116" target="_top" title="hash" xlink:actuate="onRequest" xlink:href="https://github.com/foonathan/cppast/blob/19cbc378f8a6b3fe7d04b309784a3a0920de9e75/include/cppast/cpp_entity_index.hpp#L116" xlink:show="new" xlink:title="hash" xlink:type="simple"><rect fill="#FEFECE" filter="url(#fhrzpgguzpo0e)" height="48" id="C_0000000264" style="stroke: #A80036; stroke-width: 1.5;" width="63" x="86.5" y="897"/><ellipse cx="101.5" cy="913" fill="#ADD1B2" rx="11" ry="11" style="stroke: #A80036; stroke-width: 1.0;"/><path d="M104.4688,918.6406 Q103.8906,918.9375 103.25,919.0781 Q102.6094,919.2344 101.9063,919.2344 Q99.4063,919.2344 98.0781,917.5938 Q96.7656,915.9375 96.7656,912.8125 Q96.7656,909.6875 98.0781,908.0313 Q99.4063,906.375 101.9063,906.375 Q102.6094,906.375 103.25,906.5313 Q103.9063,906.6875 104.4688,906.9844 L104.4688,909.7031 Q103.8438,909.125 103.25,908.8594 Q102.6563,908.5781 102.0313,908.5781 Q100.6875,908.5781 100,909.6563 Q99.3125,910.7188 99.3125,912.8125 Q99.3125,914.9063 100,915.9844 Q100.6875,917.0469 102.0313,917.0469 Q102.6563,917.0469 103.25,916.7813 Q103.8438,916.5 104.4688,915.9219 L104.4688,918.6406 Z "/><text fill="#000000" font-family="sans-serif" font-size="12" lengthAdjust="spacingAndGlyphs" textLength="31" x="115.5" y="917.1543">hash</text><line style="stroke: #A80036; stroke-width: 1.5;" x1="87.5" x2="148.5" y1="929" y2="929"/><line style="stroke: #A80036; stroke-width: 1.5;" x1="87.5" x2="148.5" y1="937" y2="937"/></a><!--MD5=[bdca1a72b25ed814fa1855adb00d821f]
class C_0000000270--><a href="https://github.com/foonathan/cppast/blob/19cbc378f8a6b3fe7d04b309784a3a0920de9e75/include/cppast/cpp_entity_index.hpp#L124" target="_top" title="value" xlink:actuate="onRequest" xlink:href="https://github.com/foonathan/cppast/blob/19cbc378f8a6b3fe7d04b309784a3a0920de9e75/include/cppast/cpp_entity_index.hpp#L124" xlink:show="new" xlink:title="value" xlink:type="simple"><rect fill="#FEFECE" filter="url(#fhrzpgguzpo0e)" height="48" id="C_0000000270" style="stroke: #A80036; stroke-width: 1.5;" width="65" x="85.5" y="731"/><ellipse cx="100.5" cy="747" fill="#ADD1B2" rx="11" ry="11" style="stroke: #A80036; stroke-width: 1.0;"/><path d="M103.4688,752.6406 Q102.8906,752.9375 102.25,753.0781 Q101.6094,753.2344 100.9063,753.2344 Q98.4063,753.2344 97.0781,751.5938 Q95.7656,749.9375 95.7656,746.8125 Q95.7656,743.6875 97.0781,742.0313 Q98.4063,740.375 100.9063,740.375 Q101.6094,740.375 102.25,740.5313 Q102.9063,740.6875 103.4688,740.9844 L103.4688,743.7031 Q102.8438,743.125 102.25,742.8594 Q101.6563,742.5781 101.0313,742.5781 Q99.6875,742.5781 99,743.6563 Q98.3125,744.7188 98.3125,746.8125 Q98.3125,748.9063 99,749.9844 Q99.6875,751.0469 101.0313,751.0469 Q101.6563,751.0469 102.25,750.7813 Q102.8438,750.5 103.4688,749.9219 L103.4688,752.6406 Z "/><text fill="#000000" font-family="sans-serif" font-size="12" lengthAdjust="spacingAndGlyphs" textLength="33" x="114.5" y="751.1543">value</text><line style="stroke: #A80036; stroke-width: 1.5;" x1="86.5" x2="149.5" y1="763" y2="763"/><line style="stroke: #A80036; stroke-width: 1.5;" x1="86.5" x2="149.5" y1="771" y2="771"/></a><!--MD5=[3e582a412b5e37fd659ef2916e06388b]
class C_0000000306--><a href="https://github.com/foonathan/cppast/blob/19cbc378f8a6b3fe7d04b309784a3a0920de9e75/include/cppast/cpp_entity_kind.hpp#L13" target="_top" title="All possible kinds of C++ entities." xlink:actuate="onRequest" xlink:href="https://github.com/foonathan/cppast/blob/19cbc378f8a6b3fe7d04b309784a3a0920de9e75/include/cppast/cpp_entity_kind.hpp#L13" xlink:show="new" xlink:title="All possible kinds of C++ entities." xlink:type="simple"><rect fill="#FEFECE" filter="url(#fhrzpgguzpo0e)" height="521.7734" id="C_0000000306" style="stroke: #A80036; stroke-width: 1.5;" width="205" x="15.5" y="8"/><ellipse cx="65.75" cy="24" fill="#EB937F" rx="11" ry="11" style="stroke: #A80036; stroke-width: 1.0;"/><path d="M69.8594,30 L62.1406,30 L62.1406,17.6094 L69.8594,17.6094 L69.8594,19.7656 L64.5938,19.7656 L64.5938,22.4375 L69.3594,22.4375 L69.3594,24.5938 L64.5938,24.5938 L64.5938,27.8438 L69.8594,27.8438 L69.8594,30 Z "/><text fill="#000000" font-family="sans-serif" font-size="12" lengthAdjust="spacingAndGlyphs" textLength="96" x="86.25" y="28.1543">cpp_entity_kind</text><line style="stroke: #A80036; stroke-width: 1.5;" x1="16.5" x2="219.5" y1="40" y2="40"/><text fill="#000000" font-family="sans-serif" font-size="11" lengthAdjust="spacingAndGlyphs" textLength="27" x="21.5" y="54.2104">file_t</text><text fill="#000000" font-family="sans-serif" font-size="11" lengthAdjust="spacingAndGlyphs" textLength="112" x="21.5" y="67.0151">macro_parameter_t</text><text fill="#000000" font-family="sans-serif" font-size="11" lengthAdjust="spacingAndGlyphs" textLength="104" x="21.5" y="79.8198">macro_definition_t</text><text fill="#000000" font-family="sans-serif" font-size="11" lengthAdjust="spacingAndGlyphs" textLength="104" x="21.5" y="92.6245">include_directive_t</text><text fill="#000000" font-family="sans-serif" font-size="11" lengthAdjust="spacingAndGlyphs" textLength="108" x="21.5" y="105.4292">language_linkage_t</text><text fill="#000000" font-family="sans-serif" font-size="11" lengthAdjust="spacingAndGlyphs" textLength="76" x="21.5" y="118.2339">namespace_t</text><text fill="#000000" font-family="sans-serif" font-size="11" lengthAdjust="spacingAndGlyphs" textLength="109" x="21.5" y="131.0386">namespace_alias_t</text><text fill="#000000" font-family="sans-serif" font-size="11" lengthAdjust="spacingAndGlyphs" textLength="95" x="21.5" y="143.8433">using_directive_t</text><text fill="#000000" font-family="sans-serif" font-size="11" lengthAdjust="spacingAndGlyphs" textLength="110" x="21.5" y="156.6479">using_declaration_t</text><text fill="#000000" font-family="sans-serif" font-size="11" lengthAdjust="spacingAndGlyphs" textLength="67" x="21.5" y="169.4526">type_alias_t</text><text fill="#000000" font-family="sans-serif" font-size="11" lengthAdjust="spacingAndGlyphs" textLength="42" x="21.5" y="182.2573">enum_t</text><text fill="#000000" font-family="sans-serif" font-size="11" lengthAdjust="spacingAndGlyphs" textLength="78" x="21.5" y="195.062">enum_value_t</text><text fill="#000000" font-family="sans-serif" font-size="11" lengthAdjust="spacingAndGlyphs" textLength="40" x="21.5" y="207.8667">class_t</text><text fill="#000000" font-family="sans-serif" font-size="11" lengthAdjust="spacingAndGlyphs" textLength="105" x="21.5" y="220.6714">access_specifier_t</text><text fill="#000000" font-family="sans-serif" font-size="11" lengthAdjust="spacingAndGlyphs" textLength="74" x="21.5" y="233.4761">base_class_t</text><text fill="#000000" font-family="sans-serif" font-size="11" lengthAdjust="spacingAndGlyphs" textLength="55" x="21.5" y="246.2808">variable_t</text><text fill="#000000" font-family="sans-serif" font-size="11" lengthAdjust="spacingAndGlyphs" textLength="109" x="21.5" y="259.0854">member_variable_t</text><text fill="#000000" font-family="sans-serif" font-size="11" lengthAdjust="spacingAndGlyphs" textLength="48" x="21.5" y="271.8901">bitfield_t</text><text fill="#000000" font-family="sans-serif" font-size="11" lengthAdjust="spacingAndGlyphs" textLength="121" x="21.5" y="284.6948">function_parameter_t</text><text fill="#000000" font-family="sans-serif" font-size="11" lengthAdjust="spacingAndGlyphs" textLength="55" x="21.5" y="297.4995">function_t</text><text fill="#000000" font-family="sans-serif" font-size="11" lengthAdjust="spacingAndGlyphs" textLength="109" x="21.5" y="310.3042">member_function_t</text><text fill="#000000" font-family="sans-serif" font-size="11" lengthAdjust="spacingAndGlyphs" textLength="92" x="21.5" y="323.1089">conversion_op_t</text><text fill="#000000" font-family="sans-serif" font-size="11" lengthAdjust="spacingAndGlyphs" textLength="75" x="21.5" y="335.9136">constructor_t</text><text fill="#000000" font-family="sans-serif" font-size="11" lengthAdjust="spacingAndGlyphs" textLength="69" x="21.5" y="348.7183">destructor_t</text><text fill="#000000" font-family="sans-serif" font-size="11" lengthAdjust="spacingAndGlyphs" textLength="43" x="21.5" y="361.5229">friend_t</text><text fill="#000000" font-family="sans-serif" font-size="11" lengthAdjust="spacingAndGlyphs" textLength="156" x="21.5" y="374.3276">template_type_parameter_t</text><text fill="#000000" font-family="sans-serif" font-size="11" lengthAdjust="spacingAndGlyphs" textLength="183" x="21.5" y="387.1323">non_type_template_parameter_t</text><text fill="#000000" font-family="sans-serif" font-size="11" lengthAdjust="spacingAndGlyphs" textLength="182" x="21.5" y="399.937">template_template_parameter_t</text><text fill="#000000" font-family="sans-serif" font-size="11" lengthAdjust="spacingAndGlyphs" textLength="93" x="21.5" y="412.7417">alias_template_t</text><text fill="#000000" font-family="sans-serif" font-size="11" lengthAdjust="spacingAndGlyphs" textLength="111" x="21.5" y="425.5464">variable_template_t</text><text fill="#000000" font-family="sans-serif" font-size="11" lengthAdjust="spacingAndGlyphs" textLength="111" x="21.5" y="438.3511">function_template_t</text><text fill="#000000" font-family="sans-serif" font-size="11" lengthAdjust="spacingAndGlyphs" textLength="193" x="21.5" y="451.1558">function_template_specialization_t</text><text fill="#000000" font-family="sans-serif" font-size="11" lengthAdjust="spacingAndGlyphs" textLength="96" x="21.5" y="463.9604">class_template_t</text><text fill="#000000" font-family="sans-serif" font-size="11" lengthAdjust="spacingAndGlyphs" textLength="178" x="21.5" y="476.7651">class_template_specialization_t</text><text fill="#000000" font-family="sans-serif" font-size="11" lengthAdjust="spacingAndGlyphs" textLength="84" x="21.5" y="489.5698">static_assert_t</text><text fill="#000000" font-family="sans-serif" font-size="11" lengthAdjust="spacingAndGlyphs" textLength="72" x="21.5" y="502.3745">unexposed_t</text><text fill="#000000" font-family="sans-serif" font-size="11" lengthAdjust="spacingAndGlyphs" textLength="31" x="21.5" y="515.1792">count</text><line style="stroke: #A80036; stroke-width: 1.5;" x1="16.5" x2="219.5" y1="521.7734" y2="521.7734"/></a><!--MD5=[faf028c91c6b17b3656fa27ce01b25c9]
class C_0000000311--><a href="https://github.com/foonathan/cppast/blob/19cbc378f8a6b3fe7d04b309784a3a0920de9e75/include/cppast/cpp_entity_ref.hpp#L23" target="_top" title="basic_cpp_entity_ref" xlink:actuate="onRequest" xlink:href="https://github.com/foonathan/cppast/blob/19cbc378f8a6b3fe7d04b309784a3a0920de9e75/include/cppast/cpp_entity_ref.hpp#L23" xlink:show="new" xlink:title="basic_cpp_entity_ref" xlink:type="simple"><rect fill="#FEFECE" filter="url(#fhrzpgguzpo0e)" height="48" id="C_0000000311" style="stroke: #A80036; stroke-width: 1.5;" width="232" x="347" y="912"/><ellipse cx="362" cy="928" fill="#ADD1B2" rx="11" ry="11" style="stroke: #A80036; stroke-width: 1.0;"/><path d="M364.9688,933.6406 Q364.3906,933.9375 363.75,934.0781 Q363.1094,934.2344 362.4063,934.2344 Q359.9063,934.2344 358.5781,932.5938 Q357.2656,930.9375 357.2656,927.8125 Q357.2656,924.6875 358.5781,923.0313 Q359.9063,921.375 362.4063,921.375 Q363.1094,921.375 363.75,921.5313 Q364.4063,921.6875 364.9688,921.9844 L364.9688,924.7031 Q364.3438,924.125 363.75,923.8594 Q363.1563,923.5781 362.5313,923.5781 Q361.1875,923.5781 360.5,924.6563 Q359.8125,925.7188 359.8125,927.8125 Q359.8125,929.9063 360.5,930.9844 Q361.1875,932.0469 362.5313,932.0469 Q363.1563,932.0469 363.75,931.7813 Q364.3438,931.5 364.9688,930.9219 L364.9688,933.6406 Z "/><text fill="#000000" font-family="sans-serif" font-size="12" lengthAdjust="spacingAndGlyphs" textLength="126" x="376" y="932.1543">basic_cpp_entity_ref</text><rect fill="#FFFFFF" height="15.9688" style="stroke: #000000; stroke-width: 1.0; stroke-dasharray: 2.0,2.0;" width="72" x="510" y="909"/><text fill="#000000" font-family="sans-serif" font-size="12" font-style="italic" lengthAdjust="spacingAndGlyphs" textLength="70" x="511" y="921.1387">T,Predicate</text><line style="stroke: #A80036; stroke-width: 1.5;" x1="348" x2="578" y1="944" y2="944"/><line style="stroke: #A80036; stroke-width: 1.5;" x1="348" x2="578" y1="952" y2="952"/></a><!--MD5=[1b94aec23a576623405d9c5dd7723c32]
reverse link C_0000000176 to C_0000000186--><path d="M201.39,678.97 C268.01,684.6 359.48,692.33 414.46,696.98 " fill="none" id="C_0000000176&lt;-C_0000000186" style="stroke: #A80036; stroke-width: 1.0;"/><polygon fill="#FFFFFF" points="188.41,677.87,194.0501,682.3632,200.367,678.8851,194.7269,674.3919,188.41,677.87" style="stroke: #A80036; stroke-width: 1.0;"/><rect fill="none" height="6" style="stroke: #C82930; stroke-width: 1.0;" width="6" x="263" y="674.0664"/><text fill="#000000" font-family="sans-serif" font-size="13" lengthAdjust="spacingAndGlyphs" textLength="43" x="273" y="681.0669">entity_</text><!--MD5=[c20b997112b6206e89a2df8d89a2502a]
reverse link C_0000000186 to C_0000000186--><path d="M430.38,663.98 C430.46,651.76 441.33,642 463,642 C491.89,642 501.59,659.35 492.11,676.76 " fill="none" id="C_0000000186&lt;-C_0000000186" style="stroke: #A80036; stroke-width: 1.0;"/><polygon fill="#FFFFFF" points="433.89,676.76,436.1591,669.9152,430.7136,665.188,428.4445,672.0328,433.89,676.76" style="stroke: #A80036; stroke-width: 1.0;"/><rect fill="none" height="6" style="stroke: #C82930; stroke-width: 1.0;" width="6" x="434.5" y="626.0664"/><text fill="#000000" font-family="sans-serif" font-size="13" lengthAdjust="spacingAndGlyphs" textLength="49" x="444.5" y="633.0669">parent_</text><!--MD5=[dc5b57bbccb0163d1ed2bed5b448a23f]
reverse link C_0000000186 to C_0000000204--><path d="M531.92,701 C580.69,701 646.76,701 698.96,701 " fill="none" id="C_0000000186&lt;-C_0000000204" style="stroke: #A80036; stroke-width: 1.0;"/><polygon fill="none" points="531.83,708,511.83,701,531.83,694,531.83,708" style="stroke: #A80036; stroke-width: 1.0;"/><!--MD5=[1946ad8cec4d42265eb3c81705ecf808]
reverse link C_0000000233 to C_0000000229--><path d="M543.65,846.11 C581.65,850.19 627.73,855.44 669,861 C688.24,863.59 709.25,866.79 727.95,869.76 " fill="none" id="C_0000000233&lt;-C_0000000229" style="stroke: #A80036; stroke-width: 1.0;"/><polygon fill="#FFFFFF" points="530.56,844.72,536.1046,849.3306,542.4931,845.9858,536.9485,841.3752,530.56,844.72" style="stroke: #A80036; stroke-width: 1.0;"/><rect fill="none" height="6" style="stroke: #C82930; stroke-width: 1.0;" width="6" x="617" y="843.0664"/><text fill="#000000" font-family="sans-serif" font-size="13" lengthAdjust="spacingAndGlyphs" textLength="36" x="627" y="850.0669">map_</text><!--MD5=[1946ad8cec4d42265eb3c81705ecf808]
reverse link C_0000000233 to C_0000000229--><path d="M535.09,866.55 C558.26,874.49 584.37,882.03 609,886 C635.33,890.24 642.35,886.81 669,886 C688.21,885.41 709.21,884.27 727.91,883.08 " fill="none" id="C_0000000233&lt;-C_0000000229-1" style="stroke: #A80036; stroke-width: 1.0;"/><polygon fill="#FFFFFF" points="522.54,862.12,526.8656,867.8897,533.8552,866.1159,529.5295,860.3462,522.54,862.12" style="stroke: #A80036; stroke-width: 1.0;"/><rect fill="none" height="6" style="stroke: #C82930; stroke-width: 1.0;" width="6" x="624" y="875.0664"/><text fill="#000000" font-family="sans-serif" font-size="13" lengthAdjust="spacingAndGlyphs" textLength="22" x="634" y="882.0669">ns_</text><!--MD5=[53b72d93cf3698afabc3f4d962e28aa6]
link C_0000000260 to C_0000000233--><path d="M213.63,838 C265.93,838 330.24,838 380.32,838 " fill="none" id="C_0000000260-&gt;C_0000000233" style="stroke: #A80036; stroke-width: 1.0;"/><ellipse cx="387.38" cy="838" fill="#FFFFFF" rx="8" ry="8" style="stroke: #A80036; stroke-width: 1.0;"/><line style="stroke: #A80036; stroke-width: 1.0;" x1="379.38" x2="395.38" y1="838" y2="838"/><line style="stroke: #A80036; stroke-width: 1.0;" x1="387.38" x2="387.38" y1="830" y2="846"/><!--MD5=[bd5651f2776e32921d9284b49fd4dea9]
link C_0000000264 to C_0000000233--><path d="M149.74,913.56 C201.2,901.11 306.41,875.65 380.44,857.74 " fill="none" id="C_0000000264-&gt;C_0000000233" style="stroke: #A80036; stroke-width: 1.0;"/><ellipse cx="387.4843" cy="856.0311" fill="#FFFFFF" rx="8" ry="8" style="stroke: #A80036; stroke-width: 1.0;"/><line style="stroke: #A80036; stroke-width: 1.0;" x1="379.7086" x2="395.26" y1="857.9122" y2="854.15"/><line style="stroke: #A80036; stroke-width: 1.0;" x1="385.6032" x2="389.3654" y1="848.2554" y2="863.8068"/><!--MD5=[769f51bd27d290ffee8edd57a68b16d0]
reverse link C_0000000270 to C_0000000186--><path d="M163.61,747.98 C228.39,737.78 348,718.95 414.42,708.49 " fill="none" id="C_0000000270&lt;-C_0000000186" style="stroke: #A80036; stroke-width: 1.0;"/><polygon fill="#FFFFFF" points="150.65,750.02,157.1973,753.042,162.5051,748.1606,155.9577,745.1386,150.65,750.02" style="stroke: #A80036; stroke-width: 1.0;"/><ellipse cx="269.5" cy="717.0664" fill="none" rx="3" ry="3" style="stroke: #038048; stroke-width: 1.0;"/><text fill="#000000" font-family="sans-serif" font-size="13" lengthAdjust="spacingAndGlyphs" textLength="36" x="276.5" y="721.0669">entity</text><!--MD5=[e4a786949e1897c02da8cb7006793ba3]
link C_0000000270 to C_0000000233--><path d="M150.65,762.66 C202.48,775.2 307.01,800.49 380.61,818.31 " fill="none" id="C_0000000270-&gt;C_0000000233" style="stroke: #A80036; stroke-width: 1.0;"/><ellipse cx="387.5843" cy="819.9889" fill="#FFFFFF" rx="8" ry="8" style="stroke: #A80036; stroke-width: 1.0;"/><line style="stroke: #A80036; stroke-width: 1.0;" x1="379.8086" x2="395.36" y1="818.1078" y2="821.87"/><line style="stroke: #A80036; stroke-width: 1.0;" x1="389.4654" x2="385.7032" y1="812.2132" y2="827.7646"/><!--MD5=[021a6e19c7744149c010c0f89e5a385f]
reverse link C_0000000311 to C_0000000229--><path d="M592.48,925.99 C617.97,922.95 644.44,919.02 669,914 C688.45,910.02 709.32,904.14 727.85,898.33 " fill="none" id="C_0000000311&lt;-C_0000000229" style="stroke: #A80036; stroke-width: 1.0;"/><polygon fill="#FFFFFF" points="579.25,927.51,585.6678,930.798,591.1714,926.1385,584.7535,922.8505,579.25,927.51" style="stroke: #A80036; stroke-width: 1.0;"/><rect fill="none" height="6" style="stroke: #C82930; stroke-width: 1.0;" width="6" x="612" y="903.0664"/><text fill="#000000" font-family="sans-serif" font-size="13" lengthAdjust="spacingAndGlyphs" textLength="46" x="622" y="910.0669">target_</text><!--MD5=[f50a0c898dfcc61403a9564b58c58a3e]
@startuml
left to right direction
class "cpp_scope_name" as C_0000000176
class C_0000000176 [[https://github.com/foonathan/cppast/blob/19cbc378f8a6b3fe7d04b309784a3a0920de9e75/include/cppast/cpp_entity.hpp#L22{The name of a scope. It is a combination of a name and optional template parameters.}]] {
}
abstract "cpp_entity" as C_0000000186
abstract C_0000000186 [[https://github.com/foonathan/cppast/blob/19cbc378f8a6b3fe7d04b309784a3a0920de9e75/include/cppast/cpp_entity.hpp#L47{The base class for all entities in the C++ AST.}]] {
}
class "cpp_unexposed_entity" as C_0000000204
class C_0000000204 [[https://github.com/foonathan/cppast/blob/19cbc378f8a6b3fe7d04b309784a3a0920de9e75/include/cppast/cpp_entity.hpp#L187{A [cppast::cpp_entity]() that isn't exposed directly. The only information available is the raw source code.}]] {
}
class "cpp_entity_container<Derived,T>" as C_0000000219
class C_0000000219 [[https://github.com/foonathan/cppast/blob/19cbc378f8a6b3fe7d04b309784a3a0920de9e75/include/cppast/cpp_entity_container.hpp#L15{cpp_entity_container}]] {
}
class "cpp_entity_id" as C_0000000229
class C_0000000229 [[https://github.com/foonathan/cppast/blob/19cbc378f8a6b3fe7d04b309784a3a0920de9e75/include/cppast/cpp_entity_index.hpp#L38{A [ts::strong_typedef]() representing the unique id of a [cppast::cpp_entity](). It is comparable for equality.}]] {
}
class "cpp_entity_index" as C_0000000233
class C_0000000233 [[https://github.com/foonathan/cppast/blob/19cbc378f8a6b3fe7d04b309784a3a0920de9e75/include/cppast/cpp_entity_index.hpp#L58{An index of all [cppast::cpp_entity]() objects created. It maps [cppast::cpp_entity_id]() to references to the [cppast::cpp_entity]() objects.}]] {
}
class "duplicate_definition_error" as C_0000000260
class C_0000000260 [[https://github.com/foonathan/cppast/blob/19cbc378f8a6b3fe7d04b309784a3a0920de9e75/include/cppast/cpp_entity_index.hpp#L62{Exception thrown on duplicate entity definition.}]] {
}
class "hash" as C_0000000264
class C_0000000264 [[https://github.com/foonathan/cppast/blob/19cbc378f8a6b3fe7d04b309784a3a0920de9e75/include/cppast/cpp_entity_index.hpp#L116{hash}]] {
}
class "value" as C_0000000270
class C_0000000270 [[https://github.com/foonathan/cppast/blob/19cbc378f8a6b3fe7d04b309784a3a0920de9e75/include/cppast/cpp_entity_index.hpp#L124{value}]] {
}
enum "cpp_entity_kind" as C_0000000306
enum C_0000000306 [[https://github.com/foonathan/cppast/blob/19cbc378f8a6b3fe7d04b309784a3a0920de9e75/include/cppast/cpp_entity_kind.hpp#L13{All possible kinds of C++ entities.}]] {
file_t
macro_parameter_t
macro_definition_t
include_directive_t
language_linkage_t
namespace_t
namespace_alias_t
using_directive_t
using_declaration_t
type_alias_t
enum_t
enum_value_t
class_t
access_specifier_t
base_class_t
variable_t
member_variable_t
bitfield_t
function_parameter_t
function_t
member_function_t
conversion_op_t
constructor_t
destructor_t
friend_t
template_type_parameter_t
non_type_template_parameter_t
template_template_parameter_t
alias_template_t
variable_template_t
function_template_t
function_template_specialization_t
class_template_t
class_template_specialization_t
static_assert_t
unexposed_t
count
}
class "basic_cpp_entity_ref<T,Predicate>" as C_0000000311
class C_0000000311 [[https://github.com/foonathan/cppast/blob/19cbc378f8a6b3fe7d04b309784a3a0920de9e75/include/cppast/cpp_entity_ref.hpp#L23{basic_cpp_entity_ref}]] {
}
C_0000000176 o- - C_0000000186 : -entity_
C_0000000186 o- - C_0000000186 : -parent_
C_0000000186 <|- - C_0000000204
C_0000000233 o- - C_0000000229 : -map_
C_0000000233 o- - C_0000000229 : -ns_
C_0000000260 - -+ C_0000000233
C_0000000264 - -+ C_0000000233
C_0000000270 o- - C_0000000186 : +entity
C_0000000270 - -+ C_0000000233
C_0000000311 o- - C_0000000229 : -target_
@enduml

PlantUML version 1.2020.02(Sun Mar 01 11:22:07 CET 2020)
(GPL source distribution)
Java Runtime: OpenJDK Runtime Environment
JVM: OpenJDK 64-Bit Server VM
Java Version: 11.0.15+10-Ubuntu-0ubuntu0.21.10.1
Operating System: Linux
Default Encoding: UTF-8
Language: en
Country: US
--></g></svg>