<?xml version="1.0" encoding="UTF-8" standalone="no"?><svg xmlns="http://www.w3.org/2000/svg" xmlns:xlink="http://www.w3.org/1999/xlink" contentScriptType="application/ecmascript" contentStyleType="text/css" height="1332px" preserveAspectRatio="none" style="width:400px;height:1332px;" version="1.1" viewBox="0 0 400 1332" width="400px" zoomAndPan="magnify"><defs><filter height="300%" id="f1u3dwbntc1yiq" width="300%" x="-1" y="-1"><feGaussianBlur result="blurOut" stdDeviation="2.0"/><feColorMatrix in="blurOut" result="blurOut2" type="matrix" values="0 0 0 0 0 0 0 0 0 0 0 0 0 0 0 0 0 0 .4 0"/><feOffset dx="4.0" dy="4.0" in="blurOut2" result="blurOut3"/><feBlend in="SourceGraphic" in2="blurOut3" mode="normal"/></filter></defs><g><text fill="#000000" font-family="sans-serif" font-size="18" lengthAdjust="spacingAndGlyphs" textLength="302" x="52.5" y="16.708">'cpp_type' class hierarchy diagram</text><!--MD5=[dff4e56684c07f855648fc3236fc910f]
class C_0000026248340214462662--><a href="https://github.com/foonathan/cppast/blob/f00df6675d87c6983033d270728c57a55cd3db22/include/cppast/cppast_fwd.hpp#L27" target="_top" title="cpp_decltype_auto_type" xlink:actuate="onRequest" xlink:href="https://github.com/foonathan/cppast/blob/f00df6675d87c6983033d270728c57a55cd3db22/include/cppast/cppast_fwd.hpp#L27" xlink:show="new" xlink:title="cpp_decltype_auto_type" xlink:type="simple"><rect fill="#FEFECE" filter="url(#f1u3dwbntc1yiq)" height="48" id="C_0000026248340214462662" style="stroke: #A80036; stroke-width: 1.5;" width="182" x="180.5" y="28.9531"/><ellipse cx="195.5" cy="44.9531" fill="#ADD1B2" rx="11" ry="11" style="stroke: #A80036; stroke-width: 1.0;"/><path d="M198.4688,50.5938 Q197.8906,50.8906 197.25,51.0313 Q196.6094,51.1875 195.9063,51.1875 Q193.4063,51.1875 192.0781,49.5469 Q190.7656,47.8906 190.7656,44.7656 Q190.7656,41.6406 192.0781,39.9844 Q193.4063,38.3281 195.9063,38.3281 Q196.6094,38.3281 197.25,38.4844 Q197.9063,38.6406 198.4688,38.9375 L198.4688,41.6563 Q197.8438,41.0781 197.25,40.8125 Q196.6563,40.5313 196.0313,40.5313 Q194.6875,40.5313 194,41.6094 Q193.3125,42.6719 193.3125,44.7656 Q193.3125,46.8594 194,47.9375 Q194.6875,49 196.0313,49 Q196.6563,49 197.25,48.7344 Q197.8438,48.4531 198.4688,47.875 L198.4688,50.5938 Z "/><text fill="#000000" font-family="sans-serif" font-size="12" lengthAdjust="spacingAndGlyphs" textLength="150" x="209.5" y="49.1074">cpp_decltype_auto_type</text><line style="stroke: #A80036; stroke-width: 1.5;" x1="181.5" x2="361.5" y1="60.9531" y2="60.9531"/><line style="stroke: #A80036; stroke-width: 1.5;" x1="181.5" x2="361.5" y1="68.9531" y2="68.9531"/></a><!--MD5=[490e8eada6517dc89cb1c388ece35bcf]
class C_0000342846994454958214--><a href="https://github.com/foonathan/cppast/blob/f00df6675d87c6983033d270728c57a55cd3db22/include/cppast/cppast_fwd.hpp#L26" target="_top" title="cpp_cv_qualified_type" xlink:actuate="onRequest" xlink:href="https://github.com/foonathan/cppast/blob/f00df6675d87c6983033d270728c57a55cd3db22/include/cppast/cppast_fwd.hpp#L26" xlink:show="new" xlink:title="cpp_cv_qualified_type" xlink:type="simple"><rect fill="#FEFECE" filter="url(#f1u3dwbntc1yiq)" height="48" id="C_0000342846994454958214" style="stroke: #A80036; stroke-width: 1.5;" width="166" x="188.5" y="111.9531"/><ellipse cx="203.5" cy="127.9531" fill="#ADD1B2" rx="11" ry="11" style="stroke: #A80036; stroke-width: 1.0;"/><path d="M206.4688,133.5938 Q205.8906,133.8906 205.25,134.0313 Q204.6094,134.1875 203.9063,134.1875 Q201.4063,134.1875 200.0781,132.5469 Q198.7656,130.8906 198.7656,127.7656 Q198.7656,124.6406 200.0781,122.9844 Q201.4063,121.3281 203.9063,121.3281 Q204.6094,121.3281 205.25,121.4844 Q205.9063,121.6406 206.4688,121.9375 L206.4688,124.6563 Q205.8438,124.0781 205.25,123.8125 Q204.6563,123.5313 204.0313,123.5313 Q202.6875,123.5313 202,124.6094 Q201.3125,125.6719 201.3125,127.7656 Q201.3125,129.8594 202,130.9375 Q202.6875,132 204.0313,132 Q204.6563,132 205.25,131.7344 Q205.8438,131.4531 206.4688,130.875 L206.4688,133.5938 Z "/><text fill="#000000" font-family="sans-serif" font-size="12" lengthAdjust="spacingAndGlyphs" textLength="134" x="217.5" y="132.1074">cpp_cv_qualified_type</text><line style="stroke: #A80036; stroke-width: 1.5;" x1="189.5" x2="353.5" y1="143.9531" y2="143.9531"/><line style="stroke: #A80036; stroke-width: 1.5;" x1="189.5" x2="353.5" y1="151.9531" y2="151.9531"/></a><!--MD5=[56b8da8b7bb18d514c35c9af45c1e9d7]
class C_0000507998479194737071--><a href="https://github.com/foonathan/cppast/blob/f00df6675d87c6983033d270728c57a55cd3db22/include/cppast/cppast_fwd.hpp#L29" target="_top" title="cpp_dependent_type" xlink:actuate="onRequest" xlink:href="https://github.com/foonathan/cppast/blob/f00df6675d87c6983033d270728c57a55cd3db22/include/cppast/cppast_fwd.hpp#L29" xlink:show="new" xlink:title="cpp_dependent_type" xlink:type="simple"><rect fill="#FEFECE" filter="url(#f1u3dwbntc1yiq)" height="48" id="C_0000507998479194737071" style="stroke: #A80036; stroke-width: 1.5;" width="163" x="190" y="194.9531"/><ellipse cx="205" cy="210.9531" fill="#ADD1B2" rx="11" ry="11" style="stroke: #A80036; stroke-width: 1.0;"/><path d="M207.9688,216.5938 Q207.3906,216.8906 206.75,217.0313 Q206.1094,217.1875 205.4063,217.1875 Q202.9063,217.1875 201.5781,215.5469 Q200.2656,213.8906 200.2656,210.7656 Q200.2656,207.6406 201.5781,205.9844 Q202.9063,204.3281 205.4063,204.3281 Q206.1094,204.3281 206.75,204.4844 Q207.4063,204.6406 207.9688,204.9375 L207.9688,207.6563 Q207.3438,207.0781 206.75,206.8125 Q206.1563,206.5313 205.5313,206.5313 Q204.1875,206.5313 203.5,207.6094 Q202.8125,208.6719 202.8125,210.7656 Q202.8125,212.8594 203.5,213.9375 Q204.1875,215 205.5313,215 Q206.1563,215 206.75,214.7344 Q207.3438,214.4531 207.9688,213.875 L207.9688,216.5938 Z "/><text fill="#000000" font-family="sans-serif" font-size="12" lengthAdjust="spacingAndGlyphs" textLength="131" x="219" y="215.1074">cpp_dependent_type</text><line style="stroke: #A80036; stroke-width: 1.5;" x1="191" x2="352" y1="226.9531" y2="226.9531"/><line style="stroke: #A80036; stroke-width: 1.5;" x1="191" x2="352" y1="234.9531" y2="234.9531"/></a><!--MD5=[0dee96e1b8e5b58df9dff51c24d47c43]
class C_0000600573949475383075--><a href="https://github.com/foonathan/cppast/blob/f00df6675d87c6983033d270728c57a55cd3db22/include/cppast/cppast_fwd.hpp#L58" target="_top" title="cpp_reference_type" xlink:actuate="onRequest" xlink:href="https://github.com/foonathan/cppast/blob/f00df6675d87c6983033d270728c57a55cd3db22/include/cppast/cppast_fwd.hpp#L58" xlink:show="new" xlink:title="cpp_reference_type" xlink:type="simple"><rect fill="#FEFECE" filter="url(#f1u3dwbntc1yiq)" height="48" id="C_0000600573949475383075" style="stroke: #A80036; stroke-width: 1.5;" width="155" x="194" y="277.9531"/><ellipse cx="209" cy="293.9531" fill="#ADD1B2" rx="11" ry="11" style="stroke: #A80036; stroke-width: 1.0;"/><path d="M211.9688,299.5938 Q211.3906,299.8906 210.75,300.0313 Q210.1094,300.1875 209.4063,300.1875 Q206.9063,300.1875 205.5781,298.5469 Q204.2656,296.8906 204.2656,293.7656 Q204.2656,290.6406 205.5781,288.9844 Q206.9063,287.3281 209.4063,287.3281 Q210.1094,287.3281 210.75,287.4844 Q211.4063,287.6406 211.9688,287.9375 L211.9688,290.6563 Q211.3438,290.0781 210.75,289.8125 Q210.1563,289.5313 209.5313,289.5313 Q208.1875,289.5313 207.5,290.6094 Q206.8125,291.6719 206.8125,293.7656 Q206.8125,295.8594 207.5,296.9375 Q208.1875,298 209.5313,298 Q210.1563,298 210.75,297.7344 Q211.3438,297.4531 211.9688,296.875 L211.9688,299.5938 Z "/><text fill="#000000" font-family="sans-serif" font-size="12" lengthAdjust="spacingAndGlyphs" textLength="123" x="223" y="298.1074">cpp_reference_type</text><line style="stroke: #A80036; stroke-width: 1.5;" x1="195" x2="348" y1="309.9531" y2="309.9531"/><line style="stroke: #A80036; stroke-width: 1.5;" x1="195" x2="348" y1="317.9531" y2="317.9531"/></a><!--MD5=[82b0838a3236b96b7f948dc3458b0935]
class C_0000601730303705395408--><a href="https://github.com/foonathan/cppast/blob/f00df6675d87c6983033d270728c57a55cd3db22/include/cppast/cppast_fwd.hpp#L74" target="_top" title="cpp_unexposed_type" xlink:actuate="onRequest" xlink:href="https://github.com/foonathan/cppast/blob/f00df6675d87c6983033d270728c57a55cd3db22/include/cppast/cppast_fwd.hpp#L74" xlink:show="new" xlink:title="cpp_unexposed_type" xlink:type="simple"><rect fill="#FEFECE" filter="url(#f1u3dwbntc1yiq)" height="48" id="C_0000601730303705395408" style="stroke: #A80036; stroke-width: 1.5;" width="163" x="190" y="360.9531"/><ellipse cx="205" cy="376.9531" fill="#ADD1B2" rx="11" ry="11" style="stroke: #A80036; stroke-width: 1.0;"/><path d="M207.9688,382.5938 Q207.3906,382.8906 206.75,383.0313 Q206.1094,383.1875 205.4063,383.1875 Q202.9063,383.1875 201.5781,381.5469 Q200.2656,379.8906 200.2656,376.7656 Q200.2656,373.6406 201.5781,371.9844 Q202.9063,370.3281 205.4063,370.3281 Q206.1094,370.3281 206.75,370.4844 Q207.4063,370.6406 207.9688,370.9375 L207.9688,373.6563 Q207.3438,373.0781 206.75,372.8125 Q206.1563,372.5313 205.5313,372.5313 Q204.1875,372.5313 203.5,373.6094 Q202.8125,374.6719 202.8125,376.7656 Q202.8125,378.8594 203.5,379.9375 Q204.1875,381 205.5313,381 Q206.1563,381 206.75,380.7344 Q207.3438,380.4531 207.9688,379.875 L207.9688,382.5938 Z "/><text fill="#000000" font-family="sans-serif" font-size="12" lengthAdjust="spacingAndGlyphs" textLength="131" x="219" y="381.1074">cpp_unexposed_type</text><line style="stroke: #A80036; stroke-width: 1.5;" x1="191" x2="352" y1="392.9531" y2="392.9531"/><line style="stroke: #A80036; stroke-width: 1.5;" x1="191" x2="352" y1="400.9531" y2="400.9531"/></a><!--MD5=[e0f3ab009905de610d265d3e58fc7fe2]
class C_0000603633382993980808--><a href="https://github.com/foonathan/cppast/blob/f00df6675d87c6983033d270728c57a55cd3db22/include/cppast/cppast_fwd.hpp#L53" target="_top" title="cpp_member_object_type" xlink:actuate="onRequest" xlink:href="https://github.com/foonathan/cppast/blob/f00df6675d87c6983033d270728c57a55cd3db22/include/cppast/cppast_fwd.hpp#L53" xlink:show="new" xlink:title="cpp_member_object_type" xlink:type="simple"><rect fill="#FEFECE" filter="url(#f1u3dwbntc1yiq)" height="48" id="C_0000603633382993980808" style="stroke: #A80036; stroke-width: 1.5;" width="190" x="176.5" y="443.9531"/><ellipse cx="191.5" cy="459.9531" fill="#ADD1B2" rx="11" ry="11" style="stroke: #A80036; stroke-width: 1.0;"/><path d="M194.4688,465.5938 Q193.8906,465.8906 193.25,466.0313 Q192.6094,466.1875 191.9063,466.1875 Q189.4063,466.1875 188.0781,464.5469 Q186.7656,462.8906 186.7656,459.7656 Q186.7656,456.6406 188.0781,454.9844 Q189.4063,453.3281 191.9063,453.3281 Q192.6094,453.3281 193.25,453.4844 Q193.9063,453.6406 194.4688,453.9375 L194.4688,456.6563 Q193.8438,456.0781 193.25,455.8125 Q192.6563,455.5313 192.0313,455.5313 Q190.6875,455.5313 190,456.6094 Q189.3125,457.6719 189.3125,459.7656 Q189.3125,461.8594 190,462.9375 Q190.6875,464 192.0313,464 Q192.6563,464 193.25,463.7344 Q193.8438,463.4531 194.4688,462.875 L194.4688,465.5938 Z "/><text fill="#000000" font-family="sans-serif" font-size="12" lengthAdjust="spacingAndGlyphs" textLength="158" x="205.5" y="464.1074">cpp_member_object_type</text><line style="stroke: #A80036; stroke-width: 1.5;" x1="177.5" x2="365.5" y1="475.9531" y2="475.9531"/><line style="stroke: #A80036; stroke-width: 1.5;" x1="177.5" x2="365.5" y1="483.9531" y2="483.9531"/></a><!--MD5=[1faf603e281fc68731c9eee739036f90]
class C_0000861535705589766807--><a href="https://github.com/foonathan/cppast/blob/f00df6675d87c6983033d270728c57a55cd3db22/include/cppast/cppast_fwd.hpp#L57" target="_top" title="cpp_pointer_type" xlink:actuate="onRequest" xlink:href="https://github.com/foonathan/cppast/blob/f00df6675d87c6983033d270728c57a55cd3db22/include/cppast/cppast_fwd.hpp#L57" xlink:show="new" xlink:title="cpp_pointer_type" xlink:type="simple"><rect fill="#FEFECE" filter="url(#f1u3dwbntc1yiq)" height="48" id="C_0000861535705589766807" style="stroke: #A80036; stroke-width: 1.5;" width="139" x="202" y="526.9531"/><ellipse cx="217" cy="542.9531" fill="#ADD1B2" rx="11" ry="11" style="stroke: #A80036; stroke-width: 1.0;"/><path d="M219.9688,548.5938 Q219.3906,548.8906 218.75,549.0313 Q218.1094,549.1875 217.4063,549.1875 Q214.9063,549.1875 213.5781,547.5469 Q212.2656,545.8906 212.2656,542.7656 Q212.2656,539.6406 213.5781,537.9844 Q214.9063,536.3281 217.4063,536.3281 Q218.1094,536.3281 218.75,536.4844 Q219.4063,536.6406 219.9688,536.9375 L219.9688,539.6563 Q219.3438,539.0781 218.75,538.8125 Q218.1563,538.5313 217.5313,538.5313 Q216.1875,538.5313 215.5,539.6094 Q214.8125,540.6719 214.8125,542.7656 Q214.8125,544.8594 215.5,545.9375 Q216.1875,547 217.5313,547 Q218.1563,547 218.75,546.7344 Q219.3438,546.4531 219.9688,545.875 L219.9688,548.5938 Z "/><text fill="#000000" font-family="sans-serif" font-size="12" lengthAdjust="spacingAndGlyphs" textLength="107" x="231" y="547.1074">cpp_pointer_type</text><line style="stroke: #A80036; stroke-width: 1.5;" x1="203" x2="340" y1="558.9531" y2="558.9531"/><line style="stroke: #A80036; stroke-width: 1.5;" x1="203" x2="340" y1="566.9531" y2="566.9531"/></a><!--MD5=[3c36395395de29fca0dcea3f9c4005f8]
class C_0001009421424714355715--><a href="https://github.com/foonathan/cppast/blob/f00df6675d87c6983033d270728c57a55cd3db22/include/cppast/cppast_fwd.hpp#L63" target="_top" title="cpp_template_instantiation_type" xlink:actuate="onRequest" xlink:href="https://github.com/foonathan/cppast/blob/f00df6675d87c6983033d270728c57a55cd3db22/include/cppast/cppast_fwd.hpp#L63" xlink:show="new" xlink:title="cpp_template_instantiation_type" xlink:type="simple"><rect fill="#FEFECE" filter="url(#f1u3dwbntc1yiq)" height="48" id="C_0001009421424714355715" style="stroke: #A80036; stroke-width: 1.5;" width="235" x="154" y="609.9531"/><ellipse cx="169" cy="625.9531" fill="#ADD1B2" rx="11" ry="11" style="stroke: #A80036; stroke-width: 1.0;"/><path d="M171.9688,631.5938 Q171.3906,631.8906 170.75,632.0313 Q170.1094,632.1875 169.4063,632.1875 Q166.9063,632.1875 165.5781,630.5469 Q164.2656,628.8906 164.2656,625.7656 Q164.2656,622.6406 165.5781,620.9844 Q166.9063,619.3281 169.4063,619.3281 Q170.1094,619.3281 170.75,619.4844 Q171.4063,619.6406 171.9688,619.9375 L171.9688,622.6563 Q171.3438,622.0781 170.75,621.8125 Q170.1563,621.5313 169.5313,621.5313 Q168.1875,621.5313 167.5,622.6094 Q166.8125,623.6719 166.8125,625.7656 Q166.8125,627.8594 167.5,628.9375 Q168.1875,630 169.5313,630 Q170.1563,630 170.75,629.7344 Q171.3438,629.4531 171.9688,628.875 L171.9688,631.5938 Z "/><text fill="#000000" font-family="sans-serif" font-size="12" lengthAdjust="spacingAndGlyphs" textLength="203" x="183" y="630.1074">cpp_template_instantiation_type</text><line style="stroke: #A80036; stroke-width: 1.5;" x1="155" x2="388" y1="641.9531" y2="641.9531"/><line style="stroke: #A80036; stroke-width: 1.5;" x1="155" x2="388" y1="649.9531" y2="649.9531"/></a><!--MD5=[7f94a7ca03d3c5d47e2118c25dd7c93b]
class C_0001184982835175222056--><a href="https://github.com/foonathan/cppast/blob/f00df6675d87c6983033d270728c57a55cd3db22/include/cppast/cppast_fwd.hpp#L28" target="_top" title="cpp_decltype_type" xlink:actuate="onRequest" xlink:href="https://github.com/foonathan/cppast/blob/f00df6675d87c6983033d270728c57a55cd3db22/include/cppast/cppast_fwd.hpp#L28" xlink:show="new" xlink:title="cpp_decltype_type" xlink:type="simple"><rect fill="#FEFECE" filter="url(#f1u3dwbntc1yiq)" height="48" id="C_0001184982835175222056" style="stroke: #A80036; stroke-width: 1.5;" width="147" x="198" y="692.9531"/><ellipse cx="213" cy="708.9531" fill="#ADD1B2" rx="11" ry="11" style="stroke: #A80036; stroke-width: 1.0;"/><path d="M215.9688,714.5938 Q215.3906,714.8906 214.75,715.0313 Q214.1094,715.1875 213.4063,715.1875 Q210.9063,715.1875 209.5781,713.5469 Q208.2656,711.8906 208.2656,708.7656 Q208.2656,705.6406 209.5781,703.9844 Q210.9063,702.3281 213.4063,702.3281 Q214.1094,702.3281 214.75,702.4844 Q215.4063,702.6406 215.9688,702.9375 L215.9688,705.6563 Q215.3438,705.0781 214.75,704.8125 Q214.1563,704.5313 213.5313,704.5313 Q212.1875,704.5313 211.5,705.6094 Q210.8125,706.6719 210.8125,708.7656 Q210.8125,710.8594 211.5,711.9375 Q212.1875,713 213.5313,713 Q214.1563,713 214.75,712.7344 Q215.3438,712.4531 215.9688,711.875 L215.9688,714.5938 Z "/><text fill="#000000" font-family="sans-serif" font-size="12" lengthAdjust="spacingAndGlyphs" textLength="115" x="227" y="713.1074">cpp_decltype_type</text><line style="stroke: #A80036; stroke-width: 1.5;" x1="199" x2="344" y1="724.9531" y2="724.9531"/><line style="stroke: #A80036; stroke-width: 1.5;" x1="199" x2="344" y1="732.9531" y2="732.9531"/></a><!--MD5=[ba91e7eb372c2690592443eff40482c3]
class C_0001347498727659770075--><a href="https://github.com/foonathan/cppast/blob/f00df6675d87c6983033d270728c57a55cd3db22/include/cppast/cppast_fwd.hpp#L14" target="_top" title="cpp_array_type" xlink:actuate="onRequest" xlink:href="https://github.com/foonathan/cppast/blob/f00df6675d87c6983033d270728c57a55cd3db22/include/cppast/cppast_fwd.hpp#L14" xlink:show="new" xlink:title="cpp_array_type" xlink:type="simple"><rect fill="#FEFECE" filter="url(#f1u3dwbntc1yiq)" height="48" id="C_0001347498727659770075" style="stroke: #A80036; stroke-width: 1.5;" width="126" x="208.5" y="775.9531"/><ellipse cx="223.5" cy="791.9531" fill="#ADD1B2" rx="11" ry="11" style="stroke: #A80036; stroke-width: 1.0;"/><path d="M226.4688,797.5938 Q225.8906,797.8906 225.25,798.0313 Q224.6094,798.1875 223.9063,798.1875 Q221.4063,798.1875 220.0781,796.5469 Q218.7656,794.8906 218.7656,791.7656 Q218.7656,788.6406 220.0781,786.9844 Q221.4063,785.3281 223.9063,785.3281 Q224.6094,785.3281 225.25,785.4844 Q225.9063,785.6406 226.4688,785.9375 L226.4688,788.6563 Q225.8438,788.0781 225.25,787.8125 Q224.6563,787.5313 224.0313,787.5313 Q222.6875,787.5313 222,788.6094 Q221.3125,789.6719 221.3125,791.7656 Q221.3125,793.8594 222,794.9375 Q222.6875,796 224.0313,796 Q224.6563,796 225.25,795.7344 Q225.8438,795.4531 226.4688,794.875 L226.4688,797.5938 Z "/><text fill="#000000" font-family="sans-serif" font-size="12" lengthAdjust="spacingAndGlyphs" textLength="94" x="237.5" y="796.1074">cpp_array_type</text><line style="stroke: #A80036; stroke-width: 1.5;" x1="209.5" x2="333.5" y1="807.9531" y2="807.9531"/><line style="stroke: #A80036; stroke-width: 1.5;" x1="209.5" x2="333.5" y1="815.9531" y2="815.9531"/></a><!--MD5=[e748fe9d58eeb0f0484e1acf3ea5e239]
class C_0001455852309215570565--><a href="https://github.com/foonathan/cppast/blob/f00df6675d87c6983033d270728c57a55cd3db22/include/cppast/cppast_fwd.hpp#L44" target="_top" title="cpp_function_type" xlink:actuate="onRequest" xlink:href="https://github.com/foonathan/cppast/blob/f00df6675d87c6983033d270728c57a55cd3db22/include/cppast/cppast_fwd.hpp#L44" xlink:show="new" xlink:title="cpp_function_type" xlink:type="simple"><rect fill="#FEFECE" filter="url(#f1u3dwbntc1yiq)" height="48" id="C_0001455852309215570565" style="stroke: #A80036; stroke-width: 1.5;" width="145" x="199" y="858.9531"/><ellipse cx="214" cy="874.9531" fill="#ADD1B2" rx="11" ry="11" style="stroke: #A80036; stroke-width: 1.0;"/><path d="M216.9688,880.5938 Q216.3906,880.8906 215.75,881.0313 Q215.1094,881.1875 214.4063,881.1875 Q211.9063,881.1875 210.5781,879.5469 Q209.2656,877.8906 209.2656,874.7656 Q209.2656,871.6406 210.5781,869.9844 Q211.9063,868.3281 214.4063,868.3281 Q215.1094,868.3281 215.75,868.4844 Q216.4063,868.6406 216.9688,868.9375 L216.9688,871.6563 Q216.3438,871.0781 215.75,870.8125 Q215.1563,870.5313 214.5313,870.5313 Q213.1875,870.5313 212.5,871.6094 Q211.8125,872.6719 211.8125,874.7656 Q211.8125,876.8594 212.5,877.9375 Q213.1875,879 214.5313,879 Q215.1563,879 215.75,878.7344 Q216.3438,878.4531 216.9688,877.875 L216.9688,880.5938 Z "/><text fill="#000000" font-family="sans-serif" font-size="12" lengthAdjust="spacingAndGlyphs" textLength="113" x="228" y="879.1074">cpp_function_type</text><line style="stroke: #A80036; stroke-width: 1.5;" x1="200" x2="343" y1="890.9531" y2="890.9531"/><line style="stroke: #A80036; stroke-width: 1.5;" x1="200" x2="343" y1="898.9531" y2="898.9531"/></a><!--MD5=[4c12a51903926c4184eed03e07bdd7c6]
class C_0001585653041236922459--><a href="https://github.com/foonathan/cppast/blob/f00df6675d87c6983033d270728c57a55cd3db22/include/cppast/cppast_fwd.hpp#L70" target="_top" title="cpp_type" xlink:actuate="onRequest" xlink:href="https://github.com/foonathan/cppast/blob/f00df6675d87c6983033d270728c57a55cd3db22/include/cppast/cppast_fwd.hpp#L70" xlink:show="new" xlink:title="cpp_type" xlink:type="simple"><rect fill="#FEFECE" filter="url(#f1u3dwbntc1yiq)" height="48" id="C_0001585653041236922459" style="stroke: #A80036; stroke-width: 1.5;" width="88" x="6" y="651.9531"/><ellipse cx="21" cy="667.9531" fill="#ADD1B2" rx="11" ry="11" style="stroke: #A80036; stroke-width: 1.0;"/><path d="M23.9688,673.5938 Q23.3906,673.8906 22.75,674.0313 Q22.1094,674.1875 21.4063,674.1875 Q18.9063,674.1875 17.5781,672.5469 Q16.2656,670.8906 16.2656,667.7656 Q16.2656,664.6406 17.5781,662.9844 Q18.9063,661.3281 21.4063,661.3281 Q22.1094,661.3281 22.75,661.4844 Q23.4063,661.6406 23.9688,661.9375 L23.9688,664.6563 Q23.3438,664.0781 22.75,663.8125 Q22.1563,663.5313 21.5313,663.5313 Q20.1875,663.5313 19.5,664.6094 Q18.8125,665.6719 18.8125,667.7656 Q18.8125,669.8594 19.5,670.9375 Q20.1875,672 21.5313,672 Q22.1563,672 22.75,671.7344 Q23.3438,671.4531 23.9688,670.875 L23.9688,673.5938 Z "/><text fill="#000000" font-family="sans-serif" font-size="12" lengthAdjust="spacingAndGlyphs" textLength="56" x="35" y="672.1074">cpp_type</text><line style="stroke: #A80036; stroke-width: 1.5;" x1="7" x2="93" y1="683.9531" y2="683.9531"/><line style="stroke: #A80036; stroke-width: 1.5;" x1="7" x2="93" y1="691.9531" y2="691.9531"/></a><!--MD5=[fbe4d91723a2079c4dc1e323ea158a67]
class C_0001809003368459807767--><a href="https://github.com/foonathan/cppast/blob/f00df6675d87c6983033d270728c57a55cd3db22/include/cppast/cppast_fwd.hpp#L16" target="_top" title="cpp_auto_type" xlink:actuate="onRequest" xlink:href="https://github.com/foonathan/cppast/blob/f00df6675d87c6983033d270728c57a55cd3db22/include/cppast/cppast_fwd.hpp#L16" xlink:show="new" xlink:title="cpp_auto_type" xlink:type="simple"><rect fill="#FEFECE" filter="url(#f1u3dwbntc1yiq)" height="48" id="C_0001809003368459807767" style="stroke: #A80036; stroke-width: 1.5;" width="123" x="210" y="941.9531"/><ellipse cx="225" cy="957.9531" fill="#ADD1B2" rx="11" ry="11" style="stroke: #A80036; stroke-width: 1.0;"/><path d="M227.9688,963.5938 Q227.3906,963.8906 226.75,964.0313 Q226.1094,964.1875 225.4063,964.1875 Q222.9063,964.1875 221.5781,962.5469 Q220.2656,960.8906 220.2656,957.7656 Q220.2656,954.6406 221.5781,952.9844 Q222.9063,951.3281 225.4063,951.3281 Q226.1094,951.3281 226.75,951.4844 Q227.4063,951.6406 227.9688,951.9375 L227.9688,954.6563 Q227.3438,954.0781 226.75,953.8125 Q226.1563,953.5313 225.5313,953.5313 Q224.1875,953.5313 223.5,954.6094 Q222.8125,955.6719 222.8125,957.7656 Q222.8125,959.8594 223.5,960.9375 Q224.1875,962 225.5313,962 Q226.1563,962 226.75,961.7344 Q227.3438,961.4531 227.9688,960.875 L227.9688,963.5938 Z "/><text fill="#000000" font-family="sans-serif" font-size="12" lengthAdjust="spacingAndGlyphs" textLength="91" x="239" y="962.1074">cpp_auto_type</text><line style="stroke: #A80036; stroke-width: 1.5;" x1="211" x2="332" y1="973.9531" y2="973.9531"/><line style="stroke: #A80036; stroke-width: 1.5;" x1="211" x2="332" y1="981.9531" y2="981.9531"/></a><!--MD5=[8c468cce721aea8218f9b8bb00390d46]
class C_0001956941679276907326--><a href="https://github.com/foonathan/cppast/blob/f00df6675d87c6983033d270728c57a55cd3db22/include/cppast/cppast_fwd.hpp#L52" target="_top" title="cpp_member_function_type" xlink:actuate="onRequest" xlink:href="https://github.com/foonathan/cppast/blob/f00df6675d87c6983033d270728c57a55cd3db22/include/cppast/cppast_fwd.hpp#L52" xlink:show="new" xlink:title="cpp_member_function_type" xlink:type="simple"><rect fill="#FEFECE" filter="url(#f1u3dwbntc1yiq)" height="48" id="C_0001956941679276907326" style="stroke: #A80036; stroke-width: 1.5;" width="202" x="170.5" y="1024.9531"/><ellipse cx="185.5" cy="1040.9531" fill="#ADD1B2" rx="11" ry="11" style="stroke: #A80036; stroke-width: 1.0;"/><path d="M188.4688,1046.5938 Q187.8906,1046.8906 187.25,1047.0313 Q186.6094,1047.1875 185.9063,1047.1875 Q183.4063,1047.1875 182.0781,1045.5469 Q180.7656,1043.8906 180.7656,1040.7656 Q180.7656,1037.6406 182.0781,1035.9844 Q183.4063,1034.3281 185.9063,1034.3281 Q186.6094,1034.3281 187.25,1034.4844 Q187.9063,1034.6406 188.4688,1034.9375 L188.4688,1037.6563 Q187.8438,1037.0781 187.25,1036.8125 Q186.6563,1036.5313 186.0313,1036.5313 Q184.6875,1036.5313 184,1037.6094 Q183.3125,1038.6719 183.3125,1040.7656 Q183.3125,1042.8594 184,1043.9375 Q184.6875,1045 186.0313,1045 Q186.6563,1045 187.25,1044.7344 Q187.8438,1044.4531 188.4688,1043.875 L188.4688,1046.5938 Z "/><text fill="#000000" font-family="sans-serif" font-size="12" lengthAdjust="spacingAndGlyphs" textLength="170" x="199.5" y="1045.1074">cpp_member_function_type</text><line style="stroke: #A80036; stroke-width: 1.5;" x1="171.5" x2="371.5" y1="1056.9531" y2="1056.9531"/><line style="stroke: #A80036; stroke-width: 1.5;" x1="171.5" x2="371.5" y1="1064.9531" y2="1064.9531"/></a><!--MD5=[c09bf787f24beebf3072924c9a534b6b]
class C_0002035785082080260407--><a href="https://github.com/foonathan/cppast/blob/f00df6675d87c6983033d270728c57a55cd3db22/include/cppast/cppast_fwd.hpp#L19" target="_top" title="cpp_builtin_type" xlink:actuate="onRequest" xlink:href="https://github.com/foonathan/cppast/blob/f00df6675d87c6983033d270728c57a55cd3db22/include/cppast/cppast_fwd.hpp#L19" xlink:show="new" xlink:title="cpp_builtin_type" xlink:type="simple"><rect fill="#FEFECE" filter="url(#f1u3dwbntc1yiq)" height="48" id="C_0002035785082080260407" style="stroke: #A80036; stroke-width: 1.5;" width="132" x="205.5" y="1107.9531"/><ellipse cx="220.5" cy="1123.9531" fill="#ADD1B2" rx="11" ry="11" style="stroke: #A80036; stroke-width: 1.0;"/><path d="M223.4688,1129.5938 Q222.8906,1129.8906 222.25,1130.0313 Q221.6094,1130.1875 220.9063,1130.1875 Q218.4063,1130.1875 217.0781,1128.5469 Q215.7656,1126.8906 215.7656,1123.7656 Q215.7656,1120.6406 217.0781,1118.9844 Q218.4063,1117.3281 220.9063,1117.3281 Q221.6094,1117.3281 222.25,1117.4844 Q222.9063,1117.6406 223.4688,1117.9375 L223.4688,1120.6563 Q222.8438,1120.0781 222.25,1119.8125 Q221.6563,1119.5313 221.0313,1119.5313 Q219.6875,1119.5313 219,1120.6094 Q218.3125,1121.6719 218.3125,1123.7656 Q218.3125,1125.8594 219,1126.9375 Q219.6875,1128 221.0313,1128 Q221.6563,1128 222.25,1127.7344 Q222.8438,1127.4531 223.4688,1126.875 L223.4688,1129.5938 Z "/><text fill="#000000" font-family="sans-serif" font-size="12" lengthAdjust="spacingAndGlyphs" textLength="100" x="234.5" y="1128.1074">cpp_builtin_type</text><line style="stroke: #A80036; stroke-width: 1.5;" x1="206.5" x2="336.5" y1="1139.9531" y2="1139.9531"/><line style="stroke: #A80036; stroke-width: 1.5;" x1="206.5" x2="336.5" y1="1147.9531" y2="1147.9531"/></a><!--MD5=[9a4780fff7da2a5e9248a50ad89b0fdc]
class C_0002158322113857881673--><a href="https://github.com/foonathan/cppast/blob/f00df6675d87c6983033d270728c57a55cd3db22/include/cppast/cppast_fwd.hpp#L65" target="_top" title="cpp_template_parameter_type" xlink:actuate="onRequest" xlink:href="https://github.com/foonathan/cppast/blob/f00df6675d87c6983033d270728c57a55cd3db22/include/cppast/cppast_fwd.hpp#L65" xlink:show="new" xlink:title="cpp_template_parameter_type" xlink:type="simple"><rect fill="#FEFECE" filter="url(#f1u3dwbntc1yiq)" height="48" id="C_0002158322113857881673" style="stroke: #A80036; stroke-width: 1.5;" width="222" x="160.5" y="1190.9531"/><ellipse cx="175.5" cy="1206.9531" fill="#ADD1B2" rx="11" ry="11" style="stroke: #A80036; stroke-width: 1.0;"/><path d="M178.4688,1212.5938 Q177.8906,1212.8906 177.25,1213.0313 Q176.6094,1213.1875 175.9063,1213.1875 Q173.4063,1213.1875 172.0781,1211.5469 Q170.7656,1209.8906 170.7656,1206.7656 Q170.7656,1203.6406 172.0781,1201.9844 Q173.4063,1200.3281 175.9063,1200.3281 Q176.6094,1200.3281 177.25,1200.4844 Q177.9063,1200.6406 178.4688,1200.9375 L178.4688,1203.6563 Q177.8438,1203.0781 177.25,1202.8125 Q176.6563,1202.5313 176.0313,1202.5313 Q174.6875,1202.5313 174,1203.6094 Q173.3125,1204.6719 173.3125,1206.7656 Q173.3125,1208.8594 174,1209.9375 Q174.6875,1211 176.0313,1211 Q176.6563,1211 177.25,1210.7344 Q177.8438,1210.4531 178.4688,1209.875 L178.4688,1212.5938 Z "/><text fill="#000000" font-family="sans-serif" font-size="12" lengthAdjust="spacingAndGlyphs" textLength="190" x="189.5" y="1211.1074">cpp_template_parameter_type</text><line style="stroke: #A80036; stroke-width: 1.5;" x1="161.5" x2="381.5" y1="1222.9531" y2="1222.9531"/><line style="stroke: #A80036; stroke-width: 1.5;" x1="161.5" x2="381.5" y1="1230.9531" y2="1230.9531"/></a><!--MD5=[ee8712500b86f8ca8438663d14d7bccd]
class C_0002166954434825938188--><a href="https://github.com/foonathan/cppast/blob/f00df6675d87c6983033d270728c57a55cd3db22/include/cppast/cppast_fwd.hpp#L75" target="_top" title="cpp_user_defined_type" xlink:actuate="onRequest" xlink:href="https://github.com/foonathan/cppast/blob/f00df6675d87c6983033d270728c57a55cd3db22/include/cppast/cppast_fwd.hpp#L75" xlink:show="new" xlink:title="cpp_user_defined_type" xlink:type="simple"><rect fill="#FEFECE" filter="url(#f1u3dwbntc1yiq)" height="48" id="C_0002166954434825938188" style="stroke: #A80036; stroke-width: 1.5;" width="175" x="184" y="1273.9531"/><ellipse cx="199" cy="1289.9531" fill="#ADD1B2" rx="11" ry="11" style="stroke: #A80036; stroke-width: 1.0;"/><path d="M201.9688,1295.5938 Q201.3906,1295.8906 200.75,1296.0313 Q200.1094,1296.1875 199.4063,1296.1875 Q196.9063,1296.1875 195.5781,1294.5469 Q194.2656,1292.8906 194.2656,1289.7656 Q194.2656,1286.6406 195.5781,1284.9844 Q196.9063,1283.3281 199.4063,1283.3281 Q200.1094,1283.3281 200.75,1283.4844 Q201.4063,1283.6406 201.9688,1283.9375 L201.9688,1286.6563 Q201.3438,1286.0781 200.75,1285.8125 Q200.1563,1285.5313 199.5313,1285.5313 Q198.1875,1285.5313 197.5,1286.6094 Q196.8125,1287.6719 196.8125,1289.7656 Q196.8125,1291.8594 197.5,1292.9375 Q198.1875,1294 199.5313,1294 Q200.1563,1294 200.75,1293.7344 Q201.3438,1293.4531 201.9688,1292.875 L201.9688,1295.5938 Z "/><text fill="#000000" font-family="sans-serif" font-size="12" lengthAdjust="spacingAndGlyphs" textLength="143" x="213" y="1294.1074">cpp_user_defined_type</text><line style="stroke: #A80036; stroke-width: 1.5;" x1="185" x2="358" y1="1305.9531" y2="1305.9531"/><line style="stroke: #A80036; stroke-width: 1.5;" x1="185" x2="358" y1="1313.9531" y2="1313.9531"/></a><!--MD5=[4c314e63c4848aef2fcdeb05538e9208]
reverse link C_0001585653041236922459 to C_0000026248340214462662--><path d="M53.17,631.7431 C59.98,510.3431 84.77,175.5131 154,93.9531 C161.28,85.3731 170.48,78.5831 180.5,73.2131 " fill="none" id="C_0001585653041236922459&lt;-C_0000026248340214462662" style="stroke: #A80036; stroke-width: 1.0;"/><polygon fill="none" points="60.16,632.2131,52.1,651.8131,46.18,631.4731,60.16,632.2131" style="stroke: #A80036; stroke-width: 1.0;"/><!--MD5=[d30abf94f13e3d0534ead8e8054eb3d1]
reverse link C_0001585653041236922459 to C_0000342846994454958214--><path d="M54.62,631.6331 C64.36,522.5631 94.52,245.0431 154,176.9531 C163.24,166.3731 175.38,158.5231 188.33,152.7031 " fill="none" id="C_0001585653041236922459&lt;-C_0000342846994454958214" style="stroke: #A80036; stroke-width: 1.0;"/><polygon fill="none" points="61.58,632.3331,52.89,651.6531,47.63,631.1231,61.58,632.3331" style="stroke: #A80036; stroke-width: 1.0;"/><!--MD5=[143fba09575ece185ea311ff9ae93080]
reverse link C_0001585653041236922459 to C_0000507998479194737071--><path d="M56.55,632.0831 C69.43,536.7531 104.1,314.8731 154,259.9531 C163.73,249.2431 176.43,241.3231 189.86,235.4831 " fill="none" id="C_0001585653041236922459&lt;-C_0000507998479194737071" style="stroke: #A80036; stroke-width: 1.0;"/><polygon fill="none" points="63.49,633.0031,53.94,651.9131,49.61,631.1731,63.49,633.0031" style="stroke: #A80036; stroke-width: 1.0;"/><!--MD5=[156332e2a2012227aae759be0134bcac]
reverse link C_0001585653041236922459 to C_0000600573949475383075--><path d="M52.5,631.3931 C57.25,560.9031 76.57,423.4131 154,342.9531 C164.93,331.5931 179.18,323.3831 193.96,317.4431 " fill="none" id="C_0001585653041236922459&lt;-C_0000600573949475383075" style="stroke: #A80036; stroke-width: 1.0;"/><polygon fill="none" points="59.47,632.1731,51.41,651.7731,45.48,631.4231,59.47,632.1731" style="stroke: #A80036; stroke-width: 1.0;"/><!--MD5=[c63d697c0722dde2e63cc809be72ef8b]
reverse link C_0001585653041236922459 to C_0000601730303705395408--><path d="M57.88,631.8131 C68.75,576.4031 95.08,481.8631 154,425.9531 C164.19,416.2831 176.79,408.8831 189.9,403.2131 " fill="none" id="C_0001585653041236922459&lt;-C_0000601730303705395408" style="stroke: #A80036; stroke-width: 1.0;"/><polygon fill="none" points="64.74,633.1831,54.32,651.6331,50.96,630.7031,64.74,633.1831" style="stroke: #A80036; stroke-width: 1.0;"/><!--MD5=[936733e413184087273d009e68de9a89]
reverse link C_0001585653041236922459 to C_0000603633382993980808--><path d="M67.48,633.4231 C84.07,595.8031 113.08,541.9231 154,508.9531 C162.18,502.3631 171.5,496.7931 181.22,492.0931 " fill="none" id="C_0001585653041236922459&lt;-C_0000603633382993980808" style="stroke: #A80036; stroke-width: 1.0;"/><polygon fill="none" points="73.92,636.1631,59.74,651.9131,61.01,630.7531,73.92,636.1631" style="stroke: #A80036; stroke-width: 1.0;"/><!--MD5=[662aca28d61e295ab991be0c19b1c533]
reverse link C_0001585653041236922459 to C_0000861535705589766807--><path d="M90.54,638.2731 C108.79,622.3631 131.39,604.6331 154,591.9531 C168.87,583.6131 185.73,576.5031 201.93,570.6531 " fill="none" id="C_0001585653041236922459&lt;-C_0000861535705589766807" style="stroke: #A80036; stroke-width: 1.0;"/><polygon fill="none" points="94.98,643.6931,75.43,651.8831,85.61,633.2931,94.98,643.6931" style="stroke: #A80036; stroke-width: 1.0;"/><!--MD5=[95b628777811e2a1f77323277f1cb566]
reverse link C_0001585653041236922459 to C_0001009421424714355715--><path d="M114.05,663.8931 C126.55,661.4931 140.04,658.9131 153.68,656.3031 " fill="none" id="C_0001585653041236922459&lt;-C_0001009421424714355715" style="stroke: #A80036; stroke-width: 1.0;"/><polygon fill="none" points="115.06,670.8231,94.1,667.7031,112.43,657.0731,115.06,670.8231" style="stroke: #A80036; stroke-width: 1.0;"/><!--MD5=[758c3cfe787fea22001b9f6e27336e97]
reverse link C_0001585653041236922459 to C_0001184982835175222056--><path d="M113.98,687.7131 C140.11,692.5931 170.59,698.2931 197.67,703.3531 " fill="none" id="C_0001585653041236922459&lt;-C_0001184982835175222056" style="stroke: #A80036; stroke-width: 1.0;"/><polygon fill="none" points="112.48,694.5531,94.1,684.0031,115.05,680.7931,112.48,694.5531" style="stroke: #A80036; stroke-width: 1.0;"/><!--MD5=[ddc0fb8f1cabdd1cc70bcbc5233395d4]
reverse link C_0001585653041236922459 to C_0001347498727659770075--><path d="M91.47,713.2431 C109.62,728.5831 131.89,745.6031 154,757.9531 C170.9,767.3831 190.31,775.3731 208.38,781.7731 " fill="none" id="C_0001585653041236922459&lt;-C_0001347498727659770075" style="stroke: #A80036; stroke-width: 1.0;"/><polygon fill="none" points="86.86,718.5131,76.39,700.0931,96.06,707.9631,86.86,718.5131" style="stroke: #A80036; stroke-width: 1.0;"/><!--MD5=[895e797b9e935156f2fffa3e66d42570]
reverse link C_0001585653041236922459 to C_0001455852309215570565--><path d="M67.92,718.4631 C84.68,755.5531 113.68,808.3831 154,840.9531 C167.05,851.4931 182.96,859.5031 198.78,865.5531 " fill="none" id="C_0001585653041236922459&lt;-C_0001455852309215570565" style="stroke: #A80036; stroke-width: 1.0;"/><polygon fill="none" points="61.43,721.0931,59.98,699.9531,74.3,715.5731,61.43,721.0931" style="stroke: #A80036; stroke-width: 1.0;"/><!--MD5=[38e8f06f3e7c20aec88f504486c484aa]
reverse link C_0001585653041236922459 to C_0001809003368459807767--><path d="M58.12,720.0431 C69.22,774.9831 95.75,868.4131 154,923.9531 C169.33,938.5631 190.11,948.1531 209.87,954.4131 " fill="none" id="C_0001585653041236922459&lt;-C_0001809003368459807767" style="stroke: #A80036; stroke-width: 1.0;"/><polygon fill="none" points="51.18,720.9831,54.42,700.0431,64.94,718.4431,51.18,720.9831" style="stroke: #A80036; stroke-width: 1.0;"/><!--MD5=[9e64ba0534608e3ae070c63d79b7c528]
reverse link C_0001585653041236922459 to C_0001956941679276907326--><path d="M52.69,720.6931 C57.71,790.8331 77.42,926.9031 154,1006.9531 C160.76,1014.0231 168.8,1019.9031 177.45,1024.8031 " fill="none" id="C_0001585653041236922459&lt;-C_0001956941679276907326" style="stroke: #A80036; stroke-width: 1.0;"/><polygon fill="none" points="45.68,720.7631,51.52,700.3931,59.66,719.9631,45.68,720.7631" style="stroke: #A80036; stroke-width: 1.0;"/><!--MD5=[6c8cd20a5882a9e25736fa85d321f899]
reverse link C_0001585653041236922459 to C_0002035785082080260407--><path d="M56.7,720.2231 C69.76,815.3831 104.61,1035.2431 154,1089.9531 C167.4,1104.7931 186.44,1114.3931 205.25,1120.6031 " fill="none" id="C_0001585653041236922459&lt;-C_0002035785082080260407" style="stroke: #A80036; stroke-width: 1.0;"/><polygon fill="none" points="49.72,720.8931,54.01,700.1331,63.6,719.0331,49.72,720.8931" style="stroke: #A80036; stroke-width: 1.0;"/><!--MD5=[d0bb1772b4286dcc9ddc27f08349bc5d]
reverse link C_0001585653041236922459 to C_0002158322113857881673--><path d="M54.67,720.0731 C64.54,828.6431 94.98,1104.9231 154,1172.9531 C160.2,1180.1031 167.71,1186.0331 175.9,1190.9531 " fill="none" id="C_0001585653041236922459&lt;-C_0002158322113857881673" style="stroke: #A80036; stroke-width: 1.0;"/><polygon fill="none" points="47.7,720.6731,52.92,700.1431,61.64,719.4531,47.7,720.6731" style="stroke: #A80036; stroke-width: 1.0;"/><!--MD5=[3310dcb1289869f4557c5a5830013aea]
reverse link C_0001585653041236922459 to C_0002166954434825938188--><path d="M53.22,719.9931 C60.18,840.8931 85.29,1174.4231 154,1255.9531 C162.11,1265.5731 172.59,1272.9831 183.94,1278.7031 " fill="none" id="C_0001585653041236922459&lt;-C_0002166954434825938188" style="stroke: #A80036; stroke-width: 1.0;"/><polygon fill="none" points="46.23,720.3531,52.13,699.9931,60.21,719.5831,46.23,720.3531" style="stroke: #A80036; stroke-width: 1.0;"/><!--MD5=[1b637d22915f6ecfed240bd008076c91]
@startuml
title 'cpp_type' class hierarchy diagram
left to right direction
class "cpp_decltype_auto_type" as C_0000026248340214462662
class C_0000026248340214462662 [[https://github.com/foonathan/cppast/blob/f00df6675d87c6983033d270728c57a55cd3db22/include/cppast/cppast_fwd.hpp#L27{cpp_decltype_auto_type}]] {
__
}
class "cpp_cv_qualified_type" as C_0000342846994454958214
class C_0000342846994454958214 [[https://github.com/foonathan/cppast/blob/f00df6675d87c6983033d270728c57a55cd3db22/include/cppast/cppast_fwd.hpp#L26{cpp_cv_qualified_type}]] {
__
}
class "cpp_dependent_type" as C_0000507998479194737071
class C_0000507998479194737071 [[https://github.com/foonathan/cppast/blob/f00df6675d87c6983033d270728c57a55cd3db22/include/cppast/cppast_fwd.hpp#L29{cpp_dependent_type}]] {
__
}
class "cpp_reference_type" as C_0000600573949475383075
class C_0000600573949475383075 [[https://github.com/foonathan/cppast/blob/f00df6675d87c6983033d270728c57a55cd3db22/include/cppast/cppast_fwd.hpp#L58{cpp_reference_type}]] {
__
}
class "cpp_unexposed_type" as C_0000601730303705395408
class C_0000601730303705395408 [[https://github.com/foonathan/cppast/blob/f00df6675d87c6983033d270728c57a55cd3db22/include/cppast/cppast_fwd.hpp#L74{cpp_unexposed_type}]] {
__
}
class "cpp_member_object_type" as C_0000603633382993980808
class C_0000603633382993980808 [[https://github.com/foonathan/cppast/blob/f00df6675d87c6983033d270728c57a55cd3db22/include/cppast/cppast_fwd.hpp#L53{cpp_member_object_type}]] {
__
}
class "cpp_pointer_type" as C_0000861535705589766807
class C_0000861535705589766807 [[https://github.com/foonathan/cppast/blob/f00df6675d87c6983033d270728c57a55cd3db22/include/cppast/cppast_fwd.hpp#L57{cpp_pointer_type}]] {
__
}
class "cpp_template_instantiation_type" as C_0001009421424714355715
class C_0001009421424714355715 [[https://github.com/foonathan/cppast/blob/f00df6675d87c6983033d270728c57a55cd3db22/include/cppast/cppast_fwd.hpp#L63{cpp_template_instantiation_type}]] {
__
}
class "cpp_decltype_type" as C_0001184982835175222056
class C_0001184982835175222056 [[https://github.com/foonathan/cppast/blob/f00df6675d87c6983033d270728c57a55cd3db22/include/cppast/cppast_fwd.hpp#L28{cpp_decltype_type}]] {
__
}
class "cpp_array_type" as C_0001347498727659770075
class C_0001347498727659770075 [[https://github.com/foonathan/cppast/blob/f00df6675d87c6983033d270728c57a55cd3db22/include/cppast/cppast_fwd.hpp#L14{cpp_array_type}]] {
__
}
class "cpp_function_type" as C_0001455852309215570565
class C_0001455852309215570565 [[https://github.com/foonathan/cppast/blob/f00df6675d87c6983033d270728c57a55cd3db22/include/cppast/cppast_fwd.hpp#L44{cpp_function_type}]] {
__
}
class "cpp_type" as C_0001585653041236922459
class C_0001585653041236922459 [[https://github.com/foonathan/cppast/blob/f00df6675d87c6983033d270728c57a55cd3db22/include/cppast/cppast_fwd.hpp#L70{cpp_type}]] {
__
}
class "cpp_auto_type" as C_0001809003368459807767
class C_0001809003368459807767 [[https://github.com/foonathan/cppast/blob/f00df6675d87c6983033d270728c57a55cd3db22/include/cppast/cppast_fwd.hpp#L16{cpp_auto_type}]] {
__
}
class "cpp_member_function_type" as C_0001956941679276907326
class C_0001956941679276907326 [[https://github.com/foonathan/cppast/blob/f00df6675d87c6983033d270728c57a55cd3db22/include/cppast/cppast_fwd.hpp#L52{cpp_member_function_type}]] {
__
}
class "cpp_builtin_type" as C_0002035785082080260407
class C_0002035785082080260407 [[https://github.com/foonathan/cppast/blob/f00df6675d87c6983033d270728c57a55cd3db22/include/cppast/cppast_fwd.hpp#L19{cpp_builtin_type}]] {
__
}
class "cpp_template_parameter_type" as C_0002158322113857881673
class C_0002158322113857881673 [[https://github.com/foonathan/cppast/blob/f00df6675d87c6983033d270728c57a55cd3db22/include/cppast/cppast_fwd.hpp#L65{cpp_template_parameter_type}]] {
__
}
class "cpp_user_defined_type" as C_0002166954434825938188
class C_0002166954434825938188 [[https://github.com/foonathan/cppast/blob/f00df6675d87c6983033d270728c57a55cd3db22/include/cppast/cppast_fwd.hpp#L75{cpp_user_defined_type}]] {
__
}
C_0001585653041236922459 <|- - C_0000026248340214462662
C_0001585653041236922459 <|- - C_0000342846994454958214
C_0001585653041236922459 <|- - C_0000507998479194737071
C_0001585653041236922459 <|- - C_0000600573949475383075
C_0001585653041236922459 <|- - C_0000601730303705395408
C_0001585653041236922459 <|- - C_0000603633382993980808
C_0001585653041236922459 <|- - C_0000861535705589766807
C_0001585653041236922459 <|- - C_0001009421424714355715
C_0001585653041236922459 <|- - C_0001184982835175222056
C_0001585653041236922459 <|- - C_0001347498727659770075
C_0001585653041236922459 <|- - C_0001455852309215570565
C_0001585653041236922459 <|- - C_0001809003368459807767
C_0001585653041236922459 <|- - C_0001956941679276907326
C_0001585653041236922459 <|- - C_0002035785082080260407
C_0001585653041236922459 <|- - C_0002158322113857881673
C_0001585653041236922459 <|- - C_0002166954434825938188

@enduml

PlantUML version 1.2020.02(Sun Mar 01 11:22:07 CET 2020)
(GPL source distribution)
Java Runtime: OpenJDK Runtime Environment
JVM: OpenJDK 64-Bit Server VM
Java Version: 11.0.20.1+1-post-Ubuntu-0ubuntu122.04
Operating System: Linux
Default Encoding: UTF-8
Language: en
Country: US
--></g></svg>