<?xml version="1.0" encoding="UTF-8" standalone="no"?><svg xmlns="http://www.w3.org/2000/svg" xmlns:xlink="http://www.w3.org/1999/xlink" contentScriptType="application/ecmascript" contentStyleType="text/css" height="593px" preserveAspectRatio="none" style="width:978px;height:593px;" version="1.1" viewBox="0 0 978 593" width="978px" zoomAndPan="magnify"><defs><filter height="300%" id="f16knxx7sg2c6t" width="300%" x="-1" y="-1"><feGaussianBlur result="blurOut" stdDeviation="2.0"/><feColorMatrix in="blurOut" result="blurOut2" type="matrix" values="0 0 0 0 0 0 0 0 0 0 0 0 0 0 0 0 0 0 .4 0"/><feOffset dx="4.0" dy="4.0" in="blurOut2" result="blurOut3"/><feBlend in="SourceGraphic" in2="blurOut3" mode="normal"/></filter></defs><g><!--MD5=[8a1a5657a465463d2b42b90495e823d2]
class C_0000560657228528420559--><a href="https://github.com/foonathan/cppast/blob/f00df6675d87c6983033d270728c57a55cd3db22/include/cppast/cpp_attribute.hpp#L42" target="_top" title="cpp_attribute" xlink:actuate="onRequest" xlink:href="https://github.com/foonathan/cppast/blob/f00df6675d87c6983033d270728c57a55cd3db22/include/cppast/cpp_attribute.hpp#L42" xlink:show="new" xlink:title="cpp_attribute" xlink:type="simple"><rect fill="#FEFECE" filter="url(#f16knxx7sg2c6t)" height="48" id="C_0000560657228528420559" style="stroke: #A80036; stroke-width: 1.5;" width="116" x="478.5" y="214"/><ellipse cx="493.5" cy="230" fill="#ADD1B2" rx="11" ry="11" style="stroke: #A80036; stroke-width: 1.0;"/><path d="M496.4688,235.6406 Q495.8906,235.9375 495.25,236.0781 Q494.6094,236.2344 493.9063,236.2344 Q491.4063,236.2344 490.0781,234.5938 Q488.7656,232.9375 488.7656,229.8125 Q488.7656,226.6875 490.0781,225.0313 Q491.4063,223.375 493.9063,223.375 Q494.6094,223.375 495.25,223.5313 Q495.9063,223.6875 496.4688,223.9844 L496.4688,226.7031 Q495.8438,226.125 495.25,225.8594 Q494.6563,225.5781 494.0313,225.5781 Q492.6875,225.5781 492,226.6563 Q491.3125,227.7188 491.3125,229.8125 Q491.3125,231.9063 492,232.9844 Q492.6875,234.0469 494.0313,234.0469 Q494.6563,234.0469 495.25,233.7813 Q495.8438,233.5 496.4688,232.9219 L496.4688,235.6406 Z "/><text fill="#000000" font-family="sans-serif" font-size="12" lengthAdjust="spacingAndGlyphs" textLength="84" x="507.5" y="234.1543">cpp_attribute</text><line style="stroke: #A80036; stroke-width: 1.5;" x1="479.5" x2="593.5" y1="246" y2="246"/><line style="stroke: #A80036; stroke-width: 1.5;" x1="479.5" x2="593.5" y1="254" y2="254"/></a><!--MD5=[71cff2869bd83fd1db572340ae083984]
class C_0001854695372332280903--><a href="https://github.com/foonathan/cppast/blob/f00df6675d87c6983033d270728c57a55cd3db22/include/cppast/cpp_entity.hpp#L47" target="_top" title="cpp_entity" xlink:actuate="onRequest" xlink:href="https://github.com/foonathan/cppast/blob/f00df6675d87c6983033d270728c57a55cd3db22/include/cppast/cpp_entity.hpp#L47" xlink:show="new" xlink:title="cpp_entity" xlink:type="simple"><rect fill="#FEFECE" filter="url(#f16knxx7sg2c6t)" height="48" id="C_0001854695372332280903" style="stroke: #A80036; stroke-width: 1.5;" width="97" x="108.5" y="374"/><ellipse cx="123.5" cy="390" fill="#A9DCDF" rx="11" ry="11" style="stroke: #A80036; stroke-width: 1.0;"/><path d="M123.6094,385.3438 L122.4531,390.4219 L124.7813,390.4219 L123.6094,385.3438 Z M122.125,383.1094 L125.1094,383.1094 L128.4688,395.5 L126.0156,395.5 L125.25,392.4375 L121.9688,392.4375 L121.2188,395.5 L118.7813,395.5 L122.125,383.1094 Z "/><text fill="#000000" font-family="sans-serif" font-size="12" font-style="italic" lengthAdjust="spacingAndGlyphs" textLength="65" x="137.5" y="394.1543">cpp_entity</text><line style="stroke: #A80036; stroke-width: 1.5;" x1="109.5" x2="204.5" y1="406" y2="406"/><line style="stroke: #A80036; stroke-width: 1.5;" x1="109.5" x2="204.5" y1="414" y2="414"/></a><!--MD5=[fad51da99629238129d989dc56c86d7b]
class C_0001449857709503654826--><a href="https://github.com/foonathan/cppast/blob/f00df6675d87c6983033d270728c57a55cd3db22/include/cppast/cpp_entity.hpp#L187" target="_top" title="cpp_unexposed_entity" xlink:actuate="onRequest" xlink:href="https://github.com/foonathan/cppast/blob/f00df6675d87c6983033d270728c57a55cd3db22/include/cppast/cpp_entity.hpp#L187" xlink:show="new" xlink:title="cpp_unexposed_entity" xlink:type="simple"><rect fill="#FEFECE" filter="url(#f16knxx7sg2c6t)" height="48" id="C_0001449857709503654826" style="stroke: #A80036; stroke-width: 1.5;" width="171" x="451" y="297"/><ellipse cx="466" cy="313" fill="#ADD1B2" rx="11" ry="11" style="stroke: #A80036; stroke-width: 1.0;"/><path d="M468.9688,318.6406 Q468.3906,318.9375 467.75,319.0781 Q467.1094,319.2344 466.4063,319.2344 Q463.9063,319.2344 462.5781,317.5938 Q461.2656,315.9375 461.2656,312.8125 Q461.2656,309.6875 462.5781,308.0313 Q463.9063,306.375 466.4063,306.375 Q467.1094,306.375 467.75,306.5313 Q468.4063,306.6875 468.9688,306.9844 L468.9688,309.7031 Q468.3438,309.125 467.75,308.8594 Q467.1563,308.5781 466.5313,308.5781 Q465.1875,308.5781 464.5,309.6563 Q463.8125,310.7188 463.8125,312.8125 Q463.8125,314.9063 464.5,315.9844 Q465.1875,317.0469 466.5313,317.0469 Q467.1563,317.0469 467.75,316.7813 Q468.3438,316.5 468.9688,315.9219 L468.9688,318.6406 Z "/><text fill="#000000" font-family="sans-serif" font-size="12" lengthAdjust="spacingAndGlyphs" textLength="139" x="480" y="317.1543">cpp_unexposed_entity</text><line style="stroke: #A80036; stroke-width: 1.5;" x1="452" x2="621" y1="329" y2="329"/><line style="stroke: #A80036; stroke-width: 1.5;" x1="452" x2="621" y1="337" y2="337"/></a><!--MD5=[ead75a3296f458aaae499d9f5e160fb4]
class C_0001152344551163828554--><a href="https://github.com/foonathan/cppast/blob/f00df6675d87c6983033d270728c57a55cd3db22/include/cppast/cpp_entity_index.hpp#L38" target="_top" title="cpp_entity_id" xlink:actuate="onRequest" xlink:href="https://github.com/foonathan/cppast/blob/f00df6675d87c6983033d270728c57a55cd3db22/include/cppast/cpp_entity_index.hpp#L38" xlink:show="new" xlink:title="cpp_entity_id" xlink:type="simple"><rect fill="#FEFECE" filter="url(#f16knxx7sg2c6t)" height="48" id="C_0001152344551163828554" style="stroke: #A80036; stroke-width: 1.5;" width="113" x="816" y="92"/><ellipse cx="831" cy="108" fill="#ADD1B2" rx="11" ry="11" style="stroke: #A80036; stroke-width: 1.0;"/><path d="M833.9688,113.6406 Q833.3906,113.9375 832.75,114.0781 Q832.1094,114.2344 831.4063,114.2344 Q828.9063,114.2344 827.5781,112.5938 Q826.2656,110.9375 826.2656,107.8125 Q826.2656,104.6875 827.5781,103.0313 Q828.9063,101.375 831.4063,101.375 Q832.1094,101.375 832.75,101.5313 Q833.4063,101.6875 833.9688,101.9844 L833.9688,104.7031 Q833.3438,104.125 832.75,103.8594 Q832.1563,103.5781 831.5313,103.5781 Q830.1875,103.5781 829.5,104.6563 Q828.8125,105.7188 828.8125,107.8125 Q828.8125,109.9063 829.5,110.9844 Q830.1875,112.0469 831.5313,112.0469 Q832.1563,112.0469 832.75,111.7813 Q833.3438,111.5 833.9688,110.9219 L833.9688,113.6406 Z "/><text fill="#000000" font-family="sans-serif" font-size="12" lengthAdjust="spacingAndGlyphs" textLength="81" x="845" y="112.1543">cpp_entity_id</text><line style="stroke: #A80036; stroke-width: 1.5;" x1="817" x2="928" y1="124" y2="124"/><line style="stroke: #A80036; stroke-width: 1.5;" x1="817" x2="928" y1="132" y2="132"/></a><!--MD5=[981af67409a0513940401f7a9b004db6]
class C_0001989731226165037041--><a href="https://github.com/foonathan/cppast/blob/f00df6675d87c6983033d270728c57a55cd3db22/include/cppast/cpp_entity_index.hpp#L58" target="_top" title="cpp_entity_index" xlink:actuate="onRequest" xlink:href="https://github.com/foonathan/cppast/blob/f00df6675d87c6983033d270728c57a55cd3db22/include/cppast/cpp_entity_index.hpp#L58" xlink:show="new" xlink:title="cpp_entity_index" xlink:type="simple"><rect fill="#FEFECE" filter="url(#f16knxx7sg2c6t)" height="48" id="C_0001989731226165037041" style="stroke: #A80036; stroke-width: 1.5;" width="135" x="469" y="91"/><ellipse cx="484" cy="107" fill="#ADD1B2" rx="11" ry="11" style="stroke: #A80036; stroke-width: 1.0;"/><path d="M486.9688,112.6406 Q486.3906,112.9375 485.75,113.0781 Q485.1094,113.2344 484.4063,113.2344 Q481.9063,113.2344 480.5781,111.5938 Q479.2656,109.9375 479.2656,106.8125 Q479.2656,103.6875 480.5781,102.0313 Q481.9063,100.375 484.4063,100.375 Q485.1094,100.375 485.75,100.5313 Q486.4063,100.6875 486.9688,100.9844 L486.9688,103.7031 Q486.3438,103.125 485.75,102.8594 Q485.1563,102.5781 484.5313,102.5781 Q483.1875,102.5781 482.5,103.6563 Q481.8125,104.7188 481.8125,106.8125 Q481.8125,108.9063 482.5,109.9844 Q483.1875,111.0469 484.5313,111.0469 Q485.1563,111.0469 485.75,110.7813 Q486.3438,110.5 486.9688,109.9219 L486.9688,112.6406 Z "/><text fill="#000000" font-family="sans-serif" font-size="12" lengthAdjust="spacingAndGlyphs" textLength="103" x="498" y="111.1543">cpp_entity_index</text><line style="stroke: #A80036; stroke-width: 1.5;" x1="470" x2="603" y1="123" y2="123"/><line style="stroke: #A80036; stroke-width: 1.5;" x1="470" x2="603" y1="131" y2="131"/></a><!--MD5=[db9b0988df08cd2ec00d171a5971ee4c]
class C_0001989531636101477120--><a href="https://github.com/foonathan/cppast/blob/f00df6675d87c6983033d270728c57a55cd3db22/include/cppast/cpp_entity_index.hpp#L62" target="_top" title="cpp_entity_index##duplicate_definition_error" xlink:actuate="onRequest" xlink:href="https://github.com/foonathan/cppast/blob/f00df6675d87c6983033d270728c57a55cd3db22/include/cppast/cpp_entity_index.hpp#L62" xlink:show="new" xlink:title="cpp_entity_index##duplicate_definition_error" xlink:type="simple"><rect fill="#FEFECE" filter="url(#f16knxx7sg2c6t)" height="48" id="C_0001989531636101477120" style="stroke: #A80036; stroke-width: 1.5;" width="302" x="6" y="8"/><ellipse cx="21" cy="24" fill="#ADD1B2" rx="11" ry="11" style="stroke: #A80036; stroke-width: 1.0;"/><path d="M23.9688,29.6406 Q23.3906,29.9375 22.75,30.0781 Q22.1094,30.2344 21.4063,30.2344 Q18.9063,30.2344 17.5781,28.5938 Q16.2656,26.9375 16.2656,23.8125 Q16.2656,20.6875 17.5781,19.0313 Q18.9063,17.375 21.4063,17.375 Q22.1094,17.375 22.75,17.5313 Q23.4063,17.6875 23.9688,17.9844 L23.9688,20.7031 Q23.3438,20.125 22.75,19.8594 Q22.1563,19.5781 21.5313,19.5781 Q20.1875,19.5781 19.5,20.6563 Q18.8125,21.7188 18.8125,23.8125 Q18.8125,25.9063 19.5,26.9844 Q20.1875,28.0469 21.5313,28.0469 Q22.1563,28.0469 22.75,27.7813 Q23.3438,27.5 23.9688,26.9219 L23.9688,29.6406 Z "/><text fill="#000000" font-family="sans-serif" font-size="12" lengthAdjust="spacingAndGlyphs" textLength="270" x="35" y="28.1543">cpp_entity_index::duplicate_definition_error</text><line style="stroke: #A80036; stroke-width: 1.5;" x1="7" x2="307" y1="40" y2="40"/><line style="stroke: #A80036; stroke-width: 1.5;" x1="7" x2="307" y1="48" y2="48"/></a><!--MD5=[d039ba3eb863ca7742df52fd70851ddd]
class C_0000634431773903245144--><a href="https://github.com/foonathan/cppast/blob/f00df6675d87c6983033d270728c57a55cd3db22/include/cppast/cpp_entity_index.hpp#L116" target="_top" title="cpp_entity_index##hash" xlink:actuate="onRequest" xlink:href="https://github.com/foonathan/cppast/blob/f00df6675d87c6983033d270728c57a55cd3db22/include/cppast/cpp_entity_index.hpp#L116" xlink:show="new" xlink:title="cpp_entity_index##hash" xlink:type="simple"><rect fill="#FEFECE" filter="url(#f16knxx7sg2c6t)" height="48" id="C_0000634431773903245144" style="stroke: #A80036; stroke-width: 1.5;" width="174" x="70" y="91"/><ellipse cx="85" cy="107" fill="#ADD1B2" rx="11" ry="11" style="stroke: #A80036; stroke-width: 1.0;"/><path d="M87.9688,112.6406 Q87.3906,112.9375 86.75,113.0781 Q86.1094,113.2344 85.4063,113.2344 Q82.9063,113.2344 81.5781,111.5938 Q80.2656,109.9375 80.2656,106.8125 Q80.2656,103.6875 81.5781,102.0313 Q82.9063,100.375 85.4063,100.375 Q86.1094,100.375 86.75,100.5313 Q87.4063,100.6875 87.9688,100.9844 L87.9688,103.7031 Q87.3438,103.125 86.75,102.8594 Q86.1563,102.5781 85.5313,102.5781 Q84.1875,102.5781 83.5,103.6563 Q82.8125,104.7188 82.8125,106.8125 Q82.8125,108.9063 83.5,109.9844 Q84.1875,111.0469 85.5313,111.0469 Q86.1563,111.0469 86.75,110.7813 Q87.3438,110.5 87.9688,109.9219 L87.9688,112.6406 Z "/><text fill="#000000" font-family="sans-serif" font-size="12" lengthAdjust="spacingAndGlyphs" textLength="142" x="99" y="111.1543">cpp_entity_index::hash</text><line style="stroke: #A80036; stroke-width: 1.5;" x1="71" x2="243" y1="123" y2="123"/><line style="stroke: #A80036; stroke-width: 1.5;" x1="71" x2="243" y1="131" y2="131"/></a><!--MD5=[f90db2c8cc7a5812de033d131e7a7a60]
class C_0001918458639534713763--><a href="https://github.com/foonathan/cppast/blob/f00df6675d87c6983033d270728c57a55cd3db22/include/cppast/cpp_entity_index.hpp#L124" target="_top" title="cpp_entity_index##value" xlink:actuate="onRequest" xlink:href="https://github.com/foonathan/cppast/blob/f00df6675d87c6983033d270728c57a55cd3db22/include/cppast/cpp_entity_index.hpp#L124" xlink:show="new" xlink:title="cpp_entity_index##value" xlink:type="simple"><rect fill="#FEFECE" filter="url(#f16knxx7sg2c6t)" height="48" id="C_0001918458639534713763" style="stroke: #A80036; stroke-width: 1.5;" width="176" x="69" y="174"/><ellipse cx="84" cy="190" fill="#ADD1B2" rx="11" ry="11" style="stroke: #A80036; stroke-width: 1.0;"/><path d="M86.9688,195.6406 Q86.3906,195.9375 85.75,196.0781 Q85.1094,196.2344 84.4063,196.2344 Q81.9063,196.2344 80.5781,194.5938 Q79.2656,192.9375 79.2656,189.8125 Q79.2656,186.6875 80.5781,185.0313 Q81.9063,183.375 84.4063,183.375 Q85.1094,183.375 85.75,183.5313 Q86.4063,183.6875 86.9688,183.9844 L86.9688,186.7031 Q86.3438,186.125 85.75,185.8594 Q85.1563,185.5781 84.5313,185.5781 Q83.1875,185.5781 82.5,186.6563 Q81.8125,187.7188 81.8125,189.8125 Q81.8125,191.9063 82.5,192.9844 Q83.1875,194.0469 84.5313,194.0469 Q85.1563,194.0469 85.75,193.7813 Q86.3438,193.5 86.9688,192.9219 L86.9688,195.6406 Z "/><text fill="#000000" font-family="sans-serif" font-size="12" lengthAdjust="spacingAndGlyphs" textLength="144" x="98" y="194.1543">cpp_entity_index::value</text><line style="stroke: #A80036; stroke-width: 1.5;" x1="70" x2="244" y1="206" y2="206"/><line style="stroke: #A80036; stroke-width: 1.5;" x1="70" x2="244" y1="214" y2="214"/></a><!--MD5=[14d4e23227f971146b0fec39d18f0b8d]
class C_0001158442798649543268--><a href="https://github.com/foonathan/cppast/blob/f00df6675d87c6983033d270728c57a55cd3db22/include/cppast/cpp_template_parameter.hpp#L17" target="_top" title="cpp_template_parameter" xlink:actuate="onRequest" xlink:href="https://github.com/foonathan/cppast/blob/f00df6675d87c6983033d270728c57a55cd3db22/include/cppast/cpp_template_parameter.hpp#L17" xlink:show="new" xlink:title="cpp_template_parameter" xlink:type="simple"><rect fill="#FEFECE" filter="url(#f16knxx7sg2c6t)" height="48" id="C_0001158442798649543268" style="stroke: #A80036; stroke-width: 1.5;" width="189" x="778" y="412"/><ellipse cx="793" cy="428" fill="#ADD1B2" rx="11" ry="11" style="stroke: #A80036; stroke-width: 1.0;"/><path d="M795.9688,433.6406 Q795.3906,433.9375 794.75,434.0781 Q794.1094,434.2344 793.4063,434.2344 Q790.9063,434.2344 789.5781,432.5938 Q788.2656,430.9375 788.2656,427.8125 Q788.2656,424.6875 789.5781,423.0313 Q790.9063,421.375 793.4063,421.375 Q794.1094,421.375 794.75,421.5313 Q795.4063,421.6875 795.9688,421.9844 L795.9688,424.7031 Q795.3438,424.125 794.75,423.8594 Q794.1563,423.5781 793.5313,423.5781 Q792.1875,423.5781 791.5,424.6563 Q790.8125,425.7188 790.8125,427.8125 Q790.8125,429.9063 791.5,430.9844 Q792.1875,432.0469 793.5313,432.0469 Q794.1563,432.0469 794.75,431.7813 Q795.3438,431.5 795.9688,430.9219 L795.9688,433.6406 Z "/><text fill="#000000" font-family="sans-serif" font-size="12" lengthAdjust="spacingAndGlyphs" textLength="157" x="807" y="432.1543">cpp_template_parameter</text><line style="stroke: #A80036; stroke-width: 1.5;" x1="779" x2="966" y1="444" y2="444"/><line style="stroke: #A80036; stroke-width: 1.5;" x1="779" x2="966" y1="452" y2="452"/></a><!--MD5=[5275449932aa3caa3837171c88ec9f23]
class C_0000007122300671081288--><a href="https://github.com/foonathan/cppast/blob/f00df6675d87c6983033d270728c57a55cd3db22/include/cppast/cpp_template.hpp#L21" target="_top" title="cpp_template" xlink:actuate="onRequest" xlink:href="https://github.com/foonathan/cppast/blob/f00df6675d87c6983033d270728c57a55cd3db22/include/cppast/cpp_template.hpp#L21" xlink:show="new" xlink:title="cpp_template" xlink:type="simple"><rect fill="#FEFECE" filter="url(#f16knxx7sg2c6t)" height="48" id="C_0000007122300671081288" style="stroke: #A80036; stroke-width: 1.5;" width="117" x="478" y="451"/><ellipse cx="493" cy="467" fill="#ADD1B2" rx="11" ry="11" style="stroke: #A80036; stroke-width: 1.0;"/><path d="M495.9688,472.6406 Q495.3906,472.9375 494.75,473.0781 Q494.1094,473.2344 493.4063,473.2344 Q490.9063,473.2344 489.5781,471.5938 Q488.2656,469.9375 488.2656,466.8125 Q488.2656,463.6875 489.5781,462.0313 Q490.9063,460.375 493.4063,460.375 Q494.1094,460.375 494.75,460.5313 Q495.4063,460.6875 495.9688,460.9844 L495.9688,463.7031 Q495.3438,463.125 494.75,462.8594 Q494.1563,462.5781 493.5313,462.5781 Q492.1875,462.5781 491.5,463.6563 Q490.8125,464.7188 490.8125,466.8125 Q490.8125,468.9063 491.5,469.9844 Q492.1875,471.0469 493.5313,471.0469 Q494.1563,471.0469 494.75,470.7813 Q495.3438,470.5 495.9688,469.9219 L495.9688,472.6406 Z "/><text fill="#000000" font-family="sans-serif" font-size="12" lengthAdjust="spacingAndGlyphs" textLength="85" x="507" y="471.1543">cpp_template</text><line style="stroke: #A80036; stroke-width: 1.5;" x1="479" x2="594" y1="483" y2="483"/><line style="stroke: #A80036; stroke-width: 1.5;" x1="479" x2="594" y1="491" y2="491"/></a><!--MD5=[d4173e3c6e94bccce57a3fad9ea04794]
class C_0001248593507051490272--><a href="https://github.com/foonathan/cppast/blob/f00df6675d87c6983033d270728c57a55cd3db22/include/cppast/cppast_fwd.hpp#L36" target="_top" title="cpp_file" xlink:actuate="onRequest" xlink:href="https://github.com/foonathan/cppast/blob/f00df6675d87c6983033d270728c57a55cd3db22/include/cppast/cppast_fwd.hpp#L36" xlink:show="new" xlink:title="cpp_file" xlink:type="simple"><rect fill="#FEFECE" filter="url(#f16knxx7sg2c6t)" height="48" id="C_0001248593507051490272" style="stroke: #A80036; stroke-width: 1.5;" width="79" x="497" y="534"/><ellipse cx="512" cy="550" fill="#ADD1B2" rx="11" ry="11" style="stroke: #A80036; stroke-width: 1.0;"/><path d="M514.9688,555.6406 Q514.3906,555.9375 513.75,556.0781 Q513.1094,556.2344 512.4063,556.2344 Q509.9063,556.2344 508.5781,554.5938 Q507.2656,552.9375 507.2656,549.8125 Q507.2656,546.6875 508.5781,545.0313 Q509.9063,543.375 512.4063,543.375 Q513.1094,543.375 513.75,543.5313 Q514.4063,543.6875 514.9688,543.9844 L514.9688,546.7031 Q514.3438,546.125 513.75,545.8594 Q513.1563,545.5781 512.5313,545.5781 Q511.1875,545.5781 510.5,546.6563 Q509.8125,547.7188 509.8125,549.8125 Q509.8125,551.9063 510.5,552.9844 Q511.1875,554.0469 512.5313,554.0469 Q513.1563,554.0469 513.75,553.7813 Q514.3438,553.5 514.9688,552.9219 L514.9688,555.6406 Z "/><text fill="#000000" font-family="sans-serif" font-size="12" lengthAdjust="spacingAndGlyphs" textLength="47" x="526" y="554.1543">cpp_file</text><line style="stroke: #A80036; stroke-width: 1.5;" x1="498" x2="575" y1="566" y2="566"/><line style="stroke: #A80036; stroke-width: 1.5;" x1="498" x2="575" y1="574" y2="574"/></a><!--MD5=[7db68d66fcad437cb1854f9af63ed3dc]
reverse link C_0001854695372332280903 to C_0000560657228528420559--><path d="M218.2,372.49 C289.9,342.1 408.76,291.72 478.86,262.01 " fill="none" id="C_0001854695372332280903&lt;-C_0000560657228528420559" style="stroke: #A80036; stroke-width: 1.0;"/><polygon fill="#FFFFFF" points="205.81,377.74,212.8963,379.0756,216.8547,373.048,209.7683,371.7124,205.81,377.74" style="stroke: #A80036; stroke-width: 1.0;"/><rect fill="none" height="6" style="stroke: #C82930; stroke-width: 1.0;" width="6" x="341" y="278.0664"/><text fill="#000000" font-family="sans-serif" font-size="13" lengthAdjust="spacingAndGlyphs" textLength="69" x="351" y="285.0669">attributes_</text><!--MD5=[4764f33c6f69c8375cb539c14c6cf482]
reverse link C_0001854695372332280903 to C_0001449857709503654826--><path d="M225.49,384.23 C288.49,371.38 382.73,352.16 450.76,338.28 " fill="none" id="C_0001854695372332280903&lt;-C_0001449857709503654826" style="stroke: #A80036; stroke-width: 1.0;"/><polygon fill="none" points="226.81,391.11,205.81,388.25,224.01,377.39,226.81,391.11" style="stroke: #A80036; stroke-width: 1.0;"/><!--MD5=[ba1ebaff83692faf260be790c47ce346]
reverse link C_0001989731226165037041 to C_0001152344551163828554--><path d="M617.41,115.24 C678.68,115.42 761.69,115.67 815.9,115.83 " fill="none" id="C_0001989731226165037041&lt;-C_0001152344551163828554" style="stroke: #A80036; stroke-width: 1.0;"/><polygon fill="#FFFFFF" points="604.29,115.2,610.2768,119.2198,616.2899,115.2396,610.3032,111.2198,604.29,115.2" style="stroke: #A80036; stroke-width: 1.0;"/><rect fill="none" height="6" style="stroke: #C82930; stroke-width: 1.0;" width="6" x="678" y="105.0664"/><text fill="#000000" font-family="sans-serif" font-size="13" lengthAdjust="spacingAndGlyphs" textLength="36" x="688" y="112.0669">map_</text><!--MD5=[ba1ebaff83692faf260be790c47ce346]
reverse link C_0001989731226165037041 to C_0001152344551163828554--><path d="M617.22,135.49 C628.82,137.77 640.67,139.73 652,141 C694.4,145.75 705.55,145.25 748,141 C770.42,138.75 794.79,134.27 815.91,129.71 " fill="none" id="C_0001989731226165037041&lt;-C_0001152344551163828554-1" style="stroke: #A80036; stroke-width: 1.0;"/><polygon fill="#FFFFFF" points="604.28,132.79,609.3415,137.9262,616.0294,135.2296,610.9679,130.0933,604.28,132.79" style="stroke: #A80036; stroke-width: 1.0;"/><rect fill="none" height="6" style="stroke: #C82930; stroke-width: 1.0;" width="6" x="685" y="130.0664"/><text fill="#000000" font-family="sans-serif" font-size="13" lengthAdjust="spacingAndGlyphs" textLength="22" x="695" y="137.0669">ns_</text><!--MD5=[f91adfe358cfdda9463a7db987fdead0]
link C_0001989531636101477120 to C_0001989731226165037041--><path d="M270.03,56.03 C316.73,66.11 371.51,78.02 421,89 C431.67,91.37 442.9,93.88 453.97,96.38 " fill="none" id="C_0001989531636101477120-&gt;C_0001989731226165037041" style="stroke: #A80036; stroke-width: 1.0;"/><ellipse cx="461.1161" cy="98.0096" fill="#FFFFFF" rx="8" ry="8" style="stroke: #A80036; stroke-width: 1.0;"/><line style="stroke: #A80036; stroke-width: 1.0;" x1="453.3122" x2="468.92" y1="96.2491" y2="99.77"/><line style="stroke: #A80036; stroke-width: 1.0;" x1="462.8766" x2="459.3557" y1="90.2057" y2="105.8134"/><!--MD5=[43762c83f348fe53cf1b4bc851c34b6a]
link C_0000634431773903245144 to C_0001989731226165037041--><path d="M244.13,115 C307.02,115 391.75,115 453.62,115 " fill="none" id="C_0000634431773903245144-&gt;C_0001989731226165037041" style="stroke: #A80036; stroke-width: 1.0;"/><ellipse cx="460.84" cy="115" fill="#FFFFFF" rx="8" ry="8" style="stroke: #A80036; stroke-width: 1.0;"/><line style="stroke: #A80036; stroke-width: 1.0;" x1="452.84" x2="468.84" y1="115" y2="115"/><line style="stroke: #A80036; stroke-width: 1.0;" x1="460.84" x2="460.84" y1="107" y2="123"/><!--MD5=[370d704d5d15c2c0189c2b37dde92daf]
link C_0001918458639534713763 to C_0001989731226165037041--><path d="M245.08,178.85 C308.04,165.01 392.52,146.44 454.13,132.89 " fill="none" id="C_0001918458639534713763-&gt;C_0001989731226165037041" style="stroke: #A80036; stroke-width: 1.0;"/><ellipse cx="461.0557" cy="131.3637" fill="#FFFFFF" rx="8" ry="8" style="stroke: #A80036; stroke-width: 1.0;"/><line style="stroke: #A80036; stroke-width: 1.0;" x1="453.2414" x2="468.87" y1="133.0773" y2="129.65"/><line style="stroke: #A80036; stroke-width: 1.0;" x1="459.342" x2="462.7694" y1="123.5494" y2="139.178"/><!--MD5=[54cd7bf265e46ce3c20056fbe97c6b4f]
reverse link C_0001854695372332280903 to C_0001158442798649543268--><path d="M225.93,400.16 C335.76,403.86 559.1,412.27 748,425 C757.66,425.65 767.75,426.41 777.8,427.23 " fill="none" id="C_0001854695372332280903&lt;-C_0001158442798649543268" style="stroke: #A80036; stroke-width: 1.0;"/><polygon fill="none" points="225.59,407.15,205.84,399.49,226.06,393.16,225.59,407.15" style="stroke: #A80036; stroke-width: 1.0;"/><!--MD5=[bb78279d0c43d20fc2e70616c8087fc8]
reverse link C_0000007122300671081288 to C_0001158442798649543268--><path d="M608.43,466.72 C657.79,460.95 724.14,453.21 777.85,446.94 " fill="none" id="C_0000007122300671081288&lt;-C_0001158442798649543268" style="stroke: #A80036; stroke-width: 1.0;"/><polygon fill="#FFFFFF" points="595.3,468.25,601.725,471.524,607.2183,466.8525,600.7933,463.5785,595.3,468.25" style="stroke: #A80036; stroke-width: 1.0;"/><rect fill="none" height="6" style="stroke: #C82930; stroke-width: 1.0;" width="6" x="655" y="439.0664"/><text fill="#000000" font-family="sans-serif" font-size="13" lengthAdjust="spacingAndGlyphs" textLength="82" x="665" y="446.0669">parameters_</text><!--MD5=[566c918c60522ba5da5576be62bc445d]
reverse link C_0001854695372332280903 to C_0000007122300671081288--><path d="M225.85,411.84 C297.77,426.51 410.14,449.43 477.9,463.25 " fill="none" id="C_0001854695372332280903&lt;-C_0000007122300671081288" style="stroke: #A80036; stroke-width: 1.0;"/><polygon fill="none" points="224.01,418.61,205.81,407.75,226.81,404.89,224.01,418.61" style="stroke: #A80036; stroke-width: 1.0;"/><!--MD5=[0bb53f97ee7ecf0ad4fa222297793c6d]
reverse link C_0001854695372332280903 to C_0001248593507051490272--><path d="M224.26,426.09 C303.29,459.58 432.73,514.44 496.91,541.65 " fill="none" id="C_0001854695372332280903&lt;-C_0001248593507051490272" style="stroke: #A80036; stroke-width: 1.0;"/><polygon fill="none" points="221.49,432.51,205.81,418.26,226.96,419.62,221.49,432.51" style="stroke: #A80036; stroke-width: 1.0;"/><!--MD5=[4861ed2b739ded7769a5a4b021e12da4]
@startuml
left to right direction
class "cpp_attribute" as C_0000560657228528420559
class C_0000560657228528420559 [[https://github.com/foonathan/cppast/blob/f00df6675d87c6983033d270728c57a55cd3db22/include/cppast/cpp_attribute.hpp#L42{cpp_attribute}]] {
}
abstract "cpp_entity" as C_0001854695372332280903
abstract C_0001854695372332280903 [[https://github.com/foonathan/cppast/blob/f00df6675d87c6983033d270728c57a55cd3db22/include/cppast/cpp_entity.hpp#L47{cpp_entity}]] {
}
class "cpp_unexposed_entity" as C_0001449857709503654826
class C_0001449857709503654826 [[https://github.com/foonathan/cppast/blob/f00df6675d87c6983033d270728c57a55cd3db22/include/cppast/cpp_entity.hpp#L187{cpp_unexposed_entity}]] {
}
class "cpp_entity_id" as C_0001152344551163828554
class C_0001152344551163828554 [[https://github.com/foonathan/cppast/blob/f00df6675d87c6983033d270728c57a55cd3db22/include/cppast/cpp_entity_index.hpp#L38{cpp_entity_id}]] {
}
class "cpp_entity_index" as C_0001989731226165037041
class C_0001989731226165037041 [[https://github.com/foonathan/cppast/blob/f00df6675d87c6983033d270728c57a55cd3db22/include/cppast/cpp_entity_index.hpp#L58{cpp_entity_index}]] {
}
class "cpp_entity_index::duplicate_definition_error" as C_0001989531636101477120
class C_0001989531636101477120 [[https://github.com/foonathan/cppast/blob/f00df6675d87c6983033d270728c57a55cd3db22/include/cppast/cpp_entity_index.hpp#L62{cpp_entity_index##duplicate_definition_error}]] {
}
class "cpp_entity_index::hash" as C_0000634431773903245144
class C_0000634431773903245144 [[https://github.com/foonathan/cppast/blob/f00df6675d87c6983033d270728c57a55cd3db22/include/cppast/cpp_entity_index.hpp#L116{cpp_entity_index##hash}]] {
}
class "cpp_entity_index::value" as C_0001918458639534713763
class C_0001918458639534713763 [[https://github.com/foonathan/cppast/blob/f00df6675d87c6983033d270728c57a55cd3db22/include/cppast/cpp_entity_index.hpp#L124{cpp_entity_index##value}]] {
}
class "cpp_template_parameter" as C_0001158442798649543268
class C_0001158442798649543268 [[https://github.com/foonathan/cppast/blob/f00df6675d87c6983033d270728c57a55cd3db22/include/cppast/cpp_template_parameter.hpp#L17{cpp_template_parameter}]] {
}
class "cpp_template" as C_0000007122300671081288
class C_0000007122300671081288 [[https://github.com/foonathan/cppast/blob/f00df6675d87c6983033d270728c57a55cd3db22/include/cppast/cpp_template.hpp#L21{cpp_template}]] {
}
class "cpp_file" as C_0001248593507051490272
class C_0001248593507051490272 [[https://github.com/foonathan/cppast/blob/f00df6675d87c6983033d270728c57a55cd3db22/include/cppast/cppast_fwd.hpp#L36{cpp_file}]] {
}
C_0001854695372332280903 o- - C_0000560657228528420559 : -attributes_
C_0001854695372332280903 <|- - C_0001449857709503654826
C_0001989731226165037041 o- - C_0001152344551163828554 : -map_
C_0001989731226165037041 o- - C_0001152344551163828554 : -ns_
C_0001989531636101477120 - -+ C_0001989731226165037041
C_0000634431773903245144 - -+ C_0001989731226165037041
C_0001918458639534713763 - -+ C_0001989731226165037041
C_0001854695372332280903 <|- - C_0001158442798649543268
C_0000007122300671081288 o- - C_0001158442798649543268 : -parameters_
C_0001854695372332280903 <|- - C_0000007122300671081288
C_0001854695372332280903 <|- - C_0001248593507051490272

@enduml

PlantUML version 1.2020.02(Sun Mar 01 11:22:07 CET 2020)
(GPL source distribution)
Java Runtime: OpenJDK Runtime Environment
JVM: OpenJDK 64-Bit Server VM
Java Version: 11.0.18+10-post-Ubuntu-0ubuntu122.04
Operating System: Linux
Default Encoding: UTF-8
Language: en
Country: US
--></g></svg>