<?xml version="1.0" encoding="UTF-8" standalone="no"?><svg xmlns="http://www.w3.org/2000/svg" xmlns:xlink="http://www.w3.org/1999/xlink" contentScriptType="application/ecmascript" contentStyleType="text/css" height="589px" preserveAspectRatio="none" style="width:1556px;height:589px;" version="1.1" viewBox="0 0 1556 589" width="1556px" zoomAndPan="magnify"><defs><filter height="300%" id="f16ktweq0jw0qa" width="300%" x="-1" y="-1"><feGaussianBlur result="blurOut" stdDeviation="2.0"/><feColorMatrix in="blurOut" result="blurOut2" type="matrix" values="0 0 0 0 0 0 0 0 0 0 0 0 0 0 0 0 0 0 .4 0"/><feOffset dx="4.0" dy="4.0" in="blurOut2" result="blurOut3"/><feBlend in="SourceGraphic" in2="blurOut3" mode="normal"/></filter></defs><g><text fill="#000000" font-family="sans-serif" font-size="18" lengthAdjust="spacingAndGlyphs" textLength="282" x="640.5" y="16.708">'cpp_entity_index' class diagram</text><!--MD5=[ead75a3296f458aaae499d9f5e160fb4]
class C_0001152344551163828554--><a href="https://github.com/foonathan/cppast/blob/f00df6675d87c6983033d270728c57a55cd3db22/include/cppast/cpp_entity_index.hpp#L38" target="_top" title="cpp_entity_id" xlink:actuate="onRequest" xlink:href="https://github.com/foonathan/cppast/blob/f00df6675d87c6983033d270728c57a55cd3db22/include/cppast/cpp_entity_index.hpp#L38" xlink:show="new" xlink:title="cpp_entity_id" xlink:type="simple"><rect fill="#FEFECE" filter="url(#f16ktweq0jw0qa)" height="48" id="C_0001152344551163828554" style="stroke: #A80036; stroke-width: 1.5;" width="113" x="1058" y="28.9531"/><ellipse cx="1073" cy="44.9531" fill="#ADD1B2" rx="11" ry="11" style="stroke: #A80036; stroke-width: 1.0;"/><path d="M1075.9688,50.5938 Q1075.3906,50.8906 1074.75,51.0313 Q1074.1094,51.1875 1073.4063,51.1875 Q1070.9063,51.1875 1069.5781,49.5469 Q1068.2656,47.8906 1068.2656,44.7656 Q1068.2656,41.6406 1069.5781,39.9844 Q1070.9063,38.3281 1073.4063,38.3281 Q1074.1094,38.3281 1074.75,38.4844 Q1075.4063,38.6406 1075.9688,38.9375 L1075.9688,41.6563 Q1075.3438,41.0781 1074.75,40.8125 Q1074.1563,40.5313 1073.5313,40.5313 Q1072.1875,40.5313 1071.5,41.6094 Q1070.8125,42.6719 1070.8125,44.7656 Q1070.8125,46.8594 1071.5,47.9375 Q1072.1875,49 1073.5313,49 Q1074.1563,49 1074.75,48.7344 Q1075.3438,48.4531 1075.9688,47.875 L1075.9688,50.5938 Z "/><text fill="#000000" font-family="sans-serif" font-size="12" lengthAdjust="spacingAndGlyphs" textLength="81" x="1087" y="49.1074">cpp_entity_id</text><line style="stroke: #A80036; stroke-width: 1.5;" x1="1059" x2="1170" y1="60.9531" y2="60.9531"/><line style="stroke: #A80036; stroke-width: 1.5;" x1="1059" x2="1170" y1="68.9531" y2="68.9531"/></a><!--MD5=[981af67409a0513940401f7a9b004db6]
class C_0001989731226165037041--><a href="https://github.com/foonathan/cppast/blob/f00df6675d87c6983033d270728c57a55cd3db22/include/cppast/cpp_entity_index.hpp#L58" target="_top" title="cpp_entity_index" xlink:actuate="onRequest" xlink:href="https://github.com/foonathan/cppast/blob/f00df6675d87c6983033d270728c57a55cd3db22/include/cppast/cpp_entity_index.hpp#L58" xlink:show="new" xlink:title="cpp_entity_index" xlink:type="simple"><rect fill="#FEFECE" filter="url(#f16ktweq0jw0qa)" height="48" id="C_0001989731226165037041" style="stroke: #A80036; stroke-width: 1.5;" width="135" x="751" y="113.9531"/><ellipse cx="766" cy="129.9531" fill="#ADD1B2" rx="11" ry="11" style="stroke: #A80036; stroke-width: 1.0;"/><path d="M768.9688,135.5938 Q768.3906,135.8906 767.75,136.0313 Q767.1094,136.1875 766.4063,136.1875 Q763.9063,136.1875 762.5781,134.5469 Q761.2656,132.8906 761.2656,129.7656 Q761.2656,126.6406 762.5781,124.9844 Q763.9063,123.3281 766.4063,123.3281 Q767.1094,123.3281 767.75,123.4844 Q768.4063,123.6406 768.9688,123.9375 L768.9688,126.6563 Q768.3438,126.0781 767.75,125.8125 Q767.1563,125.5313 766.5313,125.5313 Q765.1875,125.5313 764.5,126.6094 Q763.8125,127.6719 763.8125,129.7656 Q763.8125,131.8594 764.5,132.9375 Q765.1875,134 766.5313,134 Q767.1563,134 767.75,133.7344 Q768.3438,133.4531 768.9688,132.875 L768.9688,135.5938 Z "/><text fill="#000000" font-family="sans-serif" font-size="12" lengthAdjust="spacingAndGlyphs" textLength="103" x="780" y="134.1074">cpp_entity_index</text><line style="stroke: #A80036; stroke-width: 1.5;" x1="752" x2="885" y1="145.9531" y2="145.9531"/><line style="stroke: #A80036; stroke-width: 1.5;" x1="752" x2="885" y1="153.9531" y2="153.9531"/></a><!--MD5=[db9b0988df08cd2ec00d171a5971ee4c]
class C_0001989531636101477120--><a href="https://github.com/foonathan/cppast/blob/f00df6675d87c6983033d270728c57a55cd3db22/include/cppast/cpp_entity_index.hpp#L62" target="_top" title="cpp_entity_index##duplicate_definition_error" xlink:actuate="onRequest" xlink:href="https://github.com/foonathan/cppast/blob/f00df6675d87c6983033d270728c57a55cd3db22/include/cppast/cpp_entity_index.hpp#L62" xlink:show="new" xlink:title="cpp_entity_index##duplicate_definition_error" xlink:type="simple"><rect fill="#FEFECE" filter="url(#f16ktweq0jw0qa)" height="48" id="C_0001989531636101477120" style="stroke: #A80036; stroke-width: 1.5;" width="302" x="293" y="41.9531"/><ellipse cx="308" cy="57.9531" fill="#ADD1B2" rx="11" ry="11" style="stroke: #A80036; stroke-width: 1.0;"/><path d="M310.9688,63.5938 Q310.3906,63.8906 309.75,64.0313 Q309.1094,64.1875 308.4063,64.1875 Q305.9063,64.1875 304.5781,62.5469 Q303.2656,60.8906 303.2656,57.7656 Q303.2656,54.6406 304.5781,52.9844 Q305.9063,51.3281 308.4063,51.3281 Q309.1094,51.3281 309.75,51.4844 Q310.4063,51.6406 310.9688,51.9375 L310.9688,54.6563 Q310.3438,54.0781 309.75,53.8125 Q309.1563,53.5313 308.5313,53.5313 Q307.1875,53.5313 306.5,54.6094 Q305.8125,55.6719 305.8125,57.7656 Q305.8125,59.8594 306.5,60.9375 Q307.1875,62 308.5313,62 Q309.1563,62 309.75,61.7344 Q310.3438,61.4531 310.9688,60.875 L310.9688,63.5938 Z "/><text fill="#000000" font-family="sans-serif" font-size="12" lengthAdjust="spacingAndGlyphs" textLength="270" x="322" y="62.1074">cpp_entity_index::duplicate_definition_error</text><line style="stroke: #A80036; stroke-width: 1.5;" x1="294" x2="594" y1="73.9531" y2="73.9531"/><line style="stroke: #A80036; stroke-width: 1.5;" x1="294" x2="594" y1="81.9531" y2="81.9531"/></a><!--MD5=[d039ba3eb863ca7742df52fd70851ddd]
class C_0000634431773903245144--><a href="https://github.com/foonathan/cppast/blob/f00df6675d87c6983033d270728c57a55cd3db22/include/cppast/cpp_entity_index.hpp#L116" target="_top" title="cpp_entity_index##hash" xlink:actuate="onRequest" xlink:href="https://github.com/foonathan/cppast/blob/f00df6675d87c6983033d270728c57a55cd3db22/include/cppast/cpp_entity_index.hpp#L116" xlink:show="new" xlink:title="cpp_entity_index##hash" xlink:type="simple"><rect fill="#FEFECE" filter="url(#f16ktweq0jw0qa)" height="48" id="C_0000634431773903245144" style="stroke: #A80036; stroke-width: 1.5;" width="174" x="357" y="124.9531"/><ellipse cx="372" cy="140.9531" fill="#ADD1B2" rx="11" ry="11" style="stroke: #A80036; stroke-width: 1.0;"/><path d="M374.9688,146.5938 Q374.3906,146.8906 373.75,147.0313 Q373.1094,147.1875 372.4063,147.1875 Q369.9063,147.1875 368.5781,145.5469 Q367.2656,143.8906 367.2656,140.7656 Q367.2656,137.6406 368.5781,135.9844 Q369.9063,134.3281 372.4063,134.3281 Q373.1094,134.3281 373.75,134.4844 Q374.4063,134.6406 374.9688,134.9375 L374.9688,137.6563 Q374.3438,137.0781 373.75,136.8125 Q373.1563,136.5313 372.5313,136.5313 Q371.1875,136.5313 370.5,137.6094 Q369.8125,138.6719 369.8125,140.7656 Q369.8125,142.8594 370.5,143.9375 Q371.1875,145 372.5313,145 Q373.1563,145 373.75,144.7344 Q374.3438,144.4531 374.9688,143.875 L374.9688,146.5938 Z "/><text fill="#000000" font-family="sans-serif" font-size="12" lengthAdjust="spacingAndGlyphs" textLength="142" x="386" y="145.1074">cpp_entity_index::hash</text><line style="stroke: #A80036; stroke-width: 1.5;" x1="358" x2="530" y1="156.9531" y2="156.9531"/><line style="stroke: #A80036; stroke-width: 1.5;" x1="358" x2="530" y1="164.9531" y2="164.9531"/></a><!--MD5=[f90db2c8cc7a5812de033d131e7a7a60]
class C_0001918458639534713763--><a href="https://github.com/foonathan/cppast/blob/f00df6675d87c6983033d270728c57a55cd3db22/include/cppast/cpp_entity_index.hpp#L124" target="_top" title="cpp_entity_index##value" xlink:actuate="onRequest" xlink:href="https://github.com/foonathan/cppast/blob/f00df6675d87c6983033d270728c57a55cd3db22/include/cppast/cpp_entity_index.hpp#L124" xlink:show="new" xlink:title="cpp_entity_index##value" xlink:type="simple"><rect fill="#FEFECE" filter="url(#f16ktweq0jw0qa)" height="48" id="C_0001918458639534713763" style="stroke: #A80036; stroke-width: 1.5;" width="176" x="356" y="215.9531"/><ellipse cx="371" cy="231.9531" fill="#ADD1B2" rx="11" ry="11" style="stroke: #A80036; stroke-width: 1.0;"/><path d="M373.9688,237.5938 Q373.3906,237.8906 372.75,238.0313 Q372.1094,238.1875 371.4063,238.1875 Q368.9063,238.1875 367.5781,236.5469 Q366.2656,234.8906 366.2656,231.7656 Q366.2656,228.6406 367.5781,226.9844 Q368.9063,225.3281 371.4063,225.3281 Q372.1094,225.3281 372.75,225.4844 Q373.4063,225.6406 373.9688,225.9375 L373.9688,228.6563 Q373.3438,228.0781 372.75,227.8125 Q372.1563,227.5313 371.5313,227.5313 Q370.1875,227.5313 369.5,228.6094 Q368.8125,229.6719 368.8125,231.7656 Q368.8125,233.8594 369.5,234.9375 Q370.1875,236 371.5313,236 Q372.1563,236 372.75,235.7344 Q373.3438,235.4531 373.9688,234.875 L373.9688,237.5938 Z "/><text fill="#000000" font-family="sans-serif" font-size="12" lengthAdjust="spacingAndGlyphs" textLength="144" x="385" y="236.1074">cpp_entity_index::value</text><line style="stroke: #A80036; stroke-width: 1.5;" x1="357" x2="531" y1="247.9531" y2="247.9531"/><line style="stroke: #A80036; stroke-width: 1.5;" x1="357" x2="531" y1="255.9531" y2="255.9531"/></a><!--MD5=[8a1a5657a465463d2b42b90495e823d2]
class C_0000560657228528420559--><a href="https://github.com/foonathan/cppast/blob/f00df6675d87c6983033d270728c57a55cd3db22/include/cppast/cpp_attribute.hpp#L42" target="_top" title="cpp_attribute" xlink:actuate="onRequest" xlink:href="https://github.com/foonathan/cppast/blob/f00df6675d87c6983033d270728c57a55cd3db22/include/cppast/cpp_attribute.hpp#L42" xlink:show="new" xlink:title="cpp_attribute" xlink:type="simple"><rect fill="#FEFECE" filter="url(#f16ktweq0jw0qa)" height="48" id="C_0000560657228528420559" style="stroke: #A80036; stroke-width: 1.5;" width="116" x="1056.5" y="364.9531"/><ellipse cx="1071.5" cy="380.9531" fill="#ADD1B2" rx="11" ry="11" style="stroke: #A80036; stroke-width: 1.0;"/><path d="M1074.4688,386.5938 Q1073.8906,386.8906 1073.25,387.0313 Q1072.6094,387.1875 1071.9063,387.1875 Q1069.4063,387.1875 1068.0781,385.5469 Q1066.7656,383.8906 1066.7656,380.7656 Q1066.7656,377.6406 1068.0781,375.9844 Q1069.4063,374.3281 1071.9063,374.3281 Q1072.6094,374.3281 1073.25,374.4844 Q1073.9063,374.6406 1074.4688,374.9375 L1074.4688,377.6563 Q1073.8438,377.0781 1073.25,376.8125 Q1072.6563,376.5313 1072.0313,376.5313 Q1070.6875,376.5313 1070,377.6094 Q1069.3125,378.6719 1069.3125,380.7656 Q1069.3125,382.8594 1070,383.9375 Q1070.6875,385 1072.0313,385 Q1072.6563,385 1073.25,384.7344 Q1073.8438,384.4531 1074.4688,383.875 L1074.4688,386.5938 Z "/><text fill="#000000" font-family="sans-serif" font-size="12" lengthAdjust="spacingAndGlyphs" textLength="84" x="1085.5" y="385.1074">cpp_attribute</text><line style="stroke: #A80036; stroke-width: 1.5;" x1="1057.5" x2="1171.5" y1="396.9531" y2="396.9531"/><line style="stroke: #A80036; stroke-width: 1.5;" x1="1057.5" x2="1171.5" y1="404.9531" y2="404.9531"/></a><!--MD5=[6b3cec8b308dd9030bcba820a7fb44dc]
class C_0001691123644971107631--><a href="https://github.com/foonathan/cppast/blob/f00df6675d87c6983033d270728c57a55cd3db22/include/cppast/cpp_entity.hpp#L22" target="_top" title="cpp_scope_name" xlink:actuate="onRequest" xlink:href="https://github.com/foonathan/cppast/blob/f00df6675d87c6983033d270728c57a55cd3db22/include/cppast/cpp_entity.hpp#L22" xlink:show="new" xlink:title="cpp_scope_name" xlink:type="simple"><rect fill="#FEFECE" filter="url(#f16ktweq0jw0qa)" height="48" id="C_0001691123644971107631" style="stroke: #A80036; stroke-width: 1.5;" width="140" x="374" y="517.9531"/><ellipse cx="389" cy="533.9531" fill="#ADD1B2" rx="11" ry="11" style="stroke: #A80036; stroke-width: 1.0;"/><path d="M391.9688,539.5938 Q391.3906,539.8906 390.75,540.0313 Q390.1094,540.1875 389.4063,540.1875 Q386.9063,540.1875 385.5781,538.5469 Q384.2656,536.8906 384.2656,533.7656 Q384.2656,530.6406 385.5781,528.9844 Q386.9063,527.3281 389.4063,527.3281 Q390.1094,527.3281 390.75,527.4844 Q391.4063,527.6406 391.9688,527.9375 L391.9688,530.6563 Q391.3438,530.0781 390.75,529.8125 Q390.1563,529.5313 389.5313,529.5313 Q388.1875,529.5313 387.5,530.6094 Q386.8125,531.6719 386.8125,533.7656 Q386.8125,535.8594 387.5,536.9375 Q388.1875,538 389.5313,538 Q390.1563,538 390.75,537.7344 Q391.3438,537.4531 391.9688,536.875 L391.9688,539.5938 Z "/><text fill="#000000" font-family="sans-serif" font-size="12" lengthAdjust="spacingAndGlyphs" textLength="108" x="403" y="538.1074">cpp_scope_name</text><line style="stroke: #A80036; stroke-width: 1.5;" x1="375" x2="513" y1="549.9531" y2="549.9531"/><line style="stroke: #A80036; stroke-width: 1.5;" x1="375" x2="513" y1="557.9531" y2="557.9531"/></a><!--MD5=[71cff2869bd83fd1db572340ae083984]
class C_0001854695372332280903--><a href="https://github.com/foonathan/cppast/blob/f00df6675d87c6983033d270728c57a55cd3db22/include/cppast/cpp_entity.hpp#L47" target="_top" title="cpp_entity" xlink:actuate="onRequest" xlink:href="https://github.com/foonathan/cppast/blob/f00df6675d87c6983033d270728c57a55cd3db22/include/cppast/cpp_entity.hpp#L47" xlink:show="new" xlink:title="cpp_entity" xlink:type="simple"><rect fill="#FEFECE" filter="url(#f16ktweq0jw0qa)" height="48" id="C_0001854695372332280903" style="stroke: #A80036; stroke-width: 1.5;" width="96" x="770.5" y="364.9531"/><ellipse cx="785.5" cy="380.9531" fill="#ADD1B2" rx="11" ry="11" style="stroke: #A80036; stroke-width: 1.0;"/><path d="M788.4688,386.5938 Q787.8906,386.8906 787.25,387.0313 Q786.6094,387.1875 785.9063,387.1875 Q783.4063,387.1875 782.0781,385.5469 Q780.7656,383.8906 780.7656,380.7656 Q780.7656,377.6406 782.0781,375.9844 Q783.4063,374.3281 785.9063,374.3281 Q786.6094,374.3281 787.25,374.4844 Q787.9063,374.6406 788.4688,374.9375 L788.4688,377.6563 Q787.8438,377.0781 787.25,376.8125 Q786.6563,376.5313 786.0313,376.5313 Q784.6875,376.5313 784,377.6094 Q783.3125,378.6719 783.3125,380.7656 Q783.3125,382.8594 784,383.9375 Q784.6875,385 786.0313,385 Q786.6563,385 787.25,384.7344 Q787.8438,384.4531 788.4688,383.875 L788.4688,386.5938 Z "/><text fill="#000000" font-family="sans-serif" font-size="12" lengthAdjust="spacingAndGlyphs" textLength="64" x="799.5" y="385.1074">cpp_entity</text><line style="stroke: #A80036; stroke-width: 1.5;" x1="771.5" x2="865.5" y1="396.9531" y2="396.9531"/><line style="stroke: #A80036; stroke-width: 1.5;" x1="771.5" x2="865.5" y1="404.9531" y2="404.9531"/></a><!--MD5=[fad51da99629238129d989dc56c86d7b]
class C_0001449857709503654826--><a href="https://github.com/foonathan/cppast/blob/f00df6675d87c6983033d270728c57a55cd3db22/include/cppast/cpp_entity.hpp#L187" target="_top" title="cpp_unexposed_entity" xlink:actuate="onRequest" xlink:href="https://github.com/foonathan/cppast/blob/f00df6675d87c6983033d270728c57a55cd3db22/include/cppast/cpp_entity.hpp#L187" xlink:show="new" xlink:title="cpp_unexposed_entity" xlink:type="simple"><rect fill="#FEFECE" filter="url(#f16ktweq0jw0qa)" height="48" id="C_0001449857709503654826" style="stroke: #A80036; stroke-width: 1.5;" width="171" x="1029" y="447.9531"/><ellipse cx="1044" cy="463.9531" fill="#ADD1B2" rx="11" ry="11" style="stroke: #A80036; stroke-width: 1.0;"/><path d="M1046.9688,469.5938 Q1046.3906,469.8906 1045.75,470.0313 Q1045.1094,470.1875 1044.4063,470.1875 Q1041.9063,470.1875 1040.5781,468.5469 Q1039.2656,466.8906 1039.2656,463.7656 Q1039.2656,460.6406 1040.5781,458.9844 Q1041.9063,457.3281 1044.4063,457.3281 Q1045.1094,457.3281 1045.75,457.4844 Q1046.4063,457.6406 1046.9688,457.9375 L1046.9688,460.6563 Q1046.3438,460.0781 1045.75,459.8125 Q1045.1563,459.5313 1044.5313,459.5313 Q1043.1875,459.5313 1042.5,460.6094 Q1041.8125,461.6719 1041.8125,463.7656 Q1041.8125,465.8594 1042.5,466.9375 Q1043.1875,468 1044.5313,468 Q1045.1563,468 1045.75,467.7344 Q1046.3438,467.4531 1046.9688,466.875 L1046.9688,469.5938 Z "/><text fill="#000000" font-family="sans-serif" font-size="12" lengthAdjust="spacingAndGlyphs" textLength="139" x="1058" y="468.1074">cpp_unexposed_entity</text><line style="stroke: #A80036; stroke-width: 1.5;" x1="1030" x2="1199" y1="479.9531" y2="479.9531"/><line style="stroke: #A80036; stroke-width: 1.5;" x1="1030" x2="1199" y1="487.9531" y2="487.9531"/></a><!--MD5=[d4173e3c6e94bccce57a3fad9ea04794]
class C_0001248593507051490272--><a href="https://github.com/foonathan/cppast/blob/f00df6675d87c6983033d270728c57a55cd3db22/include/cppast/cpp_file.hpp#L27" target="_top" title="cpp_file" xlink:actuate="onRequest" xlink:href="https://github.com/foonathan/cppast/blob/f00df6675d87c6983033d270728c57a55cd3db22/include/cppast/cpp_file.hpp#L27" xlink:show="new" xlink:title="cpp_file" xlink:type="simple"><rect fill="#FEFECE" filter="url(#f16ktweq0jw0qa)" height="48" id="C_0001248593507051490272" style="stroke: #A80036; stroke-width: 1.5;" width="79" x="1075" y="210.9531"/><ellipse cx="1090" cy="226.9531" fill="#ADD1B2" rx="11" ry="11" style="stroke: #A80036; stroke-width: 1.0;"/><path d="M1092.9688,232.5938 Q1092.3906,232.8906 1091.75,233.0313 Q1091.1094,233.1875 1090.4063,233.1875 Q1087.9063,233.1875 1086.5781,231.5469 Q1085.2656,229.8906 1085.2656,226.7656 Q1085.2656,223.6406 1086.5781,221.9844 Q1087.9063,220.3281 1090.4063,220.3281 Q1091.1094,220.3281 1091.75,220.4844 Q1092.4063,220.6406 1092.9688,220.9375 L1092.9688,223.6563 Q1092.3438,223.0781 1091.75,222.8125 Q1091.1563,222.5313 1090.5313,222.5313 Q1089.1875,222.5313 1088.5,223.6094 Q1087.8125,224.6719 1087.8125,226.7656 Q1087.8125,228.8594 1088.5,229.9375 Q1089.1875,231 1090.5313,231 Q1091.1563,231 1091.75,230.7344 Q1092.3438,230.4531 1092.9688,229.875 L1092.9688,232.5938 Z "/><text fill="#000000" font-family="sans-serif" font-size="12" lengthAdjust="spacingAndGlyphs" textLength="47" x="1104" y="231.1074">cpp_file</text><line style="stroke: #A80036; stroke-width: 1.5;" x1="1076" x2="1153" y1="242.9531" y2="242.9531"/><line style="stroke: #A80036; stroke-width: 1.5;" x1="1076" x2="1153" y1="250.9531" y2="250.9531"/></a><!--MD5=[5275449932aa3caa3837171c88ec9f23]
class C_0000007122300671081288--><a href="https://github.com/foonathan/cppast/blob/f00df6675d87c6983033d270728c57a55cd3db22/include/cppast/cppast_fwd.hpp#L61" target="_top" title="cpp_template" xlink:actuate="onRequest" xlink:href="https://github.com/foonathan/cppast/blob/f00df6675d87c6983033d270728c57a55cd3db22/include/cppast/cppast_fwd.hpp#L61" xlink:show="new" xlink:title="cpp_template" xlink:type="simple"><rect fill="#FEFECE" filter="url(#f16ktweq0jw0qa)" height="48" id="C_0000007122300671081288" style="stroke: #A80036; stroke-width: 1.5;" width="117" x="1056" y="530.9531"/><ellipse cx="1071" cy="546.9531" fill="#ADD1B2" rx="11" ry="11" style="stroke: #A80036; stroke-width: 1.0;"/><path d="M1073.9688,552.5938 Q1073.3906,552.8906 1072.75,553.0313 Q1072.1094,553.1875 1071.4063,553.1875 Q1068.9063,553.1875 1067.5781,551.5469 Q1066.2656,549.8906 1066.2656,546.7656 Q1066.2656,543.6406 1067.5781,541.9844 Q1068.9063,540.3281 1071.4063,540.3281 Q1072.1094,540.3281 1072.75,540.4844 Q1073.4063,540.6406 1073.9688,540.9375 L1073.9688,543.6563 Q1073.3438,543.0781 1072.75,542.8125 Q1072.1563,542.5313 1071.5313,542.5313 Q1070.1875,542.5313 1069.5,543.6094 Q1068.8125,544.6719 1068.8125,546.7656 Q1068.8125,548.8594 1069.5,549.9375 Q1070.1875,551 1071.5313,551 Q1072.1563,551 1072.75,550.7344 Q1073.3438,550.4531 1073.9688,549.875 L1073.9688,552.5938 Z "/><text fill="#000000" font-family="sans-serif" font-size="12" lengthAdjust="spacingAndGlyphs" textLength="85" x="1085" y="551.1074">cpp_template</text><line style="stroke: #A80036; stroke-width: 1.5;" x1="1057" x2="1172" y1="562.9531" y2="562.9531"/><line style="stroke: #A80036; stroke-width: 1.5;" x1="1057" x2="1172" y1="570.9531" y2="570.9531"/></a><!--MD5=[498a85ef4832891f6c8a21f866edf484]
class C_0000664741342971710245--><a href="https://github.com/foonathan/cppast/blob/f00df6675d87c6983033d270728c57a55cd3db22/include/cppast/cppast_fwd.hpp#L10" target="_top" title="code_generator" xlink:actuate="onRequest" xlink:href="https://github.com/foonathan/cppast/blob/f00df6675d87c6983033d270728c57a55cd3db22/include/cppast/cppast_fwd.hpp#L10" xlink:show="new" xlink:title="code_generator" xlink:type="simple"><rect fill="#FEFECE" filter="url(#f16ktweq0jw0qa)" height="48" id="C_0000664741342971710245" style="stroke: #A80036; stroke-width: 1.5;" width="132" x="378" y="314.9531"/><ellipse cx="393" cy="330.9531" fill="#ADD1B2" rx="11" ry="11" style="stroke: #A80036; stroke-width: 1.0;"/><path d="M395.9688,336.5938 Q395.3906,336.8906 394.75,337.0313 Q394.1094,337.1875 393.4063,337.1875 Q390.9063,337.1875 389.5781,335.5469 Q388.2656,333.8906 388.2656,330.7656 Q388.2656,327.6406 389.5781,325.9844 Q390.9063,324.3281 393.4063,324.3281 Q394.1094,324.3281 394.75,324.4844 Q395.4063,324.6406 395.9688,324.9375 L395.9688,327.6563 Q395.3438,327.0781 394.75,326.8125 Q394.1563,326.5313 393.5313,326.5313 Q392.1875,326.5313 391.5,327.6094 Q390.8125,328.6719 390.8125,330.7656 Q390.8125,332.8594 391.5,333.9375 Q392.1875,335 393.5313,335 Q394.1563,335 394.75,334.7344 Q395.3438,334.4531 395.9688,333.875 L395.9688,336.5938 Z "/><text fill="#000000" font-family="sans-serif" font-size="12" lengthAdjust="spacingAndGlyphs" textLength="100" x="407" y="335.1074">code_generator</text><line style="stroke: #A80036; stroke-width: 1.5;" x1="379" x2="509" y1="346.9531" y2="346.9531"/><line style="stroke: #A80036; stroke-width: 1.5;" x1="379" x2="509" y1="354.9531" y2="354.9531"/></a><!--MD5=[14d4e23227f971146b0fec39d18f0b8d]
class C_0001158442798649543268--><a href="https://github.com/foonathan/cppast/blob/f00df6675d87c6983033d270728c57a55cd3db22/include/cppast/cppast_fwd.hpp#L64" target="_top" title="cpp_template_parameter" xlink:actuate="onRequest" xlink:href="https://github.com/foonathan/cppast/blob/f00df6675d87c6983033d270728c57a55cd3db22/include/cppast/cppast_fwd.hpp#L64" xlink:show="new" xlink:title="cpp_template_parameter" xlink:type="simple"><rect fill="#FEFECE" filter="url(#f16ktweq0jw0qa)" height="48" id="C_0001158442798649543268" style="stroke: #A80036; stroke-width: 1.5;" width="189" x="1356" y="408.9531"/><ellipse cx="1371" cy="424.9531" fill="#ADD1B2" rx="11" ry="11" style="stroke: #A80036; stroke-width: 1.0;"/><path d="M1373.9688,430.5938 Q1373.3906,430.8906 1372.75,431.0313 Q1372.1094,431.1875 1371.4063,431.1875 Q1368.9063,431.1875 1367.5781,429.5469 Q1366.2656,427.8906 1366.2656,424.7656 Q1366.2656,421.6406 1367.5781,419.9844 Q1368.9063,418.3281 1371.4063,418.3281 Q1372.1094,418.3281 1372.75,418.4844 Q1373.4063,418.6406 1373.9688,418.9375 L1373.9688,421.6563 Q1373.3438,421.0781 1372.75,420.8125 Q1372.1563,420.5313 1371.5313,420.5313 Q1370.1875,420.5313 1369.5,421.6094 Q1368.8125,422.6719 1368.8125,424.7656 Q1368.8125,426.8594 1369.5,427.9375 Q1370.1875,429 1371.5313,429 Q1372.1563,429 1372.75,428.7344 Q1373.3438,428.4531 1373.9688,427.875 L1373.9688,430.5938 Z "/><text fill="#000000" font-family="sans-serif" font-size="12" lengthAdjust="spacingAndGlyphs" textLength="157" x="1385" y="429.1074">cpp_template_parameter</text><line style="stroke: #A80036; stroke-width: 1.5;" x1="1357" x2="1544" y1="440.9531" y2="440.9531"/><line style="stroke: #A80036; stroke-width: 1.5;" x1="1357" x2="1544" y1="448.9531" y2="448.9531"/></a><!--MD5=[0ef4ed6d972b2b37f56adec21b3064c2]
class C_0001318630691633731356--><a href="https://github.com/foonathan/cppast/blob/f00df6675d87c6983033d270728c57a55cd3db22/include/cppast/cppast_fwd.hpp#L55" target="_top" title="cpp_namespace" xlink:actuate="onRequest" xlink:href="https://github.com/foonathan/cppast/blob/f00df6675d87c6983033d270728c57a55cd3db22/include/cppast/cppast_fwd.hpp#L55" xlink:show="new" xlink:title="cpp_namespace" xlink:type="simple"><rect fill="#FEFECE" filter="url(#f16ktweq0jw0qa)" height="48" id="C_0001318630691633731356" style="stroke: #A80036; stroke-width: 1.5;" width="134" x="1047.5" y="127.9531"/><ellipse cx="1062.5" cy="143.9531" fill="#ADD1B2" rx="11" ry="11" style="stroke: #A80036; stroke-width: 1.0;"/><path d="M1065.4688,149.5938 Q1064.8906,149.8906 1064.25,150.0313 Q1063.6094,150.1875 1062.9063,150.1875 Q1060.4063,150.1875 1059.0781,148.5469 Q1057.7656,146.8906 1057.7656,143.7656 Q1057.7656,140.6406 1059.0781,138.9844 Q1060.4063,137.3281 1062.9063,137.3281 Q1063.6094,137.3281 1064.25,137.4844 Q1064.9063,137.6406 1065.4688,137.9375 L1065.4688,140.6563 Q1064.8438,140.0781 1064.25,139.8125 Q1063.6563,139.5313 1063.0313,139.5313 Q1061.6875,139.5313 1061,140.6094 Q1060.3125,141.6719 1060.3125,143.7656 Q1060.3125,145.8594 1061,146.9375 Q1061.6875,148 1063.0313,148 Q1063.6563,148 1064.25,147.7344 Q1064.8438,147.4531 1065.4688,146.875 L1065.4688,149.5938 Z "/><text fill="#000000" font-family="sans-serif" font-size="12" lengthAdjust="spacingAndGlyphs" textLength="102" x="1076.5" y="148.1074">cpp_namespace</text><line style="stroke: #A80036; stroke-width: 1.5;" x1="1048.5" x2="1180.5" y1="159.9531" y2="159.9531"/><line style="stroke: #A80036; stroke-width: 1.5;" x1="1048.5" x2="1180.5" y1="167.9531" y2="167.9531"/></a><!--MD5=[05ee695c9293625b8b665eff50f785bd]
class C_0000192432743316866604--><a href="https://github.com/foonathan/cppast/blob/f00df6675d87c6983033d270728c57a55cd3db22/include/cppast/code_generator.hpp#L168" target="_top" title="code_generator##output" xlink:actuate="onRequest" xlink:href="https://github.com/foonathan/cppast/blob/f00df6675d87c6983033d270728c57a55cd3db22/include/cppast/code_generator.hpp#L168" xlink:show="new" xlink:title="code_generator##output" xlink:type="simple"><rect fill="#FEFECE" filter="url(#f16ktweq0jw0qa)" height="48" id="C_0000192432743316866604" style="stroke: #A80036; stroke-width: 1.5;" width="182" x="6" y="332.9531"/><ellipse cx="21" cy="348.9531" fill="#ADD1B2" rx="11" ry="11" style="stroke: #A80036; stroke-width: 1.0;"/><path d="M23.9688,354.5938 Q23.3906,354.8906 22.75,355.0313 Q22.1094,355.1875 21.4063,355.1875 Q18.9063,355.1875 17.5781,353.5469 Q16.2656,351.8906 16.2656,348.7656 Q16.2656,345.6406 17.5781,343.9844 Q18.9063,342.3281 21.4063,342.3281 Q22.1094,342.3281 22.75,342.4844 Q23.4063,342.6406 23.9688,342.9375 L23.9688,345.6563 Q23.3438,345.0781 22.75,344.8125 Q22.1563,344.5313 21.5313,344.5313 Q20.1875,344.5313 19.5,345.6094 Q18.8125,346.6719 18.8125,348.7656 Q18.8125,350.8594 19.5,351.9375 Q20.1875,353 21.5313,353 Q22.1563,353 22.75,352.7344 Q23.3438,352.4531 23.9688,351.875 L23.9688,354.5938 Z "/><text fill="#000000" font-family="sans-serif" font-size="12" lengthAdjust="spacingAndGlyphs" textLength="150" x="35" y="353.1074">code_generator::output</text><line style="stroke: #A80036; stroke-width: 1.5;" x1="7" x2="187" y1="364.9531" y2="364.9531"/><line style="stroke: #A80036; stroke-width: 1.5;" x1="7" x2="187" y1="372.9531" y2="372.9531"/></a><!--MD5=[ba1ebaff83692faf260be790c47ce346]
reverse link C_0001989731226165037041 to C_0001152344551163828554--><path d="M860.63,106.2931 C877.02,95.2331 896.58,83.8731 916,76.9531 C962.04,60.5431 1017.52,54.9431 1057.94,53.2131 " fill="none" id="C_0001989731226165037041&lt;-C_0001152344551163828554" style="stroke: #A80036; stroke-width: 1.0;"/><polygon fill="#FFFFFF" points="849.83,113.8431,857.0394,113.6871,859.6682,106.9722,852.4588,107.1283,849.83,113.8431" style="stroke: #A80036; stroke-width: 1.0;"/><rect fill="none" height="6" style="stroke: #C82930; stroke-width: 1.0;" width="6" x="935.5" y="48.0195"/><text fill="#000000" font-family="sans-serif" font-size="13" lengthAdjust="spacingAndGlyphs" textLength="36" x="945.5" y="55.02">map_</text><!--MD5=[ba1ebaff83692faf260be790c47ce346]
reverse link C_0001989731226165037041 to C_0001152344551163828554--><path d="M899.52,125.5631 C930.91,119.7531 967,111.8931 999,101.9531 C1020.68,95.2231 1043.84,85.7631 1063.62,76.9531 " fill="none" id="C_0001989731226165037041&lt;-C_0001152344551163828554-1" style="stroke: #A80036; stroke-width: 1.0;"/><polygon fill="#FFFFFF" points="886.39,127.9231,893.0034,130.7977,898.2004,125.7986,891.587,122.924,886.39,127.9231" style="stroke: #A80036; stroke-width: 1.0;"/><rect fill="none" height="6" style="stroke: #C82930; stroke-width: 1.0;" width="6" x="942.5" y="91.0195"/><text fill="#000000" font-family="sans-serif" font-size="13" lengthAdjust="spacingAndGlyphs" textLength="22" x="952.5" y="98.02">ns_</text><!--MD5=[ec1347331965b9b64d874999073ede81]
reverse link C_0001989731226165037041 to C_0001318630691633731356--><path d="M899.22,153.1131 C904.88,153.8431 910.52,154.4731 916,154.9531 C959.56,158.7631 1008.72,158.0331 1047.09,156.3431 " fill="none" id="C_0001989731226165037041&lt;-C_0001318630691633731356" style="stroke: #A80036; stroke-width: 1.0;"/><polygon fill="#FFFFFF" points="886.01,151.2331,891.3825,156.0431,897.8889,152.9339,892.5163,148.1239,886.01,151.2331" style="stroke: #A80036; stroke-width: 1.0;"/><rect fill="none" height="6" style="stroke: #C82930; stroke-width: 1.0;" width="6" x="942.5" y="144.0195"/><text fill="#000000" font-family="sans-serif" font-size="13" lengthAdjust="spacingAndGlyphs" textLength="22" x="952.5" y="151.02">ns_</text><!--MD5=[f91adfe358cfdda9463a7db987fdead0]
link C_0001989531636101477120 to C_0001989731226165037041--><path d="M579.93,90.0031 C624.86,98.2531 675.14,107.7331 721,116.9531 C725.83,117.9231 730.8,118.9431 735.8,119.9831 " fill="none" id="C_0001989531636101477120-&gt;C_0001989731226165037041" style="stroke: #A80036; stroke-width: 1.0;"/><ellipse cx="743.0225" cy="121.5108" fill="#FFFFFF" rx="8" ry="8" style="stroke: #A80036; stroke-width: 1.0;"/><line style="stroke: #A80036; stroke-width: 1.0;" x1="735.195" x2="750.85" y1="119.8585" y2="123.1631"/><line style="stroke: #A80036; stroke-width: 1.0;" x1="744.6748" x2="741.3702" y1="113.6833" y2="129.3383"/><!--MD5=[43762c83f348fe53cf1b4bc851c34b6a]
link C_0000634431773903245144 to C_0001989731226165037041--><path d="M531.4,146.4031 C592.88,144.5831 674.99,142.1631 735.47,140.3731 " fill="none" id="C_0000634431773903245144-&gt;C_0001989731226165037041" style="stroke: #A80036; stroke-width: 1.0;"/><ellipse cx="742.7435" cy="140.1594" fill="#FFFFFF" rx="8" ry="8" style="stroke: #A80036; stroke-width: 1.0;"/><line style="stroke: #A80036; stroke-width: 1.0;" x1="734.747" x2="750.74" y1="140.3957" y2="139.9231"/><line style="stroke: #A80036; stroke-width: 1.0;" x1="742.5072" x2="742.9798" y1="132.1629" y2="148.1559"/><!--MD5=[370d704d5d15c2c0189c2b37dde92daf]
link C_0001918458639534713763 to C_0001989731226165037041--><path d="M532.33,216.0431 C593.89,199.1831 675.75,176.7731 735.97,160.2831 " fill="none" id="C_0001918458639534713763-&gt;C_0001989731226165037041" style="stroke: #A80036; stroke-width: 1.0;"/><ellipse cx="743.0758" cy="158.3423" fill="#FFFFFF" rx="8" ry="8" style="stroke: #A80036; stroke-width: 1.0;"/><line style="stroke: #A80036; stroke-width: 1.0;" x1="735.3615" x2="750.79" y1="160.4614" y2="156.2231"/><line style="stroke: #A80036; stroke-width: 1.0;" x1="740.9566" x2="745.1949" y1="150.628" y2="166.0565"/><!--MD5=[499c06a86d41771d347f77e9d7cd8dbf]
reverse link C_0001918458639534713763 to C_0001854695372332280903--><path d="M532.93,268.1431 C587.73,286.5331 659.31,312.0531 721,338.9531 C738.64,346.6431 757.54,356.1431 773.9,364.7931 " fill="none" id="C_0001918458639534713763&lt;-C_0001854695372332280903" style="stroke: #A80036; stroke-width: 1.0;"/><polygon fill="#FFFFFF" points="520.44,263.9831,524.8652,269.6768,531.8229,267.7818,527.3977,262.0882,520.44,263.9831" style="stroke: #A80036; stroke-width: 1.0;"/><ellipse cx="654" cy="295.0195" fill="none" rx="3" ry="3" style="stroke: #038048; stroke-width: 1.0;"/><text fill="#000000" font-family="sans-serif" font-size="13" lengthAdjust="spacingAndGlyphs" textLength="36" x="661" y="299.02">entity</text><!--MD5=[0aa19d1140525511623961b914c6d52a]
reverse link C_0001691123644971107631 to C_0001854695372332280903--><path d="M527.06,524.4131 C583.39,510.6131 658.9,488.5731 721,457.9531 C745.57,445.8431 770.65,427.6931 789.09,413.0431 " fill="none" id="C_0001691123644971107631&lt;-C_0001854695372332280903" style="stroke: #A80036; stroke-width: 1.0;"/><polygon fill="#FFFFFF" points="514.26,527.4931,521.0294,529.9781,525.9269,524.6852,519.1574,522.2002,514.26,527.4931" style="stroke: #A80036; stroke-width: 1.0;"/><rect fill="none" height="6" style="stroke: #C82930; stroke-width: 1.0;" width="6" x="647.5" y="447.0195"/><text fill="#000000" font-family="sans-serif" font-size="13" lengthAdjust="spacingAndGlyphs" textLength="43" x="657.5" y="454.02">entity_</text><!--MD5=[ac2062b7e7c0ad353881ef74e7399fc7]
reverse link C_0001691123644971107631 to C_0000007122300671081288--><path d="M527.28,543.5531 C664.62,546.2231 937.17,551.5231 1055.94,553.8331 " fill="none" id="C_0001691123644971107631&lt;-C_0000007122300671081288" style="stroke: #A80036; stroke-width: 1.0;"/><polygon fill="#FFFFFF" points="514.02,543.2931,519.9396,547.4111,526.0176,543.5307,520.098,539.4127,514.02,543.2931" style="stroke: #A80036; stroke-width: 1.0;"/><rect fill="none" height="6" style="stroke: #C82930; stroke-width: 1.0;" width="6" x="792.5" y="537.0195"/><text fill="#000000" font-family="sans-serif" font-size="13" lengthAdjust="spacingAndGlyphs" textLength="44" x="802.5" y="544.02">templ_</text><!--MD5=[7db68d66fcad437cb1854f9af63ed3dc]
reverse link C_0001854695372332280903 to C_0000560657228528420559--><path d="M880.03,388.9531 C931.74,388.9531 1005.58,388.9531 1056.3,388.9531 " fill="none" id="C_0001854695372332280903&lt;-C_0000560657228528420559" style="stroke: #A80036; stroke-width: 1.0;"/><polygon fill="#FFFFFF" points="866.74,388.9531,872.74,392.9531,878.74,388.9531,872.74,384.9531,866.74,388.9531" style="stroke: #A80036; stroke-width: 1.0;"/><rect fill="none" height="6" style="stroke: #C82930; stroke-width: 1.0;" width="6" x="919" y="378.0195"/><text fill="#000000" font-family="sans-serif" font-size="13" lengthAdjust="spacingAndGlyphs" textLength="69" x="929" y="385.02">attributes_</text><!--MD5=[e3293db0be81ad89731fa26432212871]
reverse link C_0001854695372332280903 to C_0001854695372332280903--><path d="M792.63,351.9331 C792.69,339.7131 801.32,329.9531 818.5,329.9531 C841.41,329.9531 849.11,347.3031 841.59,364.7131 " fill="none" id="C_0001854695372332280903&lt;-C_0001854695372332280903" style="stroke: #A80036; stroke-width: 1.0;"/><polygon fill="#FFFFFF" points="795.41,364.7131,798.0388,357.9983,792.8515,352.989,790.2227,359.7039,795.41,364.7131" style="stroke: #A80036; stroke-width: 1.0;"/><rect fill="none" height="6" style="stroke: #C82930; stroke-width: 1.0;" width="6" x="790" y="314.0195"/><text fill="#000000" font-family="sans-serif" font-size="13" lengthAdjust="spacingAndGlyphs" textLength="49" x="800" y="321.02">parent_</text><!--MD5=[4764f33c6f69c8375cb539c14c6cf482]
reverse link C_0001854695372332280903 to C_0001449857709503654826--><path d="M886.05,407.7431 C928.3,419.6731 983.36,435.2131 1028.72,448.0231 " fill="none" id="C_0001854695372332280903&lt;-C_0001449857709503654826" style="stroke: #A80036; stroke-width: 1.0;"/><polygon fill="none" points="884.08,414.4631,866.74,402.2931,887.89,400.9831,884.08,414.4631" style="stroke: #A80036; stroke-width: 1.0;"/><!--MD5=[0bb53f97ee7ecf0ad4fa222297793c6d]
reverse link C_0001854695372332280903 to C_0001248593507051490272--><path d="M847.98,348.8831 C865.32,327.2531 889.26,301.8131 916,285.9531 C965.95,256.3231 1032.96,243.7331 1074.67,238.5031 " fill="none" id="C_0001854695372332280903&lt;-C_0001248593507051490272" style="stroke: #A80036; stroke-width: 1.0;"/><polygon fill="none" points="853.51,353.1631,835.81,364.8031,842.39,344.6631,853.51,353.1631" style="stroke: #A80036; stroke-width: 1.0;"/><!--MD5=[bb78279d0c43d20fc2e70616c8087fc8]
reverse link C_0000007122300671081288 to C_0001158442798649543268--><path d="M1185.73,529.3031 C1244.05,507.9931 1326.43,477.9031 1383.54,457.0431 " fill="none" id="C_0000007122300671081288&lt;-C_0001158442798649543268" style="stroke: #A80036; stroke-width: 1.0;"/><polygon fill="#FFFFFF" points="1173.3,533.8431,1180.3077,535.5439,1184.5729,529.7295,1177.5652,528.0287,1173.3,533.8431" style="stroke: #A80036; stroke-width: 1.0;"/><rect fill="none" height="6" style="stroke: #C82930; stroke-width: 1.0;" width="6" x="1233" y="469.0195"/><text fill="#000000" font-family="sans-serif" font-size="13" lengthAdjust="spacingAndGlyphs" textLength="82" x="1243" y="476.02">parameters_</text><!--MD5=[566c918c60522ba5da5576be62bc445d]
reverse link C_0001854695372332280903 to C_0000007122300671081288--><path d="M874.61,423.6031 C916.43,449.4631 975.63,485.1531 1029,513.9531 C1039.62,519.6831 1051.16,525.5231 1062.2,530.9431 " fill="none" id="C_0001854695372332280903&lt;-C_0000007122300671081288" style="stroke: #A80036; stroke-width: 1.0;"/><polygon fill="none" points="870.83,429.5031,857.54,413.0031,878.22,417.6131,870.83,429.5031" style="stroke: #A80036; stroke-width: 1.0;"/><!--MD5=[2411f160ab91de10b5cf290c9ff1dc17]
reverse link C_0000664741342971710245 to C_0001854695372332280903--><path d="M523.37,349.4731 C598.09,359.5031 708.16,374.2731 770.29,382.6131 " fill="none" id="C_0000664741342971710245&lt;-C_0001854695372332280903" style="stroke: #A80036; stroke-width: 1.0;"/><polygon fill="#FFFFFF" points="510.31,347.7231,515.7249,352.4853,522.2035,349.3186,516.7886,344.5564,510.31,347.7231" style="stroke: #A80036; stroke-width: 1.0;"/><rect fill="none" height="6" style="stroke: #C82930; stroke-width: 1.0;" width="6" x="628" y="353.0195"/><text fill="#000000" font-family="sans-serif" font-size="13" lengthAdjust="spacingAndGlyphs" textLength="82" x="638" y="360.02">main_entity_</text><!--MD5=[54cd7bf265e46ce3c20056fbe97c6b4f]
reverse link C_0001854695372332280903 to C_0001158442798649543268--><path d="M886.19,370.5131 C962.41,351.9931 1090.72,328.6531 1200,346.9531 C1270.04,358.6831 1346.73,387.7331 1396.34,408.8331 " fill="none" id="C_0001854695372332280903&lt;-C_0001158442798649543268" style="stroke: #A80036; stroke-width: 1.0;"/><polygon fill="none" points="887.7,377.3531,866.6,375.4431,884.28,363.7731,887.7,377.3531" style="stroke: #A80036; stroke-width: 1.0;"/><!--MD5=[27048158ff6ff3b675de221f8b527fc5]
link C_0000192432743316866604 to C_0000664741342971710245--><path d="M188.26,341.9431 C198.27,340.7131 208.34,339.6731 218,338.9531 C265.98,335.3731 319.88,335.2431 362.89,336.0631 " fill="none" id="C_0000192432743316866604-&gt;C_0000664741342971710245" style="stroke: #A80036; stroke-width: 1.0;"/><ellipse cx="369.9219" cy="336.2179" fill="#FFFFFF" rx="8" ry="8" style="stroke: #A80036; stroke-width: 1.0;"/><line style="stroke: #A80036; stroke-width: 1.0;" x1="361.9238" x2="377.92" y1="336.0427" y2="336.3931"/><line style="stroke: #A80036; stroke-width: 1.0;" x1="370.0971" x2="369.7467" y1="328.2198" y2="344.216"/><!--MD5=[5ee010fa43764ba55416e1d6e60c4777]
reverse link C_0000192432743316866604 to C_0000664741342971710245--><path d="M201.3,363.3631 C206.95,363.5931 212.54,363.7931 218,363.9531 C237.99,364.5331 243.05,365.3331 263,363.9531 C301.24,361.3131 343.73,355.5431 377.82,350.2131 " fill="none" id="C_0000192432743316866604&lt;-C_0000664741342971710245" style="stroke: #A80036; stroke-width: 1.0;"/><polygon fill="#FFFFFF" points="188.07,362.7731,193.8886,367.0327,200.0584,363.3001,194.2399,359.0405,188.07,362.7731" style="stroke: #A80036; stroke-width: 1.0;"/><rect fill="none" height="6" style="stroke: #C82930; stroke-width: 1.0;" width="6" x="221" y="353.0195"/><text fill="#000000" font-family="sans-serif" font-size="13" lengthAdjust="spacingAndGlyphs" textLength="31" x="231" y="360.02">gen_</text><!--MD5=[565cdbebadfe7fd07597666b515437de]
reverse link C_0000192432743316866604 to C_0001854695372332280903--><path d="M201.08,382.1531 C230.58,388.2531 262.9,393.8931 293,396.9531 C468.32,414.7531 678.26,401.0731 770.33,393.3331 " fill="none" id="C_0000192432743316866604&lt;-C_0001854695372332280903" style="stroke: #A80036; stroke-width: 1.0;"/><polygon fill="#FFFFFF" points="188.19,379.4131,193.2282,384.5722,199.9282,381.9059,194.89,376.7467,188.19,379.4131" style="stroke: #A80036; stroke-width: 1.0;"/><rect fill="none" height="6" style="stroke: #C82930; stroke-width: 1.0;" width="6" x="432.5" y="386.0195"/><text fill="#000000" font-family="sans-serif" font-size="13" lengthAdjust="spacingAndGlyphs" textLength="15" x="442.5" y="393.02">e_</text><!--MD5=[9564a71de53e42ad22a0066a0fed7dd5]
@startuml
title 'cpp_entity_index' class diagram
left to right direction
class "cpp_entity_id" as C_0001152344551163828554
class C_0001152344551163828554 [[https://github.com/foonathan/cppast/blob/f00df6675d87c6983033d270728c57a55cd3db22/include/cppast/cpp_entity_index.hpp#L38{cpp_entity_id}]] {
__
}
class "cpp_entity_index" as C_0001989731226165037041
class C_0001989731226165037041 [[https://github.com/foonathan/cppast/blob/f00df6675d87c6983033d270728c57a55cd3db22/include/cppast/cpp_entity_index.hpp#L58{cpp_entity_index}]] {
__
}
class "cpp_entity_index::duplicate_definition_error" as C_0001989531636101477120
class C_0001989531636101477120 [[https://github.com/foonathan/cppast/blob/f00df6675d87c6983033d270728c57a55cd3db22/include/cppast/cpp_entity_index.hpp#L62{cpp_entity_index##duplicate_definition_error}]] {
__
}
class "cpp_entity_index::hash" as C_0000634431773903245144
class C_0000634431773903245144 [[https://github.com/foonathan/cppast/blob/f00df6675d87c6983033d270728c57a55cd3db22/include/cppast/cpp_entity_index.hpp#L116{cpp_entity_index##hash}]] {
__
}
class "cpp_entity_index::value" as C_0001918458639534713763
class C_0001918458639534713763 [[https://github.com/foonathan/cppast/blob/f00df6675d87c6983033d270728c57a55cd3db22/include/cppast/cpp_entity_index.hpp#L124{cpp_entity_index##value}]] {
__
}
class "cpp_attribute" as C_0000560657228528420559
class C_0000560657228528420559 [[https://github.com/foonathan/cppast/blob/f00df6675d87c6983033d270728c57a55cd3db22/include/cppast/cpp_attribute.hpp#L42{cpp_attribute}]] {
__
}
class "cpp_scope_name" as C_0001691123644971107631
class C_0001691123644971107631 [[https://github.com/foonathan/cppast/blob/f00df6675d87c6983033d270728c57a55cd3db22/include/cppast/cpp_entity.hpp#L22{cpp_scope_name}]] {
__
}
class "cpp_entity" as C_0001854695372332280903
class C_0001854695372332280903 [[https://github.com/foonathan/cppast/blob/f00df6675d87c6983033d270728c57a55cd3db22/include/cppast/cpp_entity.hpp#L47{cpp_entity}]] {
__
}
class "cpp_unexposed_entity" as C_0001449857709503654826
class C_0001449857709503654826 [[https://github.com/foonathan/cppast/blob/f00df6675d87c6983033d270728c57a55cd3db22/include/cppast/cpp_entity.hpp#L187{cpp_unexposed_entity}]] {
__
}
class "cpp_file" as C_0001248593507051490272
class C_0001248593507051490272 [[https://github.com/foonathan/cppast/blob/f00df6675d87c6983033d270728c57a55cd3db22/include/cppast/cpp_file.hpp#L27{cpp_file}]] {
__
}
class "cpp_template" as C_0000007122300671081288
class C_0000007122300671081288 [[https://github.com/foonathan/cppast/blob/f00df6675d87c6983033d270728c57a55cd3db22/include/cppast/cppast_fwd.hpp#L61{cpp_template}]] {
__
}
class "code_generator" as C_0000664741342971710245
class C_0000664741342971710245 [[https://github.com/foonathan/cppast/blob/f00df6675d87c6983033d270728c57a55cd3db22/include/cppast/cppast_fwd.hpp#L10{code_generator}]] {
__
}
class "cpp_template_parameter" as C_0001158442798649543268
class C_0001158442798649543268 [[https://github.com/foonathan/cppast/blob/f00df6675d87c6983033d270728c57a55cd3db22/include/cppast/cppast_fwd.hpp#L64{cpp_template_parameter}]] {
__
}
class "cpp_namespace" as C_0001318630691633731356
class C_0001318630691633731356 [[https://github.com/foonathan/cppast/blob/f00df6675d87c6983033d270728c57a55cd3db22/include/cppast/cppast_fwd.hpp#L55{cpp_namespace}]] {
__
}
class "code_generator::output" as C_0000192432743316866604
class C_0000192432743316866604 [[https://github.com/foonathan/cppast/blob/f00df6675d87c6983033d270728c57a55cd3db22/include/cppast/code_generator.hpp#L168{code_generator##output}]] {
__
}
C_0001989731226165037041 o- - C_0001152344551163828554 : -map_
C_0001989731226165037041 o- - C_0001152344551163828554 : -ns_
C_0001989731226165037041 o- - C_0001318630691633731356 : -ns_
C_0001989531636101477120 - -+ C_0001989731226165037041
C_0000634431773903245144 - -+ C_0001989731226165037041
C_0001918458639534713763 - -+ C_0001989731226165037041
C_0001918458639534713763 o- - C_0001854695372332280903 : +entity
C_0001691123644971107631 o- - C_0001854695372332280903 : -entity_
C_0001691123644971107631 o- - C_0000007122300671081288 : -templ_
C_0001854695372332280903 o- - C_0000560657228528420559 : -attributes_
C_0001854695372332280903 o- - C_0001854695372332280903 : -parent_
C_0001854695372332280903 <|- - C_0001449857709503654826
C_0001854695372332280903 <|- - C_0001248593507051490272
C_0000007122300671081288 o- - C_0001158442798649543268 : -parameters_
C_0001854695372332280903 <|- - C_0000007122300671081288
C_0000664741342971710245 o- - C_0001854695372332280903 : -main_entity_
C_0001854695372332280903 <|- - C_0001158442798649543268
C_0000192432743316866604 - -+ C_0000664741342971710245
C_0000192432743316866604 o- - C_0000664741342971710245 : -gen_
C_0000192432743316866604 o- - C_0001854695372332280903 : -e_

@enduml

PlantUML version 1.2020.02(Sun Mar 01 11:22:07 CET 2020)
(GPL source distribution)
Java Runtime: OpenJDK Runtime Environment
JVM: OpenJDK 64-Bit Server VM
Java Version: 11.0.20.1+1-post-Ubuntu-0ubuntu122.04
Operating System: Linux
Default Encoding: UTF-8
Language: en
Country: US
--></g></svg>