<?xml version="1.0" encoding="UTF-8" standalone="no"?><svg xmlns="http://www.w3.org/2000/svg" xmlns:xlink="http://www.w3.org/1999/xlink" contentScriptType="application/ecmascript" contentStyleType="text/css" height="556px" preserveAspectRatio="none" style="width:1556px;height:556px;" version="1.1" viewBox="0 0 1556 556" width="1556px" zoomAndPan="magnify"><defs><filter height="300%" id="fctqx4ral53e2" width="300%" x="-1" y="-1"><feGaussianBlur result="blurOut" stdDeviation="2.0"/><feColorMatrix in="blurOut" result="blurOut2" type="matrix" values="0 0 0 0 0 0 0 0 0 0 0 0 0 0 0 0 0 0 .4 0"/><feOffset dx="4.0" dy="4.0" in="blurOut2" result="blurOut3"/><feBlend in="SourceGraphic" in2="blurOut3" mode="normal"/></filter></defs><g><!--MD5=[8a1a5657a465463d2b42b90495e823d2]
class C_0000560657228528420559--><a href="https://github.com/foonathan/cppast/blob/f00df6675d87c6983033d270728c57a55cd3db22/include/cppast/cpp_attribute.hpp#L42" target="_top" title="cpp_attribute" xlink:actuate="onRequest" xlink:href="https://github.com/foonathan/cppast/blob/f00df6675d87c6983033d270728c57a55cd3db22/include/cppast/cpp_attribute.hpp#L42" xlink:show="new" xlink:title="cpp_attribute" xlink:type="simple"><rect fill="#FEFECE" filter="url(#fctqx4ral53e2)" height="48" id="C_0000560657228528420559" style="stroke: #A80036; stroke-width: 1.5;" width="116" x="1056.5" y="248"/><ellipse cx="1071.5" cy="264" fill="#ADD1B2" rx="11" ry="11" style="stroke: #A80036; stroke-width: 1.0;"/><path d="M1074.4688,269.6406 Q1073.8906,269.9375 1073.25,270.0781 Q1072.6094,270.2344 1071.9063,270.2344 Q1069.4063,270.2344 1068.0781,268.5938 Q1066.7656,266.9375 1066.7656,263.8125 Q1066.7656,260.6875 1068.0781,259.0313 Q1069.4063,257.375 1071.9063,257.375 Q1072.6094,257.375 1073.25,257.5313 Q1073.9063,257.6875 1074.4688,257.9844 L1074.4688,260.7031 Q1073.8438,260.125 1073.25,259.8594 Q1072.6563,259.5781 1072.0313,259.5781 Q1070.6875,259.5781 1070,260.6563 Q1069.3125,261.7188 1069.3125,263.8125 Q1069.3125,265.9063 1070,266.9844 Q1070.6875,268.0469 1072.0313,268.0469 Q1072.6563,268.0469 1073.25,267.7813 Q1073.8438,267.5 1074.4688,266.9219 L1074.4688,269.6406 Z "/><text fill="#000000" font-family="sans-serif" font-size="12" lengthAdjust="spacingAndGlyphs" textLength="84" x="1085.5" y="268.1543">cpp_attribute</text><line style="stroke: #A80036; stroke-width: 1.5;" x1="1057.5" x2="1171.5" y1="280" y2="280"/><line style="stroke: #A80036; stroke-width: 1.5;" x1="1057.5" x2="1171.5" y1="288" y2="288"/></a><!--MD5=[6b3cec8b308dd9030bcba820a7fb44dc]
class C_0001691123644971107631--><a href="https://github.com/foonathan/cppast/blob/f00df6675d87c6983033d270728c57a55cd3db22/include/cppast/cpp_entity.hpp#L22" target="_top" title="cpp_scope_name" xlink:actuate="onRequest" xlink:href="https://github.com/foonathan/cppast/blob/f00df6675d87c6983033d270728c57a55cd3db22/include/cppast/cpp_entity.hpp#L22" xlink:show="new" xlink:title="cpp_scope_name" xlink:type="simple"><rect fill="#FEFECE" filter="url(#fctqx4ral53e2)" height="48" id="C_0001691123644971107631" style="stroke: #A80036; stroke-width: 1.5;" width="140" x="374" y="8"/><ellipse cx="389" cy="24" fill="#ADD1B2" rx="11" ry="11" style="stroke: #A80036; stroke-width: 1.0;"/><path d="M391.9688,29.6406 Q391.3906,29.9375 390.75,30.0781 Q390.1094,30.2344 389.4063,30.2344 Q386.9063,30.2344 385.5781,28.5938 Q384.2656,26.9375 384.2656,23.8125 Q384.2656,20.6875 385.5781,19.0313 Q386.9063,17.375 389.4063,17.375 Q390.1094,17.375 390.75,17.5313 Q391.4063,17.6875 391.9688,17.9844 L391.9688,20.7031 Q391.3438,20.125 390.75,19.8594 Q390.1563,19.5781 389.5313,19.5781 Q388.1875,19.5781 387.5,20.6563 Q386.8125,21.7188 386.8125,23.8125 Q386.8125,25.9063 387.5,26.9844 Q388.1875,28.0469 389.5313,28.0469 Q390.1563,28.0469 390.75,27.7813 Q391.3438,27.5 391.9688,26.9219 L391.9688,29.6406 Z "/><text fill="#000000" font-family="sans-serif" font-size="12" lengthAdjust="spacingAndGlyphs" textLength="108" x="403" y="28.1543">cpp_scope_name</text><line style="stroke: #A80036; stroke-width: 1.5;" x1="375" x2="513" y1="40" y2="40"/><line style="stroke: #A80036; stroke-width: 1.5;" x1="375" x2="513" y1="48" y2="48"/></a><!--MD5=[71cff2869bd83fd1db572340ae083984]
class C_0001854695372332280903--><a href="https://github.com/foonathan/cppast/blob/f00df6675d87c6983033d270728c57a55cd3db22/include/cppast/cpp_entity.hpp#L47" target="_top" title="cpp_entity" xlink:actuate="onRequest" xlink:href="https://github.com/foonathan/cppast/blob/f00df6675d87c6983033d270728c57a55cd3db22/include/cppast/cpp_entity.hpp#L47" xlink:show="new" xlink:title="cpp_entity" xlink:type="simple"><rect fill="#FEFECE" filter="url(#fctqx4ral53e2)" height="48" id="C_0001854695372332280903" style="stroke: #A80036; stroke-width: 1.5;" width="97" x="770" y="165"/><ellipse cx="785" cy="181" fill="#A9DCDF" rx="11" ry="11" style="stroke: #A80036; stroke-width: 1.0;"/><path d="M785.1094,176.3438 L783.9531,181.4219 L786.2813,181.4219 L785.1094,176.3438 Z M783.625,174.1094 L786.6094,174.1094 L789.9688,186.5 L787.5156,186.5 L786.75,183.4375 L783.4688,183.4375 L782.7188,186.5 L780.2813,186.5 L783.625,174.1094 Z "/><text fill="#000000" font-family="sans-serif" font-size="12" font-style="italic" lengthAdjust="spacingAndGlyphs" textLength="65" x="799" y="185.1543">cpp_entity</text><line style="stroke: #A80036; stroke-width: 1.5;" x1="771" x2="866" y1="197" y2="197"/><line style="stroke: #A80036; stroke-width: 1.5;" x1="771" x2="866" y1="205" y2="205"/></a><!--MD5=[fad51da99629238129d989dc56c86d7b]
class C_0001449857709503654826--><a href="https://github.com/foonathan/cppast/blob/f00df6675d87c6983033d270728c57a55cd3db22/include/cppast/cpp_entity.hpp#L187" target="_top" title="cpp_unexposed_entity" xlink:actuate="onRequest" xlink:href="https://github.com/foonathan/cppast/blob/f00df6675d87c6983033d270728c57a55cd3db22/include/cppast/cpp_entity.hpp#L187" xlink:show="new" xlink:title="cpp_unexposed_entity" xlink:type="simple"><rect fill="#FEFECE" filter="url(#fctqx4ral53e2)" height="48" id="C_0001449857709503654826" style="stroke: #A80036; stroke-width: 1.5;" width="171" x="1029" y="331"/><ellipse cx="1044" cy="347" fill="#ADD1B2" rx="11" ry="11" style="stroke: #A80036; stroke-width: 1.0;"/><path d="M1046.9688,352.6406 Q1046.3906,352.9375 1045.75,353.0781 Q1045.1094,353.2344 1044.4063,353.2344 Q1041.9063,353.2344 1040.5781,351.5938 Q1039.2656,349.9375 1039.2656,346.8125 Q1039.2656,343.6875 1040.5781,342.0313 Q1041.9063,340.375 1044.4063,340.375 Q1045.1094,340.375 1045.75,340.5313 Q1046.4063,340.6875 1046.9688,340.9844 L1046.9688,343.7031 Q1046.3438,343.125 1045.75,342.8594 Q1045.1563,342.5781 1044.5313,342.5781 Q1043.1875,342.5781 1042.5,343.6563 Q1041.8125,344.7188 1041.8125,346.8125 Q1041.8125,348.9063 1042.5,349.9844 Q1043.1875,351.0469 1044.5313,351.0469 Q1045.1563,351.0469 1045.75,350.7813 Q1046.3438,350.5 1046.9688,349.9219 L1046.9688,352.6406 Z "/><text fill="#000000" font-family="sans-serif" font-size="12" lengthAdjust="spacingAndGlyphs" textLength="139" x="1058" y="351.1543">cpp_unexposed_entity</text><line style="stroke: #A80036; stroke-width: 1.5;" x1="1030" x2="1199" y1="363" y2="363"/><line style="stroke: #A80036; stroke-width: 1.5;" x1="1030" x2="1199" y1="371" y2="371"/></a><!--MD5=[ead75a3296f458aaae499d9f5e160fb4]
class C_0001152344551163828554--><a href="https://github.com/foonathan/cppast/blob/f00df6675d87c6983033d270728c57a55cd3db22/include/cppast/cpp_entity_index.hpp#L38" target="_top" title="cpp_entity_id" xlink:actuate="onRequest" xlink:href="https://github.com/foonathan/cppast/blob/f00df6675d87c6983033d270728c57a55cd3db22/include/cppast/cpp_entity_index.hpp#L38" xlink:show="new" xlink:title="cpp_entity_id" xlink:type="simple"><rect fill="#FEFECE" filter="url(#fctqx4ral53e2)" height="48" id="C_0001152344551163828554" style="stroke: #A80036; stroke-width: 1.5;" width="113" x="1058" y="414"/><ellipse cx="1073" cy="430" fill="#ADD1B2" rx="11" ry="11" style="stroke: #A80036; stroke-width: 1.0;"/><path d="M1075.9688,435.6406 Q1075.3906,435.9375 1074.75,436.0781 Q1074.1094,436.2344 1073.4063,436.2344 Q1070.9063,436.2344 1069.5781,434.5938 Q1068.2656,432.9375 1068.2656,429.8125 Q1068.2656,426.6875 1069.5781,425.0313 Q1070.9063,423.375 1073.4063,423.375 Q1074.1094,423.375 1074.75,423.5313 Q1075.4063,423.6875 1075.9688,423.9844 L1075.9688,426.7031 Q1075.3438,426.125 1074.75,425.8594 Q1074.1563,425.5781 1073.5313,425.5781 Q1072.1875,425.5781 1071.5,426.6563 Q1070.8125,427.7188 1070.8125,429.8125 Q1070.8125,431.9063 1071.5,432.9844 Q1072.1875,434.0469 1073.5313,434.0469 Q1074.1563,434.0469 1074.75,433.7813 Q1075.3438,433.5 1075.9688,432.9219 L1075.9688,435.6406 Z "/><text fill="#000000" font-family="sans-serif" font-size="12" lengthAdjust="spacingAndGlyphs" textLength="81" x="1087" y="434.1543">cpp_entity_id</text><line style="stroke: #A80036; stroke-width: 1.5;" x1="1059" x2="1170" y1="446" y2="446"/><line style="stroke: #A80036; stroke-width: 1.5;" x1="1059" x2="1170" y1="454" y2="454"/></a><!--MD5=[981af67409a0513940401f7a9b004db6]
class C_0001989731226165037041--><a href="https://github.com/foonathan/cppast/blob/f00df6675d87c6983033d270728c57a55cd3db22/include/cppast/cpp_entity_index.hpp#L58" target="_top" title="cpp_entity_index" xlink:actuate="onRequest" xlink:href="https://github.com/foonathan/cppast/blob/f00df6675d87c6983033d270728c57a55cd3db22/include/cppast/cpp_entity_index.hpp#L58" xlink:show="new" xlink:title="cpp_entity_index" xlink:type="simple"><rect fill="#FEFECE" filter="url(#fctqx4ral53e2)" height="48" id="C_0001989731226165037041" style="stroke: #A80036; stroke-width: 1.5;" width="135" x="751" y="420"/><ellipse cx="766" cy="436" fill="#ADD1B2" rx="11" ry="11" style="stroke: #A80036; stroke-width: 1.0;"/><path d="M768.9688,441.6406 Q768.3906,441.9375 767.75,442.0781 Q767.1094,442.2344 766.4063,442.2344 Q763.9063,442.2344 762.5781,440.5938 Q761.2656,438.9375 761.2656,435.8125 Q761.2656,432.6875 762.5781,431.0313 Q763.9063,429.375 766.4063,429.375 Q767.1094,429.375 767.75,429.5313 Q768.4063,429.6875 768.9688,429.9844 L768.9688,432.7031 Q768.3438,432.125 767.75,431.8594 Q767.1563,431.5781 766.5313,431.5781 Q765.1875,431.5781 764.5,432.6563 Q763.8125,433.7188 763.8125,435.8125 Q763.8125,437.9063 764.5,438.9844 Q765.1875,440.0469 766.5313,440.0469 Q767.1563,440.0469 767.75,439.7813 Q768.3438,439.5 768.9688,438.9219 L768.9688,441.6406 Z "/><text fill="#000000" font-family="sans-serif" font-size="12" lengthAdjust="spacingAndGlyphs" textLength="103" x="780" y="440.1543">cpp_entity_index</text><line style="stroke: #A80036; stroke-width: 1.5;" x1="752" x2="885" y1="452" y2="452"/><line style="stroke: #A80036; stroke-width: 1.5;" x1="752" x2="885" y1="460" y2="460"/></a><!--MD5=[db9b0988df08cd2ec00d171a5971ee4c]
class C_0001989531636101477120--><a href="https://github.com/foonathan/cppast/blob/f00df6675d87c6983033d270728c57a55cd3db22/include/cppast/cpp_entity_index.hpp#L62" target="_top" title="cpp_entity_index##duplicate_definition_error" xlink:actuate="onRequest" xlink:href="https://github.com/foonathan/cppast/blob/f00df6675d87c6983033d270728c57a55cd3db22/include/cppast/cpp_entity_index.hpp#L62" xlink:show="new" xlink:title="cpp_entity_index##duplicate_definition_error" xlink:type="simple"><rect fill="#FEFECE" filter="url(#fctqx4ral53e2)" height="48" id="C_0001989531636101477120" style="stroke: #A80036; stroke-width: 1.5;" width="302" x="293" y="363"/><ellipse cx="308" cy="379" fill="#ADD1B2" rx="11" ry="11" style="stroke: #A80036; stroke-width: 1.0;"/><path d="M310.9688,384.6406 Q310.3906,384.9375 309.75,385.0781 Q309.1094,385.2344 308.4063,385.2344 Q305.9063,385.2344 304.5781,383.5938 Q303.2656,381.9375 303.2656,378.8125 Q303.2656,375.6875 304.5781,374.0313 Q305.9063,372.375 308.4063,372.375 Q309.1094,372.375 309.75,372.5313 Q310.4063,372.6875 310.9688,372.9844 L310.9688,375.7031 Q310.3438,375.125 309.75,374.8594 Q309.1563,374.5781 308.5313,374.5781 Q307.1875,374.5781 306.5,375.6563 Q305.8125,376.7188 305.8125,378.8125 Q305.8125,380.9063 306.5,381.9844 Q307.1875,383.0469 308.5313,383.0469 Q309.1563,383.0469 309.75,382.7813 Q310.3438,382.5 310.9688,381.9219 L310.9688,384.6406 Z "/><text fill="#000000" font-family="sans-serif" font-size="12" lengthAdjust="spacingAndGlyphs" textLength="270" x="322" y="383.1543">cpp_entity_index::duplicate_definition_error</text><line style="stroke: #A80036; stroke-width: 1.5;" x1="294" x2="594" y1="395" y2="395"/><line style="stroke: #A80036; stroke-width: 1.5;" x1="294" x2="594" y1="403" y2="403"/></a><!--MD5=[d039ba3eb863ca7742df52fd70851ddd]
class C_0000634431773903245144--><a href="https://github.com/foonathan/cppast/blob/f00df6675d87c6983033d270728c57a55cd3db22/include/cppast/cpp_entity_index.hpp#L116" target="_top" title="cpp_entity_index##hash" xlink:actuate="onRequest" xlink:href="https://github.com/foonathan/cppast/blob/f00df6675d87c6983033d270728c57a55cd3db22/include/cppast/cpp_entity_index.hpp#L116" xlink:show="new" xlink:title="cpp_entity_index##hash" xlink:type="simple"><rect fill="#FEFECE" filter="url(#fctqx4ral53e2)" height="48" id="C_0000634431773903245144" style="stroke: #A80036; stroke-width: 1.5;" width="174" x="357" y="446"/><ellipse cx="372" cy="462" fill="#ADD1B2" rx="11" ry="11" style="stroke: #A80036; stroke-width: 1.0;"/><path d="M374.9688,467.6406 Q374.3906,467.9375 373.75,468.0781 Q373.1094,468.2344 372.4063,468.2344 Q369.9063,468.2344 368.5781,466.5938 Q367.2656,464.9375 367.2656,461.8125 Q367.2656,458.6875 368.5781,457.0313 Q369.9063,455.375 372.4063,455.375 Q373.1094,455.375 373.75,455.5313 Q374.4063,455.6875 374.9688,455.9844 L374.9688,458.7031 Q374.3438,458.125 373.75,457.8594 Q373.1563,457.5781 372.5313,457.5781 Q371.1875,457.5781 370.5,458.6563 Q369.8125,459.7188 369.8125,461.8125 Q369.8125,463.9063 370.5,464.9844 Q371.1875,466.0469 372.5313,466.0469 Q373.1563,466.0469 373.75,465.7813 Q374.3438,465.5 374.9688,464.9219 L374.9688,467.6406 Z "/><text fill="#000000" font-family="sans-serif" font-size="12" lengthAdjust="spacingAndGlyphs" textLength="142" x="386" y="466.1543">cpp_entity_index::hash</text><line style="stroke: #A80036; stroke-width: 1.5;" x1="358" x2="530" y1="478" y2="478"/><line style="stroke: #A80036; stroke-width: 1.5;" x1="358" x2="530" y1="486" y2="486"/></a><!--MD5=[f90db2c8cc7a5812de033d131e7a7a60]
class C_0001918458639534713763--><a href="https://github.com/foonathan/cppast/blob/f00df6675d87c6983033d270728c57a55cd3db22/include/cppast/cpp_entity_index.hpp#L124" target="_top" title="cpp_entity_index##value" xlink:actuate="onRequest" xlink:href="https://github.com/foonathan/cppast/blob/f00df6675d87c6983033d270728c57a55cd3db22/include/cppast/cpp_entity_index.hpp#L124" xlink:show="new" xlink:title="cpp_entity_index##value" xlink:type="simple"><rect fill="#FEFECE" filter="url(#fctqx4ral53e2)" height="48" id="C_0001918458639534713763" style="stroke: #A80036; stroke-width: 1.5;" width="176" x="356" y="265"/><ellipse cx="371" cy="281" fill="#ADD1B2" rx="11" ry="11" style="stroke: #A80036; stroke-width: 1.0;"/><path d="M373.9688,286.6406 Q373.3906,286.9375 372.75,287.0781 Q372.1094,287.2344 371.4063,287.2344 Q368.9063,287.2344 367.5781,285.5938 Q366.2656,283.9375 366.2656,280.8125 Q366.2656,277.6875 367.5781,276.0313 Q368.9063,274.375 371.4063,274.375 Q372.1094,274.375 372.75,274.5313 Q373.4063,274.6875 373.9688,274.9844 L373.9688,277.7031 Q373.3438,277.125 372.75,276.8594 Q372.1563,276.5781 371.5313,276.5781 Q370.1875,276.5781 369.5,277.6563 Q368.8125,278.7188 368.8125,280.8125 Q368.8125,282.9063 369.5,283.9844 Q370.1875,285.0469 371.5313,285.0469 Q372.1563,285.0469 372.75,284.7813 Q373.3438,284.5 373.9688,283.9219 L373.9688,286.6406 Z "/><text fill="#000000" font-family="sans-serif" font-size="12" lengthAdjust="spacingAndGlyphs" textLength="144" x="385" y="285.1543">cpp_entity_index::value</text><line style="stroke: #A80036; stroke-width: 1.5;" x1="357" x2="531" y1="297" y2="297"/><line style="stroke: #A80036; stroke-width: 1.5;" x1="357" x2="531" y1="305" y2="305"/></a><!--MD5=[498a85ef4832891f6c8a21f866edf484]
class C_0000664741342971710245--><a href="https://github.com/foonathan/cppast/blob/f00df6675d87c6983033d270728c57a55cd3db22/include/cppast/code_generator.hpp#L142" target="_top" title="code_generator" xlink:actuate="onRequest" xlink:href="https://github.com/foonathan/cppast/blob/f00df6675d87c6983033d270728c57a55cd3db22/include/cppast/code_generator.hpp#L142" xlink:show="new" xlink:title="code_generator" xlink:type="simple"><rect fill="#FEFECE" filter="url(#fctqx4ral53e2)" height="48" id="C_0000664741342971710245" style="stroke: #A80036; stroke-width: 1.5;" width="132" x="378" y="93"/><ellipse cx="393" cy="109" fill="#A9DCDF" rx="11" ry="11" style="stroke: #A80036; stroke-width: 1.0;"/><path d="M393.1094,104.3438 L391.9531,109.4219 L394.2813,109.4219 L393.1094,104.3438 Z M391.625,102.1094 L394.6094,102.1094 L397.9688,114.5 L395.5156,114.5 L394.75,111.4375 L391.4688,111.4375 L390.7188,114.5 L388.2813,114.5 L391.625,102.1094 Z "/><text fill="#000000" font-family="sans-serif" font-size="12" font-style="italic" lengthAdjust="spacingAndGlyphs" textLength="100" x="407" y="113.1543">code_generator</text><line style="stroke: #A80036; stroke-width: 1.5;" x1="379" x2="509" y1="125" y2="125"/><line style="stroke: #A80036; stroke-width: 1.5;" x1="379" x2="509" y1="133" y2="133"/></a><!--MD5=[05ee695c9293625b8b665eff50f785bd]
class C_0000192432743316866604--><a href="https://github.com/foonathan/cppast/blob/f00df6675d87c6983033d270728c57a55cd3db22/include/cppast/code_generator.hpp#L168" target="_top" title="code_generator##output" xlink:actuate="onRequest" xlink:href="https://github.com/foonathan/cppast/blob/f00df6675d87c6983033d270728c57a55cd3db22/include/cppast/code_generator.hpp#L168" xlink:show="new" xlink:title="code_generator##output" xlink:type="simple"><rect fill="#FEFECE" filter="url(#fctqx4ral53e2)" height="48" id="C_0000192432743316866604" style="stroke: #A80036; stroke-width: 1.5;" width="182" x="6" y="128"/><ellipse cx="21" cy="144" fill="#ADD1B2" rx="11" ry="11" style="stroke: #A80036; stroke-width: 1.0;"/><path d="M23.9688,149.6406 Q23.3906,149.9375 22.75,150.0781 Q22.1094,150.2344 21.4063,150.2344 Q18.9063,150.2344 17.5781,148.5938 Q16.2656,146.9375 16.2656,143.8125 Q16.2656,140.6875 17.5781,139.0313 Q18.9063,137.375 21.4063,137.375 Q22.1094,137.375 22.75,137.5313 Q23.4063,137.6875 23.9688,137.9844 L23.9688,140.7031 Q23.3438,140.125 22.75,139.8594 Q22.1563,139.5781 21.5313,139.5781 Q20.1875,139.5781 19.5,140.6563 Q18.8125,141.7188 18.8125,143.8125 Q18.8125,145.9063 19.5,146.9844 Q20.1875,148.0469 21.5313,148.0469 Q22.1563,148.0469 22.75,147.7813 Q23.3438,147.5 23.9688,146.9219 L23.9688,149.6406 Z "/><text fill="#000000" font-family="sans-serif" font-size="12" lengthAdjust="spacingAndGlyphs" textLength="150" x="35" y="148.1543">code_generator::output</text><line style="stroke: #A80036; stroke-width: 1.5;" x1="7" x2="187" y1="160" y2="160"/><line style="stroke: #A80036; stroke-width: 1.5;" x1="7" x2="187" y1="168" y2="168"/></a><!--MD5=[14d4e23227f971146b0fec39d18f0b8d]
class C_0001158442798649543268--><a href="https://github.com/foonathan/cppast/blob/f00df6675d87c6983033d270728c57a55cd3db22/include/cppast/cpp_template_parameter.hpp#L17" target="_top" title="cpp_template_parameter" xlink:actuate="onRequest" xlink:href="https://github.com/foonathan/cppast/blob/f00df6675d87c6983033d270728c57a55cd3db22/include/cppast/cpp_template_parameter.hpp#L17" xlink:show="new" xlink:title="cpp_template_parameter" xlink:type="simple"><rect fill="#FEFECE" filter="url(#fctqx4ral53e2)" height="48" id="C_0001158442798649543268" style="stroke: #A80036; stroke-width: 1.5;" width="189" x="1356" y="55"/><ellipse cx="1371" cy="71" fill="#ADD1B2" rx="11" ry="11" style="stroke: #A80036; stroke-width: 1.0;"/><path d="M1373.9688,76.6406 Q1373.3906,76.9375 1372.75,77.0781 Q1372.1094,77.2344 1371.4063,77.2344 Q1368.9063,77.2344 1367.5781,75.5938 Q1366.2656,73.9375 1366.2656,70.8125 Q1366.2656,67.6875 1367.5781,66.0313 Q1368.9063,64.375 1371.4063,64.375 Q1372.1094,64.375 1372.75,64.5313 Q1373.4063,64.6875 1373.9688,64.9844 L1373.9688,67.7031 Q1373.3438,67.125 1372.75,66.8594 Q1372.1563,66.5781 1371.5313,66.5781 Q1370.1875,66.5781 1369.5,67.6563 Q1368.8125,68.7188 1368.8125,70.8125 Q1368.8125,72.9063 1369.5,73.9844 Q1370.1875,75.0469 1371.5313,75.0469 Q1372.1563,75.0469 1372.75,74.7813 Q1373.3438,74.5 1373.9688,73.9219 L1373.9688,76.6406 Z "/><text fill="#000000" font-family="sans-serif" font-size="12" lengthAdjust="spacingAndGlyphs" textLength="157" x="1385" y="75.1543">cpp_template_parameter</text><line style="stroke: #A80036; stroke-width: 1.5;" x1="1357" x2="1544" y1="87" y2="87"/><line style="stroke: #A80036; stroke-width: 1.5;" x1="1357" x2="1544" y1="95" y2="95"/></a><!--MD5=[5275449932aa3caa3837171c88ec9f23]
class C_0000007122300671081288--><a href="https://github.com/foonathan/cppast/blob/f00df6675d87c6983033d270728c57a55cd3db22/include/cppast/cpp_template.hpp#L21" target="_top" title="cpp_template" xlink:actuate="onRequest" xlink:href="https://github.com/foonathan/cppast/blob/f00df6675d87c6983033d270728c57a55cd3db22/include/cppast/cpp_template.hpp#L21" xlink:show="new" xlink:title="cpp_template" xlink:type="simple"><rect fill="#FEFECE" filter="url(#fctqx4ral53e2)" height="48" id="C_0000007122300671081288" style="stroke: #A80036; stroke-width: 1.5;" width="117" x="1056" y="11"/><ellipse cx="1071" cy="27" fill="#ADD1B2" rx="11" ry="11" style="stroke: #A80036; stroke-width: 1.0;"/><path d="M1073.9688,32.6406 Q1073.3906,32.9375 1072.75,33.0781 Q1072.1094,33.2344 1071.4063,33.2344 Q1068.9063,33.2344 1067.5781,31.5938 Q1066.2656,29.9375 1066.2656,26.8125 Q1066.2656,23.6875 1067.5781,22.0313 Q1068.9063,20.375 1071.4063,20.375 Q1072.1094,20.375 1072.75,20.5313 Q1073.4063,20.6875 1073.9688,20.9844 L1073.9688,23.7031 Q1073.3438,23.125 1072.75,22.8594 Q1072.1563,22.5781 1071.5313,22.5781 Q1070.1875,22.5781 1069.5,23.6563 Q1068.8125,24.7188 1068.8125,26.8125 Q1068.8125,28.9063 1069.5,29.9844 Q1070.1875,31.0469 1071.5313,31.0469 Q1072.1563,31.0469 1072.75,30.7813 Q1073.3438,30.5 1073.9688,29.9219 L1073.9688,32.6406 Z "/><text fill="#000000" font-family="sans-serif" font-size="12" lengthAdjust="spacingAndGlyphs" textLength="85" x="1085" y="31.1543">cpp_template</text><line style="stroke: #A80036; stroke-width: 1.5;" x1="1057" x2="1172" y1="43" y2="43"/><line style="stroke: #A80036; stroke-width: 1.5;" x1="1057" x2="1172" y1="51" y2="51"/></a><!--MD5=[d4173e3c6e94bccce57a3fad9ea04794]
class C_0001248593507051490272--><a href="https://github.com/foonathan/cppast/blob/f00df6675d87c6983033d270728c57a55cd3db22/include/cppast/cppast_fwd.hpp#L36" target="_top" title="cpp_file" xlink:actuate="onRequest" xlink:href="https://github.com/foonathan/cppast/blob/f00df6675d87c6983033d270728c57a55cd3db22/include/cppast/cppast_fwd.hpp#L36" xlink:show="new" xlink:title="cpp_file" xlink:type="simple"><rect fill="#FEFECE" filter="url(#fctqx4ral53e2)" height="48" id="C_0001248593507051490272" style="stroke: #A80036; stroke-width: 1.5;" width="79" x="1075" y="165"/><ellipse cx="1090" cy="181" fill="#ADD1B2" rx="11" ry="11" style="stroke: #A80036; stroke-width: 1.0;"/><path d="M1092.9688,186.6406 Q1092.3906,186.9375 1091.75,187.0781 Q1091.1094,187.2344 1090.4063,187.2344 Q1087.9063,187.2344 1086.5781,185.5938 Q1085.2656,183.9375 1085.2656,180.8125 Q1085.2656,177.6875 1086.5781,176.0313 Q1087.9063,174.375 1090.4063,174.375 Q1091.1094,174.375 1091.75,174.5313 Q1092.4063,174.6875 1092.9688,174.9844 L1092.9688,177.7031 Q1092.3438,177.125 1091.75,176.8594 Q1091.1563,176.5781 1090.5313,176.5781 Q1089.1875,176.5781 1088.5,177.6563 Q1087.8125,178.7188 1087.8125,180.8125 Q1087.8125,182.9063 1088.5,183.9844 Q1089.1875,185.0469 1090.5313,185.0469 Q1091.1563,185.0469 1091.75,184.7813 Q1092.3438,184.5 1092.9688,183.9219 L1092.9688,186.6406 Z "/><text fill="#000000" font-family="sans-serif" font-size="12" lengthAdjust="spacingAndGlyphs" textLength="47" x="1104" y="185.1543">cpp_file</text><line style="stroke: #A80036; stroke-width: 1.5;" x1="1076" x2="1153" y1="197" y2="197"/><line style="stroke: #A80036; stroke-width: 1.5;" x1="1076" x2="1153" y1="205" y2="205"/></a><!--MD5=[0ef4ed6d972b2b37f56adec21b3064c2]
class C_0001318630691633731356--><a href="https://github.com/foonathan/cppast/blob/f00df6675d87c6983033d270728c57a55cd3db22/include/cppast/cppast_fwd.hpp#L55" target="_top" title="cpp_namespace" xlink:actuate="onRequest" xlink:href="https://github.com/foonathan/cppast/blob/f00df6675d87c6983033d270728c57a55cd3db22/include/cppast/cppast_fwd.hpp#L55" xlink:show="new" xlink:title="cpp_namespace" xlink:type="simple"><rect fill="#FEFECE" filter="url(#fctqx4ral53e2)" height="48" id="C_0001318630691633731356" style="stroke: #A80036; stroke-width: 1.5;" width="134" x="1047.5" y="497"/><ellipse cx="1062.5" cy="513" fill="#ADD1B2" rx="11" ry="11" style="stroke: #A80036; stroke-width: 1.0;"/><path d="M1065.4688,518.6406 Q1064.8906,518.9375 1064.25,519.0781 Q1063.6094,519.2344 1062.9063,519.2344 Q1060.4063,519.2344 1059.0781,517.5938 Q1057.7656,515.9375 1057.7656,512.8125 Q1057.7656,509.6875 1059.0781,508.0313 Q1060.4063,506.375 1062.9063,506.375 Q1063.6094,506.375 1064.25,506.5313 Q1064.9063,506.6875 1065.4688,506.9844 L1065.4688,509.7031 Q1064.8438,509.125 1064.25,508.8594 Q1063.6563,508.5781 1063.0313,508.5781 Q1061.6875,508.5781 1061,509.6563 Q1060.3125,510.7188 1060.3125,512.8125 Q1060.3125,514.9063 1061,515.9844 Q1061.6875,517.0469 1063.0313,517.0469 Q1063.6563,517.0469 1064.25,516.7813 Q1064.8438,516.5 1065.4688,515.9219 L1065.4688,518.6406 Z "/><text fill="#000000" font-family="sans-serif" font-size="12" lengthAdjust="spacingAndGlyphs" textLength="102" x="1076.5" y="517.1543">cpp_namespace</text><line style="stroke: #A80036; stroke-width: 1.5;" x1="1048.5" x2="1180.5" y1="529" y2="529"/><line style="stroke: #A80036; stroke-width: 1.5;" x1="1048.5" x2="1180.5" y1="537" y2="537"/></a><!--MD5=[0aa19d1140525511623961b914c6d52a]
reverse link C_0001691123644971107631 to C_0001854695372332280903--><path d="M526.78,53.54 C549.08,59.92 573.11,67.29 595,75 C652.3,95.18 667.14,99.9 721,128 C742.09,139 764.61,153.09 782.59,164.96 " fill="none" id="C_0001691123644971107631&lt;-C_0001854695372332280903" style="stroke: #A80036; stroke-width: 1.0;"/><polygon fill="#FFFFFF" points="514.24,49.99,518.9293,55.4682,525.7897,53.2466,521.1004,47.7684,514.24,49.99" style="stroke: #A80036; stroke-width: 1.0;"/><rect fill="none" height="6" style="stroke: #C82930; stroke-width: 1.0;" width="6" x="647.5" y="76.0664"/><text fill="#000000" font-family="sans-serif" font-size="13" lengthAdjust="spacingAndGlyphs" textLength="43" x="657.5" y="83.0669">entity_</text><!--MD5=[ac2062b7e7c0ad353881ef74e7399fc7]
reverse link C_0001691123644971107631 to C_0000007122300671081288--><path d="M527.28,32.37 C664.62,32.99 937.17,34.21 1055.94,34.74 " fill="none" id="C_0001691123644971107631&lt;-C_0000007122300671081288" style="stroke: #A80036; stroke-width: 1.0;"/><polygon fill="#FFFFFF" points="514.02,32.31,520.0024,36.3363,526.0199,32.3627,520.0375,28.3364,514.02,32.31" style="stroke: #A80036; stroke-width: 1.0;"/><rect fill="none" height="6" style="stroke: #C82930; stroke-width: 1.0;" width="6" x="792.5" y="23.0664"/><text fill="#000000" font-family="sans-serif" font-size="13" lengthAdjust="spacingAndGlyphs" textLength="44" x="802.5" y="30.0669">templ_</text><!--MD5=[7db68d66fcad437cb1854f9af63ed3dc]
reverse link C_0001854695372332280903 to C_0000560657228528420559--><path d="M879.71,206 C931.47,220.61 1005.6,241.54 1056.43,255.89 " fill="none" id="C_0001854695372332280903&lt;-C_0000560657228528420559" style="stroke: #A80036; stroke-width: 1.0;"/><polygon fill="#FFFFFF" points="867.06,202.43,871.7493,207.9082,878.6097,205.6866,873.9204,200.2084,867.06,202.43" style="stroke: #A80036; stroke-width: 1.0;"/><rect fill="none" height="6" style="stroke: #C82930; stroke-width: 1.0;" width="6" x="919" y="208.0664"/><text fill="#000000" font-family="sans-serif" font-size="13" lengthAdjust="spacingAndGlyphs" textLength="69" x="929" y="215.0669">attributes_</text><!--MD5=[e3293db0be81ad89731fa26432212871]
reverse link C_0001854695372332280903 to C_0001854695372332280903--><path d="M792.63,151.98 C792.69,139.76 801.32,130 818.5,130 C841.41,130 849.11,147.35 841.59,164.76 " fill="none" id="C_0001854695372332280903&lt;-C_0001854695372332280903" style="stroke: #A80036; stroke-width: 1.0;"/><polygon fill="#FFFFFF" points="795.41,164.76,798.0388,158.0451,792.8515,153.0359,790.2227,159.7508,795.41,164.76" style="stroke: #A80036; stroke-width: 1.0;"/><rect fill="none" height="6" style="stroke: #C82930; stroke-width: 1.0;" width="6" x="790" y="114.0664"/><text fill="#000000" font-family="sans-serif" font-size="13" lengthAdjust="spacingAndGlyphs" textLength="49" x="800" y="121.0669">parent_</text><!--MD5=[4764f33c6f69c8375cb539c14c6cf482]
reverse link C_0001854695372332280903 to C_0001449857709503654826--><path d="M875.49,223.65 C917.32,249.17 976.16,284.28 1029,313 C1040.08,319.02 1052.14,325.22 1063.59,330.95 " fill="none" id="C_0001854695372332280903&lt;-C_0001449857709503654826" style="stroke: #A80036; stroke-width: 1.0;"/><polygon fill="none" points="871.79,229.59,858.39,213.18,879.1,217.66,871.79,229.59" style="stroke: #A80036; stroke-width: 1.0;"/><!--MD5=[ba1ebaff83692faf260be790c47ce346]
reverse link C_0001989731226165037041 to C_0001152344551163828554--><path d="M899.22,459.16 C904.88,459.89 910.52,460.52 916,461 C952.75,464.21 962.29,464.65 999,461 C1018.37,459.07 1039.31,455.36 1057.93,451.47 " fill="none" id="C_0001989731226165037041&lt;-C_0001152344551163828554" style="stroke: #A80036; stroke-width: 1.0;"/><polygon fill="#FFFFFF" points="886.01,457.28,891.3825,462.09,897.8889,458.9807,892.5163,454.1708,886.01,457.28" style="stroke: #A80036; stroke-width: 1.0;"/><rect fill="none" height="6" style="stroke: #C82930; stroke-width: 1.0;" width="6" x="935.5" y="450.0664"/><text fill="#000000" font-family="sans-serif" font-size="13" lengthAdjust="spacingAndGlyphs" textLength="36" x="945.5" y="457.0669">map_</text><!--MD5=[ba1ebaff83692faf260be790c47ce346]
reverse link C_0001989731226165037041 to C_0001152344551163828554--><path d="M899.35,440.5 C904.99,440.31 910.58,440.14 916,440 C963.82,438.77 1018.17,438.28 1057.73,438.1 " fill="none" id="C_0001989731226165037041&lt;-C_0001152344551163828554-1" style="stroke: #A80036; stroke-width: 1.0;"/><polygon fill="#FFFFFF" points="886.2,440.96,892.3369,444.7467,898.1926,440.5383,892.0557,436.7516,886.2,440.96" style="stroke: #A80036; stroke-width: 1.0;"/><rect fill="none" height="6" style="stroke: #C82930; stroke-width: 1.0;" width="6" x="942.5" y="428.0664"/><text fill="#000000" font-family="sans-serif" font-size="13" lengthAdjust="spacingAndGlyphs" textLength="22" x="952.5" y="435.0669">ns_</text><!--MD5=[ec1347331965b9b64d874999073ede81]
reverse link C_0001989731226165037041 to C_0001318630691633731356--><path d="M877.75,473.51 C890.14,478.95 903.32,484.12 916,488 C958.72,501.06 1008.31,509.32 1047.12,514.31 " fill="none" id="C_0001989731226165037041&lt;-C_0001318630691633731356" style="stroke: #A80036; stroke-width: 1.0;"/><polygon fill="#FFFFFF" points="865.66,468.02,869.4659,474.145,876.5835,472.9876,872.7776,466.8626,865.66,468.02" style="stroke: #A80036; stroke-width: 1.0;"/><rect fill="none" height="6" style="stroke: #C82930; stroke-width: 1.0;" width="6" x="942.5" y="477.0664"/><text fill="#000000" font-family="sans-serif" font-size="13" lengthAdjust="spacingAndGlyphs" textLength="22" x="952.5" y="484.0669">ns_</text><!--MD5=[f91adfe358cfdda9463a7db987fdead0]
link C_0001989531636101477120 to C_0001989731226165037041--><path d="M595.17,407.92 C636.03,413.84 680.25,420.46 721,427 C725.83,427.78 730.79,428.59 735.79,429.43 " fill="none" id="C_0001989531636101477120-&gt;C_0001989731226165037041" style="stroke: #A80036; stroke-width: 1.0;"/><ellipse cx="742.9532" cy="430.6389" fill="#FFFFFF" rx="8" ry="8" style="stroke: #A80036; stroke-width: 1.0;"/><line style="stroke: #A80036; stroke-width: 1.0;" x1="735.0664" x2="750.84" y1="429.2977" y2="431.98"/><line style="stroke: #A80036; stroke-width: 1.0;" x1="744.2944" x2="741.6121" y1="422.7521" y2="438.5256"/><!--MD5=[43762c83f348fe53cf1b4bc851c34b6a]
link C_0000634431773903245144 to C_0001989731226165037041--><path d="M531.4,463.97 C592.88,459.68 674.99,453.95 735.47,449.73 " fill="none" id="C_0000634431773903245144-&gt;C_0001989731226165037041" style="stroke: #A80036; stroke-width: 1.0;"/><ellipse cx="742.7599" cy="449.224" fill="#FFFFFF" rx="8" ry="8" style="stroke: #A80036; stroke-width: 1.0;"/><line style="stroke: #A80036; stroke-width: 1.0;" x1="734.7798" x2="750.74" y1="449.788" y2="448.66"/><line style="stroke: #A80036; stroke-width: 1.0;" x1="742.1959" x2="743.3239" y1="441.2439" y2="457.2041"/><!--MD5=[370d704d5d15c2c0189c2b37dde92daf]
link C_0001918458639534713763 to C_0001989731226165037041--><path d="M514.23,313.1 C570.6,333.32 651.87,363.81 721,395 C733.32,400.56 746.33,406.86 758.68,413.05 " fill="none" id="C_0001918458639534713763-&gt;C_0001989731226165037041" style="stroke: #A80036; stroke-width: 1.0;"/><ellipse cx="765.1391" cy="416.3236" fill="#FFFFFF" rx="8" ry="8" style="stroke: #A80036; stroke-width: 1.0;"/><line style="stroke: #A80036; stroke-width: 1.0;" x1="758.0083" x2="772.27" y1="412.6972" y2="419.95"/><line style="stroke: #A80036; stroke-width: 1.0;" x1="768.7655" x2="761.5127" y1="409.1927" y2="423.4545"/><!--MD5=[499c06a86d41771d347f77e9d7cd8dbf]
reverse link C_0001918458639534713763 to C_0001854695372332280903--><path d="M545.15,276.28 C598.26,267.91 664.12,254.94 721,236 C739.03,229.99 758.02,221.31 774.33,213.04 " fill="none" id="C_0001918458639534713763&lt;-C_0001854695372332280903" style="stroke: #A80036; stroke-width: 1.0;"/><polygon fill="#FFFFFF" points="532.28,278.25,538.8169,281.2944,544.1414,276.4313,537.6044,273.3868,532.28,278.25" style="stroke: #A80036; stroke-width: 1.0;"/><ellipse cx="654" cy="228.0664" fill="none" rx="3" ry="3" style="stroke: #038048; stroke-width: 1.0;"/><text fill="#000000" font-family="sans-serif" font-size="13" lengthAdjust="spacingAndGlyphs" textLength="36" x="661" y="232.0669">entity</text><!--MD5=[2411f160ab91de10b5cf290c9ff1dc17]
reverse link C_0000664741342971710245 to C_0001854695372332280903--><path d="M523.33,132.14 C597.83,146.54 707.49,167.74 769.73,179.77 " fill="none" id="C_0000664741342971710245&lt;-C_0001854695372332280903" style="stroke: #A80036; stroke-width: 1.0;"/><polygon fill="#FFFFFF" points="510.31,129.62,515.4408,134.6871,522.0914,131.8999,516.9607,126.8328,510.31,129.62" style="stroke: #A80036; stroke-width: 1.0;"/><rect fill="none" height="6" style="stroke: #C82930; stroke-width: 1.0;" width="6" x="628" y="142.0664"/><text fill="#000000" font-family="sans-serif" font-size="13" lengthAdjust="spacingAndGlyphs" textLength="82" x="638" y="149.0669">main_entity_</text><!--MD5=[27048158ff6ff3b675de221f8b527fc5]
link C_0000192432743316866604 to C_0000664741342971710245--><path d="M188.19,142.85 C242.34,137.36 310.63,130.43 362.88,125.13 " fill="none" id="C_0000192432743316866604-&gt;C_0000664741342971710245" style="stroke: #A80036; stroke-width: 1.0;"/><ellipse cx="369.8908" cy="124.4173" fill="#FFFFFF" rx="8" ry="8" style="stroke: #A80036; stroke-width: 1.0;"/><line style="stroke: #A80036; stroke-width: 1.0;" x1="361.9317" x2="377.85" y1="125.2247" y2="123.61"/><line style="stroke: #A80036; stroke-width: 1.0;" x1="369.0835" x2="370.6982" y1="116.4582" y2="132.3765"/><!--MD5=[5ee010fa43764ba55416e1d6e60c4777]
reverse link C_0000192432743316866604 to C_0000664741342971710245--><path d="M201.43,135.05 C207.03,134.31 212.58,133.62 218,133 C271.69,126.85 332.88,122.68 377.88,120.15 " fill="none" id="C_0000192432743316866604&lt;-C_0000664741342971710245" style="stroke: #A80036; stroke-width: 1.0;"/><polygon fill="#FFFFFF" points="188.31,136.85,194.7989,139.9956,200.1982,135.2157,193.7093,132.0701,188.31,136.85" style="stroke: #A80036; stroke-width: 1.0;"/><rect fill="none" height="6" style="stroke: #C82930; stroke-width: 1.0;" width="6" x="221" y="118.0664"/><text fill="#000000" font-family="sans-serif" font-size="13" lengthAdjust="spacingAndGlyphs" textLength="31" x="231" y="125.0669">gen_</text><!--MD5=[565cdbebadfe7fd07597666b515437de]
reverse link C_0000192432743316866604 to C_0001854695372332280903--><path d="M201.08,165.93 C230.7,169.45 263.09,172.84 293,175 C468.35,187.66 677.42,189.19 769.7,189.17 " fill="none" id="C_0000192432743316866604&lt;-C_0001854695372332280903" style="stroke: #A80036; stroke-width: 1.0;"/><polygon fill="#FFFFFF" points="188.13,164.36,193.6029,169.0555,200.0421,165.8095,194.5692,161.114,188.13,164.36" style="stroke: #A80036; stroke-width: 1.0;"/><rect fill="none" height="6" style="stroke: #C82930; stroke-width: 1.0;" width="6" x="432.5" y="164.0664"/><text fill="#000000" font-family="sans-serif" font-size="13" lengthAdjust="spacingAndGlyphs" textLength="15" x="442.5" y="171.0669">e_</text><!--MD5=[54cd7bf265e46ce3c20056fbe97c6b4f]
reverse link C_0001854695372332280903 to C_0001158442798649543268--><path d="M886.86,169.87 C896.6,167.39 906.53,165.02 916,163 C1068.92,130.46 1248.98,104.67 1355.94,90.64 " fill="none" id="C_0001854695372332280903&lt;-C_0001158442798649543268" style="stroke: #A80036; stroke-width: 1.0;"/><polygon fill="none" points="888.48,176.68,867.36,175.02,884.91,163.14,888.48,176.68" style="stroke: #A80036; stroke-width: 1.0;"/><!--MD5=[bb78279d0c43d20fc2e70616c8087fc8]
reverse link C_0000007122300671081288 to C_0001158442798649543268--><path d="M1186.43,44.34 C1235.79,50.85 1302.14,59.59 1355.85,66.66 " fill="none" id="C_0000007122300671081288&lt;-C_0001158442798649543268" style="stroke: #A80036; stroke-width: 1.0;"/><polygon fill="#FFFFFF" points="1173.3,42.61,1178.7253,47.3604,1185.1969,44.1795,1179.7716,39.4291,1173.3,42.61" style="stroke: #A80036; stroke-width: 1.0;"/><rect fill="none" height="6" style="stroke: #C82930; stroke-width: 1.0;" width="6" x="1233" y="40.0664"/><text fill="#000000" font-family="sans-serif" font-size="13" lengthAdjust="spacingAndGlyphs" textLength="82" x="1243" y="47.0669">parameters_</text><!--MD5=[566c918c60522ba5da5576be62bc445d]
reverse link C_0001854695372332280903 to C_0000007122300671081288--><path d="M851.13,149.26 C868.45,129.84 891.37,107.57 916,93 C959.37,67.34 1014.88,52.35 1056,44.07 " fill="none" id="C_0001854695372332280903&lt;-C_0000007122300671081288" style="stroke: #A80036; stroke-width: 1.0;"/><polygon fill="none" points="856.29,154,837.99,164.67,845.64,144.91,856.29,154" style="stroke: #A80036; stroke-width: 1.0;"/><!--MD5=[0bb53f97ee7ecf0ad4fa222297793c6d]
reverse link C_0001854695372332280903 to C_0001248593507051490272--><path d="M887.33,189 C945.52,189 1027.31,189 1074.92,189 " fill="none" id="C_0001854695372332280903&lt;-C_0001248593507051490272" style="stroke: #A80036; stroke-width: 1.0;"/><polygon fill="none" points="887.06,196,867.06,189,887.06,182,887.06,196" style="stroke: #A80036; stroke-width: 1.0;"/><!--MD5=[7b88c0f592a7385c1cffb2bd503f00aa]
@startuml
left to right direction
class "cpp_attribute" as C_0000560657228528420559
class C_0000560657228528420559 [[https://github.com/foonathan/cppast/blob/f00df6675d87c6983033d270728c57a55cd3db22/include/cppast/cpp_attribute.hpp#L42{cpp_attribute}]] {
}
class "cpp_scope_name" as C_0001691123644971107631
class C_0001691123644971107631 [[https://github.com/foonathan/cppast/blob/f00df6675d87c6983033d270728c57a55cd3db22/include/cppast/cpp_entity.hpp#L22{cpp_scope_name}]] {
}
abstract "cpp_entity" as C_0001854695372332280903
abstract C_0001854695372332280903 [[https://github.com/foonathan/cppast/blob/f00df6675d87c6983033d270728c57a55cd3db22/include/cppast/cpp_entity.hpp#L47{cpp_entity}]] {
}
class "cpp_unexposed_entity" as C_0001449857709503654826
class C_0001449857709503654826 [[https://github.com/foonathan/cppast/blob/f00df6675d87c6983033d270728c57a55cd3db22/include/cppast/cpp_entity.hpp#L187{cpp_unexposed_entity}]] {
}
class "cpp_entity_id" as C_0001152344551163828554
class C_0001152344551163828554 [[https://github.com/foonathan/cppast/blob/f00df6675d87c6983033d270728c57a55cd3db22/include/cppast/cpp_entity_index.hpp#L38{cpp_entity_id}]] {
}
class "cpp_entity_index" as C_0001989731226165037041
class C_0001989731226165037041 [[https://github.com/foonathan/cppast/blob/f00df6675d87c6983033d270728c57a55cd3db22/include/cppast/cpp_entity_index.hpp#L58{cpp_entity_index}]] {
}
class "cpp_entity_index::duplicate_definition_error" as C_0001989531636101477120
class C_0001989531636101477120 [[https://github.com/foonathan/cppast/blob/f00df6675d87c6983033d270728c57a55cd3db22/include/cppast/cpp_entity_index.hpp#L62{cpp_entity_index##duplicate_definition_error}]] {
}
class "cpp_entity_index::hash" as C_0000634431773903245144
class C_0000634431773903245144 [[https://github.com/foonathan/cppast/blob/f00df6675d87c6983033d270728c57a55cd3db22/include/cppast/cpp_entity_index.hpp#L116{cpp_entity_index##hash}]] {
}
class "cpp_entity_index::value" as C_0001918458639534713763
class C_0001918458639534713763 [[https://github.com/foonathan/cppast/blob/f00df6675d87c6983033d270728c57a55cd3db22/include/cppast/cpp_entity_index.hpp#L124{cpp_entity_index##value}]] {
}
abstract "code_generator" as C_0000664741342971710245
abstract C_0000664741342971710245 [[https://github.com/foonathan/cppast/blob/f00df6675d87c6983033d270728c57a55cd3db22/include/cppast/code_generator.hpp#L142{code_generator}]] {
}
class "code_generator::output" as C_0000192432743316866604
class C_0000192432743316866604 [[https://github.com/foonathan/cppast/blob/f00df6675d87c6983033d270728c57a55cd3db22/include/cppast/code_generator.hpp#L168{code_generator##output}]] {
}
class "cpp_template_parameter" as C_0001158442798649543268
class C_0001158442798649543268 [[https://github.com/foonathan/cppast/blob/f00df6675d87c6983033d270728c57a55cd3db22/include/cppast/cpp_template_parameter.hpp#L17{cpp_template_parameter}]] {
}
class "cpp_template" as C_0000007122300671081288
class C_0000007122300671081288 [[https://github.com/foonathan/cppast/blob/f00df6675d87c6983033d270728c57a55cd3db22/include/cppast/cpp_template.hpp#L21{cpp_template}]] {
}
class "cpp_file" as C_0001248593507051490272
class C_0001248593507051490272 [[https://github.com/foonathan/cppast/blob/f00df6675d87c6983033d270728c57a55cd3db22/include/cppast/cppast_fwd.hpp#L36{cpp_file}]] {
}
class "cpp_namespace" as C_0001318630691633731356
class C_0001318630691633731356 [[https://github.com/foonathan/cppast/blob/f00df6675d87c6983033d270728c57a55cd3db22/include/cppast/cppast_fwd.hpp#L55{cpp_namespace}]] {
}
C_0001691123644971107631 o- - C_0001854695372332280903 : -entity_
C_0001691123644971107631 o- - C_0000007122300671081288 : -templ_
C_0001854695372332280903 o- - C_0000560657228528420559 : -attributes_
C_0001854695372332280903 o- - C_0001854695372332280903 : -parent_
C_0001854695372332280903 <|- - C_0001449857709503654826
C_0001989731226165037041 o- - C_0001152344551163828554 : -map_
C_0001989731226165037041 o- - C_0001152344551163828554 : -ns_
C_0001989731226165037041 o- - C_0001318630691633731356 : -ns_
C_0001989531636101477120 - -+ C_0001989731226165037041
C_0000634431773903245144 - -+ C_0001989731226165037041
C_0001918458639534713763 - -+ C_0001989731226165037041
C_0001918458639534713763 o- - C_0001854695372332280903 : +entity
C_0000664741342971710245 o- - C_0001854695372332280903 : -main_entity_
C_0000192432743316866604 - -+ C_0000664741342971710245
C_0000192432743316866604 o- - C_0000664741342971710245 : -gen_
C_0000192432743316866604 o- - C_0001854695372332280903 : -e_
C_0001854695372332280903 <|- - C_0001158442798649543268
C_0000007122300671081288 o- - C_0001158442798649543268 : -parameters_
C_0001854695372332280903 <|- - C_0000007122300671081288
C_0001854695372332280903 <|- - C_0001248593507051490272

@enduml

PlantUML version 1.2020.02(Sun Mar 01 11:22:07 CET 2020)
(GPL source distribution)
Java Runtime: OpenJDK Runtime Environment
JVM: OpenJDK 64-Bit Server VM
Java Version: 11.0.18+10-post-Ubuntu-0ubuntu122.04
Operating System: Linux
Default Encoding: UTF-8
Language: en
Country: US
--></g></svg>