<svg xmlns="http://www.w3.org/2000/svg" xmlns:xlink="http://www.w3.org/1999/xlink" contentStyleType="text/css" data-diagram-type="CLASS" height="741px" preserveAspectRatio="none" style="width:4806px;height:741px;background:#FFFFFF;" version="1.1" viewBox="0 0 4806 741" width="4806px" zoomAndPan="magnify"><title>std::vector context class diagram</title><defs/><g><text fill="#000000" font-family="sans-serif" font-size="14" font-weight="bold" lengthAdjust="spacing" textLength="265.2344" x="2263.6934" y="22.9951">std::vector context class diagram</text><!--class C_0016384363037466094568--><g id="elem_C_0016384363037466094568"><rect codeLine="3" fill="#F1F1F1" height="48" id="C_0016384363037466094568" rx="2.5" ry="2.5" style="stroke:#181818;stroke-width:0.5;" width="501.8037" x="2180" y="190.2969"/><ellipse cx="2195" cy="206.2969" fill="#ADD1B2" rx="11" ry="11" style="stroke:#181818;stroke-width:1;"/><path d="M2197.9688,211.9375 Q2197.3906,212.2344 2196.75,212.375 Q2196.1094,212.5313 2195.4063,212.5313 Q2192.9063,212.5313 2191.5781,210.8906 Q2190.2656,209.2344 2190.2656,206.1094 Q2190.2656,202.9844 2191.5781,201.3281 Q2192.9063,199.6719 2195.4063,199.6719 Q2196.1094,199.6719 2196.75,199.8281 Q2197.4063,199.9844 2197.9688,200.2813 L2197.9688,203 Q2197.3438,202.4219 2196.75,202.1563 Q2196.1563,201.875 2195.5313,201.875 Q2194.1875,201.875 2193.5,202.9531 Q2192.8125,204.0156 2192.8125,206.1094 Q2192.8125,208.2031 2193.5,209.2813 Q2194.1875,210.3438 2195.5313,210.3438 Q2196.1563,210.3438 2196.75,210.0781 Q2197.3438,209.7969 2197.9688,209.2188 L2197.9688,211.9375 Z " fill="#000000"/><text fill="#000000" font-family="sans-serif" font-size="14" lengthAdjust="spacing" textLength="52.1377" x="2209" y="211.1436">iterator</text><rect fill="#FFFFFF" height="15.9688" style="stroke:#181818;stroke-width:1;stroke-dasharray:2.0,2.0;" width="415.666" x="2269.1377" y="187.2969"/><text fill="#000000" font-family="sans-serif" font-size="12" font-style="italic" lengthAdjust="spacing" textLength="413.666" x="2270.1377" y="199.4355">_Category,_Tp,_Distance=ptrdiff_t,_Pointer=_Tp *,_Reference=_Tp &amp;</text><line style="stroke:#181818;stroke-width:0.5;" x1="2181" x2="2680.8037" y1="222.2969" y2="222.2969"/><line style="stroke:#181818;stroke-width:0.5;" x1="2181" x2="2680.8037" y1="230.2969" y2="230.2969"/></g><!--class C_0012471832686357493722--><g id="elem_C_0012471832686357493722"><rect codeLine="7" fill="#F1F1F1" height="48" id="C_0012471832686357493722" rx="2.5" ry="2.5" style="stroke:#181818;stroke-width:0.5;" width="1595.5146" x="529" y="62.2969"/><ellipse cx="544" cy="78.2969" fill="#ADD1B2" rx="11" ry="11" style="stroke:#181818;stroke-width:1;"/><path d="M546.9688,83.9375 Q546.3906,84.2344 545.75,84.375 Q545.1094,84.5313 544.4063,84.5313 Q541.9063,84.5313 540.5781,82.8906 Q539.2656,81.2344 539.2656,78.1094 Q539.2656,74.9844 540.5781,73.3281 Q541.9063,71.6719 544.4063,71.6719 Q545.1094,71.6719 545.75,71.8281 Q546.4063,71.9844 546.9688,72.2813 L546.9688,75 Q546.3438,74.4219 545.75,74.1563 Q545.1563,73.875 544.5313,73.875 Q543.1875,73.875 542.5,74.9531 Q541.8125,76.0156 541.8125,78.1094 Q541.8125,80.2031 542.5,81.2813 Q543.1875,82.3438 544.5313,82.3438 Q545.1563,82.3438 545.75,82.0781 Q546.3438,81.7969 546.9688,81.2188 L546.9688,83.9375 Z " fill="#000000"/><text fill="#000000" font-family="sans-serif" font-size="14" lengthAdjust="spacing" textLength="52.1377" x="558" y="83.1436">iterator</text><rect fill="#FFFFFF" height="15.9688" style="stroke:#181818;stroke-width:1;stroke-dasharray:2.0,2.0;" width="1509.377" x="618.1377" y="59.2969"/><text fill="#000000" font-family="sans-serif" font-size="12" font-style="italic" lengthAdjust="spacing" textLength="1507.377" x="619.1377" y="71.4355">typename iterator_traits&lt;_Iterator&gt;::iterator_category,typename iterator_traits&lt;_Iterator&gt;::value_type,typename iterator_traits&lt;_Iterator&gt;::difference_type,typename iterator_traits&lt;_Iterator&gt;::pointer,typename iterator_traits&lt;_Iterator&gt;::reference</text><line style="stroke:#181818;stroke-width:0.5;" x1="530" x2="2123.5146" y1="94.2969" y2="94.2969"/><line style="stroke:#181818;stroke-width:0.5;" x1="530" x2="2123.5146" y1="102.2969" y2="102.2969"/></g><!--class C_0003742820890603540341--><g id="elem_C_0003742820890603540341"><rect codeLine="11" fill="#F1F1F1" height="48" id="C_0003742820890603540341" rx="2.5" ry="2.5" style="stroke:#181818;stroke-width:0.5;" width="198.9629" x="420.5" y="190.2969"/><ellipse cx="435.5" cy="206.2969" fill="#ADD1B2" rx="11" ry="11" style="stroke:#181818;stroke-width:1;"/><path d="M438.4688,211.9375 Q437.8906,212.2344 437.25,212.375 Q436.6094,212.5313 435.9063,212.5313 Q433.4063,212.5313 432.0781,210.8906 Q430.7656,209.2344 430.7656,206.1094 Q430.7656,202.9844 432.0781,201.3281 Q433.4063,199.6719 435.9063,199.6719 Q436.6094,199.6719 437.25,199.8281 Q437.9063,199.9844 438.4688,200.2813 L438.4688,203 Q437.8438,202.4219 437.25,202.1563 Q436.6563,201.875 436.0313,201.875 Q434.6875,201.875 434,202.9531 Q433.3125,204.0156 433.3125,206.1094 Q433.3125,208.2031 434,209.2813 Q434.6875,210.3438 436.0313,210.3438 Q436.6563,210.3438 437.25,210.0781 Q437.8438,209.7969 438.4688,209.2188 L438.4688,211.9375 Z " fill="#000000"/><text fill="#000000" font-family="sans-serif" font-size="14" lengthAdjust="spacing" textLength="112.0684" x="449.5" y="211.1436">reverse_iterator</text><rect fill="#FFFFFF" height="15.9688" style="stroke:#181818;stroke-width:1;stroke-dasharray:2.0,2.0;" width="52.8945" x="569.5684" y="187.2969"/><text fill="#000000" font-family="sans-serif" font-size="12" font-style="italic" lengthAdjust="spacing" textLength="50.8945" x="570.5684" y="199.4355">_Iterator</text><line style="stroke:#181818;stroke-width:0.5;" x1="421.5" x2="618.4629" y1="222.2969" y2="222.2969"/><line style="stroke:#181818;stroke-width:0.5;" x1="421.5" x2="618.4629" y1="230.2969" y2="230.2969"/></g><!--class C_0014653995113384390955--><g id="elem_C_0014653995113384390955"><rect codeLine="15" fill="#F1F1F1" height="48" id="C_0014653995113384390955" rx="2.5" ry="2.5" style="stroke:#181818;stroke-width:0.5;" width="320.9189" x="3470.5" y="62.2969"/><ellipse cx="3485.5" cy="78.2969" fill="#ADD1B2" rx="11" ry="11" style="stroke:#181818;stroke-width:1;"/><path d="M3488.4688,83.9375 Q3487.8906,84.2344 3487.25,84.375 Q3486.6094,84.5313 3485.9063,84.5313 Q3483.4063,84.5313 3482.0781,82.8906 Q3480.7656,81.2344 3480.7656,78.1094 Q3480.7656,74.9844 3482.0781,73.3281 Q3483.4063,71.6719 3485.9063,71.6719 Q3486.6094,71.6719 3487.25,71.8281 Q3487.9063,71.9844 3488.4688,72.2813 L3488.4688,75 Q3487.8438,74.4219 3487.25,74.1563 Q3486.6563,73.875 3486.0313,73.875 Q3484.6875,73.875 3484,74.9531 Q3483.3125,76.0156 3483.3125,78.1094 Q3483.3125,80.2031 3484,81.2813 Q3484.6875,82.3438 3486.0313,82.3438 Q3486.6563,82.3438 3487.25,82.0781 Q3487.8438,81.7969 3488.4688,81.2188 L3488.4688,83.9375 Z " fill="#000000"/><text fill="#000000" font-family="sans-serif" font-size="14" lengthAdjust="spacing" textLength="52.1377" x="3499.5" y="83.1436">iterator</text><rect fill="#FFFFFF" height="15.9688" style="stroke:#181818;stroke-width:1;stroke-dasharray:2.0,2.0;" width="234.7813" x="3559.6377" y="59.2969"/><text fill="#000000" font-family="sans-serif" font-size="12" font-style="italic" lengthAdjust="spacing" textLength="232.7813" x="3560.6377" y="71.4355">output_iterator_tag,void,void,void,void</text><line style="stroke:#181818;stroke-width:0.5;" x1="3471.5" x2="3790.4189" y1="94.2969" y2="94.2969"/><line style="stroke:#181818;stroke-width:0.5;" x1="3471.5" x2="3790.4189" y1="102.2969" y2="102.2969"/></g><!--class C_0018446524956631938981--><g id="elem_C_0018446524956631938981"><rect codeLine="19" fill="#F1F1F1" height="48" id="C_0018446524956631938981" rx="2.5" ry="2.5" style="stroke:#181818;stroke-width:0.5;" width="239.9639" x="3644" y="190.2969"/><ellipse cx="3659" cy="206.2969" fill="#ADD1B2" rx="11" ry="11" style="stroke:#181818;stroke-width:1;"/><path d="M3661.9688,211.9375 Q3661.3906,212.2344 3660.75,212.375 Q3660.1094,212.5313 3659.4063,212.5313 Q3656.9063,212.5313 3655.5781,210.8906 Q3654.2656,209.2344 3654.2656,206.1094 Q3654.2656,202.9844 3655.5781,201.3281 Q3656.9063,199.6719 3659.4063,199.6719 Q3660.1094,199.6719 3660.75,199.8281 Q3661.4063,199.9844 3661.9688,200.2813 L3661.9688,203 Q3661.3438,202.4219 3660.75,202.1563 Q3660.1563,201.875 3659.5313,201.875 Q3658.1875,201.875 3657.5,202.9531 Q3656.8125,204.0156 3656.8125,206.1094 Q3656.8125,208.2031 3657.5,209.2813 Q3658.1875,210.3438 3659.5313,210.3438 Q3660.1563,210.3438 3660.75,210.0781 Q3661.3438,209.7969 3661.9688,209.2188 L3661.9688,211.9375 Z " fill="#000000"/><text fill="#000000" font-family="sans-serif" font-size="14" lengthAdjust="spacing" textLength="139.3232" x="3673" y="211.1436">back_insert_iterator</text><rect fill="#FFFFFF" height="15.9688" style="stroke:#181818;stroke-width:1;stroke-dasharray:2.0,2.0;" width="66.6406" x="3820.3232" y="187.2969"/><text fill="#000000" font-family="sans-serif" font-size="12" font-style="italic" lengthAdjust="spacing" textLength="64.6406" x="3821.3232" y="199.4355">_Container</text><line style="stroke:#181818;stroke-width:0.5;" x1="3645" x2="3882.9639" y1="222.2969" y2="222.2969"/><line style="stroke:#181818;stroke-width:0.5;" x1="3645" x2="3882.9639" y1="230.2969" y2="230.2969"/></g><!--class C_0009870417718487041983--><g id="elem_C_0009870417718487041983"><rect codeLine="23" fill="#F1F1F1" height="48" id="C_0009870417718487041983" rx="2.5" ry="2.5" style="stroke:#181818;stroke-width:0.5;" width="240.3057" x="3234" y="190.2969"/><ellipse cx="3249" cy="206.2969" fill="#ADD1B2" rx="11" ry="11" style="stroke:#181818;stroke-width:1;"/><path d="M3251.9688,211.9375 Q3251.3906,212.2344 3250.75,212.375 Q3250.1094,212.5313 3249.4063,212.5313 Q3246.9063,212.5313 3245.5781,210.8906 Q3244.2656,209.2344 3244.2656,206.1094 Q3244.2656,202.9844 3245.5781,201.3281 Q3246.9063,199.6719 3249.4063,199.6719 Q3250.1094,199.6719 3250.75,199.8281 Q3251.4063,199.9844 3251.9688,200.2813 L3251.9688,203 Q3251.3438,202.4219 3250.75,202.1563 Q3250.1563,201.875 3249.5313,201.875 Q3248.1875,201.875 3247.5,202.9531 Q3246.8125,204.0156 3246.8125,206.1094 Q3246.8125,208.2031 3247.5,209.2813 Q3248.1875,210.3438 3249.5313,210.3438 Q3250.1563,210.3438 3250.75,210.0781 Q3251.3438,209.7969 3251.9688,209.2188 L3251.9688,211.9375 Z " fill="#000000"/><text fill="#000000" font-family="sans-serif" font-size="14" lengthAdjust="spacing" textLength="139.665" x="3263" y="211.1436">front_insert_iterator</text><rect fill="#FFFFFF" height="15.9688" style="stroke:#181818;stroke-width:1;stroke-dasharray:2.0,2.0;" width="66.6406" x="3410.665" y="187.2969"/><text fill="#000000" font-family="sans-serif" font-size="12" font-style="italic" lengthAdjust="spacing" textLength="64.6406" x="3411.665" y="199.4355">_Container</text><line style="stroke:#181818;stroke-width:0.5;" x1="3235" x2="3473.3057" y1="222.2969" y2="222.2969"/><line style="stroke:#181818;stroke-width:0.5;" x1="3235" x2="3473.3057" y1="230.2969" y2="230.2969"/></g><!--class C_0003857731205391224987--><g id="elem_C_0003857731205391224987"><rect codeLine="27" fill="#F1F1F1" height="48" id="C_0003857731205391224987" rx="2.5" ry="2.5" style="stroke:#181818;stroke-width:0.5;" width="199.6934" x="4047" y="190.2969"/><ellipse cx="4062" cy="206.2969" fill="#ADD1B2" rx="11" ry="11" style="stroke:#181818;stroke-width:1;"/><path d="M4064.9688,211.9375 Q4064.3906,212.2344 4063.75,212.375 Q4063.1094,212.5313 4062.4063,212.5313 Q4059.9063,212.5313 4058.5781,210.8906 Q4057.2656,209.2344 4057.2656,206.1094 Q4057.2656,202.9844 4058.5781,201.3281 Q4059.9063,199.6719 4062.4063,199.6719 Q4063.1094,199.6719 4063.75,199.8281 Q4064.4063,199.9844 4064.9688,200.2813 L4064.9688,203 Q4064.3438,202.4219 4063.75,202.1563 Q4063.1563,201.875 4062.5313,201.875 Q4061.1875,201.875 4060.5,202.9531 Q4059.8125,204.0156 4059.8125,206.1094 Q4059.8125,208.2031 4060.5,209.2813 Q4061.1875,210.3438 4062.5313,210.3438 Q4063.1563,210.3438 4063.75,210.0781 Q4064.3438,209.7969 4064.9688,209.2188 L4064.9688,211.9375 Z " fill="#000000"/><text fill="#000000" font-family="sans-serif" font-size="14" lengthAdjust="spacing" textLength="99.0527" x="4076" y="211.1436">insert_iterator</text><rect fill="#FFFFFF" height="15.9688" style="stroke:#181818;stroke-width:1;stroke-dasharray:2.0,2.0;" width="66.6406" x="4183.0527" y="187.2969"/><text fill="#000000" font-family="sans-serif" font-size="12" font-style="italic" lengthAdjust="spacing" textLength="64.6406" x="4184.0527" y="199.4355">_Container</text><line style="stroke:#181818;stroke-width:0.5;" x1="4048" x2="4245.6934" y1="222.2969" y2="222.2969"/><line style="stroke:#181818;stroke-width:0.5;" x1="4048" x2="4245.6934" y1="230.2969" y2="230.2969"/></g><!--class C_0000997856561152181668--><g id="elem_C_0000997856561152181668"><rect codeLine="31" fill="#F1F1F1" height="48" id="C_0000997856561152181668" rx="2.5" ry="2.5" style="stroke:#181818;stroke-width:0.5;" width="188.6494" x="3192.5" y="512.2969"/><ellipse cx="3207.5" cy="528.2969" fill="#ADD1B2" rx="11" ry="11" style="stroke:#181818;stroke-width:1;"/><path d="M3210.4688,533.9375 Q3209.8906,534.2344 3209.25,534.375 Q3208.6094,534.5313 3207.9063,534.5313 Q3205.4063,534.5313 3204.0781,532.8906 Q3202.7656,531.2344 3202.7656,528.1094 Q3202.7656,524.9844 3204.0781,523.3281 Q3205.4063,521.6719 3207.9063,521.6719 Q3208.6094,521.6719 3209.25,521.8281 Q3209.9063,521.9844 3210.4688,522.2813 L3210.4688,525 Q3209.8438,524.4219 3209.25,524.1563 Q3208.6563,523.875 3208.0313,523.875 Q3206.6875,523.875 3206,524.9531 Q3205.3125,526.0156 3205.3125,528.1094 Q3205.3125,530.2031 3206,531.2813 Q3206.6875,532.3438 3208.0313,532.3438 Q3208.6563,532.3438 3209.25,532.0781 Q3209.8438,531.7969 3210.4688,531.2188 L3210.4688,533.9375 Z " fill="#000000"/><text fill="#000000" font-family="sans-serif" font-size="14" lengthAdjust="spacing" textLength="93.0713" x="3221.5" y="533.1436">_Vector_base</text><rect fill="#FFFFFF" height="15.9688" style="stroke:#181818;stroke-width:1;stroke-dasharray:2.0,2.0;" width="61.5781" x="3322.5713" y="509.2969"/><text fill="#000000" font-family="sans-serif" font-size="12" font-style="italic" lengthAdjust="spacing" textLength="59.5781" x="3323.5713" y="521.4355">_Tp,_Alloc</text><line style="stroke:#181818;stroke-width:0.5;" x1="3193.5" x2="3380.1494" y1="544.2969" y2="544.2969"/><line style="stroke:#181818;stroke-width:0.5;" x1="3193.5" x2="3380.1494" y1="552.2969" y2="552.2969"/></g><!--class C_0018039370053612920865--><g id="elem_C_0018039370053612920865"><rect codeLine="35" fill="#F1F1F1" height="48" id="C_0018039370053612920865" rx="2.5" ry="2.5" style="stroke:#181818;stroke-width:0.5;" width="263.041" x="3512.5" y="326.7969"/><ellipse cx="3527.5" cy="342.7969" fill="#ADD1B2" rx="11" ry="11" style="stroke:#181818;stroke-width:1;"/><path d="M3530.4688,348.4375 Q3529.8906,348.7344 3529.25,348.875 Q3528.6094,349.0313 3527.9063,349.0313 Q3525.4063,349.0313 3524.0781,347.3906 Q3522.7656,345.7344 3522.7656,342.6094 Q3522.7656,339.4844 3524.0781,337.8281 Q3525.4063,336.1719 3527.9063,336.1719 Q3528.6094,336.1719 3529.25,336.3281 Q3529.9063,336.4844 3530.4688,336.7813 L3530.4688,339.5 Q3529.8438,338.9219 3529.25,338.6563 Q3528.6563,338.375 3528.0313,338.375 Q3526.6875,338.375 3526,339.4531 Q3525.3125,340.5156 3525.3125,342.6094 Q3525.3125,344.7031 3526,345.7813 Q3526.6875,346.8438 3528.0313,346.8438 Q3528.6563,346.8438 3529.25,346.5781 Q3529.8438,346.2969 3530.4688,345.7188 L3530.4688,348.4375 Z " fill="#000000"/><text fill="#000000" font-family="sans-serif" font-size="14" lengthAdjust="spacing" textLength="231.041" x="3541.5" y="347.6436">_Vector_base::_Vector_impl_data</text><line style="stroke:#181818;stroke-width:0.5;" x1="3513.5" x2="3774.541" y1="358.7969" y2="358.7969"/><line style="stroke:#181818;stroke-width:0.5;" x1="3513.5" x2="3774.541" y1="366.7969" y2="366.7969"/></g><!--class C_0018207793148199959866--><g id="elem_C_0018207793148199959866"><rect codeLine="39" fill="#F1F1F1" height="48" id="C_0018207793148199959866" rx="2.5" ry="2.5" style="stroke:#181818;stroke-width:0.5;" width="224.5068" x="3174.5" y="686.2969"/><ellipse cx="3189.5" cy="702.2969" fill="#ADD1B2" rx="11" ry="11" style="stroke:#181818;stroke-width:1;"/><path d="M3192.4688,707.9375 Q3191.8906,708.2344 3191.25,708.375 Q3190.6094,708.5313 3189.9063,708.5313 Q3187.4063,708.5313 3186.0781,706.8906 Q3184.7656,705.2344 3184.7656,702.1094 Q3184.7656,698.9844 3186.0781,697.3281 Q3187.4063,695.6719 3189.9063,695.6719 Q3190.6094,695.6719 3191.25,695.8281 Q3191.9063,695.9844 3192.4688,696.2813 L3192.4688,699 Q3191.8438,698.4219 3191.25,698.1563 Q3190.6563,697.875 3190.0313,697.875 Q3188.6875,697.875 3188,698.9531 Q3187.3125,700.0156 3187.3125,702.1094 Q3187.3125,704.2031 3188,705.2813 Q3188.6875,706.3438 3190.0313,706.3438 Q3190.6563,706.3438 3191.25,706.0781 Q3191.8438,705.7969 3192.4688,705.2188 L3192.4688,707.9375 Z " fill="#000000"/><text fill="#000000" font-family="sans-serif" font-size="14" lengthAdjust="spacing" textLength="192.5068" x="3203.5" y="707.1436">_Vector_base::_Vector_impl</text><line style="stroke:#181818;stroke-width:0.5;" x1="3175.5" x2="3398.0068" y1="718.2969" y2="718.2969"/><line style="stroke:#181818;stroke-width:0.5;" x1="3175.5" x2="3398.0068" y1="726.2969" y2="726.2969"/></g><!--class C_0005805017087195686008--><g id="elem_C_0005805017087195686008"><rect codeLine="43" fill="#F1F1F1" height="48" id="C_0005805017087195686008" rx="2.5" ry="2.5" style="stroke:#181818;stroke-width:0.5;" width="243.3906" x="3824.5" y="686.2969"/><ellipse cx="3839.5" cy="702.2969" fill="#ADD1B2" rx="11" ry="11" style="stroke:#181818;stroke-width:1;"/><path d="M3842.4688,707.9375 Q3841.8906,708.2344 3841.25,708.375 Q3840.6094,708.5313 3839.9063,708.5313 Q3837.4063,708.5313 3836.0781,706.8906 Q3834.7656,705.2344 3834.7656,702.1094 Q3834.7656,698.9844 3836.0781,697.3281 Q3837.4063,695.6719 3839.9063,695.6719 Q3840.6094,695.6719 3841.25,695.8281 Q3841.9063,695.9844 3842.4688,696.2813 L3842.4688,699 Q3841.8438,698.4219 3841.25,698.1563 Q3840.6563,697.875 3840.0313,697.875 Q3838.6875,697.875 3838,698.9531 Q3837.3125,700.0156 3837.3125,702.1094 Q3837.3125,704.2031 3838,705.2813 Q3838.6875,706.3438 3840.0313,706.3438 Q3840.6563,706.3438 3841.25,706.0781 Q3841.8438,705.7969 3842.4688,705.2188 L3842.4688,707.9375 Z " fill="#000000"/><text fill="#000000" font-family="sans-serif" font-size="14" lengthAdjust="spacing" textLength="44.4063" x="3853.5" y="707.1436">vector</text><rect fill="#FFFFFF" height="15.9688" style="stroke:#181818;stroke-width:1;stroke-dasharray:2.0,2.0;" width="164.9844" x="3905.9063" y="683.2969"/><text fill="#000000" font-family="sans-serif" font-size="12" font-style="italic" lengthAdjust="spacing" textLength="162.9844" x="3906.9063" y="695.4355">_Tp,_Alloc=allocator&lt;_Tp&gt;</text><line style="stroke:#181818;stroke-width:0.5;" x1="3825.5" x2="4066.8906" y1="718.2969" y2="718.2969"/><line style="stroke:#181818;stroke-width:0.5;" x1="3825.5" x2="4066.8906" y1="726.2969" y2="726.2969"/></g><!--class C_0011374935455579958805--><g id="elem_C_0011374935455579958805"><rect codeLine="47" fill="#F1F1F1" height="48" id="C_0011374935455579958805" rx="2.5" ry="2.5" style="stroke:#181818;stroke-width:0.5;" width="214.7109" x="4380.5" y="512.2969"/><ellipse cx="4395.5" cy="528.2969" fill="#ADD1B2" rx="11" ry="11" style="stroke:#181818;stroke-width:1;"/><path d="M4398.4688,533.9375 Q4397.8906,534.2344 4397.25,534.375 Q4396.6094,534.5313 4395.9063,534.5313 Q4393.4063,534.5313 4392.0781,532.8906 Q4390.7656,531.2344 4390.7656,528.1094 Q4390.7656,524.9844 4392.0781,523.3281 Q4393.4063,521.6719 4395.9063,521.6719 Q4396.6094,521.6719 4397.25,521.8281 Q4397.9063,521.9844 4398.4688,522.2813 L4398.4688,525 Q4397.8438,524.4219 4397.25,524.1563 Q4396.6563,523.875 4396.0313,523.875 Q4394.6875,523.875 4394,524.9531 Q4393.3125,526.0156 4393.3125,528.1094 Q4393.3125,530.2031 4394,531.2813 Q4394.6875,532.3438 4396.0313,532.3438 Q4396.6563,532.3438 4397.25,532.0781 Q4397.8438,531.7969 4398.4688,531.2188 L4398.4688,533.9375 Z " fill="#000000"/><text fill="#000000" font-family="sans-serif" font-size="14" lengthAdjust="spacing" textLength="182.7109" x="4409.5" y="533.1436">vector::_Temporary_value</text><line style="stroke:#181818;stroke-width:0.5;" x1="4381.5" x2="4594.2109" y1="544.2969" y2="544.2969"/><line style="stroke:#181818;stroke-width:0.5;" x1="4381.5" x2="4594.2109" y1="552.2969" y2="552.2969"/></g><!--class C_0003028152696443724275--><g id="elem_C_0003028152696443724275"><rect codeLine="51" fill="#F1F1F1" height="48" id="C_0003028152696443724275" rx="2.5" ry="2.5" style="stroke:#181818;stroke-width:0.5;" width="285.9209" x="4345" y="686.2969"/><ellipse cx="4360" cy="702.2969" fill="#ADD1B2" rx="11" ry="11" style="stroke:#181818;stroke-width:1;"/><path d="M4362.9688,707.9375 Q4362.3906,708.2344 4361.75,708.375 Q4361.1094,708.5313 4360.4063,708.5313 Q4357.9063,708.5313 4356.5781,706.8906 Q4355.2656,705.2344 4355.2656,702.1094 Q4355.2656,698.9844 4356.5781,697.3281 Q4357.9063,695.6719 4360.4063,695.6719 Q4361.1094,695.6719 4361.75,695.8281 Q4362.4063,695.9844 4362.9688,696.2813 L4362.9688,699 Q4362.3438,698.4219 4361.75,698.1563 Q4361.1563,697.875 4360.5313,697.875 Q4359.1875,697.875 4358.5,698.9531 Q4357.8125,700.0156 4357.8125,702.1094 Q4357.8125,704.2031 4358.5,705.2813 Q4359.1875,706.3438 4360.5313,706.3438 Q4361.1563,706.3438 4361.75,706.0781 Q4362.3438,705.7969 4362.9688,705.2188 L4362.9688,707.9375 Z " fill="#000000"/><text fill="#000000" font-family="sans-serif" font-size="14" lengthAdjust="spacing" textLength="253.9209" x="4374" y="707.1436">vector::_Temporary_value::_Storage</text><line style="stroke:#181818;stroke-width:0.5;" x1="4346" x2="4629.9209" y1="718.2969" y2="718.2969"/><line style="stroke:#181818;stroke-width:0.5;" x1="4346" x2="4629.9209" y1="726.2969" y2="726.2969"/></g><!--class C_0009918787256737058051--><g id="elem_C_0009918787256737058051"><rect codeLine="55" fill="#F1F1F1" height="48" id="C_0009918787256737058051" rx="2.5" ry="2.5" style="stroke:#181818;stroke-width:0.5;" width="139.9844" x="4205" y="512.2969"/><ellipse cx="4220" cy="528.2969" fill="#ADD1B2" rx="11" ry="11" style="stroke:#181818;stroke-width:1;"/><path d="M4222.9688,533.9375 Q4222.3906,534.2344 4221.75,534.375 Q4221.1094,534.5313 4220.4063,534.5313 Q4217.9063,534.5313 4216.5781,532.8906 Q4215.2656,531.2344 4215.2656,528.1094 Q4215.2656,524.9844 4216.5781,523.3281 Q4217.9063,521.6719 4220.4063,521.6719 Q4221.1094,521.6719 4221.75,521.8281 Q4222.4063,521.9844 4222.9688,522.2813 L4222.9688,525 Q4222.3438,524.4219 4221.75,524.1563 Q4221.1563,523.875 4220.5313,523.875 Q4219.1875,523.875 4218.5,524.9531 Q4217.8125,526.0156 4217.8125,528.1094 Q4217.8125,530.2031 4218.5,531.2813 Q4219.1875,532.3438 4220.5313,532.3438 Q4221.1563,532.3438 4221.75,532.0781 Q4222.3438,531.7969 4222.9688,531.2188 L4222.9688,533.9375 Z " fill="#000000"/><text fill="#000000" font-family="sans-serif" font-size="14" lengthAdjust="spacing" textLength="44.4063" x="4234" y="533.1436">vector</text><rect fill="#FFFFFF" height="15.9688" style="stroke:#181818;stroke-width:1;stroke-dasharray:2.0,2.0;" width="61.5781" x="4286.4063" y="509.2969"/><text fill="#000000" font-family="sans-serif" font-size="12" font-style="italic" lengthAdjust="spacing" textLength="59.5781" x="4287.4063" y="521.4355">_Tp,_Alloc</text><line style="stroke:#181818;stroke-width:0.5;" x1="4206" x2="4343.9844" y1="544.2969" y2="544.2969"/><line style="stroke:#181818;stroke-width:0.5;" x1="4206" x2="4343.9844" y1="552.2969" y2="552.2969"/></g><!--class C_0015444170014271291982--><g id="elem_C_0015444170014271291982"><rect codeLine="59" fill="#F1F1F1" height="48" id="C_0015444170014271291982" rx="2.5" ry="2.5" style="stroke:#181818;stroke-width:0.5;" width="286.9287" x="2680.5" y="62.2969"/><ellipse cx="2695.5" cy="78.2969" fill="#ADD1B2" rx="11" ry="11" style="stroke:#181818;stroke-width:1;"/><path d="M2698.4688,83.9375 Q2697.8906,84.2344 2697.25,84.375 Q2696.6094,84.5313 2695.9063,84.5313 Q2693.4063,84.5313 2692.0781,82.8906 Q2690.7656,81.2344 2690.7656,78.1094 Q2690.7656,74.9844 2692.0781,73.3281 Q2693.4063,71.6719 2695.9063,71.6719 Q2696.6094,71.6719 2697.25,71.8281 Q2697.9063,71.9844 2698.4688,72.2813 L2698.4688,75 Q2697.8438,74.4219 2697.25,74.1563 Q2696.6563,73.875 2696.0313,73.875 Q2694.6875,73.875 2694,74.9531 Q2693.3125,76.0156 2693.3125,78.1094 Q2693.3125,80.2031 2694,81.2813 Q2694.6875,82.3438 2696.0313,82.3438 Q2696.6563,82.3438 2697.25,82.0781 Q2697.8438,81.7969 2698.4688,81.2188 L2698.4688,83.9375 Z " fill="#000000"/><text fill="#000000" font-family="sans-serif" font-size="14" lengthAdjust="spacing" textLength="52.1377" x="2709.5" y="83.1436">iterator</text><rect fill="#FFFFFF" height="15.9688" style="stroke:#181818;stroke-width:1;stroke-dasharray:2.0,2.0;" width="200.791" x="2769.6377" y="59.2969"/><text fill="#000000" font-family="sans-serif" font-size="12" font-style="italic" lengthAdjust="spacing" textLength="198.791" x="2770.6377" y="71.4355">random_access_iterator_tag,bool</text><line style="stroke:#181818;stroke-width:0.5;" x1="2681.5" x2="2966.4287" y1="94.2969" y2="94.2969"/><line style="stroke:#181818;stroke-width:0.5;" x1="2681.5" x2="2966.4287" y1="102.2969" y2="102.2969"/></g><!--class C_0015581221495297226107--><g id="elem_C_0015581221495297226107"><rect codeLine="63" fill="#F1F1F1" height="48" id="C_0015581221495297226107" rx="2.5" ry="2.5" style="stroke:#181818;stroke-width:0.5;" width="157.4941" x="2745.5" y="190.2969"/><ellipse cx="2760.5" cy="206.2969" fill="#ADD1B2" rx="11" ry="11" style="stroke:#181818;stroke-width:1;"/><path d="M2763.4688,211.9375 Q2762.8906,212.2344 2762.25,212.375 Q2761.6094,212.5313 2760.9063,212.5313 Q2758.4063,212.5313 2757.0781,210.8906 Q2755.7656,209.2344 2755.7656,206.1094 Q2755.7656,202.9844 2757.0781,201.3281 Q2758.4063,199.6719 2760.9063,199.6719 Q2761.6094,199.6719 2762.25,199.8281 Q2762.9063,199.9844 2763.4688,200.2813 L2763.4688,203 Q2762.8438,202.4219 2762.25,202.1563 Q2761.6563,201.875 2761.0313,201.875 Q2759.6875,201.875 2759,202.9531 Q2758.3125,204.0156 2758.3125,206.1094 Q2758.3125,208.2031 2759,209.2813 Q2759.6875,210.3438 2761.0313,210.3438 Q2761.6563,210.3438 2762.25,210.0781 Q2762.8438,209.7969 2763.4688,209.2188 L2763.4688,211.9375 Z " fill="#000000"/><text fill="#000000" font-family="sans-serif" font-size="14" lengthAdjust="spacing" textLength="125.4941" x="2774.5" y="211.1436">_Bit_iterator_base</text><line style="stroke:#181818;stroke-width:0.5;" x1="2746.5" x2="2901.9941" y1="222.2969" y2="222.2969"/><line style="stroke:#181818;stroke-width:0.5;" x1="2746.5" x2="2901.9941" y1="230.2969" y2="230.2969"/></g><!--class C_0018068942244072229765--><g id="elem_C_0018068942244072229765"><rect codeLine="67" fill="#F1F1F1" height="48" id="C_0018068942244072229765" rx="2.5" ry="2.5" style="stroke:#181818;stroke-width:0.5;" width="117.1211" x="4682.5" y="326.7969"/><ellipse cx="4697.5" cy="342.7969" fill="#ADD1B2" rx="11" ry="11" style="stroke:#181818;stroke-width:1;"/><path d="M4700.4688,348.4375 Q4699.8906,348.7344 4699.25,348.875 Q4698.6094,349.0313 4697.9063,349.0313 Q4695.4063,349.0313 4694.0781,347.3906 Q4692.7656,345.7344 4692.7656,342.6094 Q4692.7656,339.4844 4694.0781,337.8281 Q4695.4063,336.1719 4697.9063,336.1719 Q4698.6094,336.1719 4699.25,336.3281 Q4699.9063,336.4844 4700.4688,336.7813 L4700.4688,339.5 Q4699.8438,338.9219 4699.25,338.6563 Q4698.6563,338.375 4698.0313,338.375 Q4696.6875,338.375 4696,339.4531 Q4695.3125,340.5156 4695.3125,342.6094 Q4695.3125,344.7031 4696,345.7813 Q4696.6875,346.8438 4698.0313,346.8438 Q4698.6563,346.8438 4699.25,346.5781 Q4699.8438,346.2969 4700.4688,345.7188 L4700.4688,348.4375 Z " fill="#000000"/><text fill="#000000" font-family="sans-serif" font-size="14" lengthAdjust="spacing" textLength="85.1211" x="4711.5" y="347.6436">_Bit_iterator</text><line style="stroke:#181818;stroke-width:0.5;" x1="4683.5" x2="4798.6211" y1="358.7969" y2="358.7969"/><line style="stroke:#181818;stroke-width:0.5;" x1="4683.5" x2="4798.6211" y1="366.7969" y2="366.7969"/></g><!--class C_0015730135622629662599--><g id="elem_C_0015730135622629662599"><rect codeLine="71" fill="#F1F1F1" height="48" id="C_0015730135622629662599" rx="2.5" ry="2.5" style="stroke:#181818;stroke-width:0.5;" width="162.04" x="2692" y="326.7969"/><ellipse cx="2707" cy="342.7969" fill="#ADD1B2" rx="11" ry="11" style="stroke:#181818;stroke-width:1;"/><path d="M2709.9688,348.4375 Q2709.3906,348.7344 2708.75,348.875 Q2708.1094,349.0313 2707.4063,349.0313 Q2704.9063,349.0313 2703.5781,347.3906 Q2702.2656,345.7344 2702.2656,342.6094 Q2702.2656,339.4844 2703.5781,337.8281 Q2704.9063,336.1719 2707.4063,336.1719 Q2708.1094,336.1719 2708.75,336.3281 Q2709.4063,336.4844 2709.9688,336.7813 L2709.9688,339.5 Q2709.3438,338.9219 2708.75,338.6563 Q2708.1563,338.375 2707.5313,338.375 Q2706.1875,338.375 2705.5,339.4531 Q2704.8125,340.5156 2704.8125,342.6094 Q2704.8125,344.7031 2705.5,345.7813 Q2706.1875,346.8438 2707.5313,346.8438 Q2708.1563,346.8438 2708.75,346.5781 Q2709.3438,346.2969 2709.9688,345.7188 L2709.9688,348.4375 Z " fill="#000000"/><text fill="#000000" font-family="sans-serif" font-size="14" lengthAdjust="spacing" textLength="130.04" x="2721" y="347.6436">_Bit_const_iterator</text><line style="stroke:#181818;stroke-width:0.5;" x1="2693" x2="2853.04" y1="358.7969" y2="358.7969"/><line style="stroke:#181818;stroke-width:0.5;" x1="2693" x2="2853.04" y1="366.7969" y2="366.7969"/></g><!--class C_0012020207555608092007--><g id="elem_C_0012020207555608092007"><rect codeLine="75" fill="#F1F1F1" height="48" id="C_0012020207555608092007" rx="2.5" ry="2.5" style="stroke:#181818;stroke-width:0.5;" width="172.2002" x="2889" y="326.7969"/><ellipse cx="2904" cy="342.7969" fill="#ADD1B2" rx="11" ry="11" style="stroke:#181818;stroke-width:1;"/><path d="M2906.9688,348.4375 Q2906.3906,348.7344 2905.75,348.875 Q2905.1094,349.0313 2904.4063,349.0313 Q2901.9063,349.0313 2900.5781,347.3906 Q2899.2656,345.7344 2899.2656,342.6094 Q2899.2656,339.4844 2900.5781,337.8281 Q2901.9063,336.1719 2904.4063,336.1719 Q2905.1094,336.1719 2905.75,336.3281 Q2906.4063,336.4844 2906.9688,336.7813 L2906.9688,339.5 Q2906.3438,338.9219 2905.75,338.6563 Q2905.1563,338.375 2904.5313,338.375 Q2903.1875,338.375 2902.5,339.4531 Q2901.8125,340.5156 2901.8125,342.6094 Q2901.8125,344.7031 2902.5,345.7813 Q2903.1875,346.8438 2904.5313,346.8438 Q2905.1563,346.8438 2905.75,346.5781 Q2906.3438,346.2969 2906.9688,345.7188 L2906.9688,348.4375 Z " fill="#000000"/><text fill="#000000" font-family="sans-serif" font-size="14" lengthAdjust="spacing" textLength="101.3838" x="2918" y="347.6436">_Bvector_base</text><rect fill="#FFFFFF" height="15.9688" style="stroke:#181818;stroke-width:1;stroke-dasharray:2.0,2.0;" width="36.8164" x="3027.3838" y="323.7969"/><text fill="#000000" font-family="sans-serif" font-size="12" font-style="italic" lengthAdjust="spacing" textLength="34.8164" x="3028.3838" y="335.9355">_Alloc</text><line style="stroke:#181818;stroke-width:0.5;" x1="2890" x2="3060.2002" y1="358.7969" y2="358.7969"/><line style="stroke:#181818;stroke-width:0.5;" x1="2890" x2="3060.2002" y1="366.7969" y2="366.7969"/></g><!--class C_0003860519816965633390--><g id="elem_C_0003860519816965633390"><rect codeLine="79" fill="#F1F1F1" height="48" id="C_0003860519816965633390" rx="2.5" ry="2.5" style="stroke:#181818;stroke-width:0.5;" width="279.666" x="4493" y="190.2969"/><ellipse cx="4508" cy="206.2969" fill="#ADD1B2" rx="11" ry="11" style="stroke:#181818;stroke-width:1;"/><path d="M4510.9688,211.9375 Q4510.3906,212.2344 4509.75,212.375 Q4509.1094,212.5313 4508.4063,212.5313 Q4505.9063,212.5313 4504.5781,210.8906 Q4503.2656,209.2344 4503.2656,206.1094 Q4503.2656,202.9844 4504.5781,201.3281 Q4505.9063,199.6719 4508.4063,199.6719 Q4509.1094,199.6719 4509.75,199.8281 Q4510.4063,199.9844 4510.9688,200.2813 L4510.9688,203 Q4510.3438,202.4219 4509.75,202.1563 Q4509.1563,201.875 4508.5313,201.875 Q4507.1875,201.875 4506.5,202.9531 Q4505.8125,204.0156 4505.8125,206.1094 Q4505.8125,208.2031 4506.5,209.2813 Q4507.1875,210.3438 4508.5313,210.3438 Q4509.1563,210.3438 4509.75,210.0781 Q4510.3438,209.7969 4510.9688,209.2188 L4510.9688,211.9375 Z " fill="#000000"/><text fill="#000000" font-family="sans-serif" font-size="14" lengthAdjust="spacing" textLength="247.666" x="4522" y="211.1436">_Bvector_base::_Bvector_impl_data</text><line style="stroke:#181818;stroke-width:0.5;" x1="4494" x2="4771.666" y1="222.2969" y2="222.2969"/><line style="stroke:#181818;stroke-width:0.5;" x1="4494" x2="4771.666" y1="230.2969" y2="230.2969"/></g><!--class C_0010744634881075136595--><g id="elem_C_0010744634881075136595"><rect codeLine="83" fill="#F1F1F1" height="48" id="C_0010744634881075136595" rx="2.5" ry="2.5" style="stroke:#181818;stroke-width:0.5;" width="241.1318" x="2885.5" y="512.2969"/><ellipse cx="2900.5" cy="528.2969" fill="#ADD1B2" rx="11" ry="11" style="stroke:#181818;stroke-width:1;"/><path d="M2903.4688,533.9375 Q2902.8906,534.2344 2902.25,534.375 Q2901.6094,534.5313 2900.9063,534.5313 Q2898.4063,534.5313 2897.0781,532.8906 Q2895.7656,531.2344 2895.7656,528.1094 Q2895.7656,524.9844 2897.0781,523.3281 Q2898.4063,521.6719 2900.9063,521.6719 Q2901.6094,521.6719 2902.25,521.8281 Q2902.9063,521.9844 2903.4688,522.2813 L2903.4688,525 Q2902.8438,524.4219 2902.25,524.1563 Q2901.6563,523.875 2901.0313,523.875 Q2899.6875,523.875 2899,524.9531 Q2898.3125,526.0156 2898.3125,528.1094 Q2898.3125,530.2031 2899,531.2813 Q2899.6875,532.3438 2901.0313,532.3438 Q2901.6563,532.3438 2902.25,532.0781 Q2902.8438,531.7969 2903.4688,531.2188 L2903.4688,533.9375 Z " fill="#000000"/><text fill="#000000" font-family="sans-serif" font-size="14" lengthAdjust="spacing" textLength="209.1318" x="2914.5" y="533.1436">_Bvector_base::_Bvector_impl</text><line style="stroke:#181818;stroke-width:0.5;" x1="2886.5" x2="3125.6318" y1="544.2969" y2="544.2969"/><line style="stroke:#181818;stroke-width:0.5;" x1="2886.5" x2="3125.6318" y1="552.2969" y2="552.2969"/></g><!--class C_0002261458041236941641--><g id="elem_C_0002261458041236941641"><rect codeLine="87" fill="#F1F1F1" height="48" id="C_0002261458041236941641" rx="2.5" ry="2.5" style="stroke:#181818;stroke-width:0.5;" width="144.6719" x="3762.5" y="512.2969"/><ellipse cx="3777.5" cy="528.2969" fill="#ADD1B2" rx="11" ry="11" style="stroke:#181818;stroke-width:1;"/><path d="M3780.4688,533.9375 Q3779.8906,534.2344 3779.25,534.375 Q3778.6094,534.5313 3777.9063,534.5313 Q3775.4063,534.5313 3774.0781,532.8906 Q3772.7656,531.2344 3772.7656,528.1094 Q3772.7656,524.9844 3774.0781,523.3281 Q3775.4063,521.6719 3777.9063,521.6719 Q3778.6094,521.6719 3779.25,521.8281 Q3779.9063,521.9844 3780.4688,522.2813 L3780.4688,525 Q3779.8438,524.4219 3779.25,524.1563 Q3778.6563,523.875 3778.0313,523.875 Q3776.6875,523.875 3776,524.9531 Q3775.3125,526.0156 3775.3125,528.1094 Q3775.3125,530.2031 3776,531.2813 Q3776.6875,532.3438 3778.0313,532.3438 Q3778.6563,532.3438 3779.25,532.0781 Q3779.8438,531.7969 3780.4688,531.2188 L3780.4688,533.9375 Z " fill="#000000"/><text fill="#000000" font-family="sans-serif" font-size="14" lengthAdjust="spacing" textLength="44.4063" x="3791.5" y="533.1436">vector</text><rect fill="#FFFFFF" height="15.9688" style="stroke:#181818;stroke-width:1;stroke-dasharray:2.0,2.0;" width="66.2656" x="3843.9063" y="509.2969"/><text fill="#000000" font-family="sans-serif" font-size="12" font-style="italic" lengthAdjust="spacing" textLength="64.2656" x="3844.9063" y="521.4355">bool,_Alloc</text><line style="stroke:#181818;stroke-width:0.5;" x1="3763.5" x2="3906.1719" y1="544.2969" y2="544.2969"/><line style="stroke:#181818;stroke-width:0.5;" x1="3763.5" x2="3906.1719" y1="552.2969" y2="552.2969"/></g><!--class C_0009937165181912686464--><g id="elem_C_0009937165181912686464"><rect codeLine="91" fill="#F1F1F1" height="48" id="C_0009937165181912686464" rx="2.5" ry="2.5" style="stroke:#181818;stroke-width:0.5;" width="311.3594" x="3416.5" y="512.2969"/><ellipse cx="3431.5" cy="528.2969" fill="#ADD1B2" rx="11" ry="11" style="stroke:#181818;stroke-width:1;"/><path d="M3434.4688,533.9375 Q3433.8906,534.2344 3433.25,534.375 Q3432.6094,534.5313 3431.9063,534.5313 Q3429.4063,534.5313 3428.0781,532.8906 Q3426.7656,531.2344 3426.7656,528.1094 Q3426.7656,524.9844 3428.0781,523.3281 Q3429.4063,521.6719 3431.9063,521.6719 Q3432.6094,521.6719 3433.25,521.8281 Q3433.9063,521.9844 3434.4688,522.2813 L3434.4688,525 Q3433.8438,524.4219 3433.25,524.1563 Q3432.6563,523.875 3432.0313,523.875 Q3430.6875,523.875 3430,524.9531 Q3429.3125,526.0156 3429.3125,528.1094 Q3429.3125,530.2031 3430,531.2813 Q3430.6875,532.3438 3432.0313,532.3438 Q3432.6563,532.3438 3433.25,532.0781 Q3433.8438,531.7969 3434.4688,531.2188 L3434.4688,533.9375 Z " fill="#000000"/><text fill="#000000" font-family="sans-serif" font-size="14" lengthAdjust="spacing" textLength="44.4063" x="3445.5" y="533.1436">vector</text><rect fill="#FFFFFF" height="15.9688" style="stroke:#181818;stroke-width:1;stroke-dasharray:2.0,2.0;" width="232.9531" x="3497.9063" y="509.2969"/><text fill="#000000" font-family="sans-serif" font-size="12" font-style="italic" lengthAdjust="spacing" textLength="230.9531" x="3498.9063" y="521.4355">_Tp,pmr::polymorphic_allocator&lt;_Tp&gt;</text><line style="stroke:#181818;stroke-width:0.5;" x1="3417.5" x2="3726.8594" y1="544.2969" y2="544.2969"/><line style="stroke:#181818;stroke-width:0.5;" x1="3417.5" x2="3726.8594" y1="552.2969" y2="552.2969"/></g><g id="elem_GMN51"><path d="M2160.5,66.2969 L2160.5,106.5625 A0,0 0 0 0 2160.5,106.5625 L2403.25,106.5625 L2425.85,190.1169 L2411.25,106.5625 L2645.958,106.5625 A0,0 0 0 0 2645.958,106.5625 L2645.958,76.2969 L2635.958,66.2969 L2160.5,66.2969 A0,0 0 0 0 2160.5,66.2969 " fill="#FEFFDD" style="stroke:#181818;stroke-width:0.5;"/><path d="M2635.958,66.2969 L2635.958,76.2969 L2645.958,76.2969 L2635.958,66.2969 " fill="#FEFFDD" style="stroke:#181818;stroke-width:0.5;"/><text fill="#000000" font-family="sans-serif" font-size="13" lengthAdjust="spacing" textLength="456.1934" x="2174.7646" y="83.3638">This class does nothing but define nested typedefs.  %Iterator classes</text><text fill="#000000" font-family="sans-serif" font-size="13" lengthAdjust="spacing" textLength="159.4404" x="2166.5" y="98.4966">can inherit from this cl...</text></g><g id="elem_GMN54"><path d="M6,50.7969 L6,121.3281 A0,0 0 0 0 6,121.3281 L320.14,121.3281 L470.33,190.1169 L328.14,121.3281 L493.832,121.3281 A0,0 0 0 0 493.832,121.3281 L493.832,60.7969 L483.832,50.7969 L6,50.7969 A0,0 0 0 0 6,50.7969 " fill="#FEFFDD" style="stroke:#181818;stroke-width:0.5;"/><path d="M483.832,50.7969 L483.832,60.7969 L493.832,60.7969 L483.832,50.7969 " fill="#FEFFDD" style="stroke:#181818;stroke-width:0.5;"/><text fill="#000000" font-family="sans-serif" font-size="13" lengthAdjust="spacing" textLength="157.6377" x="28.5293" y="67.8638">24.4.1 Reverse iterators</text><text fill="#000000" font-family="sans-serif" font-size="13" lengthAdjust="spacing" textLength="4.1323" x="12" y="82.9966">&#160;</text><text fill="#000000" font-family="sans-serif" font-size="13" lengthAdjust="spacing" textLength="458.5674" x="20.2646" y="98.1294">Bidirectional and random access iterators have corresponding reverse</text><text fill="#000000" font-family="sans-serif" font-size="13" lengthAdjust="spacing" textLength="12.397" x="12" y="113.2622">...</text></g><g id="elem_GMN57"><path d="M3826.5,43.2969 L3826.5,128.9609 A0,0 0 0 0 3826.5,128.9609 L3939.72,128.9609 L3813.66,190.1269 L3947.72,128.9609 L4241.3149,128.9609 A0,0 0 0 0 4241.3149,128.9609 L4241.3149,53.2969 L4231.3149,43.2969 L3826.5,43.2969 A0,0 0 0 0 3826.5,43.2969 " fill="#FEFFDD" style="stroke:#181818;stroke-width:0.5;"/><path d="M4231.3149,43.2969 L4231.3149,53.2969 L4241.3149,53.2969 L4231.3149,43.2969 " fill="#FEFFDD" style="stroke:#181818;stroke-width:0.5;"/><text fill="#000000" font-family="sans-serif" font-size="13" lengthAdjust="spacing" textLength="199.6592" x="3840.7646" y="60.3638">24.4.2.2.1 back_insert_iterator</text><text fill="#000000" font-family="sans-serif" font-size="13" lengthAdjust="spacing" textLength="4.1323" x="3832.5" y="75.4966">&#160;</text><text fill="#000000" font-family="sans-serif" font-size="13" lengthAdjust="spacing" textLength="4.1323" x="3832.5" y="90.6294">&#160;</text><text fill="#000000" font-family="sans-serif" font-size="13" lengthAdjust="spacing" textLength="4.1323" x="3832.5" y="105.7622">&#160;</text><text fill="#000000" font-family="sans-serif" font-size="13" lengthAdjust="spacing" textLength="393.8149" x="3832.5" y="120.895">These are output iterators, constructed from a container-o...</text></g><g id="elem_GMN60"><path d="M3003,66.2969 L3003,106.5625 A0,0 0 0 0 3003,106.5625 L3235.5,106.5625 L3329.17,190.1169 L3243.5,106.5625 L3435.0234,106.5625 A0,0 0 0 0 3435.0234,106.5625 L3435.0234,76.2969 L3425.0234,66.2969 L3003,66.2969 A0,0 0 0 0 3003,66.2969 " fill="#FEFFDD" style="stroke:#181818;stroke-width:0.5;"/><path d="M3425.0234,66.2969 L3425.0234,76.2969 L3435.0234,76.2969 L3425.0234,66.2969 " fill="#FEFFDD" style="stroke:#181818;stroke-width:0.5;"/><text fill="#000000" font-family="sans-serif" font-size="13" lengthAdjust="spacing" textLength="402.7588" x="3017.2646" y="83.3638">These are output iterators, constructed from a container-of-T.</text><text fill="#000000" font-family="sans-serif" font-size="13" lengthAdjust="spacing" textLength="212.1387" x="3009" y="98.4966">Assigning a T to the iterator pr...</text></g><g id="elem_GMN63"><path d="M4277,66.2969 L4277,106.5625 A0,0 0 0 0 4277,106.5625 L4436.45,106.5625 L4210.34,190.2269 L4444.45,106.5625 L4709.0234,106.5625 A0,0 0 0 0 4709.0234,106.5625 L4709.0234,76.2969 L4699.0234,66.2969 L4277,66.2969 A0,0 0 0 0 4277,66.2969 " fill="#FEFFDD" style="stroke:#181818;stroke-width:0.5;"/><path d="M4699.0234,66.2969 L4699.0234,76.2969 L4709.0234,76.2969 L4699.0234,66.2969 " fill="#FEFFDD" style="stroke:#181818;stroke-width:0.5;"/><text fill="#000000" font-family="sans-serif" font-size="13" lengthAdjust="spacing" textLength="402.7588" x="4291.2646" y="83.3638">These are output iterators, constructed from a container-of-T.</text><text fill="#000000" font-family="sans-serif" font-size="13" lengthAdjust="spacing" textLength="210.3931" x="4283" y="98.4966">Assigning a T to the iterator in...</text></g><g id="elem_GMN66"><path d="M3096.5,338.2969 L3096.5,363.4297 A0,0 0 0 0 3096.5,363.4297 L3283,363.4297 L3287,511.9969 L3291,363.4297 L3477.2915,363.4297 A0,0 0 0 0 3477.2915,363.4297 L3477.2915,348.2969 L3467.2915,338.2969 L3096.5,338.2969 A0,0 0 0 0 3096.5,338.2969 " fill="#FEFFDD" style="stroke:#181818;stroke-width:0.5;"/><path d="M3467.2915,338.2969 L3467.2915,348.2969 L3477.2915,348.2969 L3467.2915,338.2969 " fill="#FEFFDD" style="stroke:#181818;stroke-width:0.5;"/><text fill="#000000" font-family="sans-serif" font-size="13" lengthAdjust="spacing" textLength="359.7915" x="3102.5" y="355.3638">See bits/stl_deque.h's _Deque_base for an explanation.</text></g><g id="elem_GMN69"><path d="M3942.5,463.2969 L3942.5,609.4922 A0,0 0 0 0 3942.5,609.4922 L4005.67,609.4922 L3960.9,685.9969 L4013.67,609.4922 L4169.1641,609.4922 A0,0 0 0 0 4169.1641,609.4922 L4169.1641,473.2969 L4159.1641,463.2969 L3942.5,463.2969 A0,0 0 0 0 3942.5,463.2969 " fill="#FEFFDD" style="stroke:#181818;stroke-width:0.5;"/><path d="M4159.1641,463.2969 L4159.1641,473.2969 L4169.1641,473.2969 L4159.1641,463.2969 " fill="#FEFFDD" style="stroke:#181818;stroke-width:0.5;"/><text fill="#000000" font-family="sans-serif" font-size="13" lengthAdjust="spacing" textLength="185.0024" x="3965.0293" y="480.3638">Meets the requirements of a</text><text fill="#000000" font-family="sans-serif" font-size="13" lengthAdjust="spacing" textLength="61.5977" x="3948.5" y="495.4966">container</text><text fill="#000000" font-family="sans-serif" font-size="13" lengthAdjust="spacing" textLength="16.231" x="3948.5" y="510.6294">, a</text><text fill="#000000" font-family="sans-serif" font-size="13" lengthAdjust="spacing" textLength="8.2646" x="3948.5" y="525.7622">&#160;&#160;</text><text fill="#000000" font-family="sans-serif" font-size="13" lengthAdjust="spacing" textLength="130.3555" x="3948.5" y="540.895">reversible container</text><text fill="#000000" font-family="sans-serif" font-size="13" lengthAdjust="spacing" textLength="44.8208" x="3948.5" y="556.0278">, and a</text><text fill="#000000" font-family="sans-serif" font-size="13" lengthAdjust="spacing" textLength="8.2646" x="3948.5" y="571.1606">&#160;&#160;</text><text fill="#000000" font-family="sans-serif" font-size="13" lengthAdjust="spacing" textLength="62.645" x="3948.5" y="586.2935">sequence</text><text fill="#000000" font-family="sans-serif" font-size="13" lengthAdjust="spacing" textLength="71.6143" x="3948.5" y="601.4263">, includin...</text></g><g id="elem_GMN72"><path d="M4210.5,330.7969 L4210.5,371.0625 A0,0 0 0 0 4210.5,371.0625 L4431.2,371.0625 L4480.6,512.2669 L4439.2,371.0625 L4647.481,371.0625 A0,0 0 0 0 4647.481,371.0625 L4647.481,340.7969 L4637.481,330.7969 L4210.5,330.7969 A0,0 0 0 0 4210.5,330.7969 " fill="#FEFFDD" style="stroke:#181818;stroke-width:0.5;"/><path d="M4637.481,330.7969 L4637.481,340.7969 L4647.481,340.7969 L4637.481,330.7969 " fill="#FEFFDD" style="stroke:#181818;stroke-width:0.5;"/><text fill="#000000" font-family="sans-serif" font-size="13" lengthAdjust="spacing" textLength="403.584" x="4228.897" y="347.8638">A value_type object constructed with _Alloc_traits::construct()</text><text fill="#000000" font-family="sans-serif" font-size="13" lengthAdjust="spacing" textLength="220.3018" x="4216.5" y="362.9966">and destroyed with _Alloc_traits...</text></g><g id="elem_GMN75"><path d="M3810.5,315.2969 L3810.5,385.8281 A0,0 0 0 0 3810.5,385.8281 L3959.28,385.8281 L3854.84,512.2569 L3967.28,385.8281 L4175.9302,385.8281 A0,0 0 0 0 4175.9302,385.8281 L4175.9302,325.2969 L4165.9302,315.2969 L3810.5,315.2969 A0,0 0 0 0 3810.5,315.2969 " fill="#FEFFDD" style="stroke:#181818;stroke-width:0.5;"/><path d="M4165.9302,315.2969 L4165.9302,325.2969 L4175.9302,325.2969 L4165.9302,315.2969 " fill="#FEFFDD" style="stroke:#181818;stroke-width:0.5;"/><text fill="#000000" font-family="sans-serif" font-size="13" lengthAdjust="spacing" textLength="106.6724" x="3833.0293" y="332.3638">Note that vector</text><text fill="#000000" font-family="sans-serif" font-size="13" lengthAdjust="spacing" textLength="38.6636" x="3816.5" y="347.4966">&lt;bool</text><text fill="#000000" font-family="sans-serif" font-size="13" lengthAdjust="spacing" textLength="344.4302" x="3816.5" y="362.6294">&gt; does not actually meet the requirements for being</text><text fill="#000000" font-family="sans-serif" font-size="13" lengthAdjust="spacing" textLength="132.7993" x="3824.7646" y="377.7622">a container.  This i...</text></g><!--link C_0012471832686357493722 to C_0016384363037466094568--><g id="link_C_0012471832686357493722_C_0016384363037466094568"><path codeLine="94" d="M1528.53,110.2969 C1727.59,133.0169 2012.4661,165.5259 2211.5461,188.2459 " fill="transparent" id="C_0012471832686357493722-to-C_0016384363037466094568" style="stroke:#181818;stroke-width:1;stroke-dasharray:7.0,7.0;"/><polygon fill="transparent" points="2229.43,190.2869,2212.2264,182.2846,2210.8658,194.2072,2229.43,190.2869" style="stroke:#181818;stroke-width:1;"/></g><!--reverse link C_0012471832686357493722 to C_0003742820890603540341--><g id="link_C_0012471832686357493722_C_0003742820890603540341"><path codeLine="95" d="M1161.6655,113.1138 C999.1855,138.4838 760.17,175.7969 619.78,197.7169 " fill="transparent" id="C_0012471832686357493722-backto-C_0003742820890603540341" style="stroke:#181818;stroke-width:1;"/><polygon fill="transparent" points="1179.45,110.3369,1160.7399,107.1856,1162.5911,119.042,1179.45,110.3369" style="stroke:#181818;stroke-width:1;"/></g><!--link C_0014653995113384390955 to C_0016384363037466094568--><g id="link_C_0014653995113384390955_C_0016384363037466094568"><path codeLine="96" d="M3545.05,110.3169 C3516,117.3669 3483.26,124.5069 3453,129.2969 C3415.43,135.2369 2990.3142,169.2807 2700.0242,192.1907 " fill="transparent" id="C_0014653995113384390955-to-C_0016384363037466094568" style="stroke:#181818;stroke-width:1;stroke-dasharray:7.0,7.0;"/><polygon fill="transparent" points="2682.08,193.6069,2700.4963,198.1721,2699.5521,186.2093,2682.08,193.6069" style="stroke:#181818;stroke-width:1;"/></g><!--reverse link C_0014653995113384390955 to C_0018446524956631938981--><g id="link_C_0014653995113384390955_C_0018446524956631938981"><path codeLine="97" d="M3668.4584,122.7849 C3692.3084,145.3749 3715.36,167.2169 3739.31,189.9069 " fill="transparent" id="C_0014653995113384390955-backto-C_0018446524956631938981" style="stroke:#181818;stroke-width:1;"/><polygon fill="transparent" points="3655.39,110.4069,3664.3324,127.1411,3672.5845,118.4288,3655.39,110.4069" style="stroke:#181818;stroke-width:1;"/></g><!--reverse link C_0014653995113384390955 to C_0009870417718487041983--><g id="link_C_0014653995113384390955_C_0009870417718487041983"><path codeLine="98" d="M3563.8052,117.8593 C3513.9852,140.5193 3454.83,167.4369 3404.95,190.1169 " fill="transparent" id="C_0014653995113384390955-backto-C_0009870417718487041983" style="stroke:#181818;stroke-width:1;"/><polygon fill="transparent" points="3580.19,110.4069,3561.3211,112.3977,3566.2893,123.3209,3580.19,110.4069" style="stroke:#181818;stroke-width:1;"/></g><!--reverse link C_0014653995113384390955 to C_0003857731205391224987--><g id="link_C_0014653995113384390955_C_0003857731205391224987"><path codeLine="99" d="M3742.8262,114.6068 C3835.7462,137.2968 3959.41,167.4869 4052.41,190.1969 " fill="transparent" id="C_0014653995113384390955-backto-C_0003857731205391224987" style="stroke:#181818;stroke-width:1;"/><polygon fill="transparent" points="3725.34,110.3369,3741.4029,120.4355,3744.2495,108.7781,3725.34,110.3369" style="stroke:#181818;stroke-width:1;"/></g><!--reverse link C_0000997856561152181668 to C_0018207793148199959866--><g id="link_C_0000997856561152181668_C_0018207793148199959866"><path codeLine="100" d="M3287,572.4969 C3287,605.4169 3287,653.3269 3287,686.1969 " fill="transparent" id="C_0000997856561152181668-backto-C_0018207793148199959866" style="stroke:#181818;stroke-width:1;"/><polygon fill="transparent" points="3287,560.4969,3283,566.4969,3287,572.4969,3291,566.4969,3287,560.4969" style="stroke:#181818;stroke-width:1;"/><ellipse cx="3293" cy="648.3633" fill="transparent" rx="3" ry="3" style="stroke:#038048;stroke-width:1;"/><text fill="#000000" font-family="sans-serif" font-size="13" lengthAdjust="spacing" textLength="52.3555" x="3300" y="652.3638">_M_impl</text></g><!--link C_0018207793148199959866 to C_0000997856561152181668--><g id="link_C_0018207793148199959866_C_0000997856561152181668"><path codeLine="102" d="M3283.27,686.1469 C3281.96,676.8869 3280.65,666.1169 3280,656.2969 C3277.81,623.0469 3279.3155,600.4514 3282.0855,576.4514 " fill="transparent" id="C_0018207793148199959866-to-C_0000997856561152181668" style="stroke:#181818;stroke-width:1;"/><ellipse cx="3283.0028" cy="568.5041" fill="#FFFFFF" rx="8" ry="8" style="stroke:#181818;stroke-width:1;"/><line style="stroke:#181818;stroke-width:1;" x1="3282.0855" x2="3283.92" y1="576.4514" y2="560.5569"/><line style="stroke:#181818;stroke-width:1;" x1="3275.0555" x2="3290.95" y1="567.5869" y2="569.4214"/></g><!--link C_0018039370053612920865 to C_0000997856561152181668--><g id="link_C_0018039370053612920865_C_0000997856561152181668"><path codeLine="101" d="M3587.42,374.7969 C3537.03,395.9269 3461.77,429.0669 3399,463.2969 C3371.6,478.2369 3355.2039,488.4839 3333.3039,503.2939 " fill="transparent" id="C_0018039370053612920865-to-C_0000997856561152181668" style="stroke:#181818;stroke-width:1;"/><ellipse cx="3326.6769" cy="507.7754" fill="#FFFFFF" rx="8" ry="8" style="stroke:#181818;stroke-width:1;"/><line style="stroke:#181818;stroke-width:1;" x1="3333.3039" x2="3320.05" y1="503.2939" y2="512.2569"/><line style="stroke:#181818;stroke-width:1;" x1="3331.1584" x2="3322.1954" y1="514.4023" y2="501.1484"/></g><!--reverse link C_0000997856561152181668 to C_0005805017087195686008--><g id="link_C_0000997856561152181668_C_0005805017087195686008"><path codeLine="103" d="M3330.5883,571.3356 C3352.2283,587.4456 3368.68,597.3269 3399,609.2969 C3538.85,664.5169 3711,689.5669 3824.39,700.7069 " fill="transparent" id="C_0000997856561152181668-backto-C_0005805017087195686008" style="stroke:#181818;stroke-width:1;"/><polygon fill="transparent" points="3316.15,560.5869,3327.0054,576.1483,3334.1712,566.5228,3316.15,560.5869" style="stroke:#181818;stroke-width:1;"/></g><!--link C_0011374935455579958805 to C_0005805017087195686008--><g id="link_C_0011374935455579958805_C_0005805017087195686008"><path codeLine="104" d="M4454.07,560.4269 C4429.66,576.1569 4395.46,596.3669 4363,609.2969 C4267.03,647.5169 4168.3236,670.7159 4083.6236,686.6659 " fill="transparent" id="C_0011374935455579958805-to-C_0005805017087195686008" style="stroke:#181818;stroke-width:1;"/><ellipse cx="4075.7618" cy="688.1464" fill="#FFFFFF" rx="8" ry="8" style="stroke:#181818;stroke-width:1;"/><line style="stroke:#181818;stroke-width:1;" x1="4083.6236" x2="4067.9" y1="686.6659" y2="689.6269"/><line style="stroke:#181818;stroke-width:1;" x1="4077.2423" x2="4074.2813" y1="696.0082" y2="680.2846"/></g><!--reverse link C_0011374935455579958805 to C_0003028152696443724275--><g id="link_C_0011374935455579958805_C_0003028152696443724275"><path codeLine="105" d="M4488,572.4969 C4488,605.4169 4488,653.3269 4488,686.1969 " fill="transparent" id="C_0011374935455579958805-backto-C_0003028152696443724275" style="stroke:#181818;stroke-width:1;"/><polygon fill="transparent" points="4488,560.4969,4484,566.4969,4488,572.4969,4492,566.4969,4488,560.4969" style="stroke:#181818;stroke-width:1;"/><rect fill="transparent" height="6" style="stroke:#C82930;stroke-width:1;" width="6" x="4491" y="645.3633"/><text fill="#000000" font-family="sans-serif" font-size="13" lengthAdjust="spacing" textLength="73.6011" x="4501" y="652.3638">_M_storage</text></g><!--link C_0003028152696443724275 to C_0011374935455579958805--><g id="link_C_0003028152696443724275_C_0011374935455579958805"><path codeLine="106" d="M4484.27,686.1469 C4482.96,676.8869 4481.65,666.1169 4481,656.2969 C4478.81,623.0469 4480.3155,600.4514 4483.0855,576.4514 " fill="transparent" id="C_0003028152696443724275-to-C_0011374935455579958805" style="stroke:#181818;stroke-width:1;"/><ellipse cx="4484.0028" cy="568.5041" fill="#FFFFFF" rx="8" ry="8" style="stroke:#181818;stroke-width:1;"/><line style="stroke:#181818;stroke-width:1;" x1="4483.0855" x2="4484.92" y1="576.4514" y2="560.5569"/><line style="stroke:#181818;stroke-width:1;" x1="4476.0555" x2="4491.95" y1="567.5869" y2="569.4214"/></g><!--link C_0009918787256737058051 to C_0005805017087195686008--><g id="link_C_0009918787256737058051_C_0005805017087195686008"><path codeLine="107" d="M4250.67,560.4969 C4233.77,575.7569 4210.2,595.4069 4187,609.2969 C4132.69,641.8169 4082.8055,662.5945 4033.3055,680.2345 " fill="transparent" id="C_0009918787256737058051-to-C_0005805017087195686008" style="stroke:#181818;stroke-width:1;stroke-dasharray:7.0,7.0;"/><polygon fill="transparent" points="4016.35,686.2769,4035.3196,685.8864,4031.2914,674.5827,4016.35,686.2769" style="stroke:#181818;stroke-width:1;"/></g><!--link C_0015444170014271291982 to C_0016384363037466094568--><g id="link_C_0015444170014271291982_C_0016384363037466094568"><path codeLine="108" d="M2751.92,110.4069 C2681.12,133.1069 2590.8501,162.0399 2520.1001,184.7299 " fill="transparent" id="C_0015444170014271291982-to-C_0016384363037466094568" style="stroke:#181818;stroke-width:1;stroke-dasharray:7.0,7.0;"/><polygon fill="transparent" points="2502.96,190.2269,2521.9324,190.4433,2518.2678,179.0166,2502.96,190.2269" style="stroke:#181818;stroke-width:1;"/></g><!--reverse link C_0015444170014271291982 to C_0015581221495297226107--><g id="link_C_0015444170014271291982_C_0015581221495297226107"><path codeLine="109" d="M2824,128.4069 C2824,150.9969 2824,167.2169 2824,189.9069 " fill="transparent" id="C_0015444170014271291982-backto-C_0015581221495297226107" style="stroke:#181818;stroke-width:1;"/><polygon fill="transparent" points="2824,110.4069,2818,128.4069,2830,128.4069,2824,110.4069" style="stroke:#181818;stroke-width:1;"/></g><!--reverse link C_0015581221495297226107 to C_0018068942244072229765--><g id="link_C_0015581221495297226107_C_0018068942244072229765"><path codeLine="110" d="M2920.628,221.1005 C2999.958,225.8405 3107.99,232.2069 3217,238.2969 C3538.73,256.2669 4351.98,238.8169 4665,315.2969 C4675.84,317.9469 4687.03,322.1169 4697.39,326.6669 " fill="transparent" id="C_0015581221495297226107-backto-C_0018068942244072229765" style="stroke:#181818;stroke-width:1;"/><polygon fill="transparent" points="2902.66,220.0269,2920.2701,227.0898,2920.9858,215.1111,2902.66,220.0269" style="stroke:#181818;stroke-width:1;"/></g><!--reverse link C_0015581221495297226107 to C_0015730135622629662599--><g id="link_C_0015581221495297226107_C_0015730135622629662599"><path codeLine="111" d="M2808.8499,255.2482 C2799.5099,279.8882 2791.19,301.8369 2781.82,326.5269 " fill="transparent" id="C_0015581221495297226107-backto-C_0015730135622629662599" style="stroke:#181818;stroke-width:1;"/><polygon fill="transparent" points="2815.23,238.4169,2803.2395,253.1215,2814.4604,257.3749,2815.23,238.4169" style="stroke:#181818;stroke-width:1;"/></g><!--reverse link C_0012020207555608092007 to C_0010744634881075136595--><g id="link_C_0012020207555608092007_C_0010744634881075136595"><path codeLine="112" d="M2950.795,385.052 C2940.595,401.142 2937.27,413.1169 2943,433.2969 C2951.41,462.9269 2971.16,492.3869 2986.32,511.9769 " fill="transparent" id="C_0012020207555608092007-backto-C_0010744634881075136595" style="stroke:#181818;stroke-width:1;"/><polygon fill="transparent" points="2957.22,374.9169,2950.6292,377.8428,2950.795,385.052,2957.3859,382.1261,2957.22,374.9169" style="stroke:#181818;stroke-width:1;"/><polygon fill="transparent" points="2949,420.3633,2953,424.3633,2949,428.3633,2945,424.3633" style="stroke:#B38D22;stroke-width:1;"/><text fill="#000000" font-family="sans-serif" font-size="13" lengthAdjust="spacing" textLength="52.3555" x="2956" y="429.3638">_M_impl</text></g><!--link C_0010744634881075136595 to C_0012020207555608092007--><g id="link_C_0010744634881075136595_C_0012020207555608092007"><path codeLine="116" d="M3011.71,512.0269 C3016.67,487.7069 3021.82,448.6469 3013,416.2969 C3008.97,401.4969 3009.5074,399.9147 3001.6274,388.1947 " fill="transparent" id="C_0010744634881075136595-to-C_0012020207555608092007" style="stroke:#181818;stroke-width:1;"/><ellipse cx="2997.1637" cy="381.5558" fill="#FFFFFF" rx="8" ry="8" style="stroke:#181818;stroke-width:1;"/><line style="stroke:#181818;stroke-width:1;" x1="3001.6274" x2="2992.7" y1="388.1947" y2="374.9169"/><line style="stroke:#181818;stroke-width:1;" x1="2990.5248" x2="3003.8026" y1="386.0195" y2="377.0921"/></g><!--link C_0003860519816965633390 to C_0012020207555608092007--><g id="link_C_0003860519816965633390_C_0012020207555608092007"><path codeLine="113" d="M4492.78,224.0869 C4113.79,247.8669 3096.27,311.9369 3079,315.2969 C3064.81,318.0569 3065.1168,317.3441 3051.1368,321.8241 " fill="transparent" id="C_0003860519816965633390-to-C_0012020207555608092007" style="stroke:#181818;stroke-width:1;"/><ellipse cx="3043.5184" cy="324.2655" fill="#FFFFFF" rx="8" ry="8" style="stroke:#181818;stroke-width:1;"/><line style="stroke:#181818;stroke-width:1;" x1="3051.1368" x2="3035.9" y1="321.8241" y2="326.7069"/><line style="stroke:#181818;stroke-width:1;" x1="3045.9597" x2="3041.077" y1="331.8839" y2="316.6471"/></g><!--reverse link C_0003860519816965633390 to C_0018068942244072229765--><g id="link_C_0003860519816965633390_C_0018068942244072229765"><path codeLine="114" d="M4623.5979,250.294 C4620.6579,264.684 4621.93,271.2769 4630,285.2969 C4637.09,297.6069 4664.65,313.6569 4690.53,326.6669 " fill="transparent" id="C_0003860519816965633390-backto-C_0018068942244072229765" style="stroke:#181818;stroke-width:1;"/><polygon fill="transparent" points="4626,238.5369,4620.8799,243.6147,4623.5979,250.294,4628.718,245.2161,4626,238.5369" style="stroke:#181818;stroke-width:1;"/><ellipse cx="4636" cy="277.3633" fill="transparent" rx="3" ry="3" style="stroke:#038048;stroke-width:1;"/><text fill="#000000" font-family="sans-serif" font-size="13" lengthAdjust="spacing" textLength="54.4946" x="4643" y="281.3638">_M_start</text></g><!--reverse link C_0003860519816965633390 to C_0018068942244072229765--><g id="link_C_0003860519816965633390_C_0018068942244072229765"><path codeLine="115" d="M4679.1215,245.4577 C4690.5315,253.8877 4692.87,257.0269 4702,268.2969 C4716.22,285.8469 4726.78,309.4369 4733.3,326.7269 " fill="transparent" id="C_0003860519816965633390-backto-C_0018068942244072229765-1" style="stroke:#181818;stroke-width:1;"/><polygon fill="transparent" points="4669.47,238.3269,4671.9188,245.1094,4679.1215,245.4577,4676.6727,238.6751,4669.47,238.3269" style="stroke:#181818;stroke-width:1;"/><ellipse cx="4719" cy="277.3633" fill="transparent" rx="3" ry="3" style="stroke:#038048;stroke-width:1;"/><text fill="#000000" font-family="sans-serif" font-size="13" lengthAdjust="spacing" textLength="59.2681" x="4726" y="281.3638">_M_finish</text></g><!--link C_0002261458041236941641 to C_0005805017087195686008--><g id="link_C_0002261458041236941641_C_0005805017087195686008"><path codeLine="117" d="M3849.97,560.4969 C3871.21,593.4169 3900.1206,638.2023 3921.3306,671.0723 " fill="transparent" id="C_0002261458041236941641-to-C_0005805017087195686008" style="stroke:#181818;stroke-width:1;stroke-dasharray:7.0,7.0;"/><polygon fill="transparent" points="3931.09,686.1969,3926.3721,667.8191,3916.289,674.3254,3931.09,686.1969" style="stroke:#181818;stroke-width:1;"/></g><!--reverse link C_0012020207555608092007 to C_0002261458041236941641--><g id="link_C_0012020207555608092007_C_0002261458041236941641"><path codeLine="118" d="M3054.8125,380.3765 C3068.3025,384.6965 3065.44,383.2969 3079,386.2969 C3369.94,450.6569 3469.96,348.6569 3745,463.2969 C3771.41,474.3069 3796.4,495.4769 3813.31,512.0269 " fill="transparent" id="C_0012020207555608092007-backto-C_0002261458041236941641" style="stroke:#181818;stroke-width:1;"/><polygon fill="transparent" points="3037.67,374.8869,3052.9826,386.0907,3056.6423,374.6624,3037.67,374.8869" style="stroke:#181818;stroke-width:1;"/></g><!--link C_0009937165181912686464 to C_0005805017087195686008--><g id="link_C_0009937165181912686464_C_0005805017087195686008"><path codeLine="119" d="M3622.05,560.3169 C3693.61,593.2269 3808.0365,645.846 3879.5965,678.756 " fill="transparent" id="C_0009937165181912686464-to-C_0005805017087195686008" style="stroke:#181818;stroke-width:1;stroke-dasharray:7.0,7.0;"/><polygon fill="transparent" points="3895.95,686.2769,3882.1035,673.3048,3877.0896,684.2072,3895.95,686.2769" style="stroke:#181818;stroke-width:1;"/></g><!--SRC=[lLXjRzis4FwkNq5qsDgkjaPA94KQQO2-0CE0TXZQh5y5MgPZRhRaINJMODr_tr6oPScY4dK3rg21moFlzRddI5jZjnfLThLOtEdC5YNAYjpgpnPbMrLLQ6NKRQbsGVFN4sDrgM3NLVf6MNrRbFUpz6O_Iz-Qogeyqo_tjboPzJgri_INme2cyYLiGD_FqWzwhKljzhY5xwwV85MXDod6XCU2nZp6SK8vnv8oBexsniJeho1DWxy7NjdxlSxLJgFJIcfBPMnrbVvqNBXUB5fPTWfXqh4xjJter6sTjj-beGduAmxjcvnDsroUCjh9PKGJ8kA82nwpXCeuYQ9kBZtYYroM-awNbKxFbMujjbPSAI8HOI4nnp6ZEAQaOyKd7gjOSR3xWqtFOQhRsLrXLXU_EX5Ipc8f6I6nmuN4ah5kX1xnXUsbodvFJLxfqdQYV0EmLoRNdJ29eA0jef9n7XCP2ocwOVh45wRM9MYTP0jBaM1A4YWFhJz94NTJwX5VfdIAbLYm98b9X25990BVHT8ht51yOINzLBD4kbILlgfR_zLsMsGT4rZAH33EE24i8eBmNZVxn0-OM2nEVvdTVfkkb5MTyk0O48p1MKuY2NZZFIHun9CjTOn4E4baJAWW4d0b1USz8qFnXP66LZkvUgdSRtLSlEwaZWdCC4cmI0Y0Id2CUwdpYBss89GRlTiNfIhlqvgspk6GsBKzeuon1FmLeB8RZaSyqGIiV0I1kjKTjE58G9Mvv9G2rT0eOJsq3SMFvQxRC9A8H2GHumbKsUMcnq4UyHW7bIfV5RjKPPckgZuLBOjYso44HYaqeMEPA05CGHVssDKZlaJSQzCXEuUxZd8ceES8y4aaWPSvmKbF-L3yaF9kct0XANGpnN0E3b-soK3iqmlNWigddIKn9Z7Zu54aEO-Ob3slX-A1zhikfLoK6RZ8_IG0I8u5XZRkPyKZVaW_eFJqvv1GWFuum0He7239U1p3-EYpuq3y5RRE8U441aTCXO1FZCISoLv1F69_MpXm3ll2GOC2tYc9OYufuVtPx16FDzr-LxexoVP-LvJxZSdIKUgIGBM4Co1q61p0JPJJVZSEn2Uhe_UICFnoFNv173rszMK-7x-bZDuH9bZp7MkjUIyBZn_pplq9nto3V7I-5gsFdccrG2_IzpL2Wz6nEP-_61_keveVFULrzXoZRnoEJgdMs5UTAjfyUcRH0iqXCrKprOBHRIVBtjawEejQl8qxx1id4s3gEtQ6gM_AZCwN3hezGsJ2CTzq6ENj5gO-1boWRxemzP9nMmdVq1WzLJmGux4xu75Rsl-aOMroKss2qV0UTzr7t1D0v4lqkSLymsAKi1-sXX3A2wkHBVQeM8zZ5FQXcusfJbym5Bfo1pSclqNBWqKh3RdIADULrIla7iAmKeK8VNjwY3OdTGMgCfKZaszqQIo2nzOEsKPp68Q1pbUrHxL5ZtVU-U0sHZIa8K4VcfTm-mIl0f2-DYjJme0qHQws22wEgBazekRsUDwCDkfEewmeIrtjYtpbmZk-hOCftdddIUjT13y4-Lwopadt_sQZmNTLQjGyiS-UpL1zboiFcKjmdJLLV-jJFnRdnT2xGUPyGwkfwxyrkfxVXA3YLLMPszpbIg4RC0drF1S0xSi9llacu__Wcyad-EORX6xZHwtHqjZgXyh2dLJ_ST3Xvcc5qhVkOtsPH6km0M3Nd_TRbIk7lo66F1P7EXMzrzfMTGGbs018xtGE2t1CeQ2DFPWXvV3K0DSijnhrP62_bbVEpppJi6RoR7jOJSc6TrwwZQ_G-RisL2n_WtRhLUXFOpUekVSUlnPRB5hvi-T1xTSA-ACixhtRVVrt-M-GIHzLkeq_rnitogBcuXpKz_BWkcKse0PxW8lpFTf1qeSvTvLTQi0LgElWBZpIf1bu6mJ1qnzrxe1t2WyOCR-T7tRR6QehLUG8Xpp4mTDtxpwzRzT-NHvoUsXsjuj4XWJ8v1avr5Bo_1y0]--></g></svg>