<svg xmlns="http://www.w3.org/2000/svg" xmlns:xlink="http://www.w3.org/1999/xlink" contentStyleType="text/css" data-diagram-type="CLASS" height="1975px" preserveAspectRatio="none" style="width:3024px;height:1975px;background:#FFFFFF;" version="1.1" viewBox="0 0 3024 1975" width="3024px" zoomAndPan="magnify"><title>std::map context class diagram</title><defs/><g><text fill="#000000" font-family="sans-serif" font-size="14" font-weight="bold" lengthAdjust="spacing" textLength="249.1563" x="1380.7471" y="22.9951">std::map context class diagram</text><!--class C_0009583224762676263256--><g id="elem_C_0009583224762676263256"><rect codeLine="4" fill="#F1F1F1" height="48" id="C_0009583224762676263256" rx="2.5" ry="2.5" style="stroke:#181818;stroke-width:0.5;" width="264.4941" x="1207" y="391.7969"/><ellipse cx="1222" cy="407.7969" fill="#ADD1B2" rx="11" ry="11" style="stroke:#181818;stroke-width:1;"/><path d="M1224.9688,413.4375 Q1224.3906,413.7344 1223.75,413.875 Q1223.1094,414.0313 1222.4063,414.0313 Q1219.9063,414.0313 1218.5781,412.3906 Q1217.2656,410.7344 1217.2656,407.6094 Q1217.2656,404.4844 1218.5781,402.8281 Q1219.9063,401.1719 1222.4063,401.1719 Q1223.1094,401.1719 1223.75,401.3281 Q1224.4063,401.4844 1224.9688,401.7813 L1224.9688,404.5 Q1224.3438,403.9219 1223.75,403.6563 Q1223.1563,403.375 1222.5313,403.375 Q1221.1875,403.375 1220.5,404.4531 Q1219.8125,405.5156 1219.8125,407.6094 Q1219.8125,409.7031 1220.5,410.7813 Q1221.1875,411.8438 1222.5313,411.8438 Q1223.1563,411.8438 1223.75,411.5781 Q1224.3438,411.2969 1224.9688,410.7188 L1224.9688,413.4375 Z " fill="#000000"/><text fill="#000000" font-family="sans-serif" font-size="14" lengthAdjust="spacing" textLength="108.459" x="1236" y="412.6436">binary_function</text><rect fill="#FFFFFF" height="15.9688" style="stroke:#181818;stroke-width:1;stroke-dasharray:2.0,2.0;" width="122.0352" x="1352.459" y="388.7969"/><text fill="#000000" font-family="sans-serif" font-size="12" font-style="italic" lengthAdjust="spacing" textLength="120.0352" x="1353.459" y="400.9355">_Arg1,_Arg2,_Result</text><line style="stroke:#181818;stroke-width:0.5;" x1="1208" x2="1470.4941" y1="423.7969" y2="423.7969"/><line style="stroke:#181818;stroke-width:0.5;" x1="1208" x2="1470.4941" y1="431.7969" y2="431.7969"/></g><!--class C_0001906998976845593827--><g id="elem_C_0001906998976845593827"><rect codeLine="8" fill="#F1F1F1" height="48" id="C_0001906998976845593827" rx="2.5" ry="2.5" style="stroke:#181818;stroke-width:0.5;" width="219.6172" x="778" y="751.7969"/><ellipse cx="793" cy="767.7969" fill="#ADD1B2" rx="11" ry="11" style="stroke:#181818;stroke-width:1;"/><path d="M795.9688,773.4375 Q795.3906,773.7344 794.75,773.875 Q794.1094,774.0313 793.4063,774.0313 Q790.9063,774.0313 789.5781,772.3906 Q788.2656,770.7344 788.2656,767.6094 Q788.2656,764.4844 789.5781,762.8281 Q790.9063,761.1719 793.4063,761.1719 Q794.1094,761.1719 794.75,761.3281 Q795.4063,761.4844 795.9688,761.7813 L795.9688,764.5 Q795.3438,763.9219 794.75,763.6563 Q794.1563,763.375 793.5313,763.375 Q792.1875,763.375 791.5,764.4531 Q790.8125,765.5156 790.8125,767.6094 Q790.8125,769.7031 791.5,770.7813 Q792.1875,771.8438 793.5313,771.8438 Q794.1563,771.8438 794.75,771.5781 Q795.3438,771.2969 795.9688,770.7188 L795.9688,773.4375 Z " fill="#000000"/><text fill="#000000" font-family="sans-serif" font-size="14" lengthAdjust="spacing" textLength="108.459" x="807" y="772.6436">binary_function</text><rect fill="#FFFFFF" height="15.9688" style="stroke:#181818;stroke-width:1;stroke-dasharray:2.0,2.0;" width="77.1582" x="923.459" y="748.7969"/><text fill="#000000" font-family="sans-serif" font-size="12" font-style="italic" lengthAdjust="spacing" textLength="75.1582" x="924.459" y="760.9355">_Tp,_Tp,bool</text><line style="stroke:#181818;stroke-width:0.5;" x1="779" x2="996.6172" y1="783.7969" y2="783.7969"/><line style="stroke:#181818;stroke-width:0.5;" x1="779" x2="996.6172" y1="791.7969" y2="791.7969"/></g><!--class C_0005819947583752498517--><g id="elem_C_0005819947583752498517"><rect codeLine="12" fill="#F1F1F1" height="48" id="C_0005819947583752498517" rx="2.5" ry="2.5" style="stroke:#181818;stroke-width:0.5;" width="152.293" x="1263" y="535.7969"/><ellipse cx="1278" cy="551.7969" fill="#ADD1B2" rx="11" ry="11" style="stroke:#181818;stroke-width:1;"/><path d="M1280.9688,557.4375 Q1280.3906,557.7344 1279.75,557.875 Q1279.1094,558.0313 1278.4063,558.0313 Q1275.9063,558.0313 1274.5781,556.3906 Q1273.2656,554.7344 1273.2656,551.6094 Q1273.2656,548.4844 1274.5781,546.8281 Q1275.9063,545.1719 1278.4063,545.1719 Q1279.1094,545.1719 1279.75,545.3281 Q1280.4063,545.4844 1280.9688,545.7813 L1280.9688,548.5 Q1280.3438,547.9219 1279.75,547.6563 Q1279.1563,547.375 1278.5313,547.375 Q1277.1875,547.375 1276.5,548.4531 Q1275.8125,549.5156 1275.8125,551.6094 Q1275.8125,553.7031 1276.5,554.7813 Q1277.1875,555.8438 1278.5313,555.8438 Q1279.1563,555.8438 1279.75,555.5781 Q1280.3438,555.2969 1280.9688,554.7188 L1280.9688,557.4375 Z " fill="#000000"/><text fill="#000000" font-family="sans-serif" font-size="14" lengthAdjust="spacing" textLength="59.8965" x="1292" y="556.6436">equal_to</text><rect fill="#FFFFFF" height="15.9688" style="stroke:#181818;stroke-width:1;stroke-dasharray:2.0,2.0;" width="58.3965" x="1359.8965" y="532.7969"/><text fill="#000000" font-family="sans-serif" font-size="12" font-style="italic" lengthAdjust="spacing" textLength="56.3965" x="1360.8965" y="544.9355">_Tp=void</text><line style="stroke:#181818;stroke-width:0.5;" x1="1264" x2="1414.293" y1="567.7969" y2="567.7969"/><line style="stroke:#181818;stroke-width:0.5;" x1="1264" x2="1414.293" y1="575.7969" y2="575.7969"/></g><!--class C_0004088953224300771248--><g id="elem_C_0004088953224300771248"><rect codeLine="16" fill="#F1F1F1" height="48" id="C_0004088953224300771248" rx="2.5" ry="2.5" style="stroke:#181818;stroke-width:0.5;" width="182.2207" x="1248" y="679.7969"/><ellipse cx="1263" cy="695.7969" fill="#ADD1B2" rx="11" ry="11" style="stroke:#181818;stroke-width:1;"/><path d="M1265.9688,701.4375 Q1265.3906,701.7344 1264.75,701.875 Q1264.1094,702.0313 1263.4063,702.0313 Q1260.9063,702.0313 1259.5781,700.3906 Q1258.2656,698.7344 1258.2656,695.6094 Q1258.2656,692.4844 1259.5781,690.8281 Q1260.9063,689.1719 1263.4063,689.1719 Q1264.1094,689.1719 1264.75,689.3281 Q1265.4063,689.4844 1265.9688,689.7813 L1265.9688,692.5 Q1265.3438,691.9219 1264.75,691.6563 Q1264.1563,691.375 1263.5313,691.375 Q1262.1875,691.375 1261.5,692.4531 Q1260.8125,693.5156 1260.8125,695.6094 Q1260.8125,697.7031 1261.5,698.7813 Q1262.1875,699.8438 1263.5313,699.8438 Q1264.1563,699.8438 1264.75,699.5781 Q1265.3438,699.2969 1265.9688,698.7188 L1265.9688,701.4375 Z " fill="#000000"/><text fill="#000000" font-family="sans-serif" font-size="14" lengthAdjust="spacing" textLength="89.8242" x="1277" y="700.6436">not_equal_to</text><rect fill="#FFFFFF" height="15.9688" style="stroke:#181818;stroke-width:1;stroke-dasharray:2.0,2.0;" width="58.3965" x="1374.8242" y="676.7969"/><text fill="#000000" font-family="sans-serif" font-size="12" font-style="italic" lengthAdjust="spacing" textLength="56.3965" x="1375.8242" y="688.9355">_Tp=void</text><line style="stroke:#181818;stroke-width:0.5;" x1="1249" x2="1429.2207" y1="711.7969" y2="711.7969"/><line style="stroke:#181818;stroke-width:0.5;" x1="1249" x2="1429.2207" y1="719.7969" y2="719.7969"/></g><!--class C_0001698641695689253648--><g id="elem_C_0001698641695689253648"><rect codeLine="20" fill="#F1F1F1" height="48" id="C_0001698641695689253648" rx="2.5" ry="2.5" style="stroke:#181818;stroke-width:0.5;" width="144.0898" x="1267" y="823.7969"/><ellipse cx="1282" cy="839.7969" fill="#ADD1B2" rx="11" ry="11" style="stroke:#181818;stroke-width:1;"/><path d="M1284.9688,845.4375 Q1284.3906,845.7344 1283.75,845.875 Q1283.1094,846.0313 1282.4063,846.0313 Q1279.9063,846.0313 1278.5781,844.3906 Q1277.2656,842.7344 1277.2656,839.6094 Q1277.2656,836.4844 1278.5781,834.8281 Q1279.9063,833.1719 1282.4063,833.1719 Q1283.1094,833.1719 1283.75,833.3281 Q1284.4063,833.4844 1284.9688,833.7813 L1284.9688,836.5 Q1284.3438,835.9219 1283.75,835.6563 Q1283.1563,835.375 1282.5313,835.375 Q1281.1875,835.375 1280.5,836.4531 Q1279.8125,837.5156 1279.8125,839.6094 Q1279.8125,841.7031 1280.5,842.7813 Q1281.1875,843.8438 1282.5313,843.8438 Q1283.1563,843.8438 1283.75,843.5781 Q1284.3438,843.2969 1284.9688,842.7188 L1284.9688,845.4375 Z " fill="#000000"/><text fill="#000000" font-family="sans-serif" font-size="14" lengthAdjust="spacing" textLength="51.6934" x="1296" y="844.6436">greater</text><rect fill="#FFFFFF" height="15.9688" style="stroke:#181818;stroke-width:1;stroke-dasharray:2.0,2.0;" width="58.3965" x="1355.6934" y="820.7969"/><text fill="#000000" font-family="sans-serif" font-size="12" font-style="italic" lengthAdjust="spacing" textLength="56.3965" x="1356.6934" y="832.9355">_Tp=void</text><line style="stroke:#181818;stroke-width:0.5;" x1="1268" x2="1410.0898" y1="855.7969" y2="855.7969"/><line style="stroke:#181818;stroke-width:0.5;" x1="1268" x2="1410.0898" y1="863.7969" y2="863.7969"/></g><!--class C_0017625547811729843273--><g id="elem_C_0017625547811729843273"><rect codeLine="24" fill="#F1F1F1" height="48" id="C_0017625547811729843273" rx="2.5" ry="2.5" style="stroke:#181818;stroke-width:0.5;" width="119.4873" x="1279.5" y="967.7969"/><ellipse cx="1294.5" cy="983.7969" fill="#ADD1B2" rx="11" ry="11" style="stroke:#181818;stroke-width:1;"/><path d="M1297.4688,989.4375 Q1296.8906,989.7344 1296.25,989.875 Q1295.6094,990.0313 1294.9063,990.0313 Q1292.4063,990.0313 1291.0781,988.3906 Q1289.7656,986.7344 1289.7656,983.6094 Q1289.7656,980.4844 1291.0781,978.8281 Q1292.4063,977.1719 1294.9063,977.1719 Q1295.6094,977.1719 1296.25,977.3281 Q1296.9063,977.4844 1297.4688,977.7813 L1297.4688,980.5 Q1296.8438,979.9219 1296.25,979.6563 Q1295.6563,979.375 1295.0313,979.375 Q1293.6875,979.375 1293,980.4531 Q1292.3125,981.5156 1292.3125,983.6094 Q1292.3125,985.7031 1293,986.7813 Q1293.6875,987.8438 1295.0313,987.8438 Q1295.6563,987.8438 1296.25,987.5781 Q1296.8438,987.2969 1297.4688,986.7188 L1297.4688,989.4375 Z " fill="#000000"/><text fill="#000000" font-family="sans-serif" font-size="14" lengthAdjust="spacing" textLength="27.0908" x="1308.5" y="988.6436">less</text><rect fill="#FFFFFF" height="15.9688" style="stroke:#181818;stroke-width:1;stroke-dasharray:2.0,2.0;" width="58.3965" x="1343.5908" y="964.7969"/><text fill="#000000" font-family="sans-serif" font-size="12" font-style="italic" lengthAdjust="spacing" textLength="56.3965" x="1344.5908" y="976.9355">_Tp=void</text><line style="stroke:#181818;stroke-width:0.5;" x1="1280.5" x2="1397.9873" y1="999.7969" y2="999.7969"/><line style="stroke:#181818;stroke-width:0.5;" x1="1280.5" x2="1397.9873" y1="1007.7969" y2="1007.7969"/></g><!--class C_0016809506695079101711--><g id="elem_C_0016809506695079101711"><rect codeLine="28" fill="#F1F1F1" height="48" id="C_0016809506695079101711" rx="2.5" ry="2.5" style="stroke:#181818;stroke-width:0.5;" width="189.9316" x="1244" y="1111.7969"/><ellipse cx="1259" cy="1127.7969" fill="#ADD1B2" rx="11" ry="11" style="stroke:#181818;stroke-width:1;"/><path d="M1261.9688,1133.4375 Q1261.3906,1133.7344 1260.75,1133.875 Q1260.1094,1134.0313 1259.4063,1134.0313 Q1256.9063,1134.0313 1255.5781,1132.3906 Q1254.2656,1130.7344 1254.2656,1127.6094 Q1254.2656,1124.4844 1255.5781,1122.8281 Q1256.9063,1121.1719 1259.4063,1121.1719 Q1260.1094,1121.1719 1260.75,1121.3281 Q1261.4063,1121.4844 1261.9688,1121.7813 L1261.9688,1124.5 Q1261.3438,1123.9219 1260.75,1123.6563 Q1260.1563,1123.375 1259.5313,1123.375 Q1258.1875,1123.375 1257.5,1124.4531 Q1256.8125,1125.5156 1256.8125,1127.6094 Q1256.8125,1129.7031 1257.5,1130.7813 Q1258.1875,1131.8438 1259.5313,1131.8438 Q1260.1563,1131.8438 1260.75,1131.5781 Q1261.3438,1131.2969 1261.9688,1130.7188 L1261.9688,1133.4375 Z " fill="#000000"/><text fill="#000000" font-family="sans-serif" font-size="14" lengthAdjust="spacing" textLength="97.5352" x="1273" y="1132.6436">greater_equal</text><rect fill="#FFFFFF" height="15.9688" style="stroke:#181818;stroke-width:1;stroke-dasharray:2.0,2.0;" width="58.3965" x="1378.5352" y="1108.7969"/><text fill="#000000" font-family="sans-serif" font-size="12" font-style="italic" lengthAdjust="spacing" textLength="56.3965" x="1379.5352" y="1120.9355">_Tp=void</text><line style="stroke:#181818;stroke-width:0.5;" x1="1245" x2="1432.9316" y1="1143.7969" y2="1143.7969"/><line style="stroke:#181818;stroke-width:0.5;" x1="1245" x2="1432.9316" y1="1151.7969" y2="1151.7969"/></g><!--class C_0016061750655888038828--><g id="elem_C_0016061750655888038828"><rect codeLine="32" fill="#F1F1F1" height="48" id="C_0016061750655888038828" rx="2.5" ry="2.5" style="stroke:#181818;stroke-width:0.5;" width="165.3291" x="1256.5" y="1255.7969"/><ellipse cx="1271.5" cy="1271.7969" fill="#ADD1B2" rx="11" ry="11" style="stroke:#181818;stroke-width:1;"/><path d="M1274.4688,1277.4375 Q1273.8906,1277.7344 1273.25,1277.875 Q1272.6094,1278.0313 1271.9063,1278.0313 Q1269.4063,1278.0313 1268.0781,1276.3906 Q1266.7656,1274.7344 1266.7656,1271.6094 Q1266.7656,1268.4844 1268.0781,1266.8281 Q1269.4063,1265.1719 1271.9063,1265.1719 Q1272.6094,1265.1719 1273.25,1265.3281 Q1273.9063,1265.4844 1274.4688,1265.7813 L1274.4688,1268.5 Q1273.8438,1267.9219 1273.25,1267.6563 Q1272.6563,1267.375 1272.0313,1267.375 Q1270.6875,1267.375 1270,1268.4531 Q1269.3125,1269.5156 1269.3125,1271.6094 Q1269.3125,1273.7031 1270,1274.7813 Q1270.6875,1275.8438 1272.0313,1275.8438 Q1272.6563,1275.8438 1273.25,1275.5781 Q1273.8438,1275.2969 1274.4688,1274.7188 L1274.4688,1277.4375 Z " fill="#000000"/><text fill="#000000" font-family="sans-serif" font-size="14" lengthAdjust="spacing" textLength="72.9326" x="1285.5" y="1276.6436">less_equal</text><rect fill="#FFFFFF" height="15.9688" style="stroke:#181818;stroke-width:1;stroke-dasharray:2.0,2.0;" width="58.3965" x="1366.4326" y="1252.7969"/><text fill="#000000" font-family="sans-serif" font-size="12" font-style="italic" lengthAdjust="spacing" textLength="56.3965" x="1367.4326" y="1264.9355">_Tp=void</text><line style="stroke:#181818;stroke-width:0.5;" x1="1257.5" x2="1420.8291" y1="1287.7969" y2="1287.7969"/><line style="stroke:#181818;stroke-width:0.5;" x1="1257.5" x2="1420.8291" y1="1295.7969" y2="1295.7969"/></g><!--class C_0014703748170233212531--><g id="elem_C_0014703748170233212531"><rect codeLine="36" fill="#F1F1F1" height="48" id="C_0014703748170233212531" rx="2.5" ry="2.5" style="stroke:#181818;stroke-width:0.5;" width="239.2461" x="242.5" y="710.7969"/><ellipse cx="257.5" cy="726.7969" fill="#ADD1B2" rx="11" ry="11" style="stroke:#181818;stroke-width:1;"/><path d="M260.4688,732.4375 Q259.8906,732.7344 259.25,732.875 Q258.6094,733.0313 257.9063,733.0313 Q255.4063,733.0313 254.0781,731.3906 Q252.7656,729.7344 252.7656,726.6094 Q252.7656,723.4844 254.0781,721.8281 Q255.4063,720.1719 257.9063,720.1719 Q258.6094,720.1719 259.25,720.3281 Q259.9063,720.4844 260.4688,720.7813 L260.4688,723.5 Q259.8438,722.9219 259.25,722.6563 Q258.6563,722.375 258.0313,722.375 Q256.6875,722.375 256,723.4531 Q255.3125,724.5156 255.3125,726.6094 Q255.3125,728.7031 256,729.7813 Q256.6875,730.8438 258.0313,730.8438 Q258.6563,730.8438 259.25,730.5781 Q259.8438,730.2969 260.4688,729.7188 L260.4688,732.4375 Z " fill="#000000"/><text fill="#000000" font-family="sans-serif" font-size="14" lengthAdjust="spacing" textLength="108.459" x="271.5" y="731.6436">binary_function</text><rect fill="#FFFFFF" height="15.9688" style="stroke:#181818;stroke-width:1;stroke-dasharray:2.0,2.0;" width="96.7871" x="387.959" y="707.7969"/><text fill="#000000" font-family="sans-serif" font-size="12" font-style="italic" lengthAdjust="spacing" textLength="94.7871" x="388.959" y="719.9355">_Tp *,_Tp *,bool</text><line style="stroke:#181818;stroke-width:0.5;" x1="243.5" x2="480.7461" y1="742.7969" y2="742.7969"/><line style="stroke:#181818;stroke-width:0.5;" x1="243.5" x2="480.7461" y1="750.7969" y2="750.7969"/></g><!--class C_0004413300066190592573--><g id="elem_C_0004413300066190592573"><rect codeLine="40" fill="#F1F1F1" height="48" id="C_0004413300066190592573" rx="2.5" ry="2.5" style="stroke:#181818;stroke-width:0.5;" width="171.1328" x="1253.5" y="103.7969"/><ellipse cx="1268.5" cy="119.7969" fill="#ADD1B2" rx="11" ry="11" style="stroke:#181818;stroke-width:1;"/><path d="M1271.4688,125.4375 Q1270.8906,125.7344 1270.25,125.875 Q1269.6094,126.0313 1268.9063,126.0313 Q1266.4063,126.0313 1265.0781,124.3906 Q1263.7656,122.7344 1263.7656,119.6094 Q1263.7656,116.4844 1265.0781,114.8281 Q1266.4063,113.1719 1268.9063,113.1719 Q1269.6094,113.1719 1270.25,113.3281 Q1270.9063,113.4844 1271.4688,113.7813 L1271.4688,116.5 Q1270.8438,115.9219 1270.25,115.6563 Q1269.6563,115.375 1269.0313,115.375 Q1267.6875,115.375 1267,116.4531 Q1266.3125,117.5156 1266.3125,119.6094 Q1266.3125,121.7031 1267,122.7813 Q1267.6875,123.8438 1269.0313,123.8438 Q1269.6563,123.8438 1270.25,123.5781 Q1270.8438,123.2969 1271.4688,122.7188 L1271.4688,125.4375 Z " fill="#000000"/><text fill="#000000" font-family="sans-serif" font-size="14" lengthAdjust="spacing" textLength="78.7363" x="1282.5" y="124.6436">logical_and</text><rect fill="#FFFFFF" height="15.9688" style="stroke:#181818;stroke-width:1;stroke-dasharray:2.0,2.0;" width="58.3965" x="1369.2363" y="100.7969"/><text fill="#000000" font-family="sans-serif" font-size="12" font-style="italic" lengthAdjust="spacing" textLength="56.3965" x="1370.2363" y="112.9355">_Tp=void</text><line style="stroke:#181818;stroke-width:0.5;" x1="1254.5" x2="1423.6328" y1="135.7969" y2="135.7969"/><line style="stroke:#181818;stroke-width:0.5;" x1="1254.5" x2="1423.6328" y1="143.7969" y2="143.7969"/></g><!--class C_0000261527948690069145--><g id="elem_C_0000261527948690069145"><rect codeLine="44" fill="#F1F1F1" height="48" id="C_0000261527948690069145" rx="2.5" ry="2.5" style="stroke:#181818;stroke-width:0.5;" width="159.1152" x="1259.5" y="247.7969"/><ellipse cx="1274.5" cy="263.7969" fill="#ADD1B2" rx="11" ry="11" style="stroke:#181818;stroke-width:1;"/><path d="M1277.4688,269.4375 Q1276.8906,269.7344 1276.25,269.875 Q1275.6094,270.0313 1274.9063,270.0313 Q1272.4063,270.0313 1271.0781,268.3906 Q1269.7656,266.7344 1269.7656,263.6094 Q1269.7656,260.4844 1271.0781,258.8281 Q1272.4063,257.1719 1274.9063,257.1719 Q1275.6094,257.1719 1276.25,257.3281 Q1276.9063,257.4844 1277.4688,257.7813 L1277.4688,260.5 Q1276.8438,259.9219 1276.25,259.6563 Q1275.6563,259.375 1275.0313,259.375 Q1273.6875,259.375 1273,260.4531 Q1272.3125,261.5156 1272.3125,263.6094 Q1272.3125,265.7031 1273,266.7813 Q1273.6875,267.8438 1275.0313,267.8438 Q1275.6563,267.8438 1276.25,267.5781 Q1276.8438,267.2969 1277.4688,266.7188 L1277.4688,269.4375 Z " fill="#000000"/><text fill="#000000" font-family="sans-serif" font-size="14" lengthAdjust="spacing" textLength="66.7188" x="1288.5" y="268.6436">logical_or</text><rect fill="#FFFFFF" height="15.9688" style="stroke:#181818;stroke-width:1;stroke-dasharray:2.0,2.0;" width="58.3965" x="1363.2188" y="244.7969"/><text fill="#000000" font-family="sans-serif" font-size="12" font-style="italic" lengthAdjust="spacing" textLength="56.3965" x="1364.2188" y="256.9355">_Tp=void</text><line style="stroke:#181818;stroke-width:0.5;" x1="1260.5" x2="1417.6152" y1="279.7969" y2="279.7969"/><line style="stroke:#181818;stroke-width:0.5;" x1="1260.5" x2="1417.6152" y1="287.7969" y2="287.7969"/></g><!--class C_0007311719642430294892--><g id="elem_C_0007311719642430294892"><rect codeLine="48" fill="#F1F1F1" height="48" id="C_0007311719642430294892" rx="2.5" ry="2.5" style="stroke:#181818;stroke-width:0.5;" width="709.9297" x="7" y="793.7969"/><ellipse cx="22" cy="809.7969" fill="#ADD1B2" rx="11" ry="11" style="stroke:#181818;stroke-width:1;"/><path d="M24.9688,815.4375 Q24.3906,815.7344 23.75,815.875 Q23.1094,816.0313 22.4063,816.0313 Q19.9063,816.0313 18.5781,814.3906 Q17.2656,812.7344 17.2656,809.6094 Q17.2656,806.4844 18.5781,804.8281 Q19.9063,803.1719 22.4063,803.1719 Q23.1094,803.1719 23.75,803.3281 Q24.4063,803.4844 24.9688,803.7813 L24.9688,806.5 Q24.3438,805.9219 23.75,805.6563 Q23.1563,805.375 22.5313,805.375 Q21.1875,805.375 20.5,806.4531 Q19.8125,807.5156 19.8125,809.6094 Q19.8125,811.7031 20.5,812.7813 Q21.1875,813.8438 22.5313,813.8438 Q23.1563,813.8438 23.75,813.5781 Q24.3438,813.2969 24.9688,812.7188 L24.9688,815.4375 Z " fill="#000000"/><text fill="#000000" font-family="sans-serif" font-size="14" lengthAdjust="spacing" textLength="108.459" x="36" y="814.6436">binary_function</text><rect fill="#FFFFFF" height="15.9688" style="stroke:#181818;stroke-width:1;stroke-dasharray:2.0,2.0;" width="567.4707" x="152.459" y="790.7969"/><text fill="#000000" font-family="sans-serif" font-size="12" font-style="italic" lengthAdjust="spacing" textLength="565.4707" x="153.459" y="802.9355">typename _Predicate::first_argument_type,typename _Predicate::second_argument_type,bool</text><line style="stroke:#181818;stroke-width:0.5;" x1="8" x2="715.9297" y1="825.7969" y2="825.7969"/><line style="stroke:#181818;stroke-width:0.5;" x1="8" x2="715.9297" y1="833.7969" y2="833.7969"/></g><!--class C_0013916464534772332265--><g id="elem_C_0013916464534772332265"><rect codeLine="52" fill="#F1F1F1" height="48" id="C_0013916464534772332265" rx="2.5" ry="2.5" style="stroke:#181818;stroke-width:0.5;" width="344.6504" x="2669" y="1817.7969"/><ellipse cx="2684" cy="1833.7969" fill="#ADD1B2" rx="11" ry="11" style="stroke:#181818;stroke-width:1;"/><path d="M2686.9688,1839.4375 Q2686.3906,1839.7344 2685.75,1839.875 Q2685.1094,1840.0313 2684.4063,1840.0313 Q2681.9063,1840.0313 2680.5781,1838.3906 Q2679.2656,1836.7344 2679.2656,1833.6094 Q2679.2656,1830.4844 2680.5781,1828.8281 Q2681.9063,1827.1719 2684.4063,1827.1719 Q2685.1094,1827.1719 2685.75,1827.3281 Q2686.4063,1827.4844 2686.9688,1827.7813 L2686.9688,1830.5 Q2686.3438,1829.9219 2685.75,1829.6563 Q2685.1563,1829.375 2684.5313,1829.375 Q2683.1875,1829.375 2682.5,1830.4531 Q2681.8125,1831.5156 2681.8125,1833.6094 Q2681.8125,1835.7031 2682.5,1836.7813 Q2683.1875,1837.8438 2684.5313,1837.8438 Q2685.1563,1837.8438 2685.75,1837.5781 Q2686.3438,1837.2969 2686.9688,1836.7188 L2686.9688,1839.4375 Z " fill="#000000"/><text fill="#000000" font-family="sans-serif" font-size="14" lengthAdjust="spacing" textLength="61.0859" x="2698" y="1838.6436">_Rb_tree</text><rect fill="#FFFFFF" height="15.9688" style="stroke:#181818;stroke-width:1;stroke-dasharray:2.0,2.0;" width="249.5645" x="2767.0859" y="1814.7969"/><text fill="#000000" font-family="sans-serif" font-size="12" font-style="italic" lengthAdjust="spacing" textLength="247.5645" x="2768.0859" y="1826.9355">_Key,_Val,_KeyOfValue,_Compare2,_Alloc</text><line style="stroke:#181818;stroke-width:0.5;" x1="2670" x2="3012.6504" y1="1849.7969" y2="1849.7969"/><line style="stroke:#181818;stroke-width:0.5;" x1="2670" x2="3012.6504" y1="1857.7969" y2="1857.7969"/></g><!--class C_0010543423047955878282--><g id="elem_C_0010543423047955878282"><rect codeLine="56" fill="#F1F1F1" height="48" id="C_0010543423047955878282" rx="2.5" ry="2.5" style="stroke:#181818;stroke-width:0.5;" width="266.0645" x="2032" y="1837.7969"/><ellipse cx="2047" cy="1853.7969" fill="#ADD1B2" rx="11" ry="11" style="stroke:#181818;stroke-width:1;"/><path d="M2049.9688,1859.4375 Q2049.3906,1859.7344 2048.75,1859.875 Q2048.1094,1860.0313 2047.4063,1860.0313 Q2044.9063,1860.0313 2043.5781,1858.3906 Q2042.2656,1856.7344 2042.2656,1853.6094 Q2042.2656,1850.4844 2043.5781,1848.8281 Q2044.9063,1847.1719 2047.4063,1847.1719 Q2048.1094,1847.1719 2048.75,1847.3281 Q2049.4063,1847.4844 2049.9688,1847.7813 L2049.9688,1850.5 Q2049.3438,1849.9219 2048.75,1849.6563 Q2048.1563,1849.375 2047.5313,1849.375 Q2046.1875,1849.375 2045.5,1850.4531 Q2044.8125,1851.5156 2044.8125,1853.6094 Q2044.8125,1855.7031 2045.5,1856.7813 Q2046.1875,1857.8438 2047.5313,1857.8438 Q2048.1563,1857.8438 2048.75,1857.5781 Q2049.3438,1857.2969 2049.9688,1856.7188 L2049.9688,1859.4375 Z " fill="#000000"/><text fill="#000000" font-family="sans-serif" font-size="14" lengthAdjust="spacing" textLength="61.0859" x="2061" y="1858.6436">_Rb_tree</text><rect fill="#FFFFFF" height="15.9688" style="stroke:#181818;stroke-width:1;stroke-dasharray:2.0,2.0;" width="170.9785" x="2130.0859" y="1834.7969"/><text fill="#000000" font-family="sans-serif" font-size="12" font-style="italic" lengthAdjust="spacing" textLength="168.9785" x="2131.0859" y="1846.9355">_Key,_Val,_Sel,_Cmp1,_Alloc</text><line style="stroke:#181818;stroke-width:0.5;" x1="2033" x2="2297.0645" y1="1869.7969" y2="1869.7969"/><line style="stroke:#181818;stroke-width:0.5;" x1="2033" x2="2297.0645" y1="1877.7969" y2="1877.7969"/></g><!--class C_0006682815439280437833--><g id="elem_C_0006682815439280437833"><rect codeLine="60" fill="#F1F1F1" height="48" id="C_0006682815439280437833" rx="2.5" ry="2.5" style="stroke:#181818;stroke-width:0.5;" width="266.0645" x="2032" y="1920.7969"/><ellipse cx="2047" cy="1936.7969" fill="#ADD1B2" rx="11" ry="11" style="stroke:#181818;stroke-width:1;"/><path d="M2049.9688,1942.4375 Q2049.3906,1942.7344 2048.75,1942.875 Q2048.1094,1943.0313 2047.4063,1943.0313 Q2044.9063,1943.0313 2043.5781,1941.3906 Q2042.2656,1939.7344 2042.2656,1936.6094 Q2042.2656,1933.4844 2043.5781,1931.8281 Q2044.9063,1930.1719 2047.4063,1930.1719 Q2048.1094,1930.1719 2048.75,1930.3281 Q2049.4063,1930.4844 2049.9688,1930.7813 L2049.9688,1933.5 Q2049.3438,1932.9219 2048.75,1932.6563 Q2048.1563,1932.375 2047.5313,1932.375 Q2046.1875,1932.375 2045.5,1933.4531 Q2044.8125,1934.5156 2044.8125,1936.6094 Q2044.8125,1938.7031 2045.5,1939.7813 Q2046.1875,1940.8438 2047.5313,1940.8438 Q2048.1563,1940.8438 2048.75,1940.5781 Q2049.3438,1940.2969 2049.9688,1939.7188 L2049.9688,1942.4375 Z " fill="#000000"/><text fill="#000000" font-family="sans-serif" font-size="14" lengthAdjust="spacing" textLength="61.0859" x="2061" y="1941.6436">_Rb_tree</text><rect fill="#FFFFFF" height="15.9688" style="stroke:#181818;stroke-width:1;stroke-dasharray:2.0,2.0;" width="170.9785" x="2130.0859" y="1917.7969"/><text fill="#000000" font-family="sans-serif" font-size="12" font-style="italic" lengthAdjust="spacing" textLength="168.9785" x="2131.0859" y="1929.9355">_Key,_Val,_Sel,_Cmp2,_Alloc</text><line style="stroke:#181818;stroke-width:0.5;" x1="2033" x2="2297.0645" y1="1952.7969" y2="1952.7969"/><line style="stroke:#181818;stroke-width:0.5;" x1="2033" x2="2297.0645" y1="1960.7969" y2="1960.7969"/></g><!--class C_0015235694265660149602--><g id="elem_C_0015235694265660149602"><rect codeLine="64" fill="#F1F1F1" height="48" id="C_0015235694265660149602" rx="2.5" ry="2.5" style="stroke:#181818;stroke-width:0.5;" width="203.9844" x="786" y="544.7969"/><ellipse cx="801" cy="560.7969" fill="#ADD1B2" rx="11" ry="11" style="stroke:#181818;stroke-width:1;"/><path d="M803.9688,566.4375 Q803.3906,566.7344 802.75,566.875 Q802.1094,567.0313 801.4063,567.0313 Q798.9063,567.0313 797.5781,565.3906 Q796.2656,563.7344 796.2656,560.6094 Q796.2656,557.4844 797.5781,555.8281 Q798.9063,554.1719 801.4063,554.1719 Q802.1094,554.1719 802.75,554.3281 Q803.4063,554.4844 803.9688,554.7813 L803.9688,557.5 Q803.3438,556.9219 802.75,556.6563 Q802.1563,556.375 801.5313,556.375 Q800.1875,556.375 799.5,557.4531 Q798.8125,558.5156 798.8125,560.6094 Q798.8125,562.7031 799.5,563.7813 Q800.1875,564.8438 801.5313,564.8438 Q802.1563,564.8438 802.75,564.5781 Q803.3438,564.2969 803.9688,563.7188 L803.9688,566.4375 Z " fill="#000000"/><text fill="#000000" font-family="sans-serif" font-size="14" lengthAdjust="spacing" textLength="31.1035" x="815" y="565.6436">map</text><rect fill="#FFFFFF" height="15.9688" style="stroke:#181818;stroke-width:1;stroke-dasharray:2.0,2.0;" width="138.8809" x="854.1035" y="541.7969"/><text fill="#000000" font-family="sans-serif" font-size="12" font-style="italic" lengthAdjust="spacing" textLength="136.8809" x="855.1035" y="553.9355">_Key,_Tp,_Cmp2,_Alloc</text><line style="stroke:#181818;stroke-width:0.5;" x1="787" x2="988.9844" y1="576.7969" y2="576.7969"/><line style="stroke:#181818;stroke-width:0.5;" x1="787" x2="988.9844" y1="584.7969" y2="584.7969"/></g><!--class C_0013894242623239472501--><g id="elem_C_0013894242623239472501"><rect codeLine="68" fill="#F1F1F1" height="48" id="C_0013894242623239472501" rx="2.5" ry="2.5" style="stroke:#181818;stroke-width:0.5;" width="794.0762" x="1768" y="1671.7969"/><ellipse cx="1783" cy="1687.7969" fill="#ADD1B2" rx="11" ry="11" style="stroke:#181818;stroke-width:1;"/><path d="M1785.9688,1693.4375 Q1785.3906,1693.7344 1784.75,1693.875 Q1784.1094,1694.0313 1783.4063,1694.0313 Q1780.9063,1694.0313 1779.5781,1692.3906 Q1778.2656,1690.7344 1778.2656,1687.6094 Q1778.2656,1684.4844 1779.5781,1682.8281 Q1780.9063,1681.1719 1783.4063,1681.1719 Q1784.1094,1681.1719 1784.75,1681.3281 Q1785.4063,1681.4844 1785.9688,1681.7813 L1785.9688,1684.5 Q1785.3438,1683.9219 1784.75,1683.6563 Q1784.1563,1683.375 1783.5313,1683.375 Q1782.1875,1683.375 1781.5,1684.4531 Q1780.8125,1685.5156 1780.8125,1687.6094 Q1780.8125,1689.7031 1781.5,1690.7813 Q1782.1875,1691.8438 1783.5313,1691.8438 Q1784.1563,1691.8438 1784.75,1691.5781 Q1785.3438,1691.2969 1785.9688,1690.7188 L1785.9688,1693.4375 Z " fill="#000000"/><text fill="#000000" font-family="sans-serif" font-size="14" lengthAdjust="spacing" textLength="61.0859" x="1797" y="1692.6436">_Rb_tree</text><rect fill="#FFFFFF" height="15.9688" style="stroke:#181818;stroke-width:1;stroke-dasharray:2.0,2.0;" width="698.9902" x="1866.0859" y="1668.7969"/><text fill="#000000" font-family="sans-serif" font-size="12" font-style="italic" lengthAdjust="spacing" textLength="696.9902" x="1867.0859" y="1680.9355">map::key_type,pair&lt;_Key const,_Tp&gt;,_Select1st&lt;pair&lt;_Key const,_Tp&gt;&gt;,map::key_compare,map::_Pair_alloc_type</text><line style="stroke:#181818;stroke-width:0.5;" x1="1769" x2="2561.0762" y1="1703.7969" y2="1703.7969"/><line style="stroke:#181818;stroke-width:0.5;" x1="1769" x2="2561.0762" y1="1711.7969" y2="1711.7969"/></g><!--class C_0015937781856508569918--><g id="elem_C_0015937781856508569918"><rect codeLine="72" fill="#F1F1F1" height="48" id="C_0015937781856508569918" rx="2.5" ry="2.5" style="stroke:#181818;stroke-width:0.5;" width="524.1523" x="1077" y="1671.7969"/><ellipse cx="1092" cy="1687.7969" fill="#ADD1B2" rx="11" ry="11" style="stroke:#181818;stroke-width:1;"/><path d="M1094.9688,1693.4375 Q1094.3906,1693.7344 1093.75,1693.875 Q1093.1094,1694.0313 1092.4063,1694.0313 Q1089.9063,1694.0313 1088.5781,1692.3906 Q1087.2656,1690.7344 1087.2656,1687.6094 Q1087.2656,1684.4844 1088.5781,1682.8281 Q1089.9063,1681.1719 1092.4063,1681.1719 Q1093.1094,1681.1719 1093.75,1681.3281 Q1094.4063,1681.4844 1094.9688,1681.7813 L1094.9688,1684.5 Q1094.3438,1683.9219 1093.75,1683.6563 Q1093.1563,1683.375 1092.5313,1683.375 Q1091.1875,1683.375 1090.5,1684.4531 Q1089.8125,1685.5156 1089.8125,1687.6094 Q1089.8125,1689.7031 1090.5,1690.7813 Q1091.1875,1691.8438 1092.5313,1691.8438 Q1093.1563,1691.8438 1093.75,1691.5781 Q1094.3438,1691.2969 1094.9688,1690.7188 L1094.9688,1693.4375 Z " fill="#000000"/><text fill="#000000" font-family="sans-serif" font-size="14" lengthAdjust="spacing" textLength="31.1035" x="1106" y="1692.6436">map</text><rect fill="#FFFFFF" height="15.9688" style="stroke:#181818;stroke-width:1;stroke-dasharray:2.0,2.0;" width="459.0488" x="1145.1035" y="1668.7969"/><text fill="#000000" font-family="sans-serif" font-size="12" font-style="italic" lengthAdjust="spacing" textLength="457.0488" x="1146.1035" y="1680.9355">_Key,_Tp,_Compare=less&lt;_Key&gt;,_Alloc=allocator&lt;pair&lt;const _Key, _Tp&gt;&gt;</text><line style="stroke:#181818;stroke-width:0.5;" x1="1078" x2="1600.1523" y1="1703.7969" y2="1703.7969"/><line style="stroke:#181818;stroke-width:0.5;" x1="1078" x2="1600.1523" y1="1711.7969" y2="1711.7969"/></g><!--class C_0000866953055675511964--><g id="elem_C_0000866953055675511964"><rect codeLine="76" fill="#F1F1F1" height="48" id="C_0000866953055675511964" rx="2.5" ry="2.5" style="stroke:#181818;stroke-width:0.5;" width="443.2813" x="140.5" y="1671.7969"/><ellipse cx="155.5" cy="1687.7969" fill="#ADD1B2" rx="11" ry="11" style="stroke:#181818;stroke-width:1;"/><path d="M158.4688,1693.4375 Q157.8906,1693.7344 157.25,1693.875 Q156.6094,1694.0313 155.9063,1694.0313 Q153.4063,1694.0313 152.0781,1692.3906 Q150.7656,1690.7344 150.7656,1687.6094 Q150.7656,1684.4844 152.0781,1682.8281 Q153.4063,1681.1719 155.9063,1681.1719 Q156.6094,1681.1719 157.25,1681.3281 Q157.9063,1681.4844 158.4688,1681.7813 L158.4688,1684.5 Q157.8438,1683.9219 157.25,1683.6563 Q156.6563,1683.375 156.0313,1683.375 Q154.6875,1683.375 154,1684.4531 Q153.3125,1685.5156 153.3125,1687.6094 Q153.3125,1689.7031 154,1690.7813 Q154.6875,1691.8438 156.0313,1691.8438 Q156.6563,1691.8438 157.25,1691.5781 Q157.8438,1691.2969 158.4688,1690.7188 L158.4688,1693.4375 Z " fill="#000000"/><text fill="#000000" font-family="sans-serif" font-size="14" lengthAdjust="spacing" textLength="108.459" x="169.5" y="1692.6436">binary_function</text><rect fill="#FFFFFF" height="15.9688" style="stroke:#181818;stroke-width:1;stroke-dasharray:2.0,2.0;" width="300.8223" x="285.959" y="1668.7969"/><text fill="#000000" font-family="sans-serif" font-size="12" font-style="italic" lengthAdjust="spacing" textLength="298.8223" x="286.959" y="1680.9355">pair&lt;_Key const,_Tp&gt;,pair&lt;_Key const,_Tp&gt;,bool</text><line style="stroke:#181818;stroke-width:0.5;" x1="141.5" x2="582.7813" y1="1703.7969" y2="1703.7969"/><line style="stroke:#181818;stroke-width:0.5;" x1="141.5" x2="582.7813" y1="1711.7969" y2="1711.7969"/></g><!--class C_0014510487773565290867--><g id="elem_C_0014510487773565290867"><rect codeLine="80" fill="#F1F1F1" height="48" id="C_0014510487773565290867" rx="2.5" ry="2.5" style="stroke:#181818;stroke-width:0.5;" width="179.5127" x="798" y="1671.7969"/><ellipse cx="813" cy="1687.7969" fill="#ADD1B2" rx="11" ry="11" style="stroke:#181818;stroke-width:1;"/><path d="M815.9688,1693.4375 Q815.3906,1693.7344 814.75,1693.875 Q814.1094,1694.0313 813.4063,1694.0313 Q810.9063,1694.0313 809.5781,1692.3906 Q808.2656,1690.7344 808.2656,1687.6094 Q808.2656,1684.4844 809.5781,1682.8281 Q810.9063,1681.1719 813.4063,1681.1719 Q814.1094,1681.1719 814.75,1681.3281 Q815.4063,1681.4844 815.9688,1681.7813 L815.9688,1684.5 Q815.3438,1683.9219 814.75,1683.6563 Q814.1563,1683.375 813.5313,1683.375 Q812.1875,1683.375 811.5,1684.4531 Q810.8125,1685.5156 810.8125,1687.6094 Q810.8125,1689.7031 811.5,1690.7813 Q812.1875,1691.8438 813.5313,1691.8438 Q814.1563,1691.8438 814.75,1691.5781 Q815.3438,1691.2969 815.9688,1690.7188 L815.9688,1693.4375 Z " fill="#000000"/><text fill="#000000" font-family="sans-serif" font-size="14" lengthAdjust="spacing" textLength="147.5127" x="827" y="1692.6436">map::value_compare</text><line style="stroke:#181818;stroke-width:0.5;" x1="799" x2="976.5127" y1="1703.7969" y2="1703.7969"/><line style="stroke:#181818;stroke-width:0.5;" x1="799" x2="976.5127" y1="1711.7969" y2="1711.7969"/></g><!--class C_0016373827787893331873--><g id="elem_C_0016373827787893331873"><rect codeLine="84" fill="#F1F1F1" height="48" id="C_0016373827787893331873" rx="2.5" ry="2.5" style="stroke:#181818;stroke-width:0.5;" width="207.9336" x="258" y="461.7969"/><ellipse cx="273" cy="477.7969" fill="#ADD1B2" rx="11" ry="11" style="stroke:#181818;stroke-width:1;"/><path d="M275.9688,483.4375 Q275.3906,483.7344 274.75,483.875 Q274.1094,484.0313 273.4063,484.0313 Q270.9063,484.0313 269.5781,482.3906 Q268.2656,480.7344 268.2656,477.6094 Q268.2656,474.4844 269.5781,472.8281 Q270.9063,471.1719 273.4063,471.1719 Q274.1094,471.1719 274.75,471.3281 Q275.4063,471.4844 275.9688,471.7813 L275.9688,474.5 Q275.3438,473.9219 274.75,473.6563 Q274.1563,473.375 273.5313,473.375 Q272.1875,473.375 271.5,474.4531 Q270.8125,475.5156 270.8125,477.6094 Q270.8125,479.7031 271.5,480.7813 Q272.1875,481.8438 273.5313,481.8438 Q274.1563,481.8438 274.75,481.5781 Q275.3438,481.2969 275.9688,480.7188 L275.9688,483.4375 Z " fill="#000000"/><text fill="#000000" font-family="sans-serif" font-size="14" lengthAdjust="spacing" textLength="31.1035" x="287" y="482.6436">map</text><rect fill="#FFFFFF" height="15.9688" style="stroke:#181818;stroke-width:1;stroke-dasharray:2.0,2.0;" width="142.8301" x="326.1035" y="458.7969"/><text fill="#000000" font-family="sans-serif" font-size="12" font-style="italic" lengthAdjust="spacing" textLength="140.8301" x="327.1035" y="470.9355">_Key,_Val,_Cmp1,_Alloc</text><line style="stroke:#181818;stroke-width:0.5;" x1="259" x2="464.9336" y1="493.7969" y2="493.7969"/><line style="stroke:#181818;stroke-width:0.5;" x1="259" x2="464.9336" y1="501.7969" y2="501.7969"/></g><!--class C_0013101789567079497534--><g id="elem_C_0013101789567079497534"><rect codeLine="88" fill="#F1F1F1" height="48" id="C_0013101789567079497534" rx="2.5" ry="2.5" style="stroke:#181818;stroke-width:0.5;" width="207.9336" x="258" y="544.7969"/><ellipse cx="273" cy="560.7969" fill="#ADD1B2" rx="11" ry="11" style="stroke:#181818;stroke-width:1;"/><path d="M275.9688,566.4375 Q275.3906,566.7344 274.75,566.875 Q274.1094,567.0313 273.4063,567.0313 Q270.9063,567.0313 269.5781,565.3906 Q268.2656,563.7344 268.2656,560.6094 Q268.2656,557.4844 269.5781,555.8281 Q270.9063,554.1719 273.4063,554.1719 Q274.1094,554.1719 274.75,554.3281 Q275.4063,554.4844 275.9688,554.7813 L275.9688,557.5 Q275.3438,556.9219 274.75,556.6563 Q274.1563,556.375 273.5313,556.375 Q272.1875,556.375 271.5,557.4531 Q270.8125,558.5156 270.8125,560.6094 Q270.8125,562.7031 271.5,563.7813 Q272.1875,564.8438 273.5313,564.8438 Q274.1563,564.8438 274.75,564.5781 Q275.3438,564.2969 275.9688,563.7188 L275.9688,566.4375 Z " fill="#000000"/><text fill="#000000" font-family="sans-serif" font-size="14" lengthAdjust="spacing" textLength="31.1035" x="287" y="565.6436">map</text><rect fill="#FFFFFF" height="15.9688" style="stroke:#181818;stroke-width:1;stroke-dasharray:2.0,2.0;" width="142.8301" x="326.1035" y="541.7969"/><text fill="#000000" font-family="sans-serif" font-size="12" font-style="italic" lengthAdjust="spacing" textLength="140.8301" x="327.1035" y="553.9355">_Key,_Val,_Cmp2,_Alloc</text><line style="stroke:#181818;stroke-width:0.5;" x1="259" x2="464.9336" y1="576.7969" y2="576.7969"/><line style="stroke:#181818;stroke-width:0.5;" x1="259" x2="464.9336" y1="584.7969" y2="584.7969"/></g><!--class C_0001090897514726089586--><g id="elem_C_0001090897514726089586"><rect codeLine="92" fill="#F1F1F1" height="48" id="C_0001090897514726089586" rx="2.5" ry="2.5" style="stroke:#181818;stroke-width:0.5;" width="886.0801" x="1722" y="1754.7969"/><ellipse cx="1737" cy="1770.7969" fill="#ADD1B2" rx="11" ry="11" style="stroke:#181818;stroke-width:1;"/><path d="M1739.9688,1776.4375 Q1739.3906,1776.7344 1738.75,1776.875 Q1738.1094,1777.0313 1737.4063,1777.0313 Q1734.9063,1777.0313 1733.5781,1775.3906 Q1732.2656,1773.7344 1732.2656,1770.6094 Q1732.2656,1767.4844 1733.5781,1765.8281 Q1734.9063,1764.1719 1737.4063,1764.1719 Q1738.1094,1764.1719 1738.75,1764.3281 Q1739.4063,1764.4844 1739.9688,1764.7813 L1739.9688,1767.5 Q1739.3438,1766.9219 1738.75,1766.6563 Q1738.1563,1766.375 1737.5313,1766.375 Q1736.1875,1766.375 1735.5,1767.4531 Q1734.8125,1768.5156 1734.8125,1770.6094 Q1734.8125,1772.7031 1735.5,1773.7813 Q1736.1875,1774.8438 1737.5313,1774.8438 Q1738.1563,1774.8438 1738.75,1774.5781 Q1739.3438,1774.2969 1739.9688,1773.7188 L1739.9688,1776.4375 Z " fill="#000000"/><text fill="#000000" font-family="sans-serif" font-size="14" lengthAdjust="spacing" textLength="61.0859" x="1751" y="1775.6436">_Rb_tree</text><rect fill="#FFFFFF" height="15.9688" style="stroke:#181818;stroke-width:1;stroke-dasharray:2.0,2.0;" width="790.9941" x="1820.0859" y="1751.7969"/><text fill="#000000" font-family="sans-serif" font-size="12" font-style="italic" lengthAdjust="spacing" textLength="788.9941" x="1821.0859" y="1763.9355">multimap::key_type,pair&lt;_Key const,_Tp&gt;,_Select1st&lt;pair&lt;_Key const,_Tp&gt;&gt;,multimap::key_compare,multimap::_Pair_alloc_type</text><line style="stroke:#181818;stroke-width:0.5;" x1="1723" x2="2607.0801" y1="1786.7969" y2="1786.7969"/><line style="stroke:#181818;stroke-width:0.5;" x1="1723" x2="2607.0801" y1="1794.7969" y2="1794.7969"/></g><!--class C_0008109501906190460155--><g id="elem_C_0008109501906190460155"><rect codeLine="96" fill="#F1F1F1" height="48" id="C_0008109501906190460155" rx="2.5" ry="2.5" style="stroke:#181818;stroke-width:0.5;" width="559.9316" x="1059" y="1754.7969"/><ellipse cx="1074" cy="1770.7969" fill="#ADD1B2" rx="11" ry="11" style="stroke:#181818;stroke-width:1;"/><path d="M1076.9688,1776.4375 Q1076.3906,1776.7344 1075.75,1776.875 Q1075.1094,1777.0313 1074.4063,1777.0313 Q1071.9063,1777.0313 1070.5781,1775.3906 Q1069.2656,1773.7344 1069.2656,1770.6094 Q1069.2656,1767.4844 1070.5781,1765.8281 Q1071.9063,1764.1719 1074.4063,1764.1719 Q1075.1094,1764.1719 1075.75,1764.3281 Q1076.4063,1764.4844 1076.9688,1764.7813 L1076.9688,1767.5 Q1076.3438,1766.9219 1075.75,1766.6563 Q1075.1563,1766.375 1074.5313,1766.375 Q1073.1875,1766.375 1072.5,1767.4531 Q1071.8125,1768.5156 1071.8125,1770.6094 Q1071.8125,1772.7031 1072.5,1773.7813 Q1073.1875,1774.8438 1074.5313,1774.8438 Q1075.1563,1774.8438 1075.75,1774.5781 Q1076.3438,1774.2969 1076.9688,1773.7188 L1076.9688,1776.4375 Z " fill="#000000"/><text fill="#000000" font-family="sans-serif" font-size="14" lengthAdjust="spacing" textLength="66.8828" x="1088" y="1775.6436">multimap</text><rect fill="#FFFFFF" height="15.9688" style="stroke:#181818;stroke-width:1;stroke-dasharray:2.0,2.0;" width="459.0488" x="1162.8828" y="1751.7969"/><text fill="#000000" font-family="sans-serif" font-size="12" font-style="italic" lengthAdjust="spacing" textLength="457.0488" x="1163.8828" y="1763.9355">_Key,_Tp,_Compare=less&lt;_Key&gt;,_Alloc=allocator&lt;pair&lt;const _Key, _Tp&gt;&gt;</text><line style="stroke:#181818;stroke-width:0.5;" x1="1060" x2="1617.9316" y1="1786.7969" y2="1786.7969"/><line style="stroke:#181818;stroke-width:0.5;" x1="1060" x2="1617.9316" y1="1794.7969" y2="1794.7969"/></g><!--class C_0002334092490773708849--><g id="elem_C_0002334092490773708849"><rect codeLine="100" fill="#F1F1F1" height="48" id="C_0002334092490773708849" rx="2.5" ry="2.5" style="stroke:#181818;stroke-width:0.5;" width="215.292" x="780.5" y="1754.7969"/><ellipse cx="795.5" cy="1770.7969" fill="#ADD1B2" rx="11" ry="11" style="stroke:#181818;stroke-width:1;"/><path d="M798.4688,1776.4375 Q797.8906,1776.7344 797.25,1776.875 Q796.6094,1777.0313 795.9063,1777.0313 Q793.4063,1777.0313 792.0781,1775.3906 Q790.7656,1773.7344 790.7656,1770.6094 Q790.7656,1767.4844 792.0781,1765.8281 Q793.4063,1764.1719 795.9063,1764.1719 Q796.6094,1764.1719 797.25,1764.3281 Q797.9063,1764.4844 798.4688,1764.7813 L798.4688,1767.5 Q797.8438,1766.9219 797.25,1766.6563 Q796.6563,1766.375 796.0313,1766.375 Q794.6875,1766.375 794,1767.4531 Q793.3125,1768.5156 793.3125,1770.6094 Q793.3125,1772.7031 794,1773.7813 Q794.6875,1774.8438 796.0313,1774.8438 Q796.6563,1774.8438 797.25,1774.5781 Q797.8438,1774.2969 798.4688,1773.7188 L798.4688,1776.4375 Z " fill="#000000"/><text fill="#000000" font-family="sans-serif" font-size="14" lengthAdjust="spacing" textLength="183.292" x="809.5" y="1775.6436">multimap::value_compare</text><line style="stroke:#181818;stroke-width:0.5;" x1="781.5" x2="994.792" y1="1786.7969" y2="1786.7969"/><line style="stroke:#181818;stroke-width:0.5;" x1="781.5" x2="994.792" y1="1794.7969" y2="1794.7969"/></g><!--class C_0002099648825473310360--><g id="elem_C_0002099648825473310360"><rect codeLine="104" fill="#F1F1F1" height="48" id="C_0002099648825473310360" rx="2.5" ry="2.5" style="stroke:#181818;stroke-width:0.5;" width="479.5566" x="122" y="627.7969"/><ellipse cx="137" cy="643.7969" fill="#ADD1B2" rx="11" ry="11" style="stroke:#181818;stroke-width:1;"/><path d="M139.9688,649.4375 Q139.3906,649.7344 138.75,649.875 Q138.1094,650.0313 137.4063,650.0313 Q134.9063,650.0313 133.5781,648.3906 Q132.2656,646.7344 132.2656,643.6094 Q132.2656,640.4844 133.5781,638.8281 Q134.9063,637.1719 137.4063,637.1719 Q138.1094,637.1719 138.75,637.3281 Q139.4063,637.4844 139.9688,637.7813 L139.9688,640.5 Q139.3438,639.9219 138.75,639.6563 Q138.1563,639.375 137.5313,639.375 Q136.1875,639.375 135.5,640.4531 Q134.8125,641.5156 134.8125,643.6094 Q134.8125,645.7031 135.5,646.7813 Q136.1875,647.8438 137.5313,647.8438 Q138.1563,647.8438 138.75,647.5781 Q139.3438,647.2969 139.9688,646.7188 L139.9688,649.4375 Z " fill="#000000"/><text fill="#000000" font-family="sans-serif" font-size="14" lengthAdjust="spacing" textLength="31.1035" x="151" y="648.6436">map</text><rect fill="#FFFFFF" height="15.9688" style="stroke:#181818;stroke-width:1;stroke-dasharray:2.0,2.0;" width="414.4531" x="190.1035" y="624.7969"/><text fill="#000000" font-family="sans-serif" font-size="12" font-style="italic" lengthAdjust="spacing" textLength="412.4531" x="191.1035" y="636.9355">_Key,_Tp,_Cmp,pmr::polymorphic_allocator&lt;pair&lt;_Key const,_Tp&gt;&gt;</text><line style="stroke:#181818;stroke-width:0.5;" x1="123" x2="600.5566" y1="659.7969" y2="659.7969"/><line style="stroke:#181818;stroke-width:0.5;" x1="123" x2="600.5566" y1="667.7969" y2="667.7969"/></g><g id="elem_GMN53"><path d="M1154,331.2969 L1154,356.4297 A0,0 0 0 0 1154,356.4297 L1335,356.4297 L1339,391.6069 L1343,356.4297 L1523.9688,356.4297 A0,0 0 0 0 1523.9688,356.4297 L1523.9688,341.2969 L1513.9688,331.2969 L1154,331.2969 A0,0 0 0 0 1154,331.2969 " fill="#FEFFDD" style="stroke:#181818;stroke-width:0.5;"/><path d="M1513.9688,331.2969 L1513.9688,341.2969 L1523.9688,341.2969 L1513.9688,331.2969 " fill="#FEFFDD" style="stroke:#181818;stroke-width:0.5;"/><text fill="#000000" font-family="sans-serif" font-size="13" lengthAdjust="spacing" textLength="348.9688" x="1160" y="348.3638">Helper for defining adaptable binary function objects.</text></g><g id="elem_GMN56"><path d="M1294,475.2969 L1294,500.4297 A0,0 0 0 0 1294,500.4297 L1335,500.4297 L1339,535.6069 L1343,500.4297 L1383.5991,500.4297 A0,0 0 0 0 1383.5991,500.4297 L1383.5991,485.2969 L1373.5991,475.2969 L1294,475.2969 A0,0 0 0 0 1294,475.2969 " fill="#FEFFDD" style="stroke:#181818;stroke-width:0.5;"/><path d="M1373.5991,475.2969 L1373.5991,485.2969 L1383.5991,485.2969 L1373.5991,475.2969 " fill="#FEFFDD" style="stroke:#181818;stroke-width:0.5;"/><text fill="#000000" font-family="sans-serif" font-size="13" lengthAdjust="spacing" textLength="68.5991" x="1300" y="492.3638">One of the</text></g><g id="elem_GMN59"><path d="M1294,619.2969 L1294,644.4297 A0,0 0 0 0 1294,644.4297 L1335,644.4297 L1339,679.6069 L1343,644.4297 L1383.5991,644.4297 A0,0 0 0 0 1383.5991,644.4297 L1383.5991,629.2969 L1373.5991,619.2969 L1294,619.2969 A0,0 0 0 0 1294,619.2969 " fill="#FEFFDD" style="stroke:#181818;stroke-width:0.5;"/><path d="M1373.5991,619.2969 L1373.5991,629.2969 L1383.5991,629.2969 L1373.5991,619.2969 " fill="#FEFFDD" style="stroke:#181818;stroke-width:0.5;"/><text fill="#000000" font-family="sans-serif" font-size="13" lengthAdjust="spacing" textLength="68.5991" x="1300" y="636.3638">One of the</text></g><g id="elem_GMN62"><path d="M1294,763.2969 L1294,788.4297 A0,0 0 0 0 1294,788.4297 L1335,788.4297 L1339,823.6069 L1343,788.4297 L1383.5991,788.4297 A0,0 0 0 0 1383.5991,788.4297 L1383.5991,773.2969 L1373.5991,763.2969 L1294,763.2969 A0,0 0 0 0 1294,763.2969 " fill="#FEFFDD" style="stroke:#181818;stroke-width:0.5;"/><path d="M1373.5991,763.2969 L1373.5991,773.2969 L1383.5991,773.2969 L1373.5991,763.2969 " fill="#FEFFDD" style="stroke:#181818;stroke-width:0.5;"/><text fill="#000000" font-family="sans-serif" font-size="13" lengthAdjust="spacing" textLength="68.5991" x="1300" y="780.3638">One of the</text></g><g id="elem_GMN65"><path d="M1294,907.2969 L1294,932.4297 A0,0 0 0 0 1294,932.4297 L1335,932.4297 L1339,967.6069 L1343,932.4297 L1383.5991,932.4297 A0,0 0 0 0 1383.5991,932.4297 L1383.5991,917.2969 L1373.5991,907.2969 L1294,907.2969 A0,0 0 0 0 1294,907.2969 " fill="#FEFFDD" style="stroke:#181818;stroke-width:0.5;"/><path d="M1373.5991,907.2969 L1373.5991,917.2969 L1383.5991,917.2969 L1373.5991,907.2969 " fill="#FEFFDD" style="stroke:#181818;stroke-width:0.5;"/><text fill="#000000" font-family="sans-serif" font-size="13" lengthAdjust="spacing" textLength="68.5991" x="1300" y="924.3638">One of the</text></g><g id="elem_GMN68"><path d="M1294,1051.2969 L1294,1076.4297 A0,0 0 0 0 1294,1076.4297 L1335,1076.4297 L1339,1111.6069 L1343,1076.4297 L1383.5991,1076.4297 A0,0 0 0 0 1383.5991,1076.4297 L1383.5991,1061.2969 L1373.5991,1051.2969 L1294,1051.2969 A0,0 0 0 0 1294,1051.2969 " fill="#FEFFDD" style="stroke:#181818;stroke-width:0.5;"/><path d="M1373.5991,1051.2969 L1373.5991,1061.2969 L1383.5991,1061.2969 L1373.5991,1051.2969 " fill="#FEFFDD" style="stroke:#181818;stroke-width:0.5;"/><text fill="#000000" font-family="sans-serif" font-size="13" lengthAdjust="spacing" textLength="68.5991" x="1300" y="1068.3638">One of the</text></g><g id="elem_GMN71"><path d="M1294,1195.2969 L1294,1220.4297 A0,0 0 0 0 1294,1220.4297 L1335,1220.4297 L1339,1255.6069 L1343,1220.4297 L1383.5991,1220.4297 A0,0 0 0 0 1383.5991,1220.4297 L1383.5991,1205.2969 L1373.5991,1195.2969 L1294,1195.2969 A0,0 0 0 0 1294,1195.2969 " fill="#FEFFDD" style="stroke:#181818;stroke-width:0.5;"/><path d="M1373.5991,1195.2969 L1373.5991,1205.2969 L1383.5991,1205.2969 L1373.5991,1195.2969 " fill="#FEFFDD" style="stroke:#181818;stroke-width:0.5;"/><text fill="#000000" font-family="sans-serif" font-size="13" lengthAdjust="spacing" textLength="68.5991" x="1300" y="1212.3638">One of the</text></g><g id="elem_GMN74"><path d="M1294,43.2969 L1294,68.4297 A0,0 0 0 0 1294,68.4297 L1335,68.4297 L1339,103.6069 L1343,68.4297 L1383.5991,68.4297 A0,0 0 0 0 1383.5991,68.4297 L1383.5991,53.2969 L1373.5991,43.2969 L1294,43.2969 A0,0 0 0 0 1294,43.2969 " fill="#FEFFDD" style="stroke:#181818;stroke-width:0.5;"/><path d="M1373.5991,43.2969 L1373.5991,53.2969 L1383.5991,53.2969 L1373.5991,43.2969 " fill="#FEFFDD" style="stroke:#181818;stroke-width:0.5;"/><text fill="#000000" font-family="sans-serif" font-size="13" lengthAdjust="spacing" textLength="68.5991" x="1300" y="60.3638">One of the</text></g><g id="elem_GMN77"><path d="M1294,187.2969 L1294,212.4297 A0,0 0 0 0 1294,212.4297 L1335,212.4297 L1339,247.6069 L1343,212.4297 L1383.5991,212.4297 A0,0 0 0 0 1383.5991,212.4297 L1383.5991,197.2969 L1373.5991,187.2969 L1294,187.2969 A0,0 0 0 0 1294,187.2969 " fill="#FEFFDD" style="stroke:#181818;stroke-width:0.5;"/><path d="M1373.5991,187.2969 L1373.5991,197.2969 L1383.5991,197.2969 L1373.5991,187.2969 " fill="#FEFFDD" style="stroke:#181818;stroke-width:0.5;"/><text fill="#000000" font-family="sans-serif" font-size="13" lengthAdjust="spacing" textLength="68.5991" x="1300" y="204.3638">One of the</text></g><g id="elem_GMN80"><path d="M1225.5,1505.2969 L1225.5,1636.3594 A0,0 0 0 0 1225.5,1636.3594 L1335,1636.3594 L1339,1671.3869 L1343,1636.3594 L1452.1641,1636.3594 A0,0 0 0 0 1452.1641,1636.3594 L1452.1641,1515.2969 L1442.1641,1505.2969 L1225.5,1505.2969 A0,0 0 0 0 1225.5,1505.2969 " fill="#FEFFDD" style="stroke:#181818;stroke-width:0.5;"/><path d="M1442.1641,1505.2969 L1442.1641,1515.2969 L1452.1641,1515.2969 L1442.1641,1505.2969 " fill="#FEFFDD" style="stroke:#181818;stroke-width:0.5;"/><text fill="#000000" font-family="sans-serif" font-size="13" lengthAdjust="spacing" textLength="185.0024" x="1248.0293" y="1522.3638">Meets the requirements of a</text><text fill="#000000" font-family="sans-serif" font-size="13" lengthAdjust="spacing" textLength="61.5977" x="1231.5" y="1537.4966">container</text><text fill="#000000" font-family="sans-serif" font-size="13" lengthAdjust="spacing" textLength="16.231" x="1231.5" y="1552.6294">, a</text><text fill="#000000" font-family="sans-serif" font-size="13" lengthAdjust="spacing" textLength="8.2646" x="1231.5" y="1567.7622">&#160;&#160;</text><text fill="#000000" font-family="sans-serif" font-size="13" lengthAdjust="spacing" textLength="130.3555" x="1231.5" y="1582.895">reversible container</text><text fill="#000000" font-family="sans-serif" font-size="13" lengthAdjust="spacing" textLength="53.0601" x="1231.5" y="1598.0278">, and an</text><text fill="#000000" font-family="sans-serif" font-size="13" lengthAdjust="spacing" textLength="8.2646" x="1231.5" y="1613.1606">&#160;&#160;</text><text fill="#000000" font-family="sans-serif" font-size="13" lengthAdjust="spacing" textLength="129.1367" x="1231.5" y="1628.2935">associative contai...</text></g><g id="elem_GMN83"><path d="M1225.5,1339.2969 L1225.5,1470.3594 L1452.1641,1470.3594 L1452.1641,1349.2969 L1442.1641,1339.2969 L1225.5,1339.2969 " fill="#FEFFDD" style="stroke:#181818;stroke-width:0.5;"/><path d="M1442.1641,1339.2969 L1442.1641,1349.2969 L1452.1641,1349.2969 L1442.1641,1339.2969 " fill="#FEFFDD" style="stroke:#181818;stroke-width:1;"/><text fill="#000000" font-family="sans-serif" font-size="13" lengthAdjust="spacing" textLength="185.0024" x="1248.0293" y="1356.3638">Meets the requirements of a</text><text fill="#000000" font-family="sans-serif" font-size="13" lengthAdjust="spacing" textLength="61.5977" x="1231.5" y="1371.4966">container</text><text fill="#000000" font-family="sans-serif" font-size="13" lengthAdjust="spacing" textLength="16.231" x="1231.5" y="1386.6294">, a</text><text fill="#000000" font-family="sans-serif" font-size="13" lengthAdjust="spacing" textLength="8.2646" x="1231.5" y="1401.7622">&#160;&#160;</text><text fill="#000000" font-family="sans-serif" font-size="13" lengthAdjust="spacing" textLength="130.3555" x="1231.5" y="1416.895">reversible container</text><text fill="#000000" font-family="sans-serif" font-size="13" lengthAdjust="spacing" textLength="53.0601" x="1231.5" y="1432.0278">, and an</text><text fill="#000000" font-family="sans-serif" font-size="13" lengthAdjust="spacing" textLength="8.2646" x="1231.5" y="1447.1606">&#160;&#160;</text><text fill="#000000" font-family="sans-serif" font-size="13" lengthAdjust="spacing" textLength="129.1367" x="1231.5" y="1462.2935">associative contai...</text></g><!--link C_0001906998976845593827 to C_0009583224762676263256--><g id="link_C_0001906998976845593827_C_0009583224762676263256"><path codeLine="107" d="M907.04,751.7069 C930.08,720.2169 970.31,662.8169 998,609.7969 C1031.7,545.2769 1001.91,502.9569 1059,457.7969 C1100.3,425.1269 1138.1567,413.7826 1189.0067,410.1126 " fill="transparent" id="C_0001906998976845593827-to-C_0009583224762676263256" style="stroke:#181818;stroke-width:1;stroke-dasharray:7.0,7.0;"/><polygon fill="transparent" points="1206.96,408.8169,1188.5748,404.1282,1189.4386,416.0971,1206.96,408.8169" style="stroke:#181818;stroke-width:1;"/></g><!--reverse link C_0001906998976845593827 to C_0005819947583752498517--><g id="link_C_0001906998976845593827_C_0005819947583752498517"><path codeLine="108" d="M914.8986,736.758 C941.5186,697.988 989.27,637.4969 1059,601.7969 C1122.66,569.2069 1204.45,560.1269 1262.99,558.3469 " fill="transparent" id="C_0001906998976845593827-backto-C_0005819947583752498517" style="stroke:#181818;stroke-width:1;"/><polygon fill="transparent" points="904.71,751.5969,919.8449,740.1542,909.9523,733.3618,904.71,751.5969" style="stroke:#181818;stroke-width:1;"/></g><!--reverse link C_0001906998976845593827 to C_0004088953224300771248--><g id="link_C_0001906998976845593827_C_0004088953224300771248"><path codeLine="109" d="M1015.9413,753.0083 C1036.1413,749.4783 1039.33,749.0169 1059,745.7969 C1121.96,735.5069 1193.08,724.8169 1247.76,716.7969 " fill="transparent" id="C_0001906998976845593827-backto-C_0004088953224300771248" style="stroke:#181818;stroke-width:1;"/><polygon fill="transparent" points="998.21,756.1069,1016.9742,758.9187,1014.9084,747.0979,998.21,756.1069" style="stroke:#181818;stroke-width:1;"/></g><!--reverse link C_0001906998976845593827 to C_0001698641695689253648--><g id="link_C_0001906998976845593827_C_0001698641695689253648"><path codeLine="110" d="M1015.9413,798.5855 C1036.1413,802.1155 1039.33,802.5769 1059,805.7969 C1129.58,817.3369 1210.4,829.3769 1266.82,837.5869 " fill="transparent" id="C_0001906998976845593827-backto-C_0001698641695689253648" style="stroke:#181818;stroke-width:1;"/><polygon fill="transparent" points="998.21,795.4869,1014.9084,804.4959,1016.9742,792.675,998.21,795.4869" style="stroke:#181818;stroke-width:1;"/></g><!--reverse link C_0001906998976845593827 to C_0017625547811729843273--><g id="link_C_0001906998976845593827_C_0017625547811729843273"><path codeLine="111" d="M914.8986,814.8358 C941.5186,853.6058 989.27,914.0969 1059,949.7969 C1128.87,985.5669 1220.59,993.0169 1279.43,993.5769 " fill="transparent" id="C_0001906998976845593827-backto-C_0017625547811729843273" style="stroke:#181818;stroke-width:1;"/><polygon fill="transparent" points="904.71,799.9969,909.9523,818.232,919.8449,811.4396,904.71,799.9969" style="stroke:#181818;stroke-width:1;"/></g><!--reverse link C_0001906998976845593827 to C_0016809506695079101711--><g id="link_C_0001906998976845593827_C_0016809506695079101711"><path codeLine="112" d="M898.1614,817.3457 C912.3014,877.9257 954.15,1019.7869 1059,1093.7969 C1112.32,1131.4369 1185.73,1141.2669 1243.86,1142.0469 " fill="transparent" id="C_0001906998976845593827-backto-C_0016809506695079101711" style="stroke:#181818;stroke-width:1;"/><polygon fill="transparent" points="894.07,799.8169,892.3185,818.7095,904.0044,815.9819,894.07,799.8169" style="stroke:#181818;stroke-width:1;"/></g><!--reverse link C_0001906998976845593827 to C_0016061750655888038828--><g id="link_C_0001906998976845593827_C_0016061750655888038828"><path codeLine="113" d="M890.7045,817.9436 C894.6545,895.5936 917.39,1122.3869 1059,1237.7969 C1113.77,1282.4369 1195.4,1290.1069 1256.23,1288.2969 " fill="transparent" id="C_0001906998976845593827-backto-C_0016061750655888038828" style="stroke:#181818;stroke-width:1;"/><polygon fill="transparent" points="889.79,799.9669,884.7122,818.2485,896.6967,817.6388,889.79,799.9669" style="stroke:#181818;stroke-width:1;"/></g><!--link C_0014703748170233212531 to C_0001906998976845593827--><g id="link_C_0014703748170233212531_C_0001906998976845593827"><path codeLine="114" d="M481.58,744.0769 C570.49,751.0269 673.305,759.0713 759.865,765.8513 " fill="transparent" id="C_0014703748170233212531-to-C_0001906998976845593827" style="stroke:#181818;stroke-width:1;stroke-dasharray:7.0,7.0;"/><polygon fill="transparent" points="777.81,767.2569,760.3335,759.8696,759.3964,771.833,777.81,767.2569" style="stroke:#181818;stroke-width:1;"/></g><!--reverse link C_0001906998976845593827 to C_0004413300066190592573--><g id="link_C_0001906998976845593827_C_0004413300066190592573"><path codeLine="115" d="M921.8414,737.8807 C947.5014,707.2607 978.1,665.4769 998,609.7969 C1031.23,516.8469 987.63,237.9869 1059,169.7969 C1109.91,121.1569 1191.62,113.8969 1253.48,116.8869 " fill="transparent" id="C_0001906998976845593827-backto-C_0004413300066190592573" style="stroke:#181818;stroke-width:1;"/><polygon fill="transparent" points="910.28,751.6769,926.4401,741.7345,917.2427,734.0269,910.28,751.6769" style="stroke:#181818;stroke-width:1;"/></g><!--reverse link C_0001906998976845593827 to C_0000261527948690069145--><g id="link_C_0001906998976845593827_C_0000261527948690069145"><path codeLine="116" d="M920.4351,737.5517 C945.1651,706.6417 975.34,664.5969 998,609.7969 C1049.33,485.6769 961.5,406.1869 1059,313.7969 C1111.71,263.8469 1196.94,257.6669 1259.34,261.3069 " fill="transparent" id="C_0001906998976845593827-backto-C_0000261527948690069145" style="stroke:#181818;stroke-width:1;"/><polygon fill="transparent" points="909.19,751.6069,925.1201,741.3,915.75,733.8033,909.19,751.6069" style="stroke:#181818;stroke-width:1;"/></g><!--link C_0007311719642430294892 to C_0001906998976845593827--><g id="link_C_0007311719642430294892_C_0001906998976845593827"><path codeLine="117" d="M662.5,793.7869 C703.65,790.4969 725.5975,788.7344 760.0475,785.9744 " fill="transparent" id="C_0007311719642430294892-to-C_0001906998976845593827" style="stroke:#181818;stroke-width:1;stroke-dasharray:7.0,7.0;"/><polygon fill="transparent" points="777.99,784.5369,759.5683,779.9935,760.5267,791.9552,777.99,784.5369" style="stroke:#181818;stroke-width:1;"/></g><!--link C_0010543423047955878282 to C_0013916464534772332265--><g id="link_C_0010543423047955878282_C_0013916464534772332265"><path codeLine="118" d="M2298.05,1857.8769 C2404,1854.7369 2535.5379,1850.8408 2650.7879,1847.4208 " fill="transparent" id="C_0010543423047955878282-to-C_0013916464534772332265" style="stroke:#181818;stroke-width:1;stroke-dasharray:7.0,7.0;"/><polygon fill="transparent" points="2668.78,1846.8869,2650.61,1841.4234,2650.9659,1853.4181,2668.78,1846.8869" style="stroke:#181818;stroke-width:1;"/></g><!--link C_0006682815439280437833 to C_0013916464534772332265--><g id="link_C_0006682815439280437833_C_0013916464534772332265"><path codeLine="119" d="M2298.29,1938.3469 C2386.52,1932.6269 2504.82,1922.2069 2608,1903.7969 C2660.54,1894.4269 2701.2637,1884.0194 2746.1937,1870.8794 " fill="transparent" id="C_0006682815439280437833-to-C_0013916464534772332265" style="stroke:#181818;stroke-width:1;stroke-dasharray:7.0,7.0;"/><polygon fill="transparent" points="2763.47,1865.8269,2744.5095,1865.1206,2747.8778,1876.6382,2763.47,1865.8269" style="stroke:#181818;stroke-width:1;"/></g><!--link C_0013894242623239472501 to C_0013916464534772332265--><g id="link_C_0013894242623239472501_C_0013916464534772332265"><path codeLine="120" d="M2524.49,1719.8169 C2552.94,1724.7669 2581.07,1730.6969 2608,1737.7969 C2677.48,1756.1069 2736.6018,1784.524 2782.0818,1809.084 " fill="transparent" id="C_0013894242623239472501-to-C_0013916464534772332265" style="stroke:#181818;stroke-width:1;stroke-dasharray:7.0,7.0;"/><polygon fill="transparent" points="2797.92,1817.6369,2784.9328,1803.8046,2779.2309,1814.3634,2797.92,1817.6369" style="stroke:#181818;stroke-width:1;"/></g><!--reverse link C_0015937781856508569918 to C_0013894242623239472501--><g id="link_C_0015937781856508569918_C_0013894242623239472501"><path codeLine="121" d="M1613,1695.7969 C1666.16,1695.7969 1711.2,1695.7969 1767.85,1695.7969 " fill="transparent" id="C_0015937781856508569918-backto-C_0013894242623239472501" style="stroke:#181818;stroke-width:1;"/><polygon fill="transparent" points="1601,1695.7969,1607,1699.7969,1613,1695.7969,1607,1691.7969,1601,1695.7969" style="stroke:#181818;stroke-width:1;"/><rect fill="transparent" height="6" style="stroke:#C82930;stroke-width:1;" width="6" x="1652" y="1684.8633"/><text fill="#000000" font-family="sans-serif" font-size="13" lengthAdjust="spacing" textLength="29.3135" x="1662" y="1691.8638">_M_t</text></g><!--link C_0000866953055675511964 to C_0001906998976845593827--><g id="link_C_0000866953055675511964_C_0001906998976845593827"><path codeLine="122" d="M376.75,1671.6669 C450.54,1542.0969 790.2113,945.7377 864.2513,815.7477 " fill="transparent" id="C_0000866953055675511964-to-C_0001906998976845593827" style="stroke:#181818;stroke-width:1;stroke-dasharray:7.0,7.0;"/><polygon fill="transparent" points="873.16,800.1069,859.0377,812.7781,869.4649,818.7173,873.16,800.1069" style="stroke:#181818;stroke-width:1;"/></g><!--link C_0014510487773565290867 to C_0015937781856508569918--><g id="link_C_0014510487773565290867_C_0015937781856508569918"><path codeLine="123" d="M978.24,1695.7969 C1007.4,1695.7969 1025.41,1695.7969 1060.66,1695.7969 " fill="transparent" id="C_0014510487773565290867-to-C_0015937781856508569918" style="stroke:#181818;stroke-width:1;"/><ellipse cx="1068.66" cy="1695.7969" fill="#FFFFFF" rx="8" ry="8" style="stroke:#181818;stroke-width:1;"/><line style="stroke:#181818;stroke-width:1;" x1="1060.66" x2="1076.66" y1="1695.7969" y2="1695.7969"/><line style="stroke:#181818;stroke-width:1;" x1="1068.66" x2="1068.66" y1="1687.7969" y2="1703.7969"/></g><!--reverse link C_0000866953055675511964 to C_0014510487773565290867--><g id="link_C_0000866953055675511964_C_0014510487773565290867"><path codeLine="124" d="M601.7,1695.7969 C676.94,1695.7969 738.84,1695.7969 797.74,1695.7969 " fill="transparent" id="C_0000866953055675511964-backto-C_0014510487773565290867" style="stroke:#181818;stroke-width:1;"/><polygon fill="transparent" points="583.7,1695.7969,601.7,1701.7969,601.7,1689.7969,583.7,1695.7969" style="stroke:#181818;stroke-width:1;"/></g><!--link C_0016373827787893331873 to C_0015235694265660149602--><g id="link_C_0016373827787893331873_C_0015235694265660149602"><path codeLine="125" d="M466.13,494.2569 C537.03,500.9269 633.13,511.6469 717,526.7969 C743.78,531.6369 755.1435,533.8769 781.3235,540.3969 " fill="transparent" id="C_0016373827787893331873-to-C_0015235694265660149602" style="stroke:#181818;stroke-width:1;stroke-dasharray:7.0,7.0;"/><polygon fill="transparent" points="798.79,544.7469,782.7735,534.5748,779.8735,546.2191,798.79,544.7469" style="stroke:#181818;stroke-width:1;"/></g><!--link C_0013101789567079497534 to C_0015235694265660149602--><g id="link_C_0013101789567079497534_C_0015235694265660149602"><path codeLine="126" d="M466.21,568.7969 C558.79,568.7969 675.84,568.7969 767.79,568.7969 " fill="transparent" id="C_0013101789567079497534-to-C_0015235694265660149602" style="stroke:#181818;stroke-width:1;stroke-dasharray:7.0,7.0;"/><polygon fill="transparent" points="785.79,568.7969,767.79,562.7969,767.79,574.7969,785.79,568.7969" style="stroke:#181818;stroke-width:1;"/></g><!--link C_0001090897514726089586 to C_0013916464534772332265--><g id="link_C_0001090897514726089586_C_0013916464534772332265"><path codeLine="127" d="M2434.31,1802.7969 C2501.19,1808.8869 2572.72,1815.4969 2639,1821.7969 C2648.71,1822.7169 2640.7748,1821.9317 2650.8348,1822.9117 " fill="transparent" id="C_0001090897514726089586-to-C_0013916464534772332265" style="stroke:#181818;stroke-width:1;stroke-dasharray:7.0,7.0;"/><polygon fill="transparent" points="2668.75,1824.6569,2651.4165,1816.9399,2650.2531,1828.8834,2668.75,1824.6569" style="stroke:#181818;stroke-width:1;"/></g><!--reverse link C_0008109501906190460155 to C_0001090897514726089586--><g id="link_C_0008109501906190460155_C_0001090897514726089586"><path codeLine="128" d="M1631.26,1778.7969 C1664.52,1778.7969 1687.07,1778.7969 1721.91,1778.7969 " fill="transparent" id="C_0008109501906190460155-backto-C_0001090897514726089586" style="stroke:#181818;stroke-width:1;"/><polygon fill="transparent" points="1619.26,1778.7969,1625.26,1782.7969,1631.26,1778.7969,1625.26,1774.7969,1619.26,1778.7969" style="stroke:#181818;stroke-width:1;"/><rect fill="transparent" height="6" style="stroke:#C82930;stroke-width:1;" width="6" x="1652" y="1767.8633"/><text fill="#000000" font-family="sans-serif" font-size="13" lengthAdjust="spacing" textLength="29.3135" x="1662" y="1774.8638">_M_t</text></g><!--link C_0002334092490773708849 to C_0008109501906190460155--><g id="link_C_0002334092490773708849_C_0008109501906190460155"><path codeLine="129" d="M995.69,1778.7969 C1015.4,1778.7969 1020.8,1778.7969 1042.96,1778.7969 " fill="transparent" id="C_0002334092490773708849-to-C_0008109501906190460155" style="stroke:#181818;stroke-width:1;"/><ellipse cx="1050.96" cy="1778.7969" fill="#FFFFFF" rx="8" ry="8" style="stroke:#181818;stroke-width:1;"/><line style="stroke:#181818;stroke-width:1;" x1="1042.96" x2="1058.96" y1="1778.7969" y2="1778.7969"/><line style="stroke:#181818;stroke-width:1;" x1="1050.96" x2="1050.96" y1="1770.7969" y2="1786.7969"/></g><!--reverse link C_0000866953055675511964 to C_0002334092490773708849--><g id="link_C_0000866953055675511964_C_0002334092490773708849"><path codeLine="130" d="M532.3386,1722.6213 C617.4286,1736.0913 703.76,1749.7669 780.25,1761.8869 " fill="transparent" id="C_0000866953055675511964-backto-C_0002334092490773708849" style="stroke:#181818;stroke-width:1;"/><polygon fill="transparent" points="514.56,1719.8069,531.4005,1728.5475,533.2767,1716.6951,514.56,1719.8069" style="stroke:#181818;stroke-width:1;"/></g><!--link C_0002099648825473310360 to C_0015235694265660149602--><g id="link_C_0002099648825473310360_C_0015235694265660149602"><path codeLine="131" d="M598.74,627.7869 C638.34,622.6169 678.93,616.6269 717,609.7969 C742.85,605.1669 753.1428,603.2017 778.6128,597.0517 " fill="transparent" id="C_0002099648825473310360-to-C_0015235694265660149602" style="stroke:#181818;stroke-width:1;stroke-dasharray:7.0,7.0;"/><polygon fill="transparent" points="796.11,592.8269,777.2046,591.2194,780.0211,602.8841,796.11,592.8269" style="stroke:#181818;stroke-width:1;"/></g><!--link GMN83 to C_0008109501906190460155--><g id="link_GMN83_C_0008109501906190460155"><path d="M1225.31,1406.2169 C1153.59,1414.0669 1067.4,1438.1269 1028.5,1505.2969 C1004.56,1546.6369 1004.56,1678.9569 1028.5,1720.2969 C1036.61,1734.2969 1046.97,1745.8569 1058.96,1755.3369 " fill="transparent" id="GMN83-C_0008109501906190460155" style="stroke:#181818;stroke-width:1;stroke-dasharray:7.0,7.0;"/></g><!--SRC=[nLZRRjj647tdLopoabvaOUyNmJOG-A456YD1skQLeAMLp9OY5NBbrcZwxvsbB9caXfOC1AW14G9dzypixCoP8uSy59uqOJ6RhRCDcLTby7y7CY-ofY6BF5lLsJef_3AGK94wNzq7U5lxUSYhCjcjUdENbrdzc2wtPVlwCdrNhzWaFlaa_UIRRH6ktv2i8JSffTGfApYNHdCTFu8h_GGqPYR_96cQ_3lgxhVD97xkgghe-66EQkUiCzfAfPomt7Jz8EQ17_zbcnLfgAA3guSgNtJ0bMNEIGEn6iMbiuhrm17p0BoiGlgI0qcjTIfcGb1g3EFITXqWve63LUspu6iCcsbdjOIdqjPn9NGV6p4Fi0lVD0WmWmjJIXhBcE7EIi6Dw01ZPZpeNMOm3zf2WL0DiL7Z640orlM0c97GNu2dcXa0KCfQIuMrtFRWZysdQvFyCDaz-_N9fA72ICiCvK9m1edk7GKn3uzIhV8v551MBj0Aaan0SK0seDGLN6JlCZ3p27w55X7bcYbkdBJQ0OfZKdNX4VE9L8N7ZI-pjIVfnzelm7FmizaohvkGPlLgk_PbIEEQ2RgmyK1TYy7A0ICO0PN7d9QnQpY4vdWtPCGy23dzT9U6sllBz1V_E4a_PyKaVlkmX6zRFqblglKcgpsmthkYgEQTonQEQQcb4jAOU9zSTxE5cSzm_Qk7nyrwmuxzKIM5v89Auw1O3HHgzwYO-HN-Ziy7LGGO350TjrGAOqMls13pm1yCdoTNaSrH9r1FGcad8JbQGuCuJNk7GinZXm9lizcV_d5N9fiihrldSVmr8OPmtPuMnXnhmYLclvuSCEQxMz-zI3_2uZIBaRVWtHgm41o4nmKNC1ouehs6HymlvsZdzcf7nl3w-YbZLwttB43Vjf6tGPDs8sb3xwRK2GE4R9LM51xEiHxX8UOJNOpc4dqvQ4vg8sqBgfGsIh7OXpq-EJOVPsSsUuYDkB-H3jSgHgKrna25AEu0pFIuzjWyclgs4_2cqy946M6WePmGWjd- -4FC9xrWL1Bd6Wn_RM36IMU0D7fbT6mUxG8GPlatQOKUqA4V3c_7cmAe2D8DKSAyung-ATjJWuXvcBCdBz-uCwXbKKf4bGWV2OIYUlCDCOy4DbQKSQvBwa0UWe0J1WITT5qFYFaKPquswtessrJ5uxggD_VvF1qSU7XpdVDowg2dGDA0GeFYf4BJNZJ7vdqqet9wElrwFQxvHxTTVhsu65VPPsp3jFCPsp1PV7eRAdhFs8OfsNEs8GfrL2y-Nm3sO-YSJ28Qyenjc3OSbLYdWqJboc4Rggr6LSVfRUWWFcCRDYkh_RLXc3DoaTwc8HcTRsTa1fjS5nS_ZW_tKMVF9OODoz41zfmOJ9sDJgJJsr3gF-FICMAk3YsEOFQk0IFTVJxHaN0wdoZFZtBgouaXX9HLy2HK6r8jnxaLrf6VVR7nDLbMDLduPLxcvOfaYsmJihl2avrk8tlTHggxFs34DzF4bulMHuk1-SD8EIxyKFgu9jpx0SOH0iRFhqF0gFfL22Xhlmu18_1N8Y1S_Y82bak4eL-NIuoiJqJn_7Tq9enpui9RxqCJmKZjlsppsiTVwKtSbf4a_jSnoqjV9nEImVAazW- -Rl9Og3qRn96LSG7eacgUPo5_sA-OJgUZSHwT6Ula_olA94dU_kHXQnRyWloLX_lutzToTR5T5nFIUe3-f5CzfSdRz-y_tnxU_NwtBSDsj_hmahafcpBo7TksLlRzVm00]--></g></svg>